midi.Pattern(format=1, resolution=220, tracks=\
[midi.Track(\
  [midi.NoteOnEvent(tick=0, channel=0, data=[61, 100]),
   midi.NoteOffEvent(tick=100, channel=0, data=[61, 0]),
   midi.NoteOnEvent(tick=200, channel=0, data=[62, 100]),
   midi.NoteOffEvent(tick=300, channel=0, data=[62, 0]),
   midi.NoteOnEvent(tick=400, channel=0, data=[63, 100]),
   midi.NoteOffEvent(tick=500, channel=0, data=[63, 0]),
   midi.NoteOnEvent(tick=600, channel=0, data=[19, 100]),
   midi.NoteOffEvent(tick=700, channel=0, data=[19, 0]),
   midi.NoteOnEvent(tick=800, channel=0, data=[14, 100]),
   midi.NoteOffEvent(tick=900, channel=0, data=[14, 0]),
   midi.NoteOnEvent(tick=1000, channel=0, data=[15, 100]),
   midi.NoteOffEvent(tick=1100, channel=0, data=[15, 0]),
   midi.NoteOnEvent(tick=1200, channel=0, data=[8, 100]),
   midi.NoteOffEvent(tick=1300, channel=0, data=[8, 0]),
   midi.NoteOnEvent(tick=1400, channel=0, data=[2, 100]),
   midi.NoteOffEvent(tick=1500, channel=0, data=[2, 0]),
   midi.NoteOnEvent(tick=1600, channel=0, data=[56, 100]),
   midi.NoteOffEvent(tick=1700, channel=0, data=[56, 0]),
   midi.NoteOnEvent(tick=1800, channel=0, data=[36, 100]),
   midi.NoteOffEvent(tick=1900, channel=0, data=[36, 0]),
   midi.NoteOnEvent(tick=2000, channel=0, data=[36, 100]),
   midi.NoteOffEvent(tick=2100, channel=0, data=[36, 0]),
   midi.NoteOnEvent(tick=2200, channel=0, data=[36, 100]),
   midi.NoteOffEvent(tick=2300, channel=0, data=[36, 0]),
   midi.NoteOnEvent(tick=2400, channel=0, data=[36, 100]),
   midi.NoteOffEvent(tick=2500, channel=0, data=[36, 0]),
   midi.NoteOnEvent(tick=2600, channel=0, data=[0, 100]),
   midi.NoteOffEvent(tick=2700, channel=0, data=[0, 0]),
   midi.NoteOnEvent(tick=2800, channel=0, data=[1, 100]),
   midi.NoteOffEvent(tick=2900, channel=0, data=[1, 0]),
   midi.NoteOnEvent(tick=3000, channel=0, data=[14, 100]),
   midi.NoteOffEvent(tick=3100, channel=0, data=[14, 0]),
   midi.NoteOnEvent(tick=3200, channel=0, data=[20, 100]),
   midi.NoteOffEvent(tick=3300, channel=0, data=[20, 0]),
   midi.NoteOnEvent(tick=3400, channel=0, data=[19, 100]),
   midi.NoteOffEvent(tick=3500, channel=0, data=[19, 0]),
   midi.NoteOnEvent(tick=3600, channel=0, data=[68, 100]),
   midi.NoteOffEvent(tick=3700, channel=0, data=[68, 0]),
   midi.NoteOnEvent(tick=3800, channel=0, data=[0, 100]),
   midi.NoteOffEvent(tick=3900, channel=0, data=[0, 0]),
   midi.NoteOnEvent(tick=4000, channel=0, data=[18, 100]),
   midi.NoteOffEvent(tick=4100, channel=0, data=[18, 0]),
   midi.NoteOnEvent(tick=4200, channel=0, data=[18, 100]),
   midi.NoteOffEvent(tick=4300, channel=0, data=[18, 0]),
   midi.NoteOnEvent(tick=4400, channel=0, data=[8, 100]),
   midi.NoteOffEvent(tick=4500, channel=0, data=[8, 0]),
   midi.NoteOnEvent(tick=4600, channel=0, data=[6, 100]),
   midi.NoteOffEvent(tick=4700, channel=0, data=[6, 0]),
   midi.NoteOnEvent(tick=4800, channel=0, data=[13, 100]),
   midi.NoteOffEvent(tick=4900, channel=0, data=[13, 0]),
   midi.NoteOnEvent(tick=5000, channel=0, data=[12, 100]),
   midi.NoteOffEvent(tick=5100, channel=0, data=[12, 0]),
   midi.NoteOnEvent(tick=5200, channel=0, data=[4, 100]),
   midi.NoteOffEvent(tick=5300, channel=0, data=[4, 0]),
   midi.NoteOnEvent(tick=5400, channel=0, data=[13, 100]),
   midi.NoteOffEvent(tick=5500, channel=0, data=[13, 0]),
   midi.NoteOnEvent(tick=5600, channel=0, data=[19, 100]),
   midi.NoteOffEvent(tick=5700, channel=0, data=[19, 0]),
   midi.NoteOnEvent(tick=5800, channel=0, data=[68, 100]),
   midi.NoteOffEvent(tick=5900, channel=0, data=[68, 0]),
   midi.NoteOnEvent(tick=6000, channel=0, data=[14, 100]),
   midi.NoteOffEvent(tick=6100, channel=0, data=[14, 0]),
   midi.NoteOnEvent(tick=6200, channel=0, data=[15, 100]),
   midi.NoteOffEvent(tick=6300, channel=0, data=[15, 0]),
   midi.NoteOnEvent(tick=6400, channel=0, data=[4, 100]),
   midi.NoteOffEvent(tick=6500, channel=0, data=[4, 0]),
   midi.NoteOnEvent(tick=6600, channel=0, data=[17, 100]),
   midi.NoteOffEvent(tick=6700, channel=0, data=[17, 0]),
   midi.NoteOnEvent(tick=6800, channel=0, data=[0, 100]),
   midi.NoteOffEvent(tick=6900, channel=0, data=[0, 0]),
   midi.NoteOnEvent(tick=7000, channel=0, data=[19, 100]),
   midi.NoteOffEvent(tick=7100, channel=0, data=[19, 0]),
   midi.NoteOnEvent(tick=7200, channel=0, data=[14, 100]),
   midi.NoteOffEvent(tick=7300, channel=0, data=[14, 0]),
   midi.NoteOnEvent(tick=7400, channel=0, data=[17, 100]),
   midi.NoteOffEvent(tick=7500, channel=0, data=[17, 0]),
   midi.NoteOnEvent(tick=7600, channel=0, data=[18, 100]),
   midi.NoteOffEvent(tick=7700, channel=0, data=[18, 0]),
   midi.NoteOnEvent(tick=7800, channel=0, data=[56, 100]),
   midi.NoteOffEvent(tick=7900, channel=0, data=[56, 0]),
   midi.NoteOnEvent(tick=8000, channel=0, data=[56, 100]),
   midi.NoteOffEvent(tick=8100, channel=0, data=[56, 0]),
   midi.NoteOnEvent(tick=8200, channel=0, data=[18, 100]),
   midi.NoteOffEvent(tick=8300, channel=0, data=[18, 0]),
   midi.NoteOnEvent(tick=8400, channel=0, data=[7, 100]),
   midi.NoteOffEvent(tick=8500, channel=0, data=[7, 0]),
   midi.NoteOnEvent(tick=8600, channel=0, data=[14, 100]),
   midi.NoteOffEvent(tick=8700, channel=0, data=[14, 0]),
   midi.NoteOnEvent(tick=8800, channel=0, data=[17, 100]),
   midi.NoteOffEvent(tick=8900, channel=0, data=[17, 0]),
   midi.NoteOnEvent(tick=9000, channel=0, data=[19, 100]),
   midi.NoteOffEvent(tick=9100, channel=0, data=[19, 0]),
   midi.NoteOnEvent(tick=9200, channel=0, data=[36, 100]),
   midi.NoteOffEvent(tick=9300, channel=0, data=[36, 0]),
   midi.NoteOnEvent(tick=9400, channel=0, data=[3, 100]),
   midi.NoteOffEvent(tick=9500, channel=0, data=[3, 0]),
   midi.NoteOnEvent(tick=9600, channel=0, data=[4, 100]),
   midi.NoteOffEvent(tick=9700, channel=0, data=[4, 0]),
   midi.NoteOnEvent(tick=9800, channel=0, data=[18, 100]),
   midi.NoteOffEvent(tick=9900, channel=0, data=[18, 0]),
   midi.NoteOnEvent(tick=10000, channel=0, data=[2, 100]),
   midi.NoteOffEvent(tick=10100, channel=0, data=[2, 0]),
   midi.NoteOnEvent(tick=10200, channel=0, data=[17, 100]),
   midi.NoteOffEvent(tick=10300, channel=0, data=[17, 0]),
   midi.NoteOnEvent(tick=10400, channel=0, data=[8, 100]),
   midi.NoteOffEvent(tick=10500, channel=0, data=[8, 0]),
   midi.NoteOnEvent(tick=10600, channel=0, data=[15, 100]),
   midi.NoteOffEvent(tick=10700, channel=0, data=[15, 0]),
   midi.NoteOnEvent(tick=10800, channel=0, data=[19, 100]),
   midi.NoteOffEvent(tick=10900, channel=0, data=[19, 0]),
   midi.NoteOnEvent(tick=11000, channel=0, data=[8, 100]),
   midi.NoteOffEvent(tick=11100, channel=0, data=[8, 0]),
   midi.NoteOnEvent(tick=11200, channel=0, data=[14, 100]),
   midi.NoteOffEvent(tick=11300, channel=0, data=[14, 0]),
   midi.NoteOnEvent(tick=11400, channel=0, data=[13, 100]),
   midi.NoteOffEvent(tick=11500, channel=0, data=[13, 0]),
   midi.NoteOnEvent(tick=11600, channel=0, data=[56, 100]),
   midi.NoteOffEvent(tick=11700, channel=0, data=[56, 0]),
   midi.NoteOnEvent(tick=11800, channel=0, data=[36, 100]),
   midi.NoteOffEvent(tick=11900, channel=0, data=[36, 0]),
   midi.NoteOnEvent(tick=12000, channel=0, data=[36, 100]),
   midi.NoteOffEvent(tick=12100, channel=0, data=[36, 0]),
   midi.NoteOnEvent(tick=12200, channel=0, data=[36, 100]),
   midi.NoteOffEvent(tick=12300, channel=0, data=[36, 0]),
   midi.NoteOnEvent(tick=12400, channel=0, data=[36, 100]),
   midi.NoteOffEvent(tick=12500, channel=0, data=[36, 0]),
   midi.NoteOnEvent(tick=12600, channel=0, data=[3, 100]),
   midi.NoteOffEvent(tick=12700, channel=0, data=[3, 0]),
   midi.NoteOnEvent(tick=12800, channel=0, data=[4, 100]),
   midi.NoteOffEvent(tick=12900, channel=0, data=[4, 0]),
   midi.NoteOnEvent(tick=13000, channel=0, data=[18, 100]),
   midi.NoteOffEvent(tick=13100, channel=0, data=[18, 0]),
   midi.NoteOnEvent(tick=13200, channel=0, data=[2, 100]),
   midi.NoteOffEvent(tick=13300, channel=0, data=[2, 0]),
   midi.NoteOnEvent(tick=13400, channel=0, data=[17, 100]),
   midi.NoteOffEvent(tick=13500, channel=0, data=[17, 0]),
   midi.NoteOnEvent(tick=13600, channel=0, data=[8, 100]),
   midi.NoteOffEvent(tick=13700, channel=0, data=[8, 0]),
   midi.NoteOnEvent(tick=13800, channel=0, data=[1, 100]),
   midi.NoteOffEvent(tick=13900, channel=0, data=[1, 0]),
   midi.NoteOnEvent(tick=14000, channel=0, data=[4, 100]),
   midi.NoteOffEvent(tick=14100, channel=0, data=[4, 0]),
   midi.NoteOnEvent(tick=14200, channel=0, data=[18, 100]),
   midi.NoteOffEvent(tick=14300, channel=0, data=[18, 0]),
   midi.NoteOnEvent(tick=14400, channel=0, data=[36, 100]),
   midi.NoteOffEvent(tick=14500, channel=0, data=[36, 0]),
   midi.NoteOnEvent(tick=14600, channel=0, data=[7, 100]),
   midi.NoteOffEvent(tick=14700, channel=0, data=[7, 0]),
   midi.NoteOnEvent(tick=14800, channel=0, data=[14, 100]),
   midi.NoteOffEvent(tick=14900, channel=0, data=[14, 0]),
   midi.NoteOnEvent(tick=15000, channel=0, data=[22, 100]),
   midi.NoteOffEvent(tick=15100, channel=0, data=[22, 0]),
   midi.NoteOnEvent(tick=15200, channel=0, data=[36, 100]),
   midi.NoteOffEvent(tick=15300, channel=0, data=[36, 0]),
   midi.NoteOnEvent(tick=15400, channel=0, data=[19, 100]),
   midi.NoteOffEvent(tick=15500, channel=0, data=[19, 0]),
   midi.NoteOnEvent(tick=15600, channel=0, data=[14, 100]),
   midi.NoteOffEvent(tick=15700, channel=0, data=[14, 0]),
   midi.NoteOnEvent(tick=15800, channel=0, data=[36, 100]),
   midi.NoteOffEvent(tick=15900, channel=0, data=[36, 0]),
   midi.NoteOnEvent(tick=16000, channel=0, data=[20, 100]),
   midi.NoteOffEvent(tick=16100, channel=0, data=[20, 0]),
   midi.NoteOnEvent(tick=16200, channel=0, data=[18, 100]),
   midi.NoteOffEvent(tick=16300, channel=0, data=[18, 0]),
   midi.NoteOnEvent(tick=16400, channel=0, data=[4, 100]),
   midi.NoteOffEvent(tick=16500, channel=0, data=[4, 0]),
   midi.NoteOnEvent(tick=16600, channel=0, data=[36, 100]),
   midi.NoteOffEvent(tick=16700, channel=0, data=[36, 0]),
   midi.NoteOnEvent(tick=16800, channel=0, data=[14, 100]),
   midi.NoteOffEvent(tick=16900, channel=0, data=[14, 0]),
   midi.NoteOnEvent(tick=17000, channel=0, data=[15, 100]),
   midi.NoteOffEvent(tick=17100, channel=0, data=[15, 0]),
   midi.NoteOnEvent(tick=17200, channel=0, data=[4, 100]),
   midi.NoteOffEvent(tick=17300, channel=0, data=[4, 0]),
   midi.NoteOnEvent(tick=17400, channel=0, data=[17, 100]),
   midi.NoteOffEvent(tick=17500, channel=0, data=[17, 0]),
   midi.NoteOnEvent(tick=17600, channel=0, data=[0, 100]),
   midi.NoteOffEvent(tick=17700, channel=0, data=[0, 0]),
   midi.NoteOnEvent(tick=17800, channel=0, data=[19, 100]),
   midi.NoteOffEvent(tick=17900, channel=0, data=[19, 0]),
   midi.NoteOnEvent(tick=18000, channel=0, data=[14, 100]),
   midi.NoteOffEvent(tick=18100, channel=0, data=[14, 0]),
   midi.NoteOnEvent(tick=18200, channel=0, data=[17, 100]),
   midi.NoteOffEvent(tick=18300, channel=0, data=[17, 0]),
   midi.NoteOnEvent(tick=18400, channel=0, data=[18, 100]),
   midi.NoteOffEvent(tick=18500, channel=0, data=[18, 0]),
   midi.NoteOnEvent(tick=18600, channel=0, data=[36, 100]),
   midi.NoteOffEvent(tick=18700, channel=0, data=[36, 0]),
   midi.NoteOnEvent(tick=18800, channel=0, data=[19, 100]),
   midi.NoteOffEvent(tick=18900, channel=0, data=[19, 0]),
   midi.NoteOnEvent(tick=19000, channel=0, data=[14, 100]),
   midi.NoteOffEvent(tick=19100, channel=0, data=[14, 0]),
   midi.NoteOnEvent(tick=19200, channel=0, data=[36, 100]),
   midi.NoteOffEvent(tick=19300, channel=0, data=[36, 0]),
   midi.NoteOnEvent(tick=19400, channel=0, data=[0, 100]),
   midi.NoteOffEvent(tick=19500, channel=0, data=[0, 0]),
   midi.NoteOnEvent(tick=19600, channel=0, data=[18, 100]),
   midi.NoteOffEvent(tick=19700, channel=0, data=[18, 0]),
   midi.NoteOnEvent(tick=19800, channel=0, data=[18, 100]),
   midi.NoteOffEvent(tick=19900, channel=0, data=[18, 0]),
   midi.NoteOnEvent(tick=20000, channel=0, data=[8, 100]),
   midi.NoteOffEvent(tick=20100, channel=0, data=[8, 0]),
   midi.NoteOnEvent(tick=20200, channel=0, data=[6, 100]),
   midi.NoteOffEvent(tick=20300, channel=0, data=[6, 0]),
   midi.NoteOnEvent(tick=20400, channel=0, data=[13, 100]),
   midi.NoteOffEvent(tick=20500, channel=0, data=[13, 0]),
   midi.NoteOnEvent(tick=20600, channel=0, data=[36, 100]),
   midi.NoteOffEvent(tick=20700, channel=0, data=[36, 0]),
   midi.NoteOnEvent(tick=20800, channel=0, data=[21, 100]),
   midi.NoteOffEvent(tick=20900, channel=0, data=[21, 0]),
   midi.NoteOnEvent(tick=21000, channel=0, data=[0, 100]),
   midi.NoteOffEvent(tick=21100, channel=0, data=[0, 0]),
   midi.NoteOnEvent(tick=21200, channel=0, data=[11, 100]),
   midi.NoteOffEvent(tick=21300, channel=0, data=[11, 0]),
   midi.NoteOnEvent(tick=21400, channel=0, data=[20, 100]),
   midi.NoteOffEvent(tick=21500, channel=0, data=[20, 0]),
   midi.NoteOnEvent(tick=21600, channel=0, data=[4, 100]),
   midi.NoteOffEvent(tick=21700, channel=0, data=[4, 0]),
   midi.NoteOnEvent(tick=21800, channel=0, data=[18, 100]),
   midi.NoteOffEvent(tick=21900, channel=0, data=[18, 0]),
   midi.NoteOnEvent(tick=22000, channel=0, data=[36, 100]),
   midi.NoteOffEvent(tick=22100, channel=0, data=[36, 0]),
   midi.NoteOnEvent(tick=22200, channel=0, data=[19, 100]),
   midi.NoteOffEvent(tick=22300, channel=0, data=[19, 0]),
   midi.NoteOnEvent(tick=22400, channel=0, data=[14, 100]),
   midi.NoteOffEvent(tick=22500, channel=0, data=[14, 0]),
   midi.NoteOnEvent(tick=22600, channel=0, data=[36, 100]),
   midi.NoteOffEvent(tick=22700, channel=0, data=[36, 0]),
   midi.NoteOnEvent(tick=22800, channel=0, data=[21, 100]),
   midi.NoteOffEvent(tick=22900, channel=0, data=[21, 0]),
   midi.NoteOnEvent(tick=23000, channel=0, data=[0, 100]),
   midi.NoteOffEvent(tick=23100, channel=0, data=[0, 0]),
   midi.NoteOnEvent(tick=23200, channel=0, data=[17, 100]),
   midi.NoteOffEvent(tick=23300, channel=0, data=[17, 0]),
   midi.NoteOnEvent(tick=23400, channel=0, data=[8, 100]),
   midi.NoteOffEvent(tick=23500, channel=0, data=[8, 0]),
   midi.NoteOnEvent(tick=23600, channel=0, data=[0, 100]),
   midi.NoteOffEvent(tick=23700, channel=0, data=[0, 0]),
   midi.NoteOnEvent(tick=23800, channel=0, data=[1, 100]),
   midi.NoteOffEvent(tick=23900, channel=0, data=[1, 0]),
   midi.NoteOnEvent(tick=24000, channel=0, data=[11, 100]),
   midi.NoteOffEvent(tick=24100, channel=0, data=[11, 0]),
   midi.NoteOnEvent(tick=24200, channel=0, data=[4, 100]),
   midi.NoteOffEvent(tick=24300, channel=0, data=[4, 0]),
   midi.NoteOnEvent(tick=24400, channel=0, data=[18, 100]),
   midi.NoteOffEvent(tick=24500, channel=0, data=[18, 0]),
   midi.NoteOnEvent(tick=24600, channel=0, data=[37, 100]),
   midi.NoteOffEvent(tick=24700, channel=0, data=[37, 0]),
   midi.NoteOnEvent(tick=24800, channel=0, data=[56, 100]),
   midi.NoteOffEvent(tick=24900, channel=0, data=[56, 0]),
   midi.NoteOnEvent(tick=25000, channel=0, data=[56, 100]),
   midi.NoteOffEvent(tick=25100, channel=0, data=[56, 0]),
   midi.NoteOnEvent(tick=25200, channel=0, data=[56, 100]),
   midi.NoteOffEvent(tick=25300, channel=0, data=[56, 0]),
   midi.NoteOnEvent(tick=25400, channel=0, data=[11, 100]),
   midi.NoteOffEvent(tick=25500, channel=0, data=[11, 0]),
   midi.NoteOnEvent(tick=25600, channel=0, data=[14, 100]),
   midi.NoteOffEvent(tick=25700, channel=0, data=[14, 0]),
   midi.NoteOnEvent(tick=25800, channel=0, data=[13, 100]),
   midi.NoteOffEvent(tick=25900, channel=0, data=[13, 0]),
   midi.NoteOnEvent(tick=26000, channel=0, data=[6, 100]),
   midi.NoteOffEvent(tick=26100, channel=0, data=[6, 0]),
   midi.NoteOnEvent(tick=26200, channel=0, data=[36, 100]),
   midi.NoteOffEvent(tick=26300, channel=0, data=[36, 0]),
   midi.NoteOnEvent(tick=26400, channel=0, data=[3, 100]),
   midi.NoteOffEvent(tick=26500, channel=0, data=[3, 0]),
   midi.NoteOnEvent(tick=26600, channel=0, data=[4, 100]),
   midi.NoteOffEvent(tick=26700, channel=0, data=[4, 0]),
   midi.NoteOnEvent(tick=26800, channel=0, data=[18, 100]),
   midi.NoteOffEvent(tick=26900, channel=0, data=[18, 0]),
   midi.NoteOnEvent(tick=27000, channel=0, data=[2, 100]),
   midi.NoteOffEvent(tick=27100, channel=0, data=[2, 0]),
   midi.NoteOnEvent(tick=27200, channel=0, data=[17, 100]),
   midi.NoteOffEvent(tick=27300, channel=0, data=[17, 0]),
   midi.NoteOnEvent(tick=27400, channel=0, data=[8, 100]),
   midi.NoteOffEvent(tick=27500, channel=0, data=[8, 0]),
   midi.NoteOnEvent(tick=27600, channel=0, data=[15, 100]),
   midi.NoteOffEvent(tick=27700, channel=0, data=[15, 0]),
   midi.NoteOnEvent(tick=27800, channel=0, data=[19, 100]),
   midi.NoteOffEvent(tick=27900, channel=0, data=[19, 0]),
   midi.NoteOnEvent(tick=28000, channel=0, data=[8, 100]),
   midi.NoteOffEvent(tick=28100, channel=0, data=[8, 0]),
   midi.NoteOnEvent(tick=28200, channel=0, data=[14, 100]),
   midi.NoteOffEvent(tick=28300, channel=0, data=[14, 0]),
   midi.NoteOnEvent(tick=28400, channel=0, data=[13, 100]),
   midi.NoteOffEvent(tick=28500, channel=0, data=[13, 0]),
   midi.NoteOnEvent(tick=28600, channel=0, data=[56, 100]),
   midi.NoteOffEvent(tick=28700, channel=0, data=[56, 0]),
   midi.NoteOnEvent(tick=28800, channel=0, data=[36, 100]),
   midi.NoteOffEvent(tick=28900, channel=0, data=[36, 0]),
   midi.NoteOnEvent(tick=29000, channel=0, data=[36, 100]),
   midi.NoteOffEvent(tick=29100, channel=0, data=[36, 0]),
   midi.NoteOnEvent(tick=29200, channel=0, data=[36, 100]),
   midi.NoteOffEvent(tick=29300, channel=0, data=[36, 0]),
   midi.NoteOnEvent(tick=29400, channel=0, data=[36, 100]),
   midi.NoteOffEvent(tick=29500, channel=0, data=[36, 0]),
   midi.NoteOnEvent(tick=29600, channel=0, data=[0, 100]),
   midi.NoteOffEvent(tick=29700, channel=0, data=[0, 0]),
   midi.NoteOnEvent(tick=29800, channel=0, data=[18, 100]),
   midi.NoteOffEvent(tick=29900, channel=0, data=[18, 0]),
   midi.NoteOnEvent(tick=30000, channel=0, data=[18, 100]),
   midi.NoteOffEvent(tick=30100, channel=0, data=[18, 0]),
   midi.NoteOnEvent(tick=30200, channel=0, data=[8, 100]),
   midi.NoteOffEvent(tick=30300, channel=0, data=[8, 0]),
   midi.NoteOnEvent(tick=30400, channel=0, data=[6, 100]),
   midi.NoteOffEvent(tick=30500, channel=0, data=[6, 0]),
   midi.NoteOnEvent(tick=30600, channel=0, data=[13, 100]),
   midi.NoteOffEvent(tick=30700, channel=0, data=[13, 0]),
   midi.NoteOnEvent(tick=30800, channel=0, data=[12, 100]),
   midi.NoteOffEvent(tick=30900, channel=0, data=[12, 0]),
   midi.NoteOnEvent(tick=31000, channel=0, data=[4, 100]),
   midi.NoteOffEvent(tick=31100, channel=0, data=[4, 0]),
   midi.NoteOnEvent(tick=31200, channel=0, data=[13, 100]),
   midi.NoteOffEvent(tick=31300, channel=0, data=[13, 0]),
   midi.NoteOnEvent(tick=31400, channel=0, data=[19, 100]),
   midi.NoteOffEvent(tick=31500, channel=0, data=[19, 0]),
   midi.NoteOnEvent(tick=31600, channel=0, data=[36, 100]),
   midi.NoteOffEvent(tick=31700, channel=0, data=[36, 0]),
   midi.NoteOnEvent(tick=31800, channel=0, data=[14, 100]),
   midi.NoteOffEvent(tick=31900, channel=0, data=[14, 0]),
   midi.NoteOnEvent(tick=32000, channel=0, data=[15, 100]),
   midi.NoteOffEvent(tick=32100, channel=0, data=[15, 0]),
   midi.NoteOnEvent(tick=32200, channel=0, data=[4, 100]),
   midi.NoteOffEvent(tick=32300, channel=0, data=[4, 0]),
   midi.NoteOnEvent(tick=32400, channel=0, data=[17, 100]),
   midi.NoteOffEvent(tick=32500, channel=0, data=[17, 0]),
   midi.NoteOnEvent(tick=32600, channel=0, data=[0, 100]),
   midi.NoteOffEvent(tick=32700, channel=0, data=[0, 0]),
   midi.NoteOnEvent(tick=32800, channel=0, data=[19, 100]),
   midi.NoteOffEvent(tick=32900, channel=0, data=[19, 0]),
   midi.NoteOnEvent(tick=33000, channel=0, data=[14, 100]),
   midi.NoteOffEvent(tick=33100, channel=0, data=[14, 0]),
   midi.NoteOnEvent(tick=33200, channel=0, data=[17, 100]),
   midi.NoteOffEvent(tick=33300, channel=0, data=[17, 0]),
   midi.NoteOnEvent(tick=33400, channel=0, data=[18, 100]),
   midi.NoteOffEvent(tick=33500, channel=0, data=[18, 0]),
   midi.NoteOnEvent(tick=33600, channel=0, data=[36, 100]),
   midi.NoteOffEvent(tick=33700, channel=0, data=[36, 0]),
   midi.NoteOnEvent(tick=33800, channel=0, data=[0, 100]),
   midi.NoteOffEvent(tick=33900, channel=0, data=[0, 0]),
   midi.NoteOnEvent(tick=34000, channel=0, data=[18, 100]),
   midi.NoteOffEvent(tick=34100, channel=0, data=[18, 0]),
   midi.NoteOnEvent(tick=34200, channel=0, data=[18, 100]),
   midi.NoteOffEvent(tick=34300, channel=0, data=[18, 0]),
   midi.NoteOnEvent(tick=34400, channel=0, data=[8, 100]),
   midi.NoteOffEvent(tick=34500, channel=0, data=[8, 0]),
   midi.NoteOnEvent(tick=34600, channel=0, data=[6, 100]),
   midi.NoteOffEvent(tick=34700, channel=0, data=[6, 0]),
   midi.NoteOnEvent(tick=34800, channel=0, data=[13, 100]),
   midi.NoteOffEvent(tick=34900, channel=0, data=[13, 0]),
   midi.NoteOnEvent(tick=35000, channel=0, data=[36, 100]),
   midi.NoteOffEvent(tick=35100, channel=0, data=[36, 0]),
   midi.NoteOnEvent(tick=35200, channel=0, data=[14, 100]),
   midi.NoteOffEvent(tick=35300, channel=0, data=[14, 0]),
   midi.NoteOnEvent(tick=35400, channel=0, data=[13, 100]),
   midi.NoteOffEvent(tick=35500, channel=0, data=[13, 0]),
   midi.NoteOnEvent(tick=35600, channel=0, data=[4, 100]),
   midi.NoteOffEvent(tick=35700, channel=0, data=[4, 0]),
   midi.NoteOnEvent(tick=35800, channel=0, data=[36, 100]),
   midi.NoteOffEvent(tick=35900, channel=0, data=[36, 0]),
   midi.NoteOnEvent(tick=36000, channel=0, data=[14, 100]),
   midi.NoteOffEvent(tick=36100, channel=0, data=[14, 0]),
   midi.NoteOnEvent(tick=36200, channel=0, data=[17, 100]),
   midi.NoteOffEvent(tick=36300, channel=0, data=[17, 0]),
   midi.NoteOnEvent(tick=36400, channel=0, data=[36, 100]),
   midi.NoteOffEvent(tick=36500, channel=0, data=[36, 0]),
   midi.NoteOnEvent(tick=36600, channel=0, data=[12, 100]),
   midi.NoteOffEvent(tick=36700, channel=0, data=[12, 0]),
   midi.NoteOnEvent(tick=36800, channel=0, data=[14, 100]),
   midi.NoteOffEvent(tick=36900, channel=0, data=[14, 0]),
   midi.NoteOnEvent(tick=37000, channel=0, data=[17, 100]),
   midi.NoteOffEvent(tick=37100, channel=0, data=[17, 0]),
   midi.NoteOnEvent(tick=37200, channel=0, data=[4, 100]),
   midi.NoteOffEvent(tick=37300, channel=0, data=[4, 0]),
   midi.NoteOnEvent(tick=37400, channel=0, data=[36, 100]),
   midi.NoteOffEvent(tick=37500, channel=0, data=[36, 0]),
   midi.NoteOnEvent(tick=37600, channel=0, data=[21, 100]),
   midi.NoteOffEvent(tick=37700, channel=0, data=[21, 0]),
   midi.NoteOnEvent(tick=37800, channel=0, data=[0, 100]),
   midi.NoteOffEvent(tick=37900, channel=0, data=[0, 0]),
   midi.NoteOnEvent(tick=38000, channel=0, data=[11, 100]),
   midi.NoteOffEvent(tick=38100, channel=0, data=[11, 0]),
   midi.NoteOnEvent(tick=38200, channel=0, data=[20, 100]),
   midi.NoteOffEvent(tick=38300, channel=0, data=[20, 0]),
   midi.NoteOnEvent(tick=38400, channel=0, data=[4, 100]),
   midi.NoteOffEvent(tick=38500, channel=0, data=[4, 0]),
   midi.NoteOnEvent(tick=38600, channel=0, data=[18, 100]),
   midi.NoteOffEvent(tick=38700, channel=0, data=[18, 0]),
   midi.NoteOnEvent(tick=38800, channel=0, data=[36, 100]),
   midi.NoteOffEvent(tick=38900, channel=0, data=[36, 0]),
   midi.NoteOnEvent(tick=39000, channel=0, data=[19, 100]),
   midi.NoteOffEvent(tick=39100, channel=0, data=[19, 0]),
   midi.NoteOnEvent(tick=39200, channel=0, data=[14, 100]),
   midi.NoteOffEvent(tick=39300, channel=0, data=[14, 0]),
   midi.NoteOnEvent(tick=39400, channel=0, data=[36, 100]),
   midi.NoteOffEvent(tick=39500, channel=0, data=[36, 0]),
   midi.NoteOnEvent(tick=39600, channel=0, data=[0, 100]),
   midi.NoteOffEvent(tick=39700, channel=0, data=[0, 0]),
   midi.NoteOnEvent(tick=39800, channel=0, data=[36, 100]),
   midi.NoteOffEvent(tick=39900, channel=0, data=[36, 0]),
   midi.NoteOnEvent(tick=40000, channel=0, data=[21, 100]),
   midi.NoteOffEvent(tick=40100, channel=0, data=[21, 0]),
   midi.NoteOnEvent(tick=40200, channel=0, data=[0, 100]),
   midi.NoteOffEvent(tick=40300, channel=0, data=[0, 0]),
   midi.NoteOnEvent(tick=40400, channel=0, data=[17, 100]),
   midi.NoteOffEvent(tick=40500, channel=0, data=[17, 0]),
   midi.NoteOnEvent(tick=40600, channel=0, data=[8, 100]),
   midi.NoteOffEvent(tick=40700, channel=0, data=[8, 0]),
   midi.NoteOnEvent(tick=40800, channel=0, data=[0, 100]),
   midi.NoteOffEvent(tick=40900, channel=0, data=[0, 0]),
   midi.NoteOnEvent(tick=41000, channel=0, data=[1, 100]),
   midi.NoteOffEvent(tick=41100, channel=0, data=[1, 0]),
   midi.NoteOnEvent(tick=41200, channel=0, data=[11, 100]),
   midi.NoteOffEvent(tick=41300, channel=0, data=[11, 0]),
   midi.NoteOnEvent(tick=41400, channel=0, data=[4, 100]),
   midi.NoteOffEvent(tick=41500, channel=0, data=[4, 0]),
   midi.NoteOnEvent(tick=41600, channel=0, data=[37, 100]),
   midi.NoteOffEvent(tick=41700, channel=0, data=[37, 0]),
   midi.NoteOnEvent(tick=41800, channel=0, data=[36, 100]),
   midi.NoteOffEvent(tick=41900, channel=0, data=[36, 0]),
   midi.NoteOnEvent(tick=42000, channel=0, data=[19, 100]),
   midi.NoteOffEvent(tick=42100, channel=0, data=[19, 0]),
   midi.NoteOnEvent(tick=42200, channel=0, data=[7, 100]),
   midi.NoteOffEvent(tick=42300, channel=0, data=[7, 0]),
   midi.NoteOnEvent(tick=42400, channel=0, data=[4, 100]),
   midi.NoteOffEvent(tick=42500, channel=0, data=[4, 0]),
   midi.NoteOnEvent(tick=42600, channel=0, data=[24, 100]),
   midi.NoteOffEvent(tick=42700, channel=0, data=[24, 0]),
   midi.NoteOnEvent(tick=42800, channel=0, data=[36, 100]),
   midi.NoteOffEvent(tick=42900, channel=0, data=[36, 0]),
   midi.NoteOnEvent(tick=43000, channel=0, data=[2, 100]),
   midi.NoteOffEvent(tick=43100, channel=0, data=[2, 0]),
   midi.NoteOnEvent(tick=43200, channel=0, data=[0, 100]),
   midi.NoteOffEvent(tick=43300, channel=0, data=[0, 0]),
   midi.NoteOnEvent(tick=43400, channel=0, data=[13, 100]),
   midi.NoteOffEvent(tick=43500, channel=0, data=[13, 0]),
   midi.NoteOnEvent(tick=43600, channel=0, data=[56, 100]),
   midi.NoteOffEvent(tick=43700, channel=0, data=[56, 0]),
   midi.NoteOnEvent(tick=43800, channel=0, data=[36, 100]),
   midi.NoteOffEvent(tick=43900, channel=0, data=[36, 0]),
   midi.NoteOnEvent(tick=44000, channel=0, data=[36, 100]),
   midi.NoteOffEvent(tick=44100, channel=0, data=[36, 0]),
   midi.NoteOnEvent(tick=44200, channel=0, data=[36, 100]),
   midi.NoteOffEvent(tick=44300, channel=0, data=[36, 0]),
   midi.NoteOnEvent(tick=44400, channel=0, data=[36, 100]),
   midi.NoteOffEvent(tick=44500, channel=0, data=[36, 0]),
   midi.NoteOnEvent(tick=44600, channel=0, data=[15, 100]),
   midi.NoteOffEvent(tick=44700, channel=0, data=[15, 0]),
   midi.NoteOnEvent(tick=44800, channel=0, data=[4, 100]),
   midi.NoteOffEvent(tick=44900, channel=0, data=[4, 0]),
   midi.NoteOnEvent(tick=45000, channel=0, data=[17, 100]),
   midi.NoteOffEvent(tick=45100, channel=0, data=[17, 0]),
   midi.NoteOnEvent(tick=45200, channel=0, data=[5, 100]),
   midi.NoteOffEvent(tick=45300, channel=0, data=[5, 0]),
   midi.NoteOnEvent(tick=45400, channel=0, data=[14, 100]),
   midi.NoteOffEvent(tick=45500, channel=0, data=[14, 0]),
   midi.NoteOnEvent(tick=45600, channel=0, data=[17, 100]),
   midi.NoteOffEvent(tick=45700, channel=0, data=[17, 0]),
   midi.NoteOnEvent(tick=45800, channel=0, data=[12, 100]),
   midi.NoteOffEvent(tick=45900, channel=0, data=[12, 0]),
   midi.NoteOnEvent(tick=46000, channel=0, data=[36, 100]),
   midi.NoteOffEvent(tick=46100, channel=0, data=[36, 0]),
   midi.NoteOnEvent(tick=46200, channel=0, data=[13, 100]),
   midi.NoteOffEvent(tick=46300, channel=0, data=[13, 0]),
   midi.NoteOnEvent(tick=46400, channel=0, data=[20, 100]),
   midi.NoteOffEvent(tick=46500, channel=0, data=[20, 0]),
   midi.NoteOnEvent(tick=46600, channel=0, data=[12, 100]),
   midi.NoteOffEvent(tick=46700, channel=0, data=[12, 0]),
   midi.NoteOnEvent(tick=46800, channel=0, data=[4, 100]),
   midi.NoteOffEvent(tick=46900, channel=0, data=[4, 0]),
   midi.NoteOnEvent(tick=47000, channel=0, data=[17, 100]),
   midi.NoteOffEvent(tick=47100, channel=0, data=[17, 0]),
   midi.NoteOnEvent(tick=47200, channel=0, data=[8, 100]),
   midi.NoteOffEvent(tick=47300, channel=0, data=[8, 0]),
   midi.NoteOnEvent(tick=47400, channel=0, data=[2, 100]),
   midi.NoteOffEvent(tick=47500, channel=0, data=[2, 0]),
   midi.NoteOnEvent(tick=47600, channel=0, data=[36, 100]),
   midi.NoteOffEvent(tick=47700, channel=0, data=[36, 0]),
   midi.NoteOnEvent(tick=47800, channel=0, data=[14, 100]),
   midi.NoteOffEvent(tick=47900, channel=0, data=[14, 0]),
   midi.NoteOnEvent(tick=48000, channel=0, data=[15, 100]),
   midi.NoteOffEvent(tick=48100, channel=0, data=[15, 0]),
   midi.NoteOnEvent(tick=48200, channel=0, data=[4, 100]),
   midi.NoteOffEvent(tick=48300, channel=0, data=[4, 0]),
   midi.NoteOnEvent(tick=48400, channel=0, data=[17, 100]),
   midi.NoteOffEvent(tick=48500, channel=0, data=[17, 0]),
   midi.NoteOnEvent(tick=48600, channel=0, data=[0, 100]),
   midi.NoteOffEvent(tick=48700, channel=0, data=[0, 0]),
   midi.NoteOnEvent(tick=48800, channel=0, data=[19, 100]),
   midi.NoteOffEvent(tick=48900, channel=0, data=[19, 0]),
   midi.NoteOnEvent(tick=49000, channel=0, data=[8, 100]),
   midi.NoteOffEvent(tick=49100, channel=0, data=[8, 0]),
   midi.NoteOnEvent(tick=49200, channel=0, data=[14, 100]),
   midi.NoteOffEvent(tick=49300, channel=0, data=[14, 0]),
   midi.NoteOnEvent(tick=49400, channel=0, data=[13, 100]),
   midi.NoteOffEvent(tick=49500, channel=0, data=[13, 0]),
   midi.NoteOnEvent(tick=49600, channel=0, data=[18, 100]),
   midi.NoteOffEvent(tick=49700, channel=0, data=[18, 0]),
   midi.NoteOnEvent(tick=49800, channel=0, data=[36, 100]),
   midi.NoteOffEvent(tick=49900, channel=0, data=[36, 0]),
   midi.NoteOnEvent(tick=50000, channel=0, data=[14, 100]),
   midi.NoteOffEvent(tick=50100, channel=0, data=[14, 0]),
   midi.NoteOnEvent(tick=50200, channel=0, data=[13, 100]),
   midi.NoteOffEvent(tick=50300, channel=0, data=[13, 0]),
   midi.NoteOnEvent(tick=50400, channel=0, data=[36, 100]),
   midi.NoteOffEvent(tick=50500, channel=0, data=[36, 0]),
   midi.NoteOnEvent(tick=50600, channel=0, data=[19, 100]),
   midi.NoteOffEvent(tick=50700, channel=0, data=[19, 0]),
   midi.NoteOnEvent(tick=50800, channel=0, data=[7, 100]),
   midi.NoteOffEvent(tick=50900, channel=0, data=[7, 0]),
   midi.NoteOnEvent(tick=51000, channel=0, data=[4, 100]),
   midi.NoteOffEvent(tick=51100, channel=0, data=[4, 0]),
   midi.NoteOnEvent(tick=51200, channel=0, data=[36, 100]),
   midi.NoteOffEvent(tick=51300, channel=0, data=[36, 0]),
   midi.NoteOnEvent(tick=51400, channel=0, data=[21, 100]),
   midi.NoteOffEvent(tick=51500, channel=0, data=[21, 0]),
   midi.NoteOnEvent(tick=51600, channel=0, data=[0, 100]),
   midi.NoteOffEvent(tick=51700, channel=0, data=[0, 0]),
   midi.NoteOnEvent(tick=51800, channel=0, data=[11, 100]),
   midi.NoteOffEvent(tick=51900, channel=0, data=[11, 0]),
   midi.NoteOnEvent(tick=52000, channel=0, data=[20, 100]),
   midi.NoteOffEvent(tick=52100, channel=0, data=[20, 0]),
   midi.NoteOnEvent(tick=52200, channel=0, data=[4, 100]),
   midi.NoteOffEvent(tick=52300, channel=0, data=[4, 0]),
   midi.NoteOnEvent(tick=52400, channel=0, data=[18, 100]),
   midi.NoteOffEvent(tick=52500, channel=0, data=[18, 0]),
   midi.NoteOnEvent(tick=52600, channel=0, data=[36, 100]),
   midi.NoteOffEvent(tick=52700, channel=0, data=[36, 0]),
   midi.NoteOnEvent(tick=52800, channel=0, data=[1, 100]),
   midi.NoteOffEvent(tick=52900, channel=0, data=[1, 0]),
   midi.NoteOnEvent(tick=53000, channel=0, data=[4, 100]),
   midi.NoteOffEvent(tick=53100, channel=0, data=[4, 0]),
   midi.NoteOnEvent(tick=53200, channel=0, data=[5, 100]),
   midi.NoteOffEvent(tick=53300, channel=0, data=[5, 0]),
   midi.NoteOnEvent(tick=53400, channel=0, data=[14, 100]),
   midi.NoteOffEvent(tick=53500, channel=0, data=[14, 0]),
   midi.NoteOnEvent(tick=53600, channel=0, data=[17, 100]),
   midi.NoteOffEvent(tick=53700, channel=0, data=[17, 0]),
   midi.NoteOnEvent(tick=53800, channel=0, data=[4, 100]),
   midi.NoteOffEvent(tick=53900, channel=0, data=[4, 0]),
   midi.NoteOnEvent(tick=54000, channel=0, data=[36, 100]),
   midi.NoteOffEvent(tick=54100, channel=0, data=[36, 0]),
   midi.NoteOnEvent(tick=54200, channel=0, data=[19, 100]),
   midi.NoteOffEvent(tick=54300, channel=0, data=[19, 0]),
   midi.NoteOnEvent(tick=54400, channel=0, data=[7, 100]),
   midi.NoteOffEvent(tick=54500, channel=0, data=[7, 0]),
   midi.NoteOnEvent(tick=54600, channel=0, data=[4, 100]),
   midi.NoteOffEvent(tick=54700, channel=0, data=[4, 0]),
   midi.NoteOnEvent(tick=54800, channel=0, data=[36, 100]),
   midi.NoteOffEvent(tick=54900, channel=0, data=[36, 0]),
   midi.NoteOnEvent(tick=55000, channel=0, data=[0, 100]),
   midi.NoteOffEvent(tick=55100, channel=0, data=[0, 0]),
   midi.NoteOnEvent(tick=55200, channel=0, data=[18, 100]),
   midi.NoteOffEvent(tick=55300, channel=0, data=[18, 0]),
   midi.NoteOnEvent(tick=55400, channel=0, data=[18, 100]),
   midi.NoteOffEvent(tick=55500, channel=0, data=[18, 0]),
   midi.NoteOnEvent(tick=55600, channel=0, data=[8, 100]),
   midi.NoteOffEvent(tick=55700, channel=0, data=[8, 0]),
   midi.NoteOnEvent(tick=55800, channel=0, data=[6, 100]),
   midi.NoteOffEvent(tick=55900, channel=0, data=[6, 0]),
   midi.NoteOnEvent(tick=56000, channel=0, data=[13, 100]),
   midi.NoteOffEvent(tick=56100, channel=0, data=[13, 0]),
   midi.NoteOnEvent(tick=56200, channel=0, data=[12, 100]),
   midi.NoteOffEvent(tick=56300, channel=0, data=[12, 0]),
   midi.NoteOnEvent(tick=56400, channel=0, data=[4, 100]),
   midi.NoteOffEvent(tick=56500, channel=0, data=[4, 0]),
   midi.NoteOnEvent(tick=56600, channel=0, data=[13, 100]),
   midi.NoteOffEvent(tick=56700, channel=0, data=[13, 0]),
   midi.NoteOnEvent(tick=56800, channel=0, data=[19, 100]),
   midi.NoteOffEvent(tick=56900, channel=0, data=[19, 0]),
   midi.NoteOnEvent(tick=57000, channel=0, data=[37, 100]),
   midi.NoteOffEvent(tick=57100, channel=0, data=[37, 0]),
   midi.NoteOnEvent(tick=57200, channel=0, data=[56, 100]),
   midi.NoteOffEvent(tick=57300, channel=0, data=[56, 0]),
   midi.NoteOnEvent(tick=57400, channel=0, data=[56, 100]),
   midi.NoteOffEvent(tick=57500, channel=0, data=[56, 0]),
   midi.NoteOnEvent(tick=57600, channel=0, data=[56, 100]),
   midi.NoteOffEvent(tick=57700, channel=0, data=[56, 0]),
   midi.NoteOnEvent(tick=57800, channel=0, data=[36, 100]),
   midi.NoteOffEvent(tick=57900, channel=0, data=[36, 0]),
   midi.NoteOnEvent(tick=58000, channel=0, data=[36, 100]),
   midi.NoteOffEvent(tick=58100, channel=0, data=[36, 0]),
   midi.NoteOnEvent(tick=58200, channel=0, data=[36, 100]),
   midi.NoteOffEvent(tick=58300, channel=0, data=[36, 0]),
   midi.NoteOnEvent(tick=58400, channel=0, data=[36, 100]),
   midi.NoteOffEvent(tick=58500, channel=0, data=[36, 0]),
   midi.NoteOnEvent(tick=58600, channel=0, data=[22, 100]),
   midi.NoteOffEvent(tick=58700, channel=0, data=[22, 0]),
   midi.NoteOnEvent(tick=58800, channel=0, data=[8, 100]),
   midi.NoteOffEvent(tick=58900, channel=0, data=[8, 0]),
   midi.NoteOnEvent(tick=59000, channel=0, data=[13, 100]),
   midi.NoteOffEvent(tick=59100, channel=0, data=[13, 0]),
   midi.NoteOnEvent(tick=59200, channel=0, data=[3, 100]),
   midi.NoteOffEvent(tick=59300, channel=0, data=[3, 0]),
   midi.NoteOnEvent(tick=59400, channel=0, data=[14, 100]),
   midi.NoteOffEvent(tick=59500, channel=0, data=[14, 0]),
   midi.NoteOnEvent(tick=59600, channel=0, data=[22, 100]),
   midi.NoteOffEvent(tick=59700, channel=0, data=[22, 0]),
   midi.NoteOnEvent(tick=59800, channel=0, data=[18, 100]),
   midi.NoteOffEvent(tick=59900, channel=0, data=[18, 0]),
   midi.NoteOnEvent(tick=60000, channel=0, data=[36, 100]),
   midi.NoteOffEvent(tick=60100, channel=0, data=[36, 0]),
   midi.NoteOnEvent(tick=60200, channel=0, data=[15, 100]),
   midi.NoteOffEvent(tick=60300, channel=0, data=[15, 0]),
   midi.NoteOnEvent(tick=60400, channel=0, data=[14, 100]),
   midi.NoteOffEvent(tick=60500, channel=0, data=[14, 0]),
   midi.NoteOnEvent(tick=60600, channel=0, data=[22, 100]),
   midi.NoteOffEvent(tick=60700, channel=0, data=[22, 0]),
   midi.NoteOnEvent(tick=60800, channel=0, data=[4, 100]),
   midi.NoteOffEvent(tick=60900, channel=0, data=[4, 0]),
   midi.NoteOnEvent(tick=61000, channel=0, data=[17, 100]),
   midi.NoteOffEvent(tick=61100, channel=0, data=[17, 0]),
   midi.NoteOnEvent(tick=61200, channel=0, data=[18, 100]),
   midi.NoteOffEvent(tick=61300, channel=0, data=[18, 0]),
   midi.NoteOnEvent(tick=61400, channel=0, data=[7, 100]),
   midi.NoteOffEvent(tick=61500, channel=0, data=[7, 0]),
   midi.NoteOnEvent(tick=61600, channel=0, data=[4, 100]),
   midi.NoteOffEvent(tick=61700, channel=0, data=[4, 0]),
   midi.NoteOnEvent(tick=61800, channel=0, data=[11, 100]),
   midi.NoteOffEvent(tick=61900, channel=0, data=[11, 0]),
   midi.NoteOnEvent(tick=62000, channel=0, data=[11, 100]),
   midi.NoteOffEvent(tick=62100, channel=0, data=[11, 0]),
   midi.NoteOnEvent(tick=62200, channel=0, data=[36, 100]),
   midi.NoteOffEvent(tick=62300, channel=0, data=[36, 0]),
   midi.NoteOnEvent(tick=62400, channel=0, data=[18, 100]),
   midi.NoteOffEvent(tick=62500, channel=0, data=[18, 0]),
   midi.NoteOnEvent(tick=62600, channel=0, data=[20, 100]),
   midi.NoteOffEvent(tick=62700, channel=0, data=[20, 0]),
   midi.NoteOnEvent(tick=62800, channel=0, data=[15, 100]),
   midi.NoteOffEvent(tick=62900, channel=0, data=[15, 0]),
   midi.NoteOnEvent(tick=63000, channel=0, data=[15, 100]),
   midi.NoteOffEvent(tick=63100, channel=0, data=[15, 0]),
   midi.NoteOnEvent(tick=63200, channel=0, data=[14, 100]),
   midi.NoteOffEvent(tick=63300, channel=0, data=[14, 0]),
   midi.NoteOnEvent(tick=63400, channel=0, data=[17, 100]),
   midi.NoteOffEvent(tick=63500, channel=0, data=[17, 0]),
   midi.NoteOnEvent(tick=63600, channel=0, data=[19, 100]),
   midi.NoteOffEvent(tick=63700, channel=0, data=[19, 0]),
   midi.NoteOnEvent(tick=63800, channel=0, data=[18, 100]),
   midi.NoteOffEvent(tick=63900, channel=0, data=[18, 0]),
   midi.NoteOnEvent(tick=64000, channel=0, data=[36, 100]),
   midi.NoteOffEvent(tick=64100, channel=0, data=[36, 0]),
   midi.NoteOnEvent(tick=64200, channel=0, data=[19, 100]),
   midi.NoteOffEvent(tick=64300, channel=0, data=[19, 0]),
   midi.NoteOnEvent(tick=64400, channel=0, data=[7, 100]),
   midi.NoteOffEvent(tick=64500, channel=0, data=[7, 0]),
   midi.NoteOnEvent(tick=64600, channel=0, data=[4, 100]),
   midi.NoteOffEvent(tick=64700, channel=0, data=[4, 0]),
   midi.NoteOnEvent(tick=64800, channel=0, data=[36, 100]),
   midi.NoteOffEvent(tick=64900, channel=0, data=[36, 0]),
   midi.NoteOnEvent(tick=65000, channel=0, data=[5, 100]),
   midi.NoteOffEvent(tick=65100, channel=0, data=[5, 0]),
   midi.NoteOnEvent(tick=65200, channel=0, data=[14, 100]),
   midi.NoteOffEvent(tick=65300, channel=0, data=[14, 0]),
   midi.NoteOnEvent(tick=65400, channel=0, data=[11, 100]),
   midi.NoteOffEvent(tick=65500, channel=0, data=[11, 0]),
   midi.NoteOnEvent(tick=65600, channel=0, data=[11, 100]),
   midi.NoteOffEvent(tick=65700, channel=0, data=[11, 0]),
   midi.NoteOnEvent(tick=65800, channel=0, data=[14, 100]),
   midi.NoteOffEvent(tick=65900, channel=0, data=[14, 0]),
   midi.NoteOnEvent(tick=66000, channel=0, data=[22, 100]),
   midi.NoteOffEvent(tick=66100, channel=0, data=[22, 0]),
   midi.NoteOnEvent(tick=66200, channel=0, data=[8, 100]),
   midi.NoteOffEvent(tick=66300, channel=0, data=[8, 0]),
   midi.NoteOnEvent(tick=66400, channel=0, data=[13, 100]),
   midi.NoteOffEvent(tick=66500, channel=0, data=[13, 0]),
   midi.NoteOnEvent(tick=66600, channel=0, data=[6, 100]),
   midi.NoteOffEvent(tick=66700, channel=0, data=[6, 0]),
   midi.NoteOnEvent(tick=66800, channel=0, data=[36, 100]),
   midi.NoteOffEvent(tick=66900, channel=0, data=[36, 0]),
   midi.NoteOnEvent(tick=67000, channel=0, data=[0, 100]),
   midi.NoteOffEvent(tick=67100, channel=0, data=[0, 0]),
   midi.NoteOnEvent(tick=67200, channel=0, data=[18, 100]),
   midi.NoteOffEvent(tick=67300, channel=0, data=[18, 0]),
   midi.NoteOnEvent(tick=67400, channel=0, data=[18, 100]),
   midi.NoteOffEvent(tick=67500, channel=0, data=[18, 0]),
   midi.NoteOnEvent(tick=67600, channel=0, data=[8, 100]),
   midi.NoteOffEvent(tick=67700, channel=0, data=[8, 0]),
   midi.NoteOnEvent(tick=67800, channel=0, data=[6, 100]),
   midi.NoteOffEvent(tick=67900, channel=0, data=[6, 0]),
   midi.NoteOnEvent(tick=68000, channel=0, data=[13, 100]),
   midi.NoteOffEvent(tick=68100, channel=0, data=[13, 0]),
   midi.NoteOnEvent(tick=68200, channel=0, data=[12, 100]),
   midi.NoteOffEvent(tick=68300, channel=0, data=[12, 0]),
   midi.NoteOnEvent(tick=68400, channel=0, data=[4, 100]),
   midi.NoteOffEvent(tick=68500, channel=0, data=[4, 0]),
   midi.NoteOnEvent(tick=68600, channel=0, data=[13, 100]),
   midi.NoteOffEvent(tick=68700, channel=0, data=[13, 0]),
   midi.NoteOnEvent(tick=68800, channel=0, data=[19, 100]),
   midi.NoteOffEvent(tick=68900, channel=0, data=[19, 0]),
   midi.NoteOnEvent(tick=69000, channel=0, data=[36, 100]),
   midi.NoteOffEvent(tick=69100, channel=0, data=[36, 0]),
   midi.NoteOnEvent(tick=69200, channel=0, data=[14, 100]),
   midi.NoteOffEvent(tick=69300, channel=0, data=[14, 0]),
   midi.NoteOnEvent(tick=69400, channel=0, data=[15, 100]),
   midi.NoteOffEvent(tick=69500, channel=0, data=[15, 0]),
   midi.NoteOnEvent(tick=69600, channel=0, data=[4, 100]),
   midi.NoteOffEvent(tick=69700, channel=0, data=[4, 0]),
   midi.NoteOnEvent(tick=69800, channel=0, data=[17, 100]),
   midi.NoteOffEvent(tick=69900, channel=0, data=[17, 0]),
   midi.NoteOnEvent(tick=70000, channel=0, data=[0, 100]),
   midi.NoteOffEvent(tick=70100, channel=0, data=[0, 0]),
   midi.NoteOnEvent(tick=70200, channel=0, data=[19, 100]),
   midi.NoteOffEvent(tick=70300, channel=0, data=[19, 0]),
   midi.NoteOnEvent(tick=70400, channel=0, data=[14, 100]),
   midi.NoteOffEvent(tick=70500, channel=0, data=[14, 0]),
   midi.NoteOnEvent(tick=70600, channel=0, data=[17, 100]),
   midi.NoteOffEvent(tick=70700, channel=0, data=[17, 0]),
   midi.NoteOnEvent(tick=70800, channel=0, data=[18, 100]),
   midi.NoteOffEvent(tick=70900, channel=0, data=[18, 0]),
   midi.NoteOnEvent(tick=71000, channel=0, data=[37, 100]),
   midi.NoteOffEvent(tick=71100, channel=0, data=[37, 0]),
   midi.NoteOnEvent(tick=71200, channel=0, data=[56, 100]),
   midi.NoteOffEvent(tick=71300, channel=0, data=[56, 0]),
   midi.NoteOnEvent(tick=71400, channel=0, data=[56, 100]),
   midi.NoteOffEvent(tick=71500, channel=0, data=[56, 0]),
   midi.NoteOnEvent(tick=71600, channel=0, data=[56, 100]),
   midi.NoteOffEvent(tick=71700, channel=0, data=[56, 0]),
   midi.NoteOnEvent(tick=71800, channel=0, data=[36, 100]),
   midi.NoteOffEvent(tick=71900, channel=0, data=[36, 0]),
   midi.NoteOnEvent(tick=72000, channel=0, data=[36, 100]),
   midi.NoteOffEvent(tick=72100, channel=0, data=[36, 0]),
   midi.NoteOnEvent(tick=72200, channel=0, data=[36, 100]),
   midi.NoteOffEvent(tick=72300, channel=0, data=[36, 0]),
   midi.NoteOnEvent(tick=72400, channel=0, data=[36, 100]),
   midi.NoteOffEvent(tick=72500, channel=0, data=[36, 0]),
   midi.NoteOnEvent(tick=72600, channel=0, data=[14, 100]),
   midi.NoteOffEvent(tick=72700, channel=0, data=[14, 0]),
   midi.NoteOnEvent(tick=72800, channel=0, data=[15, 100]),
   midi.NoteOffEvent(tick=72900, channel=0, data=[15, 0]),
   midi.NoteOnEvent(tick=73000, channel=0, data=[4, 100]),
   midi.NoteOffEvent(tick=73100, channel=0, data=[4, 0]),
   midi.NoteOnEvent(tick=73200, channel=0, data=[17, 100]),
   midi.NoteOffEvent(tick=73300, channel=0, data=[17, 0]),
   midi.NoteOnEvent(tick=73400, channel=0, data=[0, 100]),
   midi.NoteOffEvent(tick=73500, channel=0, data=[0, 0]),
   midi.NoteOnEvent(tick=73600, channel=0, data=[19, 100]),
   midi.NoteOffEvent(tick=73700, channel=0, data=[19, 0]),
   midi.NoteOnEvent(tick=73800, channel=0, data=[14, 100]),
   midi.NoteOffEvent(tick=73900, channel=0, data=[14, 0]),
   midi.NoteOnEvent(tick=74000, channel=0, data=[17, 100]),
   midi.NoteOffEvent(tick=74100, channel=0, data=[17, 0]),
   midi.NoteOnEvent(tick=74200, channel=0, data=[36, 100]),
   midi.NoteOffEvent(tick=74300, channel=0, data=[36, 0]),
   midi.NoteOnEvent(tick=74400, channel=0, data=[36, 100]),
   midi.NoteOffEvent(tick=74500, channel=0, data=[36, 0]),
   midi.NoteOnEvent(tick=74600, channel=0, data=[3, 100]),
   midi.NoteOffEvent(tick=74700, channel=0, data=[3, 0]),
   midi.NoteOnEvent(tick=74800, channel=0, data=[4, 100]),
   midi.NoteOffEvent(tick=74900, channel=0, data=[4, 0]),
   midi.NoteOnEvent(tick=75000, channel=0, data=[18, 100]),
   midi.NoteOffEvent(tick=75100, channel=0, data=[18, 0]),
   midi.NoteOnEvent(tick=75200, channel=0, data=[2, 100]),
   midi.NoteOffEvent(tick=75300, channel=0, data=[2, 0]),
   midi.NoteOnEvent(tick=75400, channel=0, data=[17, 100]),
   midi.NoteOffEvent(tick=75500, channel=0, data=[17, 0]),
   midi.NoteOnEvent(tick=75600, channel=0, data=[8, 100]),
   midi.NoteOffEvent(tick=75700, channel=0, data=[8, 0]),
   midi.NoteOnEvent(tick=75800, channel=0, data=[15, 100]),
   midi.NoteOffEvent(tick=75900, channel=0, data=[15, 0]),
   midi.NoteOnEvent(tick=76000, channel=0, data=[19, 100]),
   midi.NoteOffEvent(tick=76100, channel=0, data=[19, 0]),
   midi.NoteOnEvent(tick=76200, channel=0, data=[8, 100]),
   midi.NoteOffEvent(tick=76300, channel=0, data=[8, 0]),
   midi.NoteOnEvent(tick=76400, channel=0, data=[14, 100]),
   midi.NoteOffEvent(tick=76500, channel=0, data=[14, 0]),
   midi.NoteOnEvent(tick=76600, channel=0, data=[13, 100]),
   midi.NoteOffEvent(tick=76700, channel=0, data=[13, 0]),
   midi.NoteOnEvent(tick=76800, channel=0, data=[36, 100]),
   midi.NoteOffEvent(tick=76900, channel=0, data=[36, 0]),
   midi.NoteOnEvent(tick=77000, channel=0, data=[36, 100]),
   midi.NoteOffEvent(tick=77100, channel=0, data=[36, 0]),
   midi.NoteOnEvent(tick=77200, channel=0, data=[56, 100]),
   midi.NoteOffEvent(tick=77300, channel=0, data=[56, 0]),
   midi.NoteOnEvent(tick=77400, channel=0, data=[36, 100]),
   midi.NoteOffEvent(tick=77500, channel=0, data=[36, 0]),
   midi.NoteOnEvent(tick=77600, channel=0, data=[36, 100]),
   midi.NoteOffEvent(tick=77700, channel=0, data=[36, 0]),
   midi.NoteOnEvent(tick=77800, channel=0, data=[36, 100]),
   midi.NoteOffEvent(tick=77900, channel=0, data=[36, 0]),
   midi.NoteOnEvent(tick=78000, channel=0, data=[36, 100]),
   midi.NoteOffEvent(tick=78100, channel=0, data=[36, 0]),
   midi.NoteOnEvent(tick=78200, channel=0, data=[45, 100]),
   midi.NoteOffEvent(tick=78300, channel=0, data=[45, 0]),
   midi.NoteOnEvent(tick=78400, channel=0, data=[45, 100]),
   midi.NoteOffEvent(tick=78500, channel=0, data=[45, 0]),
   midi.NoteOnEvent(tick=78600, channel=0, data=[45, 100]),
   midi.NoteOffEvent(tick=78700, channel=0, data=[45, 0]),
   midi.NoteOnEvent(tick=78800, channel=0, data=[45, 100]),
   midi.NoteOffEvent(tick=78900, channel=0, data=[45, 0]),
   midi.NoteOnEvent(tick=79000, channel=0, data=[45, 100]),
   midi.NoteOffEvent(tick=79100, channel=0, data=[45, 0]),
   midi.NoteOnEvent(tick=79200, channel=0, data=[45, 100]),
   midi.NoteOffEvent(tick=79300, channel=0, data=[45, 0]),
   midi.NoteOnEvent(tick=79400, channel=0, data=[45, 100]),
   midi.NoteOffEvent(tick=79500, channel=0, data=[45, 0]),
   midi.NoteOnEvent(tick=79600, channel=0, data=[36, 100]),
   midi.NoteOffEvent(tick=79700, channel=0, data=[36, 0]),
   midi.NoteOnEvent(tick=79800, channel=0, data=[36, 100]),
   midi.NoteOffEvent(tick=79900, channel=0, data=[36, 0]),
   midi.NoteOnEvent(tick=80000, channel=0, data=[36, 100]),
   midi.NoteOffEvent(tick=80100, channel=0, data=[36, 0]),
   midi.NoteOnEvent(tick=80200, channel=0, data=[45, 100]),
   midi.NoteOffEvent(tick=80300, channel=0, data=[45, 0]),
   midi.NoteOnEvent(tick=80400, channel=0, data=[45, 100]),
   midi.NoteOffEvent(tick=80500, channel=0, data=[45, 0]),
   midi.NoteOnEvent(tick=80600, channel=0, data=[45, 100]),
   midi.NoteOffEvent(tick=80700, channel=0, data=[45, 0]),
   midi.NoteOnEvent(tick=80800, channel=0, data=[45, 100]),
   midi.NoteOffEvent(tick=80900, channel=0, data=[45, 0]),
   midi.NoteOnEvent(tick=81000, channel=0, data=[45, 100]),
   midi.NoteOffEvent(tick=81100, channel=0, data=[45, 0]),
   midi.NoteOnEvent(tick=81200, channel=0, data=[45, 100]),
   midi.NoteOffEvent(tick=81300, channel=0, data=[45, 0]),
   midi.NoteOnEvent(tick=81400, channel=0, data=[45, 100]),
   midi.NoteOffEvent(tick=81500, channel=0, data=[45, 0]),
   midi.NoteOnEvent(tick=81600, channel=0, data=[45, 100]),
   midi.NoteOffEvent(tick=81700, channel=0, data=[45, 0]),
   midi.NoteOnEvent(tick=81800, channel=0, data=[45, 100]),
   midi.NoteOffEvent(tick=81900, channel=0, data=[45, 0]),
   midi.NoteOnEvent(tick=82000, channel=0, data=[45, 100]),
   midi.NoteOffEvent(tick=82100, channel=0, data=[45, 0]),
   midi.NoteOnEvent(tick=82200, channel=0, data=[45, 100]),
   midi.NoteOffEvent(tick=82300, channel=0, data=[45, 0]),
   midi.NoteOnEvent(tick=82400, channel=0, data=[56, 100]),
   midi.NoteOffEvent(tick=82500, channel=0, data=[56, 0]),
   midi.NoteOnEvent(tick=82600, channel=0, data=[36, 100]),
   midi.NoteOffEvent(tick=82700, channel=0, data=[36, 0]),
   midi.NoteOnEvent(tick=82800, channel=0, data=[36, 100]),
   midi.NoteOffEvent(tick=82900, channel=0, data=[36, 0]),
   midi.NoteOnEvent(tick=83000, channel=0, data=[36, 100]),
   midi.NoteOffEvent(tick=83100, channel=0, data=[36, 0]),
   midi.NoteOnEvent(tick=83200, channel=0, data=[36, 100]),
   midi.NoteOffEvent(tick=83300, channel=0, data=[36, 0]),
   midi.NoteOnEvent(tick=83400, channel=0, data=[69, 100]),
   midi.NoteOffEvent(tick=83500, channel=0, data=[69, 0]),
   midi.NoteOnEvent(tick=83600, channel=0, data=[36, 100]),
   midi.NoteOffEvent(tick=83700, channel=0, data=[36, 0]),
   midi.NoteOnEvent(tick=83800, channel=0, data=[36, 100]),
   midi.NoteOffEvent(tick=83900, channel=0, data=[36, 0]),
   midi.NoteOnEvent(tick=84000, channel=0, data=[36, 100]),
   midi.NoteOffEvent(tick=84100, channel=0, data=[36, 0]),
   midi.NoteOnEvent(tick=84200, channel=0, data=[36, 100]),
   midi.NoteOffEvent(tick=84300, channel=0, data=[36, 0]),
   midi.NoteOnEvent(tick=84400, channel=0, data=[36, 100]),
   midi.NoteOffEvent(tick=84500, channel=0, data=[36, 0]),
   midi.NoteOnEvent(tick=84600, channel=0, data=[36, 100]),
   midi.NoteOffEvent(tick=84700, channel=0, data=[36, 0]),
   midi.NoteOnEvent(tick=84800, channel=0, data=[36, 100]),
   midi.NoteOffEvent(tick=84900, channel=0, data=[36, 0]),
   midi.NoteOnEvent(tick=85000, channel=0, data=[36, 100]),
   midi.NoteOffEvent(tick=85100, channel=0, data=[36, 0]),
   midi.NoteOnEvent(tick=85200, channel=0, data=[36, 100]),
   midi.NoteOffEvent(tick=85300, channel=0, data=[36, 0]),
   midi.NoteOnEvent(tick=85400, channel=0, data=[18, 100]),
   midi.NoteOffEvent(tick=85500, channel=0, data=[18, 0]),
   midi.NoteOnEvent(tick=85600, channel=0, data=[4, 100]),
   midi.NoteOffEvent(tick=85700, channel=0, data=[4, 0]),
   midi.NoteOnEvent(tick=85800, channel=0, data=[19, 100]),
   midi.NoteOffEvent(tick=85900, channel=0, data=[19, 0]),
   midi.NoteOnEvent(tick=86000, channel=0, data=[18, 100]),
   midi.NoteOffEvent(tick=86100, channel=0, data=[18, 0]),
   midi.NoteOnEvent(tick=86200, channel=0, data=[36, 100]),
   midi.NoteOffEvent(tick=86300, channel=0, data=[36, 0]),
   midi.NoteOnEvent(tick=86400, channel=0, data=[19, 100]),
   midi.NoteOffEvent(tick=86500, channel=0, data=[19, 0]),
   midi.NoteOnEvent(tick=86600, channel=0, data=[7, 100]),
   midi.NoteOffEvent(tick=86700, channel=0, data=[7, 0]),
   midi.NoteOnEvent(tick=86800, channel=0, data=[4, 100]),
   midi.NoteOffEvent(tick=86900, channel=0, data=[4, 0]),
   midi.NoteOnEvent(tick=87000, channel=0, data=[36, 100]),
   midi.NoteOffEvent(tick=87100, channel=0, data=[36, 0]),
   midi.NoteOnEvent(tick=87200, channel=0, data=[21, 100]),
   midi.NoteOffEvent(tick=87300, channel=0, data=[21, 0]),
   midi.NoteOnEvent(tick=87400, channel=0, data=[0, 100]),
   midi.NoteOffEvent(tick=87500, channel=0, data=[0, 0]),
   midi.NoteOnEvent(tick=87600, channel=0, data=[11, 100]),
   midi.NoteOffEvent(tick=87700, channel=0, data=[11, 0]),
   midi.NoteOnEvent(tick=87800, channel=0, data=[20, 100]),
   midi.NoteOffEvent(tick=87900, channel=0, data=[20, 0]),
   midi.NoteOnEvent(tick=88000, channel=0, data=[4, 100]),
   midi.NoteOffEvent(tick=88100, channel=0, data=[4, 0]),
   midi.NoteOnEvent(tick=88200, channel=0, data=[36, 100]),
   midi.NoteOffEvent(tick=88300, channel=0, data=[36, 0]),
   midi.NoteOnEvent(tick=88400, channel=0, data=[14, 100]),
   midi.NoteOffEvent(tick=88500, channel=0, data=[14, 0]),
   midi.NoteOnEvent(tick=88600, channel=0, data=[5, 100]),
   midi.NoteOffEvent(tick=88700, channel=0, data=[5, 0]),
   midi.NoteOnEvent(tick=88800, channel=0, data=[36, 100]),
   midi.NoteOffEvent(tick=88900, channel=0, data=[36, 0]),
   midi.NoteOnEvent(tick=89000, channel=0, data=[0, 100]),
   midi.NoteOffEvent(tick=89100, channel=0, data=[0, 0]),
   midi.NoteOnEvent(tick=89200, channel=0, data=[36, 100]),
   midi.NoteOffEvent(tick=89300, channel=0, data=[36, 0]),
   midi.NoteOnEvent(tick=89400, channel=0, data=[21, 100]),
   midi.NoteOffEvent(tick=89500, channel=0, data=[21, 0]),
   midi.NoteOnEvent(tick=89600, channel=0, data=[0, 100]),
   midi.NoteOffEvent(tick=89700, channel=0, data=[0, 0]),
   midi.NoteOnEvent(tick=89800, channel=0, data=[17, 100]),
   midi.NoteOffEvent(tick=89900, channel=0, data=[17, 0]),
   midi.NoteOnEvent(tick=90000, channel=0, data=[8, 100]),
   midi.NoteOffEvent(tick=90100, channel=0, data=[8, 0]),
   midi.NoteOnEvent(tick=90200, channel=0, data=[0, 100]),
   midi.NoteOffEvent(tick=90300, channel=0, data=[0, 0]),
   midi.NoteOnEvent(tick=90400, channel=0, data=[1, 100]),
   midi.NoteOffEvent(tick=90500, channel=0, data=[1, 0]),
   midi.NoteOnEvent(tick=90600, channel=0, data=[11, 100]),
   midi.NoteOffEvent(tick=90700, channel=0, data=[11, 0]),
   midi.NoteOnEvent(tick=90800, channel=0, data=[4, 100]),
   midi.NoteOffEvent(tick=90900, channel=0, data=[4, 0]),
   midi.NoteOnEvent(tick=91000, channel=0, data=[36, 100]),
   midi.NoteOffEvent(tick=91100, channel=0, data=[36, 0]),
   midi.NoteOnEvent(tick=91200, channel=0, data=[19, 100]),
   midi.NoteOffEvent(tick=91300, channel=0, data=[19, 0]),
   midi.NoteOnEvent(tick=91400, channel=0, data=[14, 100]),
   midi.NoteOffEvent(tick=91500, channel=0, data=[14, 0]),
   midi.NoteOnEvent(tick=91600, channel=0, data=[36, 100]),
   midi.NoteOffEvent(tick=91700, channel=0, data=[36, 0]),
   midi.NoteOnEvent(tick=91800, channel=0, data=[19, 100]),
   midi.NoteOffEvent(tick=91900, channel=0, data=[19, 0]),
   midi.NoteOnEvent(tick=92000, channel=0, data=[7, 100]),
   midi.NoteOffEvent(tick=92100, channel=0, data=[7, 0]),
   midi.NoteOnEvent(tick=92200, channel=0, data=[4, 100]),
   midi.NoteOffEvent(tick=92300, channel=0, data=[4, 0]),
   midi.NoteOnEvent(tick=92400, channel=0, data=[36, 100]),
   midi.NoteOffEvent(tick=92500, channel=0, data=[36, 0]),
   midi.NoteOnEvent(tick=92600, channel=0, data=[18, 100]),
   midi.NoteOffEvent(tick=92700, channel=0, data=[18, 0]),
   midi.NoteOnEvent(tick=92800, channel=0, data=[15, 100]),
   midi.NoteOffEvent(tick=92900, channel=0, data=[15, 0]),
   midi.NoteOnEvent(tick=93000, channel=0, data=[4, 100]),
   midi.NoteOffEvent(tick=93100, channel=0, data=[4, 0]),
   midi.NoteOnEvent(tick=93200, channel=0, data=[2, 100]),
   midi.NoteOffEvent(tick=93300, channel=0, data=[2, 0]),
   midi.NoteOnEvent(tick=93400, channel=0, data=[8, 100]),
   midi.NoteOffEvent(tick=93500, channel=0, data=[8, 0]),
   midi.NoteOnEvent(tick=93600, channel=0, data=[5, 100]),
   midi.NoteOffEvent(tick=93700, channel=0, data=[5, 0]),
   midi.NoteOnEvent(tick=93800, channel=0, data=[8, 100]),
   midi.NoteOffEvent(tick=93900, channel=0, data=[8, 0]),
   midi.NoteOnEvent(tick=94000, channel=0, data=[4, 100]),
   midi.NoteOffEvent(tick=94100, channel=0, data=[4, 0]),
   midi.NoteOnEvent(tick=94200, channel=0, data=[3, 100]),
   midi.NoteOffEvent(tick=94300, channel=0, data=[3, 0]),
   midi.NoteOnEvent(tick=94400, channel=0, data=[36, 100]),
   midi.NoteOffEvent(tick=94500, channel=0, data=[36, 0]),
   midi.NoteOnEvent(tick=94600, channel=0, data=[21, 100]),
   midi.NoteOffEvent(tick=94700, channel=0, data=[21, 0]),
   midi.NoteOnEvent(tick=94800, channel=0, data=[0, 100]),
   midi.NoteOffEvent(tick=94900, channel=0, data=[0, 0]),
   midi.NoteOnEvent(tick=95000, channel=0, data=[11, 100]),
   midi.NoteOffEvent(tick=95100, channel=0, data=[11, 0]),
   midi.NoteOnEvent(tick=95200, channel=0, data=[20, 100]),
   midi.NoteOffEvent(tick=95300, channel=0, data=[20, 0]),
   midi.NoteOnEvent(tick=95400, channel=0, data=[4, 100]),
   midi.NoteOffEvent(tick=95500, channel=0, data=[4, 0]),
   midi.NoteOnEvent(tick=95600, channel=0, data=[37, 100]),
   midi.NoteOffEvent(tick=95700, channel=0, data=[37, 0]),
   midi.NoteOnEvent(tick=95800, channel=0, data=[56, 100]),
   midi.NoteOffEvent(tick=95900, channel=0, data=[56, 0]),
   midi.NoteOnEvent(tick=96000, channel=0, data=[56, 100]),
   midi.NoteOffEvent(tick=96100, channel=0, data=[56, 0]),
   midi.NoteOnEvent(tick=96200, channel=0, data=[36, 100]),
   midi.NoteOffEvent(tick=96300, channel=0, data=[36, 0]),
   midi.NoteOnEvent(tick=96400, channel=0, data=[36, 100]),
   midi.NoteOffEvent(tick=96500, channel=0, data=[36, 0]),
   midi.NoteOnEvent(tick=96600, channel=0, data=[36, 100]),
   midi.NoteOffEvent(tick=96700, channel=0, data=[36, 0]),
   midi.NoteOnEvent(tick=96800, channel=0, data=[36, 100]),
   midi.NoteOffEvent(tick=96900, channel=0, data=[36, 0]),
   midi.NoteOnEvent(tick=97000, channel=0, data=[55, 100]),
   midi.NoteOffEvent(tick=97100, channel=0, data=[55, 0]),
   midi.NoteOnEvent(tick=97200, channel=0, data=[69, 100]),
   midi.NoteOffEvent(tick=97300, channel=0, data=[69, 0]),
   midi.NoteOnEvent(tick=97400, channel=0, data=[36, 100]),
   midi.NoteOffEvent(tick=97500, channel=0, data=[36, 0]),
   midi.NoteOnEvent(tick=97600, channel=0, data=[36, 100]),
   midi.NoteOffEvent(tick=97700, channel=0, data=[36, 0]),
   midi.NoteOnEvent(tick=97800, channel=0, data=[36, 100]),
   midi.NoteOffEvent(tick=97900, channel=0, data=[36, 0]),
   midi.NoteOnEvent(tick=98000, channel=0, data=[36, 100]),
   midi.NoteOffEvent(tick=98100, channel=0, data=[36, 0]),
   midi.NoteOnEvent(tick=98200, channel=0, data=[36, 100]),
   midi.NoteOffEvent(tick=98300, channel=0, data=[36, 0]),
   midi.NoteOnEvent(tick=98400, channel=0, data=[36, 100]),
   midi.NoteOffEvent(tick=98500, channel=0, data=[36, 0]),
   midi.NoteOnEvent(tick=98600, channel=0, data=[36, 100]),
   midi.NoteOffEvent(tick=98700, channel=0, data=[36, 0]),
   midi.NoteOnEvent(tick=98800, channel=0, data=[36, 100]),
   midi.NoteOffEvent(tick=98900, channel=0, data=[36, 0]),
   midi.NoteOnEvent(tick=99000, channel=0, data=[8, 100]),
   midi.NoteOffEvent(tick=99100, channel=0, data=[8, 0]),
   midi.NoteOnEvent(tick=99200, channel=0, data=[13, 100]),
   midi.NoteOffEvent(tick=99300, channel=0, data=[13, 0]),
   midi.NoteOnEvent(tick=99400, channel=0, data=[2, 100]),
   midi.NoteOffEvent(tick=99500, channel=0, data=[2, 0]),
   midi.NoteOnEvent(tick=99600, channel=0, data=[17, 100]),
   midi.NoteOffEvent(tick=99700, channel=0, data=[17, 0]),
   midi.NoteOnEvent(tick=99800, channel=0, data=[4, 100]),
   midi.NoteOffEvent(tick=99900, channel=0, data=[4, 0]),
   midi.NoteOnEvent(tick=100000, channel=0, data=[0, 100]),
   midi.NoteOffEvent(tick=100100, channel=0, data=[0, 0]),
   midi.NoteOnEvent(tick=100200, channel=0, data=[18, 100]),
   midi.NoteOffEvent(tick=100300, channel=0, data=[18, 0]),
   midi.NoteOnEvent(tick=100400, channel=0, data=[4, 100]),
   midi.NoteOffEvent(tick=100500, channel=0, data=[4, 0]),
   midi.NoteOnEvent(tick=100600, channel=0, data=[18, 100]),
   midi.NoteOffEvent(tick=100700, channel=0, data=[18, 0]),
   midi.NoteOnEvent(tick=100800, channel=0, data=[36, 100]),
   midi.NoteOffEvent(tick=100900, channel=0, data=[36, 0]),
   midi.NoteOnEvent(tick=101000, channel=0, data=[19, 100]),
   midi.NoteOffEvent(tick=101100, channel=0, data=[19, 0]),
   midi.NoteOnEvent(tick=101200, channel=0, data=[7, 100]),
   midi.NoteOffEvent(tick=101300, channel=0, data=[7, 0]),
   midi.NoteOnEvent(tick=101400, channel=0, data=[4, 100]),
   midi.NoteOffEvent(tick=101500, channel=0, data=[4, 0]),
   midi.NoteOnEvent(tick=101600, channel=0, data=[36, 100]),
   midi.NoteOffEvent(tick=101700, channel=0, data=[36, 0]),
   midi.NoteOnEvent(tick=101800, channel=0, data=[21, 100]),
   midi.NoteOffEvent(tick=101900, channel=0, data=[21, 0]),
   midi.NoteOnEvent(tick=102000, channel=0, data=[0, 100]),
   midi.NoteOffEvent(tick=102100, channel=0, data=[0, 0]),
   midi.NoteOnEvent(tick=102200, channel=0, data=[11, 100]),
   midi.NoteOffEvent(tick=102300, channel=0, data=[11, 0]),
   midi.NoteOnEvent(tick=102400, channel=0, data=[20, 100]),
   midi.NoteOffEvent(tick=102500, channel=0, data=[20, 0]),
   midi.NoteOnEvent(tick=102600, channel=0, data=[4, 100]),
   midi.NoteOffEvent(tick=102700, channel=0, data=[4, 0]),
   midi.NoteOnEvent(tick=102800, channel=0, data=[36, 100]),
   midi.NoteOffEvent(tick=102900, channel=0, data=[36, 0]),
   midi.NoteOnEvent(tick=103000, channel=0, data=[14, 100]),
   midi.NoteOffEvent(tick=103100, channel=0, data=[14, 0]),
   midi.NoteOnEvent(tick=103200, channel=0, data=[5, 100]),
   midi.NoteOffEvent(tick=103300, channel=0, data=[5, 0]),
   midi.NoteOnEvent(tick=103400, channel=0, data=[36, 100]),
   midi.NoteOffEvent(tick=103500, channel=0, data=[36, 0]),
   midi.NoteOnEvent(tick=103600, channel=0, data=[0, 100]),
   midi.NoteOffEvent(tick=103700, channel=0, data=[0, 0]),
   midi.NoteOnEvent(tick=103800, channel=0, data=[36, 100]),
   midi.NoteOffEvent(tick=103900, channel=0, data=[36, 0]),
   midi.NoteOnEvent(tick=104000, channel=0, data=[21, 100]),
   midi.NoteOffEvent(tick=104100, channel=0, data=[21, 0]),
   midi.NoteOnEvent(tick=104200, channel=0, data=[0, 100]),
   midi.NoteOffEvent(tick=104300, channel=0, data=[0, 0]),
   midi.NoteOnEvent(tick=104400, channel=0, data=[17, 100]),
   midi.NoteOffEvent(tick=104500, channel=0, data=[17, 0]),
   midi.NoteOnEvent(tick=104600, channel=0, data=[8, 100]),
   midi.NoteOffEvent(tick=104700, channel=0, data=[8, 0]),
   midi.NoteOnEvent(tick=104800, channel=0, data=[0, 100]),
   midi.NoteOffEvent(tick=104900, channel=0, data=[0, 0]),
   midi.NoteOnEvent(tick=105000, channel=0, data=[1, 100]),
   midi.NoteOffEvent(tick=105100, channel=0, data=[1, 0]),
   midi.NoteOnEvent(tick=105200, channel=0, data=[11, 100]),
   midi.NoteOffEvent(tick=105300, channel=0, data=[11, 0]),
   midi.NoteOnEvent(tick=105400, channel=0, data=[4, 100]),
   midi.NoteOffEvent(tick=105500, channel=0, data=[4, 0]),
   midi.NoteOnEvent(tick=105600, channel=0, data=[36, 100]),
   midi.NoteOffEvent(tick=105700, channel=0, data=[36, 0]),
   midi.NoteOnEvent(tick=105800, channel=0, data=[1, 100]),
   midi.NoteOffEvent(tick=105900, channel=0, data=[1, 0]),
   midi.NoteOnEvent(tick=106000, channel=0, data=[24, 100]),
   midi.NoteOffEvent(tick=106100, channel=0, data=[24, 0]),
   midi.NoteOnEvent(tick=106200, channel=0, data=[36, 100]),
   midi.NoteOffEvent(tick=106300, channel=0, data=[36, 0]),
   midi.NoteOnEvent(tick=106400, channel=0, data=[19, 100]),
   midi.NoteOffEvent(tick=106500, channel=0, data=[19, 0]),
   midi.NoteOnEvent(tick=106600, channel=0, data=[7, 100]),
   midi.NoteOffEvent(tick=106700, channel=0, data=[7, 0]),
   midi.NoteOnEvent(tick=106800, channel=0, data=[4, 100]),
   midi.NoteOffEvent(tick=106900, channel=0, data=[4, 0]),
   midi.NoteOnEvent(tick=107000, channel=0, data=[36, 100]),
   midi.NoteOffEvent(tick=107100, channel=0, data=[36, 0]),
   midi.NoteOnEvent(tick=107200, channel=0, data=[18, 100]),
   midi.NoteOffEvent(tick=107300, channel=0, data=[18, 0]),
   midi.NoteOnEvent(tick=107400, channel=0, data=[15, 100]),
   midi.NoteOffEvent(tick=107500, channel=0, data=[15, 0]),
   midi.NoteOnEvent(tick=107600, channel=0, data=[4, 100]),
   midi.NoteOffEvent(tick=107700, channel=0, data=[4, 0]),
   midi.NoteOnEvent(tick=107800, channel=0, data=[2, 100]),
   midi.NoteOffEvent(tick=107900, channel=0, data=[2, 0]),
   midi.NoteOnEvent(tick=108000, channel=0, data=[8, 100]),
   midi.NoteOffEvent(tick=108100, channel=0, data=[8, 0]),
   midi.NoteOnEvent(tick=108200, channel=0, data=[5, 100]),
   midi.NoteOffEvent(tick=108300, channel=0, data=[5, 0]),
   midi.NoteOnEvent(tick=108400, channel=0, data=[8, 100]),
   midi.NoteOffEvent(tick=108500, channel=0, data=[8, 0]),
   midi.NoteOnEvent(tick=108600, channel=0, data=[4, 100]),
   midi.NoteOffEvent(tick=108700, channel=0, data=[4, 0]),
   midi.NoteOnEvent(tick=108800, channel=0, data=[3, 100]),
   midi.NoteOffEvent(tick=108900, channel=0, data=[3, 0]),
   midi.NoteOnEvent(tick=109000, channel=0, data=[36, 100]),
   midi.NoteOffEvent(tick=109100, channel=0, data=[36, 0]),
   midi.NoteOnEvent(tick=109200, channel=0, data=[21, 100]),
   midi.NoteOffEvent(tick=109300, channel=0, data=[21, 0]),
   midi.NoteOnEvent(tick=109400, channel=0, data=[0, 100]),
   midi.NoteOffEvent(tick=109500, channel=0, data=[0, 0]),
   midi.NoteOnEvent(tick=109600, channel=0, data=[11, 100]),
   midi.NoteOffEvent(tick=109700, channel=0, data=[11, 0]),
   midi.NoteOnEvent(tick=109800, channel=0, data=[20, 100]),
   midi.NoteOffEvent(tick=109900, channel=0, data=[20, 0]),
   midi.NoteOnEvent(tick=110000, channel=0, data=[4, 100]),
   midi.NoteOffEvent(tick=110100, channel=0, data=[4, 0]),
   midi.NoteOnEvent(tick=110200, channel=0, data=[38, 100]),
   midi.NoteOffEvent(tick=110300, channel=0, data=[38, 0]),
   midi.NoteOnEvent(tick=110400, channel=0, data=[36, 100]),
   midi.NoteOffEvent(tick=110500, channel=0, data=[36, 0]),
   midi.NoteOnEvent(tick=110600, channel=0, data=[14, 100]),
   midi.NoteOffEvent(tick=110700, channel=0, data=[14, 0]),
   midi.NoteOnEvent(tick=110800, channel=0, data=[17, 100]),
   midi.NoteOffEvent(tick=110900, channel=0, data=[17, 0]),
   midi.NoteOnEvent(tick=111000, channel=0, data=[36, 100]),
   midi.NoteOffEvent(tick=111100, channel=0, data=[36, 0]),
   midi.NoteOnEvent(tick=111200, channel=0, data=[56, 100]),
   midi.NoteOffEvent(tick=111300, channel=0, data=[56, 0]),
   midi.NoteOnEvent(tick=111400, channel=0, data=[36, 100]),
   midi.NoteOffEvent(tick=111500, channel=0, data=[36, 0]),
   midi.NoteOnEvent(tick=111600, channel=0, data=[36, 100]),
   midi.NoteOffEvent(tick=111700, channel=0, data=[36, 0]),
   midi.NoteOnEvent(tick=111800, channel=0, data=[36, 100]),
   midi.NoteOffEvent(tick=111900, channel=0, data=[36, 0]),
   midi.NoteOnEvent(tick=112000, channel=0, data=[36, 100]),
   midi.NoteOffEvent(tick=112100, channel=0, data=[36, 0]),
   midi.NoteOnEvent(tick=112200, channel=0, data=[36, 100]),
   midi.NoteOffEvent(tick=112300, channel=0, data=[36, 0]),
   midi.NoteOnEvent(tick=112400, channel=0, data=[36, 100]),
   midi.NoteOffEvent(tick=112500, channel=0, data=[36, 0]),
   midi.NoteOnEvent(tick=112600, channel=0, data=[36, 100]),
   midi.NoteOffEvent(tick=112700, channel=0, data=[36, 0]),
   midi.NoteOnEvent(tick=112800, channel=0, data=[36, 100]),
   midi.NoteOffEvent(tick=112900, channel=0, data=[36, 0]),
   midi.NoteOnEvent(tick=113000, channel=0, data=[36, 100]),
   midi.NoteOffEvent(tick=113100, channel=0, data=[36, 0]),
   midi.NoteOnEvent(tick=113200, channel=0, data=[36, 100]),
   midi.NoteOffEvent(tick=113300, channel=0, data=[36, 0]),
   midi.NoteOnEvent(tick=113400, channel=0, data=[36, 100]),
   midi.NoteOffEvent(tick=113500, channel=0, data=[36, 0]),
   midi.NoteOnEvent(tick=113600, channel=0, data=[36, 100]),
   midi.NoteOffEvent(tick=113700, channel=0, data=[36, 0]),
   midi.NoteOnEvent(tick=113800, channel=0, data=[36, 100]),
   midi.NoteOffEvent(tick=113900, channel=0, data=[36, 0]),
   midi.NoteOnEvent(tick=114000, channel=0, data=[36, 100]),
   midi.NoteOffEvent(tick=114100, channel=0, data=[36, 0]),
   midi.NoteOnEvent(tick=114200, channel=0, data=[0, 100]),
   midi.NoteOffEvent(tick=114300, channel=0, data=[0, 0]),
   midi.NoteOnEvent(tick=114400, channel=0, data=[15, 100]),
   midi.NoteOffEvent(tick=114500, channel=0, data=[15, 0]),
   midi.NoteOnEvent(tick=114600, channel=0, data=[15, 100]),
   midi.NoteOffEvent(tick=114700, channel=0, data=[15, 0]),
   midi.NoteOnEvent(tick=114800, channel=0, data=[4, 100]),
   midi.NoteOffEvent(tick=114900, channel=0, data=[4, 0]),
   midi.NoteOnEvent(tick=115000, channel=0, data=[13, 100]),
   midi.NoteOffEvent(tick=115100, channel=0, data=[13, 0]),
   midi.NoteOnEvent(tick=115200, channel=0, data=[3, 100]),
   midi.NoteOffEvent(tick=115300, channel=0, data=[3, 0]),
   midi.NoteOnEvent(tick=115400, channel=0, data=[18, 100]),
   midi.NoteOffEvent(tick=115500, channel=0, data=[18, 0]),
   midi.NoteOnEvent(tick=115600, channel=0, data=[36, 100]),
   midi.NoteOffEvent(tick=115700, channel=0, data=[36, 0]),
   midi.NoteOnEvent(tick=115800, channel=0, data=[19, 100]),
   midi.NoteOffEvent(tick=115900, channel=0, data=[19, 0]),
   midi.NoteOnEvent(tick=116000, channel=0, data=[7, 100]),
   midi.NoteOffEvent(tick=116100, channel=0, data=[7, 0]),
   midi.NoteOnEvent(tick=116200, channel=0, data=[4, 100]),
   midi.NoteOffEvent(tick=116300, channel=0, data=[4, 0]),
   midi.NoteOnEvent(tick=116400, channel=0, data=[36, 100]),
   midi.NoteOffEvent(tick=116500, channel=0, data=[36, 0]),
   midi.NoteOnEvent(tick=116600, channel=0, data=[18, 100]),
   midi.NoteOffEvent(tick=116700, channel=0, data=[18, 0]),
   midi.NoteOnEvent(tick=116800, channel=0, data=[15, 100]),
   midi.NoteOffEvent(tick=116900, channel=0, data=[15, 0]),
   midi.NoteOnEvent(tick=117000, channel=0, data=[4, 100]),
   midi.NoteOffEvent(tick=117100, channel=0, data=[4, 0]),
   midi.NoteOnEvent(tick=117200, channel=0, data=[2, 100]),
   midi.NoteOffEvent(tick=117300, channel=0, data=[2, 0]),
   midi.NoteOnEvent(tick=117400, channel=0, data=[8, 100]),
   midi.NoteOffEvent(tick=117500, channel=0, data=[8, 0]),
   midi.NoteOnEvent(tick=117600, channel=0, data=[5, 100]),
   midi.NoteOffEvent(tick=117700, channel=0, data=[5, 0]),
   midi.NoteOnEvent(tick=117800, channel=0, data=[8, 100]),
   midi.NoteOffEvent(tick=117900, channel=0, data=[8, 0]),
   midi.NoteOnEvent(tick=118000, channel=0, data=[4, 100]),
   midi.NoteOffEvent(tick=118100, channel=0, data=[4, 0]),
   midi.NoteOnEvent(tick=118200, channel=0, data=[3, 100]),
   midi.NoteOffEvent(tick=118300, channel=0, data=[3, 0]),
   midi.NoteOnEvent(tick=118400, channel=0, data=[36, 100]),
   midi.NoteOffEvent(tick=118500, channel=0, data=[36, 0]),
   midi.NoteOnEvent(tick=118600, channel=0, data=[21, 100]),
   midi.NoteOffEvent(tick=118700, channel=0, data=[21, 0]),
   midi.NoteOnEvent(tick=118800, channel=0, data=[0, 100]),
   midi.NoteOffEvent(tick=118900, channel=0, data=[0, 0]),
   midi.NoteOnEvent(tick=119000, channel=0, data=[11, 100]),
   midi.NoteOffEvent(tick=119100, channel=0, data=[11, 0]),
   midi.NoteOnEvent(tick=119200, channel=0, data=[20, 100]),
   midi.NoteOffEvent(tick=119300, channel=0, data=[20, 0]),
   midi.NoteOnEvent(tick=119400, channel=0, data=[4, 100]),
   midi.NoteOffEvent(tick=119500, channel=0, data=[4, 0]),
   midi.NoteOnEvent(tick=119600, channel=0, data=[36, 100]),
   midi.NoteOffEvent(tick=119700, channel=0, data=[36, 0]),
   midi.NoteOnEvent(tick=119800, channel=0, data=[19, 100]),
   midi.NoteOffEvent(tick=119900, channel=0, data=[19, 0]),
   midi.NoteOnEvent(tick=120000, channel=0, data=[14, 100]),
   midi.NoteOffEvent(tick=120100, channel=0, data=[14, 0]),
   midi.NoteOnEvent(tick=120200, channel=0, data=[36, 100]),
   midi.NoteOffEvent(tick=120300, channel=0, data=[36, 0]),
   midi.NoteOnEvent(tick=120400, channel=0, data=[19, 100]),
   midi.NoteOffEvent(tick=120500, channel=0, data=[19, 0]),
   midi.NoteOnEvent(tick=120600, channel=0, data=[7, 100]),
   midi.NoteOffEvent(tick=120700, channel=0, data=[7, 0]),
   midi.NoteOnEvent(tick=120800, channel=0, data=[4, 100]),
   midi.NoteOffEvent(tick=120900, channel=0, data=[4, 0]),
   midi.NoteOnEvent(tick=121000, channel=0, data=[36, 100]),
   midi.NoteOffEvent(tick=121100, channel=0, data=[36, 0]),
   midi.NoteOnEvent(tick=121200, channel=0, data=[4, 100]),
   midi.NoteOffEvent(tick=121300, channel=0, data=[4, 0]),
   midi.NoteOnEvent(tick=121400, channel=0, data=[23, 100]),
   midi.NoteOffEvent(tick=121500, channel=0, data=[23, 0]),
   midi.NoteOnEvent(tick=121600, channel=0, data=[8, 100]),
   midi.NoteOffEvent(tick=121700, channel=0, data=[8, 0]),
   midi.NoteOnEvent(tick=121800, channel=0, data=[18, 100]),
   midi.NoteOffEvent(tick=121900, channel=0, data=[18, 0]),
   midi.NoteOnEvent(tick=122000, channel=0, data=[19, 100]),
   midi.NoteOffEvent(tick=122100, channel=0, data=[19, 0]),
   midi.NoteOnEvent(tick=122200, channel=0, data=[8, 100]),
   midi.NoteOffEvent(tick=122300, channel=0, data=[8, 0]),
   midi.NoteOnEvent(tick=122400, channel=0, data=[13, 100]),
   midi.NoteOffEvent(tick=122500, channel=0, data=[13, 0]),
   midi.NoteOnEvent(tick=122600, channel=0, data=[6, 100]),
   midi.NoteOffEvent(tick=122700, channel=0, data=[6, 0]),
   midi.NoteOnEvent(tick=122800, channel=0, data=[36, 100]),
   midi.NoteOffEvent(tick=122900, channel=0, data=[36, 0]),
   midi.NoteOnEvent(tick=123000, channel=0, data=[21, 100]),
   midi.NoteOffEvent(tick=123100, channel=0, data=[21, 0]),
   midi.NoteOnEvent(tick=123200, channel=0, data=[0, 100]),
   midi.NoteOffEvent(tick=123300, channel=0, data=[0, 0]),
   midi.NoteOnEvent(tick=123400, channel=0, data=[11, 100]),
   midi.NoteOffEvent(tick=123500, channel=0, data=[11, 0]),
   midi.NoteOnEvent(tick=123600, channel=0, data=[20, 100]),
   midi.NoteOffEvent(tick=123700, channel=0, data=[20, 0]),
   midi.NoteOnEvent(tick=123800, channel=0, data=[4, 100]),
   midi.NoteOffEvent(tick=123900, channel=0, data=[4, 0]),
   midi.NoteOnEvent(tick=124000, channel=0, data=[37, 100]),
   midi.NoteOffEvent(tick=124100, channel=0, data=[37, 0]),
   midi.NoteOnEvent(tick=124200, channel=0, data=[56, 100]),
   midi.NoteOffEvent(tick=124300, channel=0, data=[56, 0]),
   midi.NoteOnEvent(tick=124400, channel=0, data=[56, 100]),
   midi.NoteOffEvent(tick=124500, channel=0, data=[56, 0]),
   midi.NoteOnEvent(tick=124600, channel=0, data=[36, 100]),
   midi.NoteOffEvent(tick=124700, channel=0, data=[36, 0]),
   midi.NoteOnEvent(tick=124800, channel=0, data=[36, 100]),
   midi.NoteOffEvent(tick=124900, channel=0, data=[36, 0]),
   midi.NoteOnEvent(tick=125000, channel=0, data=[36, 100]),
   midi.NoteOffEvent(tick=125100, channel=0, data=[36, 0]),
   midi.NoteOnEvent(tick=125200, channel=0, data=[36, 100]),
   midi.NoteOffEvent(tick=125300, channel=0, data=[36, 0]),
   midi.NoteOnEvent(tick=125400, channel=0, data=[45, 100]),
   midi.NoteOffEvent(tick=125500, channel=0, data=[45, 0]),
   midi.NoteOnEvent(tick=125600, channel=0, data=[69, 100]),
   midi.NoteOffEvent(tick=125700, channel=0, data=[69, 0]),
   midi.NoteOnEvent(tick=125800, channel=0, data=[36, 100]),
   midi.NoteOffEvent(tick=125900, channel=0, data=[36, 0]),
   midi.NoteOnEvent(tick=126000, channel=0, data=[36, 100]),
   midi.NoteOffEvent(tick=126100, channel=0, data=[36, 0]),
   midi.NoteOnEvent(tick=126200, channel=0, data=[36, 100]),
   midi.NoteOffEvent(tick=126300, channel=0, data=[36, 0]),
   midi.NoteOnEvent(tick=126400, channel=0, data=[36, 100]),
   midi.NoteOffEvent(tick=126500, channel=0, data=[36, 0]),
   midi.NoteOnEvent(tick=126600, channel=0, data=[36, 100]),
   midi.NoteOffEvent(tick=126700, channel=0, data=[36, 0]),
   midi.NoteOnEvent(tick=126800, channel=0, data=[36, 100]),
   midi.NoteOffEvent(tick=126900, channel=0, data=[36, 0]),
   midi.NoteOnEvent(tick=127000, channel=0, data=[36, 100]),
   midi.NoteOffEvent(tick=127100, channel=0, data=[36, 0]),
   midi.NoteOnEvent(tick=127200, channel=0, data=[36, 100]),
   midi.NoteOffEvent(tick=127300, channel=0, data=[36, 0]),
   midi.NoteOnEvent(tick=127400, channel=0, data=[3, 100]),
   midi.NoteOffEvent(tick=127500, channel=0, data=[3, 0]),
   midi.NoteOnEvent(tick=127600, channel=0, data=[4, 100]),
   midi.NoteOffEvent(tick=127700, channel=0, data=[4, 0]),
   midi.NoteOnEvent(tick=127800, channel=0, data=[2, 100]),
   midi.NoteOffEvent(tick=127900, channel=0, data=[2, 0]),
   midi.NoteOnEvent(tick=128000, channel=0, data=[17, 100]),
   midi.NoteOffEvent(tick=128100, channel=0, data=[17, 0]),
   midi.NoteOnEvent(tick=128200, channel=0, data=[4, 100]),
   midi.NoteOffEvent(tick=128300, channel=0, data=[4, 0]),
   midi.NoteOnEvent(tick=128400, channel=0, data=[0, 100]),
   midi.NoteOffEvent(tick=128500, channel=0, data=[0, 0]),
   midi.NoteOnEvent(tick=128600, channel=0, data=[18, 100]),
   midi.NoteOffEvent(tick=128700, channel=0, data=[18, 0]),
   midi.NoteOnEvent(tick=128800, channel=0, data=[4, 100]),
   midi.NoteOffEvent(tick=128900, channel=0, data=[4, 0]),
   midi.NoteOnEvent(tick=129000, channel=0, data=[18, 100]),
   midi.NoteOffEvent(tick=129100, channel=0, data=[18, 0]),
   midi.NoteOnEvent(tick=129200, channel=0, data=[36, 100]),
   midi.NoteOffEvent(tick=129300, channel=0, data=[36, 0]),
   midi.NoteOnEvent(tick=129400, channel=0, data=[19, 100]),
   midi.NoteOffEvent(tick=129500, channel=0, data=[19, 0]),
   midi.NoteOnEvent(tick=129600, channel=0, data=[7, 100]),
   midi.NoteOffEvent(tick=129700, channel=0, data=[7, 0]),
   midi.NoteOnEvent(tick=129800, channel=0, data=[4, 100]),
   midi.NoteOffEvent(tick=129900, channel=0, data=[4, 0]),
   midi.NoteOnEvent(tick=130000, channel=0, data=[36, 100]),
   midi.NoteOffEvent(tick=130100, channel=0, data=[36, 0]),
   midi.NoteOnEvent(tick=130200, channel=0, data=[21, 100]),
   midi.NoteOffEvent(tick=130300, channel=0, data=[21, 0]),
   midi.NoteOnEvent(tick=130400, channel=0, data=[0, 100]),
   midi.NoteOffEvent(tick=130500, channel=0, data=[0, 0]),
   midi.NoteOnEvent(tick=130600, channel=0, data=[11, 100]),
   midi.NoteOffEvent(tick=130700, channel=0, data=[11, 0]),
   midi.NoteOnEvent(tick=130800, channel=0, data=[20, 100]),
   midi.NoteOffEvent(tick=130900, channel=0, data=[20, 0]),
   midi.NoteOnEvent(tick=131000, channel=0, data=[4, 100]),
   midi.NoteOffEvent(tick=131100, channel=0, data=[4, 0]),
   midi.NoteOnEvent(tick=131200, channel=0, data=[36, 100]),
   midi.NoteOffEvent(tick=131300, channel=0, data=[36, 0]),
   midi.NoteOnEvent(tick=131400, channel=0, data=[14, 100]),
   midi.NoteOffEvent(tick=131500, channel=0, data=[14, 0]),
   midi.NoteOnEvent(tick=131600, channel=0, data=[5, 100]),
   midi.NoteOffEvent(tick=131700, channel=0, data=[5, 0]),
   midi.NoteOnEvent(tick=131800, channel=0, data=[36, 100]),
   midi.NoteOffEvent(tick=131900, channel=0, data=[36, 0]),
   midi.NoteOnEvent(tick=132000, channel=0, data=[0, 100]),
   midi.NoteOffEvent(tick=132100, channel=0, data=[0, 0]),
   midi.NoteOnEvent(tick=132200, channel=0, data=[36, 100]),
   midi.NoteOffEvent(tick=132300, channel=0, data=[36, 0]),
   midi.NoteOnEvent(tick=132400, channel=0, data=[21, 100]),
   midi.NoteOffEvent(tick=132500, channel=0, data=[21, 0]),
   midi.NoteOnEvent(tick=132600, channel=0, data=[0, 100]),
   midi.NoteOffEvent(tick=132700, channel=0, data=[0, 0]),
   midi.NoteOnEvent(tick=132800, channel=0, data=[17, 100]),
   midi.NoteOffEvent(tick=132900, channel=0, data=[17, 0]),
   midi.NoteOnEvent(tick=133000, channel=0, data=[8, 100]),
   midi.NoteOffEvent(tick=133100, channel=0, data=[8, 0]),
   midi.NoteOnEvent(tick=133200, channel=0, data=[0, 100]),
   midi.NoteOffEvent(tick=133300, channel=0, data=[0, 0]),
   midi.NoteOnEvent(tick=133400, channel=0, data=[1, 100]),
   midi.NoteOffEvent(tick=133500, channel=0, data=[1, 0]),
   midi.NoteOnEvent(tick=133600, channel=0, data=[11, 100]),
   midi.NoteOffEvent(tick=133700, channel=0, data=[11, 0]),
   midi.NoteOnEvent(tick=133800, channel=0, data=[4, 100]),
   midi.NoteOffEvent(tick=133900, channel=0, data=[4, 0]),
   midi.NoteOnEvent(tick=134000, channel=0, data=[36, 100]),
   midi.NoteOffEvent(tick=134100, channel=0, data=[36, 0]),
   midi.NoteOnEvent(tick=134200, channel=0, data=[1, 100]),
   midi.NoteOffEvent(tick=134300, channel=0, data=[1, 0]),
   midi.NoteOnEvent(tick=134400, channel=0, data=[24, 100]),
   midi.NoteOffEvent(tick=134500, channel=0, data=[24, 0]),
   midi.NoteOnEvent(tick=134600, channel=0, data=[36, 100]),
   midi.NoteOffEvent(tick=134700, channel=0, data=[36, 0]),
   midi.NoteOnEvent(tick=134800, channel=0, data=[19, 100]),
   midi.NoteOffEvent(tick=134900, channel=0, data=[19, 0]),
   midi.NoteOnEvent(tick=135000, channel=0, data=[7, 100]),
   midi.NoteOffEvent(tick=135100, channel=0, data=[7, 0]),
   midi.NoteOnEvent(tick=135200, channel=0, data=[4, 100]),
   midi.NoteOffEvent(tick=135300, channel=0, data=[4, 0]),
   midi.NoteOnEvent(tick=135400, channel=0, data=[36, 100]),
   midi.NoteOffEvent(tick=135500, channel=0, data=[36, 0]),
   midi.NoteOnEvent(tick=135600, channel=0, data=[18, 100]),
   midi.NoteOffEvent(tick=135700, channel=0, data=[18, 0]),
   midi.NoteOnEvent(tick=135800, channel=0, data=[15, 100]),
   midi.NoteOffEvent(tick=135900, channel=0, data=[15, 0]),
   midi.NoteOnEvent(tick=136000, channel=0, data=[4, 100]),
   midi.NoteOffEvent(tick=136100, channel=0, data=[4, 0]),
   midi.NoteOnEvent(tick=136200, channel=0, data=[2, 100]),
   midi.NoteOffEvent(tick=136300, channel=0, data=[2, 0]),
   midi.NoteOnEvent(tick=136400, channel=0, data=[8, 100]),
   midi.NoteOffEvent(tick=136500, channel=0, data=[8, 0]),
   midi.NoteOnEvent(tick=136600, channel=0, data=[5, 100]),
   midi.NoteOffEvent(tick=136700, channel=0, data=[5, 0]),
   midi.NoteOnEvent(tick=136800, channel=0, data=[8, 100]),
   midi.NoteOffEvent(tick=136900, channel=0, data=[8, 0]),
   midi.NoteOnEvent(tick=137000, channel=0, data=[4, 100]),
   midi.NoteOffEvent(tick=137100, channel=0, data=[4, 0]),
   midi.NoteOnEvent(tick=137200, channel=0, data=[3, 100]),
   midi.NoteOffEvent(tick=137300, channel=0, data=[3, 0]),
   midi.NoteOnEvent(tick=137400, channel=0, data=[36, 100]),
   midi.NoteOffEvent(tick=137500, channel=0, data=[36, 0]),
   midi.NoteOnEvent(tick=137600, channel=0, data=[21, 100]),
   midi.NoteOffEvent(tick=137700, channel=0, data=[21, 0]),
   midi.NoteOnEvent(tick=137800, channel=0, data=[0, 100]),
   midi.NoteOffEvent(tick=137900, channel=0, data=[0, 0]),
   midi.NoteOnEvent(tick=138000, channel=0, data=[11, 100]),
   midi.NoteOffEvent(tick=138100, channel=0, data=[11, 0]),
   midi.NoteOnEvent(tick=138200, channel=0, data=[20, 100]),
   midi.NoteOffEvent(tick=138300, channel=0, data=[20, 0]),
   midi.NoteOnEvent(tick=138400, channel=0, data=[4, 100]),
   midi.NoteOffEvent(tick=138500, channel=0, data=[4, 0]),
   midi.NoteOnEvent(tick=138600, channel=0, data=[37, 100]),
   midi.NoteOffEvent(tick=138700, channel=0, data=[37, 0]),
   midi.NoteOnEvent(tick=138800, channel=0, data=[56, 100]),
   midi.NoteOffEvent(tick=138900, channel=0, data=[56, 0]),
   midi.NoteOnEvent(tick=139000, channel=0, data=[36, 100]),
   midi.NoteOffEvent(tick=139100, channel=0, data=[36, 0]),
   midi.NoteOnEvent(tick=139200, channel=0, data=[56, 100]),
   midi.NoteOffEvent(tick=139300, channel=0, data=[56, 0]),
   midi.NoteOnEvent(tick=139400, channel=0, data=[36, 100]),
   midi.NoteOffEvent(tick=139500, channel=0, data=[36, 0]),
   midi.NoteOnEvent(tick=139600, channel=0, data=[36, 100]),
   midi.NoteOffEvent(tick=139700, channel=0, data=[36, 0]),
   midi.NoteOnEvent(tick=139800, channel=0, data=[36, 100]),
   midi.NoteOffEvent(tick=139900, channel=0, data=[36, 0]),
   midi.NoteOnEvent(tick=140000, channel=0, data=[36, 100]),
   midi.NoteOffEvent(tick=140100, channel=0, data=[36, 0]),
   midi.NoteOnEvent(tick=140200, channel=0, data=[48, 100]),
   midi.NoteOffEvent(tick=140300, channel=0, data=[48, 0]),
   midi.NoteOnEvent(tick=140400, channel=0, data=[69, 100]),
   midi.NoteOffEvent(tick=140500, channel=0, data=[69, 0]),
   midi.NoteOnEvent(tick=140600, channel=0, data=[36, 100]),
   midi.NoteOffEvent(tick=140700, channel=0, data=[36, 0]),
   midi.NoteOnEvent(tick=140800, channel=0, data=[36, 100]),
   midi.NoteOffEvent(tick=140900, channel=0, data=[36, 0]),
   midi.NoteOnEvent(tick=141000, channel=0, data=[36, 100]),
   midi.NoteOffEvent(tick=141100, channel=0, data=[36, 0]),
   midi.NoteOnEvent(tick=141200, channel=0, data=[36, 100]),
   midi.NoteOffEvent(tick=141300, channel=0, data=[36, 0]),
   midi.NoteOnEvent(tick=141400, channel=0, data=[36, 100]),
   midi.NoteOffEvent(tick=141500, channel=0, data=[36, 0]),
   midi.NoteOnEvent(tick=141600, channel=0, data=[36, 100]),
   midi.NoteOffEvent(tick=141700, channel=0, data=[36, 0]),
   midi.NoteOnEvent(tick=141800, channel=0, data=[36, 100]),
   midi.NoteOffEvent(tick=141900, channel=0, data=[36, 0]),
   midi.NoteOnEvent(tick=142000, channel=0, data=[36, 100]),
   midi.NoteOffEvent(tick=142100, channel=0, data=[36, 0]),
   midi.NoteOnEvent(tick=142200, channel=0, data=[12, 100]),
   midi.NoteOffEvent(tick=142300, channel=0, data=[12, 0]),
   midi.NoteOnEvent(tick=142400, channel=0, data=[20, 100]),
   midi.NoteOffEvent(tick=142500, channel=0, data=[20, 0]),
   midi.NoteOnEvent(tick=142600, channel=0, data=[11, 100]),
   midi.NoteOffEvent(tick=142700, channel=0, data=[11, 0]),
   midi.NoteOnEvent(tick=142800, channel=0, data=[19, 100]),
   midi.NoteOffEvent(tick=142900, channel=0, data=[19, 0]),
   midi.NoteOnEvent(tick=143000, channel=0, data=[8, 100]),
   midi.NoteOffEvent(tick=143100, channel=0, data=[8, 0]),
   midi.NoteOnEvent(tick=143200, channel=0, data=[15, 100]),
   midi.NoteOffEvent(tick=143300, channel=0, data=[15, 0]),
   midi.NoteOnEvent(tick=143400, channel=0, data=[11, 100]),
   midi.NoteOffEvent(tick=143500, channel=0, data=[11, 0]),
   midi.NoteOnEvent(tick=143600, channel=0, data=[8, 100]),
   midi.NoteOffEvent(tick=143700, channel=0, data=[8, 0]),
   midi.NoteOnEvent(tick=143800, channel=0, data=[4, 100]),
   midi.NoteOffEvent(tick=143900, channel=0, data=[4, 0]),
   midi.NoteOnEvent(tick=144000, channel=0, data=[18, 100]),
   midi.NoteOffEvent(tick=144100, channel=0, data=[18, 0]),
   midi.NoteOnEvent(tick=144200, channel=0, data=[36, 100]),
   midi.NoteOffEvent(tick=144300, channel=0, data=[36, 0]),
   midi.NoteOnEvent(tick=144400, channel=0, data=[19, 100]),
   midi.NoteOffEvent(tick=144500, channel=0, data=[19, 0]),
   midi.NoteOnEvent(tick=144600, channel=0, data=[7, 100]),
   midi.NoteOffEvent(tick=144700, channel=0, data=[7, 0]),
   midi.NoteOnEvent(tick=144800, channel=0, data=[4, 100]),
   midi.NoteOffEvent(tick=144900, channel=0, data=[4, 0]),
   midi.NoteOnEvent(tick=145000, channel=0, data=[36, 100]),
   midi.NoteOffEvent(tick=145100, channel=0, data=[36, 0]),
   midi.NoteOnEvent(tick=145200, channel=0, data=[21, 100]),
   midi.NoteOffEvent(tick=145300, channel=0, data=[21, 0]),
   midi.NoteOnEvent(tick=145400, channel=0, data=[0, 100]),
   midi.NoteOffEvent(tick=145500, channel=0, data=[0, 0]),
   midi.NoteOnEvent(tick=145600, channel=0, data=[11, 100]),
   midi.NoteOffEvent(tick=145700, channel=0, data=[11, 0]),
   midi.NoteOnEvent(tick=145800, channel=0, data=[20, 100]),
   midi.NoteOffEvent(tick=145900, channel=0, data=[20, 0]),
   midi.NoteOnEvent(tick=146000, channel=0, data=[4, 100]),
   midi.NoteOffEvent(tick=146100, channel=0, data=[4, 0]),
   midi.NoteOnEvent(tick=146200, channel=0, data=[36, 100]),
   midi.NoteOffEvent(tick=146300, channel=0, data=[36, 0]),
   midi.NoteOnEvent(tick=146400, channel=0, data=[14, 100]),
   midi.NoteOffEvent(tick=146500, channel=0, data=[14, 0]),
   midi.NoteOnEvent(tick=146600, channel=0, data=[5, 100]),
   midi.NoteOffEvent(tick=146700, channel=0, data=[5, 0]),
   midi.NoteOnEvent(tick=146800, channel=0, data=[36, 100]),
   midi.NoteOffEvent(tick=146900, channel=0, data=[36, 0]),
   midi.NoteOnEvent(tick=147000, channel=0, data=[0, 100]),
   midi.NoteOffEvent(tick=147100, channel=0, data=[0, 0]),
   midi.NoteOnEvent(tick=147200, channel=0, data=[36, 100]),
   midi.NoteOffEvent(tick=147300, channel=0, data=[36, 0]),
   midi.NoteOnEvent(tick=147400, channel=0, data=[21, 100]),
   midi.NoteOffEvent(tick=147500, channel=0, data=[21, 0]),
   midi.NoteOnEvent(tick=147600, channel=0, data=[0, 100]),
   midi.NoteOffEvent(tick=147700, channel=0, data=[0, 0]),
   midi.NoteOnEvent(tick=147800, channel=0, data=[17, 100]),
   midi.NoteOffEvent(tick=147900, channel=0, data=[17, 0]),
   midi.NoteOnEvent(tick=148000, channel=0, data=[8, 100]),
   midi.NoteOffEvent(tick=148100, channel=0, data=[8, 0]),
   midi.NoteOnEvent(tick=148200, channel=0, data=[0, 100]),
   midi.NoteOffEvent(tick=148300, channel=0, data=[0, 0]),
   midi.NoteOnEvent(tick=148400, channel=0, data=[1, 100]),
   midi.NoteOffEvent(tick=148500, channel=0, data=[1, 0]),
   midi.NoteOnEvent(tick=148600, channel=0, data=[11, 100]),
   midi.NoteOffEvent(tick=148700, channel=0, data=[11, 0]),
   midi.NoteOnEvent(tick=148800, channel=0, data=[4, 100]),
   midi.NoteOffEvent(tick=148900, channel=0, data=[4, 0]),
   midi.NoteOnEvent(tick=149000, channel=0, data=[36, 100]),
   midi.NoteOffEvent(tick=149100, channel=0, data=[36, 0]),
   midi.NoteOnEvent(tick=149200, channel=0, data=[1, 100]),
   midi.NoteOffEvent(tick=149300, channel=0, data=[1, 0]),
   midi.NoteOnEvent(tick=149400, channel=0, data=[24, 100]),
   midi.NoteOffEvent(tick=149500, channel=0, data=[24, 0]),
   midi.NoteOnEvent(tick=149600, channel=0, data=[36, 100]),
   midi.NoteOffEvent(tick=149700, channel=0, data=[36, 0]),
   midi.NoteOnEvent(tick=149800, channel=0, data=[19, 100]),
   midi.NoteOffEvent(tick=149900, channel=0, data=[19, 0]),
   midi.NoteOnEvent(tick=150000, channel=0, data=[7, 100]),
   midi.NoteOffEvent(tick=150100, channel=0, data=[7, 0]),
   midi.NoteOnEvent(tick=150200, channel=0, data=[4, 100]),
   midi.NoteOffEvent(tick=150300, channel=0, data=[4, 0]),
   midi.NoteOnEvent(tick=150400, channel=0, data=[36, 100]),
   midi.NoteOffEvent(tick=150500, channel=0, data=[36, 0]),
   midi.NoteOnEvent(tick=150600, channel=0, data=[18, 100]),
   midi.NoteOffEvent(tick=150700, channel=0, data=[18, 0]),
   midi.NoteOnEvent(tick=150800, channel=0, data=[15, 100]),
   midi.NoteOffEvent(tick=150900, channel=0, data=[15, 0]),
   midi.NoteOnEvent(tick=151000, channel=0, data=[4, 100]),
   midi.NoteOffEvent(tick=151100, channel=0, data=[4, 0]),
   midi.NoteOnEvent(tick=151200, channel=0, data=[2, 100]),
   midi.NoteOffEvent(tick=151300, channel=0, data=[2, 0]),
   midi.NoteOnEvent(tick=151400, channel=0, data=[8, 100]),
   midi.NoteOffEvent(tick=151500, channel=0, data=[8, 0]),
   midi.NoteOnEvent(tick=151600, channel=0, data=[5, 100]),
   midi.NoteOffEvent(tick=151700, channel=0, data=[5, 0]),
   midi.NoteOnEvent(tick=151800, channel=0, data=[8, 100]),
   midi.NoteOffEvent(tick=151900, channel=0, data=[8, 0]),
   midi.NoteOnEvent(tick=152000, channel=0, data=[4, 100]),
   midi.NoteOffEvent(tick=152100, channel=0, data=[4, 0]),
   midi.NoteOnEvent(tick=152200, channel=0, data=[3, 100]),
   midi.NoteOffEvent(tick=152300, channel=0, data=[3, 0]),
   midi.NoteOnEvent(tick=152400, channel=0, data=[36, 100]),
   midi.NoteOffEvent(tick=152500, channel=0, data=[36, 0]),
   midi.NoteOnEvent(tick=152600, channel=0, data=[21, 100]),
   midi.NoteOffEvent(tick=152700, channel=0, data=[21, 0]),
   midi.NoteOnEvent(tick=152800, channel=0, data=[0, 100]),
   midi.NoteOffEvent(tick=152900, channel=0, data=[0, 0]),
   midi.NoteOnEvent(tick=153000, channel=0, data=[11, 100]),
   midi.NoteOffEvent(tick=153100, channel=0, data=[11, 0]),
   midi.NoteOnEvent(tick=153200, channel=0, data=[20, 100]),
   midi.NoteOffEvent(tick=153300, channel=0, data=[20, 0]),
   midi.NoteOnEvent(tick=153400, channel=0, data=[4, 100]),
   midi.NoteOffEvent(tick=153500, channel=0, data=[4, 0]),
   midi.NoteOnEvent(tick=153600, channel=0, data=[38, 100]),
   midi.NoteOffEvent(tick=153700, channel=0, data=[38, 0]),
   midi.NoteOnEvent(tick=153800, channel=0, data=[36, 100]),
   midi.NoteOffEvent(tick=153900, channel=0, data=[36, 0]),
   midi.NoteOnEvent(tick=154000, channel=0, data=[14, 100]),
   midi.NoteOffEvent(tick=154100, channel=0, data=[14, 0]),
   midi.NoteOnEvent(tick=154200, channel=0, data=[17, 100]),
   midi.NoteOffEvent(tick=154300, channel=0, data=[17, 0]),
   midi.NoteOnEvent(tick=154400, channel=0, data=[56, 100]),
   midi.NoteOffEvent(tick=154500, channel=0, data=[56, 0]),
   midi.NoteOnEvent(tick=154600, channel=0, data=[36, 100]),
   midi.NoteOffEvent(tick=154700, channel=0, data=[36, 0]),
   midi.NoteOnEvent(tick=154800, channel=0, data=[36, 100]),
   midi.NoteOffEvent(tick=154900, channel=0, data=[36, 0]),
   midi.NoteOnEvent(tick=155000, channel=0, data=[36, 100]),
   midi.NoteOffEvent(tick=155100, channel=0, data=[36, 0]),
   midi.NoteOnEvent(tick=155200, channel=0, data=[36, 100]),
   midi.NoteOffEvent(tick=155300, channel=0, data=[36, 0]),
   midi.NoteOnEvent(tick=155400, channel=0, data=[36, 100]),
   midi.NoteOffEvent(tick=155500, channel=0, data=[36, 0]),
   midi.NoteOnEvent(tick=155600, channel=0, data=[36, 100]),
   midi.NoteOffEvent(tick=155700, channel=0, data=[36, 0]),
   midi.NoteOnEvent(tick=155800, channel=0, data=[36, 100]),
   midi.NoteOffEvent(tick=155900, channel=0, data=[36, 0]),
   midi.NoteOnEvent(tick=156000, channel=0, data=[36, 100]),
   midi.NoteOffEvent(tick=156100, channel=0, data=[36, 0]),
   midi.NoteOnEvent(tick=156200, channel=0, data=[36, 100]),
   midi.NoteOffEvent(tick=156300, channel=0, data=[36, 0]),
   midi.NoteOnEvent(tick=156400, channel=0, data=[36, 100]),
   midi.NoteOffEvent(tick=156500, channel=0, data=[36, 0]),
   midi.NoteOnEvent(tick=156600, channel=0, data=[36, 100]),
   midi.NoteOffEvent(tick=156700, channel=0, data=[36, 0]),
   midi.NoteOnEvent(tick=156800, channel=0, data=[36, 100]),
   midi.NoteOffEvent(tick=156900, channel=0, data=[36, 0]),
   midi.NoteOnEvent(tick=157000, channel=0, data=[36, 100]),
   midi.NoteOffEvent(tick=157100, channel=0, data=[36, 0]),
   midi.NoteOnEvent(tick=157200, channel=0, data=[36, 100]),
   midi.NoteOffEvent(tick=157300, channel=0, data=[36, 0]),
   midi.NoteOnEvent(tick=157400, channel=0, data=[0, 100]),
   midi.NoteOffEvent(tick=157500, channel=0, data=[0, 0]),
   midi.NoteOnEvent(tick=157600, channel=0, data=[15, 100]),
   midi.NoteOffEvent(tick=157700, channel=0, data=[15, 0]),
   midi.NoteOnEvent(tick=157800, channel=0, data=[15, 100]),
   midi.NoteOffEvent(tick=157900, channel=0, data=[15, 0]),
   midi.NoteOnEvent(tick=158000, channel=0, data=[4, 100]),
   midi.NoteOffEvent(tick=158100, channel=0, data=[4, 0]),
   midi.NoteOnEvent(tick=158200, channel=0, data=[13, 100]),
   midi.NoteOffEvent(tick=158300, channel=0, data=[13, 0]),
   midi.NoteOnEvent(tick=158400, channel=0, data=[3, 100]),
   midi.NoteOffEvent(tick=158500, channel=0, data=[3, 0]),
   midi.NoteOnEvent(tick=158600, channel=0, data=[18, 100]),
   midi.NoteOffEvent(tick=158700, channel=0, data=[18, 0]),
   midi.NoteOnEvent(tick=158800, channel=0, data=[36, 100]),
   midi.NoteOffEvent(tick=158900, channel=0, data=[36, 0]),
   midi.NoteOnEvent(tick=159000, channel=0, data=[19, 100]),
   midi.NoteOffEvent(tick=159100, channel=0, data=[19, 0]),
   midi.NoteOnEvent(tick=159200, channel=0, data=[7, 100]),
   midi.NoteOffEvent(tick=159300, channel=0, data=[7, 0]),
   midi.NoteOnEvent(tick=159400, channel=0, data=[4, 100]),
   midi.NoteOffEvent(tick=159500, channel=0, data=[4, 0]),
   midi.NoteOnEvent(tick=159600, channel=0, data=[36, 100]),
   midi.NoteOffEvent(tick=159700, channel=0, data=[36, 0]),
   midi.NoteOnEvent(tick=159800, channel=0, data=[18, 100]),
   midi.NoteOffEvent(tick=159900, channel=0, data=[18, 0]),
   midi.NoteOnEvent(tick=160000, channel=0, data=[15, 100]),
   midi.NoteOffEvent(tick=160100, channel=0, data=[15, 0]),
   midi.NoteOnEvent(tick=160200, channel=0, data=[4, 100]),
   midi.NoteOffEvent(tick=160300, channel=0, data=[4, 0]),
   midi.NoteOnEvent(tick=160400, channel=0, data=[2, 100]),
   midi.NoteOffEvent(tick=160500, channel=0, data=[2, 0]),
   midi.NoteOnEvent(tick=160600, channel=0, data=[8, 100]),
   midi.NoteOffEvent(tick=160700, channel=0, data=[8, 0]),
   midi.NoteOnEvent(tick=160800, channel=0, data=[5, 100]),
   midi.NoteOffEvent(tick=160900, channel=0, data=[5, 0]),
   midi.NoteOnEvent(tick=161000, channel=0, data=[8, 100]),
   midi.NoteOffEvent(tick=161100, channel=0, data=[8, 0]),
   midi.NoteOnEvent(tick=161200, channel=0, data=[4, 100]),
   midi.NoteOffEvent(tick=161300, channel=0, data=[4, 0]),
   midi.NoteOnEvent(tick=161400, channel=0, data=[3, 100]),
   midi.NoteOffEvent(tick=161500, channel=0, data=[3, 0]),
   midi.NoteOnEvent(tick=161600, channel=0, data=[36, 100]),
   midi.NoteOffEvent(tick=161700, channel=0, data=[36, 0]),
   midi.NoteOnEvent(tick=161800, channel=0, data=[21, 100]),
   midi.NoteOffEvent(tick=161900, channel=0, data=[21, 0]),
   midi.NoteOnEvent(tick=162000, channel=0, data=[0, 100]),
   midi.NoteOffEvent(tick=162100, channel=0, data=[0, 0]),
   midi.NoteOnEvent(tick=162200, channel=0, data=[11, 100]),
   midi.NoteOffEvent(tick=162300, channel=0, data=[11, 0]),
   midi.NoteOnEvent(tick=162400, channel=0, data=[20, 100]),
   midi.NoteOffEvent(tick=162500, channel=0, data=[20, 0]),
   midi.NoteOnEvent(tick=162600, channel=0, data=[4, 100]),
   midi.NoteOffEvent(tick=162700, channel=0, data=[4, 0]),
   midi.NoteOnEvent(tick=162800, channel=0, data=[36, 100]),
   midi.NoteOffEvent(tick=162900, channel=0, data=[36, 0]),
   midi.NoteOnEvent(tick=163000, channel=0, data=[19, 100]),
   midi.NoteOffEvent(tick=163100, channel=0, data=[19, 0]),
   midi.NoteOnEvent(tick=163200, channel=0, data=[14, 100]),
   midi.NoteOffEvent(tick=163300, channel=0, data=[14, 0]),
   midi.NoteOnEvent(tick=163400, channel=0, data=[36, 100]),
   midi.NoteOffEvent(tick=163500, channel=0, data=[36, 0]),
   midi.NoteOnEvent(tick=163600, channel=0, data=[19, 100]),
   midi.NoteOffEvent(tick=163700, channel=0, data=[19, 0]),
   midi.NoteOnEvent(tick=163800, channel=0, data=[7, 100]),
   midi.NoteOffEvent(tick=163900, channel=0, data=[7, 0]),
   midi.NoteOnEvent(tick=164000, channel=0, data=[4, 100]),
   midi.NoteOffEvent(tick=164100, channel=0, data=[4, 0]),
   midi.NoteOnEvent(tick=164200, channel=0, data=[36, 100]),
   midi.NoteOffEvent(tick=164300, channel=0, data=[36, 0]),
   midi.NoteOnEvent(tick=164400, channel=0, data=[4, 100]),
   midi.NoteOffEvent(tick=164500, channel=0, data=[4, 0]),
   midi.NoteOnEvent(tick=164600, channel=0, data=[23, 100]),
   midi.NoteOffEvent(tick=164700, channel=0, data=[23, 0]),
   midi.NoteOnEvent(tick=164800, channel=0, data=[8, 100]),
   midi.NoteOffEvent(tick=164900, channel=0, data=[8, 0]),
   midi.NoteOnEvent(tick=165000, channel=0, data=[18, 100]),
   midi.NoteOffEvent(tick=165100, channel=0, data=[18, 0]),
   midi.NoteOnEvent(tick=165200, channel=0, data=[19, 100]),
   midi.NoteOffEvent(tick=165300, channel=0, data=[19, 0]),
   midi.NoteOnEvent(tick=165400, channel=0, data=[8, 100]),
   midi.NoteOffEvent(tick=165500, channel=0, data=[8, 0]),
   midi.NoteOnEvent(tick=165600, channel=0, data=[13, 100]),
   midi.NoteOffEvent(tick=165700, channel=0, data=[13, 0]),
   midi.NoteOnEvent(tick=165800, channel=0, data=[6, 100]),
   midi.NoteOffEvent(tick=165900, channel=0, data=[6, 0]),
   midi.NoteOnEvent(tick=166000, channel=0, data=[36, 100]),
   midi.NoteOffEvent(tick=166100, channel=0, data=[36, 0]),
   midi.NoteOnEvent(tick=166200, channel=0, data=[21, 100]),
   midi.NoteOffEvent(tick=166300, channel=0, data=[21, 0]),
   midi.NoteOnEvent(tick=166400, channel=0, data=[0, 100]),
   midi.NoteOffEvent(tick=166500, channel=0, data=[0, 0]),
   midi.NoteOnEvent(tick=166600, channel=0, data=[11, 100]),
   midi.NoteOffEvent(tick=166700, channel=0, data=[11, 0]),
   midi.NoteOnEvent(tick=166800, channel=0, data=[20, 100]),
   midi.NoteOffEvent(tick=166900, channel=0, data=[20, 0]),
   midi.NoteOnEvent(tick=167000, channel=0, data=[4, 100]),
   midi.NoteOffEvent(tick=167100, channel=0, data=[4, 0]),
   midi.NoteOnEvent(tick=167200, channel=0, data=[37, 100]),
   midi.NoteOffEvent(tick=167300, channel=0, data=[37, 0]),
   midi.NoteOnEvent(tick=167400, channel=0, data=[56, 100]),
   midi.NoteOffEvent(tick=167500, channel=0, data=[56, 0]),
   midi.NoteOnEvent(tick=167600, channel=0, data=[36, 100]),
   midi.NoteOffEvent(tick=167700, channel=0, data=[36, 0]),
   midi.NoteOnEvent(tick=167800, channel=0, data=[56, 100]),
   midi.NoteOffEvent(tick=167900, channel=0, data=[56, 0]),
   midi.NoteOnEvent(tick=168000, channel=0, data=[36, 100]),
   midi.NoteOffEvent(tick=168100, channel=0, data=[36, 0]),
   midi.NoteOnEvent(tick=168200, channel=0, data=[36, 100]),
   midi.NoteOffEvent(tick=168300, channel=0, data=[36, 0]),
   midi.NoteOnEvent(tick=168400, channel=0, data=[36, 100]),
   midi.NoteOffEvent(tick=168500, channel=0, data=[36, 0]),
   midi.NoteOnEvent(tick=168600, channel=0, data=[36, 100]),
   midi.NoteOffEvent(tick=168700, channel=0, data=[36, 0]),
   midi.NoteOnEvent(tick=168800, channel=0, data=[70, 100]),
   midi.NoteOffEvent(tick=168900, channel=0, data=[70, 0]),
   midi.NoteOnEvent(tick=169000, channel=0, data=[69, 100]),
   midi.NoteOffEvent(tick=169100, channel=0, data=[69, 0]),
   midi.NoteOnEvent(tick=169200, channel=0, data=[36, 100]),
   midi.NoteOffEvent(tick=169300, channel=0, data=[36, 0]),
   midi.NoteOnEvent(tick=169400, channel=0, data=[36, 100]),
   midi.NoteOffEvent(tick=169500, channel=0, data=[36, 0]),
   midi.NoteOnEvent(tick=169600, channel=0, data=[36, 100]),
   midi.NoteOffEvent(tick=169700, channel=0, data=[36, 0]),
   midi.NoteOnEvent(tick=169800, channel=0, data=[36, 100]),
   midi.NoteOffEvent(tick=169900, channel=0, data=[36, 0]),
   midi.NoteOnEvent(tick=170000, channel=0, data=[36, 100]),
   midi.NoteOffEvent(tick=170100, channel=0, data=[36, 0]),
   midi.NoteOnEvent(tick=170200, channel=0, data=[36, 100]),
   midi.NoteOffEvent(tick=170300, channel=0, data=[36, 0]),
   midi.NoteOnEvent(tick=170400, channel=0, data=[36, 100]),
   midi.NoteOffEvent(tick=170500, channel=0, data=[36, 0]),
   midi.NoteOnEvent(tick=170600, channel=0, data=[36, 100]),
   midi.NoteOffEvent(tick=170700, channel=0, data=[36, 0]),
   midi.NoteOnEvent(tick=170800, channel=0, data=[3, 100]),
   midi.NoteOffEvent(tick=170900, channel=0, data=[3, 0]),
   midi.NoteOnEvent(tick=171000, channel=0, data=[8, 100]),
   midi.NoteOffEvent(tick=171100, channel=0, data=[8, 0]),
   midi.NoteOnEvent(tick=171200, channel=0, data=[21, 100]),
   midi.NoteOffEvent(tick=171300, channel=0, data=[21, 0]),
   midi.NoteOnEvent(tick=171400, channel=0, data=[8, 100]),
   midi.NoteOffEvent(tick=171500, channel=0, data=[8, 0]),
   midi.NoteOnEvent(tick=171600, channel=0, data=[3, 100]),
   midi.NoteOffEvent(tick=171700, channel=0, data=[3, 0]),
   midi.NoteOnEvent(tick=171800, channel=0, data=[4, 100]),
   midi.NoteOffEvent(tick=171900, channel=0, data=[4, 0]),
   midi.NoteOnEvent(tick=172000, channel=0, data=[18, 100]),
   midi.NoteOffEvent(tick=172100, channel=0, data=[18, 0]),
   midi.NoteOnEvent(tick=172200, channel=0, data=[36, 100]),
   midi.NoteOffEvent(tick=172300, channel=0, data=[36, 0]),
   midi.NoteOnEvent(tick=172400, channel=0, data=[19, 100]),
   midi.NoteOffEvent(tick=172500, channel=0, data=[19, 0]),
   midi.NoteOnEvent(tick=172600, channel=0, data=[7, 100]),
   midi.NoteOffEvent(tick=172700, channel=0, data=[7, 0]),
   midi.NoteOnEvent(tick=172800, channel=0, data=[4, 100]),
   midi.NoteOffEvent(tick=172900, channel=0, data=[4, 0]),
   midi.NoteOnEvent(tick=173000, channel=0, data=[36, 100]),
   midi.NoteOffEvent(tick=173100, channel=0, data=[36, 0]),
   midi.NoteOnEvent(tick=173200, channel=0, data=[21, 100]),
   midi.NoteOffEvent(tick=173300, channel=0, data=[21, 0]),
   midi.NoteOnEvent(tick=173400, channel=0, data=[0, 100]),
   midi.NoteOffEvent(tick=173500, channel=0, data=[0, 0]),
   midi.NoteOnEvent(tick=173600, channel=0, data=[11, 100]),
   midi.NoteOffEvent(tick=173700, channel=0, data=[11, 0]),
   midi.NoteOnEvent(tick=173800, channel=0, data=[20, 100]),
   midi.NoteOffEvent(tick=173900, channel=0, data=[20, 0]),
   midi.NoteOnEvent(tick=174000, channel=0, data=[4, 100]),
   midi.NoteOffEvent(tick=174100, channel=0, data=[4, 0]),
   midi.NoteOnEvent(tick=174200, channel=0, data=[36, 100]),
   midi.NoteOffEvent(tick=174300, channel=0, data=[36, 0]),
   midi.NoteOnEvent(tick=174400, channel=0, data=[14, 100]),
   midi.NoteOffEvent(tick=174500, channel=0, data=[14, 0]),
   midi.NoteOnEvent(tick=174600, channel=0, data=[5, 100]),
   midi.NoteOffEvent(tick=174700, channel=0, data=[5, 0]),
   midi.NoteOnEvent(tick=174800, channel=0, data=[36, 100]),
   midi.NoteOffEvent(tick=174900, channel=0, data=[36, 0]),
   midi.NoteOnEvent(tick=175000, channel=0, data=[0, 100]),
   midi.NoteOffEvent(tick=175100, channel=0, data=[0, 0]),
   midi.NoteOnEvent(tick=175200, channel=0, data=[36, 100]),
   midi.NoteOffEvent(tick=175300, channel=0, data=[36, 0]),
   midi.NoteOnEvent(tick=175400, channel=0, data=[21, 100]),
   midi.NoteOffEvent(tick=175500, channel=0, data=[21, 0]),
   midi.NoteOnEvent(tick=175600, channel=0, data=[0, 100]),
   midi.NoteOffEvent(tick=175700, channel=0, data=[0, 0]),
   midi.NoteOnEvent(tick=175800, channel=0, data=[17, 100]),
   midi.NoteOffEvent(tick=175900, channel=0, data=[17, 0]),
   midi.NoteOnEvent(tick=176000, channel=0, data=[8, 100]),
   midi.NoteOffEvent(tick=176100, channel=0, data=[8, 0]),
   midi.NoteOnEvent(tick=176200, channel=0, data=[0, 100]),
   midi.NoteOffEvent(tick=176300, channel=0, data=[0, 0]),
   midi.NoteOnEvent(tick=176400, channel=0, data=[1, 100]),
   midi.NoteOffEvent(tick=176500, channel=0, data=[1, 0]),
   midi.NoteOnEvent(tick=176600, channel=0, data=[11, 100]),
   midi.NoteOffEvent(tick=176700, channel=0, data=[11, 0]),
   midi.NoteOnEvent(tick=176800, channel=0, data=[4, 100]),
   midi.NoteOffEvent(tick=176900, channel=0, data=[4, 0]),
   midi.NoteOnEvent(tick=177000, channel=0, data=[36, 100]),
   midi.NoteOffEvent(tick=177100, channel=0, data=[36, 0]),
   midi.NoteOnEvent(tick=177200, channel=0, data=[1, 100]),
   midi.NoteOffEvent(tick=177300, channel=0, data=[1, 0]),
   midi.NoteOnEvent(tick=177400, channel=0, data=[24, 100]),
   midi.NoteOffEvent(tick=177500, channel=0, data=[24, 0]),
   midi.NoteOnEvent(tick=177600, channel=0, data=[36, 100]),
   midi.NoteOffEvent(tick=177700, channel=0, data=[36, 0]),
   midi.NoteOnEvent(tick=177800, channel=0, data=[19, 100]),
   midi.NoteOffEvent(tick=177900, channel=0, data=[19, 0]),
   midi.NoteOnEvent(tick=178000, channel=0, data=[7, 100]),
   midi.NoteOffEvent(tick=178100, channel=0, data=[7, 0]),
   midi.NoteOnEvent(tick=178200, channel=0, data=[4, 100]),
   midi.NoteOffEvent(tick=178300, channel=0, data=[4, 0]),
   midi.NoteOnEvent(tick=178400, channel=0, data=[36, 100]),
   midi.NoteOffEvent(tick=178500, channel=0, data=[36, 0]),
   midi.NoteOnEvent(tick=178600, channel=0, data=[18, 100]),
   midi.NoteOffEvent(tick=178700, channel=0, data=[18, 0]),
   midi.NoteOnEvent(tick=178800, channel=0, data=[15, 100]),
   midi.NoteOffEvent(tick=178900, channel=0, data=[15, 0]),
   midi.NoteOnEvent(tick=179000, channel=0, data=[4, 100]),
   midi.NoteOffEvent(tick=179100, channel=0, data=[4, 0]),
   midi.NoteOnEvent(tick=179200, channel=0, data=[2, 100]),
   midi.NoteOffEvent(tick=179300, channel=0, data=[2, 0]),
   midi.NoteOnEvent(tick=179400, channel=0, data=[8, 100]),
   midi.NoteOffEvent(tick=179500, channel=0, data=[8, 0]),
   midi.NoteOnEvent(tick=179600, channel=0, data=[5, 100]),
   midi.NoteOffEvent(tick=179700, channel=0, data=[5, 0]),
   midi.NoteOnEvent(tick=179800, channel=0, data=[8, 100]),
   midi.NoteOffEvent(tick=179900, channel=0, data=[8, 0]),
   midi.NoteOnEvent(tick=180000, channel=0, data=[4, 100]),
   midi.NoteOffEvent(tick=180100, channel=0, data=[4, 0]),
   midi.NoteOnEvent(tick=180200, channel=0, data=[3, 100]),
   midi.NoteOffEvent(tick=180300, channel=0, data=[3, 0]),
   midi.NoteOnEvent(tick=180400, channel=0, data=[36, 100]),
   midi.NoteOffEvent(tick=180500, channel=0, data=[36, 0]),
   midi.NoteOnEvent(tick=180600, channel=0, data=[21, 100]),
   midi.NoteOffEvent(tick=180700, channel=0, data=[21, 0]),
   midi.NoteOnEvent(tick=180800, channel=0, data=[0, 100]),
   midi.NoteOffEvent(tick=180900, channel=0, data=[0, 0]),
   midi.NoteOnEvent(tick=181000, channel=0, data=[11, 100]),
   midi.NoteOffEvent(tick=181100, channel=0, data=[11, 0]),
   midi.NoteOnEvent(tick=181200, channel=0, data=[20, 100]),
   midi.NoteOffEvent(tick=181300, channel=0, data=[20, 0]),
   midi.NoteOnEvent(tick=181400, channel=0, data=[4, 100]),
   midi.NoteOffEvent(tick=181500, channel=0, data=[4, 0]),
   midi.NoteOnEvent(tick=181600, channel=0, data=[37, 100]),
   midi.NoteOffEvent(tick=181700, channel=0, data=[37, 0]),
   midi.NoteOnEvent(tick=181800, channel=0, data=[56, 100]),
   midi.NoteOffEvent(tick=181900, channel=0, data=[56, 0]),
   midi.NoteOnEvent(tick=182000, channel=0, data=[36, 100]),
   midi.NoteOffEvent(tick=182100, channel=0, data=[36, 0]),
   midi.NoteOnEvent(tick=182200, channel=0, data=[56, 100]),
   midi.NoteOffEvent(tick=182300, channel=0, data=[56, 0]),
   midi.NoteOnEvent(tick=182400, channel=0, data=[36, 100]),
   midi.NoteOffEvent(tick=182500, channel=0, data=[36, 0]),
   midi.NoteOnEvent(tick=182600, channel=0, data=[36, 100]),
   midi.NoteOffEvent(tick=182700, channel=0, data=[36, 0]),
   midi.NoteOnEvent(tick=182800, channel=0, data=[36, 100]),
   midi.NoteOffEvent(tick=182900, channel=0, data=[36, 0]),
   midi.NoteOnEvent(tick=183000, channel=0, data=[36, 100]),
   midi.NoteOffEvent(tick=183100, channel=0, data=[36, 0]),
   midi.NoteOnEvent(tick=183200, channel=0, data=[71, 100]),
   midi.NoteOffEvent(tick=183300, channel=0, data=[71, 0]),
   midi.NoteOnEvent(tick=183400, channel=0, data=[69, 100]),
   midi.NoteOffEvent(tick=183500, channel=0, data=[69, 0]),
   midi.NoteOnEvent(tick=183600, channel=0, data=[36, 100]),
   midi.NoteOffEvent(tick=183700, channel=0, data=[36, 0]),
   midi.NoteOnEvent(tick=183800, channel=0, data=[36, 100]),
   midi.NoteOffEvent(tick=183900, channel=0, data=[36, 0]),
   midi.NoteOnEvent(tick=184000, channel=0, data=[36, 100]),
   midi.NoteOffEvent(tick=184100, channel=0, data=[36, 0]),
   midi.NoteOnEvent(tick=184200, channel=0, data=[36, 100]),
   midi.NoteOffEvent(tick=184300, channel=0, data=[36, 0]),
   midi.NoteOnEvent(tick=184400, channel=0, data=[36, 100]),
   midi.NoteOffEvent(tick=184500, channel=0, data=[36, 0]),
   midi.NoteOnEvent(tick=184600, channel=0, data=[36, 100]),
   midi.NoteOffEvent(tick=184700, channel=0, data=[36, 0]),
   midi.NoteOnEvent(tick=184800, channel=0, data=[36, 100]),
   midi.NoteOffEvent(tick=184900, channel=0, data=[36, 0]),
   midi.NoteOnEvent(tick=185000, channel=0, data=[36, 100]),
   midi.NoteOffEvent(tick=185100, channel=0, data=[36, 0]),
   midi.NoteOnEvent(tick=185200, channel=0, data=[3, 100]),
   midi.NoteOffEvent(tick=185300, channel=0, data=[3, 0]),
   midi.NoteOnEvent(tick=185400, channel=0, data=[8, 100]),
   midi.NoteOffEvent(tick=185500, channel=0, data=[8, 0]),
   midi.NoteOnEvent(tick=185600, channel=0, data=[21, 100]),
   midi.NoteOffEvent(tick=185700, channel=0, data=[21, 0]),
   midi.NoteOnEvent(tick=185800, channel=0, data=[8, 100]),
   midi.NoteOffEvent(tick=185900, channel=0, data=[8, 0]),
   midi.NoteOnEvent(tick=186000, channel=0, data=[3, 100]),
   midi.NoteOffEvent(tick=186100, channel=0, data=[3, 0]),
   midi.NoteOnEvent(tick=186200, channel=0, data=[4, 100]),
   midi.NoteOffEvent(tick=186300, channel=0, data=[4, 0]),
   midi.NoteOnEvent(tick=186400, channel=0, data=[18, 100]),
   midi.NoteOffEvent(tick=186500, channel=0, data=[18, 0]),
   midi.NoteOnEvent(tick=186600, channel=0, data=[36, 100]),
   midi.NoteOffEvent(tick=186700, channel=0, data=[36, 0]),
   midi.NoteOnEvent(tick=186800, channel=0, data=[19, 100]),
   midi.NoteOffEvent(tick=186900, channel=0, data=[19, 0]),
   midi.NoteOnEvent(tick=187000, channel=0, data=[7, 100]),
   midi.NoteOffEvent(tick=187100, channel=0, data=[7, 0]),
   midi.NoteOnEvent(tick=187200, channel=0, data=[4, 100]),
   midi.NoteOffEvent(tick=187300, channel=0, data=[4, 0]),
   midi.NoteOnEvent(tick=187400, channel=0, data=[36, 100]),
   midi.NoteOffEvent(tick=187500, channel=0, data=[36, 0]),
   midi.NoteOnEvent(tick=187600, channel=0, data=[21, 100]),
   midi.NoteOffEvent(tick=187700, channel=0, data=[21, 0]),
   midi.NoteOnEvent(tick=187800, channel=0, data=[0, 100]),
   midi.NoteOffEvent(tick=187900, channel=0, data=[0, 0]),
   midi.NoteOnEvent(tick=188000, channel=0, data=[11, 100]),
   midi.NoteOffEvent(tick=188100, channel=0, data=[11, 0]),
   midi.NoteOnEvent(tick=188200, channel=0, data=[20, 100]),
   midi.NoteOffEvent(tick=188300, channel=0, data=[20, 0]),
   midi.NoteOnEvent(tick=188400, channel=0, data=[4, 100]),
   midi.NoteOffEvent(tick=188500, channel=0, data=[4, 0]),
   midi.NoteOnEvent(tick=188600, channel=0, data=[36, 100]),
   midi.NoteOffEvent(tick=188700, channel=0, data=[36, 0]),
   midi.NoteOnEvent(tick=188800, channel=0, data=[14, 100]),
   midi.NoteOffEvent(tick=188900, channel=0, data=[14, 0]),
   midi.NoteOnEvent(tick=189000, channel=0, data=[5, 100]),
   midi.NoteOffEvent(tick=189100, channel=0, data=[5, 0]),
   midi.NoteOnEvent(tick=189200, channel=0, data=[36, 100]),
   midi.NoteOffEvent(tick=189300, channel=0, data=[36, 0]),
   midi.NoteOnEvent(tick=189400, channel=0, data=[0, 100]),
   midi.NoteOffEvent(tick=189500, channel=0, data=[0, 0]),
   midi.NoteOnEvent(tick=189600, channel=0, data=[36, 100]),
   midi.NoteOffEvent(tick=189700, channel=0, data=[36, 0]),
   midi.NoteOnEvent(tick=189800, channel=0, data=[21, 100]),
   midi.NoteOffEvent(tick=189900, channel=0, data=[21, 0]),
   midi.NoteOnEvent(tick=190000, channel=0, data=[0, 100]),
   midi.NoteOffEvent(tick=190100, channel=0, data=[0, 0]),
   midi.NoteOnEvent(tick=190200, channel=0, data=[17, 100]),
   midi.NoteOffEvent(tick=190300, channel=0, data=[17, 0]),
   midi.NoteOnEvent(tick=190400, channel=0, data=[8, 100]),
   midi.NoteOffEvent(tick=190500, channel=0, data=[8, 0]),
   midi.NoteOnEvent(tick=190600, channel=0, data=[0, 100]),
   midi.NoteOffEvent(tick=190700, channel=0, data=[0, 0]),
   midi.NoteOnEvent(tick=190800, channel=0, data=[1, 100]),
   midi.NoteOffEvent(tick=190900, channel=0, data=[1, 0]),
   midi.NoteOnEvent(tick=191000, channel=0, data=[11, 100]),
   midi.NoteOffEvent(tick=191100, channel=0, data=[11, 0]),
   midi.NoteOnEvent(tick=191200, channel=0, data=[4, 100]),
   midi.NoteOffEvent(tick=191300, channel=0, data=[4, 0]),
   midi.NoteOnEvent(tick=191400, channel=0, data=[36, 100]),
   midi.NoteOffEvent(tick=191500, channel=0, data=[36, 0]),
   midi.NoteOnEvent(tick=191600, channel=0, data=[1, 100]),
   midi.NoteOffEvent(tick=191700, channel=0, data=[1, 0]),
   midi.NoteOnEvent(tick=191800, channel=0, data=[24, 100]),
   midi.NoteOffEvent(tick=191900, channel=0, data=[24, 0]),
   midi.NoteOnEvent(tick=192000, channel=0, data=[36, 100]),
   midi.NoteOffEvent(tick=192100, channel=0, data=[36, 0]),
   midi.NoteOnEvent(tick=192200, channel=0, data=[19, 100]),
   midi.NoteOffEvent(tick=192300, channel=0, data=[19, 0]),
   midi.NoteOnEvent(tick=192400, channel=0, data=[7, 100]),
   midi.NoteOffEvent(tick=192500, channel=0, data=[7, 0]),
   midi.NoteOnEvent(tick=192600, channel=0, data=[4, 100]),
   midi.NoteOffEvent(tick=192700, channel=0, data=[4, 0]),
   midi.NoteOnEvent(tick=192800, channel=0, data=[36, 100]),
   midi.NoteOffEvent(tick=192900, channel=0, data=[36, 0]),
   midi.NoteOnEvent(tick=193000, channel=0, data=[18, 100]),
   midi.NoteOffEvent(tick=193100, channel=0, data=[18, 0]),
   midi.NoteOnEvent(tick=193200, channel=0, data=[15, 100]),
   midi.NoteOffEvent(tick=193300, channel=0, data=[15, 0]),
   midi.NoteOnEvent(tick=193400, channel=0, data=[4, 100]),
   midi.NoteOffEvent(tick=193500, channel=0, data=[4, 0]),
   midi.NoteOnEvent(tick=193600, channel=0, data=[2, 100]),
   midi.NoteOffEvent(tick=193700, channel=0, data=[2, 0]),
   midi.NoteOnEvent(tick=193800, channel=0, data=[8, 100]),
   midi.NoteOffEvent(tick=193900, channel=0, data=[8, 0]),
   midi.NoteOnEvent(tick=194000, channel=0, data=[5, 100]),
   midi.NoteOffEvent(tick=194100, channel=0, data=[5, 0]),
   midi.NoteOnEvent(tick=194200, channel=0, data=[8, 100]),
   midi.NoteOffEvent(tick=194300, channel=0, data=[8, 0]),
   midi.NoteOnEvent(tick=194400, channel=0, data=[4, 100]),
   midi.NoteOffEvent(tick=194500, channel=0, data=[4, 0]),
   midi.NoteOnEvent(tick=194600, channel=0, data=[3, 100]),
   midi.NoteOffEvent(tick=194700, channel=0, data=[3, 0]),
   midi.NoteOnEvent(tick=194800, channel=0, data=[36, 100]),
   midi.NoteOffEvent(tick=194900, channel=0, data=[36, 0]),
   midi.NoteOnEvent(tick=195000, channel=0, data=[21, 100]),
   midi.NoteOffEvent(tick=195100, channel=0, data=[21, 0]),
   midi.NoteOnEvent(tick=195200, channel=0, data=[0, 100]),
   midi.NoteOffEvent(tick=195300, channel=0, data=[0, 0]),
   midi.NoteOnEvent(tick=195400, channel=0, data=[11, 100]),
   midi.NoteOffEvent(tick=195500, channel=0, data=[11, 0]),
   midi.NoteOnEvent(tick=195600, channel=0, data=[20, 100]),
   midi.NoteOffEvent(tick=195700, channel=0, data=[20, 0]),
   midi.NoteOnEvent(tick=195800, channel=0, data=[4, 100]),
   midi.NoteOffEvent(tick=195900, channel=0, data=[4, 0]),
   midi.NoteOnEvent(tick=196000, channel=0, data=[36, 100]),
   midi.NoteOffEvent(tick=196100, channel=0, data=[36, 0]),
   midi.NoteOnEvent(tick=196200, channel=0, data=[0, 100]),
   midi.NoteOffEvent(tick=196300, channel=0, data=[0, 0]),
   midi.NoteOnEvent(tick=196400, channel=0, data=[13, 100]),
   midi.NoteOffEvent(tick=196500, channel=0, data=[13, 0]),
   midi.NoteOnEvent(tick=196600, channel=0, data=[3, 100]),
   midi.NoteOffEvent(tick=196700, channel=0, data=[3, 0]),
   midi.NoteOnEvent(tick=196800, channel=0, data=[36, 100]),
   midi.NoteOffEvent(tick=196900, channel=0, data=[36, 0]),
   midi.NoteOnEvent(tick=197000, channel=0, data=[56, 100]),
   midi.NoteOffEvent(tick=197100, channel=0, data=[56, 0]),
   midi.NoteOnEvent(tick=197200, channel=0, data=[36, 100]),
   midi.NoteOffEvent(tick=197300, channel=0, data=[36, 0]),
   midi.NoteOnEvent(tick=197400, channel=0, data=[36, 100]),
   midi.NoteOffEvent(tick=197500, channel=0, data=[36, 0]),
   midi.NoteOnEvent(tick=197600, channel=0, data=[36, 100]),
   midi.NoteOffEvent(tick=197700, channel=0, data=[36, 0]),
   midi.NoteOnEvent(tick=197800, channel=0, data=[36, 100]),
   midi.NoteOffEvent(tick=197900, channel=0, data=[36, 0]),
   midi.NoteOnEvent(tick=198000, channel=0, data=[36, 100]),
   midi.NoteOffEvent(tick=198100, channel=0, data=[36, 0]),
   midi.NoteOnEvent(tick=198200, channel=0, data=[36, 100]),
   midi.NoteOffEvent(tick=198300, channel=0, data=[36, 0]),
   midi.NoteOnEvent(tick=198400, channel=0, data=[36, 100]),
   midi.NoteOffEvent(tick=198500, channel=0, data=[36, 0]),
   midi.NoteOnEvent(tick=198600, channel=0, data=[36, 100]),
   midi.NoteOffEvent(tick=198700, channel=0, data=[36, 0]),
   midi.NoteOnEvent(tick=198800, channel=0, data=[36, 100]),
   midi.NoteOffEvent(tick=198900, channel=0, data=[36, 0]),
   midi.NoteOnEvent(tick=199000, channel=0, data=[36, 100]),
   midi.NoteOffEvent(tick=199100, channel=0, data=[36, 0]),
   midi.NoteOnEvent(tick=199200, channel=0, data=[36, 100]),
   midi.NoteOffEvent(tick=199300, channel=0, data=[36, 0]),
   midi.NoteOnEvent(tick=199400, channel=0, data=[36, 100]),
   midi.NoteOffEvent(tick=199500, channel=0, data=[36, 0]),
   midi.NoteOnEvent(tick=199600, channel=0, data=[36, 100]),
   midi.NoteOffEvent(tick=199700, channel=0, data=[36, 0]),
   midi.NoteOnEvent(tick=199800, channel=0, data=[36, 100]),
   midi.NoteOffEvent(tick=199900, channel=0, data=[36, 0]),
   midi.NoteOnEvent(tick=200000, channel=0, data=[19, 100]),
   midi.NoteOffEvent(tick=200100, channel=0, data=[19, 0]),
   midi.NoteOnEvent(tick=200200, channel=0, data=[7, 100]),
   midi.NoteOffEvent(tick=200300, channel=0, data=[7, 0]),
   midi.NoteOnEvent(tick=200400, channel=0, data=[4, 100]),
   midi.NoteOffEvent(tick=200500, channel=0, data=[4, 0]),
   midi.NoteOnEvent(tick=200600, channel=0, data=[13, 100]),
   midi.NoteOffEvent(tick=200700, channel=0, data=[13, 0]),
   midi.NoteOnEvent(tick=200800, channel=0, data=[36, 100]),
   midi.NoteOffEvent(tick=200900, channel=0, data=[36, 0]),
   midi.NoteOnEvent(tick=201000, channel=0, data=[0, 100]),
   midi.NoteOffEvent(tick=201100, channel=0, data=[0, 0]),
   midi.NoteOnEvent(tick=201200, channel=0, data=[18, 100]),
   midi.NoteOffEvent(tick=201300, channel=0, data=[18, 0]),
   midi.NoteOnEvent(tick=201400, channel=0, data=[18, 100]),
   midi.NoteOffEvent(tick=201500, channel=0, data=[18, 0]),
   midi.NoteOnEvent(tick=201600, channel=0, data=[8, 100]),
   midi.NoteOffEvent(tick=201700, channel=0, data=[8, 0]),
   midi.NoteOnEvent(tick=201800, channel=0, data=[6, 100]),
   midi.NoteOffEvent(tick=201900, channel=0, data=[6, 0]),
   midi.NoteOnEvent(tick=202000, channel=0, data=[13, 100]),
   midi.NoteOffEvent(tick=202100, channel=0, data=[13, 0]),
   midi.NoteOnEvent(tick=202200, channel=0, data=[18, 100]),
   midi.NoteOffEvent(tick=202300, channel=0, data=[18, 0]),
   midi.NoteOnEvent(tick=202400, channel=0, data=[36, 100]),
   midi.NoteOffEvent(tick=202500, channel=0, data=[36, 0]),
   midi.NoteOnEvent(tick=202600, channel=0, data=[19, 100]),
   midi.NoteOffEvent(tick=202700, channel=0, data=[19, 0]),
   midi.NoteOnEvent(tick=202800, channel=0, data=[7, 100]),
   midi.NoteOffEvent(tick=202900, channel=0, data=[7, 0]),
   midi.NoteOnEvent(tick=203000, channel=0, data=[4, 100]),
   midi.NoteOffEvent(tick=203100, channel=0, data=[4, 0]),
   midi.NoteOnEvent(tick=203200, channel=0, data=[36, 100]),
   midi.NoteOffEvent(tick=203300, channel=0, data=[36, 0]),
   midi.NoteOnEvent(tick=203400, channel=0, data=[17, 100]),
   midi.NoteOffEvent(tick=203500, channel=0, data=[17, 0]),
   midi.NoteOnEvent(tick=203600, channel=0, data=[4, 100]),
   midi.NoteOffEvent(tick=203700, channel=0, data=[4, 0]),
   midi.NoteOnEvent(tick=203800, channel=0, data=[12, 100]),
   midi.NoteOffEvent(tick=203900, channel=0, data=[12, 0]),
   midi.NoteOnEvent(tick=204000, channel=0, data=[0, 100]),
   midi.NoteOffEvent(tick=204100, channel=0, data=[0, 0]),
   midi.NoteOnEvent(tick=204200, channel=0, data=[8, 100]),
   midi.NoteOffEvent(tick=204300, channel=0, data=[8, 0]),
   midi.NoteOnEvent(tick=204400, channel=0, data=[13, 100]),
   midi.NoteOffEvent(tick=204500, channel=0, data=[13, 0]),
   midi.NoteOnEvent(tick=204600, channel=0, data=[3, 100]),
   midi.NoteOffEvent(tick=204700, channel=0, data=[3, 0]),
   midi.NoteOnEvent(tick=204800, channel=0, data=[4, 100]),
   midi.NoteOffEvent(tick=204900, channel=0, data=[4, 0]),
   midi.NoteOnEvent(tick=205000, channel=0, data=[17, 100]),
   midi.NoteOffEvent(tick=205100, channel=0, data=[17, 0]),
   midi.NoteOnEvent(tick=205200, channel=0, data=[36, 100]),
   midi.NoteOffEvent(tick=205300, channel=0, data=[36, 0]),
   midi.NoteOnEvent(tick=205400, channel=0, data=[49, 100]),
   midi.NoteOffEvent(tick=205500, channel=0, data=[49, 0]),
   midi.NoteOnEvent(tick=205600, channel=0, data=[12, 100]),
   midi.NoteOffEvent(tick=205700, channel=0, data=[12, 0]),
   midi.NoteOnEvent(tick=205800, channel=0, data=[14, 100]),
   midi.NoteOffEvent(tick=205900, channel=0, data=[14, 0]),
   midi.NoteOnEvent(tick=206000, channel=0, data=[3, 100]),
   midi.NoteOffEvent(tick=206100, channel=0, data=[3, 0]),
   midi.NoteOnEvent(tick=206200, channel=0, data=[20, 100]),
   midi.NoteOffEvent(tick=206300, channel=0, data=[20, 0]),
   midi.NoteOnEvent(tick=206400, channel=0, data=[11, 100]),
   midi.NoteOffEvent(tick=206500, channel=0, data=[11, 0]),
   midi.NoteOnEvent(tick=206600, channel=0, data=[20, 100]),
   midi.NoteOffEvent(tick=206700, channel=0, data=[20, 0]),
   midi.NoteOnEvent(tick=206800, channel=0, data=[18, 100]),
   midi.NoteOffEvent(tick=206900, channel=0, data=[18, 0]),
   midi.NoteOnEvent(tick=207000, channel=0, data=[50, 100]),
   midi.NoteOffEvent(tick=207100, channel=0, data=[50, 0]),
   midi.NoteOnEvent(tick=207200, channel=0, data=[36, 100]),
   midi.NoteOffEvent(tick=207300, channel=0, data=[36, 0]),
   midi.NoteOnEvent(tick=207400, channel=0, data=[19, 100]),
   midi.NoteOffEvent(tick=207500, channel=0, data=[19, 0]),
   midi.NoteOnEvent(tick=207600, channel=0, data=[14, 100]),
   midi.NoteOffEvent(tick=207700, channel=0, data=[14, 0]),
   midi.NoteOnEvent(tick=207800, channel=0, data=[36, 100]),
   midi.NoteOffEvent(tick=207900, channel=0, data=[36, 0]),
   midi.NoteOnEvent(tick=208000, channel=0, data=[19, 100]),
   midi.NoteOffEvent(tick=208100, channel=0, data=[19, 0]),
   midi.NoteOnEvent(tick=208200, channel=0, data=[7, 100]),
   midi.NoteOffEvent(tick=208300, channel=0, data=[7, 0]),
   midi.NoteOnEvent(tick=208400, channel=0, data=[4, 100]),
   midi.NoteOffEvent(tick=208500, channel=0, data=[4, 0]),
   midi.NoteOnEvent(tick=208600, channel=0, data=[36, 100]),
   midi.NoteOffEvent(tick=208700, channel=0, data=[36, 0]),
   midi.NoteOnEvent(tick=208800, channel=0, data=[21, 100]),
   midi.NoteOffEvent(tick=208900, channel=0, data=[21, 0]),
   midi.NoteOnEvent(tick=209000, channel=0, data=[0, 100]),
   midi.NoteOffEvent(tick=209100, channel=0, data=[0, 0]),
   midi.NoteOnEvent(tick=209200, channel=0, data=[17, 100]),
   midi.NoteOffEvent(tick=209300, channel=0, data=[17, 0]),
   midi.NoteOnEvent(tick=209400, channel=0, data=[8, 100]),
   midi.NoteOffEvent(tick=209500, channel=0, data=[8, 0]),
   midi.NoteOnEvent(tick=209600, channel=0, data=[0, 100]),
   midi.NoteOffEvent(tick=209700, channel=0, data=[0, 0]),
   midi.NoteOnEvent(tick=209800, channel=0, data=[1, 100]),
   midi.NoteOffEvent(tick=209900, channel=0, data=[1, 0]),
   midi.NoteOnEvent(tick=210000, channel=0, data=[11, 100]),
   midi.NoteOffEvent(tick=210100, channel=0, data=[11, 0]),
   midi.NoteOnEvent(tick=210200, channel=0, data=[4, 100]),
   midi.NoteOffEvent(tick=210300, channel=0, data=[4, 0]),
   midi.NoteOnEvent(tick=210400, channel=0, data=[37, 100]),
   midi.NoteOffEvent(tick=210500, channel=0, data=[37, 0]),
   midi.NoteOnEvent(tick=210600, channel=0, data=[56, 100]),
   midi.NoteOffEvent(tick=210700, channel=0, data=[56, 0]),
   midi.NoteOnEvent(tick=210800, channel=0, data=[56, 100]),
   midi.NoteOffEvent(tick=210900, channel=0, data=[56, 0]),
   midi.NoteOnEvent(tick=211000, channel=0, data=[36, 100]),
   midi.NoteOffEvent(tick=211100, channel=0, data=[36, 0]),
   midi.NoteOnEvent(tick=211200, channel=0, data=[36, 100]),
   midi.NoteOffEvent(tick=211300, channel=0, data=[36, 0]),
   midi.NoteOnEvent(tick=211400, channel=0, data=[36, 100]),
   midi.NoteOffEvent(tick=211500, channel=0, data=[36, 0]),
   midi.NoteOnEvent(tick=211600, channel=0, data=[36, 100]),
   midi.NoteOffEvent(tick=211700, channel=0, data=[36, 0]),
   midi.NoteOnEvent(tick=211800, channel=0, data=[55, 100]),
   midi.NoteOffEvent(tick=211900, channel=0, data=[55, 0]),
   midi.NoteOnEvent(tick=212000, channel=0, data=[55, 100]),
   midi.NoteOffEvent(tick=212100, channel=0, data=[55, 0]),
   midi.NoteOnEvent(tick=212200, channel=0, data=[36, 100]),
   midi.NoteOffEvent(tick=212300, channel=0, data=[36, 0]),
   midi.NoteOnEvent(tick=212400, channel=0, data=[36, 100]),
   midi.NoteOffEvent(tick=212500, channel=0, data=[36, 0]),
   midi.NoteOnEvent(tick=212600, channel=0, data=[36, 100]),
   midi.NoteOffEvent(tick=212700, channel=0, data=[36, 0]),
   midi.NoteOnEvent(tick=212800, channel=0, data=[36, 100]),
   midi.NoteOffEvent(tick=212900, channel=0, data=[36, 0]),
   midi.NoteOnEvent(tick=213000, channel=0, data=[36, 100]),
   midi.NoteOffEvent(tick=213100, channel=0, data=[36, 0]),
   midi.NoteOnEvent(tick=213200, channel=0, data=[36, 100]),
   midi.NoteOffEvent(tick=213300, channel=0, data=[36, 0]),
   midi.NoteOnEvent(tick=213400, channel=0, data=[36, 100]),
   midi.NoteOffEvent(tick=213500, channel=0, data=[36, 0]),
   midi.NoteOnEvent(tick=213600, channel=0, data=[36, 100]),
   midi.NoteOffEvent(tick=213700, channel=0, data=[36, 0]),
   midi.NoteOnEvent(tick=213800, channel=0, data=[8, 100]),
   midi.NoteOffEvent(tick=213900, channel=0, data=[8, 0]),
   midi.NoteOnEvent(tick=214000, channel=0, data=[13, 100]),
   midi.NoteOffEvent(tick=214100, channel=0, data=[13, 0]),
   midi.NoteOnEvent(tick=214200, channel=0, data=[2, 100]),
   midi.NoteOffEvent(tick=214300, channel=0, data=[2, 0]),
   midi.NoteOnEvent(tick=214400, channel=0, data=[17, 100]),
   midi.NoteOffEvent(tick=214500, channel=0, data=[17, 0]),
   midi.NoteOnEvent(tick=214600, channel=0, data=[4, 100]),
   midi.NoteOffEvent(tick=214700, channel=0, data=[4, 0]),
   midi.NoteOnEvent(tick=214800, channel=0, data=[0, 100]),
   midi.NoteOffEvent(tick=214900, channel=0, data=[0, 0]),
   midi.NoteOnEvent(tick=215000, channel=0, data=[18, 100]),
   midi.NoteOffEvent(tick=215100, channel=0, data=[18, 0]),
   midi.NoteOnEvent(tick=215200, channel=0, data=[4, 100]),
   midi.NoteOffEvent(tick=215300, channel=0, data=[4, 0]),
   midi.NoteOnEvent(tick=215400, channel=0, data=[18, 100]),
   midi.NoteOffEvent(tick=215500, channel=0, data=[18, 0]),
   midi.NoteOnEvent(tick=215600, channel=0, data=[36, 100]),
   midi.NoteOffEvent(tick=215700, channel=0, data=[36, 0]),
   midi.NoteOnEvent(tick=215800, channel=0, data=[19, 100]),
   midi.NoteOffEvent(tick=215900, channel=0, data=[19, 0]),
   midi.NoteOnEvent(tick=216000, channel=0, data=[7, 100]),
   midi.NoteOffEvent(tick=216100, channel=0, data=[7, 0]),
   midi.NoteOnEvent(tick=216200, channel=0, data=[4, 100]),
   midi.NoteOffEvent(tick=216300, channel=0, data=[4, 0]),
   midi.NoteOnEvent(tick=216400, channel=0, data=[36, 100]),
   midi.NoteOffEvent(tick=216500, channel=0, data=[36, 0]),
   midi.NoteOnEvent(tick=216600, channel=0, data=[21, 100]),
   midi.NoteOffEvent(tick=216700, channel=0, data=[21, 0]),
   midi.NoteOnEvent(tick=216800, channel=0, data=[0, 100]),
   midi.NoteOffEvent(tick=216900, channel=0, data=[0, 0]),
   midi.NoteOnEvent(tick=217000, channel=0, data=[11, 100]),
   midi.NoteOffEvent(tick=217100, channel=0, data=[11, 0]),
   midi.NoteOnEvent(tick=217200, channel=0, data=[20, 100]),
   midi.NoteOffEvent(tick=217300, channel=0, data=[20, 0]),
   midi.NoteOnEvent(tick=217400, channel=0, data=[4, 100]),
   midi.NoteOffEvent(tick=217500, channel=0, data=[4, 0]),
   midi.NoteOnEvent(tick=217600, channel=0, data=[36, 100]),
   midi.NoteOffEvent(tick=217700, channel=0, data=[36, 0]),
   midi.NoteOnEvent(tick=217800, channel=0, data=[14, 100]),
   midi.NoteOffEvent(tick=217900, channel=0, data=[14, 0]),
   midi.NoteOnEvent(tick=218000, channel=0, data=[5, 100]),
   midi.NoteOffEvent(tick=218100, channel=0, data=[5, 0]),
   midi.NoteOnEvent(tick=218200, channel=0, data=[36, 100]),
   midi.NoteOffEvent(tick=218300, channel=0, data=[36, 0]),
   midi.NoteOnEvent(tick=218400, channel=0, data=[0, 100]),
   midi.NoteOffEvent(tick=218500, channel=0, data=[0, 0]),
   midi.NoteOnEvent(tick=218600, channel=0, data=[36, 100]),
   midi.NoteOffEvent(tick=218700, channel=0, data=[36, 0]),
   midi.NoteOnEvent(tick=218800, channel=0, data=[21, 100]),
   midi.NoteOffEvent(tick=218900, channel=0, data=[21, 0]),
   midi.NoteOnEvent(tick=219000, channel=0, data=[0, 100]),
   midi.NoteOffEvent(tick=219100, channel=0, data=[0, 0]),
   midi.NoteOnEvent(tick=219200, channel=0, data=[17, 100]),
   midi.NoteOffEvent(tick=219300, channel=0, data=[17, 0]),
   midi.NoteOnEvent(tick=219400, channel=0, data=[8, 100]),
   midi.NoteOffEvent(tick=219500, channel=0, data=[8, 0]),
   midi.NoteOnEvent(tick=219600, channel=0, data=[0, 100]),
   midi.NoteOffEvent(tick=219700, channel=0, data=[0, 0]),
   midi.NoteOnEvent(tick=219800, channel=0, data=[1, 100]),
   midi.NoteOffEvent(tick=219900, channel=0, data=[1, 0]),
   midi.NoteOnEvent(tick=220000, channel=0, data=[11, 100]),
   midi.NoteOffEvent(tick=220100, channel=0, data=[11, 0]),
   midi.NoteOnEvent(tick=220200, channel=0, data=[4, 100]),
   midi.NoteOffEvent(tick=220300, channel=0, data=[4, 0]),
   midi.NoteOnEvent(tick=220400, channel=0, data=[38, 100]),
   midi.NoteOffEvent(tick=220500, channel=0, data=[38, 0]),
   midi.NoteOnEvent(tick=220600, channel=0, data=[36, 100]),
   midi.NoteOffEvent(tick=220700, channel=0, data=[36, 0]),
   midi.NoteOnEvent(tick=220800, channel=0, data=[0, 100]),
   midi.NoteOffEvent(tick=220900, channel=0, data=[0, 0]),
   midi.NoteOnEvent(tick=221000, channel=0, data=[18, 100]),
   midi.NoteOffEvent(tick=221100, channel=0, data=[18, 0]),
   midi.NoteOnEvent(tick=221200, channel=0, data=[18, 100]),
   midi.NoteOffEvent(tick=221300, channel=0, data=[18, 0]),
   midi.NoteOnEvent(tick=221400, channel=0, data=[8, 100]),
   midi.NoteOffEvent(tick=221500, channel=0, data=[8, 0]),
   midi.NoteOnEvent(tick=221600, channel=0, data=[6, 100]),
   midi.NoteOffEvent(tick=221700, channel=0, data=[6, 0]),
   midi.NoteOnEvent(tick=221800, channel=0, data=[13, 100]),
   midi.NoteOffEvent(tick=221900, channel=0, data=[13, 0]),
   midi.NoteOnEvent(tick=222000, channel=0, data=[0, 100]),
   midi.NoteOffEvent(tick=222100, channel=0, data=[0, 0]),
   midi.NoteOnEvent(tick=222200, channel=0, data=[1, 100]),
   midi.NoteOffEvent(tick=222300, channel=0, data=[1, 0]),
   midi.NoteOnEvent(tick=222400, channel=0, data=[11, 100]),
   midi.NoteOffEvent(tick=222500, channel=0, data=[11, 0]),
   midi.NoteOnEvent(tick=222600, channel=0, data=[4, 100]),
   midi.NoteOffEvent(tick=222700, channel=0, data=[4, 0]),
   midi.NoteOnEvent(tick=222800, channel=0, data=[36, 100]),
   midi.NoteOffEvent(tick=222900, channel=0, data=[36, 0]),
   midi.NoteOnEvent(tick=223000, channel=0, data=[15, 100]),
   midi.NoteOffEvent(tick=223100, channel=0, data=[15, 0]),
   midi.NoteOnEvent(tick=223200, channel=0, data=[17, 100]),
   midi.NoteOffEvent(tick=223300, channel=0, data=[17, 0]),
   midi.NoteOnEvent(tick=223400, channel=0, data=[14, 100]),
   midi.NoteOffEvent(tick=223500, channel=0, data=[14, 0]),
   midi.NoteOnEvent(tick=223600, channel=0, data=[15, 100]),
   midi.NoteOffEvent(tick=223700, channel=0, data=[15, 0]),
   midi.NoteOnEvent(tick=223800, channel=0, data=[4, 100]),
   midi.NoteOffEvent(tick=223900, channel=0, data=[4, 0]),
   midi.NoteOnEvent(tick=224000, channel=0, data=[17, 100]),
   midi.NoteOffEvent(tick=224100, channel=0, data=[17, 0]),
   midi.NoteOnEvent(tick=224200, channel=0, data=[19, 100]),
   midi.NoteOffEvent(tick=224300, channel=0, data=[19, 0]),
   midi.NoteOnEvent(tick=224400, channel=0, data=[24, 100]),
   midi.NoteOffEvent(tick=224500, channel=0, data=[24, 0]),
   midi.NoteOnEvent(tick=224600, channel=0, data=[38, 100]),
   midi.NoteOffEvent(tick=224700, channel=0, data=[38, 0]),
   midi.NoteOnEvent(tick=224800, channel=0, data=[36, 100]),
   midi.NoteOffEvent(tick=224900, channel=0, data=[36, 0]),
   midi.NoteOnEvent(tick=225000, channel=0, data=[14, 100]),
   midi.NoteOffEvent(tick=225100, channel=0, data=[14, 0]),
   midi.NoteOnEvent(tick=225200, channel=0, data=[17, 100]),
   midi.NoteOffEvent(tick=225300, channel=0, data=[17, 0]),
   midi.NoteOnEvent(tick=225400, channel=0, data=[36, 100]),
   midi.NoteOffEvent(tick=225500, channel=0, data=[36, 0]),
   midi.NoteOnEvent(tick=225600, channel=0, data=[56, 100]),
   midi.NoteOffEvent(tick=225700, channel=0, data=[56, 0]),
   midi.NoteOnEvent(tick=225800, channel=0, data=[36, 100]),
   midi.NoteOffEvent(tick=225900, channel=0, data=[36, 0]),
   midi.NoteOnEvent(tick=226000, channel=0, data=[36, 100]),
   midi.NoteOffEvent(tick=226100, channel=0, data=[36, 0]),
   midi.NoteOnEvent(tick=226200, channel=0, data=[36, 100]),
   midi.NoteOffEvent(tick=226300, channel=0, data=[36, 0]),
   midi.NoteOnEvent(tick=226400, channel=0, data=[36, 100]),
   midi.NoteOffEvent(tick=226500, channel=0, data=[36, 0]),
   midi.NoteOnEvent(tick=226600, channel=0, data=[36, 100]),
   midi.NoteOffEvent(tick=226700, channel=0, data=[36, 0]),
   midi.NoteOnEvent(tick=226800, channel=0, data=[36, 100]),
   midi.NoteOffEvent(tick=226900, channel=0, data=[36, 0]),
   midi.NoteOnEvent(tick=227000, channel=0, data=[36, 100]),
   midi.NoteOffEvent(tick=227100, channel=0, data=[36, 0]),
   midi.NoteOnEvent(tick=227200, channel=0, data=[36, 100]),
   midi.NoteOffEvent(tick=227300, channel=0, data=[36, 0]),
   midi.NoteOnEvent(tick=227400, channel=0, data=[36, 100]),
   midi.NoteOffEvent(tick=227500, channel=0, data=[36, 0]),
   midi.NoteOnEvent(tick=227600, channel=0, data=[36, 100]),
   midi.NoteOffEvent(tick=227700, channel=0, data=[36, 0]),
   midi.NoteOnEvent(tick=227800, channel=0, data=[36, 100]),
   midi.NoteOffEvent(tick=227900, channel=0, data=[36, 0]),
   midi.NoteOnEvent(tick=228000, channel=0, data=[36, 100]),
   midi.NoteOffEvent(tick=228100, channel=0, data=[36, 0]),
   midi.NoteOnEvent(tick=228200, channel=0, data=[36, 100]),
   midi.NoteOffEvent(tick=228300, channel=0, data=[36, 0]),
   midi.NoteOnEvent(tick=228400, channel=0, data=[36, 100]),
   midi.NoteOffEvent(tick=228500, channel=0, data=[36, 0]),
   midi.NoteOnEvent(tick=228600, channel=0, data=[0, 100]),
   midi.NoteOffEvent(tick=228700, channel=0, data=[0, 0]),
   midi.NoteOnEvent(tick=228800, channel=0, data=[17, 100]),
   midi.NoteOffEvent(tick=228900, channel=0, data=[17, 0]),
   midi.NoteOnEvent(tick=229000, channel=0, data=[17, 100]),
   midi.NoteOffEvent(tick=229100, channel=0, data=[17, 0]),
   midi.NoteOnEvent(tick=229200, channel=0, data=[0, 100]),
   midi.NoteOffEvent(tick=229300, channel=0, data=[0, 0]),
   midi.NoteOnEvent(tick=229400, channel=0, data=[24, 100]),
   midi.NoteOffEvent(tick=229500, channel=0, data=[24, 0]),
   midi.NoteOnEvent(tick=229600, channel=0, data=[36, 100]),
   midi.NoteOffEvent(tick=229700, channel=0, data=[36, 0]),
   midi.NoteOnEvent(tick=229800, channel=0, data=[4, 100]),
   midi.NoteOffEvent(tick=229900, channel=0, data=[4, 0]),
   midi.NoteOnEvent(tick=230000, channel=0, data=[11, 100]),
   midi.NoteOffEvent(tick=230100, channel=0, data=[11, 0]),
   midi.NoteOnEvent(tick=230200, channel=0, data=[4, 100]),
   midi.NoteOffEvent(tick=230300, channel=0, data=[4, 0]),
   midi.NoteOnEvent(tick=230400, channel=0, data=[12, 100]),
   midi.NoteOffEvent(tick=230500, channel=0, data=[12, 0]),
   midi.NoteOnEvent(tick=230600, channel=0, data=[4, 100]),
   midi.NoteOffEvent(tick=230700, channel=0, data=[4, 0]),
   midi.NoteOnEvent(tick=230800, channel=0, data=[13, 100]),
   midi.NoteOffEvent(tick=230900, channel=0, data=[13, 0]),
   midi.NoteOnEvent(tick=231000, channel=0, data=[19, 100]),
   midi.NoteOffEvent(tick=231100, channel=0, data=[19, 0]),
   midi.NoteOnEvent(tick=231200, channel=0, data=[36, 100]),
   midi.NoteOffEvent(tick=231300, channel=0, data=[36, 0]),
   midi.NoteOnEvent(tick=231400, channel=0, data=[1, 100]),
   midi.NoteOffEvent(tick=231500, channel=0, data=[1, 0]),
   midi.NoteOnEvent(tick=231600, channel=0, data=[24, 100]),
   midi.NoteOffEvent(tick=231700, channel=0, data=[24, 0]),
   midi.NoteOnEvent(tick=231800, channel=0, data=[36, 100]),
   midi.NoteOffEvent(tick=231900, channel=0, data=[36, 0]),
   midi.NoteOnEvent(tick=232000, channel=0, data=[27, 100]),
   midi.NoteOffEvent(tick=232100, channel=0, data=[27, 0]),
   midi.NoteOnEvent(tick=232200, channel=0, data=[37, 100]),
   midi.NoteOffEvent(tick=232300, channel=0, data=[37, 0]),
   midi.NoteOnEvent(tick=232400, channel=0, data=[56, 100]),
   midi.NoteOffEvent(tick=232500, channel=0, data=[56, 0]),
   midi.NoteOnEvent(tick=232600, channel=0, data=[56, 100]),
   midi.NoteOffEvent(tick=232700, channel=0, data=[56, 0]),
   midi.NoteOnEvent(tick=232800, channel=0, data=[36, 100]),
   midi.NoteOffEvent(tick=232900, channel=0, data=[36, 0]),
   midi.NoteOnEvent(tick=233000, channel=0, data=[36, 100]),
   midi.NoteOffEvent(tick=233100, channel=0, data=[36, 0]),
   midi.NoteOnEvent(tick=233200, channel=0, data=[36, 100]),
   midi.NoteOffEvent(tick=233300, channel=0, data=[36, 0]),
   midi.NoteOnEvent(tick=233400, channel=0, data=[36, 100]),
   midi.NoteOffEvent(tick=233500, channel=0, data=[36, 0]),
   midi.NoteOnEvent(tick=233600, channel=0, data=[45, 100]),
   midi.NoteOffEvent(tick=233700, channel=0, data=[45, 0]),
   midi.NoteOnEvent(tick=233800, channel=0, data=[45, 100]),
   midi.NoteOffEvent(tick=233900, channel=0, data=[45, 0]),
   midi.NoteOnEvent(tick=234000, channel=0, data=[36, 100]),
   midi.NoteOffEvent(tick=234100, channel=0, data=[36, 0]),
   midi.NoteOnEvent(tick=234200, channel=0, data=[36, 100]),
   midi.NoteOffEvent(tick=234300, channel=0, data=[36, 0]),
   midi.NoteOnEvent(tick=234400, channel=0, data=[36, 100]),
   midi.NoteOffEvent(tick=234500, channel=0, data=[36, 0]),
   midi.NoteOnEvent(tick=234600, channel=0, data=[36, 100]),
   midi.NoteOffEvent(tick=234700, channel=0, data=[36, 0]),
   midi.NoteOnEvent(tick=234800, channel=0, data=[36, 100]),
   midi.NoteOffEvent(tick=234900, channel=0, data=[36, 0]),
   midi.NoteOnEvent(tick=235000, channel=0, data=[36, 100]),
   midi.NoteOffEvent(tick=235100, channel=0, data=[36, 0]),
   midi.NoteOnEvent(tick=235200, channel=0, data=[36, 100]),
   midi.NoteOffEvent(tick=235300, channel=0, data=[36, 0]),
   midi.NoteOnEvent(tick=235400, channel=0, data=[36, 100]),
   midi.NoteOffEvent(tick=235500, channel=0, data=[36, 0]),
   midi.NoteOnEvent(tick=235600, channel=0, data=[3, 100]),
   midi.NoteOffEvent(tick=235700, channel=0, data=[3, 0]),
   midi.NoteOnEvent(tick=235800, channel=0, data=[4, 100]),
   midi.NoteOffEvent(tick=235900, channel=0, data=[4, 0]),
   midi.NoteOnEvent(tick=236000, channel=0, data=[2, 100]),
   midi.NoteOffEvent(tick=236100, channel=0, data=[2, 0]),
   midi.NoteOnEvent(tick=236200, channel=0, data=[17, 100]),
   midi.NoteOffEvent(tick=236300, channel=0, data=[17, 0]),
   midi.NoteOnEvent(tick=236400, channel=0, data=[4, 100]),
   midi.NoteOffEvent(tick=236500, channel=0, data=[4, 0]),
   midi.NoteOnEvent(tick=236600, channel=0, data=[0, 100]),
   midi.NoteOffEvent(tick=236700, channel=0, data=[0, 0]),
   midi.NoteOnEvent(tick=236800, channel=0, data=[18, 100]),
   midi.NoteOffEvent(tick=236900, channel=0, data=[18, 0]),
   midi.NoteOnEvent(tick=237000, channel=0, data=[4, 100]),
   midi.NoteOffEvent(tick=237100, channel=0, data=[4, 0]),
   midi.NoteOnEvent(tick=237200, channel=0, data=[18, 100]),
   midi.NoteOffEvent(tick=237300, channel=0, data=[18, 0]),
   midi.NoteOnEvent(tick=237400, channel=0, data=[36, 100]),
   midi.NoteOffEvent(tick=237500, channel=0, data=[36, 0]),
   midi.NoteOnEvent(tick=237600, channel=0, data=[19, 100]),
   midi.NoteOffEvent(tick=237700, channel=0, data=[19, 0]),
   midi.NoteOnEvent(tick=237800, channel=0, data=[7, 100]),
   midi.NoteOffEvent(tick=237900, channel=0, data=[7, 0]),
   midi.NoteOnEvent(tick=238000, channel=0, data=[4, 100]),
   midi.NoteOffEvent(tick=238100, channel=0, data=[4, 0]),
   midi.NoteOnEvent(tick=238200, channel=0, data=[36, 100]),
   midi.NoteOffEvent(tick=238300, channel=0, data=[36, 0]),
   midi.NoteOnEvent(tick=238400, channel=0, data=[21, 100]),
   midi.NoteOffEvent(tick=238500, channel=0, data=[21, 0]),
   midi.NoteOnEvent(tick=238600, channel=0, data=[0, 100]),
   midi.NoteOffEvent(tick=238700, channel=0, data=[0, 0]),
   midi.NoteOnEvent(tick=238800, channel=0, data=[11, 100]),
   midi.NoteOffEvent(tick=238900, channel=0, data=[11, 0]),
   midi.NoteOnEvent(tick=239000, channel=0, data=[20, 100]),
   midi.NoteOffEvent(tick=239100, channel=0, data=[20, 0]),
   midi.NoteOnEvent(tick=239200, channel=0, data=[4, 100]),
   midi.NoteOffEvent(tick=239300, channel=0, data=[4, 0]),
   midi.NoteOnEvent(tick=239400, channel=0, data=[36, 100]),
   midi.NoteOffEvent(tick=239500, channel=0, data=[36, 0]),
   midi.NoteOnEvent(tick=239600, channel=0, data=[14, 100]),
   midi.NoteOffEvent(tick=239700, channel=0, data=[14, 0]),
   midi.NoteOnEvent(tick=239800, channel=0, data=[5, 100]),
   midi.NoteOffEvent(tick=239900, channel=0, data=[5, 0]),
   midi.NoteOnEvent(tick=240000, channel=0, data=[36, 100]),
   midi.NoteOffEvent(tick=240100, channel=0, data=[36, 0]),
   midi.NoteOnEvent(tick=240200, channel=0, data=[0, 100]),
   midi.NoteOffEvent(tick=240300, channel=0, data=[0, 0]),
   midi.NoteOnEvent(tick=240400, channel=0, data=[36, 100]),
   midi.NoteOffEvent(tick=240500, channel=0, data=[36, 0]),
   midi.NoteOnEvent(tick=240600, channel=0, data=[21, 100]),
   midi.NoteOffEvent(tick=240700, channel=0, data=[21, 0]),
   midi.NoteOnEvent(tick=240800, channel=0, data=[0, 100]),
   midi.NoteOffEvent(tick=240900, channel=0, data=[0, 0]),
   midi.NoteOnEvent(tick=241000, channel=0, data=[17, 100]),
   midi.NoteOffEvent(tick=241100, channel=0, data=[17, 0]),
   midi.NoteOnEvent(tick=241200, channel=0, data=[8, 100]),
   midi.NoteOffEvent(tick=241300, channel=0, data=[8, 0]),
   midi.NoteOnEvent(tick=241400, channel=0, data=[0, 100]),
   midi.NoteOffEvent(tick=241500, channel=0, data=[0, 0]),
   midi.NoteOnEvent(tick=241600, channel=0, data=[1, 100]),
   midi.NoteOffEvent(tick=241700, channel=0, data=[1, 0]),
   midi.NoteOnEvent(tick=241800, channel=0, data=[11, 100]),
   midi.NoteOffEvent(tick=241900, channel=0, data=[11, 0]),
   midi.NoteOnEvent(tick=242000, channel=0, data=[4, 100]),
   midi.NoteOffEvent(tick=242100, channel=0, data=[4, 0]),
   midi.NoteOnEvent(tick=242200, channel=0, data=[38, 100]),
   midi.NoteOffEvent(tick=242300, channel=0, data=[38, 0]),
   midi.NoteOnEvent(tick=242400, channel=0, data=[36, 100]),
   midi.NoteOffEvent(tick=242500, channel=0, data=[36, 0]),
   midi.NoteOnEvent(tick=242600, channel=0, data=[0, 100]),
   midi.NoteOffEvent(tick=242700, channel=0, data=[0, 0]),
   midi.NoteOnEvent(tick=242800, channel=0, data=[18, 100]),
   midi.NoteOffEvent(tick=242900, channel=0, data=[18, 0]),
   midi.NoteOnEvent(tick=243000, channel=0, data=[18, 100]),
   midi.NoteOffEvent(tick=243100, channel=0, data=[18, 0]),
   midi.NoteOnEvent(tick=243200, channel=0, data=[8, 100]),
   midi.NoteOffEvent(tick=243300, channel=0, data=[8, 0]),
   midi.NoteOnEvent(tick=243400, channel=0, data=[6, 100]),
   midi.NoteOffEvent(tick=243500, channel=0, data=[6, 0]),
   midi.NoteOnEvent(tick=243600, channel=0, data=[13, 100]),
   midi.NoteOffEvent(tick=243700, channel=0, data=[13, 0]),
   midi.NoteOnEvent(tick=243800, channel=0, data=[0, 100]),
   midi.NoteOffEvent(tick=243900, channel=0, data=[0, 0]),
   midi.NoteOnEvent(tick=244000, channel=0, data=[1, 100]),
   midi.NoteOffEvent(tick=244100, channel=0, data=[1, 0]),
   midi.NoteOnEvent(tick=244200, channel=0, data=[11, 100]),
   midi.NoteOffEvent(tick=244300, channel=0, data=[11, 0]),
   midi.NoteOnEvent(tick=244400, channel=0, data=[4, 100]),
   midi.NoteOffEvent(tick=244500, channel=0, data=[4, 0]),
   midi.NoteOnEvent(tick=244600, channel=0, data=[36, 100]),
   midi.NoteOffEvent(tick=244700, channel=0, data=[36, 0]),
   midi.NoteOnEvent(tick=244800, channel=0, data=[15, 100]),
   midi.NoteOffEvent(tick=244900, channel=0, data=[15, 0]),
   midi.NoteOnEvent(tick=245000, channel=0, data=[17, 100]),
   midi.NoteOffEvent(tick=245100, channel=0, data=[17, 0]),
   midi.NoteOnEvent(tick=245200, channel=0, data=[14, 100]),
   midi.NoteOffEvent(tick=245300, channel=0, data=[14, 0]),
   midi.NoteOnEvent(tick=245400, channel=0, data=[15, 100]),
   midi.NoteOffEvent(tick=245500, channel=0, data=[15, 0]),
   midi.NoteOnEvent(tick=245600, channel=0, data=[4, 100]),
   midi.NoteOffEvent(tick=245700, channel=0, data=[4, 0]),
   midi.NoteOnEvent(tick=245800, channel=0, data=[17, 100]),
   midi.NoteOffEvent(tick=245900, channel=0, data=[17, 0]),
   midi.NoteOnEvent(tick=246000, channel=0, data=[19, 100]),
   midi.NoteOffEvent(tick=246100, channel=0, data=[19, 0]),
   midi.NoteOnEvent(tick=246200, channel=0, data=[24, 100]),
   midi.NoteOffEvent(tick=246300, channel=0, data=[24, 0]),
   midi.NoteOnEvent(tick=246400, channel=0, data=[38, 100]),
   midi.NoteOffEvent(tick=246500, channel=0, data=[38, 0]),
   midi.NoteOnEvent(tick=246600, channel=0, data=[36, 100]),
   midi.NoteOffEvent(tick=246700, channel=0, data=[36, 0]),
   midi.NoteOnEvent(tick=246800, channel=0, data=[14, 100]),
   midi.NoteOffEvent(tick=246900, channel=0, data=[14, 0]),
   midi.NoteOnEvent(tick=247000, channel=0, data=[17, 100]),
   midi.NoteOffEvent(tick=247100, channel=0, data=[17, 0]),
   midi.NoteOnEvent(tick=247200, channel=0, data=[36, 100]),
   midi.NoteOffEvent(tick=247300, channel=0, data=[36, 0]),
   midi.NoteOnEvent(tick=247400, channel=0, data=[56, 100]),
   midi.NoteOffEvent(tick=247500, channel=0, data=[56, 0]),
   midi.NoteOnEvent(tick=247600, channel=0, data=[36, 100]),
   midi.NoteOffEvent(tick=247700, channel=0, data=[36, 0]),
   midi.NoteOnEvent(tick=247800, channel=0, data=[36, 100]),
   midi.NoteOffEvent(tick=247900, channel=0, data=[36, 0]),
   midi.NoteOnEvent(tick=248000, channel=0, data=[36, 100]),
   midi.NoteOffEvent(tick=248100, channel=0, data=[36, 0]),
   midi.NoteOnEvent(tick=248200, channel=0, data=[36, 100]),
   midi.NoteOffEvent(tick=248300, channel=0, data=[36, 0]),
   midi.NoteOnEvent(tick=248400, channel=0, data=[36, 100]),
   midi.NoteOffEvent(tick=248500, channel=0, data=[36, 0]),
   midi.NoteOnEvent(tick=248600, channel=0, data=[36, 100]),
   midi.NoteOffEvent(tick=248700, channel=0, data=[36, 0]),
   midi.NoteOnEvent(tick=248800, channel=0, data=[36, 100]),
   midi.NoteOffEvent(tick=248900, channel=0, data=[36, 0]),
   midi.NoteOnEvent(tick=249000, channel=0, data=[36, 100]),
   midi.NoteOffEvent(tick=249100, channel=0, data=[36, 0]),
   midi.NoteOnEvent(tick=249200, channel=0, data=[36, 100]),
   midi.NoteOffEvent(tick=249300, channel=0, data=[36, 0]),
   midi.NoteOnEvent(tick=249400, channel=0, data=[36, 100]),
   midi.NoteOffEvent(tick=249500, channel=0, data=[36, 0]),
   midi.NoteOnEvent(tick=249600, channel=0, data=[36, 100]),
   midi.NoteOffEvent(tick=249700, channel=0, data=[36, 0]),
   midi.NoteOnEvent(tick=249800, channel=0, data=[36, 100]),
   midi.NoteOffEvent(tick=249900, channel=0, data=[36, 0]),
   midi.NoteOnEvent(tick=250000, channel=0, data=[36, 100]),
   midi.NoteOffEvent(tick=250100, channel=0, data=[36, 0]),
   midi.NoteOnEvent(tick=250200, channel=0, data=[36, 100]),
   midi.NoteOffEvent(tick=250300, channel=0, data=[36, 0]),
   midi.NoteOnEvent(tick=250400, channel=0, data=[0, 100]),
   midi.NoteOffEvent(tick=250500, channel=0, data=[0, 0]),
   midi.NoteOnEvent(tick=250600, channel=0, data=[17, 100]),
   midi.NoteOffEvent(tick=250700, channel=0, data=[17, 0]),
   midi.NoteOnEvent(tick=250800, channel=0, data=[17, 100]),
   midi.NoteOffEvent(tick=250900, channel=0, data=[17, 0]),
   midi.NoteOnEvent(tick=251000, channel=0, data=[0, 100]),
   midi.NoteOffEvent(tick=251100, channel=0, data=[0, 0]),
   midi.NoteOnEvent(tick=251200, channel=0, data=[24, 100]),
   midi.NoteOffEvent(tick=251300, channel=0, data=[24, 0]),
   midi.NoteOnEvent(tick=251400, channel=0, data=[36, 100]),
   midi.NoteOffEvent(tick=251500, channel=0, data=[36, 0]),
   midi.NoteOnEvent(tick=251600, channel=0, data=[4, 100]),
   midi.NoteOffEvent(tick=251700, channel=0, data=[4, 0]),
   midi.NoteOnEvent(tick=251800, channel=0, data=[11, 100]),
   midi.NoteOffEvent(tick=251900, channel=0, data=[11, 0]),
   midi.NoteOnEvent(tick=252000, channel=0, data=[4, 100]),
   midi.NoteOffEvent(tick=252100, channel=0, data=[4, 0]),
   midi.NoteOnEvent(tick=252200, channel=0, data=[12, 100]),
   midi.NoteOffEvent(tick=252300, channel=0, data=[12, 0]),
   midi.NoteOnEvent(tick=252400, channel=0, data=[4, 100]),
   midi.NoteOffEvent(tick=252500, channel=0, data=[4, 0]),
   midi.NoteOnEvent(tick=252600, channel=0, data=[13, 100]),
   midi.NoteOffEvent(tick=252700, channel=0, data=[13, 0]),
   midi.NoteOnEvent(tick=252800, channel=0, data=[19, 100]),
   midi.NoteOffEvent(tick=252900, channel=0, data=[19, 0]),
   midi.NoteOnEvent(tick=253000, channel=0, data=[36, 100]),
   midi.NoteOffEvent(tick=253100, channel=0, data=[36, 0]),
   midi.NoteOnEvent(tick=253200, channel=0, data=[1, 100]),
   midi.NoteOffEvent(tick=253300, channel=0, data=[1, 0]),
   midi.NoteOnEvent(tick=253400, channel=0, data=[24, 100]),
   midi.NoteOffEvent(tick=253500, channel=0, data=[24, 0]),
   midi.NoteOnEvent(tick=253600, channel=0, data=[36, 100]),
   midi.NoteOffEvent(tick=253700, channel=0, data=[36, 0]),
   midi.NoteOnEvent(tick=253800, channel=0, data=[27, 100]),
   midi.NoteOffEvent(tick=253900, channel=0, data=[27, 0]),
   midi.NoteOnEvent(tick=254000, channel=0, data=[37, 100]),
   midi.NoteOffEvent(tick=254100, channel=0, data=[37, 0]),
   midi.NoteOnEvent(tick=254200, channel=0, data=[56, 100]),
   midi.NoteOffEvent(tick=254300, channel=0, data=[56, 0]),
   midi.NoteOnEvent(tick=254400, channel=0, data=[56, 100]),
   midi.NoteOffEvent(tick=254500, channel=0, data=[56, 0]),
   midi.NoteOnEvent(tick=254600, channel=0, data=[36, 100]),
   midi.NoteOffEvent(tick=254700, channel=0, data=[36, 0]),
   midi.NoteOnEvent(tick=254800, channel=0, data=[56, 100]),
   midi.NoteOffEvent(tick=254900, channel=0, data=[56, 0]),
   midi.NoteOnEvent(tick=255000, channel=0, data=[56, 100]),
   midi.NoteOffEvent(tick=255100, channel=0, data=[56, 0]),
   midi.NoteOnEvent(tick=255200, channel=0, data=[36, 100]),
   midi.NoteOffEvent(tick=255300, channel=0, data=[36, 0]),
   midi.NoteOnEvent(tick=255400, channel=0, data=[36, 100]),
   midi.NoteOffEvent(tick=255500, channel=0, data=[36, 0]),
   midi.NoteOnEvent(tick=255600, channel=0, data=[18, 100]),
   midi.NoteOffEvent(tick=255700, channel=0, data=[18, 0]),
   midi.NoteOnEvent(tick=255800, channel=0, data=[24, 100]),
   midi.NoteOffEvent(tick=255900, channel=0, data=[24, 0]),
   midi.NoteOnEvent(tick=256000, channel=0, data=[13, 100]),
   midi.NoteOffEvent(tick=256100, channel=0, data=[13, 0]),
   midi.NoteOnEvent(tick=256200, channel=0, data=[19, 100]),
   midi.NoteOffEvent(tick=256300, channel=0, data=[19, 0]),
   midi.NoteOnEvent(tick=256400, channel=0, data=[0, 100]),
   midi.NoteOffEvent(tick=256500, channel=0, data=[0, 0]),
   midi.NoteOnEvent(tick=256600, channel=0, data=[23, 100]),
   midi.NoteOffEvent(tick=256700, channel=0, data=[23, 0]),
   midi.NoteOnEvent(tick=256800, channel=0, data=[56, 100]),
   midi.NoteOffEvent(tick=256900, channel=0, data=[56, 0]),
   midi.NoteOnEvent(tick=257000, channel=0, data=[36, 100]),
   midi.NoteOffEvent(tick=257100, channel=0, data=[36, 0]),
   midi.NoteOnEvent(tick=257200, channel=0, data=[36, 100]),
   midi.NoteOffEvent(tick=257300, channel=0, data=[36, 0]),
   midi.NoteOnEvent(tick=257400, channel=0, data=[36, 100]),
   midi.NoteOffEvent(tick=257500, channel=0, data=[36, 0]),
   midi.NoteOnEvent(tick=257600, channel=0, data=[36, 100]),
   midi.NoteOffEvent(tick=257700, channel=0, data=[36, 0]),
   midi.NoteOnEvent(tick=257800, channel=0, data=[19, 100]),
   midi.NoteOffEvent(tick=257900, channel=0, data=[19, 0]),
   midi.NoteOnEvent(tick=258000, channel=0, data=[7, 100]),
   midi.NoteOffEvent(tick=258100, channel=0, data=[7, 0]),
   midi.NoteOnEvent(tick=258200, channel=0, data=[4, 100]),
   midi.NoteOffEvent(tick=258300, channel=0, data=[4, 0]),
   midi.NoteOnEvent(tick=258400, channel=0, data=[36, 100]),
   midi.NoteOffEvent(tick=258500, channel=0, data=[36, 0]),
   midi.NoteOnEvent(tick=258600, channel=0, data=[18, 100]),
   midi.NoteOffEvent(tick=258700, channel=0, data=[18, 0]),
   midi.NoteOnEvent(tick=258800, channel=0, data=[24, 100]),
   midi.NoteOffEvent(tick=258900, channel=0, data=[24, 0]),
   midi.NoteOnEvent(tick=259000, channel=0, data=[13, 100]),
   midi.NoteOffEvent(tick=259100, channel=0, data=[13, 0]),
   midi.NoteOnEvent(tick=259200, channel=0, data=[19, 100]),
   midi.NoteOffEvent(tick=259300, channel=0, data=[19, 0]),
   midi.NoteOnEvent(tick=259400, channel=0, data=[0, 100]),
   midi.NoteOffEvent(tick=259500, channel=0, data=[0, 0]),
   midi.NoteOnEvent(tick=259600, channel=0, data=[23, 100]),
   midi.NoteOffEvent(tick=259700, channel=0, data=[23, 0]),
   midi.NoteOnEvent(tick=259800, channel=0, data=[36, 100]),
   midi.NoteOffEvent(tick=259900, channel=0, data=[36, 0]),
   midi.NoteOnEvent(tick=260000, channel=0, data=[14, 100]),
   midi.NoteOffEvent(tick=260100, channel=0, data=[14, 0]),
   midi.NoteOnEvent(tick=260200, channel=0, data=[5, 100]),
   midi.NoteOffEvent(tick=260300, channel=0, data=[5, 0]),
   midi.NoteOnEvent(tick=260400, channel=0, data=[36, 100]),
   midi.NoteOffEvent(tick=260500, channel=0, data=[36, 0]),
   midi.NoteOnEvent(tick=260600, channel=0, data=[19, 100]),
   midi.NoteOffEvent(tick=260700, channel=0, data=[19, 0]),
   midi.NoteOnEvent(tick=260800, channel=0, data=[7, 100]),
   midi.NoteOffEvent(tick=260900, channel=0, data=[7, 0]),
   midi.NoteOnEvent(tick=261000, channel=0, data=[4, 100]),
   midi.NoteOffEvent(tick=261100, channel=0, data=[4, 0]),
   midi.NoteOnEvent(tick=261200, channel=0, data=[36, 100]),
   midi.NoteOffEvent(tick=261300, channel=0, data=[36, 0]),
   midi.NoteOnEvent(tick=261400, channel=0, data=[0, 100]),
   midi.NoteOffEvent(tick=261500, channel=0, data=[0, 0]),
   midi.NoteOnEvent(tick=261600, channel=0, data=[18, 100]),
   midi.NoteOffEvent(tick=261700, channel=0, data=[18, 0]),
   midi.NoteOnEvent(tick=261800, channel=0, data=[18, 100]),
   midi.NoteOffEvent(tick=261900, channel=0, data=[18, 0]),
   midi.NoteOnEvent(tick=262000, channel=0, data=[8, 100]),
   midi.NoteOffEvent(tick=262100, channel=0, data=[8, 0]),
   midi.NoteOnEvent(tick=262200, channel=0, data=[6, 100]),
   midi.NoteOffEvent(tick=262300, channel=0, data=[6, 0]),
   midi.NoteOnEvent(tick=262400, channel=0, data=[13, 100]),
   midi.NoteOffEvent(tick=262500, channel=0, data=[13, 0]),
   midi.NoteOnEvent(tick=262600, channel=0, data=[12, 100]),
   midi.NoteOffEvent(tick=262700, channel=0, data=[12, 0]),
   midi.NoteOnEvent(tick=262800, channel=0, data=[4, 100]),
   midi.NoteOffEvent(tick=262900, channel=0, data=[4, 0]),
   midi.NoteOnEvent(tick=263000, channel=0, data=[13, 100]),
   midi.NoteOffEvent(tick=263100, channel=0, data=[13, 0]),
   midi.NoteOnEvent(tick=263200, channel=0, data=[19, 100]),
   midi.NoteOffEvent(tick=263300, channel=0, data=[19, 0]),
   midi.NoteOnEvent(tick=263400, channel=0, data=[36, 100]),
   midi.NoteOffEvent(tick=263500, channel=0, data=[36, 0]),
   midi.NoteOnEvent(tick=263600, channel=0, data=[14, 100]),
   midi.NoteOffEvent(tick=263700, channel=0, data=[14, 0]),
   midi.NoteOnEvent(tick=263800, channel=0, data=[15, 100]),
   midi.NoteOffEvent(tick=263900, channel=0, data=[15, 0]),
   midi.NoteOnEvent(tick=264000, channel=0, data=[4, 100]),
   midi.NoteOffEvent(tick=264100, channel=0, data=[4, 0]),
   midi.NoteOnEvent(tick=264200, channel=0, data=[17, 100]),
   midi.NoteOffEvent(tick=264300, channel=0, data=[17, 0]),
   midi.NoteOnEvent(tick=264400, channel=0, data=[0, 100]),
   midi.NoteOffEvent(tick=264500, channel=0, data=[0, 0]),
   midi.NoteOnEvent(tick=264600, channel=0, data=[19, 100]),
   midi.NoteOffEvent(tick=264700, channel=0, data=[19, 0]),
   midi.NoteOnEvent(tick=264800, channel=0, data=[14, 100]),
   midi.NoteOffEvent(tick=264900, channel=0, data=[14, 0]),
   midi.NoteOnEvent(tick=265000, channel=0, data=[17, 100]),
   midi.NoteOffEvent(tick=265100, channel=0, data=[17, 0]),
   midi.NoteOnEvent(tick=265200, channel=0, data=[18, 100]),
   midi.NoteOffEvent(tick=265300, channel=0, data=[18, 0]),
   midi.NoteOnEvent(tick=265400, channel=0, data=[36, 100]),
   midi.NoteOffEvent(tick=265500, channel=0, data=[36, 0]),
   midi.NoteOnEvent(tick=265600, channel=0, data=[8, 100]),
   midi.NoteOffEvent(tick=265700, channel=0, data=[8, 0]),
   midi.NoteOnEvent(tick=265800, channel=0, data=[18, 100]),
   midi.NoteOffEvent(tick=265900, channel=0, data=[18, 0]),
   midi.NoteOnEvent(tick=266000, channel=0, data=[36, 100]),
   midi.NoteOffEvent(tick=266100, channel=0, data=[36, 0]),
   midi.NoteOnEvent(tick=266200, channel=0, data=[0, 100]),
   midi.NoteOffEvent(tick=266300, channel=0, data=[0, 0]),
   midi.NoteOnEvent(tick=266400, channel=0, data=[18, 100]),
   midi.NoteOffEvent(tick=266500, channel=0, data=[18, 0]),
   midi.NoteOnEvent(tick=266600, channel=0, data=[36, 100]),
   midi.NoteOffEvent(tick=266700, channel=0, data=[36, 0]),
   midi.NoteOnEvent(tick=266800, channel=0, data=[5, 100]),
   midi.NoteOffEvent(tick=266900, channel=0, data=[5, 0]),
   midi.NoteOnEvent(tick=267000, channel=0, data=[14, 100]),
   midi.NoteOffEvent(tick=267100, channel=0, data=[14, 0]),
   midi.NoteOnEvent(tick=267200, channel=0, data=[11, 100]),
   midi.NoteOffEvent(tick=267300, channel=0, data=[11, 0]),
   midi.NoteOnEvent(tick=267400, channel=0, data=[11, 100]),
   midi.NoteOffEvent(tick=267500, channel=0, data=[11, 0]),
   midi.NoteOnEvent(tick=267600, channel=0, data=[14, 100]),
   midi.NoteOffEvent(tick=267700, channel=0, data=[14, 0]),
   midi.NoteOnEvent(tick=267800, channel=0, data=[22, 100]),
   midi.NoteOffEvent(tick=267900, channel=0, data=[22, 0]),
   midi.NoteOnEvent(tick=268000, channel=0, data=[18, 100]),
   midi.NoteOffEvent(tick=268100, channel=0, data=[18, 0]),
   midi.NoteOnEvent(tick=268200, channel=0, data=[46, 100]),
   midi.NoteOffEvent(tick=268300, channel=0, data=[46, 0]),
   midi.NoteOnEvent(tick=268400, channel=0, data=[56, 100]),
   midi.NoteOffEvent(tick=268500, channel=0, data=[56, 0]),
   midi.NoteOnEvent(tick=268600, channel=0, data=[56, 100]),
   midi.NoteOffEvent(tick=268700, channel=0, data=[56, 0]),
   midi.NoteOnEvent(tick=268800, channel=0, data=[56, 100]),
   midi.NoteOffEvent(tick=268900, channel=0, data=[56, 0]),
   midi.NoteOnEvent(tick=269000, channel=0, data=[36, 100]),
   midi.NoteOffEvent(tick=269100, channel=0, data=[36, 0]),
   midi.NoteOnEvent(tick=269200, channel=0, data=[36, 100]),
   midi.NoteOffEvent(tick=269300, channel=0, data=[36, 0]),
   midi.NoteOnEvent(tick=269400, channel=0, data=[36, 100]),
   midi.NoteOffEvent(tick=269500, channel=0, data=[36, 0]),
   midi.NoteOnEvent(tick=269600, channel=0, data=[36, 100]),
   midi.NoteOffEvent(tick=269700, channel=0, data=[36, 0]),
   midi.NoteOnEvent(tick=269800, channel=0, data=[36, 100]),
   midi.NoteOffEvent(tick=269900, channel=0, data=[36, 0]),
   midi.NoteOnEvent(tick=270000, channel=0, data=[36, 100]),
   midi.NoteOffEvent(tick=270100, channel=0, data=[36, 0]),
   midi.NoteOnEvent(tick=270200, channel=0, data=[36, 100]),
   midi.NoteOffEvent(tick=270300, channel=0, data=[36, 0]),
   midi.NoteOnEvent(tick=270400, channel=0, data=[36, 100]),
   midi.NoteOffEvent(tick=270500, channel=0, data=[36, 0]),
   midi.NoteOnEvent(tick=270600, channel=0, data=[72, 100]),
   midi.NoteOffEvent(tick=270700, channel=0, data=[72, 0]),
   midi.NoteOnEvent(tick=270800, channel=0, data=[0, 100]),
   midi.NoteOffEvent(tick=270900, channel=0, data=[0, 0]),
   midi.NoteOnEvent(tick=271000, channel=0, data=[18, 100]),
   midi.NoteOffEvent(tick=271100, channel=0, data=[18, 0]),
   midi.NoteOnEvent(tick=271200, channel=0, data=[18, 100]),
   midi.NoteOffEvent(tick=271300, channel=0, data=[18, 0]),
   midi.NoteOnEvent(tick=271400, channel=0, data=[8, 100]),
   midi.NoteOffEvent(tick=271500, channel=0, data=[8, 0]),
   midi.NoteOnEvent(tick=271600, channel=0, data=[6, 100]),
   midi.NoteOffEvent(tick=271700, channel=0, data=[6, 0]),
   midi.NoteOnEvent(tick=271800, channel=0, data=[13, 100]),
   midi.NoteOffEvent(tick=271900, channel=0, data=[13, 0]),
   midi.NoteOnEvent(tick=272000, channel=0, data=[0, 100]),
   midi.NoteOffEvent(tick=272100, channel=0, data=[0, 0]),
   midi.NoteOnEvent(tick=272200, channel=0, data=[1, 100]),
   midi.NoteOffEvent(tick=272300, channel=0, data=[1, 0]),
   midi.NoteOnEvent(tick=272400, channel=0, data=[11, 100]),
   midi.NoteOffEvent(tick=272500, channel=0, data=[11, 0]),
   midi.NoteOnEvent(tick=272600, channel=0, data=[4, 100]),
   midi.NoteOffEvent(tick=272700, channel=0, data=[4, 0]),
   midi.NoteOnEvent(tick=272800, channel=0, data=[45, 100]),
   midi.NoteOffEvent(tick=272900, channel=0, data=[45, 0]),
   midi.NoteOnEvent(tick=273000, channel=0, data=[4, 100]),
   midi.NoteOffEvent(tick=273100, channel=0, data=[4, 0]),
   midi.NoteOnEvent(tick=273200, channel=0, data=[23, 100]),
   midi.NoteOffEvent(tick=273300, channel=0, data=[23, 0]),
   midi.NoteOnEvent(tick=273400, channel=0, data=[15, 100]),
   midi.NoteOffEvent(tick=273500, channel=0, data=[15, 0]),
   midi.NoteOnEvent(tick=273600, channel=0, data=[17, 100]),
   midi.NoteOffEvent(tick=273700, channel=0, data=[17, 0]),
   midi.NoteOnEvent(tick=273800, channel=0, data=[4, 100]),
   midi.NoteOffEvent(tick=273900, channel=0, data=[4, 0]),
   midi.NoteOnEvent(tick=274000, channel=0, data=[18, 100]),
   midi.NoteOffEvent(tick=274100, channel=0, data=[18, 0]),
   midi.NoteOnEvent(tick=274200, channel=0, data=[18, 100]),
   midi.NoteOffEvent(tick=274300, channel=0, data=[18, 0]),
   midi.NoteOnEvent(tick=274400, channel=0, data=[8, 100]),
   midi.NoteOffEvent(tick=274500, channel=0, data=[8, 0]),
   midi.NoteOnEvent(tick=274600, channel=0, data=[14, 100]),
   midi.NoteOffEvent(tick=274700, channel=0, data=[14, 0]),
   midi.NoteOnEvent(tick=274800, channel=0, data=[13, 100]),
   midi.NoteOffEvent(tick=274900, channel=0, data=[13, 0]),
   midi.NoteOnEvent(tick=275000, channel=0, data=[73, 100]),
   midi.NoteOffEvent(tick=275100, channel=0, data=[73, 0]),
   midi.NoteOnEvent(tick=275200, channel=0, data=[36, 100]),
   midi.NoteOffEvent(tick=275300, channel=0, data=[36, 0]),
   midi.NoteOnEvent(tick=275400, channel=0, data=[72, 100]),
   midi.NoteOffEvent(tick=275500, channel=0, data=[72, 0]),
   midi.NoteOnEvent(tick=275600, channel=0, data=[0, 100]),
   midi.NoteOffEvent(tick=275700, channel=0, data=[0, 0]),
   midi.NoteOnEvent(tick=275800, channel=0, data=[18, 100]),
   midi.NoteOffEvent(tick=275900, channel=0, data=[18, 0]),
   midi.NoteOnEvent(tick=276000, channel=0, data=[18, 100]),
   midi.NoteOffEvent(tick=276100, channel=0, data=[18, 0]),
   midi.NoteOnEvent(tick=276200, channel=0, data=[8, 100]),
   midi.NoteOffEvent(tick=276300, channel=0, data=[8, 0]),
   midi.NoteOnEvent(tick=276400, channel=0, data=[6, 100]),
   midi.NoteOffEvent(tick=276500, channel=0, data=[6, 0]),
   midi.NoteOnEvent(tick=276600, channel=0, data=[13, 100]),
   midi.NoteOffEvent(tick=276700, channel=0, data=[13, 0]),
   midi.NoteOnEvent(tick=276800, channel=0, data=[12, 100]),
   midi.NoteOffEvent(tick=276900, channel=0, data=[12, 0]),
   midi.NoteOnEvent(tick=277000, channel=0, data=[4, 100]),
   midi.NoteOffEvent(tick=277100, channel=0, data=[4, 0]),
   midi.NoteOnEvent(tick=277200, channel=0, data=[13, 100]),
   midi.NoteOffEvent(tick=277300, channel=0, data=[13, 0]),
   midi.NoteOnEvent(tick=277400, channel=0, data=[19, 100]),
   midi.NoteOffEvent(tick=277500, channel=0, data=[19, 0]),
   midi.NoteOnEvent(tick=277600, channel=0, data=[45, 100]),
   midi.NoteOffEvent(tick=277700, channel=0, data=[45, 0]),
   midi.NoteOnEvent(tick=277800, channel=0, data=[14, 100]),
   midi.NoteOffEvent(tick=277900, channel=0, data=[14, 0]),
   midi.NoteOnEvent(tick=278000, channel=0, data=[15, 100]),
   midi.NoteOffEvent(tick=278100, channel=0, data=[15, 0]),
   midi.NoteOnEvent(tick=278200, channel=0, data=[4, 100]),
   midi.NoteOffEvent(tick=278300, channel=0, data=[4, 0]),
   midi.NoteOnEvent(tick=278400, channel=0, data=[17, 100]),
   midi.NoteOffEvent(tick=278500, channel=0, data=[17, 0]),
   midi.NoteOnEvent(tick=278600, channel=0, data=[0, 100]),
   midi.NoteOffEvent(tick=278700, channel=0, data=[0, 0]),
   midi.NoteOnEvent(tick=278800, channel=0, data=[19, 100]),
   midi.NoteOffEvent(tick=278900, channel=0, data=[19, 0]),
   midi.NoteOnEvent(tick=279000, channel=0, data=[14, 100]),
   midi.NoteOffEvent(tick=279100, channel=0, data=[14, 0]),
   midi.NoteOnEvent(tick=279200, channel=0, data=[17, 100]),
   midi.NoteOffEvent(tick=279300, channel=0, data=[17, 0]),
   midi.NoteOnEvent(tick=279400, channel=0, data=[73, 100]),
   midi.NoteOffEvent(tick=279500, channel=0, data=[73, 0]),
   midi.NoteOnEvent(tick=279600, channel=0, data=[36, 100]),
   midi.NoteOffEvent(tick=279700, channel=0, data=[36, 0]),
   midi.NoteOnEvent(tick=279800, channel=0, data=[72, 100]),
   midi.NoteOffEvent(tick=279900, channel=0, data=[72, 0]),
   midi.NoteOnEvent(tick=280000, channel=0, data=[21, 100]),
   midi.NoteOffEvent(tick=280100, channel=0, data=[21, 0]),
   midi.NoteOnEvent(tick=280200, channel=0, data=[0, 100]),
   midi.NoteOffEvent(tick=280300, channel=0, data=[0, 0]),
   midi.NoteOnEvent(tick=280400, channel=0, data=[11, 100]),
   midi.NoteOffEvent(tick=280500, channel=0, data=[11, 0]),
   midi.NoteOnEvent(tick=280600, channel=0, data=[20, 100]),
   midi.NoteOffEvent(tick=280700, channel=0, data=[20, 0]),
   midi.NoteOnEvent(tick=280800, channel=0, data=[4, 100]),
   midi.NoteOffEvent(tick=280900, channel=0, data=[4, 0]),
   midi.NoteOnEvent(tick=281000, channel=0, data=[73, 100]),
   midi.NoteOffEvent(tick=281100, channel=0, data=[73, 0]),
   midi.NoteOnEvent(tick=281200, channel=0, data=[56, 100]),
   midi.NoteOffEvent(tick=281300, channel=0, data=[56, 0]),
   midi.NoteOnEvent(tick=281400, channel=0, data=[56, 100]),
   midi.NoteOffEvent(tick=281500, channel=0, data=[56, 0]),
   midi.NoteOnEvent(tick=281600, channel=0, data=[56, 100]),
   midi.NoteOffEvent(tick=281700, channel=0, data=[56, 0]),
   midi.NoteOnEvent(tick=281800, channel=0, data=[36, 100]),
   midi.NoteOffEvent(tick=281900, channel=0, data=[36, 0]),
   midi.NoteOnEvent(tick=282000, channel=0, data=[36, 100]),
   midi.NoteOffEvent(tick=282100, channel=0, data=[36, 0]),
   midi.NoteOnEvent(tick=282200, channel=0, data=[36, 100]),
   midi.NoteOffEvent(tick=282300, channel=0, data=[36, 0]),
   midi.NoteOnEvent(tick=282400, channel=0, data=[36, 100]),
   midi.NoteOffEvent(tick=282500, channel=0, data=[36, 0]),
   midi.NoteOnEvent(tick=282600, channel=0, data=[0, 100]),
   midi.NoteOffEvent(tick=282700, channel=0, data=[0, 0]),
   midi.NoteOnEvent(tick=282800, channel=0, data=[18, 100]),
   midi.NoteOffEvent(tick=282900, channel=0, data=[18, 0]),
   midi.NoteOnEvent(tick=283000, channel=0, data=[18, 100]),
   midi.NoteOffEvent(tick=283100, channel=0, data=[18, 0]),
   midi.NoteOnEvent(tick=283200, channel=0, data=[8, 100]),
   midi.NoteOffEvent(tick=283300, channel=0, data=[8, 0]),
   midi.NoteOnEvent(tick=283400, channel=0, data=[6, 100]),
   midi.NoteOffEvent(tick=283500, channel=0, data=[6, 0]),
   midi.NoteOnEvent(tick=283600, channel=0, data=[13, 100]),
   midi.NoteOffEvent(tick=283700, channel=0, data=[13, 0]),
   midi.NoteOnEvent(tick=283800, channel=0, data=[0, 100]),
   midi.NoteOffEvent(tick=283900, channel=0, data=[0, 0]),
   midi.NoteOnEvent(tick=284000, channel=0, data=[1, 100]),
   midi.NoteOffEvent(tick=284100, channel=0, data=[1, 0]),
   midi.NoteOnEvent(tick=284200, channel=0, data=[11, 100]),
   midi.NoteOffEvent(tick=284300, channel=0, data=[11, 0]),
   midi.NoteOnEvent(tick=284400, channel=0, data=[4, 100]),
   midi.NoteOffEvent(tick=284500, channel=0, data=[4, 0]),
   midi.NoteOnEvent(tick=284600, channel=0, data=[36, 100]),
   midi.NoteOffEvent(tick=284700, channel=0, data=[36, 0]),
   midi.NoteOnEvent(tick=284800, channel=0, data=[4, 100]),
   midi.NoteOffEvent(tick=284900, channel=0, data=[4, 0]),
   midi.NoteOnEvent(tick=285000, channel=0, data=[23, 100]),
   midi.NoteOffEvent(tick=285100, channel=0, data=[23, 0]),
   midi.NoteOnEvent(tick=285200, channel=0, data=[15, 100]),
   midi.NoteOffEvent(tick=285300, channel=0, data=[15, 0]),
   midi.NoteOnEvent(tick=285400, channel=0, data=[17, 100]),
   midi.NoteOffEvent(tick=285500, channel=0, data=[17, 0]),
   midi.NoteOnEvent(tick=285600, channel=0, data=[4, 100]),
   midi.NoteOffEvent(tick=285700, channel=0, data=[4, 0]),
   midi.NoteOnEvent(tick=285800, channel=0, data=[18, 100]),
   midi.NoteOffEvent(tick=285900, channel=0, data=[18, 0]),
   midi.NoteOnEvent(tick=286000, channel=0, data=[18, 100]),
   midi.NoteOffEvent(tick=286100, channel=0, data=[18, 0]),
   midi.NoteOnEvent(tick=286200, channel=0, data=[8, 100]),
   midi.NoteOffEvent(tick=286300, channel=0, data=[8, 0]),
   midi.NoteOnEvent(tick=286400, channel=0, data=[14, 100]),
   midi.NoteOffEvent(tick=286500, channel=0, data=[14, 0]),
   midi.NoteOnEvent(tick=286600, channel=0, data=[13, 100]),
   midi.NoteOffEvent(tick=286700, channel=0, data=[13, 0]),
   midi.NoteOnEvent(tick=286800, channel=0, data=[18, 100]),
   midi.NoteOffEvent(tick=286900, channel=0, data=[18, 0]),
   midi.NoteOnEvent(tick=287000, channel=0, data=[36, 100]),
   midi.NoteOffEvent(tick=287100, channel=0, data=[36, 0]),
   midi.NoteOnEvent(tick=287200, channel=0, data=[8, 100]),
   midi.NoteOffEvent(tick=287300, channel=0, data=[8, 0]),
   midi.NoteOnEvent(tick=287400, channel=0, data=[13, 100]),
   midi.NoteOffEvent(tick=287500, channel=0, data=[13, 0]),
   midi.NoteOnEvent(tick=287600, channel=0, data=[2, 100]),
   midi.NoteOffEvent(tick=287700, channel=0, data=[2, 0]),
   midi.NoteOnEvent(tick=287800, channel=0, data=[11, 100]),
   midi.NoteOffEvent(tick=287900, channel=0, data=[11, 0]),
   midi.NoteOnEvent(tick=288000, channel=0, data=[20, 100]),
   midi.NoteOffEvent(tick=288100, channel=0, data=[20, 0]),
   midi.NoteOnEvent(tick=288200, channel=0, data=[3, 100]),
   midi.NoteOffEvent(tick=288300, channel=0, data=[3, 0]),
   midi.NoteOnEvent(tick=288400, channel=0, data=[4, 100]),
   midi.NoteOffEvent(tick=288500, channel=0, data=[4, 0]),
   midi.NoteOnEvent(tick=288600, channel=0, data=[36, 100]),
   midi.NoteOffEvent(tick=288700, channel=0, data=[36, 0]),
   midi.NoteOnEvent(tick=288800, channel=0, data=[21, 100]),
   midi.NoteOffEvent(tick=288900, channel=0, data=[21, 0]),
   midi.NoteOnEvent(tick=289000, channel=0, data=[0, 100]),
   midi.NoteOffEvent(tick=289100, channel=0, data=[0, 0]),
   midi.NoteOnEvent(tick=289200, channel=0, data=[17, 100]),
   midi.NoteOffEvent(tick=289300, channel=0, data=[17, 0]),
   midi.NoteOnEvent(tick=289400, channel=0, data=[8, 100]),
   midi.NoteOffEvent(tick=289500, channel=0, data=[8, 0]),
   midi.NoteOnEvent(tick=289600, channel=0, data=[0, 100]),
   midi.NoteOffEvent(tick=289700, channel=0, data=[0, 0]),
   midi.NoteOnEvent(tick=289800, channel=0, data=[1, 100]),
   midi.NoteOffEvent(tick=289900, channel=0, data=[1, 0]),
   midi.NoteOnEvent(tick=290000, channel=0, data=[11, 100]),
   midi.NoteOffEvent(tick=290100, channel=0, data=[11, 0]),
   midi.NoteOnEvent(tick=290200, channel=0, data=[4, 100]),
   midi.NoteOffEvent(tick=290300, channel=0, data=[4, 0]),
   midi.NoteOnEvent(tick=290400, channel=0, data=[18, 100]),
   midi.NoteOffEvent(tick=290500, channel=0, data=[18, 0]),
   midi.NoteOnEvent(tick=290600, channel=0, data=[36, 100]),
   midi.NoteOffEvent(tick=290700, channel=0, data=[36, 0]),
   midi.NoteOnEvent(tick=290800, channel=0, data=[0, 100]),
   midi.NoteOffEvent(tick=290900, channel=0, data=[0, 0]),
   midi.NoteOnEvent(tick=291000, channel=0, data=[13, 100]),
   midi.NoteOffEvent(tick=291100, channel=0, data=[13, 0]),
   midi.NoteOnEvent(tick=291200, channel=0, data=[3, 100]),
   midi.NoteOffEvent(tick=291300, channel=0, data=[3, 0]),
   midi.NoteOnEvent(tick=291400, channel=0, data=[36, 100]),
   midi.NoteOffEvent(tick=291500, channel=0, data=[36, 0]),
   midi.NoteOnEvent(tick=291600, channel=0, data=[15, 100]),
   midi.NoteOffEvent(tick=291700, channel=0, data=[15, 0]),
   midi.NoteOnEvent(tick=291800, channel=0, data=[17, 100]),
   midi.NoteOffEvent(tick=291900, channel=0, data=[17, 0]),
   midi.NoteOnEvent(tick=292000, channel=0, data=[14, 100]),
   midi.NoteOffEvent(tick=292100, channel=0, data=[14, 0]),
   midi.NoteOnEvent(tick=292200, channel=0, data=[15, 100]),
   midi.NoteOffEvent(tick=292300, channel=0, data=[15, 0]),
   midi.NoteOnEvent(tick=292400, channel=0, data=[4, 100]),
   midi.NoteOffEvent(tick=292500, channel=0, data=[4, 0]),
   midi.NoteOnEvent(tick=292600, channel=0, data=[17, 100]),
   midi.NoteOffEvent(tick=292700, channel=0, data=[17, 0]),
   midi.NoteOnEvent(tick=292800, channel=0, data=[19, 100]),
   midi.NoteOffEvent(tick=292900, channel=0, data=[19, 0]),
   midi.NoteOnEvent(tick=293000, channel=0, data=[8, 100]),
   midi.NoteOffEvent(tick=293100, channel=0, data=[8, 0]),
   midi.NoteOnEvent(tick=293200, channel=0, data=[4, 100]),
   midi.NoteOffEvent(tick=293300, channel=0, data=[4, 0]),
   midi.NoteOnEvent(tick=293400, channel=0, data=[18, 100]),
   midi.NoteOffEvent(tick=293500, channel=0, data=[18, 0]),
   midi.NoteOnEvent(tick=293600, channel=0, data=[37, 100]),
   midi.NoteOffEvent(tick=293700, channel=0, data=[37, 0]),
   midi.NoteOnEvent(tick=293800, channel=0, data=[36, 100]),
   midi.NoteOffEvent(tick=293900, channel=0, data=[36, 0]),
   midi.NoteOnEvent(tick=294000, channel=0, data=[36, 100]),
   midi.NoteOffEvent(tick=294100, channel=0, data=[36, 0]),
   midi.NoteOnEvent(tick=294200, channel=0, data=[19, 100]),
   midi.NoteOffEvent(tick=294300, channel=0, data=[19, 0]),
   midi.NoteOnEvent(tick=294400, channel=0, data=[7, 100]),
   midi.NoteOffEvent(tick=294500, channel=0, data=[7, 0]),
   midi.NoteOnEvent(tick=294600, channel=0, data=[4, 100]),
   midi.NoteOffEvent(tick=294700, channel=0, data=[4, 0]),
   midi.NoteOnEvent(tick=294800, channel=0, data=[36, 100]),
   midi.NoteOffEvent(tick=294900, channel=0, data=[36, 0]),
   midi.NoteOnEvent(tick=295000, channel=0, data=[21, 100]),
   midi.NoteOffEvent(tick=295100, channel=0, data=[21, 0]),
   midi.NoteOnEvent(tick=295200, channel=0, data=[0, 100]),
   midi.NoteOffEvent(tick=295300, channel=0, data=[0, 0]),
   midi.NoteOnEvent(tick=295400, channel=0, data=[11, 100]),
   midi.NoteOffEvent(tick=295500, channel=0, data=[11, 0]),
   midi.NoteOnEvent(tick=295600, channel=0, data=[20, 100]),
   midi.NoteOffEvent(tick=295700, channel=0, data=[20, 0]),
   midi.NoteOnEvent(tick=295800, channel=0, data=[4, 100]),
   midi.NoteOffEvent(tick=295900, channel=0, data=[4, 0]),
   midi.NoteOnEvent(tick=296000, channel=0, data=[36, 100]),
   midi.NoteOffEvent(tick=296100, channel=0, data=[36, 0]),
   midi.NoteOnEvent(tick=296200, channel=0, data=[2, 100]),
   midi.NoteOffEvent(tick=296300, channel=0, data=[2, 0]),
   midi.NoteOnEvent(tick=296400, channel=0, data=[0, 100]),
   midi.NoteOffEvent(tick=296500, channel=0, data=[0, 0]),
   midi.NoteOnEvent(tick=296600, channel=0, data=[13, 100]),
   midi.NoteOffEvent(tick=296700, channel=0, data=[13, 0]),
   midi.NoteOnEvent(tick=296800, channel=0, data=[36, 100]),
   midi.NoteOffEvent(tick=296900, channel=0, data=[36, 0]),
   midi.NoteOnEvent(tick=297000, channel=0, data=[1, 100]),
   midi.NoteOffEvent(tick=297100, channel=0, data=[1, 0]),
   midi.NoteOnEvent(tick=297200, channel=0, data=[4, 100]),
   midi.NoteOffEvent(tick=297300, channel=0, data=[4, 0]),
   midi.NoteOnEvent(tick=297400, channel=0, data=[36, 100]),
   midi.NoteOffEvent(tick=297500, channel=0, data=[36, 0]),
   midi.NoteOnEvent(tick=297600, channel=0, data=[56, 100]),
   midi.NoteOffEvent(tick=297700, channel=0, data=[56, 0]),
   midi.NoteOnEvent(tick=297800, channel=0, data=[36, 100]),
   midi.NoteOffEvent(tick=297900, channel=0, data=[36, 0]),
   midi.NoteOnEvent(tick=298000, channel=0, data=[36, 100]),
   midi.NoteOffEvent(tick=298100, channel=0, data=[36, 0]),
   midi.NoteOnEvent(tick=298200, channel=0, data=[36, 100]),
   midi.NoteOffEvent(tick=298300, channel=0, data=[36, 0]),
   midi.NoteOnEvent(tick=298400, channel=0, data=[36, 100]),
   midi.NoteOffEvent(tick=298500, channel=0, data=[36, 0]),
   midi.NoteOnEvent(tick=298600, channel=0, data=[0, 100]),
   midi.NoteOffEvent(tick=298700, channel=0, data=[0, 0]),
   midi.NoteOnEvent(tick=298800, channel=0, data=[36, 100]),
   midi.NoteOffEvent(tick=298900, channel=0, data=[36, 0]),
   midi.NoteOnEvent(tick=299000, channel=0, data=[18, 100]),
   midi.NoteOffEvent(tick=299100, channel=0, data=[18, 0]),
   midi.NoteOnEvent(tick=299200, channel=0, data=[8, 100]),
   midi.NoteOffEvent(tick=299300, channel=0, data=[8, 0]),
   midi.NoteOnEvent(tick=299400, channel=0, data=[13, 100]),
   midi.NoteOffEvent(tick=299500, channel=0, data=[13, 0]),
   midi.NoteOnEvent(tick=299600, channel=0, data=[6, 100]),
   midi.NoteOffEvent(tick=299700, channel=0, data=[6, 0]),
   midi.NoteOnEvent(tick=299800, channel=0, data=[11, 100]),
   midi.NoteOffEvent(tick=299900, channel=0, data=[11, 0]),
   midi.NoteOnEvent(tick=300000, channel=0, data=[4, 100]),
   midi.NoteOffEvent(tick=300100, channel=0, data=[4, 0]),
   midi.NoteOnEvent(tick=300200, channel=0, data=[36, 100]),
   midi.NoteOffEvent(tick=300300, channel=0, data=[36, 0]),
   midi.NoteOnEvent(tick=300400, channel=0, data=[21, 100]),
   midi.NoteOffEvent(tick=300500, channel=0, data=[21, 0]),
   midi.NoteOnEvent(tick=300600, channel=0, data=[0, 100]),
   midi.NoteOffEvent(tick=300700, channel=0, data=[0, 0]),
   midi.NoteOnEvent(tick=300800, channel=0, data=[11, 100]),
   midi.NoteOffEvent(tick=300900, channel=0, data=[11, 0]),
   midi.NoteOnEvent(tick=301000, channel=0, data=[20, 100]),
   midi.NoteOffEvent(tick=301100, channel=0, data=[20, 0]),
   midi.NoteOnEvent(tick=301200, channel=0, data=[4, 100]),
   midi.NoteOffEvent(tick=301300, channel=0, data=[4, 0]),
   midi.NoteOnEvent(tick=301400, channel=0, data=[38, 100]),
   midi.NoteOffEvent(tick=301500, channel=0, data=[38, 0]),
   midi.NoteOnEvent(tick=301600, channel=0, data=[36, 100]),
   midi.NoteOffEvent(tick=301700, channel=0, data=[36, 0]),
   midi.NoteOnEvent(tick=301800, channel=0, data=[0, 100]),
   midi.NoteOffEvent(tick=301900, channel=0, data=[0, 0]),
   midi.NoteOnEvent(tick=302000, channel=0, data=[13, 100]),
   midi.NoteOffEvent(tick=302100, channel=0, data=[13, 0]),
   midi.NoteOnEvent(tick=302200, channel=0, data=[36, 100]),
   midi.NoteOffEvent(tick=302300, channel=0, data=[36, 0]),
   midi.NoteOnEvent(tick=302400, channel=0, data=[0, 100]),
   midi.NoteOffEvent(tick=302500, channel=0, data=[0, 0]),
   midi.NoteOnEvent(tick=302600, channel=0, data=[17, 100]),
   midi.NoteOffEvent(tick=302700, channel=0, data=[17, 0]),
   midi.NoteOnEvent(tick=302800, channel=0, data=[17, 100]),
   midi.NoteOffEvent(tick=302900, channel=0, data=[17, 0]),
   midi.NoteOnEvent(tick=303000, channel=0, data=[0, 100]),
   midi.NoteOffEvent(tick=303100, channel=0, data=[0, 0]),
   midi.NoteOnEvent(tick=303200, channel=0, data=[24, 100]),
   midi.NoteOffEvent(tick=303300, channel=0, data=[24, 0]),
   midi.NoteOnEvent(tick=303400, channel=0, data=[36, 100]),
   midi.NoteOffEvent(tick=303500, channel=0, data=[36, 0]),
   midi.NoteOnEvent(tick=303600, channel=0, data=[14, 100]),
   midi.NoteOffEvent(tick=303700, channel=0, data=[14, 0]),
   midi.NoteOnEvent(tick=303800, channel=0, data=[5, 100]),
   midi.NoteOffEvent(tick=303900, channel=0, data=[5, 0]),
   midi.NoteOnEvent(tick=304000, channel=0, data=[36, 100]),
   midi.NoteOffEvent(tick=304100, channel=0, data=[36, 0]),
   midi.NoteOnEvent(tick=304200, channel=0, data=[21, 100]),
   midi.NoteOffEvent(tick=304300, channel=0, data=[21, 0]),
   midi.NoteOnEvent(tick=304400, channel=0, data=[0, 100]),
   midi.NoteOffEvent(tick=304500, channel=0, data=[0, 0]),
   midi.NoteOnEvent(tick=304600, channel=0, data=[11, 100]),
   midi.NoteOffEvent(tick=304700, channel=0, data=[11, 0]),
   midi.NoteOnEvent(tick=304800, channel=0, data=[20, 100]),
   midi.NoteOffEvent(tick=304900, channel=0, data=[20, 0]),
   midi.NoteOnEvent(tick=305000, channel=0, data=[4, 100]),
   midi.NoteOffEvent(tick=305100, channel=0, data=[4, 0]),
   midi.NoteOnEvent(tick=305200, channel=0, data=[18, 100]),
   midi.NoteOffEvent(tick=305300, channel=0, data=[18, 0]),
   midi.NoteOnEvent(tick=305400, channel=0, data=[38, 100]),
   midi.NoteOffEvent(tick=305500, channel=0, data=[38, 0]),
   midi.NoteOnEvent(tick=305600, channel=0, data=[36, 100]),
   midi.NoteOffEvent(tick=305700, channel=0, data=[36, 0]),
   midi.NoteOnEvent(tick=305800, channel=0, data=[14, 100]),
   midi.NoteOffEvent(tick=305900, channel=0, data=[14, 0]),
   midi.NoteOnEvent(tick=306000, channel=0, data=[17, 100]),
   midi.NoteOffEvent(tick=306100, channel=0, data=[17, 0]),
   midi.NoteOnEvent(tick=306200, channel=0, data=[36, 100]),
   midi.NoteOffEvent(tick=306300, channel=0, data=[36, 0]),
   midi.NoteOnEvent(tick=306400, channel=0, data=[0, 100]),
   midi.NoteOffEvent(tick=306500, channel=0, data=[0, 0]),
   midi.NoteOnEvent(tick=306600, channel=0, data=[36, 100]),
   midi.NoteOffEvent(tick=306700, channel=0, data=[36, 0]),
   midi.NoteOnEvent(tick=306800, channel=0, data=[2, 100]),
   midi.NoteOffEvent(tick=306900, channel=0, data=[2, 0]),
   midi.NoteOnEvent(tick=307000, channel=0, data=[14, 100]),
   midi.NoteOffEvent(tick=307100, channel=0, data=[14, 0]),
   midi.NoteOnEvent(tick=307200, channel=0, data=[12, 100]),
   midi.NoteOffEvent(tick=307300, channel=0, data=[12, 0]),
   midi.NoteOnEvent(tick=307400, channel=0, data=[12, 100]),
   midi.NoteOffEvent(tick=307500, channel=0, data=[12, 0]),
   midi.NoteOnEvent(tick=307600, channel=0, data=[0, 100]),
   midi.NoteOffEvent(tick=307700, channel=0, data=[0, 0]),
   midi.NoteOnEvent(tick=307800, channel=0, data=[13, 100]),
   midi.NoteOffEvent(tick=307900, channel=0, data=[13, 0]),
   midi.NoteOnEvent(tick=308000, channel=0, data=[3, 100]),
   midi.NoteOffEvent(tick=308100, channel=0, data=[3, 0]),
   midi.NoteOnEvent(tick=308200, channel=0, data=[38, 100]),
   midi.NoteOffEvent(tick=308300, channel=0, data=[38, 0]),
   midi.NoteOnEvent(tick=308400, channel=0, data=[36, 100]),
   midi.NoteOffEvent(tick=308500, channel=0, data=[36, 0]),
   midi.NoteOnEvent(tick=308600, channel=0, data=[4, 100]),
   midi.NoteOffEvent(tick=308700, channel=0, data=[4, 0]),
   midi.NoteOnEvent(tick=308800, channel=0, data=[23, 100]),
   midi.NoteOffEvent(tick=308900, channel=0, data=[23, 0]),
   midi.NoteOnEvent(tick=309000, channel=0, data=[15, 100]),
   midi.NoteOffEvent(tick=309100, channel=0, data=[15, 0]),
   midi.NoteOnEvent(tick=309200, channel=0, data=[17, 100]),
   midi.NoteOffEvent(tick=309300, channel=0, data=[17, 0]),
   midi.NoteOnEvent(tick=309400, channel=0, data=[4, 100]),
   midi.NoteOffEvent(tick=309500, channel=0, data=[4, 0]),
   midi.NoteOnEvent(tick=309600, channel=0, data=[18, 100]),
   midi.NoteOffEvent(tick=309700, channel=0, data=[18, 0]),
   midi.NoteOnEvent(tick=309800, channel=0, data=[18, 100]),
   midi.NoteOffEvent(tick=309900, channel=0, data=[18, 0]),
   midi.NoteOnEvent(tick=310000, channel=0, data=[8, 100]),
   midi.NoteOffEvent(tick=310100, channel=0, data=[8, 0]),
   midi.NoteOnEvent(tick=310200, channel=0, data=[14, 100]),
   midi.NoteOffEvent(tick=310300, channel=0, data=[14, 0]),
   midi.NoteOnEvent(tick=310400, channel=0, data=[13, 100]),
   midi.NoteOffEvent(tick=310500, channel=0, data=[13, 0]),
   midi.NoteOnEvent(tick=310600, channel=0, data=[38, 100]),
   midi.NoteOffEvent(tick=310700, channel=0, data=[38, 0]),
   midi.NoteOnEvent(tick=310800, channel=0, data=[36, 100]),
   midi.NoteOffEvent(tick=310900, channel=0, data=[36, 0]),
   midi.NoteOnEvent(tick=311000, channel=0, data=[14, 100]),
   midi.NoteOffEvent(tick=311100, channel=0, data=[14, 0]),
   midi.NoteOnEvent(tick=311200, channel=0, data=[17, 100]),
   midi.NoteOffEvent(tick=311300, channel=0, data=[17, 0]),
   midi.NoteOnEvent(tick=311400, channel=0, data=[36, 100]),
   midi.NoteOffEvent(tick=311500, channel=0, data=[36, 0]),
   midi.NoteOnEvent(tick=311600, channel=0, data=[18, 100]),
   midi.NoteOffEvent(tick=311700, channel=0, data=[18, 0]),
   midi.NoteOnEvent(tick=311800, channel=0, data=[19, 100]),
   midi.NoteOffEvent(tick=311900, channel=0, data=[19, 0]),
   midi.NoteOnEvent(tick=312000, channel=0, data=[0, 100]),
   midi.NoteOffEvent(tick=312100, channel=0, data=[0, 0]),
   midi.NoteOnEvent(tick=312200, channel=0, data=[19, 100]),
   midi.NoteOffEvent(tick=312300, channel=0, data=[19, 0]),
   midi.NoteOnEvent(tick=312400, channel=0, data=[4, 100]),
   midi.NoteOffEvent(tick=312500, channel=0, data=[4, 0]),
   midi.NoteOnEvent(tick=312600, channel=0, data=[12, 100]),
   midi.NoteOffEvent(tick=312700, channel=0, data=[12, 0]),
   midi.NoteOnEvent(tick=312800, channel=0, data=[4, 100]),
   midi.NoteOffEvent(tick=312900, channel=0, data=[4, 0]),
   midi.NoteOnEvent(tick=313000, channel=0, data=[13, 100]),
   midi.NoteOffEvent(tick=313100, channel=0, data=[13, 0]),
   midi.NoteOnEvent(tick=313200, channel=0, data=[19, 100]),
   midi.NoteOffEvent(tick=313300, channel=0, data=[19, 0]),
   midi.NoteOnEvent(tick=313400, channel=0, data=[37, 100]),
   midi.NoteOffEvent(tick=313500, channel=0, data=[37, 0]),
   midi.NoteOnEvent(tick=313600, channel=0, data=[56, 100]),
   midi.NoteOffEvent(tick=313700, channel=0, data=[56, 0]),
   midi.NoteOnEvent(tick=313800, channel=0, data=[56, 100]),
   midi.NoteOffEvent(tick=313900, channel=0, data=[56, 0]),
   midi.NoteOnEvent(tick=314000, channel=0, data=[56, 100]),
   midi.NoteOffEvent(tick=314100, channel=0, data=[56, 0]),
   midi.NoteOnEvent(tick=314200, channel=0, data=[36, 100]),
   midi.NoteOffEvent(tick=314300, channel=0, data=[36, 0]),
   midi.NoteOnEvent(tick=314400, channel=0, data=[36, 100]),
   midi.NoteOffEvent(tick=314500, channel=0, data=[36, 0]),
   midi.NoteOnEvent(tick=314600, channel=0, data=[36, 100]),
   midi.NoteOffEvent(tick=314700, channel=0, data=[36, 0]),
   midi.NoteOnEvent(tick=314800, channel=0, data=[36, 100]),
   midi.NoteOffEvent(tick=314900, channel=0, data=[36, 0]),
   midi.NoteOnEvent(tick=315000, channel=0, data=[19, 100]),
   midi.NoteOffEvent(tick=315100, channel=0, data=[19, 0]),
   midi.NoteOnEvent(tick=315200, channel=0, data=[7, 100]),
   midi.NoteOffEvent(tick=315300, channel=0, data=[7, 0]),
   midi.NoteOnEvent(tick=315400, channel=0, data=[4, 100]),
   midi.NoteOffEvent(tick=315500, channel=0, data=[4, 0]),
   midi.NoteOnEvent(tick=315600, channel=0, data=[36, 100]),
   midi.NoteOffEvent(tick=315700, channel=0, data=[36, 0]),
   midi.NoteOnEvent(tick=315800, channel=0, data=[8, 100]),
   midi.NoteOffEvent(tick=315900, channel=0, data=[8, 0]),
   midi.NoteOnEvent(tick=316000, channel=0, data=[13, 100]),
   midi.NoteOffEvent(tick=316100, channel=0, data=[13, 0]),
   midi.NoteOnEvent(tick=316200, channel=0, data=[2, 100]),
   midi.NoteOffEvent(tick=316300, channel=0, data=[2, 0]),
   midi.NoteOnEvent(tick=316400, channel=0, data=[17, 100]),
   midi.NoteOffEvent(tick=316500, channel=0, data=[17, 0]),
   midi.NoteOnEvent(tick=316600, channel=0, data=[4, 100]),
   midi.NoteOffEvent(tick=316700, channel=0, data=[4, 0]),
   midi.NoteOnEvent(tick=316800, channel=0, data=[12, 100]),
   midi.NoteOffEvent(tick=316900, channel=0, data=[12, 0]),
   midi.NoteOnEvent(tick=317000, channel=0, data=[4, 100]),
   midi.NoteOffEvent(tick=317100, channel=0, data=[4, 0]),
   midi.NoteOnEvent(tick=317200, channel=0, data=[13, 100]),
   midi.NoteOffEvent(tick=317300, channel=0, data=[13, 0]),
   midi.NoteOnEvent(tick=317400, channel=0, data=[19, 100]),
   midi.NoteOffEvent(tick=317500, channel=0, data=[19, 0]),
   midi.NoteOnEvent(tick=317600, channel=0, data=[36, 100]),
   midi.NoteOffEvent(tick=317700, channel=0, data=[36, 0]),
   midi.NoteOnEvent(tick=317800, channel=0, data=[0, 100]),
   midi.NoteOffEvent(tick=317900, channel=0, data=[0, 0]),
   midi.NoteOnEvent(tick=318000, channel=0, data=[13, 100]),
   midi.NoteOffEvent(tick=318100, channel=0, data=[13, 0]),
   midi.NoteOnEvent(tick=318200, channel=0, data=[3, 100]),
   midi.NoteOffEvent(tick=318300, channel=0, data=[3, 0]),
   midi.NoteOnEvent(tick=318400, channel=0, data=[36, 100]),
   midi.NoteOffEvent(tick=318500, channel=0, data=[36, 0]),
   midi.NoteOnEvent(tick=318600, channel=0, data=[3, 100]),
   midi.NoteOffEvent(tick=318700, channel=0, data=[3, 0]),
   midi.NoteOnEvent(tick=318800, channel=0, data=[4, 100]),
   midi.NoteOffEvent(tick=318900, channel=0, data=[4, 0]),
   midi.NoteOnEvent(tick=319000, channel=0, data=[2, 100]),
   midi.NoteOffEvent(tick=319100, channel=0, data=[2, 0]),
   midi.NoteOnEvent(tick=319200, channel=0, data=[17, 100]),
   midi.NoteOffEvent(tick=319300, channel=0, data=[17, 0]),
   midi.NoteOnEvent(tick=319400, channel=0, data=[4, 100]),
   midi.NoteOffEvent(tick=319500, channel=0, data=[4, 0]),
   midi.NoteOnEvent(tick=319600, channel=0, data=[12, 100]),
   midi.NoteOffEvent(tick=319700, channel=0, data=[12, 0]),
   midi.NoteOnEvent(tick=319800, channel=0, data=[4, 100]),
   midi.NoteOffEvent(tick=319900, channel=0, data=[4, 0]),
   midi.NoteOnEvent(tick=320000, channel=0, data=[13, 100]),
   midi.NoteOffEvent(tick=320100, channel=0, data=[13, 0]),
   midi.NoteOnEvent(tick=320200, channel=0, data=[19, 100]),
   midi.NoteOffEvent(tick=320300, channel=0, data=[19, 0]),
   midi.NoteOnEvent(tick=320400, channel=0, data=[36, 100]),
   midi.NoteOffEvent(tick=320500, channel=0, data=[36, 0]),
   midi.NoteOnEvent(tick=320600, channel=0, data=[14, 100]),
   midi.NoteOffEvent(tick=320700, channel=0, data=[14, 0]),
   midi.NoteOnEvent(tick=320800, channel=0, data=[15, 100]),
   midi.NoteOffEvent(tick=320900, channel=0, data=[15, 0]),
   midi.NoteOnEvent(tick=321000, channel=0, data=[4, 100]),
   midi.NoteOffEvent(tick=321100, channel=0, data=[4, 0]),
   midi.NoteOnEvent(tick=321200, channel=0, data=[17, 100]),
   midi.NoteOffEvent(tick=321300, channel=0, data=[17, 0]),
   midi.NoteOnEvent(tick=321400, channel=0, data=[0, 100]),
   midi.NoteOffEvent(tick=321500, channel=0, data=[0, 0]),
   midi.NoteOnEvent(tick=321600, channel=0, data=[19, 100]),
   midi.NoteOffEvent(tick=321700, channel=0, data=[19, 0]),
   midi.NoteOnEvent(tick=321800, channel=0, data=[14, 100]),
   midi.NoteOffEvent(tick=321900, channel=0, data=[14, 0]),
   midi.NoteOnEvent(tick=322000, channel=0, data=[17, 100]),
   midi.NoteOffEvent(tick=322100, channel=0, data=[17, 0]),
   midi.NoteOnEvent(tick=322200, channel=0, data=[18, 100]),
   midi.NoteOffEvent(tick=322300, channel=0, data=[18, 0]),
   midi.NoteOnEvent(tick=322400, channel=0, data=[36, 100]),
   midi.NoteOffEvent(tick=322500, channel=0, data=[36, 0]),
   midi.NoteOnEvent(tick=322600, channel=0, data=[0, 100]),
   midi.NoteOffEvent(tick=322700, channel=0, data=[0, 0]),
   midi.NoteOnEvent(tick=322800, channel=0, data=[17, 100]),
   midi.NoteOffEvent(tick=322900, channel=0, data=[17, 0]),
   midi.NoteOnEvent(tick=323000, channel=0, data=[4, 100]),
   midi.NoteOffEvent(tick=323100, channel=0, data=[4, 0]),
   midi.NoteOnEvent(tick=323200, channel=0, data=[36, 100]),
   midi.NoteOffEvent(tick=323300, channel=0, data=[36, 0]),
   midi.NoteOnEvent(tick=323400, channel=0, data=[20, 100]),
   midi.NoteOffEvent(tick=323500, channel=0, data=[20, 0]),
   midi.NoteOnEvent(tick=323600, channel=0, data=[13, 100]),
   midi.NoteOffEvent(tick=323700, channel=0, data=[13, 0]),
   midi.NoteOnEvent(tick=323800, channel=0, data=[0, 100]),
   midi.NoteOffEvent(tick=323900, channel=0, data=[0, 0]),
   midi.NoteOnEvent(tick=324000, channel=0, data=[17, 100]),
   midi.NoteOffEvent(tick=324100, channel=0, data=[17, 0]),
   midi.NoteOnEvent(tick=324200, channel=0, data=[24, 100]),
   midi.NoteOffEvent(tick=324300, channel=0, data=[24, 0]),
   midi.NoteOnEvent(tick=324400, channel=0, data=[36, 100]),
   midi.NoteOffEvent(tick=324500, channel=0, data=[36, 0]),
   midi.NoteOnEvent(tick=324600, channel=0, data=[14, 100]),
   midi.NoteOffEvent(tick=324700, channel=0, data=[14, 0]),
   midi.NoteOnEvent(tick=324800, channel=0, data=[15, 100]),
   midi.NoteOffEvent(tick=324900, channel=0, data=[15, 0]),
   midi.NoteOnEvent(tick=325000, channel=0, data=[4, 100]),
   midi.NoteOffEvent(tick=325100, channel=0, data=[4, 0]),
   midi.NoteOnEvent(tick=325200, channel=0, data=[17, 100]),
   midi.NoteOffEvent(tick=325300, channel=0, data=[17, 0]),
   midi.NoteOnEvent(tick=325400, channel=0, data=[0, 100]),
   midi.NoteOffEvent(tick=325500, channel=0, data=[0, 0]),
   midi.NoteOnEvent(tick=325600, channel=0, data=[19, 100]),
   midi.NoteOffEvent(tick=325700, channel=0, data=[19, 0]),
   midi.NoteOnEvent(tick=325800, channel=0, data=[14, 100]),
   midi.NoteOffEvent(tick=325900, channel=0, data=[14, 0]),
   midi.NoteOnEvent(tick=326000, channel=0, data=[17, 100]),
   midi.NoteOffEvent(tick=326100, channel=0, data=[17, 0]),
   midi.NoteOnEvent(tick=326200, channel=0, data=[18, 100]),
   midi.NoteOffEvent(tick=326300, channel=0, data=[18, 0]),
   midi.NoteOnEvent(tick=326400, channel=0, data=[37, 100]),
   midi.NoteOffEvent(tick=326500, channel=0, data=[37, 0]),
   midi.NoteOnEvent(tick=326600, channel=0, data=[36, 100]),
   midi.NoteOffEvent(tick=326700, channel=0, data=[36, 0]),
   midi.NoteOnEvent(tick=326800, channel=0, data=[4, 100]),
   midi.NoteOffEvent(tick=326900, channel=0, data=[4, 0]),
   midi.NoteOnEvent(tick=327000, channel=0, data=[0, 100]),
   midi.NoteOffEvent(tick=327100, channel=0, data=[0, 0]),
   midi.NoteOnEvent(tick=327200, channel=0, data=[2, 100]),
   midi.NoteOffEvent(tick=327300, channel=0, data=[2, 0]),
   midi.NoteOnEvent(tick=327400, channel=0, data=[7, 100]),
   midi.NoteOffEvent(tick=327500, channel=0, data=[7, 0]),
   midi.NoteOnEvent(tick=327600, channel=0, data=[36, 100]),
   midi.NoteOffEvent(tick=327700, channel=0, data=[36, 0]),
   midi.NoteOnEvent(tick=327800, channel=0, data=[7, 100]),
   midi.NoteOffEvent(tick=327900, channel=0, data=[7, 0]),
   midi.NoteOnEvent(tick=328000, channel=0, data=[0, 100]),
   midi.NoteOffEvent(tick=328100, channel=0, data=[0, 0]),
   midi.NoteOnEvent(tick=328200, channel=0, data=[18, 100]),
   midi.NoteOffEvent(tick=328300, channel=0, data=[18, 0]),
   midi.NoteOnEvent(tick=328400, channel=0, data=[36, 100]),
   midi.NoteOffEvent(tick=328500, channel=0, data=[36, 0]),
   midi.NoteOnEvent(tick=328600, channel=0, data=[15, 100]),
   midi.NoteOffEvent(tick=328700, channel=0, data=[15, 0]),
   midi.NoteOnEvent(tick=328800, channel=0, data=[17, 100]),
   midi.NoteOffEvent(tick=328900, channel=0, data=[17, 0]),
   midi.NoteOnEvent(tick=329000, channel=0, data=[4, 100]),
   midi.NoteOffEvent(tick=329100, channel=0, data=[4, 0]),
   midi.NoteOnEvent(tick=329200, channel=0, data=[5, 100]),
   midi.NoteOffEvent(tick=329300, channel=0, data=[5, 0]),
   midi.NoteOnEvent(tick=329400, channel=0, data=[8, 100]),
   midi.NoteOffEvent(tick=329500, channel=0, data=[8, 0]),
   midi.NoteOnEvent(tick=329600, channel=0, data=[23, 100]),
   midi.NoteOffEvent(tick=329700, channel=0, data=[23, 0]),
   midi.NoteOnEvent(tick=329800, channel=0, data=[36, 100]),
   midi.NoteOffEvent(tick=329900, channel=0, data=[36, 0]),
   midi.NoteOnEvent(tick=330000, channel=0, data=[56, 100]),
   midi.NoteOffEvent(tick=330100, channel=0, data=[56, 0]),
   midi.NoteOnEvent(tick=330200, channel=0, data=[36, 100]),
   midi.NoteOffEvent(tick=330300, channel=0, data=[36, 0]),
   midi.NoteOnEvent(tick=330400, channel=0, data=[36, 100]),
   midi.NoteOffEvent(tick=330500, channel=0, data=[36, 0]),
   midi.NoteOnEvent(tick=330600, channel=0, data=[36, 100]),
   midi.NoteOffEvent(tick=330700, channel=0, data=[36, 0]),
   midi.NoteOnEvent(tick=330800, channel=0, data=[36, 100]),
   midi.NoteOffEvent(tick=330900, channel=0, data=[36, 0]),
   midi.NoteOnEvent(tick=331000, channel=0, data=[0, 100]),
   midi.NoteOffEvent(tick=331100, channel=0, data=[0, 0]),
   midi.NoteOnEvent(tick=331200, channel=0, data=[13, 100]),
   midi.NoteOffEvent(tick=331300, channel=0, data=[13, 0]),
   midi.NoteOnEvent(tick=331400, channel=0, data=[3, 100]),
   midi.NoteOffEvent(tick=331500, channel=0, data=[3, 0]),
   midi.NoteOnEvent(tick=331600, channel=0, data=[36, 100]),
   midi.NoteOffEvent(tick=331700, channel=0, data=[36, 0]),
   midi.NoteOnEvent(tick=331800, channel=0, data=[15, 100]),
   midi.NoteOffEvent(tick=331900, channel=0, data=[15, 0]),
   midi.NoteOnEvent(tick=332000, channel=0, data=[14, 100]),
   midi.NoteOffEvent(tick=332100, channel=0, data=[14, 0]),
   midi.NoteOnEvent(tick=332200, channel=0, data=[18, 100]),
   midi.NoteOffEvent(tick=332300, channel=0, data=[18, 0]),
   midi.NoteOnEvent(tick=332400, channel=0, data=[19, 100]),
   midi.NoteOffEvent(tick=332500, channel=0, data=[19, 0]),
   midi.NoteOnEvent(tick=332600, channel=0, data=[5, 100]),
   midi.NoteOffEvent(tick=332700, channel=0, data=[5, 0]),
   midi.NoteOnEvent(tick=332800, channel=0, data=[8, 100]),
   midi.NoteOffEvent(tick=332900, channel=0, data=[8, 0]),
   midi.NoteOnEvent(tick=333000, channel=0, data=[23, 100]),
   midi.NoteOffEvent(tick=333100, channel=0, data=[23, 0]),
   midi.NoteOnEvent(tick=333200, channel=0, data=[36, 100]),
   midi.NoteOffEvent(tick=333300, channel=0, data=[36, 0]),
   midi.NoteOnEvent(tick=333400, channel=0, data=[21, 100]),
   midi.NoteOffEvent(tick=333500, channel=0, data=[21, 0]),
   midi.NoteOnEvent(tick=333600, channel=0, data=[4, 100]),
   midi.NoteOffEvent(tick=333700, channel=0, data=[4, 0]),
   midi.NoteOnEvent(tick=333800, channel=0, data=[17, 100]),
   midi.NoteOffEvent(tick=333900, channel=0, data=[17, 0]),
   midi.NoteOnEvent(tick=334000, channel=0, data=[18, 100]),
   midi.NoteOffEvent(tick=334100, channel=0, data=[18, 0]),
   midi.NoteOnEvent(tick=334200, channel=0, data=[8, 100]),
   midi.NoteOffEvent(tick=334300, channel=0, data=[8, 0]),
   midi.NoteOnEvent(tick=334400, channel=0, data=[14, 100]),
   midi.NoteOffEvent(tick=334500, channel=0, data=[14, 0]),
   midi.NoteOnEvent(tick=334600, channel=0, data=[13, 100]),
   midi.NoteOffEvent(tick=334700, channel=0, data=[13, 0]),
   midi.NoteOnEvent(tick=334800, channel=0, data=[18, 100]),
   midi.NoteOffEvent(tick=334900, channel=0, data=[18, 0]),
   midi.NoteOnEvent(tick=335000, channel=0, data=[37, 100]),
   midi.NoteOffEvent(tick=335100, channel=0, data=[37, 0]),
   midi.NoteOnEvent(tick=335200, channel=0, data=[56, 100]),
   midi.NoteOffEvent(tick=335300, channel=0, data=[56, 0]),
   midi.NoteOnEvent(tick=335400, channel=0, data=[56, 100]),
   midi.NoteOffEvent(tick=335500, channel=0, data=[56, 0]),
   midi.NoteOnEvent(tick=335600, channel=0, data=[56, 100]),
   midi.NoteOffEvent(tick=335700, channel=0, data=[56, 0]),
   midi.NoteOnEvent(tick=335800, channel=0, data=[36, 100]),
   midi.NoteOffEvent(tick=335900, channel=0, data=[36, 0]),
   midi.NoteOnEvent(tick=336000, channel=0, data=[36, 100]),
   midi.NoteOffEvent(tick=336100, channel=0, data=[36, 0]),
   midi.NoteOnEvent(tick=336200, channel=0, data=[36, 100]),
   midi.NoteOffEvent(tick=336300, channel=0, data=[36, 0]),
   midi.NoteOnEvent(tick=336400, channel=0, data=[36, 100]),
   midi.NoteOffEvent(tick=336500, channel=0, data=[36, 0]),
   midi.NoteOnEvent(tick=336600, channel=0, data=[36, 100]),
   midi.NoteOffEvent(tick=336700, channel=0, data=[36, 0]),
   midi.NoteOnEvent(tick=336800, channel=0, data=[36, 100]),
   midi.NoteOffEvent(tick=336900, channel=0, data=[36, 0]),
   midi.NoteOnEvent(tick=337000, channel=0, data=[36, 100]),
   midi.NoteOffEvent(tick=337100, channel=0, data=[36, 0]),
   midi.NoteOnEvent(tick=337200, channel=0, data=[36, 100]),
   midi.NoteOffEvent(tick=337300, channel=0, data=[36, 0]),
   midi.NoteOnEvent(tick=337400, channel=0, data=[72, 100]),
   midi.NoteOffEvent(tick=337500, channel=0, data=[72, 0]),
   midi.NoteOnEvent(tick=337600, channel=0, data=[0, 100]),
   midi.NoteOffEvent(tick=337700, channel=0, data=[0, 0]),
   midi.NoteOnEvent(tick=337800, channel=0, data=[18, 100]),
   midi.NoteOffEvent(tick=337900, channel=0, data=[18, 0]),
   midi.NoteOnEvent(tick=338000, channel=0, data=[18, 100]),
   midi.NoteOffEvent(tick=338100, channel=0, data=[18, 0]),
   midi.NoteOnEvent(tick=338200, channel=0, data=[8, 100]),
   midi.NoteOffEvent(tick=338300, channel=0, data=[8, 0]),
   midi.NoteOnEvent(tick=338400, channel=0, data=[6, 100]),
   midi.NoteOffEvent(tick=338500, channel=0, data=[6, 0]),
   midi.NoteOnEvent(tick=338600, channel=0, data=[13, 100]),
   midi.NoteOffEvent(tick=338700, channel=0, data=[13, 0]),
   midi.NoteOnEvent(tick=338800, channel=0, data=[0, 100]),
   midi.NoteOffEvent(tick=338900, channel=0, data=[0, 0]),
   midi.NoteOnEvent(tick=339000, channel=0, data=[1, 100]),
   midi.NoteOffEvent(tick=339100, channel=0, data=[1, 0]),
   midi.NoteOnEvent(tick=339200, channel=0, data=[11, 100]),
   midi.NoteOffEvent(tick=339300, channel=0, data=[11, 0]),
   midi.NoteOnEvent(tick=339400, channel=0, data=[4, 100]),
   midi.NoteOffEvent(tick=339500, channel=0, data=[4, 0]),
   midi.NoteOnEvent(tick=339600, channel=0, data=[45, 100]),
   midi.NoteOffEvent(tick=339700, channel=0, data=[45, 0]),
   midi.NoteOnEvent(tick=339800, channel=0, data=[4, 100]),
   midi.NoteOffEvent(tick=339900, channel=0, data=[4, 0]),
   midi.NoteOnEvent(tick=340000, channel=0, data=[23, 100]),
   midi.NoteOffEvent(tick=340100, channel=0, data=[23, 0]),
   midi.NoteOnEvent(tick=340200, channel=0, data=[15, 100]),
   midi.NoteOffEvent(tick=340300, channel=0, data=[15, 0]),
   midi.NoteOnEvent(tick=340400, channel=0, data=[17, 100]),
   midi.NoteOffEvent(tick=340500, channel=0, data=[17, 0]),
   midi.NoteOnEvent(tick=340600, channel=0, data=[4, 100]),
   midi.NoteOffEvent(tick=340700, channel=0, data=[4, 0]),
   midi.NoteOnEvent(tick=340800, channel=0, data=[18, 100]),
   midi.NoteOffEvent(tick=340900, channel=0, data=[18, 0]),
   midi.NoteOnEvent(tick=341000, channel=0, data=[18, 100]),
   midi.NoteOffEvent(tick=341100, channel=0, data=[18, 0]),
   midi.NoteOnEvent(tick=341200, channel=0, data=[8, 100]),
   midi.NoteOffEvent(tick=341300, channel=0, data=[8, 0]),
   midi.NoteOnEvent(tick=341400, channel=0, data=[14, 100]),
   midi.NoteOffEvent(tick=341500, channel=0, data=[14, 0]),
   midi.NoteOnEvent(tick=341600, channel=0, data=[13, 100]),
   midi.NoteOffEvent(tick=341700, channel=0, data=[13, 0]),
   midi.NoteOnEvent(tick=341800, channel=0, data=[73, 100]),
   midi.NoteOffEvent(tick=341900, channel=0, data=[73, 0]),
   midi.NoteOnEvent(tick=342000, channel=0, data=[72, 100]),
   midi.NoteOffEvent(tick=342100, channel=0, data=[72, 0]),
   midi.NoteOnEvent(tick=342200, channel=0, data=[14, 100]),
   midi.NoteOffEvent(tick=342300, channel=0, data=[14, 0]),
   midi.NoteOnEvent(tick=342400, channel=0, data=[15, 100]),
   midi.NoteOffEvent(tick=342500, channel=0, data=[15, 0]),
   midi.NoteOnEvent(tick=342600, channel=0, data=[4, 100]),
   midi.NoteOffEvent(tick=342700, channel=0, data=[4, 0]),
   midi.NoteOnEvent(tick=342800, channel=0, data=[17, 100]),
   midi.NoteOffEvent(tick=342900, channel=0, data=[17, 0]),
   midi.NoteOnEvent(tick=343000, channel=0, data=[0, 100]),
   midi.NoteOffEvent(tick=343100, channel=0, data=[0, 0]),
   midi.NoteOnEvent(tick=343200, channel=0, data=[19, 100]),
   midi.NoteOffEvent(tick=343300, channel=0, data=[19, 0]),
   midi.NoteOnEvent(tick=343400, channel=0, data=[14, 100]),
   midi.NoteOffEvent(tick=343500, channel=0, data=[14, 0]),
   midi.NoteOnEvent(tick=343600, channel=0, data=[17, 100]),
   midi.NoteOffEvent(tick=343700, channel=0, data=[17, 0]),
   midi.NoteOnEvent(tick=343800, channel=0, data=[73, 100]),
   midi.NoteOffEvent(tick=343900, channel=0, data=[73, 0]),
   midi.NoteOnEvent(tick=344000, channel=0, data=[56, 100]),
   midi.NoteOffEvent(tick=344100, channel=0, data=[56, 0]),
   midi.NoteOnEvent(tick=344200, channel=0, data=[36, 100]),
   midi.NoteOffEvent(tick=344300, channel=0, data=[36, 0]),
   midi.NoteOnEvent(tick=344400, channel=0, data=[36, 100]),
   midi.NoteOffEvent(tick=344500, channel=0, data=[36, 0]),
   midi.NoteOnEvent(tick=344600, channel=0, data=[36, 100]),
   midi.NoteOffEvent(tick=344700, channel=0, data=[36, 0]),
   midi.NoteOnEvent(tick=344800, channel=0, data=[36, 100]),
   midi.NoteOffEvent(tick=344900, channel=0, data=[36, 0]),
   midi.NoteOnEvent(tick=345000, channel=0, data=[36, 100]),
   midi.NoteOffEvent(tick=345100, channel=0, data=[36, 0]),
   midi.NoteOnEvent(tick=345200, channel=0, data=[36, 100]),
   midi.NoteOffEvent(tick=345300, channel=0, data=[36, 0]),
   midi.NoteOnEvent(tick=345400, channel=0, data=[36, 100]),
   midi.NoteOffEvent(tick=345500, channel=0, data=[36, 0]),
   midi.NoteOnEvent(tick=345600, channel=0, data=[36, 100]),
   midi.NoteOffEvent(tick=345700, channel=0, data=[36, 0]),
   midi.NoteOnEvent(tick=345800, channel=0, data=[72, 100]),
   midi.NoteOffEvent(tick=345900, channel=0, data=[72, 0]),
   midi.NoteOnEvent(tick=346000, channel=0, data=[14, 100]),
   midi.NoteOffEvent(tick=346100, channel=0, data=[14, 0]),
   midi.NoteOnEvent(tick=346200, channel=0, data=[15, 100]),
   midi.NoteOffEvent(tick=346300, channel=0, data=[15, 0]),
   midi.NoteOnEvent(tick=346400, channel=0, data=[4, 100]),
   midi.NoteOffEvent(tick=346500, channel=0, data=[4, 0]),
   midi.NoteOnEvent(tick=346600, channel=0, data=[17, 100]),
   midi.NoteOffEvent(tick=346700, channel=0, data=[17, 0]),
   midi.NoteOnEvent(tick=346800, channel=0, data=[0, 100]),
   midi.NoteOffEvent(tick=346900, channel=0, data=[0, 0]),
   midi.NoteOnEvent(tick=347000, channel=0, data=[19, 100]),
   midi.NoteOffEvent(tick=347100, channel=0, data=[19, 0]),
   midi.NoteOnEvent(tick=347200, channel=0, data=[14, 100]),
   midi.NoteOffEvent(tick=347300, channel=0, data=[14, 0]),
   midi.NoteOnEvent(tick=347400, channel=0, data=[17, 100]),
   midi.NoteOffEvent(tick=347500, channel=0, data=[17, 0]),
   midi.NoteOnEvent(tick=347600, channel=0, data=[73, 100]),
   midi.NoteOffEvent(tick=347700, channel=0, data=[73, 0]),
   midi.NoteOnEvent(tick=347800, channel=0, data=[72, 100]),
   midi.NoteOffEvent(tick=347900, channel=0, data=[72, 0]),
   midi.NoteOnEvent(tick=348000, channel=0, data=[0, 100]),
   midi.NoteOffEvent(tick=348100, channel=0, data=[0, 0]),
   midi.NoteOnEvent(tick=348200, channel=0, data=[18, 100]),
   midi.NoteOffEvent(tick=348300, channel=0, data=[18, 0]),
   midi.NoteOnEvent(tick=348400, channel=0, data=[18, 100]),
   midi.NoteOffEvent(tick=348500, channel=0, data=[18, 0]),
   midi.NoteOnEvent(tick=348600, channel=0, data=[8, 100]),
   midi.NoteOffEvent(tick=348700, channel=0, data=[8, 0]),
   midi.NoteOnEvent(tick=348800, channel=0, data=[6, 100]),
   midi.NoteOffEvent(tick=348900, channel=0, data=[6, 0]),
   midi.NoteOnEvent(tick=349000, channel=0, data=[13, 100]),
   midi.NoteOffEvent(tick=349100, channel=0, data=[13, 0]),
   midi.NoteOnEvent(tick=349200, channel=0, data=[0, 100]),
   midi.NoteOffEvent(tick=349300, channel=0, data=[0, 0]),
   midi.NoteOnEvent(tick=349400, channel=0, data=[1, 100]),
   midi.NoteOffEvent(tick=349500, channel=0, data=[1, 0]),
   midi.NoteOnEvent(tick=349600, channel=0, data=[11, 100]),
   midi.NoteOffEvent(tick=349700, channel=0, data=[11, 0]),
   midi.NoteOnEvent(tick=349800, channel=0, data=[4, 100]),
   midi.NoteOffEvent(tick=349900, channel=0, data=[4, 0]),
   midi.NoteOnEvent(tick=350000, channel=0, data=[45, 100]),
   midi.NoteOffEvent(tick=350100, channel=0, data=[45, 0]),
   midi.NoteOnEvent(tick=350200, channel=0, data=[4, 100]),
   midi.NoteOffEvent(tick=350300, channel=0, data=[4, 0]),
   midi.NoteOnEvent(tick=350400, channel=0, data=[23, 100]),
   midi.NoteOffEvent(tick=350500, channel=0, data=[23, 0]),
   midi.NoteOnEvent(tick=350600, channel=0, data=[15, 100]),
   midi.NoteOffEvent(tick=350700, channel=0, data=[15, 0]),
   midi.NoteOnEvent(tick=350800, channel=0, data=[17, 100]),
   midi.NoteOffEvent(tick=350900, channel=0, data=[17, 0]),
   midi.NoteOnEvent(tick=351000, channel=0, data=[4, 100]),
   midi.NoteOffEvent(tick=351100, channel=0, data=[4, 0]),
   midi.NoteOnEvent(tick=351200, channel=0, data=[18, 100]),
   midi.NoteOffEvent(tick=351300, channel=0, data=[18, 0]),
   midi.NoteOnEvent(tick=351400, channel=0, data=[18, 100]),
   midi.NoteOffEvent(tick=351500, channel=0, data=[18, 0]),
   midi.NoteOnEvent(tick=351600, channel=0, data=[8, 100]),
   midi.NoteOffEvent(tick=351700, channel=0, data=[8, 0]),
   midi.NoteOnEvent(tick=351800, channel=0, data=[14, 100]),
   midi.NoteOffEvent(tick=351900, channel=0, data=[14, 0]),
   midi.NoteOnEvent(tick=352000, channel=0, data=[13, 100]),
   midi.NoteOffEvent(tick=352100, channel=0, data=[13, 0]),
   midi.NoteOnEvent(tick=352200, channel=0, data=[73, 100]),
   midi.NoteOffEvent(tick=352300, channel=0, data=[73, 0]),
   midi.NoteOnEvent(tick=352400, channel=0, data=[56, 100]),
   midi.NoteOffEvent(tick=352500, channel=0, data=[56, 0]),
   midi.NoteOnEvent(tick=352600, channel=0, data=[56, 100]),
   midi.NoteOffEvent(tick=352700, channel=0, data=[56, 0]),
   midi.NoteOnEvent(tick=352800, channel=0, data=[56, 100]),
   midi.NoteOffEvent(tick=352900, channel=0, data=[56, 0]),
   midi.NoteOnEvent(tick=353000, channel=0, data=[36, 100]),
   midi.NoteOffEvent(tick=353100, channel=0, data=[36, 0]),
   midi.NoteOnEvent(tick=353200, channel=0, data=[36, 100]),
   midi.NoteOffEvent(tick=353300, channel=0, data=[36, 0]),
   midi.NoteOnEvent(tick=353400, channel=0, data=[36, 100]),
   midi.NoteOffEvent(tick=353500, channel=0, data=[36, 0]),
   midi.NoteOnEvent(tick=353600, channel=0, data=[36, 100]),
   midi.NoteOffEvent(tick=353700, channel=0, data=[36, 0]),
   midi.NoteOnEvent(tick=353800, channel=0, data=[19, 100]),
   midi.NoteOffEvent(tick=353900, channel=0, data=[19, 0]),
   midi.NoteOnEvent(tick=354000, channel=0, data=[7, 100]),
   midi.NoteOffEvent(tick=354100, channel=0, data=[7, 0]),
   midi.NoteOnEvent(tick=354200, channel=0, data=[4, 100]),
   midi.NoteOffEvent(tick=354300, channel=0, data=[4, 0]),
   midi.NoteOnEvent(tick=354400, channel=0, data=[36, 100]),
   midi.NoteOffEvent(tick=354500, channel=0, data=[36, 0]),
   midi.NoteOnEvent(tick=354600, channel=0, data=[0, 100]),
   midi.NoteOffEvent(tick=354700, channel=0, data=[0, 0]),
   midi.NoteOnEvent(tick=354800, channel=0, data=[18, 100]),
   midi.NoteOffEvent(tick=354900, channel=0, data=[18, 0]),
   midi.NoteOnEvent(tick=355000, channel=0, data=[18, 100]),
   midi.NoteOffEvent(tick=355100, channel=0, data=[18, 0]),
   midi.NoteOnEvent(tick=355200, channel=0, data=[8, 100]),
   midi.NoteOffEvent(tick=355300, channel=0, data=[8, 0]),
   midi.NoteOnEvent(tick=355400, channel=0, data=[6, 100]),
   midi.NoteOffEvent(tick=355500, channel=0, data=[6, 0]),
   midi.NoteOnEvent(tick=355600, channel=0, data=[13, 100]),
   midi.NoteOffEvent(tick=355700, channel=0, data=[13, 0]),
   midi.NoteOnEvent(tick=355800, channel=0, data=[0, 100]),
   midi.NoteOffEvent(tick=355900, channel=0, data=[0, 0]),
   midi.NoteOnEvent(tick=356000, channel=0, data=[1, 100]),
   midi.NoteOffEvent(tick=356100, channel=0, data=[1, 0]),
   midi.NoteOnEvent(tick=356200, channel=0, data=[11, 100]),
   midi.NoteOffEvent(tick=356300, channel=0, data=[11, 0]),
   midi.NoteOnEvent(tick=356400, channel=0, data=[4, 100]),
   midi.NoteOffEvent(tick=356500, channel=0, data=[4, 0]),
   midi.NoteOnEvent(tick=356600, channel=0, data=[36, 100]),
   midi.NoteOffEvent(tick=356700, channel=0, data=[36, 0]),
   midi.NoteOnEvent(tick=356800, channel=0, data=[4, 100]),
   midi.NoteOffEvent(tick=356900, channel=0, data=[4, 0]),
   midi.NoteOnEvent(tick=357000, channel=0, data=[23, 100]),
   midi.NoteOffEvent(tick=357100, channel=0, data=[23, 0]),
   midi.NoteOnEvent(tick=357200, channel=0, data=[15, 100]),
   midi.NoteOffEvent(tick=357300, channel=0, data=[15, 0]),
   midi.NoteOnEvent(tick=357400, channel=0, data=[17, 100]),
   midi.NoteOffEvent(tick=357500, channel=0, data=[17, 0]),
   midi.NoteOnEvent(tick=357600, channel=0, data=[4, 100]),
   midi.NoteOffEvent(tick=357700, channel=0, data=[4, 0]),
   midi.NoteOnEvent(tick=357800, channel=0, data=[18, 100]),
   midi.NoteOffEvent(tick=357900, channel=0, data=[18, 0]),
   midi.NoteOnEvent(tick=358000, channel=0, data=[18, 100]),
   midi.NoteOffEvent(tick=358100, channel=0, data=[18, 0]),
   midi.NoteOnEvent(tick=358200, channel=0, data=[8, 100]),
   midi.NoteOffEvent(tick=358300, channel=0, data=[8, 0]),
   midi.NoteOnEvent(tick=358400, channel=0, data=[14, 100]),
   midi.NoteOffEvent(tick=358500, channel=0, data=[14, 0]),
   midi.NoteOnEvent(tick=358600, channel=0, data=[13, 100]),
   midi.NoteOffEvent(tick=358700, channel=0, data=[13, 0]),
   midi.NoteOnEvent(tick=358800, channel=0, data=[36, 100]),
   midi.NoteOffEvent(tick=358900, channel=0, data=[36, 0]),
   midi.NoteOnEvent(tick=359000, channel=0, data=[12, 100]),
   midi.NoteOffEvent(tick=359100, channel=0, data=[12, 0]),
   midi.NoteOnEvent(tick=359200, channel=0, data=[20, 100]),
   midi.NoteOffEvent(tick=359300, channel=0, data=[20, 0]),
   midi.NoteOnEvent(tick=359400, channel=0, data=[18, 100]),
   midi.NoteOffEvent(tick=359500, channel=0, data=[18, 0]),
   midi.NoteOnEvent(tick=359600, channel=0, data=[19, 100]),
   midi.NoteOffEvent(tick=359700, channel=0, data=[19, 0]),
   midi.NoteOnEvent(tick=359800, channel=0, data=[36, 100]),
   midi.NoteOffEvent(tick=359900, channel=0, data=[36, 0]),
   midi.NoteOnEvent(tick=360000, channel=0, data=[0, 100]),
   midi.NoteOffEvent(tick=360100, channel=0, data=[0, 0]),
   midi.NoteOnEvent(tick=360200, channel=0, data=[36, 100]),
   midi.NoteOffEvent(tick=360300, channel=0, data=[36, 0]),
   midi.NoteOnEvent(tick=360400, channel=0, data=[13, 100]),
   midi.NoteOffEvent(tick=360500, channel=0, data=[13, 0]),
   midi.NoteOnEvent(tick=360600, channel=0, data=[20, 100]),
   midi.NoteOffEvent(tick=360700, channel=0, data=[20, 0]),
   midi.NoteOnEvent(tick=360800, channel=0, data=[12, 100]),
   midi.NoteOffEvent(tick=360900, channel=0, data=[12, 0]),
   midi.NoteOnEvent(tick=361000, channel=0, data=[1, 100]),
   midi.NoteOffEvent(tick=361100, channel=0, data=[1, 0]),
   midi.NoteOnEvent(tick=361200, channel=0, data=[4, 100]),
   midi.NoteOffEvent(tick=361300, channel=0, data=[4, 0]),
   midi.NoteOnEvent(tick=361400, channel=0, data=[17, 100]),
   midi.NoteOffEvent(tick=361500, channel=0, data=[17, 0]),
   midi.NoteOnEvent(tick=361600, channel=0, data=[36, 100]),
   midi.NoteOffEvent(tick=361700, channel=0, data=[36, 0]),
   midi.NoteOnEvent(tick=361800, channel=0, data=[14, 100]),
   midi.NoteOffEvent(tick=361900, channel=0, data=[14, 0]),
   midi.NoteOnEvent(tick=362000, channel=0, data=[17, 100]),
   midi.NoteOffEvent(tick=362100, channel=0, data=[17, 0]),
   midi.NoteOnEvent(tick=362200, channel=0, data=[36, 100]),
   midi.NoteOffEvent(tick=362300, channel=0, data=[36, 0]),
   midi.NoteOnEvent(tick=362400, channel=0, data=[8, 100]),
   midi.NoteOffEvent(tick=362500, channel=0, data=[8, 0]),
   midi.NoteOnEvent(tick=362600, channel=0, data=[19, 100]),
   midi.NoteOffEvent(tick=362700, channel=0, data=[19, 0]),
   midi.NoteOnEvent(tick=362800, channel=0, data=[36, 100]),
   midi.NoteOffEvent(tick=362900, channel=0, data=[36, 0]),
   midi.NoteOnEvent(tick=363000, channel=0, data=[12, 100]),
   midi.NoteOffEvent(tick=363100, channel=0, data=[12, 0]),
   midi.NoteOnEvent(tick=363200, channel=0, data=[20, 100]),
   midi.NoteOffEvent(tick=363300, channel=0, data=[20, 0]),
   midi.NoteOnEvent(tick=363400, channel=0, data=[18, 100]),
   midi.NoteOffEvent(tick=363500, channel=0, data=[18, 0]),
   midi.NoteOnEvent(tick=363600, channel=0, data=[19, 100]),
   midi.NoteOffEvent(tick=363700, channel=0, data=[19, 0]),
   midi.NoteOnEvent(tick=363800, channel=0, data=[36, 100]),
   midi.NoteOffEvent(tick=363900, channel=0, data=[36, 0]),
   midi.NoteOnEvent(tick=364000, channel=0, data=[1, 100]),
   midi.NoteOffEvent(tick=364100, channel=0, data=[1, 0]),
   midi.NoteOnEvent(tick=364200, channel=0, data=[4, 100]),
   midi.NoteOffEvent(tick=364300, channel=0, data=[4, 0]),
   midi.NoteOnEvent(tick=364400, channel=0, data=[36, 100]),
   midi.NoteOffEvent(tick=364500, channel=0, data=[36, 0]),
   midi.NoteOnEvent(tick=364600, channel=0, data=[2, 100]),
   midi.NoteOffEvent(tick=364700, channel=0, data=[2, 0]),
   midi.NoteOnEvent(tick=364800, channel=0, data=[14, 100]),
   midi.NoteOffEvent(tick=364900, channel=0, data=[14, 0]),
   midi.NoteOnEvent(tick=365000, channel=0, data=[13, 100]),
   midi.NoteOffEvent(tick=365100, channel=0, data=[13, 0]),
   midi.NoteOnEvent(tick=365200, channel=0, data=[21, 100]),
   midi.NoteOffEvent(tick=365300, channel=0, data=[21, 0]),
   midi.NoteOnEvent(tick=365400, channel=0, data=[4, 100]),
   midi.NoteOffEvent(tick=365500, channel=0, data=[4, 0]),
   midi.NoteOnEvent(tick=365600, channel=0, data=[17, 100]),
   midi.NoteOffEvent(tick=365700, channel=0, data=[17, 0]),
   midi.NoteOnEvent(tick=365800, channel=0, data=[19, 100]),
   midi.NoteOffEvent(tick=365900, channel=0, data=[19, 0]),
   midi.NoteOnEvent(tick=366000, channel=0, data=[8, 100]),
   midi.NoteOffEvent(tick=366100, channel=0, data=[8, 0]),
   midi.NoteOnEvent(tick=366200, channel=0, data=[1, 100]),
   midi.NoteOffEvent(tick=366300, channel=0, data=[1, 0]),
   midi.NoteOnEvent(tick=366400, channel=0, data=[11, 100]),
   midi.NoteOffEvent(tick=366500, channel=0, data=[11, 0]),
   midi.NoteOnEvent(tick=366600, channel=0, data=[4, 100]),
   midi.NoteOffEvent(tick=366700, channel=0, data=[4, 0]),
   midi.NoteOnEvent(tick=366800, channel=0, data=[36, 100]),
   midi.NoteOffEvent(tick=366900, channel=0, data=[36, 0]),
   midi.NoteOnEvent(tick=367000, channel=0, data=[19, 100]),
   midi.NoteOffEvent(tick=367100, channel=0, data=[19, 0]),
   midi.NoteOnEvent(tick=367200, channel=0, data=[14, 100]),
   midi.NoteOffEvent(tick=367300, channel=0, data=[14, 0]),
   midi.NoteOnEvent(tick=367400, channel=0, data=[36, 100]),
   midi.NoteOffEvent(tick=367500, channel=0, data=[36, 0]),
   midi.NoteOnEvent(tick=367600, channel=0, data=[0, 100]),
   midi.NoteOffEvent(tick=367700, channel=0, data=[0, 0]),
   midi.NoteOnEvent(tick=367800, channel=0, data=[36, 100]),
   midi.NoteOffEvent(tick=367900, channel=0, data=[36, 0]),
   midi.NoteOnEvent(tick=368000, channel=0, data=[56, 100]),
   midi.NoteOffEvent(tick=368100, channel=0, data=[56, 0]),
   midi.NoteOnEvent(tick=368200, channel=0, data=[36, 100]),
   midi.NoteOffEvent(tick=368300, channel=0, data=[36, 0]),
   midi.NoteOnEvent(tick=368400, channel=0, data=[36, 100]),
   midi.NoteOffEvent(tick=368500, channel=0, data=[36, 0]),
   midi.NoteOnEvent(tick=368600, channel=0, data=[36, 100]),
   midi.NoteOffEvent(tick=368700, channel=0, data=[36, 0]),
   midi.NoteOnEvent(tick=368800, channel=0, data=[36, 100]),
   midi.NoteOffEvent(tick=368900, channel=0, data=[36, 0]),
   midi.NoteOnEvent(tick=369000, channel=0, data=[13, 100]),
   midi.NoteOffEvent(tick=369100, channel=0, data=[13, 0]),
   midi.NoteOnEvent(tick=369200, channel=0, data=[20, 100]),
   midi.NoteOffEvent(tick=369300, channel=0, data=[20, 0]),
   midi.NoteOnEvent(tick=369400, channel=0, data=[12, 100]),
   midi.NoteOffEvent(tick=369500, channel=0, data=[12, 0]),
   midi.NoteOnEvent(tick=369600, channel=0, data=[1, 100]),
   midi.NoteOffEvent(tick=369700, channel=0, data=[1, 0]),
   midi.NoteOnEvent(tick=369800, channel=0, data=[4, 100]),
   midi.NoteOffEvent(tick=369900, channel=0, data=[4, 0]),
   midi.NoteOnEvent(tick=370000, channel=0, data=[17, 100]),
   midi.NoteOffEvent(tick=370100, channel=0, data=[17, 0]),
   midi.NoteOnEvent(tick=370200, channel=0, data=[37, 100]),
   midi.NoteOffEvent(tick=370300, channel=0, data=[37, 0]),
   midi.NoteOnEvent(tick=370400, channel=0, data=[56, 100]),
   midi.NoteOffEvent(tick=370500, channel=0, data=[56, 0]),
   midi.NoteOnEvent(tick=370600, channel=0, data=[56, 100]),
   midi.NoteOffEvent(tick=370700, channel=0, data=[56, 0]),
   midi.NoteOnEvent(tick=370800, channel=0, data=[56, 100]),
   midi.NoteOffEvent(tick=370900, channel=0, data=[56, 0]),
   midi.NoteOnEvent(tick=371000, channel=0, data=[36, 100]),
   midi.NoteOffEvent(tick=371100, channel=0, data=[36, 0]),
   midi.NoteOnEvent(tick=371200, channel=0, data=[36, 100]),
   midi.NoteOffEvent(tick=371300, channel=0, data=[36, 0]),
   midi.NoteOnEvent(tick=371400, channel=0, data=[0, 100]),
   midi.NoteOffEvent(tick=371500, channel=0, data=[0, 0]),
   midi.NoteOnEvent(tick=371600, channel=0, data=[18, 100]),
   midi.NoteOffEvent(tick=371700, channel=0, data=[18, 0]),
   midi.NoteOnEvent(tick=371800, channel=0, data=[18, 100]),
   midi.NoteOffEvent(tick=371900, channel=0, data=[18, 0]),
   midi.NoteOnEvent(tick=372000, channel=0, data=[8, 100]),
   midi.NoteOffEvent(tick=372100, channel=0, data=[8, 0]),
   midi.NoteOnEvent(tick=372200, channel=0, data=[6, 100]),
   midi.NoteOffEvent(tick=372300, channel=0, data=[6, 0]),
   midi.NoteOnEvent(tick=372400, channel=0, data=[13, 100]),
   midi.NoteOffEvent(tick=372500, channel=0, data=[13, 0]),
   midi.NoteOnEvent(tick=372600, channel=0, data=[8, 100]),
   midi.NoteOffEvent(tick=372700, channel=0, data=[8, 0]),
   midi.NoteOnEvent(tick=372800, channel=0, data=[13, 100]),
   midi.NoteOffEvent(tick=372900, channel=0, data=[13, 0]),
   midi.NoteOnEvent(tick=373000, channel=0, data=[6, 100]),
   midi.NoteOffEvent(tick=373100, channel=0, data=[6, 0]),
   midi.NoteOnEvent(tick=373200, channel=0, data=[36, 100]),
   midi.NoteOffEvent(tick=373300, channel=0, data=[36, 0]),
   midi.NoteOnEvent(tick=373400, channel=0, data=[21, 100]),
   midi.NoteOffEvent(tick=373500, channel=0, data=[21, 0]),
   midi.NoteOnEvent(tick=373600, channel=0, data=[0, 100]),
   midi.NoteOffEvent(tick=373700, channel=0, data=[0, 0]),
   midi.NoteOnEvent(tick=373800, channel=0, data=[11, 100]),
   midi.NoteOffEvent(tick=373900, channel=0, data=[11, 0]),
   midi.NoteOnEvent(tick=374000, channel=0, data=[20, 100]),
   midi.NoteOffEvent(tick=374100, channel=0, data=[20, 0]),
   midi.NoteOnEvent(tick=374200, channel=0, data=[4, 100]),
   midi.NoteOffEvent(tick=374300, channel=0, data=[4, 0]),
   midi.NoteOnEvent(tick=374400, channel=0, data=[18, 100]),
   midi.NoteOffEvent(tick=374500, channel=0, data=[18, 0]),
   midi.NoteOnEvent(tick=374600, channel=0, data=[56, 100]),
   midi.NoteOffEvent(tick=374700, channel=0, data=[56, 0]),
   midi.NoteOnEvent(tick=374800, channel=0, data=[36, 100]),
   midi.NoteOffEvent(tick=374900, channel=0, data=[36, 0]),
   midi.NoteOnEvent(tick=375000, channel=0, data=[36, 100]),
   midi.NoteOffEvent(tick=375100, channel=0, data=[36, 0]),
   midi.NoteOnEvent(tick=375200, channel=0, data=[36, 100]),
   midi.NoteOffEvent(tick=375300, channel=0, data=[36, 0]),
   midi.NoteOnEvent(tick=375400, channel=0, data=[36, 100]),
   midi.NoteOffEvent(tick=375500, channel=0, data=[36, 0]),
   midi.NoteOnEvent(tick=375600, channel=0, data=[21, 100]),
   midi.NoteOffEvent(tick=375700, channel=0, data=[21, 0]),
   midi.NoteOnEvent(tick=375800, channel=0, data=[0, 100]),
   midi.NoteOffEvent(tick=375900, channel=0, data=[0, 0]),
   midi.NoteOnEvent(tick=376000, channel=0, data=[17, 100]),
   midi.NoteOffEvent(tick=376100, channel=0, data=[17, 0]),
   midi.NoteOnEvent(tick=376200, channel=0, data=[8, 100]),
   midi.NoteOffEvent(tick=376300, channel=0, data=[8, 0]),
   midi.NoteOnEvent(tick=376400, channel=0, data=[0, 100]),
   midi.NoteOffEvent(tick=376500, channel=0, data=[0, 0]),
   midi.NoteOnEvent(tick=376600, channel=0, data=[1, 100]),
   midi.NoteOffEvent(tick=376700, channel=0, data=[1, 0]),
   midi.NoteOnEvent(tick=376800, channel=0, data=[11, 100]),
   midi.NoteOffEvent(tick=376900, channel=0, data=[11, 0]),
   midi.NoteOnEvent(tick=377000, channel=0, data=[4, 100]),
   midi.NoteOffEvent(tick=377100, channel=0, data=[4, 0]),
   midi.NoteOnEvent(tick=377200, channel=0, data=[18, 100]),
   midi.NoteOffEvent(tick=377300, channel=0, data=[18, 0]),
   midi.NoteOnEvent(tick=377400, channel=0, data=[36, 100]),
   midi.NoteOffEvent(tick=377500, channel=0, data=[36, 0]),
   midi.NoteOnEvent(tick=377600, channel=0, data=[0, 100]),
   midi.NoteOffEvent(tick=377700, channel=0, data=[0, 0]),
   midi.NoteOnEvent(tick=377800, channel=0, data=[17, 100]),
   midi.NoteOffEvent(tick=377900, channel=0, data=[17, 0]),
   midi.NoteOnEvent(tick=378000, channel=0, data=[4, 100]),
   midi.NoteOffEvent(tick=378100, channel=0, data=[4, 0]),
   midi.NoteOnEvent(tick=378200, channel=0, data=[36, 100]),
   midi.NoteOffEvent(tick=378300, channel=0, data=[36, 0]),
   midi.NoteOnEvent(tick=378400, channel=0, data=[13, 100]),
   midi.NoteOffEvent(tick=378500, channel=0, data=[13, 0]),
   midi.NoteOnEvent(tick=378600, channel=0, data=[0, 100]),
   midi.NoteOffEvent(tick=378700, channel=0, data=[0, 0]),
   midi.NoteOnEvent(tick=378800, channel=0, data=[12, 100]),
   midi.NoteOffEvent(tick=378900, channel=0, data=[12, 0]),
   midi.NoteOnEvent(tick=379000, channel=0, data=[4, 100]),
   midi.NoteOffEvent(tick=379100, channel=0, data=[4, 0]),
   midi.NoteOnEvent(tick=379200, channel=0, data=[3, 100]),
   midi.NoteOffEvent(tick=379300, channel=0, data=[3, 0]),
   midi.NoteOnEvent(tick=379400, channel=0, data=[36, 100]),
   midi.NoteOffEvent(tick=379500, channel=0, data=[36, 0]),
   midi.NoteOnEvent(tick=379600, channel=0, data=[12, 100]),
   midi.NoteOffEvent(tick=379700, channel=0, data=[12, 0]),
   midi.NoteOnEvent(tick=379800, channel=0, data=[4, 100]),
   midi.NoteOffEvent(tick=379900, channel=0, data=[4, 0]),
   midi.NoteOnEvent(tick=380000, channel=0, data=[12, 100]),
   midi.NoteOffEvent(tick=380100, channel=0, data=[12, 0]),
   midi.NoteOnEvent(tick=380200, channel=0, data=[14, 100]),
   midi.NoteOffEvent(tick=380300, channel=0, data=[14, 0]),
   midi.NoteOnEvent(tick=380400, channel=0, data=[17, 100]),
   midi.NoteOffEvent(tick=380500, channel=0, data=[17, 0]),
   midi.NoteOnEvent(tick=380600, channel=0, data=[24, 100]),
   midi.NoteOffEvent(tick=380700, channel=0, data=[24, 0]),
   midi.NoteOnEvent(tick=380800, channel=0, data=[36, 100]),
   midi.NoteOffEvent(tick=380900, channel=0, data=[36, 0]),
   midi.NoteOnEvent(tick=381000, channel=0, data=[18, 100]),
   midi.NoteOffEvent(tick=381100, channel=0, data=[18, 0]),
   midi.NoteOnEvent(tick=381200, channel=0, data=[15, 100]),
   midi.NoteOffEvent(tick=381300, channel=0, data=[15, 0]),
   midi.NoteOnEvent(tick=381400, channel=0, data=[0, 100]),
   midi.NoteOffEvent(tick=381500, channel=0, data=[0, 0]),
   midi.NoteOnEvent(tick=381600, channel=0, data=[2, 100]),
   midi.NoteOffEvent(tick=381700, channel=0, data=[2, 0]),
   midi.NoteOnEvent(tick=381800, channel=0, data=[4, 100]),
   midi.NoteOffEvent(tick=381900, channel=0, data=[4, 0]),
   midi.NoteOnEvent(tick=382000, channel=0, data=[18, 100]),
   midi.NoteOffEvent(tick=382100, channel=0, data=[18, 0]),
   midi.NoteOnEvent(tick=382200, channel=0, data=[36, 100]),
   midi.NoteOffEvent(tick=382300, channel=0, data=[36, 0]),
   midi.NoteOnEvent(tick=382400, channel=0, data=[19, 100]),
   midi.NoteOffEvent(tick=382500, channel=0, data=[19, 0]),
   midi.NoteOnEvent(tick=382600, channel=0, data=[7, 100]),
   midi.NoteOffEvent(tick=382700, channel=0, data=[7, 0]),
   midi.NoteOnEvent(tick=382800, channel=0, data=[0, 100]),
   midi.NoteOffEvent(tick=382900, channel=0, data=[0, 0]),
   midi.NoteOnEvent(tick=383000, channel=0, data=[19, 100]),
   midi.NoteOffEvent(tick=383100, channel=0, data=[19, 0]),
   midi.NoteOnEvent(tick=383200, channel=0, data=[36, 100]),
   midi.NoteOffEvent(tick=383300, channel=0, data=[36, 0]),
   midi.NoteOnEvent(tick=383400, channel=0, data=[18, 100]),
   midi.NoteOffEvent(tick=383500, channel=0, data=[18, 0]),
   midi.NoteOnEvent(tick=383600, channel=0, data=[19, 100]),
   midi.NoteOffEvent(tick=383700, channel=0, data=[19, 0]),
   midi.NoteOnEvent(tick=383800, channel=0, data=[14, 100]),
   midi.NoteOffEvent(tick=383900, channel=0, data=[14, 0]),
   midi.NoteOnEvent(tick=384000, channel=0, data=[17, 100]),
   midi.NoteOffEvent(tick=384100, channel=0, data=[17, 0]),
   midi.NoteOnEvent(tick=384200, channel=0, data=[4, 100]),
   midi.NoteOffEvent(tick=384300, channel=0, data=[4, 0]),
   midi.NoteOnEvent(tick=384400, channel=0, data=[36, 100]),
   midi.NoteOffEvent(tick=384500, channel=0, data=[36, 0]),
   midi.NoteOnEvent(tick=384600, channel=0, data=[21, 100]),
   midi.NoteOffEvent(tick=384700, channel=0, data=[21, 0]),
   midi.NoteOnEvent(tick=384800, channel=0, data=[0, 100]),
   midi.NoteOffEvent(tick=384900, channel=0, data=[0, 0]),
   midi.NoteOnEvent(tick=385000, channel=0, data=[11, 100]),
   midi.NoteOffEvent(tick=385100, channel=0, data=[11, 0]),
   midi.NoteOnEvent(tick=385200, channel=0, data=[20, 100]),
   midi.NoteOffEvent(tick=385300, channel=0, data=[20, 0]),
   midi.NoteOnEvent(tick=385400, channel=0, data=[4, 100]),
   midi.NoteOffEvent(tick=385500, channel=0, data=[4, 0]),
   midi.NoteOnEvent(tick=385600, channel=0, data=[18, 100]),
   midi.NoteOffEvent(tick=385700, channel=0, data=[18, 0]),
   midi.NoteOnEvent(tick=385800, channel=0, data=[37, 100]),
   midi.NoteOffEvent(tick=385900, channel=0, data=[37, 0]),
   midi.NoteOnEvent(tick=386000, channel=0, data=[36, 100]),
   midi.NoteOffEvent(tick=386100, channel=0, data=[36, 0]),
   midi.NoteOnEvent(tick=386200, channel=0, data=[24, 100]),
   midi.NoteOffEvent(tick=386300, channel=0, data=[24, 0]),
   midi.NoteOnEvent(tick=386400, channel=0, data=[14, 100]),
   midi.NoteOffEvent(tick=386500, channel=0, data=[14, 0]),
   midi.NoteOnEvent(tick=386600, channel=0, data=[20, 100]),
   midi.NoteOffEvent(tick=386700, channel=0, data=[20, 0]),
   midi.NoteOnEvent(tick=386800, channel=0, data=[36, 100]),
   midi.NoteOffEvent(tick=386900, channel=0, data=[36, 0]),
   midi.NoteOnEvent(tick=387000, channel=0, data=[18, 100]),
   midi.NoteOffEvent(tick=387100, channel=0, data=[18, 0]),
   midi.NoteOnEvent(tick=387200, channel=0, data=[19, 100]),
   midi.NoteOffEvent(tick=387300, channel=0, data=[19, 0]),
   midi.NoteOnEvent(tick=387400, channel=0, data=[14, 100]),
   midi.NoteOffEvent(tick=387500, channel=0, data=[14, 0]),
   midi.NoteOnEvent(tick=387600, channel=0, data=[17, 100]),
   midi.NoteOffEvent(tick=387700, channel=0, data=[17, 0]),
   midi.NoteOnEvent(tick=387800, channel=0, data=[4, 100]),
   midi.NoteOffEvent(tick=387900, channel=0, data=[4, 0]),
   midi.NoteOnEvent(tick=388000, channel=0, data=[36, 100]),
   midi.NoteOffEvent(tick=388100, channel=0, data=[36, 0]),
   midi.NoteOnEvent(tick=388200, channel=0, data=[19, 100]),
   midi.NoteOffEvent(tick=388300, channel=0, data=[19, 0]),
   midi.NoteOnEvent(tick=388400, channel=0, data=[7, 100]),
   midi.NoteOffEvent(tick=388500, channel=0, data=[7, 0]),
   midi.NoteOnEvent(tick=388600, channel=0, data=[4, 100]),
   midi.NoteOffEvent(tick=388700, channel=0, data=[4, 0]),
   midi.NoteOnEvent(tick=388800, channel=0, data=[36, 100]),
   midi.NoteOffEvent(tick=388900, channel=0, data=[36, 0]),
   midi.NoteOnEvent(tick=389000, channel=0, data=[21, 100]),
   midi.NoteOffEvent(tick=389100, channel=0, data=[21, 0]),
   midi.NoteOnEvent(tick=389200, channel=0, data=[0, 100]),
   midi.NoteOffEvent(tick=389300, channel=0, data=[0, 0]),
   midi.NoteOnEvent(tick=389400, channel=0, data=[11, 100]),
   midi.NoteOffEvent(tick=389500, channel=0, data=[11, 0]),
   midi.NoteOnEvent(tick=389600, channel=0, data=[20, 100]),
   midi.NoteOffEvent(tick=389700, channel=0, data=[20, 0]),
   midi.NoteOnEvent(tick=389800, channel=0, data=[4, 100]),
   midi.NoteOffEvent(tick=389900, channel=0, data=[4, 0]),
   midi.NoteOnEvent(tick=390000, channel=0, data=[18, 100]),
   midi.NoteOffEvent(tick=390100, channel=0, data=[18, 0]),
   midi.NoteOnEvent(tick=390200, channel=0, data=[56, 100]),
   midi.NoteOffEvent(tick=390300, channel=0, data=[56, 0]),
   midi.NoteOnEvent(tick=390400, channel=0, data=[36, 100]),
   midi.NoteOffEvent(tick=390500, channel=0, data=[36, 0]),
   midi.NoteOnEvent(tick=390600, channel=0, data=[36, 100]),
   midi.NoteOffEvent(tick=390700, channel=0, data=[36, 0]),
   midi.NoteOnEvent(tick=390800, channel=0, data=[36, 100]),
   midi.NoteOffEvent(tick=390900, channel=0, data=[36, 0]),
   midi.NoteOnEvent(tick=391000, channel=0, data=[36, 100]),
   midi.NoteOffEvent(tick=391100, channel=0, data=[36, 0]),
   midi.NoteOnEvent(tick=391200, channel=0, data=[8, 100]),
   midi.NoteOffEvent(tick=391300, channel=0, data=[8, 0]),
   midi.NoteOnEvent(tick=391400, channel=0, data=[13, 100]),
   midi.NoteOffEvent(tick=391500, channel=0, data=[13, 0]),
   midi.NoteOnEvent(tick=391600, channel=0, data=[36, 100]),
   midi.NoteOffEvent(tick=391700, channel=0, data=[36, 0]),
   midi.NoteOnEvent(tick=391800, channel=0, data=[21, 100]),
   midi.NoteOffEvent(tick=391900, channel=0, data=[21, 0]),
   midi.NoteOnEvent(tick=392000, channel=0, data=[0, 100]),
   midi.NoteOffEvent(tick=392100, channel=0, data=[0, 0]),
   midi.NoteOnEvent(tick=392200, channel=0, data=[17, 100]),
   midi.NoteOffEvent(tick=392300, channel=0, data=[17, 0]),
   midi.NoteOnEvent(tick=392400, channel=0, data=[8, 100]),
   midi.NoteOffEvent(tick=392500, channel=0, data=[8, 0]),
   midi.NoteOnEvent(tick=392600, channel=0, data=[0, 100]),
   midi.NoteOffEvent(tick=392700, channel=0, data=[0, 0]),
   midi.NoteOnEvent(tick=392800, channel=0, data=[1, 100]),
   midi.NoteOffEvent(tick=392900, channel=0, data=[1, 0]),
   midi.NoteOnEvent(tick=393000, channel=0, data=[11, 100]),
   midi.NoteOffEvent(tick=393100, channel=0, data=[11, 0]),
   midi.NoteOnEvent(tick=393200, channel=0, data=[4, 100]),
   midi.NoteOffEvent(tick=393300, channel=0, data=[4, 0]),
   midi.NoteOnEvent(tick=393400, channel=0, data=[18, 100]),
   midi.NoteOffEvent(tick=393500, channel=0, data=[18, 0]),
   midi.NoteOnEvent(tick=393600, channel=0, data=[36, 100]),
   midi.NoteOffEvent(tick=393700, channel=0, data=[36, 0]),
   midi.NoteOnEvent(tick=393800, channel=0, data=[1, 100]),
   midi.NoteOffEvent(tick=393900, channel=0, data=[1, 0]),
   midi.NoteOnEvent(tick=394000, channel=0, data=[24, 100]),
   midi.NoteOffEvent(tick=394100, channel=0, data=[24, 0]),
   midi.NoteOnEvent(tick=394200, channel=0, data=[36, 100]),
   midi.NoteOffEvent(tick=394300, channel=0, data=[36, 0]),
   midi.NoteOnEvent(tick=394400, channel=0, data=[20, 100]),
   midi.NoteOffEvent(tick=394500, channel=0, data=[20, 0]),
   midi.NoteOnEvent(tick=394600, channel=0, data=[18, 100]),
   midi.NoteOffEvent(tick=394700, channel=0, data=[18, 0]),
   midi.NoteOnEvent(tick=394800, channel=0, data=[8, 100]),
   midi.NoteOffEvent(tick=394900, channel=0, data=[8, 0]),
   midi.NoteOnEvent(tick=395000, channel=0, data=[13, 100]),
   midi.NoteOffEvent(tick=395100, channel=0, data=[13, 0]),
   midi.NoteOnEvent(tick=395200, channel=0, data=[6, 100]),
   midi.NoteOffEvent(tick=395300, channel=0, data=[6, 0]),
   midi.NoteOnEvent(tick=395400, channel=0, data=[36, 100]),
   midi.NoteOffEvent(tick=395500, channel=0, data=[36, 0]),
   midi.NoteOnEvent(tick=395600, channel=0, data=[19, 100]),
   midi.NoteOffEvent(tick=395700, channel=0, data=[19, 0]),
   midi.NoteOnEvent(tick=395800, channel=0, data=[7, 100]),
   midi.NoteOffEvent(tick=395900, channel=0, data=[7, 0]),
   midi.NoteOnEvent(tick=396000, channel=0, data=[4, 100]),
   midi.NoteOffEvent(tick=396100, channel=0, data=[4, 0]),
   midi.NoteOnEvent(tick=396200, channel=0, data=[36, 100]),
   midi.NoteOffEvent(tick=396300, channel=0, data=[36, 0]),
   midi.NoteOnEvent(tick=396400, channel=0, data=[0, 100]),
   midi.NoteOffEvent(tick=396500, channel=0, data=[0, 0]),
   midi.NoteOnEvent(tick=396600, channel=0, data=[18, 100]),
   midi.NoteOffEvent(tick=396700, channel=0, data=[18, 0]),
   midi.NoteOnEvent(tick=396800, channel=0, data=[18, 100]),
   midi.NoteOffEvent(tick=396900, channel=0, data=[18, 0]),
   midi.NoteOnEvent(tick=397000, channel=0, data=[8, 100]),
   midi.NoteOffEvent(tick=397100, channel=0, data=[8, 0]),
   midi.NoteOnEvent(tick=397200, channel=0, data=[6, 100]),
   midi.NoteOffEvent(tick=397300, channel=0, data=[6, 0]),
   midi.NoteOnEvent(tick=397400, channel=0, data=[13, 100]),
   midi.NoteOffEvent(tick=397500, channel=0, data=[13, 0]),
   midi.NoteOnEvent(tick=397600, channel=0, data=[12, 100]),
   midi.NoteOffEvent(tick=397700, channel=0, data=[12, 0]),
   midi.NoteOnEvent(tick=397800, channel=0, data=[4, 100]),
   midi.NoteOffEvent(tick=397900, channel=0, data=[4, 0]),
   midi.NoteOnEvent(tick=398000, channel=0, data=[13, 100]),
   midi.NoteOffEvent(tick=398100, channel=0, data=[13, 0]),
   midi.NoteOnEvent(tick=398200, channel=0, data=[19, 100]),
   midi.NoteOffEvent(tick=398300, channel=0, data=[19, 0]),
   midi.NoteOnEvent(tick=398400, channel=0, data=[36, 100]),
   midi.NoteOffEvent(tick=398500, channel=0, data=[36, 0]),
   midi.NoteOnEvent(tick=398600, channel=0, data=[14, 100]),
   midi.NoteOffEvent(tick=398700, channel=0, data=[14, 0]),
   midi.NoteOnEvent(tick=398800, channel=0, data=[15, 100]),
   midi.NoteOffEvent(tick=398900, channel=0, data=[15, 0]),
   midi.NoteOnEvent(tick=399000, channel=0, data=[4, 100]),
   midi.NoteOffEvent(tick=399100, channel=0, data=[4, 0]),
   midi.NoteOnEvent(tick=399200, channel=0, data=[17, 100]),
   midi.NoteOffEvent(tick=399300, channel=0, data=[17, 0]),
   midi.NoteOnEvent(tick=399400, channel=0, data=[0, 100]),
   midi.NoteOffEvent(tick=399500, channel=0, data=[0, 0]),
   midi.NoteOnEvent(tick=399600, channel=0, data=[19, 100]),
   midi.NoteOffEvent(tick=399700, channel=0, data=[19, 0]),
   midi.NoteOnEvent(tick=399800, channel=0, data=[14, 100]),
   midi.NoteOffEvent(tick=399900, channel=0, data=[14, 0]),
   midi.NoteOnEvent(tick=400000, channel=0, data=[17, 100]),
   midi.NoteOffEvent(tick=400100, channel=0, data=[17, 0]),
   midi.NoteOnEvent(tick=400200, channel=0, data=[36, 100]),
   midi.NoteOffEvent(tick=400300, channel=0, data=[36, 0]),
   midi.NoteOnEvent(tick=400400, channel=0, data=[49, 100]),
   midi.NoteOffEvent(tick=400500, channel=0, data=[49, 0]),
   midi.NoteOnEvent(tick=400600, channel=0, data=[69, 100]),
   midi.NoteOffEvent(tick=400700, channel=0, data=[69, 0]),
   midi.NoteOnEvent(tick=400800, channel=0, data=[50, 100]),
   midi.NoteOffEvent(tick=400900, channel=0, data=[50, 0]),
   midi.NoteOnEvent(tick=401000, channel=0, data=[37, 100]),
   midi.NoteOffEvent(tick=401100, channel=0, data=[37, 0]),
   midi.NoteOnEvent(tick=401200, channel=0, data=[36, 100]),
   midi.NoteOffEvent(tick=401300, channel=0, data=[36, 0]),
   midi.NoteOnEvent(tick=401400, channel=0, data=[19, 100]),
   midi.NoteOffEvent(tick=401500, channel=0, data=[19, 0]),
   midi.NoteOnEvent(tick=401600, channel=0, data=[7, 100]),
   midi.NoteOffEvent(tick=401700, channel=0, data=[7, 0]),
   midi.NoteOnEvent(tick=401800, channel=0, data=[4, 100]),
   midi.NoteOffEvent(tick=401900, channel=0, data=[4, 0]),
   midi.NoteOnEvent(tick=402000, channel=0, data=[36, 100]),
   midi.NoteOffEvent(tick=402100, channel=0, data=[36, 0]),
   midi.NoteOnEvent(tick=402200, channel=0, data=[13, 100]),
   midi.NoteOffEvent(tick=402300, channel=0, data=[13, 0]),
   midi.NoteOnEvent(tick=402400, channel=0, data=[4, 100]),
   midi.NoteOffEvent(tick=402500, channel=0, data=[4, 0]),
   midi.NoteOnEvent(tick=402600, channel=0, data=[22, 100]),
   midi.NoteOffEvent(tick=402700, channel=0, data=[22, 0]),
   midi.NoteOnEvent(tick=402800, channel=0, data=[36, 100]),
   midi.NoteOffEvent(tick=402900, channel=0, data=[36, 0]),
   midi.NoteOnEvent(tick=403000, channel=0, data=[21, 100]),
   midi.NoteOffEvent(tick=403100, channel=0, data=[21, 0]),
   midi.NoteOnEvent(tick=403200, channel=0, data=[0, 100]),
   midi.NoteOffEvent(tick=403300, channel=0, data=[0, 0]),
   midi.NoteOnEvent(tick=403400, channel=0, data=[11, 100]),
   midi.NoteOffEvent(tick=403500, channel=0, data=[11, 0]),
   midi.NoteOnEvent(tick=403600, channel=0, data=[20, 100]),
   midi.NoteOffEvent(tick=403700, channel=0, data=[20, 0]),
   midi.NoteOnEvent(tick=403800, channel=0, data=[4, 100]),
   midi.NoteOffEvent(tick=403900, channel=0, data=[4, 0]),
   midi.NoteOnEvent(tick=404000, channel=0, data=[36, 100]),
   midi.NoteOffEvent(tick=404100, channel=0, data=[36, 0]),
   midi.NoteOnEvent(tick=404200, channel=0, data=[2, 100]),
   midi.NoteOffEvent(tick=404300, channel=0, data=[2, 0]),
   midi.NoteOnEvent(tick=404400, channel=0, data=[0, 100]),
   midi.NoteOffEvent(tick=404500, channel=0, data=[0, 0]),
   midi.NoteOnEvent(tick=404600, channel=0, data=[13, 100]),
   midi.NoteOffEvent(tick=404700, channel=0, data=[13, 0]),
   midi.NoteOnEvent(tick=404800, channel=0, data=[56, 100]),
   midi.NoteOffEvent(tick=404900, channel=0, data=[56, 0]),
   midi.NoteOnEvent(tick=405000, channel=0, data=[36, 100]),
   midi.NoteOffEvent(tick=405100, channel=0, data=[36, 0]),
   midi.NoteOnEvent(tick=405200, channel=0, data=[36, 100]),
   midi.NoteOffEvent(tick=405300, channel=0, data=[36, 0]),
   midi.NoteOnEvent(tick=405400, channel=0, data=[36, 100]),
   midi.NoteOffEvent(tick=405500, channel=0, data=[36, 0]),
   midi.NoteOnEvent(tick=405600, channel=0, data=[36, 100]),
   midi.NoteOffEvent(tick=405700, channel=0, data=[36, 0]),
   midi.NoteOnEvent(tick=405800, channel=0, data=[17, 100]),
   midi.NoteOffEvent(tick=405900, channel=0, data=[17, 0]),
   midi.NoteOnEvent(tick=406000, channel=0, data=[4, 100]),
   midi.NoteOffEvent(tick=406100, channel=0, data=[4, 0]),
   midi.NoteOnEvent(tick=406200, channel=0, data=[15, 100]),
   midi.NoteOffEvent(tick=406300, channel=0, data=[15, 0]),
   midi.NoteOnEvent(tick=406400, channel=0, data=[11, 100]),
   midi.NoteOffEvent(tick=406500, channel=0, data=[11, 0]),
   midi.NoteOnEvent(tick=406600, channel=0, data=[0, 100]),
   midi.NoteOffEvent(tick=406700, channel=0, data=[0, 0]),
   midi.NoteOnEvent(tick=406800, channel=0, data=[2, 100]),
   midi.NoteOffEvent(tick=406900, channel=0, data=[2, 0]),
   midi.NoteOnEvent(tick=407000, channel=0, data=[4, 100]),
   midi.NoteOffEvent(tick=407100, channel=0, data=[4, 0]),
   midi.NoteOnEvent(tick=407200, channel=0, data=[36, 100]),
   midi.NoteOffEvent(tick=407300, channel=0, data=[36, 0]),
   midi.NoteOnEvent(tick=407400, channel=0, data=[19, 100]),
   midi.NoteOffEvent(tick=407500, channel=0, data=[19, 0]),
   midi.NoteOnEvent(tick=407600, channel=0, data=[7, 100]),
   midi.NoteOffEvent(tick=407700, channel=0, data=[7, 0]),
   midi.NoteOnEvent(tick=407800, channel=0, data=[4, 100]),
   midi.NoteOffEvent(tick=407900, channel=0, data=[4, 0]),
   midi.NoteOnEvent(tick=408000, channel=0, data=[36, 100]),
   midi.NoteOffEvent(tick=408100, channel=0, data=[36, 0]),
   midi.NoteOnEvent(tick=408200, channel=0, data=[4, 100]),
   midi.NoteOffEvent(tick=408300, channel=0, data=[4, 0]),
   midi.NoteOnEvent(tick=408400, channel=0, data=[23, 100]),
   midi.NoteOffEvent(tick=408500, channel=0, data=[23, 0]),
   midi.NoteOnEvent(tick=408600, channel=0, data=[8, 100]),
   midi.NoteOffEvent(tick=408700, channel=0, data=[8, 0]),
   midi.NoteOnEvent(tick=408800, channel=0, data=[18, 100]),
   midi.NoteOffEvent(tick=408900, channel=0, data=[18, 0]),
   midi.NoteOnEvent(tick=409000, channel=0, data=[19, 100]),
   midi.NoteOffEvent(tick=409100, channel=0, data=[19, 0]),
   midi.NoteOnEvent(tick=409200, channel=0, data=[8, 100]),
   midi.NoteOffEvent(tick=409300, channel=0, data=[8, 0]),
   midi.NoteOnEvent(tick=409400, channel=0, data=[13, 100]),
   midi.NoteOffEvent(tick=409500, channel=0, data=[13, 0]),
   midi.NoteOnEvent(tick=409600, channel=0, data=[6, 100]),
   midi.NoteOffEvent(tick=409700, channel=0, data=[6, 0]),
   midi.NoteOnEvent(tick=409800, channel=0, data=[36, 100]),
   midi.NoteOffEvent(tick=409900, channel=0, data=[36, 0]),
   midi.NoteOnEvent(tick=410000, channel=0, data=[21, 100]),
   midi.NoteOffEvent(tick=410100, channel=0, data=[21, 0]),
   midi.NoteOnEvent(tick=410200, channel=0, data=[0, 100]),
   midi.NoteOffEvent(tick=410300, channel=0, data=[0, 0]),
   midi.NoteOnEvent(tick=410400, channel=0, data=[11, 100]),
   midi.NoteOffEvent(tick=410500, channel=0, data=[11, 0]),
   midi.NoteOnEvent(tick=410600, channel=0, data=[20, 100]),
   midi.NoteOffEvent(tick=410700, channel=0, data=[20, 0]),
   midi.NoteOnEvent(tick=410800, channel=0, data=[4, 100]),
   midi.NoteOffEvent(tick=410900, channel=0, data=[4, 0]),
   midi.NoteOnEvent(tick=411000, channel=0, data=[36, 100]),
   midi.NoteOffEvent(tick=411100, channel=0, data=[36, 0]),
   midi.NoteOnEvent(tick=411200, channel=0, data=[14, 100]),
   midi.NoteOffEvent(tick=411300, channel=0, data=[14, 0]),
   midi.NoteOnEvent(tick=411400, channel=0, data=[5, 100]),
   midi.NoteOffEvent(tick=411500, channel=0, data=[5, 0]),
   midi.NoteOnEvent(tick=411600, channel=0, data=[36, 100]),
   midi.NoteOffEvent(tick=411700, channel=0, data=[36, 0]),
   midi.NoteOnEvent(tick=411800, channel=0, data=[19, 100]),
   midi.NoteOffEvent(tick=411900, channel=0, data=[19, 0]),
   midi.NoteOnEvent(tick=412000, channel=0, data=[7, 100]),
   midi.NoteOffEvent(tick=412100, channel=0, data=[7, 0]),
   midi.NoteOnEvent(tick=412200, channel=0, data=[4, 100]),
   midi.NoteOffEvent(tick=412300, channel=0, data=[4, 0]),
   midi.NoteOnEvent(tick=412400, channel=0, data=[36, 100]),
   midi.NoteOffEvent(tick=412500, channel=0, data=[36, 0]),
   midi.NoteOnEvent(tick=412600, channel=0, data=[21, 100]),
   midi.NoteOffEvent(tick=412700, channel=0, data=[21, 0]),
   midi.NoteOnEvent(tick=412800, channel=0, data=[0, 100]),
   midi.NoteOffEvent(tick=412900, channel=0, data=[0, 0]),
   midi.NoteOnEvent(tick=413000, channel=0, data=[17, 100]),
   midi.NoteOffEvent(tick=413100, channel=0, data=[17, 0]),
   midi.NoteOnEvent(tick=413200, channel=0, data=[8, 100]),
   midi.NoteOffEvent(tick=413300, channel=0, data=[8, 0]),
   midi.NoteOnEvent(tick=413400, channel=0, data=[0, 100]),
   midi.NoteOffEvent(tick=413500, channel=0, data=[0, 0]),
   midi.NoteOnEvent(tick=413600, channel=0, data=[1, 100]),
   midi.NoteOffEvent(tick=413700, channel=0, data=[1, 0]),
   midi.NoteOnEvent(tick=413800, channel=0, data=[11, 100]),
   midi.NoteOffEvent(tick=413900, channel=0, data=[11, 0]),
   midi.NoteOnEvent(tick=414000, channel=0, data=[4, 100]),
   midi.NoteOffEvent(tick=414100, channel=0, data=[4, 0]),
   midi.NoteOnEvent(tick=414200, channel=0, data=[38, 100]),
   midi.NoteOffEvent(tick=414300, channel=0, data=[38, 0]),
   midi.NoteOnEvent(tick=414400, channel=0, data=[36, 100]),
   midi.NoteOffEvent(tick=414500, channel=0, data=[36, 0]),
   midi.NoteOnEvent(tick=414600, channel=0, data=[14, 100]),
   midi.NoteOffEvent(tick=414700, channel=0, data=[14, 0]),
   midi.NoteOnEvent(tick=414800, channel=0, data=[17, 100]),
   midi.NoteOffEvent(tick=414900, channel=0, data=[17, 0]),
   midi.NoteOnEvent(tick=415000, channel=0, data=[36, 100]),
   midi.NoteOffEvent(tick=415100, channel=0, data=[36, 0]),
   midi.NoteOnEvent(tick=415200, channel=0, data=[24, 100]),
   midi.NoteOffEvent(tick=415300, channel=0, data=[24, 0]),
   midi.NoteOnEvent(tick=415400, channel=0, data=[14, 100]),
   midi.NoteOffEvent(tick=415500, channel=0, data=[14, 0]),
   midi.NoteOnEvent(tick=415600, channel=0, data=[20, 100]),
   midi.NoteOffEvent(tick=415700, channel=0, data=[20, 0]),
   midi.NoteOnEvent(tick=415800, channel=0, data=[36, 100]),
   midi.NoteOffEvent(tick=415900, channel=0, data=[36, 0]),
   midi.NoteOnEvent(tick=416000, channel=0, data=[2, 100]),
   midi.NoteOffEvent(tick=416100, channel=0, data=[2, 0]),
   midi.NoteOnEvent(tick=416200, channel=0, data=[0, 100]),
   midi.NoteOffEvent(tick=416300, channel=0, data=[0, 0]),
   midi.NoteOnEvent(tick=416400, channel=0, data=[13, 100]),
   midi.NoteOffEvent(tick=416500, channel=0, data=[13, 0]),
   midi.NoteOnEvent(tick=416600, channel=0, data=[36, 100]),
   midi.NoteOffEvent(tick=416700, channel=0, data=[36, 0]),
   midi.NoteOnEvent(tick=416800, channel=0, data=[0, 100]),
   midi.NoteOffEvent(tick=416900, channel=0, data=[0, 0]),
   midi.NoteOnEvent(tick=417000, channel=0, data=[15, 100]),
   midi.NoteOffEvent(tick=417100, channel=0, data=[15, 0]),
   midi.NoteOnEvent(tick=417200, channel=0, data=[15, 100]),
   midi.NoteOffEvent(tick=417300, channel=0, data=[15, 0]),
   midi.NoteOnEvent(tick=417400, channel=0, data=[4, 100]),
   midi.NoteOffEvent(tick=417500, channel=0, data=[4, 0]),
   midi.NoteOnEvent(tick=417600, channel=0, data=[13, 100]),
   midi.NoteOffEvent(tick=417700, channel=0, data=[13, 0]),
   midi.NoteOnEvent(tick=417800, channel=0, data=[3, 100]),
   midi.NoteOffEvent(tick=417900, channel=0, data=[3, 0]),
   midi.NoteOnEvent(tick=418000, channel=0, data=[36, 100]),
   midi.NoteOffEvent(tick=418100, channel=0, data=[36, 0]),
   midi.NoteOnEvent(tick=418200, channel=0, data=[0, 100]),
   midi.NoteOffEvent(tick=418300, channel=0, data=[0, 0]),
   midi.NoteOnEvent(tick=418400, channel=0, data=[36, 100]),
   midi.NoteOffEvent(tick=418500, channel=0, data=[36, 0]),
   midi.NoteOnEvent(tick=418600, channel=0, data=[13, 100]),
   midi.NoteOffEvent(tick=418700, channel=0, data=[13, 0]),
   midi.NoteOnEvent(tick=418800, channel=0, data=[4, 100]),
   midi.NoteOffEvent(tick=418900, channel=0, data=[4, 0]),
   midi.NoteOnEvent(tick=419000, channel=0, data=[22, 100]),
   midi.NoteOffEvent(tick=419100, channel=0, data=[22, 0]),
   midi.NoteOnEvent(tick=419200, channel=0, data=[36, 100]),
   midi.NoteOffEvent(tick=419300, channel=0, data=[36, 0]),
   midi.NoteOnEvent(tick=419400, channel=0, data=[21, 100]),
   midi.NoteOffEvent(tick=419500, channel=0, data=[21, 0]),
   midi.NoteOnEvent(tick=419600, channel=0, data=[0, 100]),
   midi.NoteOffEvent(tick=419700, channel=0, data=[0, 0]),
   midi.NoteOnEvent(tick=419800, channel=0, data=[11, 100]),
   midi.NoteOffEvent(tick=419900, channel=0, data=[11, 0]),
   midi.NoteOnEvent(tick=420000, channel=0, data=[20, 100]),
   midi.NoteOffEvent(tick=420100, channel=0, data=[20, 0]),
   midi.NoteOnEvent(tick=420200, channel=0, data=[4, 100]),
   midi.NoteOffEvent(tick=420300, channel=0, data=[4, 0]),
   midi.NoteOnEvent(tick=420400, channel=0, data=[56, 100]),
   midi.NoteOffEvent(tick=420500, channel=0, data=[56, 0]),
   midi.NoteOnEvent(tick=420600, channel=0, data=[36, 100]),
   midi.NoteOffEvent(tick=420700, channel=0, data=[36, 0]),
   midi.NoteOnEvent(tick=420800, channel=0, data=[36, 100]),
   midi.NoteOffEvent(tick=420900, channel=0, data=[36, 0]),
   midi.NoteOnEvent(tick=421000, channel=0, data=[36, 100]),
   midi.NoteOffEvent(tick=421100, channel=0, data=[36, 0]),
   midi.NoteOnEvent(tick=421200, channel=0, data=[36, 100]),
   midi.NoteOffEvent(tick=421300, channel=0, data=[36, 0]),
   midi.NoteOnEvent(tick=421400, channel=0, data=[19, 100]),
   midi.NoteOffEvent(tick=421500, channel=0, data=[19, 0]),
   midi.NoteOnEvent(tick=421600, channel=0, data=[14, 100]),
   midi.NoteOffEvent(tick=421700, channel=0, data=[14, 0]),
   midi.NoteOnEvent(tick=421800, channel=0, data=[36, 100]),
   midi.NoteOffEvent(tick=421900, channel=0, data=[36, 0]),
   midi.NoteOnEvent(tick=422000, channel=0, data=[19, 100]),
   midi.NoteOffEvent(tick=422100, channel=0, data=[19, 0]),
   midi.NoteOnEvent(tick=422200, channel=0, data=[7, 100]),
   midi.NoteOffEvent(tick=422300, channel=0, data=[7, 0]),
   midi.NoteOnEvent(tick=422400, channel=0, data=[4, 100]),
   midi.NoteOffEvent(tick=422500, channel=0, data=[4, 0]),
   midi.NoteOnEvent(tick=422600, channel=0, data=[36, 100]),
   midi.NoteOffEvent(tick=422700, channel=0, data=[36, 0]),
   midi.NoteOnEvent(tick=422800, channel=0, data=[4, 100]),
   midi.NoteOffEvent(tick=422900, channel=0, data=[4, 0]),
   midi.NoteOnEvent(tick=423000, channel=0, data=[23, 100]),
   midi.NoteOffEvent(tick=423100, channel=0, data=[23, 0]),
   midi.NoteOnEvent(tick=423200, channel=0, data=[8, 100]),
   midi.NoteOffEvent(tick=423300, channel=0, data=[8, 0]),
   midi.NoteOnEvent(tick=423400, channel=0, data=[18, 100]),
   midi.NoteOffEvent(tick=423500, channel=0, data=[18, 0]),
   midi.NoteOnEvent(tick=423600, channel=0, data=[19, 100]),
   midi.NoteOffEvent(tick=423700, channel=0, data=[19, 0]),
   midi.NoteOnEvent(tick=423800, channel=0, data=[8, 100]),
   midi.NoteOffEvent(tick=423900, channel=0, data=[8, 0]),
   midi.NoteOnEvent(tick=424000, channel=0, data=[13, 100]),
   midi.NoteOffEvent(tick=424100, channel=0, data=[13, 0]),
   midi.NoteOnEvent(tick=424200, channel=0, data=[6, 100]),
   midi.NoteOffEvent(tick=424300, channel=0, data=[6, 0]),
   midi.NoteOnEvent(tick=424400, channel=0, data=[36, 100]),
   midi.NoteOffEvent(tick=424500, channel=0, data=[36, 0]),
   midi.NoteOnEvent(tick=424600, channel=0, data=[21, 100]),
   midi.NoteOffEvent(tick=424700, channel=0, data=[21, 0]),
   midi.NoteOnEvent(tick=424800, channel=0, data=[0, 100]),
   midi.NoteOffEvent(tick=424900, channel=0, data=[0, 0]),
   midi.NoteOnEvent(tick=425000, channel=0, data=[11, 100]),
   midi.NoteOffEvent(tick=425100, channel=0, data=[11, 0]),
   midi.NoteOnEvent(tick=425200, channel=0, data=[20, 100]),
   midi.NoteOffEvent(tick=425300, channel=0, data=[20, 0]),
   midi.NoteOnEvent(tick=425400, channel=0, data=[4, 100]),
   midi.NoteOffEvent(tick=425500, channel=0, data=[4, 0]),
   midi.NoteOnEvent(tick=425600, channel=0, data=[37, 100]),
   midi.NoteOffEvent(tick=425700, channel=0, data=[37, 0]),
   midi.NoteOnEvent(tick=425800, channel=0, data=[56, 100]),
   midi.NoteOffEvent(tick=425900, channel=0, data=[56, 0]),
   midi.NoteOnEvent(tick=426000, channel=0, data=[56, 100]),
   midi.NoteOffEvent(tick=426100, channel=0, data=[56, 0]),
   midi.NoteOnEvent(tick=426200, channel=0, data=[56, 100]),
   midi.NoteOffEvent(tick=426300, channel=0, data=[56, 0]),
   midi.NoteOnEvent(tick=426400, channel=0, data=[36, 100]),
   midi.NoteOffEvent(tick=426500, channel=0, data=[36, 0]),
   midi.NoteOnEvent(tick=426600, channel=0, data=[36, 100]),
   midi.NoteOffEvent(tick=426700, channel=0, data=[36, 0]),
   midi.NoteOnEvent(tick=426800, channel=0, data=[36, 100]),
   midi.NoteOffEvent(tick=426900, channel=0, data=[36, 0]),
   midi.NoteOnEvent(tick=427000, channel=0, data=[36, 100]),
   midi.NoteOffEvent(tick=427100, channel=0, data=[36, 0]),
   midi.NoteOnEvent(tick=427200, channel=0, data=[19, 100]),
   midi.NoteOffEvent(tick=427300, channel=0, data=[19, 0]),
   midi.NoteOnEvent(tick=427400, channel=0, data=[7, 100]),
   midi.NoteOffEvent(tick=427500, channel=0, data=[7, 0]),
   midi.NoteOnEvent(tick=427600, channel=0, data=[4, 100]),
   midi.NoteOffEvent(tick=427700, channel=0, data=[4, 0]),
   midi.NoteOnEvent(tick=427800, channel=0, data=[36, 100]),
   midi.NoteOffEvent(tick=427900, channel=0, data=[36, 0]),
   midi.NoteOnEvent(tick=428000, channel=0, data=[1, 100]),
   midi.NoteOffEvent(tick=428100, channel=0, data=[1, 0]),
   midi.NoteOnEvent(tick=428200, channel=0, data=[0, 100]),
   midi.NoteOffEvent(tick=428300, channel=0, data=[0, 0]),
   midi.NoteOnEvent(tick=428400, channel=0, data=[18, 100]),
   midi.NoteOffEvent(tick=428500, channel=0, data=[18, 0]),
   midi.NoteOnEvent(tick=428600, channel=0, data=[8, 100]),
   midi.NoteOffEvent(tick=428700, channel=0, data=[8, 0]),
   midi.NoteOnEvent(tick=428800, channel=0, data=[2, 100]),
   midi.NoteOffEvent(tick=428900, channel=0, data=[2, 0]),
   midi.NoteOnEvent(tick=429000, channel=0, data=[36, 100]),
   midi.NoteOffEvent(tick=429100, channel=0, data=[36, 0]),
   midi.NoteOnEvent(tick=429200, channel=0, data=[0, 100]),
   midi.NoteOffEvent(tick=429300, channel=0, data=[0, 0]),
   midi.NoteOnEvent(tick=429400, channel=0, data=[18, 100]),
   midi.NoteOffEvent(tick=429500, channel=0, data=[18, 0]),
   midi.NoteOnEvent(tick=429600, channel=0, data=[18, 100]),
   midi.NoteOffEvent(tick=429700, channel=0, data=[18, 0]),
   midi.NoteOnEvent(tick=429800, channel=0, data=[8, 100]),
   midi.NoteOffEvent(tick=429900, channel=0, data=[8, 0]),
   midi.NoteOnEvent(tick=430000, channel=0, data=[6, 100]),
   midi.NoteOffEvent(tick=430100, channel=0, data=[6, 0]),
   midi.NoteOnEvent(tick=430200, channel=0, data=[13, 100]),
   midi.NoteOffEvent(tick=430300, channel=0, data=[13, 0]),
   midi.NoteOnEvent(tick=430400, channel=0, data=[12, 100]),
   midi.NoteOffEvent(tick=430500, channel=0, data=[12, 0]),
   midi.NoteOnEvent(tick=430600, channel=0, data=[4, 100]),
   midi.NoteOffEvent(tick=430700, channel=0, data=[4, 0]),
   midi.NoteOnEvent(tick=430800, channel=0, data=[13, 100]),
   midi.NoteOffEvent(tick=430900, channel=0, data=[13, 0]),
   midi.NoteOnEvent(tick=431000, channel=0, data=[19, 100]),
   midi.NoteOffEvent(tick=431100, channel=0, data=[19, 0]),
   midi.NoteOnEvent(tick=431200, channel=0, data=[36, 100]),
   midi.NoteOffEvent(tick=431300, channel=0, data=[36, 0]),
   midi.NoteOnEvent(tick=431400, channel=0, data=[14, 100]),
   midi.NoteOffEvent(tick=431500, channel=0, data=[14, 0]),
   midi.NoteOnEvent(tick=431600, channel=0, data=[15, 100]),
   midi.NoteOffEvent(tick=431700, channel=0, data=[15, 0]),
   midi.NoteOnEvent(tick=431800, channel=0, data=[4, 100]),
   midi.NoteOffEvent(tick=431900, channel=0, data=[4, 0]),
   midi.NoteOnEvent(tick=432000, channel=0, data=[17, 100]),
   midi.NoteOffEvent(tick=432100, channel=0, data=[17, 0]),
   midi.NoteOnEvent(tick=432200, channel=0, data=[0, 100]),
   midi.NoteOffEvent(tick=432300, channel=0, data=[0, 0]),
   midi.NoteOnEvent(tick=432400, channel=0, data=[19, 100]),
   midi.NoteOffEvent(tick=432500, channel=0, data=[19, 0]),
   midi.NoteOnEvent(tick=432600, channel=0, data=[14, 100]),
   midi.NoteOffEvent(tick=432700, channel=0, data=[14, 0]),
   midi.NoteOnEvent(tick=432800, channel=0, data=[17, 100]),
   midi.NoteOffEvent(tick=432900, channel=0, data=[17, 0]),
   midi.NoteOnEvent(tick=433000, channel=0, data=[36, 100]),
   midi.NoteOffEvent(tick=433100, channel=0, data=[36, 0]),
   midi.NoteOnEvent(tick=433200, channel=0, data=[8, 100]),
   midi.NoteOffEvent(tick=433300, channel=0, data=[8, 0]),
   midi.NoteOnEvent(tick=433400, channel=0, data=[18, 100]),
   midi.NoteOffEvent(tick=433500, channel=0, data=[18, 0]),
   midi.NoteOnEvent(tick=433600, channel=0, data=[36, 100]),
   midi.NoteOffEvent(tick=433700, channel=0, data=[36, 0]),
   midi.NoteOnEvent(tick=433800, channel=0, data=[19, 100]),
   midi.NoteOffEvent(tick=433900, channel=0, data=[19, 0]),
   midi.NoteOnEvent(tick=434000, channel=0, data=[7, 100]),
   midi.NoteOffEvent(tick=434100, channel=0, data=[7, 0]),
   midi.NoteOnEvent(tick=434200, channel=0, data=[4, 100]),
   midi.NoteOffEvent(tick=434300, channel=0, data=[4, 0]),
   midi.NoteOnEvent(tick=434400, channel=0, data=[36, 100]),
   midi.NoteOffEvent(tick=434500, channel=0, data=[36, 0]),
   midi.NoteOnEvent(tick=434600, channel=0, data=[4, 100]),
   midi.NoteOffEvent(tick=434700, channel=0, data=[4, 0]),
   midi.NoteOnEvent(tick=434800, channel=0, data=[16, 100]),
   midi.NoteOffEvent(tick=434900, channel=0, data=[16, 0]),
   midi.NoteOnEvent(tick=435000, channel=0, data=[20, 100]),
   midi.NoteOffEvent(tick=435100, channel=0, data=[20, 0]),
   midi.NoteOnEvent(tick=435200, channel=0, data=[0, 100]),
   midi.NoteOffEvent(tick=435300, channel=0, data=[0, 0]),
   midi.NoteOnEvent(tick=435400, channel=0, data=[11, 100]),
   midi.NoteOffEvent(tick=435500, channel=0, data=[11, 0]),
   midi.NoteOnEvent(tick=435600, channel=0, data=[36, 100]),
   midi.NoteOffEvent(tick=435700, channel=0, data=[36, 0]),
   midi.NoteOnEvent(tick=435800, channel=0, data=[18, 100]),
   midi.NoteOffEvent(tick=435900, channel=0, data=[18, 0]),
   midi.NoteOnEvent(tick=436000, channel=0, data=[8, 100]),
   midi.NoteOffEvent(tick=436100, channel=0, data=[8, 0]),
   midi.NoteOnEvent(tick=436200, channel=0, data=[6, 100]),
   midi.NoteOffEvent(tick=436300, channel=0, data=[6, 0]),
   midi.NoteOnEvent(tick=436400, channel=0, data=[13, 100]),
   midi.NoteOffEvent(tick=436500, channel=0, data=[13, 0]),
   midi.NoteOnEvent(tick=436600, channel=0, data=[36, 100]),
   midi.NoteOffEvent(tick=436700, channel=0, data=[36, 0]),
   midi.NoteOnEvent(tick=436800, channel=0, data=[49, 100]),
   midi.NoteOffEvent(tick=436900, channel=0, data=[49, 0]),
   midi.NoteOnEvent(tick=437000, channel=0, data=[69, 100]),
   midi.NoteOffEvent(tick=437100, channel=0, data=[69, 0]),
   midi.NoteOnEvent(tick=437200, channel=0, data=[50, 100]),
   midi.NoteOffEvent(tick=437300, channel=0, data=[50, 0]),
   midi.NoteOnEvent(tick=437400, channel=0, data=[49, 100]),
   midi.NoteOffEvent(tick=437500, channel=0, data=[49, 0]),
   midi.NoteOnEvent(tick=437600, channel=0, data=[0, 100]),
   midi.NoteOffEvent(tick=437700, channel=0, data=[0, 0]),
   midi.NoteOnEvent(tick=437800, channel=0, data=[18, 100]),
   midi.NoteOffEvent(tick=437900, channel=0, data=[18, 0]),
   midi.NoteOnEvent(tick=438000, channel=0, data=[2, 100]),
   midi.NoteOffEvent(tick=438100, channel=0, data=[2, 0]),
   midi.NoteOnEvent(tick=438200, channel=0, data=[8, 100]),
   midi.NoteOffEvent(tick=438300, channel=0, data=[8, 0]),
   midi.NoteOnEvent(tick=438400, channel=0, data=[8, 100]),
   midi.NoteOffEvent(tick=438500, channel=0, data=[8, 0]),
   midi.NoteOnEvent(tick=438600, channel=0, data=[36, 100]),
   midi.NoteOffEvent(tick=438700, channel=0, data=[36, 0]),
   midi.NoteOnEvent(tick=438800, channel=0, data=[32, 100]),
   midi.NoteOffEvent(tick=438900, channel=0, data=[32, 0]),
   midi.NoteOnEvent(tick=439000, channel=0, data=[27, 100]),
   midi.NoteOffEvent(tick=439100, channel=0, data=[27, 0]),
   midi.NoteOnEvent(tick=439200, channel=0, data=[50, 100]),
   midi.NoteOffEvent(tick=439300, channel=0, data=[50, 0]),
   midi.NoteOnEvent(tick=439400, channel=0, data=[37, 100]),
   midi.NoteOffEvent(tick=439500, channel=0, data=[37, 0]),
   midi.NoteOnEvent(tick=439600, channel=0, data=[36, 100]),
   midi.NoteOffEvent(tick=439700, channel=0, data=[36, 0]),
   midi.NoteOnEvent(tick=439800, channel=0, data=[5, 100]),
   midi.NoteOffEvent(tick=439900, channel=0, data=[5, 0]),
   midi.NoteOnEvent(tick=440000, channel=0, data=[14, 100]),
   midi.NoteOffEvent(tick=440100, channel=0, data=[14, 0]),
   midi.NoteOnEvent(tick=440200, channel=0, data=[17, 100]),
   midi.NoteOffEvent(tick=440300, channel=0, data=[17, 0]),
   midi.NoteOnEvent(tick=440400, channel=0, data=[36, 100]),
   midi.NoteOffEvent(tick=440500, channel=0, data=[36, 0]),
   midi.NoteOnEvent(tick=440600, channel=0, data=[4, 100]),
   midi.NoteOffEvent(tick=440700, channel=0, data=[4, 0]),
   midi.NoteOnEvent(tick=440800, channel=0, data=[23, 100]),
   midi.NoteOffEvent(tick=440900, channel=0, data=[23, 0]),
   midi.NoteOnEvent(tick=441000, channel=0, data=[0, 100]),
   midi.NoteOffEvent(tick=441100, channel=0, data=[0, 0]),
   midi.NoteOnEvent(tick=441200, channel=0, data=[12, 100]),
   midi.NoteOffEvent(tick=441300, channel=0, data=[12, 0]),
   midi.NoteOnEvent(tick=441400, channel=0, data=[15, 100]),
   midi.NoteOffEvent(tick=441500, channel=0, data=[15, 0]),
   midi.NoteOnEvent(tick=441600, channel=0, data=[11, 100]),
   midi.NoteOffEvent(tick=441700, channel=0, data=[11, 0]),
   midi.NoteOnEvent(tick=441800, channel=0, data=[4, 100]),
   midi.NoteOffEvent(tick=441900, channel=0, data=[4, 0]),
   midi.NoteOnEvent(tick=442000, channel=0, data=[38, 100]),
   midi.NoteOffEvent(tick=442100, channel=0, data=[38, 0]),
   midi.NoteOnEvent(tick=442200, channel=0, data=[56, 100]),
   midi.NoteOffEvent(tick=442300, channel=0, data=[56, 0]),
   midi.NoteOnEvent(tick=442400, channel=0, data=[36, 100]),
   midi.NoteOffEvent(tick=442500, channel=0, data=[36, 0]),
   midi.NoteOnEvent(tick=442600, channel=0, data=[36, 100]),
   midi.NoteOffEvent(tick=442700, channel=0, data=[36, 0]),
   midi.NoteOnEvent(tick=442800, channel=0, data=[36, 100]),
   midi.NoteOffEvent(tick=442900, channel=0, data=[36, 0]),
   midi.NoteOnEvent(tick=443000, channel=0, data=[36, 100]),
   midi.NoteOffEvent(tick=443100, channel=0, data=[36, 0]),
   midi.NoteOnEvent(tick=443200, channel=0, data=[19, 100]),
   midi.NoteOffEvent(tick=443300, channel=0, data=[19, 0]),
   midi.NoteOnEvent(tick=443400, channel=0, data=[7, 100]),
   midi.NoteOffEvent(tick=443500, channel=0, data=[7, 0]),
   midi.NoteOnEvent(tick=443600, channel=0, data=[4, 100]),
   midi.NoteOffEvent(tick=443700, channel=0, data=[4, 0]),
   midi.NoteOnEvent(tick=443800, channel=0, data=[36, 100]),
   midi.NoteOffEvent(tick=443900, channel=0, data=[36, 0]),
   midi.NoteOnEvent(tick=444000, channel=0, data=[5, 100]),
   midi.NoteOffEvent(tick=444100, channel=0, data=[5, 0]),
   midi.NoteOnEvent(tick=444200, channel=0, data=[14, 100]),
   midi.NoteOffEvent(tick=444300, channel=0, data=[14, 0]),
   midi.NoteOnEvent(tick=444400, channel=0, data=[11, 100]),
   midi.NoteOffEvent(tick=444500, channel=0, data=[11, 0]),
   midi.NoteOnEvent(tick=444600, channel=0, data=[11, 100]),
   midi.NoteOffEvent(tick=444700, channel=0, data=[11, 0]),
   midi.NoteOnEvent(tick=444800, channel=0, data=[14, 100]),
   midi.NoteOffEvent(tick=444900, channel=0, data=[14, 0]),
   midi.NoteOnEvent(tick=445000, channel=0, data=[22, 100]),
   midi.NoteOffEvent(tick=445100, channel=0, data=[22, 0]),
   midi.NoteOnEvent(tick=445200, channel=0, data=[8, 100]),
   midi.NoteOffEvent(tick=445300, channel=0, data=[8, 0]),
   midi.NoteOnEvent(tick=445400, channel=0, data=[13, 100]),
   midi.NoteOffEvent(tick=445500, channel=0, data=[13, 0]),
   midi.NoteOnEvent(tick=445600, channel=0, data=[6, 100]),
   midi.NoteOffEvent(tick=445700, channel=0, data=[6, 0]),
   midi.NoteOnEvent(tick=445800, channel=0, data=[36, 100]),
   midi.NoteOffEvent(tick=445900, channel=0, data=[36, 0]),
   midi.NoteOnEvent(tick=446000, channel=0, data=[18, 100]),
   midi.NoteOffEvent(tick=446100, channel=0, data=[18, 0]),
   midi.NoteOnEvent(tick=446200, channel=0, data=[19, 100]),
   midi.NoteOffEvent(tick=446300, channel=0, data=[19, 0]),
   midi.NoteOnEvent(tick=446400, channel=0, data=[0, 100]),
   midi.NoteOffEvent(tick=446500, channel=0, data=[0, 0]),
   midi.NoteOnEvent(tick=446600, channel=0, data=[19, 100]),
   midi.NoteOffEvent(tick=446700, channel=0, data=[19, 0]),
   midi.NoteOnEvent(tick=446800, channel=0, data=[4, 100]),
   midi.NoteOffEvent(tick=446900, channel=0, data=[4, 0]),
   midi.NoteOnEvent(tick=447000, channel=0, data=[12, 100]),
   midi.NoteOffEvent(tick=447100, channel=0, data=[12, 0]),
   midi.NoteOnEvent(tick=447200, channel=0, data=[4, 100]),
   midi.NoteOffEvent(tick=447300, channel=0, data=[4, 0]),
   midi.NoteOnEvent(tick=447400, channel=0, data=[13, 100]),
   midi.NoteOffEvent(tick=447500, channel=0, data=[13, 0]),
   midi.NoteOnEvent(tick=447600, channel=0, data=[19, 100]),
   midi.NoteOffEvent(tick=447700, channel=0, data=[19, 0]),
   midi.NoteOnEvent(tick=447800, channel=0, data=[36, 100]),
   midi.NoteOffEvent(tick=447900, channel=0, data=[36, 0]),
   midi.NoteOnEvent(tick=448000, channel=0, data=[0, 100]),
   midi.NoteOffEvent(tick=448100, channel=0, data=[0, 0]),
   midi.NoteOnEvent(tick=448200, channel=0, data=[18, 100]),
   midi.NoteOffEvent(tick=448300, channel=0, data=[18, 0]),
   midi.NoteOnEvent(tick=448400, channel=0, data=[18, 100]),
   midi.NoteOffEvent(tick=448500, channel=0, data=[18, 0]),
   midi.NoteOnEvent(tick=448600, channel=0, data=[8, 100]),
   midi.NoteOffEvent(tick=448700, channel=0, data=[8, 0]),
   midi.NoteOnEvent(tick=448800, channel=0, data=[6, 100]),
   midi.NoteOffEvent(tick=448900, channel=0, data=[6, 0]),
   midi.NoteOnEvent(tick=449000, channel=0, data=[13, 100]),
   midi.NoteOffEvent(tick=449100, channel=0, data=[13, 0]),
   midi.NoteOnEvent(tick=449200, channel=0, data=[18, 100]),
   midi.NoteOffEvent(tick=449300, channel=0, data=[18, 0]),
   midi.NoteOnEvent(tick=449400, channel=0, data=[36, 100]),
   midi.NoteOffEvent(tick=449500, channel=0, data=[36, 0]),
   midi.NoteOnEvent(tick=449600, channel=0, data=[19, 100]),
   midi.NoteOffEvent(tick=449700, channel=0, data=[19, 0]),
   midi.NoteOnEvent(tick=449800, channel=0, data=[7, 100]),
   midi.NoteOffEvent(tick=449900, channel=0, data=[7, 0]),
   midi.NoteOnEvent(tick=450000, channel=0, data=[4, 100]),
   midi.NoteOffEvent(tick=450100, channel=0, data=[4, 0]),
   midi.NoteOnEvent(tick=450200, channel=0, data=[36, 100]),
   midi.NoteOffEvent(tick=450300, channel=0, data=[36, 0]),
   midi.NoteOnEvent(tick=450400, channel=0, data=[21, 100]),
   midi.NoteOffEvent(tick=450500, channel=0, data=[21, 0]),
   midi.NoteOnEvent(tick=450600, channel=0, data=[0, 100]),
   midi.NoteOffEvent(tick=450700, channel=0, data=[0, 0]),
   midi.NoteOnEvent(tick=450800, channel=0, data=[11, 100]),
   midi.NoteOffEvent(tick=450900, channel=0, data=[11, 0]),
   midi.NoteOnEvent(tick=451000, channel=0, data=[20, 100]),
   midi.NoteOffEvent(tick=451100, channel=0, data=[20, 0]),
   midi.NoteOnEvent(tick=451200, channel=0, data=[4, 100]),
   midi.NoteOffEvent(tick=451300, channel=0, data=[4, 0]),
   midi.NoteOnEvent(tick=451400, channel=0, data=[36, 100]),
   midi.NoteOffEvent(tick=451500, channel=0, data=[36, 0]),
   midi.NoteOnEvent(tick=451600, channel=0, data=[22, 100]),
   midi.NoteOffEvent(tick=451700, channel=0, data=[22, 0]),
   midi.NoteOnEvent(tick=451800, channel=0, data=[8, 100]),
   midi.NoteOffEvent(tick=451900, channel=0, data=[8, 0]),
   midi.NoteOnEvent(tick=452000, channel=0, data=[13, 100]),
   midi.NoteOffEvent(tick=452100, channel=0, data=[13, 0]),
   midi.NoteOnEvent(tick=452200, channel=0, data=[3, 100]),
   midi.NoteOffEvent(tick=452300, channel=0, data=[3, 0]),
   midi.NoteOnEvent(tick=452400, channel=0, data=[14, 100]),
   midi.NoteOffEvent(tick=452500, channel=0, data=[14, 0]),
   midi.NoteOnEvent(tick=452600, channel=0, data=[22, 100]),
   midi.NoteOffEvent(tick=452700, channel=0, data=[22, 0]),
   midi.NoteOnEvent(tick=452800, channel=0, data=[18, 100]),
   midi.NoteOffEvent(tick=452900, channel=0, data=[18, 0]),
   midi.NoteOnEvent(tick=453000, channel=0, data=[36, 100]),
   midi.NoteOffEvent(tick=453100, channel=0, data=[36, 0]),
   midi.NoteOnEvent(tick=453200, channel=0, data=[15, 100]),
   midi.NoteOffEvent(tick=453300, channel=0, data=[15, 0]),
   midi.NoteOnEvent(tick=453400, channel=0, data=[14, 100]),
   midi.NoteOffEvent(tick=453500, channel=0, data=[14, 0]),
   midi.NoteOnEvent(tick=453600, channel=0, data=[22, 100]),
   midi.NoteOffEvent(tick=453700, channel=0, data=[22, 0]),
   midi.NoteOnEvent(tick=453800, channel=0, data=[4, 100]),
   midi.NoteOffEvent(tick=453900, channel=0, data=[4, 0]),
   midi.NoteOnEvent(tick=454000, channel=0, data=[17, 100]),
   midi.NoteOffEvent(tick=454100, channel=0, data=[17, 0]),
   midi.NoteOnEvent(tick=454200, channel=0, data=[18, 100]),
   midi.NoteOffEvent(tick=454300, channel=0, data=[18, 0]),
   midi.NoteOnEvent(tick=454400, channel=0, data=[7, 100]),
   midi.NoteOffEvent(tick=454500, channel=0, data=[7, 0]),
   midi.NoteOnEvent(tick=454600, channel=0, data=[4, 100]),
   midi.NoteOffEvent(tick=454700, channel=0, data=[4, 0]),
   midi.NoteOnEvent(tick=454800, channel=0, data=[11, 100]),
   midi.NoteOffEvent(tick=454900, channel=0, data=[11, 0]),
   midi.NoteOnEvent(tick=455000, channel=0, data=[11, 100]),
   midi.NoteOffEvent(tick=455100, channel=0, data=[11, 0]),
   midi.NoteOnEvent(tick=455200, channel=0, data=[36, 100]),
   midi.NoteOffEvent(tick=455300, channel=0, data=[36, 0]),
   midi.NoteOnEvent(tick=455400, channel=0, data=[19, 100]),
   midi.NoteOffEvent(tick=455500, channel=0, data=[19, 0]),
   midi.NoteOnEvent(tick=455600, channel=0, data=[14, 100]),
   midi.NoteOffEvent(tick=455700, channel=0, data=[14, 0]),
   midi.NoteOnEvent(tick=455800, channel=0, data=[36, 100]),
   midi.NoteOffEvent(tick=455900, channel=0, data=[36, 0]),
   midi.NoteOnEvent(tick=456000, channel=0, data=[19, 100]),
   midi.NoteOffEvent(tick=456100, channel=0, data=[19, 0]),
   midi.NoteOnEvent(tick=456200, channel=0, data=[7, 100]),
   midi.NoteOffEvent(tick=456300, channel=0, data=[7, 0]),
   midi.NoteOnEvent(tick=456400, channel=0, data=[4, 100]),
   midi.NoteOffEvent(tick=456500, channel=0, data=[4, 0]),
   midi.NoteOnEvent(tick=456600, channel=0, data=[36, 100]),
   midi.NoteOffEvent(tick=456700, channel=0, data=[36, 0]),
   midi.NoteOnEvent(tick=456800, channel=0, data=[56, 100]),
   midi.NoteOffEvent(tick=456900, channel=0, data=[56, 0]),
   midi.NoteOnEvent(tick=457000, channel=0, data=[36, 100]),
   midi.NoteOffEvent(tick=457100, channel=0, data=[36, 0]),
   midi.NoteOnEvent(tick=457200, channel=0, data=[36, 100]),
   midi.NoteOffEvent(tick=457300, channel=0, data=[36, 0]),
   midi.NoteOnEvent(tick=457400, channel=0, data=[36, 100]),
   midi.NoteOffEvent(tick=457500, channel=0, data=[36, 0]),
   midi.NoteOnEvent(tick=457600, channel=0, data=[36, 100]),
   midi.NoteOffEvent(tick=457700, channel=0, data=[36, 0]),
   midi.NoteOnEvent(tick=457800, channel=0, data=[74, 100]),
   midi.NoteOffEvent(tick=457900, channel=0, data=[74, 0]),
   midi.NoteOnEvent(tick=458000, channel=0, data=[12, 100]),
   midi.NoteOffEvent(tick=458100, channel=0, data=[12, 0]),
   midi.NoteOnEvent(tick=458200, channel=0, data=[24, 100]),
   midi.NoteOffEvent(tick=458300, channel=0, data=[24, 0]),
   midi.NoteOnEvent(tick=458400, channel=0, data=[18, 100]),
   midi.NoteOffEvent(tick=458500, channel=0, data=[18, 0]),
   midi.NoteOnEvent(tick=458600, channel=0, data=[7, 100]),
   midi.NoteOffEvent(tick=458700, channel=0, data=[7, 0]),
   midi.NoteOnEvent(tick=458800, channel=0, data=[4, 100]),
   midi.NoteOffEvent(tick=458900, channel=0, data=[4, 0]),
   midi.NoteOnEvent(tick=459000, channel=0, data=[11, 100]),
   midi.NoteOffEvent(tick=459100, channel=0, data=[11, 0]),
   midi.NoteOnEvent(tick=459200, channel=0, data=[11, 100]),
   midi.NoteOffEvent(tick=459300, channel=0, data=[11, 0]),
   midi.NoteOnEvent(tick=459400, channel=0, data=[36, 100]),
   midi.NoteOffEvent(tick=459500, channel=0, data=[36, 0]),
   midi.NoteOnEvent(tick=459600, channel=0, data=[21, 100]),
   midi.NoteOffEvent(tick=459700, channel=0, data=[21, 0]),
   midi.NoteOnEvent(tick=459800, channel=0, data=[0, 100]),
   midi.NoteOffEvent(tick=459900, channel=0, data=[0, 0]),
   midi.NoteOnEvent(tick=460000, channel=0, data=[17, 100]),
   midi.NoteOffEvent(tick=460100, channel=0, data=[17, 0]),
   midi.NoteOnEvent(tick=460200, channel=0, data=[8, 100]),
   midi.NoteOffEvent(tick=460300, channel=0, data=[8, 0]),
   midi.NoteOnEvent(tick=460400, channel=0, data=[0, 100]),
   midi.NoteOffEvent(tick=460500, channel=0, data=[0, 0]),
   midi.NoteOnEvent(tick=460600, channel=0, data=[1, 100]),
   midi.NoteOffEvent(tick=460700, channel=0, data=[1, 0]),
   midi.NoteOnEvent(tick=460800, channel=0, data=[11, 100]),
   midi.NoteOffEvent(tick=460900, channel=0, data=[11, 0]),
   midi.NoteOnEvent(tick=461000, channel=0, data=[4, 100]),
   midi.NoteOffEvent(tick=461100, channel=0, data=[4, 0]),
   midi.NoteOnEvent(tick=461200, channel=0, data=[46, 100]),
   midi.NoteOffEvent(tick=461300, channel=0, data=[46, 0]),
   midi.NoteOnEvent(tick=461400, channel=0, data=[56, 100]),
   midi.NoteOffEvent(tick=461500, channel=0, data=[56, 0]),
   midi.NoteOnEvent(tick=461600, channel=0, data=[56, 100]),
   midi.NoteOffEvent(tick=461700, channel=0, data=[56, 0]),
   midi.NoteOnEvent(tick=461800, channel=0, data=[56, 100]),
   midi.NoteOffEvent(tick=461900, channel=0, data=[56, 0]),
   midi.NoteOnEvent(tick=462000, channel=0, data=[36, 100]),
   midi.NoteOffEvent(tick=462100, channel=0, data=[36, 0]),
   midi.NoteOnEvent(tick=462200, channel=0, data=[36, 100]),
   midi.NoteOffEvent(tick=462300, channel=0, data=[36, 0]),
   midi.NoteOnEvent(tick=462400, channel=0, data=[36, 100]),
   midi.NoteOffEvent(tick=462500, channel=0, data=[36, 0]),
   midi.NoteOnEvent(tick=462600, channel=0, data=[36, 100]),
   midi.NoteOffEvent(tick=462700, channel=0, data=[36, 0]),
   midi.NoteOnEvent(tick=462800, channel=0, data=[36, 100]),
   midi.NoteOffEvent(tick=462900, channel=0, data=[36, 0]),
   midi.NoteOnEvent(tick=463000, channel=0, data=[36, 100]),
   midi.NoteOffEvent(tick=463100, channel=0, data=[36, 0]),
   midi.NoteOnEvent(tick=463200, channel=0, data=[36, 100]),
   midi.NoteOffEvent(tick=463300, channel=0, data=[36, 0]),
   midi.NoteOnEvent(tick=463400, channel=0, data=[36, 100]),
   midi.NoteOffEvent(tick=463500, channel=0, data=[36, 0]),
   midi.NoteOnEvent(tick=463600, channel=0, data=[74, 100]),
   midi.NoteOffEvent(tick=463700, channel=0, data=[74, 0]),
   midi.NoteOnEvent(tick=463800, channel=0, data=[12, 100]),
   midi.NoteOffEvent(tick=463900, channel=0, data=[12, 0]),
   midi.NoteOnEvent(tick=464000, channel=0, data=[24, 100]),
   midi.NoteOffEvent(tick=464100, channel=0, data=[24, 0]),
   midi.NoteOnEvent(tick=464200, channel=0, data=[18, 100]),
   midi.NoteOffEvent(tick=464300, channel=0, data=[18, 0]),
   midi.NoteOnEvent(tick=464400, channel=0, data=[7, 100]),
   midi.NoteOffEvent(tick=464500, channel=0, data=[7, 0]),
   midi.NoteOnEvent(tick=464600, channel=0, data=[4, 100]),
   midi.NoteOffEvent(tick=464700, channel=0, data=[4, 0]),
   midi.NoteOnEvent(tick=464800, channel=0, data=[11, 100]),
   midi.NoteOffEvent(tick=464900, channel=0, data=[11, 0]),
   midi.NoteOnEvent(tick=465000, channel=0, data=[11, 100]),
   midi.NoteOffEvent(tick=465100, channel=0, data=[11, 0]),
   midi.NoteOnEvent(tick=465200, channel=0, data=[36, 100]),
   midi.NoteOffEvent(tick=465300, channel=0, data=[36, 0]),
   midi.NoteOnEvent(tick=465400, channel=0, data=[69, 100]),
   midi.NoteOffEvent(tick=465500, channel=0, data=[69, 0]),
   midi.NoteOnEvent(tick=465600, channel=0, data=[36, 100]),
   midi.NoteOffEvent(tick=465700, channel=0, data=[36, 0]),
   midi.NoteOnEvent(tick=465800, channel=0, data=[41, 100]),
   midi.NoteOffEvent(tick=465900, channel=0, data=[41, 0]),
   midi.NoteOnEvent(tick=466000, channel=0, data=[22, 100]),
   midi.NoteOffEvent(tick=466100, channel=0, data=[22, 0]),
   midi.NoteOnEvent(tick=466200, channel=0, data=[8, 100]),
   midi.NoteOffEvent(tick=466300, channel=0, data=[8, 0]),
   midi.NoteOnEvent(tick=466400, channel=0, data=[13, 100]),
   midi.NoteOffEvent(tick=466500, channel=0, data=[13, 0]),
   midi.NoteOnEvent(tick=466600, channel=0, data=[3, 100]),
   midi.NoteOffEvent(tick=466700, channel=0, data=[3, 0]),
   midi.NoteOnEvent(tick=466800, channel=0, data=[14, 100]),
   midi.NoteOffEvent(tick=466900, channel=0, data=[14, 0]),
   midi.NoteOnEvent(tick=467000, channel=0, data=[22, 100]),
   midi.NoteOffEvent(tick=467100, channel=0, data=[22, 0]),
   midi.NoteOnEvent(tick=467200, channel=0, data=[18, 100]),
   midi.NoteOffEvent(tick=467300, channel=0, data=[18, 0]),
   midi.NoteOnEvent(tick=467400, channel=0, data=[36, 100]),
   midi.NoteOffEvent(tick=467500, channel=0, data=[36, 0]),
   midi.NoteOnEvent(tick=467600, channel=0, data=[15, 100]),
   midi.NoteOffEvent(tick=467700, channel=0, data=[15, 0]),
   midi.NoteOnEvent(tick=467800, channel=0, data=[14, 100]),
   midi.NoteOffEvent(tick=467900, channel=0, data=[14, 0]),
   midi.NoteOnEvent(tick=468000, channel=0, data=[22, 100]),
   midi.NoteOffEvent(tick=468100, channel=0, data=[22, 0]),
   midi.NoteOnEvent(tick=468200, channel=0, data=[4, 100]),
   midi.NoteOffEvent(tick=468300, channel=0, data=[4, 0]),
   midi.NoteOnEvent(tick=468400, channel=0, data=[17, 100]),
   midi.NoteOffEvent(tick=468500, channel=0, data=[17, 0]),
   midi.NoteOnEvent(tick=468600, channel=0, data=[18, 100]),
   midi.NoteOffEvent(tick=468700, channel=0, data=[18, 0]),
   midi.NoteOnEvent(tick=468800, channel=0, data=[7, 100]),
   midi.NoteOffEvent(tick=468900, channel=0, data=[7, 0]),
   midi.NoteOnEvent(tick=469000, channel=0, data=[4, 100]),
   midi.NoteOffEvent(tick=469100, channel=0, data=[4, 0]),
   midi.NoteOnEvent(tick=469200, channel=0, data=[11, 100]),
   midi.NoteOffEvent(tick=469300, channel=0, data=[11, 0]),
   midi.NoteOnEvent(tick=469400, channel=0, data=[11, 100]),
   midi.NoteOffEvent(tick=469500, channel=0, data=[11, 0]),
   midi.NoteOnEvent(tick=469600, channel=0, data=[41, 100]),
   midi.NoteOffEvent(tick=469700, channel=0, data=[41, 0]),
   midi.NoteOnEvent(tick=469800, channel=0, data=[36, 100]),
   midi.NoteOffEvent(tick=469900, channel=0, data=[36, 0]),
   midi.NoteOnEvent(tick=470000, channel=0, data=[56, 100]),
   midi.NoteOffEvent(tick=470100, channel=0, data=[56, 0]),
   midi.NoteOnEvent(tick=470200, channel=0, data=[56, 100]),
   midi.NoteOffEvent(tick=470300, channel=0, data=[56, 0]),
   midi.NoteOnEvent(tick=470400, channel=0, data=[56, 100]),
   midi.NoteOffEvent(tick=470500, channel=0, data=[56, 0]),
   midi.NoteOnEvent(tick=470600, channel=0, data=[36, 100]),
   midi.NoteOffEvent(tick=470700, channel=0, data=[36, 0]),
   midi.NoteOnEvent(tick=470800, channel=0, data=[36, 100]),
   midi.NoteOffEvent(tick=470900, channel=0, data=[36, 0]),
   midi.NoteOnEvent(tick=471000, channel=0, data=[36, 100]),
   midi.NoteOffEvent(tick=471100, channel=0, data=[36, 0]),
   midi.NoteOnEvent(tick=471200, channel=0, data=[36, 100]),
   midi.NoteOffEvent(tick=471300, channel=0, data=[36, 0]),
   midi.NoteOnEvent(tick=471400, channel=0, data=[22, 100]),
   midi.NoteOffEvent(tick=471500, channel=0, data=[22, 0]),
   midi.NoteOnEvent(tick=471600, channel=0, data=[7, 100]),
   midi.NoteOffEvent(tick=471700, channel=0, data=[7, 0]),
   midi.NoteOnEvent(tick=471800, channel=0, data=[4, 100]),
   midi.NoteOffEvent(tick=471900, channel=0, data=[4, 0]),
   midi.NoteOnEvent(tick=472000, channel=0, data=[13, 100]),
   midi.NoteOffEvent(tick=472100, channel=0, data=[13, 0]),
   midi.NoteOnEvent(tick=472200, channel=0, data=[36, 100]),
   midi.NoteOffEvent(tick=472300, channel=0, data=[36, 0]),
   midi.NoteOnEvent(tick=472400, channel=0, data=[24, 100]),
   midi.NoteOffEvent(tick=472500, channel=0, data=[24, 0]),
   midi.NoteOnEvent(tick=472600, channel=0, data=[14, 100]),
   midi.NoteOffEvent(tick=472700, channel=0, data=[14, 0]),
   midi.NoteOnEvent(tick=472800, channel=0, data=[20, 100]),
   midi.NoteOffEvent(tick=472900, channel=0, data=[20, 0]),
   midi.NoteOnEvent(tick=473000, channel=0, data=[36, 100]),
   midi.NoteOffEvent(tick=473100, channel=0, data=[36, 0]),
   midi.NoteOnEvent(tick=473200, channel=0, data=[0, 100]),
   midi.NoteOffEvent(tick=473300, channel=0, data=[0, 0]),
   midi.NoteOnEvent(tick=473400, channel=0, data=[18, 100]),
   midi.NoteOffEvent(tick=473500, channel=0, data=[18, 0]),
   midi.NoteOnEvent(tick=473600, channel=0, data=[18, 100]),
   midi.NoteOffEvent(tick=473700, channel=0, data=[18, 0]),
   midi.NoteOnEvent(tick=473800, channel=0, data=[8, 100]),
   midi.NoteOffEvent(tick=473900, channel=0, data=[8, 0]),
   midi.NoteOnEvent(tick=474000, channel=0, data=[6, 100]),
   midi.NoteOffEvent(tick=474100, channel=0, data=[6, 0]),
   midi.NoteOnEvent(tick=474200, channel=0, data=[13, 100]),
   midi.NoteOffEvent(tick=474300, channel=0, data=[13, 0]),
   midi.NoteOnEvent(tick=474400, channel=0, data=[36, 100]),
   midi.NoteOffEvent(tick=474500, channel=0, data=[36, 0]),
   midi.NoteOnEvent(tick=474600, channel=0, data=[0, 100]),
   midi.NoteOffEvent(tick=474700, channel=0, data=[0, 0]),
   midi.NoteOnEvent(tick=474800, channel=0, data=[36, 100]),
   midi.NoteOffEvent(tick=474900, channel=0, data=[36, 0]),
   midi.NoteOnEvent(tick=475000, channel=0, data=[21, 100]),
   midi.NoteOffEvent(tick=475100, channel=0, data=[21, 0]),
   midi.NoteOnEvent(tick=475200, channel=0, data=[0, 100]),
   midi.NoteOffEvent(tick=475300, channel=0, data=[0, 0]),
   midi.NoteOnEvent(tick=475400, channel=0, data=[11, 100]),
   midi.NoteOffEvent(tick=475500, channel=0, data=[11, 0]),
   midi.NoteOnEvent(tick=475600, channel=0, data=[20, 100]),
   midi.NoteOffEvent(tick=475700, channel=0, data=[20, 0]),
   midi.NoteOnEvent(tick=475800, channel=0, data=[4, 100]),
   midi.NoteOffEvent(tick=475900, channel=0, data=[4, 0]),
   midi.NoteOnEvent(tick=476000, channel=0, data=[36, 100]),
   midi.NoteOffEvent(tick=476100, channel=0, data=[36, 0]),
   midi.NoteOnEvent(tick=476200, channel=0, data=[19, 100]),
   midi.NoteOffEvent(tick=476300, channel=0, data=[19, 0]),
   midi.NoteOnEvent(tick=476400, channel=0, data=[14, 100]),
   midi.NoteOffEvent(tick=476500, channel=0, data=[14, 0]),
   midi.NoteOnEvent(tick=476600, channel=0, data=[36, 100]),
   midi.NoteOffEvent(tick=476700, channel=0, data=[36, 0]),
   midi.NoteOnEvent(tick=476800, channel=0, data=[0, 100]),
   midi.NoteOffEvent(tick=476900, channel=0, data=[0, 0]),
   midi.NoteOnEvent(tick=477000, channel=0, data=[36, 100]),
   midi.NoteOffEvent(tick=477100, channel=0, data=[36, 0]),
   midi.NoteOnEvent(tick=477200, channel=0, data=[21, 100]),
   midi.NoteOffEvent(tick=477300, channel=0, data=[21, 0]),
   midi.NoteOnEvent(tick=477400, channel=0, data=[0, 100]),
   midi.NoteOffEvent(tick=477500, channel=0, data=[0, 0]),
   midi.NoteOnEvent(tick=477600, channel=0, data=[17, 100]),
   midi.NoteOffEvent(tick=477700, channel=0, data=[17, 0]),
   midi.NoteOnEvent(tick=477800, channel=0, data=[8, 100]),
   midi.NoteOffEvent(tick=477900, channel=0, data=[8, 0]),
   midi.NoteOnEvent(tick=478000, channel=0, data=[0, 100]),
   midi.NoteOffEvent(tick=478100, channel=0, data=[0, 0]),
   midi.NoteOnEvent(tick=478200, channel=0, data=[1, 100]),
   midi.NoteOffEvent(tick=478300, channel=0, data=[1, 0]),
   midi.NoteOnEvent(tick=478400, channel=0, data=[11, 100]),
   midi.NoteOffEvent(tick=478500, channel=0, data=[11, 0]),
   midi.NoteOnEvent(tick=478600, channel=0, data=[4, 100]),
   midi.NoteOffEvent(tick=478700, channel=0, data=[4, 0]),
   midi.NoteOnEvent(tick=478800, channel=0, data=[36, 100]),
   midi.NoteOffEvent(tick=478900, channel=0, data=[36, 0]),
   midi.NoteOnEvent(tick=479000, channel=0, data=[8, 100]),
   midi.NoteOffEvent(tick=479100, channel=0, data=[8, 0]),
   midi.NoteOnEvent(tick=479200, channel=0, data=[13, 100]),
   midi.NoteOffEvent(tick=479300, channel=0, data=[13, 0]),
   midi.NoteOnEvent(tick=479400, channel=0, data=[36, 100]),
   midi.NoteOffEvent(tick=479500, channel=0, data=[36, 0]),
   midi.NoteOnEvent(tick=479600, channel=0, data=[22, 100]),
   midi.NoteOffEvent(tick=479700, channel=0, data=[22, 0]),
   midi.NoteOnEvent(tick=479800, channel=0, data=[8, 100]),
   midi.NoteOffEvent(tick=479900, channel=0, data=[8, 0]),
   midi.NoteOnEvent(tick=480000, channel=0, data=[13, 100]),
   midi.NoteOffEvent(tick=480100, channel=0, data=[13, 0]),
   midi.NoteOnEvent(tick=480200, channel=0, data=[3, 100]),
   midi.NoteOffEvent(tick=480300, channel=0, data=[3, 0]),
   midi.NoteOnEvent(tick=480400, channel=0, data=[14, 100]),
   midi.NoteOffEvent(tick=480500, channel=0, data=[14, 0]),
   midi.NoteOnEvent(tick=480600, channel=0, data=[22, 100]),
   midi.NoteOffEvent(tick=480700, channel=0, data=[22, 0]),
   midi.NoteOnEvent(tick=480800, channel=0, data=[18, 100]),
   midi.NoteOffEvent(tick=480900, channel=0, data=[18, 0]),
   midi.NoteOnEvent(tick=481000, channel=0, data=[36, 100]),
   midi.NoteOffEvent(tick=481100, channel=0, data=[36, 0]),
   midi.NoteOnEvent(tick=481200, channel=0, data=[15, 100]),
   midi.NoteOffEvent(tick=481300, channel=0, data=[15, 0]),
   midi.NoteOnEvent(tick=481400, channel=0, data=[14, 100]),
   midi.NoteOffEvent(tick=481500, channel=0, data=[14, 0]),
   midi.NoteOnEvent(tick=481600, channel=0, data=[22, 100]),
   midi.NoteOffEvent(tick=481700, channel=0, data=[22, 0]),
   midi.NoteOnEvent(tick=481800, channel=0, data=[4, 100]),
   midi.NoteOffEvent(tick=481900, channel=0, data=[4, 0]),
   midi.NoteOnEvent(tick=482000, channel=0, data=[17, 100]),
   midi.NoteOffEvent(tick=482100, channel=0, data=[17, 0]),
   midi.NoteOnEvent(tick=482200, channel=0, data=[18, 100]),
   midi.NoteOffEvent(tick=482300, channel=0, data=[18, 0]),
   midi.NoteOnEvent(tick=482400, channel=0, data=[7, 100]),
   midi.NoteOffEvent(tick=482500, channel=0, data=[7, 0]),
   midi.NoteOnEvent(tick=482600, channel=0, data=[4, 100]),
   midi.NoteOffEvent(tick=482700, channel=0, data=[4, 0]),
   midi.NoteOnEvent(tick=482800, channel=0, data=[11, 100]),
   midi.NoteOffEvent(tick=482900, channel=0, data=[11, 0]),
   midi.NoteOnEvent(tick=483000, channel=0, data=[11, 100]),
   midi.NoteOffEvent(tick=483100, channel=0, data=[11, 0]),
   midi.NoteOnEvent(tick=483200, channel=0, data=[38, 100]),
   midi.NoteOffEvent(tick=483300, channel=0, data=[38, 0]),
   midi.NoteOnEvent(tick=483400, channel=0, data=[36, 100]),
   midi.NoteOffEvent(tick=483500, channel=0, data=[36, 0]),
   midi.NoteOnEvent(tick=483600, channel=0, data=[19, 100]),
   midi.NoteOffEvent(tick=483700, channel=0, data=[19, 0]),
   midi.NoteOnEvent(tick=483800, channel=0, data=[7, 100]),
   midi.NoteOffEvent(tick=483900, channel=0, data=[7, 0]),
   midi.NoteOnEvent(tick=484000, channel=0, data=[4, 100]),
   midi.NoteOffEvent(tick=484100, channel=0, data=[4, 0]),
   midi.NoteOnEvent(tick=484200, channel=0, data=[36, 100]),
   midi.NoteOffEvent(tick=484300, channel=0, data=[36, 0]),
   midi.NoteOnEvent(tick=484400, channel=0, data=[21, 100]),
   midi.NoteOffEvent(tick=484500, channel=0, data=[21, 0]),
   midi.NoteOnEvent(tick=484600, channel=0, data=[0, 100]),
   midi.NoteOffEvent(tick=484700, channel=0, data=[0, 0]),
   midi.NoteOnEvent(tick=484800, channel=0, data=[17, 100]),
   midi.NoteOffEvent(tick=484900, channel=0, data=[17, 0]),
   midi.NoteOnEvent(tick=485000, channel=0, data=[8, 100]),
   midi.NoteOffEvent(tick=485100, channel=0, data=[8, 0]),
   midi.NoteOnEvent(tick=485200, channel=0, data=[0, 100]),
   midi.NoteOffEvent(tick=485300, channel=0, data=[0, 0]),
   midi.NoteOnEvent(tick=485400, channel=0, data=[1, 100]),
   midi.NoteOffEvent(tick=485500, channel=0, data=[1, 0]),
   midi.NoteOnEvent(tick=485600, channel=0, data=[11, 100]),
   midi.NoteOffEvent(tick=485700, channel=0, data=[11, 0]),
   midi.NoteOnEvent(tick=485800, channel=0, data=[4, 100]),
   midi.NoteOffEvent(tick=485900, channel=0, data=[4, 0]),
   midi.NoteOnEvent(tick=486000, channel=0, data=[56, 100]),
   midi.NoteOffEvent(tick=486100, channel=0, data=[56, 0]),
   midi.NoteOnEvent(tick=486200, channel=0, data=[36, 100]),
   midi.NoteOffEvent(tick=486300, channel=0, data=[36, 0]),
   midi.NoteOnEvent(tick=486400, channel=0, data=[36, 100]),
   midi.NoteOffEvent(tick=486500, channel=0, data=[36, 0]),
   midi.NoteOnEvent(tick=486600, channel=0, data=[36, 100]),
   midi.NoteOffEvent(tick=486700, channel=0, data=[36, 0]),
   midi.NoteOnEvent(tick=486800, channel=0, data=[36, 100]),
   midi.NoteOffEvent(tick=486900, channel=0, data=[36, 0]),
   midi.NoteOnEvent(tick=487000, channel=0, data=[8, 100]),
   midi.NoteOffEvent(tick=487100, channel=0, data=[8, 0]),
   midi.NoteOnEvent(tick=487200, channel=0, data=[18, 100]),
   midi.NoteOffEvent(tick=487300, channel=0, data=[18, 0]),
   midi.NoteOnEvent(tick=487400, channel=0, data=[36, 100]),
   midi.NoteOffEvent(tick=487500, channel=0, data=[36, 0]),
   midi.NoteOnEvent(tick=487600, channel=0, data=[2, 100]),
   midi.NoteOffEvent(tick=487700, channel=0, data=[2, 0]),
   midi.NoteOnEvent(tick=487800, channel=0, data=[17, 100]),
   midi.NoteOffEvent(tick=487900, channel=0, data=[17, 0]),
   midi.NoteOnEvent(tick=488000, channel=0, data=[4, 100]),
   midi.NoteOffEvent(tick=488100, channel=0, data=[4, 0]),
   midi.NoteOnEvent(tick=488200, channel=0, data=[0, 100]),
   midi.NoteOffEvent(tick=488300, channel=0, data=[0, 0]),
   midi.NoteOnEvent(tick=488400, channel=0, data=[19, 100]),
   midi.NoteOffEvent(tick=488500, channel=0, data=[19, 0]),
   midi.NoteOnEvent(tick=488600, channel=0, data=[4, 100]),
   midi.NoteOffEvent(tick=488700, channel=0, data=[4, 0]),
   midi.NoteOnEvent(tick=488800, channel=0, data=[3, 100]),
   midi.NoteOffEvent(tick=488900, channel=0, data=[3, 0]),
   midi.NoteOnEvent(tick=489000, channel=0, data=[36, 100]),
   midi.NoteOffEvent(tick=489100, channel=0, data=[36, 0]),
   midi.NoteOnEvent(tick=489200, channel=0, data=[8, 100]),
   midi.NoteOffEvent(tick=489300, channel=0, data=[8, 0]),
   midi.NoteOnEvent(tick=489400, channel=0, data=[5, 100]),
   midi.NoteOffEvent(tick=489500, channel=0, data=[5, 0]),
   midi.NoteOnEvent(tick=489600, channel=0, data=[36, 100]),
   midi.NoteOffEvent(tick=489700, channel=0, data=[36, 0]),
   midi.NoteOnEvent(tick=489800, channel=0, data=[8, 100]),
   midi.NoteOffEvent(tick=489900, channel=0, data=[8, 0]),
   midi.NoteOnEvent(tick=490000, channel=0, data=[19, 100]),
   midi.NoteOffEvent(tick=490100, channel=0, data=[19, 0]),
   midi.NoteOnEvent(tick=490200, channel=0, data=[36, 100]),
   midi.NoteOffEvent(tick=490300, channel=0, data=[36, 0]),
   midi.NoteOnEvent(tick=490400, channel=0, data=[3, 100]),
   midi.NoteOffEvent(tick=490500, channel=0, data=[3, 0]),
   midi.NoteOnEvent(tick=490600, channel=0, data=[8, 100]),
   midi.NoteOffEvent(tick=490700, channel=0, data=[8, 0]),
   midi.NoteOnEvent(tick=490800, channel=0, data=[3, 100]),
   midi.NoteOffEvent(tick=490900, channel=0, data=[3, 0]),
   midi.NoteOnEvent(tick=491000, channel=0, data=[36, 100]),
   midi.NoteOffEvent(tick=491100, channel=0, data=[36, 0]),
   midi.NoteOnEvent(tick=491200, channel=0, data=[13, 100]),
   midi.NoteOffEvent(tick=491300, channel=0, data=[13, 0]),
   midi.NoteOnEvent(tick=491400, channel=0, data=[14, 100]),
   midi.NoteOffEvent(tick=491500, channel=0, data=[14, 0]),
   midi.NoteOnEvent(tick=491600, channel=0, data=[19, 100]),
   midi.NoteOffEvent(tick=491700, channel=0, data=[19, 0]),
   midi.NoteOnEvent(tick=491800, channel=0, data=[36, 100]),
   midi.NoteOffEvent(tick=491900, channel=0, data=[36, 0]),
   midi.NoteOnEvent(tick=492000, channel=0, data=[0, 100]),
   midi.NoteOffEvent(tick=492100, channel=0, data=[0, 0]),
   midi.NoteOnEvent(tick=492200, channel=0, data=[11, 100]),
   midi.NoteOffEvent(tick=492300, channel=0, data=[11, 0]),
   midi.NoteOnEvent(tick=492400, channel=0, data=[17, 100]),
   midi.NoteOffEvent(tick=492500, channel=0, data=[17, 0]),
   midi.NoteOnEvent(tick=492600, channel=0, data=[4, 100]),
   midi.NoteOffEvent(tick=492700, channel=0, data=[4, 0]),
   midi.NoteOnEvent(tick=492800, channel=0, data=[0, 100]),
   midi.NoteOffEvent(tick=492900, channel=0, data=[0, 0]),
   midi.NoteOnEvent(tick=493000, channel=0, data=[3, 100]),
   midi.NoteOffEvent(tick=493100, channel=0, data=[3, 0]),
   midi.NoteOnEvent(tick=493200, channel=0, data=[24, 100]),
   midi.NoteOffEvent(tick=493300, channel=0, data=[24, 0]),
   midi.NoteOnEvent(tick=493400, channel=0, data=[36, 100]),
   midi.NoteOffEvent(tick=493500, channel=0, data=[36, 0]),
   midi.NoteOnEvent(tick=493600, channel=0, data=[4, 100]),
   midi.NoteOffEvent(tick=493700, channel=0, data=[4, 0]),
   midi.NoteOnEvent(tick=493800, channel=0, data=[23, 100]),
   midi.NoteOffEvent(tick=493900, channel=0, data=[23, 0]),
   midi.NoteOnEvent(tick=494000, channel=0, data=[8, 100]),
   midi.NoteOffEvent(tick=494100, channel=0, data=[8, 0]),
   midi.NoteOnEvent(tick=494200, channel=0, data=[18, 100]),
   midi.NoteOffEvent(tick=494300, channel=0, data=[18, 0]),
   midi.NoteOnEvent(tick=494400, channel=0, data=[19, 100]),
   midi.NoteOffEvent(tick=494500, channel=0, data=[19, 0]),
   midi.NoteOnEvent(tick=494600, channel=0, data=[37, 100]),
   midi.NoteOffEvent(tick=494700, channel=0, data=[37, 0]),
   midi.NoteOnEvent(tick=494800, channel=0, data=[36, 100]),
   midi.NoteOffEvent(tick=494900, channel=0, data=[36, 0]),
   midi.NoteOnEvent(tick=495000, channel=0, data=[5, 100]),
   midi.NoteOffEvent(tick=495100, channel=0, data=[5, 0]),
   midi.NoteOnEvent(tick=495200, channel=0, data=[14, 100]),
   midi.NoteOffEvent(tick=495300, channel=0, data=[14, 0]),
   midi.NoteOnEvent(tick=495400, channel=0, data=[17, 100]),
   midi.NoteOffEvent(tick=495500, channel=0, data=[17, 0]),
   midi.NoteOnEvent(tick=495600, channel=0, data=[36, 100]),
   midi.NoteOffEvent(tick=495700, channel=0, data=[36, 0]),
   midi.NoteOnEvent(tick=495800, channel=0, data=[4, 100]),
   midi.NoteOffEvent(tick=495900, channel=0, data=[4, 0]),
   midi.NoteOnEvent(tick=496000, channel=0, data=[23, 100]),
   midi.NoteOffEvent(tick=496100, channel=0, data=[23, 0]),
   midi.NoteOnEvent(tick=496200, channel=0, data=[0, 100]),
   midi.NoteOffEvent(tick=496300, channel=0, data=[0, 0]),
   midi.NoteOnEvent(tick=496400, channel=0, data=[12, 100]),
   midi.NoteOffEvent(tick=496500, channel=0, data=[12, 0]),
   midi.NoteOnEvent(tick=496600, channel=0, data=[15, 100]),
   midi.NoteOffEvent(tick=496700, channel=0, data=[15, 0]),
   midi.NoteOnEvent(tick=496800, channel=0, data=[11, 100]),
   midi.NoteOffEvent(tick=496900, channel=0, data=[11, 0]),
   midi.NoteOnEvent(tick=497000, channel=0, data=[4, 100]),
   midi.NoteOffEvent(tick=497100, channel=0, data=[4, 0]),
   midi.NoteOnEvent(tick=497200, channel=0, data=[38, 100]),
   midi.NoteOffEvent(tick=497300, channel=0, data=[38, 0]),
   midi.NoteOnEvent(tick=497400, channel=0, data=[36, 100]),
   midi.NoteOffEvent(tick=497500, channel=0, data=[36, 0]),
   midi.NoteOnEvent(tick=497600, channel=0, data=[19, 100]),
   midi.NoteOffEvent(tick=497700, channel=0, data=[19, 0]),
   midi.NoteOnEvent(tick=497800, channel=0, data=[7, 100]),
   midi.NoteOffEvent(tick=497900, channel=0, data=[7, 0]),
   midi.NoteOnEvent(tick=498000, channel=0, data=[4, 100]),
   midi.NoteOffEvent(tick=498100, channel=0, data=[4, 0]),
   midi.NoteOnEvent(tick=498200, channel=0, data=[36, 100]),
   midi.NoteOffEvent(tick=498300, channel=0, data=[36, 0]),
   midi.NoteOnEvent(tick=498400, channel=0, data=[5, 100]),
   midi.NoteOffEvent(tick=498500, channel=0, data=[5, 0]),
   midi.NoteOnEvent(tick=498600, channel=0, data=[8, 100]),
   midi.NoteOffEvent(tick=498700, channel=0, data=[8, 0]),
   midi.NoteOnEvent(tick=498800, channel=0, data=[17, 100]),
   midi.NoteOffEvent(tick=498900, channel=0, data=[17, 0]),
   midi.NoteOnEvent(tick=499000, channel=0, data=[18, 100]),
   midi.NoteOffEvent(tick=499100, channel=0, data=[18, 0]),
   midi.NoteOnEvent(tick=499200, channel=0, data=[19, 100]),
   midi.NoteOffEvent(tick=499300, channel=0, data=[19, 0]),
   midi.NoteOnEvent(tick=499400, channel=0, data=[36, 100]),
   midi.NoteOffEvent(tick=499500, channel=0, data=[36, 0]),
   midi.NoteOnEvent(tick=499600, channel=0, data=[14, 100]),
   midi.NoteOffEvent(tick=499700, channel=0, data=[14, 0]),
   midi.NoteOnEvent(tick=499800, channel=0, data=[5, 100]),
   midi.NoteOffEvent(tick=499900, channel=0, data=[5, 0]),
   midi.NoteOnEvent(tick=500000, channel=0, data=[36, 100]),
   midi.NoteOffEvent(tick=500100, channel=0, data=[36, 0]),
   midi.NoteOnEvent(tick=500200, channel=0, data=[19, 100]),
   midi.NoteOffEvent(tick=500300, channel=0, data=[19, 0]),
   midi.NoteOnEvent(tick=500400, channel=0, data=[7, 100]),
   midi.NoteOffEvent(tick=500500, channel=0, data=[7, 0]),
   midi.NoteOnEvent(tick=500600, channel=0, data=[4, 100]),
   midi.NoteOffEvent(tick=500700, channel=0, data=[4, 0]),
   midi.NoteOnEvent(tick=500800, channel=0, data=[36, 100]),
   midi.NoteOffEvent(tick=500900, channel=0, data=[36, 0]),
   midi.NoteOnEvent(tick=501000, channel=0, data=[56, 100]),
   midi.NoteOffEvent(tick=501100, channel=0, data=[56, 0]),
   midi.NoteOnEvent(tick=501200, channel=0, data=[36, 100]),
   midi.NoteOffEvent(tick=501300, channel=0, data=[36, 0]),
   midi.NoteOnEvent(tick=501400, channel=0, data=[36, 100]),
   midi.NoteOffEvent(tick=501500, channel=0, data=[36, 0]),
   midi.NoteOnEvent(tick=501600, channel=0, data=[36, 100]),
   midi.NoteOffEvent(tick=501700, channel=0, data=[36, 0]),
   midi.NoteOnEvent(tick=501800, channel=0, data=[36, 100]),
   midi.NoteOffEvent(tick=501900, channel=0, data=[36, 0]),
   midi.NoteOnEvent(tick=502000, channel=0, data=[5, 100]),
   midi.NoteOffEvent(tick=502100, channel=0, data=[5, 0]),
   midi.NoteOnEvent(tick=502200, channel=0, data=[14, 100]),
   midi.NoteOffEvent(tick=502300, channel=0, data=[14, 0]),
   midi.NoteOnEvent(tick=502400, channel=0, data=[11, 100]),
   midi.NoteOffEvent(tick=502500, channel=0, data=[11, 0]),
   midi.NoteOnEvent(tick=502600, channel=0, data=[11, 100]),
   midi.NoteOffEvent(tick=502700, channel=0, data=[11, 0]),
   midi.NoteOnEvent(tick=502800, channel=0, data=[14, 100]),
   midi.NoteOffEvent(tick=502900, channel=0, data=[14, 0]),
   midi.NoteOnEvent(tick=503000, channel=0, data=[22, 100]),
   midi.NoteOffEvent(tick=503100, channel=0, data=[22, 0]),
   midi.NoteOnEvent(tick=503200, channel=0, data=[8, 100]),
   midi.NoteOffEvent(tick=503300, channel=0, data=[8, 0]),
   midi.NoteOnEvent(tick=503400, channel=0, data=[13, 100]),
   midi.NoteOffEvent(tick=503500, channel=0, data=[13, 0]),
   midi.NoteOnEvent(tick=503600, channel=0, data=[6, 100]),
   midi.NoteOffEvent(tick=503700, channel=0, data=[6, 0]),
   midi.NoteOnEvent(tick=503800, channel=0, data=[36, 100]),
   midi.NoteOffEvent(tick=503900, channel=0, data=[36, 0]),
   midi.NoteOnEvent(tick=504000, channel=0, data=[19, 100]),
   midi.NoteOffEvent(tick=504100, channel=0, data=[19, 0]),
   midi.NoteOnEvent(tick=504200, channel=0, data=[22, 100]),
   midi.NoteOffEvent(tick=504300, channel=0, data=[22, 0]),
   midi.NoteOnEvent(tick=504400, channel=0, data=[14, 100]),
   midi.NoteOffEvent(tick=504500, channel=0, data=[14, 0]),
   midi.NoteOnEvent(tick=504600, channel=0, data=[36, 100]),
   midi.NoteOffEvent(tick=504700, channel=0, data=[36, 0]),
   midi.NoteOnEvent(tick=504800, channel=0, data=[0, 100]),
   midi.NoteOffEvent(tick=504900, channel=0, data=[0, 0]),
   midi.NoteOnEvent(tick=505000, channel=0, data=[18, 100]),
   midi.NoteOffEvent(tick=505100, channel=0, data=[18, 0]),
   midi.NoteOnEvent(tick=505200, channel=0, data=[18, 100]),
   midi.NoteOffEvent(tick=505300, channel=0, data=[18, 0]),
   midi.NoteOnEvent(tick=505400, channel=0, data=[8, 100]),
   midi.NoteOffEvent(tick=505500, channel=0, data=[8, 0]),
   midi.NoteOnEvent(tick=505600, channel=0, data=[6, 100]),
   midi.NoteOffEvent(tick=505700, channel=0, data=[6, 0]),
   midi.NoteOnEvent(tick=505800, channel=0, data=[13, 100]),
   midi.NoteOffEvent(tick=505900, channel=0, data=[13, 0]),
   midi.NoteOnEvent(tick=506000, channel=0, data=[4, 100]),
   midi.NoteOffEvent(tick=506100, channel=0, data=[4, 0]),
   midi.NoteOnEvent(tick=506200, channel=0, data=[12, 100]),
   midi.NoteOffEvent(tick=506300, channel=0, data=[12, 0]),
   midi.NoteOnEvent(tick=506400, channel=0, data=[4, 100]),
   midi.NoteOffEvent(tick=506500, channel=0, data=[4, 0]),
   midi.NoteOnEvent(tick=506600, channel=0, data=[13, 100]),
   midi.NoteOffEvent(tick=506700, channel=0, data=[13, 0]),
   midi.NoteOnEvent(tick=506800, channel=0, data=[19, 100]),
   midi.NoteOffEvent(tick=506900, channel=0, data=[19, 0]),
   midi.NoteOnEvent(tick=507000, channel=0, data=[36, 100]),
   midi.NoteOffEvent(tick=507100, channel=0, data=[36, 0]),
   midi.NoteOnEvent(tick=507200, channel=0, data=[18, 100]),
   midi.NoteOffEvent(tick=507300, channel=0, data=[18, 0]),
   midi.NoteOnEvent(tick=507400, channel=0, data=[19, 100]),
   midi.NoteOffEvent(tick=507500, channel=0, data=[19, 0]),
   midi.NoteOnEvent(tick=507600, channel=0, data=[0, 100]),
   midi.NoteOffEvent(tick=507700, channel=0, data=[0, 0]),
   midi.NoteOnEvent(tick=507800, channel=0, data=[19, 100]),
   midi.NoteOffEvent(tick=507900, channel=0, data=[19, 0]),
   midi.NoteOnEvent(tick=508000, channel=0, data=[4, 100]),
   midi.NoteOffEvent(tick=508100, channel=0, data=[4, 0]),
   midi.NoteOnEvent(tick=508200, channel=0, data=[12, 100]),
   midi.NoteOffEvent(tick=508300, channel=0, data=[12, 0]),
   midi.NoteOnEvent(tick=508400, channel=0, data=[4, 100]),
   midi.NoteOffEvent(tick=508500, channel=0, data=[4, 0]),
   midi.NoteOnEvent(tick=508600, channel=0, data=[13, 100]),
   midi.NoteOffEvent(tick=508700, channel=0, data=[13, 0]),
   midi.NoteOnEvent(tick=508800, channel=0, data=[19, 100]),
   midi.NoteOffEvent(tick=508900, channel=0, data=[19, 0]),
   midi.NoteOnEvent(tick=509000, channel=0, data=[18, 100]),
   midi.NoteOffEvent(tick=509100, channel=0, data=[18, 0]),
   midi.NoteOnEvent(tick=509200, channel=0, data=[36, 100]),
   midi.NoteOffEvent(tick=509300, channel=0, data=[36, 0]),
   midi.NoteOnEvent(tick=509400, channel=0, data=[2, 100]),
   midi.NoteOffEvent(tick=509500, channel=0, data=[2, 0]),
   midi.NoteOnEvent(tick=509600, channel=0, data=[17, 100]),
   midi.NoteOffEvent(tick=509700, channel=0, data=[17, 0]),
   midi.NoteOnEvent(tick=509800, channel=0, data=[4, 100]),
   midi.NoteOffEvent(tick=509900, channel=0, data=[4, 0]),
   midi.NoteOnEvent(tick=510000, channel=0, data=[0, 100]),
   midi.NoteOffEvent(tick=510100, channel=0, data=[0, 0]),
   midi.NoteOnEvent(tick=510200, channel=0, data=[19, 100]),
   midi.NoteOffEvent(tick=510300, channel=0, data=[19, 0]),
   midi.NoteOnEvent(tick=510400, channel=0, data=[4, 100]),
   midi.NoteOffEvent(tick=510500, channel=0, data=[4, 0]),
   midi.NoteOnEvent(tick=510600, channel=0, data=[18, 100]),
   midi.NoteOffEvent(tick=510700, channel=0, data=[18, 0]),
   midi.NoteOnEvent(tick=510800, channel=0, data=[36, 100]),
   midi.NoteOffEvent(tick=510900, channel=0, data=[36, 0]),
   midi.NoteOnEvent(tick=511000, channel=0, data=[19, 100]),
   midi.NoteOffEvent(tick=511100, channel=0, data=[19, 0]),
   midi.NoteOnEvent(tick=511200, channel=0, data=[7, 100]),
   midi.NoteOffEvent(tick=511300, channel=0, data=[7, 0]),
   midi.NoteOnEvent(tick=511400, channel=0, data=[4, 100]),
   midi.NoteOffEvent(tick=511500, channel=0, data=[4, 0]),
   midi.NoteOnEvent(tick=511600, channel=0, data=[36, 100]),
   midi.NoteOffEvent(tick=511700, channel=0, data=[36, 0]),
   midi.NoteOnEvent(tick=511800, channel=0, data=[74, 100]),
   midi.NoteOffEvent(tick=511900, channel=0, data=[74, 0]),
   midi.NoteOnEvent(tick=512000, channel=0, data=[0, 100]),
   midi.NoteOffEvent(tick=512100, channel=0, data=[0, 0]),
   midi.NoteOnEvent(tick=512200, channel=0, data=[36, 100]),
   midi.NoteOffEvent(tick=512300, channel=0, data=[36, 0]),
   midi.NoteOnEvent(tick=512400, channel=0, data=[21, 100]),
   midi.NoteOffEvent(tick=512500, channel=0, data=[21, 0]),
   midi.NoteOnEvent(tick=512600, channel=0, data=[0, 100]),
   midi.NoteOffEvent(tick=512700, channel=0, data=[0, 0]),
   midi.NoteOnEvent(tick=512800, channel=0, data=[17, 100]),
   midi.NoteOffEvent(tick=512900, channel=0, data=[17, 0]),
   midi.NoteOnEvent(tick=513000, channel=0, data=[8, 100]),
   midi.NoteOffEvent(tick=513100, channel=0, data=[8, 0]),
   midi.NoteOnEvent(tick=513200, channel=0, data=[0, 100]),
   midi.NoteOffEvent(tick=513300, channel=0, data=[0, 0]),
   midi.NoteOnEvent(tick=513400, channel=0, data=[1, 100]),
   midi.NoteOffEvent(tick=513500, channel=0, data=[1, 0]),
   midi.NoteOnEvent(tick=513600, channel=0, data=[11, 100]),
   midi.NoteOffEvent(tick=513700, channel=0, data=[11, 0]),
   midi.NoteOnEvent(tick=513800, channel=0, data=[4, 100]),
   midi.NoteOffEvent(tick=513900, channel=0, data=[4, 0]),
   midi.NoteOnEvent(tick=514000, channel=0, data=[36, 100]),
   midi.NoteOffEvent(tick=514100, channel=0, data=[36, 0]),
   midi.NoteOnEvent(tick=514200, channel=0, data=[0, 100]),
   midi.NoteOffEvent(tick=514300, channel=0, data=[0, 0]),
   midi.NoteOnEvent(tick=514400, channel=0, data=[13, 100]),
   midi.NoteOffEvent(tick=514500, channel=0, data=[13, 0]),
   midi.NoteOnEvent(tick=514600, channel=0, data=[3, 100]),
   midi.NoteOffEvent(tick=514700, channel=0, data=[3, 0]),
   midi.NoteOnEvent(tick=514800, channel=0, data=[36, 100]),
   midi.NoteOffEvent(tick=514900, channel=0, data=[36, 0]),
   midi.NoteOnEvent(tick=515000, channel=0, data=[0, 100]),
   midi.NoteOffEvent(tick=515100, channel=0, data=[0, 0]),
   midi.NoteOnEvent(tick=515200, channel=0, data=[18, 100]),
   midi.NoteOffEvent(tick=515300, channel=0, data=[18, 0]),
   midi.NoteOnEvent(tick=515400, channel=0, data=[18, 100]),
   midi.NoteOffEvent(tick=515500, channel=0, data=[18, 0]),
   midi.NoteOnEvent(tick=515600, channel=0, data=[8, 100]),
   midi.NoteOffEvent(tick=515700, channel=0, data=[8, 0]),
   midi.NoteOnEvent(tick=515800, channel=0, data=[6, 100]),
   midi.NoteOffEvent(tick=515900, channel=0, data=[6, 0]),
   midi.NoteOnEvent(tick=516000, channel=0, data=[13, 100]),
   midi.NoteOffEvent(tick=516100, channel=0, data=[13, 0]),
   midi.NoteOnEvent(tick=516200, channel=0, data=[18, 100]),
   midi.NoteOffEvent(tick=516300, channel=0, data=[18, 0]),
   midi.NoteOnEvent(tick=516400, channel=0, data=[56, 100]),
   midi.NoteOffEvent(tick=516500, channel=0, data=[56, 0]),
   midi.NoteOnEvent(tick=516600, channel=0, data=[36, 100]),
   midi.NoteOffEvent(tick=516700, channel=0, data=[36, 0]),
   midi.NoteOnEvent(tick=516800, channel=0, data=[36, 100]),
   midi.NoteOffEvent(tick=516900, channel=0, data=[36, 0]),
   midi.NoteOnEvent(tick=517000, channel=0, data=[36, 100]),
   midi.NoteOffEvent(tick=517100, channel=0, data=[36, 0]),
   midi.NoteOnEvent(tick=517200, channel=0, data=[36, 100]),
   midi.NoteOffEvent(tick=517300, channel=0, data=[36, 0]),
   midi.NoteOnEvent(tick=517400, channel=0, data=[0, 100]),
   midi.NoteOffEvent(tick=517500, channel=0, data=[0, 0]),
   midi.NoteOnEvent(tick=517600, channel=0, data=[36, 100]),
   midi.NoteOffEvent(tick=517700, channel=0, data=[36, 0]),
   midi.NoteOnEvent(tick=517800, channel=0, data=[21, 100]),
   midi.NoteOffEvent(tick=517900, channel=0, data=[21, 0]),
   midi.NoteOnEvent(tick=518000, channel=0, data=[0, 100]),
   midi.NoteOffEvent(tick=518100, channel=0, data=[0, 0]),
   midi.NoteOnEvent(tick=518200, channel=0, data=[11, 100]),
   midi.NoteOffEvent(tick=518300, channel=0, data=[11, 0]),
   midi.NoteOnEvent(tick=518400, channel=0, data=[20, 100]),
   midi.NoteOffEvent(tick=518500, channel=0, data=[20, 0]),
   midi.NoteOnEvent(tick=518600, channel=0, data=[4, 100]),
   midi.NoteOffEvent(tick=518700, channel=0, data=[4, 0]),
   midi.NoteOnEvent(tick=518800, channel=0, data=[36, 100]),
   midi.NoteOffEvent(tick=518900, channel=0, data=[36, 0]),
   midi.NoteOnEvent(tick=519000, channel=0, data=[14, 100]),
   midi.NoteOffEvent(tick=519100, channel=0, data=[14, 0]),
   midi.NoteOnEvent(tick=519200, channel=0, data=[5, 100]),
   midi.NoteOffEvent(tick=519300, channel=0, data=[5, 0]),
   midi.NoteOnEvent(tick=519400, channel=0, data=[36, 100]),
   midi.NoteOffEvent(tick=519500, channel=0, data=[36, 0]),
   midi.NoteOnEvent(tick=519600, channel=0, data=[32, 100]),
   midi.NoteOffEvent(tick=519700, channel=0, data=[32, 0]),
   midi.NoteOnEvent(tick=519800, channel=0, data=[36, 100]),
   midi.NoteOffEvent(tick=519900, channel=0, data=[36, 0]),
   midi.NoteOnEvent(tick=520000, channel=0, data=[19, 100]),
   midi.NoteOffEvent(tick=520100, channel=0, data=[19, 0]),
   midi.NoteOnEvent(tick=520200, channel=0, data=[14, 100]),
   midi.NoteOffEvent(tick=520300, channel=0, data=[14, 0]),
   midi.NoteOnEvent(tick=520400, channel=0, data=[36, 100]),
   midi.NoteOffEvent(tick=520500, channel=0, data=[36, 0]),
   midi.NoteOnEvent(tick=520600, channel=0, data=[74, 100]),
   midi.NoteOffEvent(tick=520700, channel=0, data=[74, 0]),
   midi.NoteOnEvent(tick=520800, channel=0, data=[0, 100]),
   midi.NoteOffEvent(tick=520900, channel=0, data=[0, 0]),
   midi.NoteOnEvent(tick=521000, channel=0, data=[37, 100]),
   midi.NoteOffEvent(tick=521100, channel=0, data=[37, 0]),
   midi.NoteOnEvent(tick=521200, channel=0, data=[36, 100]),
   midi.NoteOffEvent(tick=521300, channel=0, data=[36, 0]),
   midi.NoteOnEvent(tick=521400, channel=0, data=[19, 100]),
   midi.NoteOffEvent(tick=521500, channel=0, data=[19, 0]),
   midi.NoteOnEvent(tick=521600, channel=0, data=[7, 100]),
   midi.NoteOffEvent(tick=521700, channel=0, data=[7, 0]),
   midi.NoteOnEvent(tick=521800, channel=0, data=[4, 100]),
   midi.NoteOffEvent(tick=521900, channel=0, data=[4, 0]),
   midi.NoteOnEvent(tick=522000, channel=0, data=[36, 100]),
   midi.NoteOffEvent(tick=522100, channel=0, data=[36, 0]),
   midi.NoteOnEvent(tick=522200, channel=0, data=[18, 100]),
   midi.NoteOffEvent(tick=522300, channel=0, data=[18, 0]),
   midi.NoteOnEvent(tick=522400, channel=0, data=[4, 100]),
   midi.NoteOffEvent(tick=522500, channel=0, data=[4, 0]),
   midi.NoteOnEvent(tick=522600, channel=0, data=[2, 100]),
   midi.NoteOffEvent(tick=522700, channel=0, data=[2, 0]),
   midi.NoteOnEvent(tick=522800, channel=0, data=[14, 100]),
   midi.NoteOffEvent(tick=522900, channel=0, data=[14, 0]),
   midi.NoteOnEvent(tick=523000, channel=0, data=[13, 100]),
   midi.NoteOffEvent(tick=523100, channel=0, data=[13, 0]),
   midi.NoteOnEvent(tick=523200, channel=0, data=[3, 100]),
   midi.NoteOffEvent(tick=523300, channel=0, data=[3, 0]),
   midi.NoteOnEvent(tick=523400, channel=0, data=[36, 100]),
   midi.NoteOffEvent(tick=523500, channel=0, data=[36, 0]),
   midi.NoteOnEvent(tick=523600, channel=0, data=[0, 100]),
   midi.NoteOffEvent(tick=523700, channel=0, data=[0, 0]),
   midi.NoteOnEvent(tick=523800, channel=0, data=[18, 100]),
   midi.NoteOffEvent(tick=523900, channel=0, data=[18, 0]),
   midi.NoteOnEvent(tick=524000, channel=0, data=[18, 100]),
   midi.NoteOffEvent(tick=524100, channel=0, data=[18, 0]),
   midi.NoteOnEvent(tick=524200, channel=0, data=[8, 100]),
   midi.NoteOffEvent(tick=524300, channel=0, data=[8, 0]),
   midi.NoteOnEvent(tick=524400, channel=0, data=[6, 100]),
   midi.NoteOffEvent(tick=524500, channel=0, data=[6, 0]),
   midi.NoteOnEvent(tick=524600, channel=0, data=[13, 100]),
   midi.NoteOffEvent(tick=524700, channel=0, data=[13, 0]),
   midi.NoteOnEvent(tick=524800, channel=0, data=[12, 100]),
   midi.NoteOffEvent(tick=524900, channel=0, data=[12, 0]),
   midi.NoteOnEvent(tick=525000, channel=0, data=[4, 100]),
   midi.NoteOffEvent(tick=525100, channel=0, data=[4, 0]),
   midi.NoteOnEvent(tick=525200, channel=0, data=[13, 100]),
   midi.NoteOffEvent(tick=525300, channel=0, data=[13, 0]),
   midi.NoteOnEvent(tick=525400, channel=0, data=[19, 100]),
   midi.NoteOffEvent(tick=525500, channel=0, data=[19, 0]),
   midi.NoteOnEvent(tick=525600, channel=0, data=[36, 100]),
   midi.NoteOffEvent(tick=525700, channel=0, data=[36, 0]),
   midi.NoteOnEvent(tick=525800, channel=0, data=[18, 100]),
   midi.NoteOffEvent(tick=525900, channel=0, data=[18, 0]),
   midi.NoteOnEvent(tick=526000, channel=0, data=[19, 100]),
   midi.NoteOffEvent(tick=526100, channel=0, data=[19, 0]),
   midi.NoteOnEvent(tick=526200, channel=0, data=[0, 100]),
   midi.NoteOffEvent(tick=526300, channel=0, data=[0, 0]),
   midi.NoteOnEvent(tick=526400, channel=0, data=[19, 100]),
   midi.NoteOffEvent(tick=526500, channel=0, data=[19, 0]),
   midi.NoteOnEvent(tick=526600, channel=0, data=[4, 100]),
   midi.NoteOffEvent(tick=526700, channel=0, data=[4, 0]),
   midi.NoteOnEvent(tick=526800, channel=0, data=[12, 100]),
   midi.NoteOffEvent(tick=526900, channel=0, data=[12, 0]),
   midi.NoteOnEvent(tick=527000, channel=0, data=[4, 100]),
   midi.NoteOffEvent(tick=527100, channel=0, data=[4, 0]),
   midi.NoteOnEvent(tick=527200, channel=0, data=[13, 100]),
   midi.NoteOffEvent(tick=527300, channel=0, data=[13, 0]),
   midi.NoteOnEvent(tick=527400, channel=0, data=[19, 100]),
   midi.NoteOffEvent(tick=527500, channel=0, data=[19, 0]),
   midi.NoteOnEvent(tick=527600, channel=0, data=[36, 100]),
   midi.NoteOffEvent(tick=527700, channel=0, data=[36, 0]),
   midi.NoteOnEvent(tick=527800, channel=0, data=[0, 100]),
   midi.NoteOffEvent(tick=527900, channel=0, data=[0, 0]),
   midi.NoteOnEvent(tick=528000, channel=0, data=[18, 100]),
   midi.NoteOffEvent(tick=528100, channel=0, data=[18, 0]),
   midi.NoteOnEvent(tick=528200, channel=0, data=[18, 100]),
   midi.NoteOffEvent(tick=528300, channel=0, data=[18, 0]),
   midi.NoteOnEvent(tick=528400, channel=0, data=[8, 100]),
   midi.NoteOffEvent(tick=528500, channel=0, data=[8, 0]),
   midi.NoteOnEvent(tick=528600, channel=0, data=[6, 100]),
   midi.NoteOffEvent(tick=528700, channel=0, data=[6, 0]),
   midi.NoteOnEvent(tick=528800, channel=0, data=[13, 100]),
   midi.NoteOffEvent(tick=528900, channel=0, data=[13, 0]),
   midi.NoteOnEvent(tick=529000, channel=0, data=[18, 100]),
   midi.NoteOffEvent(tick=529100, channel=0, data=[18, 0]),
   midi.NoteOnEvent(tick=529200, channel=0, data=[36, 100]),
   midi.NoteOffEvent(tick=529300, channel=0, data=[36, 0]),
   midi.NoteOnEvent(tick=529400, channel=0, data=[0, 100]),
   midi.NoteOffEvent(tick=529500, channel=0, data=[0, 0]),
   midi.NoteOnEvent(tick=529600, channel=0, data=[36, 100]),
   midi.NoteOffEvent(tick=529700, channel=0, data=[36, 0]),
   midi.NoteOnEvent(tick=529800, channel=0, data=[21, 100]),
   midi.NoteOffEvent(tick=529900, channel=0, data=[21, 0]),
   midi.NoteOnEvent(tick=530000, channel=0, data=[0, 100]),
   midi.NoteOffEvent(tick=530100, channel=0, data=[0, 0]),
   midi.NoteOnEvent(tick=530200, channel=0, data=[11, 100]),
   midi.NoteOffEvent(tick=530300, channel=0, data=[11, 0]),
   midi.NoteOnEvent(tick=530400, channel=0, data=[20, 100]),
   midi.NoteOffEvent(tick=530500, channel=0, data=[20, 0]),
   midi.NoteOnEvent(tick=530600, channel=0, data=[4, 100]),
   midi.NoteOffEvent(tick=530700, channel=0, data=[4, 0]),
   midi.NoteOnEvent(tick=530800, channel=0, data=[56, 100]),
   midi.NoteOffEvent(tick=530900, channel=0, data=[56, 0]),
   midi.NoteOnEvent(tick=531000, channel=0, data=[36, 100]),
   midi.NoteOffEvent(tick=531100, channel=0, data=[36, 0]),
   midi.NoteOnEvent(tick=531200, channel=0, data=[36, 100]),
   midi.NoteOffEvent(tick=531300, channel=0, data=[36, 0]),
   midi.NoteOnEvent(tick=531400, channel=0, data=[36, 100]),
   midi.NoteOffEvent(tick=531500, channel=0, data=[36, 0]),
   midi.NoteOnEvent(tick=531600, channel=0, data=[36, 100]),
   midi.NoteOffEvent(tick=531700, channel=0, data=[36, 0]),
   midi.NoteOnEvent(tick=531800, channel=0, data=[14, 100]),
   midi.NoteOffEvent(tick=531900, channel=0, data=[14, 0]),
   midi.NoteOnEvent(tick=532000, channel=0, data=[5, 100]),
   midi.NoteOffEvent(tick=532100, channel=0, data=[5, 0]),
   midi.NoteOnEvent(tick=532200, channel=0, data=[36, 100]),
   midi.NoteOffEvent(tick=532300, channel=0, data=[36, 0]),
   midi.NoteOnEvent(tick=532400, channel=0, data=[27, 100]),
   midi.NoteOffEvent(tick=532500, channel=0, data=[27, 0]),
   midi.NoteOnEvent(tick=532600, channel=0, data=[28, 100]),
   midi.NoteOffEvent(tick=532700, channel=0, data=[28, 0]),
   midi.NoteOnEvent(tick=532800, channel=0, data=[36, 100]),
   midi.NoteOffEvent(tick=532900, channel=0, data=[36, 0]),
   midi.NoteOnEvent(tick=533000, channel=0, data=[19, 100]),
   midi.NoteOffEvent(tick=533100, channel=0, data=[19, 0]),
   midi.NoteOnEvent(tick=533200, channel=0, data=[14, 100]),
   midi.NoteOffEvent(tick=533300, channel=0, data=[14, 0]),
   midi.NoteOnEvent(tick=533400, channel=0, data=[36, 100]),
   midi.NoteOffEvent(tick=533500, channel=0, data=[36, 0]),
   midi.NoteOnEvent(tick=533600, channel=0, data=[74, 100]),
   midi.NoteOffEvent(tick=533700, channel=0, data=[74, 0]),
   midi.NoteOnEvent(tick=533800, channel=0, data=[0, 100]),
   midi.NoteOffEvent(tick=533900, channel=0, data=[0, 0]),
   midi.NoteOnEvent(tick=534000, channel=0, data=[37, 100]),
   midi.NoteOffEvent(tick=534100, channel=0, data=[37, 0]),
   midi.NoteOnEvent(tick=534200, channel=0, data=[36, 100]),
   midi.NoteOffEvent(tick=534300, channel=0, data=[36, 0]),
   midi.NoteOnEvent(tick=534400, channel=0, data=[19, 100]),
   midi.NoteOffEvent(tick=534500, channel=0, data=[19, 0]),
   midi.NoteOnEvent(tick=534600, channel=0, data=[7, 100]),
   midi.NoteOffEvent(tick=534700, channel=0, data=[7, 0]),
   midi.NoteOnEvent(tick=534800, channel=0, data=[4, 100]),
   midi.NoteOffEvent(tick=534900, channel=0, data=[4, 0]),
   midi.NoteOnEvent(tick=535000, channel=0, data=[36, 100]),
   midi.NoteOffEvent(tick=535100, channel=0, data=[36, 0]),
   midi.NoteOnEvent(tick=535200, channel=0, data=[5, 100]),
   midi.NoteOffEvent(tick=535300, channel=0, data=[5, 0]),
   midi.NoteOnEvent(tick=535400, channel=0, data=[8, 100]),
   midi.NoteOffEvent(tick=535500, channel=0, data=[8, 0]),
   midi.NoteOnEvent(tick=535600, channel=0, data=[17, 100]),
   midi.NoteOffEvent(tick=535700, channel=0, data=[17, 0]),
   midi.NoteOnEvent(tick=535800, channel=0, data=[18, 100]),
   midi.NoteOffEvent(tick=535900, channel=0, data=[18, 0]),
   midi.NoteOnEvent(tick=536000, channel=0, data=[19, 100]),
   midi.NoteOffEvent(tick=536100, channel=0, data=[19, 0]),
   midi.NoteOnEvent(tick=536200, channel=0, data=[36, 100]),
   midi.NoteOffEvent(tick=536300, channel=0, data=[36, 0]),
   midi.NoteOnEvent(tick=536400, channel=0, data=[18, 100]),
   midi.NoteOffEvent(tick=536500, channel=0, data=[18, 0]),
   midi.NoteOnEvent(tick=536600, channel=0, data=[19, 100]),
   midi.NoteOffEvent(tick=536700, channel=0, data=[19, 0]),
   midi.NoteOnEvent(tick=536800, channel=0, data=[0, 100]),
   midi.NoteOffEvent(tick=536900, channel=0, data=[0, 0]),
   midi.NoteOnEvent(tick=537000, channel=0, data=[19, 100]),
   midi.NoteOffEvent(tick=537100, channel=0, data=[19, 0]),
   midi.NoteOnEvent(tick=537200, channel=0, data=[4, 100]),
   midi.NoteOffEvent(tick=537300, channel=0, data=[4, 0]),
   midi.NoteOnEvent(tick=537400, channel=0, data=[12, 100]),
   midi.NoteOffEvent(tick=537500, channel=0, data=[12, 0]),
   midi.NoteOnEvent(tick=537600, channel=0, data=[4, 100]),
   midi.NoteOffEvent(tick=537700, channel=0, data=[4, 0]),
   midi.NoteOnEvent(tick=537800, channel=0, data=[13, 100]),
   midi.NoteOffEvent(tick=537900, channel=0, data=[13, 0]),
   midi.NoteOnEvent(tick=538000, channel=0, data=[19, 100]),
   midi.NoteOffEvent(tick=538100, channel=0, data=[19, 0]),
   midi.NoteOnEvent(tick=538200, channel=0, data=[36, 100]),
   midi.NoteOffEvent(tick=538300, channel=0, data=[36, 0]),
   midi.NoteOnEvent(tick=538400, channel=0, data=[2, 100]),
   midi.NoteOffEvent(tick=538500, channel=0, data=[2, 0]),
   midi.NoteOnEvent(tick=538600, channel=0, data=[17, 100]),
   midi.NoteOffEvent(tick=538700, channel=0, data=[17, 0]),
   midi.NoteOnEvent(tick=538800, channel=0, data=[4, 100]),
   midi.NoteOffEvent(tick=538900, channel=0, data=[4, 0]),
   midi.NoteOnEvent(tick=539000, channel=0, data=[0, 100]),
   midi.NoteOffEvent(tick=539100, channel=0, data=[0, 0]),
   midi.NoteOnEvent(tick=539200, channel=0, data=[19, 100]),
   midi.NoteOffEvent(tick=539300, channel=0, data=[19, 0]),
   midi.NoteOnEvent(tick=539400, channel=0, data=[4, 100]),
   midi.NoteOffEvent(tick=539500, channel=0, data=[4, 0]),
   midi.NoteOnEvent(tick=539600, channel=0, data=[18, 100]),
   midi.NoteOffEvent(tick=539700, channel=0, data=[18, 0]),
   midi.NoteOnEvent(tick=539800, channel=0, data=[36, 100]),
   midi.NoteOffEvent(tick=539900, channel=0, data=[36, 0]),
   midi.NoteOnEvent(tick=540000, channel=0, data=[0, 100]),
   midi.NoteOffEvent(tick=540100, channel=0, data=[0, 0]),
   midi.NoteOnEvent(tick=540200, channel=0, data=[36, 100]),
   midi.NoteOffEvent(tick=540300, channel=0, data=[36, 0]),
   midi.NoteOnEvent(tick=540400, channel=0, data=[13, 100]),
   midi.NoteOffEvent(tick=540500, channel=0, data=[13, 0]),
   midi.NoteOnEvent(tick=540600, channel=0, data=[4, 100]),
   midi.NoteOffEvent(tick=540700, channel=0, data=[4, 0]),
   midi.NoteOnEvent(tick=540800, channel=0, data=[22, 100]),
   midi.NoteOffEvent(tick=540900, channel=0, data=[22, 0]),
   midi.NoteOnEvent(tick=541000, channel=0, data=[36, 100]),
   midi.NoteOffEvent(tick=541100, channel=0, data=[36, 0]),
   midi.NoteOnEvent(tick=541200, channel=0, data=[21, 100]),
   midi.NoteOffEvent(tick=541300, channel=0, data=[21, 0]),
   midi.NoteOnEvent(tick=541400, channel=0, data=[0, 100]),
   midi.NoteOffEvent(tick=541500, channel=0, data=[0, 0]),
   midi.NoteOnEvent(tick=541600, channel=0, data=[17, 100]),
   midi.NoteOffEvent(tick=541700, channel=0, data=[17, 0]),
   midi.NoteOnEvent(tick=541800, channel=0, data=[8, 100]),
   midi.NoteOffEvent(tick=541900, channel=0, data=[8, 0]),
   midi.NoteOnEvent(tick=542000, channel=0, data=[0, 100]),
   midi.NoteOffEvent(tick=542100, channel=0, data=[0, 0]),
   midi.NoteOnEvent(tick=542200, channel=0, data=[1, 100]),
   midi.NoteOffEvent(tick=542300, channel=0, data=[1, 0]),
   midi.NoteOnEvent(tick=542400, channel=0, data=[11, 100]),
   midi.NoteOffEvent(tick=542500, channel=0, data=[11, 0]),
   midi.NoteOnEvent(tick=542600, channel=0, data=[4, 100]),
   midi.NoteOffEvent(tick=542700, channel=0, data=[4, 0]),
   midi.NoteOnEvent(tick=542800, channel=0, data=[37, 100]),
   midi.NoteOffEvent(tick=542900, channel=0, data=[37, 0]),
   midi.NoteOnEvent(tick=543000, channel=0, data=[36, 100]),
   midi.NoteOffEvent(tick=543100, channel=0, data=[36, 0]),
   midi.NoteOnEvent(tick=543200, channel=0, data=[19, 100]),
   midi.NoteOffEvent(tick=543300, channel=0, data=[19, 0]),
   midi.NoteOnEvent(tick=543400, channel=0, data=[7, 100]),
   midi.NoteOffEvent(tick=543500, channel=0, data=[7, 0]),
   midi.NoteOnEvent(tick=543600, channel=0, data=[4, 100]),
   midi.NoteOffEvent(tick=543700, channel=0, data=[4, 0]),
   midi.NoteOnEvent(tick=543800, channel=0, data=[36, 100]),
   midi.NoteOffEvent(tick=543900, channel=0, data=[36, 0]),
   midi.NoteOnEvent(tick=544000, channel=0, data=[18, 100]),
   midi.NoteOffEvent(tick=544100, channel=0, data=[18, 0]),
   midi.NoteOnEvent(tick=544200, channel=0, data=[4, 100]),
   midi.NoteOffEvent(tick=544300, channel=0, data=[4, 0]),
   midi.NoteOnEvent(tick=544400, channel=0, data=[2, 100]),
   midi.NoteOffEvent(tick=544500, channel=0, data=[2, 0]),
   midi.NoteOnEvent(tick=544600, channel=0, data=[14, 100]),
   midi.NoteOffEvent(tick=544700, channel=0, data=[14, 0]),
   midi.NoteOnEvent(tick=544800, channel=0, data=[13, 100]),
   midi.NoteOffEvent(tick=544900, channel=0, data=[13, 0]),
   midi.NoteOnEvent(tick=545000, channel=0, data=[3, 100]),
   midi.NoteOffEvent(tick=545100, channel=0, data=[3, 0]),
   midi.NoteOnEvent(tick=545200, channel=0, data=[56, 100]),
   midi.NoteOffEvent(tick=545300, channel=0, data=[56, 0]),
   midi.NoteOnEvent(tick=545400, channel=0, data=[36, 100]),
   midi.NoteOffEvent(tick=545500, channel=0, data=[36, 0]),
   midi.NoteOnEvent(tick=545600, channel=0, data=[36, 100]),
   midi.NoteOffEvent(tick=545700, channel=0, data=[36, 0]),
   midi.NoteOnEvent(tick=545800, channel=0, data=[36, 100]),
   midi.NoteOffEvent(tick=545900, channel=0, data=[36, 0]),
   midi.NoteOnEvent(tick=546000, channel=0, data=[36, 100]),
   midi.NoteOffEvent(tick=546100, channel=0, data=[36, 0]),
   midi.NoteOnEvent(tick=546200, channel=0, data=[18, 100]),
   midi.NoteOffEvent(tick=546300, channel=0, data=[18, 0]),
   midi.NoteOnEvent(tick=546400, channel=0, data=[19, 100]),
   midi.NoteOffEvent(tick=546500, channel=0, data=[19, 0]),
   midi.NoteOnEvent(tick=546600, channel=0, data=[0, 100]),
   midi.NoteOffEvent(tick=546700, channel=0, data=[0, 0]),
   midi.NoteOnEvent(tick=546800, channel=0, data=[19, 100]),
   midi.NoteOffEvent(tick=546900, channel=0, data=[19, 0]),
   midi.NoteOnEvent(tick=547000, channel=0, data=[4, 100]),
   midi.NoteOffEvent(tick=547100, channel=0, data=[4, 0]),
   midi.NoteOnEvent(tick=547200, channel=0, data=[12, 100]),
   midi.NoteOffEvent(tick=547300, channel=0, data=[12, 0]),
   midi.NoteOnEvent(tick=547400, channel=0, data=[4, 100]),
   midi.NoteOffEvent(tick=547500, channel=0, data=[4, 0]),
   midi.NoteOnEvent(tick=547600, channel=0, data=[13, 100]),
   midi.NoteOffEvent(tick=547700, channel=0, data=[13, 0]),
   midi.NoteOnEvent(tick=547800, channel=0, data=[19, 100]),
   midi.NoteOffEvent(tick=547900, channel=0, data=[19, 0]),
   midi.NoteOnEvent(tick=548000, channel=0, data=[36, 100]),
   midi.NoteOffEvent(tick=548100, channel=0, data=[36, 0]),
   midi.NoteOnEvent(tick=548200, channel=0, data=[2, 100]),
   midi.NoteOffEvent(tick=548300, channel=0, data=[2, 0]),
   midi.NoteOnEvent(tick=548400, channel=0, data=[7, 100]),
   midi.NoteOffEvent(tick=548500, channel=0, data=[7, 0]),
   midi.NoteOnEvent(tick=548600, channel=0, data=[0, 100]),
   midi.NoteOffEvent(tick=548700, channel=0, data=[0, 0]),
   midi.NoteOnEvent(tick=548800, channel=0, data=[13, 100]),
   midi.NoteOffEvent(tick=548900, channel=0, data=[13, 0]),
   midi.NoteOnEvent(tick=549000, channel=0, data=[6, 100]),
   midi.NoteOffEvent(tick=549100, channel=0, data=[6, 0]),
   midi.NoteOnEvent(tick=549200, channel=0, data=[4, 100]),
   midi.NoteOffEvent(tick=549300, channel=0, data=[4, 0]),
   midi.NoteOnEvent(tick=549400, channel=0, data=[18, 100]),
   midi.NoteOffEvent(tick=549500, channel=0, data=[18, 0]),
   midi.NoteOnEvent(tick=549600, channel=0, data=[36, 100]),
   midi.NoteOffEvent(tick=549700, channel=0, data=[36, 0]),
   midi.NoteOnEvent(tick=549800, channel=0, data=[14, 100]),
   midi.NoteOffEvent(tick=549900, channel=0, data=[14, 0]),
   midi.NoteOnEvent(tick=550000, channel=0, data=[13, 100]),
   midi.NoteOffEvent(tick=550100, channel=0, data=[13, 0]),
   midi.NoteOnEvent(tick=550200, channel=0, data=[11, 100]),
   midi.NoteOffEvent(tick=550300, channel=0, data=[11, 0]),
   midi.NoteOnEvent(tick=550400, channel=0, data=[24, 100]),
   midi.NoteOffEvent(tick=550500, channel=0, data=[24, 0]),
   midi.NoteOnEvent(tick=550600, channel=0, data=[36, 100]),
   midi.NoteOffEvent(tick=550700, channel=0, data=[36, 0]),
   midi.NoteOnEvent(tick=550800, channel=0, data=[8, 100]),
   midi.NoteOffEvent(tick=550900, channel=0, data=[8, 0]),
   midi.NoteOnEvent(tick=551000, channel=0, data=[19, 100]),
   midi.NoteOffEvent(tick=551100, channel=0, data=[19, 0]),
   midi.NoteOnEvent(tick=551200, channel=0, data=[18, 100]),
   midi.NoteOffEvent(tick=551300, channel=0, data=[18, 0]),
   midi.NoteOnEvent(tick=551400, channel=0, data=[36, 100]),
   midi.NoteOffEvent(tick=551500, channel=0, data=[36, 0]),
   midi.NoteOnEvent(tick=551600, channel=0, data=[21, 100]),
   midi.NoteOffEvent(tick=551700, channel=0, data=[21, 0]),
   midi.NoteOnEvent(tick=551800, channel=0, data=[0, 100]),
   midi.NoteOffEvent(tick=551900, channel=0, data=[0, 0]),
   midi.NoteOnEvent(tick=552000, channel=0, data=[11, 100]),
   midi.NoteOffEvent(tick=552100, channel=0, data=[11, 0]),
   midi.NoteOnEvent(tick=552200, channel=0, data=[20, 100]),
   midi.NoteOffEvent(tick=552300, channel=0, data=[20, 0]),
   midi.NoteOnEvent(tick=552400, channel=0, data=[4, 100]),
   midi.NoteOffEvent(tick=552500, channel=0, data=[4, 0]),
   midi.NoteOnEvent(tick=552600, channel=0, data=[46, 100]),
   midi.NoteOffEvent(tick=552700, channel=0, data=[46, 0]),
   midi.NoteOnEvent(tick=552800, channel=0, data=[56, 100]),
   midi.NoteOffEvent(tick=552900, channel=0, data=[56, 0]),
   midi.NoteOnEvent(tick=553000, channel=0, data=[56, 100]),
   midi.NoteOffEvent(tick=553100, channel=0, data=[56, 0]),
   midi.NoteOnEvent(tick=553200, channel=0, data=[56, 100]),
   midi.NoteOffEvent(tick=553300, channel=0, data=[56, 0]),
   midi.NoteOnEvent(tick=553400, channel=0, data=[36, 100]),
   midi.NoteOffEvent(tick=553500, channel=0, data=[36, 0]),
   midi.NoteOnEvent(tick=553600, channel=0, data=[36, 100]),
   midi.NoteOffEvent(tick=553700, channel=0, data=[36, 0]),
   midi.NoteOnEvent(tick=553800, channel=0, data=[36, 100]),
   midi.NoteOffEvent(tick=553900, channel=0, data=[36, 0]),
   midi.NoteOnEvent(tick=554000, channel=0, data=[36, 100]),
   midi.NoteOffEvent(tick=554100, channel=0, data=[36, 0]),
   midi.NoteOnEvent(tick=554200, channel=0, data=[36, 100]),
   midi.NoteOffEvent(tick=554300, channel=0, data=[36, 0]),
   midi.NoteOnEvent(tick=554400, channel=0, data=[36, 100]),
   midi.NoteOffEvent(tick=554500, channel=0, data=[36, 0]),
   midi.NoteOnEvent(tick=554600, channel=0, data=[36, 100]),
   midi.NoteOffEvent(tick=554700, channel=0, data=[36, 0]),
   midi.NoteOnEvent(tick=554800, channel=0, data=[36, 100]),
   midi.NoteOffEvent(tick=554900, channel=0, data=[36, 0]),
   midi.NoteOnEvent(tick=555000, channel=0, data=[74, 100]),
   midi.NoteOffEvent(tick=555100, channel=0, data=[74, 0]),
   midi.NoteOnEvent(tick=555200, channel=0, data=[0, 100]),
   midi.NoteOffEvent(tick=555300, channel=0, data=[0, 0]),
   midi.NoteOnEvent(tick=555400, channel=0, data=[36, 100]),
   midi.NoteOffEvent(tick=555500, channel=0, data=[36, 0]),
   midi.NoteOnEvent(tick=555600, channel=0, data=[69, 100]),
   midi.NoteOffEvent(tick=555700, channel=0, data=[69, 0]),
   midi.NoteOnEvent(tick=555800, channel=0, data=[36, 100]),
   midi.NoteOffEvent(tick=555900, channel=0, data=[36, 0]),
   midi.NoteOnEvent(tick=556000, channel=0, data=[32, 100]),
   midi.NoteOffEvent(tick=556100, channel=0, data=[32, 0]),
   midi.NoteOnEvent(tick=556200, channel=0, data=[56, 100]),
   midi.NoteOffEvent(tick=556300, channel=0, data=[56, 0]),
   midi.NoteOnEvent(tick=556400, channel=0, data=[36, 100]),
   midi.NoteOffEvent(tick=556500, channel=0, data=[36, 0]),
   midi.NoteOnEvent(tick=556600, channel=0, data=[36, 100]),
   midi.NoteOffEvent(tick=556700, channel=0, data=[36, 0]),
   midi.NoteOnEvent(tick=556800, channel=0, data=[36, 100]),
   midi.NoteOffEvent(tick=556900, channel=0, data=[36, 0]),
   midi.NoteOnEvent(tick=557000, channel=0, data=[36, 100]),
   midi.NoteOffEvent(tick=557100, channel=0, data=[36, 0]),
   midi.NoteOnEvent(tick=557200, channel=0, data=[36, 100]),
   midi.NoteOffEvent(tick=557300, channel=0, data=[36, 0]),
   midi.NoteOnEvent(tick=557400, channel=0, data=[36, 100]),
   midi.NoteOffEvent(tick=557500, channel=0, data=[36, 0]),
   midi.NoteOnEvent(tick=557600, channel=0, data=[36, 100]),
   midi.NoteOffEvent(tick=557700, channel=0, data=[36, 0]),
   midi.NoteOnEvent(tick=557800, channel=0, data=[36, 100]),
   midi.NoteOffEvent(tick=557900, channel=0, data=[36, 0]),
   midi.NoteOnEvent(tick=558000, channel=0, data=[74, 100]),
   midi.NoteOffEvent(tick=558100, channel=0, data=[74, 0]),
   midi.NoteOnEvent(tick=558200, channel=0, data=[0, 100]),
   midi.NoteOffEvent(tick=558300, channel=0, data=[0, 0]),
   midi.NoteOnEvent(tick=558400, channel=0, data=[36, 100]),
   midi.NoteOffEvent(tick=558500, channel=0, data=[36, 0]),
   midi.NoteOnEvent(tick=558600, channel=0, data=[69, 100]),
   midi.NoteOffEvent(tick=558700, channel=0, data=[69, 0]),
   midi.NoteOnEvent(tick=558800, channel=0, data=[36, 100]),
   midi.NoteOffEvent(tick=558900, channel=0, data=[36, 0]),
   midi.NoteOnEvent(tick=559000, channel=0, data=[27, 100]),
   midi.NoteOffEvent(tick=559100, channel=0, data=[27, 0]),
   midi.NoteOnEvent(tick=559200, channel=0, data=[28, 100]),
   midi.NoteOffEvent(tick=559300, channel=0, data=[28, 0]),
   midi.NoteOnEvent(tick=559400, channel=0, data=[56, 100]),
   midi.NoteOffEvent(tick=559500, channel=0, data=[56, 0]),
   midi.NoteOnEvent(tick=559600, channel=0, data=[56, 100]),
   midi.NoteOffEvent(tick=559700, channel=0, data=[56, 0]),
   midi.NoteOnEvent(tick=559800, channel=0, data=[36, 100]),
   midi.NoteOffEvent(tick=559900, channel=0, data=[36, 0]),
   midi.NoteOnEvent(tick=560000, channel=0, data=[56, 100]),
   midi.NoteOffEvent(tick=560100, channel=0, data=[56, 0]),
   midi.NoteOnEvent(tick=560200, channel=0, data=[36, 100]),
   midi.NoteOffEvent(tick=560300, channel=0, data=[36, 0]),
   midi.NoteOnEvent(tick=560400, channel=0, data=[36, 100]),
   midi.NoteOffEvent(tick=560500, channel=0, data=[36, 0]),
   midi.NoteOnEvent(tick=560600, channel=0, data=[36, 100]),
   midi.NoteOffEvent(tick=560700, channel=0, data=[36, 0]),
   midi.NoteOnEvent(tick=560800, channel=0, data=[36, 100]),
   midi.NoteOffEvent(tick=560900, channel=0, data=[36, 0]),
   midi.NoteOnEvent(tick=561000, channel=0, data=[21, 100]),
   midi.NoteOffEvent(tick=561100, channel=0, data=[21, 0]),
   midi.NoteOnEvent(tick=561200, channel=0, data=[0, 100]),
   midi.NoteOffEvent(tick=561300, channel=0, data=[0, 0]),
   midi.NoteOnEvent(tick=561400, channel=0, data=[17, 100]),
   midi.NoteOffEvent(tick=561500, channel=0, data=[17, 0]),
   midi.NoteOnEvent(tick=561600, channel=0, data=[8, 100]),
   midi.NoteOffEvent(tick=561700, channel=0, data=[8, 0]),
   midi.NoteOnEvent(tick=561800, channel=0, data=[0, 100]),
   midi.NoteOffEvent(tick=561900, channel=0, data=[0, 0]),
   midi.NoteOnEvent(tick=562000, channel=0, data=[1, 100]),
   midi.NoteOffEvent(tick=562100, channel=0, data=[1, 0]),
   midi.NoteOnEvent(tick=562200, channel=0, data=[11, 100]),
   midi.NoteOffEvent(tick=562300, channel=0, data=[11, 0]),
   midi.NoteOnEvent(tick=562400, channel=0, data=[4, 100]),
   midi.NoteOffEvent(tick=562500, channel=0, data=[4, 0]),
   midi.NoteOnEvent(tick=562600, channel=0, data=[18, 100]),
   midi.NoteOffEvent(tick=562700, channel=0, data=[18, 0]),
   midi.NoteOnEvent(tick=562800, channel=0, data=[36, 100]),
   midi.NoteOffEvent(tick=562900, channel=0, data=[36, 0]),
   midi.NoteOnEvent(tick=563000, channel=0, data=[8, 100]),
   midi.NoteOffEvent(tick=563100, channel=0, data=[8, 0]),
   midi.NoteOnEvent(tick=563200, channel=0, data=[13, 100]),
   midi.NoteOffEvent(tick=563300, channel=0, data=[13, 0]),
   midi.NoteOnEvent(tick=563400, channel=0, data=[36, 100]),
   midi.NoteOffEvent(tick=563500, channel=0, data=[36, 0]),
   midi.NoteOnEvent(tick=563600, channel=0, data=[22, 100]),
   midi.NoteOffEvent(tick=563700, channel=0, data=[22, 0]),
   midi.NoteOnEvent(tick=563800, channel=0, data=[8, 100]),
   midi.NoteOffEvent(tick=563900, channel=0, data=[8, 0]),
   midi.NoteOnEvent(tick=564000, channel=0, data=[13, 100]),
   midi.NoteOffEvent(tick=564100, channel=0, data=[13, 0]),
   midi.NoteOnEvent(tick=564200, channel=0, data=[3, 100]),
   midi.NoteOffEvent(tick=564300, channel=0, data=[3, 0]),
   midi.NoteOnEvent(tick=564400, channel=0, data=[14, 100]),
   midi.NoteOffEvent(tick=564500, channel=0, data=[14, 0]),
   midi.NoteOnEvent(tick=564600, channel=0, data=[22, 100]),
   midi.NoteOffEvent(tick=564700, channel=0, data=[22, 0]),
   midi.NoteOnEvent(tick=564800, channel=0, data=[18, 100]),
   midi.NoteOffEvent(tick=564900, channel=0, data=[18, 0]),
   midi.NoteOnEvent(tick=565000, channel=0, data=[36, 100]),
   midi.NoteOffEvent(tick=565100, channel=0, data=[36, 0]),
   midi.NoteOnEvent(tick=565200, channel=0, data=[15, 100]),
   midi.NoteOffEvent(tick=565300, channel=0, data=[15, 0]),
   midi.NoteOnEvent(tick=565400, channel=0, data=[14, 100]),
   midi.NoteOffEvent(tick=565500, channel=0, data=[14, 0]),
   midi.NoteOnEvent(tick=565600, channel=0, data=[22, 100]),
   midi.NoteOffEvent(tick=565700, channel=0, data=[22, 0]),
   midi.NoteOnEvent(tick=565800, channel=0, data=[4, 100]),
   midi.NoteOffEvent(tick=565900, channel=0, data=[4, 0]),
   midi.NoteOnEvent(tick=566000, channel=0, data=[17, 100]),
   midi.NoteOffEvent(tick=566100, channel=0, data=[17, 0]),
   midi.NoteOnEvent(tick=566200, channel=0, data=[18, 100]),
   midi.NoteOffEvent(tick=566300, channel=0, data=[18, 0]),
   midi.NoteOnEvent(tick=566400, channel=0, data=[7, 100]),
   midi.NoteOffEvent(tick=566500, channel=0, data=[7, 0]),
   midi.NoteOnEvent(tick=566600, channel=0, data=[4, 100]),
   midi.NoteOffEvent(tick=566700, channel=0, data=[4, 0]),
   midi.NoteOnEvent(tick=566800, channel=0, data=[11, 100]),
   midi.NoteOffEvent(tick=566900, channel=0, data=[11, 0]),
   midi.NoteOnEvent(tick=567000, channel=0, data=[11, 100]),
   midi.NoteOffEvent(tick=567100, channel=0, data=[11, 0]),
   midi.NoteOnEvent(tick=567200, channel=0, data=[36, 100]),
   midi.NoteOffEvent(tick=567300, channel=0, data=[36, 0]),
   midi.NoteOnEvent(tick=567400, channel=0, data=[3, 100]),
   midi.NoteOffEvent(tick=567500, channel=0, data=[3, 0]),
   midi.NoteOnEvent(tick=567600, channel=0, data=[14, 100]),
   midi.NoteOffEvent(tick=567700, channel=0, data=[14, 0]),
   midi.NoteOnEvent(tick=567800, channel=0, data=[36, 100]),
   midi.NoteOffEvent(tick=567900, channel=0, data=[36, 0]),
   midi.NoteOnEvent(tick=568000, channel=0, data=[13, 100]),
   midi.NoteOffEvent(tick=568100, channel=0, data=[13, 0]),
   midi.NoteOnEvent(tick=568200, channel=0, data=[14, 100]),
   midi.NoteOffEvent(tick=568300, channel=0, data=[14, 0]),
   midi.NoteOnEvent(tick=568400, channel=0, data=[19, 100]),
   midi.NoteOffEvent(tick=568500, channel=0, data=[19, 0]),
   midi.NoteOnEvent(tick=568600, channel=0, data=[36, 100]),
   midi.NoteOffEvent(tick=568700, channel=0, data=[36, 0]),
   midi.NoteOnEvent(tick=568800, channel=0, data=[7, 100]),
   midi.NoteOffEvent(tick=568900, channel=0, data=[7, 0]),
   midi.NoteOnEvent(tick=569000, channel=0, data=[0, 100]),
   midi.NoteOffEvent(tick=569100, channel=0, data=[0, 0]),
   midi.NoteOnEvent(tick=569200, channel=0, data=[21, 100]),
   midi.NoteOffEvent(tick=569300, channel=0, data=[21, 0]),
   midi.NoteOnEvent(tick=569400, channel=0, data=[4, 100]),
   midi.NoteOffEvent(tick=569500, channel=0, data=[4, 0]),
   midi.NoteOnEvent(tick=569600, channel=0, data=[36, 100]),
   midi.NoteOffEvent(tick=569700, channel=0, data=[36, 0]),
   midi.NoteOnEvent(tick=569800, channel=0, data=[0, 100]),
   midi.NoteOffEvent(tick=569900, channel=0, data=[0, 0]),
   midi.NoteOnEvent(tick=570000, channel=0, data=[36, 100]),
   midi.NoteOffEvent(tick=570100, channel=0, data=[36, 0]),
   midi.NoteOnEvent(tick=570200, channel=0, data=[18, 100]),
   midi.NoteOffEvent(tick=570300, channel=0, data=[18, 0]),
   midi.NoteOnEvent(tick=570400, channel=0, data=[15, 100]),
   midi.NoteOffEvent(tick=570500, channel=0, data=[15, 0]),
   midi.NoteOnEvent(tick=570600, channel=0, data=[4, 100]),
   midi.NoteOffEvent(tick=570700, channel=0, data=[4, 0]),
   midi.NoteOnEvent(tick=570800, channel=0, data=[2, 100]),
   midi.NoteOffEvent(tick=570900, channel=0, data=[2, 0]),
   midi.NoteOnEvent(tick=571000, channel=0, data=[8, 100]),
   midi.NoteOffEvent(tick=571100, channel=0, data=[8, 0]),
   midi.NoteOnEvent(tick=571200, channel=0, data=[5, 100]),
   midi.NoteOffEvent(tick=571300, channel=0, data=[5, 0]),
   midi.NoteOnEvent(tick=571400, channel=0, data=[8, 100]),
   midi.NoteOffEvent(tick=571500, channel=0, data=[8, 0]),
   midi.NoteOnEvent(tick=571600, channel=0, data=[2, 100]),
   midi.NoteOffEvent(tick=571700, channel=0, data=[2, 0]),
   midi.NoteOnEvent(tick=571800, channel=0, data=[36, 100]),
   midi.NoteOffEvent(tick=571900, channel=0, data=[36, 0]),
   midi.NoteOnEvent(tick=572000, channel=0, data=[3, 100]),
   midi.NoteOffEvent(tick=572100, channel=0, data=[3, 0]),
   midi.NoteOnEvent(tick=572200, channel=0, data=[0, 100]),
   midi.NoteOffEvent(tick=572300, channel=0, data=[0, 0]),
   midi.NoteOnEvent(tick=572400, channel=0, data=[19, 100]),
   midi.NoteOffEvent(tick=572500, channel=0, data=[19, 0]),
   midi.NoteOnEvent(tick=572600, channel=0, data=[0, 100]),
   midi.NoteOffEvent(tick=572700, channel=0, data=[0, 0]),
   midi.NoteOnEvent(tick=572800, channel=0, data=[36, 100]),
   midi.NoteOffEvent(tick=572900, channel=0, data=[36, 0]),
   midi.NoteOnEvent(tick=573000, channel=0, data=[19, 100]),
   midi.NoteOffEvent(tick=573100, channel=0, data=[19, 0]),
   midi.NoteOnEvent(tick=573200, channel=0, data=[24, 100]),
   midi.NoteOffEvent(tick=573300, channel=0, data=[24, 0]),
   midi.NoteOnEvent(tick=573400, channel=0, data=[15, 100]),
   midi.NoteOffEvent(tick=573500, channel=0, data=[15, 0]),
   midi.NoteOnEvent(tick=573600, channel=0, data=[4, 100]),
   midi.NoteOffEvent(tick=573700, channel=0, data=[4, 0]),
   midi.NoteOnEvent(tick=573800, channel=0, data=[36, 100]),
   midi.NoteOffEvent(tick=573900, channel=0, data=[36, 0]),
   midi.NoteOnEvent(tick=574000, channel=0, data=[20, 100]),
   midi.NoteOffEvent(tick=574100, channel=0, data=[20, 0]),
   midi.NoteOnEvent(tick=574200, channel=0, data=[13, 100]),
   midi.NoteOffEvent(tick=574300, channel=0, data=[13, 0]),
   midi.NoteOnEvent(tick=574400, channel=0, data=[11, 100]),
   midi.NoteOffEvent(tick=574500, channel=0, data=[11, 0]),
   midi.NoteOnEvent(tick=574600, channel=0, data=[4, 100]),
   midi.NoteOffEvent(tick=574700, channel=0, data=[4, 0]),
   midi.NoteOnEvent(tick=574800, channel=0, data=[18, 100]),
   midi.NoteOffEvent(tick=574900, channel=0, data=[18, 0]),
   midi.NoteOnEvent(tick=575000, channel=0, data=[18, 100]),
   midi.NoteOffEvent(tick=575100, channel=0, data=[18, 0]),
   midi.NoteOnEvent(tick=575200, channel=0, data=[36, 100]),
   midi.NoteOffEvent(tick=575300, channel=0, data=[36, 0]),
   midi.NoteOnEvent(tick=575400, channel=0, data=[24, 100]),
   midi.NoteOffEvent(tick=575500, channel=0, data=[24, 0]),
   midi.NoteOnEvent(tick=575600, channel=0, data=[14, 100]),
   midi.NoteOffEvent(tick=575700, channel=0, data=[14, 0]),
   midi.NoteOnEvent(tick=575800, channel=0, data=[20, 100]),
   midi.NoteOffEvent(tick=575900, channel=0, data=[20, 0]),
   midi.NoteOnEvent(tick=576000, channel=0, data=[56, 100]),
   midi.NoteOffEvent(tick=576100, channel=0, data=[56, 0]),
   midi.NoteOnEvent(tick=576200, channel=0, data=[36, 100]),
   midi.NoteOffEvent(tick=576300, channel=0, data=[36, 0]),
   midi.NoteOnEvent(tick=576400, channel=0, data=[36, 100]),
   midi.NoteOffEvent(tick=576500, channel=0, data=[36, 0]),
   midi.NoteOnEvent(tick=576600, channel=0, data=[36, 100]),
   midi.NoteOffEvent(tick=576700, channel=0, data=[36, 0]),
   midi.NoteOnEvent(tick=576800, channel=0, data=[36, 100]),
   midi.NoteOffEvent(tick=576900, channel=0, data=[36, 0]),
   midi.NoteOnEvent(tick=577000, channel=0, data=[2, 100]),
   midi.NoteOffEvent(tick=577100, channel=0, data=[2, 0]),
   midi.NoteOnEvent(tick=577200, channel=0, data=[0, 100]),
   midi.NoteOffEvent(tick=577300, channel=0, data=[0, 0]),
   midi.NoteOnEvent(tick=577400, channel=0, data=[18, 100]),
   midi.NoteOffEvent(tick=577500, channel=0, data=[18, 0]),
   midi.NoteOnEvent(tick=577600, channel=0, data=[19, 100]),
   midi.NoteOffEvent(tick=577700, channel=0, data=[19, 0]),
   midi.NoteOnEvent(tick=577800, channel=0, data=[36, 100]),
   midi.NoteOffEvent(tick=577900, channel=0, data=[36, 0]),
   midi.NoteOnEvent(tick=578000, channel=0, data=[19, 100]),
   midi.NoteOffEvent(tick=578100, channel=0, data=[19, 0]),
   midi.NoteOnEvent(tick=578200, channel=0, data=[7, 100]),
   midi.NoteOffEvent(tick=578300, channel=0, data=[7, 0]),
   midi.NoteOnEvent(tick=578400, channel=0, data=[4, 100]),
   midi.NoteOffEvent(tick=578500, channel=0, data=[4, 0]),
   midi.NoteOnEvent(tick=578600, channel=0, data=[12, 100]),
   midi.NoteOffEvent(tick=578700, channel=0, data=[12, 0]),
   midi.NoteOnEvent(tick=578800, channel=0, data=[37, 100]),
   midi.NoteOffEvent(tick=578900, channel=0, data=[37, 0]),
   midi.NoteOnEvent(tick=579000, channel=0, data=[36, 100]),
   midi.NoteOffEvent(tick=579100, channel=0, data=[36, 0]),
   midi.NoteOnEvent(tick=579200, channel=0, data=[22, 100]),
   midi.NoteOffEvent(tick=579300, channel=0, data=[22, 0]),
   midi.NoteOnEvent(tick=579400, channel=0, data=[7, 100]),
   midi.NoteOffEvent(tick=579500, channel=0, data=[7, 0]),
   midi.NoteOnEvent(tick=579600, channel=0, data=[4, 100]),
   midi.NoteOffEvent(tick=579700, channel=0, data=[4, 0]),
   midi.NoteOnEvent(tick=579800, channel=0, data=[13, 100]),
   midi.NoteOffEvent(tick=579900, channel=0, data=[13, 0]),
   midi.NoteOnEvent(tick=580000, channel=0, data=[36, 100]),
   midi.NoteOffEvent(tick=580100, channel=0, data=[36, 0]),
   midi.NoteOnEvent(tick=580200, channel=0, data=[0, 100]),
   midi.NoteOffEvent(tick=580300, channel=0, data=[0, 0]),
   midi.NoteOnEvent(tick=580400, channel=0, data=[36, 100]),
   midi.NoteOffEvent(tick=580500, channel=0, data=[36, 0]),
   midi.NoteOnEvent(tick=580600, channel=0, data=[21, 100]),
   midi.NoteOffEvent(tick=580700, channel=0, data=[21, 0]),
   midi.NoteOnEvent(tick=580800, channel=0, data=[0, 100]),
   midi.NoteOffEvent(tick=580900, channel=0, data=[0, 0]),
   midi.NoteOnEvent(tick=581000, channel=0, data=[17, 100]),
   midi.NoteOffEvent(tick=581100, channel=0, data=[17, 0]),
   midi.NoteOnEvent(tick=581200, channel=0, data=[8, 100]),
   midi.NoteOffEvent(tick=581300, channel=0, data=[8, 0]),
   midi.NoteOnEvent(tick=581400, channel=0, data=[0, 100]),
   midi.NoteOffEvent(tick=581500, channel=0, data=[0, 0]),
   midi.NoteOnEvent(tick=581600, channel=0, data=[1, 100]),
   midi.NoteOffEvent(tick=581700, channel=0, data=[1, 0]),
   midi.NoteOnEvent(tick=581800, channel=0, data=[11, 100]),
   midi.NoteOffEvent(tick=581900, channel=0, data=[11, 0]),
   midi.NoteOnEvent(tick=582000, channel=0, data=[4, 100]),
   midi.NoteOffEvent(tick=582100, channel=0, data=[4, 0]),
   midi.NoteOnEvent(tick=582200, channel=0, data=[36, 100]),
   midi.NoteOffEvent(tick=582300, channel=0, data=[36, 0]),
   midi.NoteOnEvent(tick=582400, channel=0, data=[2, 100]),
   midi.NoteOffEvent(tick=582500, channel=0, data=[2, 0]),
   midi.NoteOnEvent(tick=582600, channel=0, data=[14, 100]),
   midi.NoteOffEvent(tick=582700, channel=0, data=[14, 0]),
   midi.NoteOnEvent(tick=582800, channel=0, data=[13, 100]),
   midi.NoteOffEvent(tick=582900, channel=0, data=[13, 0]),
   midi.NoteOnEvent(tick=583000, channel=0, data=[19, 100]),
   midi.NoteOffEvent(tick=583100, channel=0, data=[19, 0]),
   midi.NoteOnEvent(tick=583200, channel=0, data=[0, 100]),
   midi.NoteOffEvent(tick=583300, channel=0, data=[0, 0]),
   midi.NoteOnEvent(tick=583400, channel=0, data=[8, 100]),
   midi.NoteOffEvent(tick=583500, channel=0, data=[8, 0]),
   midi.NoteOnEvent(tick=583600, channel=0, data=[13, 100]),
   midi.NoteOffEvent(tick=583700, channel=0, data=[13, 0]),
   midi.NoteOnEvent(tick=583800, channel=0, data=[18, 100]),
   midi.NoteOffEvent(tick=583900, channel=0, data=[18, 0]),
   midi.NoteOnEvent(tick=584000, channel=0, data=[36, 100]),
   midi.NoteOffEvent(tick=584100, channel=0, data=[36, 0]),
   midi.NoteOnEvent(tick=584200, channel=0, data=[14, 100]),
   midi.NoteOffEvent(tick=584300, channel=0, data=[14, 0]),
   midi.NoteOnEvent(tick=584400, channel=0, data=[13, 100]),
   midi.NoteOffEvent(tick=584500, channel=0, data=[13, 0]),
   midi.NoteOnEvent(tick=584600, channel=0, data=[11, 100]),
   midi.NoteOffEvent(tick=584700, channel=0, data=[11, 0]),
   midi.NoteOnEvent(tick=584800, channel=0, data=[24, 100]),
   midi.NoteOffEvent(tick=584900, channel=0, data=[24, 0]),
   midi.NoteOnEvent(tick=585000, channel=0, data=[36, 100]),
   midi.NoteOffEvent(tick=585100, channel=0, data=[36, 0]),
   midi.NoteOnEvent(tick=585200, channel=0, data=[14, 100]),
   midi.NoteOffEvent(tick=585300, channel=0, data=[14, 0]),
   midi.NoteOnEvent(tick=585400, channel=0, data=[13, 100]),
   midi.NoteOffEvent(tick=585500, channel=0, data=[13, 0]),
   midi.NoteOnEvent(tick=585600, channel=0, data=[4, 100]),
   midi.NoteOffEvent(tick=585700, channel=0, data=[4, 0]),
   midi.NoteOnEvent(tick=585800, channel=0, data=[36, 100]),
   midi.NoteOffEvent(tick=585900, channel=0, data=[36, 0]),
   midi.NoteOnEvent(tick=586000, channel=0, data=[14, 100]),
   midi.NoteOffEvent(tick=586100, channel=0, data=[14, 0]),
   midi.NoteOnEvent(tick=586200, channel=0, data=[1, 100]),
   midi.NoteOffEvent(tick=586300, channel=0, data=[1, 0]),
   midi.NoteOnEvent(tick=586400, channel=0, data=[9, 100]),
   midi.NoteOffEvent(tick=586500, channel=0, data=[9, 0]),
   midi.NoteOnEvent(tick=586600, channel=0, data=[4, 100]),
   midi.NoteOffEvent(tick=586700, channel=0, data=[4, 0]),
   midi.NoteOnEvent(tick=586800, channel=0, data=[2, 100]),
   midi.NoteOffEvent(tick=586900, channel=0, data=[2, 0]),
   midi.NoteOnEvent(tick=587000, channel=0, data=[19, 100]),
   midi.NoteOffEvent(tick=587100, channel=0, data=[19, 0]),
   midi.NoteOnEvent(tick=587200, channel=0, data=[38, 100]),
   midi.NoteOffEvent(tick=587300, channel=0, data=[38, 0]),
   midi.NoteOnEvent(tick=587400, channel=0, data=[36, 100]),
   midi.NoteOffEvent(tick=587500, channel=0, data=[36, 0]),
   midi.NoteOnEvent(tick=587600, channel=0, data=[19, 100]),
   midi.NoteOffEvent(tick=587700, channel=0, data=[19, 0]),
   midi.NoteOnEvent(tick=587800, channel=0, data=[7, 100]),
   midi.NoteOffEvent(tick=587900, channel=0, data=[7, 0]),
   midi.NoteOnEvent(tick=588000, channel=0, data=[4, 100]),
   midi.NoteOffEvent(tick=588100, channel=0, data=[4, 0]),
   midi.NoteOnEvent(tick=588200, channel=0, data=[36, 100]),
   midi.NoteOffEvent(tick=588300, channel=0, data=[36, 0]),
   midi.NoteOnEvent(tick=588400, channel=0, data=[21, 100]),
   midi.NoteOffEvent(tick=588500, channel=0, data=[21, 0]),
   midi.NoteOnEvent(tick=588600, channel=0, data=[0, 100]),
   midi.NoteOffEvent(tick=588700, channel=0, data=[0, 0]),
   midi.NoteOnEvent(tick=588800, channel=0, data=[17, 100]),
   midi.NoteOffEvent(tick=588900, channel=0, data=[17, 0]),
   midi.NoteOnEvent(tick=589000, channel=0, data=[8, 100]),
   midi.NoteOffEvent(tick=589100, channel=0, data=[8, 0]),
   midi.NoteOnEvent(tick=589200, channel=0, data=[0, 100]),
   midi.NoteOffEvent(tick=589300, channel=0, data=[0, 0]),
   midi.NoteOnEvent(tick=589400, channel=0, data=[1, 100]),
   midi.NoteOffEvent(tick=589500, channel=0, data=[1, 0]),
   midi.NoteOnEvent(tick=589600, channel=0, data=[11, 100]),
   midi.NoteOffEvent(tick=589700, channel=0, data=[11, 0]),
   midi.NoteOnEvent(tick=589800, channel=0, data=[4, 100]),
   midi.NoteOffEvent(tick=589900, channel=0, data=[4, 0]),
   midi.NoteOnEvent(tick=590000, channel=0, data=[36, 100]),
   midi.NoteOffEvent(tick=590100, channel=0, data=[36, 0]),
   midi.NoteOnEvent(tick=590200, channel=0, data=[19, 100]),
   midi.NoteOffEvent(tick=590300, channel=0, data=[19, 0]),
   midi.NoteOnEvent(tick=590400, channel=0, data=[0, 100]),
   midi.NoteOffEvent(tick=590500, channel=0, data=[0, 0]),
   midi.NoteOnEvent(tick=590600, channel=0, data=[10, 100]),
   midi.NoteOffEvent(tick=590700, channel=0, data=[10, 0]),
   midi.NoteOnEvent(tick=590800, channel=0, data=[4, 100]),
   midi.NoteOffEvent(tick=590900, channel=0, data=[4, 0]),
   midi.NoteOnEvent(tick=591000, channel=0, data=[18, 100]),
   midi.NoteOffEvent(tick=591100, channel=0, data=[18, 0]),
   midi.NoteOnEvent(tick=591200, channel=0, data=[36, 100]),
   midi.NoteOffEvent(tick=591300, channel=0, data=[36, 0]),
   midi.NoteOnEvent(tick=591400, channel=0, data=[19, 100]),
   midi.NoteOffEvent(tick=591500, channel=0, data=[19, 0]),
   midi.NoteOnEvent(tick=591600, channel=0, data=[7, 100]),
   midi.NoteOffEvent(tick=591700, channel=0, data=[7, 0]),
   midi.NoteOnEvent(tick=591800, channel=0, data=[4, 100]),
   midi.NoteOffEvent(tick=591900, channel=0, data=[4, 0]),
   midi.NoteOnEvent(tick=592000, channel=0, data=[56, 100]),
   midi.NoteOffEvent(tick=592100, channel=0, data=[56, 0]),
   midi.NoteOnEvent(tick=592200, channel=0, data=[36, 100]),
   midi.NoteOffEvent(tick=592300, channel=0, data=[36, 0]),
   midi.NoteOnEvent(tick=592400, channel=0, data=[36, 100]),
   midi.NoteOffEvent(tick=592500, channel=0, data=[36, 0]),
   midi.NoteOnEvent(tick=592600, channel=0, data=[36, 100]),
   midi.NoteOffEvent(tick=592700, channel=0, data=[36, 0]),
   midi.NoteOnEvent(tick=592800, channel=0, data=[36, 100]),
   midi.NoteOffEvent(tick=592900, channel=0, data=[36, 0]),
   midi.NoteOnEvent(tick=593000, channel=0, data=[3, 100]),
   midi.NoteOffEvent(tick=593100, channel=0, data=[3, 0]),
   midi.NoteOnEvent(tick=593200, channel=0, data=[0, 100]),
   midi.NoteOffEvent(tick=593300, channel=0, data=[0, 0]),
   midi.NoteOnEvent(tick=593400, channel=0, data=[19, 100]),
   midi.NoteOffEvent(tick=593500, channel=0, data=[19, 0]),
   midi.NoteOnEvent(tick=593600, channel=0, data=[0, 100]),
   midi.NoteOffEvent(tick=593700, channel=0, data=[0, 0]),
   midi.NoteOnEvent(tick=593800, channel=0, data=[36, 100]),
   midi.NoteOffEvent(tick=593900, channel=0, data=[36, 0]),
   midi.NoteOnEvent(tick=594000, channel=0, data=[19, 100]),
   midi.NoteOffEvent(tick=594100, channel=0, data=[19, 0]),
   midi.NoteOnEvent(tick=594200, channel=0, data=[24, 100]),
   midi.NoteOffEvent(tick=594300, channel=0, data=[24, 0]),
   midi.NoteOnEvent(tick=594400, channel=0, data=[15, 100]),
   midi.NoteOffEvent(tick=594500, channel=0, data=[15, 0]),
   midi.NoteOnEvent(tick=594600, channel=0, data=[4, 100]),
   midi.NoteOffEvent(tick=594700, channel=0, data=[4, 0]),
   midi.NoteOnEvent(tick=594800, channel=0, data=[36, 100]),
   midi.NoteOffEvent(tick=594900, channel=0, data=[36, 0]),
   midi.NoteOnEvent(tick=595000, channel=0, data=[14, 100]),
   midi.NoteOffEvent(tick=595100, channel=0, data=[14, 0]),
   midi.NoteOnEvent(tick=595200, channel=0, data=[5, 100]),
   midi.NoteOffEvent(tick=595300, channel=0, data=[5, 0]),
   midi.NoteOnEvent(tick=595400, channel=0, data=[36, 100]),
   midi.NoteOffEvent(tick=595500, channel=0, data=[36, 0]),
   midi.NoteOnEvent(tick=595600, channel=0, data=[19, 100]),
   midi.NoteOffEvent(tick=595700, channel=0, data=[19, 0]),
   midi.NoteOnEvent(tick=595800, channel=0, data=[7, 100]),
   midi.NoteOffEvent(tick=595900, channel=0, data=[7, 0]),
   midi.NoteOnEvent(tick=596000, channel=0, data=[0, 100]),
   midi.NoteOffEvent(tick=596100, channel=0, data=[0, 0]),
   midi.NoteOnEvent(tick=596200, channel=0, data=[19, 100]),
   midi.NoteOffEvent(tick=596300, channel=0, data=[19, 0]),
   midi.NoteOnEvent(tick=596400, channel=0, data=[36, 100]),
   midi.NoteOffEvent(tick=596500, channel=0, data=[36, 0]),
   midi.NoteOnEvent(tick=596600, channel=0, data=[14, 100]),
   midi.NoteOffEvent(tick=596700, channel=0, data=[14, 0]),
   midi.NoteOnEvent(tick=596800, channel=0, data=[1, 100]),
   midi.NoteOffEvent(tick=596900, channel=0, data=[1, 0]),
   midi.NoteOnEvent(tick=597000, channel=0, data=[9, 100]),
   midi.NoteOffEvent(tick=597100, channel=0, data=[9, 0]),
   midi.NoteOnEvent(tick=597200, channel=0, data=[4, 100]),
   midi.NoteOffEvent(tick=597300, channel=0, data=[4, 0]),
   midi.NoteOnEvent(tick=597400, channel=0, data=[2, 100]),
   midi.NoteOffEvent(tick=597500, channel=0, data=[2, 0]),
   midi.NoteOnEvent(tick=597600, channel=0, data=[19, 100]),
   midi.NoteOffEvent(tick=597700, channel=0, data=[19, 0]),
   midi.NoteOnEvent(tick=597800, channel=0, data=[37, 100]),
   midi.NoteOffEvent(tick=597900, channel=0, data=[37, 0]),
   midi.NoteOnEvent(tick=598000, channel=0, data=[36, 100]),
   midi.NoteOffEvent(tick=598100, channel=0, data=[36, 0]),
   midi.NoteOnEvent(tick=598200, channel=0, data=[22, 100]),
   midi.NoteOffEvent(tick=598300, channel=0, data=[22, 0]),
   midi.NoteOnEvent(tick=598400, channel=0, data=[7, 100]),
   midi.NoteOffEvent(tick=598500, channel=0, data=[7, 0]),
   midi.NoteOnEvent(tick=598600, channel=0, data=[4, 100]),
   midi.NoteOffEvent(tick=598700, channel=0, data=[4, 0]),
   midi.NoteOnEvent(tick=598800, channel=0, data=[13, 100]),
   midi.NoteOffEvent(tick=598900, channel=0, data=[13, 0]),
   midi.NoteOnEvent(tick=599000, channel=0, data=[36, 100]),
   midi.NoteOffEvent(tick=599100, channel=0, data=[36, 0]),
   midi.NoteOnEvent(tick=599200, channel=0, data=[0, 100]),
   midi.NoteOffEvent(tick=599300, channel=0, data=[0, 0]),
   midi.NoteOnEvent(tick=599400, channel=0, data=[36, 100]),
   midi.NoteOffEvent(tick=599500, channel=0, data=[36, 0]),
   midi.NoteOnEvent(tick=599600, channel=0, data=[21, 100]),
   midi.NoteOffEvent(tick=599700, channel=0, data=[21, 0]),
   midi.NoteOnEvent(tick=599800, channel=0, data=[0, 100]),
   midi.NoteOffEvent(tick=599900, channel=0, data=[0, 0]),
   midi.NoteOnEvent(tick=600000, channel=0, data=[17, 100]),
   midi.NoteOffEvent(tick=600100, channel=0, data=[17, 0]),
   midi.NoteOnEvent(tick=600200, channel=0, data=[8, 100]),
   midi.NoteOffEvent(tick=600300, channel=0, data=[8, 0]),
   midi.NoteOnEvent(tick=600400, channel=0, data=[0, 100]),
   midi.NoteOffEvent(tick=600500, channel=0, data=[0, 0]),
   midi.NoteOnEvent(tick=600600, channel=0, data=[1, 100]),
   midi.NoteOffEvent(tick=600700, channel=0, data=[1, 0]),
   midi.NoteOnEvent(tick=600800, channel=0, data=[11, 100]),
   midi.NoteOffEvent(tick=600900, channel=0, data=[11, 0]),
   midi.NoteOnEvent(tick=601000, channel=0, data=[4, 100]),
   midi.NoteOffEvent(tick=601100, channel=0, data=[4, 0]),
   midi.NoteOnEvent(tick=601200, channel=0, data=[36, 100]),
   midi.NoteOffEvent(tick=601300, channel=0, data=[36, 0]),
   midi.NoteOnEvent(tick=601400, channel=0, data=[2, 100]),
   midi.NoteOffEvent(tick=601500, channel=0, data=[2, 0]),
   midi.NoteOnEvent(tick=601600, channel=0, data=[14, 100]),
   midi.NoteOffEvent(tick=601700, channel=0, data=[14, 0]),
   midi.NoteOnEvent(tick=601800, channel=0, data=[13, 100]),
   midi.NoteOffEvent(tick=601900, channel=0, data=[13, 0]),
   midi.NoteOnEvent(tick=602000, channel=0, data=[19, 100]),
   midi.NoteOffEvent(tick=602100, channel=0, data=[19, 0]),
   midi.NoteOnEvent(tick=602200, channel=0, data=[0, 100]),
   midi.NoteOffEvent(tick=602300, channel=0, data=[0, 0]),
   midi.NoteOnEvent(tick=602400, channel=0, data=[8, 100]),
   midi.NoteOffEvent(tick=602500, channel=0, data=[8, 0]),
   midi.NoteOnEvent(tick=602600, channel=0, data=[13, 100]),
   midi.NoteOffEvent(tick=602700, channel=0, data=[13, 0]),
   midi.NoteOnEvent(tick=602800, channel=0, data=[18, 100]),
   midi.NoteOffEvent(tick=602900, channel=0, data=[18, 0]),
   midi.NoteOnEvent(tick=603000, channel=0, data=[36, 100]),
   midi.NoteOffEvent(tick=603100, channel=0, data=[36, 0]),
   midi.NoteOnEvent(tick=603200, channel=0, data=[0, 100]),
   midi.NoteOffEvent(tick=603300, channel=0, data=[0, 0]),
   midi.NoteOnEvent(tick=603400, channel=0, data=[36, 100]),
   midi.NoteOffEvent(tick=603500, channel=0, data=[36, 0]),
   midi.NoteOnEvent(tick=603600, channel=0, data=[2, 100]),
   midi.NoteOffEvent(tick=603700, channel=0, data=[2, 0]),
   midi.NoteOnEvent(tick=603800, channel=0, data=[14, 100]),
   midi.NoteOffEvent(tick=603900, channel=0, data=[14, 0]),
   midi.NoteOnEvent(tick=604000, channel=0, data=[11, 100]),
   midi.NoteOffEvent(tick=604100, channel=0, data=[11, 0]),
   midi.NoteOnEvent(tick=604200, channel=0, data=[11, 100]),
   midi.NoteOffEvent(tick=604300, channel=0, data=[11, 0]),
   midi.NoteOnEvent(tick=604400, channel=0, data=[4, 100]),
   midi.NoteOffEvent(tick=604500, channel=0, data=[4, 0]),
   midi.NoteOnEvent(tick=604600, channel=0, data=[2, 100]),
   midi.NoteOffEvent(tick=604700, channel=0, data=[2, 0]),
   midi.NoteOnEvent(tick=604800, channel=0, data=[19, 100]),
   midi.NoteOffEvent(tick=604900, channel=0, data=[19, 0]),
   midi.NoteOnEvent(tick=605000, channel=0, data=[8, 100]),
   midi.NoteOffEvent(tick=605100, channel=0, data=[8, 0]),
   midi.NoteOnEvent(tick=605200, channel=0, data=[14, 100]),
   midi.NoteOffEvent(tick=605300, channel=0, data=[14, 0]),
   midi.NoteOnEvent(tick=605400, channel=0, data=[13, 100]),
   midi.NoteOffEvent(tick=605500, channel=0, data=[13, 0]),
   midi.NoteOnEvent(tick=605600, channel=0, data=[36, 100]),
   midi.NoteOffEvent(tick=605700, channel=0, data=[36, 0]),
   midi.NoteOnEvent(tick=605800, channel=0, data=[14, 100]),
   midi.NoteOffEvent(tick=605900, channel=0, data=[14, 0]),
   midi.NoteOnEvent(tick=606000, channel=0, data=[5, 100]),
   midi.NoteOffEvent(tick=606100, channel=0, data=[5, 0]),
   midi.NoteOnEvent(tick=606200, channel=0, data=[36, 100]),
   midi.NoteOffEvent(tick=606300, channel=0, data=[36, 0]),
   midi.NoteOnEvent(tick=606400, channel=0, data=[14, 100]),
   midi.NoteOffEvent(tick=606500, channel=0, data=[14, 0]),
   midi.NoteOnEvent(tick=606600, channel=0, data=[1, 100]),
   midi.NoteOffEvent(tick=606700, channel=0, data=[1, 0]),
   midi.NoteOnEvent(tick=606800, channel=0, data=[9, 100]),
   midi.NoteOffEvent(tick=606900, channel=0, data=[9, 0]),
   midi.NoteOnEvent(tick=607000, channel=0, data=[4, 100]),
   midi.NoteOffEvent(tick=607100, channel=0, data=[4, 0]),
   midi.NoteOnEvent(tick=607200, channel=0, data=[2, 100]),
   midi.NoteOffEvent(tick=607300, channel=0, data=[2, 0]),
   midi.NoteOnEvent(tick=607400, channel=0, data=[19, 100]),
   midi.NoteOffEvent(tick=607500, channel=0, data=[19, 0]),
   midi.NoteOnEvent(tick=607600, channel=0, data=[18, 100]),
   midi.NoteOffEvent(tick=607700, channel=0, data=[18, 0]),
   midi.NoteOnEvent(tick=607800, channel=0, data=[38, 100]),
   midi.NoteOffEvent(tick=607900, channel=0, data=[38, 0]),
   midi.NoteOnEvent(tick=608000, channel=0, data=[56, 100]),
   midi.NoteOffEvent(tick=608100, channel=0, data=[56, 0]),
   midi.NoteOnEvent(tick=608200, channel=0, data=[36, 100]),
   midi.NoteOffEvent(tick=608300, channel=0, data=[36, 0]),
   midi.NoteOnEvent(tick=608400, channel=0, data=[36, 100]),
   midi.NoteOffEvent(tick=608500, channel=0, data=[36, 0]),
   midi.NoteOnEvent(tick=608600, channel=0, data=[36, 100]),
   midi.NoteOffEvent(tick=608700, channel=0, data=[36, 0]),
   midi.NoteOnEvent(tick=608800, channel=0, data=[36, 100]),
   midi.NoteOffEvent(tick=608900, channel=0, data=[36, 0]),
   midi.NoteOnEvent(tick=609000, channel=0, data=[19, 100]),
   midi.NoteOffEvent(tick=609100, channel=0, data=[19, 0]),
   midi.NoteOnEvent(tick=609200, channel=0, data=[7, 100]),
   midi.NoteOffEvent(tick=609300, channel=0, data=[7, 0]),
   midi.NoteOnEvent(tick=609400, channel=0, data=[4, 100]),
   midi.NoteOffEvent(tick=609500, channel=0, data=[4, 0]),
   midi.NoteOnEvent(tick=609600, channel=0, data=[36, 100]),
   midi.NoteOffEvent(tick=609700, channel=0, data=[36, 0]),
   midi.NoteOnEvent(tick=609800, channel=0, data=[21, 100]),
   midi.NoteOffEvent(tick=609900, channel=0, data=[21, 0]),
   midi.NoteOnEvent(tick=610000, channel=0, data=[0, 100]),
   midi.NoteOffEvent(tick=610100, channel=0, data=[0, 0]),
   midi.NoteOnEvent(tick=610200, channel=0, data=[17, 100]),
   midi.NoteOffEvent(tick=610300, channel=0, data=[17, 0]),
   midi.NoteOnEvent(tick=610400, channel=0, data=[8, 100]),
   midi.NoteOffEvent(tick=610500, channel=0, data=[8, 0]),
   midi.NoteOnEvent(tick=610600, channel=0, data=[0, 100]),
   midi.NoteOffEvent(tick=610700, channel=0, data=[0, 0]),
   midi.NoteOnEvent(tick=610800, channel=0, data=[1, 100]),
   midi.NoteOffEvent(tick=610900, channel=0, data=[1, 0]),
   midi.NoteOnEvent(tick=611000, channel=0, data=[11, 100]),
   midi.NoteOffEvent(tick=611100, channel=0, data=[11, 0]),
   midi.NoteOnEvent(tick=611200, channel=0, data=[4, 100]),
   midi.NoteOffEvent(tick=611300, channel=0, data=[4, 0]),
   midi.NoteOnEvent(tick=611400, channel=0, data=[36, 100]),
   midi.NoteOffEvent(tick=611500, channel=0, data=[36, 0]),
   midi.NoteOnEvent(tick=611600, channel=0, data=[7, 100]),
   midi.NoteOffEvent(tick=611700, channel=0, data=[7, 0]),
   midi.NoteOnEvent(tick=611800, channel=0, data=[0, 100]),
   midi.NoteOffEvent(tick=611900, channel=0, data=[0, 0]),
   midi.NoteOnEvent(tick=612000, channel=0, data=[18, 100]),
   midi.NoteOffEvent(tick=612100, channel=0, data=[18, 0]),
   midi.NoteOnEvent(tick=612200, channel=0, data=[36, 100]),
   midi.NoteOffEvent(tick=612300, channel=0, data=[36, 0]),
   midi.NoteOnEvent(tick=612400, channel=0, data=[19, 100]),
   midi.NoteOffEvent(tick=612500, channel=0, data=[19, 0]),
   midi.NoteOnEvent(tick=612600, channel=0, data=[7, 100]),
   midi.NoteOffEvent(tick=612700, channel=0, data=[7, 0]),
   midi.NoteOnEvent(tick=612800, channel=0, data=[4, 100]),
   midi.NoteOffEvent(tick=612900, channel=0, data=[4, 0]),
   midi.NoteOnEvent(tick=613000, channel=0, data=[36, 100]),
   midi.NoteOffEvent(tick=613100, channel=0, data=[36, 0]),
   midi.NoteOnEvent(tick=613200, channel=0, data=[18, 100]),
   midi.NoteOffEvent(tick=613300, channel=0, data=[18, 0]),
   midi.NoteOnEvent(tick=613400, channel=0, data=[24, 100]),
   midi.NoteOffEvent(tick=613500, channel=0, data=[24, 0]),
   midi.NoteOnEvent(tick=613600, channel=0, data=[18, 100]),
   midi.NoteOffEvent(tick=613700, channel=0, data=[18, 0]),
   midi.NoteOnEvent(tick=613800, channel=0, data=[19, 100]),
   midi.NoteOffEvent(tick=613900, channel=0, data=[19, 0]),
   midi.NoteOnEvent(tick=614000, channel=0, data=[4, 100]),
   midi.NoteOffEvent(tick=614100, channel=0, data=[4, 0]),
   midi.NoteOnEvent(tick=614200, channel=0, data=[12, 100]),
   midi.NoteOffEvent(tick=614300, channel=0, data=[12, 0]),
   midi.NoteOnEvent(tick=614400, channel=0, data=[37, 100]),
   midi.NoteOffEvent(tick=614500, channel=0, data=[37, 0]),
   midi.NoteOnEvent(tick=614600, channel=0, data=[14, 100]),
   midi.NoteOffEvent(tick=614700, channel=0, data=[14, 0]),
   midi.NoteOnEvent(tick=614800, channel=0, data=[1, 100]),
   midi.NoteOffEvent(tick=614900, channel=0, data=[1, 0]),
   midi.NoteOnEvent(tick=615000, channel=0, data=[9, 100]),
   midi.NoteOffEvent(tick=615100, channel=0, data=[9, 0]),
   midi.NoteOnEvent(tick=615200, channel=0, data=[4, 100]),
   midi.NoteOffEvent(tick=615300, channel=0, data=[4, 0]),
   midi.NoteOnEvent(tick=615400, channel=0, data=[2, 100]),
   midi.NoteOffEvent(tick=615500, channel=0, data=[2, 0]),
   midi.NoteOnEvent(tick=615600, channel=0, data=[19, 100]),
   midi.NoteOffEvent(tick=615700, channel=0, data=[19, 0]),
   midi.NoteOnEvent(tick=615800, channel=0, data=[36, 100]),
   midi.NoteOffEvent(tick=615900, channel=0, data=[36, 0]),
   midi.NoteOnEvent(tick=616000, channel=0, data=[3, 100]),
   midi.NoteOffEvent(tick=616100, channel=0, data=[3, 0]),
   midi.NoteOnEvent(tick=616200, channel=0, data=[0, 100]),
   midi.NoteOffEvent(tick=616300, channel=0, data=[0, 0]),
   midi.NoteOnEvent(tick=616400, channel=0, data=[19, 100]),
   midi.NoteOffEvent(tick=616500, channel=0, data=[19, 0]),
   midi.NoteOnEvent(tick=616600, channel=0, data=[0, 100]),
   midi.NoteOffEvent(tick=616700, channel=0, data=[0, 0]),
   midi.NoteOnEvent(tick=616800, channel=0, data=[36, 100]),
   midi.NoteOffEvent(tick=616900, channel=0, data=[36, 0]),
   midi.NoteOnEvent(tick=617000, channel=0, data=[19, 100]),
   midi.NoteOffEvent(tick=617100, channel=0, data=[19, 0]),
   midi.NoteOnEvent(tick=617200, channel=0, data=[24, 100]),
   midi.NoteOffEvent(tick=617300, channel=0, data=[24, 0]),
   midi.NoteOnEvent(tick=617400, channel=0, data=[15, 100]),
   midi.NoteOffEvent(tick=617500, channel=0, data=[15, 0]),
   midi.NoteOnEvent(tick=617600, channel=0, data=[4, 100]),
   midi.NoteOffEvent(tick=617700, channel=0, data=[4, 0]),
   midi.NoteOnEvent(tick=617800, channel=0, data=[37, 100]),
   midi.NoteOffEvent(tick=617900, channel=0, data=[37, 0]),
   midi.NoteOnEvent(tick=618000, channel=0, data=[36, 100]),
   midi.NoteOffEvent(tick=618100, channel=0, data=[36, 0]),
   midi.NoteOnEvent(tick=618200, channel=0, data=[19, 100]),
   midi.NoteOffEvent(tick=618300, channel=0, data=[19, 0]),
   midi.NoteOnEvent(tick=618400, channel=0, data=[7, 100]),
   midi.NoteOffEvent(tick=618500, channel=0, data=[7, 0]),
   midi.NoteOnEvent(tick=618600, channel=0, data=[4, 100]),
   midi.NoteOffEvent(tick=618700, channel=0, data=[4, 0]),
   midi.NoteOnEvent(tick=618800, channel=0, data=[17, 100]),
   midi.NoteOffEvent(tick=618900, channel=0, data=[17, 0]),
   midi.NoteOnEvent(tick=619000, channel=0, data=[4, 100]),
   midi.NoteOffEvent(tick=619100, channel=0, data=[4, 0]),
   midi.NoteOnEvent(tick=619200, channel=0, data=[5, 100]),
   midi.NoteOffEvent(tick=619300, channel=0, data=[5, 0]),
   midi.NoteOnEvent(tick=619400, channel=0, data=[14, 100]),
   midi.NoteOffEvent(tick=619500, channel=0, data=[14, 0]),
   midi.NoteOnEvent(tick=619600, channel=0, data=[17, 100]),
   midi.NoteOffEvent(tick=619700, channel=0, data=[17, 0]),
   midi.NoteOnEvent(tick=619800, channel=0, data=[4, 100]),
   midi.NoteOffEvent(tick=619900, channel=0, data=[4, 0]),
   midi.NoteOnEvent(tick=620000, channel=0, data=[38, 100]),
   midi.NoteOffEvent(tick=620100, channel=0, data=[38, 0]),
   midi.NoteOnEvent(tick=620200, channel=0, data=[36, 100]),
   midi.NoteOffEvent(tick=620300, channel=0, data=[36, 0]),
   midi.NoteOnEvent(tick=620400, channel=0, data=[24, 100]),
   midi.NoteOffEvent(tick=620500, channel=0, data=[24, 0]),
   midi.NoteOnEvent(tick=620600, channel=0, data=[14, 100]),
   midi.NoteOffEvent(tick=620700, channel=0, data=[14, 0]),
   midi.NoteOnEvent(tick=620800, channel=0, data=[20, 100]),
   midi.NoteOffEvent(tick=620900, channel=0, data=[20, 0]),
   midi.NoteOnEvent(tick=621000, channel=0, data=[36, 100]),
   midi.NoteOffEvent(tick=621100, channel=0, data=[36, 0]),
   midi.NoteOnEvent(tick=621200, channel=0, data=[2, 100]),
   midi.NoteOffEvent(tick=621300, channel=0, data=[2, 0]),
   midi.NoteOnEvent(tick=621400, channel=0, data=[0, 100]),
   midi.NoteOffEvent(tick=621500, channel=0, data=[0, 0]),
   midi.NoteOnEvent(tick=621600, channel=0, data=[13, 100]),
   midi.NoteOffEvent(tick=621700, channel=0, data=[13, 0]),
   midi.NoteOnEvent(tick=621800, channel=0, data=[36, 100]),
   midi.NoteOffEvent(tick=621900, channel=0, data=[36, 0]),
   midi.NoteOnEvent(tick=622000, channel=0, data=[0, 100]),
   midi.NoteOffEvent(tick=622100, channel=0, data=[0, 0]),
   midi.NoteOnEvent(tick=622200, channel=0, data=[18, 100]),
   midi.NoteOffEvent(tick=622300, channel=0, data=[18, 0]),
   midi.NoteOnEvent(tick=622400, channel=0, data=[18, 100]),
   midi.NoteOffEvent(tick=622500, channel=0, data=[18, 0]),
   midi.NoteOnEvent(tick=622600, channel=0, data=[8, 100]),
   midi.NoteOffEvent(tick=622700, channel=0, data=[8, 0]),
   midi.NoteOnEvent(tick=622800, channel=0, data=[6, 100]),
   midi.NoteOffEvent(tick=622900, channel=0, data=[6, 0]),
   midi.NoteOnEvent(tick=623000, channel=0, data=[13, 100]),
   midi.NoteOffEvent(tick=623100, channel=0, data=[13, 0]),
   midi.NoteOnEvent(tick=623200, channel=0, data=[36, 100]),
   midi.NoteOffEvent(tick=623300, channel=0, data=[36, 0]),
   midi.NoteOnEvent(tick=623400, channel=0, data=[0, 100]),
   midi.NoteOffEvent(tick=623500, channel=0, data=[0, 0]),
   midi.NoteOnEvent(tick=623600, channel=0, data=[13, 100]),
   midi.NoteOffEvent(tick=623700, channel=0, data=[13, 0]),
   midi.NoteOnEvent(tick=623800, channel=0, data=[24, 100]),
   midi.NoteOffEvent(tick=623900, channel=0, data=[24, 0]),
   midi.NoteOnEvent(tick=624000, channel=0, data=[56, 100]),
   midi.NoteOffEvent(tick=624100, channel=0, data=[56, 0]),
   midi.NoteOnEvent(tick=624200, channel=0, data=[36, 100]),
   midi.NoteOffEvent(tick=624300, channel=0, data=[36, 0]),
   midi.NoteOnEvent(tick=624400, channel=0, data=[36, 100]),
   midi.NoteOffEvent(tick=624500, channel=0, data=[36, 0]),
   midi.NoteOnEvent(tick=624600, channel=0, data=[36, 100]),
   midi.NoteOffEvent(tick=624700, channel=0, data=[36, 0]),
   midi.NoteOnEvent(tick=624800, channel=0, data=[36, 100]),
   midi.NoteOffEvent(tick=624900, channel=0, data=[36, 0]),
   midi.NoteOnEvent(tick=625000, channel=0, data=[19, 100]),
   midi.NoteOffEvent(tick=625100, channel=0, data=[19, 0]),
   midi.NoteOnEvent(tick=625200, channel=0, data=[24, 100]),
   midi.NoteOffEvent(tick=625300, channel=0, data=[24, 0]),
   midi.NoteOnEvent(tick=625400, channel=0, data=[15, 100]),
   midi.NoteOffEvent(tick=625500, channel=0, data=[15, 0]),
   midi.NoteOnEvent(tick=625600, channel=0, data=[4, 100]),
   midi.NoteOffEvent(tick=625700, channel=0, data=[4, 0]),
   midi.NoteOnEvent(tick=625800, channel=0, data=[36, 100]),
   midi.NoteOffEvent(tick=625900, channel=0, data=[36, 0]),
   midi.NoteOnEvent(tick=626000, channel=0, data=[14, 100]),
   midi.NoteOffEvent(tick=626100, channel=0, data=[14, 0]),
   midi.NoteOnEvent(tick=626200, channel=0, data=[5, 100]),
   midi.NoteOffEvent(tick=626300, channel=0, data=[5, 0]),
   midi.NoteOnEvent(tick=626400, channel=0, data=[36, 100]),
   midi.NoteOffEvent(tick=626500, channel=0, data=[36, 0]),
   midi.NoteOnEvent(tick=626600, channel=0, data=[14, 100]),
   midi.NoteOffEvent(tick=626700, channel=0, data=[14, 0]),
   midi.NoteOnEvent(tick=626800, channel=0, data=[1, 100]),
   midi.NoteOffEvent(tick=626900, channel=0, data=[1, 0]),
   midi.NoteOnEvent(tick=627000, channel=0, data=[9, 100]),
   midi.NoteOffEvent(tick=627100, channel=0, data=[9, 0]),
   midi.NoteOnEvent(tick=627200, channel=0, data=[4, 100]),
   midi.NoteOffEvent(tick=627300, channel=0, data=[4, 0]),
   midi.NoteOnEvent(tick=627400, channel=0, data=[2, 100]),
   midi.NoteOffEvent(tick=627500, channel=0, data=[2, 0]),
   midi.NoteOnEvent(tick=627600, channel=0, data=[19, 100]),
   midi.NoteOffEvent(tick=627700, channel=0, data=[19, 0]),
   midi.NoteOnEvent(tick=627800, channel=0, data=[36, 100]),
   midi.NoteOffEvent(tick=627900, channel=0, data=[36, 0]),
   midi.NoteOnEvent(tick=628000, channel=0, data=[19, 100]),
   midi.NoteOffEvent(tick=628100, channel=0, data=[19, 0]),
   midi.NoteOnEvent(tick=628200, channel=0, data=[14, 100]),
   midi.NoteOffEvent(tick=628300, channel=0, data=[14, 0]),
   midi.NoteOnEvent(tick=628400, channel=0, data=[36, 100]),
   midi.NoteOffEvent(tick=628500, channel=0, data=[36, 0]),
   midi.NoteOnEvent(tick=628600, channel=0, data=[19, 100]),
   midi.NoteOffEvent(tick=628700, channel=0, data=[19, 0]),
   midi.NoteOnEvent(tick=628800, channel=0, data=[7, 100]),
   midi.NoteOffEvent(tick=628900, channel=0, data=[7, 0]),
   midi.NoteOnEvent(tick=629000, channel=0, data=[4, 100]),
   midi.NoteOffEvent(tick=629100, channel=0, data=[4, 0]),
   midi.NoteOnEvent(tick=629200, channel=0, data=[36, 100]),
   midi.NoteOffEvent(tick=629300, channel=0, data=[36, 0]),
   midi.NoteOnEvent(tick=629400, channel=0, data=[2, 100]),
   midi.NoteOffEvent(tick=629500, channel=0, data=[2, 0]),
   midi.NoteOnEvent(tick=629600, channel=0, data=[14, 100]),
   midi.NoteOffEvent(tick=629700, channel=0, data=[14, 0]),
   midi.NoteOnEvent(tick=629800, channel=0, data=[11, 100]),
   midi.NoteOffEvent(tick=629900, channel=0, data=[11, 0]),
   midi.NoteOnEvent(tick=630000, channel=0, data=[11, 100]),
   midi.NoteOffEvent(tick=630100, channel=0, data=[11, 0]),
   midi.NoteOnEvent(tick=630200, channel=0, data=[4, 100]),
   midi.NoteOffEvent(tick=630300, channel=0, data=[4, 0]),
   midi.NoteOnEvent(tick=630400, channel=0, data=[2, 100]),
   midi.NoteOffEvent(tick=630500, channel=0, data=[2, 0]),
   midi.NoteOnEvent(tick=630600, channel=0, data=[19, 100]),
   midi.NoteOffEvent(tick=630700, channel=0, data=[19, 0]),
   midi.NoteOnEvent(tick=630800, channel=0, data=[8, 100]),
   midi.NoteOffEvent(tick=630900, channel=0, data=[8, 0]),
   midi.NoteOnEvent(tick=631000, channel=0, data=[14, 100]),
   midi.NoteOffEvent(tick=631100, channel=0, data=[14, 0]),
   midi.NoteOnEvent(tick=631200, channel=0, data=[13, 100]),
   midi.NoteOffEvent(tick=631300, channel=0, data=[13, 0]),
   midi.NoteOnEvent(tick=631400, channel=0, data=[37, 100]),
   midi.NoteOffEvent(tick=631500, channel=0, data=[37, 0]),
   midi.NoteOnEvent(tick=631600, channel=0, data=[36, 100]),
   midi.NoteOffEvent(tick=631700, channel=0, data=[36, 0]),
   midi.NoteOnEvent(tick=631800, channel=0, data=[19, 100]),
   midi.NoteOffEvent(tick=631900, channel=0, data=[19, 0]),
   midi.NoteOnEvent(tick=632000, channel=0, data=[7, 100]),
   midi.NoteOffEvent(tick=632100, channel=0, data=[7, 0]),
   midi.NoteOnEvent(tick=632200, channel=0, data=[4, 100]),
   midi.NoteOffEvent(tick=632300, channel=0, data=[4, 0]),
   midi.NoteOnEvent(tick=632400, channel=0, data=[36, 100]),
   midi.NoteOffEvent(tick=632500, channel=0, data=[36, 0]),
   midi.NoteOnEvent(tick=632600, channel=0, data=[5, 100]),
   midi.NoteOffEvent(tick=632700, channel=0, data=[5, 0]),
   midi.NoteOnEvent(tick=632800, channel=0, data=[14, 100]),
   midi.NoteOffEvent(tick=632900, channel=0, data=[14, 0]),
   midi.NoteOnEvent(tick=633000, channel=0, data=[11, 100]),
   midi.NoteOffEvent(tick=633100, channel=0, data=[11, 0]),
   midi.NoteOnEvent(tick=633200, channel=0, data=[11, 100]),
   midi.NoteOffEvent(tick=633300, channel=0, data=[11, 0]),
   midi.NoteOnEvent(tick=633400, channel=0, data=[14, 100]),
   midi.NoteOffEvent(tick=633500, channel=0, data=[14, 0]),
   midi.NoteOnEvent(tick=633600, channel=0, data=[22, 100]),
   midi.NoteOffEvent(tick=633700, channel=0, data=[22, 0]),
   midi.NoteOnEvent(tick=633800, channel=0, data=[8, 100]),
   midi.NoteOffEvent(tick=633900, channel=0, data=[8, 0]),
   midi.NoteOnEvent(tick=634000, channel=0, data=[13, 100]),
   midi.NoteOffEvent(tick=634100, channel=0, data=[13, 0]),
   midi.NoteOnEvent(tick=634200, channel=0, data=[6, 100]),
   midi.NoteOffEvent(tick=634300, channel=0, data=[6, 0]),
   midi.NoteOnEvent(tick=634400, channel=0, data=[36, 100]),
   midi.NoteOffEvent(tick=634500, channel=0, data=[36, 0]),
   midi.NoteOnEvent(tick=634600, channel=0, data=[4, 100]),
   midi.NoteOffEvent(tick=634700, channel=0, data=[4, 0]),
   midi.NoteOnEvent(tick=634800, channel=0, data=[23, 100]),
   midi.NoteOffEvent(tick=634900, channel=0, data=[23, 0]),
   midi.NoteOnEvent(tick=635000, channel=0, data=[0, 100]),
   midi.NoteOffEvent(tick=635100, channel=0, data=[0, 0]),
   midi.NoteOnEvent(tick=635200, channel=0, data=[12, 100]),
   midi.NoteOffEvent(tick=635300, channel=0, data=[12, 0]),
   midi.NoteOnEvent(tick=635400, channel=0, data=[15, 100]),
   midi.NoteOffEvent(tick=635500, channel=0, data=[15, 0]),
   midi.NoteOnEvent(tick=635600, channel=0, data=[11, 100]),
   midi.NoteOffEvent(tick=635700, channel=0, data=[11, 0]),
   midi.NoteOnEvent(tick=635800, channel=0, data=[4, 100]),
   midi.NoteOffEvent(tick=635900, channel=0, data=[4, 0]),
   midi.NoteOnEvent(tick=636000, channel=0, data=[36, 100]),
   midi.NoteOffEvent(tick=636100, channel=0, data=[36, 0]),
   midi.NoteOnEvent(tick=636200, channel=0, data=[18, 100]),
   midi.NoteOffEvent(tick=636300, channel=0, data=[18, 0]),
   midi.NoteOnEvent(tick=636400, channel=0, data=[7, 100]),
   midi.NoteOffEvent(tick=636500, channel=0, data=[7, 0]),
   midi.NoteOnEvent(tick=636600, channel=0, data=[14, 100]),
   midi.NoteOffEvent(tick=636700, channel=0, data=[14, 0]),
   midi.NoteOnEvent(tick=636800, channel=0, data=[22, 100]),
   midi.NoteOffEvent(tick=636900, channel=0, data=[22, 0]),
   midi.NoteOnEvent(tick=637000, channel=0, data=[18, 100]),
   midi.NoteOffEvent(tick=637100, channel=0, data=[18, 0]),
   midi.NoteOnEvent(tick=637200, channel=0, data=[36, 100]),
   midi.NoteOffEvent(tick=637300, channel=0, data=[36, 0]),
   midi.NoteOnEvent(tick=637400, channel=0, data=[19, 100]),
   midi.NoteOffEvent(tick=637500, channel=0, data=[19, 0]),
   midi.NoteOnEvent(tick=637600, channel=0, data=[7, 100]),
   midi.NoteOffEvent(tick=637700, channel=0, data=[7, 0]),
   midi.NoteOnEvent(tick=637800, channel=0, data=[0, 100]),
   midi.NoteOffEvent(tick=637900, channel=0, data=[0, 0]),
   midi.NoteOnEvent(tick=638000, channel=0, data=[19, 100]),
   midi.NoteOffEvent(tick=638100, channel=0, data=[19, 0]),
   midi.NoteOnEvent(tick=638200, channel=0, data=[36, 100]),
   midi.NoteOffEvent(tick=638300, channel=0, data=[36, 0]),
   midi.NoteOnEvent(tick=638400, channel=0, data=[24, 100]),
   midi.NoteOffEvent(tick=638500, channel=0, data=[24, 0]),
   midi.NoteOnEvent(tick=638600, channel=0, data=[14, 100]),
   midi.NoteOffEvent(tick=638700, channel=0, data=[14, 0]),
   midi.NoteOnEvent(tick=638800, channel=0, data=[20, 100]),
   midi.NoteOffEvent(tick=638900, channel=0, data=[20, 0]),
   midi.NoteOnEvent(tick=639000, channel=0, data=[36, 100]),
   midi.NoteOffEvent(tick=639100, channel=0, data=[36, 0]),
   midi.NoteOnEvent(tick=639200, channel=0, data=[2, 100]),
   midi.NoteOffEvent(tick=639300, channel=0, data=[2, 0]),
   midi.NoteOnEvent(tick=639400, channel=0, data=[0, 100]),
   midi.NoteOffEvent(tick=639500, channel=0, data=[0, 0]),
   midi.NoteOnEvent(tick=639600, channel=0, data=[13, 100]),
   midi.NoteOffEvent(tick=639700, channel=0, data=[13, 0]),
   midi.NoteOnEvent(tick=639800, channel=0, data=[56, 100]),
   midi.NoteOffEvent(tick=639900, channel=0, data=[56, 0]),
   midi.NoteOnEvent(tick=640000, channel=0, data=[36, 100]),
   midi.NoteOffEvent(tick=640100, channel=0, data=[36, 0]),
   midi.NoteOnEvent(tick=640200, channel=0, data=[36, 100]),
   midi.NoteOffEvent(tick=640300, channel=0, data=[36, 0]),
   midi.NoteOnEvent(tick=640400, channel=0, data=[36, 100]),
   midi.NoteOffEvent(tick=640500, channel=0, data=[36, 0]),
   midi.NoteOnEvent(tick=640600, channel=0, data=[36, 100]),
   midi.NoteOffEvent(tick=640700, channel=0, data=[36, 0]),
   midi.NoteOnEvent(tick=640800, channel=0, data=[0, 100]),
   midi.NoteOffEvent(tick=640900, channel=0, data=[0, 0]),
   midi.NoteOnEvent(tick=641000, channel=0, data=[3, 100]),
   midi.NoteOffEvent(tick=641100, channel=0, data=[3, 0]),
   midi.NoteOnEvent(tick=641200, channel=0, data=[3, 100]),
   midi.NoteOffEvent(tick=641300, channel=0, data=[3, 0]),
   midi.NoteOnEvent(tick=641400, channel=0, data=[36, 100]),
   midi.NoteOffEvent(tick=641500, channel=0, data=[36, 0]),
   midi.NoteOnEvent(tick=641600, channel=0, data=[15, 100]),
   midi.NoteOffEvent(tick=641700, channel=0, data=[15, 0]),
   midi.NoteOnEvent(tick=641800, channel=0, data=[17, 100]),
   midi.NoteOffEvent(tick=641900, channel=0, data=[17, 0]),
   midi.NoteOnEvent(tick=642000, channel=0, data=[14, 100]),
   midi.NoteOffEvent(tick=642100, channel=0, data=[14, 0]),
   midi.NoteOnEvent(tick=642200, channel=0, data=[2, 100]),
   midi.NoteOffEvent(tick=642300, channel=0, data=[2, 0]),
   midi.NoteOnEvent(tick=642400, channel=0, data=[4, 100]),
   midi.NoteOffEvent(tick=642500, channel=0, data=[4, 0]),
   midi.NoteOnEvent(tick=642600, channel=0, data=[18, 100]),
   midi.NoteOffEvent(tick=642700, channel=0, data=[18, 0]),
   midi.NoteOnEvent(tick=642800, channel=0, data=[18, 100]),
   midi.NoteOffEvent(tick=642900, channel=0, data=[18, 0]),
   midi.NoteOnEvent(tick=643000, channel=0, data=[36, 100]),
   midi.NoteOffEvent(tick=643100, channel=0, data=[36, 0]),
   midi.NoteOnEvent(tick=643200, channel=0, data=[14, 100]),
   midi.NoteOffEvent(tick=643300, channel=0, data=[14, 0]),
   midi.NoteOnEvent(tick=643400, channel=0, data=[1, 100]),
   midi.NoteOffEvent(tick=643500, channel=0, data=[1, 0]),
   midi.NoteOnEvent(tick=643600, channel=0, data=[9, 100]),
   midi.NoteOffEvent(tick=643700, channel=0, data=[9, 0]),
   midi.NoteOnEvent(tick=643800, channel=0, data=[4, 100]),
   midi.NoteOffEvent(tick=643900, channel=0, data=[4, 0]),
   midi.NoteOnEvent(tick=644000, channel=0, data=[2, 100]),
   midi.NoteOffEvent(tick=644100, channel=0, data=[2, 0]),
   midi.NoteOnEvent(tick=644200, channel=0, data=[19, 100]),
   midi.NoteOffEvent(tick=644300, channel=0, data=[19, 0]),
   midi.NoteOnEvent(tick=644400, channel=0, data=[18, 100]),
   midi.NoteOffEvent(tick=644500, channel=0, data=[18, 0]),
   midi.NoteOnEvent(tick=644600, channel=0, data=[38, 100]),
   midi.NoteOffEvent(tick=644700, channel=0, data=[38, 0]),
   midi.NoteOnEvent(tick=644800, channel=0, data=[36, 100]),
   midi.NoteOffEvent(tick=644900, channel=0, data=[36, 0]),
   midi.NoteOnEvent(tick=645000, channel=0, data=[18, 100]),
   midi.NoteOffEvent(tick=645100, channel=0, data=[18, 0]),
   midi.NoteOnEvent(tick=645200, channel=0, data=[4, 100]),
   midi.NoteOffEvent(tick=645300, channel=0, data=[4, 0]),
   midi.NoteOnEvent(tick=645400, channel=0, data=[17, 100]),
   midi.NoteOffEvent(tick=645500, channel=0, data=[17, 0]),
   midi.NoteOnEvent(tick=645600, channel=0, data=[21, 100]),
   midi.NoteOffEvent(tick=645700, channel=0, data=[21, 0]),
   midi.NoteOnEvent(tick=645800, channel=0, data=[8, 100]),
   midi.NoteOffEvent(tick=645900, channel=0, data=[8, 0]),
   midi.NoteOnEvent(tick=646000, channel=0, data=[2, 100]),
   midi.NoteOffEvent(tick=646100, channel=0, data=[2, 0]),
   midi.NoteOnEvent(tick=646200, channel=0, data=[4, 100]),
   midi.NoteOffEvent(tick=646300, channel=0, data=[4, 0]),
   midi.NoteOnEvent(tick=646400, channel=0, data=[36, 100]),
   midi.NoteOffEvent(tick=646500, channel=0, data=[36, 0]),
   midi.NoteOnEvent(tick=646600, channel=0, data=[14, 100]),
   midi.NoteOffEvent(tick=646700, channel=0, data=[14, 0]),
   midi.NoteOnEvent(tick=646800, channel=0, data=[1, 100]),
   midi.NoteOffEvent(tick=646900, channel=0, data=[1, 0]),
   midi.NoteOnEvent(tick=647000, channel=0, data=[9, 100]),
   midi.NoteOffEvent(tick=647100, channel=0, data=[9, 0]),
   midi.NoteOnEvent(tick=647200, channel=0, data=[4, 100]),
   midi.NoteOffEvent(tick=647300, channel=0, data=[4, 0]),
   midi.NoteOnEvent(tick=647400, channel=0, data=[2, 100]),
   midi.NoteOffEvent(tick=647500, channel=0, data=[2, 0]),
   midi.NoteOnEvent(tick=647600, channel=0, data=[19, 100]),
   midi.NoteOffEvent(tick=647700, channel=0, data=[19, 0]),
   midi.NoteOnEvent(tick=647800, channel=0, data=[18, 100]),
   midi.NoteOffEvent(tick=647900, channel=0, data=[18, 0]),
   midi.NoteOnEvent(tick=648000, channel=0, data=[38, 100]),
   midi.NoteOffEvent(tick=648100, channel=0, data=[38, 0]),
   midi.NoteOnEvent(tick=648200, channel=0, data=[36, 100]),
   midi.NoteOffEvent(tick=648300, channel=0, data=[36, 0]),
   midi.NoteOnEvent(tick=648400, channel=0, data=[18, 100]),
   midi.NoteOffEvent(tick=648500, channel=0, data=[18, 0]),
   midi.NoteOnEvent(tick=648600, channel=0, data=[19, 100]),
   midi.NoteOffEvent(tick=648700, channel=0, data=[19, 0]),
   midi.NoteOnEvent(tick=648800, channel=0, data=[17, 100]),
   midi.NoteOffEvent(tick=648900, channel=0, data=[17, 0]),
   midi.NoteOnEvent(tick=649000, channel=0, data=[8, 100]),
   midi.NoteOffEvent(tick=649100, channel=0, data=[8, 0]),
   midi.NoteOnEvent(tick=649200, channel=0, data=[13, 100]),
   midi.NoteOffEvent(tick=649300, channel=0, data=[13, 0]),
   midi.NoteOnEvent(tick=649400, channel=0, data=[6, 100]),
   midi.NoteOffEvent(tick=649500, channel=0, data=[6, 0]),
   midi.NoteOnEvent(tick=649600, channel=0, data=[18, 100]),
   midi.NoteOffEvent(tick=649700, channel=0, data=[18, 0]),
   midi.NoteOnEvent(tick=649800, channel=0, data=[38, 100]),
   midi.NoteOffEvent(tick=649900, channel=0, data=[38, 0]),
   midi.NoteOnEvent(tick=650000, channel=0, data=[36, 100]),
   midi.NoteOffEvent(tick=650100, channel=0, data=[36, 0]),
   midi.NoteOnEvent(tick=650200, channel=0, data=[0, 100]),
   midi.NoteOffEvent(tick=650300, channel=0, data=[0, 0]),
   midi.NoteOnEvent(tick=650400, channel=0, data=[13, 100]),
   midi.NoteOffEvent(tick=650500, channel=0, data=[13, 0]),
   midi.NoteOnEvent(tick=650600, channel=0, data=[3, 100]),
   midi.NoteOffEvent(tick=650700, channel=0, data=[3, 0]),
   midi.NoteOnEvent(tick=650800, channel=0, data=[36, 100]),
   midi.NoteOffEvent(tick=650900, channel=0, data=[36, 0]),
   midi.NoteOnEvent(tick=651000, channel=0, data=[8, 100]),
   midi.NoteOffEvent(tick=651100, channel=0, data=[8, 0]),
   midi.NoteOnEvent(tick=651200, channel=0, data=[13, 100]),
   midi.NoteOffEvent(tick=651300, channel=0, data=[13, 0]),
   midi.NoteOnEvent(tick=651400, channel=0, data=[19, 100]),
   midi.NoteOffEvent(tick=651500, channel=0, data=[19, 0]),
   midi.NoteOnEvent(tick=651600, channel=0, data=[4, 100]),
   midi.NoteOffEvent(tick=651700, channel=0, data=[4, 0]),
   midi.NoteOnEvent(tick=651800, channel=0, data=[6, 100]),
   midi.NoteOffEvent(tick=651900, channel=0, data=[6, 0]),
   midi.NoteOnEvent(tick=652000, channel=0, data=[4, 100]),
   midi.NoteOffEvent(tick=652100, channel=0, data=[4, 0]),
   midi.NoteOnEvent(tick=652200, channel=0, data=[17, 100]),
   midi.NoteOffEvent(tick=652300, channel=0, data=[17, 0]),
   midi.NoteOnEvent(tick=652400, channel=0, data=[18, 100]),
   midi.NoteOffEvent(tick=652500, channel=0, data=[18, 0]),
   midi.NoteOnEvent(tick=652600, channel=0, data=[36, 100]),
   midi.NoteOffEvent(tick=652700, channel=0, data=[36, 0]),
   midi.NoteOnEvent(tick=652800, channel=0, data=[19, 100]),
   midi.NoteOffEvent(tick=652900, channel=0, data=[19, 0]),
   midi.NoteOnEvent(tick=653000, channel=0, data=[14, 100]),
   midi.NoteOffEvent(tick=653100, channel=0, data=[14, 0]),
   midi.NoteOnEvent(tick=653200, channel=0, data=[36, 100]),
   midi.NoteOffEvent(tick=653300, channel=0, data=[36, 0]),
   midi.NoteOnEvent(tick=653400, channel=0, data=[0, 100]),
   midi.NoteOffEvent(tick=653500, channel=0, data=[0, 0]),
   midi.NoteOnEvent(tick=653600, channel=0, data=[36, 100]),
   midi.NoteOffEvent(tick=653700, channel=0, data=[36, 0]),
   midi.NoteOnEvent(tick=653800, channel=0, data=[21, 100]),
   midi.NoteOffEvent(tick=653900, channel=0, data=[21, 0]),
   midi.NoteOnEvent(tick=654000, channel=0, data=[0, 100]),
   midi.NoteOffEvent(tick=654100, channel=0, data=[0, 0]),
   midi.NoteOnEvent(tick=654200, channel=0, data=[17, 100]),
   midi.NoteOffEvent(tick=654300, channel=0, data=[17, 0]),
   midi.NoteOnEvent(tick=654400, channel=0, data=[8, 100]),
   midi.NoteOffEvent(tick=654500, channel=0, data=[8, 0]),
   midi.NoteOnEvent(tick=654600, channel=0, data=[0, 100]),
   midi.NoteOffEvent(tick=654700, channel=0, data=[0, 0]),
   midi.NoteOnEvent(tick=654800, channel=0, data=[1, 100]),
   midi.NoteOffEvent(tick=654900, channel=0, data=[1, 0]),
   midi.NoteOnEvent(tick=655000, channel=0, data=[11, 100]),
   midi.NoteOffEvent(tick=655100, channel=0, data=[11, 0]),
   midi.NoteOnEvent(tick=655200, channel=0, data=[4, 100]),
   midi.NoteOffEvent(tick=655300, channel=0, data=[4, 0]),
   midi.NoteOnEvent(tick=655400, channel=0, data=[56, 100]),
   midi.NoteOffEvent(tick=655500, channel=0, data=[56, 0]),
   midi.NoteOnEvent(tick=655600, channel=0, data=[36, 100]),
   midi.NoteOffEvent(tick=655700, channel=0, data=[36, 0]),
   midi.NoteOnEvent(tick=655800, channel=0, data=[36, 100]),
   midi.NoteOffEvent(tick=655900, channel=0, data=[36, 0]),
   midi.NoteOnEvent(tick=656000, channel=0, data=[36, 100]),
   midi.NoteOffEvent(tick=656100, channel=0, data=[36, 0]),
   midi.NoteOnEvent(tick=656200, channel=0, data=[36, 100]),
   midi.NoteOffEvent(tick=656300, channel=0, data=[36, 0]),
   midi.NoteOnEvent(tick=656400, channel=0, data=[22, 100]),
   midi.NoteOffEvent(tick=656500, channel=0, data=[22, 0]),
   midi.NoteOnEvent(tick=656600, channel=0, data=[8, 100]),
   midi.NoteOffEvent(tick=656700, channel=0, data=[8, 0]),
   midi.NoteOnEvent(tick=656800, channel=0, data=[19, 100]),
   midi.NoteOffEvent(tick=656900, channel=0, data=[19, 0]),
   midi.NoteOnEvent(tick=657000, channel=0, data=[7, 100]),
   midi.NoteOffEvent(tick=657100, channel=0, data=[7, 0]),
   midi.NoteOnEvent(tick=657200, channel=0, data=[14, 100]),
   midi.NoteOffEvent(tick=657300, channel=0, data=[14, 0]),
   midi.NoteOnEvent(tick=657400, channel=0, data=[20, 100]),
   midi.NoteOffEvent(tick=657500, channel=0, data=[20, 0]),
   midi.NoteOnEvent(tick=657600, channel=0, data=[19, 100]),
   midi.NoteOffEvent(tick=657700, channel=0, data=[19, 0]),
   midi.NoteOnEvent(tick=657800, channel=0, data=[36, 100]),
   midi.NoteOffEvent(tick=657900, channel=0, data=[36, 0]),
   midi.NoteOnEvent(tick=658000, channel=0, data=[6, 100]),
   midi.NoteOffEvent(tick=658100, channel=0, data=[6, 0]),
   midi.NoteOnEvent(tick=658200, channel=0, data=[4, 100]),
   midi.NoteOffEvent(tick=658300, channel=0, data=[4, 0]),
   midi.NoteOnEvent(tick=658400, channel=0, data=[13, 100]),
   midi.NoteOffEvent(tick=658500, channel=0, data=[13, 0]),
   midi.NoteOnEvent(tick=658600, channel=0, data=[4, 100]),
   midi.NoteOffEvent(tick=658700, channel=0, data=[4, 0]),
   midi.NoteOnEvent(tick=658800, channel=0, data=[17, 100]),
   midi.NoteOffEvent(tick=658900, channel=0, data=[17, 0]),
   midi.NoteOnEvent(tick=659000, channel=0, data=[0, 100]),
   midi.NoteOffEvent(tick=659100, channel=0, data=[0, 0]),
   midi.NoteOnEvent(tick=659200, channel=0, data=[19, 100]),
   midi.NoteOffEvent(tick=659300, channel=0, data=[19, 0]),
   midi.NoteOnEvent(tick=659400, channel=0, data=[8, 100]),
   midi.NoteOffEvent(tick=659500, channel=0, data=[8, 0]),
   midi.NoteOnEvent(tick=659600, channel=0, data=[13, 100]),
   midi.NoteOffEvent(tick=659700, channel=0, data=[13, 0]),
   midi.NoteOnEvent(tick=659800, channel=0, data=[6, 100]),
   midi.NoteOffEvent(tick=659900, channel=0, data=[6, 0]),
   midi.NoteOnEvent(tick=660000, channel=0, data=[36, 100]),
   midi.NoteOffEvent(tick=660100, channel=0, data=[36, 0]),
   midi.NoteOnEvent(tick=660200, channel=0, data=[0, 100]),
   midi.NoteOffEvent(tick=660300, channel=0, data=[0, 0]),
   midi.NoteOnEvent(tick=660400, channel=0, data=[13, 100]),
   midi.NoteOffEvent(tick=660500, channel=0, data=[13, 0]),
   midi.NoteOnEvent(tick=660600, channel=0, data=[36, 100]),
   midi.NoteOffEvent(tick=660700, channel=0, data=[36, 0]),
   midi.NoteOnEvent(tick=660800, channel=0, data=[4, 100]),
   midi.NoteOffEvent(tick=660900, channel=0, data=[4, 0]),
   midi.NoteOnEvent(tick=661000, channel=0, data=[17, 100]),
   midi.NoteOffEvent(tick=661100, channel=0, data=[17, 0]),
   midi.NoteOnEvent(tick=661200, channel=0, data=[17, 100]),
   midi.NoteOffEvent(tick=661300, channel=0, data=[17, 0]),
   midi.NoteOnEvent(tick=661400, channel=0, data=[14, 100]),
   midi.NoteOffEvent(tick=661500, channel=0, data=[14, 0]),
   midi.NoteOnEvent(tick=661600, channel=0, data=[17, 100]),
   midi.NoteOffEvent(tick=661700, channel=0, data=[17, 0]),
   midi.NoteOnEvent(tick=661800, channel=0, data=[46, 100]),
   midi.NoteOffEvent(tick=661900, channel=0, data=[46, 0]),
   midi.NoteOnEvent(tick=662000, channel=0, data=[36, 100]),
   midi.NoteOffEvent(tick=662100, channel=0, data=[36, 0]),
   midi.NoteOnEvent(tick=662200, channel=0, data=[56, 100]),
   midi.NoteOffEvent(tick=662300, channel=0, data=[56, 0]),
   midi.NoteOnEvent(tick=662400, channel=0, data=[56, 100]),
   midi.NoteOffEvent(tick=662500, channel=0, data=[56, 0]),
   midi.NoteOnEvent(tick=662600, channel=0, data=[56, 100]),
   midi.NoteOffEvent(tick=662700, channel=0, data=[56, 0]),
   midi.NoteOnEvent(tick=662800, channel=0, data=[36, 100]),
   midi.NoteOffEvent(tick=662900, channel=0, data=[36, 0]),
   midi.NoteOnEvent(tick=663000, channel=0, data=[36, 100]),
   midi.NoteOffEvent(tick=663100, channel=0, data=[36, 0]),
   midi.NoteOnEvent(tick=663200, channel=0, data=[36, 100]),
   midi.NoteOffEvent(tick=663300, channel=0, data=[36, 0]),
   midi.NoteOnEvent(tick=663400, channel=0, data=[36, 100]),
   midi.NoteOffEvent(tick=663500, channel=0, data=[36, 0]),
   midi.NoteOnEvent(tick=663600, channel=0, data=[36, 100]),
   midi.NoteOffEvent(tick=663700, channel=0, data=[36, 0]),
   midi.NoteOnEvent(tick=663800, channel=0, data=[36, 100]),
   midi.NoteOffEvent(tick=663900, channel=0, data=[36, 0]),
   midi.NoteOnEvent(tick=664000, channel=0, data=[36, 100]),
   midi.NoteOffEvent(tick=664100, channel=0, data=[36, 0]),
   midi.NoteOnEvent(tick=664200, channel=0, data=[36, 100]),
   midi.NoteOffEvent(tick=664300, channel=0, data=[36, 0]),
   midi.NoteOnEvent(tick=664400, channel=0, data=[74, 100]),
   midi.NoteOffEvent(tick=664500, channel=0, data=[74, 0]),
   midi.NoteOnEvent(tick=664600, channel=0, data=[0, 100]),
   midi.NoteOffEvent(tick=664700, channel=0, data=[0, 0]),
   midi.NoteOnEvent(tick=664800, channel=0, data=[36, 100]),
   midi.NoteOffEvent(tick=664900, channel=0, data=[36, 0]),
   midi.NoteOnEvent(tick=665000, channel=0, data=[69, 100]),
   midi.NoteOffEvent(tick=665100, channel=0, data=[69, 0]),
   midi.NoteOnEvent(tick=665200, channel=0, data=[36, 100]),
   midi.NoteOffEvent(tick=665300, channel=0, data=[36, 0]),
   midi.NoteOnEvent(tick=665400, channel=0, data=[6, 100]),
   midi.NoteOffEvent(tick=665500, channel=0, data=[6, 0]),
   midi.NoteOnEvent(tick=665600, channel=0, data=[4, 100]),
   midi.NoteOffEvent(tick=665700, channel=0, data=[4, 0]),
   midi.NoteOnEvent(tick=665800, channel=0, data=[19, 100]),
   midi.NoteOffEvent(tick=665900, channel=0, data=[19, 0]),
   midi.NoteOnEvent(tick=666000, channel=0, data=[45, 100]),
   midi.NoteOffEvent(tick=666100, channel=0, data=[45, 0]),
   midi.NoteOnEvent(tick=666200, channel=0, data=[15, 100]),
   midi.NoteOffEvent(tick=666300, channel=0, data=[15, 0]),
   midi.NoteOnEvent(tick=666400, channel=0, data=[17, 100]),
   midi.NoteOffEvent(tick=666500, channel=0, data=[17, 0]),
   midi.NoteOnEvent(tick=666600, channel=0, data=[14, 100]),
   midi.NoteOffEvent(tick=666700, channel=0, data=[14, 0]),
   midi.NoteOnEvent(tick=666800, channel=0, data=[2, 100]),
   midi.NoteOffEvent(tick=666900, channel=0, data=[2, 0]),
   midi.NoteOnEvent(tick=667000, channel=0, data=[4, 100]),
   midi.NoteOffEvent(tick=667100, channel=0, data=[4, 0]),
   midi.NoteOnEvent(tick=667200, channel=0, data=[18, 100]),
   midi.NoteOffEvent(tick=667300, channel=0, data=[18, 0]),
   midi.NoteOnEvent(tick=667400, channel=0, data=[18, 100]),
   midi.NoteOffEvent(tick=667500, channel=0, data=[18, 0]),
   midi.NoteOnEvent(tick=667600, channel=0, data=[56, 100]),
   midi.NoteOffEvent(tick=667700, channel=0, data=[56, 0]),
   midi.NoteOnEvent(tick=667800, channel=0, data=[36, 100]),
   midi.NoteOffEvent(tick=667900, channel=0, data=[36, 0]),
   midi.NoteOnEvent(tick=668000, channel=0, data=[36, 100]),
   midi.NoteOffEvent(tick=668100, channel=0, data=[36, 0]),
   midi.NoteOnEvent(tick=668200, channel=0, data=[36, 100]),
   midi.NoteOffEvent(tick=668300, channel=0, data=[36, 0]),
   midi.NoteOnEvent(tick=668400, channel=0, data=[36, 100]),
   midi.NoteOffEvent(tick=668500, channel=0, data=[36, 0]),
   midi.NoteOnEvent(tick=668600, channel=0, data=[36, 100]),
   midi.NoteOffEvent(tick=668700, channel=0, data=[36, 0]),
   midi.NoteOnEvent(tick=668800, channel=0, data=[36, 100]),
   midi.NoteOffEvent(tick=668900, channel=0, data=[36, 0]),
   midi.NoteOnEvent(tick=669000, channel=0, data=[36, 100]),
   midi.NoteOffEvent(tick=669100, channel=0, data=[36, 0]),
   midi.NoteOnEvent(tick=669200, channel=0, data=[36, 100]),
   midi.NoteOffEvent(tick=669300, channel=0, data=[36, 0]),
   midi.NoteOnEvent(tick=669400, channel=0, data=[74, 100]),
   midi.NoteOffEvent(tick=669500, channel=0, data=[74, 0]),
   midi.NoteOnEvent(tick=669600, channel=0, data=[0, 100]),
   midi.NoteOffEvent(tick=669700, channel=0, data=[0, 0]),
   midi.NoteOnEvent(tick=669800, channel=0, data=[36, 100]),
   midi.NoteOffEvent(tick=669900, channel=0, data=[36, 0]),
   midi.NoteOnEvent(tick=670000, channel=0, data=[55, 100]),
   midi.NoteOffEvent(tick=670100, channel=0, data=[55, 0]),
   midi.NoteOnEvent(tick=670200, channel=0, data=[69, 100]),
   midi.NoteOffEvent(tick=670300, channel=0, data=[69, 0]),
   midi.NoteOnEvent(tick=670400, channel=0, data=[36, 100]),
   midi.NoteOffEvent(tick=670500, channel=0, data=[36, 0]),
   midi.NoteOnEvent(tick=670600, channel=0, data=[6, 100]),
   midi.NoteOffEvent(tick=670700, channel=0, data=[6, 0]),
   midi.NoteOnEvent(tick=670800, channel=0, data=[4, 100]),
   midi.NoteOffEvent(tick=670900, channel=0, data=[4, 0]),
   midi.NoteOnEvent(tick=671000, channel=0, data=[19, 100]),
   midi.NoteOffEvent(tick=671100, channel=0, data=[19, 0]),
   midi.NoteOnEvent(tick=671200, channel=0, data=[45, 100]),
   midi.NoteOffEvent(tick=671300, channel=0, data=[45, 0]),
   midi.NoteOnEvent(tick=671400, channel=0, data=[18, 100]),
   midi.NoteOffEvent(tick=671500, channel=0, data=[18, 0]),
   midi.NoteOnEvent(tick=671600, channel=0, data=[4, 100]),
   midi.NoteOffEvent(tick=671700, channel=0, data=[4, 0]),
   midi.NoteOnEvent(tick=671800, channel=0, data=[17, 100]),
   midi.NoteOffEvent(tick=671900, channel=0, data=[17, 0]),
   midi.NoteOnEvent(tick=672000, channel=0, data=[21, 100]),
   midi.NoteOffEvent(tick=672100, channel=0, data=[21, 0]),
   midi.NoteOnEvent(tick=672200, channel=0, data=[8, 100]),
   midi.NoteOffEvent(tick=672300, channel=0, data=[8, 0]),
   midi.NoteOnEvent(tick=672400, channel=0, data=[2, 100]),
   midi.NoteOffEvent(tick=672500, channel=0, data=[2, 0]),
   midi.NoteOnEvent(tick=672600, channel=0, data=[4, 100]),
   midi.NoteOffEvent(tick=672700, channel=0, data=[4, 0]),
   midi.NoteOnEvent(tick=672800, channel=0, data=[56, 100]),
   midi.NoteOffEvent(tick=672900, channel=0, data=[56, 0]),
   midi.NoteOnEvent(tick=673000, channel=0, data=[36, 100]),
   midi.NoteOffEvent(tick=673100, channel=0, data=[36, 0]),
   midi.NoteOnEvent(tick=673200, channel=0, data=[36, 100]),
   midi.NoteOffEvent(tick=673300, channel=0, data=[36, 0]),
   midi.NoteOnEvent(tick=673400, channel=0, data=[36, 100]),
   midi.NoteOffEvent(tick=673500, channel=0, data=[36, 0]),
   midi.NoteOnEvent(tick=673600, channel=0, data=[36, 100]),
   midi.NoteOffEvent(tick=673700, channel=0, data=[36, 0]),
   midi.NoteOnEvent(tick=673800, channel=0, data=[36, 100]),
   midi.NoteOffEvent(tick=673900, channel=0, data=[36, 0]),
   midi.NoteOnEvent(tick=674000, channel=0, data=[36, 100]),
   midi.NoteOffEvent(tick=674100, channel=0, data=[36, 0]),
   midi.NoteOnEvent(tick=674200, channel=0, data=[36, 100]),
   midi.NoteOffEvent(tick=674300, channel=0, data=[36, 0]),
   midi.NoteOnEvent(tick=674400, channel=0, data=[36, 100]),
   midi.NoteOffEvent(tick=674500, channel=0, data=[36, 0]),
   midi.NoteOnEvent(tick=674600, channel=0, data=[74, 100]),
   midi.NoteOffEvent(tick=674700, channel=0, data=[74, 0]),
   midi.NoteOnEvent(tick=674800, channel=0, data=[0, 100]),
   midi.NoteOffEvent(tick=674900, channel=0, data=[0, 0]),
   midi.NoteOnEvent(tick=675000, channel=0, data=[36, 100]),
   midi.NoteOffEvent(tick=675100, channel=0, data=[36, 0]),
   midi.NoteOnEvent(tick=675200, channel=0, data=[55, 100]),
   midi.NoteOffEvent(tick=675300, channel=0, data=[55, 0]),
   midi.NoteOnEvent(tick=675400, channel=0, data=[69, 100]),
   midi.NoteOffEvent(tick=675500, channel=0, data=[69, 0]),
   midi.NoteOnEvent(tick=675600, channel=0, data=[36, 100]),
   midi.NoteOffEvent(tick=675700, channel=0, data=[36, 0]),
   midi.NoteOnEvent(tick=675800, channel=0, data=[41, 100]),
   midi.NoteOffEvent(tick=675900, channel=0, data=[41, 0]),
   midi.NoteOnEvent(tick=676000, channel=0, data=[18, 100]),
   midi.NoteOffEvent(tick=676100, channel=0, data=[18, 0]),
   midi.NoteOnEvent(tick=676200, channel=0, data=[19, 100]),
   midi.NoteOffEvent(tick=676300, channel=0, data=[19, 0]),
   midi.NoteOnEvent(tick=676400, channel=0, data=[17, 100]),
   midi.NoteOffEvent(tick=676500, channel=0, data=[17, 0]),
   midi.NoteOnEvent(tick=676600, channel=0, data=[8, 100]),
   midi.NoteOffEvent(tick=676700, channel=0, data=[8, 0]),
   midi.NoteOnEvent(tick=676800, channel=0, data=[13, 100]),
   midi.NoteOffEvent(tick=676900, channel=0, data=[13, 0]),
   midi.NoteOnEvent(tick=677000, channel=0, data=[6, 100]),
   midi.NoteOffEvent(tick=677100, channel=0, data=[6, 0]),
   midi.NoteOnEvent(tick=677200, channel=0, data=[41, 100]),
   midi.NoteOffEvent(tick=677300, channel=0, data=[41, 0]),
   midi.NoteOnEvent(tick=677400, channel=0, data=[56, 100]),
   midi.NoteOffEvent(tick=677500, channel=0, data=[56, 0]),
   midi.NoteOnEvent(tick=677600, channel=0, data=[36, 100]),
   midi.NoteOffEvent(tick=677700, channel=0, data=[36, 0]),
   midi.NoteOnEvent(tick=677800, channel=0, data=[36, 100]),
   midi.NoteOffEvent(tick=677900, channel=0, data=[36, 0]),
   midi.NoteOnEvent(tick=678000, channel=0, data=[36, 100]),
   midi.NoteOffEvent(tick=678100, channel=0, data=[36, 0]),
   midi.NoteOnEvent(tick=678200, channel=0, data=[36, 100]),
   midi.NoteOffEvent(tick=678300, channel=0, data=[36, 0]),
   midi.NoteOnEvent(tick=678400, channel=0, data=[36, 100]),
   midi.NoteOffEvent(tick=678500, channel=0, data=[36, 0]),
   midi.NoteOnEvent(tick=678600, channel=0, data=[36, 100]),
   midi.NoteOffEvent(tick=678700, channel=0, data=[36, 0]),
   midi.NoteOnEvent(tick=678800, channel=0, data=[36, 100]),
   midi.NoteOffEvent(tick=678900, channel=0, data=[36, 0]),
   midi.NoteOnEvent(tick=679000, channel=0, data=[36, 100]),
   midi.NoteOffEvent(tick=679100, channel=0, data=[36, 0]),
   midi.NoteOnEvent(tick=679200, channel=0, data=[74, 100]),
   midi.NoteOffEvent(tick=679300, channel=0, data=[74, 0]),
   midi.NoteOnEvent(tick=679400, channel=0, data=[0, 100]),
   midi.NoteOffEvent(tick=679500, channel=0, data=[0, 0]),
   midi.NoteOnEvent(tick=679600, channel=0, data=[36, 100]),
   midi.NoteOffEvent(tick=679700, channel=0, data=[36, 0]),
   midi.NoteOnEvent(tick=679800, channel=0, data=[55, 100]),
   midi.NoteOffEvent(tick=679900, channel=0, data=[55, 0]),
   midi.NoteOnEvent(tick=680000, channel=0, data=[69, 100]),
   midi.NoteOffEvent(tick=680100, channel=0, data=[69, 0]),
   midi.NoteOnEvent(tick=680200, channel=0, data=[36, 100]),
   midi.NoteOffEvent(tick=680300, channel=0, data=[36, 0]),
   midi.NoteOnEvent(tick=680400, channel=0, data=[27, 100]),
   midi.NoteOffEvent(tick=680500, channel=0, data=[27, 0]),
   midi.NoteOnEvent(tick=680600, channel=0, data=[28, 100]),
   midi.NoteOffEvent(tick=680700, channel=0, data=[28, 0]),
   midi.NoteOnEvent(tick=680800, channel=0, data=[56, 100]),
   midi.NoteOffEvent(tick=680900, channel=0, data=[56, 0]),
   midi.NoteOnEvent(tick=681000, channel=0, data=[36, 100]),
   midi.NoteOffEvent(tick=681100, channel=0, data=[36, 0]),
   midi.NoteOnEvent(tick=681200, channel=0, data=[56, 100]),
   midi.NoteOffEvent(tick=681300, channel=0, data=[56, 0]),
   midi.NoteOnEvent(tick=681400, channel=0, data=[56, 100]),
   midi.NoteOffEvent(tick=681500, channel=0, data=[56, 0]),
   midi.NoteOnEvent(tick=681600, channel=0, data=[36, 100]),
   midi.NoteOffEvent(tick=681700, channel=0, data=[36, 0]),
   midi.NoteOnEvent(tick=681800, channel=0, data=[36, 100]),
   midi.NoteOffEvent(tick=681900, channel=0, data=[36, 0]),
   midi.NoteOnEvent(tick=682000, channel=0, data=[36, 100]),
   midi.NoteOffEvent(tick=682100, channel=0, data=[36, 0]),
   midi.NoteOnEvent(tick=682200, channel=0, data=[36, 100]),
   midi.NoteOffEvent(tick=682300, channel=0, data=[36, 0]),
   midi.NoteOnEvent(tick=682400, channel=0, data=[1, 100]),
   midi.NoteOffEvent(tick=682500, channel=0, data=[1, 0]),
   midi.NoteOnEvent(tick=682600, channel=0, data=[4, 100]),
   midi.NoteOffEvent(tick=682700, channel=0, data=[4, 0]),
   midi.NoteOnEvent(tick=682800, channel=0, data=[2, 100]),
   midi.NoteOffEvent(tick=682900, channel=0, data=[2, 0]),
   midi.NoteOnEvent(tick=683000, channel=0, data=[0, 100]),
   midi.NoteOffEvent(tick=683100, channel=0, data=[0, 0]),
   midi.NoteOnEvent(tick=683200, channel=0, data=[20, 100]),
   midi.NoteOffEvent(tick=683300, channel=0, data=[20, 0]),
   midi.NoteOnEvent(tick=683400, channel=0, data=[18, 100]),
   midi.NoteOffEvent(tick=683500, channel=0, data=[18, 0]),
   midi.NoteOnEvent(tick=683600, channel=0, data=[4, 100]),
   midi.NoteOffEvent(tick=683700, channel=0, data=[4, 0]),
   midi.NoteOnEvent(tick=683800, channel=0, data=[36, 100]),
   midi.NoteOffEvent(tick=683900, channel=0, data=[36, 0]),
   midi.NoteOnEvent(tick=684000, channel=0, data=[19, 100]),
   midi.NoteOffEvent(tick=684100, channel=0, data=[19, 0]),
   midi.NoteOnEvent(tick=684200, channel=0, data=[7, 100]),
   midi.NoteOffEvent(tick=684300, channel=0, data=[7, 0]),
   midi.NoteOnEvent(tick=684400, channel=0, data=[4, 100]),
   midi.NoteOffEvent(tick=684500, channel=0, data=[4, 0]),
   midi.NoteOnEvent(tick=684600, channel=0, data=[36, 100]),
   midi.NoteOffEvent(tick=684700, channel=0, data=[36, 0]),
   midi.NoteOnEvent(tick=684800, channel=0, data=[0, 100]),
   midi.NoteOffEvent(tick=684900, channel=0, data=[0, 0]),
   midi.NoteOnEvent(tick=685000, channel=0, data=[18, 100]),
   midi.NoteOffEvent(tick=685100, channel=0, data=[18, 0]),
   midi.NoteOnEvent(tick=685200, channel=0, data=[18, 100]),
   midi.NoteOffEvent(tick=685300, channel=0, data=[18, 0]),
   midi.NoteOnEvent(tick=685400, channel=0, data=[8, 100]),
   midi.NoteOffEvent(tick=685500, channel=0, data=[8, 0]),
   midi.NoteOnEvent(tick=685600, channel=0, data=[6, 100]),
   midi.NoteOffEvent(tick=685700, channel=0, data=[6, 0]),
   midi.NoteOnEvent(tick=685800, channel=0, data=[13, 100]),
   midi.NoteOffEvent(tick=685900, channel=0, data=[13, 0]),
   midi.NoteOnEvent(tick=686000, channel=0, data=[12, 100]),
   midi.NoteOffEvent(tick=686100, channel=0, data=[12, 0]),
   midi.NoteOnEvent(tick=686200, channel=0, data=[4, 100]),
   midi.NoteOffEvent(tick=686300, channel=0, data=[4, 0]),
   midi.NoteOnEvent(tick=686400, channel=0, data=[13, 100]),
   midi.NoteOffEvent(tick=686500, channel=0, data=[13, 0]),
   midi.NoteOnEvent(tick=686600, channel=0, data=[19, 100]),
   midi.NoteOffEvent(tick=686700, channel=0, data=[19, 0]),
   midi.NoteOnEvent(tick=686800, channel=0, data=[36, 100]),
   midi.NoteOffEvent(tick=686900, channel=0, data=[36, 0]),
   midi.NoteOnEvent(tick=687000, channel=0, data=[14, 100]),
   midi.NoteOffEvent(tick=687100, channel=0, data=[14, 0]),
   midi.NoteOnEvent(tick=687200, channel=0, data=[15, 100]),
   midi.NoteOffEvent(tick=687300, channel=0, data=[15, 0]),
   midi.NoteOnEvent(tick=687400, channel=0, data=[4, 100]),
   midi.NoteOffEvent(tick=687500, channel=0, data=[4, 0]),
   midi.NoteOnEvent(tick=687600, channel=0, data=[17, 100]),
   midi.NoteOffEvent(tick=687700, channel=0, data=[17, 0]),
   midi.NoteOnEvent(tick=687800, channel=0, data=[0, 100]),
   midi.NoteOffEvent(tick=687900, channel=0, data=[0, 0]),
   midi.NoteOnEvent(tick=688000, channel=0, data=[19, 100]),
   midi.NoteOffEvent(tick=688100, channel=0, data=[19, 0]),
   midi.NoteOnEvent(tick=688200, channel=0, data=[14, 100]),
   midi.NoteOffEvent(tick=688300, channel=0, data=[14, 0]),
   midi.NoteOnEvent(tick=688400, channel=0, data=[17, 100]),
   midi.NoteOffEvent(tick=688500, channel=0, data=[17, 0]),
   midi.NoteOnEvent(tick=688600, channel=0, data=[36, 100]),
   midi.NoteOffEvent(tick=688700, channel=0, data=[36, 0]),
   midi.NoteOnEvent(tick=688800, channel=0, data=[49, 100]),
   midi.NoteOffEvent(tick=688900, channel=0, data=[49, 0]),
   midi.NoteOnEvent(tick=689000, channel=0, data=[69, 100]),
   midi.NoteOffEvent(tick=689100, channel=0, data=[69, 0]),
   midi.NoteOnEvent(tick=689200, channel=0, data=[50, 100]),
   midi.NoteOffEvent(tick=689300, channel=0, data=[50, 0]),
   midi.NoteOnEvent(tick=689400, channel=0, data=[36, 100]),
   midi.NoteOffEvent(tick=689500, channel=0, data=[36, 0]),
   midi.NoteOnEvent(tick=689600, channel=0, data=[7, 100]),
   midi.NoteOffEvent(tick=689700, channel=0, data=[7, 0]),
   midi.NoteOnEvent(tick=689800, channel=0, data=[0, 100]),
   midi.NoteOffEvent(tick=689900, channel=0, data=[0, 0]),
   midi.NoteOnEvent(tick=690000, channel=0, data=[18, 100]),
   midi.NoteOffEvent(tick=690100, channel=0, data=[18, 0]),
   midi.NoteOnEvent(tick=690200, channel=0, data=[36, 100]),
   midi.NoteOffEvent(tick=690300, channel=0, data=[36, 0]),
   midi.NoteOnEvent(tick=690400, channel=0, data=[0, 100]),
   midi.NoteOffEvent(tick=690500, channel=0, data=[0, 0]),
   midi.NoteOnEvent(tick=690600, channel=0, data=[36, 100]),
   midi.NoteOffEvent(tick=690700, channel=0, data=[36, 0]),
   midi.NoteOnEvent(tick=690800, channel=0, data=[11, 100]),
   midi.NoteOffEvent(tick=690900, channel=0, data=[11, 0]),
   midi.NoteOnEvent(tick=691000, channel=0, data=[14, 100]),
   midi.NoteOffEvent(tick=691100, channel=0, data=[14, 0]),
   midi.NoteOnEvent(tick=691200, channel=0, data=[22, 100]),
   midi.NoteOffEvent(tick=691300, channel=0, data=[22, 0]),
   midi.NoteOnEvent(tick=691400, channel=0, data=[4, 100]),
   midi.NoteOffEvent(tick=691500, channel=0, data=[4, 0]),
   midi.NoteOnEvent(tick=691600, channel=0, data=[17, 100]),
   midi.NoteOffEvent(tick=691700, channel=0, data=[17, 0]),
   midi.NoteOnEvent(tick=691800, channel=0, data=[36, 100]),
   midi.NoteOffEvent(tick=691900, channel=0, data=[36, 0]),
   midi.NoteOnEvent(tick=692000, channel=0, data=[15, 100]),
   midi.NoteOffEvent(tick=692100, channel=0, data=[15, 0]),
   midi.NoteOnEvent(tick=692200, channel=0, data=[17, 100]),
   midi.NoteOffEvent(tick=692300, channel=0, data=[17, 0]),
   midi.NoteOnEvent(tick=692400, channel=0, data=[4, 100]),
   midi.NoteOffEvent(tick=692500, channel=0, data=[4, 0]),
   midi.NoteOnEvent(tick=692600, channel=0, data=[2, 100]),
   midi.NoteOffEvent(tick=692700, channel=0, data=[2, 0]),
   midi.NoteOnEvent(tick=692800, channel=0, data=[4, 100]),
   midi.NoteOffEvent(tick=692900, channel=0, data=[4, 0]),
   midi.NoteOnEvent(tick=693000, channel=0, data=[3, 100]),
   midi.NoteOffEvent(tick=693100, channel=0, data=[3, 0]),
   midi.NoteOnEvent(tick=693200, channel=0, data=[4, 100]),
   midi.NoteOffEvent(tick=693300, channel=0, data=[4, 0]),
   midi.NoteOnEvent(tick=693400, channel=0, data=[13, 100]),
   midi.NoteOffEvent(tick=693500, channel=0, data=[13, 0]),
   midi.NoteOnEvent(tick=693600, channel=0, data=[2, 100]),
   midi.NoteOffEvent(tick=693700, channel=0, data=[2, 0]),
   midi.NoteOnEvent(tick=693800, channel=0, data=[4, 100]),
   midi.NoteOffEvent(tick=693900, channel=0, data=[4, 0]),
   midi.NoteOnEvent(tick=694000, channel=0, data=[36, 100]),
   midi.NoteOffEvent(tick=694100, channel=0, data=[36, 0]),
   midi.NoteOnEvent(tick=694200, channel=0, data=[19, 100]),
   midi.NoteOffEvent(tick=694300, channel=0, data=[19, 0]),
   midi.NoteOnEvent(tick=694400, channel=0, data=[7, 100]),
   midi.NoteOffEvent(tick=694500, channel=0, data=[7, 0]),
   midi.NoteOnEvent(tick=694600, channel=0, data=[0, 100]),
   midi.NoteOffEvent(tick=694700, channel=0, data=[0, 0]),
   midi.NoteOnEvent(tick=694800, channel=0, data=[13, 100]),
   midi.NoteOffEvent(tick=694900, channel=0, data=[13, 0]),
   midi.NoteOnEvent(tick=695000, channel=0, data=[36, 100]),
   midi.NoteOffEvent(tick=695100, channel=0, data=[36, 0]),
   midi.NoteOnEvent(tick=695200, channel=0, data=[19, 100]),
   midi.NoteOffEvent(tick=695300, channel=0, data=[19, 0]),
   midi.NoteOnEvent(tick=695400, channel=0, data=[7, 100]),
   midi.NoteOffEvent(tick=695500, channel=0, data=[7, 0]),
   midi.NoteOnEvent(tick=695600, channel=0, data=[4, 100]),
   midi.NoteOffEvent(tick=695700, channel=0, data=[4, 0]),
   midi.NoteOnEvent(tick=695800, channel=0, data=[56, 100]),
   midi.NoteOffEvent(tick=695900, channel=0, data=[56, 0]),
   midi.NoteOnEvent(tick=696000, channel=0, data=[36, 100]),
   midi.NoteOffEvent(tick=696100, channel=0, data=[36, 0]),
   midi.NoteOnEvent(tick=696200, channel=0, data=[36, 100]),
   midi.NoteOffEvent(tick=696300, channel=0, data=[36, 0]),
   midi.NoteOnEvent(tick=696400, channel=0, data=[36, 100]),
   midi.NoteOffEvent(tick=696500, channel=0, data=[36, 0]),
   midi.NoteOnEvent(tick=696600, channel=0, data=[36, 100]),
   midi.NoteOffEvent(tick=696700, channel=0, data=[36, 0]),
   midi.NoteOnEvent(tick=696800, channel=0, data=[15, 100]),
   midi.NoteOffEvent(tick=696900, channel=0, data=[15, 0]),
   midi.NoteOnEvent(tick=697000, channel=0, data=[8, 100]),
   midi.NoteOffEvent(tick=697100, channel=0, data=[8, 0]),
   midi.NoteOnEvent(tick=697200, channel=0, data=[15, 100]),
   midi.NoteOffEvent(tick=697300, channel=0, data=[15, 0]),
   midi.NoteOnEvent(tick=697400, channel=0, data=[4, 100]),
   midi.NoteOffEvent(tick=697500, channel=0, data=[4, 0]),
   midi.NoteOnEvent(tick=697600, channel=0, data=[11, 100]),
   midi.NoteOffEvent(tick=697700, channel=0, data=[11, 0]),
   midi.NoteOnEvent(tick=697800, channel=0, data=[8, 100]),
   midi.NoteOffEvent(tick=697900, channel=0, data=[8, 0]),
   midi.NoteOnEvent(tick=698000, channel=0, data=[13, 100]),
   midi.NoteOffEvent(tick=698100, channel=0, data=[13, 0]),
   midi.NoteOnEvent(tick=698200, channel=0, data=[4, 100]),
   midi.NoteOffEvent(tick=698300, channel=0, data=[4, 0]),
   midi.NoteOnEvent(tick=698400, channel=0, data=[36, 100]),
   midi.NoteOffEvent(tick=698500, channel=0, data=[36, 0]),
   midi.NoteOnEvent(tick=698600, channel=0, data=[14, 100]),
   midi.NoteOffEvent(tick=698700, channel=0, data=[14, 0]),
   midi.NoteOnEvent(tick=698800, channel=0, data=[15, 100]),
   midi.NoteOffEvent(tick=698900, channel=0, data=[15, 0]),
   midi.NoteOnEvent(tick=699000, channel=0, data=[4, 100]),
   midi.NoteOffEvent(tick=699100, channel=0, data=[4, 0]),
   midi.NoteOnEvent(tick=699200, channel=0, data=[17, 100]),
   midi.NoteOffEvent(tick=699300, channel=0, data=[17, 0]),
   midi.NoteOnEvent(tick=699400, channel=0, data=[0, 100]),
   midi.NoteOffEvent(tick=699500, channel=0, data=[0, 0]),
   midi.NoteOnEvent(tick=699600, channel=0, data=[19, 100]),
   midi.NoteOffEvent(tick=699700, channel=0, data=[19, 0]),
   midi.NoteOnEvent(tick=699800, channel=0, data=[14, 100]),
   midi.NoteOffEvent(tick=699900, channel=0, data=[14, 0]),
   midi.NoteOnEvent(tick=700000, channel=0, data=[17, 100]),
   midi.NoteOffEvent(tick=700100, channel=0, data=[17, 0]),
   midi.NoteOnEvent(tick=700200, channel=0, data=[36, 100]),
   midi.NoteOffEvent(tick=700300, channel=0, data=[36, 0]),
   midi.NoteOnEvent(tick=700400, channel=0, data=[49, 100]),
   midi.NoteOffEvent(tick=700500, channel=0, data=[49, 0]),
   midi.NoteOnEvent(tick=700600, channel=0, data=[76, 100]),
   midi.NoteOffEvent(tick=700700, channel=0, data=[76, 0]),
   midi.NoteOnEvent(tick=700800, channel=0, data=[50, 100]),
   midi.NoteOffEvent(tick=700900, channel=0, data=[50, 0]),
   midi.NoteOnEvent(tick=701000, channel=0, data=[38, 100]),
   midi.NoteOffEvent(tick=701100, channel=0, data=[38, 0]),
   midi.NoteOnEvent(tick=701200, channel=0, data=[36, 100]),
   midi.NoteOffEvent(tick=701300, channel=0, data=[36, 0]),
   midi.NoteOnEvent(tick=701400, channel=0, data=[15, 100]),
   midi.NoteOffEvent(tick=701500, channel=0, data=[15, 0]),
   midi.NoteOnEvent(tick=701600, channel=0, data=[0, 100]),
   midi.NoteOffEvent(tick=701700, channel=0, data=[0, 0]),
   midi.NoteOnEvent(tick=701800, channel=0, data=[17, 100]),
   midi.NoteOffEvent(tick=701900, channel=0, data=[17, 0]),
   midi.NoteOnEvent(tick=702000, channel=0, data=[4, 100]),
   midi.NoteOffEvent(tick=702100, channel=0, data=[4, 0]),
   midi.NoteOnEvent(tick=702200, channel=0, data=[13, 100]),
   midi.NoteOffEvent(tick=702300, channel=0, data=[13, 0]),
   midi.NoteOnEvent(tick=702400, channel=0, data=[19, 100]),
   midi.NoteOffEvent(tick=702500, channel=0, data=[19, 0]),
   midi.NoteOnEvent(tick=702600, channel=0, data=[7, 100]),
   midi.NoteOffEvent(tick=702700, channel=0, data=[7, 0]),
   midi.NoteOnEvent(tick=702800, channel=0, data=[4, 100]),
   midi.NoteOffEvent(tick=702900, channel=0, data=[4, 0]),
   midi.NoteOnEvent(tick=703000, channel=0, data=[18, 100]),
   midi.NoteOffEvent(tick=703100, channel=0, data=[18, 0]),
   midi.NoteOnEvent(tick=703200, channel=0, data=[4, 100]),
   midi.NoteOffEvent(tick=703300, channel=0, data=[4, 0]),
   midi.NoteOnEvent(tick=703400, channel=0, data=[18, 100]),
   midi.NoteOffEvent(tick=703500, channel=0, data=[18, 0]),
   midi.NoteOnEvent(tick=703600, channel=0, data=[36, 100]),
   midi.NoteOffEvent(tick=703700, channel=0, data=[36, 0]),
   midi.NoteOnEvent(tick=703800, channel=0, data=[0, 100]),
   midi.NoteOffEvent(tick=703900, channel=0, data=[0, 0]),
   midi.NoteOnEvent(tick=704000, channel=0, data=[17, 100]),
   midi.NoteOffEvent(tick=704100, channel=0, data=[17, 0]),
   midi.NoteOnEvent(tick=704200, channel=0, data=[4, 100]),
   midi.NoteOffEvent(tick=704300, channel=0, data=[4, 0]),
   midi.NoteOnEvent(tick=704400, channel=0, data=[36, 100]),
   midi.NoteOffEvent(tick=704500, channel=0, data=[36, 0]),
   midi.NoteOnEvent(tick=704600, channel=0, data=[13, 100]),
   midi.NoteOffEvent(tick=704700, channel=0, data=[13, 0]),
   midi.NoteOnEvent(tick=704800, channel=0, data=[14, 100]),
   midi.NoteOffEvent(tick=704900, channel=0, data=[14, 0]),
   midi.NoteOnEvent(tick=705000, channel=0, data=[19, 100]),
   midi.NoteOffEvent(tick=705100, channel=0, data=[19, 0]),
   midi.NoteOnEvent(tick=705200, channel=0, data=[36, 100]),
   midi.NoteOffEvent(tick=705300, channel=0, data=[36, 0]),
   midi.NoteOnEvent(tick=705400, channel=0, data=[17, 100]),
   midi.NoteOffEvent(tick=705500, channel=0, data=[17, 0]),
   midi.NoteOnEvent(tick=705600, channel=0, data=[4, 100]),
   midi.NoteOffEvent(tick=705700, channel=0, data=[4, 0]),
   midi.NoteOnEvent(tick=705800, channel=0, data=[16, 100]),
   midi.NoteOffEvent(tick=705900, channel=0, data=[16, 0]),
   midi.NoteOnEvent(tick=706000, channel=0, data=[20, 100]),
   midi.NoteOffEvent(tick=706100, channel=0, data=[20, 0]),
   midi.NoteOnEvent(tick=706200, channel=0, data=[8, 100]),
   midi.NoteOffEvent(tick=706300, channel=0, data=[8, 0]),
   midi.NoteOnEvent(tick=706400, channel=0, data=[17, 100]),
   midi.NoteOffEvent(tick=706500, channel=0, data=[17, 0]),
   midi.NoteOnEvent(tick=706600, channel=0, data=[4, 100]),
   midi.NoteOffEvent(tick=706700, channel=0, data=[4, 0]),
   midi.NoteOnEvent(tick=706800, channel=0, data=[3, 100]),
   midi.NoteOffEvent(tick=706900, channel=0, data=[3, 0]),
   midi.NoteOnEvent(tick=707000, channel=0, data=[36, 100]),
   midi.NoteOffEvent(tick=707100, channel=0, data=[36, 0]),
   midi.NoteOnEvent(tick=707200, channel=0, data=[19, 100]),
   midi.NoteOffEvent(tick=707300, channel=0, data=[19, 0]),
   midi.NoteOnEvent(tick=707400, channel=0, data=[14, 100]),
   midi.NoteOffEvent(tick=707500, channel=0, data=[14, 0]),
   midi.NoteOnEvent(tick=707600, channel=0, data=[36, 100]),
   midi.NoteOffEvent(tick=707700, channel=0, data=[36, 0]),
   midi.NoteOnEvent(tick=707800, channel=0, data=[0, 100]),
   midi.NoteOffEvent(tick=707900, channel=0, data=[0, 0]),
   midi.NoteOnEvent(tick=708000, channel=0, data=[18, 100]),
   midi.NoteOffEvent(tick=708100, channel=0, data=[18, 0]),
   midi.NoteOnEvent(tick=708200, channel=0, data=[18, 100]),
   midi.NoteOffEvent(tick=708300, channel=0, data=[18, 0]),
   midi.NoteOnEvent(tick=708400, channel=0, data=[8, 100]),
   midi.NoteOffEvent(tick=708500, channel=0, data=[8, 0]),
   midi.NoteOnEvent(tick=708600, channel=0, data=[6, 100]),
   midi.NoteOffEvent(tick=708700, channel=0, data=[6, 0]),
   midi.NoteOnEvent(tick=708800, channel=0, data=[13, 100]),
   midi.NoteOffEvent(tick=708900, channel=0, data=[13, 0]),
   midi.NoteOnEvent(tick=709000, channel=0, data=[36, 100]),
   midi.NoteOffEvent(tick=709100, channel=0, data=[36, 0]),
   midi.NoteOnEvent(tick=709200, channel=0, data=[19, 100]),
   midi.NoteOffEvent(tick=709300, channel=0, data=[19, 0]),
   midi.NoteOnEvent(tick=709400, channel=0, data=[7, 100]),
   midi.NoteOffEvent(tick=709500, channel=0, data=[7, 0]),
   midi.NoteOnEvent(tick=709600, channel=0, data=[4, 100]),
   midi.NoteOffEvent(tick=709700, channel=0, data=[4, 0]),
   midi.NoteOnEvent(tick=709800, channel=0, data=[36, 100]),
   midi.NoteOffEvent(tick=709900, channel=0, data=[36, 0]),
   midi.NoteOnEvent(tick=710000, channel=0, data=[17, 100]),
   midi.NoteOffEvent(tick=710100, channel=0, data=[17, 0]),
   midi.NoteOnEvent(tick=710200, channel=0, data=[4, 100]),
   midi.NoteOffEvent(tick=710300, channel=0, data=[4, 0]),
   midi.NoteOnEvent(tick=710400, channel=0, data=[18, 100]),
   midi.NoteOffEvent(tick=710500, channel=0, data=[18, 0]),
   midi.NoteOnEvent(tick=710600, channel=0, data=[20, 100]),
   midi.NoteOffEvent(tick=710700, channel=0, data=[20, 0]),
   midi.NoteOnEvent(tick=710800, channel=0, data=[11, 100]),
   midi.NoteOffEvent(tick=710900, channel=0, data=[11, 0]),
   midi.NoteOnEvent(tick=711000, channel=0, data=[19, 100]),
   midi.NoteOffEvent(tick=711100, channel=0, data=[19, 0]),
   midi.NoteOnEvent(tick=711200, channel=0, data=[56, 100]),
   midi.NoteOffEvent(tick=711300, channel=0, data=[56, 0]),
   midi.NoteOnEvent(tick=711400, channel=0, data=[36, 100]),
   midi.NoteOffEvent(tick=711500, channel=0, data=[36, 0]),
   midi.NoteOnEvent(tick=711600, channel=0, data=[36, 100]),
   midi.NoteOffEvent(tick=711700, channel=0, data=[36, 0]),
   midi.NoteOnEvent(tick=711800, channel=0, data=[36, 100]),
   midi.NoteOffEvent(tick=711900, channel=0, data=[36, 0]),
   midi.NoteOnEvent(tick=712000, channel=0, data=[36, 100]),
   midi.NoteOffEvent(tick=712100, channel=0, data=[36, 0]),
   midi.NoteOnEvent(tick=712200, channel=0, data=[14, 100]),
   midi.NoteOffEvent(tick=712300, channel=0, data=[14, 0]),
   midi.NoteOnEvent(tick=712400, channel=0, data=[5, 100]),
   midi.NoteOffEvent(tick=712500, channel=0, data=[5, 0]),
   midi.NoteOnEvent(tick=712600, channel=0, data=[36, 100]),
   midi.NoteOffEvent(tick=712700, channel=0, data=[36, 0]),
   midi.NoteOnEvent(tick=712800, channel=0, data=[0, 100]),
   midi.NoteOffEvent(tick=712900, channel=0, data=[0, 0]),
   midi.NoteOnEvent(tick=713000, channel=0, data=[36, 100]),
   midi.NoteOffEvent(tick=713100, channel=0, data=[36, 0]),
   midi.NoteOnEvent(tick=713200, channel=0, data=[2, 100]),
   midi.NoteOffEvent(tick=713300, channel=0, data=[2, 0]),
   midi.NoteOnEvent(tick=713400, channel=0, data=[14, 100]),
   midi.NoteOffEvent(tick=713500, channel=0, data=[14, 0]),
   midi.NoteOnEvent(tick=713600, channel=0, data=[12, 100]),
   midi.NoteOffEvent(tick=713700, channel=0, data=[12, 0]),
   midi.NoteOnEvent(tick=713800, channel=0, data=[12, 100]),
   midi.NoteOffEvent(tick=713900, channel=0, data=[12, 0]),
   midi.NoteOnEvent(tick=714000, channel=0, data=[0, 100]),
   midi.NoteOffEvent(tick=714100, channel=0, data=[0, 0]),
   midi.NoteOnEvent(tick=714200, channel=0, data=[13, 100]),
   midi.NoteOffEvent(tick=714300, channel=0, data=[13, 0]),
   midi.NoteOnEvent(tick=714400, channel=0, data=[3, 100]),
   midi.NoteOffEvent(tick=714500, channel=0, data=[3, 0]),
   midi.NoteOnEvent(tick=714600, channel=0, data=[36, 100]),
   midi.NoteOffEvent(tick=714700, channel=0, data=[36, 0]),
   midi.NoteOnEvent(tick=714800, channel=0, data=[15, 100]),
   midi.NoteOffEvent(tick=714900, channel=0, data=[15, 0]),
   midi.NoteOnEvent(tick=715000, channel=0, data=[8, 100]),
   midi.NoteOffEvent(tick=715100, channel=0, data=[8, 0]),
   midi.NoteOnEvent(tick=715200, channel=0, data=[15, 100]),
   midi.NoteOffEvent(tick=715300, channel=0, data=[15, 0]),
   midi.NoteOnEvent(tick=715400, channel=0, data=[4, 100]),
   midi.NoteOffEvent(tick=715500, channel=0, data=[4, 0]),
   midi.NoteOnEvent(tick=715600, channel=0, data=[11, 100]),
   midi.NoteOffEvent(tick=715700, channel=0, data=[11, 0]),
   midi.NoteOnEvent(tick=715800, channel=0, data=[8, 100]),
   midi.NoteOffEvent(tick=715900, channel=0, data=[8, 0]),
   midi.NoteOnEvent(tick=716000, channel=0, data=[13, 100]),
   midi.NoteOffEvent(tick=716100, channel=0, data=[13, 0]),
   midi.NoteOnEvent(tick=716200, channel=0, data=[4, 100]),
   midi.NoteOffEvent(tick=716300, channel=0, data=[4, 0]),
   midi.NoteOnEvent(tick=716400, channel=0, data=[36, 100]),
   midi.NoteOffEvent(tick=716500, channel=0, data=[36, 0]),
   midi.NoteOnEvent(tick=716600, channel=0, data=[19, 100]),
   midi.NoteOffEvent(tick=716700, channel=0, data=[19, 0]),
   midi.NoteOnEvent(tick=716800, channel=0, data=[14, 100]),
   midi.NoteOffEvent(tick=716900, channel=0, data=[14, 0]),
   midi.NoteOnEvent(tick=717000, channel=0, data=[36, 100]),
   midi.NoteOffEvent(tick=717100, channel=0, data=[36, 0]),
   midi.NoteOnEvent(tick=717200, channel=0, data=[0, 100]),
   midi.NoteOffEvent(tick=717300, channel=0, data=[0, 0]),
   midi.NoteOnEvent(tick=717400, channel=0, data=[36, 100]),
   midi.NoteOffEvent(tick=717500, channel=0, data=[36, 0]),
   midi.NoteOnEvent(tick=717600, channel=0, data=[21, 100]),
   midi.NoteOffEvent(tick=717700, channel=0, data=[21, 0]),
   midi.NoteOnEvent(tick=717800, channel=0, data=[0, 100]),
   midi.NoteOffEvent(tick=717900, channel=0, data=[0, 0]),
   midi.NoteOnEvent(tick=718000, channel=0, data=[17, 100]),
   midi.NoteOffEvent(tick=718100, channel=0, data=[17, 0]),
   midi.NoteOnEvent(tick=718200, channel=0, data=[8, 100]),
   midi.NoteOffEvent(tick=718300, channel=0, data=[8, 0]),
   midi.NoteOnEvent(tick=718400, channel=0, data=[0, 100]),
   midi.NoteOffEvent(tick=718500, channel=0, data=[0, 0]),
   midi.NoteOnEvent(tick=718600, channel=0, data=[1, 100]),
   midi.NoteOffEvent(tick=718700, channel=0, data=[1, 0]),
   midi.NoteOnEvent(tick=718800, channel=0, data=[11, 100]),
   midi.NoteOffEvent(tick=718900, channel=0, data=[11, 0]),
   midi.NoteOnEvent(tick=719000, channel=0, data=[4, 100]),
   midi.NoteOffEvent(tick=719100, channel=0, data=[4, 0]),
   midi.NoteOnEvent(tick=719200, channel=0, data=[37, 100]),
   midi.NoteOffEvent(tick=719300, channel=0, data=[37, 0]),
   midi.NoteOnEvent(tick=719400, channel=0, data=[36, 100]),
   midi.NoteOffEvent(tick=719500, channel=0, data=[36, 0]),
   midi.NoteOnEvent(tick=719600, channel=0, data=[5, 100]),
   midi.NoteOffEvent(tick=719700, channel=0, data=[5, 0]),
   midi.NoteOnEvent(tick=719800, channel=0, data=[14, 100]),
   midi.NoteOffEvent(tick=719900, channel=0, data=[14, 0]),
   midi.NoteOnEvent(tick=720000, channel=0, data=[17, 100]),
   midi.NoteOffEvent(tick=720100, channel=0, data=[17, 0]),
   midi.NoteOnEvent(tick=720200, channel=0, data=[36, 100]),
   midi.NoteOffEvent(tick=720300, channel=0, data=[36, 0]),
   midi.NoteOnEvent(tick=720400, channel=0, data=[4, 100]),
   midi.NoteOffEvent(tick=720500, channel=0, data=[4, 0]),
   midi.NoteOnEvent(tick=720600, channel=0, data=[23, 100]),
   midi.NoteOffEvent(tick=720700, channel=0, data=[23, 0]),
   midi.NoteOnEvent(tick=720800, channel=0, data=[0, 100]),
   midi.NoteOffEvent(tick=720900, channel=0, data=[0, 0]),
   midi.NoteOnEvent(tick=721000, channel=0, data=[12, 100]),
   midi.NoteOffEvent(tick=721100, channel=0, data=[12, 0]),
   midi.NoteOnEvent(tick=721200, channel=0, data=[15, 100]),
   midi.NoteOffEvent(tick=721300, channel=0, data=[15, 0]),
   midi.NoteOnEvent(tick=721400, channel=0, data=[11, 100]),
   midi.NoteOffEvent(tick=721500, channel=0, data=[11, 0]),
   midi.NoteOnEvent(tick=721600, channel=0, data=[4, 100]),
   midi.NoteOffEvent(tick=721700, channel=0, data=[4, 0]),
   midi.NoteOnEvent(tick=721800, channel=0, data=[38, 100]),
   midi.NoteOffEvent(tick=721900, channel=0, data=[38, 0]),
   midi.NoteOnEvent(tick=722000, channel=0, data=[36, 100]),
   midi.NoteOffEvent(tick=722100, channel=0, data=[36, 0]),
   midi.NoteOnEvent(tick=722200, channel=0, data=[19, 100]),
   midi.NoteOffEvent(tick=722300, channel=0, data=[19, 0]),
   midi.NoteOnEvent(tick=722400, channel=0, data=[7, 100]),
   midi.NoteOffEvent(tick=722500, channel=0, data=[7, 0]),
   midi.NoteOnEvent(tick=722600, channel=0, data=[4, 100]),
   midi.NoteOffEvent(tick=722700, channel=0, data=[4, 0]),
   midi.NoteOnEvent(tick=722800, channel=0, data=[36, 100]),
   midi.NoteOffEvent(tick=722900, channel=0, data=[36, 0]),
   midi.NoteOnEvent(tick=723000, channel=0, data=[5, 100]),
   midi.NoteOffEvent(tick=723100, channel=0, data=[5, 0]),
   midi.NoteOnEvent(tick=723200, channel=0, data=[14, 100]),
   midi.NoteOffEvent(tick=723300, channel=0, data=[14, 0]),
   midi.NoteOnEvent(tick=723400, channel=0, data=[11, 100]),
   midi.NoteOffEvent(tick=723500, channel=0, data=[11, 0]),
   midi.NoteOnEvent(tick=723600, channel=0, data=[11, 100]),
   midi.NoteOffEvent(tick=723700, channel=0, data=[11, 0]),
   midi.NoteOnEvent(tick=723800, channel=0, data=[14, 100]),
   midi.NoteOffEvent(tick=723900, channel=0, data=[14, 0]),
   midi.NoteOnEvent(tick=724000, channel=0, data=[22, 100]),
   midi.NoteOffEvent(tick=724100, channel=0, data=[22, 0]),
   midi.NoteOnEvent(tick=724200, channel=0, data=[8, 100]),
   midi.NoteOffEvent(tick=724300, channel=0, data=[8, 0]),
   midi.NoteOnEvent(tick=724400, channel=0, data=[13, 100]),
   midi.NoteOffEvent(tick=724500, channel=0, data=[13, 0]),
   midi.NoteOnEvent(tick=724600, channel=0, data=[6, 100]),
   midi.NoteOffEvent(tick=724700, channel=0, data=[6, 0]),
   midi.NoteOnEvent(tick=724800, channel=0, data=[36, 100]),
   midi.NoteOffEvent(tick=724900, channel=0, data=[36, 0]),
   midi.NoteOnEvent(tick=725000, channel=0, data=[2, 100]),
   midi.NoteOffEvent(tick=725100, channel=0, data=[2, 0]),
   midi.NoteOnEvent(tick=725200, channel=0, data=[14, 100]),
   midi.NoteOffEvent(tick=725300, channel=0, data=[14, 0]),
   midi.NoteOnEvent(tick=725400, channel=0, data=[12, 100]),
   midi.NoteOffEvent(tick=725500, channel=0, data=[12, 0]),
   midi.NoteOnEvent(tick=725600, channel=0, data=[12, 100]),
   midi.NoteOffEvent(tick=725700, channel=0, data=[12, 0]),
   midi.NoteOnEvent(tick=725800, channel=0, data=[0, 100]),
   midi.NoteOffEvent(tick=725900, channel=0, data=[0, 0]),
   midi.NoteOnEvent(tick=726000, channel=0, data=[13, 100]),
   midi.NoteOffEvent(tick=726100, channel=0, data=[13, 0]),
   midi.NoteOnEvent(tick=726200, channel=0, data=[3, 100]),
   midi.NoteOffEvent(tick=726300, channel=0, data=[3, 0]),
   midi.NoteOnEvent(tick=726400, channel=0, data=[36, 100]),
   midi.NoteOffEvent(tick=726500, channel=0, data=[36, 0]),
   midi.NoteOnEvent(tick=726600, channel=0, data=[56, 100]),
   midi.NoteOffEvent(tick=726700, channel=0, data=[56, 0]),
   midi.NoteOnEvent(tick=726800, channel=0, data=[36, 100]),
   midi.NoteOffEvent(tick=726900, channel=0, data=[36, 0]),
   midi.NoteOnEvent(tick=727000, channel=0, data=[36, 100]),
   midi.NoteOffEvent(tick=727100, channel=0, data=[36, 0]),
   midi.NoteOnEvent(tick=727200, channel=0, data=[36, 100]),
   midi.NoteOffEvent(tick=727300, channel=0, data=[36, 0]),
   midi.NoteOnEvent(tick=727400, channel=0, data=[36, 100]),
   midi.NoteOffEvent(tick=727500, channel=0, data=[36, 0]),
   midi.NoteOnEvent(tick=727600, channel=0, data=[18, 100]),
   midi.NoteOffEvent(tick=727700, channel=0, data=[18, 0]),
   midi.NoteOnEvent(tick=727800, channel=0, data=[14, 100]),
   midi.NoteOffEvent(tick=727900, channel=0, data=[14, 0]),
   midi.NoteOnEvent(tick=728000, channel=0, data=[17, 100]),
   midi.NoteOffEvent(tick=728100, channel=0, data=[17, 0]),
   midi.NoteOnEvent(tick=728200, channel=0, data=[19, 100]),
   midi.NoteOffEvent(tick=728300, channel=0, data=[19, 0]),
   midi.NoteOnEvent(tick=728400, channel=0, data=[18, 100]),
   midi.NoteOffEvent(tick=728500, channel=0, data=[18, 0]),
   midi.NoteOnEvent(tick=728600, channel=0, data=[36, 100]),
   midi.NoteOffEvent(tick=728700, channel=0, data=[36, 0]),
   midi.NoteOnEvent(tick=728800, channel=0, data=[19, 100]),
   midi.NoteOffEvent(tick=728900, channel=0, data=[19, 0]),
   midi.NoteOnEvent(tick=729000, channel=0, data=[7, 100]),
   midi.NoteOffEvent(tick=729100, channel=0, data=[7, 0]),
   midi.NoteOnEvent(tick=729200, channel=0, data=[4, 100]),
   midi.NoteOffEvent(tick=729300, channel=0, data=[4, 0]),
   midi.NoteOnEvent(tick=729400, channel=0, data=[36, 100]),
   midi.NoteOffEvent(tick=729500, channel=0, data=[36, 0]),
   midi.NoteOnEvent(tick=729600, channel=0, data=[18, 100]),
   midi.NoteOffEvent(tick=729700, channel=0, data=[18, 0]),
   midi.NoteOnEvent(tick=729800, channel=0, data=[4, 100]),
   midi.NoteOffEvent(tick=729900, channel=0, data=[4, 0]),
   midi.NoteOnEvent(tick=730000, channel=0, data=[17, 100]),
   midi.NoteOffEvent(tick=730100, channel=0, data=[17, 0]),
   midi.NoteOnEvent(tick=730200, channel=0, data=[21, 100]),
   midi.NoteOffEvent(tick=730300, channel=0, data=[21, 0]),
   midi.NoteOnEvent(tick=730400, channel=0, data=[8, 100]),
   midi.NoteOffEvent(tick=730500, channel=0, data=[8, 0]),
   midi.NoteOnEvent(tick=730600, channel=0, data=[2, 100]),
   midi.NoteOffEvent(tick=730700, channel=0, data=[2, 0]),
   midi.NoteOnEvent(tick=730800, channel=0, data=[4, 100]),
   midi.NoteOffEvent(tick=730900, channel=0, data=[4, 0]),
   midi.NoteOnEvent(tick=731000, channel=0, data=[18, 100]),
   midi.NoteOffEvent(tick=731100, channel=0, data=[18, 0]),
   midi.NoteOnEvent(tick=731200, channel=0, data=[36, 100]),
   midi.NoteOffEvent(tick=731300, channel=0, data=[36, 0]),
   midi.NoteOnEvent(tick=731400, channel=0, data=[14, 100]),
   midi.NoteOffEvent(tick=731500, channel=0, data=[14, 0]),
   midi.NoteOnEvent(tick=731600, channel=0, data=[13, 100]),
   midi.NoteOffEvent(tick=731700, channel=0, data=[13, 0]),
   midi.NoteOnEvent(tick=731800, channel=0, data=[36, 100]),
   midi.NoteOffEvent(tick=731900, channel=0, data=[36, 0]),
   midi.NoteOnEvent(tick=732000, channel=0, data=[19, 100]),
   midi.NoteOffEvent(tick=732100, channel=0, data=[19, 0]),
   midi.NoteOnEvent(tick=732200, channel=0, data=[7, 100]),
   midi.NoteOffEvent(tick=732300, channel=0, data=[7, 0]),
   midi.NoteOnEvent(tick=732400, channel=0, data=[4, 100]),
   midi.NoteOffEvent(tick=732500, channel=0, data=[4, 0]),
   midi.NoteOnEvent(tick=732600, channel=0, data=[36, 100]),
   midi.NoteOffEvent(tick=732700, channel=0, data=[36, 0]),
   midi.NoteOnEvent(tick=732800, channel=0, data=[2, 100]),
   midi.NoteOffEvent(tick=732900, channel=0, data=[2, 0]),
   midi.NoteOnEvent(tick=733000, channel=0, data=[14, 100]),
   midi.NoteOffEvent(tick=733100, channel=0, data=[14, 0]),
   midi.NoteOnEvent(tick=733200, channel=0, data=[12, 100]),
   midi.NoteOffEvent(tick=733300, channel=0, data=[12, 0]),
   midi.NoteOnEvent(tick=733400, channel=0, data=[15, 100]),
   midi.NoteOffEvent(tick=733500, channel=0, data=[15, 0]),
   midi.NoteOnEvent(tick=733600, channel=0, data=[20, 100]),
   midi.NoteOffEvent(tick=733700, channel=0, data=[20, 0]),
   midi.NoteOnEvent(tick=733800, channel=0, data=[19, 100]),
   midi.NoteOffEvent(tick=733900, channel=0, data=[19, 0]),
   midi.NoteOnEvent(tick=734000, channel=0, data=[4, 100]),
   midi.NoteOffEvent(tick=734100, channel=0, data=[4, 0]),
   midi.NoteOnEvent(tick=734200, channel=0, data=[17, 100]),
   midi.NoteOffEvent(tick=734300, channel=0, data=[17, 0]),
   midi.NoteOnEvent(tick=734400, channel=0, data=[36, 100]),
   midi.NoteOffEvent(tick=734500, channel=0, data=[36, 0]),
   midi.NoteOnEvent(tick=734600, channel=0, data=[0, 100]),
   midi.NoteOffEvent(tick=734700, channel=0, data=[0, 0]),
   midi.NoteOnEvent(tick=734800, channel=0, data=[13, 100]),
   midi.NoteOffEvent(tick=734900, channel=0, data=[13, 0]),
   midi.NoteOnEvent(tick=735000, channel=0, data=[3, 100]),
   midi.NoteOffEvent(tick=735100, channel=0, data=[3, 0]),
   midi.NoteOnEvent(tick=735200, channel=0, data=[36, 100]),
   midi.NoteOffEvent(tick=735300, channel=0, data=[36, 0]),
   midi.NoteOnEvent(tick=735400, channel=0, data=[19, 100]),
   midi.NoteOffEvent(tick=735500, channel=0, data=[19, 0]),
   midi.NoteOnEvent(tick=735600, channel=0, data=[7, 100]),
   midi.NoteOffEvent(tick=735700, channel=0, data=[7, 0]),
   midi.NoteOnEvent(tick=735800, channel=0, data=[4, 100]),
   midi.NoteOffEvent(tick=735900, channel=0, data=[4, 0]),
   midi.NoteOnEvent(tick=736000, channel=0, data=[13, 100]),
   midi.NoteOffEvent(tick=736100, channel=0, data=[13, 0]),
   midi.NoteOnEvent(tick=736200, channel=0, data=[36, 100]),
   midi.NoteOffEvent(tick=736300, channel=0, data=[36, 0]),
   midi.NoteOnEvent(tick=736400, channel=0, data=[0, 100]),
   midi.NoteOffEvent(tick=736500, channel=0, data=[0, 0]),
   midi.NoteOnEvent(tick=736600, channel=0, data=[18, 100]),
   midi.NoteOffEvent(tick=736700, channel=0, data=[18, 0]),
   midi.NoteOnEvent(tick=736800, channel=0, data=[18, 100]),
   midi.NoteOffEvent(tick=736900, channel=0, data=[18, 0]),
   midi.NoteOnEvent(tick=737000, channel=0, data=[8, 100]),
   midi.NoteOffEvent(tick=737100, channel=0, data=[8, 0]),
   midi.NoteOnEvent(tick=737200, channel=0, data=[6, 100]),
   midi.NoteOffEvent(tick=737300, channel=0, data=[6, 0]),
   midi.NoteOnEvent(tick=737400, channel=0, data=[13, 100]),
   midi.NoteOffEvent(tick=737500, channel=0, data=[13, 0]),
   midi.NoteOnEvent(tick=737600, channel=0, data=[18, 100]),
   midi.NoteOffEvent(tick=737700, channel=0, data=[18, 0]),
   midi.NoteOnEvent(tick=737800, channel=0, data=[36, 100]),
   midi.NoteOffEvent(tick=737900, channel=0, data=[36, 0]),
   midi.NoteOnEvent(tick=738000, channel=0, data=[19, 100]),
   midi.NoteOffEvent(tick=738100, channel=0, data=[19, 0]),
   midi.NoteOnEvent(tick=738200, channel=0, data=[7, 100]),
   midi.NoteOffEvent(tick=738300, channel=0, data=[7, 0]),
   midi.NoteOnEvent(tick=738400, channel=0, data=[4, 100]),
   midi.NoteOffEvent(tick=738500, channel=0, data=[4, 0]),
   midi.NoteOnEvent(tick=738600, channel=0, data=[36, 100]),
   midi.NoteOffEvent(tick=738700, channel=0, data=[36, 0]),
   midi.NoteOnEvent(tick=738800, channel=0, data=[18, 100]),
   midi.NoteOffEvent(tick=738900, channel=0, data=[18, 0]),
   midi.NoteOnEvent(tick=739000, channel=0, data=[14, 100]),
   midi.NoteOffEvent(tick=739100, channel=0, data=[14, 0]),
   midi.NoteOnEvent(tick=739200, channel=0, data=[17, 100]),
   midi.NoteOffEvent(tick=739300, channel=0, data=[17, 0]),
   midi.NoteOnEvent(tick=739400, channel=0, data=[19, 100]),
   midi.NoteOffEvent(tick=739500, channel=0, data=[19, 0]),
   midi.NoteOnEvent(tick=739600, channel=0, data=[4, 100]),
   midi.NoteOffEvent(tick=739700, channel=0, data=[4, 0]),
   midi.NoteOnEvent(tick=739800, channel=0, data=[3, 100]),
   midi.NoteOffEvent(tick=739900, channel=0, data=[3, 0]),
   midi.NoteOnEvent(tick=740000, channel=0, data=[36, 100]),
   midi.NoteOffEvent(tick=740100, channel=0, data=[36, 0]),
   midi.NoteOnEvent(tick=740200, channel=0, data=[18, 100]),
   midi.NoteOffEvent(tick=740300, channel=0, data=[18, 0]),
   midi.NoteOnEvent(tick=740400, channel=0, data=[4, 100]),
   midi.NoteOffEvent(tick=740500, channel=0, data=[4, 0]),
   midi.NoteOnEvent(tick=740600, channel=0, data=[17, 100]),
   midi.NoteOffEvent(tick=740700, channel=0, data=[17, 0]),
   midi.NoteOnEvent(tick=740800, channel=0, data=[21, 100]),
   midi.NoteOffEvent(tick=740900, channel=0, data=[21, 0]),
   midi.NoteOnEvent(tick=741000, channel=0, data=[8, 100]),
   midi.NoteOffEvent(tick=741100, channel=0, data=[8, 0]),
   midi.NoteOnEvent(tick=741200, channel=0, data=[2, 100]),
   midi.NoteOffEvent(tick=741300, channel=0, data=[2, 0]),
   midi.NoteOnEvent(tick=741400, channel=0, data=[4, 100]),
   midi.NoteOffEvent(tick=741500, channel=0, data=[4, 0]),
   midi.NoteOnEvent(tick=741600, channel=0, data=[18, 100]),
   midi.NoteOffEvent(tick=741700, channel=0, data=[18, 0]),
   midi.NoteOnEvent(tick=741800, channel=0, data=[56, 100]),
   midi.NoteOffEvent(tick=741900, channel=0, data=[56, 0]),
   midi.NoteOnEvent(tick=742000, channel=0, data=[36, 100]),
   midi.NoteOffEvent(tick=742100, channel=0, data=[36, 0]),
   midi.NoteOnEvent(tick=742200, channel=0, data=[36, 100]),
   midi.NoteOffEvent(tick=742300, channel=0, data=[36, 0]),
   midi.NoteOnEvent(tick=742400, channel=0, data=[36, 100]),
   midi.NoteOffEvent(tick=742500, channel=0, data=[36, 0]),
   midi.NoteOnEvent(tick=742600, channel=0, data=[36, 100]),
   midi.NoteOffEvent(tick=742700, channel=0, data=[36, 0]),
   midi.NoteOnEvent(tick=742800, channel=0, data=[19, 100]),
   midi.NoteOffEvent(tick=742900, channel=0, data=[19, 0]),
   midi.NoteOnEvent(tick=743000, channel=0, data=[14, 100]),
   midi.NoteOffEvent(tick=743100, channel=0, data=[14, 0]),
   midi.NoteOnEvent(tick=743200, channel=0, data=[36, 100]),
   midi.NoteOffEvent(tick=743300, channel=0, data=[36, 0]),
   midi.NoteOnEvent(tick=743400, channel=0, data=[19, 100]),
   midi.NoteOffEvent(tick=743500, channel=0, data=[19, 0]),
   midi.NoteOnEvent(tick=743600, channel=0, data=[7, 100]),
   midi.NoteOffEvent(tick=743700, channel=0, data=[7, 0]),
   midi.NoteOnEvent(tick=743800, channel=0, data=[4, 100]),
   midi.NoteOffEvent(tick=743900, channel=0, data=[4, 0]),
   midi.NoteOnEvent(tick=744000, channel=0, data=[36, 100]),
   midi.NoteOffEvent(tick=744100, channel=0, data=[36, 0]),
   midi.NoteOnEvent(tick=744200, channel=0, data=[74, 100]),
   midi.NoteOffEvent(tick=744300, channel=0, data=[74, 0]),
   midi.NoteOnEvent(tick=744400, channel=0, data=[0, 100]),
   midi.NoteOffEvent(tick=744500, channel=0, data=[0, 0]),
   midi.NoteOnEvent(tick=744600, channel=0, data=[36, 100]),
   midi.NoteOffEvent(tick=744700, channel=0, data=[36, 0]),
   midi.NoteOnEvent(tick=744800, channel=0, data=[21, 100]),
   midi.NoteOffEvent(tick=744900, channel=0, data=[21, 0]),
   midi.NoteOnEvent(tick=745000, channel=0, data=[0, 100]),
   midi.NoteOffEvent(tick=745100, channel=0, data=[0, 0]),
   midi.NoteOnEvent(tick=745200, channel=0, data=[17, 100]),
   midi.NoteOffEvent(tick=745300, channel=0, data=[17, 0]),
   midi.NoteOnEvent(tick=745400, channel=0, data=[8, 100]),
   midi.NoteOffEvent(tick=745500, channel=0, data=[8, 0]),
   midi.NoteOnEvent(tick=745600, channel=0, data=[0, 100]),
   midi.NoteOffEvent(tick=745700, channel=0, data=[0, 0]),
   midi.NoteOnEvent(tick=745800, channel=0, data=[1, 100]),
   midi.NoteOffEvent(tick=745900, channel=0, data=[1, 0]),
   midi.NoteOnEvent(tick=746000, channel=0, data=[11, 100]),
   midi.NoteOffEvent(tick=746100, channel=0, data=[11, 0]),
   midi.NoteOnEvent(tick=746200, channel=0, data=[4, 100]),
   midi.NoteOffEvent(tick=746300, channel=0, data=[4, 0]),
   midi.NoteOnEvent(tick=746400, channel=0, data=[46, 100]),
   midi.NoteOffEvent(tick=746500, channel=0, data=[46, 0]),
   midi.NoteOnEvent(tick=746600, channel=0, data=[56, 100]),
   midi.NoteOffEvent(tick=746700, channel=0, data=[56, 0]),
   midi.NoteOnEvent(tick=746800, channel=0, data=[56, 100]),
   midi.NoteOffEvent(tick=746900, channel=0, data=[56, 0]),
   midi.NoteOnEvent(tick=747000, channel=0, data=[56, 100]),
   midi.NoteOffEvent(tick=747100, channel=0, data=[56, 0]),
   midi.NoteOnEvent(tick=747200, channel=0, data=[36, 100]),
   midi.NoteOffEvent(tick=747300, channel=0, data=[36, 0]),
   midi.NoteOnEvent(tick=747400, channel=0, data=[36, 100]),
   midi.NoteOffEvent(tick=747500, channel=0, data=[36, 0]),
   midi.NoteOnEvent(tick=747600, channel=0, data=[36, 100]),
   midi.NoteOffEvent(tick=747700, channel=0, data=[36, 0]),
   midi.NoteOnEvent(tick=747800, channel=0, data=[36, 100]),
   midi.NoteOffEvent(tick=747900, channel=0, data=[36, 0]),
   midi.NoteOnEvent(tick=748000, channel=0, data=[36, 100]),
   midi.NoteOffEvent(tick=748100, channel=0, data=[36, 0]),
   midi.NoteOnEvent(tick=748200, channel=0, data=[36, 100]),
   midi.NoteOffEvent(tick=748300, channel=0, data=[36, 0]),
   midi.NoteOnEvent(tick=748400, channel=0, data=[36, 100]),
   midi.NoteOffEvent(tick=748500, channel=0, data=[36, 0]),
   midi.NoteOnEvent(tick=748600, channel=0, data=[36, 100]),
   midi.NoteOffEvent(tick=748700, channel=0, data=[36, 0]),
   midi.NoteOnEvent(tick=748800, channel=0, data=[74, 100]),
   midi.NoteOffEvent(tick=748900, channel=0, data=[74, 0]),
   midi.NoteOnEvent(tick=749000, channel=0, data=[0, 100]),
   midi.NoteOffEvent(tick=749100, channel=0, data=[0, 0]),
   midi.NoteOnEvent(tick=749200, channel=0, data=[36, 100]),
   midi.NoteOffEvent(tick=749300, channel=0, data=[36, 0]),
   midi.NoteOnEvent(tick=749400, channel=0, data=[69, 100]),
   midi.NoteOffEvent(tick=749500, channel=0, data=[69, 0]),
   midi.NoteOnEvent(tick=749600, channel=0, data=[36, 100]),
   midi.NoteOffEvent(tick=749700, channel=0, data=[36, 0]),
   midi.NoteOnEvent(tick=749800, channel=0, data=[6, 100]),
   midi.NoteOffEvent(tick=749900, channel=0, data=[6, 0]),
   midi.NoteOnEvent(tick=750000, channel=0, data=[4, 100]),
   midi.NoteOffEvent(tick=750100, channel=0, data=[4, 0]),
   midi.NoteOnEvent(tick=750200, channel=0, data=[19, 100]),
   midi.NoteOffEvent(tick=750300, channel=0, data=[19, 0]),
   midi.NoteOnEvent(tick=750400, channel=0, data=[45, 100]),
   midi.NoteOffEvent(tick=750500, channel=0, data=[45, 0]),
   midi.NoteOnEvent(tick=750600, channel=0, data=[18, 100]),
   midi.NoteOffEvent(tick=750700, channel=0, data=[18, 0]),
   midi.NoteOnEvent(tick=750800, channel=0, data=[4, 100]),
   midi.NoteOffEvent(tick=750900, channel=0, data=[4, 0]),
   midi.NoteOnEvent(tick=751000, channel=0, data=[17, 100]),
   midi.NoteOffEvent(tick=751100, channel=0, data=[17, 0]),
   midi.NoteOnEvent(tick=751200, channel=0, data=[21, 100]),
   midi.NoteOffEvent(tick=751300, channel=0, data=[21, 0]),
   midi.NoteOnEvent(tick=751400, channel=0, data=[8, 100]),
   midi.NoteOffEvent(tick=751500, channel=0, data=[8, 0]),
   midi.NoteOnEvent(tick=751600, channel=0, data=[2, 100]),
   midi.NoteOffEvent(tick=751700, channel=0, data=[2, 0]),
   midi.NoteOnEvent(tick=751800, channel=0, data=[4, 100]),
   midi.NoteOffEvent(tick=751900, channel=0, data=[4, 0]),
   midi.NoteOnEvent(tick=752000, channel=0, data=[36, 100]),
   midi.NoteOffEvent(tick=752100, channel=0, data=[36, 0]),
   midi.NoteOnEvent(tick=752200, channel=0, data=[76, 100]),
   midi.NoteOffEvent(tick=752300, channel=0, data=[76, 0]),
   midi.NoteOnEvent(tick=752400, channel=0, data=[36, 100]),
   midi.NoteOffEvent(tick=752500, channel=0, data=[36, 0]),
   midi.NoteOnEvent(tick=752600, channel=0, data=[18, 100]),
   midi.NoteOffEvent(tick=752700, channel=0, data=[18, 0]),
   midi.NoteOnEvent(tick=752800, channel=0, data=[14, 100]),
   midi.NoteOffEvent(tick=752900, channel=0, data=[14, 0]),
   midi.NoteOnEvent(tick=753000, channel=0, data=[17, 100]),
   midi.NoteOffEvent(tick=753100, channel=0, data=[17, 0]),
   midi.NoteOnEvent(tick=753200, channel=0, data=[19, 100]),
   midi.NoteOffEvent(tick=753300, channel=0, data=[19, 0]),
   midi.NoteOnEvent(tick=753400, channel=0, data=[36, 100]),
   midi.NoteOffEvent(tick=753500, channel=0, data=[36, 0]),
   midi.NoteOnEvent(tick=753600, channel=0, data=[13, 100]),
   midi.NoteOffEvent(tick=753700, channel=0, data=[13, 0]),
   midi.NoteOnEvent(tick=753800, channel=0, data=[0, 100]),
   midi.NoteOffEvent(tick=753900, channel=0, data=[0, 0]),
   midi.NoteOnEvent(tick=754000, channel=0, data=[12, 100]),
   midi.NoteOffEvent(tick=754100, channel=0, data=[12, 0]),
   midi.NoteOnEvent(tick=754200, channel=0, data=[4, 100]),
   midi.NoteOffEvent(tick=754300, channel=0, data=[4, 0]),
   midi.NoteOnEvent(tick=754400, channel=0, data=[56, 100]),
   midi.NoteOffEvent(tick=754500, channel=0, data=[56, 0]),
   midi.NoteOnEvent(tick=754600, channel=0, data=[56, 100]),
   midi.NoteOffEvent(tick=754700, channel=0, data=[56, 0]),
   midi.NoteOnEvent(tick=754800, channel=0, data=[56, 100]),
   midi.NoteOffEvent(tick=754900, channel=0, data=[56, 0]),
   midi.NoteOnEvent(tick=755000, channel=0, data=[36, 100]),
   midi.NoteOffEvent(tick=755100, channel=0, data=[36, 0]),
   midi.NoteOnEvent(tick=755200, channel=0, data=[36, 100]),
   midi.NoteOffEvent(tick=755300, channel=0, data=[36, 0]),
   midi.NoteOnEvent(tick=755400, channel=0, data=[36, 100]),
   midi.NoteOffEvent(tick=755500, channel=0, data=[36, 0]),
   midi.NoteOnEvent(tick=755600, channel=0, data=[36, 100]),
   midi.NoteOffEvent(tick=755700, channel=0, data=[36, 0]),
   midi.NoteOnEvent(tick=755800, channel=0, data=[24, 100]),
   midi.NoteOffEvent(tick=755900, channel=0, data=[24, 0]),
   midi.NoteOnEvent(tick=756000, channel=0, data=[14, 100]),
   midi.NoteOffEvent(tick=756100, channel=0, data=[14, 0]),
   midi.NoteOnEvent(tick=756200, channel=0, data=[20, 100]),
   midi.NoteOffEvent(tick=756300, channel=0, data=[20, 0]),
   midi.NoteOnEvent(tick=756400, channel=0, data=[36, 100]),
   midi.NoteOffEvent(tick=756500, channel=0, data=[36, 0]),
   midi.NoteOnEvent(tick=756600, channel=0, data=[2, 100]),
   midi.NoteOffEvent(tick=756700, channel=0, data=[2, 0]),
   midi.NoteOnEvent(tick=756800, channel=0, data=[0, 100]),
   midi.NoteOffEvent(tick=756900, channel=0, data=[0, 0]),
   midi.NoteOnEvent(tick=757000, channel=0, data=[13, 100]),
   midi.NoteOffEvent(tick=757100, channel=0, data=[13, 0]),
   midi.NoteOnEvent(tick=757200, channel=0, data=[36, 100]),
   midi.NoteOffEvent(tick=757300, channel=0, data=[36, 0]),
   midi.NoteOnEvent(tick=757400, channel=0, data=[0, 100]),
   midi.NoteOffEvent(tick=757500, channel=0, data=[0, 0]),
   midi.NoteOnEvent(tick=757600, channel=0, data=[11, 100]),
   midi.NoteOffEvent(tick=757700, channel=0, data=[11, 0]),
   midi.NoteOnEvent(tick=757800, channel=0, data=[18, 100]),
   midi.NoteOffEvent(tick=757900, channel=0, data=[18, 0]),
   midi.NoteOnEvent(tick=758000, channel=0, data=[14, 100]),
   midi.NoteOffEvent(tick=758100, channel=0, data=[14, 0]),
   midi.NoteOnEvent(tick=758200, channel=0, data=[36, 100]),
   midi.NoteOffEvent(tick=758300, channel=0, data=[36, 0]),
   midi.NoteOnEvent(tick=758400, channel=0, data=[0, 100]),
   midi.NoteOffEvent(tick=758500, channel=0, data=[0, 0]),
   midi.NoteOnEvent(tick=758600, channel=0, data=[18, 100]),
   midi.NoteOffEvent(tick=758700, channel=0, data=[18, 0]),
   midi.NoteOnEvent(tick=758800, channel=0, data=[18, 100]),
   midi.NoteOffEvent(tick=758900, channel=0, data=[18, 0]),
   midi.NoteOnEvent(tick=759000, channel=0, data=[8, 100]),
   midi.NoteOffEvent(tick=759100, channel=0, data=[8, 0]),
   midi.NoteOnEvent(tick=759200, channel=0, data=[6, 100]),
   midi.NoteOffEvent(tick=759300, channel=0, data=[6, 0]),
   midi.NoteOnEvent(tick=759400, channel=0, data=[13, 100]),
   midi.NoteOffEvent(tick=759500, channel=0, data=[13, 0]),
   midi.NoteOnEvent(tick=759600, channel=0, data=[36, 100]),
   midi.NoteOffEvent(tick=759700, channel=0, data=[36, 0]),
   midi.NoteOnEvent(tick=759800, channel=0, data=[19, 100]),
   midi.NoteOffEvent(tick=759900, channel=0, data=[19, 0]),
   midi.NoteOnEvent(tick=760000, channel=0, data=[7, 100]),
   midi.NoteOffEvent(tick=760100, channel=0, data=[7, 0]),
   midi.NoteOnEvent(tick=760200, channel=0, data=[4, 100]),
   midi.NoteOffEvent(tick=760300, channel=0, data=[4, 0]),
   midi.NoteOnEvent(tick=760400, channel=0, data=[36, 100]),
   midi.NoteOffEvent(tick=760500, channel=0, data=[36, 0]),
   midi.NoteOnEvent(tick=760600, channel=0, data=[21, 100]),
   midi.NoteOffEvent(tick=760700, channel=0, data=[21, 0]),
   midi.NoteOnEvent(tick=760800, channel=0, data=[0, 100]),
   midi.NoteOffEvent(tick=760900, channel=0, data=[0, 0]),
   midi.NoteOnEvent(tick=761000, channel=0, data=[11, 100]),
   midi.NoteOffEvent(tick=761100, channel=0, data=[11, 0]),
   midi.NoteOnEvent(tick=761200, channel=0, data=[20, 100]),
   midi.NoteOffEvent(tick=761300, channel=0, data=[20, 0]),
   midi.NoteOnEvent(tick=761400, channel=0, data=[4, 100]),
   midi.NoteOffEvent(tick=761500, channel=0, data=[4, 0]),
   midi.NoteOnEvent(tick=761600, channel=0, data=[36, 100]),
   midi.NoteOffEvent(tick=761700, channel=0, data=[36, 0]),
   midi.NoteOnEvent(tick=761800, channel=0, data=[2, 100]),
   midi.NoteOffEvent(tick=761900, channel=0, data=[2, 0]),
   midi.NoteOnEvent(tick=762000, channel=0, data=[17, 100]),
   midi.NoteOffEvent(tick=762100, channel=0, data=[17, 0]),
   midi.NoteOnEvent(tick=762200, channel=0, data=[4, 100]),
   midi.NoteOffEvent(tick=762300, channel=0, data=[4, 0]),
   midi.NoteOnEvent(tick=762400, channel=0, data=[0, 100]),
   midi.NoteOffEvent(tick=762500, channel=0, data=[0, 0]),
   midi.NoteOnEvent(tick=762600, channel=0, data=[19, 100]),
   midi.NoteOffEvent(tick=762700, channel=0, data=[19, 0]),
   midi.NoteOnEvent(tick=762800, channel=0, data=[4, 100]),
   midi.NoteOffEvent(tick=762900, channel=0, data=[4, 0]),
   midi.NoteOnEvent(tick=763000, channel=0, data=[3, 100]),
   midi.NoteOffEvent(tick=763100, channel=0, data=[3, 0]),
   midi.NoteOnEvent(tick=763200, channel=0, data=[36, 100]),
   midi.NoteOffEvent(tick=763300, channel=0, data=[36, 0]),
   midi.NoteOnEvent(tick=763400, channel=0, data=[1, 100]),
   midi.NoteOffEvent(tick=763500, channel=0, data=[1, 0]),
   midi.NoteOnEvent(tick=763600, channel=0, data=[24, 100]),
   midi.NoteOffEvent(tick=763700, channel=0, data=[24, 0]),
   midi.NoteOnEvent(tick=763800, channel=0, data=[36, 100]),
   midi.NoteOffEvent(tick=763900, channel=0, data=[36, 0]),
   midi.NoteOnEvent(tick=764000, channel=0, data=[0, 100]),
   midi.NoteOffEvent(tick=764100, channel=0, data=[0, 0]),
   midi.NoteOnEvent(tick=764200, channel=0, data=[36, 100]),
   midi.NoteOffEvent(tick=764300, channel=0, data=[36, 0]),
   midi.NoteOnEvent(tick=764400, channel=0, data=[18, 100]),
   midi.NoteOffEvent(tick=764500, channel=0, data=[18, 0]),
   midi.NoteOnEvent(tick=764600, channel=0, data=[19, 100]),
   midi.NoteOffEvent(tick=764700, channel=0, data=[19, 0]),
   midi.NoteOnEvent(tick=764800, channel=0, data=[0, 100]),
   midi.NoteOffEvent(tick=764900, channel=0, data=[0, 0]),
   midi.NoteOnEvent(tick=765000, channel=0, data=[19, 100]),
   midi.NoteOffEvent(tick=765100, channel=0, data=[19, 0]),
   midi.NoteOnEvent(tick=765200, channel=0, data=[4, 100]),
   midi.NoteOffEvent(tick=765300, channel=0, data=[4, 0]),
   midi.NoteOnEvent(tick=765400, channel=0, data=[12, 100]),
   midi.NoteOffEvent(tick=765500, channel=0, data=[12, 0]),
   midi.NoteOnEvent(tick=765600, channel=0, data=[4, 100]),
   midi.NoteOffEvent(tick=765700, channel=0, data=[4, 0]),
   midi.NoteOnEvent(tick=765800, channel=0, data=[13, 100]),
   midi.NoteOffEvent(tick=765900, channel=0, data=[13, 0]),
   midi.NoteOnEvent(tick=766000, channel=0, data=[19, 100]),
   midi.NoteOffEvent(tick=766100, channel=0, data=[19, 0]),
   midi.NoteOnEvent(tick=766200, channel=0, data=[36, 100]),
   midi.NoteOffEvent(tick=766300, channel=0, data=[36, 0]),
   midi.NoteOnEvent(tick=766400, channel=0, data=[19, 100]),
   midi.NoteOffEvent(tick=766500, channel=0, data=[19, 0]),
   midi.NoteOnEvent(tick=766600, channel=0, data=[14, 100]),
   midi.NoteOffEvent(tick=766700, channel=0, data=[14, 0]),
   midi.NoteOnEvent(tick=766800, channel=0, data=[36, 100]),
   midi.NoteOffEvent(tick=766900, channel=0, data=[36, 0]),
   midi.NoteOnEvent(tick=767000, channel=0, data=[0, 100]),
   midi.NoteOffEvent(tick=767100, channel=0, data=[0, 0]),
   midi.NoteOnEvent(tick=767200, channel=0, data=[36, 100]),
   midi.NoteOffEvent(tick=767300, channel=0, data=[36, 0]),
   midi.NoteOnEvent(tick=767400, channel=0, data=[21, 100]),
   midi.NoteOffEvent(tick=767500, channel=0, data=[21, 0]),
   midi.NoteOnEvent(tick=767600, channel=0, data=[0, 100]),
   midi.NoteOffEvent(tick=767700, channel=0, data=[0, 0]),
   midi.NoteOnEvent(tick=767800, channel=0, data=[17, 100]),
   midi.NoteOffEvent(tick=767900, channel=0, data=[17, 0]),
   midi.NoteOnEvent(tick=768000, channel=0, data=[8, 100]),
   midi.NoteOffEvent(tick=768100, channel=0, data=[8, 0]),
   midi.NoteOnEvent(tick=768200, channel=0, data=[0, 100]),
   midi.NoteOffEvent(tick=768300, channel=0, data=[0, 0]),
   midi.NoteOnEvent(tick=768400, channel=0, data=[1, 100]),
   midi.NoteOffEvent(tick=768500, channel=0, data=[1, 0]),
   midi.NoteOnEvent(tick=768600, channel=0, data=[11, 100]),
   midi.NoteOffEvent(tick=768700, channel=0, data=[11, 0]),
   midi.NoteOnEvent(tick=768800, channel=0, data=[4, 100]),
   midi.NoteOffEvent(tick=768900, channel=0, data=[4, 0]),
   midi.NoteOnEvent(tick=769000, channel=0, data=[38, 100]),
   midi.NoteOffEvent(tick=769100, channel=0, data=[38, 0]),
   midi.NoteOnEvent(tick=769200, channel=0, data=[36, 100]),
   midi.NoteOffEvent(tick=769300, channel=0, data=[36, 0]),
   midi.NoteOnEvent(tick=769400, channel=0, data=[0, 100]),
   midi.NoteOffEvent(tick=769500, channel=0, data=[0, 0]),
   midi.NoteOnEvent(tick=769600, channel=0, data=[18, 100]),
   midi.NoteOffEvent(tick=769700, channel=0, data=[18, 0]),
   midi.NoteOnEvent(tick=769800, channel=0, data=[36, 100]),
   midi.NoteOffEvent(tick=769900, channel=0, data=[36, 0]),
   midi.NoteOnEvent(tick=770000, channel=0, data=[8, 100]),
   midi.NoteOffEvent(tick=770100, channel=0, data=[8, 0]),
   midi.NoteOnEvent(tick=770200, channel=0, data=[13, 100]),
   midi.NoteOffEvent(tick=770300, channel=0, data=[13, 0]),
   midi.NoteOnEvent(tick=770400, channel=0, data=[36, 100]),
   midi.NoteOffEvent(tick=770500, channel=0, data=[36, 0]),
   midi.NoteOnEvent(tick=770600, channel=0, data=[56, 100]),
   midi.NoteOffEvent(tick=770700, channel=0, data=[56, 0]),
   midi.NoteOnEvent(tick=770800, channel=0, data=[36, 100]),
   midi.NoteOffEvent(tick=770900, channel=0, data=[36, 0]),
   midi.NoteOnEvent(tick=771000, channel=0, data=[36, 100]),
   midi.NoteOffEvent(tick=771100, channel=0, data=[36, 0]),
   midi.NoteOnEvent(tick=771200, channel=0, data=[36, 100]),
   midi.NoteOffEvent(tick=771300, channel=0, data=[36, 0]),
   midi.NoteOnEvent(tick=771400, channel=0, data=[36, 100]),
   midi.NoteOffEvent(tick=771500, channel=0, data=[36, 0]),
   midi.NoteOnEvent(tick=771600, channel=0, data=[19, 100]),
   midi.NoteOffEvent(tick=771700, channel=0, data=[19, 0]),
   midi.NoteOnEvent(tick=771800, channel=0, data=[7, 100]),
   midi.NoteOffEvent(tick=771900, channel=0, data=[7, 0]),
   midi.NoteOnEvent(tick=772000, channel=0, data=[4, 100]),
   midi.NoteOffEvent(tick=772100, channel=0, data=[4, 0]),
   midi.NoteOnEvent(tick=772200, channel=0, data=[36, 100]),
   midi.NoteOffEvent(tick=772300, channel=0, data=[36, 0]),
   midi.NoteOnEvent(tick=772400, channel=0, data=[5, 100]),
   midi.NoteOffEvent(tick=772500, channel=0, data=[5, 0]),
   midi.NoteOnEvent(tick=772600, channel=0, data=[14, 100]),
   midi.NoteOffEvent(tick=772700, channel=0, data=[14, 0]),
   midi.NoteOnEvent(tick=772800, channel=0, data=[11, 100]),
   midi.NoteOffEvent(tick=772900, channel=0, data=[11, 0]),
   midi.NoteOnEvent(tick=773000, channel=0, data=[11, 100]),
   midi.NoteOffEvent(tick=773100, channel=0, data=[11, 0]),
   midi.NoteOnEvent(tick=773200, channel=0, data=[14, 100]),
   midi.NoteOffEvent(tick=773300, channel=0, data=[14, 0]),
   midi.NoteOnEvent(tick=773400, channel=0, data=[22, 100]),
   midi.NoteOffEvent(tick=773500, channel=0, data=[22, 0]),
   midi.NoteOnEvent(tick=773600, channel=0, data=[8, 100]),
   midi.NoteOffEvent(tick=773700, channel=0, data=[8, 0]),
   midi.NoteOnEvent(tick=773800, channel=0, data=[13, 100]),
   midi.NoteOffEvent(tick=773900, channel=0, data=[13, 0]),
   midi.NoteOnEvent(tick=774000, channel=0, data=[6, 100]),
   midi.NoteOffEvent(tick=774100, channel=0, data=[6, 0]),
   midi.NoteOnEvent(tick=774200, channel=0, data=[36, 100]),
   midi.NoteOffEvent(tick=774300, channel=0, data=[36, 0]),
   midi.NoteOnEvent(tick=774400, channel=0, data=[4, 100]),
   midi.NoteOffEvent(tick=774500, channel=0, data=[4, 0]),
   midi.NoteOnEvent(tick=774600, channel=0, data=[23, 100]),
   midi.NoteOffEvent(tick=774700, channel=0, data=[23, 0]),
   midi.NoteOnEvent(tick=774800, channel=0, data=[0, 100]),
   midi.NoteOffEvent(tick=774900, channel=0, data=[0, 0]),
   midi.NoteOnEvent(tick=775000, channel=0, data=[12, 100]),
   midi.NoteOffEvent(tick=775100, channel=0, data=[12, 0]),
   midi.NoteOnEvent(tick=775200, channel=0, data=[15, 100]),
   midi.NoteOffEvent(tick=775300, channel=0, data=[15, 0]),
   midi.NoteOnEvent(tick=775400, channel=0, data=[11, 100]),
   midi.NoteOffEvent(tick=775500, channel=0, data=[11, 0]),
   midi.NoteOnEvent(tick=775600, channel=0, data=[4, 100]),
   midi.NoteOffEvent(tick=775700, channel=0, data=[4, 0]),
   midi.NoteOnEvent(tick=775800, channel=0, data=[46, 100]),
   midi.NoteOffEvent(tick=775900, channel=0, data=[46, 0]),
   midi.NoteOnEvent(tick=776000, channel=0, data=[36, 100]),
   midi.NoteOffEvent(tick=776100, channel=0, data=[36, 0]),
   midi.NoteOnEvent(tick=776200, channel=0, data=[56, 100]),
   midi.NoteOffEvent(tick=776300, channel=0, data=[56, 0]),
   midi.NoteOnEvent(tick=776400, channel=0, data=[56, 100]),
   midi.NoteOffEvent(tick=776500, channel=0, data=[56, 0]),
   midi.NoteOnEvent(tick=776600, channel=0, data=[56, 100]),
   midi.NoteOffEvent(tick=776700, channel=0, data=[56, 0]),
   midi.NoteOnEvent(tick=776800, channel=0, data=[36, 100]),
   midi.NoteOffEvent(tick=776900, channel=0, data=[36, 0]),
   midi.NoteOnEvent(tick=777000, channel=0, data=[36, 100]),
   midi.NoteOffEvent(tick=777100, channel=0, data=[36, 0]),
   midi.NoteOnEvent(tick=777200, channel=0, data=[36, 100]),
   midi.NoteOffEvent(tick=777300, channel=0, data=[36, 0]),
   midi.NoteOnEvent(tick=777400, channel=0, data=[36, 100]),
   midi.NoteOffEvent(tick=777500, channel=0, data=[36, 0]),
   midi.NoteOnEvent(tick=777600, channel=0, data=[36, 100]),
   midi.NoteOffEvent(tick=777700, channel=0, data=[36, 0]),
   midi.NoteOnEvent(tick=777800, channel=0, data=[36, 100]),
   midi.NoteOffEvent(tick=777900, channel=0, data=[36, 0]),
   midi.NoteOnEvent(tick=778000, channel=0, data=[36, 100]),
   midi.NoteOffEvent(tick=778100, channel=0, data=[36, 0]),
   midi.NoteOnEvent(tick=778200, channel=0, data=[36, 100]),
   midi.NoteOffEvent(tick=778300, channel=0, data=[36, 0]),
   midi.NoteOnEvent(tick=778400, channel=0, data=[74, 100]),
   midi.NoteOffEvent(tick=778500, channel=0, data=[74, 0]),
   midi.NoteOnEvent(tick=778600, channel=0, data=[0, 100]),
   midi.NoteOffEvent(tick=778700, channel=0, data=[0, 0]),
   midi.NoteOnEvent(tick=778800, channel=0, data=[36, 100]),
   midi.NoteOffEvent(tick=778900, channel=0, data=[36, 0]),
   midi.NoteOnEvent(tick=779000, channel=0, data=[69, 100]),
   midi.NoteOffEvent(tick=779100, channel=0, data=[69, 0]),
   midi.NoteOnEvent(tick=779200, channel=0, data=[36, 100]),
   midi.NoteOffEvent(tick=779300, channel=0, data=[36, 0]),
   midi.NoteOnEvent(tick=779400, channel=0, data=[8, 100]),
   midi.NoteOffEvent(tick=779500, channel=0, data=[8, 0]),
   midi.NoteOnEvent(tick=779600, channel=0, data=[5, 100]),
   midi.NoteOffEvent(tick=779700, channel=0, data=[5, 0]),
   midi.NoteOnEvent(tick=779800, channel=0, data=[36, 100]),
   midi.NoteOffEvent(tick=779900, channel=0, data=[36, 0]),
   midi.NoteOnEvent(tick=780000, channel=0, data=[49, 100]),
   midi.NoteOffEvent(tick=780100, channel=0, data=[49, 0]),
   midi.NoteOnEvent(tick=780200, channel=0, data=[74, 100]),
   midi.NoteOffEvent(tick=780300, channel=0, data=[74, 0]),
   midi.NoteOnEvent(tick=780400, channel=0, data=[1, 100]),
   midi.NoteOffEvent(tick=780500, channel=0, data=[1, 0]),
   midi.NoteOnEvent(tick=780600, channel=0, data=[36, 100]),
   midi.NoteOffEvent(tick=780700, channel=0, data=[36, 0]),
   midi.NoteOnEvent(tick=780800, channel=0, data=[45, 100]),
   midi.NoteOffEvent(tick=780900, channel=0, data=[45, 0]),
   midi.NoteOnEvent(tick=781000, channel=0, data=[11, 100]),
   midi.NoteOffEvent(tick=781100, channel=0, data=[11, 0]),
   midi.NoteOnEvent(tick=781200, channel=0, data=[19, 100]),
   midi.NoteOffEvent(tick=781300, channel=0, data=[19, 0]),
   midi.NoteOnEvent(tick=781400, channel=0, data=[36, 100]),
   midi.NoteOffEvent(tick=781500, channel=0, data=[36, 0]),
   midi.NoteOnEvent(tick=781600, channel=0, data=[26, 100]),
   midi.NoteOffEvent(tick=781700, channel=0, data=[26, 0]),
   midi.NoteOnEvent(tick=781800, channel=0, data=[50, 100]),
   midi.NoteOffEvent(tick=781900, channel=0, data=[50, 0]),
   midi.NoteOnEvent(tick=782000, channel=0, data=[36, 100]),
   midi.NoteOffEvent(tick=782100, channel=0, data=[36, 0]),
   midi.NoteOnEvent(tick=782200, channel=0, data=[53, 100]),
   midi.NoteOffEvent(tick=782300, channel=0, data=[53, 0]),
   midi.NoteOnEvent(tick=782400, channel=0, data=[36, 100]),
   midi.NoteOffEvent(tick=782500, channel=0, data=[36, 0]),
   midi.NoteOnEvent(tick=782600, channel=0, data=[26, 100]),
   midi.NoteOffEvent(tick=782700, channel=0, data=[26, 0]),
   midi.NoteOnEvent(tick=782800, channel=0, data=[36, 100]),
   midi.NoteOffEvent(tick=782900, channel=0, data=[36, 0]),
   midi.NoteOnEvent(tick=783000, channel=0, data=[54, 100]),
   midi.NoteOffEvent(tick=783100, channel=0, data=[54, 0]),
   midi.NoteOnEvent(tick=783200, channel=0, data=[36, 100]),
   midi.NoteOffEvent(tick=783300, channel=0, data=[36, 0]),
   midi.NoteOnEvent(tick=783400, channel=0, data=[4, 100]),
   midi.NoteOffEvent(tick=783500, channel=0, data=[4, 0]),
   midi.NoteOnEvent(tick=783600, channel=0, data=[11, 100]),
   midi.NoteOffEvent(tick=783700, channel=0, data=[11, 0]),
   midi.NoteOnEvent(tick=783800, channel=0, data=[18, 100]),
   midi.NoteOffEvent(tick=783900, channel=0, data=[18, 0]),
   midi.NoteOnEvent(tick=784000, channel=0, data=[4, 100]),
   midi.NoteOffEvent(tick=784100, channel=0, data=[4, 0]),
   midi.NoteOnEvent(tick=784200, channel=0, data=[36, 100]),
   midi.NoteOffEvent(tick=784300, channel=0, data=[36, 0]),
   midi.NoteOnEvent(tick=784400, channel=0, data=[53, 100]),
   midi.NoteOffEvent(tick=784500, channel=0, data=[53, 0]),
   midi.NoteOnEvent(tick=784600, channel=0, data=[36, 100]),
   midi.NoteOffEvent(tick=784700, channel=0, data=[36, 0]),
   midi.NoteOnEvent(tick=784800, channel=0, data=[74, 100]),
   midi.NoteOffEvent(tick=784900, channel=0, data=[74, 0]),
   midi.NoteOnEvent(tick=785000, channel=0, data=[1, 100]),
   midi.NoteOffEvent(tick=785100, channel=0, data=[1, 0]),
   midi.NoteOnEvent(tick=785200, channel=0, data=[36, 100]),
   midi.NoteOffEvent(tick=785300, channel=0, data=[36, 0]),
   midi.NoteOnEvent(tick=785400, channel=0, data=[54, 100]),
   midi.NoteOffEvent(tick=785500, channel=0, data=[54, 0]),
   midi.NoteOnEvent(tick=785600, channel=0, data=[56, 100]),
   midi.NoteOffEvent(tick=785700, channel=0, data=[56, 0]),
   midi.NoteOnEvent(tick=785800, channel=0, data=[56, 100]),
   midi.NoteOffEvent(tick=785900, channel=0, data=[56, 0]),
   midi.NoteOnEvent(tick=786000, channel=0, data=[56, 100]),
   midi.NoteOffEvent(tick=786100, channel=0, data=[56, 0]),
   midi.NoteOnEvent(tick=786200, channel=0, data=[36, 100]),
   midi.NoteOffEvent(tick=786300, channel=0, data=[36, 0]),
   midi.NoteOnEvent(tick=786400, channel=0, data=[36, 100]),
   midi.NoteOffEvent(tick=786500, channel=0, data=[36, 0]),
   midi.NoteOnEvent(tick=786600, channel=0, data=[36, 100]),
   midi.NoteOffEvent(tick=786700, channel=0, data=[36, 0]),
   midi.NoteOnEvent(tick=786800, channel=0, data=[36, 100]),
   midi.NoteOffEvent(tick=786900, channel=0, data=[36, 0]),
   midi.NoteOnEvent(tick=787000, channel=0, data=[19, 100]),
   midi.NoteOffEvent(tick=787100, channel=0, data=[19, 0]),
   midi.NoteOnEvent(tick=787200, channel=0, data=[7, 100]),
   midi.NoteOffEvent(tick=787300, channel=0, data=[7, 0]),
   midi.NoteOnEvent(tick=787400, channel=0, data=[8, 100]),
   midi.NoteOffEvent(tick=787500, channel=0, data=[8, 0]),
   midi.NoteOnEvent(tick=787600, channel=0, data=[18, 100]),
   midi.NoteOffEvent(tick=787700, channel=0, data=[18, 0]),
   midi.NoteOnEvent(tick=787800, channel=0, data=[36, 100]),
   midi.NoteOffEvent(tick=787900, channel=0, data=[36, 0]),
   midi.NoteOnEvent(tick=788000, channel=0, data=[4, 100]),
   midi.NoteOffEvent(tick=788100, channel=0, data=[4, 0]),
   midi.NoteOnEvent(tick=788200, channel=0, data=[23, 100]),
   midi.NoteOffEvent(tick=788300, channel=0, data=[23, 0]),
   midi.NoteOnEvent(tick=788400, channel=0, data=[0, 100]),
   midi.NoteOffEvent(tick=788500, channel=0, data=[0, 0]),
   midi.NoteOnEvent(tick=788600, channel=0, data=[12, 100]),
   midi.NoteOffEvent(tick=788700, channel=0, data=[12, 0]),
   midi.NoteOnEvent(tick=788800, channel=0, data=[15, 100]),
   midi.NoteOffEvent(tick=788900, channel=0, data=[15, 0]),
   midi.NoteOnEvent(tick=789000, channel=0, data=[11, 100]),
   midi.NoteOffEvent(tick=789100, channel=0, data=[11, 0]),
   midi.NoteOnEvent(tick=789200, channel=0, data=[4, 100]),
   midi.NoteOffEvent(tick=789300, channel=0, data=[4, 0]),
   midi.NoteOnEvent(tick=789400, channel=0, data=[36, 100]),
   midi.NoteOffEvent(tick=789500, channel=0, data=[36, 0]),
   midi.NoteOnEvent(tick=789600, channel=0, data=[0, 100]),
   midi.NoteOffEvent(tick=789700, channel=0, data=[0, 0]),
   midi.NoteOnEvent(tick=789800, channel=0, data=[18, 100]),
   midi.NoteOffEvent(tick=789900, channel=0, data=[18, 0]),
   midi.NoteOnEvent(tick=790000, channel=0, data=[18, 100]),
   midi.NoteOffEvent(tick=790100, channel=0, data=[18, 0]),
   midi.NoteOnEvent(tick=790200, channel=0, data=[8, 100]),
   midi.NoteOffEvent(tick=790300, channel=0, data=[8, 0]),
   midi.NoteOnEvent(tick=790400, channel=0, data=[6, 100]),
   midi.NoteOffEvent(tick=790500, channel=0, data=[6, 0]),
   midi.NoteOnEvent(tick=790600, channel=0, data=[13, 100]),
   midi.NoteOffEvent(tick=790700, channel=0, data=[13, 0]),
   midi.NoteOnEvent(tick=790800, channel=0, data=[18, 100]),
   midi.NoteOffEvent(tick=790900, channel=0, data=[18, 0]),
   midi.NoteOnEvent(tick=791000, channel=0, data=[36, 100]),
   midi.NoteOffEvent(tick=791100, channel=0, data=[36, 0]),
   midi.NoteOnEvent(tick=791200, channel=0, data=[26, 100]),
   midi.NoteOffEvent(tick=791300, channel=0, data=[26, 0]),
   midi.NoteOnEvent(tick=791400, channel=0, data=[36, 100]),
   midi.NoteOffEvent(tick=791500, channel=0, data=[36, 0]),
   midi.NoteOnEvent(tick=791600, channel=0, data=[19, 100]),
   midi.NoteOffEvent(tick=791700, channel=0, data=[19, 0]),
   midi.NoteOnEvent(tick=791800, channel=0, data=[14, 100]),
   midi.NoteOffEvent(tick=791900, channel=0, data=[14, 0]),
   midi.NoteOnEvent(tick=792000, channel=0, data=[36, 100]),
   midi.NoteOffEvent(tick=792100, channel=0, data=[36, 0]),
   midi.NoteOnEvent(tick=792200, channel=0, data=[19, 100]),
   midi.NoteOffEvent(tick=792300, channel=0, data=[19, 0]),
   midi.NoteOnEvent(tick=792400, channel=0, data=[7, 100]),
   midi.NoteOffEvent(tick=792500, channel=0, data=[7, 0]),
   midi.NoteOnEvent(tick=792600, channel=0, data=[4, 100]),
   midi.NoteOffEvent(tick=792700, channel=0, data=[4, 0]),
   midi.NoteOnEvent(tick=792800, channel=0, data=[36, 100]),
   midi.NoteOffEvent(tick=792900, channel=0, data=[36, 0]),
   midi.NoteOnEvent(tick=793000, channel=0, data=[74, 100]),
   midi.NoteOffEvent(tick=793100, channel=0, data=[74, 0]),
   midi.NoteOnEvent(tick=793200, channel=0, data=[0, 100]),
   midi.NoteOffEvent(tick=793300, channel=0, data=[0, 0]),
   midi.NoteOnEvent(tick=793400, channel=0, data=[36, 100]),
   midi.NoteOffEvent(tick=793500, channel=0, data=[36, 0]),
   midi.NoteOnEvent(tick=793600, channel=0, data=[21, 100]),
   midi.NoteOffEvent(tick=793700, channel=0, data=[21, 0]),
   midi.NoteOnEvent(tick=793800, channel=0, data=[0, 100]),
   midi.NoteOffEvent(tick=793900, channel=0, data=[0, 0]),
   midi.NoteOnEvent(tick=794000, channel=0, data=[17, 100]),
   midi.NoteOffEvent(tick=794100, channel=0, data=[17, 0]),
   midi.NoteOnEvent(tick=794200, channel=0, data=[8, 100]),
   midi.NoteOffEvent(tick=794300, channel=0, data=[8, 0]),
   midi.NoteOnEvent(tick=794400, channel=0, data=[0, 100]),
   midi.NoteOffEvent(tick=794500, channel=0, data=[0, 0]),
   midi.NoteOnEvent(tick=794600, channel=0, data=[1, 100]),
   midi.NoteOffEvent(tick=794700, channel=0, data=[1, 0]),
   midi.NoteOnEvent(tick=794800, channel=0, data=[11, 100]),
   midi.NoteOffEvent(tick=794900, channel=0, data=[11, 0]),
   midi.NoteOnEvent(tick=795000, channel=0, data=[4, 100]),
   midi.NoteOffEvent(tick=795100, channel=0, data=[4, 0]),
   midi.NoteOnEvent(tick=795200, channel=0, data=[36, 100]),
   midi.NoteOffEvent(tick=795300, channel=0, data=[36, 0]),
   midi.NoteOnEvent(tick=795400, channel=0, data=[8, 100]),
   midi.NoteOffEvent(tick=795500, channel=0, data=[8, 0]),
   midi.NoteOnEvent(tick=795600, channel=0, data=[5, 100]),
   midi.NoteOffEvent(tick=795700, channel=0, data=[5, 0]),
   midi.NoteOnEvent(tick=795800, channel=0, data=[36, 100]),
   midi.NoteOffEvent(tick=795900, channel=0, data=[36, 0]),
   midi.NoteOnEvent(tick=796000, channel=0, data=[19, 100]),
   midi.NoteOffEvent(tick=796100, channel=0, data=[19, 0]),
   midi.NoteOnEvent(tick=796200, channel=0, data=[7, 100]),
   midi.NoteOffEvent(tick=796300, channel=0, data=[7, 0]),
   midi.NoteOnEvent(tick=796400, channel=0, data=[4, 100]),
   midi.NoteOffEvent(tick=796500, channel=0, data=[4, 0]),
   midi.NoteOnEvent(tick=796600, channel=0, data=[36, 100]),
   midi.NoteOffEvent(tick=796700, channel=0, data=[36, 0]),
   midi.NoteOnEvent(tick=796800, channel=0, data=[21, 100]),
   midi.NoteOffEvent(tick=796900, channel=0, data=[21, 0]),
   midi.NoteOnEvent(tick=797000, channel=0, data=[0, 100]),
   midi.NoteOffEvent(tick=797100, channel=0, data=[0, 0]),
   midi.NoteOnEvent(tick=797200, channel=0, data=[11, 100]),
   midi.NoteOffEvent(tick=797300, channel=0, data=[11, 0]),
   midi.NoteOnEvent(tick=797400, channel=0, data=[20, 100]),
   midi.NoteOffEvent(tick=797500, channel=0, data=[20, 0]),
   midi.NoteOnEvent(tick=797600, channel=0, data=[4, 100]),
   midi.NoteOffEvent(tick=797700, channel=0, data=[4, 0]),
   midi.NoteOnEvent(tick=797800, channel=0, data=[36, 100]),
   midi.NoteOffEvent(tick=797900, channel=0, data=[36, 0]),
   midi.NoteOnEvent(tick=798000, channel=0, data=[14, 100]),
   midi.NoteOffEvent(tick=798100, channel=0, data=[14, 0]),
   midi.NoteOnEvent(tick=798200, channel=0, data=[5, 100]),
   midi.NoteOffEvent(tick=798300, channel=0, data=[5, 0]),
   midi.NoteOnEvent(tick=798400, channel=0, data=[36, 100]),
   midi.NoteOffEvent(tick=798500, channel=0, data=[36, 0]),
   midi.NoteOnEvent(tick=798600, channel=0, data=[74, 100]),
   midi.NoteOffEvent(tick=798700, channel=0, data=[74, 0]),
   midi.NoteOnEvent(tick=798800, channel=0, data=[1, 100]),
   midi.NoteOffEvent(tick=798900, channel=0, data=[1, 0]),
   midi.NoteOnEvent(tick=799000, channel=0, data=[36, 100]),
   midi.NoteOffEvent(tick=799100, channel=0, data=[36, 0]),
   midi.NoteOnEvent(tick=799200, channel=0, data=[8, 100]),
   midi.NoteOffEvent(tick=799300, channel=0, data=[8, 0]),
   midi.NoteOnEvent(tick=799400, channel=0, data=[18, 100]),
   midi.NoteOffEvent(tick=799500, channel=0, data=[18, 0]),
   midi.NoteOnEvent(tick=799600, channel=0, data=[36, 100]),
   midi.NoteOffEvent(tick=799700, channel=0, data=[36, 0]),
   midi.NoteOnEvent(tick=799800, channel=0, data=[11, 100]),
   midi.NoteOffEvent(tick=799900, channel=0, data=[11, 0]),
   midi.NoteOnEvent(tick=800000, channel=0, data=[4, 100]),
   midi.NoteOffEvent(tick=800100, channel=0, data=[4, 0]),
   midi.NoteOnEvent(tick=800200, channel=0, data=[18, 100]),
   midi.NoteOffEvent(tick=800300, channel=0, data=[18, 0]),
   midi.NoteOnEvent(tick=800400, channel=0, data=[18, 100]),
   midi.NoteOffEvent(tick=800500, channel=0, data=[18, 0]),
   midi.NoteOnEvent(tick=800600, channel=0, data=[36, 100]),
   midi.NoteOffEvent(tick=800700, channel=0, data=[36, 0]),
   midi.NoteOnEvent(tick=800800, channel=0, data=[56, 100]),
   midi.NoteOffEvent(tick=800900, channel=0, data=[56, 0]),
   midi.NoteOnEvent(tick=801000, channel=0, data=[36, 100]),
   midi.NoteOffEvent(tick=801100, channel=0, data=[36, 0]),
   midi.NoteOnEvent(tick=801200, channel=0, data=[36, 100]),
   midi.NoteOffEvent(tick=801300, channel=0, data=[36, 0]),
   midi.NoteOnEvent(tick=801400, channel=0, data=[36, 100]),
   midi.NoteOffEvent(tick=801500, channel=0, data=[36, 0]),
   midi.NoteOnEvent(tick=801600, channel=0, data=[36, 100]),
   midi.NoteOffEvent(tick=801700, channel=0, data=[36, 0]),
   midi.NoteOnEvent(tick=801800, channel=0, data=[19, 100]),
   midi.NoteOffEvent(tick=801900, channel=0, data=[19, 0]),
   midi.NoteOnEvent(tick=802000, channel=0, data=[7, 100]),
   midi.NoteOffEvent(tick=802100, channel=0, data=[7, 0]),
   midi.NoteOnEvent(tick=802200, channel=0, data=[0, 100]),
   midi.NoteOffEvent(tick=802300, channel=0, data=[0, 0]),
   midi.NoteOnEvent(tick=802400, channel=0, data=[13, 100]),
   midi.NoteOffEvent(tick=802500, channel=0, data=[13, 0]),
   midi.NoteOnEvent(tick=802600, channel=0, data=[36, 100]),
   midi.NoteOffEvent(tick=802700, channel=0, data=[36, 0]),
   midi.NoteOnEvent(tick=802800, channel=0, data=[26, 100]),
   midi.NoteOffEvent(tick=802900, channel=0, data=[26, 0]),
   midi.NoteOnEvent(tick=803000, channel=0, data=[37, 100]),
   midi.NoteOffEvent(tick=803100, channel=0, data=[37, 0]),
   midi.NoteOnEvent(tick=803200, channel=0, data=[36, 100]),
   midi.NoteOffEvent(tick=803300, channel=0, data=[36, 0]),
   midi.NoteOnEvent(tick=803400, channel=0, data=[8, 100]),
   midi.NoteOffEvent(tick=803500, channel=0, data=[8, 0]),
   midi.NoteOnEvent(tick=803600, channel=0, data=[19, 100]),
   midi.NoteOffEvent(tick=803700, channel=0, data=[19, 0]),
   midi.NoteOnEvent(tick=803800, channel=0, data=[36, 100]),
   midi.NoteOffEvent(tick=803900, channel=0, data=[36, 0]),
   midi.NoteOnEvent(tick=804000, channel=0, data=[0, 100]),
   midi.NoteOffEvent(tick=804100, channel=0, data=[0, 0]),
   midi.NoteOnEvent(tick=804200, channel=0, data=[18, 100]),
   midi.NoteOffEvent(tick=804300, channel=0, data=[18, 0]),
   midi.NoteOnEvent(tick=804400, channel=0, data=[18, 100]),
   midi.NoteOffEvent(tick=804500, channel=0, data=[18, 0]),
   midi.NoteOnEvent(tick=804600, channel=0, data=[8, 100]),
   midi.NoteOffEvent(tick=804700, channel=0, data=[8, 0]),
   midi.NoteOnEvent(tick=804800, channel=0, data=[6, 100]),
   midi.NoteOffEvent(tick=804900, channel=0, data=[6, 0]),
   midi.NoteOnEvent(tick=805000, channel=0, data=[13, 100]),
   midi.NoteOffEvent(tick=805100, channel=0, data=[13, 0]),
   midi.NoteOnEvent(tick=805200, channel=0, data=[18, 100]),
   midi.NoteOffEvent(tick=805300, channel=0, data=[18, 0]),
   midi.NoteOnEvent(tick=805400, channel=0, data=[36, 100]),
   midi.NoteOffEvent(tick=805500, channel=0, data=[36, 0]),
   midi.NoteOnEvent(tick=805600, channel=0, data=[19, 100]),
   midi.NoteOffEvent(tick=805700, channel=0, data=[19, 0]),
   midi.NoteOnEvent(tick=805800, channel=0, data=[7, 100]),
   midi.NoteOffEvent(tick=805900, channel=0, data=[7, 0]),
   midi.NoteOnEvent(tick=806000, channel=0, data=[4, 100]),
   midi.NoteOffEvent(tick=806100, channel=0, data=[4, 0]),
   midi.NoteOnEvent(tick=806200, channel=0, data=[36, 100]),
   midi.NoteOffEvent(tick=806300, channel=0, data=[36, 0]),
   midi.NoteOnEvent(tick=806400, channel=0, data=[21, 100]),
   midi.NoteOffEvent(tick=806500, channel=0, data=[21, 0]),
   midi.NoteOnEvent(tick=806600, channel=0, data=[0, 100]),
   midi.NoteOffEvent(tick=806700, channel=0, data=[0, 0]),
   midi.NoteOnEvent(tick=806800, channel=0, data=[11, 100]),
   midi.NoteOffEvent(tick=806900, channel=0, data=[11, 0]),
   midi.NoteOnEvent(tick=807000, channel=0, data=[20, 100]),
   midi.NoteOffEvent(tick=807100, channel=0, data=[20, 0]),
   midi.NoteOnEvent(tick=807200, channel=0, data=[4, 100]),
   midi.NoteOffEvent(tick=807300, channel=0, data=[4, 0]),
   midi.NoteOnEvent(tick=807400, channel=0, data=[36, 100]),
   midi.NoteOffEvent(tick=807500, channel=0, data=[36, 0]),
   midi.NoteOnEvent(tick=807600, channel=0, data=[14, 100]),
   midi.NoteOffEvent(tick=807700, channel=0, data=[14, 0]),
   midi.NoteOnEvent(tick=807800, channel=0, data=[5, 100]),
   midi.NoteOffEvent(tick=807900, channel=0, data=[5, 0]),
   midi.NoteOnEvent(tick=808000, channel=0, data=[36, 100]),
   midi.NoteOffEvent(tick=808100, channel=0, data=[36, 0]),
   midi.NoteOnEvent(tick=808200, channel=0, data=[74, 100]),
   midi.NoteOffEvent(tick=808300, channel=0, data=[74, 0]),
   midi.NoteOnEvent(tick=808400, channel=0, data=[1, 100]),
   midi.NoteOffEvent(tick=808500, channel=0, data=[1, 0]),
   midi.NoteOnEvent(tick=808600, channel=0, data=[36, 100]),
   midi.NoteOffEvent(tick=808700, channel=0, data=[36, 0]),
   midi.NoteOnEvent(tick=808800, channel=0, data=[19, 100]),
   midi.NoteOffEvent(tick=808900, channel=0, data=[19, 0]),
   midi.NoteOnEvent(tick=809000, channel=0, data=[14, 100]),
   midi.NoteOffEvent(tick=809100, channel=0, data=[14, 0]),
   midi.NoteOnEvent(tick=809200, channel=0, data=[36, 100]),
   midi.NoteOffEvent(tick=809300, channel=0, data=[36, 0]),
   midi.NoteOnEvent(tick=809400, channel=0, data=[74, 100]),
   midi.NoteOffEvent(tick=809500, channel=0, data=[74, 0]),
   midi.NoteOnEvent(tick=809600, channel=0, data=[0, 100]),
   midi.NoteOffEvent(tick=809700, channel=0, data=[0, 0]),
   midi.NoteOnEvent(tick=809800, channel=0, data=[36, 100]),
   midi.NoteOffEvent(tick=809900, channel=0, data=[36, 0]),
   midi.NoteOnEvent(tick=810000, channel=0, data=[8, 100]),
   midi.NoteOffEvent(tick=810100, channel=0, data=[8, 0]),
   midi.NoteOnEvent(tick=810200, channel=0, data=[5, 100]),
   midi.NoteOffEvent(tick=810300, channel=0, data=[5, 0]),
   midi.NoteOnEvent(tick=810400, channel=0, data=[36, 100]),
   midi.NoteOffEvent(tick=810500, channel=0, data=[36, 0]),
   midi.NoteOnEvent(tick=810600, channel=0, data=[19, 100]),
   midi.NoteOffEvent(tick=810700, channel=0, data=[19, 0]),
   midi.NoteOnEvent(tick=810800, channel=0, data=[7, 100]),
   midi.NoteOffEvent(tick=810900, channel=0, data=[7, 0]),
   midi.NoteOnEvent(tick=811000, channel=0, data=[4, 100]),
   midi.NoteOffEvent(tick=811100, channel=0, data=[4, 0]),
   midi.NoteOnEvent(tick=811200, channel=0, data=[36, 100]),
   midi.NoteOffEvent(tick=811300, channel=0, data=[36, 0]),
   midi.NoteOnEvent(tick=811400, channel=0, data=[21, 100]),
   midi.NoteOffEvent(tick=811500, channel=0, data=[21, 0]),
   midi.NoteOnEvent(tick=811600, channel=0, data=[0, 100]),
   midi.NoteOffEvent(tick=811700, channel=0, data=[0, 0]),
   midi.NoteOnEvent(tick=811800, channel=0, data=[11, 100]),
   midi.NoteOffEvent(tick=811900, channel=0, data=[11, 0]),
   midi.NoteOnEvent(tick=812000, channel=0, data=[20, 100]),
   midi.NoteOffEvent(tick=812100, channel=0, data=[20, 0]),
   midi.NoteOnEvent(tick=812200, channel=0, data=[4, 100]),
   midi.NoteOffEvent(tick=812300, channel=0, data=[4, 0]),
   midi.NoteOnEvent(tick=812400, channel=0, data=[36, 100]),
   midi.NoteOffEvent(tick=812500, channel=0, data=[36, 0]),
   midi.NoteOnEvent(tick=812600, channel=0, data=[14, 100]),
   midi.NoteOffEvent(tick=812700, channel=0, data=[14, 0]),
   midi.NoteOnEvent(tick=812800, channel=0, data=[5, 100]),
   midi.NoteOffEvent(tick=812900, channel=0, data=[5, 0]),
   midi.NoteOnEvent(tick=813000, channel=0, data=[36, 100]),
   midi.NoteOffEvent(tick=813100, channel=0, data=[36, 0]),
   midi.NoteOnEvent(tick=813200, channel=0, data=[74, 100]),
   midi.NoteOffEvent(tick=813300, channel=0, data=[74, 0]),
   midi.NoteOnEvent(tick=813400, channel=0, data=[1, 100]),
   midi.NoteOffEvent(tick=813500, channel=0, data=[1, 0]),
   midi.NoteOnEvent(tick=813600, channel=0, data=[36, 100]),
   midi.NoteOffEvent(tick=813700, channel=0, data=[36, 0]),
   midi.NoteOnEvent(tick=813800, channel=0, data=[8, 100]),
   midi.NoteOffEvent(tick=813900, channel=0, data=[8, 0]),
   midi.NoteOnEvent(tick=814000, channel=0, data=[18, 100]),
   midi.NoteOffEvent(tick=814100, channel=0, data=[18, 0]),
   midi.NoteOnEvent(tick=814200, channel=0, data=[36, 100]),
   midi.NoteOffEvent(tick=814300, channel=0, data=[36, 0]),
   midi.NoteOnEvent(tick=814400, channel=0, data=[13, 100]),
   midi.NoteOffEvent(tick=814500, channel=0, data=[13, 0]),
   midi.NoteOnEvent(tick=814600, channel=0, data=[14, 100]),
   midi.NoteOffEvent(tick=814700, channel=0, data=[14, 0]),
   midi.NoteOnEvent(tick=814800, channel=0, data=[19, 100]),
   midi.NoteOffEvent(tick=814900, channel=0, data=[19, 0]),
   midi.NoteOnEvent(tick=815000, channel=0, data=[36, 100]),
   midi.NoteOffEvent(tick=815100, channel=0, data=[36, 0]),
   midi.NoteOnEvent(tick=815200, channel=0, data=[11, 100]),
   midi.NoteOffEvent(tick=815300, channel=0, data=[11, 0]),
   midi.NoteOnEvent(tick=815400, channel=0, data=[4, 100]),
   midi.NoteOffEvent(tick=815500, channel=0, data=[4, 0]),
   midi.NoteOnEvent(tick=815600, channel=0, data=[18, 100]),
   midi.NoteOffEvent(tick=815700, channel=0, data=[18, 0]),
   midi.NoteOnEvent(tick=815800, channel=0, data=[18, 100]),
   midi.NoteOffEvent(tick=815900, channel=0, data=[18, 0]),
   midi.NoteOnEvent(tick=816000, channel=0, data=[36, 100]),
   midi.NoteOffEvent(tick=816100, channel=0, data=[36, 0]),
   midi.NoteOnEvent(tick=816200, channel=0, data=[56, 100]),
   midi.NoteOffEvent(tick=816300, channel=0, data=[56, 0]),
   midi.NoteOnEvent(tick=816400, channel=0, data=[36, 100]),
   midi.NoteOffEvent(tick=816500, channel=0, data=[36, 0]),
   midi.NoteOnEvent(tick=816600, channel=0, data=[36, 100]),
   midi.NoteOffEvent(tick=816700, channel=0, data=[36, 0]),
   midi.NoteOnEvent(tick=816800, channel=0, data=[36, 100]),
   midi.NoteOffEvent(tick=816900, channel=0, data=[36, 0]),
   midi.NoteOnEvent(tick=817000, channel=0, data=[36, 100]),
   midi.NoteOffEvent(tick=817100, channel=0, data=[36, 0]),
   midi.NoteOnEvent(tick=817200, channel=0, data=[19, 100]),
   midi.NoteOffEvent(tick=817300, channel=0, data=[19, 0]),
   midi.NoteOnEvent(tick=817400, channel=0, data=[7, 100]),
   midi.NoteOffEvent(tick=817500, channel=0, data=[7, 0]),
   midi.NoteOnEvent(tick=817600, channel=0, data=[0, 100]),
   midi.NoteOffEvent(tick=817700, channel=0, data=[0, 0]),
   midi.NoteOnEvent(tick=817800, channel=0, data=[13, 100]),
   midi.NoteOffEvent(tick=817900, channel=0, data=[13, 0]),
   midi.NoteOnEvent(tick=818000, channel=0, data=[36, 100]),
   midi.NoteOffEvent(tick=818100, channel=0, data=[36, 0]),
   midi.NoteOnEvent(tick=818200, channel=0, data=[25, 100]),
   midi.NoteOffEvent(tick=818300, channel=0, data=[25, 0]),
   midi.NoteOnEvent(tick=818400, channel=0, data=[4, 100]),
   midi.NoteOffEvent(tick=818500, channel=0, data=[4, 0]),
   midi.NoteOnEvent(tick=818600, channel=0, data=[17, 100]),
   midi.NoteOffEvent(tick=818700, channel=0, data=[17, 0]),
   midi.NoteOnEvent(tick=818800, channel=0, data=[14, 100]),
   midi.NoteOffEvent(tick=818900, channel=0, data=[14, 0]),
   midi.NoteOnEvent(tick=819000, channel=0, data=[37, 100]),
   midi.NoteOffEvent(tick=819100, channel=0, data=[37, 0]),
   midi.NoteOnEvent(tick=819200, channel=0, data=[36, 100]),
   midi.NoteOffEvent(tick=819300, channel=0, data=[36, 0]),
   midi.NoteOnEvent(tick=819400, channel=0, data=[56, 100]),
   midi.NoteOffEvent(tick=819500, channel=0, data=[56, 0]),
   midi.NoteOnEvent(tick=819600, channel=0, data=[56, 100]),
   midi.NoteOffEvent(tick=819700, channel=0, data=[56, 0]),
   midi.NoteOnEvent(tick=819800, channel=0, data=[36, 100]),
   midi.NoteOffEvent(tick=819900, channel=0, data=[36, 0]),
   midi.NoteOnEvent(tick=820000, channel=0, data=[56, 100]),
   midi.NoteOffEvent(tick=820100, channel=0, data=[56, 0]),
   midi.NoteOnEvent(tick=820200, channel=0, data=[56, 100]),
   midi.NoteOffEvent(tick=820300, channel=0, data=[56, 0]),
   midi.NoteOnEvent(tick=820400, channel=0, data=[36, 100]),
   midi.NoteOffEvent(tick=820500, channel=0, data=[36, 0]),
   midi.NoteOnEvent(tick=820600, channel=0, data=[36, 100]),
   midi.NoteOffEvent(tick=820700, channel=0, data=[36, 0]),
   midi.NoteOnEvent(tick=820800, channel=0, data=[19, 100]),
   midi.NoteOffEvent(tick=820900, channel=0, data=[19, 0]),
   midi.NoteOnEvent(tick=821000, channel=0, data=[7, 100]),
   midi.NoteOffEvent(tick=821100, channel=0, data=[7, 0]),
   midi.NoteOnEvent(tick=821200, channel=0, data=[4, 100]),
   midi.NoteOffEvent(tick=821300, channel=0, data=[4, 0]),
   midi.NoteOnEvent(tick=821400, channel=0, data=[36, 100]),
   midi.NoteOffEvent(tick=821500, channel=0, data=[36, 0]),
   midi.NoteOnEvent(tick=821600, channel=0, data=[0, 100]),
   midi.NoteOffEvent(tick=821700, channel=0, data=[0, 0]),
   midi.NoteOnEvent(tick=821800, channel=0, data=[18, 100]),
   midi.NoteOffEvent(tick=821900, channel=0, data=[18, 0]),
   midi.NoteOnEvent(tick=822000, channel=0, data=[18, 100]),
   midi.NoteOffEvent(tick=822100, channel=0, data=[18, 0]),
   midi.NoteOnEvent(tick=822200, channel=0, data=[8, 100]),
   midi.NoteOffEvent(tick=822300, channel=0, data=[8, 0]),
   midi.NoteOnEvent(tick=822400, channel=0, data=[6, 100]),
   midi.NoteOffEvent(tick=822500, channel=0, data=[6, 0]),
   midi.NoteOnEvent(tick=822600, channel=0, data=[13, 100]),
   midi.NoteOffEvent(tick=822700, channel=0, data=[13, 0]),
   midi.NoteOnEvent(tick=822800, channel=0, data=[12, 100]),
   midi.NoteOffEvent(tick=822900, channel=0, data=[12, 0]),
   midi.NoteOnEvent(tick=823000, channel=0, data=[4, 100]),
   midi.NoteOffEvent(tick=823100, channel=0, data=[4, 0]),
   midi.NoteOnEvent(tick=823200, channel=0, data=[13, 100]),
   midi.NoteOffEvent(tick=823300, channel=0, data=[13, 0]),
   midi.NoteOnEvent(tick=823400, channel=0, data=[19, 100]),
   midi.NoteOffEvent(tick=823500, channel=0, data=[19, 0]),
   midi.NoteOnEvent(tick=823600, channel=0, data=[36, 100]),
   midi.NoteOffEvent(tick=823700, channel=0, data=[36, 0]),
   midi.NoteOnEvent(tick=823800, channel=0, data=[14, 100]),
   midi.NoteOffEvent(tick=823900, channel=0, data=[14, 0]),
   midi.NoteOnEvent(tick=824000, channel=0, data=[15, 100]),
   midi.NoteOffEvent(tick=824100, channel=0, data=[15, 0]),
   midi.NoteOnEvent(tick=824200, channel=0, data=[4, 100]),
   midi.NoteOffEvent(tick=824300, channel=0, data=[4, 0]),
   midi.NoteOnEvent(tick=824400, channel=0, data=[17, 100]),
   midi.NoteOffEvent(tick=824500, channel=0, data=[17, 0]),
   midi.NoteOnEvent(tick=824600, channel=0, data=[0, 100]),
   midi.NoteOffEvent(tick=824700, channel=0, data=[0, 0]),
   midi.NoteOnEvent(tick=824800, channel=0, data=[19, 100]),
   midi.NoteOffEvent(tick=824900, channel=0, data=[19, 0]),
   midi.NoteOnEvent(tick=825000, channel=0, data=[14, 100]),
   midi.NoteOffEvent(tick=825100, channel=0, data=[14, 0]),
   midi.NoteOnEvent(tick=825200, channel=0, data=[17, 100]),
   midi.NoteOffEvent(tick=825300, channel=0, data=[17, 0]),
   midi.NoteOnEvent(tick=825400, channel=0, data=[36, 100]),
   midi.NoteOffEvent(tick=825500, channel=0, data=[36, 0]),
   midi.NoteOnEvent(tick=825600, channel=0, data=[49, 100]),
   midi.NoteOffEvent(tick=825700, channel=0, data=[49, 0]),
   midi.NoteOnEvent(tick=825800, channel=0, data=[69, 100]),
   midi.NoteOffEvent(tick=825900, channel=0, data=[69, 0]),
   midi.NoteOnEvent(tick=826000, channel=0, data=[50, 100]),
   midi.NoteOffEvent(tick=826100, channel=0, data=[50, 0]),
   midi.NoteOnEvent(tick=826200, channel=0, data=[56, 100]),
   midi.NoteOffEvent(tick=826300, channel=0, data=[56, 0]),
   midi.NoteOnEvent(tick=826400, channel=0, data=[36, 100]),
   midi.NoteOffEvent(tick=826500, channel=0, data=[36, 0]),
   midi.NoteOnEvent(tick=826600, channel=0, data=[36, 100]),
   midi.NoteOffEvent(tick=826700, channel=0, data=[36, 0]),
   midi.NoteOnEvent(tick=826800, channel=0, data=[36, 100]),
   midi.NoteOffEvent(tick=826900, channel=0, data=[36, 0]),
   midi.NoteOnEvent(tick=827000, channel=0, data=[36, 100]),
   midi.NoteOffEvent(tick=827100, channel=0, data=[36, 0]),
   midi.NoteOnEvent(tick=827200, channel=0, data=[19, 100]),
   midi.NoteOffEvent(tick=827300, channel=0, data=[19, 0]),
   midi.NoteOnEvent(tick=827400, channel=0, data=[7, 100]),
   midi.NoteOffEvent(tick=827500, channel=0, data=[7, 0]),
   midi.NoteOnEvent(tick=827600, channel=0, data=[4, 100]),
   midi.NoteOffEvent(tick=827700, channel=0, data=[4, 0]),
   midi.NoteOnEvent(tick=827800, channel=0, data=[36, 100]),
   midi.NoteOffEvent(tick=827900, channel=0, data=[36, 0]),
   midi.NoteOnEvent(tick=828000, channel=0, data=[0, 100]),
   midi.NoteOffEvent(tick=828100, channel=0, data=[0, 0]),
   midi.NoteOnEvent(tick=828200, channel=0, data=[18, 100]),
   midi.NoteOffEvent(tick=828300, channel=0, data=[18, 0]),
   midi.NoteOnEvent(tick=828400, channel=0, data=[18, 100]),
   midi.NoteOffEvent(tick=828500, channel=0, data=[18, 0]),
   midi.NoteOnEvent(tick=828600, channel=0, data=[8, 100]),
   midi.NoteOffEvent(tick=828700, channel=0, data=[8, 0]),
   midi.NoteOnEvent(tick=828800, channel=0, data=[6, 100]),
   midi.NoteOffEvent(tick=828900, channel=0, data=[6, 0]),
   midi.NoteOnEvent(tick=829000, channel=0, data=[13, 100]),
   midi.NoteOffEvent(tick=829100, channel=0, data=[13, 0]),
   midi.NoteOnEvent(tick=829200, channel=0, data=[12, 100]),
   midi.NoteOffEvent(tick=829300, channel=0, data=[12, 0]),
   midi.NoteOnEvent(tick=829400, channel=0, data=[4, 100]),
   midi.NoteOffEvent(tick=829500, channel=0, data=[4, 0]),
   midi.NoteOnEvent(tick=829600, channel=0, data=[13, 100]),
   midi.NoteOffEvent(tick=829700, channel=0, data=[13, 0]),
   midi.NoteOnEvent(tick=829800, channel=0, data=[19, 100]),
   midi.NoteOffEvent(tick=829900, channel=0, data=[19, 0]),
   midi.NoteOnEvent(tick=830000, channel=0, data=[36, 100]),
   midi.NoteOffEvent(tick=830100, channel=0, data=[36, 0]),
   midi.NoteOnEvent(tick=830200, channel=0, data=[14, 100]),
   midi.NoteOffEvent(tick=830300, channel=0, data=[14, 0]),
   midi.NoteOnEvent(tick=830400, channel=0, data=[15, 100]),
   midi.NoteOffEvent(tick=830500, channel=0, data=[15, 0]),
   midi.NoteOnEvent(tick=830600, channel=0, data=[4, 100]),
   midi.NoteOffEvent(tick=830700, channel=0, data=[4, 0]),
   midi.NoteOnEvent(tick=830800, channel=0, data=[17, 100]),
   midi.NoteOffEvent(tick=830900, channel=0, data=[17, 0]),
   midi.NoteOnEvent(tick=831000, channel=0, data=[0, 100]),
   midi.NoteOffEvent(tick=831100, channel=0, data=[0, 0]),
   midi.NoteOnEvent(tick=831200, channel=0, data=[19, 100]),
   midi.NoteOffEvent(tick=831300, channel=0, data=[19, 0]),
   midi.NoteOnEvent(tick=831400, channel=0, data=[14, 100]),
   midi.NoteOffEvent(tick=831500, channel=0, data=[14, 0]),
   midi.NoteOnEvent(tick=831600, channel=0, data=[17, 100]),
   midi.NoteOffEvent(tick=831700, channel=0, data=[17, 0]),
   midi.NoteOnEvent(tick=831800, channel=0, data=[36, 100]),
   midi.NoteOffEvent(tick=831900, channel=0, data=[36, 0]),
   midi.NoteOnEvent(tick=832000, channel=0, data=[49, 100]),
   midi.NoteOffEvent(tick=832100, channel=0, data=[49, 0]),
   midi.NoteOnEvent(tick=832200, channel=0, data=[69, 100]),
   midi.NoteOffEvent(tick=832300, channel=0, data=[69, 0]),
   midi.NoteOnEvent(tick=832400, channel=0, data=[50, 100]),
   midi.NoteOffEvent(tick=832500, channel=0, data=[50, 0]),
   midi.NoteOnEvent(tick=832600, channel=0, data=[36, 100]),
   midi.NoteOffEvent(tick=832700, channel=0, data=[36, 0]),
   midi.NoteOnEvent(tick=832800, channel=0, data=[0, 100]),
   midi.NoteOffEvent(tick=832900, channel=0, data=[0, 0]),
   midi.NoteOnEvent(tick=833000, channel=0, data=[18, 100]),
   midi.NoteOffEvent(tick=833100, channel=0, data=[18, 0]),
   midi.NoteOnEvent(tick=833200, channel=0, data=[18, 100]),
   midi.NoteOffEvent(tick=833300, channel=0, data=[18, 0]),
   midi.NoteOnEvent(tick=833400, channel=0, data=[8, 100]),
   midi.NoteOffEvent(tick=833500, channel=0, data=[8, 0]),
   midi.NoteOnEvent(tick=833600, channel=0, data=[6, 100]),
   midi.NoteOffEvent(tick=833700, channel=0, data=[6, 0]),
   midi.NoteOnEvent(tick=833800, channel=0, data=[13, 100]),
   midi.NoteOffEvent(tick=833900, channel=0, data=[13, 0]),
   midi.NoteOnEvent(tick=834000, channel=0, data=[18, 100]),
   midi.NoteOffEvent(tick=834100, channel=0, data=[18, 0]),
   midi.NoteOnEvent(tick=834200, channel=0, data=[36, 100]),
   midi.NoteOffEvent(tick=834300, channel=0, data=[36, 0]),
   midi.NoteOnEvent(tick=834400, channel=0, data=[21, 100]),
   midi.NoteOffEvent(tick=834500, channel=0, data=[21, 0]),
   midi.NoteOnEvent(tick=834600, channel=0, data=[0, 100]),
   midi.NoteOffEvent(tick=834700, channel=0, data=[0, 0]),
   midi.NoteOnEvent(tick=834800, channel=0, data=[11, 100]),
   midi.NoteOffEvent(tick=834900, channel=0, data=[11, 0]),
   midi.NoteOnEvent(tick=835000, channel=0, data=[20, 100]),
   midi.NoteOffEvent(tick=835100, channel=0, data=[20, 0]),
   midi.NoteOnEvent(tick=835200, channel=0, data=[4, 100]),
   midi.NoteOffEvent(tick=835300, channel=0, data=[4, 0]),
   midi.NoteOnEvent(tick=835400, channel=0, data=[18, 100]),
   midi.NoteOffEvent(tick=835500, channel=0, data=[18, 0]),
   midi.NoteOnEvent(tick=835600, channel=0, data=[36, 100]),
   midi.NoteOffEvent(tick=835700, channel=0, data=[36, 0]),
   midi.NoteOnEvent(tick=835800, channel=0, data=[19, 100]),
   midi.NoteOffEvent(tick=835900, channel=0, data=[19, 0]),
   midi.NoteOnEvent(tick=836000, channel=0, data=[14, 100]),
   midi.NoteOffEvent(tick=836100, channel=0, data=[14, 0]),
   midi.NoteOnEvent(tick=836200, channel=0, data=[36, 100]),
   midi.NoteOffEvent(tick=836300, channel=0, data=[36, 0]),
   midi.NoteOnEvent(tick=836400, channel=0, data=[21, 100]),
   midi.NoteOffEvent(tick=836500, channel=0, data=[21, 0]),
   midi.NoteOnEvent(tick=836600, channel=0, data=[0, 100]),
   midi.NoteOffEvent(tick=836700, channel=0, data=[0, 0]),
   midi.NoteOnEvent(tick=836800, channel=0, data=[17, 100]),
   midi.NoteOffEvent(tick=836900, channel=0, data=[17, 0]),
   midi.NoteOnEvent(tick=837000, channel=0, data=[8, 100]),
   midi.NoteOffEvent(tick=837100, channel=0, data=[8, 0]),
   midi.NoteOnEvent(tick=837200, channel=0, data=[0, 100]),
   midi.NoteOffEvent(tick=837300, channel=0, data=[0, 0]),
   midi.NoteOnEvent(tick=837400, channel=0, data=[1, 100]),
   midi.NoteOffEvent(tick=837500, channel=0, data=[1, 0]),
   midi.NoteOnEvent(tick=837600, channel=0, data=[11, 100]),
   midi.NoteOffEvent(tick=837700, channel=0, data=[11, 0]),
   midi.NoteOnEvent(tick=837800, channel=0, data=[4, 100]),
   midi.NoteOffEvent(tick=837900, channel=0, data=[4, 0]),
   midi.NoteOnEvent(tick=838000, channel=0, data=[18, 100]),
   midi.NoteOffEvent(tick=838100, channel=0, data=[18, 0]),
   midi.NoteOnEvent(tick=838200, channel=0, data=[37, 100]),
   midi.NoteOffEvent(tick=838300, channel=0, data=[37, 0]),
   midi.NoteOnEvent(tick=838400, channel=0, data=[36, 100]),
   midi.NoteOffEvent(tick=838500, channel=0, data=[36, 0]),
   midi.NoteOnEvent(tick=838600, channel=0, data=[8, 100]),
   midi.NoteOffEvent(tick=838700, channel=0, data=[8, 0]),
   midi.NoteOnEvent(tick=838800, channel=0, data=[5, 100]),
   midi.NoteOffEvent(tick=838900, channel=0, data=[5, 0]),
   midi.NoteOnEvent(tick=839000, channel=0, data=[36, 100]),
   midi.NoteOffEvent(tick=839100, channel=0, data=[36, 0]),
   midi.NoteOnEvent(tick=839200, channel=0, data=[19, 100]),
   midi.NoteOffEvent(tick=839300, channel=0, data=[19, 0]),
   midi.NoteOnEvent(tick=839400, channel=0, data=[7, 100]),
   midi.NoteOffEvent(tick=839500, channel=0, data=[7, 0]),
   midi.NoteOnEvent(tick=839600, channel=0, data=[4, 100]),
   midi.NoteOffEvent(tick=839700, channel=0, data=[4, 0]),
   midi.NoteOnEvent(tick=839800, channel=0, data=[36, 100]),
   midi.NoteOffEvent(tick=839900, channel=0, data=[36, 0]),
   midi.NoteOnEvent(tick=840000, channel=0, data=[21, 100]),
   midi.NoteOffEvent(tick=840100, channel=0, data=[21, 0]),
   midi.NoteOnEvent(tick=840200, channel=0, data=[0, 100]),
   midi.NoteOffEvent(tick=840300, channel=0, data=[0, 0]),
   midi.NoteOnEvent(tick=840400, channel=0, data=[17, 100]),
   midi.NoteOffEvent(tick=840500, channel=0, data=[17, 0]),
   midi.NoteOnEvent(tick=840600, channel=0, data=[8, 100]),
   midi.NoteOffEvent(tick=840700, channel=0, data=[8, 0]),
   midi.NoteOnEvent(tick=840800, channel=0, data=[0, 100]),
   midi.NoteOffEvent(tick=840900, channel=0, data=[0, 0]),
   midi.NoteOnEvent(tick=841000, channel=0, data=[1, 100]),
   midi.NoteOffEvent(tick=841100, channel=0, data=[1, 0]),
   midi.NoteOnEvent(tick=841200, channel=0, data=[11, 100]),
   midi.NoteOffEvent(tick=841300, channel=0, data=[11, 0]),
   midi.NoteOnEvent(tick=841400, channel=0, data=[4, 100]),
   midi.NoteOffEvent(tick=841500, channel=0, data=[4, 0]),
   midi.NoteOnEvent(tick=841600, channel=0, data=[36, 100]),
   midi.NoteOffEvent(tick=841700, channel=0, data=[36, 0]),
   midi.NoteOnEvent(tick=841800, channel=0, data=[56, 100]),
   midi.NoteOffEvent(tick=841900, channel=0, data=[56, 0]),
   midi.NoteOnEvent(tick=842000, channel=0, data=[36, 100]),
   midi.NoteOffEvent(tick=842100, channel=0, data=[36, 0]),
   midi.NoteOnEvent(tick=842200, channel=0, data=[36, 100]),
   midi.NoteOffEvent(tick=842300, channel=0, data=[36, 0]),
   midi.NoteOnEvent(tick=842400, channel=0, data=[36, 100]),
   midi.NoteOffEvent(tick=842500, channel=0, data=[36, 0]),
   midi.NoteOnEvent(tick=842600, channel=0, data=[36, 100]),
   midi.NoteOffEvent(tick=842700, channel=0, data=[36, 0]),
   midi.NoteOnEvent(tick=842800, channel=0, data=[0, 100]),
   midi.NoteOffEvent(tick=842900, channel=0, data=[0, 0]),
   midi.NoteOnEvent(tick=843000, channel=0, data=[11, 100]),
   midi.NoteOffEvent(tick=843100, channel=0, data=[11, 0]),
   midi.NoteOnEvent(tick=843200, channel=0, data=[17, 100]),
   midi.NoteOffEvent(tick=843300, channel=0, data=[17, 0]),
   midi.NoteOnEvent(tick=843400, channel=0, data=[4, 100]),
   midi.NoteOffEvent(tick=843500, channel=0, data=[4, 0]),
   midi.NoteOnEvent(tick=843600, channel=0, data=[0, 100]),
   midi.NoteOffEvent(tick=843700, channel=0, data=[0, 0]),
   midi.NoteOnEvent(tick=843800, channel=0, data=[3, 100]),
   midi.NoteOffEvent(tick=843900, channel=0, data=[3, 0]),
   midi.NoteOnEvent(tick=844000, channel=0, data=[24, 100]),
   midi.NoteOffEvent(tick=844100, channel=0, data=[24, 0]),
   midi.NoteOnEvent(tick=844200, channel=0, data=[36, 100]),
   midi.NoteOffEvent(tick=844300, channel=0, data=[36, 0]),
   midi.NoteOnEvent(tick=844400, channel=0, data=[7, 100]),
   midi.NoteOffEvent(tick=844500, channel=0, data=[7, 0]),
   midi.NoteOnEvent(tick=844600, channel=0, data=[0, 100]),
   midi.NoteOffEvent(tick=844700, channel=0, data=[0, 0]),
   midi.NoteOnEvent(tick=844800, channel=0, data=[18, 100]),
   midi.NoteOffEvent(tick=844900, channel=0, data=[18, 0]),
   midi.NoteOnEvent(tick=845000, channel=0, data=[36, 100]),
   midi.NoteOffEvent(tick=845100, channel=0, data=[36, 0]),
   midi.NoteOnEvent(tick=845200, channel=0, data=[0, 100]),
   midi.NoteOffEvent(tick=845300, channel=0, data=[0, 0]),
   midi.NoteOnEvent(tick=845400, channel=0, data=[36, 100]),
   midi.NoteOffEvent(tick=845500, channel=0, data=[36, 0]),
   midi.NoteOnEvent(tick=845600, channel=0, data=[21, 100]),
   midi.NoteOffEvent(tick=845700, channel=0, data=[21, 0]),
   midi.NoteOnEvent(tick=845800, channel=0, data=[0, 100]),
   midi.NoteOffEvent(tick=845900, channel=0, data=[0, 0]),
   midi.NoteOnEvent(tick=846000, channel=0, data=[11, 100]),
   midi.NoteOffEvent(tick=846100, channel=0, data=[11, 0]),
   midi.NoteOnEvent(tick=846200, channel=0, data=[20, 100]),
   midi.NoteOffEvent(tick=846300, channel=0, data=[20, 0]),
   midi.NoteOnEvent(tick=846400, channel=0, data=[4, 100]),
   midi.NoteOffEvent(tick=846500, channel=0, data=[4, 0]),
   midi.NoteOnEvent(tick=846600, channel=0, data=[38, 100]),
   midi.NoteOffEvent(tick=846700, channel=0, data=[38, 0]),
   midi.NoteOnEvent(tick=846800, channel=0, data=[36, 100]),
   midi.NoteOffEvent(tick=846900, channel=0, data=[36, 0]),
   midi.NoteOnEvent(tick=847000, channel=0, data=[19, 100]),
   midi.NoteOffEvent(tick=847100, channel=0, data=[19, 0]),
   midi.NoteOnEvent(tick=847200, channel=0, data=[7, 100]),
   midi.NoteOffEvent(tick=847300, channel=0, data=[7, 0]),
   midi.NoteOnEvent(tick=847400, channel=0, data=[4, 100]),
   midi.NoteOffEvent(tick=847500, channel=0, data=[4, 0]),
   midi.NoteOnEvent(tick=847600, channel=0, data=[36, 100]),
   midi.NoteOffEvent(tick=847700, channel=0, data=[36, 0]),
   midi.NoteOnEvent(tick=847800, channel=0, data=[0, 100]),
   midi.NoteOffEvent(tick=847900, channel=0, data=[0, 0]),
   midi.NoteOnEvent(tick=848000, channel=0, data=[18, 100]),
   midi.NoteOffEvent(tick=848100, channel=0, data=[18, 0]),
   midi.NoteOnEvent(tick=848200, channel=0, data=[18, 100]),
   midi.NoteOffEvent(tick=848300, channel=0, data=[18, 0]),
   midi.NoteOnEvent(tick=848400, channel=0, data=[8, 100]),
   midi.NoteOffEvent(tick=848500, channel=0, data=[8, 0]),
   midi.NoteOnEvent(tick=848600, channel=0, data=[6, 100]),
   midi.NoteOffEvent(tick=848700, channel=0, data=[6, 0]),
   midi.NoteOnEvent(tick=848800, channel=0, data=[13, 100]),
   midi.NoteOffEvent(tick=848900, channel=0, data=[13, 0]),
   midi.NoteOnEvent(tick=849000, channel=0, data=[12, 100]),
   midi.NoteOffEvent(tick=849100, channel=0, data=[12, 0]),
   midi.NoteOnEvent(tick=849200, channel=0, data=[4, 100]),
   midi.NoteOffEvent(tick=849300, channel=0, data=[4, 0]),
   midi.NoteOnEvent(tick=849400, channel=0, data=[13, 100]),
   midi.NoteOffEvent(tick=849500, channel=0, data=[13, 0]),
   midi.NoteOnEvent(tick=849600, channel=0, data=[19, 100]),
   midi.NoteOffEvent(tick=849700, channel=0, data=[19, 0]),
   midi.NoteOnEvent(tick=849800, channel=0, data=[36, 100]),
   midi.NoteOffEvent(tick=849900, channel=0, data=[36, 0]),
   midi.NoteOnEvent(tick=850000, channel=0, data=[14, 100]),
   midi.NoteOffEvent(tick=850100, channel=0, data=[14, 0]),
   midi.NoteOnEvent(tick=850200, channel=0, data=[15, 100]),
   midi.NoteOffEvent(tick=850300, channel=0, data=[15, 0]),
   midi.NoteOnEvent(tick=850400, channel=0, data=[4, 100]),
   midi.NoteOffEvent(tick=850500, channel=0, data=[4, 0]),
   midi.NoteOnEvent(tick=850600, channel=0, data=[17, 100]),
   midi.NoteOffEvent(tick=850700, channel=0, data=[17, 0]),
   midi.NoteOnEvent(tick=850800, channel=0, data=[0, 100]),
   midi.NoteOffEvent(tick=850900, channel=0, data=[0, 0]),
   midi.NoteOnEvent(tick=851000, channel=0, data=[19, 100]),
   midi.NoteOffEvent(tick=851100, channel=0, data=[19, 0]),
   midi.NoteOnEvent(tick=851200, channel=0, data=[14, 100]),
   midi.NoteOffEvent(tick=851300, channel=0, data=[14, 0]),
   midi.NoteOnEvent(tick=851400, channel=0, data=[17, 100]),
   midi.NoteOffEvent(tick=851500, channel=0, data=[17, 0]),
   midi.NoteOnEvent(tick=851600, channel=0, data=[36, 100]),
   midi.NoteOffEvent(tick=851700, channel=0, data=[36, 0]),
   midi.NoteOnEvent(tick=851800, channel=0, data=[49, 100]),
   midi.NoteOffEvent(tick=851900, channel=0, data=[49, 0]),
   midi.NoteOnEvent(tick=852000, channel=0, data=[69, 100]),
   midi.NoteOffEvent(tick=852100, channel=0, data=[69, 0]),
   midi.NoteOnEvent(tick=852200, channel=0, data=[50, 100]),
   midi.NoteOffEvent(tick=852300, channel=0, data=[50, 0]),
   midi.NoteOnEvent(tick=852400, channel=0, data=[36, 100]),
   midi.NoteOffEvent(tick=852500, channel=0, data=[36, 0]),
   midi.NoteOnEvent(tick=852600, channel=0, data=[17, 100]),
   midi.NoteOffEvent(tick=852700, channel=0, data=[17, 0]),
   midi.NoteOnEvent(tick=852800, channel=0, data=[4, 100]),
   midi.NoteOffEvent(tick=852900, channel=0, data=[4, 0]),
   midi.NoteOnEvent(tick=853000, channel=0, data=[15, 100]),
   midi.NoteOffEvent(tick=853100, channel=0, data=[15, 0]),
   midi.NoteOnEvent(tick=853200, channel=0, data=[11, 100]),
   midi.NoteOffEvent(tick=853300, channel=0, data=[11, 0]),
   midi.NoteOnEvent(tick=853400, channel=0, data=[0, 100]),
   midi.NoteOffEvent(tick=853500, channel=0, data=[0, 0]),
   midi.NoteOnEvent(tick=853600, channel=0, data=[2, 100]),
   midi.NoteOffEvent(tick=853700, channel=0, data=[2, 0]),
   midi.NoteOnEvent(tick=853800, channel=0, data=[4, 100]),
   midi.NoteOffEvent(tick=853900, channel=0, data=[4, 0]),
   midi.NoteOnEvent(tick=854000, channel=0, data=[18, 100]),
   midi.NoteOffEvent(tick=854100, channel=0, data=[18, 0]),
   midi.NoteOnEvent(tick=854200, channel=0, data=[36, 100]),
   midi.NoteOffEvent(tick=854300, channel=0, data=[36, 0]),
   midi.NoteOnEvent(tick=854400, channel=0, data=[19, 100]),
   midi.NoteOffEvent(tick=854500, channel=0, data=[19, 0]),
   midi.NoteOnEvent(tick=854600, channel=0, data=[7, 100]),
   midi.NoteOffEvent(tick=854700, channel=0, data=[7, 0]),
   midi.NoteOnEvent(tick=854800, channel=0, data=[4, 100]),
   midi.NoteOffEvent(tick=854900, channel=0, data=[4, 0]),
   midi.NoteOnEvent(tick=855000, channel=0, data=[36, 100]),
   midi.NoteOffEvent(tick=855100, channel=0, data=[36, 0]),
   midi.NoteOnEvent(tick=855200, channel=0, data=[21, 100]),
   midi.NoteOffEvent(tick=855300, channel=0, data=[21, 0]),
   midi.NoteOnEvent(tick=855400, channel=0, data=[0, 100]),
   midi.NoteOffEvent(tick=855500, channel=0, data=[0, 0]),
   midi.NoteOnEvent(tick=855600, channel=0, data=[11, 100]),
   midi.NoteOffEvent(tick=855700, channel=0, data=[11, 0]),
   midi.NoteOnEvent(tick=855800, channel=0, data=[20, 100]),
   midi.NoteOffEvent(tick=855900, channel=0, data=[20, 0]),
   midi.NoteOnEvent(tick=856000, channel=0, data=[4, 100]),
   midi.NoteOffEvent(tick=856100, channel=0, data=[4, 0]),
   midi.NoteOnEvent(tick=856200, channel=0, data=[36, 100]),
   midi.NoteOffEvent(tick=856300, channel=0, data=[36, 0]),
   midi.NoteOnEvent(tick=856400, channel=0, data=[56, 100]),
   midi.NoteOffEvent(tick=856500, channel=0, data=[56, 0]),
   midi.NoteOnEvent(tick=856600, channel=0, data=[36, 100]),
   midi.NoteOffEvent(tick=856700, channel=0, data=[36, 0]),
   midi.NoteOnEvent(tick=856800, channel=0, data=[36, 100]),
   midi.NoteOffEvent(tick=856900, channel=0, data=[36, 0]),
   midi.NoteOnEvent(tick=857000, channel=0, data=[36, 100]),
   midi.NoteOffEvent(tick=857100, channel=0, data=[36, 0]),
   midi.NoteOnEvent(tick=857200, channel=0, data=[36, 100]),
   midi.NoteOffEvent(tick=857300, channel=0, data=[36, 0]),
   midi.NoteOnEvent(tick=857400, channel=0, data=[22, 100]),
   midi.NoteOffEvent(tick=857500, channel=0, data=[22, 0]),
   midi.NoteOnEvent(tick=857600, channel=0, data=[8, 100]),
   midi.NoteOffEvent(tick=857700, channel=0, data=[8, 0]),
   midi.NoteOnEvent(tick=857800, channel=0, data=[19, 100]),
   midi.NoteOffEvent(tick=857900, channel=0, data=[19, 0]),
   midi.NoteOnEvent(tick=858000, channel=0, data=[7, 100]),
   midi.NoteOffEvent(tick=858100, channel=0, data=[7, 0]),
   midi.NoteOnEvent(tick=858200, channel=0, data=[14, 100]),
   midi.NoteOffEvent(tick=858300, channel=0, data=[14, 0]),
   midi.NoteOnEvent(tick=858400, channel=0, data=[20, 100]),
   midi.NoteOffEvent(tick=858500, channel=0, data=[20, 0]),
   midi.NoteOnEvent(tick=858600, channel=0, data=[19, 100]),
   midi.NoteOffEvent(tick=858700, channel=0, data=[19, 0]),
   midi.NoteOnEvent(tick=858800, channel=0, data=[36, 100]),
   midi.NoteOffEvent(tick=858900, channel=0, data=[36, 0]),
   midi.NoteOnEvent(tick=859000, channel=0, data=[22, 100]),
   midi.NoteOffEvent(tick=859100, channel=0, data=[22, 0]),
   midi.NoteOnEvent(tick=859200, channel=0, data=[0, 100]),
   midi.NoteOffEvent(tick=859300, channel=0, data=[0, 0]),
   midi.NoteOnEvent(tick=859400, channel=0, data=[17, 100]),
   midi.NoteOffEvent(tick=859500, channel=0, data=[17, 0]),
   midi.NoteOnEvent(tick=859600, channel=0, data=[13, 100]),
   midi.NoteOffEvent(tick=859700, channel=0, data=[13, 0]),
   midi.NoteOnEvent(tick=859800, channel=0, data=[8, 100]),
   midi.NoteOffEvent(tick=859900, channel=0, data=[8, 0]),
   midi.NoteOnEvent(tick=860000, channel=0, data=[13, 100]),
   midi.NoteOffEvent(tick=860100, channel=0, data=[13, 0]),
   midi.NoteOnEvent(tick=860200, channel=0, data=[6, 100]),
   midi.NoteOffEvent(tick=860300, channel=0, data=[6, 0]),
   midi.NoteOnEvent(tick=860400, channel=0, data=[37, 100]),
   midi.NoteOffEvent(tick=860500, channel=0, data=[37, 0]),
   midi.NoteOnEvent(tick=860600, channel=0, data=[56, 100]),
   midi.NoteOffEvent(tick=860700, channel=0, data=[56, 0]),
   midi.NoteOnEvent(tick=860800, channel=0, data=[56, 100]),
   midi.NoteOffEvent(tick=860900, channel=0, data=[56, 0]),
   midi.NoteOnEvent(tick=861000, channel=0, data=[56, 100]),
   midi.NoteOffEvent(tick=861100, channel=0, data=[56, 0]),
   midi.NoteOnEvent(tick=861200, channel=0, data=[36, 100]),
   midi.NoteOffEvent(tick=861300, channel=0, data=[36, 0]),
   midi.NoteOnEvent(tick=861400, channel=0, data=[36, 100]),
   midi.NoteOffEvent(tick=861500, channel=0, data=[36, 0]),
   midi.NoteOnEvent(tick=861600, channel=0, data=[36, 100]),
   midi.NoteOffEvent(tick=861700, channel=0, data=[36, 0]),
   midi.NoteOnEvent(tick=861800, channel=0, data=[36, 100]),
   midi.NoteOffEvent(tick=861900, channel=0, data=[36, 0]),
   midi.NoteOnEvent(tick=862000, channel=0, data=[19, 100]),
   midi.NoteOffEvent(tick=862100, channel=0, data=[19, 0]),
   midi.NoteOnEvent(tick=862200, channel=0, data=[7, 100]),
   midi.NoteOffEvent(tick=862300, channel=0, data=[7, 0]),
   midi.NoteOnEvent(tick=862400, channel=0, data=[4, 100]),
   midi.NoteOffEvent(tick=862500, channel=0, data=[4, 0]),
   midi.NoteOnEvent(tick=862600, channel=0, data=[36, 100]),
   midi.NoteOffEvent(tick=862700, channel=0, data=[36, 0]),
   midi.NoteOnEvent(tick=862800, channel=0, data=[5, 100]),
   midi.NoteOffEvent(tick=862900, channel=0, data=[5, 0]),
   midi.NoteOnEvent(tick=863000, channel=0, data=[14, 100]),
   midi.NoteOffEvent(tick=863100, channel=0, data=[14, 0]),
   midi.NoteOnEvent(tick=863200, channel=0, data=[11, 100]),
   midi.NoteOffEvent(tick=863300, channel=0, data=[11, 0]),
   midi.NoteOnEvent(tick=863400, channel=0, data=[11, 100]),
   midi.NoteOffEvent(tick=863500, channel=0, data=[11, 0]),
   midi.NoteOnEvent(tick=863600, channel=0, data=[14, 100]),
   midi.NoteOffEvent(tick=863700, channel=0, data=[14, 0]),
   midi.NoteOnEvent(tick=863800, channel=0, data=[22, 100]),
   midi.NoteOffEvent(tick=863900, channel=0, data=[22, 0]),
   midi.NoteOnEvent(tick=864000, channel=0, data=[8, 100]),
   midi.NoteOffEvent(tick=864100, channel=0, data=[8, 0]),
   midi.NoteOnEvent(tick=864200, channel=0, data=[13, 100]),
   midi.NoteOffEvent(tick=864300, channel=0, data=[13, 0]),
   midi.NoteOnEvent(tick=864400, channel=0, data=[6, 100]),
   midi.NoteOffEvent(tick=864500, channel=0, data=[6, 0]),
   midi.NoteOnEvent(tick=864600, channel=0, data=[36, 100]),
   midi.NoteOffEvent(tick=864700, channel=0, data=[36, 0]),
   midi.NoteOnEvent(tick=864800, channel=0, data=[18, 100]),
   midi.NoteOffEvent(tick=864900, channel=0, data=[18, 0]),
   midi.NoteOnEvent(tick=865000, channel=0, data=[19, 100]),
   midi.NoteOffEvent(tick=865100, channel=0, data=[19, 0]),
   midi.NoteOnEvent(tick=865200, channel=0, data=[0, 100]),
   midi.NoteOffEvent(tick=865300, channel=0, data=[0, 0]),
   midi.NoteOnEvent(tick=865400, channel=0, data=[19, 100]),
   midi.NoteOffEvent(tick=865500, channel=0, data=[19, 0]),
   midi.NoteOnEvent(tick=865600, channel=0, data=[4, 100]),
   midi.NoteOffEvent(tick=865700, channel=0, data=[4, 0]),
   midi.NoteOnEvent(tick=865800, channel=0, data=[12, 100]),
   midi.NoteOffEvent(tick=865900, channel=0, data=[12, 0]),
   midi.NoteOnEvent(tick=866000, channel=0, data=[4, 100]),
   midi.NoteOffEvent(tick=866100, channel=0, data=[4, 0]),
   midi.NoteOnEvent(tick=866200, channel=0, data=[13, 100]),
   midi.NoteOffEvent(tick=866300, channel=0, data=[13, 0]),
   midi.NoteOnEvent(tick=866400, channel=0, data=[19, 100]),
   midi.NoteOffEvent(tick=866500, channel=0, data=[19, 0]),
   midi.NoteOnEvent(tick=866600, channel=0, data=[36, 100]),
   midi.NoteOffEvent(tick=866700, channel=0, data=[36, 0]),
   midi.NoteOnEvent(tick=866800, channel=0, data=[0, 100]),
   midi.NoteOffEvent(tick=866900, channel=0, data=[0, 0]),
   midi.NoteOnEvent(tick=867000, channel=0, data=[18, 100]),
   midi.NoteOffEvent(tick=867100, channel=0, data=[18, 0]),
   midi.NoteOnEvent(tick=867200, channel=0, data=[18, 100]),
   midi.NoteOffEvent(tick=867300, channel=0, data=[18, 0]),
   midi.NoteOnEvent(tick=867400, channel=0, data=[8, 100]),
   midi.NoteOffEvent(tick=867500, channel=0, data=[8, 0]),
   midi.NoteOnEvent(tick=867600, channel=0, data=[6, 100]),
   midi.NoteOffEvent(tick=867700, channel=0, data=[6, 0]),
   midi.NoteOnEvent(tick=867800, channel=0, data=[13, 100]),
   midi.NoteOffEvent(tick=867900, channel=0, data=[13, 0]),
   midi.NoteOnEvent(tick=868000, channel=0, data=[18, 100]),
   midi.NoteOffEvent(tick=868100, channel=0, data=[18, 0]),
   midi.NoteOnEvent(tick=868200, channel=0, data=[36, 100]),
   midi.NoteOffEvent(tick=868300, channel=0, data=[36, 0]),
   midi.NoteOnEvent(tick=868400, channel=0, data=[19, 100]),
   midi.NoteOffEvent(tick=868500, channel=0, data=[19, 0]),
   midi.NoteOnEvent(tick=868600, channel=0, data=[7, 100]),
   midi.NoteOffEvent(tick=868700, channel=0, data=[7, 0]),
   midi.NoteOnEvent(tick=868800, channel=0, data=[4, 100]),
   midi.NoteOffEvent(tick=868900, channel=0, data=[4, 0]),
   midi.NoteOnEvent(tick=869000, channel=0, data=[36, 100]),
   midi.NoteOffEvent(tick=869100, channel=0, data=[36, 0]),
   midi.NoteOnEvent(tick=869200, channel=0, data=[8, 100]),
   midi.NoteOffEvent(tick=869300, channel=0, data=[8, 0]),
   midi.NoteOnEvent(tick=869400, channel=0, data=[13, 100]),
   midi.NoteOffEvent(tick=869500, channel=0, data=[13, 0]),
   midi.NoteOnEvent(tick=869600, channel=0, data=[19, 100]),
   midi.NoteOffEvent(tick=869700, channel=0, data=[19, 0]),
   midi.NoteOnEvent(tick=869800, channel=0, data=[4, 100]),
   midi.NoteOffEvent(tick=869900, channel=0, data=[4, 0]),
   midi.NoteOnEvent(tick=870000, channel=0, data=[6, 100]),
   midi.NoteOffEvent(tick=870100, channel=0, data=[6, 0]),
   midi.NoteOnEvent(tick=870200, channel=0, data=[4, 100]),
   midi.NoteOffEvent(tick=870300, channel=0, data=[4, 0]),
   midi.NoteOnEvent(tick=870400, channel=0, data=[17, 100]),
   midi.NoteOffEvent(tick=870500, channel=0, data=[17, 0]),
   midi.NoteOnEvent(tick=870600, channel=0, data=[36, 100]),
   midi.NoteOffEvent(tick=870700, channel=0, data=[36, 0]),
   midi.NoteOnEvent(tick=870800, channel=0, data=[21, 100]),
   midi.NoteOffEvent(tick=870900, channel=0, data=[21, 0]),
   midi.NoteOnEvent(tick=871000, channel=0, data=[0, 100]),
   midi.NoteOffEvent(tick=871100, channel=0, data=[0, 0]),
   midi.NoteOnEvent(tick=871200, channel=0, data=[11, 100]),
   midi.NoteOffEvent(tick=871300, channel=0, data=[11, 0]),
   midi.NoteOnEvent(tick=871400, channel=0, data=[20, 100]),
   midi.NoteOffEvent(tick=871500, channel=0, data=[20, 0]),
   midi.NoteOnEvent(tick=871600, channel=0, data=[4, 100]),
   midi.NoteOffEvent(tick=871700, channel=0, data=[4, 0]),
   midi.NoteOnEvent(tick=871800, channel=0, data=[36, 100]),
   midi.NoteOffEvent(tick=871900, channel=0, data=[36, 0]),
   midi.NoteOnEvent(tick=872000, channel=0, data=[32, 100]),
   midi.NoteOffEvent(tick=872100, channel=0, data=[32, 0]),
   midi.NoteOnEvent(tick=872200, channel=0, data=[36, 100]),
   midi.NoteOffEvent(tick=872300, channel=0, data=[36, 0]),
   midi.NoteOnEvent(tick=872400, channel=0, data=[19, 100]),
   midi.NoteOffEvent(tick=872500, channel=0, data=[19, 0]),
   midi.NoteOnEvent(tick=872600, channel=0, data=[14, 100]),
   midi.NoteOffEvent(tick=872700, channel=0, data=[14, 0]),
   midi.NoteOnEvent(tick=872800, channel=0, data=[36, 100]),
   midi.NoteOffEvent(tick=872900, channel=0, data=[36, 0]),
   midi.NoteOnEvent(tick=873000, channel=0, data=[19, 100]),
   midi.NoteOffEvent(tick=873100, channel=0, data=[19, 0]),
   midi.NoteOnEvent(tick=873200, channel=0, data=[7, 100]),
   midi.NoteOffEvent(tick=873300, channel=0, data=[7, 0]),
   midi.NoteOnEvent(tick=873400, channel=0, data=[4, 100]),
   midi.NoteOffEvent(tick=873500, channel=0, data=[4, 0]),
   midi.NoteOnEvent(tick=873600, channel=0, data=[36, 100]),
   midi.NoteOffEvent(tick=873700, channel=0, data=[36, 0]),
   midi.NoteOnEvent(tick=873800, channel=0, data=[74, 100]),
   midi.NoteOffEvent(tick=873900, channel=0, data=[74, 0]),
   midi.NoteOnEvent(tick=874000, channel=0, data=[0, 100]),
   midi.NoteOffEvent(tick=874100, channel=0, data=[0, 0]),
   midi.NoteOnEvent(tick=874200, channel=0, data=[36, 100]),
   midi.NoteOffEvent(tick=874300, channel=0, data=[36, 0]),
   midi.NoteOnEvent(tick=874400, channel=0, data=[21, 100]),
   midi.NoteOffEvent(tick=874500, channel=0, data=[21, 0]),
   midi.NoteOnEvent(tick=874600, channel=0, data=[0, 100]),
   midi.NoteOffEvent(tick=874700, channel=0, data=[0, 0]),
   midi.NoteOnEvent(tick=874800, channel=0, data=[17, 100]),
   midi.NoteOffEvent(tick=874900, channel=0, data=[17, 0]),
   midi.NoteOnEvent(tick=875000, channel=0, data=[8, 100]),
   midi.NoteOffEvent(tick=875100, channel=0, data=[8, 0]),
   midi.NoteOnEvent(tick=875200, channel=0, data=[0, 100]),
   midi.NoteOffEvent(tick=875300, channel=0, data=[0, 0]),
   midi.NoteOnEvent(tick=875400, channel=0, data=[1, 100]),
   midi.NoteOffEvent(tick=875500, channel=0, data=[1, 0]),
   midi.NoteOnEvent(tick=875600, channel=0, data=[11, 100]),
   midi.NoteOffEvent(tick=875700, channel=0, data=[11, 0]),
   midi.NoteOnEvent(tick=875800, channel=0, data=[4, 100]),
   midi.NoteOffEvent(tick=875900, channel=0, data=[4, 0]),
   midi.NoteOnEvent(tick=876000, channel=0, data=[46, 100]),
   midi.NoteOffEvent(tick=876100, channel=0, data=[46, 0]),
   midi.NoteOnEvent(tick=876200, channel=0, data=[56, 100]),
   midi.NoteOffEvent(tick=876300, channel=0, data=[56, 0]),
   midi.NoteOnEvent(tick=876400, channel=0, data=[56, 100]),
   midi.NoteOffEvent(tick=876500, channel=0, data=[56, 0]),
   midi.NoteOnEvent(tick=876600, channel=0, data=[56, 100]),
   midi.NoteOffEvent(tick=876700, channel=0, data=[56, 0]),
   midi.NoteOnEvent(tick=876800, channel=0, data=[36, 100]),
   midi.NoteOffEvent(tick=876900, channel=0, data=[36, 0]),
   midi.NoteOnEvent(tick=877000, channel=0, data=[36, 100]),
   midi.NoteOffEvent(tick=877100, channel=0, data=[36, 0]),
   midi.NoteOnEvent(tick=877200, channel=0, data=[36, 100]),
   midi.NoteOffEvent(tick=877300, channel=0, data=[36, 0]),
   midi.NoteOnEvent(tick=877400, channel=0, data=[36, 100]),
   midi.NoteOffEvent(tick=877500, channel=0, data=[36, 0]),
   midi.NoteOnEvent(tick=877600, channel=0, data=[36, 100]),
   midi.NoteOffEvent(tick=877700, channel=0, data=[36, 0]),
   midi.NoteOnEvent(tick=877800, channel=0, data=[36, 100]),
   midi.NoteOffEvent(tick=877900, channel=0, data=[36, 0]),
   midi.NoteOnEvent(tick=878000, channel=0, data=[36, 100]),
   midi.NoteOffEvent(tick=878100, channel=0, data=[36, 0]),
   midi.NoteOnEvent(tick=878200, channel=0, data=[36, 100]),
   midi.NoteOffEvent(tick=878300, channel=0, data=[36, 0]),
   midi.NoteOnEvent(tick=878400, channel=0, data=[74, 100]),
   midi.NoteOffEvent(tick=878500, channel=0, data=[74, 0]),
   midi.NoteOnEvent(tick=878600, channel=0, data=[0, 100]),
   midi.NoteOffEvent(tick=878700, channel=0, data=[0, 0]),
   midi.NoteOnEvent(tick=878800, channel=0, data=[36, 100]),
   midi.NoteOffEvent(tick=878900, channel=0, data=[36, 0]),
   midi.NoteOnEvent(tick=879000, channel=0, data=[69, 100]),
   midi.NoteOffEvent(tick=879100, channel=0, data=[69, 0]),
   midi.NoteOnEvent(tick=879200, channel=0, data=[36, 100]),
   midi.NoteOffEvent(tick=879300, channel=0, data=[36, 0]),
   midi.NoteOnEvent(tick=879400, channel=0, data=[32, 100]),
   midi.NoteOffEvent(tick=879500, channel=0, data=[32, 0]),
   midi.NoteOnEvent(tick=879600, channel=0, data=[36, 100]),
   midi.NoteOffEvent(tick=879700, channel=0, data=[36, 0]),
   midi.NoteOnEvent(tick=879800, channel=0, data=[56, 100]),
   midi.NoteOffEvent(tick=879900, channel=0, data=[56, 0]),
   midi.NoteOnEvent(tick=880000, channel=0, data=[56, 100]),
   midi.NoteOffEvent(tick=880100, channel=0, data=[56, 0]),
   midi.NoteOnEvent(tick=880200, channel=0, data=[36, 100]),
   midi.NoteOffEvent(tick=880300, channel=0, data=[36, 0]),
   midi.NoteOnEvent(tick=880400, channel=0, data=[36, 100]),
   midi.NoteOffEvent(tick=880500, channel=0, data=[36, 0]),
   midi.NoteOnEvent(tick=880600, channel=0, data=[36, 100]),
   midi.NoteOffEvent(tick=880700, channel=0, data=[36, 0]),
   midi.NoteOnEvent(tick=880800, channel=0, data=[36, 100]),
   midi.NoteOffEvent(tick=880900, channel=0, data=[36, 0]),
   midi.NoteOnEvent(tick=881000, channel=0, data=[19, 100]),
   midi.NoteOffEvent(tick=881100, channel=0, data=[19, 0]),
   midi.NoteOnEvent(tick=881200, channel=0, data=[14, 100]),
   midi.NoteOffEvent(tick=881300, channel=0, data=[14, 0]),
   midi.NoteOnEvent(tick=881400, channel=0, data=[36, 100]),
   midi.NoteOffEvent(tick=881500, channel=0, data=[36, 0]),
   midi.NoteOnEvent(tick=881600, channel=0, data=[0, 100]),
   midi.NoteOffEvent(tick=881700, channel=0, data=[0, 0]),
   midi.NoteOnEvent(tick=881800, channel=0, data=[18, 100]),
   midi.NoteOffEvent(tick=881900, channel=0, data=[18, 0]),
   midi.NoteOnEvent(tick=882000, channel=0, data=[18, 100]),
   midi.NoteOffEvent(tick=882100, channel=0, data=[18, 0]),
   midi.NoteOnEvent(tick=882200, channel=0, data=[8, 100]),
   midi.NoteOffEvent(tick=882300, channel=0, data=[8, 0]),
   midi.NoteOnEvent(tick=882400, channel=0, data=[6, 100]),
   midi.NoteOffEvent(tick=882500, channel=0, data=[6, 0]),
   midi.NoteOnEvent(tick=882600, channel=0, data=[13, 100]),
   midi.NoteOffEvent(tick=882700, channel=0, data=[13, 0]),
   midi.NoteOnEvent(tick=882800, channel=0, data=[36, 100]),
   midi.NoteOffEvent(tick=882900, channel=0, data=[36, 0]),
   midi.NoteOnEvent(tick=883000, channel=0, data=[0, 100]),
   midi.NoteOffEvent(tick=883100, channel=0, data=[0, 0]),
   midi.NoteOnEvent(tick=883200, channel=0, data=[36, 100]),
   midi.NoteOffEvent(tick=883300, channel=0, data=[36, 0]),
   midi.NoteOnEvent(tick=883400, channel=0, data=[18, 100]),
   midi.NoteOffEvent(tick=883500, channel=0, data=[18, 0]),
   midi.NoteOnEvent(tick=883600, channel=0, data=[19, 100]),
   midi.NoteOffEvent(tick=883700, channel=0, data=[19, 0]),
   midi.NoteOnEvent(tick=883800, channel=0, data=[17, 100]),
   midi.NoteOffEvent(tick=883900, channel=0, data=[17, 0]),
   midi.NoteOnEvent(tick=884000, channel=0, data=[8, 100]),
   midi.NoteOffEvent(tick=884100, channel=0, data=[8, 0]),
   midi.NoteOnEvent(tick=884200, channel=0, data=[13, 100]),
   midi.NoteOffEvent(tick=884300, channel=0, data=[13, 0]),
   midi.NoteOnEvent(tick=884400, channel=0, data=[6, 100]),
   midi.NoteOffEvent(tick=884500, channel=0, data=[6, 0]),
   midi.NoteOnEvent(tick=884600, channel=0, data=[36, 100]),
   midi.NoteOffEvent(tick=884700, channel=0, data=[36, 0]),
   midi.NoteOnEvent(tick=884800, channel=0, data=[21, 100]),
   midi.NoteOffEvent(tick=884900, channel=0, data=[21, 0]),
   midi.NoteOnEvent(tick=885000, channel=0, data=[0, 100]),
   midi.NoteOffEvent(tick=885100, channel=0, data=[0, 0]),
   midi.NoteOnEvent(tick=885200, channel=0, data=[11, 100]),
   midi.NoteOffEvent(tick=885300, channel=0, data=[11, 0]),
   midi.NoteOnEvent(tick=885400, channel=0, data=[20, 100]),
   midi.NoteOffEvent(tick=885500, channel=0, data=[20, 0]),
   midi.NoteOnEvent(tick=885600, channel=0, data=[4, 100]),
   midi.NoteOffEvent(tick=885700, channel=0, data=[4, 0]),
   midi.NoteOnEvent(tick=885800, channel=0, data=[36, 100]),
   midi.NoteOffEvent(tick=885900, channel=0, data=[36, 0]),
   midi.NoteOnEvent(tick=886000, channel=0, data=[19, 100]),
   midi.NoteOffEvent(tick=886100, channel=0, data=[19, 0]),
   midi.NoteOnEvent(tick=886200, channel=0, data=[14, 100]),
   midi.NoteOffEvent(tick=886300, channel=0, data=[14, 0]),
   midi.NoteOnEvent(tick=886400, channel=0, data=[36, 100]),
   midi.NoteOffEvent(tick=886500, channel=0, data=[36, 0]),
   midi.NoteOnEvent(tick=886600, channel=0, data=[0, 100]),
   midi.NoteOffEvent(tick=886700, channel=0, data=[0, 0]),
   midi.NoteOnEvent(tick=886800, channel=0, data=[36, 100]),
   midi.NoteOffEvent(tick=886900, channel=0, data=[36, 0]),
   midi.NoteOnEvent(tick=887000, channel=0, data=[21, 100]),
   midi.NoteOffEvent(tick=887100, channel=0, data=[21, 0]),
   midi.NoteOnEvent(tick=887200, channel=0, data=[0, 100]),
   midi.NoteOffEvent(tick=887300, channel=0, data=[0, 0]),
   midi.NoteOnEvent(tick=887400, channel=0, data=[17, 100]),
   midi.NoteOffEvent(tick=887500, channel=0, data=[17, 0]),
   midi.NoteOnEvent(tick=887600, channel=0, data=[8, 100]),
   midi.NoteOffEvent(tick=887700, channel=0, data=[8, 0]),
   midi.NoteOnEvent(tick=887800, channel=0, data=[0, 100]),
   midi.NoteOffEvent(tick=887900, channel=0, data=[0, 0]),
   midi.NoteOnEvent(tick=888000, channel=0, data=[1, 100]),
   midi.NoteOffEvent(tick=888100, channel=0, data=[1, 0]),
   midi.NoteOnEvent(tick=888200, channel=0, data=[11, 100]),
   midi.NoteOffEvent(tick=888300, channel=0, data=[11, 0]),
   midi.NoteOnEvent(tick=888400, channel=0, data=[4, 100]),
   midi.NoteOffEvent(tick=888500, channel=0, data=[4, 0]),
   midi.NoteOnEvent(tick=888600, channel=0, data=[38, 100]),
   midi.NoteOffEvent(tick=888700, channel=0, data=[38, 0]),
   midi.NoteOnEvent(tick=888800, channel=0, data=[36, 100]),
   midi.NoteOffEvent(tick=888900, channel=0, data=[36, 0]),
   midi.NoteOnEvent(tick=889000, channel=0, data=[4, 100]),
   midi.NoteOffEvent(tick=889100, channel=0, data=[4, 0]),
   midi.NoteOnEvent(tick=889200, channel=0, data=[13, 100]),
   midi.NoteOffEvent(tick=889300, channel=0, data=[13, 0]),
   midi.NoteOnEvent(tick=889400, channel=0, data=[2, 100]),
   midi.NoteOffEvent(tick=889500, channel=0, data=[2, 0]),
   midi.NoteOnEvent(tick=889600, channel=0, data=[11, 100]),
   midi.NoteOffEvent(tick=889700, channel=0, data=[11, 0]),
   midi.NoteOnEvent(tick=889800, channel=0, data=[14, 100]),
   midi.NoteOffEvent(tick=889900, channel=0, data=[14, 0]),
   midi.NoteOnEvent(tick=890000, channel=0, data=[18, 100]),
   midi.NoteOffEvent(tick=890100, channel=0, data=[18, 0]),
   midi.NoteOnEvent(tick=890200, channel=0, data=[4, 100]),
   midi.NoteOffEvent(tick=890300, channel=0, data=[4, 0]),
   midi.NoteOnEvent(tick=890400, channel=0, data=[36, 100]),
   midi.NoteOffEvent(tick=890500, channel=0, data=[36, 0]),
   midi.NoteOnEvent(tick=890600, channel=0, data=[19, 100]),
   midi.NoteOffEvent(tick=890700, channel=0, data=[19, 0]),
   midi.NoteOnEvent(tick=890800, channel=0, data=[7, 100]),
   midi.NoteOffEvent(tick=890900, channel=0, data=[7, 0]),
   midi.NoteOnEvent(tick=891000, channel=0, data=[4, 100]),
   midi.NoteOffEvent(tick=891100, channel=0, data=[4, 0]),
   midi.NoteOnEvent(tick=891200, channel=0, data=[36, 100]),
   midi.NoteOffEvent(tick=891300, channel=0, data=[36, 0]),
   midi.NoteOnEvent(tick=891400, channel=0, data=[18, 100]),
   midi.NoteOffEvent(tick=891500, channel=0, data=[18, 0]),
   midi.NoteOnEvent(tick=891600, channel=0, data=[19, 100]),
   midi.NoteOffEvent(tick=891700, channel=0, data=[19, 0]),
   midi.NoteOnEvent(tick=891800, channel=0, data=[17, 100]),
   midi.NoteOffEvent(tick=891900, channel=0, data=[17, 0]),
   midi.NoteOnEvent(tick=892000, channel=0, data=[8, 100]),
   midi.NoteOffEvent(tick=892100, channel=0, data=[8, 0]),
   midi.NoteOnEvent(tick=892200, channel=0, data=[13, 100]),
   midi.NoteOffEvent(tick=892300, channel=0, data=[13, 0]),
   midi.NoteOnEvent(tick=892400, channel=0, data=[6, 100]),
   midi.NoteOffEvent(tick=892500, channel=0, data=[6, 0]),
   midi.NoteOnEvent(tick=892600, channel=0, data=[36, 100]),
   midi.NoteOffEvent(tick=892700, channel=0, data=[36, 0]),
   midi.NoteOnEvent(tick=892800, channel=0, data=[21, 100]),
   midi.NoteOffEvent(tick=892900, channel=0, data=[21, 0]),
   midi.NoteOnEvent(tick=893000, channel=0, data=[0, 100]),
   midi.NoteOffEvent(tick=893100, channel=0, data=[0, 0]),
   midi.NoteOnEvent(tick=893200, channel=0, data=[11, 100]),
   midi.NoteOffEvent(tick=893300, channel=0, data=[11, 0]),
   midi.NoteOnEvent(tick=893400, channel=0, data=[20, 100]),
   midi.NoteOffEvent(tick=893500, channel=0, data=[20, 0]),
   midi.NoteOnEvent(tick=893600, channel=0, data=[4, 100]),
   midi.NoteOffEvent(tick=893700, channel=0, data=[4, 0]),
   midi.NoteOnEvent(tick=893800, channel=0, data=[36, 100]),
   midi.NoteOffEvent(tick=893900, channel=0, data=[36, 0]),
   midi.NoteOnEvent(tick=894000, channel=0, data=[8, 100]),
   midi.NoteOffEvent(tick=894100, channel=0, data=[8, 0]),
   midi.NoteOnEvent(tick=894200, channel=0, data=[13, 100]),
   midi.NoteOffEvent(tick=894300, channel=0, data=[13, 0]),
   midi.NoteOnEvent(tick=894400, channel=0, data=[56, 100]),
   midi.NoteOffEvent(tick=894500, channel=0, data=[56, 0]),
   midi.NoteOnEvent(tick=894600, channel=0, data=[36, 100]),
   midi.NoteOffEvent(tick=894700, channel=0, data=[36, 0]),
   midi.NoteOnEvent(tick=894800, channel=0, data=[36, 100]),
   midi.NoteOffEvent(tick=894900, channel=0, data=[36, 0]),
   midi.NoteOnEvent(tick=895000, channel=0, data=[36, 100]),
   midi.NoteOffEvent(tick=895100, channel=0, data=[36, 0]),
   midi.NoteOnEvent(tick=895200, channel=0, data=[36, 100]),
   midi.NoteOffEvent(tick=895300, channel=0, data=[36, 0]),
   midi.NoteOnEvent(tick=895400, channel=0, data=[16, 100]),
   midi.NoteOffEvent(tick=895500, channel=0, data=[16, 0]),
   midi.NoteOnEvent(tick=895600, channel=0, data=[20, 100]),
   midi.NoteOffEvent(tick=895700, channel=0, data=[20, 0]),
   midi.NoteOnEvent(tick=895800, channel=0, data=[14, 100]),
   midi.NoteOffEvent(tick=895900, channel=0, data=[14, 0]),
   midi.NoteOnEvent(tick=896000, channel=0, data=[19, 100]),
   midi.NoteOffEvent(tick=896100, channel=0, data=[19, 0]),
   midi.NoteOnEvent(tick=896200, channel=0, data=[0, 100]),
   midi.NoteOffEvent(tick=896300, channel=0, data=[0, 0]),
   midi.NoteOnEvent(tick=896400, channel=0, data=[19, 100]),
   midi.NoteOffEvent(tick=896500, channel=0, data=[19, 0]),
   midi.NoteOnEvent(tick=896600, channel=0, data=[8, 100]),
   midi.NoteOffEvent(tick=896700, channel=0, data=[8, 0]),
   midi.NoteOnEvent(tick=896800, channel=0, data=[14, 100]),
   midi.NoteOffEvent(tick=896900, channel=0, data=[14, 0]),
   midi.NoteOnEvent(tick=897000, channel=0, data=[13, 100]),
   midi.NoteOffEvent(tick=897100, channel=0, data=[13, 0]),
   midi.NoteOnEvent(tick=897200, channel=0, data=[36, 100]),
   midi.NoteOffEvent(tick=897300, channel=0, data=[36, 0]),
   midi.NoteOnEvent(tick=897400, channel=0, data=[12, 100]),
   midi.NoteOffEvent(tick=897500, channel=0, data=[12, 0]),
   midi.NoteOnEvent(tick=897600, channel=0, data=[0, 100]),
   midi.NoteOffEvent(tick=897700, channel=0, data=[0, 0]),
   midi.NoteOnEvent(tick=897800, channel=0, data=[17, 100]),
   midi.NoteOffEvent(tick=897900, channel=0, data=[17, 0]),
   midi.NoteOnEvent(tick=898000, channel=0, data=[10, 100]),
   midi.NoteOffEvent(tick=898100, channel=0, data=[10, 0]),
   midi.NoteOnEvent(tick=898200, channel=0, data=[18, 100]),
   midi.NoteOffEvent(tick=898300, channel=0, data=[18, 0]),
   midi.NoteOnEvent(tick=898400, channel=0, data=[38, 100]),
   midi.NoteOffEvent(tick=898500, channel=0, data=[38, 0]),
   midi.NoteOnEvent(tick=898600, channel=0, data=[36, 100]),
   midi.NoteOffEvent(tick=898700, channel=0, data=[36, 0]),
   midi.NoteOnEvent(tick=898800, channel=0, data=[0, 100]),
   midi.NoteOffEvent(tick=898900, channel=0, data=[0, 0]),
   midi.NoteOnEvent(tick=899000, channel=0, data=[18, 100]),
   midi.NoteOffEvent(tick=899100, channel=0, data=[18, 0]),
   midi.NoteOnEvent(tick=899200, channel=0, data=[36, 100]),
   midi.NoteOffEvent(tick=899300, channel=0, data=[36, 0]),
   midi.NoteOnEvent(tick=899400, channel=0, data=[5, 100]),
   midi.NoteOffEvent(tick=899500, channel=0, data=[5, 0]),
   midi.NoteOnEvent(tick=899600, channel=0, data=[14, 100]),
   midi.NoteOffEvent(tick=899700, channel=0, data=[14, 0]),
   midi.NoteOnEvent(tick=899800, channel=0, data=[11, 100]),
   midi.NoteOffEvent(tick=899900, channel=0, data=[11, 0]),
   midi.NoteOnEvent(tick=900000, channel=0, data=[11, 100]),
   midi.NoteOffEvent(tick=900100, channel=0, data=[11, 0]),
   midi.NoteOnEvent(tick=900200, channel=0, data=[14, 100]),
   midi.NoteOffEvent(tick=900300, channel=0, data=[14, 0]),
   midi.NoteOnEvent(tick=900400, channel=0, data=[22, 100]),
   midi.NoteOffEvent(tick=900500, channel=0, data=[22, 0]),
   midi.NoteOnEvent(tick=900600, channel=0, data=[18, 100]),
   midi.NoteOffEvent(tick=900700, channel=0, data=[18, 0]),
   midi.NoteOnEvent(tick=900800, channel=0, data=[46, 100]),
   midi.NoteOffEvent(tick=900900, channel=0, data=[46, 0]),
   midi.NoteOnEvent(tick=901000, channel=0, data=[56, 100]),
   midi.NoteOffEvent(tick=901100, channel=0, data=[56, 0]),
   midi.NoteOnEvent(tick=901200, channel=0, data=[56, 100]),
   midi.NoteOffEvent(tick=901300, channel=0, data=[56, 0]),
   midi.NoteOnEvent(tick=901400, channel=0, data=[56, 100]),
   midi.NoteOffEvent(tick=901500, channel=0, data=[56, 0]),
   midi.NoteOnEvent(tick=901600, channel=0, data=[36, 100]),
   midi.NoteOffEvent(tick=901700, channel=0, data=[36, 0]),
   midi.NoteOnEvent(tick=901800, channel=0, data=[36, 100]),
   midi.NoteOffEvent(tick=901900, channel=0, data=[36, 0]),
   midi.NoteOnEvent(tick=902000, channel=0, data=[36, 100]),
   midi.NoteOffEvent(tick=902100, channel=0, data=[36, 0]),
   midi.NoteOnEvent(tick=902200, channel=0, data=[36, 100]),
   midi.NoteOffEvent(tick=902300, channel=0, data=[36, 0]),
   midi.NoteOnEvent(tick=902400, channel=0, data=[36, 100]),
   midi.NoteOffEvent(tick=902500, channel=0, data=[36, 0]),
   midi.NoteOnEvent(tick=902600, channel=0, data=[36, 100]),
   midi.NoteOffEvent(tick=902700, channel=0, data=[36, 0]),
   midi.NoteOnEvent(tick=902800, channel=0, data=[36, 100]),
   midi.NoteOffEvent(tick=902900, channel=0, data=[36, 0]),
   midi.NoteOnEvent(tick=903000, channel=0, data=[36, 100]),
   midi.NoteOffEvent(tick=903100, channel=0, data=[36, 0]),
   midi.NoteOnEvent(tick=903200, channel=0, data=[74, 100]),
   midi.NoteOffEvent(tick=903300, channel=0, data=[74, 0]),
   midi.NoteOnEvent(tick=903400, channel=0, data=[0, 100]),
   midi.NoteOffEvent(tick=903500, channel=0, data=[0, 0]),
   midi.NoteOnEvent(tick=903600, channel=0, data=[36, 100]),
   midi.NoteOffEvent(tick=903700, channel=0, data=[36, 0]),
   midi.NoteOnEvent(tick=903800, channel=0, data=[69, 100]),
   midi.NoteOffEvent(tick=903900, channel=0, data=[69, 0]),
   midi.NoteOnEvent(tick=904000, channel=0, data=[36, 100]),
   midi.NoteOffEvent(tick=904100, channel=0, data=[36, 0]),
   midi.NoteOnEvent(tick=904200, channel=0, data=[41, 100]),
   midi.NoteOffEvent(tick=904300, channel=0, data=[41, 0]),
   midi.NoteOnEvent(tick=904400, channel=0, data=[1, 100]),
   midi.NoteOffEvent(tick=904500, channel=0, data=[1, 0]),
   midi.NoteOnEvent(tick=904600, channel=0, data=[0, 100]),
   midi.NoteOffEvent(tick=904700, channel=0, data=[0, 0]),
   midi.NoteOnEvent(tick=904800, channel=0, data=[18, 100]),
   midi.NoteOffEvent(tick=904900, channel=0, data=[18, 0]),
   midi.NoteOnEvent(tick=905000, channel=0, data=[4, 100]),
   midi.NoteOffEvent(tick=905100, channel=0, data=[4, 0]),
   midi.NoteOnEvent(tick=905200, channel=0, data=[1, 100]),
   midi.NoteOffEvent(tick=905300, channel=0, data=[1, 0]),
   midi.NoteOnEvent(tick=905400, channel=0, data=[0, 100]),
   midi.NoteOffEvent(tick=905500, channel=0, data=[0, 0]),
   midi.NoteOnEvent(tick=905600, channel=0, data=[11, 100]),
   midi.NoteOffEvent(tick=905700, channel=0, data=[11, 0]),
   midi.NoteOnEvent(tick=905800, channel=0, data=[11, 100]),
   midi.NoteOffEvent(tick=905900, channel=0, data=[11, 0]),
   midi.NoteOnEvent(tick=906000, channel=0, data=[41, 100]),
   midi.NoteOffEvent(tick=906100, channel=0, data=[41, 0]),
   midi.NoteOnEvent(tick=906200, channel=0, data=[36, 100]),
   midi.NoteOffEvent(tick=906300, channel=0, data=[36, 0]),
   midi.NoteOnEvent(tick=906400, channel=0, data=[56, 100]),
   midi.NoteOffEvent(tick=906500, channel=0, data=[56, 0]),
   midi.NoteOnEvent(tick=906600, channel=0, data=[56, 100]),
   midi.NoteOffEvent(tick=906700, channel=0, data=[56, 0]),
   midi.NoteOnEvent(tick=906800, channel=0, data=[56, 100]),
   midi.NoteOffEvent(tick=906900, channel=0, data=[56, 0]),
   midi.NoteOnEvent(tick=907000, channel=0, data=[36, 100]),
   midi.NoteOffEvent(tick=907100, channel=0, data=[36, 0]),
   midi.NoteOnEvent(tick=907200, channel=0, data=[36, 100]),
   midi.NoteOffEvent(tick=907300, channel=0, data=[36, 0]),
   midi.NoteOnEvent(tick=907400, channel=0, data=[36, 100]),
   midi.NoteOffEvent(tick=907500, channel=0, data=[36, 0]),
   midi.NoteOnEvent(tick=907600, channel=0, data=[36, 100]),
   midi.NoteOffEvent(tick=907700, channel=0, data=[36, 0]),
   midi.NoteOnEvent(tick=907800, channel=0, data=[19, 100]),
   midi.NoteOffEvent(tick=907900, channel=0, data=[19, 0]),
   midi.NoteOnEvent(tick=908000, channel=0, data=[14, 100]),
   midi.NoteOffEvent(tick=908100, channel=0, data=[14, 0]),
   midi.NoteOnEvent(tick=908200, channel=0, data=[36, 100]),
   midi.NoteOffEvent(tick=908300, channel=0, data=[36, 0]),
   midi.NoteOnEvent(tick=908400, channel=0, data=[0, 100]),
   midi.NoteOffEvent(tick=908500, channel=0, data=[0, 0]),
   midi.NoteOnEvent(tick=908600, channel=0, data=[18, 100]),
   midi.NoteOffEvent(tick=908700, channel=0, data=[18, 0]),
   midi.NoteOnEvent(tick=908800, channel=0, data=[18, 100]),
   midi.NoteOffEvent(tick=908900, channel=0, data=[18, 0]),
   midi.NoteOnEvent(tick=909000, channel=0, data=[8, 100]),
   midi.NoteOffEvent(tick=909100, channel=0, data=[8, 0]),
   midi.NoteOnEvent(tick=909200, channel=0, data=[6, 100]),
   midi.NoteOffEvent(tick=909300, channel=0, data=[6, 0]),
   midi.NoteOnEvent(tick=909400, channel=0, data=[13, 100]),
   midi.NoteOffEvent(tick=909500, channel=0, data=[13, 0]),
   midi.NoteOnEvent(tick=909600, channel=0, data=[36, 100]),
   midi.NoteOffEvent(tick=909700, channel=0, data=[36, 0]),
   midi.NoteOnEvent(tick=909800, channel=0, data=[0, 100]),
   midi.NoteOffEvent(tick=909900, channel=0, data=[0, 0]),
   midi.NoteOnEvent(tick=910000, channel=0, data=[13, 100]),
   midi.NoteOffEvent(tick=910100, channel=0, data=[13, 0]),
   midi.NoteOnEvent(tick=910200, channel=0, data=[36, 100]),
   midi.NoteOffEvent(tick=910300, channel=0, data=[36, 0]),
   midi.NoteOnEvent(tick=910400, channel=0, data=[0, 100]),
   midi.NoteOffEvent(tick=910500, channel=0, data=[0, 0]),
   midi.NoteOnEvent(tick=910600, channel=0, data=[17, 100]),
   midi.NoteOffEvent(tick=910700, channel=0, data=[17, 0]),
   midi.NoteOnEvent(tick=910800, channel=0, data=[17, 100]),
   midi.NoteOffEvent(tick=910900, channel=0, data=[17, 0]),
   midi.NoteOnEvent(tick=911000, channel=0, data=[0, 100]),
   midi.NoteOffEvent(tick=911100, channel=0, data=[0, 0]),
   midi.NoteOnEvent(tick=911200, channel=0, data=[24, 100]),
   midi.NoteOffEvent(tick=911300, channel=0, data=[24, 0]),
   midi.NoteOnEvent(tick=911400, channel=0, data=[36, 100]),
   midi.NoteOffEvent(tick=911500, channel=0, data=[36, 0]),
   midi.NoteOnEvent(tick=911600, channel=0, data=[49, 100]),
   midi.NoteOffEvent(tick=911700, channel=0, data=[49, 0]),
   midi.NoteOnEvent(tick=911800, channel=0, data=[12, 100]),
   midi.NoteOffEvent(tick=911900, channel=0, data=[12, 0]),
   midi.NoteOnEvent(tick=912000, channel=0, data=[20, 100]),
   midi.NoteOffEvent(tick=912100, channel=0, data=[20, 0]),
   midi.NoteOnEvent(tick=912200, channel=0, data=[11, 100]),
   midi.NoteOffEvent(tick=912300, channel=0, data=[11, 0]),
   midi.NoteOnEvent(tick=912400, channel=0, data=[19, 100]),
   midi.NoteOffEvent(tick=912500, channel=0, data=[19, 0]),
   midi.NoteOnEvent(tick=912600, channel=0, data=[8, 100]),
   midi.NoteOffEvent(tick=912700, channel=0, data=[8, 0]),
   midi.NoteOnEvent(tick=912800, channel=0, data=[15, 100]),
   midi.NoteOffEvent(tick=912900, channel=0, data=[15, 0]),
   midi.NoteOnEvent(tick=913000, channel=0, data=[11, 100]),
   midi.NoteOffEvent(tick=913100, channel=0, data=[11, 0]),
   midi.NoteOnEvent(tick=913200, channel=0, data=[4, 100]),
   midi.NoteOffEvent(tick=913300, channel=0, data=[4, 0]),
   midi.NoteOnEvent(tick=913400, channel=0, data=[36, 100]),
   midi.NoteOffEvent(tick=913500, channel=0, data=[36, 0]),
   midi.NoteOnEvent(tick=913600, channel=0, data=[21, 100]),
   midi.NoteOffEvent(tick=913700, channel=0, data=[21, 0]),
   midi.NoteOnEvent(tick=913800, channel=0, data=[0, 100]),
   midi.NoteOffEvent(tick=913900, channel=0, data=[0, 0]),
   midi.NoteOnEvent(tick=914000, channel=0, data=[11, 100]),
   midi.NoteOffEvent(tick=914100, channel=0, data=[11, 0]),
   midi.NoteOnEvent(tick=914200, channel=0, data=[20, 100]),
   midi.NoteOffEvent(tick=914300, channel=0, data=[20, 0]),
   midi.NoteOnEvent(tick=914400, channel=0, data=[4, 100]),
   midi.NoteOffEvent(tick=914500, channel=0, data=[4, 0]),
   midi.NoteOnEvent(tick=914600, channel=0, data=[18, 100]),
   midi.NoteOffEvent(tick=914700, channel=0, data=[18, 0]),
   midi.NoteOnEvent(tick=914800, channel=0, data=[50, 100]),
   midi.NoteOffEvent(tick=914900, channel=0, data=[50, 0]),
   midi.NoteOnEvent(tick=915000, channel=0, data=[36, 100]),
   midi.NoteOffEvent(tick=915100, channel=0, data=[36, 0]),
   midi.NoteOnEvent(tick=915200, channel=0, data=[19, 100]),
   midi.NoteOffEvent(tick=915300, channel=0, data=[19, 0]),
   midi.NoteOnEvent(tick=915400, channel=0, data=[14, 100]),
   midi.NoteOffEvent(tick=915500, channel=0, data=[14, 0]),
   midi.NoteOnEvent(tick=915600, channel=0, data=[36, 100]),
   midi.NoteOffEvent(tick=915700, channel=0, data=[36, 0]),
   midi.NoteOnEvent(tick=915800, channel=0, data=[0, 100]),
   midi.NoteOffEvent(tick=915900, channel=0, data=[0, 0]),
   midi.NoteOnEvent(tick=916000, channel=0, data=[36, 100]),
   midi.NoteOffEvent(tick=916100, channel=0, data=[36, 0]),
   midi.NoteOnEvent(tick=916200, channel=0, data=[21, 100]),
   midi.NoteOffEvent(tick=916300, channel=0, data=[21, 0]),
   midi.NoteOnEvent(tick=916400, channel=0, data=[0, 100]),
   midi.NoteOffEvent(tick=916500, channel=0, data=[0, 0]),
   midi.NoteOnEvent(tick=916600, channel=0, data=[17, 100]),
   midi.NoteOffEvent(tick=916700, channel=0, data=[17, 0]),
   midi.NoteOnEvent(tick=916800, channel=0, data=[8, 100]),
   midi.NoteOffEvent(tick=916900, channel=0, data=[8, 0]),
   midi.NoteOnEvent(tick=917000, channel=0, data=[0, 100]),
   midi.NoteOffEvent(tick=917100, channel=0, data=[0, 0]),
   midi.NoteOnEvent(tick=917200, channel=0, data=[1, 100]),
   midi.NoteOffEvent(tick=917300, channel=0, data=[1, 0]),
   midi.NoteOnEvent(tick=917400, channel=0, data=[11, 100]),
   midi.NoteOffEvent(tick=917500, channel=0, data=[11, 0]),
   midi.NoteOnEvent(tick=917600, channel=0, data=[4, 100]),
   midi.NoteOffEvent(tick=917700, channel=0, data=[4, 0]),
   midi.NoteOnEvent(tick=917800, channel=0, data=[38, 100]),
   midi.NoteOffEvent(tick=917900, channel=0, data=[38, 0]),
   midi.NoteOnEvent(tick=918000, channel=0, data=[36, 100]),
   midi.NoteOffEvent(tick=918100, channel=0, data=[36, 0]),
   midi.NoteOnEvent(tick=918200, channel=0, data=[18, 100]),
   midi.NoteOffEvent(tick=918300, channel=0, data=[18, 0]),
   midi.NoteOnEvent(tick=918400, channel=0, data=[4, 100]),
   midi.NoteOffEvent(tick=918500, channel=0, data=[4, 0]),
   midi.NoteOnEvent(tick=918600, channel=0, data=[15, 100]),
   midi.NoteOffEvent(tick=918700, channel=0, data=[15, 0]),
   midi.NoteOnEvent(tick=918800, channel=0, data=[0, 100]),
   midi.NoteOffEvent(tick=918900, channel=0, data=[0, 0]),
   midi.NoteOnEvent(tick=919000, channel=0, data=[17, 100]),
   midi.NoteOffEvent(tick=919100, channel=0, data=[17, 0]),
   midi.NoteOnEvent(tick=919200, channel=0, data=[0, 100]),
   midi.NoteOffEvent(tick=919300, channel=0, data=[0, 0]),
   midi.NoteOnEvent(tick=919400, channel=0, data=[19, 100]),
   midi.NoteOffEvent(tick=919500, channel=0, data=[19, 0]),
   midi.NoteOnEvent(tick=919600, channel=0, data=[4, 100]),
   midi.NoteOffEvent(tick=919700, channel=0, data=[4, 0]),
   midi.NoteOnEvent(tick=919800, channel=0, data=[36, 100]),
   midi.NoteOffEvent(tick=919900, channel=0, data=[36, 0]),
   midi.NoteOnEvent(tick=920000, channel=0, data=[19, 100]),
   midi.NoteOffEvent(tick=920100, channel=0, data=[19, 0]),
   midi.NoteOnEvent(tick=920200, channel=0, data=[7, 100]),
   midi.NoteOffEvent(tick=920300, channel=0, data=[7, 0]),
   midi.NoteOnEvent(tick=920400, channel=0, data=[4, 100]),
   midi.NoteOffEvent(tick=920500, channel=0, data=[4, 0]),
   midi.NoteOnEvent(tick=920600, channel=0, data=[36, 100]),
   midi.NoteOffEvent(tick=920700, channel=0, data=[36, 0]),
   midi.NoteOnEvent(tick=920800, channel=0, data=[21, 100]),
   midi.NoteOffEvent(tick=920900, channel=0, data=[21, 0]),
   midi.NoteOnEvent(tick=921000, channel=0, data=[0, 100]),
   midi.NoteOffEvent(tick=921100, channel=0, data=[0, 0]),
   midi.NoteOnEvent(tick=921200, channel=0, data=[11, 100]),
   midi.NoteOffEvent(tick=921300, channel=0, data=[11, 0]),
   midi.NoteOnEvent(tick=921400, channel=0, data=[20, 100]),
   midi.NoteOffEvent(tick=921500, channel=0, data=[20, 0]),
   midi.NoteOnEvent(tick=921600, channel=0, data=[4, 100]),
   midi.NoteOffEvent(tick=921700, channel=0, data=[4, 0]),
   midi.NoteOnEvent(tick=921800, channel=0, data=[18, 100]),
   midi.NoteOffEvent(tick=921900, channel=0, data=[18, 0]),
   midi.NoteOnEvent(tick=922000, channel=0, data=[36, 100]),
   midi.NoteOffEvent(tick=922100, channel=0, data=[36, 0]),
   midi.NoteOnEvent(tick=922200, channel=0, data=[56, 100]),
   midi.NoteOffEvent(tick=922300, channel=0, data=[56, 0]),
   midi.NoteOnEvent(tick=922400, channel=0, data=[36, 100]),
   midi.NoteOffEvent(tick=922500, channel=0, data=[36, 0]),
   midi.NoteOnEvent(tick=922600, channel=0, data=[36, 100]),
   midi.NoteOffEvent(tick=922700, channel=0, data=[36, 0]),
   midi.NoteOnEvent(tick=922800, channel=0, data=[36, 100]),
   midi.NoteOffEvent(tick=922900, channel=0, data=[36, 0]),
   midi.NoteOnEvent(tick=923000, channel=0, data=[36, 100]),
   midi.NoteOffEvent(tick=923100, channel=0, data=[36, 0]),
   midi.NoteOnEvent(tick=923200, channel=0, data=[22, 100]),
   midi.NoteOffEvent(tick=923300, channel=0, data=[22, 0]),
   midi.NoteOnEvent(tick=923400, channel=0, data=[8, 100]),
   midi.NoteOffEvent(tick=923500, channel=0, data=[8, 0]),
   midi.NoteOnEvent(tick=923600, channel=0, data=[19, 100]),
   midi.NoteOffEvent(tick=923700, channel=0, data=[19, 0]),
   midi.NoteOnEvent(tick=923800, channel=0, data=[7, 100]),
   midi.NoteOffEvent(tick=923900, channel=0, data=[7, 0]),
   midi.NoteOnEvent(tick=924000, channel=0, data=[36, 100]),
   midi.NoteOffEvent(tick=924100, channel=0, data=[36, 0]),
   midi.NoteOnEvent(tick=924200, channel=0, data=[2, 100]),
   midi.NoteOffEvent(tick=924300, channel=0, data=[2, 0]),
   midi.NoteOnEvent(tick=924400, channel=0, data=[14, 100]),
   midi.NoteOffEvent(tick=924500, channel=0, data=[14, 0]),
   midi.NoteOnEvent(tick=924600, channel=0, data=[12, 100]),
   midi.NoteOffEvent(tick=924700, channel=0, data=[12, 0]),
   midi.NoteOnEvent(tick=924800, channel=0, data=[12, 100]),
   midi.NoteOffEvent(tick=924900, channel=0, data=[12, 0]),
   midi.NoteOnEvent(tick=925000, channel=0, data=[0, 100]),
   midi.NoteOffEvent(tick=925100, channel=0, data=[0, 0]),
   midi.NoteOnEvent(tick=925200, channel=0, data=[18, 100]),
   midi.NoteOffEvent(tick=925300, channel=0, data=[18, 0]),
   midi.NoteOnEvent(tick=925400, channel=0, data=[38, 100]),
   midi.NoteOffEvent(tick=925500, channel=0, data=[38, 0]),
   midi.NoteOnEvent(tick=925600, channel=0, data=[36, 100]),
   midi.NoteOffEvent(tick=925700, channel=0, data=[36, 0]),
   midi.NoteOnEvent(tick=925800, channel=0, data=[0, 100]),
   midi.NoteOffEvent(tick=925900, channel=0, data=[0, 0]),
   midi.NoteOnEvent(tick=926000, channel=0, data=[18, 100]),
   midi.NoteOffEvent(tick=926100, channel=0, data=[18, 0]),
   midi.NoteOnEvent(tick=926200, channel=0, data=[36, 100]),
   midi.NoteOffEvent(tick=926300, channel=0, data=[36, 0]),
   midi.NoteOnEvent(tick=926400, channel=0, data=[5, 100]),
   midi.NoteOffEvent(tick=926500, channel=0, data=[5, 0]),
   midi.NoteOnEvent(tick=926600, channel=0, data=[14, 100]),
   midi.NoteOffEvent(tick=926700, channel=0, data=[14, 0]),
   midi.NoteOnEvent(tick=926800, channel=0, data=[11, 100]),
   midi.NoteOffEvent(tick=926900, channel=0, data=[11, 0]),
   midi.NoteOnEvent(tick=927000, channel=0, data=[11, 100]),
   midi.NoteOffEvent(tick=927100, channel=0, data=[11, 0]),
   midi.NoteOnEvent(tick=927200, channel=0, data=[14, 100]),
   midi.NoteOffEvent(tick=927300, channel=0, data=[14, 0]),
   midi.NoteOnEvent(tick=927400, channel=0, data=[22, 100]),
   midi.NoteOffEvent(tick=927500, channel=0, data=[22, 0]),
   midi.NoteOnEvent(tick=927600, channel=0, data=[18, 100]),
   midi.NoteOffEvent(tick=927700, channel=0, data=[18, 0]),
   midi.NoteOnEvent(tick=927800, channel=0, data=[46, 100]),
   midi.NoteOffEvent(tick=927900, channel=0, data=[46, 0]),
   midi.NoteOnEvent(tick=928000, channel=0, data=[56, 100]),
   midi.NoteOffEvent(tick=928100, channel=0, data=[56, 0]),
   midi.NoteOnEvent(tick=928200, channel=0, data=[56, 100]),
   midi.NoteOffEvent(tick=928300, channel=0, data=[56, 0]),
   midi.NoteOnEvent(tick=928400, channel=0, data=[56, 100]),
   midi.NoteOffEvent(tick=928500, channel=0, data=[56, 0]),
   midi.NoteOnEvent(tick=928600, channel=0, data=[36, 100]),
   midi.NoteOffEvent(tick=928700, channel=0, data=[36, 0]),
   midi.NoteOnEvent(tick=928800, channel=0, data=[36, 100]),
   midi.NoteOffEvent(tick=928900, channel=0, data=[36, 0]),
   midi.NoteOnEvent(tick=929000, channel=0, data=[36, 100]),
   midi.NoteOffEvent(tick=929100, channel=0, data=[36, 0]),
   midi.NoteOnEvent(tick=929200, channel=0, data=[36, 100]),
   midi.NoteOffEvent(tick=929300, channel=0, data=[36, 0]),
   midi.NoteOnEvent(tick=929400, channel=0, data=[36, 100]),
   midi.NoteOffEvent(tick=929500, channel=0, data=[36, 0]),
   midi.NoteOnEvent(tick=929600, channel=0, data=[36, 100]),
   midi.NoteOffEvent(tick=929700, channel=0, data=[36, 0]),
   midi.NoteOnEvent(tick=929800, channel=0, data=[36, 100]),
   midi.NoteOffEvent(tick=929900, channel=0, data=[36, 0]),
   midi.NoteOnEvent(tick=930000, channel=0, data=[36, 100]),
   midi.NoteOffEvent(tick=930100, channel=0, data=[36, 0]),
   midi.NoteOnEvent(tick=930200, channel=0, data=[74, 100]),
   midi.NoteOffEvent(tick=930300, channel=0, data=[74, 0]),
   midi.NoteOnEvent(tick=930400, channel=0, data=[0, 100]),
   midi.NoteOffEvent(tick=930500, channel=0, data=[0, 0]),
   midi.NoteOnEvent(tick=930600, channel=0, data=[36, 100]),
   midi.NoteOffEvent(tick=930700, channel=0, data=[36, 0]),
   midi.NoteOnEvent(tick=930800, channel=0, data=[69, 100]),
   midi.NoteOffEvent(tick=930900, channel=0, data=[69, 0]),
   midi.NoteOnEvent(tick=931000, channel=0, data=[36, 100]),
   midi.NoteOffEvent(tick=931100, channel=0, data=[36, 0]),
   midi.NoteOnEvent(tick=931200, channel=0, data=[41, 100]),
   midi.NoteOffEvent(tick=931300, channel=0, data=[41, 0]),
   midi.NoteOnEvent(tick=931400, channel=0, data=[0, 100]),
   midi.NoteOffEvent(tick=931500, channel=0, data=[0, 0]),
   midi.NoteOnEvent(tick=931600, channel=0, data=[15, 100]),
   midi.NoteOffEvent(tick=931700, channel=0, data=[15, 0]),
   midi.NoteOnEvent(tick=931800, channel=0, data=[15, 100]),
   midi.NoteOffEvent(tick=931900, channel=0, data=[15, 0]),
   midi.NoteOnEvent(tick=932000, channel=0, data=[11, 100]),
   midi.NoteOffEvent(tick=932100, channel=0, data=[11, 0]),
   midi.NoteOnEvent(tick=932200, channel=0, data=[4, 100]),
   midi.NoteOffEvent(tick=932300, channel=0, data=[4, 0]),
   midi.NoteOnEvent(tick=932400, channel=0, data=[41, 100]),
   midi.NoteOffEvent(tick=932500, channel=0, data=[41, 0]),
   midi.NoteOnEvent(tick=932600, channel=0, data=[38, 100]),
   midi.NoteOffEvent(tick=932700, channel=0, data=[38, 0]),
   midi.NoteOnEvent(tick=932800, channel=0, data=[36, 100]),
   midi.NoteOffEvent(tick=932900, channel=0, data=[36, 0]),
   midi.NoteOnEvent(tick=933000, channel=0, data=[41, 100]),
   midi.NoteOffEvent(tick=933100, channel=0, data=[41, 0]),
   midi.NoteOnEvent(tick=933200, channel=0, data=[14, 100]),
   midi.NoteOffEvent(tick=933300, channel=0, data=[14, 0]),
   midi.NoteOnEvent(tick=933400, channel=0, data=[17, 100]),
   midi.NoteOffEvent(tick=933500, channel=0, data=[17, 0]),
   midi.NoteOnEvent(tick=933600, channel=0, data=[0, 100]),
   midi.NoteOffEvent(tick=933700, channel=0, data=[0, 0]),
   midi.NoteOnEvent(tick=933800, channel=0, data=[13, 100]),
   midi.NoteOffEvent(tick=933900, channel=0, data=[13, 0]),
   midi.NoteOnEvent(tick=934000, channel=0, data=[6, 100]),
   midi.NoteOffEvent(tick=934100, channel=0, data=[6, 0]),
   midi.NoteOnEvent(tick=934200, channel=0, data=[4, 100]),
   midi.NoteOffEvent(tick=934300, channel=0, data=[4, 0]),
   midi.NoteOnEvent(tick=934400, channel=0, data=[41, 100]),
   midi.NoteOffEvent(tick=934500, channel=0, data=[41, 0]),
   midi.NoteOnEvent(tick=934600, channel=0, data=[38, 100]),
   midi.NoteOffEvent(tick=934700, channel=0, data=[38, 0]),
   midi.NoteOnEvent(tick=934800, channel=0, data=[36, 100]),
   midi.NoteOffEvent(tick=934900, channel=0, data=[36, 0]),
   midi.NoteOnEvent(tick=935000, channel=0, data=[41, 100]),
   midi.NoteOffEvent(tick=935100, channel=0, data=[41, 0]),
   midi.NoteOnEvent(tick=935200, channel=0, data=[11, 100]),
   midi.NoteOffEvent(tick=935300, channel=0, data=[11, 0]),
   midi.NoteOnEvent(tick=935400, channel=0, data=[4, 100]),
   midi.NoteOffEvent(tick=935500, channel=0, data=[4, 0]),
   midi.NoteOnEvent(tick=935600, channel=0, data=[12, 100]),
   midi.NoteOffEvent(tick=935700, channel=0, data=[12, 0]),
   midi.NoteOnEvent(tick=935800, channel=0, data=[14, 100]),
   midi.NoteOffEvent(tick=935900, channel=0, data=[14, 0]),
   midi.NoteOnEvent(tick=936000, channel=0, data=[13, 100]),
   midi.NoteOffEvent(tick=936100, channel=0, data=[13, 0]),
   midi.NoteOnEvent(tick=936200, channel=0, data=[41, 100]),
   midi.NoteOffEvent(tick=936300, channel=0, data=[41, 0]),
   midi.NoteOnEvent(tick=936400, channel=0, data=[38, 100]),
   midi.NoteOffEvent(tick=936500, channel=0, data=[38, 0]),
   midi.NoteOnEvent(tick=936600, channel=0, data=[36, 100]),
   midi.NoteOffEvent(tick=936700, channel=0, data=[36, 0]),
   midi.NoteOnEvent(tick=936800, channel=0, data=[41, 100]),
   midi.NoteOffEvent(tick=936900, channel=0, data=[41, 0]),
   midi.NoteOnEvent(tick=937000, channel=0, data=[6, 100]),
   midi.NoteOffEvent(tick=937100, channel=0, data=[6, 0]),
   midi.NoteOnEvent(tick=937200, channel=0, data=[17, 100]),
   midi.NoteOffEvent(tick=937300, channel=0, data=[17, 0]),
   midi.NoteOnEvent(tick=937400, channel=0, data=[0, 100]),
   midi.NoteOffEvent(tick=937500, channel=0, data=[0, 0]),
   midi.NoteOnEvent(tick=937600, channel=0, data=[15, 100]),
   midi.NoteOffEvent(tick=937700, channel=0, data=[15, 0]),
   midi.NoteOnEvent(tick=937800, channel=0, data=[4, 100]),
   midi.NoteOffEvent(tick=937900, channel=0, data=[4, 0]),
   midi.NoteOnEvent(tick=938000, channel=0, data=[41, 100]),
   midi.NoteOffEvent(tick=938100, channel=0, data=[41, 0]),
   midi.NoteOnEvent(tick=938200, channel=0, data=[56, 100]),
   midi.NoteOffEvent(tick=938300, channel=0, data=[56, 0]),
   midi.NoteOnEvent(tick=938400, channel=0, data=[36, 100]),
   midi.NoteOffEvent(tick=938500, channel=0, data=[36, 0]),
   midi.NoteOnEvent(tick=938600, channel=0, data=[56, 100]),
   midi.NoteOffEvent(tick=938700, channel=0, data=[56, 0]),
   midi.NoteOnEvent(tick=938800, channel=0, data=[56, 100]),
   midi.NoteOffEvent(tick=938900, channel=0, data=[56, 0]),
   midi.NoteOnEvent(tick=939000, channel=0, data=[36, 100]),
   midi.NoteOffEvent(tick=939100, channel=0, data=[36, 0]),
   midi.NoteOnEvent(tick=939200, channel=0, data=[36, 100]),
   midi.NoteOffEvent(tick=939300, channel=0, data=[36, 0]),
   midi.NoteOnEvent(tick=939400, channel=0, data=[36, 100]),
   midi.NoteOffEvent(tick=939500, channel=0, data=[36, 0]),
   midi.NoteOnEvent(tick=939600, channel=0, data=[36, 100]),
   midi.NoteOffEvent(tick=939700, channel=0, data=[36, 0]),
   midi.NoteOnEvent(tick=939800, channel=0, data=[19, 100]),
   midi.NoteOffEvent(tick=939900, channel=0, data=[19, 0]),
   midi.NoteOnEvent(tick=940000, channel=0, data=[14, 100]),
   midi.NoteOffEvent(tick=940100, channel=0, data=[14, 0]),
   midi.NoteOnEvent(tick=940200, channel=0, data=[36, 100]),
   midi.NoteOffEvent(tick=940300, channel=0, data=[36, 0]),
   midi.NoteOnEvent(tick=940400, channel=0, data=[0, 100]),
   midi.NoteOffEvent(tick=940500, channel=0, data=[0, 0]),
   midi.NoteOnEvent(tick=940600, channel=0, data=[18, 100]),
   midi.NoteOffEvent(tick=940700, channel=0, data=[18, 0]),
   midi.NoteOnEvent(tick=940800, channel=0, data=[18, 100]),
   midi.NoteOffEvent(tick=940900, channel=0, data=[18, 0]),
   midi.NoteOnEvent(tick=941000, channel=0, data=[8, 100]),
   midi.NoteOffEvent(tick=941100, channel=0, data=[8, 0]),
   midi.NoteOnEvent(tick=941200, channel=0, data=[6, 100]),
   midi.NoteOffEvent(tick=941300, channel=0, data=[6, 0]),
   midi.NoteOnEvent(tick=941400, channel=0, data=[13, 100]),
   midi.NoteOffEvent(tick=941500, channel=0, data=[13, 0]),
   midi.NoteOnEvent(tick=941600, channel=0, data=[36, 100]),
   midi.NoteOffEvent(tick=941700, channel=0, data=[36, 0]),
   midi.NoteOnEvent(tick=941800, channel=0, data=[0, 100]),
   midi.NoteOffEvent(tick=941900, channel=0, data=[0, 0]),
   midi.NoteOnEvent(tick=942000, channel=0, data=[36, 100]),
   midi.NoteOffEvent(tick=942100, channel=0, data=[36, 0]),
   midi.NoteOnEvent(tick=942200, channel=0, data=[7, 100]),
   midi.NoteOffEvent(tick=942300, channel=0, data=[7, 0]),
   midi.NoteOnEvent(tick=942400, channel=0, data=[0, 100]),
   midi.NoteOffEvent(tick=942500, channel=0, data=[0, 0]),
   midi.NoteOnEvent(tick=942600, channel=0, data=[18, 100]),
   midi.NoteOffEvent(tick=942700, channel=0, data=[18, 0]),
   midi.NoteOnEvent(tick=942800, channel=0, data=[7, 100]),
   midi.NoteOffEvent(tick=942900, channel=0, data=[7, 0]),
   midi.NoteOnEvent(tick=943000, channel=0, data=[36, 100]),
   midi.NoteOffEvent(tick=943100, channel=0, data=[36, 0]),
   midi.NoteOnEvent(tick=943200, channel=0, data=[19, 100]),
   midi.NoteOffEvent(tick=943300, channel=0, data=[19, 0]),
   midi.NoteOnEvent(tick=943400, channel=0, data=[0, 100]),
   midi.NoteOffEvent(tick=943500, channel=0, data=[0, 0]),
   midi.NoteOnEvent(tick=943600, channel=0, data=[1, 100]),
   midi.NoteOffEvent(tick=943700, channel=0, data=[1, 0]),
   midi.NoteOnEvent(tick=943800, channel=0, data=[11, 100]),
   midi.NoteOffEvent(tick=943900, channel=0, data=[11, 0]),
   midi.NoteOnEvent(tick=944000, channel=0, data=[4, 100]),
   midi.NoteOffEvent(tick=944100, channel=0, data=[4, 0]),
   midi.NoteOnEvent(tick=944200, channel=0, data=[36, 100]),
   midi.NoteOffEvent(tick=944300, channel=0, data=[36, 0]),
   midi.NoteOnEvent(tick=944400, channel=0, data=[19, 100]),
   midi.NoteOffEvent(tick=944500, channel=0, data=[19, 0]),
   midi.NoteOnEvent(tick=944600, channel=0, data=[14, 100]),
   midi.NoteOffEvent(tick=944700, channel=0, data=[14, 0]),
   midi.NoteOnEvent(tick=944800, channel=0, data=[36, 100]),
   midi.NoteOffEvent(tick=944900, channel=0, data=[36, 0]),
   midi.NoteOnEvent(tick=945000, channel=0, data=[0, 100]),
   midi.NoteOffEvent(tick=945100, channel=0, data=[0, 0]),
   midi.NoteOnEvent(tick=945200, channel=0, data=[36, 100]),
   midi.NoteOffEvent(tick=945300, channel=0, data=[36, 0]),
   midi.NoteOnEvent(tick=945400, channel=0, data=[21, 100]),
   midi.NoteOffEvent(tick=945500, channel=0, data=[21, 0]),
   midi.NoteOnEvent(tick=945600, channel=0, data=[0, 100]),
   midi.NoteOffEvent(tick=945700, channel=0, data=[0, 0]),
   midi.NoteOnEvent(tick=945800, channel=0, data=[17, 100]),
   midi.NoteOffEvent(tick=945900, channel=0, data=[17, 0]),
   midi.NoteOnEvent(tick=946000, channel=0, data=[8, 100]),
   midi.NoteOffEvent(tick=946100, channel=0, data=[8, 0]),
   midi.NoteOnEvent(tick=946200, channel=0, data=[0, 100]),
   midi.NoteOffEvent(tick=946300, channel=0, data=[0, 0]),
   midi.NoteOnEvent(tick=946400, channel=0, data=[1, 100]),
   midi.NoteOffEvent(tick=946500, channel=0, data=[1, 0]),
   midi.NoteOnEvent(tick=946600, channel=0, data=[11, 100]),
   midi.NoteOffEvent(tick=946700, channel=0, data=[11, 0]),
   midi.NoteOnEvent(tick=946800, channel=0, data=[4, 100]),
   midi.NoteOffEvent(tick=946900, channel=0, data=[4, 0]),
   midi.NoteOnEvent(tick=947000, channel=0, data=[38, 100]),
   midi.NoteOffEvent(tick=947100, channel=0, data=[38, 0]),
   midi.NoteOnEvent(tick=947200, channel=0, data=[36, 100]),
   midi.NoteOffEvent(tick=947300, channel=0, data=[36, 0]),
   midi.NoteOnEvent(tick=947400, channel=0, data=[20, 100]),
   midi.NoteOffEvent(tick=947500, channel=0, data=[20, 0]),
   midi.NoteOnEvent(tick=947600, channel=0, data=[18, 100]),
   midi.NoteOffEvent(tick=947700, channel=0, data=[18, 0]),
   midi.NoteOnEvent(tick=947800, channel=0, data=[4, 100]),
   midi.NoteOffEvent(tick=947900, channel=0, data=[4, 0]),
   midi.NoteOnEvent(tick=948000, channel=0, data=[36, 100]),
   midi.NoteOffEvent(tick=948100, channel=0, data=[36, 0]),
   midi.NoteOnEvent(tick=948200, channel=0, data=[19, 100]),
   midi.NoteOffEvent(tick=948300, channel=0, data=[19, 0]),
   midi.NoteOnEvent(tick=948400, channel=0, data=[7, 100]),
   midi.NoteOffEvent(tick=948500, channel=0, data=[7, 0]),
   midi.NoteOnEvent(tick=948600, channel=0, data=[4, 100]),
   midi.NoteOffEvent(tick=948700, channel=0, data=[4, 0]),
   midi.NoteOnEvent(tick=948800, channel=0, data=[36, 100]),
   midi.NoteOffEvent(tick=948900, channel=0, data=[36, 0]),
   midi.NoteOnEvent(tick=949000, channel=0, data=[18, 100]),
   midi.NoteOffEvent(tick=949100, channel=0, data=[18, 0]),
   midi.NoteOnEvent(tick=949200, channel=0, data=[19, 100]),
   midi.NoteOffEvent(tick=949300, channel=0, data=[19, 0]),
   midi.NoteOnEvent(tick=949400, channel=0, data=[0, 100]),
   midi.NoteOffEvent(tick=949500, channel=0, data=[0, 0]),
   midi.NoteOnEvent(tick=949600, channel=0, data=[13, 100]),
   midi.NoteOffEvent(tick=949700, channel=0, data=[13, 0]),
   midi.NoteOnEvent(tick=949800, channel=0, data=[3, 100]),
   midi.NoteOffEvent(tick=949900, channel=0, data=[3, 0]),
   midi.NoteOnEvent(tick=950000, channel=0, data=[0, 100]),
   midi.NoteOffEvent(tick=950100, channel=0, data=[0, 0]),
   midi.NoteOnEvent(tick=950200, channel=0, data=[17, 100]),
   midi.NoteOffEvent(tick=950300, channel=0, data=[17, 0]),
   midi.NoteOnEvent(tick=950400, channel=0, data=[3, 100]),
   midi.NoteOffEvent(tick=950500, channel=0, data=[3, 0]),
   midi.NoteOnEvent(tick=950600, channel=0, data=[36, 100]),
   midi.NoteOffEvent(tick=950700, channel=0, data=[36, 0]),
   midi.NoteOnEvent(tick=950800, channel=0, data=[7, 100]),
   midi.NoteOffEvent(tick=950900, channel=0, data=[7, 0]),
   midi.NoteOnEvent(tick=951000, channel=0, data=[0, 100]),
   midi.NoteOffEvent(tick=951100, channel=0, data=[0, 0]),
   midi.NoteOnEvent(tick=951200, channel=0, data=[18, 100]),
   midi.NoteOffEvent(tick=951300, channel=0, data=[18, 0]),
   midi.NoteOnEvent(tick=951400, channel=0, data=[7, 100]),
   midi.NoteOffEvent(tick=951500, channel=0, data=[7, 0]),
   midi.NoteOnEvent(tick=951600, channel=0, data=[36, 100]),
   midi.NoteOffEvent(tick=951700, channel=0, data=[36, 0]),
   midi.NoteOnEvent(tick=951800, channel=0, data=[19, 100]),
   midi.NoteOffEvent(tick=951900, channel=0, data=[19, 0]),
   midi.NoteOnEvent(tick=952000, channel=0, data=[0, 100]),
   midi.NoteOffEvent(tick=952100, channel=0, data=[0, 0]),
   midi.NoteOnEvent(tick=952200, channel=0, data=[1, 100]),
   midi.NoteOffEvent(tick=952300, channel=0, data=[1, 0]),
   midi.NoteOnEvent(tick=952400, channel=0, data=[11, 100]),
   midi.NoteOffEvent(tick=952500, channel=0, data=[11, 0]),
   midi.NoteOnEvent(tick=952600, channel=0, data=[4, 100]),
   midi.NoteOffEvent(tick=952700, channel=0, data=[4, 0]),
   midi.NoteOnEvent(tick=952800, channel=0, data=[36, 100]),
   midi.NoteOffEvent(tick=952900, channel=0, data=[36, 0]),
   midi.NoteOnEvent(tick=953000, channel=0, data=[13, 100]),
   midi.NoteOffEvent(tick=953100, channel=0, data=[13, 0]),
   midi.NoteOnEvent(tick=953200, channel=0, data=[14, 100]),
   midi.NoteOffEvent(tick=953300, channel=0, data=[14, 0]),
   midi.NoteOnEvent(tick=953400, channel=0, data=[19, 100]),
   midi.NoteOffEvent(tick=953500, channel=0, data=[19, 0]),
   midi.NoteOnEvent(tick=953600, channel=0, data=[0, 100]),
   midi.NoteOffEvent(tick=953700, channel=0, data=[0, 0]),
   midi.NoteOnEvent(tick=953800, channel=0, data=[19, 100]),
   midi.NoteOffEvent(tick=953900, channel=0, data=[19, 0]),
   midi.NoteOnEvent(tick=954000, channel=0, data=[8, 100]),
   midi.NoteOffEvent(tick=954100, channel=0, data=[8, 0]),
   midi.NoteOnEvent(tick=954200, channel=0, data=[14, 100]),
   midi.NoteOffEvent(tick=954300, channel=0, data=[14, 0]),
   midi.NoteOnEvent(tick=954400, channel=0, data=[13, 100]),
   midi.NoteOffEvent(tick=954500, channel=0, data=[13, 0]),
   midi.NoteOnEvent(tick=954600, channel=0, data=[36, 100]),
   midi.NoteOffEvent(tick=954700, channel=0, data=[36, 0]),
   midi.NoteOnEvent(tick=954800, channel=0, data=[56, 100]),
   midi.NoteOffEvent(tick=954900, channel=0, data=[56, 0]),
   midi.NoteOnEvent(tick=955000, channel=0, data=[36, 100]),
   midi.NoteOffEvent(tick=955100, channel=0, data=[36, 0]),
   midi.NoteOnEvent(tick=955200, channel=0, data=[36, 100]),
   midi.NoteOffEvent(tick=955300, channel=0, data=[36, 0]),
   midi.NoteOnEvent(tick=955400, channel=0, data=[36, 100]),
   midi.NoteOffEvent(tick=955500, channel=0, data=[36, 0]),
   midi.NoteOnEvent(tick=955600, channel=0, data=[36, 100]),
   midi.NoteOffEvent(tick=955700, channel=0, data=[36, 0]),
   midi.NoteOnEvent(tick=955800, channel=0, data=[8, 100]),
   midi.NoteOffEvent(tick=955900, channel=0, data=[8, 0]),
   midi.NoteOnEvent(tick=956000, channel=0, data=[13, 100]),
   midi.NoteOffEvent(tick=956100, channel=0, data=[13, 0]),
   midi.NoteOnEvent(tick=956200, channel=0, data=[36, 100]),
   midi.NoteOffEvent(tick=956300, channel=0, data=[36, 0]),
   midi.NoteOnEvent(tick=956400, channel=0, data=[22, 100]),
   midi.NoteOffEvent(tick=956500, channel=0, data=[22, 0]),
   midi.NoteOnEvent(tick=956600, channel=0, data=[8, 100]),
   midi.NoteOffEvent(tick=956700, channel=0, data=[8, 0]),
   midi.NoteOnEvent(tick=956800, channel=0, data=[13, 100]),
   midi.NoteOffEvent(tick=956900, channel=0, data=[13, 0]),
   midi.NoteOnEvent(tick=957000, channel=0, data=[3, 100]),
   midi.NoteOffEvent(tick=957100, channel=0, data=[3, 0]),
   midi.NoteOnEvent(tick=957200, channel=0, data=[14, 100]),
   midi.NoteOffEvent(tick=957300, channel=0, data=[14, 0]),
   midi.NoteOnEvent(tick=957400, channel=0, data=[22, 100]),
   midi.NoteOffEvent(tick=957500, channel=0, data=[22, 0]),
   midi.NoteOnEvent(tick=957600, channel=0, data=[18, 100]),
   midi.NoteOffEvent(tick=957700, channel=0, data=[18, 0]),
   midi.NoteOnEvent(tick=957800, channel=0, data=[36, 100]),
   midi.NoteOffEvent(tick=957900, channel=0, data=[36, 0]),
   midi.NoteOnEvent(tick=958000, channel=0, data=[15, 100]),
   midi.NoteOffEvent(tick=958100, channel=0, data=[15, 0]),
   midi.NoteOnEvent(tick=958200, channel=0, data=[14, 100]),
   midi.NoteOffEvent(tick=958300, channel=0, data=[14, 0]),
   midi.NoteOnEvent(tick=958400, channel=0, data=[22, 100]),
   midi.NoteOffEvent(tick=958500, channel=0, data=[22, 0]),
   midi.NoteOnEvent(tick=958600, channel=0, data=[4, 100]),
   midi.NoteOffEvent(tick=958700, channel=0, data=[4, 0]),
   midi.NoteOnEvent(tick=958800, channel=0, data=[17, 100]),
   midi.NoteOffEvent(tick=958900, channel=0, data=[17, 0]),
   midi.NoteOnEvent(tick=959000, channel=0, data=[18, 100]),
   midi.NoteOffEvent(tick=959100, channel=0, data=[18, 0]),
   midi.NoteOnEvent(tick=959200, channel=0, data=[7, 100]),
   midi.NoteOffEvent(tick=959300, channel=0, data=[7, 0]),
   midi.NoteOnEvent(tick=959400, channel=0, data=[4, 100]),
   midi.NoteOffEvent(tick=959500, channel=0, data=[4, 0]),
   midi.NoteOnEvent(tick=959600, channel=0, data=[11, 100]),
   midi.NoteOffEvent(tick=959700, channel=0, data=[11, 0]),
   midi.NoteOnEvent(tick=959800, channel=0, data=[11, 100]),
   midi.NoteOffEvent(tick=959900, channel=0, data=[11, 0]),
   midi.NoteOnEvent(tick=960000, channel=0, data=[37, 100]),
   midi.NoteOffEvent(tick=960100, channel=0, data=[37, 0]),
   midi.NoteOnEvent(tick=960200, channel=0, data=[36, 100]),
   midi.NoteOffEvent(tick=960300, channel=0, data=[36, 0]),
   midi.NoteOnEvent(tick=960400, channel=0, data=[19, 100]),
   midi.NoteOffEvent(tick=960500, channel=0, data=[19, 0]),
   midi.NoteOnEvent(tick=960600, channel=0, data=[24, 100]),
   midi.NoteOffEvent(tick=960700, channel=0, data=[24, 0]),
   midi.NoteOnEvent(tick=960800, channel=0, data=[15, 100]),
   midi.NoteOffEvent(tick=960900, channel=0, data=[15, 0]),
   midi.NoteOnEvent(tick=961000, channel=0, data=[4, 100]),
   midi.NoteOffEvent(tick=961100, channel=0, data=[4, 0]),
   midi.NoteOnEvent(tick=961200, channel=0, data=[36, 100]),
   midi.NoteOffEvent(tick=961300, channel=0, data=[36, 0]),
   midi.NoteOnEvent(tick=961400, channel=0, data=[0, 100]),
   midi.NoteOffEvent(tick=961500, channel=0, data=[0, 0]),
   midi.NoteOnEvent(tick=961600, channel=0, data=[13, 100]),
   midi.NoteOffEvent(tick=961700, channel=0, data=[13, 0]),
   midi.NoteOnEvent(tick=961800, channel=0, data=[36, 100]),
   midi.NoteOffEvent(tick=961900, channel=0, data=[36, 0]),
   midi.NoteOnEvent(tick=962000, channel=0, data=[0, 100]),
   midi.NoteOffEvent(tick=962100, channel=0, data=[0, 0]),
   midi.NoteOnEvent(tick=962200, channel=0, data=[19, 100]),
   midi.NoteOffEvent(tick=962300, channel=0, data=[19, 0]),
   midi.NoteOnEvent(tick=962400, channel=0, data=[36, 100]),
   midi.NoteOffEvent(tick=962500, channel=0, data=[36, 0]),
   midi.NoteOnEvent(tick=962600, channel=0, data=[18, 100]),
   midi.NoteOffEvent(tick=962700, channel=0, data=[18, 0]),
   midi.NoteOnEvent(tick=962800, channel=0, data=[8, 100]),
   midi.NoteOffEvent(tick=962900, channel=0, data=[8, 0]),
   midi.NoteOnEvent(tick=963000, channel=0, data=[6, 100]),
   midi.NoteOffEvent(tick=963100, channel=0, data=[6, 0]),
   midi.NoteOnEvent(tick=963200, channel=0, data=[13, 100]),
   midi.NoteOffEvent(tick=963300, channel=0, data=[13, 0]),
   midi.NoteOnEvent(tick=963400, channel=0, data=[36, 100]),
   midi.NoteOffEvent(tick=963500, channel=0, data=[36, 0]),
   midi.NoteOnEvent(tick=963600, channel=0, data=[49, 100]),
   midi.NoteOffEvent(tick=963700, channel=0, data=[49, 0]),
   midi.NoteOnEvent(tick=963800, channel=0, data=[77, 100]),
   midi.NoteOffEvent(tick=963900, channel=0, data=[77, 0]),
   midi.NoteOnEvent(tick=964000, channel=0, data=[50, 100]),
   midi.NoteOffEvent(tick=964100, channel=0, data=[50, 0]),
   midi.NoteOnEvent(tick=964200, channel=0, data=[36, 100]),
   midi.NoteOffEvent(tick=964300, channel=0, data=[36, 0]),
   midi.NoteOnEvent(tick=964400, channel=0, data=[5, 100]),
   midi.NoteOffEvent(tick=964500, channel=0, data=[5, 0]),
   midi.NoteOnEvent(tick=964600, channel=0, data=[14, 100]),
   midi.NoteOffEvent(tick=964700, channel=0, data=[14, 0]),
   midi.NoteOnEvent(tick=964800, channel=0, data=[11, 100]),
   midi.NoteOffEvent(tick=964900, channel=0, data=[11, 0]),
   midi.NoteOnEvent(tick=965000, channel=0, data=[11, 100]),
   midi.NoteOffEvent(tick=965100, channel=0, data=[11, 0]),
   midi.NoteOnEvent(tick=965200, channel=0, data=[14, 100]),
   midi.NoteOffEvent(tick=965300, channel=0, data=[14, 0]),
   midi.NoteOnEvent(tick=965400, channel=0, data=[22, 100]),
   midi.NoteOffEvent(tick=965500, channel=0, data=[22, 0]),
   midi.NoteOnEvent(tick=965600, channel=0, data=[4, 100]),
   midi.NoteOffEvent(tick=965700, channel=0, data=[4, 0]),
   midi.NoteOnEvent(tick=965800, channel=0, data=[3, 100]),
   midi.NoteOffEvent(tick=965900, channel=0, data=[3, 0]),
   midi.NoteOnEvent(tick=966000, channel=0, data=[36, 100]),
   midi.NoteOffEvent(tick=966100, channel=0, data=[36, 0]),
   midi.NoteOnEvent(tick=966200, channel=0, data=[1, 100]),
   midi.NoteOffEvent(tick=966300, channel=0, data=[1, 0]),
   midi.NoteOnEvent(tick=966400, channel=0, data=[24, 100]),
   midi.NoteOffEvent(tick=966500, channel=0, data=[24, 0]),
   midi.NoteOnEvent(tick=966600, channel=0, data=[36, 100]),
   midi.NoteOffEvent(tick=966700, channel=0, data=[36, 0]),
   midi.NoteOnEvent(tick=966800, channel=0, data=[10, 100]),
   midi.NoteOffEvent(tick=966900, channel=0, data=[10, 0]),
   midi.NoteOnEvent(tick=967000, channel=0, data=[4, 100]),
   midi.NoteOffEvent(tick=967100, channel=0, data=[4, 0]),
   midi.NoteOnEvent(tick=967200, channel=0, data=[24, 100]),
   midi.NoteOffEvent(tick=967300, channel=0, data=[24, 0]),
   midi.NoteOnEvent(tick=967400, channel=0, data=[70, 100]),
   midi.NoteOffEvent(tick=967500, channel=0, data=[70, 0]),
   midi.NoteOnEvent(tick=967600, channel=0, data=[21, 100]),
   midi.NoteOffEvent(tick=967700, channel=0, data=[21, 0]),
   midi.NoteOnEvent(tick=967800, channel=0, data=[0, 100]),
   midi.NoteOffEvent(tick=967900, channel=0, data=[0, 0]),
   midi.NoteOnEvent(tick=968000, channel=0, data=[11, 100]),
   midi.NoteOffEvent(tick=968100, channel=0, data=[11, 0]),
   midi.NoteOnEvent(tick=968200, channel=0, data=[20, 100]),
   midi.NoteOffEvent(tick=968300, channel=0, data=[20, 0]),
   midi.NoteOnEvent(tick=968400, channel=0, data=[4, 100]),
   midi.NoteOffEvent(tick=968500, channel=0, data=[4, 0]),
   midi.NoteOnEvent(tick=968600, channel=0, data=[36, 100]),
   midi.NoteOffEvent(tick=968700, channel=0, data=[36, 0]),
   midi.NoteOnEvent(tick=968800, channel=0, data=[15, 100]),
   midi.NoteOffEvent(tick=968900, channel=0, data=[15, 0]),
   midi.NoteOnEvent(tick=969000, channel=0, data=[0, 100]),
   midi.NoteOffEvent(tick=969100, channel=0, data=[0, 0]),
   midi.NoteOnEvent(tick=969200, channel=0, data=[8, 100]),
   midi.NoteOffEvent(tick=969300, channel=0, data=[8, 0]),
   midi.NoteOnEvent(tick=969400, channel=0, data=[17, 100]),
   midi.NoteOffEvent(tick=969500, channel=0, data=[17, 0]),
   midi.NoteOnEvent(tick=969600, channel=0, data=[18, 100]),
   midi.NoteOffEvent(tick=969700, channel=0, data=[18, 0]),
   midi.NoteOnEvent(tick=969800, channel=0, data=[36, 100]),
   midi.NoteOffEvent(tick=969900, channel=0, data=[36, 0]),
   midi.NoteOnEvent(tick=970000, channel=0, data=[19, 100]),
   midi.NoteOffEvent(tick=970100, channel=0, data=[19, 0]),
   midi.NoteOnEvent(tick=970200, channel=0, data=[7, 100]),
   midi.NoteOffEvent(tick=970300, channel=0, data=[7, 0]),
   midi.NoteOnEvent(tick=970400, channel=0, data=[0, 100]),
   midi.NoteOffEvent(tick=970500, channel=0, data=[0, 0]),
   midi.NoteOnEvent(tick=970600, channel=0, data=[19, 100]),
   midi.NoteOffEvent(tick=970700, channel=0, data=[19, 0]),
   midi.NoteOnEvent(tick=970800, channel=0, data=[56, 100]),
   midi.NoteOffEvent(tick=970900, channel=0, data=[56, 0]),
   midi.NoteOnEvent(tick=971000, channel=0, data=[36, 100]),
   midi.NoteOffEvent(tick=971100, channel=0, data=[36, 0]),
   midi.NoteOnEvent(tick=971200, channel=0, data=[36, 100]),
   midi.NoteOffEvent(tick=971300, channel=0, data=[36, 0]),
   midi.NoteOnEvent(tick=971400, channel=0, data=[36, 100]),
   midi.NoteOffEvent(tick=971500, channel=0, data=[36, 0]),
   midi.NoteOnEvent(tick=971600, channel=0, data=[36, 100]),
   midi.NoteOffEvent(tick=971700, channel=0, data=[36, 0]),
   midi.NoteOnEvent(tick=971800, channel=0, data=[0, 100]),
   midi.NoteOffEvent(tick=971900, channel=0, data=[0, 0]),
   midi.NoteOnEvent(tick=972000, channel=0, data=[17, 100]),
   midi.NoteOffEvent(tick=972100, channel=0, data=[17, 0]),
   midi.NoteOnEvent(tick=972200, channel=0, data=[4, 100]),
   midi.NoteOffEvent(tick=972300, channel=0, data=[4, 0]),
   midi.NoteOnEvent(tick=972400, channel=0, data=[36, 100]),
   midi.NoteOffEvent(tick=972500, channel=0, data=[36, 0]),
   midi.NoteOnEvent(tick=972600, channel=0, data=[18, 100]),
   midi.NoteOffEvent(tick=972700, channel=0, data=[18, 0]),
   midi.NoteOnEvent(tick=972800, channel=0, data=[4, 100]),
   midi.NoteOffEvent(tick=972900, channel=0, data=[4, 0]),
   midi.NoteOnEvent(tick=973000, channel=0, data=[15, 100]),
   midi.NoteOffEvent(tick=973100, channel=0, data=[15, 0]),
   midi.NoteOnEvent(tick=973200, channel=0, data=[0, 100]),
   midi.NoteOffEvent(tick=973300, channel=0, data=[0, 0]),
   midi.NoteOnEvent(tick=973400, channel=0, data=[17, 100]),
   midi.NoteOffEvent(tick=973500, channel=0, data=[17, 0]),
   midi.NoteOnEvent(tick=973600, channel=0, data=[0, 100]),
   midi.NoteOffEvent(tick=973700, channel=0, data=[0, 0]),
   midi.NoteOnEvent(tick=973800, channel=0, data=[19, 100]),
   midi.NoteOffEvent(tick=973900, channel=0, data=[19, 0]),
   midi.NoteOnEvent(tick=974000, channel=0, data=[4, 100]),
   midi.NoteOffEvent(tick=974100, channel=0, data=[4, 0]),
   midi.NoteOnEvent(tick=974200, channel=0, data=[3, 100]),
   midi.NoteOffEvent(tick=974300, channel=0, data=[3, 0]),
   midi.NoteOnEvent(tick=974400, channel=0, data=[36, 100]),
   midi.NoteOffEvent(tick=974500, channel=0, data=[36, 0]),
   midi.NoteOnEvent(tick=974600, channel=0, data=[1, 100]),
   midi.NoteOffEvent(tick=974700, channel=0, data=[1, 0]),
   midi.NoteOnEvent(tick=974800, channel=0, data=[24, 100]),
   midi.NoteOffEvent(tick=974900, channel=0, data=[24, 0]),
   midi.NoteOnEvent(tick=975000, channel=0, data=[36, 100]),
   midi.NoteOffEvent(tick=975100, channel=0, data=[36, 0]),
   midi.NoteOnEvent(tick=975200, channel=0, data=[18, 100]),
   midi.NoteOffEvent(tick=975300, channel=0, data=[18, 0]),
   midi.NoteOnEvent(tick=975400, channel=0, data=[4, 100]),
   midi.NoteOffEvent(tick=975500, channel=0, data=[4, 0]),
   midi.NoteOnEvent(tick=975600, channel=0, data=[12, 100]),
   midi.NoteOffEvent(tick=975700, channel=0, data=[12, 0]),
   midi.NoteOnEvent(tick=975800, channel=0, data=[8, 100]),
   midi.NoteOffEvent(tick=975900, channel=0, data=[8, 0]),
   midi.NoteOnEvent(tick=976000, channel=0, data=[2, 100]),
   midi.NoteOffEvent(tick=976100, channel=0, data=[2, 0]),
   midi.NoteOnEvent(tick=976200, channel=0, data=[14, 100]),
   midi.NoteOffEvent(tick=976300, channel=0, data=[14, 0]),
   midi.NoteOnEvent(tick=976400, channel=0, data=[11, 100]),
   midi.NoteOffEvent(tick=976500, channel=0, data=[11, 0]),
   midi.NoteOnEvent(tick=976600, channel=0, data=[14, 100]),
   midi.NoteOffEvent(tick=976700, channel=0, data=[14, 0]),
   midi.NoteOnEvent(tick=976800, channel=0, data=[13, 100]),
   midi.NoteOffEvent(tick=976900, channel=0, data=[13, 0]),
   midi.NoteOnEvent(tick=977000, channel=0, data=[18, 100]),
   midi.NoteOffEvent(tick=977100, channel=0, data=[18, 0]),
   midi.NoteOnEvent(tick=977200, channel=0, data=[36, 100]),
   midi.NoteOffEvent(tick=977300, channel=0, data=[36, 0]),
   midi.NoteOnEvent(tick=977400, channel=0, data=[49, 100]),
   midi.NoteOffEvent(tick=977500, channel=0, data=[49, 0]),
   midi.NoteOnEvent(tick=977600, channel=0, data=[47, 100]),
   midi.NoteOffEvent(tick=977700, channel=0, data=[47, 0]),
   midi.NoteOnEvent(tick=977800, channel=0, data=[50, 100]),
   midi.NoteOffEvent(tick=977900, channel=0, data=[50, 0]),
   midi.NoteOnEvent(tick=978000, channel=0, data=[36, 100]),
   midi.NoteOffEvent(tick=978100, channel=0, data=[36, 0]),
   midi.NoteOnEvent(tick=978200, channel=0, data=[0, 100]),
   midi.NoteOffEvent(tick=978300, channel=0, data=[0, 0]),
   midi.NoteOnEvent(tick=978400, channel=0, data=[13, 100]),
   midi.NoteOffEvent(tick=978500, channel=0, data=[13, 0]),
   midi.NoteOnEvent(tick=978600, channel=0, data=[3, 100]),
   midi.NoteOffEvent(tick=978700, channel=0, data=[3, 0]),
   midi.NoteOnEvent(tick=978800, channel=0, data=[36, 100]),
   midi.NoteOffEvent(tick=978900, channel=0, data=[36, 0]),
   midi.NoteOnEvent(tick=979000, channel=0, data=[4, 100]),
   midi.NoteOffEvent(tick=979100, channel=0, data=[4, 0]),
   midi.NoteOnEvent(tick=979200, channel=0, data=[13, 100]),
   midi.NoteOffEvent(tick=979300, channel=0, data=[13, 0]),
   midi.NoteOnEvent(tick=979400, channel=0, data=[2, 100]),
   midi.NoteOffEvent(tick=979500, channel=0, data=[2, 0]),
   midi.NoteOnEvent(tick=979600, channel=0, data=[11, 100]),
   midi.NoteOffEvent(tick=979700, channel=0, data=[11, 0]),
   midi.NoteOnEvent(tick=979800, channel=0, data=[14, 100]),
   midi.NoteOffEvent(tick=979900, channel=0, data=[14, 0]),
   midi.NoteOnEvent(tick=980000, channel=0, data=[18, 100]),
   midi.NoteOffEvent(tick=980100, channel=0, data=[18, 0]),
   midi.NoteOnEvent(tick=980200, channel=0, data=[4, 100]),
   midi.NoteOffEvent(tick=980300, channel=0, data=[4, 0]),
   midi.NoteOnEvent(tick=980400, channel=0, data=[3, 100]),
   midi.NoteOffEvent(tick=980500, channel=0, data=[3, 0]),
   midi.NoteOnEvent(tick=980600, channel=0, data=[36, 100]),
   midi.NoteOffEvent(tick=980700, channel=0, data=[36, 0]),
   midi.NoteOnEvent(tick=980800, channel=0, data=[8, 100]),
   midi.NoteOffEvent(tick=980900, channel=0, data=[8, 0]),
   midi.NoteOnEvent(tick=981000, channel=0, data=[13, 100]),
   midi.NoteOffEvent(tick=981100, channel=0, data=[13, 0]),
   midi.NoteOnEvent(tick=981200, channel=0, data=[36, 100]),
   midi.NoteOffEvent(tick=981300, channel=0, data=[36, 0]),
   midi.NoteOnEvent(tick=981400, channel=0, data=[1, 100]),
   midi.NoteOffEvent(tick=981500, channel=0, data=[1, 0]),
   midi.NoteOnEvent(tick=981600, channel=0, data=[17, 100]),
   midi.NoteOffEvent(tick=981700, channel=0, data=[17, 0]),
   midi.NoteOnEvent(tick=981800, channel=0, data=[0, 100]),
   midi.NoteOffEvent(tick=981900, channel=0, data=[0, 0]),
   midi.NoteOnEvent(tick=982000, channel=0, data=[2, 100]),
   midi.NoteOffEvent(tick=982100, channel=0, data=[2, 0]),
   midi.NoteOnEvent(tick=982200, channel=0, data=[4, 100]),
   midi.NoteOffEvent(tick=982300, channel=0, data=[4, 0]),
   midi.NoteOnEvent(tick=982400, channel=0, data=[18, 100]),
   midi.NoteOffEvent(tick=982500, channel=0, data=[18, 0]),
   midi.NoteOnEvent(tick=982600, channel=0, data=[36, 100]),
   midi.NoteOffEvent(tick=982700, channel=0, data=[36, 0]),
   midi.NoteOnEvent(tick=982800, channel=0, data=[49, 100]),
   midi.NoteOffEvent(tick=982900, channel=0, data=[49, 0]),
   midi.NoteOnEvent(tick=983000, channel=0, data=[53, 100]),
   midi.NoteOffEvent(tick=983100, channel=0, data=[53, 0]),
   midi.NoteOnEvent(tick=983200, channel=0, data=[36, 100]),
   midi.NoteOffEvent(tick=983300, channel=0, data=[36, 0]),
   midi.NoteOnEvent(tick=983400, channel=0, data=[54, 100]),
   midi.NoteOffEvent(tick=983500, channel=0, data=[54, 0]),
   midi.NoteOnEvent(tick=983600, channel=0, data=[50, 100]),
   midi.NoteOffEvent(tick=983700, channel=0, data=[50, 0]),
   midi.NoteOnEvent(tick=983800, channel=0, data=[37, 100]),
   midi.NoteOffEvent(tick=983900, channel=0, data=[37, 0]),
   midi.NoteOnEvent(tick=984000, channel=0, data=[36, 100]),
   midi.NoteOffEvent(tick=984100, channel=0, data=[36, 0]),
   midi.NoteOnEvent(tick=984200, channel=0, data=[5, 100]),
   midi.NoteOffEvent(tick=984300, channel=0, data=[5, 0]),
   midi.NoteOnEvent(tick=984400, channel=0, data=[14, 100]),
   midi.NoteOffEvent(tick=984500, channel=0, data=[14, 0]),
   midi.NoteOnEvent(tick=984600, channel=0, data=[17, 100]),
   midi.NoteOffEvent(tick=984700, channel=0, data=[17, 0]),
   midi.NoteOnEvent(tick=984800, channel=0, data=[36, 100]),
   midi.NoteOffEvent(tick=984900, channel=0, data=[36, 0]),
   midi.NoteOnEvent(tick=985000, channel=0, data=[4, 100]),
   midi.NoteOffEvent(tick=985100, channel=0, data=[4, 0]),
   midi.NoteOnEvent(tick=985200, channel=0, data=[23, 100]),
   midi.NoteOffEvent(tick=985300, channel=0, data=[23, 0]),
   midi.NoteOnEvent(tick=985400, channel=0, data=[0, 100]),
   midi.NoteOffEvent(tick=985500, channel=0, data=[0, 0]),
   midi.NoteOnEvent(tick=985600, channel=0, data=[12, 100]),
   midi.NoteOffEvent(tick=985700, channel=0, data=[12, 0]),
   midi.NoteOnEvent(tick=985800, channel=0, data=[15, 100]),
   midi.NoteOffEvent(tick=985900, channel=0, data=[15, 0]),
   midi.NoteOnEvent(tick=986000, channel=0, data=[11, 100]),
   midi.NoteOffEvent(tick=986100, channel=0, data=[11, 0]),
   midi.NoteOnEvent(tick=986200, channel=0, data=[4, 100]),
   midi.NoteOffEvent(tick=986300, channel=0, data=[4, 0]),
   midi.NoteOnEvent(tick=986400, channel=0, data=[38, 100]),
   midi.NoteOffEvent(tick=986500, channel=0, data=[38, 0]),
   midi.NoteOnEvent(tick=986600, channel=0, data=[56, 100]),
   midi.NoteOffEvent(tick=986700, channel=0, data=[56, 0]),
   midi.NoteOnEvent(tick=986800, channel=0, data=[36, 100]),
   midi.NoteOffEvent(tick=986900, channel=0, data=[36, 0]),
   midi.NoteOnEvent(tick=987000, channel=0, data=[36, 100]),
   midi.NoteOffEvent(tick=987100, channel=0, data=[36, 0]),
   midi.NoteOnEvent(tick=987200, channel=0, data=[36, 100]),
   midi.NoteOffEvent(tick=987300, channel=0, data=[36, 0]),
   midi.NoteOnEvent(tick=987400, channel=0, data=[36, 100]),
   midi.NoteOffEvent(tick=987500, channel=0, data=[36, 0]),
   midi.NoteOnEvent(tick=987600, channel=0, data=[19, 100]),
   midi.NoteOffEvent(tick=987700, channel=0, data=[19, 0]),
   midi.NoteOnEvent(tick=987800, channel=0, data=[14, 100]),
   midi.NoteOffEvent(tick=987900, channel=0, data=[14, 0]),
   midi.NoteOnEvent(tick=988000, channel=0, data=[36, 100]),
   midi.NoteOffEvent(tick=988100, channel=0, data=[36, 0]),
   midi.NoteOnEvent(tick=988200, channel=0, data=[0, 100]),
   midi.NoteOffEvent(tick=988300, channel=0, data=[0, 0]),
   midi.NoteOnEvent(tick=988400, channel=0, data=[18, 100]),
   midi.NoteOffEvent(tick=988500, channel=0, data=[18, 0]),
   midi.NoteOnEvent(tick=988600, channel=0, data=[18, 100]),
   midi.NoteOffEvent(tick=988700, channel=0, data=[18, 0]),
   midi.NoteOnEvent(tick=988800, channel=0, data=[8, 100]),
   midi.NoteOffEvent(tick=988900, channel=0, data=[8, 0]),
   midi.NoteOnEvent(tick=989000, channel=0, data=[6, 100]),
   midi.NoteOffEvent(tick=989100, channel=0, data=[6, 0]),
   midi.NoteOnEvent(tick=989200, channel=0, data=[13, 100]),
   midi.NoteOffEvent(tick=989300, channel=0, data=[13, 0]),
   midi.NoteOnEvent(tick=989400, channel=0, data=[36, 100]),
   midi.NoteOffEvent(tick=989500, channel=0, data=[36, 0]),
   midi.NoteOnEvent(tick=989600, channel=0, data=[0, 100]),
   midi.NoteOffEvent(tick=989700, channel=0, data=[0, 0]),
   midi.NoteOnEvent(tick=989800, channel=0, data=[36, 100]),
   midi.NoteOffEvent(tick=989900, channel=0, data=[36, 0]),
   midi.NoteOnEvent(tick=990000, channel=0, data=[7, 100]),
   midi.NoteOffEvent(tick=990100, channel=0, data=[7, 0]),
   midi.NoteOnEvent(tick=990200, channel=0, data=[0, 100]),
   midi.NoteOffEvent(tick=990300, channel=0, data=[0, 0]),
   midi.NoteOnEvent(tick=990400, channel=0, data=[18, 100]),
   midi.NoteOffEvent(tick=990500, channel=0, data=[18, 0]),
   midi.NoteOnEvent(tick=990600, channel=0, data=[7, 100]),
   midi.NoteOffEvent(tick=990700, channel=0, data=[7, 0]),
   midi.NoteOnEvent(tick=990800, channel=0, data=[36, 100]),
   midi.NoteOffEvent(tick=990900, channel=0, data=[36, 0]),
   midi.NoteOnEvent(tick=991000, channel=0, data=[19, 100]),
   midi.NoteOffEvent(tick=991100, channel=0, data=[19, 0]),
   midi.NoteOnEvent(tick=991200, channel=0, data=[0, 100]),
   midi.NoteOffEvent(tick=991300, channel=0, data=[0, 0]),
   midi.NoteOnEvent(tick=991400, channel=0, data=[1, 100]),
   midi.NoteOffEvent(tick=991500, channel=0, data=[1, 0]),
   midi.NoteOnEvent(tick=991600, channel=0, data=[11, 100]),
   midi.NoteOffEvent(tick=991700, channel=0, data=[11, 0]),
   midi.NoteOnEvent(tick=991800, channel=0, data=[4, 100]),
   midi.NoteOffEvent(tick=991900, channel=0, data=[4, 0]),
   midi.NoteOnEvent(tick=992000, channel=0, data=[36, 100]),
   midi.NoteOffEvent(tick=992100, channel=0, data=[36, 0]),
   midi.NoteOnEvent(tick=992200, channel=0, data=[19, 100]),
   midi.NoteOffEvent(tick=992300, channel=0, data=[19, 0]),
   midi.NoteOnEvent(tick=992400, channel=0, data=[14, 100]),
   midi.NoteOffEvent(tick=992500, channel=0, data=[14, 0]),
   midi.NoteOnEvent(tick=992600, channel=0, data=[36, 100]),
   midi.NoteOffEvent(tick=992700, channel=0, data=[36, 0]),
   midi.NoteOnEvent(tick=992800, channel=0, data=[19, 100]),
   midi.NoteOffEvent(tick=992900, channel=0, data=[19, 0]),
   midi.NoteOnEvent(tick=993000, channel=0, data=[7, 100]),
   midi.NoteOffEvent(tick=993100, channel=0, data=[7, 0]),
   midi.NoteOnEvent(tick=993200, channel=0, data=[4, 100]),
   midi.NoteOffEvent(tick=993300, channel=0, data=[4, 0]),
   midi.NoteOnEvent(tick=993400, channel=0, data=[36, 100]),
   midi.NoteOffEvent(tick=993500, channel=0, data=[36, 0]),
   midi.NoteOnEvent(tick=993600, channel=0, data=[74, 100]),
   midi.NoteOffEvent(tick=993700, channel=0, data=[74, 0]),
   midi.NoteOnEvent(tick=993800, channel=0, data=[0, 100]),
   midi.NoteOffEvent(tick=993900, channel=0, data=[0, 0]),
   midi.NoteOnEvent(tick=994000, channel=0, data=[36, 100]),
   midi.NoteOffEvent(tick=994100, channel=0, data=[36, 0]),
   midi.NoteOnEvent(tick=994200, channel=0, data=[21, 100]),
   midi.NoteOffEvent(tick=994300, channel=0, data=[21, 0]),
   midi.NoteOnEvent(tick=994400, channel=0, data=[0, 100]),
   midi.NoteOffEvent(tick=994500, channel=0, data=[0, 0]),
   midi.NoteOnEvent(tick=994600, channel=0, data=[17, 100]),
   midi.NoteOffEvent(tick=994700, channel=0, data=[17, 0]),
   midi.NoteOnEvent(tick=994800, channel=0, data=[8, 100]),
   midi.NoteOffEvent(tick=994900, channel=0, data=[8, 0]),
   midi.NoteOnEvent(tick=995000, channel=0, data=[0, 100]),
   midi.NoteOffEvent(tick=995100, channel=0, data=[0, 0]),
   midi.NoteOnEvent(tick=995200, channel=0, data=[1, 100]),
   midi.NoteOffEvent(tick=995300, channel=0, data=[1, 0]),
   midi.NoteOnEvent(tick=995400, channel=0, data=[11, 100]),
   midi.NoteOffEvent(tick=995500, channel=0, data=[11, 0]),
   midi.NoteOnEvent(tick=995600, channel=0, data=[4, 100]),
   midi.NoteOffEvent(tick=995700, channel=0, data=[4, 0]),
   midi.NoteOnEvent(tick=995800, channel=0, data=[38, 100]),
   midi.NoteOffEvent(tick=995900, channel=0, data=[38, 0]),
   midi.NoteOnEvent(tick=996000, channel=0, data=[36, 100]),
   midi.NoteOffEvent(tick=996100, channel=0, data=[36, 0]),
   midi.NoteOnEvent(tick=996200, channel=0, data=[19, 100]),
   midi.NoteOffEvent(tick=996300, channel=0, data=[19, 0]),
   midi.NoteOnEvent(tick=996400, channel=0, data=[24, 100]),
   midi.NoteOffEvent(tick=996500, channel=0, data=[24, 0]),
   midi.NoteOnEvent(tick=996600, channel=0, data=[15, 100]),
   midi.NoteOffEvent(tick=996700, channel=0, data=[15, 0]),
   midi.NoteOnEvent(tick=996800, channel=0, data=[4, 100]),
   midi.NoteOffEvent(tick=996900, channel=0, data=[4, 0]),
   midi.NoteOnEvent(tick=997000, channel=0, data=[46, 100]),
   midi.NoteOffEvent(tick=997100, channel=0, data=[46, 0]),
   midi.NoteOnEvent(tick=997200, channel=0, data=[56, 100]),
   midi.NoteOffEvent(tick=997300, channel=0, data=[56, 0]),
   midi.NoteOnEvent(tick=997400, channel=0, data=[56, 100]),
   midi.NoteOffEvent(tick=997500, channel=0, data=[56, 0]),
   midi.NoteOnEvent(tick=997600, channel=0, data=[56, 100]),
   midi.NoteOffEvent(tick=997700, channel=0, data=[56, 0]),
   midi.NoteOnEvent(tick=997800, channel=0, data=[36, 100]),
   midi.NoteOffEvent(tick=997900, channel=0, data=[36, 0]),
   midi.NoteOnEvent(tick=998000, channel=0, data=[36, 100]),
   midi.NoteOffEvent(tick=998100, channel=0, data=[36, 0]),
   midi.NoteOnEvent(tick=998200, channel=0, data=[36, 100]),
   midi.NoteOffEvent(tick=998300, channel=0, data=[36, 0]),
   midi.NoteOnEvent(tick=998400, channel=0, data=[36, 100]),
   midi.NoteOffEvent(tick=998500, channel=0, data=[36, 0]),
   midi.NoteOnEvent(tick=998600, channel=0, data=[36, 100]),
   midi.NoteOffEvent(tick=998700, channel=0, data=[36, 0]),
   midi.NoteOnEvent(tick=998800, channel=0, data=[36, 100]),
   midi.NoteOffEvent(tick=998900, channel=0, data=[36, 0]),
   midi.NoteOnEvent(tick=999000, channel=0, data=[36, 100]),
   midi.NoteOffEvent(tick=999100, channel=0, data=[36, 0]),
   midi.NoteOnEvent(tick=999200, channel=0, data=[36, 100]),
   midi.NoteOffEvent(tick=999300, channel=0, data=[36, 0]),
   midi.NoteOnEvent(tick=999400, channel=0, data=[74, 100]),
   midi.NoteOffEvent(tick=999500, channel=0, data=[74, 0]),
   midi.NoteOnEvent(tick=999600, channel=0, data=[0, 100]),
   midi.NoteOffEvent(tick=999700, channel=0, data=[0, 0]),
   midi.NoteOnEvent(tick=999800, channel=0, data=[36, 100]),
   midi.NoteOffEvent(tick=999900, channel=0, data=[36, 0]),
   midi.NoteOnEvent(tick=1000000, channel=0, data=[69, 100]),
   midi.NoteOffEvent(tick=1000100, channel=0, data=[69, 0]),
   midi.NoteOnEvent(tick=1000200, channel=0, data=[36, 100]),
   midi.NoteOffEvent(tick=1000300, channel=0, data=[36, 0]),
   midi.NoteOnEvent(tick=1000400, channel=0, data=[77, 100]),
   midi.NoteOffEvent(tick=1000500, channel=0, data=[77, 0]),
   midi.NoteOnEvent(tick=1000600, channel=0, data=[53, 100]),
   midi.NoteOffEvent(tick=1000700, channel=0, data=[53, 0]),
   midi.NoteOnEvent(tick=1000800, channel=0, data=[14, 100]),
   midi.NoteOffEvent(tick=1000900, channel=0, data=[14, 0]),
   midi.NoteOnEvent(tick=1001000, channel=0, data=[13, 100]),
   midi.NoteOffEvent(tick=1001100, channel=0, data=[13, 0]),
   midi.NoteOnEvent(tick=1001200, channel=0, data=[4, 100]),
   midi.NoteOffEvent(tick=1001300, channel=0, data=[4, 0]),
   midi.NoteOnEvent(tick=1001400, channel=0, data=[69, 100]),
   midi.NoteOffEvent(tick=1001500, channel=0, data=[69, 0]),
   midi.NoteOnEvent(tick=1001600, channel=0, data=[27, 100]),
   midi.NoteOffEvent(tick=1001700, channel=0, data=[27, 0]),
   midi.NoteOnEvent(tick=1001800, channel=0, data=[47, 100]),
   midi.NoteOffEvent(tick=1001900, channel=0, data=[47, 0]),
   midi.NoteOnEvent(tick=1002000, channel=0, data=[36, 100]),
   midi.NoteOffEvent(tick=1002100, channel=0, data=[36, 0]),
   midi.NoteOnEvent(tick=1002200, channel=0, data=[19, 100]),
   midi.NoteOffEvent(tick=1002300, channel=0, data=[19, 0]),
   midi.NoteOnEvent(tick=1002400, channel=0, data=[22, 100]),
   midi.NoteOffEvent(tick=1002500, channel=0, data=[22, 0]),
   midi.NoteOnEvent(tick=1002600, channel=0, data=[14, 100]),
   midi.NoteOffEvent(tick=1002700, channel=0, data=[14, 0]),
   midi.NoteOnEvent(tick=1002800, channel=0, data=[69, 100]),
   midi.NoteOffEvent(tick=1002900, channel=0, data=[69, 0]),
   midi.NoteOnEvent(tick=1003000, channel=0, data=[28, 100]),
   midi.NoteOffEvent(tick=1003100, channel=0, data=[28, 0]),
   midi.NoteOnEvent(tick=1003200, channel=0, data=[47, 100]),
   midi.NoteOffEvent(tick=1003300, channel=0, data=[47, 0]),
   midi.NoteOnEvent(tick=1003400, channel=0, data=[36, 100]),
   midi.NoteOffEvent(tick=1003500, channel=0, data=[36, 0]),
   midi.NoteOnEvent(tick=1003600, channel=0, data=[19, 100]),
   midi.NoteOffEvent(tick=1003700, channel=0, data=[19, 0]),
   midi.NoteOnEvent(tick=1003800, channel=0, data=[7, 100]),
   midi.NoteOffEvent(tick=1003900, channel=0, data=[7, 0]),
   midi.NoteOnEvent(tick=1004000, channel=0, data=[17, 100]),
   midi.NoteOffEvent(tick=1004100, channel=0, data=[17, 0]),
   midi.NoteOnEvent(tick=1004200, channel=0, data=[4, 100]),
   midi.NoteOffEvent(tick=1004300, channel=0, data=[4, 0]),
   midi.NoteOnEvent(tick=1004400, channel=0, data=[4, 100]),
   midi.NoteOffEvent(tick=1004500, channel=0, data=[4, 0]),
   midi.NoteOnEvent(tick=1004600, channel=0, data=[69, 100]),
   midi.NoteOffEvent(tick=1004700, channel=0, data=[69, 0]),
   midi.NoteOnEvent(tick=1004800, channel=0, data=[29, 100]),
   midi.NoteOffEvent(tick=1004900, channel=0, data=[29, 0]),
   midi.NoteOnEvent(tick=1005000, channel=0, data=[54, 100]),
   midi.NoteOffEvent(tick=1005100, channel=0, data=[54, 0]),
   midi.NoteOnEvent(tick=1005200, channel=0, data=[36, 100]),
   midi.NoteOffEvent(tick=1005300, channel=0, data=[36, 0]),
   midi.NoteOnEvent(tick=1005400, channel=0, data=[56, 100]),
   midi.NoteOffEvent(tick=1005500, channel=0, data=[56, 0]),
   midi.NoteOnEvent(tick=1005600, channel=0, data=[56, 100]),
   midi.NoteOffEvent(tick=1005700, channel=0, data=[56, 0]),
   midi.NoteOnEvent(tick=1005800, channel=0, data=[56, 100]),
   midi.NoteOffEvent(tick=1005900, channel=0, data=[56, 0]),
   midi.NoteOnEvent(tick=1006000, channel=0, data=[36, 100]),
   midi.NoteOffEvent(tick=1006100, channel=0, data=[36, 0]),
   midi.NoteOnEvent(tick=1006200, channel=0, data=[36, 100]),
   midi.NoteOffEvent(tick=1006300, channel=0, data=[36, 0]),
   midi.NoteOnEvent(tick=1006400, channel=0, data=[36, 100]),
   midi.NoteOffEvent(tick=1006500, channel=0, data=[36, 0]),
   midi.NoteOnEvent(tick=1006600, channel=0, data=[36, 100]),
   midi.NoteOffEvent(tick=1006700, channel=0, data=[36, 0]),
   midi.NoteOnEvent(tick=1006800, channel=0, data=[19, 100]),
   midi.NoteOffEvent(tick=1006900, channel=0, data=[19, 0]),
   midi.NoteOnEvent(tick=1007000, channel=0, data=[14, 100]),
   midi.NoteOffEvent(tick=1007100, channel=0, data=[14, 0]),
   midi.NoteOnEvent(tick=1007200, channel=0, data=[36, 100]),
   midi.NoteOffEvent(tick=1007300, channel=0, data=[36, 0]),
   midi.NoteOnEvent(tick=1007400, channel=0, data=[0, 100]),
   midi.NoteOffEvent(tick=1007500, channel=0, data=[0, 0]),
   midi.NoteOnEvent(tick=1007600, channel=0, data=[18, 100]),
   midi.NoteOffEvent(tick=1007700, channel=0, data=[18, 0]),
   midi.NoteOnEvent(tick=1007800, channel=0, data=[18, 100]),
   midi.NoteOffEvent(tick=1007900, channel=0, data=[18, 0]),
   midi.NoteOnEvent(tick=1008000, channel=0, data=[8, 100]),
   midi.NoteOffEvent(tick=1008100, channel=0, data=[8, 0]),
   midi.NoteOnEvent(tick=1008200, channel=0, data=[6, 100]),
   midi.NoteOffEvent(tick=1008300, channel=0, data=[6, 0]),
   midi.NoteOnEvent(tick=1008400, channel=0, data=[13, 100]),
   midi.NoteOffEvent(tick=1008500, channel=0, data=[13, 0]),
   midi.NoteOnEvent(tick=1008600, channel=0, data=[36, 100]),
   midi.NoteOffEvent(tick=1008700, channel=0, data=[36, 0]),
   midi.NoteOnEvent(tick=1008800, channel=0, data=[7, 100]),
   midi.NoteOffEvent(tick=1008900, channel=0, data=[7, 0]),
   midi.NoteOnEvent(tick=1009000, channel=0, data=[4, 100]),
   midi.NoteOffEvent(tick=1009100, channel=0, data=[4, 0]),
   midi.NoteOnEvent(tick=1009200, channel=0, data=[23, 100]),
   midi.NoteOffEvent(tick=1009300, channel=0, data=[23, 0]),
   midi.NoteOnEvent(tick=1009400, channel=0, data=[0, 100]),
   midi.NoteOffEvent(tick=1009500, channel=0, data=[0, 0]),
   midi.NoteOnEvent(tick=1009600, channel=0, data=[3, 100]),
   midi.NoteOffEvent(tick=1009700, channel=0, data=[3, 0]),
   midi.NoteOnEvent(tick=1009800, channel=0, data=[4, 100]),
   midi.NoteOffEvent(tick=1009900, channel=0, data=[4, 0]),
   midi.NoteOnEvent(tick=1010000, channel=0, data=[2, 100]),
   midi.NoteOffEvent(tick=1010100, channel=0, data=[2, 0]),
   midi.NoteOnEvent(tick=1010200, channel=0, data=[8, 100]),
   midi.NoteOffEvent(tick=1010300, channel=0, data=[8, 0]),
   midi.NoteOnEvent(tick=1010400, channel=0, data=[12, 100]),
   midi.NoteOffEvent(tick=1010500, channel=0, data=[12, 0]),
   midi.NoteOnEvent(tick=1010600, channel=0, data=[0, 100]),
   midi.NoteOffEvent(tick=1010700, channel=0, data=[0, 0]),
   midi.NoteOnEvent(tick=1010800, channel=0, data=[11, 100]),
   midi.NoteOffEvent(tick=1010900, channel=0, data=[11, 0]),
   midi.NoteOnEvent(tick=1011000, channel=0, data=[36, 100]),
   midi.NoteOffEvent(tick=1011100, channel=0, data=[36, 0]),
   midi.NoteOnEvent(tick=1011200, channel=0, data=[21, 100]),
   midi.NoteOffEvent(tick=1011300, channel=0, data=[21, 0]),
   midi.NoteOnEvent(tick=1011400, channel=0, data=[0, 100]),
   midi.NoteOffEvent(tick=1011500, channel=0, data=[0, 0]),
   midi.NoteOnEvent(tick=1011600, channel=0, data=[11, 100]),
   midi.NoteOffEvent(tick=1011700, channel=0, data=[11, 0]),
   midi.NoteOnEvent(tick=1011800, channel=0, data=[20, 100]),
   midi.NoteOffEvent(tick=1011900, channel=0, data=[20, 0]),
   midi.NoteOnEvent(tick=1012000, channel=0, data=[4, 100]),
   midi.NoteOffEvent(tick=1012100, channel=0, data=[4, 0]),
   midi.NoteOnEvent(tick=1012200, channel=0, data=[18, 100]),
   midi.NoteOffEvent(tick=1012300, channel=0, data=[18, 0]),
   midi.NoteOnEvent(tick=1012400, channel=0, data=[36, 100]),
   midi.NoteOffEvent(tick=1012500, channel=0, data=[36, 0]),
   midi.NoteOnEvent(tick=1012600, channel=0, data=[19, 100]),
   midi.NoteOffEvent(tick=1012700, channel=0, data=[19, 0]),
   midi.NoteOnEvent(tick=1012800, channel=0, data=[14, 100]),
   midi.NoteOffEvent(tick=1012900, channel=0, data=[14, 0]),
   midi.NoteOnEvent(tick=1013000, channel=0, data=[36, 100]),
   midi.NoteOffEvent(tick=1013100, channel=0, data=[36, 0]),
   midi.NoteOnEvent(tick=1013200, channel=0, data=[0, 100]),
   midi.NoteOffEvent(tick=1013300, channel=0, data=[0, 0]),
   midi.NoteOnEvent(tick=1013400, channel=0, data=[36, 100]),
   midi.NoteOffEvent(tick=1013500, channel=0, data=[36, 0]),
   midi.NoteOnEvent(tick=1013600, channel=0, data=[21, 100]),
   midi.NoteOffEvent(tick=1013700, channel=0, data=[21, 0]),
   midi.NoteOnEvent(tick=1013800, channel=0, data=[0, 100]),
   midi.NoteOffEvent(tick=1013900, channel=0, data=[0, 0]),
   midi.NoteOnEvent(tick=1014000, channel=0, data=[17, 100]),
   midi.NoteOffEvent(tick=1014100, channel=0, data=[17, 0]),
   midi.NoteOnEvent(tick=1014200, channel=0, data=[8, 100]),
   midi.NoteOffEvent(tick=1014300, channel=0, data=[8, 0]),
   midi.NoteOnEvent(tick=1014400, channel=0, data=[0, 100]),
   midi.NoteOffEvent(tick=1014500, channel=0, data=[0, 0]),
   midi.NoteOnEvent(tick=1014600, channel=0, data=[1, 100]),
   midi.NoteOffEvent(tick=1014700, channel=0, data=[1, 0]),
   midi.NoteOnEvent(tick=1014800, channel=0, data=[11, 100]),
   midi.NoteOffEvent(tick=1014900, channel=0, data=[11, 0]),
   midi.NoteOnEvent(tick=1015000, channel=0, data=[4, 100]),
   midi.NoteOffEvent(tick=1015100, channel=0, data=[4, 0]),
   midi.NoteOnEvent(tick=1015200, channel=0, data=[38, 100]),
   midi.NoteOffEvent(tick=1015300, channel=0, data=[38, 0]),
   midi.NoteOnEvent(tick=1015400, channel=0, data=[36, 100]),
   midi.NoteOffEvent(tick=1015500, channel=0, data=[36, 0]),
   midi.NoteOnEvent(tick=1015600, channel=0, data=[15, 100]),
   midi.NoteOffEvent(tick=1015700, channel=0, data=[15, 0]),
   midi.NoteOnEvent(tick=1015800, channel=0, data=[17, 100]),
   midi.NoteOffEvent(tick=1015900, channel=0, data=[17, 0]),
   midi.NoteOnEvent(tick=1016000, channel=0, data=[4, 100]),
   midi.NoteOffEvent(tick=1016100, channel=0, data=[4, 0]),
   midi.NoteOnEvent(tick=1016200, channel=0, data=[2, 100]),
   midi.NoteOffEvent(tick=1016300, channel=0, data=[2, 0]),
   midi.NoteOnEvent(tick=1016400, channel=0, data=[4, 100]),
   midi.NoteOffEvent(tick=1016500, channel=0, data=[4, 0]),
   midi.NoteOnEvent(tick=1016600, channel=0, data=[3, 100]),
   midi.NoteOffEvent(tick=1016700, channel=0, data=[3, 0]),
   midi.NoteOnEvent(tick=1016800, channel=0, data=[4, 100]),
   midi.NoteOffEvent(tick=1016900, channel=0, data=[4, 0]),
   midi.NoteOnEvent(tick=1017000, channel=0, data=[36, 100]),
   midi.NoteOffEvent(tick=1017100, channel=0, data=[36, 0]),
   midi.NoteOnEvent(tick=1017200, channel=0, data=[19, 100]),
   midi.NoteOffEvent(tick=1017300, channel=0, data=[19, 0]),
   midi.NoteOnEvent(tick=1017400, channel=0, data=[7, 100]),
   midi.NoteOffEvent(tick=1017500, channel=0, data=[7, 0]),
   midi.NoteOnEvent(tick=1017600, channel=0, data=[4, 100]),
   midi.NoteOffEvent(tick=1017700, channel=0, data=[4, 0]),
   midi.NoteOnEvent(tick=1017800, channel=0, data=[36, 100]),
   midi.NoteOffEvent(tick=1017900, channel=0, data=[36, 0]),
   midi.NoteOnEvent(tick=1018000, channel=0, data=[21, 100]),
   midi.NoteOffEvent(tick=1018100, channel=0, data=[21, 0]),
   midi.NoteOnEvent(tick=1018200, channel=0, data=[0, 100]),
   midi.NoteOffEvent(tick=1018300, channel=0, data=[0, 0]),
   midi.NoteOnEvent(tick=1018400, channel=0, data=[11, 100]),
   midi.NoteOffEvent(tick=1018500, channel=0, data=[11, 0]),
   midi.NoteOnEvent(tick=1018600, channel=0, data=[20, 100]),
   midi.NoteOffEvent(tick=1018700, channel=0, data=[20, 0]),
   midi.NoteOnEvent(tick=1018800, channel=0, data=[4, 100]),
   midi.NoteOffEvent(tick=1018900, channel=0, data=[4, 0]),
   midi.NoteOnEvent(tick=1019000, channel=0, data=[36, 100]),
   midi.NoteOffEvent(tick=1019100, channel=0, data=[36, 0]),
   midi.NoteOnEvent(tick=1019200, channel=0, data=[22, 100]),
   midi.NoteOffEvent(tick=1019300, channel=0, data=[22, 0]),
   midi.NoteOnEvent(tick=1019400, channel=0, data=[8, 100]),
   midi.NoteOffEvent(tick=1019500, channel=0, data=[8, 0]),
   midi.NoteOnEvent(tick=1019600, channel=0, data=[19, 100]),
   midi.NoteOffEvent(tick=1019700, channel=0, data=[19, 0]),
   midi.NoteOnEvent(tick=1019800, channel=0, data=[7, 100]),
   midi.NoteOffEvent(tick=1019900, channel=0, data=[7, 0]),
   midi.NoteOnEvent(tick=1020000, channel=0, data=[36, 100]),
   midi.NoteOffEvent(tick=1020100, channel=0, data=[36, 0]),
   midi.NoteOnEvent(tick=1020200, channel=0, data=[41, 100]),
   midi.NoteOffEvent(tick=1020300, channel=0, data=[41, 0]),
   midi.NoteOnEvent(tick=1020400, channel=0, data=[26, 100]),
   midi.NoteOffEvent(tick=1020500, channel=0, data=[26, 0]),
   midi.NoteOnEvent(tick=1020600, channel=0, data=[23, 100]),
   midi.NoteOffEvent(tick=1020700, channel=0, data=[23, 0]),
   midi.NoteOnEvent(tick=1020800, channel=0, data=[41, 100]),
   midi.NoteOffEvent(tick=1020900, channel=0, data=[41, 0]),
   midi.NoteOnEvent(tick=1021000, channel=0, data=[37, 100]),
   midi.NoteOffEvent(tick=1021100, channel=0, data=[37, 0]),
   midi.NoteOnEvent(tick=1021200, channel=0, data=[36, 100]),
   midi.NoteOffEvent(tick=1021300, channel=0, data=[36, 0]),
   midi.NoteOnEvent(tick=1021400, channel=0, data=[56, 100]),
   midi.NoteOffEvent(tick=1021500, channel=0, data=[56, 0]),
   midi.NoteOnEvent(tick=1021600, channel=0, data=[36, 100]),
   midi.NoteOffEvent(tick=1021700, channel=0, data=[36, 0]),
   midi.NoteOnEvent(tick=1021800, channel=0, data=[36, 100]),
   midi.NoteOffEvent(tick=1021900, channel=0, data=[36, 0]),
   midi.NoteOnEvent(tick=1022000, channel=0, data=[36, 100]),
   midi.NoteOffEvent(tick=1022100, channel=0, data=[36, 0]),
   midi.NoteOnEvent(tick=1022200, channel=0, data=[36, 100]),
   midi.NoteOffEvent(tick=1022300, channel=0, data=[36, 0]),
   midi.NoteOnEvent(tick=1022400, channel=0, data=[22, 100]),
   midi.NoteOffEvent(tick=1022500, channel=0, data=[22, 0]),
   midi.NoteOnEvent(tick=1022600, channel=0, data=[8, 100]),
   midi.NoteOffEvent(tick=1022700, channel=0, data=[8, 0]),
   midi.NoteOnEvent(tick=1022800, channel=0, data=[13, 100]),
   midi.NoteOffEvent(tick=1022900, channel=0, data=[13, 0]),
   midi.NoteOnEvent(tick=1023000, channel=0, data=[3, 100]),
   midi.NoteOffEvent(tick=1023100, channel=0, data=[3, 0]),
   midi.NoteOnEvent(tick=1023200, channel=0, data=[14, 100]),
   midi.NoteOffEvent(tick=1023300, channel=0, data=[14, 0]),
   midi.NoteOnEvent(tick=1023400, channel=0, data=[22, 100]),
   midi.NoteOffEvent(tick=1023500, channel=0, data=[22, 0]),
   midi.NoteOnEvent(tick=1023600, channel=0, data=[18, 100]),
   midi.NoteOffEvent(tick=1023700, channel=0, data=[18, 0]),
   midi.NoteOnEvent(tick=1023800, channel=0, data=[36, 100]),
   midi.NoteOffEvent(tick=1023900, channel=0, data=[36, 0]),
   midi.NoteOnEvent(tick=1024000, channel=0, data=[15, 100]),
   midi.NoteOffEvent(tick=1024100, channel=0, data=[15, 0]),
   midi.NoteOnEvent(tick=1024200, channel=0, data=[14, 100]),
   midi.NoteOffEvent(tick=1024300, channel=0, data=[14, 0]),
   midi.NoteOnEvent(tick=1024400, channel=0, data=[22, 100]),
   midi.NoteOffEvent(tick=1024500, channel=0, data=[22, 0]),
   midi.NoteOnEvent(tick=1024600, channel=0, data=[4, 100]),
   midi.NoteOffEvent(tick=1024700, channel=0, data=[4, 0]),
   midi.NoteOnEvent(tick=1024800, channel=0, data=[17, 100]),
   midi.NoteOffEvent(tick=1024900, channel=0, data=[17, 0]),
   midi.NoteOnEvent(tick=1025000, channel=0, data=[18, 100]),
   midi.NoteOffEvent(tick=1025100, channel=0, data=[18, 0]),
   midi.NoteOnEvent(tick=1025200, channel=0, data=[7, 100]),
   midi.NoteOffEvent(tick=1025300, channel=0, data=[7, 0]),
   midi.NoteOnEvent(tick=1025400, channel=0, data=[4, 100]),
   midi.NoteOffEvent(tick=1025500, channel=0, data=[4, 0]),
   midi.NoteOnEvent(tick=1025600, channel=0, data=[11, 100]),
   midi.NoteOffEvent(tick=1025700, channel=0, data=[11, 0]),
   midi.NoteOnEvent(tick=1025800, channel=0, data=[11, 100]),
   midi.NoteOffEvent(tick=1025900, channel=0, data=[11, 0]),
   midi.NoteOnEvent(tick=1026000, channel=0, data=[36, 100]),
   midi.NoteOffEvent(tick=1026100, channel=0, data=[36, 0]),
   midi.NoteOnEvent(tick=1026200, channel=0, data=[2, 100]),
   midi.NoteOffEvent(tick=1026300, channel=0, data=[2, 0]),
   midi.NoteOnEvent(tick=1026400, channel=0, data=[14, 100]),
   midi.NoteOffEvent(tick=1026500, channel=0, data=[14, 0]),
   midi.NoteOnEvent(tick=1026600, channel=0, data=[13, 100]),
   midi.NoteOffEvent(tick=1026700, channel=0, data=[13, 0]),
   midi.NoteOnEvent(tick=1026800, channel=0, data=[21, 100]),
   midi.NoteOffEvent(tick=1026900, channel=0, data=[21, 0]),
   midi.NoteOnEvent(tick=1027000, channel=0, data=[4, 100]),
   midi.NoteOffEvent(tick=1027100, channel=0, data=[4, 0]),
   midi.NoteOnEvent(tick=1027200, channel=0, data=[17, 100]),
   midi.NoteOffEvent(tick=1027300, channel=0, data=[17, 0]),
   midi.NoteOnEvent(tick=1027400, channel=0, data=[19, 100]),
   midi.NoteOffEvent(tick=1027500, channel=0, data=[19, 0]),
   midi.NoteOnEvent(tick=1027600, channel=0, data=[18, 100]),
   midi.NoteOffEvent(tick=1027700, channel=0, data=[18, 0]),
   midi.NoteOnEvent(tick=1027800, channel=0, data=[36, 100]),
   midi.NoteOffEvent(tick=1027900, channel=0, data=[36, 0]),
   midi.NoteOnEvent(tick=1028000, channel=0, data=[19, 100]),
   midi.NoteOffEvent(tick=1028100, channel=0, data=[19, 0]),
   midi.NoteOnEvent(tick=1028200, channel=0, data=[7, 100]),
   midi.NoteOffEvent(tick=1028300, channel=0, data=[7, 0]),
   midi.NoteOnEvent(tick=1028400, channel=0, data=[4, 100]),
   midi.NoteOffEvent(tick=1028500, channel=0, data=[4, 0]),
   midi.NoteOnEvent(tick=1028600, channel=0, data=[36, 100]),
   midi.NoteOffEvent(tick=1028700, channel=0, data=[36, 0]),
   midi.NoteOnEvent(tick=1028800, channel=0, data=[7, 100]),
   midi.NoteOffEvent(tick=1028900, channel=0, data=[7, 0]),
   midi.NoteOnEvent(tick=1029000, channel=0, data=[4, 100]),
   midi.NoteOffEvent(tick=1029100, channel=0, data=[4, 0]),
   midi.NoteOnEvent(tick=1029200, channel=0, data=[23, 100]),
   midi.NoteOffEvent(tick=1029300, channel=0, data=[23, 0]),
   midi.NoteOnEvent(tick=1029400, channel=0, data=[0, 100]),
   midi.NoteOffEvent(tick=1029500, channel=0, data=[0, 0]),
   midi.NoteOnEvent(tick=1029600, channel=0, data=[3, 100]),
   midi.NoteOffEvent(tick=1029700, channel=0, data=[3, 0]),
   midi.NoteOnEvent(tick=1029800, channel=0, data=[4, 100]),
   midi.NoteOffEvent(tick=1029900, channel=0, data=[4, 0]),
   midi.NoteOnEvent(tick=1030000, channel=0, data=[2, 100]),
   midi.NoteOffEvent(tick=1030100, channel=0, data=[2, 0]),
   midi.NoteOnEvent(tick=1030200, channel=0, data=[8, 100]),
   midi.NoteOffEvent(tick=1030300, channel=0, data=[8, 0]),
   midi.NoteOnEvent(tick=1030400, channel=0, data=[12, 100]),
   midi.NoteOffEvent(tick=1030500, channel=0, data=[12, 0]),
   midi.NoteOnEvent(tick=1030600, channel=0, data=[0, 100]),
   midi.NoteOffEvent(tick=1030700, channel=0, data=[0, 0]),
   midi.NoteOnEvent(tick=1030800, channel=0, data=[11, 100]),
   midi.NoteOffEvent(tick=1030900, channel=0, data=[11, 0]),
   midi.NoteOnEvent(tick=1031000, channel=0, data=[36, 100]),
   midi.NoteOffEvent(tick=1031100, channel=0, data=[36, 0]),
   midi.NoteOnEvent(tick=1031200, channel=0, data=[21, 100]),
   midi.NoteOffEvent(tick=1031300, channel=0, data=[21, 0]),
   midi.NoteOnEvent(tick=1031400, channel=0, data=[0, 100]),
   midi.NoteOffEvent(tick=1031500, channel=0, data=[0, 0]),
   midi.NoteOnEvent(tick=1031600, channel=0, data=[11, 100]),
   midi.NoteOffEvent(tick=1031700, channel=0, data=[11, 0]),
   midi.NoteOnEvent(tick=1031800, channel=0, data=[20, 100]),
   midi.NoteOffEvent(tick=1031900, channel=0, data=[20, 0]),
   midi.NoteOnEvent(tick=1032000, channel=0, data=[4, 100]),
   midi.NoteOffEvent(tick=1032100, channel=0, data=[4, 0]),
   midi.NoteOnEvent(tick=1032200, channel=0, data=[36, 100]),
   midi.NoteOffEvent(tick=1032300, channel=0, data=[36, 0]),
   midi.NoteOnEvent(tick=1032400, channel=0, data=[49, 100]),
   midi.NoteOffEvent(tick=1032500, channel=0, data=[49, 0]),
   midi.NoteOnEvent(tick=1032600, channel=0, data=[26, 100]),
   midi.NoteOffEvent(tick=1032700, channel=0, data=[26, 0]),
   midi.NoteOnEvent(tick=1032800, channel=0, data=[23, 100]),
   midi.NoteOffEvent(tick=1032900, channel=0, data=[23, 0]),
   midi.NoteOnEvent(tick=1033000, channel=0, data=[27, 100]),
   midi.NoteOffEvent(tick=1033100, channel=0, data=[27, 0]),
   midi.NoteOnEvent(tick=1033200, channel=0, data=[26, 100]),
   midi.NoteOffEvent(tick=1033300, channel=0, data=[26, 0]),
   midi.NoteOnEvent(tick=1033400, channel=0, data=[50, 100]),
   midi.NoteOffEvent(tick=1033500, channel=0, data=[50, 0]),
   midi.NoteOnEvent(tick=1033600, channel=0, data=[36, 100]),
   midi.NoteOffEvent(tick=1033700, channel=0, data=[36, 0]),
   midi.NoteOnEvent(tick=1033800, channel=0, data=[19, 100]),
   midi.NoteOffEvent(tick=1033900, channel=0, data=[19, 0]),
   midi.NoteOnEvent(tick=1034000, channel=0, data=[14, 100]),
   midi.NoteOffEvent(tick=1034100, channel=0, data=[14, 0]),
   midi.NoteOnEvent(tick=1034200, channel=0, data=[36, 100]),
   midi.NoteOffEvent(tick=1034300, channel=0, data=[36, 0]),
   midi.NoteOnEvent(tick=1034400, channel=0, data=[0, 100]),
   midi.NoteOffEvent(tick=1034500, channel=0, data=[0, 0]),
   midi.NoteOnEvent(tick=1034600, channel=0, data=[36, 100]),
   midi.NoteOffEvent(tick=1034700, channel=0, data=[36, 0]),
   midi.NoteOnEvent(tick=1034800, channel=0, data=[3, 100]),
   midi.NoteOffEvent(tick=1034900, channel=0, data=[3, 0]),
   midi.NoteOnEvent(tick=1035000, channel=0, data=[4, 100]),
   midi.NoteOffEvent(tick=1035100, channel=0, data=[4, 0]),
   midi.NoteOnEvent(tick=1035200, channel=0, data=[2, 100]),
   midi.NoteOffEvent(tick=1035300, channel=0, data=[2, 0]),
   midi.NoteOnEvent(tick=1035400, channel=0, data=[8, 100]),
   midi.NoteOffEvent(tick=1035500, channel=0, data=[8, 0]),
   midi.NoteOnEvent(tick=1035600, channel=0, data=[12, 100]),
   midi.NoteOffEvent(tick=1035700, channel=0, data=[12, 0]),
   midi.NoteOnEvent(tick=1035800, channel=0, data=[0, 100]),
   midi.NoteOffEvent(tick=1035900, channel=0, data=[0, 0]),
   midi.NoteOnEvent(tick=1036000, channel=0, data=[11, 100]),
   midi.NoteOffEvent(tick=1036100, channel=0, data=[11, 0]),
   midi.NoteOnEvent(tick=1036200, channel=0, data=[36, 100]),
   midi.NoteOffEvent(tick=1036300, channel=0, data=[36, 0]),
   midi.NoteOnEvent(tick=1036400, channel=0, data=[56, 100]),
   midi.NoteOffEvent(tick=1036500, channel=0, data=[56, 0]),
   midi.NoteOnEvent(tick=1036600, channel=0, data=[36, 100]),
   midi.NoteOffEvent(tick=1036700, channel=0, data=[36, 0]),
   midi.NoteOnEvent(tick=1036800, channel=0, data=[36, 100]),
   midi.NoteOffEvent(tick=1036900, channel=0, data=[36, 0]),
   midi.NoteOnEvent(tick=1037000, channel=0, data=[36, 100]),
   midi.NoteOffEvent(tick=1037100, channel=0, data=[36, 0]),
   midi.NoteOnEvent(tick=1037200, channel=0, data=[36, 100]),
   midi.NoteOffEvent(tick=1037300, channel=0, data=[36, 0]),
   midi.NoteOnEvent(tick=1037400, channel=0, data=[21, 100]),
   midi.NoteOffEvent(tick=1037500, channel=0, data=[21, 0]),
   midi.NoteOnEvent(tick=1037600, channel=0, data=[0, 100]),
   midi.NoteOffEvent(tick=1037700, channel=0, data=[0, 0]),
   midi.NoteOnEvent(tick=1037800, channel=0, data=[11, 100]),
   midi.NoteOffEvent(tick=1037900, channel=0, data=[11, 0]),
   midi.NoteOnEvent(tick=1038000, channel=0, data=[20, 100]),
   midi.NoteOffEvent(tick=1038100, channel=0, data=[20, 0]),
   midi.NoteOnEvent(tick=1038200, channel=0, data=[4, 100]),
   midi.NoteOffEvent(tick=1038300, channel=0, data=[4, 0]),
   midi.NoteOnEvent(tick=1038400, channel=0, data=[36, 100]),
   midi.NoteOffEvent(tick=1038500, channel=0, data=[36, 0]),
   midi.NoteOnEvent(tick=1038600, channel=0, data=[49, 100]),
   midi.NoteOffEvent(tick=1038700, channel=0, data=[49, 0]),
   midi.NoteOnEvent(tick=1038800, channel=0, data=[8, 100]),
   midi.NoteOffEvent(tick=1038900, channel=0, data=[8, 0]),
   midi.NoteOnEvent(tick=1039000, channel=0, data=[13, 100]),
   midi.NoteOffEvent(tick=1039100, channel=0, data=[13, 0]),
   midi.NoteOnEvent(tick=1039200, channel=0, data=[36, 100]),
   midi.NoteOffEvent(tick=1039300, channel=0, data=[36, 0]),
   midi.NoteOnEvent(tick=1039400, channel=0, data=[19, 100]),
   midi.NoteOffEvent(tick=1039500, channel=0, data=[19, 0]),
   midi.NoteOnEvent(tick=1039600, channel=0, data=[7, 100]),
   midi.NoteOffEvent(tick=1039700, channel=0, data=[7, 0]),
   midi.NoteOnEvent(tick=1039800, channel=0, data=[8, 100]),
   midi.NoteOffEvent(tick=1039900, channel=0, data=[8, 0]),
   midi.NoteOnEvent(tick=1040000, channel=0, data=[18, 100]),
   midi.NoteOffEvent(tick=1040100, channel=0, data=[18, 0]),
   midi.NoteOnEvent(tick=1040200, channel=0, data=[36, 100]),
   midi.NoteOffEvent(tick=1040300, channel=0, data=[36, 0]),
   midi.NoteOnEvent(tick=1040400, channel=0, data=[2, 100]),
   midi.NoteOffEvent(tick=1040500, channel=0, data=[2, 0]),
   midi.NoteOnEvent(tick=1040600, channel=0, data=[0, 100]),
   midi.NoteOffEvent(tick=1040700, channel=0, data=[0, 0]),
   midi.NoteOnEvent(tick=1040800, channel=0, data=[18, 100]),
   midi.NoteOffEvent(tick=1040900, channel=0, data=[18, 0]),
   midi.NoteOnEvent(tick=1041000, channel=0, data=[4, 100]),
   midi.NoteOffEvent(tick=1041100, channel=0, data=[4, 0]),
   midi.NoteOnEvent(tick=1041200, channel=0, data=[38, 100]),
   midi.NoteOffEvent(tick=1041300, channel=0, data=[38, 0]),
   midi.NoteOnEvent(tick=1041400, channel=0, data=[36, 100]),
   midi.NoteOffEvent(tick=1041500, channel=0, data=[36, 0]),
   midi.NoteOnEvent(tick=1041600, channel=0, data=[27, 100]),
   midi.NoteOffEvent(tick=1041700, channel=0, data=[27, 0]),
   midi.NoteOnEvent(tick=1041800, channel=0, data=[32, 100]),
   midi.NoteOffEvent(tick=1041900, channel=0, data=[32, 0]),
   midi.NoteOnEvent(tick=1042000, channel=0, data=[50, 100]),
   midi.NoteOffEvent(tick=1042100, channel=0, data=[50, 0]),
   midi.NoteOnEvent(tick=1042200, channel=0, data=[36, 100]),
   midi.NoteOffEvent(tick=1042300, channel=0, data=[36, 0]),
   midi.NoteOnEvent(tick=1042400, channel=0, data=[0, 100]),
   midi.NoteOffEvent(tick=1042500, channel=0, data=[0, 0]),
   midi.NoteOnEvent(tick=1042600, channel=0, data=[13, 100]),
   midi.NoteOffEvent(tick=1042700, channel=0, data=[13, 0]),
   midi.NoteOnEvent(tick=1042800, channel=0, data=[3, 100]),
   midi.NoteOffEvent(tick=1042900, channel=0, data=[3, 0]),
   midi.NoteOnEvent(tick=1043000, channel=0, data=[36, 100]),
   midi.NoteOffEvent(tick=1043100, channel=0, data=[36, 0]),
   midi.NoteOnEvent(tick=1043200, channel=0, data=[0, 100]),
   midi.NoteOffEvent(tick=1043300, channel=0, data=[0, 0]),
   midi.NoteOnEvent(tick=1043400, channel=0, data=[18, 100]),
   midi.NoteOffEvent(tick=1043500, channel=0, data=[18, 0]),
   midi.NoteOnEvent(tick=1043600, channel=0, data=[18, 100]),
   midi.NoteOffEvent(tick=1043700, channel=0, data=[18, 0]),
   midi.NoteOnEvent(tick=1043800, channel=0, data=[8, 100]),
   midi.NoteOffEvent(tick=1043900, channel=0, data=[8, 0]),
   midi.NoteOnEvent(tick=1044000, channel=0, data=[6, 100]),
   midi.NoteOffEvent(tick=1044100, channel=0, data=[6, 0]),
   midi.NoteOnEvent(tick=1044200, channel=0, data=[13, 100]),
   midi.NoteOffEvent(tick=1044300, channel=0, data=[13, 0]),
   midi.NoteOnEvent(tick=1044400, channel=0, data=[18, 100]),
   midi.NoteOffEvent(tick=1044500, channel=0, data=[18, 0]),
   midi.NoteOnEvent(tick=1044600, channel=0, data=[36, 100]),
   midi.NoteOffEvent(tick=1044700, channel=0, data=[36, 0]),
   midi.NoteOnEvent(tick=1044800, channel=0, data=[19, 100]),
   midi.NoteOffEvent(tick=1044900, channel=0, data=[19, 0]),
   midi.NoteOnEvent(tick=1045000, channel=0, data=[7, 100]),
   midi.NoteOffEvent(tick=1045100, channel=0, data=[7, 0]),
   midi.NoteOnEvent(tick=1045200, channel=0, data=[0, 100]),
   midi.NoteOffEvent(tick=1045300, channel=0, data=[0, 0]),
   midi.NoteOnEvent(tick=1045400, channel=0, data=[19, 100]),
   midi.NoteOffEvent(tick=1045500, channel=0, data=[19, 0]),
   midi.NoteOnEvent(tick=1045600, channel=0, data=[36, 100]),
   midi.NoteOffEvent(tick=1045700, channel=0, data=[36, 0]),
   midi.NoteOnEvent(tick=1045800, channel=0, data=[21, 100]),
   midi.NoteOffEvent(tick=1045900, channel=0, data=[21, 0]),
   midi.NoteOnEvent(tick=1046000, channel=0, data=[0, 100]),
   midi.NoteOffEvent(tick=1046100, channel=0, data=[0, 0]),
   midi.NoteOnEvent(tick=1046200, channel=0, data=[11, 100]),
   midi.NoteOffEvent(tick=1046300, channel=0, data=[11, 0]),
   midi.NoteOnEvent(tick=1046400, channel=0, data=[20, 100]),
   midi.NoteOffEvent(tick=1046500, channel=0, data=[20, 0]),
   midi.NoteOnEvent(tick=1046600, channel=0, data=[4, 100]),
   midi.NoteOffEvent(tick=1046700, channel=0, data=[4, 0]),
   midi.NoteOnEvent(tick=1046800, channel=0, data=[36, 100]),
   midi.NoteOffEvent(tick=1046900, channel=0, data=[36, 0]),
   midi.NoteOnEvent(tick=1047000, channel=0, data=[19, 100]),
   midi.NoteOffEvent(tick=1047100, channel=0, data=[19, 0]),
   midi.NoteOnEvent(tick=1047200, channel=0, data=[14, 100]),
   midi.NoteOffEvent(tick=1047300, channel=0, data=[14, 0]),
   midi.NoteOnEvent(tick=1047400, channel=0, data=[36, 100]),
   midi.NoteOffEvent(tick=1047500, channel=0, data=[36, 0]),
   midi.NoteOnEvent(tick=1047600, channel=0, data=[19, 100]),
   midi.NoteOffEvent(tick=1047700, channel=0, data=[19, 0]),
   midi.NoteOnEvent(tick=1047800, channel=0, data=[7, 100]),
   midi.NoteOffEvent(tick=1047900, channel=0, data=[7, 0]),
   midi.NoteOnEvent(tick=1048000, channel=0, data=[4, 100]),
   midi.NoteOffEvent(tick=1048100, channel=0, data=[4, 0]),
   midi.NoteOnEvent(tick=1048200, channel=0, data=[36, 100]),
   midi.NoteOffEvent(tick=1048300, channel=0, data=[36, 0]),
   midi.NoteOnEvent(tick=1048400, channel=0, data=[74, 100]),
   midi.NoteOffEvent(tick=1048500, channel=0, data=[74, 0]),
   midi.NoteOnEvent(tick=1048600, channel=0, data=[0, 100]),
   midi.NoteOffEvent(tick=1048700, channel=0, data=[0, 0]),
   midi.NoteOnEvent(tick=1048800, channel=0, data=[36, 100]),
   midi.NoteOffEvent(tick=1048900, channel=0, data=[36, 0]),
   midi.NoteOnEvent(tick=1049000, channel=0, data=[21, 100]),
   midi.NoteOffEvent(tick=1049100, channel=0, data=[21, 0]),
   midi.NoteOnEvent(tick=1049200, channel=0, data=[0, 100]),
   midi.NoteOffEvent(tick=1049300, channel=0, data=[0, 0]),
   midi.NoteOnEvent(tick=1049400, channel=0, data=[17, 100]),
   midi.NoteOffEvent(tick=1049500, channel=0, data=[17, 0]),
   midi.NoteOnEvent(tick=1049600, channel=0, data=[8, 100]),
   midi.NoteOffEvent(tick=1049700, channel=0, data=[8, 0]),
   midi.NoteOnEvent(tick=1049800, channel=0, data=[0, 100]),
   midi.NoteOffEvent(tick=1049900, channel=0, data=[0, 0]),
   midi.NoteOnEvent(tick=1050000, channel=0, data=[1, 100]),
   midi.NoteOffEvent(tick=1050100, channel=0, data=[1, 0]),
   midi.NoteOnEvent(tick=1050200, channel=0, data=[11, 100]),
   midi.NoteOffEvent(tick=1050300, channel=0, data=[11, 0]),
   midi.NoteOnEvent(tick=1050400, channel=0, data=[4, 100]),
   midi.NoteOffEvent(tick=1050500, channel=0, data=[4, 0]),
   midi.NoteOnEvent(tick=1050600, channel=0, data=[37, 100]),
   midi.NoteOffEvent(tick=1050700, channel=0, data=[37, 0]),
   midi.NoteOnEvent(tick=1050800, channel=0, data=[36, 100]),
   midi.NoteOffEvent(tick=1050900, channel=0, data=[36, 0]),
   midi.NoteOnEvent(tick=1051000, channel=0, data=[5, 100]),
   midi.NoteOffEvent(tick=1051100, channel=0, data=[5, 0]),
   midi.NoteOnEvent(tick=1051200, channel=0, data=[14, 100]),
   midi.NoteOffEvent(tick=1051300, channel=0, data=[14, 0]),
   midi.NoteOnEvent(tick=1051400, channel=0, data=[17, 100]),
   midi.NoteOffEvent(tick=1051500, channel=0, data=[17, 0]),
   midi.NoteOnEvent(tick=1051600, channel=0, data=[36, 100]),
   midi.NoteOffEvent(tick=1051700, channel=0, data=[36, 0]),
   midi.NoteOnEvent(tick=1051800, channel=0, data=[56, 100]),
   midi.NoteOffEvent(tick=1051900, channel=0, data=[56, 0]),
   midi.NoteOnEvent(tick=1052000, channel=0, data=[36, 100]),
   midi.NoteOffEvent(tick=1052100, channel=0, data=[36, 0]),
   midi.NoteOnEvent(tick=1052200, channel=0, data=[36, 100]),
   midi.NoteOffEvent(tick=1052300, channel=0, data=[36, 0]),
   midi.NoteOnEvent(tick=1052400, channel=0, data=[36, 100]),
   midi.NoteOffEvent(tick=1052500, channel=0, data=[36, 0]),
   midi.NoteOnEvent(tick=1052600, channel=0, data=[36, 100]),
   midi.NoteOffEvent(tick=1052700, channel=0, data=[36, 0]),
   midi.NoteOnEvent(tick=1052800, channel=0, data=[4, 100]),
   midi.NoteOffEvent(tick=1052900, channel=0, data=[4, 0]),
   midi.NoteOnEvent(tick=1053000, channel=0, data=[23, 100]),
   midi.NoteOffEvent(tick=1053100, channel=0, data=[23, 0]),
   midi.NoteOnEvent(tick=1053200, channel=0, data=[0, 100]),
   midi.NoteOffEvent(tick=1053300, channel=0, data=[0, 0]),
   midi.NoteOnEvent(tick=1053400, channel=0, data=[12, 100]),
   midi.NoteOffEvent(tick=1053500, channel=0, data=[12, 0]),
   midi.NoteOnEvent(tick=1053600, channel=0, data=[15, 100]),
   midi.NoteOffEvent(tick=1053700, channel=0, data=[15, 0]),
   midi.NoteOnEvent(tick=1053800, channel=0, data=[11, 100]),
   midi.NoteOffEvent(tick=1053900, channel=0, data=[11, 0]),
   midi.NoteOnEvent(tick=1054000, channel=0, data=[4, 100]),
   midi.NoteOffEvent(tick=1054100, channel=0, data=[4, 0]),
   midi.NoteOnEvent(tick=1054200, channel=0, data=[38, 100]),
   midi.NoteOffEvent(tick=1054300, channel=0, data=[38, 0]),
   midi.NoteOnEvent(tick=1054400, channel=0, data=[36, 100]),
   midi.NoteOffEvent(tick=1054500, channel=0, data=[36, 0]),
   midi.NoteOnEvent(tick=1054600, channel=0, data=[19, 100]),
   midi.NoteOffEvent(tick=1054700, channel=0, data=[19, 0]),
   midi.NoteOnEvent(tick=1054800, channel=0, data=[14, 100]),
   midi.NoteOffEvent(tick=1054900, channel=0, data=[14, 0]),
   midi.NoteOnEvent(tick=1055000, channel=0, data=[36, 100]),
   midi.NoteOffEvent(tick=1055100, channel=0, data=[36, 0]),
   midi.NoteOnEvent(tick=1055200, channel=0, data=[0, 100]),
   midi.NoteOffEvent(tick=1055300, channel=0, data=[0, 0]),
   midi.NoteOnEvent(tick=1055400, channel=0, data=[18, 100]),
   midi.NoteOffEvent(tick=1055500, channel=0, data=[18, 0]),
   midi.NoteOnEvent(tick=1055600, channel=0, data=[18, 100]),
   midi.NoteOffEvent(tick=1055700, channel=0, data=[18, 0]),
   midi.NoteOnEvent(tick=1055800, channel=0, data=[8, 100]),
   midi.NoteOffEvent(tick=1055900, channel=0, data=[8, 0]),
   midi.NoteOnEvent(tick=1056000, channel=0, data=[6, 100]),
   midi.NoteOffEvent(tick=1056100, channel=0, data=[6, 0]),
   midi.NoteOnEvent(tick=1056200, channel=0, data=[13, 100]),
   midi.NoteOffEvent(tick=1056300, channel=0, data=[13, 0]),
   midi.NoteOnEvent(tick=1056400, channel=0, data=[36, 100]),
   midi.NoteOffEvent(tick=1056500, channel=0, data=[36, 0]),
   midi.NoteOnEvent(tick=1056600, channel=0, data=[0, 100]),
   midi.NoteOffEvent(tick=1056700, channel=0, data=[0, 0]),
   midi.NoteOnEvent(tick=1056800, channel=0, data=[36, 100]),
   midi.NoteOffEvent(tick=1056900, channel=0, data=[36, 0]),
   midi.NoteOnEvent(tick=1057000, channel=0, data=[21, 100]),
   midi.NoteOffEvent(tick=1057100, channel=0, data=[21, 0]),
   midi.NoteOnEvent(tick=1057200, channel=0, data=[0, 100]),
   midi.NoteOffEvent(tick=1057300, channel=0, data=[0, 0]),
   midi.NoteOnEvent(tick=1057400, channel=0, data=[11, 100]),
   midi.NoteOffEvent(tick=1057500, channel=0, data=[11, 0]),
   midi.NoteOnEvent(tick=1057600, channel=0, data=[20, 100]),
   midi.NoteOffEvent(tick=1057700, channel=0, data=[20, 0]),
   midi.NoteOnEvent(tick=1057800, channel=0, data=[4, 100]),
   midi.NoteOffEvent(tick=1057900, channel=0, data=[4, 0]),
   midi.NoteOnEvent(tick=1058000, channel=0, data=[36, 100]),
   midi.NoteOffEvent(tick=1058100, channel=0, data=[36, 0]),
   midi.NoteOnEvent(tick=1058200, channel=0, data=[14, 100]),
   midi.NoteOffEvent(tick=1058300, channel=0, data=[14, 0]),
   midi.NoteOnEvent(tick=1058400, channel=0, data=[5, 100]),
   midi.NoteOffEvent(tick=1058500, channel=0, data=[5, 0]),
   midi.NoteOnEvent(tick=1058600, channel=0, data=[36, 100]),
   midi.NoteOffEvent(tick=1058700, channel=0, data=[36, 0]),
   midi.NoteOnEvent(tick=1058800, channel=0, data=[26, 100]),
   midi.NoteOffEvent(tick=1058900, channel=0, data=[26, 0]),
   midi.NoteOnEvent(tick=1059000, channel=0, data=[23, 100]),
   midi.NoteOffEvent(tick=1059100, channel=0, data=[23, 0]),
   midi.NoteOnEvent(tick=1059200, channel=0, data=[27, 100]),
   midi.NoteOffEvent(tick=1059300, channel=0, data=[27, 0]),
   midi.NoteOnEvent(tick=1059400, channel=0, data=[26, 100]),
   midi.NoteOffEvent(tick=1059500, channel=0, data=[26, 0]),
   midi.NoteOnEvent(tick=1059600, channel=0, data=[36, 100]),
   midi.NoteOffEvent(tick=1059700, channel=0, data=[36, 0]),
   midi.NoteOnEvent(tick=1059800, channel=0, data=[19, 100]),
   midi.NoteOffEvent(tick=1059900, channel=0, data=[19, 0]),
   midi.NoteOnEvent(tick=1060000, channel=0, data=[14, 100]),
   midi.NoteOffEvent(tick=1060100, channel=0, data=[14, 0]),
   midi.NoteOnEvent(tick=1060200, channel=0, data=[36, 100]),
   midi.NoteOffEvent(tick=1060300, channel=0, data=[36, 0]),
   midi.NoteOnEvent(tick=1060400, channel=0, data=[19, 100]),
   midi.NoteOffEvent(tick=1060500, channel=0, data=[19, 0]),
   midi.NoteOnEvent(tick=1060600, channel=0, data=[7, 100]),
   midi.NoteOffEvent(tick=1060700, channel=0, data=[7, 0]),
   midi.NoteOnEvent(tick=1060800, channel=0, data=[4, 100]),
   midi.NoteOffEvent(tick=1060900, channel=0, data=[4, 0]),
   midi.NoteOnEvent(tick=1061000, channel=0, data=[36, 100]),
   midi.NoteOffEvent(tick=1061100, channel=0, data=[36, 0]),
   midi.NoteOnEvent(tick=1061200, channel=0, data=[74, 100]),
   midi.NoteOffEvent(tick=1061300, channel=0, data=[74, 0]),
   midi.NoteOnEvent(tick=1061400, channel=0, data=[0, 100]),
   midi.NoteOffEvent(tick=1061500, channel=0, data=[0, 0]),
   midi.NoteOnEvent(tick=1061600, channel=0, data=[36, 100]),
   midi.NoteOffEvent(tick=1061700, channel=0, data=[36, 0]),
   midi.NoteOnEvent(tick=1061800, channel=0, data=[21, 100]),
   midi.NoteOffEvent(tick=1061900, channel=0, data=[21, 0]),
   midi.NoteOnEvent(tick=1062000, channel=0, data=[0, 100]),
   midi.NoteOffEvent(tick=1062100, channel=0, data=[0, 0]),
   midi.NoteOnEvent(tick=1062200, channel=0, data=[17, 100]),
   midi.NoteOffEvent(tick=1062300, channel=0, data=[17, 0]),
   midi.NoteOnEvent(tick=1062400, channel=0, data=[8, 100]),
   midi.NoteOffEvent(tick=1062500, channel=0, data=[8, 0]),
   midi.NoteOnEvent(tick=1062600, channel=0, data=[0, 100]),
   midi.NoteOffEvent(tick=1062700, channel=0, data=[0, 0]),
   midi.NoteOnEvent(tick=1062800, channel=0, data=[1, 100]),
   midi.NoteOffEvent(tick=1062900, channel=0, data=[1, 0]),
   midi.NoteOnEvent(tick=1063000, channel=0, data=[11, 100]),
   midi.NoteOffEvent(tick=1063100, channel=0, data=[11, 0]),
   midi.NoteOnEvent(tick=1063200, channel=0, data=[4, 100]),
   midi.NoteOffEvent(tick=1063300, channel=0, data=[4, 0]),
   midi.NoteOnEvent(tick=1063400, channel=0, data=[38, 100]),
   midi.NoteOffEvent(tick=1063500, channel=0, data=[38, 0]),
   midi.NoteOnEvent(tick=1063600, channel=0, data=[36, 100]),
   midi.NoteOffEvent(tick=1063700, channel=0, data=[36, 0]),
   midi.NoteOnEvent(tick=1063800, channel=0, data=[19, 100]),
   midi.NoteOffEvent(tick=1063900, channel=0, data=[19, 0]),
   midi.NoteOnEvent(tick=1064000, channel=0, data=[24, 100]),
   midi.NoteOffEvent(tick=1064100, channel=0, data=[24, 0]),
   midi.NoteOnEvent(tick=1064200, channel=0, data=[15, 100]),
   midi.NoteOffEvent(tick=1064300, channel=0, data=[15, 0]),
   midi.NoteOnEvent(tick=1064400, channel=0, data=[4, 100]),
   midi.NoteOffEvent(tick=1064500, channel=0, data=[4, 0]),
   midi.NoteOnEvent(tick=1064600, channel=0, data=[46, 100]),
   midi.NoteOffEvent(tick=1064700, channel=0, data=[46, 0]),
   midi.NoteOnEvent(tick=1064800, channel=0, data=[56, 100]),
   midi.NoteOffEvent(tick=1064900, channel=0, data=[56, 0]),
   midi.NoteOnEvent(tick=1065000, channel=0, data=[56, 100]),
   midi.NoteOffEvent(tick=1065100, channel=0, data=[56, 0]),
   midi.NoteOnEvent(tick=1065200, channel=0, data=[56, 100]),
   midi.NoteOffEvent(tick=1065300, channel=0, data=[56, 0]),
   midi.NoteOnEvent(tick=1065400, channel=0, data=[36, 100]),
   midi.NoteOffEvent(tick=1065500, channel=0, data=[36, 0]),
   midi.NoteOnEvent(tick=1065600, channel=0, data=[36, 100]),
   midi.NoteOffEvent(tick=1065700, channel=0, data=[36, 0]),
   midi.NoteOnEvent(tick=1065800, channel=0, data=[36, 100]),
   midi.NoteOffEvent(tick=1065900, channel=0, data=[36, 0]),
   midi.NoteOnEvent(tick=1066000, channel=0, data=[36, 100]),
   midi.NoteOffEvent(tick=1066100, channel=0, data=[36, 0]),
   midi.NoteOnEvent(tick=1066200, channel=0, data=[36, 100]),
   midi.NoteOffEvent(tick=1066300, channel=0, data=[36, 0]),
   midi.NoteOnEvent(tick=1066400, channel=0, data=[36, 100]),
   midi.NoteOffEvent(tick=1066500, channel=0, data=[36, 0]),
   midi.NoteOnEvent(tick=1066600, channel=0, data=[36, 100]),
   midi.NoteOffEvent(tick=1066700, channel=0, data=[36, 0]),
   midi.NoteOnEvent(tick=1066800, channel=0, data=[36, 100]),
   midi.NoteOffEvent(tick=1066900, channel=0, data=[36, 0]),
   midi.NoteOnEvent(tick=1067000, channel=0, data=[74, 100]),
   midi.NoteOffEvent(tick=1067100, channel=0, data=[74, 0]),
   midi.NoteOnEvent(tick=1067200, channel=0, data=[0, 100]),
   midi.NoteOffEvent(tick=1067300, channel=0, data=[0, 0]),
   midi.NoteOnEvent(tick=1067400, channel=0, data=[36, 100]),
   midi.NoteOffEvent(tick=1067500, channel=0, data=[36, 0]),
   midi.NoteOnEvent(tick=1067600, channel=0, data=[69, 100]),
   midi.NoteOffEvent(tick=1067700, channel=0, data=[69, 0]),
   midi.NoteOnEvent(tick=1067800, channel=0, data=[36, 100]),
   midi.NoteOffEvent(tick=1067900, channel=0, data=[36, 0]),
   midi.NoteOnEvent(tick=1068000, channel=0, data=[26, 100]),
   midi.NoteOffEvent(tick=1068100, channel=0, data=[26, 0]),
   midi.NoteOnEvent(tick=1068200, channel=0, data=[23, 100]),
   midi.NoteOffEvent(tick=1068300, channel=0, data=[23, 0]),
   midi.NoteOnEvent(tick=1068400, channel=0, data=[27, 100]),
   midi.NoteOffEvent(tick=1068500, channel=0, data=[27, 0]),
   midi.NoteOnEvent(tick=1068600, channel=0, data=[26, 100]),
   midi.NoteOffEvent(tick=1068700, channel=0, data=[26, 0]),
   midi.NoteOnEvent(tick=1068800, channel=0, data=[36, 100]),
   midi.NoteOffEvent(tick=1068900, channel=0, data=[36, 0]),
   midi.NoteOnEvent(tick=1069000, channel=0, data=[56, 100]),
   midi.NoteOffEvent(tick=1069100, channel=0, data=[56, 0]),
   midi.NoteOnEvent(tick=1069200, channel=0, data=[56, 100]),
   midi.NoteOffEvent(tick=1069300, channel=0, data=[56, 0]),
   midi.NoteOnEvent(tick=1069400, channel=0, data=[56, 100]),
   midi.NoteOffEvent(tick=1069500, channel=0, data=[56, 0]),
   midi.NoteOnEvent(tick=1069600, channel=0, data=[36, 100]),
   midi.NoteOffEvent(tick=1069700, channel=0, data=[36, 0]),
   midi.NoteOnEvent(tick=1069800, channel=0, data=[36, 100]),
   midi.NoteOffEvent(tick=1069900, channel=0, data=[36, 0]),
   midi.NoteOnEvent(tick=1070000, channel=0, data=[36, 100]),
   midi.NoteOffEvent(tick=1070100, channel=0, data=[36, 0]),
   midi.NoteOnEvent(tick=1070200, channel=0, data=[36, 100]),
   midi.NoteOffEvent(tick=1070300, channel=0, data=[36, 0]),
   midi.NoteOnEvent(tick=1070400, channel=0, data=[19, 100]),
   midi.NoteOffEvent(tick=1070500, channel=0, data=[19, 0]),
   midi.NoteOnEvent(tick=1070600, channel=0, data=[14, 100]),
   midi.NoteOffEvent(tick=1070700, channel=0, data=[14, 0]),
   midi.NoteOnEvent(tick=1070800, channel=0, data=[36, 100]),
   midi.NoteOffEvent(tick=1070900, channel=0, data=[36, 0]),
   midi.NoteOnEvent(tick=1071000, channel=0, data=[0, 100]),
   midi.NoteOffEvent(tick=1071100, channel=0, data=[0, 0]),
   midi.NoteOnEvent(tick=1071200, channel=0, data=[18, 100]),
   midi.NoteOffEvent(tick=1071300, channel=0, data=[18, 0]),
   midi.NoteOnEvent(tick=1071400, channel=0, data=[18, 100]),
   midi.NoteOffEvent(tick=1071500, channel=0, data=[18, 0]),
   midi.NoteOnEvent(tick=1071600, channel=0, data=[8, 100]),
   midi.NoteOffEvent(tick=1071700, channel=0, data=[8, 0]),
   midi.NoteOnEvent(tick=1071800, channel=0, data=[6, 100]),
   midi.NoteOffEvent(tick=1071900, channel=0, data=[6, 0]),
   midi.NoteOnEvent(tick=1072000, channel=0, data=[13, 100]),
   midi.NoteOffEvent(tick=1072100, channel=0, data=[13, 0]),
   midi.NoteOnEvent(tick=1072200, channel=0, data=[36, 100]),
   midi.NoteOffEvent(tick=1072300, channel=0, data=[36, 0]),
   midi.NoteOnEvent(tick=1072400, channel=0, data=[0, 100]),
   midi.NoteOffEvent(tick=1072500, channel=0, data=[0, 0]),
   midi.NoteOnEvent(tick=1072600, channel=0, data=[13, 100]),
   midi.NoteOffEvent(tick=1072700, channel=0, data=[13, 0]),
   midi.NoteOnEvent(tick=1072800, channel=0, data=[36, 100]),
   midi.NoteOffEvent(tick=1072900, channel=0, data=[36, 0]),
   midi.NoteOnEvent(tick=1073000, channel=0, data=[4, 100]),
   midi.NoteOffEvent(tick=1073100, channel=0, data=[4, 0]),
   midi.NoteOnEvent(tick=1073200, channel=0, data=[23, 100]),
   midi.NoteOffEvent(tick=1073300, channel=0, data=[23, 0]),
   midi.NoteOnEvent(tick=1073400, channel=0, data=[15, 100]),
   midi.NoteOffEvent(tick=1073500, channel=0, data=[15, 0]),
   midi.NoteOnEvent(tick=1073600, channel=0, data=[14, 100]),
   midi.NoteOffEvent(tick=1073700, channel=0, data=[14, 0]),
   midi.NoteOnEvent(tick=1073800, channel=0, data=[13, 100]),
   midi.NoteOffEvent(tick=1073900, channel=0, data=[13, 0]),
   midi.NoteOnEvent(tick=1074000, channel=0, data=[4, 100]),
   midi.NoteOffEvent(tick=1074100, channel=0, data=[4, 0]),
   midi.NoteOnEvent(tick=1074200, channel=0, data=[13, 100]),
   midi.NoteOffEvent(tick=1074300, channel=0, data=[13, 0]),
   midi.NoteOnEvent(tick=1074400, channel=0, data=[19, 100]),
   midi.NoteOffEvent(tick=1074500, channel=0, data=[19, 0]),
   midi.NoteOnEvent(tick=1074600, channel=0, data=[8, 100]),
   midi.NoteOffEvent(tick=1074700, channel=0, data=[8, 0]),
   midi.NoteOnEvent(tick=1074800, channel=0, data=[0, 100]),
   midi.NoteOffEvent(tick=1074900, channel=0, data=[0, 0]),
   midi.NoteOnEvent(tick=1075000, channel=0, data=[11, 100]),
   midi.NoteOffEvent(tick=1075100, channel=0, data=[11, 0]),
   midi.NoteOnEvent(tick=1075200, channel=0, data=[36, 100]),
   midi.NoteOffEvent(tick=1075300, channel=0, data=[36, 0]),
   midi.NoteOnEvent(tick=1075400, channel=0, data=[21, 100]),
   midi.NoteOffEvent(tick=1075500, channel=0, data=[21, 0]),
   midi.NoteOnEvent(tick=1075600, channel=0, data=[0, 100]),
   midi.NoteOffEvent(tick=1075700, channel=0, data=[0, 0]),
   midi.NoteOnEvent(tick=1075800, channel=0, data=[11, 100]),
   midi.NoteOffEvent(tick=1075900, channel=0, data=[11, 0]),
   midi.NoteOnEvent(tick=1076000, channel=0, data=[20, 100]),
   midi.NoteOffEvent(tick=1076100, channel=0, data=[20, 0]),
   midi.NoteOnEvent(tick=1076200, channel=0, data=[4, 100]),
   midi.NoteOffEvent(tick=1076300, channel=0, data=[4, 0]),
   midi.NoteOnEvent(tick=1076400, channel=0, data=[36, 100]),
   midi.NoteOffEvent(tick=1076500, channel=0, data=[36, 0]),
   midi.NoteOnEvent(tick=1076600, channel=0, data=[19, 100]),
   midi.NoteOffEvent(tick=1076700, channel=0, data=[19, 0]),
   midi.NoteOnEvent(tick=1076800, channel=0, data=[14, 100]),
   midi.NoteOffEvent(tick=1076900, channel=0, data=[14, 0]),
   midi.NoteOnEvent(tick=1077000, channel=0, data=[36, 100]),
   midi.NoteOffEvent(tick=1077100, channel=0, data=[36, 0]),
   midi.NoteOnEvent(tick=1077200, channel=0, data=[0, 100]),
   midi.NoteOffEvent(tick=1077300, channel=0, data=[0, 0]),
   midi.NoteOnEvent(tick=1077400, channel=0, data=[36, 100]),
   midi.NoteOffEvent(tick=1077500, channel=0, data=[36, 0]),
   midi.NoteOnEvent(tick=1077600, channel=0, data=[21, 100]),
   midi.NoteOffEvent(tick=1077700, channel=0, data=[21, 0]),
   midi.NoteOnEvent(tick=1077800, channel=0, data=[0, 100]),
   midi.NoteOffEvent(tick=1077900, channel=0, data=[0, 0]),
   midi.NoteOnEvent(tick=1078000, channel=0, data=[17, 100]),
   midi.NoteOffEvent(tick=1078100, channel=0, data=[17, 0]),
   midi.NoteOnEvent(tick=1078200, channel=0, data=[8, 100]),
   midi.NoteOffEvent(tick=1078300, channel=0, data=[8, 0]),
   midi.NoteOnEvent(tick=1078400, channel=0, data=[0, 100]),
   midi.NoteOffEvent(tick=1078500, channel=0, data=[0, 0]),
   midi.NoteOnEvent(tick=1078600, channel=0, data=[1, 100]),
   midi.NoteOffEvent(tick=1078700, channel=0, data=[1, 0]),
   midi.NoteOnEvent(tick=1078800, channel=0, data=[11, 100]),
   midi.NoteOffEvent(tick=1078900, channel=0, data=[11, 0]),
   midi.NoteOnEvent(tick=1079000, channel=0, data=[4, 100]),
   midi.NoteOffEvent(tick=1079100, channel=0, data=[4, 0]),
   midi.NoteOnEvent(tick=1079200, channel=0, data=[38, 100]),
   midi.NoteOffEvent(tick=1079300, channel=0, data=[38, 0]),
   midi.NoteOnEvent(tick=1079400, channel=0, data=[36, 100]),
   midi.NoteOffEvent(tick=1079500, channel=0, data=[36, 0]),
   midi.NoteOnEvent(tick=1079600, channel=0, data=[19, 100]),
   midi.NoteOffEvent(tick=1079700, channel=0, data=[19, 0]),
   midi.NoteOnEvent(tick=1079800, channel=0, data=[24, 100]),
   midi.NoteOffEvent(tick=1079900, channel=0, data=[24, 0]),
   midi.NoteOnEvent(tick=1080000, channel=0, data=[15, 100]),
   midi.NoteOffEvent(tick=1080100, channel=0, data=[15, 0]),
   midi.NoteOnEvent(tick=1080200, channel=0, data=[4, 100]),
   midi.NoteOffEvent(tick=1080300, channel=0, data=[4, 0]),
   midi.NoteOnEvent(tick=1080400, channel=0, data=[36, 100]),
   midi.NoteOffEvent(tick=1080500, channel=0, data=[36, 0]),
   midi.NoteOnEvent(tick=1080600, channel=0, data=[19, 100]),
   midi.NoteOffEvent(tick=1080700, channel=0, data=[19, 0]),
   midi.NoteOnEvent(tick=1080800, channel=0, data=[7, 100]),
   midi.NoteOffEvent(tick=1080900, channel=0, data=[7, 0]),
   midi.NoteOnEvent(tick=1081000, channel=0, data=[4, 100]),
   midi.NoteOffEvent(tick=1081100, channel=0, data=[4, 0]),
   midi.NoteOnEvent(tick=1081200, channel=0, data=[36, 100]),
   midi.NoteOffEvent(tick=1081300, channel=0, data=[36, 0]),
   midi.NoteOnEvent(tick=1081400, channel=0, data=[17, 100]),
   midi.NoteOffEvent(tick=1081500, channel=0, data=[17, 0]),
   midi.NoteOnEvent(tick=1081600, channel=0, data=[14, 100]),
   midi.NoteOffEvent(tick=1081700, channel=0, data=[14, 0]),
   midi.NoteOnEvent(tick=1081800, channel=0, data=[14, 100]),
   midi.NoteOffEvent(tick=1081900, channel=0, data=[14, 0]),
   midi.NoteOnEvent(tick=1082000, channel=0, data=[19, 100]),
   midi.NoteOffEvent(tick=1082100, channel=0, data=[19, 0]),
   midi.NoteOnEvent(tick=1082200, channel=0, data=[36, 100]),
   midi.NoteOffEvent(tick=1082300, channel=0, data=[36, 0]),
   midi.NoteOnEvent(tick=1082400, channel=0, data=[13, 100]),
   midi.NoteOffEvent(tick=1082500, channel=0, data=[13, 0]),
   midi.NoteOnEvent(tick=1082600, channel=0, data=[20, 100]),
   midi.NoteOffEvent(tick=1082700, channel=0, data=[20, 0]),
   midi.NoteOnEvent(tick=1082800, channel=0, data=[12, 100]),
   midi.NoteOffEvent(tick=1082900, channel=0, data=[12, 0]),
   midi.NoteOnEvent(tick=1083000, channel=0, data=[1, 100]),
   midi.NoteOffEvent(tick=1083100, channel=0, data=[1, 0]),
   midi.NoteOnEvent(tick=1083200, channel=0, data=[4, 100]),
   midi.NoteOffEvent(tick=1083300, channel=0, data=[4, 0]),
   midi.NoteOnEvent(tick=1083400, channel=0, data=[17, 100]),
   midi.NoteOffEvent(tick=1083500, channel=0, data=[17, 0]),
   midi.NoteOnEvent(tick=1083600, channel=0, data=[38, 100]),
   midi.NoteOffEvent(tick=1083700, channel=0, data=[38, 0]),
   midi.NoteOnEvent(tick=1083800, channel=0, data=[36, 100]),
   midi.NoteOffEvent(tick=1083900, channel=0, data=[36, 0]),
   midi.NoteOnEvent(tick=1084000, channel=0, data=[19, 100]),
   midi.NoteOffEvent(tick=1084100, channel=0, data=[19, 0]),
   midi.NoteOnEvent(tick=1084200, channel=0, data=[7, 100]),
   midi.NoteOffEvent(tick=1084300, channel=0, data=[7, 0]),
   midi.NoteOnEvent(tick=1084400, channel=0, data=[4, 100]),
   midi.NoteOffEvent(tick=1084500, channel=0, data=[4, 0]),
   midi.NoteOnEvent(tick=1084600, channel=0, data=[36, 100]),
   midi.NoteOffEvent(tick=1084700, channel=0, data=[36, 0]),
   midi.NoteOnEvent(tick=1084800, channel=0, data=[56, 100]),
   midi.NoteOffEvent(tick=1084900, channel=0, data=[56, 0]),
   midi.NoteOnEvent(tick=1085000, channel=0, data=[36, 100]),
   midi.NoteOffEvent(tick=1085100, channel=0, data=[36, 0]),
   midi.NoteOnEvent(tick=1085200, channel=0, data=[36, 100]),
   midi.NoteOffEvent(tick=1085300, channel=0, data=[36, 0]),
   midi.NoteOnEvent(tick=1085400, channel=0, data=[36, 100]),
   midi.NoteOffEvent(tick=1085500, channel=0, data=[36, 0]),
   midi.NoteOnEvent(tick=1085600, channel=0, data=[36, 100]),
   midi.NoteOffEvent(tick=1085700, channel=0, data=[36, 0]),
   midi.NoteOnEvent(tick=1085800, channel=0, data=[11, 100]),
   midi.NoteOffEvent(tick=1085900, channel=0, data=[11, 0]),
   midi.NoteOnEvent(tick=1086000, channel=0, data=[4, 100]),
   midi.NoteOffEvent(tick=1086100, channel=0, data=[4, 0]),
   midi.NoteOnEvent(tick=1086200, channel=0, data=[19, 100]),
   midi.NoteOffEvent(tick=1086300, channel=0, data=[19, 0]),
   midi.NoteOnEvent(tick=1086400, channel=0, data=[19, 100]),
   midi.NoteOffEvent(tick=1086500, channel=0, data=[19, 0]),
   midi.NoteOnEvent(tick=1086600, channel=0, data=[4, 100]),
   midi.NoteOffEvent(tick=1086700, channel=0, data=[4, 0]),
   midi.NoteOnEvent(tick=1086800, channel=0, data=[17, 100]),
   midi.NoteOffEvent(tick=1086900, channel=0, data=[17, 0]),
   midi.NoteOnEvent(tick=1087000, channel=0, data=[36, 100]),
   midi.NoteOffEvent(tick=1087100, channel=0, data=[36, 0]),
   midi.NoteOnEvent(tick=1087200, channel=0, data=[41, 100]),
   midi.NoteOffEvent(tick=1087300, channel=0, data=[41, 0]),
   midi.NoteOnEvent(tick=1087400, channel=0, data=[4, 100]),
   midi.NoteOffEvent(tick=1087500, channel=0, data=[4, 0]),
   midi.NoteOnEvent(tick=1087600, channel=0, data=[41, 100]),
   midi.NoteOffEvent(tick=1087700, channel=0, data=[41, 0]),
   midi.NoteOnEvent(tick=1087800, channel=0, data=[38, 100]),
   midi.NoteOffEvent(tick=1087900, channel=0, data=[38, 0]),
   midi.NoteOnEvent(tick=1088000, channel=0, data=[36, 100]),
   midi.NoteOffEvent(tick=1088100, channel=0, data=[36, 0]),
   midi.NoteOnEvent(tick=1088200, channel=0, data=[0, 100]),
   midi.NoteOffEvent(tick=1088300, channel=0, data=[0, 0]),
   midi.NoteOnEvent(tick=1088400, channel=0, data=[13, 100]),
   midi.NoteOffEvent(tick=1088500, channel=0, data=[13, 0]),
   midi.NoteOnEvent(tick=1088600, channel=0, data=[3, 100]),
   midi.NoteOffEvent(tick=1088700, channel=0, data=[3, 0]),
   midi.NoteOnEvent(tick=1088800, channel=0, data=[36, 100]),
   midi.NoteOffEvent(tick=1088900, channel=0, data=[36, 0]),
   midi.NoteOnEvent(tick=1089000, channel=0, data=[0, 100]),
   midi.NoteOffEvent(tick=1089100, channel=0, data=[0, 0]),
   midi.NoteOnEvent(tick=1089200, channel=0, data=[36, 100]),
   midi.NoteOffEvent(tick=1089300, channel=0, data=[36, 0]),
   midi.NoteOnEvent(tick=1089400, channel=0, data=[13, 100]),
   midi.NoteOffEvent(tick=1089500, channel=0, data=[13, 0]),
   midi.NoteOnEvent(tick=1089600, channel=0, data=[20, 100]),
   midi.NoteOffEvent(tick=1089700, channel=0, data=[20, 0]),
   midi.NoteOnEvent(tick=1089800, channel=0, data=[12, 100]),
   midi.NoteOffEvent(tick=1089900, channel=0, data=[12, 0]),
   midi.NoteOnEvent(tick=1090000, channel=0, data=[1, 100]),
   midi.NoteOffEvent(tick=1090100, channel=0, data=[1, 0]),
   midi.NoteOnEvent(tick=1090200, channel=0, data=[4, 100]),
   midi.NoteOffEvent(tick=1090300, channel=0, data=[4, 0]),
   midi.NoteOnEvent(tick=1090400, channel=0, data=[17, 100]),
   midi.NoteOffEvent(tick=1090500, channel=0, data=[17, 0]),
   midi.NoteOnEvent(tick=1090600, channel=0, data=[36, 100]),
   midi.NoteOffEvent(tick=1090700, channel=0, data=[36, 0]),
   midi.NoteOnEvent(tick=1090800, channel=0, data=[19, 100]),
   midi.NoteOffEvent(tick=1090900, channel=0, data=[19, 0]),
   midi.NoteOnEvent(tick=1091000, channel=0, data=[7, 100]),
   midi.NoteOffEvent(tick=1091100, channel=0, data=[7, 0]),
   midi.NoteOnEvent(tick=1091200, channel=0, data=[0, 100]),
   midi.NoteOffEvent(tick=1091300, channel=0, data=[0, 0]),
   midi.NoteOnEvent(tick=1091400, channel=0, data=[19, 100]),
   midi.NoteOffEvent(tick=1091500, channel=0, data=[19, 0]),
   midi.NoteOnEvent(tick=1091600, channel=0, data=[36, 100]),
   midi.NoteOffEvent(tick=1091700, channel=0, data=[36, 0]),
   midi.NoteOnEvent(tick=1091800, channel=0, data=[17, 100]),
   midi.NoteOffEvent(tick=1091900, channel=0, data=[17, 0]),
   midi.NoteOnEvent(tick=1092000, channel=0, data=[4, 100]),
   midi.NoteOffEvent(tick=1092100, channel=0, data=[4, 0]),
   midi.NoteOnEvent(tick=1092200, channel=0, data=[15, 100]),
   midi.NoteOffEvent(tick=1092300, channel=0, data=[15, 0]),
   midi.NoteOnEvent(tick=1092400, channel=0, data=[17, 100]),
   midi.NoteOffEvent(tick=1092500, channel=0, data=[17, 0]),
   midi.NoteOnEvent(tick=1092600, channel=0, data=[4, 100]),
   midi.NoteOffEvent(tick=1092700, channel=0, data=[4, 0]),
   midi.NoteOnEvent(tick=1092800, channel=0, data=[18, 100]),
   midi.NoteOffEvent(tick=1092900, channel=0, data=[18, 0]),
   midi.NoteOnEvent(tick=1093000, channel=0, data=[4, 100]),
   midi.NoteOffEvent(tick=1093100, channel=0, data=[4, 0]),
   midi.NoteOnEvent(tick=1093200, channel=0, data=[13, 100]),
   midi.NoteOffEvent(tick=1093300, channel=0, data=[13, 0]),
   midi.NoteOnEvent(tick=1093400, channel=0, data=[19, 100]),
   midi.NoteOffEvent(tick=1093500, channel=0, data=[19, 0]),
   midi.NoteOnEvent(tick=1093600, channel=0, data=[18, 100]),
   midi.NoteOffEvent(tick=1093700, channel=0, data=[18, 0]),
   midi.NoteOnEvent(tick=1093800, channel=0, data=[36, 100]),
   midi.NoteOffEvent(tick=1093900, channel=0, data=[36, 0]),
   midi.NoteOnEvent(tick=1094000, channel=0, data=[0, 100]),
   midi.NoteOffEvent(tick=1094100, channel=0, data=[0, 0]),
   midi.NoteOnEvent(tick=1094200, channel=0, data=[36, 100]),
   midi.NoteOffEvent(tick=1094300, channel=0, data=[36, 0]),
   midi.NoteOnEvent(tick=1094400, channel=0, data=[12, 100]),
   midi.NoteOffEvent(tick=1094500, channel=0, data=[12, 0]),
   midi.NoteOnEvent(tick=1094600, channel=0, data=[20, 100]),
   midi.NoteOffEvent(tick=1094700, channel=0, data=[20, 0]),
   midi.NoteOnEvent(tick=1094800, channel=0, data=[11, 100]),
   midi.NoteOffEvent(tick=1094900, channel=0, data=[11, 0]),
   midi.NoteOnEvent(tick=1095000, channel=0, data=[19, 100]),
   midi.NoteOffEvent(tick=1095100, channel=0, data=[19, 0]),
   midi.NoteOnEvent(tick=1095200, channel=0, data=[8, 100]),
   midi.NoteOffEvent(tick=1095300, channel=0, data=[8, 0]),
   midi.NoteOnEvent(tick=1095400, channel=0, data=[15, 100]),
   midi.NoteOffEvent(tick=1095500, channel=0, data=[15, 0]),
   midi.NoteOnEvent(tick=1095600, channel=0, data=[11, 100]),
   midi.NoteOffEvent(tick=1095700, channel=0, data=[11, 0]),
   midi.NoteOnEvent(tick=1095800, channel=0, data=[4, 100]),
   midi.NoteOffEvent(tick=1095900, channel=0, data=[4, 0]),
   midi.NoteOnEvent(tick=1096000, channel=0, data=[36, 100]),
   midi.NoteOffEvent(tick=1096100, channel=0, data=[36, 0]),
   midi.NoteOnEvent(tick=1096200, channel=0, data=[14, 100]),
   midi.NoteOffEvent(tick=1096300, channel=0, data=[14, 0]),
   midi.NoteOnEvent(tick=1096400, channel=0, data=[5, 100]),
   midi.NoteOffEvent(tick=1096500, channel=0, data=[5, 0]),
   midi.NoteOnEvent(tick=1096600, channel=0, data=[36, 100]),
   midi.NoteOffEvent(tick=1096700, channel=0, data=[36, 0]),
   midi.NoteOnEvent(tick=1096800, channel=0, data=[27, 100]),
   midi.NoteOffEvent(tick=1096900, channel=0, data=[27, 0]),
   midi.NoteOnEvent(tick=1097000, channel=0, data=[26, 100]),
   midi.NoteOffEvent(tick=1097100, channel=0, data=[26, 0]),
   midi.NoteOnEvent(tick=1097200, channel=0, data=[37, 100]),
   midi.NoteOffEvent(tick=1097300, channel=0, data=[37, 0]),
   midi.NoteOnEvent(tick=1097400, channel=0, data=[36, 100]),
   midi.NoteOffEvent(tick=1097500, channel=0, data=[36, 0]),
   midi.NoteOnEvent(tick=1097600, channel=0, data=[5, 100]),
   midi.NoteOffEvent(tick=1097700, channel=0, data=[5, 0]),
   midi.NoteOnEvent(tick=1097800, channel=0, data=[14, 100]),
   midi.NoteOffEvent(tick=1097900, channel=0, data=[14, 0]),
   midi.NoteOnEvent(tick=1098000, channel=0, data=[17, 100]),
   midi.NoteOffEvent(tick=1098100, channel=0, data=[17, 0]),
   midi.NoteOnEvent(tick=1098200, channel=0, data=[36, 100]),
   midi.NoteOffEvent(tick=1098300, channel=0, data=[36, 0]),
   midi.NoteOnEvent(tick=1098400, channel=0, data=[4, 100]),
   midi.NoteOffEvent(tick=1098500, channel=0, data=[4, 0]),
   midi.NoteOnEvent(tick=1098600, channel=0, data=[23, 100]),
   midi.NoteOffEvent(tick=1098700, channel=0, data=[23, 0]),
   midi.NoteOnEvent(tick=1098800, channel=0, data=[0, 100]),
   midi.NoteOffEvent(tick=1098900, channel=0, data=[0, 0]),
   midi.NoteOnEvent(tick=1099000, channel=0, data=[12, 100]),
   midi.NoteOffEvent(tick=1099100, channel=0, data=[12, 0]),
   midi.NoteOnEvent(tick=1099200, channel=0, data=[15, 100]),
   midi.NoteOffEvent(tick=1099300, channel=0, data=[15, 0]),
   midi.NoteOnEvent(tick=1099400, channel=0, data=[11, 100]),
   midi.NoteOffEvent(tick=1099500, channel=0, data=[11, 0]),
   midi.NoteOnEvent(tick=1099600, channel=0, data=[4, 100]),
   midi.NoteOffEvent(tick=1099700, channel=0, data=[4, 0]),
   midi.NoteOnEvent(tick=1099800, channel=0, data=[38, 100]),
   midi.NoteOffEvent(tick=1099900, channel=0, data=[38, 0]),
   midi.NoteOnEvent(tick=1100000, channel=0, data=[36, 100]),
   midi.NoteOffEvent(tick=1100100, channel=0, data=[36, 0]),
   midi.NoteOnEvent(tick=1100200, channel=0, data=[19, 100]),
   midi.NoteOffEvent(tick=1100300, channel=0, data=[19, 0]),
   midi.NoteOnEvent(tick=1100400, channel=0, data=[14, 100]),
   midi.NoteOffEvent(tick=1100500, channel=0, data=[14, 0]),
   midi.NoteOnEvent(tick=1100600, channel=0, data=[36, 100]),
   midi.NoteOffEvent(tick=1100700, channel=0, data=[36, 0]),
   midi.NoteOnEvent(tick=1100800, channel=0, data=[56, 100]),
   midi.NoteOffEvent(tick=1100900, channel=0, data=[56, 0]),
   midi.NoteOnEvent(tick=1101000, channel=0, data=[36, 100]),
   midi.NoteOffEvent(tick=1101100, channel=0, data=[36, 0]),
   midi.NoteOnEvent(tick=1101200, channel=0, data=[36, 100]),
   midi.NoteOffEvent(tick=1101300, channel=0, data=[36, 0]),
   midi.NoteOnEvent(tick=1101400, channel=0, data=[36, 100]),
   midi.NoteOffEvent(tick=1101500, channel=0, data=[36, 0]),
   midi.NoteOnEvent(tick=1101600, channel=0, data=[36, 100]),
   midi.NoteOffEvent(tick=1101700, channel=0, data=[36, 0]),
   midi.NoteOnEvent(tick=1101800, channel=0, data=[0, 100]),
   midi.NoteOffEvent(tick=1101900, channel=0, data=[0, 0]),
   midi.NoteOnEvent(tick=1102000, channel=0, data=[18, 100]),
   midi.NoteOffEvent(tick=1102100, channel=0, data=[18, 0]),
   midi.NoteOnEvent(tick=1102200, channel=0, data=[18, 100]),
   midi.NoteOffEvent(tick=1102300, channel=0, data=[18, 0]),
   midi.NoteOnEvent(tick=1102400, channel=0, data=[8, 100]),
   midi.NoteOffEvent(tick=1102500, channel=0, data=[8, 0]),
   midi.NoteOnEvent(tick=1102600, channel=0, data=[6, 100]),
   midi.NoteOffEvent(tick=1102700, channel=0, data=[6, 0]),
   midi.NoteOnEvent(tick=1102800, channel=0, data=[13, 100]),
   midi.NoteOffEvent(tick=1102900, channel=0, data=[13, 0]),
   midi.NoteOnEvent(tick=1103000, channel=0, data=[36, 100]),
   midi.NoteOffEvent(tick=1103100, channel=0, data=[36, 0]),
   midi.NoteOnEvent(tick=1103200, channel=0, data=[0, 100]),
   midi.NoteOffEvent(tick=1103300, channel=0, data=[0, 0]),
   midi.NoteOnEvent(tick=1103400, channel=0, data=[36, 100]),
   midi.NoteOffEvent(tick=1103500, channel=0, data=[36, 0]),
   midi.NoteOnEvent(tick=1103600, channel=0, data=[21, 100]),
   midi.NoteOffEvent(tick=1103700, channel=0, data=[21, 0]),
   midi.NoteOnEvent(tick=1103800, channel=0, data=[0, 100]),
   midi.NoteOffEvent(tick=1103900, channel=0, data=[0, 0]),
   midi.NoteOnEvent(tick=1104000, channel=0, data=[11, 100]),
   midi.NoteOffEvent(tick=1104100, channel=0, data=[11, 0]),
   midi.NoteOnEvent(tick=1104200, channel=0, data=[20, 100]),
   midi.NoteOffEvent(tick=1104300, channel=0, data=[20, 0]),
   midi.NoteOnEvent(tick=1104400, channel=0, data=[4, 100]),
   midi.NoteOffEvent(tick=1104500, channel=0, data=[4, 0]),
   midi.NoteOnEvent(tick=1104600, channel=0, data=[36, 100]),
   midi.NoteOffEvent(tick=1104700, channel=0, data=[36, 0]),
   midi.NoteOnEvent(tick=1104800, channel=0, data=[14, 100]),
   midi.NoteOffEvent(tick=1104900, channel=0, data=[14, 0]),
   midi.NoteOnEvent(tick=1105000, channel=0, data=[5, 100]),
   midi.NoteOffEvent(tick=1105100, channel=0, data=[5, 0]),
   midi.NoteOnEvent(tick=1105200, channel=0, data=[36, 100]),
   midi.NoteOffEvent(tick=1105300, channel=0, data=[36, 0]),
   midi.NoteOnEvent(tick=1105400, channel=0, data=[29, 100]),
   midi.NoteOffEvent(tick=1105500, channel=0, data=[29, 0]),
   midi.NoteOnEvent(tick=1105600, channel=0, data=[37, 100]),
   midi.NoteOffEvent(tick=1105700, channel=0, data=[37, 0]),
   midi.NoteOnEvent(tick=1105800, channel=0, data=[27, 100]),
   midi.NoteOffEvent(tick=1105900, channel=0, data=[27, 0]),
   midi.NoteOnEvent(tick=1106000, channel=0, data=[30, 100]),
   midi.NoteOffEvent(tick=1106100, channel=0, data=[30, 0]),
   midi.NoteOnEvent(tick=1106200, channel=0, data=[27, 100]),
   midi.NoteOffEvent(tick=1106300, channel=0, data=[27, 0]),
   midi.NoteOnEvent(tick=1106400, channel=0, data=[31, 100]),
   midi.NoteOffEvent(tick=1106500, channel=0, data=[31, 0]),
   midi.NoteOnEvent(tick=1106600, channel=0, data=[36, 100]),
   midi.NoteOffEvent(tick=1106700, channel=0, data=[36, 0]),
   midi.NoteOnEvent(tick=1106800, channel=0, data=[19, 100]),
   midi.NoteOffEvent(tick=1106900, channel=0, data=[19, 0]),
   midi.NoteOnEvent(tick=1107000, channel=0, data=[14, 100]),
   midi.NoteOffEvent(tick=1107100, channel=0, data=[14, 0]),
   midi.NoteOnEvent(tick=1107200, channel=0, data=[36, 100]),
   midi.NoteOffEvent(tick=1107300, channel=0, data=[36, 0]),
   midi.NoteOnEvent(tick=1107400, channel=0, data=[19, 100]),
   midi.NoteOffEvent(tick=1107500, channel=0, data=[19, 0]),
   midi.NoteOnEvent(tick=1107600, channel=0, data=[7, 100]),
   midi.NoteOffEvent(tick=1107700, channel=0, data=[7, 0]),
   midi.NoteOnEvent(tick=1107800, channel=0, data=[4, 100]),
   midi.NoteOffEvent(tick=1107900, channel=0, data=[4, 0]),
   midi.NoteOnEvent(tick=1108000, channel=0, data=[36, 100]),
   midi.NoteOffEvent(tick=1108100, channel=0, data=[36, 0]),
   midi.NoteOnEvent(tick=1108200, channel=0, data=[15, 100]),
   midi.NoteOffEvent(tick=1108300, channel=0, data=[15, 0]),
   midi.NoteOnEvent(tick=1108400, channel=0, data=[14, 100]),
   midi.NoteOffEvent(tick=1108500, channel=0, data=[14, 0]),
   midi.NoteOnEvent(tick=1108600, channel=0, data=[22, 100]),
   midi.NoteOffEvent(tick=1108700, channel=0, data=[22, 0]),
   midi.NoteOnEvent(tick=1108800, channel=0, data=[4, 100]),
   midi.NoteOffEvent(tick=1108900, channel=0, data=[4, 0]),
   midi.NoteOnEvent(tick=1109000, channel=0, data=[17, 100]),
   midi.NoteOffEvent(tick=1109100, channel=0, data=[17, 0]),
   midi.NoteOnEvent(tick=1109200, channel=0, data=[36, 100]),
   midi.NoteOffEvent(tick=1109300, channel=0, data=[36, 0]),
   midi.NoteOnEvent(tick=1109400, channel=0, data=[14, 100]),
   midi.NoteOffEvent(tick=1109500, channel=0, data=[14, 0]),
   midi.NoteOnEvent(tick=1109600, channel=0, data=[5, 100]),
   midi.NoteOffEvent(tick=1109700, channel=0, data=[5, 0]),
   midi.NoteOnEvent(tick=1109800, channel=0, data=[36, 100]),
   midi.NoteOffEvent(tick=1109900, channel=0, data=[36, 0]),
   midi.NoteOnEvent(tick=1110000, channel=0, data=[27, 100]),
   midi.NoteOffEvent(tick=1110100, channel=0, data=[27, 0]),
   midi.NoteOnEvent(tick=1110200, channel=0, data=[38, 100]),
   midi.NoteOffEvent(tick=1110300, channel=0, data=[38, 0]),
   midi.NoteOnEvent(tick=1110400, channel=0, data=[26, 100]),
   midi.NoteOffEvent(tick=1110500, channel=0, data=[26, 0]),
   midi.NoteOnEvent(tick=1110600, channel=0, data=[26, 100]),
   midi.NoteOffEvent(tick=1110700, channel=0, data=[26, 0]),
   midi.NoteOnEvent(tick=1110800, channel=0, data=[26, 100]),
   midi.NoteOffEvent(tick=1110900, channel=0, data=[26, 0]),
   midi.NoteOnEvent(tick=1111000, channel=0, data=[36, 100]),
   midi.NoteOffEvent(tick=1111100, channel=0, data=[36, 0]),
   midi.NoteOnEvent(tick=1111200, channel=0, data=[19, 100]),
   midi.NoteOffEvent(tick=1111300, channel=0, data=[19, 0]),
   midi.NoteOnEvent(tick=1111400, channel=0, data=[14, 100]),
   midi.NoteOffEvent(tick=1111500, channel=0, data=[14, 0]),
   midi.NoteOnEvent(tick=1111600, channel=0, data=[36, 100]),
   midi.NoteOffEvent(tick=1111700, channel=0, data=[36, 0]),
   midi.NoteOnEvent(tick=1111800, channel=0, data=[19, 100]),
   midi.NoteOffEvent(tick=1111900, channel=0, data=[19, 0]),
   midi.NoteOnEvent(tick=1112000, channel=0, data=[7, 100]),
   midi.NoteOffEvent(tick=1112100, channel=0, data=[7, 0]),
   midi.NoteOnEvent(tick=1112200, channel=0, data=[4, 100]),
   midi.NoteOffEvent(tick=1112300, channel=0, data=[4, 0]),
   midi.NoteOnEvent(tick=1112400, channel=0, data=[36, 100]),
   midi.NoteOffEvent(tick=1112500, channel=0, data=[36, 0]),
   midi.NoteOnEvent(tick=1112600, channel=0, data=[74, 100]),
   midi.NoteOffEvent(tick=1112700, channel=0, data=[74, 0]),
   midi.NoteOnEvent(tick=1112800, channel=0, data=[0, 100]),
   midi.NoteOffEvent(tick=1112900, channel=0, data=[0, 0]),
   midi.NoteOnEvent(tick=1113000, channel=0, data=[36, 100]),
   midi.NoteOffEvent(tick=1113100, channel=0, data=[36, 0]),
   midi.NoteOnEvent(tick=1113200, channel=0, data=[21, 100]),
   midi.NoteOffEvent(tick=1113300, channel=0, data=[21, 0]),
   midi.NoteOnEvent(tick=1113400, channel=0, data=[0, 100]),
   midi.NoteOffEvent(tick=1113500, channel=0, data=[0, 0]),
   midi.NoteOnEvent(tick=1113600, channel=0, data=[17, 100]),
   midi.NoteOffEvent(tick=1113700, channel=0, data=[17, 0]),
   midi.NoteOnEvent(tick=1113800, channel=0, data=[8, 100]),
   midi.NoteOffEvent(tick=1113900, channel=0, data=[8, 0]),
   midi.NoteOnEvent(tick=1114000, channel=0, data=[0, 100]),
   midi.NoteOffEvent(tick=1114100, channel=0, data=[0, 0]),
   midi.NoteOnEvent(tick=1114200, channel=0, data=[1, 100]),
   midi.NoteOffEvent(tick=1114300, channel=0, data=[1, 0]),
   midi.NoteOnEvent(tick=1114400, channel=0, data=[11, 100]),
   midi.NoteOffEvent(tick=1114500, channel=0, data=[11, 0]),
   midi.NoteOnEvent(tick=1114600, channel=0, data=[4, 100]),
   midi.NoteOffEvent(tick=1114700, channel=0, data=[4, 0]),
   midi.NoteOnEvent(tick=1114800, channel=0, data=[38, 100]),
   midi.NoteOffEvent(tick=1114900, channel=0, data=[38, 0]),
   midi.NoteOnEvent(tick=1115000, channel=0, data=[36, 100]),
   midi.NoteOffEvent(tick=1115100, channel=0, data=[36, 0]),
   midi.NoteOnEvent(tick=1115200, channel=0, data=[19, 100]),
   midi.NoteOffEvent(tick=1115300, channel=0, data=[19, 0]),
   midi.NoteOnEvent(tick=1115400, channel=0, data=[24, 100]),
   midi.NoteOffEvent(tick=1115500, channel=0, data=[24, 0]),
   midi.NoteOnEvent(tick=1115600, channel=0, data=[15, 100]),
   midi.NoteOffEvent(tick=1115700, channel=0, data=[15, 0]),
   midi.NoteOnEvent(tick=1115800, channel=0, data=[4, 100]),
   midi.NoteOffEvent(tick=1115900, channel=0, data=[4, 0]),
   midi.NoteOnEvent(tick=1116000, channel=0, data=[46, 100]),
   midi.NoteOffEvent(tick=1116100, channel=0, data=[46, 0]),
   midi.NoteOnEvent(tick=1116200, channel=0, data=[56, 100]),
   midi.NoteOffEvent(tick=1116300, channel=0, data=[56, 0]),
   midi.NoteOnEvent(tick=1116400, channel=0, data=[56, 100]),
   midi.NoteOffEvent(tick=1116500, channel=0, data=[56, 0]),
   midi.NoteOnEvent(tick=1116600, channel=0, data=[56, 100]),
   midi.NoteOffEvent(tick=1116700, channel=0, data=[56, 0]),
   midi.NoteOnEvent(tick=1116800, channel=0, data=[36, 100]),
   midi.NoteOffEvent(tick=1116900, channel=0, data=[36, 0]),
   midi.NoteOnEvent(tick=1117000, channel=0, data=[36, 100]),
   midi.NoteOffEvent(tick=1117100, channel=0, data=[36, 0]),
   midi.NoteOnEvent(tick=1117200, channel=0, data=[36, 100]),
   midi.NoteOffEvent(tick=1117300, channel=0, data=[36, 0]),
   midi.NoteOnEvent(tick=1117400, channel=0, data=[36, 100]),
   midi.NoteOffEvent(tick=1117500, channel=0, data=[36, 0]),
   midi.NoteOnEvent(tick=1117600, channel=0, data=[36, 100]),
   midi.NoteOffEvent(tick=1117700, channel=0, data=[36, 0]),
   midi.NoteOnEvent(tick=1117800, channel=0, data=[36, 100]),
   midi.NoteOffEvent(tick=1117900, channel=0, data=[36, 0]),
   midi.NoteOnEvent(tick=1118000, channel=0, data=[36, 100]),
   midi.NoteOffEvent(tick=1118100, channel=0, data=[36, 0]),
   midi.NoteOnEvent(tick=1118200, channel=0, data=[36, 100]),
   midi.NoteOffEvent(tick=1118300, channel=0, data=[36, 0]),
   midi.NoteOnEvent(tick=1118400, channel=0, data=[74, 100]),
   midi.NoteOffEvent(tick=1118500, channel=0, data=[74, 0]),
   midi.NoteOnEvent(tick=1118600, channel=0, data=[0, 100]),
   midi.NoteOffEvent(tick=1118700, channel=0, data=[0, 0]),
   midi.NoteOnEvent(tick=1118800, channel=0, data=[36, 100]),
   midi.NoteOffEvent(tick=1118900, channel=0, data=[36, 0]),
   midi.NoteOnEvent(tick=1119000, channel=0, data=[69, 100]),
   midi.NoteOffEvent(tick=1119100, channel=0, data=[69, 0]),
   midi.NoteOnEvent(tick=1119200, channel=0, data=[36, 100]),
   midi.NoteOffEvent(tick=1119300, channel=0, data=[36, 0]),
   midi.NoteOnEvent(tick=1119400, channel=0, data=[29, 100]),
   midi.NoteOffEvent(tick=1119500, channel=0, data=[29, 0]),
   midi.NoteOnEvent(tick=1119600, channel=0, data=[37, 100]),
   midi.NoteOffEvent(tick=1119700, channel=0, data=[37, 0]),
   midi.NoteOnEvent(tick=1119800, channel=0, data=[27, 100]),
   midi.NoteOffEvent(tick=1119900, channel=0, data=[27, 0]),
   midi.NoteOnEvent(tick=1120000, channel=0, data=[30, 100]),
   midi.NoteOffEvent(tick=1120100, channel=0, data=[30, 0]),
   midi.NoteOnEvent(tick=1120200, channel=0, data=[27, 100]),
   midi.NoteOffEvent(tick=1120300, channel=0, data=[27, 0]),
   midi.NoteOnEvent(tick=1120400, channel=0, data=[31, 100]),
   midi.NoteOffEvent(tick=1120500, channel=0, data=[31, 0]),
   midi.NoteOnEvent(tick=1120600, channel=0, data=[4, 100]),
   midi.NoteOffEvent(tick=1120700, channel=0, data=[4, 0]),
   midi.NoteOnEvent(tick=1120800, channel=0, data=[29, 100]),
   midi.NoteOffEvent(tick=1120900, channel=0, data=[29, 0]),
   midi.NoteOnEvent(tick=1121000, channel=0, data=[36, 100]),
   midi.NoteOffEvent(tick=1121100, channel=0, data=[36, 0]),
   midi.NoteOnEvent(tick=1121200, channel=0, data=[56, 100]),
   midi.NoteOffEvent(tick=1121300, channel=0, data=[56, 0]),
   midi.NoteOnEvent(tick=1121400, channel=0, data=[56, 100]),
   midi.NoteOffEvent(tick=1121500, channel=0, data=[56, 0]),
   midi.NoteOnEvent(tick=1121600, channel=0, data=[56, 100]),
   midi.NoteOffEvent(tick=1121700, channel=0, data=[56, 0]),
   midi.NoteOnEvent(tick=1121800, channel=0, data=[36, 100]),
   midi.NoteOffEvent(tick=1121900, channel=0, data=[36, 0]),
   midi.NoteOnEvent(tick=1122000, channel=0, data=[36, 100]),
   midi.NoteOffEvent(tick=1122100, channel=0, data=[36, 0]),
   midi.NoteOnEvent(tick=1122200, channel=0, data=[36, 100]),
   midi.NoteOffEvent(tick=1122300, channel=0, data=[36, 0]),
   midi.NoteOnEvent(tick=1122400, channel=0, data=[36, 100]),
   midi.NoteOffEvent(tick=1122500, channel=0, data=[36, 0]),
   midi.NoteOnEvent(tick=1122600, channel=0, data=[22, 100]),
   midi.NoteOffEvent(tick=1122700, channel=0, data=[22, 0]),
   midi.NoteOnEvent(tick=1122800, channel=0, data=[8, 100]),
   midi.NoteOffEvent(tick=1122900, channel=0, data=[8, 0]),
   midi.NoteOnEvent(tick=1123000, channel=0, data=[13, 100]),
   midi.NoteOffEvent(tick=1123100, channel=0, data=[13, 0]),
   midi.NoteOnEvent(tick=1123200, channel=0, data=[3, 100]),
   midi.NoteOffEvent(tick=1123300, channel=0, data=[3, 0]),
   midi.NoteOnEvent(tick=1123400, channel=0, data=[14, 100]),
   midi.NoteOffEvent(tick=1123500, channel=0, data=[14, 0]),
   midi.NoteOnEvent(tick=1123600, channel=0, data=[22, 100]),
   midi.NoteOffEvent(tick=1123700, channel=0, data=[22, 0]),
   midi.NoteOnEvent(tick=1123800, channel=0, data=[18, 100]),
   midi.NoteOffEvent(tick=1123900, channel=0, data=[18, 0]),
   midi.NoteOnEvent(tick=1124000, channel=0, data=[36, 100]),
   midi.NoteOffEvent(tick=1124100, channel=0, data=[36, 0]),
   midi.NoteOnEvent(tick=1124200, channel=0, data=[15, 100]),
   midi.NoteOffEvent(tick=1124300, channel=0, data=[15, 0]),
   midi.NoteOnEvent(tick=1124400, channel=0, data=[14, 100]),
   midi.NoteOffEvent(tick=1124500, channel=0, data=[14, 0]),
   midi.NoteOnEvent(tick=1124600, channel=0, data=[22, 100]),
   midi.NoteOffEvent(tick=1124700, channel=0, data=[22, 0]),
   midi.NoteOnEvent(tick=1124800, channel=0, data=[4, 100]),
   midi.NoteOffEvent(tick=1124900, channel=0, data=[4, 0]),
   midi.NoteOnEvent(tick=1125000, channel=0, data=[17, 100]),
   midi.NoteOffEvent(tick=1125100, channel=0, data=[17, 0]),
   midi.NoteOnEvent(tick=1125200, channel=0, data=[18, 100]),
   midi.NoteOffEvent(tick=1125300, channel=0, data=[18, 0]),
   midi.NoteOnEvent(tick=1125400, channel=0, data=[7, 100]),
   midi.NoteOffEvent(tick=1125500, channel=0, data=[7, 0]),
   midi.NoteOnEvent(tick=1125600, channel=0, data=[4, 100]),
   midi.NoteOffEvent(tick=1125700, channel=0, data=[4, 0]),
   midi.NoteOnEvent(tick=1125800, channel=0, data=[11, 100]),
   midi.NoteOffEvent(tick=1125900, channel=0, data=[11, 0]),
   midi.NoteOnEvent(tick=1126000, channel=0, data=[11, 100]),
   midi.NoteOffEvent(tick=1126100, channel=0, data=[11, 0]),
   midi.NoteOnEvent(tick=1126200, channel=0, data=[36, 100]),
   midi.NoteOffEvent(tick=1126300, channel=0, data=[36, 0]),
   midi.NoteOnEvent(tick=1126400, channel=0, data=[2, 100]),
   midi.NoteOffEvent(tick=1126500, channel=0, data=[2, 0]),
   midi.NoteOnEvent(tick=1126600, channel=0, data=[0, 100]),
   midi.NoteOffEvent(tick=1126700, channel=0, data=[0, 0]),
   midi.NoteOnEvent(tick=1126800, channel=0, data=[13, 100]),
   midi.NoteOffEvent(tick=1126900, channel=0, data=[13, 0]),
   midi.NoteOnEvent(tick=1127000, channel=0, data=[36, 100]),
   midi.NoteOffEvent(tick=1127100, channel=0, data=[36, 0]),
   midi.NoteOnEvent(tick=1127200, channel=0, data=[0, 100]),
   midi.NoteOffEvent(tick=1127300, channel=0, data=[0, 0]),
   midi.NoteOnEvent(tick=1127400, channel=0, data=[11, 100]),
   midi.NoteOffEvent(tick=1127500, channel=0, data=[11, 0]),
   midi.NoteOnEvent(tick=1127600, channel=0, data=[18, 100]),
   midi.NoteOffEvent(tick=1127700, channel=0, data=[18, 0]),
   midi.NoteOnEvent(tick=1127800, channel=0, data=[14, 100]),
   midi.NoteOffEvent(tick=1127900, channel=0, data=[14, 0]),
   midi.NoteOnEvent(tick=1128000, channel=0, data=[36, 100]),
   midi.NoteOffEvent(tick=1128100, channel=0, data=[36, 0]),
   midi.NoteOnEvent(tick=1128200, channel=0, data=[2, 100]),
   midi.NoteOffEvent(tick=1128300, channel=0, data=[2, 0]),
   midi.NoteOnEvent(tick=1128400, channel=0, data=[14, 100]),
   midi.NoteOffEvent(tick=1128500, channel=0, data=[14, 0]),
   midi.NoteOnEvent(tick=1128600, channel=0, data=[13, 100]),
   midi.NoteOffEvent(tick=1128700, channel=0, data=[13, 0]),
   midi.NoteOnEvent(tick=1128800, channel=0, data=[21, 100]),
   midi.NoteOffEvent(tick=1128900, channel=0, data=[21, 0]),
   midi.NoteOnEvent(tick=1129000, channel=0, data=[4, 100]),
   midi.NoteOffEvent(tick=1129100, channel=0, data=[4, 0]),
   midi.NoteOnEvent(tick=1129200, channel=0, data=[17, 100]),
   midi.NoteOffEvent(tick=1129300, channel=0, data=[17, 0]),
   midi.NoteOnEvent(tick=1129400, channel=0, data=[19, 100]),
   midi.NoteOffEvent(tick=1129500, channel=0, data=[19, 0]),
   midi.NoteOnEvent(tick=1129600, channel=0, data=[36, 100]),
   midi.NoteOffEvent(tick=1129700, channel=0, data=[36, 0]),
   midi.NoteOnEvent(tick=1129800, channel=0, data=[10, 100]),
   midi.NoteOffEvent(tick=1129900, channel=0, data=[10, 0]),
   midi.NoteOnEvent(tick=1130000, channel=0, data=[8, 100]),
   midi.NoteOffEvent(tick=1130100, channel=0, data=[8, 0]),
   midi.NoteOnEvent(tick=1130200, channel=0, data=[11, 100]),
   midi.NoteOffEvent(tick=1130300, channel=0, data=[11, 0]),
   midi.NoteOnEvent(tick=1130400, channel=0, data=[14, 100]),
   midi.NoteOffEvent(tick=1130500, channel=0, data=[14, 0]),
   midi.NoteOnEvent(tick=1130600, channel=0, data=[1, 100]),
   midi.NoteOffEvent(tick=1130700, channel=0, data=[1, 0]),
   midi.NoteOnEvent(tick=1130800, channel=0, data=[24, 100]),
   midi.NoteOffEvent(tick=1130900, channel=0, data=[24, 0]),
   midi.NoteOnEvent(tick=1131000, channel=0, data=[19, 100]),
   midi.NoteOffEvent(tick=1131100, channel=0, data=[19, 0]),
   midi.NoteOnEvent(tick=1131200, channel=0, data=[4, 100]),
   midi.NoteOffEvent(tick=1131300, channel=0, data=[4, 0]),
   midi.NoteOnEvent(tick=1131400, channel=0, data=[18, 100]),
   midi.NoteOffEvent(tick=1131500, channel=0, data=[18, 0]),
   midi.NoteOnEvent(tick=1131600, channel=0, data=[36, 100]),
   midi.NoteOffEvent(tick=1131700, channel=0, data=[36, 0]),
   midi.NoteOnEvent(tick=1131800, channel=0, data=[49, 100]),
   midi.NoteOffEvent(tick=1131900, channel=0, data=[49, 0]),
   midi.NoteOnEvent(tick=1132000, channel=0, data=[10, 100]),
   midi.NoteOffEvent(tick=1132100, channel=0, data=[10, 0]),
   midi.NoteOnEvent(tick=1132200, channel=0, data=[1, 100]),
   midi.NoteOffEvent(tick=1132300, channel=0, data=[1, 0]),
   midi.NoteOnEvent(tick=1132400, channel=0, data=[50, 100]),
   midi.NoteOffEvent(tick=1132500, channel=0, data=[50, 0]),
   midi.NoteOnEvent(tick=1132600, channel=0, data=[38, 100]),
   midi.NoteOffEvent(tick=1132700, channel=0, data=[38, 0]),
   midi.NoteOnEvent(tick=1132800, channel=0, data=[36, 100]),
   midi.NoteOffEvent(tick=1132900, channel=0, data=[36, 0]),
   midi.NoteOnEvent(tick=1133000, channel=0, data=[12, 100]),
   midi.NoteOffEvent(tick=1133100, channel=0, data=[12, 0]),
   midi.NoteOnEvent(tick=1133200, channel=0, data=[4, 100]),
   midi.NoteOffEvent(tick=1133300, channel=0, data=[4, 0]),
   midi.NoteOnEvent(tick=1133400, channel=0, data=[6, 100]),
   midi.NoteOffEvent(tick=1133500, channel=0, data=[6, 0]),
   midi.NoteOnEvent(tick=1133600, channel=0, data=[0, 100]),
   midi.NoteOffEvent(tick=1133700, channel=0, data=[0, 0]),
   midi.NoteOnEvent(tick=1133800, channel=0, data=[1, 100]),
   midi.NoteOffEvent(tick=1133900, channel=0, data=[1, 0]),
   midi.NoteOnEvent(tick=1134000, channel=0, data=[24, 100]),
   midi.NoteOffEvent(tick=1134100, channel=0, data=[24, 0]),
   midi.NoteOnEvent(tick=1134200, channel=0, data=[19, 100]),
   midi.NoteOffEvent(tick=1134300, channel=0, data=[19, 0]),
   midi.NoteOnEvent(tick=1134400, channel=0, data=[4, 100]),
   midi.NoteOffEvent(tick=1134500, channel=0, data=[4, 0]),
   midi.NoteOnEvent(tick=1134600, channel=0, data=[18, 100]),
   midi.NoteOffEvent(tick=1134700, channel=0, data=[18, 0]),
   midi.NoteOnEvent(tick=1134800, channel=0, data=[36, 100]),
   midi.NoteOffEvent(tick=1134900, channel=0, data=[36, 0]),
   midi.NoteOnEvent(tick=1135000, channel=0, data=[49, 100]),
   midi.NoteOffEvent(tick=1135100, channel=0, data=[49, 0]),
   midi.NoteOnEvent(tick=1135200, channel=0, data=[12, 100]),
   midi.NoteOffEvent(tick=1135300, channel=0, data=[12, 0]),
   midi.NoteOnEvent(tick=1135400, channel=0, data=[1, 100]),
   midi.NoteOffEvent(tick=1135500, channel=0, data=[1, 0]),
   midi.NoteOnEvent(tick=1135600, channel=0, data=[50, 100]),
   midi.NoteOffEvent(tick=1135700, channel=0, data=[50, 0]),
   midi.NoteOnEvent(tick=1135800, channel=0, data=[38, 100]),
   midi.NoteOffEvent(tick=1135900, channel=0, data=[38, 0]),
   midi.NoteOnEvent(tick=1136000, channel=0, data=[36, 100]),
   midi.NoteOffEvent(tick=1136100, channel=0, data=[36, 0]),
   midi.NoteOnEvent(tick=1136200, channel=0, data=[0, 100]),
   midi.NoteOffEvent(tick=1136300, channel=0, data=[0, 0]),
   midi.NoteOnEvent(tick=1136400, channel=0, data=[13, 100]),
   midi.NoteOffEvent(tick=1136500, channel=0, data=[13, 0]),
   midi.NoteOnEvent(tick=1136600, channel=0, data=[3, 100]),
   midi.NoteOffEvent(tick=1136700, channel=0, data=[3, 0]),
   midi.NoteOnEvent(tick=1136800, channel=0, data=[36, 100]),
   midi.NoteOffEvent(tick=1136900, channel=0, data=[36, 0]),
   midi.NoteOnEvent(tick=1137000, channel=0, data=[56, 100]),
   midi.NoteOffEvent(tick=1137100, channel=0, data=[56, 0]),
   midi.NoteOnEvent(tick=1137200, channel=0, data=[36, 100]),
   midi.NoteOffEvent(tick=1137300, channel=0, data=[36, 0]),
   midi.NoteOnEvent(tick=1137400, channel=0, data=[36, 100]),
   midi.NoteOffEvent(tick=1137500, channel=0, data=[36, 0]),
   midi.NoteOnEvent(tick=1137600, channel=0, data=[36, 100]),
   midi.NoteOffEvent(tick=1137700, channel=0, data=[36, 0]),
   midi.NoteOnEvent(tick=1137800, channel=0, data=[36, 100]),
   midi.NoteOffEvent(tick=1137900, channel=0, data=[36, 0]),
   midi.NoteOnEvent(tick=1138000, channel=0, data=[6, 100]),
   midi.NoteOffEvent(tick=1138100, channel=0, data=[6, 0]),
   midi.NoteOnEvent(tick=1138200, channel=0, data=[8, 100]),
   midi.NoteOffEvent(tick=1138300, channel=0, data=[8, 0]),
   midi.NoteOnEvent(tick=1138400, channel=0, data=[6, 100]),
   midi.NoteOffEvent(tick=1138500, channel=0, data=[6, 0]),
   midi.NoteOnEvent(tick=1138600, channel=0, data=[0, 100]),
   midi.NoteOffEvent(tick=1138700, channel=0, data=[0, 0]),
   midi.NoteOnEvent(tick=1138800, channel=0, data=[1, 100]),
   midi.NoteOffEvent(tick=1138900, channel=0, data=[1, 0]),
   midi.NoteOnEvent(tick=1139000, channel=0, data=[24, 100]),
   midi.NoteOffEvent(tick=1139100, channel=0, data=[24, 0]),
   midi.NoteOnEvent(tick=1139200, channel=0, data=[19, 100]),
   midi.NoteOffEvent(tick=1139300, channel=0, data=[19, 0]),
   midi.NoteOnEvent(tick=1139400, channel=0, data=[4, 100]),
   midi.NoteOffEvent(tick=1139500, channel=0, data=[4, 0]),
   midi.NoteOnEvent(tick=1139600, channel=0, data=[18, 100]),
   midi.NoteOffEvent(tick=1139700, channel=0, data=[18, 0]),
   midi.NoteOnEvent(tick=1139800, channel=0, data=[36, 100]),
   midi.NoteOffEvent(tick=1139900, channel=0, data=[36, 0]),
   midi.NoteOnEvent(tick=1140000, channel=0, data=[49, 100]),
   midi.NoteOffEvent(tick=1140100, channel=0, data=[49, 0]),
   midi.NoteOnEvent(tick=1140200, channel=0, data=[6, 100]),
   midi.NoteOffEvent(tick=1140300, channel=0, data=[6, 0]),
   midi.NoteOnEvent(tick=1140400, channel=0, data=[1, 100]),
   midi.NoteOffEvent(tick=1140500, channel=0, data=[1, 0]),
   midi.NoteOnEvent(tick=1140600, channel=0, data=[50, 100]),
   midi.NoteOffEvent(tick=1140700, channel=0, data=[50, 0]),
   midi.NoteOnEvent(tick=1140800, channel=0, data=[36, 100]),
   midi.NoteOffEvent(tick=1140900, channel=0, data=[36, 0]),
   midi.NoteOnEvent(tick=1141000, channel=0, data=[8, 100]),
   midi.NoteOffEvent(tick=1141100, channel=0, data=[8, 0]),
   midi.NoteOnEvent(tick=1141200, channel=0, data=[13, 100]),
   midi.NoteOffEvent(tick=1141300, channel=0, data=[13, 0]),
   midi.NoteOnEvent(tick=1141400, channel=0, data=[19, 100]),
   midi.NoteOffEvent(tick=1141500, channel=0, data=[19, 0]),
   midi.NoteOnEvent(tick=1141600, channel=0, data=[14, 100]),
   midi.NoteOffEvent(tick=1141700, channel=0, data=[14, 0]),
   midi.NoteOnEvent(tick=1141800, channel=0, data=[36, 100]),
   midi.NoteOffEvent(tick=1141900, channel=0, data=[36, 0]),
   midi.NoteOnEvent(tick=1142000, channel=0, data=[1, 100]),
   midi.NoteOffEvent(tick=1142100, channel=0, data=[1, 0]),
   midi.NoteOnEvent(tick=1142200, channel=0, data=[24, 100]),
   midi.NoteOffEvent(tick=1142300, channel=0, data=[24, 0]),
   midi.NoteOnEvent(tick=1142400, channel=0, data=[19, 100]),
   midi.NoteOffEvent(tick=1142500, channel=0, data=[19, 0]),
   midi.NoteOnEvent(tick=1142600, channel=0, data=[4, 100]),
   midi.NoteOffEvent(tick=1142700, channel=0, data=[4, 0]),
   midi.NoteOnEvent(tick=1142800, channel=0, data=[18, 100]),
   midi.NoteOffEvent(tick=1142900, channel=0, data=[18, 0]),
   midi.NoteOnEvent(tick=1143000, channel=0, data=[37, 100]),
   midi.NoteOffEvent(tick=1143100, channel=0, data=[37, 0]),
   midi.NoteOnEvent(tick=1143200, channel=0, data=[36, 100]),
   midi.NoteOffEvent(tick=1143300, channel=0, data=[36, 0]),
   midi.NoteOnEvent(tick=1143400, channel=0, data=[5, 100]),
   midi.NoteOffEvent(tick=1143500, channel=0, data=[5, 0]),
   midi.NoteOnEvent(tick=1143600, channel=0, data=[14, 100]),
   midi.NoteOffEvent(tick=1143700, channel=0, data=[14, 0]),
   midi.NoteOnEvent(tick=1143800, channel=0, data=[17, 100]),
   midi.NoteOffEvent(tick=1143900, channel=0, data=[17, 0]),
   midi.NoteOnEvent(tick=1144000, channel=0, data=[36, 100]),
   midi.NoteOffEvent(tick=1144100, channel=0, data=[36, 0]),
   midi.NoteOnEvent(tick=1144200, channel=0, data=[4, 100]),
   midi.NoteOffEvent(tick=1144300, channel=0, data=[4, 0]),
   midi.NoteOnEvent(tick=1144400, channel=0, data=[23, 100]),
   midi.NoteOffEvent(tick=1144500, channel=0, data=[23, 0]),
   midi.NoteOnEvent(tick=1144600, channel=0, data=[0, 100]),
   midi.NoteOffEvent(tick=1144700, channel=0, data=[0, 0]),
   midi.NoteOnEvent(tick=1144800, channel=0, data=[12, 100]),
   midi.NoteOffEvent(tick=1144900, channel=0, data=[12, 0]),
   midi.NoteOnEvent(tick=1145000, channel=0, data=[15, 100]),
   midi.NoteOffEvent(tick=1145100, channel=0, data=[15, 0]),
   midi.NoteOnEvent(tick=1145200, channel=0, data=[11, 100]),
   midi.NoteOffEvent(tick=1145300, channel=0, data=[11, 0]),
   midi.NoteOnEvent(tick=1145400, channel=0, data=[4, 100]),
   midi.NoteOffEvent(tick=1145500, channel=0, data=[4, 0]),
   midi.NoteOnEvent(tick=1145600, channel=0, data=[38, 100]),
   midi.NoteOffEvent(tick=1145700, channel=0, data=[38, 0]),
   midi.NoteOnEvent(tick=1145800, channel=0, data=[36, 100]),
   midi.NoteOffEvent(tick=1145900, channel=0, data=[36, 0]),
   midi.NoteOnEvent(tick=1146000, channel=0, data=[19, 100]),
   midi.NoteOffEvent(tick=1146100, channel=0, data=[19, 0]),
   midi.NoteOnEvent(tick=1146200, channel=0, data=[14, 100]),
   midi.NoteOffEvent(tick=1146300, channel=0, data=[14, 0]),
   midi.NoteOnEvent(tick=1146400, channel=0, data=[36, 100]),
   midi.NoteOffEvent(tick=1146500, channel=0, data=[36, 0]),
   midi.NoteOnEvent(tick=1146600, channel=0, data=[0, 100]),
   midi.NoteOffEvent(tick=1146700, channel=0, data=[0, 0]),
   midi.NoteOnEvent(tick=1146800, channel=0, data=[18, 100]),
   midi.NoteOffEvent(tick=1146900, channel=0, data=[18, 0]),
   midi.NoteOnEvent(tick=1147000, channel=0, data=[18, 100]),
   midi.NoteOffEvent(tick=1147100, channel=0, data=[18, 0]),
   midi.NoteOnEvent(tick=1147200, channel=0, data=[8, 100]),
   midi.NoteOffEvent(tick=1147300, channel=0, data=[8, 0]),
   midi.NoteOnEvent(tick=1147400, channel=0, data=[6, 100]),
   midi.NoteOffEvent(tick=1147500, channel=0, data=[6, 0]),
   midi.NoteOnEvent(tick=1147600, channel=0, data=[13, 100]),
   midi.NoteOffEvent(tick=1147700, channel=0, data=[13, 0]),
   midi.NoteOnEvent(tick=1147800, channel=0, data=[36, 100]),
   midi.NoteOffEvent(tick=1147900, channel=0, data=[36, 0]),
   midi.NoteOnEvent(tick=1148000, channel=0, data=[0, 100]),
   midi.NoteOffEvent(tick=1148100, channel=0, data=[0, 0]),
   midi.NoteOnEvent(tick=1148200, channel=0, data=[36, 100]),
   midi.NoteOffEvent(tick=1148300, channel=0, data=[36, 0]),
   midi.NoteOnEvent(tick=1148400, channel=0, data=[21, 100]),
   midi.NoteOffEvent(tick=1148500, channel=0, data=[21, 0]),
   midi.NoteOnEvent(tick=1148600, channel=0, data=[0, 100]),
   midi.NoteOffEvent(tick=1148700, channel=0, data=[0, 0]),
   midi.NoteOnEvent(tick=1148800, channel=0, data=[11, 100]),
   midi.NoteOffEvent(tick=1148900, channel=0, data=[11, 0]),
   midi.NoteOnEvent(tick=1149000, channel=0, data=[20, 100]),
   midi.NoteOffEvent(tick=1149100, channel=0, data=[20, 0]),
   midi.NoteOnEvent(tick=1149200, channel=0, data=[4, 100]),
   midi.NoteOffEvent(tick=1149300, channel=0, data=[4, 0]),
   midi.NoteOnEvent(tick=1149400, channel=0, data=[36, 100]),
   midi.NoteOffEvent(tick=1149500, channel=0, data=[36, 0]),
   midi.NoteOnEvent(tick=1149600, channel=0, data=[14, 100]),
   midi.NoteOffEvent(tick=1149700, channel=0, data=[14, 0]),
   midi.NoteOnEvent(tick=1149800, channel=0, data=[5, 100]),
   midi.NoteOffEvent(tick=1149900, channel=0, data=[5, 0]),
   midi.NoteOnEvent(tick=1150000, channel=0, data=[36, 100]),
   midi.NoteOffEvent(tick=1150100, channel=0, data=[36, 0]),
   midi.NoteOnEvent(tick=1150200, channel=0, data=[27, 100]),
   midi.NoteOffEvent(tick=1150300, channel=0, data=[27, 0]),
   midi.NoteOnEvent(tick=1150400, channel=0, data=[26, 100]),
   midi.NoteOffEvent(tick=1150500, channel=0, data=[26, 0]),
   midi.NoteOnEvent(tick=1150600, channel=0, data=[36, 100]),
   midi.NoteOffEvent(tick=1150700, channel=0, data=[36, 0]),
   midi.NoteOnEvent(tick=1150800, channel=0, data=[10, 100]),
   midi.NoteOffEvent(tick=1150900, channel=0, data=[10, 0]),
   midi.NoteOnEvent(tick=1151000, channel=0, data=[8, 100]),
   midi.NoteOffEvent(tick=1151100, channel=0, data=[8, 0]),
   midi.NoteOnEvent(tick=1151200, channel=0, data=[11, 100]),
   midi.NoteOffEvent(tick=1151300, channel=0, data=[11, 0]),
   midi.NoteOnEvent(tick=1151400, channel=0, data=[14, 100]),
   midi.NoteOffEvent(tick=1151500, channel=0, data=[14, 0]),
   midi.NoteOnEvent(tick=1151600, channel=0, data=[1, 100]),
   midi.NoteOffEvent(tick=1151700, channel=0, data=[1, 0]),
   midi.NoteOnEvent(tick=1151800, channel=0, data=[24, 100]),
   midi.NoteOffEvent(tick=1151900, channel=0, data=[24, 0]),
   midi.NoteOnEvent(tick=1152000, channel=0, data=[19, 100]),
   midi.NoteOffEvent(tick=1152100, channel=0, data=[19, 0]),
   midi.NoteOnEvent(tick=1152200, channel=0, data=[4, 100]),
   midi.NoteOffEvent(tick=1152300, channel=0, data=[4, 0]),
   midi.NoteOnEvent(tick=1152400, channel=0, data=[18, 100]),
   midi.NoteOffEvent(tick=1152500, channel=0, data=[18, 0]),
   midi.NoteOnEvent(tick=1152600, channel=0, data=[56, 100]),
   midi.NoteOffEvent(tick=1152700, channel=0, data=[56, 0]),
   midi.NoteOnEvent(tick=1152800, channel=0, data=[36, 100]),
   midi.NoteOffEvent(tick=1152900, channel=0, data=[36, 0]),
   midi.NoteOnEvent(tick=1153000, channel=0, data=[36, 100]),
   midi.NoteOffEvent(tick=1153100, channel=0, data=[36, 0]),
   midi.NoteOnEvent(tick=1153200, channel=0, data=[36, 100]),
   midi.NoteOffEvent(tick=1153300, channel=0, data=[36, 0]),
   midi.NoteOnEvent(tick=1153400, channel=0, data=[36, 100]),
   midi.NoteOffEvent(tick=1153500, channel=0, data=[36, 0]),
   midi.NoteOnEvent(tick=1153600, channel=0, data=[19, 100]),
   midi.NoteOffEvent(tick=1153700, channel=0, data=[19, 0]),
   midi.NoteOnEvent(tick=1153800, channel=0, data=[14, 100]),
   midi.NoteOffEvent(tick=1153900, channel=0, data=[14, 0]),
   midi.NoteOnEvent(tick=1154000, channel=0, data=[36, 100]),
   midi.NoteOffEvent(tick=1154100, channel=0, data=[36, 0]),
   midi.NoteOnEvent(tick=1154200, channel=0, data=[19, 100]),
   midi.NoteOffEvent(tick=1154300, channel=0, data=[19, 0]),
   midi.NoteOnEvent(tick=1154400, channel=0, data=[7, 100]),
   midi.NoteOffEvent(tick=1154500, channel=0, data=[7, 0]),
   midi.NoteOnEvent(tick=1154600, channel=0, data=[4, 100]),
   midi.NoteOffEvent(tick=1154700, channel=0, data=[4, 0]),
   midi.NoteOnEvent(tick=1154800, channel=0, data=[36, 100]),
   midi.NoteOffEvent(tick=1154900, channel=0, data=[36, 0]),
   midi.NoteOnEvent(tick=1155000, channel=0, data=[74, 100]),
   midi.NoteOffEvent(tick=1155100, channel=0, data=[74, 0]),
   midi.NoteOnEvent(tick=1155200, channel=0, data=[0, 100]),
   midi.NoteOffEvent(tick=1155300, channel=0, data=[0, 0]),
   midi.NoteOnEvent(tick=1155400, channel=0, data=[36, 100]),
   midi.NoteOffEvent(tick=1155500, channel=0, data=[36, 0]),
   midi.NoteOnEvent(tick=1155600, channel=0, data=[21, 100]),
   midi.NoteOffEvent(tick=1155700, channel=0, data=[21, 0]),
   midi.NoteOnEvent(tick=1155800, channel=0, data=[0, 100]),
   midi.NoteOffEvent(tick=1155900, channel=0, data=[0, 0]),
   midi.NoteOnEvent(tick=1156000, channel=0, data=[17, 100]),
   midi.NoteOffEvent(tick=1156100, channel=0, data=[17, 0]),
   midi.NoteOnEvent(tick=1156200, channel=0, data=[8, 100]),
   midi.NoteOffEvent(tick=1156300, channel=0, data=[8, 0]),
   midi.NoteOnEvent(tick=1156400, channel=0, data=[0, 100]),
   midi.NoteOffEvent(tick=1156500, channel=0, data=[0, 0]),
   midi.NoteOnEvent(tick=1156600, channel=0, data=[1, 100]),
   midi.NoteOffEvent(tick=1156700, channel=0, data=[1, 0]),
   midi.NoteOnEvent(tick=1156800, channel=0, data=[11, 100]),
   midi.NoteOffEvent(tick=1156900, channel=0, data=[11, 0]),
   midi.NoteOnEvent(tick=1157000, channel=0, data=[4, 100]),
   midi.NoteOffEvent(tick=1157100, channel=0, data=[4, 0]),
   midi.NoteOnEvent(tick=1157200, channel=0, data=[38, 100]),
   midi.NoteOffEvent(tick=1157300, channel=0, data=[38, 0]),
   midi.NoteOnEvent(tick=1157400, channel=0, data=[36, 100]),
   midi.NoteOffEvent(tick=1157500, channel=0, data=[36, 0]),
   midi.NoteOnEvent(tick=1157600, channel=0, data=[19, 100]),
   midi.NoteOffEvent(tick=1157700, channel=0, data=[19, 0]),
   midi.NoteOnEvent(tick=1157800, channel=0, data=[24, 100]),
   midi.NoteOffEvent(tick=1157900, channel=0, data=[24, 0]),
   midi.NoteOnEvent(tick=1158000, channel=0, data=[15, 100]),
   midi.NoteOffEvent(tick=1158100, channel=0, data=[15, 0]),
   midi.NoteOnEvent(tick=1158200, channel=0, data=[4, 100]),
   midi.NoteOffEvent(tick=1158300, channel=0, data=[4, 0]),
   midi.NoteOnEvent(tick=1158400, channel=0, data=[46, 100]),
   midi.NoteOffEvent(tick=1158500, channel=0, data=[46, 0]),
   midi.NoteOnEvent(tick=1158600, channel=0, data=[56, 100]),
   midi.NoteOffEvent(tick=1158700, channel=0, data=[56, 0]),
   midi.NoteOnEvent(tick=1158800, channel=0, data=[56, 100]),
   midi.NoteOffEvent(tick=1158900, channel=0, data=[56, 0]),
   midi.NoteOnEvent(tick=1159000, channel=0, data=[56, 100]),
   midi.NoteOffEvent(tick=1159100, channel=0, data=[56, 0]),
   midi.NoteOnEvent(tick=1159200, channel=0, data=[36, 100]),
   midi.NoteOffEvent(tick=1159300, channel=0, data=[36, 0]),
   midi.NoteOnEvent(tick=1159400, channel=0, data=[36, 100]),
   midi.NoteOffEvent(tick=1159500, channel=0, data=[36, 0]),
   midi.NoteOnEvent(tick=1159600, channel=0, data=[36, 100]),
   midi.NoteOffEvent(tick=1159700, channel=0, data=[36, 0]),
   midi.NoteOnEvent(tick=1159800, channel=0, data=[36, 100]),
   midi.NoteOffEvent(tick=1159900, channel=0, data=[36, 0]),
   midi.NoteOnEvent(tick=1160000, channel=0, data=[36, 100]),
   midi.NoteOffEvent(tick=1160100, channel=0, data=[36, 0]),
   midi.NoteOnEvent(tick=1160200, channel=0, data=[36, 100]),
   midi.NoteOffEvent(tick=1160300, channel=0, data=[36, 0]),
   midi.NoteOnEvent(tick=1160400, channel=0, data=[36, 100]),
   midi.NoteOffEvent(tick=1160500, channel=0, data=[36, 0]),
   midi.NoteOnEvent(tick=1160600, channel=0, data=[36, 100]),
   midi.NoteOffEvent(tick=1160700, channel=0, data=[36, 0]),
   midi.NoteOnEvent(tick=1160800, channel=0, data=[74, 100]),
   midi.NoteOffEvent(tick=1160900, channel=0, data=[74, 0]),
   midi.NoteOnEvent(tick=1161000, channel=0, data=[0, 100]),
   midi.NoteOffEvent(tick=1161100, channel=0, data=[0, 0]),
   midi.NoteOnEvent(tick=1161200, channel=0, data=[36, 100]),
   midi.NoteOffEvent(tick=1161300, channel=0, data=[36, 0]),
   midi.NoteOnEvent(tick=1161400, channel=0, data=[69, 100]),
   midi.NoteOffEvent(tick=1161500, channel=0, data=[69, 0]),
   midi.NoteOnEvent(tick=1161600, channel=0, data=[36, 100]),
   midi.NoteOffEvent(tick=1161700, channel=0, data=[36, 0]),
   midi.NoteOnEvent(tick=1161800, channel=0, data=[27, 100]),
   midi.NoteOffEvent(tick=1161900, channel=0, data=[27, 0]),
   midi.NoteOnEvent(tick=1162000, channel=0, data=[26, 100]),
   midi.NoteOffEvent(tick=1162100, channel=0, data=[26, 0]),
   midi.NoteOnEvent(tick=1162200, channel=0, data=[10, 100]),
   midi.NoteOffEvent(tick=1162300, channel=0, data=[10, 0]),
   midi.NoteOnEvent(tick=1162400, channel=0, data=[1, 100]),
   midi.NoteOffEvent(tick=1162500, channel=0, data=[1, 0]),
   midi.NoteOnEvent(tick=1162600, channel=0, data=[56, 100]),
   midi.NoteOffEvent(tick=1162700, channel=0, data=[56, 0]),
   midi.NoteOnEvent(tick=1162800, channel=0, data=[56, 100]),
   midi.NoteOffEvent(tick=1162900, channel=0, data=[56, 0]),
   midi.NoteOnEvent(tick=1163000, channel=0, data=[56, 100]),
   midi.NoteOffEvent(tick=1163100, channel=0, data=[56, 0]),
   midi.NoteOnEvent(tick=1163200, channel=0, data=[36, 100]),
   midi.NoteOffEvent(tick=1163300, channel=0, data=[36, 0]),
   midi.NoteOnEvent(tick=1163400, channel=0, data=[36, 100]),
   midi.NoteOffEvent(tick=1163500, channel=0, data=[36, 0]),
   midi.NoteOnEvent(tick=1163600, channel=0, data=[19, 100]),
   midi.NoteOffEvent(tick=1163700, channel=0, data=[19, 0]),
   midi.NoteOnEvent(tick=1163800, channel=0, data=[7, 100]),
   midi.NoteOffEvent(tick=1163900, channel=0, data=[7, 0]),
   midi.NoteOnEvent(tick=1164000, channel=0, data=[4, 100]),
   midi.NoteOffEvent(tick=1164100, channel=0, data=[4, 0]),
   midi.NoteOnEvent(tick=1164200, channel=0, data=[36, 100]),
   midi.NoteOffEvent(tick=1164300, channel=0, data=[36, 0]),
   midi.NoteOnEvent(tick=1164400, channel=0, data=[0, 100]),
   midi.NoteOffEvent(tick=1164500, channel=0, data=[0, 0]),
   midi.NoteOnEvent(tick=1164600, channel=0, data=[18, 100]),
   midi.NoteOffEvent(tick=1164700, channel=0, data=[18, 0]),
   midi.NoteOnEvent(tick=1164800, channel=0, data=[18, 100]),
   midi.NoteOffEvent(tick=1164900, channel=0, data=[18, 0]),
   midi.NoteOnEvent(tick=1165000, channel=0, data=[8, 100]),
   midi.NoteOffEvent(tick=1165100, channel=0, data=[8, 0]),
   midi.NoteOnEvent(tick=1165200, channel=0, data=[6, 100]),
   midi.NoteOffEvent(tick=1165300, channel=0, data=[6, 0]),
   midi.NoteOnEvent(tick=1165400, channel=0, data=[13, 100]),
   midi.NoteOffEvent(tick=1165500, channel=0, data=[13, 0]),
   midi.NoteOnEvent(tick=1165600, channel=0, data=[12, 100]),
   midi.NoteOffEvent(tick=1165700, channel=0, data=[12, 0]),
   midi.NoteOnEvent(tick=1165800, channel=0, data=[4, 100]),
   midi.NoteOffEvent(tick=1165900, channel=0, data=[4, 0]),
   midi.NoteOnEvent(tick=1166000, channel=0, data=[13, 100]),
   midi.NoteOffEvent(tick=1166100, channel=0, data=[13, 0]),
   midi.NoteOnEvent(tick=1166200, channel=0, data=[19, 100]),
   midi.NoteOffEvent(tick=1166300, channel=0, data=[19, 0]),
   midi.NoteOnEvent(tick=1166400, channel=0, data=[36, 100]),
   midi.NoteOffEvent(tick=1166500, channel=0, data=[36, 0]),
   midi.NoteOnEvent(tick=1166600, channel=0, data=[1, 100]),
   midi.NoteOffEvent(tick=1166700, channel=0, data=[1, 0]),
   midi.NoteOnEvent(tick=1166800, channel=0, data=[24, 100]),
   midi.NoteOffEvent(tick=1166900, channel=0, data=[24, 0]),
   midi.NoteOnEvent(tick=1167000, channel=0, data=[36, 100]),
   midi.NoteOffEvent(tick=1167100, channel=0, data=[36, 0]),
   midi.NoteOnEvent(tick=1167200, channel=0, data=[0, 100]),
   midi.NoteOffEvent(tick=1167300, channel=0, data=[0, 0]),
   midi.NoteOnEvent(tick=1167400, channel=0, data=[3, 100]),
   midi.NoteOffEvent(tick=1167500, channel=0, data=[3, 0]),
   midi.NoteOnEvent(tick=1167600, channel=0, data=[3, 100]),
   midi.NoteOffEvent(tick=1167700, channel=0, data=[3, 0]),
   midi.NoteOnEvent(tick=1167800, channel=0, data=[8, 100]),
   midi.NoteOffEvent(tick=1167900, channel=0, data=[8, 0]),
   midi.NoteOnEvent(tick=1168000, channel=0, data=[19, 100]),
   midi.NoteOffEvent(tick=1168100, channel=0, data=[19, 0]),
   midi.NoteOnEvent(tick=1168200, channel=0, data=[8, 100]),
   midi.NoteOffEvent(tick=1168300, channel=0, data=[8, 0]),
   midi.NoteOnEvent(tick=1168400, channel=0, data=[14, 100]),
   midi.NoteOffEvent(tick=1168500, channel=0, data=[14, 0]),
   midi.NoteOnEvent(tick=1168600, channel=0, data=[13, 100]),
   midi.NoteOffEvent(tick=1168700, channel=0, data=[13, 0]),
   midi.NoteOnEvent(tick=1168800, channel=0, data=[36, 100]),
   midi.NoteOffEvent(tick=1168900, channel=0, data=[36, 0]),
   midi.NoteOnEvent(tick=1169000, channel=0, data=[14, 100]),
   midi.NoteOffEvent(tick=1169100, channel=0, data=[14, 0]),
   midi.NoteOnEvent(tick=1169200, channel=0, data=[15, 100]),
   midi.NoteOffEvent(tick=1169300, channel=0, data=[15, 0]),
   midi.NoteOnEvent(tick=1169400, channel=0, data=[4, 100]),
   midi.NoteOffEvent(tick=1169500, channel=0, data=[4, 0]),
   midi.NoteOnEvent(tick=1169600, channel=0, data=[17, 100]),
   midi.NoteOffEvent(tick=1169700, channel=0, data=[17, 0]),
   midi.NoteOnEvent(tick=1169800, channel=0, data=[0, 100]),
   midi.NoteOffEvent(tick=1169900, channel=0, data=[0, 0]),
   midi.NoteOnEvent(tick=1170000, channel=0, data=[19, 100]),
   midi.NoteOffEvent(tick=1170100, channel=0, data=[19, 0]),
   midi.NoteOnEvent(tick=1170200, channel=0, data=[14, 100]),
   midi.NoteOffEvent(tick=1170300, channel=0, data=[14, 0]),
   midi.NoteOnEvent(tick=1170400, channel=0, data=[17, 100]),
   midi.NoteOffEvent(tick=1170500, channel=0, data=[17, 0]),
   midi.NoteOnEvent(tick=1170600, channel=0, data=[36, 100]),
   midi.NoteOffEvent(tick=1170700, channel=0, data=[36, 0]),
   midi.NoteOnEvent(tick=1170800, channel=0, data=[49, 100]),
   midi.NoteOffEvent(tick=1170900, channel=0, data=[49, 0]),
   midi.NoteOnEvent(tick=1171000, channel=0, data=[55, 100]),
   midi.NoteOffEvent(tick=1171100, channel=0, data=[55, 0]),
   midi.NoteOnEvent(tick=1171200, channel=0, data=[69, 100]),
   midi.NoteOffEvent(tick=1171300, channel=0, data=[69, 0]),
   midi.NoteOnEvent(tick=1171400, channel=0, data=[50, 100]),
   midi.NoteOffEvent(tick=1171500, channel=0, data=[50, 0]),
   midi.NoteOnEvent(tick=1171600, channel=0, data=[56, 100]),
   midi.NoteOffEvent(tick=1171700, channel=0, data=[56, 0]),
   midi.NoteOnEvent(tick=1171800, channel=0, data=[36, 100]),
   midi.NoteOffEvent(tick=1171900, channel=0, data=[36, 0]),
   midi.NoteOnEvent(tick=1172000, channel=0, data=[36, 100]),
   midi.NoteOffEvent(tick=1172100, channel=0, data=[36, 0]),
   midi.NoteOnEvent(tick=1172200, channel=0, data=[36, 100]),
   midi.NoteOffEvent(tick=1172300, channel=0, data=[36, 0]),
   midi.NoteOnEvent(tick=1172400, channel=0, data=[36, 100]),
   midi.NoteOffEvent(tick=1172500, channel=0, data=[36, 0]),
   midi.NoteOnEvent(tick=1172600, channel=0, data=[19, 100]),
   midi.NoteOffEvent(tick=1172700, channel=0, data=[19, 0]),
   midi.NoteOnEvent(tick=1172800, channel=0, data=[7, 100]),
   midi.NoteOffEvent(tick=1172900, channel=0, data=[7, 0]),
   midi.NoteOnEvent(tick=1173000, channel=0, data=[4, 100]),
   midi.NoteOffEvent(tick=1173100, channel=0, data=[4, 0]),
   midi.NoteOnEvent(tick=1173200, channel=0, data=[36, 100]),
   midi.NoteOffEvent(tick=1173300, channel=0, data=[36, 0]),
   midi.NoteOnEvent(tick=1173400, channel=0, data=[0, 100]),
   midi.NoteOffEvent(tick=1173500, channel=0, data=[0, 0]),
   midi.NoteOnEvent(tick=1173600, channel=0, data=[18, 100]),
   midi.NoteOffEvent(tick=1173700, channel=0, data=[18, 0]),
   midi.NoteOnEvent(tick=1173800, channel=0, data=[18, 100]),
   midi.NoteOffEvent(tick=1173900, channel=0, data=[18, 0]),
   midi.NoteOnEvent(tick=1174000, channel=0, data=[8, 100]),
   midi.NoteOffEvent(tick=1174100, channel=0, data=[8, 0]),
   midi.NoteOnEvent(tick=1174200, channel=0, data=[6, 100]),
   midi.NoteOffEvent(tick=1174300, channel=0, data=[6, 0]),
   midi.NoteOnEvent(tick=1174400, channel=0, data=[13, 100]),
   midi.NoteOffEvent(tick=1174500, channel=0, data=[13, 0]),
   midi.NoteOnEvent(tick=1174600, channel=0, data=[12, 100]),
   midi.NoteOffEvent(tick=1174700, channel=0, data=[12, 0]),
   midi.NoteOnEvent(tick=1174800, channel=0, data=[4, 100]),
   midi.NoteOffEvent(tick=1174900, channel=0, data=[4, 0]),
   midi.NoteOnEvent(tick=1175000, channel=0, data=[13, 100]),
   midi.NoteOffEvent(tick=1175100, channel=0, data=[13, 0]),
   midi.NoteOnEvent(tick=1175200, channel=0, data=[19, 100]),
   midi.NoteOffEvent(tick=1175300, channel=0, data=[19, 0]),
   midi.NoteOnEvent(tick=1175400, channel=0, data=[36, 100]),
   midi.NoteOffEvent(tick=1175500, channel=0, data=[36, 0]),
   midi.NoteOnEvent(tick=1175600, channel=0, data=[1, 100]),
   midi.NoteOffEvent(tick=1175700, channel=0, data=[1, 0]),
   midi.NoteOnEvent(tick=1175800, channel=0, data=[24, 100]),
   midi.NoteOffEvent(tick=1175900, channel=0, data=[24, 0]),
   midi.NoteOnEvent(tick=1176000, channel=0, data=[36, 100]),
   midi.NoteOffEvent(tick=1176100, channel=0, data=[36, 0]),
   midi.NoteOnEvent(tick=1176200, channel=0, data=[0, 100]),
   midi.NoteOffEvent(tick=1176300, channel=0, data=[0, 0]),
   midi.NoteOnEvent(tick=1176400, channel=0, data=[3, 100]),
   midi.NoteOffEvent(tick=1176500, channel=0, data=[3, 0]),
   midi.NoteOnEvent(tick=1176600, channel=0, data=[3, 100]),
   midi.NoteOffEvent(tick=1176700, channel=0, data=[3, 0]),
   midi.NoteOnEvent(tick=1176800, channel=0, data=[8, 100]),
   midi.NoteOffEvent(tick=1176900, channel=0, data=[8, 0]),
   midi.NoteOnEvent(tick=1177000, channel=0, data=[19, 100]),
   midi.NoteOffEvent(tick=1177100, channel=0, data=[19, 0]),
   midi.NoteOnEvent(tick=1177200, channel=0, data=[8, 100]),
   midi.NoteOffEvent(tick=1177300, channel=0, data=[8, 0]),
   midi.NoteOnEvent(tick=1177400, channel=0, data=[14, 100]),
   midi.NoteOffEvent(tick=1177500, channel=0, data=[14, 0]),
   midi.NoteOnEvent(tick=1177600, channel=0, data=[13, 100]),
   midi.NoteOffEvent(tick=1177700, channel=0, data=[13, 0]),
   midi.NoteOnEvent(tick=1177800, channel=0, data=[36, 100]),
   midi.NoteOffEvent(tick=1177900, channel=0, data=[36, 0]),
   midi.NoteOnEvent(tick=1178000, channel=0, data=[14, 100]),
   midi.NoteOffEvent(tick=1178100, channel=0, data=[14, 0]),
   midi.NoteOnEvent(tick=1178200, channel=0, data=[15, 100]),
   midi.NoteOffEvent(tick=1178300, channel=0, data=[15, 0]),
   midi.NoteOnEvent(tick=1178400, channel=0, data=[4, 100]),
   midi.NoteOffEvent(tick=1178500, channel=0, data=[4, 0]),
   midi.NoteOnEvent(tick=1178600, channel=0, data=[17, 100]),
   midi.NoteOffEvent(tick=1178700, channel=0, data=[17, 0]),
   midi.NoteOnEvent(tick=1178800, channel=0, data=[0, 100]),
   midi.NoteOffEvent(tick=1178900, channel=0, data=[0, 0]),
   midi.NoteOnEvent(tick=1179000, channel=0, data=[19, 100]),
   midi.NoteOffEvent(tick=1179100, channel=0, data=[19, 0]),
   midi.NoteOnEvent(tick=1179200, channel=0, data=[14, 100]),
   midi.NoteOffEvent(tick=1179300, channel=0, data=[14, 0]),
   midi.NoteOnEvent(tick=1179400, channel=0, data=[17, 100]),
   midi.NoteOffEvent(tick=1179500, channel=0, data=[17, 0]),
   midi.NoteOnEvent(tick=1179600, channel=0, data=[36, 100]),
   midi.NoteOffEvent(tick=1179700, channel=0, data=[36, 0]),
   midi.NoteOnEvent(tick=1179800, channel=0, data=[49, 100]),
   midi.NoteOffEvent(tick=1179900, channel=0, data=[49, 0]),
   midi.NoteOnEvent(tick=1180000, channel=0, data=[55, 100]),
   midi.NoteOffEvent(tick=1180100, channel=0, data=[55, 0]),
   midi.NoteOnEvent(tick=1180200, channel=0, data=[69, 100]),
   midi.NoteOffEvent(tick=1180300, channel=0, data=[69, 0]),
   midi.NoteOnEvent(tick=1180400, channel=0, data=[50, 100]),
   midi.NoteOffEvent(tick=1180500, channel=0, data=[50, 0]),
   midi.NoteOnEvent(tick=1180600, channel=0, data=[36, 100]),
   midi.NoteOffEvent(tick=1180700, channel=0, data=[36, 0]),
   midi.NoteOnEvent(tick=1180800, channel=0, data=[4, 100]),
   midi.NoteOffEvent(tick=1180900, channel=0, data=[4, 0]),
   midi.NoteOnEvent(tick=1181000, channel=0, data=[8, 100]),
   midi.NoteOffEvent(tick=1181100, channel=0, data=[8, 0]),
   midi.NoteOnEvent(tick=1181200, channel=0, data=[19, 100]),
   midi.NoteOffEvent(tick=1181300, channel=0, data=[19, 0]),
   midi.NoteOnEvent(tick=1181400, channel=0, data=[7, 100]),
   midi.NoteOffEvent(tick=1181500, channel=0, data=[7, 0]),
   midi.NoteOnEvent(tick=1181600, channel=0, data=[4, 100]),
   midi.NoteOffEvent(tick=1181700, channel=0, data=[4, 0]),
   midi.NoteOnEvent(tick=1181800, channel=0, data=[17, 100]),
   midi.NoteOffEvent(tick=1181900, channel=0, data=[17, 0]),
   midi.NoteOnEvent(tick=1182000, channel=0, data=[36, 100]),
   midi.NoteOffEvent(tick=1182100, channel=0, data=[36, 0]),
   midi.NoteOnEvent(tick=1182200, channel=0, data=[8, 100]),
   midi.NoteOffEvent(tick=1182300, channel=0, data=[8, 0]),
   midi.NoteOnEvent(tick=1182400, channel=0, data=[13, 100]),
   midi.NoteOffEvent(tick=1182500, channel=0, data=[13, 0]),
   midi.NoteOnEvent(tick=1182600, channel=0, data=[2, 100]),
   midi.NoteOffEvent(tick=1182700, channel=0, data=[2, 0]),
   midi.NoteOnEvent(tick=1182800, channel=0, data=[17, 100]),
   midi.NoteOffEvent(tick=1182900, channel=0, data=[17, 0]),
   midi.NoteOnEvent(tick=1183000, channel=0, data=[4, 100]),
   midi.NoteOffEvent(tick=1183100, channel=0, data=[4, 0]),
   midi.NoteOnEvent(tick=1183200, channel=0, data=[12, 100]),
   midi.NoteOffEvent(tick=1183300, channel=0, data=[12, 0]),
   midi.NoteOnEvent(tick=1183400, channel=0, data=[4, 100]),
   midi.NoteOffEvent(tick=1183500, channel=0, data=[4, 0]),
   midi.NoteOnEvent(tick=1183600, channel=0, data=[13, 100]),
   midi.NoteOffEvent(tick=1183700, channel=0, data=[13, 0]),
   midi.NoteOnEvent(tick=1183800, channel=0, data=[19, 100]),
   midi.NoteOffEvent(tick=1183900, channel=0, data=[19, 0]),
   midi.NoteOnEvent(tick=1184000, channel=0, data=[18, 100]),
   midi.NoteOffEvent(tick=1184100, channel=0, data=[18, 0]),
   midi.NoteOnEvent(tick=1184200, channel=0, data=[36, 100]),
   midi.NoteOffEvent(tick=1184300, channel=0, data=[36, 0]),
   midi.NoteOnEvent(tick=1184400, channel=0, data=[19, 100]),
   midi.NoteOffEvent(tick=1184500, channel=0, data=[19, 0]),
   midi.NoteOnEvent(tick=1184600, channel=0, data=[7, 100]),
   midi.NoteOffEvent(tick=1184700, channel=0, data=[7, 0]),
   midi.NoteOnEvent(tick=1184800, channel=0, data=[4, 100]),
   midi.NoteOffEvent(tick=1184900, channel=0, data=[4, 0]),
   midi.NoteOnEvent(tick=1185000, channel=0, data=[36, 100]),
   midi.NoteOffEvent(tick=1185100, channel=0, data=[36, 0]),
   midi.NoteOnEvent(tick=1185200, channel=0, data=[21, 100]),
   midi.NoteOffEvent(tick=1185300, channel=0, data=[21, 0]),
   midi.NoteOnEvent(tick=1185400, channel=0, data=[0, 100]),
   midi.NoteOffEvent(tick=1185500, channel=0, data=[0, 0]),
   midi.NoteOnEvent(tick=1185600, channel=0, data=[11, 100]),
   midi.NoteOffEvent(tick=1185700, channel=0, data=[11, 0]),
   midi.NoteOnEvent(tick=1185800, channel=0, data=[20, 100]),
   midi.NoteOffEvent(tick=1185900, channel=0, data=[20, 0]),
   midi.NoteOnEvent(tick=1186000, channel=0, data=[4, 100]),
   midi.NoteOffEvent(tick=1186100, channel=0, data=[4, 0]),
   midi.NoteOnEvent(tick=1186200, channel=0, data=[36, 100]),
   midi.NoteOffEvent(tick=1186300, channel=0, data=[36, 0]),
   midi.NoteOnEvent(tick=1186400, channel=0, data=[14, 100]),
   midi.NoteOffEvent(tick=1186500, channel=0, data=[14, 0]),
   midi.NoteOnEvent(tick=1186600, channel=0, data=[5, 100]),
   midi.NoteOffEvent(tick=1186700, channel=0, data=[5, 0]),
   midi.NoteOnEvent(tick=1186800, channel=0, data=[36, 100]),
   midi.NoteOffEvent(tick=1186900, channel=0, data=[36, 0]),
   midi.NoteOnEvent(tick=1187000, channel=0, data=[0, 100]),
   midi.NoteOffEvent(tick=1187100, channel=0, data=[0, 0]),
   midi.NoteOnEvent(tick=1187200, channel=0, data=[56, 100]),
   midi.NoteOffEvent(tick=1187300, channel=0, data=[56, 0]),
   midi.NoteOnEvent(tick=1187400, channel=0, data=[36, 100]),
   midi.NoteOffEvent(tick=1187500, channel=0, data=[36, 0]),
   midi.NoteOnEvent(tick=1187600, channel=0, data=[36, 100]),
   midi.NoteOffEvent(tick=1187700, channel=0, data=[36, 0]),
   midi.NoteOnEvent(tick=1187800, channel=0, data=[36, 100]),
   midi.NoteOffEvent(tick=1187900, channel=0, data=[36, 0]),
   midi.NoteOnEvent(tick=1188000, channel=0, data=[36, 100]),
   midi.NoteOffEvent(tick=1188100, channel=0, data=[36, 0]),
   midi.NoteOnEvent(tick=1188200, channel=0, data=[21, 100]),
   midi.NoteOffEvent(tick=1188300, channel=0, data=[21, 0]),
   midi.NoteOnEvent(tick=1188400, channel=0, data=[0, 100]),
   midi.NoteOffEvent(tick=1188500, channel=0, data=[0, 0]),
   midi.NoteOnEvent(tick=1188600, channel=0, data=[17, 100]),
   midi.NoteOffEvent(tick=1188700, channel=0, data=[17, 0]),
   midi.NoteOnEvent(tick=1188800, channel=0, data=[8, 100]),
   midi.NoteOffEvent(tick=1188900, channel=0, data=[8, 0]),
   midi.NoteOnEvent(tick=1189000, channel=0, data=[0, 100]),
   midi.NoteOffEvent(tick=1189100, channel=0, data=[0, 0]),
   midi.NoteOnEvent(tick=1189200, channel=0, data=[1, 100]),
   midi.NoteOffEvent(tick=1189300, channel=0, data=[1, 0]),
   midi.NoteOnEvent(tick=1189400, channel=0, data=[11, 100]),
   midi.NoteOffEvent(tick=1189500, channel=0, data=[11, 0]),
   midi.NoteOnEvent(tick=1189600, channel=0, data=[4, 100]),
   midi.NoteOffEvent(tick=1189700, channel=0, data=[4, 0]),
   midi.NoteOnEvent(tick=1189800, channel=0, data=[36, 100]),
   midi.NoteOffEvent(tick=1189900, channel=0, data=[36, 0]),
   midi.NoteOnEvent(tick=1190000, channel=0, data=[14, 100]),
   midi.NoteOffEvent(tick=1190100, channel=0, data=[14, 0]),
   midi.NoteOnEvent(tick=1190200, channel=0, data=[17, 100]),
   midi.NoteOffEvent(tick=1190300, channel=0, data=[17, 0]),
   midi.NoteOnEvent(tick=1190400, channel=0, data=[36, 100]),
   midi.NoteOffEvent(tick=1190500, channel=0, data=[36, 0]),
   midi.NoteOnEvent(tick=1190600, channel=0, data=[0, 100]),
   midi.NoteOffEvent(tick=1190700, channel=0, data=[0, 0]),
   midi.NoteOnEvent(tick=1190800, channel=0, data=[15, 100]),
   midi.NoteOffEvent(tick=1190900, channel=0, data=[15, 0]),
   midi.NoteOnEvent(tick=1191000, channel=0, data=[15, 100]),
   midi.NoteOffEvent(tick=1191100, channel=0, data=[15, 0]),
   midi.NoteOnEvent(tick=1191200, channel=0, data=[4, 100]),
   midi.NoteOffEvent(tick=1191300, channel=0, data=[4, 0]),
   midi.NoteOnEvent(tick=1191400, channel=0, data=[13, 100]),
   midi.NoteOffEvent(tick=1191500, channel=0, data=[13, 0]),
   midi.NoteOnEvent(tick=1191600, channel=0, data=[3, 100]),
   midi.NoteOffEvent(tick=1191700, channel=0, data=[3, 0]),
   midi.NoteOnEvent(tick=1191800, channel=0, data=[18, 100]),
   midi.NoteOffEvent(tick=1191900, channel=0, data=[18, 0]),
   midi.NoteOnEvent(tick=1192000, channel=0, data=[36, 100]),
   midi.NoteOffEvent(tick=1192100, channel=0, data=[36, 0]),
   midi.NoteOnEvent(tick=1192200, channel=0, data=[19, 100]),
   midi.NoteOffEvent(tick=1192300, channel=0, data=[19, 0]),
   midi.NoteOnEvent(tick=1192400, channel=0, data=[7, 100]),
   midi.NoteOffEvent(tick=1192500, channel=0, data=[7, 0]),
   midi.NoteOnEvent(tick=1192600, channel=0, data=[4, 100]),
   midi.NoteOffEvent(tick=1192700, channel=0, data=[4, 0]),
   midi.NoteOnEvent(tick=1192800, channel=0, data=[36, 100]),
   midi.NoteOffEvent(tick=1192900, channel=0, data=[36, 0]),
   midi.NoteOnEvent(tick=1193000, channel=0, data=[18, 100]),
   midi.NoteOffEvent(tick=1193100, channel=0, data=[18, 0]),
   midi.NoteOnEvent(tick=1193200, channel=0, data=[15, 100]),
   midi.NoteOffEvent(tick=1193300, channel=0, data=[15, 0]),
   midi.NoteOnEvent(tick=1193400, channel=0, data=[4, 100]),
   midi.NoteOffEvent(tick=1193500, channel=0, data=[4, 0]),
   midi.NoteOnEvent(tick=1193600, channel=0, data=[2, 100]),
   midi.NoteOffEvent(tick=1193700, channel=0, data=[2, 0]),
   midi.NoteOnEvent(tick=1193800, channel=0, data=[8, 100]),
   midi.NoteOffEvent(tick=1193900, channel=0, data=[8, 0]),
   midi.NoteOnEvent(tick=1194000, channel=0, data=[5, 100]),
   midi.NoteOffEvent(tick=1194100, channel=0, data=[5, 0]),
   midi.NoteOnEvent(tick=1194200, channel=0, data=[8, 100]),
   midi.NoteOffEvent(tick=1194300, channel=0, data=[8, 0]),
   midi.NoteOnEvent(tick=1194400, channel=0, data=[4, 100]),
   midi.NoteOffEvent(tick=1194500, channel=0, data=[4, 0]),
   midi.NoteOnEvent(tick=1194600, channel=0, data=[3, 100]),
   midi.NoteOffEvent(tick=1194700, channel=0, data=[3, 0]),
   midi.NoteOnEvent(tick=1194800, channel=0, data=[36, 100]),
   midi.NoteOffEvent(tick=1194900, channel=0, data=[36, 0]),
   midi.NoteOnEvent(tick=1195000, channel=0, data=[21, 100]),
   midi.NoteOffEvent(tick=1195100, channel=0, data=[21, 0]),
   midi.NoteOnEvent(tick=1195200, channel=0, data=[0, 100]),
   midi.NoteOffEvent(tick=1195300, channel=0, data=[0, 0]),
   midi.NoteOnEvent(tick=1195400, channel=0, data=[11, 100]),
   midi.NoteOffEvent(tick=1195500, channel=0, data=[11, 0]),
   midi.NoteOnEvent(tick=1195600, channel=0, data=[20, 100]),
   midi.NoteOffEvent(tick=1195700, channel=0, data=[20, 0]),
   midi.NoteOnEvent(tick=1195800, channel=0, data=[4, 100]),
   midi.NoteOffEvent(tick=1195900, channel=0, data=[4, 0]),
   midi.NoteOnEvent(tick=1196000, channel=0, data=[36, 100]),
   midi.NoteOffEvent(tick=1196100, channel=0, data=[36, 0]),
   midi.NoteOnEvent(tick=1196200, channel=0, data=[19, 100]),
   midi.NoteOffEvent(tick=1196300, channel=0, data=[19, 0]),
   midi.NoteOnEvent(tick=1196400, channel=0, data=[14, 100]),
   midi.NoteOffEvent(tick=1196500, channel=0, data=[14, 0]),
   midi.NoteOnEvent(tick=1196600, channel=0, data=[36, 100]),
   midi.NoteOffEvent(tick=1196700, channel=0, data=[36, 0]),
   midi.NoteOnEvent(tick=1196800, channel=0, data=[19, 100]),
   midi.NoteOffEvent(tick=1196900, channel=0, data=[19, 0]),
   midi.NoteOnEvent(tick=1197000, channel=0, data=[7, 100]),
   midi.NoteOffEvent(tick=1197100, channel=0, data=[7, 0]),
   midi.NoteOnEvent(tick=1197200, channel=0, data=[4, 100]),
   midi.NoteOffEvent(tick=1197300, channel=0, data=[4, 0]),
   midi.NoteOnEvent(tick=1197400, channel=0, data=[36, 100]),
   midi.NoteOffEvent(tick=1197500, channel=0, data=[36, 0]),
   midi.NoteOnEvent(tick=1197600, channel=0, data=[4, 100]),
   midi.NoteOffEvent(tick=1197700, channel=0, data=[4, 0]),
   midi.NoteOnEvent(tick=1197800, channel=0, data=[23, 100]),
   midi.NoteOffEvent(tick=1197900, channel=0, data=[23, 0]),
   midi.NoteOnEvent(tick=1198000, channel=0, data=[8, 100]),
   midi.NoteOffEvent(tick=1198100, channel=0, data=[8, 0]),
   midi.NoteOnEvent(tick=1198200, channel=0, data=[18, 100]),
   midi.NoteOffEvent(tick=1198300, channel=0, data=[18, 0]),
   midi.NoteOnEvent(tick=1198400, channel=0, data=[19, 100]),
   midi.NoteOffEvent(tick=1198500, channel=0, data=[19, 0]),
   midi.NoteOnEvent(tick=1198600, channel=0, data=[8, 100]),
   midi.NoteOffEvent(tick=1198700, channel=0, data=[8, 0]),
   midi.NoteOnEvent(tick=1198800, channel=0, data=[13, 100]),
   midi.NoteOffEvent(tick=1198900, channel=0, data=[13, 0]),
   midi.NoteOnEvent(tick=1199000, channel=0, data=[6, 100]),
   midi.NoteOffEvent(tick=1199100, channel=0, data=[6, 0]),
   midi.NoteOnEvent(tick=1199200, channel=0, data=[36, 100]),
   midi.NoteOffEvent(tick=1199300, channel=0, data=[36, 0]),
   midi.NoteOnEvent(tick=1199400, channel=0, data=[21, 100]),
   midi.NoteOffEvent(tick=1199500, channel=0, data=[21, 0]),
   midi.NoteOnEvent(tick=1199600, channel=0, data=[0, 100]),
   midi.NoteOffEvent(tick=1199700, channel=0, data=[0, 0]),
   midi.NoteOnEvent(tick=1199800, channel=0, data=[11, 100]),
   midi.NoteOffEvent(tick=1199900, channel=0, data=[11, 0]),
   midi.NoteOnEvent(tick=1200000, channel=0, data=[20, 100]),
   midi.NoteOffEvent(tick=1200100, channel=0, data=[20, 0]),
   midi.NoteOnEvent(tick=1200200, channel=0, data=[4, 100]),
   midi.NoteOffEvent(tick=1200300, channel=0, data=[4, 0]),
   midi.NoteOnEvent(tick=1200400, channel=0, data=[37, 100]),
   midi.NoteOffEvent(tick=1200500, channel=0, data=[37, 0]),
   midi.NoteOnEvent(tick=1200600, channel=0, data=[36, 100]),
   midi.NoteOffEvent(tick=1200700, channel=0, data=[36, 0]),
   midi.NoteOnEvent(tick=1200800, channel=0, data=[19, 100]),
   midi.NoteOffEvent(tick=1200900, channel=0, data=[19, 0]),
   midi.NoteOnEvent(tick=1201000, channel=0, data=[7, 100]),
   midi.NoteOffEvent(tick=1201100, channel=0, data=[7, 0]),
   midi.NoteOnEvent(tick=1201200, channel=0, data=[4, 100]),
   midi.NoteOffEvent(tick=1201300, channel=0, data=[4, 0]),
   midi.NoteOnEvent(tick=1201400, channel=0, data=[36, 100]),
   midi.NoteOffEvent(tick=1201500, channel=0, data=[36, 0]),
   midi.NoteOnEvent(tick=1201600, channel=0, data=[0, 100]),
   midi.NoteOffEvent(tick=1201700, channel=0, data=[0, 0]),
   midi.NoteOnEvent(tick=1201800, channel=0, data=[2, 100]),
   midi.NoteOffEvent(tick=1201900, channel=0, data=[2, 0]),
   midi.NoteOnEvent(tick=1202000, channel=0, data=[19, 100]),
   midi.NoteOffEvent(tick=1202100, channel=0, data=[19, 0]),
   midi.NoteOnEvent(tick=1202200, channel=0, data=[8, 100]),
   midi.NoteOffEvent(tick=1202300, channel=0, data=[8, 0]),
   midi.NoteOnEvent(tick=1202400, channel=0, data=[14, 100]),
   midi.NoteOffEvent(tick=1202500, channel=0, data=[14, 0]),
   midi.NoteOnEvent(tick=1202600, channel=0, data=[13, 100]),
   midi.NoteOffEvent(tick=1202700, channel=0, data=[13, 0]),
   midi.NoteOnEvent(tick=1202800, channel=0, data=[36, 100]),
   midi.NoteOffEvent(tick=1202900, channel=0, data=[36, 0]),
   midi.NoteOnEvent(tick=1203000, channel=0, data=[56, 100]),
   midi.NoteOffEvent(tick=1203100, channel=0, data=[56, 0]),
   midi.NoteOnEvent(tick=1203200, channel=0, data=[36, 100]),
   midi.NoteOffEvent(tick=1203300, channel=0, data=[36, 0]),
   midi.NoteOnEvent(tick=1203400, channel=0, data=[36, 100]),
   midi.NoteOffEvent(tick=1203500, channel=0, data=[36, 0]),
   midi.NoteOnEvent(tick=1203600, channel=0, data=[36, 100]),
   midi.NoteOffEvent(tick=1203700, channel=0, data=[36, 0]),
   midi.NoteOnEvent(tick=1203800, channel=0, data=[36, 100]),
   midi.NoteOffEvent(tick=1203900, channel=0, data=[36, 0]),
   midi.NoteOnEvent(tick=1204000, channel=0, data=[3, 100]),
   midi.NoteOffEvent(tick=1204100, channel=0, data=[3, 0]),
   midi.NoteOnEvent(tick=1204200, channel=0, data=[4, 100]),
   midi.NoteOffEvent(tick=1204300, channel=0, data=[4, 0]),
   midi.NoteOnEvent(tick=1204400, channel=0, data=[15, 100]),
   midi.NoteOffEvent(tick=1204500, channel=0, data=[15, 0]),
   midi.NoteOnEvent(tick=1204600, channel=0, data=[4, 100]),
   midi.NoteOffEvent(tick=1204700, channel=0, data=[4, 0]),
   midi.NoteOnEvent(tick=1204800, channel=0, data=[13, 100]),
   midi.NoteOffEvent(tick=1204900, channel=0, data=[13, 0]),
   midi.NoteOnEvent(tick=1205000, channel=0, data=[3, 100]),
   midi.NoteOffEvent(tick=1205100, channel=0, data=[3, 0]),
   midi.NoteOnEvent(tick=1205200, channel=0, data=[18, 100]),
   midi.NoteOffEvent(tick=1205300, channel=0, data=[18, 0]),
   midi.NoteOnEvent(tick=1205400, channel=0, data=[36, 100]),
   midi.NoteOffEvent(tick=1205500, channel=0, data=[36, 0]),
   midi.NoteOnEvent(tick=1205600, channel=0, data=[14, 100]),
   midi.NoteOffEvent(tick=1205700, channel=0, data=[14, 0]),
   midi.NoteOnEvent(tick=1205800, channel=0, data=[13, 100]),
   midi.NoteOffEvent(tick=1205900, channel=0, data=[13, 0]),
   midi.NoteOnEvent(tick=1206000, channel=0, data=[36, 100]),
   midi.NoteOffEvent(tick=1206100, channel=0, data=[36, 0]),
   midi.NoteOnEvent(tick=1206200, channel=0, data=[22, 100]),
   midi.NoteOffEvent(tick=1206300, channel=0, data=[22, 0]),
   midi.NoteOnEvent(tick=1206400, channel=0, data=[7, 100]),
   midi.NoteOffEvent(tick=1206500, channel=0, data=[7, 0]),
   midi.NoteOnEvent(tick=1206600, channel=0, data=[4, 100]),
   midi.NoteOffEvent(tick=1206700, channel=0, data=[4, 0]),
   midi.NoteOnEvent(tick=1206800, channel=0, data=[19, 100]),
   midi.NoteOffEvent(tick=1206900, channel=0, data=[19, 0]),
   midi.NoteOnEvent(tick=1207000, channel=0, data=[7, 100]),
   midi.NoteOffEvent(tick=1207100, channel=0, data=[7, 0]),
   midi.NoteOnEvent(tick=1207200, channel=0, data=[4, 100]),
   midi.NoteOffEvent(tick=1207300, channel=0, data=[4, 0]),
   midi.NoteOnEvent(tick=1207400, channel=0, data=[17, 100]),
   midi.NoteOffEvent(tick=1207500, channel=0, data=[17, 0]),
   midi.NoteOnEvent(tick=1207600, channel=0, data=[36, 100]),
   midi.NoteOffEvent(tick=1207700, channel=0, data=[36, 0]),
   midi.NoteOnEvent(tick=1207800, channel=0, data=[19, 100]),
   midi.NoteOffEvent(tick=1207900, channel=0, data=[19, 0]),
   midi.NoteOnEvent(tick=1208000, channel=0, data=[7, 100]),
   midi.NoteOffEvent(tick=1208100, channel=0, data=[7, 0]),
   midi.NoteOnEvent(tick=1208200, channel=0, data=[4, 100]),
   midi.NoteOffEvent(tick=1208300, channel=0, data=[4, 0]),
   midi.NoteOnEvent(tick=1208400, channel=0, data=[36, 100]),
   midi.NoteOffEvent(tick=1208500, channel=0, data=[36, 0]),
   midi.NoteOnEvent(tick=1208600, channel=0, data=[21, 100]),
   midi.NoteOffEvent(tick=1208700, channel=0, data=[21, 0]),
   midi.NoteOnEvent(tick=1208800, channel=0, data=[0, 100]),
   midi.NoteOffEvent(tick=1208900, channel=0, data=[0, 0]),
   midi.NoteOnEvent(tick=1209000, channel=0, data=[17, 100]),
   midi.NoteOffEvent(tick=1209100, channel=0, data=[17, 0]),
   midi.NoteOnEvent(tick=1209200, channel=0, data=[8, 100]),
   midi.NoteOffEvent(tick=1209300, channel=0, data=[8, 0]),
   midi.NoteOnEvent(tick=1209400, channel=0, data=[0, 100]),
   midi.NoteOffEvent(tick=1209500, channel=0, data=[0, 0]),
   midi.NoteOnEvent(tick=1209600, channel=0, data=[1, 100]),
   midi.NoteOffEvent(tick=1209700, channel=0, data=[1, 0]),
   midi.NoteOnEvent(tick=1209800, channel=0, data=[11, 100]),
   midi.NoteOffEvent(tick=1209900, channel=0, data=[11, 0]),
   midi.NoteOnEvent(tick=1210000, channel=0, data=[4, 100]),
   midi.NoteOffEvent(tick=1210100, channel=0, data=[4, 0]),
   midi.NoteOnEvent(tick=1210200, channel=0, data=[36, 100]),
   midi.NoteOffEvent(tick=1210300, channel=0, data=[36, 0]),
   midi.NoteOnEvent(tick=1210400, channel=0, data=[7, 100]),
   midi.NoteOffEvent(tick=1210500, channel=0, data=[7, 0]),
   midi.NoteOnEvent(tick=1210600, channel=0, data=[0, 100]),
   midi.NoteOffEvent(tick=1210700, channel=0, data=[0, 0]),
   midi.NoteOnEvent(tick=1210800, channel=0, data=[18, 100]),
   midi.NoteOffEvent(tick=1210900, channel=0, data=[18, 0]),
   midi.NoteOnEvent(tick=1211000, channel=0, data=[36, 100]),
   midi.NoteOffEvent(tick=1211100, channel=0, data=[36, 0]),
   midi.NoteOnEvent(tick=1211200, channel=0, data=[0, 100]),
   midi.NoteOffEvent(tick=1211300, channel=0, data=[0, 0]),
   midi.NoteOnEvent(tick=1211400, channel=0, data=[36, 100]),
   midi.NoteOffEvent(tick=1211500, channel=0, data=[36, 0]),
   midi.NoteOnEvent(tick=1211600, channel=0, data=[13, 100]),
   midi.NoteOffEvent(tick=1211700, channel=0, data=[13, 0]),
   midi.NoteOnEvent(tick=1211800, channel=0, data=[20, 100]),
   midi.NoteOffEvent(tick=1211900, channel=0, data=[20, 0]),
   midi.NoteOnEvent(tick=1212000, channel=0, data=[12, 100]),
   midi.NoteOffEvent(tick=1212100, channel=0, data=[12, 0]),
   midi.NoteOnEvent(tick=1212200, channel=0, data=[4, 100]),
   midi.NoteOffEvent(tick=1212300, channel=0, data=[4, 0]),
   midi.NoteOnEvent(tick=1212400, channel=0, data=[17, 100]),
   midi.NoteOffEvent(tick=1212500, channel=0, data=[17, 0]),
   midi.NoteOnEvent(tick=1212600, channel=0, data=[8, 100]),
   midi.NoteOffEvent(tick=1212700, channel=0, data=[8, 0]),
   midi.NoteOnEvent(tick=1212800, channel=0, data=[2, 100]),
   midi.NoteOffEvent(tick=1212900, channel=0, data=[2, 0]),
   midi.NoteOnEvent(tick=1213000, channel=0, data=[36, 100]),
   midi.NoteOffEvent(tick=1213100, channel=0, data=[36, 0]),
   midi.NoteOnEvent(tick=1213200, channel=0, data=[14, 100]),
   midi.NoteOffEvent(tick=1213300, channel=0, data=[14, 0]),
   midi.NoteOnEvent(tick=1213400, channel=0, data=[17, 100]),
   midi.NoteOffEvent(tick=1213500, channel=0, data=[17, 0]),
   midi.NoteOnEvent(tick=1213600, channel=0, data=[36, 100]),
   midi.NoteOffEvent(tick=1213700, channel=0, data=[36, 0]),
   midi.NoteOnEvent(tick=1213800, channel=0, data=[18, 100]),
   midi.NoteOffEvent(tick=1213900, channel=0, data=[18, 0]),
   midi.NoteOnEvent(tick=1214000, channel=0, data=[19, 100]),
   midi.NoteOffEvent(tick=1214100, channel=0, data=[19, 0]),
   midi.NoteOnEvent(tick=1214200, channel=0, data=[17, 100]),
   midi.NoteOffEvent(tick=1214300, channel=0, data=[17, 0]),
   midi.NoteOnEvent(tick=1214400, channel=0, data=[8, 100]),
   midi.NoteOffEvent(tick=1214500, channel=0, data=[8, 0]),
   midi.NoteOnEvent(tick=1214600, channel=0, data=[13, 100]),
   midi.NoteOffEvent(tick=1214700, channel=0, data=[13, 0]),
   midi.NoteOnEvent(tick=1214800, channel=0, data=[6, 100]),
   midi.NoteOffEvent(tick=1214900, channel=0, data=[6, 0]),
   midi.NoteOnEvent(tick=1215000, channel=0, data=[36, 100]),
   midi.NoteOffEvent(tick=1215100, channel=0, data=[36, 0]),
   midi.NoteOnEvent(tick=1215200, channel=0, data=[19, 100]),
   midi.NoteOffEvent(tick=1215300, channel=0, data=[19, 0]),
   midi.NoteOnEvent(tick=1215400, channel=0, data=[24, 100]),
   midi.NoteOffEvent(tick=1215500, channel=0, data=[24, 0]),
   midi.NoteOnEvent(tick=1215600, channel=0, data=[15, 100]),
   midi.NoteOffEvent(tick=1215700, channel=0, data=[15, 0]),
   midi.NoteOnEvent(tick=1215800, channel=0, data=[4, 100]),
   midi.NoteOffEvent(tick=1215900, channel=0, data=[4, 0]),
   midi.NoteOnEvent(tick=1216000, channel=0, data=[36, 100]),
   midi.NoteOffEvent(tick=1216100, channel=0, data=[36, 0]),
   midi.NoteOnEvent(tick=1216200, channel=0, data=[0, 100]),
   midi.NoteOffEvent(tick=1216300, channel=0, data=[0, 0]),
   midi.NoteOnEvent(tick=1216400, channel=0, data=[13, 100]),
   midi.NoteOffEvent(tick=1216500, channel=0, data=[13, 0]),
   midi.NoteOnEvent(tick=1216600, channel=0, data=[3, 100]),
   midi.NoteOffEvent(tick=1216700, channel=0, data=[3, 0]),
   midi.NoteOnEvent(tick=1216800, channel=0, data=[36, 100]),
   midi.NoteOffEvent(tick=1216900, channel=0, data=[36, 0]),
   midi.NoteOnEvent(tick=1217000, channel=0, data=[22, 100]),
   midi.NoteOffEvent(tick=1217100, channel=0, data=[22, 0]),
   midi.NoteOnEvent(tick=1217200, channel=0, data=[7, 100]),
   midi.NoteOffEvent(tick=1217300, channel=0, data=[7, 0]),
   midi.NoteOnEvent(tick=1217400, channel=0, data=[4, 100]),
   midi.NoteOffEvent(tick=1217500, channel=0, data=[4, 0]),
   midi.NoteOnEvent(tick=1217600, channel=0, data=[19, 100]),
   midi.NoteOffEvent(tick=1217700, channel=0, data=[19, 0]),
   midi.NoteOnEvent(tick=1217800, channel=0, data=[7, 100]),
   midi.NoteOffEvent(tick=1217900, channel=0, data=[7, 0]),
   midi.NoteOnEvent(tick=1218000, channel=0, data=[4, 100]),
   midi.NoteOffEvent(tick=1218100, channel=0, data=[4, 0]),
   midi.NoteOnEvent(tick=1218200, channel=0, data=[17, 100]),
   midi.NoteOffEvent(tick=1218300, channel=0, data=[17, 0]),
   midi.NoteOnEvent(tick=1218400, channel=0, data=[56, 100]),
   midi.NoteOffEvent(tick=1218500, channel=0, data=[56, 0]),
   midi.NoteOnEvent(tick=1218600, channel=0, data=[36, 100]),
   midi.NoteOffEvent(tick=1218700, channel=0, data=[36, 0]),
   midi.NoteOnEvent(tick=1218800, channel=0, data=[36, 100]),
   midi.NoteOffEvent(tick=1218900, channel=0, data=[36, 0]),
   midi.NoteOnEvent(tick=1219000, channel=0, data=[36, 100]),
   midi.NoteOffEvent(tick=1219100, channel=0, data=[36, 0]),
   midi.NoteOnEvent(tick=1219200, channel=0, data=[36, 100]),
   midi.NoteOffEvent(tick=1219300, channel=0, data=[36, 0]),
   midi.NoteOnEvent(tick=1219400, channel=0, data=[19, 100]),
   midi.NoteOffEvent(tick=1219500, channel=0, data=[19, 0]),
   midi.NoteOnEvent(tick=1219600, channel=0, data=[7, 100]),
   midi.NoteOffEvent(tick=1219700, channel=0, data=[7, 0]),
   midi.NoteOnEvent(tick=1219800, channel=0, data=[4, 100]),
   midi.NoteOffEvent(tick=1219900, channel=0, data=[4, 0]),
   midi.NoteOnEvent(tick=1220000, channel=0, data=[36, 100]),
   midi.NoteOffEvent(tick=1220100, channel=0, data=[36, 0]),
   midi.NoteOnEvent(tick=1220200, channel=0, data=[21, 100]),
   midi.NoteOffEvent(tick=1220300, channel=0, data=[21, 0]),
   midi.NoteOnEvent(tick=1220400, channel=0, data=[0, 100]),
   midi.NoteOffEvent(tick=1220500, channel=0, data=[0, 0]),
   midi.NoteOnEvent(tick=1220600, channel=0, data=[17, 100]),
   midi.NoteOffEvent(tick=1220700, channel=0, data=[17, 0]),
   midi.NoteOnEvent(tick=1220800, channel=0, data=[8, 100]),
   midi.NoteOffEvent(tick=1220900, channel=0, data=[8, 0]),
   midi.NoteOnEvent(tick=1221000, channel=0, data=[0, 100]),
   midi.NoteOffEvent(tick=1221100, channel=0, data=[0, 0]),
   midi.NoteOnEvent(tick=1221200, channel=0, data=[1, 100]),
   midi.NoteOffEvent(tick=1221300, channel=0, data=[1, 0]),
   midi.NoteOnEvent(tick=1221400, channel=0, data=[11, 100]),
   midi.NoteOffEvent(tick=1221500, channel=0, data=[11, 0]),
   midi.NoteOnEvent(tick=1221600, channel=0, data=[4, 100]),
   midi.NoteOffEvent(tick=1221700, channel=0, data=[4, 0]),
   midi.NoteOnEvent(tick=1221800, channel=0, data=[36, 100]),
   midi.NoteOffEvent(tick=1221900, channel=0, data=[36, 0]),
   midi.NoteOnEvent(tick=1222000, channel=0, data=[2, 100]),
   midi.NoteOffEvent(tick=1222100, channel=0, data=[2, 0]),
   midi.NoteOnEvent(tick=1222200, channel=0, data=[14, 100]),
   midi.NoteOffEvent(tick=1222300, channel=0, data=[14, 0]),
   midi.NoteOnEvent(tick=1222400, channel=0, data=[13, 100]),
   midi.NoteOffEvent(tick=1222500, channel=0, data=[13, 0]),
   midi.NoteOnEvent(tick=1222600, channel=0, data=[19, 100]),
   midi.NoteOffEvent(tick=1222700, channel=0, data=[19, 0]),
   midi.NoteOnEvent(tick=1222800, channel=0, data=[0, 100]),
   midi.NoteOffEvent(tick=1222900, channel=0, data=[0, 0]),
   midi.NoteOnEvent(tick=1223000, channel=0, data=[8, 100]),
   midi.NoteOffEvent(tick=1223100, channel=0, data=[8, 0]),
   midi.NoteOnEvent(tick=1223200, channel=0, data=[13, 100]),
   midi.NoteOffEvent(tick=1223300, channel=0, data=[13, 0]),
   midi.NoteOnEvent(tick=1223400, channel=0, data=[18, 100]),
   midi.NoteOffEvent(tick=1223500, channel=0, data=[18, 0]),
   midi.NoteOnEvent(tick=1223600, channel=0, data=[36, 100]),
   midi.NoteOffEvent(tick=1223700, channel=0, data=[36, 0]),
   midi.NoteOnEvent(tick=1223800, channel=0, data=[0, 100]),
   midi.NoteOffEvent(tick=1223900, channel=0, data=[0, 0]),
   midi.NoteOnEvent(tick=1224000, channel=0, data=[36, 100]),
   midi.NoteOffEvent(tick=1224100, channel=0, data=[36, 0]),
   midi.NoteOnEvent(tick=1224200, channel=0, data=[18, 100]),
   midi.NoteOffEvent(tick=1224300, channel=0, data=[18, 0]),
   midi.NoteOnEvent(tick=1224400, channel=0, data=[8, 100]),
   midi.NoteOffEvent(tick=1224500, channel=0, data=[8, 0]),
   midi.NoteOnEvent(tick=1224600, channel=0, data=[13, 100]),
   midi.NoteOffEvent(tick=1224700, channel=0, data=[13, 0]),
   midi.NoteOnEvent(tick=1224800, channel=0, data=[6, 100]),
   midi.NoteOffEvent(tick=1224900, channel=0, data=[6, 0]),
   midi.NoteOnEvent(tick=1225000, channel=0, data=[11, 100]),
   midi.NoteOffEvent(tick=1225100, channel=0, data=[11, 0]),
   midi.NoteOnEvent(tick=1225200, channel=0, data=[4, 100]),
   midi.NoteOffEvent(tick=1225300, channel=0, data=[4, 0]),
   midi.NoteOnEvent(tick=1225400, channel=0, data=[36, 100]),
   midi.NoteOffEvent(tick=1225500, channel=0, data=[36, 0]),
   midi.NoteOnEvent(tick=1225600, channel=0, data=[21, 100]),
   midi.NoteOffEvent(tick=1225700, channel=0, data=[21, 0]),
   midi.NoteOnEvent(tick=1225800, channel=0, data=[0, 100]),
   midi.NoteOffEvent(tick=1225900, channel=0, data=[0, 0]),
   midi.NoteOnEvent(tick=1226000, channel=0, data=[11, 100]),
   midi.NoteOffEvent(tick=1226100, channel=0, data=[11, 0]),
   midi.NoteOnEvent(tick=1226200, channel=0, data=[20, 100]),
   midi.NoteOffEvent(tick=1226300, channel=0, data=[20, 0]),
   midi.NoteOnEvent(tick=1226400, channel=0, data=[4, 100]),
   midi.NoteOffEvent(tick=1226500, channel=0, data=[4, 0]),
   midi.NoteOnEvent(tick=1226600, channel=0, data=[36, 100]),
   midi.NoteOffEvent(tick=1226700, channel=0, data=[36, 0]),
   midi.NoteOnEvent(tick=1226800, channel=0, data=[49, 100]),
   midi.NoteOffEvent(tick=1226900, channel=0, data=[49, 0]),
   midi.NoteOnEvent(tick=1227000, channel=0, data=[0, 100]),
   midi.NoteOffEvent(tick=1227100, channel=0, data=[0, 0]),
   midi.NoteOnEvent(tick=1227200, channel=0, data=[36, 100]),
   midi.NoteOffEvent(tick=1227300, channel=0, data=[36, 0]),
   midi.NoteOnEvent(tick=1227400, channel=0, data=[18, 100]),
   midi.NoteOffEvent(tick=1227500, channel=0, data=[18, 0]),
   midi.NoteOnEvent(tick=1227600, channel=0, data=[2, 100]),
   midi.NoteOffEvent(tick=1227700, channel=0, data=[2, 0]),
   midi.NoteOnEvent(tick=1227800, channel=0, data=[0, 100]),
   midi.NoteOffEvent(tick=1227900, channel=0, data=[0, 0]),
   midi.NoteOnEvent(tick=1228000, channel=0, data=[11, 100]),
   midi.NoteOffEvent(tick=1228100, channel=0, data=[11, 0]),
   midi.NoteOnEvent(tick=1228200, channel=0, data=[0, 100]),
   midi.NoteOffEvent(tick=1228300, channel=0, data=[0, 0]),
   midi.NoteOnEvent(tick=1228400, channel=0, data=[17, 100]),
   midi.NoteOffEvent(tick=1228500, channel=0, data=[17, 0]),
   midi.NoteOnEvent(tick=1228600, channel=0, data=[50, 100]),
   midi.NoteOffEvent(tick=1228700, channel=0, data=[50, 0]),
   midi.NoteOnEvent(tick=1228800, channel=0, data=[36, 100]),
   midi.NoteOffEvent(tick=1228900, channel=0, data=[36, 0]),
   midi.NoteOnEvent(tick=1229000, channel=0, data=[14, 100]),
   midi.NoteOffEvent(tick=1229100, channel=0, data=[14, 0]),
   midi.NoteOnEvent(tick=1229200, channel=0, data=[17, 100]),
   midi.NoteOffEvent(tick=1229300, channel=0, data=[17, 0]),
   midi.NoteOnEvent(tick=1229400, channel=0, data=[36, 100]),
   midi.NoteOffEvent(tick=1229500, channel=0, data=[36, 0]),
   midi.NoteOnEvent(tick=1229600, channel=0, data=[12, 100]),
   midi.NoteOffEvent(tick=1229700, channel=0, data=[12, 0]),
   midi.NoteOnEvent(tick=1229800, channel=0, data=[20, 100]),
   midi.NoteOffEvent(tick=1229900, channel=0, data=[20, 0]),
   midi.NoteOnEvent(tick=1230000, channel=0, data=[11, 100]),
   midi.NoteOffEvent(tick=1230100, channel=0, data=[11, 0]),
   midi.NoteOnEvent(tick=1230200, channel=0, data=[19, 100]),
   midi.NoteOffEvent(tick=1230300, channel=0, data=[19, 0]),
   midi.NoteOnEvent(tick=1230400, channel=0, data=[8, 100]),
   midi.NoteOffEvent(tick=1230500, channel=0, data=[8, 0]),
   midi.NoteOnEvent(tick=1230600, channel=0, data=[15, 100]),
   midi.NoteOffEvent(tick=1230700, channel=0, data=[15, 0]),
   midi.NoteOnEvent(tick=1230800, channel=0, data=[11, 100]),
   midi.NoteOffEvent(tick=1230900, channel=0, data=[11, 0]),
   midi.NoteOnEvent(tick=1231000, channel=0, data=[4, 100]),
   midi.NoteOffEvent(tick=1231100, channel=0, data=[4, 0]),
   midi.NoteOnEvent(tick=1231200, channel=0, data=[36, 100]),
   midi.NoteOffEvent(tick=1231300, channel=0, data=[36, 0]),
   midi.NoteOnEvent(tick=1231400, channel=0, data=[21, 100]),
   midi.NoteOffEvent(tick=1231500, channel=0, data=[21, 0]),
   midi.NoteOnEvent(tick=1231600, channel=0, data=[0, 100]),
   midi.NoteOffEvent(tick=1231700, channel=0, data=[0, 0]),
   midi.NoteOnEvent(tick=1231800, channel=0, data=[11, 100]),
   midi.NoteOffEvent(tick=1231900, channel=0, data=[11, 0]),
   midi.NoteOnEvent(tick=1232000, channel=0, data=[20, 100]),
   midi.NoteOffEvent(tick=1232100, channel=0, data=[20, 0]),
   midi.NoteOnEvent(tick=1232200, channel=0, data=[4, 100]),
   midi.NoteOffEvent(tick=1232300, channel=0, data=[4, 0]),
   midi.NoteOnEvent(tick=1232400, channel=0, data=[18, 100]),
   midi.NoteOffEvent(tick=1232500, channel=0, data=[18, 0]),
   midi.NoteOnEvent(tick=1232600, channel=0, data=[36, 100]),
   midi.NoteOffEvent(tick=1232700, channel=0, data=[36, 0]),
   midi.NoteOnEvent(tick=1232800, channel=0, data=[56, 100]),
   midi.NoteOffEvent(tick=1232900, channel=0, data=[56, 0]),
   midi.NoteOnEvent(tick=1233000, channel=0, data=[36, 100]),
   midi.NoteOffEvent(tick=1233100, channel=0, data=[36, 0]),
   midi.NoteOnEvent(tick=1233200, channel=0, data=[36, 100]),
   midi.NoteOffEvent(tick=1233300, channel=0, data=[36, 0]),
   midi.NoteOnEvent(tick=1233400, channel=0, data=[36, 100]),
   midi.NoteOffEvent(tick=1233500, channel=0, data=[36, 0]),
   midi.NoteOnEvent(tick=1233600, channel=0, data=[36, 100]),
   midi.NoteOffEvent(tick=1233700, channel=0, data=[36, 0]),
   midi.NoteOnEvent(tick=1233800, channel=0, data=[49, 100]),
   midi.NoteOffEvent(tick=1233900, channel=0, data=[49, 0]),
   midi.NoteOnEvent(tick=1234000, channel=0, data=[0, 100]),
   midi.NoteOffEvent(tick=1234100, channel=0, data=[0, 0]),
   midi.NoteOnEvent(tick=1234200, channel=0, data=[36, 100]),
   midi.NoteOffEvent(tick=1234300, channel=0, data=[36, 0]),
   midi.NoteOnEvent(tick=1234400, channel=0, data=[2, 100]),
   midi.NoteOffEvent(tick=1234500, channel=0, data=[2, 0]),
   midi.NoteOnEvent(tick=1234600, channel=0, data=[14, 100]),
   midi.NoteOffEvent(tick=1234700, channel=0, data=[14, 0]),
   midi.NoteOnEvent(tick=1234800, channel=0, data=[11, 100]),
   midi.NoteOffEvent(tick=1234900, channel=0, data=[11, 0]),
   midi.NoteOnEvent(tick=1235000, channel=0, data=[11, 100]),
   midi.NoteOffEvent(tick=1235100, channel=0, data=[11, 0]),
   midi.NoteOnEvent(tick=1235200, channel=0, data=[4, 100]),
   midi.NoteOffEvent(tick=1235300, channel=0, data=[4, 0]),
   midi.NoteOnEvent(tick=1235400, channel=0, data=[2, 100]),
   midi.NoteOffEvent(tick=1235500, channel=0, data=[2, 0]),
   midi.NoteOnEvent(tick=1235600, channel=0, data=[19, 100]),
   midi.NoteOffEvent(tick=1235700, channel=0, data=[19, 0]),
   midi.NoteOnEvent(tick=1235800, channel=0, data=[8, 100]),
   midi.NoteOffEvent(tick=1235900, channel=0, data=[8, 0]),
   midi.NoteOnEvent(tick=1236000, channel=0, data=[14, 100]),
   midi.NoteOffEvent(tick=1236100, channel=0, data=[14, 0]),
   midi.NoteOnEvent(tick=1236200, channel=0, data=[13, 100]),
   midi.NoteOffEvent(tick=1236300, channel=0, data=[13, 0]),
   midi.NoteOnEvent(tick=1236400, channel=0, data=[50, 100]),
   midi.NoteOffEvent(tick=1236500, channel=0, data=[50, 0]),
   midi.NoteOnEvent(tick=1236600, channel=0, data=[37, 100]),
   midi.NoteOffEvent(tick=1236700, channel=0, data=[37, 0]),
   midi.NoteOnEvent(tick=1236800, channel=0, data=[56, 100]),
   midi.NoteOffEvent(tick=1236900, channel=0, data=[56, 0]),
   midi.NoteOnEvent(tick=1237000, channel=0, data=[56, 100]),
   midi.NoteOffEvent(tick=1237100, channel=0, data=[56, 0]),
   midi.NoteOnEvent(tick=1237200, channel=0, data=[56, 100]),
   midi.NoteOffEvent(tick=1237300, channel=0, data=[56, 0]),
   midi.NoteOnEvent(tick=1237400, channel=0, data=[36, 100]),
   midi.NoteOffEvent(tick=1237500, channel=0, data=[36, 0]),
   midi.NoteOnEvent(tick=1237600, channel=0, data=[36, 100]),
   midi.NoteOffEvent(tick=1237700, channel=0, data=[36, 0]),
   midi.NoteOnEvent(tick=1237800, channel=0, data=[36, 100]),
   midi.NoteOffEvent(tick=1237900, channel=0, data=[36, 0]),
   midi.NoteOnEvent(tick=1238000, channel=0, data=[36, 100]),
   midi.NoteOffEvent(tick=1238100, channel=0, data=[36, 0]),
   midi.NoteOnEvent(tick=1238200, channel=0, data=[19, 100]),
   midi.NoteOffEvent(tick=1238300, channel=0, data=[19, 0]),
   midi.NoteOnEvent(tick=1238400, channel=0, data=[7, 100]),
   midi.NoteOffEvent(tick=1238500, channel=0, data=[7, 0]),
   midi.NoteOnEvent(tick=1238600, channel=0, data=[4, 100]),
   midi.NoteOffEvent(tick=1238700, channel=0, data=[4, 0]),
   midi.NoteOnEvent(tick=1238800, channel=0, data=[36, 100]),
   midi.NoteOffEvent(tick=1238900, channel=0, data=[36, 0]),
   midi.NoteOnEvent(tick=1239000, channel=0, data=[55, 100]),
   midi.NoteOffEvent(tick=1239100, channel=0, data=[55, 0]),
   midi.NoteOnEvent(tick=1239200, channel=0, data=[69, 100]),
   midi.NoteOffEvent(tick=1239300, channel=0, data=[69, 0]),
   midi.NoteOnEvent(tick=1239400, channel=0, data=[36, 100]),
   midi.NoteOffEvent(tick=1239500, channel=0, data=[36, 0]),
   midi.NoteOnEvent(tick=1239600, channel=0, data=[14, 100]),
   midi.NoteOffEvent(tick=1239700, channel=0, data=[14, 0]),
   midi.NoteOnEvent(tick=1239800, channel=0, data=[15, 100]),
   midi.NoteOffEvent(tick=1239900, channel=0, data=[15, 0]),
   midi.NoteOnEvent(tick=1240000, channel=0, data=[4, 100]),
   midi.NoteOffEvent(tick=1240100, channel=0, data=[4, 0]),
   midi.NoteOnEvent(tick=1240200, channel=0, data=[17, 100]),
   midi.NoteOffEvent(tick=1240300, channel=0, data=[17, 0]),
   midi.NoteOnEvent(tick=1240400, channel=0, data=[0, 100]),
   midi.NoteOffEvent(tick=1240500, channel=0, data=[0, 0]),
   midi.NoteOnEvent(tick=1240600, channel=0, data=[19, 100]),
   midi.NoteOffEvent(tick=1240700, channel=0, data=[19, 0]),
   midi.NoteOnEvent(tick=1240800, channel=0, data=[14, 100]),
   midi.NoteOffEvent(tick=1240900, channel=0, data=[14, 0]),
   midi.NoteOnEvent(tick=1241000, channel=0, data=[17, 100]),
   midi.NoteOffEvent(tick=1241100, channel=0, data=[17, 0]),
   midi.NoteOnEvent(tick=1241200, channel=0, data=[36, 100]),
   midi.NoteOffEvent(tick=1241300, channel=0, data=[36, 0]),
   midi.NoteOnEvent(tick=1241400, channel=0, data=[2, 100]),
   midi.NoteOffEvent(tick=1241500, channel=0, data=[2, 0]),
   midi.NoteOnEvent(tick=1241600, channel=0, data=[14, 100]),
   midi.NoteOffEvent(tick=1241700, channel=0, data=[14, 0]),
   midi.NoteOnEvent(tick=1241800, channel=0, data=[12, 100]),
   midi.NoteOffEvent(tick=1241900, channel=0, data=[12, 0]),
   midi.NoteOnEvent(tick=1242000, channel=0, data=[1, 100]),
   midi.NoteOffEvent(tick=1242100, channel=0, data=[1, 0]),
   midi.NoteOnEvent(tick=1242200, channel=0, data=[8, 100]),
   midi.NoteOffEvent(tick=1242300, channel=0, data=[8, 0]),
   midi.NoteOnEvent(tick=1242400, channel=0, data=[13, 100]),
   midi.NoteOffEvent(tick=1242500, channel=0, data=[13, 0]),
   midi.NoteOnEvent(tick=1242600, channel=0, data=[4, 100]),
   midi.NoteOffEvent(tick=1242700, channel=0, data=[4, 0]),
   midi.NoteOnEvent(tick=1242800, channel=0, data=[18, 100]),
   midi.NoteOffEvent(tick=1242900, channel=0, data=[18, 0]),
   midi.NoteOnEvent(tick=1243000, channel=0, data=[36, 100]),
   midi.NoteOffEvent(tick=1243100, channel=0, data=[36, 0]),
   midi.NoteOnEvent(tick=1243200, channel=0, data=[19, 100]),
   midi.NoteOffEvent(tick=1243300, channel=0, data=[19, 0]),
   midi.NoteOnEvent(tick=1243400, channel=0, data=[22, 100]),
   midi.NoteOffEvent(tick=1243500, channel=0, data=[22, 0]),
   midi.NoteOnEvent(tick=1243600, channel=0, data=[14, 100]),
   midi.NoteOffEvent(tick=1243700, channel=0, data=[14, 0]),
   midi.NoteOnEvent(tick=1243800, channel=0, data=[36, 100]),
   midi.NoteOffEvent(tick=1243900, channel=0, data=[36, 0]),
   midi.NoteOnEvent(tick=1244000, channel=0, data=[14, 100]),
   midi.NoteOffEvent(tick=1244100, channel=0, data=[14, 0]),
   midi.NoteOnEvent(tick=1244200, channel=0, data=[15, 100]),
   midi.NoteOffEvent(tick=1244300, channel=0, data=[15, 0]),
   midi.NoteOnEvent(tick=1244400, channel=0, data=[4, 100]),
   midi.NoteOffEvent(tick=1244500, channel=0, data=[4, 0]),
   midi.NoteOnEvent(tick=1244600, channel=0, data=[17, 100]),
   midi.NoteOffEvent(tick=1244700, channel=0, data=[17, 0]),
   midi.NoteOnEvent(tick=1244800, channel=0, data=[0, 100]),
   midi.NoteOffEvent(tick=1244900, channel=0, data=[0, 0]),
   midi.NoteOnEvent(tick=1245000, channel=0, data=[19, 100]),
   midi.NoteOffEvent(tick=1245100, channel=0, data=[19, 0]),
   midi.NoteOnEvent(tick=1245200, channel=0, data=[8, 100]),
   midi.NoteOffEvent(tick=1245300, channel=0, data=[8, 0]),
   midi.NoteOnEvent(tick=1245400, channel=0, data=[14, 100]),
   midi.NoteOffEvent(tick=1245500, channel=0, data=[14, 0]),
   midi.NoteOnEvent(tick=1245600, channel=0, data=[13, 100]),
   midi.NoteOffEvent(tick=1245700, channel=0, data=[13, 0]),
   midi.NoteOnEvent(tick=1245800, channel=0, data=[18, 100]),
   midi.NoteOffEvent(tick=1245900, channel=0, data=[18, 0]),
   midi.NoteOnEvent(tick=1246000, channel=0, data=[37, 100]),
   midi.NoteOffEvent(tick=1246100, channel=0, data=[37, 0]),
   midi.NoteOnEvent(tick=1246200, channel=0, data=[36, 100]),
   midi.NoteOffEvent(tick=1246300, channel=0, data=[36, 0]),
   midi.NoteOnEvent(tick=1246400, channel=0, data=[5, 100]),
   midi.NoteOffEvent(tick=1246500, channel=0, data=[5, 0]),
   midi.NoteOnEvent(tick=1246600, channel=0, data=[8, 100]),
   midi.NoteOffEvent(tick=1246700, channel=0, data=[8, 0]),
   midi.NoteOnEvent(tick=1246800, channel=0, data=[17, 100]),
   midi.NoteOffEvent(tick=1246900, channel=0, data=[17, 0]),
   midi.NoteOnEvent(tick=1247000, channel=0, data=[18, 100]),
   midi.NoteOffEvent(tick=1247100, channel=0, data=[18, 0]),
   midi.NoteOnEvent(tick=1247200, channel=0, data=[19, 100]),
   midi.NoteOffEvent(tick=1247300, channel=0, data=[19, 0]),
   midi.NoteOnEvent(tick=1247400, channel=0, data=[38, 100]),
   midi.NoteOffEvent(tick=1247500, channel=0, data=[38, 0]),
   midi.NoteOnEvent(tick=1247600, channel=0, data=[36, 100]),
   midi.NoteOffEvent(tick=1247700, channel=0, data=[36, 0]),
   midi.NoteOnEvent(tick=1247800, channel=0, data=[8, 100]),
   midi.NoteOffEvent(tick=1247900, channel=0, data=[8, 0]),
   midi.NoteOnEvent(tick=1248000, channel=0, data=[19, 100]),
   midi.NoteOffEvent(tick=1248100, channel=0, data=[19, 0]),
   midi.NoteOnEvent(tick=1248200, channel=0, data=[36, 100]),
   midi.NoteOffEvent(tick=1248300, channel=0, data=[36, 0]),
   midi.NoteOnEvent(tick=1248400, channel=0, data=[0, 100]),
   midi.NoteOffEvent(tick=1248500, channel=0, data=[0, 0]),
   midi.NoteOnEvent(tick=1248600, channel=0, data=[3, 100]),
   midi.NoteOffEvent(tick=1248700, channel=0, data=[3, 0]),
   midi.NoteOnEvent(tick=1248800, channel=0, data=[3, 100]),
   midi.NoteOffEvent(tick=1248900, channel=0, data=[3, 0]),
   midi.NoteOnEvent(tick=1249000, channel=0, data=[18, 100]),
   midi.NoteOffEvent(tick=1249100, channel=0, data=[18, 0]),
   midi.NoteOnEvent(tick=1249200, channel=0, data=[38, 100]),
   midi.NoteOffEvent(tick=1249300, channel=0, data=[38, 0]),
   midi.NoteOnEvent(tick=1249400, channel=0, data=[36, 100]),
   midi.NoteOffEvent(tick=1249500, channel=0, data=[36, 0]),
   midi.NoteOnEvent(tick=1249600, channel=0, data=[0, 100]),
   midi.NoteOffEvent(tick=1249700, channel=0, data=[0, 0]),
   midi.NoteOnEvent(tick=1249800, channel=0, data=[13, 100]),
   midi.NoteOffEvent(tick=1249900, channel=0, data=[13, 0]),
   midi.NoteOnEvent(tick=1250000, channel=0, data=[3, 100]),
   midi.NoteOffEvent(tick=1250100, channel=0, data=[3, 0]),
   midi.NoteOnEvent(tick=1250200, channel=0, data=[36, 100]),
   midi.NoteOffEvent(tick=1250300, channel=0, data=[36, 0]),
   midi.NoteOnEvent(tick=1250400, channel=0, data=[19, 100]),
   midi.NoteOffEvent(tick=1250500, channel=0, data=[19, 0]),
   midi.NoteOnEvent(tick=1250600, channel=0, data=[7, 100]),
   midi.NoteOffEvent(tick=1250700, channel=0, data=[7, 0]),
   midi.NoteOnEvent(tick=1250800, channel=0, data=[4, 100]),
   midi.NoteOffEvent(tick=1250900, channel=0, data=[4, 0]),
   midi.NoteOnEvent(tick=1251000, channel=0, data=[13, 100]),
   midi.NoteOffEvent(tick=1251100, channel=0, data=[13, 0]),
   midi.NoteOnEvent(tick=1251200, channel=0, data=[36, 100]),
   midi.NoteOffEvent(tick=1251300, channel=0, data=[36, 0]),
   midi.NoteOnEvent(tick=1251400, channel=0, data=[8, 100]),
   midi.NoteOffEvent(tick=1251500, channel=0, data=[8, 0]),
   midi.NoteOnEvent(tick=1251600, channel=0, data=[19, 100]),
   midi.NoteOffEvent(tick=1251700, channel=0, data=[19, 0]),
   midi.NoteOnEvent(tick=1251800, channel=0, data=[56, 100]),
   midi.NoteOffEvent(tick=1251900, channel=0, data=[56, 0]),
   midi.NoteOnEvent(tick=1252000, channel=0, data=[36, 100]),
   midi.NoteOffEvent(tick=1252100, channel=0, data=[36, 0]),
   midi.NoteOnEvent(tick=1252200, channel=0, data=[36, 100]),
   midi.NoteOffEvent(tick=1252300, channel=0, data=[36, 0]),
   midi.NoteOnEvent(tick=1252400, channel=0, data=[36, 100]),
   midi.NoteOffEvent(tick=1252500, channel=0, data=[36, 0]),
   midi.NoteOnEvent(tick=1252600, channel=0, data=[36, 100]),
   midi.NoteOffEvent(tick=1252700, channel=0, data=[36, 0]),
   midi.NoteOnEvent(tick=1252800, channel=0, data=[0, 100]),
   midi.NoteOffEvent(tick=1252900, channel=0, data=[0, 0]),
   midi.NoteOnEvent(tick=1253000, channel=0, data=[18, 100]),
   midi.NoteOffEvent(tick=1253100, channel=0, data=[18, 0]),
   midi.NoteOnEvent(tick=1253200, channel=0, data=[18, 100]),
   midi.NoteOffEvent(tick=1253300, channel=0, data=[18, 0]),
   midi.NoteOnEvent(tick=1253400, channel=0, data=[8, 100]),
   midi.NoteOffEvent(tick=1253500, channel=0, data=[8, 0]),
   midi.NoteOnEvent(tick=1253600, channel=0, data=[6, 100]),
   midi.NoteOffEvent(tick=1253700, channel=0, data=[6, 0]),
   midi.NoteOnEvent(tick=1253800, channel=0, data=[13, 100]),
   midi.NoteOffEvent(tick=1253900, channel=0, data=[13, 0]),
   midi.NoteOnEvent(tick=1254000, channel=0, data=[18, 100]),
   midi.NoteOffEvent(tick=1254100, channel=0, data=[18, 0]),
   midi.NoteOnEvent(tick=1254200, channel=0, data=[37, 100]),
   midi.NoteOffEvent(tick=1254300, channel=0, data=[37, 0]),
   midi.NoteOnEvent(tick=1254400, channel=0, data=[36, 100]),
   midi.NoteOffEvent(tick=1254500, channel=0, data=[36, 0]),
   midi.NoteOnEvent(tick=1254600, channel=0, data=[19, 100]),
   midi.NoteOffEvent(tick=1254700, channel=0, data=[19, 0]),
   midi.NoteOnEvent(tick=1254800, channel=0, data=[7, 100]),
   midi.NoteOffEvent(tick=1254900, channel=0, data=[7, 0]),
   midi.NoteOnEvent(tick=1255000, channel=0, data=[4, 100]),
   midi.NoteOffEvent(tick=1255100, channel=0, data=[4, 0]),
   midi.NoteOnEvent(tick=1255200, channel=0, data=[17, 100]),
   midi.NoteOffEvent(tick=1255300, channel=0, data=[17, 0]),
   midi.NoteOnEvent(tick=1255400, channel=0, data=[4, 100]),
   midi.NoteOffEvent(tick=1255500, channel=0, data=[4, 0]),
   midi.NoteOnEvent(tick=1255600, channel=0, data=[5, 100]),
   midi.NoteOffEvent(tick=1255700, channel=0, data=[5, 0]),
   midi.NoteOnEvent(tick=1255800, channel=0, data=[14, 100]),
   midi.NoteOffEvent(tick=1255900, channel=0, data=[14, 0]),
   midi.NoteOnEvent(tick=1256000, channel=0, data=[17, 100]),
   midi.NoteOffEvent(tick=1256100, channel=0, data=[17, 0]),
   midi.NoteOnEvent(tick=1256200, channel=0, data=[4, 100]),
   midi.NoteOffEvent(tick=1256300, channel=0, data=[4, 0]),
   midi.NoteOnEvent(tick=1256400, channel=0, data=[38, 100]),
   midi.NoteOffEvent(tick=1256500, channel=0, data=[38, 0]),
   midi.NoteOnEvent(tick=1256600, channel=0, data=[36, 100]),
   midi.NoteOffEvent(tick=1256700, channel=0, data=[36, 0]),
   midi.NoteOnEvent(tick=1256800, channel=0, data=[19, 100]),
   midi.NoteOffEvent(tick=1256900, channel=0, data=[19, 0]),
   midi.NoteOnEvent(tick=1257000, channel=0, data=[7, 100]),
   midi.NoteOffEvent(tick=1257100, channel=0, data=[7, 0]),
   midi.NoteOnEvent(tick=1257200, channel=0, data=[4, 100]),
   midi.NoteOffEvent(tick=1257300, channel=0, data=[4, 0]),
   midi.NoteOnEvent(tick=1257400, channel=0, data=[36, 100]),
   midi.NoteOffEvent(tick=1257500, channel=0, data=[36, 0]),
   midi.NoteOnEvent(tick=1257600, channel=0, data=[5, 100]),
   midi.NoteOffEvent(tick=1257700, channel=0, data=[5, 0]),
   midi.NoteOnEvent(tick=1257800, channel=0, data=[14, 100]),
   midi.NoteOffEvent(tick=1257900, channel=0, data=[14, 0]),
   midi.NoteOnEvent(tick=1258000, channel=0, data=[11, 100]),
   midi.NoteOffEvent(tick=1258100, channel=0, data=[11, 0]),
   midi.NoteOnEvent(tick=1258200, channel=0, data=[11, 100]),
   midi.NoteOffEvent(tick=1258300, channel=0, data=[11, 0]),
   midi.NoteOnEvent(tick=1258400, channel=0, data=[14, 100]),
   midi.NoteOffEvent(tick=1258500, channel=0, data=[14, 0]),
   midi.NoteOnEvent(tick=1258600, channel=0, data=[22, 100]),
   midi.NoteOffEvent(tick=1258700, channel=0, data=[22, 0]),
   midi.NoteOnEvent(tick=1258800, channel=0, data=[8, 100]),
   midi.NoteOffEvent(tick=1258900, channel=0, data=[8, 0]),
   midi.NoteOnEvent(tick=1259000, channel=0, data=[13, 100]),
   midi.NoteOffEvent(tick=1259100, channel=0, data=[13, 0]),
   midi.NoteOnEvent(tick=1259200, channel=0, data=[6, 100]),
   midi.NoteOffEvent(tick=1259300, channel=0, data=[6, 0]),
   midi.NoteOnEvent(tick=1259400, channel=0, data=[36, 100]),
   midi.NoteOffEvent(tick=1259500, channel=0, data=[36, 0]),
   midi.NoteOnEvent(tick=1259600, channel=0, data=[18, 100]),
   midi.NoteOffEvent(tick=1259700, channel=0, data=[18, 0]),
   midi.NoteOnEvent(tick=1259800, channel=0, data=[19, 100]),
   midi.NoteOffEvent(tick=1259900, channel=0, data=[19, 0]),
   midi.NoteOnEvent(tick=1260000, channel=0, data=[0, 100]),
   midi.NoteOffEvent(tick=1260100, channel=0, data=[0, 0]),
   midi.NoteOnEvent(tick=1260200, channel=0, data=[19, 100]),
   midi.NoteOffEvent(tick=1260300, channel=0, data=[19, 0]),
   midi.NoteOnEvent(tick=1260400, channel=0, data=[4, 100]),
   midi.NoteOffEvent(tick=1260500, channel=0, data=[4, 0]),
   midi.NoteOnEvent(tick=1260600, channel=0, data=[12, 100]),
   midi.NoteOffEvent(tick=1260700, channel=0, data=[12, 0]),
   midi.NoteOnEvent(tick=1260800, channel=0, data=[4, 100]),
   midi.NoteOffEvent(tick=1260900, channel=0, data=[4, 0]),
   midi.NoteOnEvent(tick=1261000, channel=0, data=[13, 100]),
   midi.NoteOffEvent(tick=1261100, channel=0, data=[13, 0]),
   midi.NoteOnEvent(tick=1261200, channel=0, data=[19, 100]),
   midi.NoteOffEvent(tick=1261300, channel=0, data=[19, 0]),
   midi.NoteOnEvent(tick=1261400, channel=0, data=[18, 100]),
   midi.NoteOffEvent(tick=1261500, channel=0, data=[18, 0]),
   midi.NoteOnEvent(tick=1261600, channel=0, data=[36, 100]),
   midi.NoteOffEvent(tick=1261700, channel=0, data=[36, 0]),
   midi.NoteOnEvent(tick=1261800, channel=0, data=[0, 100]),
   midi.NoteOffEvent(tick=1261900, channel=0, data=[0, 0]),
   midi.NoteOnEvent(tick=1262000, channel=0, data=[17, 100]),
   midi.NoteOffEvent(tick=1262100, channel=0, data=[17, 0]),
   midi.NoteOnEvent(tick=1262200, channel=0, data=[4, 100]),
   midi.NoteOffEvent(tick=1262300, channel=0, data=[4, 0]),
   midi.NoteOnEvent(tick=1262400, channel=0, data=[36, 100]),
   midi.NoteOffEvent(tick=1262500, channel=0, data=[36, 0]),
   midi.NoteOnEvent(tick=1262600, channel=0, data=[4, 100]),
   midi.NoteOffEvent(tick=1262700, channel=0, data=[4, 0]),
   midi.NoteOnEvent(tick=1262800, channel=0, data=[16, 100]),
   midi.NoteOffEvent(tick=1262900, channel=0, data=[16, 0]),
   midi.NoteOnEvent(tick=1263000, channel=0, data=[20, 100]),
   midi.NoteOffEvent(tick=1263100, channel=0, data=[20, 0]),
   midi.NoteOnEvent(tick=1263200, channel=0, data=[8, 100]),
   midi.NoteOffEvent(tick=1263300, channel=0, data=[8, 0]),
   midi.NoteOnEvent(tick=1263400, channel=0, data=[21, 100]),
   midi.NoteOffEvent(tick=1263500, channel=0, data=[21, 0]),
   midi.NoteOnEvent(tick=1263600, channel=0, data=[0, 100]),
   midi.NoteOffEvent(tick=1263700, channel=0, data=[0, 0]),
   midi.NoteOnEvent(tick=1263800, channel=0, data=[11, 100]),
   midi.NoteOffEvent(tick=1263900, channel=0, data=[11, 0]),
   midi.NoteOnEvent(tick=1264000, channel=0, data=[4, 100]),
   midi.NoteOffEvent(tick=1264100, channel=0, data=[4, 0]),
   midi.NoteOnEvent(tick=1264200, channel=0, data=[13, 100]),
   midi.NoteOffEvent(tick=1264300, channel=0, data=[13, 0]),
   midi.NoteOnEvent(tick=1264400, channel=0, data=[19, 100]),
   midi.NoteOffEvent(tick=1264500, channel=0, data=[19, 0]),
   midi.NoteOnEvent(tick=1264600, channel=0, data=[46, 100]),
   midi.NoteOffEvent(tick=1264700, channel=0, data=[46, 0]),
   midi.NoteOnEvent(tick=1264800, channel=0, data=[56, 100]),
   midi.NoteOffEvent(tick=1264900, channel=0, data=[56, 0]),
   midi.NoteOnEvent(tick=1265000, channel=0, data=[56, 100]),
   midi.NoteOffEvent(tick=1265100, channel=0, data=[56, 0]),
   midi.NoteOnEvent(tick=1265200, channel=0, data=[56, 100]),
   midi.NoteOffEvent(tick=1265300, channel=0, data=[56, 0]),
   midi.NoteOnEvent(tick=1265400, channel=0, data=[36, 100]),
   midi.NoteOffEvent(tick=1265500, channel=0, data=[36, 0]),
   midi.NoteOnEvent(tick=1265600, channel=0, data=[36, 100]),
   midi.NoteOffEvent(tick=1265700, channel=0, data=[36, 0]),
   midi.NoteOnEvent(tick=1265800, channel=0, data=[36, 100]),
   midi.NoteOffEvent(tick=1265900, channel=0, data=[36, 0]),
   midi.NoteOnEvent(tick=1266000, channel=0, data=[36, 100]),
   midi.NoteOffEvent(tick=1266100, channel=0, data=[36, 0]),
   midi.NoteOnEvent(tick=1266200, channel=0, data=[36, 100]),
   midi.NoteOffEvent(tick=1266300, channel=0, data=[36, 0]),
   midi.NoteOnEvent(tick=1266400, channel=0, data=[36, 100]),
   midi.NoteOffEvent(tick=1266500, channel=0, data=[36, 0]),
   midi.NoteOnEvent(tick=1266600, channel=0, data=[36, 100]),
   midi.NoteOffEvent(tick=1266700, channel=0, data=[36, 0]),
   midi.NoteOnEvent(tick=1266800, channel=0, data=[36, 100]),
   midi.NoteOffEvent(tick=1266900, channel=0, data=[36, 0]),
   midi.NoteOnEvent(tick=1267000, channel=0, data=[74, 100]),
   midi.NoteOffEvent(tick=1267100, channel=0, data=[74, 0]),
   midi.NoteOnEvent(tick=1267200, channel=0, data=[0, 100]),
   midi.NoteOffEvent(tick=1267300, channel=0, data=[0, 0]),
   midi.NoteOnEvent(tick=1267400, channel=0, data=[36, 100]),
   midi.NoteOffEvent(tick=1267500, channel=0, data=[36, 0]),
   midi.NoteOnEvent(tick=1267600, channel=0, data=[55, 100]),
   midi.NoteOffEvent(tick=1267700, channel=0, data=[55, 0]),
   midi.NoteOnEvent(tick=1267800, channel=0, data=[69, 100]),
   midi.NoteOffEvent(tick=1267900, channel=0, data=[69, 0]),
   midi.NoteOnEvent(tick=1268000, channel=0, data=[36, 100]),
   midi.NoteOffEvent(tick=1268100, channel=0, data=[36, 0]),
   midi.NoteOnEvent(tick=1268200, channel=0, data=[28, 100]),
   midi.NoteOffEvent(tick=1268300, channel=0, data=[28, 0]),
   midi.NoteOnEvent(tick=1268400, channel=0, data=[56, 100]),
   midi.NoteOffEvent(tick=1268500, channel=0, data=[56, 0]),
   midi.NoteOnEvent(tick=1268600, channel=0, data=[36, 100]),
   midi.NoteOffEvent(tick=1268700, channel=0, data=[36, 0]),
   midi.NoteOnEvent(tick=1268800, channel=0, data=[36, 100]),
   midi.NoteOffEvent(tick=1268900, channel=0, data=[36, 0]),
   midi.NoteOnEvent(tick=1269000, channel=0, data=[36, 100]),
   midi.NoteOffEvent(tick=1269100, channel=0, data=[36, 0]),
   midi.NoteOnEvent(tick=1269200, channel=0, data=[36, 100]),
   midi.NoteOffEvent(tick=1269300, channel=0, data=[36, 0]),
   midi.NoteOnEvent(tick=1269400, channel=0, data=[36, 100]),
   midi.NoteOffEvent(tick=1269500, channel=0, data=[36, 0]),
   midi.NoteOnEvent(tick=1269600, channel=0, data=[36, 100]),
   midi.NoteOffEvent(tick=1269700, channel=0, data=[36, 0]),
   midi.NoteOnEvent(tick=1269800, channel=0, data=[36, 100]),
   midi.NoteOffEvent(tick=1269900, channel=0, data=[36, 0]),
   midi.NoteOnEvent(tick=1270000, channel=0, data=[36, 100]),
   midi.NoteOffEvent(tick=1270100, channel=0, data=[36, 0]),
   midi.NoteOnEvent(tick=1270200, channel=0, data=[74, 100]),
   midi.NoteOffEvent(tick=1270300, channel=0, data=[74, 0]),
   midi.NoteOnEvent(tick=1270400, channel=0, data=[0, 100]),
   midi.NoteOffEvent(tick=1270500, channel=0, data=[0, 0]),
   midi.NoteOnEvent(tick=1270600, channel=0, data=[36, 100]),
   midi.NoteOffEvent(tick=1270700, channel=0, data=[36, 0]),
   midi.NoteOnEvent(tick=1270800, channel=0, data=[69, 100]),
   midi.NoteOffEvent(tick=1270900, channel=0, data=[69, 0]),
   midi.NoteOnEvent(tick=1271000, channel=0, data=[36, 100]),
   midi.NoteOffEvent(tick=1271100, channel=0, data=[36, 0]),
   midi.NoteOnEvent(tick=1271200, channel=0, data=[49, 100]),
   midi.NoteOffEvent(tick=1271300, channel=0, data=[49, 0]),
   midi.NoteOnEvent(tick=1271400, channel=0, data=[74, 100]),
   midi.NoteOffEvent(tick=1271500, channel=0, data=[74, 0]),
   midi.NoteOnEvent(tick=1271600, channel=0, data=[0, 100]),
   midi.NoteOffEvent(tick=1271700, channel=0, data=[0, 0]),
   midi.NoteOnEvent(tick=1271800, channel=0, data=[36, 100]),
   midi.NoteOffEvent(tick=1271900, channel=0, data=[36, 0]),
   midi.NoteOnEvent(tick=1272000, channel=0, data=[55, 100]),
   midi.NoteOffEvent(tick=1272100, channel=0, data=[55, 0]),
   midi.NoteOnEvent(tick=1272200, channel=0, data=[36, 100]),
   midi.NoteOffEvent(tick=1272300, channel=0, data=[36, 0]),
   midi.NoteOnEvent(tick=1272400, channel=0, data=[28, 100]),
   midi.NoteOffEvent(tick=1272500, channel=0, data=[28, 0]),
   midi.NoteOnEvent(tick=1272600, channel=0, data=[50, 100]),
   midi.NoteOffEvent(tick=1272700, channel=0, data=[50, 0]),
   midi.NoteOnEvent(tick=1272800, channel=0, data=[56, 100]),
   midi.NoteOffEvent(tick=1272900, channel=0, data=[56, 0]),
   midi.NoteOnEvent(tick=1273000, channel=0, data=[56, 100]),
   midi.NoteOffEvent(tick=1273100, channel=0, data=[56, 0]),
   midi.NoteOnEvent(tick=1273200, channel=0, data=[36, 100]),
   midi.NoteOffEvent(tick=1273300, channel=0, data=[36, 0]),
   midi.NoteOnEvent(tick=1273400, channel=0, data=[56, 100]),
   midi.NoteOffEvent(tick=1273500, channel=0, data=[56, 0]),
   midi.NoteOnEvent(tick=1273600, channel=0, data=[36, 100]),
   midi.NoteOffEvent(tick=1273700, channel=0, data=[36, 0]),
   midi.NoteOnEvent(tick=1273800, channel=0, data=[36, 100]),
   midi.NoteOffEvent(tick=1273900, channel=0, data=[36, 0]),
   midi.NoteOnEvent(tick=1274000, channel=0, data=[36, 100]),
   midi.NoteOffEvent(tick=1274100, channel=0, data=[36, 0]),
   midi.NoteOnEvent(tick=1274200, channel=0, data=[36, 100]),
   midi.NoteOffEvent(tick=1274300, channel=0, data=[36, 0]),
   midi.NoteOnEvent(tick=1274400, channel=0, data=[22, 100]),
   midi.NoteOffEvent(tick=1274500, channel=0, data=[22, 0]),
   midi.NoteOnEvent(tick=1274600, channel=0, data=[7, 100]),
   midi.NoteOffEvent(tick=1274700, channel=0, data=[7, 0]),
   midi.NoteOnEvent(tick=1274800, channel=0, data=[4, 100]),
   midi.NoteOffEvent(tick=1274900, channel=0, data=[4, 0]),
   midi.NoteOnEvent(tick=1275000, channel=0, data=[13, 100]),
   midi.NoteOffEvent(tick=1275100, channel=0, data=[13, 0]),
   midi.NoteOnEvent(tick=1275200, channel=0, data=[36, 100]),
   midi.NoteOffEvent(tick=1275300, channel=0, data=[36, 0]),
   midi.NoteOnEvent(tick=1275400, channel=0, data=[19, 100]),
   midi.NoteOffEvent(tick=1275500, channel=0, data=[19, 0]),
   midi.NoteOnEvent(tick=1275600, channel=0, data=[7, 100]),
   midi.NoteOffEvent(tick=1275700, channel=0, data=[7, 0]),
   midi.NoteOnEvent(tick=1275800, channel=0, data=[4, 100]),
   midi.NoteOffEvent(tick=1275900, channel=0, data=[4, 0]),
   midi.NoteOnEvent(tick=1276000, channel=0, data=[36, 100]),
   midi.NoteOffEvent(tick=1276100, channel=0, data=[36, 0]),
   midi.NoteOnEvent(tick=1276200, channel=0, data=[21, 100]),
   midi.NoteOffEvent(tick=1276300, channel=0, data=[21, 0]),
   midi.NoteOnEvent(tick=1276400, channel=0, data=[0, 100]),
   midi.NoteOffEvent(tick=1276500, channel=0, data=[0, 0]),
   midi.NoteOnEvent(tick=1276600, channel=0, data=[17, 100]),
   midi.NoteOffEvent(tick=1276700, channel=0, data=[17, 0]),
   midi.NoteOnEvent(tick=1276800, channel=0, data=[8, 100]),
   midi.NoteOffEvent(tick=1276900, channel=0, data=[8, 0]),
   midi.NoteOnEvent(tick=1277000, channel=0, data=[0, 100]),
   midi.NoteOffEvent(tick=1277100, channel=0, data=[0, 0]),
   midi.NoteOnEvent(tick=1277200, channel=0, data=[1, 100]),
   midi.NoteOffEvent(tick=1277300, channel=0, data=[1, 0]),
   midi.NoteOnEvent(tick=1277400, channel=0, data=[11, 100]),
   midi.NoteOffEvent(tick=1277500, channel=0, data=[11, 0]),
   midi.NoteOnEvent(tick=1277600, channel=0, data=[4, 100]),
   midi.NoteOffEvent(tick=1277700, channel=0, data=[4, 0]),
   midi.NoteOnEvent(tick=1277800, channel=0, data=[36, 100]),
   midi.NoteOffEvent(tick=1277900, channel=0, data=[36, 0]),
   midi.NoteOnEvent(tick=1278000, channel=0, data=[2, 100]),
   midi.NoteOffEvent(tick=1278100, channel=0, data=[2, 0]),
   midi.NoteOnEvent(tick=1278200, channel=0, data=[14, 100]),
   midi.NoteOffEvent(tick=1278300, channel=0, data=[14, 0]),
   midi.NoteOnEvent(tick=1278400, channel=0, data=[13, 100]),
   midi.NoteOffEvent(tick=1278500, channel=0, data=[13, 0]),
   midi.NoteOnEvent(tick=1278600, channel=0, data=[19, 100]),
   midi.NoteOffEvent(tick=1278700, channel=0, data=[19, 0]),
   midi.NoteOnEvent(tick=1278800, channel=0, data=[0, 100]),
   midi.NoteOffEvent(tick=1278900, channel=0, data=[0, 0]),
   midi.NoteOnEvent(tick=1279000, channel=0, data=[8, 100]),
   midi.NoteOffEvent(tick=1279100, channel=0, data=[8, 0]),
   midi.NoteOnEvent(tick=1279200, channel=0, data=[13, 100]),
   midi.NoteOffEvent(tick=1279300, channel=0, data=[13, 0]),
   midi.NoteOnEvent(tick=1279400, channel=0, data=[18, 100]),
   midi.NoteOffEvent(tick=1279500, channel=0, data=[18, 0]),
   midi.NoteOnEvent(tick=1279600, channel=0, data=[36, 100]),
   midi.NoteOffEvent(tick=1279700, channel=0, data=[36, 0]),
   midi.NoteOnEvent(tick=1279800, channel=0, data=[0, 100]),
   midi.NoteOffEvent(tick=1279900, channel=0, data=[0, 0]),
   midi.NoteOnEvent(tick=1280000, channel=0, data=[36, 100]),
   midi.NoteOffEvent(tick=1280100, channel=0, data=[36, 0]),
   midi.NoteOnEvent(tick=1280200, channel=0, data=[18, 100]),
   midi.NoteOffEvent(tick=1280300, channel=0, data=[18, 0]),
   midi.NoteOnEvent(tick=1280400, channel=0, data=[8, 100]),
   midi.NoteOffEvent(tick=1280500, channel=0, data=[8, 0]),
   midi.NoteOnEvent(tick=1280600, channel=0, data=[13, 100]),
   midi.NoteOffEvent(tick=1280700, channel=0, data=[13, 0]),
   midi.NoteOnEvent(tick=1280800, channel=0, data=[6, 100]),
   midi.NoteOffEvent(tick=1280900, channel=0, data=[6, 0]),
   midi.NoteOnEvent(tick=1281000, channel=0, data=[11, 100]),
   midi.NoteOffEvent(tick=1281100, channel=0, data=[11, 0]),
   midi.NoteOnEvent(tick=1281200, channel=0, data=[4, 100]),
   midi.NoteOffEvent(tick=1281300, channel=0, data=[4, 0]),
   midi.NoteOnEvent(tick=1281400, channel=0, data=[36, 100]),
   midi.NoteOffEvent(tick=1281500, channel=0, data=[36, 0]),
   midi.NoteOnEvent(tick=1281600, channel=0, data=[13, 100]),
   midi.NoteOffEvent(tick=1281700, channel=0, data=[13, 0]),
   midi.NoteOnEvent(tick=1281800, channel=0, data=[20, 100]),
   midi.NoteOffEvent(tick=1281900, channel=0, data=[20, 0]),
   midi.NoteOnEvent(tick=1282000, channel=0, data=[12, 100]),
   midi.NoteOffEvent(tick=1282100, channel=0, data=[12, 0]),
   midi.NoteOnEvent(tick=1282200, channel=0, data=[4, 100]),
   midi.NoteOffEvent(tick=1282300, channel=0, data=[4, 0]),
   midi.NoteOnEvent(tick=1282400, channel=0, data=[17, 100]),
   midi.NoteOffEvent(tick=1282500, channel=0, data=[17, 0]),
   midi.NoteOnEvent(tick=1282600, channel=0, data=[8, 100]),
   midi.NoteOffEvent(tick=1282700, channel=0, data=[8, 0]),
   midi.NoteOnEvent(tick=1282800, channel=0, data=[2, 100]),
   midi.NoteOffEvent(tick=1282900, channel=0, data=[2, 0]),
   midi.NoteOnEvent(tick=1283000, channel=0, data=[36, 100]),
   midi.NoteOffEvent(tick=1283100, channel=0, data=[36, 0]),
   midi.NoteOnEvent(tick=1283200, channel=0, data=[21, 100]),
   midi.NoteOffEvent(tick=1283300, channel=0, data=[21, 0]),
   midi.NoteOnEvent(tick=1283400, channel=0, data=[0, 100]),
   midi.NoteOffEvent(tick=1283500, channel=0, data=[0, 0]),
   midi.NoteOnEvent(tick=1283600, channel=0, data=[11, 100]),
   midi.NoteOffEvent(tick=1283700, channel=0, data=[11, 0]),
   midi.NoteOnEvent(tick=1283800, channel=0, data=[20, 100]),
   midi.NoteOffEvent(tick=1283900, channel=0, data=[20, 0]),
   midi.NoteOnEvent(tick=1284000, channel=0, data=[4, 100]),
   midi.NoteOffEvent(tick=1284100, channel=0, data=[4, 0]),
   midi.NoteOnEvent(tick=1284200, channel=0, data=[38, 100]),
   midi.NoteOffEvent(tick=1284300, channel=0, data=[38, 0]),
   midi.NoteOnEvent(tick=1284400, channel=0, data=[36, 100]),
   midi.NoteOffEvent(tick=1284500, channel=0, data=[36, 0]),
   midi.NoteOnEvent(tick=1284600, channel=0, data=[19, 100]),
   midi.NoteOffEvent(tick=1284700, channel=0, data=[19, 0]),
   midi.NoteOnEvent(tick=1284800, channel=0, data=[7, 100]),
   midi.NoteOffEvent(tick=1284900, channel=0, data=[7, 0]),
   midi.NoteOnEvent(tick=1285000, channel=0, data=[4, 100]),
   midi.NoteOffEvent(tick=1285100, channel=0, data=[4, 0]),
   midi.NoteOnEvent(tick=1285200, channel=0, data=[36, 100]),
   midi.NoteOffEvent(tick=1285300, channel=0, data=[36, 0]),
   midi.NoteOnEvent(tick=1285400, channel=0, data=[55, 100]),
   midi.NoteOffEvent(tick=1285500, channel=0, data=[55, 0]),
   midi.NoteOnEvent(tick=1285600, channel=0, data=[69, 100]),
   midi.NoteOffEvent(tick=1285700, channel=0, data=[69, 0]),
   midi.NoteOnEvent(tick=1285800, channel=0, data=[36, 100]),
   midi.NoteOffEvent(tick=1285900, channel=0, data=[36, 0]),
   midi.NoteOnEvent(tick=1286000, channel=0, data=[14, 100]),
   midi.NoteOffEvent(tick=1286100, channel=0, data=[14, 0]),
   midi.NoteOnEvent(tick=1286200, channel=0, data=[15, 100]),
   midi.NoteOffEvent(tick=1286300, channel=0, data=[15, 0]),
   midi.NoteOnEvent(tick=1286400, channel=0, data=[4, 100]),
   midi.NoteOffEvent(tick=1286500, channel=0, data=[4, 0]),
   midi.NoteOnEvent(tick=1286600, channel=0, data=[17, 100]),
   midi.NoteOffEvent(tick=1286700, channel=0, data=[17, 0]),
   midi.NoteOnEvent(tick=1286800, channel=0, data=[0, 100]),
   midi.NoteOffEvent(tick=1286900, channel=0, data=[0, 0]),
   midi.NoteOnEvent(tick=1287000, channel=0, data=[19, 100]),
   midi.NoteOffEvent(tick=1287100, channel=0, data=[19, 0]),
   midi.NoteOnEvent(tick=1287200, channel=0, data=[14, 100]),
   midi.NoteOffEvent(tick=1287300, channel=0, data=[14, 0]),
   midi.NoteOnEvent(tick=1287400, channel=0, data=[17, 100]),
   midi.NoteOffEvent(tick=1287500, channel=0, data=[17, 0]),
   midi.NoteOnEvent(tick=1287600, channel=0, data=[36, 100]),
   midi.NoteOffEvent(tick=1287700, channel=0, data=[36, 0]),
   midi.NoteOnEvent(tick=1287800, channel=0, data=[56, 100]),
   midi.NoteOffEvent(tick=1287900, channel=0, data=[56, 0]),
   midi.NoteOnEvent(tick=1288000, channel=0, data=[36, 100]),
   midi.NoteOffEvent(tick=1288100, channel=0, data=[36, 0]),
   midi.NoteOnEvent(tick=1288200, channel=0, data=[36, 100]),
   midi.NoteOffEvent(tick=1288300, channel=0, data=[36, 0]),
   midi.NoteOnEvent(tick=1288400, channel=0, data=[36, 100]),
   midi.NoteOffEvent(tick=1288500, channel=0, data=[36, 0]),
   midi.NoteOnEvent(tick=1288600, channel=0, data=[36, 100]),
   midi.NoteOffEvent(tick=1288700, channel=0, data=[36, 0]),
   midi.NoteOnEvent(tick=1288800, channel=0, data=[8, 100]),
   midi.NoteOffEvent(tick=1288900, channel=0, data=[8, 0]),
   midi.NoteOnEvent(tick=1289000, channel=0, data=[13, 100]),
   midi.NoteOffEvent(tick=1289100, channel=0, data=[13, 0]),
   midi.NoteOnEvent(tick=1289200, channel=0, data=[2, 100]),
   midi.NoteOffEvent(tick=1289300, channel=0, data=[2, 0]),
   midi.NoteOnEvent(tick=1289400, channel=0, data=[17, 100]),
   midi.NoteOffEvent(tick=1289500, channel=0, data=[17, 0]),
   midi.NoteOnEvent(tick=1289600, channel=0, data=[4, 100]),
   midi.NoteOffEvent(tick=1289700, channel=0, data=[4, 0]),
   midi.NoteOnEvent(tick=1289800, channel=0, data=[12, 100]),
   midi.NoteOffEvent(tick=1289900, channel=0, data=[12, 0]),
   midi.NoteOnEvent(tick=1290000, channel=0, data=[4, 100]),
   midi.NoteOffEvent(tick=1290100, channel=0, data=[4, 0]),
   midi.NoteOnEvent(tick=1290200, channel=0, data=[13, 100]),
   midi.NoteOffEvent(tick=1290300, channel=0, data=[13, 0]),
   midi.NoteOnEvent(tick=1290400, channel=0, data=[19, 100]),
   midi.NoteOffEvent(tick=1290500, channel=0, data=[19, 0]),
   midi.NoteOnEvent(tick=1290600, channel=0, data=[18, 100]),
   midi.NoteOffEvent(tick=1290700, channel=0, data=[18, 0]),
   midi.NoteOnEvent(tick=1290800, channel=0, data=[36, 100]),
   midi.NoteOffEvent(tick=1290900, channel=0, data=[36, 0]),
   midi.NoteOnEvent(tick=1291000, channel=0, data=[19, 100]),
   midi.NoteOffEvent(tick=1291100, channel=0, data=[19, 0]),
   midi.NoteOnEvent(tick=1291200, channel=0, data=[7, 100]),
   midi.NoteOffEvent(tick=1291300, channel=0, data=[7, 0]),
   midi.NoteOnEvent(tick=1291400, channel=0, data=[4, 100]),
   midi.NoteOffEvent(tick=1291500, channel=0, data=[4, 0]),
   midi.NoteOnEvent(tick=1291600, channel=0, data=[36, 100]),
   midi.NoteOffEvent(tick=1291700, channel=0, data=[36, 0]),
   midi.NoteOnEvent(tick=1291800, channel=0, data=[4, 100]),
   midi.NoteOffEvent(tick=1291900, channel=0, data=[4, 0]),
   midi.NoteOnEvent(tick=1292000, channel=0, data=[23, 100]),
   midi.NoteOffEvent(tick=1292100, channel=0, data=[23, 0]),
   midi.NoteOnEvent(tick=1292200, channel=0, data=[8, 100]),
   midi.NoteOffEvent(tick=1292300, channel=0, data=[8, 0]),
   midi.NoteOnEvent(tick=1292400, channel=0, data=[18, 100]),
   midi.NoteOffEvent(tick=1292500, channel=0, data=[18, 0]),
   midi.NoteOnEvent(tick=1292600, channel=0, data=[19, 100]),
   midi.NoteOffEvent(tick=1292700, channel=0, data=[19, 0]),
   midi.NoteOnEvent(tick=1292800, channel=0, data=[8, 100]),
   midi.NoteOffEvent(tick=1292900, channel=0, data=[8, 0]),
   midi.NoteOnEvent(tick=1293000, channel=0, data=[13, 100]),
   midi.NoteOffEvent(tick=1293100, channel=0, data=[13, 0]),
   midi.NoteOnEvent(tick=1293200, channel=0, data=[6, 100]),
   midi.NoteOffEvent(tick=1293300, channel=0, data=[6, 0]),
   midi.NoteOnEvent(tick=1293400, channel=0, data=[36, 100]),
   midi.NoteOffEvent(tick=1293500, channel=0, data=[36, 0]),
   midi.NoteOnEvent(tick=1293600, channel=0, data=[21, 100]),
   midi.NoteOffEvent(tick=1293700, channel=0, data=[21, 0]),
   midi.NoteOnEvent(tick=1293800, channel=0, data=[0, 100]),
   midi.NoteOffEvent(tick=1293900, channel=0, data=[0, 0]),
   midi.NoteOnEvent(tick=1294000, channel=0, data=[11, 100]),
   midi.NoteOffEvent(tick=1294100, channel=0, data=[11, 0]),
   midi.NoteOnEvent(tick=1294200, channel=0, data=[20, 100]),
   midi.NoteOffEvent(tick=1294300, channel=0, data=[20, 0]),
   midi.NoteOnEvent(tick=1294400, channel=0, data=[4, 100]),
   midi.NoteOffEvent(tick=1294500, channel=0, data=[4, 0]),
   midi.NoteOnEvent(tick=1294600, channel=0, data=[36, 100]),
   midi.NoteOffEvent(tick=1294700, channel=0, data=[36, 0]),
   midi.NoteOnEvent(tick=1294800, channel=0, data=[1, 100]),
   midi.NoteOffEvent(tick=1294900, channel=0, data=[1, 0]),
   midi.NoteOnEvent(tick=1295000, channel=0, data=[24, 100]),
   midi.NoteOffEvent(tick=1295100, channel=0, data=[24, 0]),
   midi.NoteOnEvent(tick=1295200, channel=0, data=[36, 100]),
   midi.NoteOffEvent(tick=1295300, channel=0, data=[36, 0]),
   midi.NoteOnEvent(tick=1295400, channel=0, data=[19, 100]),
   midi.NoteOffEvent(tick=1295500, channel=0, data=[19, 0]),
   midi.NoteOnEvent(tick=1295600, channel=0, data=[7, 100]),
   midi.NoteOffEvent(tick=1295700, channel=0, data=[7, 0]),
   midi.NoteOnEvent(tick=1295800, channel=0, data=[4, 100]),
   midi.NoteOffEvent(tick=1295900, channel=0, data=[4, 0]),
   midi.NoteOnEvent(tick=1296000, channel=0, data=[36, 100]),
   midi.NoteOffEvent(tick=1296100, channel=0, data=[36, 0]),
   midi.NoteOnEvent(tick=1296200, channel=0, data=[0, 100]),
   midi.NoteOffEvent(tick=1296300, channel=0, data=[0, 0]),
   midi.NoteOnEvent(tick=1296400, channel=0, data=[12, 100]),
   midi.NoteOffEvent(tick=1296500, channel=0, data=[12, 0]),
   midi.NoteOnEvent(tick=1296600, channel=0, data=[14, 100]),
   midi.NoteOffEvent(tick=1296700, channel=0, data=[14, 0]),
   midi.NoteOnEvent(tick=1296800, channel=0, data=[20, 100]),
   midi.NoteOffEvent(tick=1296900, channel=0, data=[20, 0]),
   midi.NoteOnEvent(tick=1297000, channel=0, data=[13, 100]),
   midi.NoteOffEvent(tick=1297100, channel=0, data=[13, 0]),
   midi.NoteOnEvent(tick=1297200, channel=0, data=[19, 100]),
   midi.NoteOffEvent(tick=1297300, channel=0, data=[19, 0]),
   midi.NoteOnEvent(tick=1297400, channel=0, data=[36, 100]),
   midi.NoteOffEvent(tick=1297500, channel=0, data=[36, 0]),
   midi.NoteOnEvent(tick=1297600, channel=0, data=[14, 100]),
   midi.NoteOffEvent(tick=1297700, channel=0, data=[14, 0]),
   midi.NoteOnEvent(tick=1297800, channel=0, data=[13, 100]),
   midi.NoteOffEvent(tick=1297900, channel=0, data=[13, 0]),
   midi.NoteOnEvent(tick=1298000, channel=0, data=[36, 100]),
   midi.NoteOffEvent(tick=1298100, channel=0, data=[36, 0]),
   midi.NoteOnEvent(tick=1298200, channel=0, data=[19, 100]),
   midi.NoteOffEvent(tick=1298300, channel=0, data=[19, 0]),
   midi.NoteOnEvent(tick=1298400, channel=0, data=[7, 100]),
   midi.NoteOffEvent(tick=1298500, channel=0, data=[7, 0]),
   midi.NoteOnEvent(tick=1298600, channel=0, data=[4, 100]),
   midi.NoteOffEvent(tick=1298700, channel=0, data=[4, 0]),
   midi.NoteOnEvent(tick=1298800, channel=0, data=[36, 100]),
   midi.NoteOffEvent(tick=1298900, channel=0, data=[36, 0]),
   midi.NoteOnEvent(tick=1299000, channel=0, data=[17, 100]),
   midi.NoteOffEvent(tick=1299100, channel=0, data=[17, 0]),
   midi.NoteOnEvent(tick=1299200, channel=0, data=[8, 100]),
   midi.NoteOffEvent(tick=1299300, channel=0, data=[8, 0]),
   midi.NoteOnEvent(tick=1299400, channel=0, data=[6, 100]),
   midi.NoteOffEvent(tick=1299500, channel=0, data=[6, 0]),
   midi.NoteOnEvent(tick=1299600, channel=0, data=[7, 100]),
   midi.NoteOffEvent(tick=1299700, channel=0, data=[7, 0]),
   midi.NoteOnEvent(tick=1299800, channel=0, data=[19, 100]),
   midi.NoteOffEvent(tick=1299900, channel=0, data=[19, 0]),
   midi.NoteOnEvent(tick=1300000, channel=0, data=[36, 100]),
   midi.NoteOffEvent(tick=1300100, channel=0, data=[36, 0]),
   midi.NoteOnEvent(tick=1300200, channel=0, data=[18, 100]),
   midi.NoteOffEvent(tick=1300300, channel=0, data=[18, 0]),
   midi.NoteOnEvent(tick=1300400, channel=0, data=[8, 100]),
   midi.NoteOffEvent(tick=1300500, channel=0, data=[8, 0]),
   midi.NoteOnEvent(tick=1300600, channel=0, data=[3, 100]),
   midi.NoteOffEvent(tick=1300700, channel=0, data=[3, 0]),
   midi.NoteOnEvent(tick=1300800, channel=0, data=[4, 100]),
   midi.NoteOffEvent(tick=1300900, channel=0, data=[4, 0]),
   midi.NoteOnEvent(tick=1301000, channel=0, data=[36, 100]),
   midi.NoteOffEvent(tick=1301100, channel=0, data=[36, 0]),
   midi.NoteOnEvent(tick=1301200, channel=0, data=[14, 100]),
   midi.NoteOffEvent(tick=1301300, channel=0, data=[14, 0]),
   midi.NoteOnEvent(tick=1301400, channel=0, data=[5, 100]),
   midi.NoteOffEvent(tick=1301500, channel=0, data=[5, 0]),
   midi.NoteOnEvent(tick=1301600, channel=0, data=[36, 100]),
   midi.NoteOffEvent(tick=1301700, channel=0, data=[36, 0]),
   midi.NoteOnEvent(tick=1301800, channel=0, data=[19, 100]),
   midi.NoteOffEvent(tick=1301900, channel=0, data=[19, 0]),
   midi.NoteOnEvent(tick=1302000, channel=0, data=[7, 100]),
   midi.NoteOffEvent(tick=1302100, channel=0, data=[7, 0]),
   midi.NoteOnEvent(tick=1302200, channel=0, data=[4, 100]),
   midi.NoteOffEvent(tick=1302300, channel=0, data=[4, 0]),
   midi.NoteOnEvent(tick=1302400, channel=0, data=[56, 100]),
   midi.NoteOffEvent(tick=1302500, channel=0, data=[56, 0]),
   midi.NoteOnEvent(tick=1302600, channel=0, data=[36, 100]),
   midi.NoteOffEvent(tick=1302700, channel=0, data=[36, 0]),
   midi.NoteOnEvent(tick=1302800, channel=0, data=[36, 100]),
   midi.NoteOffEvent(tick=1302900, channel=0, data=[36, 0]),
   midi.NoteOnEvent(tick=1303000, channel=0, data=[36, 100]),
   midi.NoteOffEvent(tick=1303100, channel=0, data=[36, 0]),
   midi.NoteOnEvent(tick=1303200, channel=0, data=[36, 100]),
   midi.NoteOffEvent(tick=1303300, channel=0, data=[36, 0]),
   midi.NoteOnEvent(tick=1303400, channel=0, data=[14, 100]),
   midi.NoteOffEvent(tick=1303500, channel=0, data=[14, 0]),
   midi.NoteOnEvent(tick=1303600, channel=0, data=[15, 100]),
   midi.NoteOffEvent(tick=1303700, channel=0, data=[15, 0]),
   midi.NoteOnEvent(tick=1303800, channel=0, data=[4, 100]),
   midi.NoteOffEvent(tick=1303900, channel=0, data=[4, 0]),
   midi.NoteOnEvent(tick=1304000, channel=0, data=[17, 100]),
   midi.NoteOffEvent(tick=1304100, channel=0, data=[17, 0]),
   midi.NoteOnEvent(tick=1304200, channel=0, data=[0, 100]),
   midi.NoteOffEvent(tick=1304300, channel=0, data=[0, 0]),
   midi.NoteOnEvent(tick=1304400, channel=0, data=[19, 100]),
   midi.NoteOffEvent(tick=1304500, channel=0, data=[19, 0]),
   midi.NoteOnEvent(tick=1304600, channel=0, data=[14, 100]),
   midi.NoteOffEvent(tick=1304700, channel=0, data=[14, 0]),
   midi.NoteOnEvent(tick=1304800, channel=0, data=[17, 100]),
   midi.NoteOffEvent(tick=1304900, channel=0, data=[17, 0]),
   midi.NoteOnEvent(tick=1305000, channel=0, data=[37, 100]),
   midi.NoteOffEvent(tick=1305100, channel=0, data=[37, 0]),
   midi.NoteOnEvent(tick=1305200, channel=0, data=[36, 100]),
   midi.NoteOffEvent(tick=1305300, channel=0, data=[36, 0]),
   midi.NoteOnEvent(tick=1305400, channel=0, data=[19, 100]),
   midi.NoteOffEvent(tick=1305500, channel=0, data=[19, 0]),
   midi.NoteOnEvent(tick=1305600, channel=0, data=[7, 100]),
   midi.NoteOffEvent(tick=1305700, channel=0, data=[7, 0]),
   midi.NoteOnEvent(tick=1305800, channel=0, data=[4, 100]),
   midi.NoteOffEvent(tick=1305900, channel=0, data=[4, 0]),
   midi.NoteOnEvent(tick=1306000, channel=0, data=[13, 100]),
   midi.NoteOffEvent(tick=1306100, channel=0, data=[13, 0]),
   midi.NoteOnEvent(tick=1306200, channel=0, data=[38, 100]),
   midi.NoteOffEvent(tick=1306300, channel=0, data=[38, 0]),
   midi.NoteOnEvent(tick=1306400, channel=0, data=[36, 100]),
   midi.NoteOffEvent(tick=1306500, channel=0, data=[36, 0]),
   midi.NoteOnEvent(tick=1306600, channel=0, data=[19, 100]),
   midi.NoteOffEvent(tick=1306700, channel=0, data=[19, 0]),
   midi.NoteOnEvent(tick=1306800, channel=0, data=[7, 100]),
   midi.NoteOffEvent(tick=1306900, channel=0, data=[7, 0]),
   midi.NoteOnEvent(tick=1307000, channel=0, data=[4, 100]),
   midi.NoteOffEvent(tick=1307100, channel=0, data=[4, 0]),
   midi.NoteOnEvent(tick=1307200, channel=0, data=[36, 100]),
   midi.NoteOffEvent(tick=1307300, channel=0, data=[36, 0]),
   midi.NoteOnEvent(tick=1307400, channel=0, data=[14, 100]),
   midi.NoteOffEvent(tick=1307500, channel=0, data=[14, 0]),
   midi.NoteOnEvent(tick=1307600, channel=0, data=[15, 100]),
   midi.NoteOffEvent(tick=1307700, channel=0, data=[15, 0]),
   midi.NoteOnEvent(tick=1307800, channel=0, data=[4, 100]),
   midi.NoteOffEvent(tick=1307900, channel=0, data=[4, 0]),
   midi.NoteOnEvent(tick=1308000, channel=0, data=[17, 100]),
   midi.NoteOffEvent(tick=1308100, channel=0, data=[17, 0]),
   midi.NoteOnEvent(tick=1308200, channel=0, data=[0, 100]),
   midi.NoteOffEvent(tick=1308300, channel=0, data=[0, 0]),
   midi.NoteOnEvent(tick=1308400, channel=0, data=[19, 100]),
   midi.NoteOffEvent(tick=1308500, channel=0, data=[19, 0]),
   midi.NoteOnEvent(tick=1308600, channel=0, data=[14, 100]),
   midi.NoteOffEvent(tick=1308700, channel=0, data=[14, 0]),
   midi.NoteOnEvent(tick=1308800, channel=0, data=[17, 100]),
   midi.NoteOffEvent(tick=1308900, channel=0, data=[17, 0]),
   midi.NoteOnEvent(tick=1309000, channel=0, data=[36, 100]),
   midi.NoteOffEvent(tick=1309100, channel=0, data=[36, 0]),
   midi.NoteOnEvent(tick=1309200, channel=0, data=[0, 100]),
   midi.NoteOffEvent(tick=1309300, channel=0, data=[0, 0]),
   midi.NoteOnEvent(tick=1309400, channel=0, data=[18, 100]),
   midi.NoteOffEvent(tick=1309500, channel=0, data=[18, 0]),
   midi.NoteOnEvent(tick=1309600, channel=0, data=[18, 100]),
   midi.NoteOffEvent(tick=1309700, channel=0, data=[18, 0]),
   midi.NoteOnEvent(tick=1309800, channel=0, data=[8, 100]),
   midi.NoteOffEvent(tick=1309900, channel=0, data=[8, 0]),
   midi.NoteOnEvent(tick=1310000, channel=0, data=[6, 100]),
   midi.NoteOffEvent(tick=1310100, channel=0, data=[6, 0]),
   midi.NoteOnEvent(tick=1310200, channel=0, data=[13, 100]),
   midi.NoteOffEvent(tick=1310300, channel=0, data=[13, 0]),
   midi.NoteOnEvent(tick=1310400, channel=0, data=[18, 100]),
   midi.NoteOffEvent(tick=1310500, channel=0, data=[18, 0]),
   midi.NoteOnEvent(tick=1310600, channel=0, data=[36, 100]),
   midi.NoteOffEvent(tick=1310700, channel=0, data=[36, 0]),
   midi.NoteOnEvent(tick=1310800, channel=0, data=[19, 100]),
   midi.NoteOffEvent(tick=1310900, channel=0, data=[19, 0]),
   midi.NoteOnEvent(tick=1311000, channel=0, data=[7, 100]),
   midi.NoteOffEvent(tick=1311100, channel=0, data=[7, 0]),
   midi.NoteOnEvent(tick=1311200, channel=0, data=[4, 100]),
   midi.NoteOffEvent(tick=1311300, channel=0, data=[4, 0]),
   midi.NoteOnEvent(tick=1311400, channel=0, data=[36, 100]),
   midi.NoteOffEvent(tick=1311500, channel=0, data=[36, 0]),
   midi.NoteOnEvent(tick=1311600, channel=0, data=[17, 100]),
   midi.NoteOffEvent(tick=1311700, channel=0, data=[17, 0]),
   midi.NoteOnEvent(tick=1311800, channel=0, data=[4, 100]),
   midi.NoteOffEvent(tick=1311900, channel=0, data=[4, 0]),
   midi.NoteOnEvent(tick=1312000, channel=0, data=[18, 100]),
   midi.NoteOffEvent(tick=1312100, channel=0, data=[18, 0]),
   midi.NoteOnEvent(tick=1312200, channel=0, data=[20, 100]),
   midi.NoteOffEvent(tick=1312300, channel=0, data=[20, 0]),
   midi.NoteOnEvent(tick=1312400, channel=0, data=[11, 100]),
   midi.NoteOffEvent(tick=1312500, channel=0, data=[11, 0]),
   midi.NoteOnEvent(tick=1312600, channel=0, data=[19, 100]),
   midi.NoteOffEvent(tick=1312700, channel=0, data=[19, 0]),
   midi.NoteOnEvent(tick=1312800, channel=0, data=[8, 100]),
   midi.NoteOffEvent(tick=1312900, channel=0, data=[8, 0]),
   midi.NoteOnEvent(tick=1313000, channel=0, data=[13, 100]),
   midi.NoteOffEvent(tick=1313100, channel=0, data=[13, 0]),
   midi.NoteOnEvent(tick=1313200, channel=0, data=[6, 100]),
   midi.NoteOffEvent(tick=1313300, channel=0, data=[6, 0]),
   midi.NoteOnEvent(tick=1313400, channel=0, data=[36, 100]),
   midi.NoteOffEvent(tick=1313500, channel=0, data=[36, 0]),
   midi.NoteOnEvent(tick=1313600, channel=0, data=[21, 100]),
   midi.NoteOffEvent(tick=1313700, channel=0, data=[21, 0]),
   midi.NoteOnEvent(tick=1313800, channel=0, data=[0, 100]),
   midi.NoteOffEvent(tick=1313900, channel=0, data=[0, 0]),
   midi.NoteOnEvent(tick=1314000, channel=0, data=[11, 100]),
   midi.NoteOffEvent(tick=1314100, channel=0, data=[11, 0]),
   midi.NoteOnEvent(tick=1314200, channel=0, data=[20, 100]),
   midi.NoteOffEvent(tick=1314300, channel=0, data=[20, 0]),
   midi.NoteOnEvent(tick=1314400, channel=0, data=[4, 100]),
   midi.NoteOffEvent(tick=1314500, channel=0, data=[4, 0]),
   midi.NoteOnEvent(tick=1314600, channel=0, data=[36, 100]),
   midi.NoteOffEvent(tick=1314700, channel=0, data=[36, 0]),
   midi.NoteOnEvent(tick=1314800, channel=0, data=[19, 100]),
   midi.NoteOffEvent(tick=1314900, channel=0, data=[19, 0]),
   midi.NoteOnEvent(tick=1315000, channel=0, data=[14, 100]),
   midi.NoteOffEvent(tick=1315100, channel=0, data=[14, 0]),
   midi.NoteOnEvent(tick=1315200, channel=0, data=[36, 100]),
   midi.NoteOffEvent(tick=1315300, channel=0, data=[36, 0]),
   midi.NoteOnEvent(tick=1315400, channel=0, data=[19, 100]),
   midi.NoteOffEvent(tick=1315500, channel=0, data=[19, 0]),
   midi.NoteOnEvent(tick=1315600, channel=0, data=[7, 100]),
   midi.NoteOffEvent(tick=1315700, channel=0, data=[7, 0]),
   midi.NoteOnEvent(tick=1315800, channel=0, data=[4, 100]),
   midi.NoteOffEvent(tick=1315900, channel=0, data=[4, 0]),
   midi.NoteOnEvent(tick=1316000, channel=0, data=[36, 100]),
   midi.NoteOffEvent(tick=1316100, channel=0, data=[36, 0]),
   midi.NoteOnEvent(tick=1316200, channel=0, data=[21, 100]),
   midi.NoteOffEvent(tick=1316300, channel=0, data=[21, 0]),
   midi.NoteOnEvent(tick=1316400, channel=0, data=[0, 100]),
   midi.NoteOffEvent(tick=1316500, channel=0, data=[0, 0]),
   midi.NoteOnEvent(tick=1316600, channel=0, data=[17, 100]),
   midi.NoteOffEvent(tick=1316700, channel=0, data=[17, 0]),
   midi.NoteOnEvent(tick=1316800, channel=0, data=[8, 100]),
   midi.NoteOffEvent(tick=1316900, channel=0, data=[8, 0]),
   midi.NoteOnEvent(tick=1317000, channel=0, data=[0, 100]),
   midi.NoteOffEvent(tick=1317100, channel=0, data=[0, 0]),
   midi.NoteOnEvent(tick=1317200, channel=0, data=[1, 100]),
   midi.NoteOffEvent(tick=1317300, channel=0, data=[1, 0]),
   midi.NoteOnEvent(tick=1317400, channel=0, data=[11, 100]),
   midi.NoteOffEvent(tick=1317500, channel=0, data=[11, 0]),
   midi.NoteOnEvent(tick=1317600, channel=0, data=[4, 100]),
   midi.NoteOffEvent(tick=1317700, channel=0, data=[4, 0]),
   midi.NoteOnEvent(tick=1317800, channel=0, data=[37, 100]),
   midi.NoteOffEvent(tick=1317900, channel=0, data=[37, 0]),
   midi.NoteOnEvent(tick=1318000, channel=0, data=[56, 100]),
   midi.NoteOffEvent(tick=1318100, channel=0, data=[56, 0]),
   midi.NoteOnEvent(tick=1318200, channel=0, data=[36, 100]),
   midi.NoteOffEvent(tick=1318300, channel=0, data=[36, 0]),
   midi.NoteOnEvent(tick=1318400, channel=0, data=[36, 100]),
   midi.NoteOffEvent(tick=1318500, channel=0, data=[36, 0]),
   midi.NoteOnEvent(tick=1318600, channel=0, data=[36, 100]),
   midi.NoteOffEvent(tick=1318700, channel=0, data=[36, 0]),
   midi.NoteOnEvent(tick=1318800, channel=0, data=[36, 100]),
   midi.NoteOffEvent(tick=1318900, channel=0, data=[36, 0]),
   midi.NoteOnEvent(tick=1319000, channel=0, data=[19, 100]),
   midi.NoteOffEvent(tick=1319100, channel=0, data=[19, 0]),
   midi.NoteOnEvent(tick=1319200, channel=0, data=[7, 100]),
   midi.NoteOffEvent(tick=1319300, channel=0, data=[7, 0]),
   midi.NoteOnEvent(tick=1319400, channel=0, data=[4, 100]),
   midi.NoteOffEvent(tick=1319500, channel=0, data=[4, 0]),
   midi.NoteOnEvent(tick=1319600, channel=0, data=[36, 100]),
   midi.NoteOffEvent(tick=1319700, channel=0, data=[36, 0]),
   midi.NoteOnEvent(tick=1319800, channel=0, data=[5, 100]),
   midi.NoteOffEvent(tick=1319900, channel=0, data=[5, 0]),
   midi.NoteOnEvent(tick=1320000, channel=0, data=[14, 100]),
   midi.NoteOffEvent(tick=1320100, channel=0, data=[14, 0]),
   midi.NoteOnEvent(tick=1320200, channel=0, data=[11, 100]),
   midi.NoteOffEvent(tick=1320300, channel=0, data=[11, 0]),
   midi.NoteOnEvent(tick=1320400, channel=0, data=[11, 100]),
   midi.NoteOffEvent(tick=1320500, channel=0, data=[11, 0]),
   midi.NoteOnEvent(tick=1320600, channel=0, data=[14, 100]),
   midi.NoteOffEvent(tick=1320700, channel=0, data=[14, 0]),
   midi.NoteOnEvent(tick=1320800, channel=0, data=[22, 100]),
   midi.NoteOffEvent(tick=1320900, channel=0, data=[22, 0]),
   midi.NoteOnEvent(tick=1321000, channel=0, data=[8, 100]),
   midi.NoteOffEvent(tick=1321100, channel=0, data=[8, 0]),
   midi.NoteOnEvent(tick=1321200, channel=0, data=[13, 100]),
   midi.NoteOffEvent(tick=1321300, channel=0, data=[13, 0]),
   midi.NoteOnEvent(tick=1321400, channel=0, data=[6, 100]),
   midi.NoteOffEvent(tick=1321500, channel=0, data=[6, 0]),
   midi.NoteOnEvent(tick=1321600, channel=0, data=[36, 100]),
   midi.NoteOffEvent(tick=1321700, channel=0, data=[36, 0]),
   midi.NoteOnEvent(tick=1321800, channel=0, data=[4, 100]),
   midi.NoteOffEvent(tick=1321900, channel=0, data=[4, 0]),
   midi.NoteOnEvent(tick=1322000, channel=0, data=[23, 100]),
   midi.NoteOffEvent(tick=1322100, channel=0, data=[23, 0]),
   midi.NoteOnEvent(tick=1322200, channel=0, data=[0, 100]),
   midi.NoteOffEvent(tick=1322300, channel=0, data=[0, 0]),
   midi.NoteOnEvent(tick=1322400, channel=0, data=[12, 100]),
   midi.NoteOffEvent(tick=1322500, channel=0, data=[12, 0]),
   midi.NoteOnEvent(tick=1322600, channel=0, data=[15, 100]),
   midi.NoteOffEvent(tick=1322700, channel=0, data=[15, 0]),
   midi.NoteOnEvent(tick=1322800, channel=0, data=[11, 100]),
   midi.NoteOffEvent(tick=1322900, channel=0, data=[11, 0]),
   midi.NoteOnEvent(tick=1323000, channel=0, data=[4, 100]),
   midi.NoteOffEvent(tick=1323100, channel=0, data=[4, 0]),
   midi.NoteOnEvent(tick=1323200, channel=0, data=[36, 100]),
   midi.NoteOffEvent(tick=1323300, channel=0, data=[36, 0]),
   midi.NoteOnEvent(tick=1323400, channel=0, data=[18, 100]),
   midi.NoteOffEvent(tick=1323500, channel=0, data=[18, 0]),
   midi.NoteOnEvent(tick=1323600, channel=0, data=[7, 100]),
   midi.NoteOffEvent(tick=1323700, channel=0, data=[7, 0]),
   midi.NoteOnEvent(tick=1323800, channel=0, data=[14, 100]),
   midi.NoteOffEvent(tick=1323900, channel=0, data=[14, 0]),
   midi.NoteOnEvent(tick=1324000, channel=0, data=[22, 100]),
   midi.NoteOffEvent(tick=1324100, channel=0, data=[22, 0]),
   midi.NoteOnEvent(tick=1324200, channel=0, data=[18, 100]),
   midi.NoteOffEvent(tick=1324300, channel=0, data=[18, 0]),
   midi.NoteOnEvent(tick=1324400, channel=0, data=[36, 100]),
   midi.NoteOffEvent(tick=1324500, channel=0, data=[36, 0]),
   midi.NoteOnEvent(tick=1324600, channel=0, data=[7, 100]),
   midi.NoteOffEvent(tick=1324700, channel=0, data=[7, 0]),
   midi.NoteOnEvent(tick=1324800, channel=0, data=[14, 100]),
   midi.NoteOffEvent(tick=1324900, channel=0, data=[14, 0]),
   midi.NoteOnEvent(tick=1325000, channel=0, data=[22, 100]),
   midi.NoteOffEvent(tick=1325100, channel=0, data=[22, 0]),
   midi.NoteOnEvent(tick=1325200, channel=0, data=[36, 100]),
   midi.NoteOffEvent(tick=1325300, channel=0, data=[36, 0]),
   midi.NoteOnEvent(tick=1325400, channel=0, data=[19, 100]),
   midi.NoteOffEvent(tick=1325500, channel=0, data=[19, 0]),
   midi.NoteOnEvent(tick=1325600, channel=0, data=[14, 100]),
   midi.NoteOffEvent(tick=1325700, channel=0, data=[14, 0]),
   midi.NoteOnEvent(tick=1325800, channel=0, data=[36, 100]),
   midi.NoteOffEvent(tick=1325900, channel=0, data=[36, 0]),
   midi.NoteOnEvent(tick=1326000, channel=0, data=[20, 100]),
   midi.NoteOffEvent(tick=1326100, channel=0, data=[20, 0]),
   midi.NoteOnEvent(tick=1326200, channel=0, data=[18, 100]),
   midi.NoteOffEvent(tick=1326300, channel=0, data=[18, 0]),
   midi.NoteOnEvent(tick=1326400, channel=0, data=[4, 100]),
   midi.NoteOffEvent(tick=1326500, channel=0, data=[4, 0]),
   midi.NoteOnEvent(tick=1326600, channel=0, data=[36, 100]),
   midi.NoteOffEvent(tick=1326700, channel=0, data=[36, 0]),
   midi.NoteOnEvent(tick=1326800, channel=0, data=[19, 100]),
   midi.NoteOffEvent(tick=1326900, channel=0, data=[19, 0]),
   midi.NoteOnEvent(tick=1327000, channel=0, data=[7, 100]),
   midi.NoteOffEvent(tick=1327100, channel=0, data=[7, 0]),
   midi.NoteOnEvent(tick=1327200, channel=0, data=[4, 100]),
   midi.NoteOffEvent(tick=1327300, channel=0, data=[4, 0]),
   midi.NoteOnEvent(tick=1327400, channel=0, data=[36, 100]),
   midi.NoteOffEvent(tick=1327500, channel=0, data=[36, 0]),
   midi.NoteOnEvent(tick=1327600, channel=0, data=[55, 100]),
   midi.NoteOffEvent(tick=1327700, channel=0, data=[55, 0]),
   midi.NoteOnEvent(tick=1327800, channel=0, data=[69, 100]),
   midi.NoteOffEvent(tick=1327900, channel=0, data=[69, 0]),
   midi.NoteOnEvent(tick=1328000, channel=0, data=[36, 100]),
   midi.NoteOffEvent(tick=1328100, channel=0, data=[36, 0]),
   midi.NoteOnEvent(tick=1328200, channel=0, data=[14, 100]),
   midi.NoteOffEvent(tick=1328300, channel=0, data=[14, 0]),
   midi.NoteOnEvent(tick=1328400, channel=0, data=[15, 100]),
   midi.NoteOffEvent(tick=1328500, channel=0, data=[15, 0]),
   midi.NoteOnEvent(tick=1328600, channel=0, data=[4, 100]),
   midi.NoteOffEvent(tick=1328700, channel=0, data=[4, 0]),
   midi.NoteOnEvent(tick=1328800, channel=0, data=[17, 100]),
   midi.NoteOffEvent(tick=1328900, channel=0, data=[17, 0]),
   midi.NoteOnEvent(tick=1329000, channel=0, data=[0, 100]),
   midi.NoteOffEvent(tick=1329100, channel=0, data=[0, 0]),
   midi.NoteOnEvent(tick=1329200, channel=0, data=[19, 100]),
   midi.NoteOffEvent(tick=1329300, channel=0, data=[19, 0]),
   midi.NoteOnEvent(tick=1329400, channel=0, data=[14, 100]),
   midi.NoteOffEvent(tick=1329500, channel=0, data=[14, 0]),
   midi.NoteOnEvent(tick=1329600, channel=0, data=[17, 100]),
   midi.NoteOffEvent(tick=1329700, channel=0, data=[17, 0]),
   midi.NoteOnEvent(tick=1329800, channel=0, data=[36, 100]),
   midi.NoteOffEvent(tick=1329900, channel=0, data=[36, 0]),
   midi.NoteOnEvent(tick=1330000, channel=0, data=[19, 100]),
   midi.NoteOffEvent(tick=1330100, channel=0, data=[19, 0]),
   midi.NoteOnEvent(tick=1330200, channel=0, data=[14, 100]),
   midi.NoteOffEvent(tick=1330300, channel=0, data=[14, 0]),
   midi.NoteOnEvent(tick=1330400, channel=0, data=[36, 100]),
   midi.NoteOffEvent(tick=1330500, channel=0, data=[36, 0]),
   midi.NoteOnEvent(tick=1330600, channel=0, data=[8, 100]),
   midi.NoteOffEvent(tick=1330700, channel=0, data=[8, 0]),
   midi.NoteOnEvent(tick=1330800, channel=0, data=[13, 100]),
   midi.NoteOffEvent(tick=1330900, channel=0, data=[13, 0]),
   midi.NoteOnEvent(tick=1331000, channel=0, data=[2, 100]),
   midi.NoteOffEvent(tick=1331100, channel=0, data=[2, 0]),
   midi.NoteOnEvent(tick=1331200, channel=0, data=[17, 100]),
   midi.NoteOffEvent(tick=1331300, channel=0, data=[17, 0]),
   midi.NoteOnEvent(tick=1331400, channel=0, data=[4, 100]),
   midi.NoteOffEvent(tick=1331500, channel=0, data=[4, 0]),
   midi.NoteOnEvent(tick=1331600, channel=0, data=[0, 100]),
   midi.NoteOffEvent(tick=1331700, channel=0, data=[0, 0]),
   midi.NoteOnEvent(tick=1331800, channel=0, data=[18, 100]),
   midi.NoteOffEvent(tick=1331900, channel=0, data=[18, 0]),
   midi.NoteOnEvent(tick=1332000, channel=0, data=[4, 100]),
   midi.NoteOffEvent(tick=1332100, channel=0, data=[4, 0]),
   midi.NoteOnEvent(tick=1332200, channel=0, data=[36, 100]),
   midi.NoteOffEvent(tick=1332300, channel=0, data=[36, 0]),
   midi.NoteOnEvent(tick=1332400, channel=0, data=[19, 100]),
   midi.NoteOffEvent(tick=1332500, channel=0, data=[19, 0]),
   midi.NoteOnEvent(tick=1332600, channel=0, data=[7, 100]),
   midi.NoteOffEvent(tick=1332700, channel=0, data=[7, 0]),
   midi.NoteOnEvent(tick=1332800, channel=0, data=[4, 100]),
   midi.NoteOffEvent(tick=1332900, channel=0, data=[4, 0]),
   midi.NoteOnEvent(tick=1333000, channel=0, data=[56, 100]),
   midi.NoteOffEvent(tick=1333100, channel=0, data=[56, 0]),
   midi.NoteOnEvent(tick=1333200, channel=0, data=[36, 100]),
   midi.NoteOffEvent(tick=1333300, channel=0, data=[36, 0]),
   midi.NoteOnEvent(tick=1333400, channel=0, data=[36, 100]),
   midi.NoteOffEvent(tick=1333500, channel=0, data=[36, 0]),
   midi.NoteOnEvent(tick=1333600, channel=0, data=[36, 100]),
   midi.NoteOffEvent(tick=1333700, channel=0, data=[36, 0]),
   midi.NoteOnEvent(tick=1333800, channel=0, data=[36, 100]),
   midi.NoteOffEvent(tick=1333900, channel=0, data=[36, 0]),
   midi.NoteOnEvent(tick=1334000, channel=0, data=[21, 100]),
   midi.NoteOffEvent(tick=1334100, channel=0, data=[21, 0]),
   midi.NoteOnEvent(tick=1334200, channel=0, data=[0, 100]),
   midi.NoteOffEvent(tick=1334300, channel=0, data=[0, 0]),
   midi.NoteOnEvent(tick=1334400, channel=0, data=[11, 100]),
   midi.NoteOffEvent(tick=1334500, channel=0, data=[11, 0]),
   midi.NoteOnEvent(tick=1334600, channel=0, data=[20, 100]),
   midi.NoteOffEvent(tick=1334700, channel=0, data=[20, 0]),
   midi.NoteOnEvent(tick=1334800, channel=0, data=[4, 100]),
   midi.NoteOffEvent(tick=1334900, channel=0, data=[4, 0]),
   midi.NoteOnEvent(tick=1335000, channel=0, data=[36, 100]),
   midi.NoteOffEvent(tick=1335100, channel=0, data=[36, 0]),
   midi.NoteOnEvent(tick=1335200, channel=0, data=[14, 100]),
   midi.NoteOffEvent(tick=1335300, channel=0, data=[14, 0]),
   midi.NoteOnEvent(tick=1335400, channel=0, data=[5, 100]),
   midi.NoteOffEvent(tick=1335500, channel=0, data=[5, 0]),
   midi.NoteOnEvent(tick=1335600, channel=0, data=[36, 100]),
   midi.NoteOffEvent(tick=1335700, channel=0, data=[36, 0]),
   midi.NoteOnEvent(tick=1335800, channel=0, data=[0, 100]),
   midi.NoteOffEvent(tick=1335900, channel=0, data=[0, 0]),
   midi.NoteOnEvent(tick=1336000, channel=0, data=[36, 100]),
   midi.NoteOffEvent(tick=1336100, channel=0, data=[36, 0]),
   midi.NoteOnEvent(tick=1336200, channel=0, data=[21, 100]),
   midi.NoteOffEvent(tick=1336300, channel=0, data=[21, 0]),
   midi.NoteOnEvent(tick=1336400, channel=0, data=[0, 100]),
   midi.NoteOffEvent(tick=1336500, channel=0, data=[0, 0]),
   midi.NoteOnEvent(tick=1336600, channel=0, data=[17, 100]),
   midi.NoteOffEvent(tick=1336700, channel=0, data=[17, 0]),
   midi.NoteOnEvent(tick=1336800, channel=0, data=[8, 100]),
   midi.NoteOffEvent(tick=1336900, channel=0, data=[8, 0]),
   midi.NoteOnEvent(tick=1337000, channel=0, data=[0, 100]),
   midi.NoteOffEvent(tick=1337100, channel=0, data=[0, 0]),
   midi.NoteOnEvent(tick=1337200, channel=0, data=[1, 100]),
   midi.NoteOffEvent(tick=1337300, channel=0, data=[1, 0]),
   midi.NoteOnEvent(tick=1337400, channel=0, data=[11, 100]),
   midi.NoteOffEvent(tick=1337500, channel=0, data=[11, 0]),
   midi.NoteOnEvent(tick=1337600, channel=0, data=[4, 100]),
   midi.NoteOffEvent(tick=1337700, channel=0, data=[4, 0]),
   midi.NoteOnEvent(tick=1337800, channel=0, data=[46, 100]),
   midi.NoteOffEvent(tick=1337900, channel=0, data=[46, 0]),
   midi.NoteOnEvent(tick=1338000, channel=0, data=[56, 100]),
   midi.NoteOffEvent(tick=1338100, channel=0, data=[56, 0]),
   midi.NoteOnEvent(tick=1338200, channel=0, data=[56, 100]),
   midi.NoteOffEvent(tick=1338300, channel=0, data=[56, 0]),
   midi.NoteOnEvent(tick=1338400, channel=0, data=[56, 100]),
   midi.NoteOffEvent(tick=1338500, channel=0, data=[56, 0]),
   midi.NoteOnEvent(tick=1338600, channel=0, data=[36, 100]),
   midi.NoteOffEvent(tick=1338700, channel=0, data=[36, 0]),
   midi.NoteOnEvent(tick=1338800, channel=0, data=[36, 100]),
   midi.NoteOffEvent(tick=1338900, channel=0, data=[36, 0]),
   midi.NoteOnEvent(tick=1339000, channel=0, data=[36, 100]),
   midi.NoteOffEvent(tick=1339100, channel=0, data=[36, 0]),
   midi.NoteOnEvent(tick=1339200, channel=0, data=[36, 100]),
   midi.NoteOffEvent(tick=1339300, channel=0, data=[36, 0]),
   midi.NoteOnEvent(tick=1339400, channel=0, data=[36, 100]),
   midi.NoteOffEvent(tick=1339500, channel=0, data=[36, 0]),
   midi.NoteOnEvent(tick=1339600, channel=0, data=[36, 100]),
   midi.NoteOffEvent(tick=1339700, channel=0, data=[36, 0]),
   midi.NoteOnEvent(tick=1339800, channel=0, data=[36, 100]),
   midi.NoteOffEvent(tick=1339900, channel=0, data=[36, 0]),
   midi.NoteOnEvent(tick=1340000, channel=0, data=[36, 100]),
   midi.NoteOffEvent(tick=1340100, channel=0, data=[36, 0]),
   midi.NoteOnEvent(tick=1340200, channel=0, data=[2, 100]),
   midi.NoteOffEvent(tick=1340300, channel=0, data=[2, 0]),
   midi.NoteOnEvent(tick=1340400, channel=0, data=[46, 100]),
   midi.NoteOffEvent(tick=1340500, channel=0, data=[46, 0]),
   midi.NoteOnEvent(tick=1340600, channel=0, data=[78, 100]),
   midi.NoteOffEvent(tick=1340700, channel=0, data=[78, 0]),
   midi.NoteOnEvent(tick=1340800, channel=0, data=[15, 100]),
   midi.NoteOffEvent(tick=1340900, channel=0, data=[15, 0]),
   midi.NoteOnEvent(tick=1341000, channel=0, data=[18, 100]),
   midi.NoteOffEvent(tick=1341100, channel=0, data=[18, 0]),
   midi.NoteOnEvent(tick=1341200, channel=0, data=[73, 100]),
   midi.NoteOffEvent(tick=1341300, channel=0, data=[73, 0]),
   midi.NoteOnEvent(tick=1341400, channel=0, data=[36, 100]),
   midi.NoteOffEvent(tick=1341500, channel=0, data=[36, 0]),
   midi.NoteOnEvent(tick=1341600, channel=0, data=[74, 100]),
   midi.NoteOffEvent(tick=1341700, channel=0, data=[74, 0]),
   midi.NoteOnEvent(tick=1341800, channel=0, data=[0, 100]),
   midi.NoteOffEvent(tick=1341900, channel=0, data=[0, 0]),
   midi.NoteOnEvent(tick=1342000, channel=0, data=[36, 100]),
   midi.NoteOffEvent(tick=1342100, channel=0, data=[36, 0]),
   midi.NoteOnEvent(tick=1342200, channel=0, data=[69, 100]),
   midi.NoteOffEvent(tick=1342300, channel=0, data=[69, 0]),
   midi.NoteOnEvent(tick=1342400, channel=0, data=[36, 100]),
   midi.NoteOffEvent(tick=1342500, channel=0, data=[36, 0]),
   midi.NoteOnEvent(tick=1342600, channel=0, data=[30, 100]),
   midi.NoteOffEvent(tick=1342700, channel=0, data=[30, 0]),
   midi.NoteOnEvent(tick=1342800, channel=0, data=[56, 100]),
   midi.NoteOffEvent(tick=1342900, channel=0, data=[56, 0]),
   midi.NoteOnEvent(tick=1343000, channel=0, data=[36, 100]),
   midi.NoteOffEvent(tick=1343100, channel=0, data=[36, 0]),
   midi.NoteOnEvent(tick=1343200, channel=0, data=[36, 100]),
   midi.NoteOffEvent(tick=1343300, channel=0, data=[36, 0]),
   midi.NoteOnEvent(tick=1343400, channel=0, data=[36, 100]),
   midi.NoteOffEvent(tick=1343500, channel=0, data=[36, 0]),
   midi.NoteOnEvent(tick=1343600, channel=0, data=[36, 100]),
   midi.NoteOffEvent(tick=1343700, channel=0, data=[36, 0]),
   midi.NoteOnEvent(tick=1343800, channel=0, data=[36, 100]),
   midi.NoteOffEvent(tick=1343900, channel=0, data=[36, 0]),
   midi.NoteOnEvent(tick=1344000, channel=0, data=[36, 100]),
   midi.NoteOffEvent(tick=1344100, channel=0, data=[36, 0]),
   midi.NoteOnEvent(tick=1344200, channel=0, data=[36, 100]),
   midi.NoteOffEvent(tick=1344300, channel=0, data=[36, 0]),
   midi.NoteOnEvent(tick=1344400, channel=0, data=[36, 100]),
   midi.NoteOffEvent(tick=1344500, channel=0, data=[36, 0]),
   midi.NoteOnEvent(tick=1344600, channel=0, data=[2, 100]),
   midi.NoteOffEvent(tick=1344700, channel=0, data=[2, 0]),
   midi.NoteOnEvent(tick=1344800, channel=0, data=[46, 100]),
   midi.NoteOffEvent(tick=1344900, channel=0, data=[46, 0]),
   midi.NoteOnEvent(tick=1345000, channel=0, data=[78, 100]),
   midi.NoteOffEvent(tick=1345100, channel=0, data=[78, 0]),
   midi.NoteOnEvent(tick=1345200, channel=0, data=[15, 100]),
   midi.NoteOffEvent(tick=1345300, channel=0, data=[15, 0]),
   midi.NoteOnEvent(tick=1345400, channel=0, data=[18, 100]),
   midi.NoteOffEvent(tick=1345500, channel=0, data=[18, 0]),
   midi.NoteOnEvent(tick=1345600, channel=0, data=[73, 100]),
   midi.NoteOffEvent(tick=1345700, channel=0, data=[73, 0]),
   midi.NoteOnEvent(tick=1345800, channel=0, data=[36, 100]),
   midi.NoteOffEvent(tick=1345900, channel=0, data=[36, 0]),
   midi.NoteOnEvent(tick=1346000, channel=0, data=[74, 100]),
   midi.NoteOffEvent(tick=1346100, channel=0, data=[74, 0]),
   midi.NoteOnEvent(tick=1346200, channel=0, data=[0, 100]),
   midi.NoteOffEvent(tick=1346300, channel=0, data=[0, 0]),
   midi.NoteOnEvent(tick=1346400, channel=0, data=[36, 100]),
   midi.NoteOffEvent(tick=1346500, channel=0, data=[36, 0]),
   midi.NoteOnEvent(tick=1346600, channel=0, data=[55, 100]),
   midi.NoteOffEvent(tick=1346700, channel=0, data=[55, 0]),
   midi.NoteOnEvent(tick=1346800, channel=0, data=[69, 100]),
   midi.NoteOffEvent(tick=1346900, channel=0, data=[69, 0]),
   midi.NoteOnEvent(tick=1347000, channel=0, data=[36, 100]),
   midi.NoteOffEvent(tick=1347100, channel=0, data=[36, 0]),
   midi.NoteOnEvent(tick=1347200, channel=0, data=[28, 100]),
   midi.NoteOffEvent(tick=1347300, channel=0, data=[28, 0]),
   midi.NoteOnEvent(tick=1347400, channel=0, data=[56, 100]),
   midi.NoteOffEvent(tick=1347500, channel=0, data=[56, 0]),
   midi.NoteOnEvent(tick=1347600, channel=0, data=[36, 100]),
   midi.NoteOffEvent(tick=1347700, channel=0, data=[36, 0]),
   midi.NoteOnEvent(tick=1347800, channel=0, data=[36, 100]),
   midi.NoteOffEvent(tick=1347900, channel=0, data=[36, 0]),
   midi.NoteOnEvent(tick=1348000, channel=0, data=[36, 100]),
   midi.NoteOffEvent(tick=1348100, channel=0, data=[36, 0]),
   midi.NoteOnEvent(tick=1348200, channel=0, data=[36, 100]),
   midi.NoteOffEvent(tick=1348300, channel=0, data=[36, 0]),
   midi.NoteOnEvent(tick=1348400, channel=0, data=[36, 100]),
   midi.NoteOffEvent(tick=1348500, channel=0, data=[36, 0]),
   midi.NoteOnEvent(tick=1348600, channel=0, data=[36, 100]),
   midi.NoteOffEvent(tick=1348700, channel=0, data=[36, 0]),
   midi.NoteOnEvent(tick=1348800, channel=0, data=[36, 100]),
   midi.NoteOffEvent(tick=1348900, channel=0, data=[36, 0]),
   midi.NoteOnEvent(tick=1349000, channel=0, data=[36, 100]),
   midi.NoteOffEvent(tick=1349100, channel=0, data=[36, 0]),
   midi.NoteOnEvent(tick=1349200, channel=0, data=[2, 100]),
   midi.NoteOffEvent(tick=1349300, channel=0, data=[2, 0]),
   midi.NoteOnEvent(tick=1349400, channel=0, data=[46, 100]),
   midi.NoteOffEvent(tick=1349500, channel=0, data=[46, 0]),
   midi.NoteOnEvent(tick=1349600, channel=0, data=[78, 100]),
   midi.NoteOffEvent(tick=1349700, channel=0, data=[78, 0]),
   midi.NoteOnEvent(tick=1349800, channel=0, data=[15, 100]),
   midi.NoteOffEvent(tick=1349900, channel=0, data=[15, 0]),
   midi.NoteOnEvent(tick=1350000, channel=0, data=[18, 100]),
   midi.NoteOffEvent(tick=1350100, channel=0, data=[18, 0]),
   midi.NoteOnEvent(tick=1350200, channel=0, data=[73, 100]),
   midi.NoteOffEvent(tick=1350300, channel=0, data=[73, 0]),
   midi.NoteOnEvent(tick=1350400, channel=0, data=[36, 100]),
   midi.NoteOffEvent(tick=1350500, channel=0, data=[36, 0]),
   midi.NoteOnEvent(tick=1350600, channel=0, data=[74, 100]),
   midi.NoteOffEvent(tick=1350700, channel=0, data=[74, 0]),
   midi.NoteOnEvent(tick=1350800, channel=0, data=[0, 100]),
   midi.NoteOffEvent(tick=1350900, channel=0, data=[0, 0]),
   midi.NoteOnEvent(tick=1351000, channel=0, data=[56, 100]),
   midi.NoteOffEvent(tick=1351100, channel=0, data=[56, 0]),
   midi.NoteOnEvent(tick=1351200, channel=0, data=[36, 100]),
   midi.NoteOffEvent(tick=1351300, channel=0, data=[36, 0]),
   midi.NoteOnEvent(tick=1351400, channel=0, data=[36, 100]),
   midi.NoteOffEvent(tick=1351500, channel=0, data=[36, 0]),
   midi.NoteOnEvent(tick=1351600, channel=0, data=[36, 100]),
   midi.NoteOffEvent(tick=1351700, channel=0, data=[36, 0]),
   midi.NoteOnEvent(tick=1351800, channel=0, data=[36, 100]),
   midi.NoteOffEvent(tick=1351900, channel=0, data=[36, 0]),
   midi.NoteOnEvent(tick=1352000, channel=0, data=[36, 100]),
   midi.NoteOffEvent(tick=1352100, channel=0, data=[36, 0]),
   midi.NoteOnEvent(tick=1352200, channel=0, data=[36, 100]),
   midi.NoteOffEvent(tick=1352300, channel=0, data=[36, 0]),
   midi.NoteOnEvent(tick=1352400, channel=0, data=[36, 100]),
   midi.NoteOffEvent(tick=1352500, channel=0, data=[36, 0]),
   midi.NoteOnEvent(tick=1352600, channel=0, data=[36, 100]),
   midi.NoteOffEvent(tick=1352700, channel=0, data=[36, 0]),
   midi.NoteOnEvent(tick=1352800, channel=0, data=[32, 100]),
   midi.NoteOffEvent(tick=1352900, channel=0, data=[32, 0]),
   midi.NoteOnEvent(tick=1353000, channel=0, data=[56, 100]),
   midi.NoteOffEvent(tick=1353100, channel=0, data=[56, 0]),
   midi.NoteOnEvent(tick=1353200, channel=0, data=[36, 100]),
   midi.NoteOffEvent(tick=1353300, channel=0, data=[36, 0]),
   midi.NoteOnEvent(tick=1353400, channel=0, data=[56, 100]),
   midi.NoteOffEvent(tick=1353500, channel=0, data=[56, 0]),
   midi.NoteOnEvent(tick=1353600, channel=0, data=[56, 100]),
   midi.NoteOffEvent(tick=1353700, channel=0, data=[56, 0]),
   midi.NoteOnEvent(tick=1353800, channel=0, data=[36, 100]),
   midi.NoteOffEvent(tick=1353900, channel=0, data=[36, 0]),
   midi.NoteOnEvent(tick=1354000, channel=0, data=[36, 100]),
   midi.NoteOffEvent(tick=1354100, channel=0, data=[36, 0]),
   midi.NoteOnEvent(tick=1354200, channel=0, data=[36, 100]),
   midi.NoteOffEvent(tick=1354300, channel=0, data=[36, 0]),
   midi.NoteOnEvent(tick=1354400, channel=0, data=[36, 100]),
   midi.NoteOffEvent(tick=1354500, channel=0, data=[36, 0]),
   midi.NoteOnEvent(tick=1354600, channel=0, data=[22, 100]),
   midi.NoteOffEvent(tick=1354700, channel=0, data=[22, 0]),
   midi.NoteOnEvent(tick=1354800, channel=0, data=[7, 100]),
   midi.NoteOffEvent(tick=1354900, channel=0, data=[7, 0]),
   midi.NoteOnEvent(tick=1355000, channel=0, data=[4, 100]),
   midi.NoteOffEvent(tick=1355100, channel=0, data=[4, 0]),
   midi.NoteOnEvent(tick=1355200, channel=0, data=[13, 100]),
   midi.NoteOffEvent(tick=1355300, channel=0, data=[13, 0]),
   midi.NoteOnEvent(tick=1355400, channel=0, data=[36, 100]),
   midi.NoteOffEvent(tick=1355500, channel=0, data=[36, 0]),
   midi.NoteOnEvent(tick=1355600, channel=0, data=[19, 100]),
   midi.NoteOffEvent(tick=1355700, channel=0, data=[19, 0]),
   midi.NoteOnEvent(tick=1355800, channel=0, data=[7, 100]),
   midi.NoteOffEvent(tick=1355900, channel=0, data=[7, 0]),
   midi.NoteOnEvent(tick=1356000, channel=0, data=[4, 100]),
   midi.NoteOffEvent(tick=1356100, channel=0, data=[4, 0]),
   midi.NoteOnEvent(tick=1356200, channel=0, data=[36, 100]),
   midi.NoteOffEvent(tick=1356300, channel=0, data=[36, 0]),
   midi.NoteOnEvent(tick=1356400, channel=0, data=[21, 100]),
   midi.NoteOffEvent(tick=1356500, channel=0, data=[21, 0]),
   midi.NoteOnEvent(tick=1356600, channel=0, data=[0, 100]),
   midi.NoteOffEvent(tick=1356700, channel=0, data=[0, 0]),
   midi.NoteOnEvent(tick=1356800, channel=0, data=[11, 100]),
   midi.NoteOffEvent(tick=1356900, channel=0, data=[11, 0]),
   midi.NoteOnEvent(tick=1357000, channel=0, data=[20, 100]),
   midi.NoteOffEvent(tick=1357100, channel=0, data=[20, 0]),
   midi.NoteOnEvent(tick=1357200, channel=0, data=[4, 100]),
   midi.NoteOffEvent(tick=1357300, channel=0, data=[4, 0]),
   midi.NoteOnEvent(tick=1357400, channel=0, data=[36, 100]),
   midi.NoteOffEvent(tick=1357500, channel=0, data=[36, 0]),
   midi.NoteOnEvent(tick=1357600, channel=0, data=[14, 100]),
   midi.NoteOffEvent(tick=1357700, channel=0, data=[14, 0]),
   midi.NoteOnEvent(tick=1357800, channel=0, data=[5, 100]),
   midi.NoteOffEvent(tick=1357900, channel=0, data=[5, 0]),
   midi.NoteOnEvent(tick=1358000, channel=0, data=[36, 100]),
   midi.NoteOffEvent(tick=1358100, channel=0, data=[36, 0]),
   midi.NoteOnEvent(tick=1358200, channel=0, data=[19, 100]),
   midi.NoteOffEvent(tick=1358300, channel=0, data=[19, 0]),
   midi.NoteOnEvent(tick=1358400, channel=0, data=[7, 100]),
   midi.NoteOffEvent(tick=1358500, channel=0, data=[7, 0]),
   midi.NoteOnEvent(tick=1358600, channel=0, data=[4, 100]),
   midi.NoteOffEvent(tick=1358700, channel=0, data=[4, 0]),
   midi.NoteOnEvent(tick=1358800, channel=0, data=[36, 100]),
   midi.NoteOffEvent(tick=1358900, channel=0, data=[36, 0]),
   midi.NoteOnEvent(tick=1359000, channel=0, data=[21, 100]),
   midi.NoteOffEvent(tick=1359100, channel=0, data=[21, 0]),
   midi.NoteOnEvent(tick=1359200, channel=0, data=[0, 100]),
   midi.NoteOffEvent(tick=1359300, channel=0, data=[0, 0]),
   midi.NoteOnEvent(tick=1359400, channel=0, data=[17, 100]),
   midi.NoteOffEvent(tick=1359500, channel=0, data=[17, 0]),
   midi.NoteOnEvent(tick=1359600, channel=0, data=[8, 100]),
   midi.NoteOffEvent(tick=1359700, channel=0, data=[8, 0]),
   midi.NoteOnEvent(tick=1359800, channel=0, data=[0, 100]),
   midi.NoteOffEvent(tick=1359900, channel=0, data=[0, 0]),
   midi.NoteOnEvent(tick=1360000, channel=0, data=[1, 100]),
   midi.NoteOffEvent(tick=1360100, channel=0, data=[1, 0]),
   midi.NoteOnEvent(tick=1360200, channel=0, data=[11, 100]),
   midi.NoteOffEvent(tick=1360300, channel=0, data=[11, 0]),
   midi.NoteOnEvent(tick=1360400, channel=0, data=[4, 100]),
   midi.NoteOffEvent(tick=1360500, channel=0, data=[4, 0]),
   midi.NoteOnEvent(tick=1360600, channel=0, data=[36, 100]),
   midi.NoteOffEvent(tick=1360700, channel=0, data=[36, 0]),
   midi.NoteOnEvent(tick=1360800, channel=0, data=[8, 100]),
   midi.NoteOffEvent(tick=1360900, channel=0, data=[8, 0]),
   midi.NoteOnEvent(tick=1361000, channel=0, data=[18, 100]),
   midi.NoteOffEvent(tick=1361100, channel=0, data=[18, 0]),
   midi.NoteOnEvent(tick=1361200, channel=0, data=[36, 100]),
   midi.NoteOffEvent(tick=1361300, channel=0, data=[36, 0]),
   midi.NoteOnEvent(tick=1361400, channel=0, data=[0, 100]),
   midi.NoteOffEvent(tick=1361500, channel=0, data=[0, 0]),
   midi.NoteOnEvent(tick=1361600, channel=0, data=[36, 100]),
   midi.NoteOffEvent(tick=1361700, channel=0, data=[36, 0]),
   midi.NoteOnEvent(tick=1361800, channel=0, data=[18, 100]),
   midi.NoteOffEvent(tick=1361900, channel=0, data=[18, 0]),
   midi.NoteOnEvent(tick=1362000, channel=0, data=[19, 100]),
   midi.NoteOffEvent(tick=1362100, channel=0, data=[19, 0]),
   midi.NoteOnEvent(tick=1362200, channel=0, data=[17, 100]),
   midi.NoteOffEvent(tick=1362300, channel=0, data=[17, 0]),
   midi.NoteOnEvent(tick=1362400, channel=0, data=[8, 100]),
   midi.NoteOffEvent(tick=1362500, channel=0, data=[8, 0]),
   midi.NoteOnEvent(tick=1362600, channel=0, data=[13, 100]),
   midi.NoteOffEvent(tick=1362700, channel=0, data=[13, 0]),
   midi.NoteOnEvent(tick=1362800, channel=0, data=[6, 100]),
   midi.NoteOffEvent(tick=1362900, channel=0, data=[6, 0]),
   midi.NoteOnEvent(tick=1363000, channel=0, data=[38, 100]),
   midi.NoteOffEvent(tick=1363100, channel=0, data=[38, 0]),
   midi.NoteOnEvent(tick=1363200, channel=0, data=[36, 100]),
   midi.NoteOffEvent(tick=1363300, channel=0, data=[36, 0]),
   midi.NoteOnEvent(tick=1363400, channel=0, data=[19, 100]),
   midi.NoteOffEvent(tick=1363500, channel=0, data=[19, 0]),
   midi.NoteOnEvent(tick=1363600, channel=0, data=[7, 100]),
   midi.NoteOffEvent(tick=1363700, channel=0, data=[7, 0]),
   midi.NoteOnEvent(tick=1363800, channel=0, data=[4, 100]),
   midi.NoteOffEvent(tick=1363900, channel=0, data=[4, 0]),
   midi.NoteOnEvent(tick=1364000, channel=0, data=[36, 100]),
   midi.NoteOffEvent(tick=1364100, channel=0, data=[36, 0]),
   midi.NoteOnEvent(tick=1364200, channel=0, data=[21, 100]),
   midi.NoteOffEvent(tick=1364300, channel=0, data=[21, 0]),
   midi.NoteOnEvent(tick=1364400, channel=0, data=[0, 100]),
   midi.NoteOffEvent(tick=1364500, channel=0, data=[0, 0]),
   midi.NoteOnEvent(tick=1364600, channel=0, data=[11, 100]),
   midi.NoteOffEvent(tick=1364700, channel=0, data=[11, 0]),
   midi.NoteOnEvent(tick=1364800, channel=0, data=[20, 100]),
   midi.NoteOffEvent(tick=1364900, channel=0, data=[20, 0]),
   midi.NoteOnEvent(tick=1365000, channel=0, data=[4, 100]),
   midi.NoteOffEvent(tick=1365100, channel=0, data=[4, 0]),
   midi.NoteOnEvent(tick=1365200, channel=0, data=[36, 100]),
   midi.NoteOffEvent(tick=1365300, channel=0, data=[36, 0]),
   midi.NoteOnEvent(tick=1365400, channel=0, data=[14, 100]),
   midi.NoteOffEvent(tick=1365500, channel=0, data=[14, 0]),
   midi.NoteOnEvent(tick=1365600, channel=0, data=[13, 100]),
   midi.NoteOffEvent(tick=1365700, channel=0, data=[13, 0]),
   midi.NoteOnEvent(tick=1365800, channel=0, data=[36, 100]),
   midi.NoteOffEvent(tick=1365900, channel=0, data=[36, 0]),
   midi.NoteOnEvent(tick=1366000, channel=0, data=[19, 100]),
   midi.NoteOffEvent(tick=1366100, channel=0, data=[19, 0]),
   midi.NoteOnEvent(tick=1366200, channel=0, data=[7, 100]),
   midi.NoteOffEvent(tick=1366300, channel=0, data=[7, 0]),
   midi.NoteOnEvent(tick=1366400, channel=0, data=[4, 100]),
   midi.NoteOffEvent(tick=1366500, channel=0, data=[4, 0]),
   midi.NoteOnEvent(tick=1366600, channel=0, data=[36, 100]),
   midi.NoteOffEvent(tick=1366700, channel=0, data=[36, 0]),
   midi.NoteOnEvent(tick=1366800, channel=0, data=[17, 100]),
   midi.NoteOffEvent(tick=1366900, channel=0, data=[17, 0]),
   midi.NoteOnEvent(tick=1367000, channel=0, data=[8, 100]),
   midi.NoteOffEvent(tick=1367100, channel=0, data=[8, 0]),
   midi.NoteOnEvent(tick=1367200, channel=0, data=[6, 100]),
   midi.NoteOffEvent(tick=1367300, channel=0, data=[6, 0]),
   midi.NoteOnEvent(tick=1367400, channel=0, data=[7, 100]),
   midi.NoteOffEvent(tick=1367500, channel=0, data=[7, 0]),
   midi.NoteOnEvent(tick=1367600, channel=0, data=[19, 100]),
   midi.NoteOffEvent(tick=1367700, channel=0, data=[19, 0]),
   midi.NoteOnEvent(tick=1367800, channel=0, data=[36, 100]),
   midi.NoteOffEvent(tick=1367900, channel=0, data=[36, 0]),
   midi.NoteOnEvent(tick=1368000, channel=0, data=[18, 100]),
   midi.NoteOffEvent(tick=1368100, channel=0, data=[18, 0]),
   midi.NoteOnEvent(tick=1368200, channel=0, data=[8, 100]),
   midi.NoteOffEvent(tick=1368300, channel=0, data=[8, 0]),
   midi.NoteOnEvent(tick=1368400, channel=0, data=[3, 100]),
   midi.NoteOffEvent(tick=1368500, channel=0, data=[3, 0]),
   midi.NoteOnEvent(tick=1368600, channel=0, data=[4, 100]),
   midi.NoteOffEvent(tick=1368700, channel=0, data=[4, 0]),
   midi.NoteOnEvent(tick=1368800, channel=0, data=[36, 100]),
   midi.NoteOffEvent(tick=1368900, channel=0, data=[36, 0]),
   midi.NoteOnEvent(tick=1369000, channel=0, data=[14, 100]),
   midi.NoteOffEvent(tick=1369100, channel=0, data=[14, 0]),
   midi.NoteOnEvent(tick=1369200, channel=0, data=[5, 100]),
   midi.NoteOffEvent(tick=1369300, channel=0, data=[5, 0]),
   midi.NoteOnEvent(tick=1369400, channel=0, data=[36, 100]),
   midi.NoteOffEvent(tick=1369500, channel=0, data=[36, 0]),
   midi.NoteOnEvent(tick=1369600, channel=0, data=[56, 100]),
   midi.NoteOffEvent(tick=1369700, channel=0, data=[56, 0]),
   midi.NoteOnEvent(tick=1369800, channel=0, data=[36, 100]),
   midi.NoteOffEvent(tick=1369900, channel=0, data=[36, 0]),
   midi.NoteOnEvent(tick=1370000, channel=0, data=[36, 100]),
   midi.NoteOffEvent(tick=1370100, channel=0, data=[36, 0]),
   midi.NoteOnEvent(tick=1370200, channel=0, data=[36, 100]),
   midi.NoteOffEvent(tick=1370300, channel=0, data=[36, 0]),
   midi.NoteOnEvent(tick=1370400, channel=0, data=[36, 100]),
   midi.NoteOffEvent(tick=1370500, channel=0, data=[36, 0]),
   midi.NoteOnEvent(tick=1370600, channel=0, data=[19, 100]),
   midi.NoteOffEvent(tick=1370700, channel=0, data=[19, 0]),
   midi.NoteOnEvent(tick=1370800, channel=0, data=[7, 100]),
   midi.NoteOffEvent(tick=1370900, channel=0, data=[7, 0]),
   midi.NoteOnEvent(tick=1371000, channel=0, data=[4, 100]),
   midi.NoteOffEvent(tick=1371100, channel=0, data=[4, 0]),
   midi.NoteOnEvent(tick=1371200, channel=0, data=[36, 100]),
   midi.NoteOffEvent(tick=1371300, channel=0, data=[36, 0]),
   midi.NoteOnEvent(tick=1371400, channel=0, data=[14, 100]),
   midi.NoteOffEvent(tick=1371500, channel=0, data=[14, 0]),
   midi.NoteOnEvent(tick=1371600, channel=0, data=[15, 100]),
   midi.NoteOffEvent(tick=1371700, channel=0, data=[15, 0]),
   midi.NoteOnEvent(tick=1371800, channel=0, data=[4, 100]),
   midi.NoteOffEvent(tick=1371900, channel=0, data=[4, 0]),
   midi.NoteOnEvent(tick=1372000, channel=0, data=[17, 100]),
   midi.NoteOffEvent(tick=1372100, channel=0, data=[17, 0]),
   midi.NoteOnEvent(tick=1372200, channel=0, data=[0, 100]),
   midi.NoteOffEvent(tick=1372300, channel=0, data=[0, 0]),
   midi.NoteOnEvent(tick=1372400, channel=0, data=[19, 100]),
   midi.NoteOffEvent(tick=1372500, channel=0, data=[19, 0]),
   midi.NoteOnEvent(tick=1372600, channel=0, data=[14, 100]),
   midi.NoteOffEvent(tick=1372700, channel=0, data=[14, 0]),
   midi.NoteOnEvent(tick=1372800, channel=0, data=[17, 100]),
   midi.NoteOffEvent(tick=1372900, channel=0, data=[17, 0]),
   midi.NoteOnEvent(tick=1373000, channel=0, data=[36, 100]),
   midi.NoteOffEvent(tick=1373100, channel=0, data=[36, 0]),
   midi.NoteOnEvent(tick=1373200, channel=0, data=[8, 100]),
   midi.NoteOffEvent(tick=1373300, channel=0, data=[8, 0]),
   midi.NoteOnEvent(tick=1373400, channel=0, data=[18, 100]),
   midi.NoteOffEvent(tick=1373500, channel=0, data=[18, 0]),
   midi.NoteOnEvent(tick=1373600, channel=0, data=[36, 100]),
   midi.NoteOffEvent(tick=1373700, channel=0, data=[36, 0]),
   midi.NoteOnEvent(tick=1373800, channel=0, data=[0, 100]),
   midi.NoteOffEvent(tick=1373900, channel=0, data=[0, 0]),
   midi.NoteOnEvent(tick=1374000, channel=0, data=[15, 100]),
   midi.NoteOffEvent(tick=1374100, channel=0, data=[15, 0]),
   midi.NoteOnEvent(tick=1374200, channel=0, data=[15, 100]),
   midi.NoteOffEvent(tick=1374300, channel=0, data=[15, 0]),
   midi.NoteOnEvent(tick=1374400, channel=0, data=[4, 100]),
   midi.NoteOffEvent(tick=1374500, channel=0, data=[4, 0]),
   midi.NoteOnEvent(tick=1374600, channel=0, data=[13, 100]),
   midi.NoteOffEvent(tick=1374700, channel=0, data=[13, 0]),
   midi.NoteOnEvent(tick=1374800, channel=0, data=[3, 100]),
   midi.NoteOffEvent(tick=1374900, channel=0, data=[3, 0]),
   midi.NoteOnEvent(tick=1375000, channel=0, data=[4, 100]),
   midi.NoteOffEvent(tick=1375100, channel=0, data=[4, 0]),
   midi.NoteOnEvent(tick=1375200, channel=0, data=[3, 100]),
   midi.NoteOffEvent(tick=1375300, channel=0, data=[3, 0]),
   midi.NoteOnEvent(tick=1375400, channel=0, data=[36, 100]),
   midi.NoteOffEvent(tick=1375500, channel=0, data=[36, 0]),
   midi.NoteOnEvent(tick=1375600, channel=0, data=[19, 100]),
   midi.NoteOffEvent(tick=1375700, channel=0, data=[19, 0]),
   midi.NoteOnEvent(tick=1375800, channel=0, data=[14, 100]),
   midi.NoteOffEvent(tick=1375900, channel=0, data=[14, 0]),
   midi.NoteOnEvent(tick=1376000, channel=0, data=[36, 100]),
   midi.NoteOffEvent(tick=1376100, channel=0, data=[36, 0]),
   midi.NoteOnEvent(tick=1376200, channel=0, data=[19, 100]),
   midi.NoteOffEvent(tick=1376300, channel=0, data=[19, 0]),
   midi.NoteOnEvent(tick=1376400, channel=0, data=[7, 100]),
   midi.NoteOffEvent(tick=1376500, channel=0, data=[7, 0]),
   midi.NoteOnEvent(tick=1376600, channel=0, data=[4, 100]),
   midi.NoteOffEvent(tick=1376700, channel=0, data=[4, 0]),
   midi.NoteOnEvent(tick=1376800, channel=0, data=[36, 100]),
   midi.NoteOffEvent(tick=1376900, channel=0, data=[36, 0]),
   midi.NoteOnEvent(tick=1377000, channel=0, data=[18, 100]),
   midi.NoteOffEvent(tick=1377100, channel=0, data=[18, 0]),
   midi.NoteOnEvent(tick=1377200, channel=0, data=[19, 100]),
   midi.NoteOffEvent(tick=1377300, channel=0, data=[19, 0]),
   midi.NoteOnEvent(tick=1377400, channel=0, data=[17, 100]),
   midi.NoteOffEvent(tick=1377500, channel=0, data=[17, 0]),
   midi.NoteOnEvent(tick=1377600, channel=0, data=[8, 100]),
   midi.NoteOffEvent(tick=1377700, channel=0, data=[8, 0]),
   midi.NoteOnEvent(tick=1377800, channel=0, data=[13, 100]),
   midi.NoteOffEvent(tick=1377900, channel=0, data=[13, 0]),
   midi.NoteOnEvent(tick=1378000, channel=0, data=[6, 100]),
   midi.NoteOffEvent(tick=1378100, channel=0, data=[6, 0]),
   midi.NoteOnEvent(tick=1378200, channel=0, data=[38, 100]),
   midi.NoteOffEvent(tick=1378300, channel=0, data=[38, 0]),
   midi.NoteOnEvent(tick=1378400, channel=0, data=[36, 100]),
   midi.NoteOffEvent(tick=1378500, channel=0, data=[36, 0]),
   midi.NoteOnEvent(tick=1378600, channel=0, data=[0, 100]),
   midi.NoteOffEvent(tick=1378700, channel=0, data=[0, 0]),
   midi.NoteOnEvent(tick=1378800, channel=0, data=[18, 100]),
   midi.NoteOffEvent(tick=1378900, channel=0, data=[18, 0]),
   midi.NoteOnEvent(tick=1379000, channel=0, data=[36, 100]),
   midi.NoteOffEvent(tick=1379100, channel=0, data=[36, 0]),
   midi.NoteOnEvent(tick=1379200, channel=0, data=[5, 100]),
   midi.NoteOffEvent(tick=1379300, channel=0, data=[5, 0]),
   midi.NoteOnEvent(tick=1379400, channel=0, data=[14, 100]),
   midi.NoteOffEvent(tick=1379500, channel=0, data=[14, 0]),
   midi.NoteOnEvent(tick=1379600, channel=0, data=[11, 100]),
   midi.NoteOffEvent(tick=1379700, channel=0, data=[11, 0]),
   midi.NoteOnEvent(tick=1379800, channel=0, data=[11, 100]),
   midi.NoteOffEvent(tick=1379900, channel=0, data=[11, 0]),
   midi.NoteOnEvent(tick=1380000, channel=0, data=[14, 100]),
   midi.NoteOffEvent(tick=1380100, channel=0, data=[14, 0]),
   midi.NoteOnEvent(tick=1380200, channel=0, data=[22, 100]),
   midi.NoteOffEvent(tick=1380300, channel=0, data=[22, 0]),
   midi.NoteOnEvent(tick=1380400, channel=0, data=[18, 100]),
   midi.NoteOffEvent(tick=1380500, channel=0, data=[18, 0]),
   midi.NoteOnEvent(tick=1380600, channel=0, data=[46, 100]),
   midi.NoteOffEvent(tick=1380700, channel=0, data=[46, 0]),
   midi.NoteOnEvent(tick=1380800, channel=0, data=[36, 100]),
   midi.NoteOffEvent(tick=1380900, channel=0, data=[36, 0]),
   midi.NoteOnEvent(tick=1381000, channel=0, data=[56, 100]),
   midi.NoteOffEvent(tick=1381100, channel=0, data=[56, 0]),
   midi.NoteOnEvent(tick=1381200, channel=0, data=[56, 100]),
   midi.NoteOffEvent(tick=1381300, channel=0, data=[56, 0]),
   midi.NoteOnEvent(tick=1381400, channel=0, data=[56, 100]),
   midi.NoteOffEvent(tick=1381500, channel=0, data=[56, 0]),
   midi.NoteOnEvent(tick=1381600, channel=0, data=[36, 100]),
   midi.NoteOffEvent(tick=1381700, channel=0, data=[36, 0]),
   midi.NoteOnEvent(tick=1381800, channel=0, data=[36, 100]),
   midi.NoteOffEvent(tick=1381900, channel=0, data=[36, 0]),
   midi.NoteOnEvent(tick=1382000, channel=0, data=[36, 100]),
   midi.NoteOffEvent(tick=1382100, channel=0, data=[36, 0]),
   midi.NoteOnEvent(tick=1382200, channel=0, data=[36, 100]),
   midi.NoteOffEvent(tick=1382300, channel=0, data=[36, 0]),
   midi.NoteOnEvent(tick=1382400, channel=0, data=[36, 100]),
   midi.NoteOffEvent(tick=1382500, channel=0, data=[36, 0]),
   midi.NoteOnEvent(tick=1382600, channel=0, data=[36, 100]),
   midi.NoteOffEvent(tick=1382700, channel=0, data=[36, 0]),
   midi.NoteOnEvent(tick=1382800, channel=0, data=[36, 100]),
   midi.NoteOffEvent(tick=1382900, channel=0, data=[36, 0]),
   midi.NoteOnEvent(tick=1383000, channel=0, data=[36, 100]),
   midi.NoteOffEvent(tick=1383100, channel=0, data=[36, 0]),
   midi.NoteOnEvent(tick=1383200, channel=0, data=[2, 100]),
   midi.NoteOffEvent(tick=1383300, channel=0, data=[2, 0]),
   midi.NoteOnEvent(tick=1383400, channel=0, data=[46, 100]),
   midi.NoteOffEvent(tick=1383500, channel=0, data=[46, 0]),
   midi.NoteOnEvent(tick=1383600, channel=0, data=[78, 100]),
   midi.NoteOffEvent(tick=1383700, channel=0, data=[78, 0]),
   midi.NoteOnEvent(tick=1383800, channel=0, data=[15, 100]),
   midi.NoteOffEvent(tick=1383900, channel=0, data=[15, 0]),
   midi.NoteOnEvent(tick=1384000, channel=0, data=[18, 100]),
   midi.NoteOffEvent(tick=1384100, channel=0, data=[18, 0]),
   midi.NoteOnEvent(tick=1384200, channel=0, data=[73, 100]),
   midi.NoteOffEvent(tick=1384300, channel=0, data=[73, 0]),
   midi.NoteOnEvent(tick=1384400, channel=0, data=[36, 100]),
   midi.NoteOffEvent(tick=1384500, channel=0, data=[36, 0]),
   midi.NoteOnEvent(tick=1384600, channel=0, data=[74, 100]),
   midi.NoteOffEvent(tick=1384700, channel=0, data=[74, 0]),
   midi.NoteOnEvent(tick=1384800, channel=0, data=[0, 100]),
   midi.NoteOffEvent(tick=1384900, channel=0, data=[0, 0]),
   midi.NoteOnEvent(tick=1385000, channel=0, data=[36, 100]),
   midi.NoteOffEvent(tick=1385100, channel=0, data=[36, 0]),
   midi.NoteOnEvent(tick=1385200, channel=0, data=[69, 100]),
   midi.NoteOffEvent(tick=1385300, channel=0, data=[69, 0]),
   midi.NoteOnEvent(tick=1385400, channel=0, data=[36, 100]),
   midi.NoteOffEvent(tick=1385500, channel=0, data=[36, 0]),
   midi.NoteOnEvent(tick=1385600, channel=0, data=[41, 100]),
   midi.NoteOffEvent(tick=1385700, channel=0, data=[41, 0]),
   midi.NoteOnEvent(tick=1385800, channel=0, data=[22, 100]),
   midi.NoteOffEvent(tick=1385900, channel=0, data=[22, 0]),
   midi.NoteOnEvent(tick=1386000, channel=0, data=[8, 100]),
   midi.NoteOffEvent(tick=1386100, channel=0, data=[8, 0]),
   midi.NoteOnEvent(tick=1386200, channel=0, data=[13, 100]),
   midi.NoteOffEvent(tick=1386300, channel=0, data=[13, 0]),
   midi.NoteOnEvent(tick=1386400, channel=0, data=[3, 100]),
   midi.NoteOffEvent(tick=1386500, channel=0, data=[3, 0]),
   midi.NoteOnEvent(tick=1386600, channel=0, data=[14, 100]),
   midi.NoteOffEvent(tick=1386700, channel=0, data=[14, 0]),
   midi.NoteOnEvent(tick=1386800, channel=0, data=[22, 100]),
   midi.NoteOffEvent(tick=1386900, channel=0, data=[22, 0]),
   midi.NoteOnEvent(tick=1387000, channel=0, data=[18, 100]),
   midi.NoteOffEvent(tick=1387100, channel=0, data=[18, 0]),
   midi.NoteOnEvent(tick=1387200, channel=0, data=[41, 100]),
   midi.NoteOffEvent(tick=1387300, channel=0, data=[41, 0]),
   midi.NoteOnEvent(tick=1387400, channel=0, data=[56, 100]),
   midi.NoteOffEvent(tick=1387500, channel=0, data=[56, 0]),
   midi.NoteOnEvent(tick=1387600, channel=0, data=[36, 100]),
   midi.NoteOffEvent(tick=1387700, channel=0, data=[36, 0]),
   midi.NoteOnEvent(tick=1387800, channel=0, data=[36, 100]),
   midi.NoteOffEvent(tick=1387900, channel=0, data=[36, 0]),
   midi.NoteOnEvent(tick=1388000, channel=0, data=[36, 100]),
   midi.NoteOffEvent(tick=1388100, channel=0, data=[36, 0]),
   midi.NoteOnEvent(tick=1388200, channel=0, data=[36, 100]),
   midi.NoteOffEvent(tick=1388300, channel=0, data=[36, 0]),
   midi.NoteOnEvent(tick=1388400, channel=0, data=[36, 100]),
   midi.NoteOffEvent(tick=1388500, channel=0, data=[36, 0]),
   midi.NoteOnEvent(tick=1388600, channel=0, data=[36, 100]),
   midi.NoteOffEvent(tick=1388700, channel=0, data=[36, 0]),
   midi.NoteOnEvent(tick=1388800, channel=0, data=[36, 100]),
   midi.NoteOffEvent(tick=1388900, channel=0, data=[36, 0]),
   midi.NoteOnEvent(tick=1389000, channel=0, data=[36, 100]),
   midi.NoteOffEvent(tick=1389100, channel=0, data=[36, 0]),
   midi.NoteOnEvent(tick=1389200, channel=0, data=[2, 100]),
   midi.NoteOffEvent(tick=1389300, channel=0, data=[2, 0]),
   midi.NoteOnEvent(tick=1389400, channel=0, data=[46, 100]),
   midi.NoteOffEvent(tick=1389500, channel=0, data=[46, 0]),
   midi.NoteOnEvent(tick=1389600, channel=0, data=[78, 100]),
   midi.NoteOffEvent(tick=1389700, channel=0, data=[78, 0]),
   midi.NoteOnEvent(tick=1389800, channel=0, data=[15, 100]),
   midi.NoteOffEvent(tick=1389900, channel=0, data=[15, 0]),
   midi.NoteOnEvent(tick=1390000, channel=0, data=[18, 100]),
   midi.NoteOffEvent(tick=1390100, channel=0, data=[18, 0]),
   midi.NoteOnEvent(tick=1390200, channel=0, data=[73, 100]),
   midi.NoteOffEvent(tick=1390300, channel=0, data=[73, 0]),
   midi.NoteOnEvent(tick=1390400, channel=0, data=[36, 100]),
   midi.NoteOffEvent(tick=1390500, channel=0, data=[36, 0]),
   midi.NoteOnEvent(tick=1390600, channel=0, data=[74, 100]),
   midi.NoteOffEvent(tick=1390700, channel=0, data=[74, 0]),
   midi.NoteOnEvent(tick=1390800, channel=0, data=[0, 100]),
   midi.NoteOffEvent(tick=1390900, channel=0, data=[0, 0]),
   midi.NoteOnEvent(tick=1391000, channel=0, data=[36, 100]),
   midi.NoteOffEvent(tick=1391100, channel=0, data=[36, 0]),
   midi.NoteOnEvent(tick=1391200, channel=0, data=[55, 100]),
   midi.NoteOffEvent(tick=1391300, channel=0, data=[55, 0]),
   midi.NoteOnEvent(tick=1391400, channel=0, data=[45, 100]),
   midi.NoteOffEvent(tick=1391500, channel=0, data=[45, 0]),
   midi.NoteOnEvent(tick=1391600, channel=0, data=[36, 100]),
   midi.NoteOffEvent(tick=1391700, channel=0, data=[36, 0]),
   midi.NoteOnEvent(tick=1391800, channel=0, data=[41, 100]),
   midi.NoteOffEvent(tick=1391900, channel=0, data=[41, 0]),
   midi.NoteOnEvent(tick=1392000, channel=0, data=[36, 100]),
   midi.NoteOffEvent(tick=1392100, channel=0, data=[36, 0]),
   midi.NoteOnEvent(tick=1392200, channel=0, data=[15, 100]),
   midi.NoteOffEvent(tick=1392300, channel=0, data=[15, 0]),
   midi.NoteOnEvent(tick=1392400, channel=0, data=[14, 100]),
   midi.NoteOffEvent(tick=1392500, channel=0, data=[14, 0]),
   midi.NoteOnEvent(tick=1392600, channel=0, data=[22, 100]),
   midi.NoteOffEvent(tick=1392700, channel=0, data=[22, 0]),
   midi.NoteOnEvent(tick=1392800, channel=0, data=[4, 100]),
   midi.NoteOffEvent(tick=1392900, channel=0, data=[4, 0]),
   midi.NoteOnEvent(tick=1393000, channel=0, data=[17, 100]),
   midi.NoteOffEvent(tick=1393100, channel=0, data=[17, 0]),
   midi.NoteOnEvent(tick=1393200, channel=0, data=[18, 100]),
   midi.NoteOffEvent(tick=1393300, channel=0, data=[18, 0]),
   midi.NoteOnEvent(tick=1393400, channel=0, data=[7, 100]),
   midi.NoteOffEvent(tick=1393500, channel=0, data=[7, 0]),
   midi.NoteOnEvent(tick=1393600, channel=0, data=[4, 100]),
   midi.NoteOffEvent(tick=1393700, channel=0, data=[4, 0]),
   midi.NoteOnEvent(tick=1393800, channel=0, data=[11, 100]),
   midi.NoteOffEvent(tick=1393900, channel=0, data=[11, 0]),
   midi.NoteOnEvent(tick=1394000, channel=0, data=[11, 100]),
   midi.NoteOffEvent(tick=1394100, channel=0, data=[11, 0]),
   midi.NoteOnEvent(tick=1394200, channel=0, data=[41, 100]),
   midi.NoteOffEvent(tick=1394300, channel=0, data=[41, 0]),
   midi.NoteOnEvent(tick=1394400, channel=0, data=[56, 100]),
   midi.NoteOffEvent(tick=1394500, channel=0, data=[56, 0]),
   midi.NoteOnEvent(tick=1394600, channel=0, data=[36, 100]),
   midi.NoteOffEvent(tick=1394700, channel=0, data=[36, 0]),
   midi.NoteOnEvent(tick=1394800, channel=0, data=[36, 100]),
   midi.NoteOffEvent(tick=1394900, channel=0, data=[36, 0]),
   midi.NoteOnEvent(tick=1395000, channel=0, data=[36, 100]),
   midi.NoteOffEvent(tick=1395100, channel=0, data=[36, 0]),
   midi.NoteOnEvent(tick=1395200, channel=0, data=[36, 100]),
   midi.NoteOffEvent(tick=1395300, channel=0, data=[36, 0]),
   midi.NoteOnEvent(tick=1395400, channel=0, data=[36, 100]),
   midi.NoteOffEvent(tick=1395500, channel=0, data=[36, 0]),
   midi.NoteOnEvent(tick=1395600, channel=0, data=[36, 100]),
   midi.NoteOffEvent(tick=1395700, channel=0, data=[36, 0]),
   midi.NoteOnEvent(tick=1395800, channel=0, data=[36, 100]),
   midi.NoteOffEvent(tick=1395900, channel=0, data=[36, 0]),
   midi.NoteOnEvent(tick=1396000, channel=0, data=[36, 100]),
   midi.NoteOffEvent(tick=1396100, channel=0, data=[36, 0]),
   midi.NoteOnEvent(tick=1396200, channel=0, data=[2, 100]),
   midi.NoteOffEvent(tick=1396300, channel=0, data=[2, 0]),
   midi.NoteOnEvent(tick=1396400, channel=0, data=[46, 100]),
   midi.NoteOffEvent(tick=1396500, channel=0, data=[46, 0]),
   midi.NoteOnEvent(tick=1396600, channel=0, data=[78, 100]),
   midi.NoteOffEvent(tick=1396700, channel=0, data=[78, 0]),
   midi.NoteOnEvent(tick=1396800, channel=0, data=[15, 100]),
   midi.NoteOffEvent(tick=1396900, channel=0, data=[15, 0]),
   midi.NoteOnEvent(tick=1397000, channel=0, data=[18, 100]),
   midi.NoteOffEvent(tick=1397100, channel=0, data=[18, 0]),
   midi.NoteOnEvent(tick=1397200, channel=0, data=[73, 100]),
   midi.NoteOffEvent(tick=1397300, channel=0, data=[73, 0]),
   midi.NoteOnEvent(tick=1397400, channel=0, data=[36, 100]),
   midi.NoteOffEvent(tick=1397500, channel=0, data=[36, 0]),
   midi.NoteOnEvent(tick=1397600, channel=0, data=[74, 100]),
   midi.NoteOffEvent(tick=1397700, channel=0, data=[74, 0]),
   midi.NoteOnEvent(tick=1397800, channel=0, data=[0, 100]),
   midi.NoteOffEvent(tick=1397900, channel=0, data=[0, 0]),
   midi.NoteOnEvent(tick=1398000, channel=0, data=[56, 100]),
   midi.NoteOffEvent(tick=1398100, channel=0, data=[56, 0]),
   midi.NoteOnEvent(tick=1398200, channel=0, data=[36, 100]),
   midi.NoteOffEvent(tick=1398300, channel=0, data=[36, 0]),
   midi.NoteOnEvent(tick=1398400, channel=0, data=[36, 100]),
   midi.NoteOffEvent(tick=1398500, channel=0, data=[36, 0]),
   midi.NoteOnEvent(tick=1398600, channel=0, data=[36, 100]),
   midi.NoteOffEvent(tick=1398700, channel=0, data=[36, 0]),
   midi.NoteOnEvent(tick=1398800, channel=0, data=[36, 100]),
   midi.NoteOffEvent(tick=1398900, channel=0, data=[36, 0]),
   midi.NoteOnEvent(tick=1399000, channel=0, data=[36, 100]),
   midi.NoteOffEvent(tick=1399100, channel=0, data=[36, 0]),
   midi.NoteOnEvent(tick=1399200, channel=0, data=[36, 100]),
   midi.NoteOffEvent(tick=1399300, channel=0, data=[36, 0]),
   midi.NoteOnEvent(tick=1399400, channel=0, data=[36, 100]),
   midi.NoteOffEvent(tick=1399500, channel=0, data=[36, 0]),
   midi.NoteOnEvent(tick=1399600, channel=0, data=[36, 100]),
   midi.NoteOffEvent(tick=1399700, channel=0, data=[36, 0]),
   midi.NoteOnEvent(tick=1399800, channel=0, data=[22, 100]),
   midi.NoteOffEvent(tick=1399900, channel=0, data=[22, 0]),
   midi.NoteOnEvent(tick=1400000, channel=0, data=[8, 100]),
   midi.NoteOffEvent(tick=1400100, channel=0, data=[8, 0]),
   midi.NoteOnEvent(tick=1400200, channel=0, data=[13, 100]),
   midi.NoteOffEvent(tick=1400300, channel=0, data=[13, 0]),
   midi.NoteOnEvent(tick=1400400, channel=0, data=[3, 100]),
   midi.NoteOffEvent(tick=1400500, channel=0, data=[3, 0]),
   midi.NoteOnEvent(tick=1400600, channel=0, data=[14, 100]),
   midi.NoteOffEvent(tick=1400700, channel=0, data=[14, 0]),
   midi.NoteOnEvent(tick=1400800, channel=0, data=[22, 100]),
   midi.NoteOffEvent(tick=1400900, channel=0, data=[22, 0]),
   midi.NoteOnEvent(tick=1401000, channel=0, data=[18, 100]),
   midi.NoteOffEvent(tick=1401100, channel=0, data=[18, 0]),
   midi.NoteOnEvent(tick=1401200, channel=0, data=[36, 100]),
   midi.NoteOffEvent(tick=1401300, channel=0, data=[36, 0]),
   midi.NoteOnEvent(tick=1401400, channel=0, data=[15, 100]),
   midi.NoteOffEvent(tick=1401500, channel=0, data=[15, 0]),
   midi.NoteOnEvent(tick=1401600, channel=0, data=[14, 100]),
   midi.NoteOffEvent(tick=1401700, channel=0, data=[14, 0]),
   midi.NoteOnEvent(tick=1401800, channel=0, data=[22, 100]),
   midi.NoteOffEvent(tick=1401900, channel=0, data=[22, 0]),
   midi.NoteOnEvent(tick=1402000, channel=0, data=[4, 100]),
   midi.NoteOffEvent(tick=1402100, channel=0, data=[4, 0]),
   midi.NoteOnEvent(tick=1402200, channel=0, data=[17, 100]),
   midi.NoteOffEvent(tick=1402300, channel=0, data=[17, 0]),
   midi.NoteOnEvent(tick=1402400, channel=0, data=[18, 100]),
   midi.NoteOffEvent(tick=1402500, channel=0, data=[18, 0]),
   midi.NoteOnEvent(tick=1402600, channel=0, data=[7, 100]),
   midi.NoteOffEvent(tick=1402700, channel=0, data=[7, 0]),
   midi.NoteOnEvent(tick=1402800, channel=0, data=[4, 100]),
   midi.NoteOffEvent(tick=1402900, channel=0, data=[4, 0]),
   midi.NoteOnEvent(tick=1403000, channel=0, data=[11, 100]),
   midi.NoteOffEvent(tick=1403100, channel=0, data=[11, 0]),
   midi.NoteOnEvent(tick=1403200, channel=0, data=[11, 100]),
   midi.NoteOffEvent(tick=1403300, channel=0, data=[11, 0]),
   midi.NoteOnEvent(tick=1403400, channel=0, data=[36, 100]),
   midi.NoteOffEvent(tick=1403500, channel=0, data=[36, 0]),
   midi.NoteOnEvent(tick=1403600, channel=0, data=[56, 100]),
   midi.NoteOffEvent(tick=1403700, channel=0, data=[56, 0]),
   midi.NoteOnEvent(tick=1403800, channel=0, data=[56, 100]),
   midi.NoteOffEvent(tick=1403900, channel=0, data=[56, 0]),
   midi.NoteOnEvent(tick=1404000, channel=0, data=[56, 100]),
   midi.NoteOffEvent(tick=1404100, channel=0, data=[56, 0]),
   midi.NoteOnEvent(tick=1404200, channel=0, data=[36, 100]),
   midi.NoteOffEvent(tick=1404300, channel=0, data=[36, 0]),
   midi.NoteOnEvent(tick=1404400, channel=0, data=[36, 100]),
   midi.NoteOffEvent(tick=1404500, channel=0, data=[36, 0]),
   midi.NoteOnEvent(tick=1404600, channel=0, data=[36, 100]),
   midi.NoteOffEvent(tick=1404700, channel=0, data=[36, 0]),
   midi.NoteOnEvent(tick=1404800, channel=0, data=[36, 100]),
   midi.NoteOffEvent(tick=1404900, channel=0, data=[36, 0]),
   midi.NoteOnEvent(tick=1405000, channel=0, data=[22, 100]),
   midi.NoteOffEvent(tick=1405100, channel=0, data=[22, 0]),
   midi.NoteOnEvent(tick=1405200, channel=0, data=[7, 100]),
   midi.NoteOffEvent(tick=1405300, channel=0, data=[7, 0]),
   midi.NoteOnEvent(tick=1405400, channel=0, data=[4, 100]),
   midi.NoteOffEvent(tick=1405500, channel=0, data=[4, 0]),
   midi.NoteOnEvent(tick=1405600, channel=0, data=[13, 100]),
   midi.NoteOffEvent(tick=1405700, channel=0, data=[13, 0]),
   midi.NoteOnEvent(tick=1405800, channel=0, data=[36, 100]),
   midi.NoteOffEvent(tick=1405900, channel=0, data=[36, 0]),
   midi.NoteOnEvent(tick=1406000, channel=0, data=[19, 100]),
   midi.NoteOffEvent(tick=1406100, channel=0, data=[19, 0]),
   midi.NoteOnEvent(tick=1406200, channel=0, data=[7, 100]),
   midi.NoteOffEvent(tick=1406300, channel=0, data=[7, 0]),
   midi.NoteOnEvent(tick=1406400, channel=0, data=[4, 100]),
   midi.NoteOffEvent(tick=1406500, channel=0, data=[4, 0]),
   midi.NoteOnEvent(tick=1406600, channel=0, data=[36, 100]),
   midi.NoteOffEvent(tick=1406700, channel=0, data=[36, 0]),
   midi.NoteOnEvent(tick=1406800, channel=0, data=[21, 100]),
   midi.NoteOffEvent(tick=1406900, channel=0, data=[21, 0]),
   midi.NoteOnEvent(tick=1407000, channel=0, data=[0, 100]),
   midi.NoteOffEvent(tick=1407100, channel=0, data=[0, 0]),
   midi.NoteOnEvent(tick=1407200, channel=0, data=[11, 100]),
   midi.NoteOffEvent(tick=1407300, channel=0, data=[11, 0]),
   midi.NoteOnEvent(tick=1407400, channel=0, data=[20, 100]),
   midi.NoteOffEvent(tick=1407500, channel=0, data=[20, 0]),
   midi.NoteOnEvent(tick=1407600, channel=0, data=[4, 100]),
   midi.NoteOffEvent(tick=1407700, channel=0, data=[4, 0]),
   midi.NoteOnEvent(tick=1407800, channel=0, data=[36, 100]),
   midi.NoteOffEvent(tick=1407900, channel=0, data=[36, 0]),
   midi.NoteOnEvent(tick=1408000, channel=0, data=[14, 100]),
   midi.NoteOffEvent(tick=1408100, channel=0, data=[14, 0]),
   midi.NoteOnEvent(tick=1408200, channel=0, data=[5, 100]),
   midi.NoteOffEvent(tick=1408300, channel=0, data=[5, 0]),
   midi.NoteOnEvent(tick=1408400, channel=0, data=[36, 100]),
   midi.NoteOffEvent(tick=1408500, channel=0, data=[36, 0]),
   midi.NoteOnEvent(tick=1408600, channel=0, data=[19, 100]),
   midi.NoteOffEvent(tick=1408700, channel=0, data=[19, 0]),
   midi.NoteOnEvent(tick=1408800, channel=0, data=[7, 100]),
   midi.NoteOffEvent(tick=1408900, channel=0, data=[7, 0]),
   midi.NoteOnEvent(tick=1409000, channel=0, data=[4, 100]),
   midi.NoteOffEvent(tick=1409100, channel=0, data=[4, 0]),
   midi.NoteOnEvent(tick=1409200, channel=0, data=[36, 100]),
   midi.NoteOffEvent(tick=1409300, channel=0, data=[36, 0]),
   midi.NoteOnEvent(tick=1409400, channel=0, data=[21, 100]),
   midi.NoteOffEvent(tick=1409500, channel=0, data=[21, 0]),
   midi.NoteOnEvent(tick=1409600, channel=0, data=[0, 100]),
   midi.NoteOffEvent(tick=1409700, channel=0, data=[0, 0]),
   midi.NoteOnEvent(tick=1409800, channel=0, data=[17, 100]),
   midi.NoteOffEvent(tick=1409900, channel=0, data=[17, 0]),
   midi.NoteOnEvent(tick=1410000, channel=0, data=[8, 100]),
   midi.NoteOffEvent(tick=1410100, channel=0, data=[8, 0]),
   midi.NoteOnEvent(tick=1410200, channel=0, data=[0, 100]),
   midi.NoteOffEvent(tick=1410300, channel=0, data=[0, 0]),
   midi.NoteOnEvent(tick=1410400, channel=0, data=[1, 100]),
   midi.NoteOffEvent(tick=1410500, channel=0, data=[1, 0]),
   midi.NoteOnEvent(tick=1410600, channel=0, data=[11, 100]),
   midi.NoteOffEvent(tick=1410700, channel=0, data=[11, 0]),
   midi.NoteOnEvent(tick=1410800, channel=0, data=[4, 100]),
   midi.NoteOffEvent(tick=1410900, channel=0, data=[4, 0]),
   midi.NoteOnEvent(tick=1411000, channel=0, data=[36, 100]),
   midi.NoteOffEvent(tick=1411100, channel=0, data=[36, 0]),
   midi.NoteOnEvent(tick=1411200, channel=0, data=[8, 100]),
   midi.NoteOffEvent(tick=1411300, channel=0, data=[8, 0]),
   midi.NoteOnEvent(tick=1411400, channel=0, data=[18, 100]),
   midi.NoteOffEvent(tick=1411500, channel=0, data=[18, 0]),
   midi.NoteOnEvent(tick=1411600, channel=0, data=[36, 100]),
   midi.NoteOffEvent(tick=1411700, channel=0, data=[36, 0]),
   midi.NoteOnEvent(tick=1411800, channel=0, data=[0, 100]),
   midi.NoteOffEvent(tick=1411900, channel=0, data=[0, 0]),
   midi.NoteOnEvent(tick=1412000, channel=0, data=[13, 100]),
   midi.NoteOffEvent(tick=1412100, channel=0, data=[13, 0]),
   midi.NoteOnEvent(tick=1412200, channel=0, data=[36, 100]),
   midi.NoteOffEvent(tick=1412300, channel=0, data=[36, 0]),
   midi.NoteOnEvent(tick=1412400, channel=0, data=[0, 100]),
   midi.NoteOffEvent(tick=1412500, channel=0, data=[0, 0]),
   midi.NoteOnEvent(tick=1412600, channel=0, data=[17, 100]),
   midi.NoteOffEvent(tick=1412700, channel=0, data=[17, 0]),
   midi.NoteOnEvent(tick=1412800, channel=0, data=[17, 100]),
   midi.NoteOffEvent(tick=1412900, channel=0, data=[17, 0]),
   midi.NoteOnEvent(tick=1413000, channel=0, data=[0, 100]),
   midi.NoteOffEvent(tick=1413100, channel=0, data=[0, 0]),
   midi.NoteOnEvent(tick=1413200, channel=0, data=[24, 100]),
   midi.NoteOffEvent(tick=1413300, channel=0, data=[24, 0]),
   midi.NoteOnEvent(tick=1413400, channel=0, data=[38, 100]),
   midi.NoteOffEvent(tick=1413500, channel=0, data=[38, 0]),
   midi.NoteOnEvent(tick=1413600, channel=0, data=[36, 100]),
   midi.NoteOffEvent(tick=1413700, channel=0, data=[36, 0]),
   midi.NoteOnEvent(tick=1413800, channel=0, data=[19, 100]),
   midi.NoteOffEvent(tick=1413900, channel=0, data=[19, 0]),
   midi.NoteOnEvent(tick=1414000, channel=0, data=[7, 100]),
   midi.NoteOffEvent(tick=1414100, channel=0, data=[7, 0]),
   midi.NoteOnEvent(tick=1414200, channel=0, data=[4, 100]),
   midi.NoteOffEvent(tick=1414300, channel=0, data=[4, 0]),
   midi.NoteOnEvent(tick=1414400, channel=0, data=[36, 100]),
   midi.NoteOffEvent(tick=1414500, channel=0, data=[36, 0]),
   midi.NoteOnEvent(tick=1414600, channel=0, data=[55, 100]),
   midi.NoteOffEvent(tick=1414700, channel=0, data=[55, 0]),
   midi.NoteOnEvent(tick=1414800, channel=0, data=[69, 100]),
   midi.NoteOffEvent(tick=1414900, channel=0, data=[69, 0]),
   midi.NoteOnEvent(tick=1415000, channel=0, data=[36, 100]),
   midi.NoteOffEvent(tick=1415100, channel=0, data=[36, 0]),
   midi.NoteOnEvent(tick=1415200, channel=0, data=[14, 100]),
   midi.NoteOffEvent(tick=1415300, channel=0, data=[14, 0]),
   midi.NoteOnEvent(tick=1415400, channel=0, data=[15, 100]),
   midi.NoteOffEvent(tick=1415500, channel=0, data=[15, 0]),
   midi.NoteOnEvent(tick=1415600, channel=0, data=[4, 100]),
   midi.NoteOffEvent(tick=1415700, channel=0, data=[4, 0]),
   midi.NoteOnEvent(tick=1415800, channel=0, data=[17, 100]),
   midi.NoteOffEvent(tick=1415900, channel=0, data=[17, 0]),
   midi.NoteOnEvent(tick=1416000, channel=0, data=[0, 100]),
   midi.NoteOffEvent(tick=1416100, channel=0, data=[0, 0]),
   midi.NoteOnEvent(tick=1416200, channel=0, data=[19, 100]),
   midi.NoteOffEvent(tick=1416300, channel=0, data=[19, 0]),
   midi.NoteOnEvent(tick=1416400, channel=0, data=[14, 100]),
   midi.NoteOffEvent(tick=1416500, channel=0, data=[14, 0]),
   midi.NoteOnEvent(tick=1416600, channel=0, data=[17, 100]),
   midi.NoteOffEvent(tick=1416700, channel=0, data=[17, 0]),
   midi.NoteOnEvent(tick=1416800, channel=0, data=[36, 100]),
   midi.NoteOffEvent(tick=1416900, channel=0, data=[36, 0]),
   midi.NoteOnEvent(tick=1417000, channel=0, data=[0, 100]),
   midi.NoteOffEvent(tick=1417100, channel=0, data=[0, 0]),
   midi.NoteOnEvent(tick=1417200, channel=0, data=[15, 100]),
   midi.NoteOffEvent(tick=1417300, channel=0, data=[15, 0]),
   midi.NoteOnEvent(tick=1417400, channel=0, data=[15, 100]),
   midi.NoteOffEvent(tick=1417500, channel=0, data=[15, 0]),
   midi.NoteOnEvent(tick=1417600, channel=0, data=[4, 100]),
   midi.NoteOffEvent(tick=1417700, channel=0, data=[4, 0]),
   midi.NoteOnEvent(tick=1417800, channel=0, data=[13, 100]),
   midi.NoteOffEvent(tick=1417900, channel=0, data=[13, 0]),
   midi.NoteOnEvent(tick=1418000, channel=0, data=[3, 100]),
   midi.NoteOffEvent(tick=1418100, channel=0, data=[3, 0]),
   midi.NoteOnEvent(tick=1418200, channel=0, data=[18, 100]),
   midi.NoteOffEvent(tick=1418300, channel=0, data=[18, 0]),
   midi.NoteOnEvent(tick=1418400, channel=0, data=[36, 100]),
   midi.NoteOffEvent(tick=1418500, channel=0, data=[36, 0]),
   midi.NoteOnEvent(tick=1418600, channel=0, data=[19, 100]),
   midi.NoteOffEvent(tick=1418700, channel=0, data=[19, 0]),
   midi.NoteOnEvent(tick=1418800, channel=0, data=[7, 100]),
   midi.NoteOffEvent(tick=1418900, channel=0, data=[7, 0]),
   midi.NoteOnEvent(tick=1419000, channel=0, data=[4, 100]),
   midi.NoteOffEvent(tick=1419100, channel=0, data=[4, 0]),
   midi.NoteOnEvent(tick=1419200, channel=0, data=[36, 100]),
   midi.NoteOffEvent(tick=1419300, channel=0, data=[36, 0]),
   midi.NoteOnEvent(tick=1419400, channel=0, data=[56, 100]),
   midi.NoteOffEvent(tick=1419500, channel=0, data=[56, 0]),
   midi.NoteOnEvent(tick=1419600, channel=0, data=[36, 100]),
   midi.NoteOffEvent(tick=1419700, channel=0, data=[36, 0]),
   midi.NoteOnEvent(tick=1419800, channel=0, data=[36, 100]),
   midi.NoteOffEvent(tick=1419900, channel=0, data=[36, 0]),
   midi.NoteOnEvent(tick=1420000, channel=0, data=[36, 100]),
   midi.NoteOffEvent(tick=1420100, channel=0, data=[36, 0]),
   midi.NoteOnEvent(tick=1420200, channel=0, data=[36, 100]),
   midi.NoteOffEvent(tick=1420300, channel=0, data=[36, 0]),
   midi.NoteOnEvent(tick=1420400, channel=0, data=[21, 100]),
   midi.NoteOffEvent(tick=1420500, channel=0, data=[21, 0]),
   midi.NoteOnEvent(tick=1420600, channel=0, data=[0, 100]),
   midi.NoteOffEvent(tick=1420700, channel=0, data=[0, 0]),
   midi.NoteOnEvent(tick=1420800, channel=0, data=[11, 100]),
   midi.NoteOffEvent(tick=1420900, channel=0, data=[11, 0]),
   midi.NoteOnEvent(tick=1421000, channel=0, data=[20, 100]),
   midi.NoteOffEvent(tick=1421100, channel=0, data=[20, 0]),
   midi.NoteOnEvent(tick=1421200, channel=0, data=[4, 100]),
   midi.NoteOffEvent(tick=1421300, channel=0, data=[4, 0]),
   midi.NoteOnEvent(tick=1421400, channel=0, data=[18, 100]),
   midi.NoteOffEvent(tick=1421500, channel=0, data=[18, 0]),
   midi.NoteOnEvent(tick=1421600, channel=0, data=[36, 100]),
   midi.NoteOffEvent(tick=1421700, channel=0, data=[36, 0]),
   midi.NoteOnEvent(tick=1421800, channel=0, data=[14, 100]),
   midi.NoteOffEvent(tick=1421900, channel=0, data=[14, 0]),
   midi.NoteOnEvent(tick=1422000, channel=0, data=[13, 100]),
   midi.NoteOffEvent(tick=1422100, channel=0, data=[13, 0]),
   midi.NoteOnEvent(tick=1422200, channel=0, data=[36, 100]),
   midi.NoteOffEvent(tick=1422300, channel=0, data=[36, 0]),
   midi.NoteOnEvent(tick=1422400, channel=0, data=[19, 100]),
   midi.NoteOffEvent(tick=1422500, channel=0, data=[19, 0]),
   midi.NoteOnEvent(tick=1422600, channel=0, data=[7, 100]),
   midi.NoteOffEvent(tick=1422700, channel=0, data=[7, 0]),
   midi.NoteOnEvent(tick=1422800, channel=0, data=[4, 100]),
   midi.NoteOffEvent(tick=1422900, channel=0, data=[4, 0]),
   midi.NoteOnEvent(tick=1423000, channel=0, data=[36, 100]),
   midi.NoteOffEvent(tick=1423100, channel=0, data=[36, 0]),
   midi.NoteOnEvent(tick=1423200, channel=0, data=[17, 100]),
   midi.NoteOffEvent(tick=1423300, channel=0, data=[17, 0]),
   midi.NoteOnEvent(tick=1423400, channel=0, data=[8, 100]),
   midi.NoteOffEvent(tick=1423500, channel=0, data=[8, 0]),
   midi.NoteOnEvent(tick=1423600, channel=0, data=[6, 100]),
   midi.NoteOffEvent(tick=1423700, channel=0, data=[6, 0]),
   midi.NoteOnEvent(tick=1423800, channel=0, data=[7, 100]),
   midi.NoteOffEvent(tick=1423900, channel=0, data=[7, 0]),
   midi.NoteOnEvent(tick=1424000, channel=0, data=[19, 100]),
   midi.NoteOffEvent(tick=1424100, channel=0, data=[19, 0]),
   midi.NoteOnEvent(tick=1424200, channel=0, data=[36, 100]),
   midi.NoteOffEvent(tick=1424300, channel=0, data=[36, 0]),
   midi.NoteOnEvent(tick=1424400, channel=0, data=[18, 100]),
   midi.NoteOffEvent(tick=1424500, channel=0, data=[18, 0]),
   midi.NoteOnEvent(tick=1424600, channel=0, data=[8, 100]),
   midi.NoteOffEvent(tick=1424700, channel=0, data=[8, 0]),
   midi.NoteOnEvent(tick=1424800, channel=0, data=[3, 100]),
   midi.NoteOffEvent(tick=1424900, channel=0, data=[3, 0]),
   midi.NoteOnEvent(tick=1425000, channel=0, data=[4, 100]),
   midi.NoteOffEvent(tick=1425100, channel=0, data=[4, 0]),
   midi.NoteOnEvent(tick=1425200, channel=0, data=[36, 100]),
   midi.NoteOffEvent(tick=1425300, channel=0, data=[36, 0]),
   midi.NoteOnEvent(tick=1425400, channel=0, data=[14, 100]),
   midi.NoteOffEvent(tick=1425500, channel=0, data=[14, 0]),
   midi.NoteOnEvent(tick=1425600, channel=0, data=[5, 100]),
   midi.NoteOffEvent(tick=1425700, channel=0, data=[5, 0]),
   midi.NoteOnEvent(tick=1425800, channel=0, data=[36, 100]),
   midi.NoteOffEvent(tick=1425900, channel=0, data=[36, 0]),
   midi.NoteOnEvent(tick=1426000, channel=0, data=[19, 100]),
   midi.NoteOffEvent(tick=1426100, channel=0, data=[19, 0]),
   midi.NoteOnEvent(tick=1426200, channel=0, data=[7, 100]),
   midi.NoteOffEvent(tick=1426300, channel=0, data=[7, 0]),
   midi.NoteOnEvent(tick=1426400, channel=0, data=[4, 100]),
   midi.NoteOffEvent(tick=1426500, channel=0, data=[4, 0]),
   midi.NoteOnEvent(tick=1426600, channel=0, data=[36, 100]),
   midi.NoteOffEvent(tick=1426700, channel=0, data=[36, 0]),
   midi.NoteOnEvent(tick=1426800, channel=0, data=[14, 100]),
   midi.NoteOffEvent(tick=1426900, channel=0, data=[14, 0]),
   midi.NoteOnEvent(tick=1427000, channel=0, data=[15, 100]),
   midi.NoteOffEvent(tick=1427100, channel=0, data=[15, 0]),
   midi.NoteOnEvent(tick=1427200, channel=0, data=[4, 100]),
   midi.NoteOffEvent(tick=1427300, channel=0, data=[4, 0]),
   midi.NoteOnEvent(tick=1427400, channel=0, data=[17, 100]),
   midi.NoteOffEvent(tick=1427500, channel=0, data=[17, 0]),
   midi.NoteOnEvent(tick=1427600, channel=0, data=[0, 100]),
   midi.NoteOffEvent(tick=1427700, channel=0, data=[0, 0]),
   midi.NoteOnEvent(tick=1427800, channel=0, data=[19, 100]),
   midi.NoteOffEvent(tick=1427900, channel=0, data=[19, 0]),
   midi.NoteOnEvent(tick=1428000, channel=0, data=[14, 100]),
   midi.NoteOffEvent(tick=1428100, channel=0, data=[14, 0]),
   midi.NoteOnEvent(tick=1428200, channel=0, data=[17, 100]),
   midi.NoteOffEvent(tick=1428300, channel=0, data=[17, 0]),
   midi.NoteOnEvent(tick=1428400, channel=0, data=[36, 100]),
   midi.NoteOffEvent(tick=1428500, channel=0, data=[36, 0]),
   midi.NoteOnEvent(tick=1428600, channel=0, data=[19, 100]),
   midi.NoteOffEvent(tick=1428700, channel=0, data=[19, 0]),
   midi.NoteOnEvent(tick=1428800, channel=0, data=[14, 100]),
   midi.NoteOffEvent(tick=1428900, channel=0, data=[14, 0]),
   midi.NoteOnEvent(tick=1429000, channel=0, data=[36, 100]),
   midi.NoteOffEvent(tick=1429100, channel=0, data=[36, 0]),
   midi.NoteOnEvent(tick=1429200, channel=0, data=[19, 100]),
   midi.NoteOffEvent(tick=1429300, channel=0, data=[19, 0]),
   midi.NoteOnEvent(tick=1429400, channel=0, data=[7, 100]),
   midi.NoteOffEvent(tick=1429500, channel=0, data=[7, 0]),
   midi.NoteOnEvent(tick=1429600, channel=0, data=[4, 100]),
   midi.NoteOffEvent(tick=1429700, channel=0, data=[4, 0]),
   midi.NoteOnEvent(tick=1429800, channel=0, data=[36, 100]),
   midi.NoteOffEvent(tick=1429900, channel=0, data=[36, 0]),
   midi.NoteOnEvent(tick=1430000, channel=0, data=[0, 100]),
   midi.NoteOffEvent(tick=1430100, channel=0, data=[0, 0]),
   midi.NoteOnEvent(tick=1430200, channel=0, data=[17, 100]),
   midi.NoteOffEvent(tick=1430300, channel=0, data=[17, 0]),
   midi.NoteOnEvent(tick=1430400, channel=0, data=[17, 100]),
   midi.NoteOffEvent(tick=1430500, channel=0, data=[17, 0]),
   midi.NoteOnEvent(tick=1430600, channel=0, data=[0, 100]),
   midi.NoteOffEvent(tick=1430700, channel=0, data=[0, 0]),
   midi.NoteOnEvent(tick=1430800, channel=0, data=[24, 100]),
   midi.NoteOffEvent(tick=1430900, channel=0, data=[24, 0]),
   midi.NoteOnEvent(tick=1431000, channel=0, data=[37, 100]),
   midi.NoteOffEvent(tick=1431100, channel=0, data=[37, 0]),
   midi.NoteOnEvent(tick=1431200, channel=0, data=[36, 100]),
   midi.NoteOffEvent(tick=1431300, channel=0, data=[36, 0]),
   midi.NoteOnEvent(tick=1431400, channel=0, data=[20, 100]),
   midi.NoteOffEvent(tick=1431500, channel=0, data=[20, 0]),
   midi.NoteOnEvent(tick=1431600, channel=0, data=[13, 100]),
   midi.NoteOffEvent(tick=1431700, channel=0, data=[13, 0]),
   midi.NoteOnEvent(tick=1431800, channel=0, data=[11, 100]),
   midi.NoteOffEvent(tick=1431900, channel=0, data=[11, 0]),
   midi.NoteOnEvent(tick=1432000, channel=0, data=[4, 100]),
   midi.NoteOffEvent(tick=1432100, channel=0, data=[4, 0]),
   midi.NoteOnEvent(tick=1432200, channel=0, data=[18, 100]),
   midi.NoteOffEvent(tick=1432300, channel=0, data=[18, 0]),
   midi.NoteOnEvent(tick=1432400, channel=0, data=[18, 100]),
   midi.NoteOffEvent(tick=1432500, channel=0, data=[18, 0]),
   midi.NoteOnEvent(tick=1432600, channel=0, data=[36, 100]),
   midi.NoteOffEvent(tick=1432700, channel=0, data=[36, 0]),
   midi.NoteOnEvent(tick=1432800, channel=0, data=[19, 100]),
   midi.NoteOffEvent(tick=1432900, channel=0, data=[19, 0]),
   midi.NoteOnEvent(tick=1433000, channel=0, data=[7, 100]),
   midi.NoteOffEvent(tick=1433100, channel=0, data=[7, 0]),
   midi.NoteOnEvent(tick=1433200, channel=0, data=[4, 100]),
   midi.NoteOffEvent(tick=1433300, channel=0, data=[4, 0]),
   midi.NoteOnEvent(tick=1433400, channel=0, data=[36, 100]),
   midi.NoteOffEvent(tick=1433500, channel=0, data=[36, 0]),
   midi.NoteOnEvent(tick=1433600, channel=0, data=[0, 100]),
   midi.NoteOffEvent(tick=1433700, channel=0, data=[0, 0]),
   midi.NoteOnEvent(tick=1433800, channel=0, data=[17, 100]),
   midi.NoteOffEvent(tick=1433900, channel=0, data=[17, 0]),
   midi.NoteOnEvent(tick=1434000, channel=0, data=[17, 100]),
   midi.NoteOffEvent(tick=1434100, channel=0, data=[17, 0]),
   midi.NoteOnEvent(tick=1434200, channel=0, data=[0, 100]),
   midi.NoteOffEvent(tick=1434300, channel=0, data=[0, 0]),
   midi.NoteOnEvent(tick=1434400, channel=0, data=[24, 100]),
   midi.NoteOffEvent(tick=1434500, channel=0, data=[24, 0]),
   midi.NoteOnEvent(tick=1434600, channel=0, data=[36, 100]),
   midi.NoteOffEvent(tick=1434700, channel=0, data=[36, 0]),
   midi.NoteOnEvent(tick=1434800, channel=0, data=[8, 100]),
   midi.NoteOffEvent(tick=1434900, channel=0, data=[8, 0]),
   midi.NoteOnEvent(tick=1435000, channel=0, data=[18, 100]),
   midi.NoteOffEvent(tick=1435100, channel=0, data=[18, 0]),
   midi.NoteOnEvent(tick=1435200, channel=0, data=[36, 100]),
   midi.NoteOffEvent(tick=1435300, channel=0, data=[36, 0]),
   midi.NoteOnEvent(tick=1435400, channel=0, data=[56, 100]),
   midi.NoteOffEvent(tick=1435500, channel=0, data=[56, 0]),
   midi.NoteOnEvent(tick=1435600, channel=0, data=[36, 100]),
   midi.NoteOffEvent(tick=1435700, channel=0, data=[36, 0]),
   midi.NoteOnEvent(tick=1435800, channel=0, data=[36, 100]),
   midi.NoteOffEvent(tick=1435900, channel=0, data=[36, 0]),
   midi.NoteOnEvent(tick=1436000, channel=0, data=[36, 100]),
   midi.NoteOffEvent(tick=1436100, channel=0, data=[36, 0]),
   midi.NoteOnEvent(tick=1436200, channel=0, data=[36, 100]),
   midi.NoteOffEvent(tick=1436300, channel=0, data=[36, 0]),
   midi.NoteOnEvent(tick=1436400, channel=0, data=[4, 100]),
   midi.NoteOffEvent(tick=1436500, channel=0, data=[4, 0]),
   midi.NoteOnEvent(tick=1436600, channel=0, data=[23, 100]),
   midi.NoteOffEvent(tick=1436700, channel=0, data=[23, 0]),
   midi.NoteOnEvent(tick=1436800, channel=0, data=[15, 100]),
   midi.NoteOffEvent(tick=1436900, channel=0, data=[15, 0]),
   midi.NoteOnEvent(tick=1437000, channel=0, data=[11, 100]),
   midi.NoteOffEvent(tick=1437100, channel=0, data=[11, 0]),
   midi.NoteOnEvent(tick=1437200, channel=0, data=[8, 100]),
   midi.NoteOffEvent(tick=1437300, channel=0, data=[8, 0]),
   midi.NoteOnEvent(tick=1437400, channel=0, data=[2, 100]),
   midi.NoteOffEvent(tick=1437500, channel=0, data=[2, 0]),
   midi.NoteOnEvent(tick=1437600, channel=0, data=[8, 100]),
   midi.NoteOffEvent(tick=1437700, channel=0, data=[8, 0]),
   midi.NoteOnEvent(tick=1437800, channel=0, data=[19, 100]),
   midi.NoteOffEvent(tick=1437900, channel=0, data=[19, 0]),
   midi.NoteOnEvent(tick=1438000, channel=0, data=[11, 100]),
   midi.NoteOffEvent(tick=1438100, channel=0, data=[11, 0]),
   midi.NoteOnEvent(tick=1438200, channel=0, data=[24, 100]),
   midi.NoteOffEvent(tick=1438300, channel=0, data=[24, 0]),
   midi.NoteOnEvent(tick=1438400, channel=0, data=[36, 100]),
   midi.NoteOffEvent(tick=1438500, channel=0, data=[36, 0]),
   midi.NoteOnEvent(tick=1438600, channel=0, data=[19, 100]),
   midi.NoteOffEvent(tick=1438700, channel=0, data=[19, 0]),
   midi.NoteOnEvent(tick=1438800, channel=0, data=[24, 100]),
   midi.NoteOffEvent(tick=1438900, channel=0, data=[24, 0]),
   midi.NoteOnEvent(tick=1439000, channel=0, data=[15, 100]),
   midi.NoteOffEvent(tick=1439100, channel=0, data=[15, 0]),
   midi.NoteOnEvent(tick=1439200, channel=0, data=[4, 100]),
   midi.NoteOffEvent(tick=1439300, channel=0, data=[4, 0]),
   midi.NoteOnEvent(tick=1439400, channel=0, data=[3, 100]),
   midi.NoteOffEvent(tick=1439500, channel=0, data=[3, 0]),
   midi.NoteOnEvent(tick=1439600, channel=0, data=[36, 100]),
   midi.NoteOffEvent(tick=1439700, channel=0, data=[36, 0]),
   midi.NoteOnEvent(tick=1439800, channel=0, data=[1, 100]),
   midi.NoteOffEvent(tick=1439900, channel=0, data=[1, 0]),
   midi.NoteOnEvent(tick=1440000, channel=0, data=[24, 100]),
   midi.NoteOffEvent(tick=1440100, channel=0, data=[24, 0]),
   midi.NoteOnEvent(tick=1440200, channel=0, data=[36, 100]),
   midi.NoteOffEvent(tick=1440300, channel=0, data=[36, 0]),
   midi.NoteOnEvent(tick=1440400, channel=0, data=[2, 100]),
   midi.NoteOffEvent(tick=1440500, channel=0, data=[2, 0]),
   midi.NoteOnEvent(tick=1440600, channel=0, data=[0, 100]),
   midi.NoteOffEvent(tick=1440700, channel=0, data=[0, 0]),
   midi.NoteOnEvent(tick=1440800, channel=0, data=[18, 100]),
   midi.NoteOffEvent(tick=1440900, channel=0, data=[18, 0]),
   midi.NoteOnEvent(tick=1441000, channel=0, data=[19, 100]),
   midi.NoteOffEvent(tick=1441100, channel=0, data=[19, 0]),
   midi.NoteOnEvent(tick=1441200, channel=0, data=[8, 100]),
   midi.NoteOffEvent(tick=1441300, channel=0, data=[8, 0]),
   midi.NoteOnEvent(tick=1441400, channel=0, data=[13, 100]),
   midi.NoteOffEvent(tick=1441500, channel=0, data=[13, 0]),
   midi.NoteOnEvent(tick=1441600, channel=0, data=[6, 100]),
   midi.NoteOffEvent(tick=1441700, channel=0, data=[6, 0]),
   midi.NoteOnEvent(tick=1441800, channel=0, data=[38, 100]),
   midi.NoteOffEvent(tick=1441900, channel=0, data=[38, 0]),
   midi.NoteOnEvent(tick=1442000, channel=0, data=[36, 100]),
   midi.NoteOffEvent(tick=1442100, channel=0, data=[36, 0]),
   midi.NoteOnEvent(tick=1442200, channel=0, data=[24, 100]),
   midi.NoteOffEvent(tick=1442300, channel=0, data=[24, 0]),
   midi.NoteOnEvent(tick=1442400, channel=0, data=[14, 100]),
   midi.NoteOffEvent(tick=1442500, channel=0, data=[14, 0]),
   midi.NoteOnEvent(tick=1442600, channel=0, data=[20, 100]),
   midi.NoteOffEvent(tick=1442700, channel=0, data=[20, 0]),
   midi.NoteOnEvent(tick=1442800, channel=0, data=[36, 100]),
   midi.NoteOffEvent(tick=1442900, channel=0, data=[36, 0]),
   midi.NoteOnEvent(tick=1443000, channel=0, data=[2, 100]),
   midi.NoteOffEvent(tick=1443100, channel=0, data=[2, 0]),
   midi.NoteOnEvent(tick=1443200, channel=0, data=[0, 100]),
   midi.NoteOffEvent(tick=1443300, channel=0, data=[0, 0]),
   midi.NoteOnEvent(tick=1443400, channel=0, data=[13, 100]),
   midi.NoteOffEvent(tick=1443500, channel=0, data=[13, 0]),
   midi.NoteOnEvent(tick=1443600, channel=0, data=[36, 100]),
   midi.NoteOffEvent(tick=1443700, channel=0, data=[36, 0]),
   midi.NoteOnEvent(tick=1443800, channel=0, data=[0, 100]),
   midi.NoteOffEvent(tick=1443900, channel=0, data=[0, 0]),
   midi.NoteOnEvent(tick=1444000, channel=0, data=[15, 100]),
   midi.NoteOffEvent(tick=1444100, channel=0, data=[15, 0]),
   midi.NoteOnEvent(tick=1444200, channel=0, data=[15, 100]),
   midi.NoteOffEvent(tick=1444300, channel=0, data=[15, 0]),
   midi.NoteOnEvent(tick=1444400, channel=0, data=[4, 100]),
   midi.NoteOffEvent(tick=1444500, channel=0, data=[4, 0]),
   midi.NoteOnEvent(tick=1444600, channel=0, data=[13, 100]),
   midi.NoteOffEvent(tick=1444700, channel=0, data=[13, 0]),
   midi.NoteOnEvent(tick=1444800, channel=0, data=[3, 100]),
   midi.NoteOffEvent(tick=1444900, channel=0, data=[3, 0]),
   midi.NoteOnEvent(tick=1445000, channel=0, data=[36, 100]),
   midi.NoteOffEvent(tick=1445100, channel=0, data=[36, 0]),
   midi.NoteOnEvent(tick=1445200, channel=0, data=[0, 100]),
   midi.NoteOffEvent(tick=1445300, channel=0, data=[0, 0]),
   midi.NoteOnEvent(tick=1445400, channel=0, data=[13, 100]),
   midi.NoteOffEvent(tick=1445500, channel=0, data=[13, 0]),
   midi.NoteOnEvent(tick=1445600, channel=0, data=[24, 100]),
   midi.NoteOffEvent(tick=1445700, channel=0, data=[24, 0]),
   midi.NoteOnEvent(tick=1445800, channel=0, data=[36, 100]),
   midi.NoteOffEvent(tick=1445900, channel=0, data=[36, 0]),
   midi.NoteOnEvent(tick=1446000, channel=0, data=[19, 100]),
   midi.NoteOffEvent(tick=1446100, channel=0, data=[19, 0]),
   midi.NoteOnEvent(tick=1446200, channel=0, data=[24, 100]),
   midi.NoteOffEvent(tick=1446300, channel=0, data=[24, 0]),
   midi.NoteOnEvent(tick=1446400, channel=0, data=[15, 100]),
   midi.NoteOffEvent(tick=1446500, channel=0, data=[15, 0]),
   midi.NoteOnEvent(tick=1446600, channel=0, data=[4, 100]),
   midi.NoteOffEvent(tick=1446700, channel=0, data=[4, 0]),
   midi.NoteOnEvent(tick=1446800, channel=0, data=[36, 100]),
   midi.NoteOffEvent(tick=1446900, channel=0, data=[36, 0]),
   midi.NoteOnEvent(tick=1447000, channel=0, data=[14, 100]),
   midi.NoteOffEvent(tick=1447100, channel=0, data=[14, 0]),
   midi.NoteOnEvent(tick=1447200, channel=0, data=[5, 100]),
   midi.NoteOffEvent(tick=1447300, channel=0, data=[5, 0]),
   midi.NoteOnEvent(tick=1447400, channel=0, data=[36, 100]),
   midi.NoteOffEvent(tick=1447500, channel=0, data=[36, 0]),
   midi.NoteOnEvent(tick=1447600, channel=0, data=[21, 100]),
   midi.NoteOffEvent(tick=1447700, channel=0, data=[21, 0]),
   midi.NoteOnEvent(tick=1447800, channel=0, data=[0, 100]),
   midi.NoteOffEvent(tick=1447900, channel=0, data=[0, 0]),
   midi.NoteOnEvent(tick=1448000, channel=0, data=[11, 100]),
   midi.NoteOffEvent(tick=1448100, channel=0, data=[11, 0]),
   midi.NoteOnEvent(tick=1448200, channel=0, data=[20, 100]),
   midi.NoteOffEvent(tick=1448300, channel=0, data=[20, 0]),
   midi.NoteOnEvent(tick=1448400, channel=0, data=[4, 100]),
   midi.NoteOffEvent(tick=1448500, channel=0, data=[4, 0]),
   midi.NoteOnEvent(tick=1448600, channel=0, data=[36, 100]),
   midi.NoteOffEvent(tick=1448700, channel=0, data=[36, 0]),
   midi.NoteOnEvent(tick=1448800, channel=0, data=[19, 100]),
   midi.NoteOffEvent(tick=1448900, channel=0, data=[19, 0]),
   midi.NoteOnEvent(tick=1449000, channel=0, data=[14, 100]),
   midi.NoteOffEvent(tick=1449100, channel=0, data=[14, 0]),
   midi.NoteOnEvent(tick=1449200, channel=0, data=[36, 100]),
   midi.NoteOffEvent(tick=1449300, channel=0, data=[36, 0]),
   midi.NoteOnEvent(tick=1449400, channel=0, data=[19, 100]),
   midi.NoteOffEvent(tick=1449500, channel=0, data=[19, 0]),
   midi.NoteOnEvent(tick=1449600, channel=0, data=[7, 100]),
   midi.NoteOffEvent(tick=1449700, channel=0, data=[7, 0]),
   midi.NoteOnEvent(tick=1449800, channel=0, data=[4, 100]),
   midi.NoteOffEvent(tick=1449900, channel=0, data=[4, 0]),
   midi.NoteOnEvent(tick=1450000, channel=0, data=[36, 100]),
   midi.NoteOffEvent(tick=1450100, channel=0, data=[36, 0]),
   midi.NoteOnEvent(tick=1450200, channel=0, data=[0, 100]),
   midi.NoteOffEvent(tick=1450300, channel=0, data=[0, 0]),
   midi.NoteOnEvent(tick=1450400, channel=0, data=[17, 100]),
   midi.NoteOffEvent(tick=1450500, channel=0, data=[17, 0]),
   midi.NoteOnEvent(tick=1450600, channel=0, data=[17, 100]),
   midi.NoteOffEvent(tick=1450700, channel=0, data=[17, 0]),
   midi.NoteOnEvent(tick=1450800, channel=0, data=[0, 100]),
   midi.NoteOffEvent(tick=1450900, channel=0, data=[0, 0]),
   midi.NoteOnEvent(tick=1451000, channel=0, data=[24, 100]),
   midi.NoteOffEvent(tick=1451100, channel=0, data=[24, 0]),
   midi.NoteOnEvent(tick=1451200, channel=0, data=[38, 100]),
   midi.NoteOffEvent(tick=1451300, channel=0, data=[38, 0]),
   midi.NoteOnEvent(tick=1451400, channel=0, data=[56, 100]),
   midi.NoteOffEvent(tick=1451500, channel=0, data=[56, 0]),
   midi.NoteOnEvent(tick=1451600, channel=0, data=[36, 100]),
   midi.NoteOffEvent(tick=1451700, channel=0, data=[36, 0]),
   midi.NoteOnEvent(tick=1451800, channel=0, data=[36, 100]),
   midi.NoteOffEvent(tick=1451900, channel=0, data=[36, 0]),
   midi.NoteOnEvent(tick=1452000, channel=0, data=[36, 100]),
   midi.NoteOffEvent(tick=1452100, channel=0, data=[36, 0]),
   midi.NoteOnEvent(tick=1452200, channel=0, data=[36, 100]),
   midi.NoteOffEvent(tick=1452300, channel=0, data=[36, 0]),
   midi.NoteOnEvent(tick=1452400, channel=0, data=[0, 100]),
   midi.NoteOffEvent(tick=1452500, channel=0, data=[0, 0]),
   midi.NoteOnEvent(tick=1452600, channel=0, data=[18, 100]),
   midi.NoteOffEvent(tick=1452700, channel=0, data=[18, 0]),
   midi.NoteOnEvent(tick=1452800, channel=0, data=[36, 100]),
   midi.NoteOffEvent(tick=1452900, channel=0, data=[36, 0]),
   midi.NoteOnEvent(tick=1453000, channel=0, data=[5, 100]),
   midi.NoteOffEvent(tick=1453100, channel=0, data=[5, 0]),
   midi.NoteOnEvent(tick=1453200, channel=0, data=[14, 100]),
   midi.NoteOffEvent(tick=1453300, channel=0, data=[14, 0]),
   midi.NoteOnEvent(tick=1453400, channel=0, data=[11, 100]),
   midi.NoteOffEvent(tick=1453500, channel=0, data=[11, 0]),
   midi.NoteOnEvent(tick=1453600, channel=0, data=[11, 100]),
   midi.NoteOffEvent(tick=1453700, channel=0, data=[11, 0]),
   midi.NoteOnEvent(tick=1453800, channel=0, data=[14, 100]),
   midi.NoteOffEvent(tick=1453900, channel=0, data=[14, 0]),
   midi.NoteOnEvent(tick=1454000, channel=0, data=[22, 100]),
   midi.NoteOffEvent(tick=1454100, channel=0, data=[22, 0]),
   midi.NoteOnEvent(tick=1454200, channel=0, data=[18, 100]),
   midi.NoteOffEvent(tick=1454300, channel=0, data=[18, 0]),
   midi.NoteOnEvent(tick=1454400, channel=0, data=[46, 100]),
   midi.NoteOffEvent(tick=1454500, channel=0, data=[46, 0]),
   midi.NoteOnEvent(tick=1454600, channel=0, data=[56, 100]),
   midi.NoteOffEvent(tick=1454700, channel=0, data=[56, 0]),
   midi.NoteOnEvent(tick=1454800, channel=0, data=[56, 100]),
   midi.NoteOffEvent(tick=1454900, channel=0, data=[56, 0]),
   midi.NoteOnEvent(tick=1455000, channel=0, data=[56, 100]),
   midi.NoteOffEvent(tick=1455100, channel=0, data=[56, 0]),
   midi.NoteOnEvent(tick=1455200, channel=0, data=[36, 100]),
   midi.NoteOffEvent(tick=1455300, channel=0, data=[36, 0]),
   midi.NoteOnEvent(tick=1455400, channel=0, data=[36, 100]),
   midi.NoteOffEvent(tick=1455500, channel=0, data=[36, 0]),
   midi.NoteOnEvent(tick=1455600, channel=0, data=[36, 100]),
   midi.NoteOffEvent(tick=1455700, channel=0, data=[36, 0]),
   midi.NoteOnEvent(tick=1455800, channel=0, data=[36, 100]),
   midi.NoteOffEvent(tick=1455900, channel=0, data=[36, 0]),
   midi.NoteOnEvent(tick=1456000, channel=0, data=[36, 100]),
   midi.NoteOffEvent(tick=1456100, channel=0, data=[36, 0]),
   midi.NoteOnEvent(tick=1456200, channel=0, data=[36, 100]),
   midi.NoteOffEvent(tick=1456300, channel=0, data=[36, 0]),
   midi.NoteOnEvent(tick=1456400, channel=0, data=[36, 100]),
   midi.NoteOffEvent(tick=1456500, channel=0, data=[36, 0]),
   midi.NoteOnEvent(tick=1456600, channel=0, data=[36, 100]),
   midi.NoteOffEvent(tick=1456700, channel=0, data=[36, 0]),
   midi.NoteOnEvent(tick=1456800, channel=0, data=[2, 100]),
   midi.NoteOffEvent(tick=1456900, channel=0, data=[2, 0]),
   midi.NoteOnEvent(tick=1457000, channel=0, data=[46, 100]),
   midi.NoteOffEvent(tick=1457100, channel=0, data=[46, 0]),
   midi.NoteOnEvent(tick=1457200, channel=0, data=[78, 100]),
   midi.NoteOffEvent(tick=1457300, channel=0, data=[78, 0]),
   midi.NoteOnEvent(tick=1457400, channel=0, data=[15, 100]),
   midi.NoteOffEvent(tick=1457500, channel=0, data=[15, 0]),
   midi.NoteOnEvent(tick=1457600, channel=0, data=[18, 100]),
   midi.NoteOffEvent(tick=1457700, channel=0, data=[18, 0]),
   midi.NoteOnEvent(tick=1457800, channel=0, data=[73, 100]),
   midi.NoteOffEvent(tick=1457900, channel=0, data=[73, 0]),
   midi.NoteOnEvent(tick=1458000, channel=0, data=[36, 100]),
   midi.NoteOffEvent(tick=1458100, channel=0, data=[36, 0]),
   midi.NoteOnEvent(tick=1458200, channel=0, data=[74, 100]),
   midi.NoteOffEvent(tick=1458300, channel=0, data=[74, 0]),
   midi.NoteOnEvent(tick=1458400, channel=0, data=[0, 100]),
   midi.NoteOffEvent(tick=1458500, channel=0, data=[0, 0]),
   midi.NoteOnEvent(tick=1458600, channel=0, data=[36, 100]),
   midi.NoteOffEvent(tick=1458700, channel=0, data=[36, 0]),
   midi.NoteOnEvent(tick=1458800, channel=0, data=[69, 100]),
   midi.NoteOffEvent(tick=1458900, channel=0, data=[69, 0]),
   midi.NoteOnEvent(tick=1459000, channel=0, data=[36, 100]),
   midi.NoteOffEvent(tick=1459100, channel=0, data=[36, 0]),
   midi.NoteOnEvent(tick=1459200, channel=0, data=[27, 100]),
   midi.NoteOffEvent(tick=1459300, channel=0, data=[27, 0]),
   midi.NoteOnEvent(tick=1459400, channel=0, data=[38, 100]),
   midi.NoteOffEvent(tick=1459500, channel=0, data=[38, 0]),
   midi.NoteOnEvent(tick=1459600, channel=0, data=[28, 100]),
   midi.NoteOffEvent(tick=1459700, channel=0, data=[28, 0]),
   midi.NoteOnEvent(tick=1459800, channel=0, data=[38, 100]),
   midi.NoteOffEvent(tick=1459900, channel=0, data=[38, 0]),
   midi.NoteOnEvent(tick=1460000, channel=0, data=[29, 100]),
   midi.NoteOffEvent(tick=1460100, channel=0, data=[29, 0]),
   midi.NoteOnEvent(tick=1460200, channel=0, data=[56, 100]),
   midi.NoteOffEvent(tick=1460300, channel=0, data=[56, 0]),
   midi.NoteOnEvent(tick=1460400, channel=0, data=[36, 100]),
   midi.NoteOffEvent(tick=1460500, channel=0, data=[36, 0]),
   midi.NoteOnEvent(tick=1460600, channel=0, data=[36, 100]),
   midi.NoteOffEvent(tick=1460700, channel=0, data=[36, 0]),
   midi.NoteOnEvent(tick=1460800, channel=0, data=[36, 100]),
   midi.NoteOffEvent(tick=1460900, channel=0, data=[36, 0]),
   midi.NoteOnEvent(tick=1461000, channel=0, data=[36, 100]),
   midi.NoteOffEvent(tick=1461100, channel=0, data=[36, 0]),
   midi.NoteOnEvent(tick=1461200, channel=0, data=[36, 100]),
   midi.NoteOffEvent(tick=1461300, channel=0, data=[36, 0]),
   midi.NoteOnEvent(tick=1461400, channel=0, data=[36, 100]),
   midi.NoteOffEvent(tick=1461500, channel=0, data=[36, 0]),
   midi.NoteOnEvent(tick=1461600, channel=0, data=[36, 100]),
   midi.NoteOffEvent(tick=1461700, channel=0, data=[36, 0]),
   midi.NoteOnEvent(tick=1461800, channel=0, data=[36, 100]),
   midi.NoteOffEvent(tick=1461900, channel=0, data=[36, 0]),
   midi.NoteOnEvent(tick=1462000, channel=0, data=[2, 100]),
   midi.NoteOffEvent(tick=1462100, channel=0, data=[2, 0]),
   midi.NoteOnEvent(tick=1462200, channel=0, data=[46, 100]),
   midi.NoteOffEvent(tick=1462300, channel=0, data=[46, 0]),
   midi.NoteOnEvent(tick=1462400, channel=0, data=[78, 100]),
   midi.NoteOffEvent(tick=1462500, channel=0, data=[78, 0]),
   midi.NoteOnEvent(tick=1462600, channel=0, data=[15, 100]),
   midi.NoteOffEvent(tick=1462700, channel=0, data=[15, 0]),
   midi.NoteOnEvent(tick=1462800, channel=0, data=[18, 100]),
   midi.NoteOffEvent(tick=1462900, channel=0, data=[18, 0]),
   midi.NoteOnEvent(tick=1463000, channel=0, data=[73, 100]),
   midi.NoteOffEvent(tick=1463100, channel=0, data=[73, 0]),
   midi.NoteOnEvent(tick=1463200, channel=0, data=[36, 100]),
   midi.NoteOffEvent(tick=1463300, channel=0, data=[36, 0]),
   midi.NoteOnEvent(tick=1463400, channel=0, data=[74, 100]),
   midi.NoteOffEvent(tick=1463500, channel=0, data=[74, 0]),
   midi.NoteOnEvent(tick=1463600, channel=0, data=[0, 100]),
   midi.NoteOffEvent(tick=1463700, channel=0, data=[0, 0]),
   midi.NoteOnEvent(tick=1463800, channel=0, data=[36, 100]),
   midi.NoteOffEvent(tick=1463900, channel=0, data=[36, 0]),
   midi.NoteOnEvent(tick=1464000, channel=0, data=[55, 100]),
   midi.NoteOffEvent(tick=1464100, channel=0, data=[55, 0]),
   midi.NoteOnEvent(tick=1464200, channel=0, data=[69, 100]),
   midi.NoteOffEvent(tick=1464300, channel=0, data=[69, 0]),
   midi.NoteOnEvent(tick=1464400, channel=0, data=[36, 100]),
   midi.NoteOffEvent(tick=1464500, channel=0, data=[36, 0]),
   midi.NoteOnEvent(tick=1464600, channel=0, data=[28, 100]),
   midi.NoteOffEvent(tick=1464700, channel=0, data=[28, 0]),
   midi.NoteOnEvent(tick=1464800, channel=0, data=[56, 100]),
   midi.NoteOffEvent(tick=1464900, channel=0, data=[56, 0]),
   midi.NoteOnEvent(tick=1465000, channel=0, data=[36, 100]),
   midi.NoteOffEvent(tick=1465100, channel=0, data=[36, 0]),
   midi.NoteOnEvent(tick=1465200, channel=0, data=[36, 100]),
   midi.NoteOffEvent(tick=1465300, channel=0, data=[36, 0]),
   midi.NoteOnEvent(tick=1465400, channel=0, data=[36, 100]),
   midi.NoteOffEvent(tick=1465500, channel=0, data=[36, 0]),
   midi.NoteOnEvent(tick=1465600, channel=0, data=[36, 100]),
   midi.NoteOffEvent(tick=1465700, channel=0, data=[36, 0]),
   midi.NoteOnEvent(tick=1465800, channel=0, data=[36, 100]),
   midi.NoteOffEvent(tick=1465900, channel=0, data=[36, 0]),
   midi.NoteOnEvent(tick=1466000, channel=0, data=[36, 100]),
   midi.NoteOffEvent(tick=1466100, channel=0, data=[36, 0]),
   midi.NoteOnEvent(tick=1466200, channel=0, data=[36, 100]),
   midi.NoteOffEvent(tick=1466300, channel=0, data=[36, 0]),
   midi.NoteOnEvent(tick=1466400, channel=0, data=[36, 100]),
   midi.NoteOffEvent(tick=1466500, channel=0, data=[36, 0]),
   midi.NoteOnEvent(tick=1466600, channel=0, data=[2, 100]),
   midi.NoteOffEvent(tick=1466700, channel=0, data=[2, 0]),
   midi.NoteOnEvent(tick=1466800, channel=0, data=[46, 100]),
   midi.NoteOffEvent(tick=1466900, channel=0, data=[46, 0]),
   midi.NoteOnEvent(tick=1467000, channel=0, data=[78, 100]),
   midi.NoteOffEvent(tick=1467100, channel=0, data=[78, 0]),
   midi.NoteOnEvent(tick=1467200, channel=0, data=[15, 100]),
   midi.NoteOffEvent(tick=1467300, channel=0, data=[15, 0]),
   midi.NoteOnEvent(tick=1467400, channel=0, data=[18, 100]),
   midi.NoteOffEvent(tick=1467500, channel=0, data=[18, 0]),
   midi.NoteOnEvent(tick=1467600, channel=0, data=[73, 100]),
   midi.NoteOffEvent(tick=1467700, channel=0, data=[73, 0]),
   midi.NoteOnEvent(tick=1467800, channel=0, data=[36, 100]),
   midi.NoteOffEvent(tick=1467900, channel=0, data=[36, 0]),
   midi.NoteOnEvent(tick=1468000, channel=0, data=[74, 100]),
   midi.NoteOffEvent(tick=1468100, channel=0, data=[74, 0]),
   midi.NoteOnEvent(tick=1468200, channel=0, data=[0, 100]),
   midi.NoteOffEvent(tick=1468300, channel=0, data=[0, 0]),
   midi.NoteOnEvent(tick=1468400, channel=0, data=[56, 100]),
   midi.NoteOffEvent(tick=1468500, channel=0, data=[56, 0]),
   midi.NoteOnEvent(tick=1468600, channel=0, data=[36, 100]),
   midi.NoteOffEvent(tick=1468700, channel=0, data=[36, 0]),
   midi.NoteOnEvent(tick=1468800, channel=0, data=[36, 100]),
   midi.NoteOffEvent(tick=1468900, channel=0, data=[36, 0]),
   midi.NoteOnEvent(tick=1469000, channel=0, data=[36, 100]),
   midi.NoteOffEvent(tick=1469100, channel=0, data=[36, 0]),
   midi.NoteOnEvent(tick=1469200, channel=0, data=[36, 100]),
   midi.NoteOffEvent(tick=1469300, channel=0, data=[36, 0]),
   midi.NoteOnEvent(tick=1469400, channel=0, data=[36, 100]),
   midi.NoteOffEvent(tick=1469500, channel=0, data=[36, 0]),
   midi.NoteOnEvent(tick=1469600, channel=0, data=[36, 100]),
   midi.NoteOffEvent(tick=1469700, channel=0, data=[36, 0]),
   midi.NoteOnEvent(tick=1469800, channel=0, data=[36, 100]),
   midi.NoteOffEvent(tick=1469900, channel=0, data=[36, 0]),
   midi.NoteOnEvent(tick=1470000, channel=0, data=[36, 100]),
   midi.NoteOffEvent(tick=1470100, channel=0, data=[36, 0]),
   midi.NoteOnEvent(tick=1470200, channel=0, data=[27, 100]),
   midi.NoteOffEvent(tick=1470300, channel=0, data=[27, 0]),
   midi.NoteOnEvent(tick=1470400, channel=0, data=[56, 100]),
   midi.NoteOffEvent(tick=1470500, channel=0, data=[56, 0]),
   midi.NoteOnEvent(tick=1470600, channel=0, data=[36, 100]),
   midi.NoteOffEvent(tick=1470700, channel=0, data=[36, 0]),
   midi.NoteOnEvent(tick=1470800, channel=0, data=[36, 100]),
   midi.NoteOffEvent(tick=1470900, channel=0, data=[36, 0]),
   midi.NoteOnEvent(tick=1471000, channel=0, data=[36, 100]),
   midi.NoteOffEvent(tick=1471100, channel=0, data=[36, 0]),
   midi.NoteOnEvent(tick=1471200, channel=0, data=[36, 100]),
   midi.NoteOffEvent(tick=1471300, channel=0, data=[36, 0]),
   midi.NoteOnEvent(tick=1471400, channel=0, data=[36, 100]),
   midi.NoteOffEvent(tick=1471500, channel=0, data=[36, 0]),
   midi.NoteOnEvent(tick=1471600, channel=0, data=[36, 100]),
   midi.NoteOffEvent(tick=1471700, channel=0, data=[36, 0]),
   midi.NoteOnEvent(tick=1471800, channel=0, data=[36, 100]),
   midi.NoteOffEvent(tick=1471900, channel=0, data=[36, 0]),
   midi.NoteOnEvent(tick=1472000, channel=0, data=[36, 100]),
   midi.NoteOffEvent(tick=1472100, channel=0, data=[36, 0]),
   midi.NoteOnEvent(tick=1472200, channel=0, data=[28, 100]),
   midi.NoteOffEvent(tick=1472300, channel=0, data=[28, 0]),
   midi.NoteOnEvent(tick=1472400, channel=0, data=[56, 100]),
   midi.NoteOffEvent(tick=1472500, channel=0, data=[56, 0]),
   midi.NoteOnEvent(tick=1472600, channel=0, data=[36, 100]),
   midi.NoteOffEvent(tick=1472700, channel=0, data=[36, 0]),
   midi.NoteOnEvent(tick=1472800, channel=0, data=[36, 100]),
   midi.NoteOffEvent(tick=1472900, channel=0, data=[36, 0]),
   midi.NoteOnEvent(tick=1473000, channel=0, data=[36, 100]),
   midi.NoteOffEvent(tick=1473100, channel=0, data=[36, 0]),
   midi.NoteOnEvent(tick=1473200, channel=0, data=[36, 100]),
   midi.NoteOffEvent(tick=1473300, channel=0, data=[36, 0]),
   midi.NoteOnEvent(tick=1473400, channel=0, data=[36, 100]),
   midi.NoteOffEvent(tick=1473500, channel=0, data=[36, 0]),
   midi.NoteOnEvent(tick=1473600, channel=0, data=[36, 100]),
   midi.NoteOffEvent(tick=1473700, channel=0, data=[36, 0]),
   midi.NoteOnEvent(tick=1473800, channel=0, data=[36, 100]),
   midi.NoteOffEvent(tick=1473900, channel=0, data=[36, 0]),
   midi.NoteOnEvent(tick=1474000, channel=0, data=[36, 100]),
   midi.NoteOffEvent(tick=1474100, channel=0, data=[36, 0]),
   midi.NoteOnEvent(tick=1474200, channel=0, data=[29, 100]),
   midi.NoteOffEvent(tick=1474300, channel=0, data=[29, 0]),
   midi.NoteOnEvent(tick=1474400, channel=0, data=[56, 100]),
   midi.NoteOffEvent(tick=1474500, channel=0, data=[56, 0]),
   midi.NoteOnEvent(tick=1474600, channel=0, data=[36, 100]),
   midi.NoteOffEvent(tick=1474700, channel=0, data=[36, 0]),
   midi.NoteOnEvent(tick=1474800, channel=0, data=[36, 100]),
   midi.NoteOffEvent(tick=1474900, channel=0, data=[36, 0]),
   midi.NoteOnEvent(tick=1475000, channel=0, data=[36, 100]),
   midi.NoteOffEvent(tick=1475100, channel=0, data=[36, 0]),
   midi.NoteOnEvent(tick=1475200, channel=0, data=[36, 100]),
   midi.NoteOffEvent(tick=1475300, channel=0, data=[36, 0]),
   midi.NoteOnEvent(tick=1475400, channel=0, data=[36, 100]),
   midi.NoteOffEvent(tick=1475500, channel=0, data=[36, 0]),
   midi.NoteOnEvent(tick=1475600, channel=0, data=[36, 100]),
   midi.NoteOffEvent(tick=1475700, channel=0, data=[36, 0]),
   midi.NoteOnEvent(tick=1475800, channel=0, data=[36, 100]),
   midi.NoteOffEvent(tick=1475900, channel=0, data=[36, 0]),
   midi.NoteOnEvent(tick=1476000, channel=0, data=[36, 100]),
   midi.NoteOffEvent(tick=1476100, channel=0, data=[36, 0]),
   midi.NoteOnEvent(tick=1476200, channel=0, data=[28, 100]),
   midi.NoteOffEvent(tick=1476300, channel=0, data=[28, 0]),
   midi.NoteOnEvent(tick=1476400, channel=0, data=[56, 100]),
   midi.NoteOffEvent(tick=1476500, channel=0, data=[56, 0]),
   midi.NoteOnEvent(tick=1476600, channel=0, data=[36, 100]),
   midi.NoteOffEvent(tick=1476700, channel=0, data=[36, 0]),
   midi.NoteOnEvent(tick=1476800, channel=0, data=[36, 100]),
   midi.NoteOffEvent(tick=1476900, channel=0, data=[36, 0]),
   midi.NoteOnEvent(tick=1477000, channel=0, data=[36, 100]),
   midi.NoteOffEvent(tick=1477100, channel=0, data=[36, 0]),
   midi.NoteOnEvent(tick=1477200, channel=0, data=[36, 100]),
   midi.NoteOffEvent(tick=1477300, channel=0, data=[36, 0]),
   midi.NoteOnEvent(tick=1477400, channel=0, data=[36, 100]),
   midi.NoteOffEvent(tick=1477500, channel=0, data=[36, 0]),
   midi.NoteOnEvent(tick=1477600, channel=0, data=[36, 100]),
   midi.NoteOffEvent(tick=1477700, channel=0, data=[36, 0]),
   midi.NoteOnEvent(tick=1477800, channel=0, data=[36, 100]),
   midi.NoteOffEvent(tick=1477900, channel=0, data=[36, 0]),
   midi.NoteOnEvent(tick=1478000, channel=0, data=[36, 100]),
   midi.NoteOffEvent(tick=1478100, channel=0, data=[36, 0]),
   midi.NoteOnEvent(tick=1478200, channel=0, data=[2, 100]),
   midi.NoteOffEvent(tick=1478300, channel=0, data=[2, 0]),
   midi.NoteOnEvent(tick=1478400, channel=0, data=[46, 100]),
   midi.NoteOffEvent(tick=1478500, channel=0, data=[46, 0]),
   midi.NoteOnEvent(tick=1478600, channel=0, data=[78, 100]),
   midi.NoteOffEvent(tick=1478700, channel=0, data=[78, 0]),
   midi.NoteOnEvent(tick=1478800, channel=0, data=[15, 100]),
   midi.NoteOffEvent(tick=1478900, channel=0, data=[15, 0]),
   midi.NoteOnEvent(tick=1479000, channel=0, data=[18, 100]),
   midi.NoteOffEvent(tick=1479100, channel=0, data=[18, 0]),
   midi.NoteOnEvent(tick=1479200, channel=0, data=[73, 100]),
   midi.NoteOffEvent(tick=1479300, channel=0, data=[73, 0]),
   midi.NoteOnEvent(tick=1479400, channel=0, data=[36, 100]),
   midi.NoteOffEvent(tick=1479500, channel=0, data=[36, 0]),
   midi.NoteOnEvent(tick=1479600, channel=0, data=[74, 100]),
   midi.NoteOffEvent(tick=1479700, channel=0, data=[74, 0]),
   midi.NoteOnEvent(tick=1479800, channel=0, data=[0, 100]),
   midi.NoteOffEvent(tick=1479900, channel=0, data=[0, 0]),
   midi.NoteOnEvent(tick=1480000, channel=0, data=[36, 100]),
   midi.NoteOffEvent(tick=1480100, channel=0, data=[36, 0]),
   midi.NoteOnEvent(tick=1480200, channel=0, data=[55, 100]),
   midi.NoteOffEvent(tick=1480300, channel=0, data=[55, 0]),
   midi.NoteOnEvent(tick=1480400, channel=0, data=[69, 100]),
   midi.NoteOffEvent(tick=1480500, channel=0, data=[69, 0]),
   midi.NoteOnEvent(tick=1480600, channel=0, data=[36, 100]),
   midi.NoteOffEvent(tick=1480700, channel=0, data=[36, 0]),
   midi.NoteOnEvent(tick=1480800, channel=0, data=[41, 100]),
   midi.NoteOffEvent(tick=1480900, channel=0, data=[41, 0]),
   midi.NoteOnEvent(tick=1481000, channel=0, data=[18, 100]),
   midi.NoteOffEvent(tick=1481100, channel=0, data=[18, 0]),
   midi.NoteOnEvent(tick=1481200, channel=0, data=[19, 100]),
   midi.NoteOffEvent(tick=1481300, channel=0, data=[19, 0]),
   midi.NoteOnEvent(tick=1481400, channel=0, data=[17, 100]),
   midi.NoteOffEvent(tick=1481500, channel=0, data=[17, 0]),
   midi.NoteOnEvent(tick=1481600, channel=0, data=[8, 100]),
   midi.NoteOffEvent(tick=1481700, channel=0, data=[8, 0]),
   midi.NoteOnEvent(tick=1481800, channel=0, data=[13, 100]),
   midi.NoteOffEvent(tick=1481900, channel=0, data=[13, 0]),
   midi.NoteOnEvent(tick=1482000, channel=0, data=[6, 100]),
   midi.NoteOffEvent(tick=1482100, channel=0, data=[6, 0]),
   midi.NoteOnEvent(tick=1482200, channel=0, data=[41, 100]),
   midi.NoteOffEvent(tick=1482300, channel=0, data=[41, 0]),
   midi.NoteOnEvent(tick=1482400, channel=0, data=[56, 100]),
   midi.NoteOffEvent(tick=1482500, channel=0, data=[56, 0]),
   midi.NoteOnEvent(tick=1482600, channel=0, data=[36, 100]),
   midi.NoteOffEvent(tick=1482700, channel=0, data=[36, 0]),
   midi.NoteOnEvent(tick=1482800, channel=0, data=[36, 100]),
   midi.NoteOffEvent(tick=1482900, channel=0, data=[36, 0]),
   midi.NoteOnEvent(tick=1483000, channel=0, data=[36, 100]),
   midi.NoteOffEvent(tick=1483100, channel=0, data=[36, 0]),
   midi.NoteOnEvent(tick=1483200, channel=0, data=[36, 100]),
   midi.NoteOffEvent(tick=1483300, channel=0, data=[36, 0]),
   midi.NoteOnEvent(tick=1483400, channel=0, data=[36, 100]),
   midi.NoteOffEvent(tick=1483500, channel=0, data=[36, 0]),
   midi.NoteOnEvent(tick=1483600, channel=0, data=[36, 100]),
   midi.NoteOffEvent(tick=1483700, channel=0, data=[36, 0]),
   midi.NoteOnEvent(tick=1483800, channel=0, data=[36, 100]),
   midi.NoteOffEvent(tick=1483900, channel=0, data=[36, 0]),
   midi.NoteOnEvent(tick=1484000, channel=0, data=[36, 100]),
   midi.NoteOffEvent(tick=1484100, channel=0, data=[36, 0]),
   midi.NoteOnEvent(tick=1484200, channel=0, data=[2, 100]),
   midi.NoteOffEvent(tick=1484300, channel=0, data=[2, 0]),
   midi.NoteOnEvent(tick=1484400, channel=0, data=[46, 100]),
   midi.NoteOffEvent(tick=1484500, channel=0, data=[46, 0]),
   midi.NoteOnEvent(tick=1484600, channel=0, data=[78, 100]),
   midi.NoteOffEvent(tick=1484700, channel=0, data=[78, 0]),
   midi.NoteOnEvent(tick=1484800, channel=0, data=[15, 100]),
   midi.NoteOffEvent(tick=1484900, channel=0, data=[15, 0]),
   midi.NoteOnEvent(tick=1485000, channel=0, data=[18, 100]),
   midi.NoteOffEvent(tick=1485100, channel=0, data=[18, 0]),
   midi.NoteOnEvent(tick=1485200, channel=0, data=[73, 100]),
   midi.NoteOffEvent(tick=1485300, channel=0, data=[73, 0]),
   midi.NoteOnEvent(tick=1485400, channel=0, data=[36, 100]),
   midi.NoteOffEvent(tick=1485500, channel=0, data=[36, 0]),
   midi.NoteOnEvent(tick=1485600, channel=0, data=[74, 100]),
   midi.NoteOffEvent(tick=1485700, channel=0, data=[74, 0]),
   midi.NoteOnEvent(tick=1485800, channel=0, data=[0, 100]),
   midi.NoteOffEvent(tick=1485900, channel=0, data=[0, 0]),
   midi.NoteOnEvent(tick=1486000, channel=0, data=[56, 100]),
   midi.NoteOffEvent(tick=1486100, channel=0, data=[56, 0]),
   midi.NoteOnEvent(tick=1486200, channel=0, data=[36, 100]),
   midi.NoteOffEvent(tick=1486300, channel=0, data=[36, 0]),
   midi.NoteOnEvent(tick=1486400, channel=0, data=[36, 100]),
   midi.NoteOffEvent(tick=1486500, channel=0, data=[36, 0]),
   midi.NoteOnEvent(tick=1486600, channel=0, data=[36, 100]),
   midi.NoteOffEvent(tick=1486700, channel=0, data=[36, 0]),
   midi.NoteOnEvent(tick=1486800, channel=0, data=[36, 100]),
   midi.NoteOffEvent(tick=1486900, channel=0, data=[36, 0]),
   midi.NoteOnEvent(tick=1487000, channel=0, data=[36, 100]),
   midi.NoteOffEvent(tick=1487100, channel=0, data=[36, 0]),
   midi.NoteOnEvent(tick=1487200, channel=0, data=[36, 100]),
   midi.NoteOffEvent(tick=1487300, channel=0, data=[36, 0]),
   midi.NoteOnEvent(tick=1487400, channel=0, data=[36, 100]),
   midi.NoteOffEvent(tick=1487500, channel=0, data=[36, 0]),
   midi.NoteOnEvent(tick=1487600, channel=0, data=[36, 100]),
   midi.NoteOffEvent(tick=1487700, channel=0, data=[36, 0]),
   midi.NoteOnEvent(tick=1487800, channel=0, data=[27, 100]),
   midi.NoteOffEvent(tick=1487900, channel=0, data=[27, 0]),
   midi.NoteOnEvent(tick=1488000, channel=0, data=[56, 100]),
   midi.NoteOffEvent(tick=1488100, channel=0, data=[56, 0]),
   midi.NoteOnEvent(tick=1488200, channel=0, data=[36, 100]),
   midi.NoteOffEvent(tick=1488300, channel=0, data=[36, 0]),
   midi.NoteOnEvent(tick=1488400, channel=0, data=[36, 100]),
   midi.NoteOffEvent(tick=1488500, channel=0, data=[36, 0]),
   midi.NoteOnEvent(tick=1488600, channel=0, data=[36, 100]),
   midi.NoteOffEvent(tick=1488700, channel=0, data=[36, 0]),
   midi.NoteOnEvent(tick=1488800, channel=0, data=[36, 100]),
   midi.NoteOffEvent(tick=1488900, channel=0, data=[36, 0]),
   midi.NoteOnEvent(tick=1489000, channel=0, data=[36, 100]),
   midi.NoteOffEvent(tick=1489100, channel=0, data=[36, 0]),
   midi.NoteOnEvent(tick=1489200, channel=0, data=[36, 100]),
   midi.NoteOffEvent(tick=1489300, channel=0, data=[36, 0]),
   midi.NoteOnEvent(tick=1489400, channel=0, data=[36, 100]),
   midi.NoteOffEvent(tick=1489500, channel=0, data=[36, 0]),
   midi.NoteOnEvent(tick=1489600, channel=0, data=[36, 100]),
   midi.NoteOffEvent(tick=1489700, channel=0, data=[36, 0]),
   midi.NoteOnEvent(tick=1489800, channel=0, data=[28, 100]),
   midi.NoteOffEvent(tick=1489900, channel=0, data=[28, 0]),
   midi.NoteOnEvent(tick=1490000, channel=0, data=[56, 100]),
   midi.NoteOffEvent(tick=1490100, channel=0, data=[56, 0]),
   midi.NoteOnEvent(tick=1490200, channel=0, data=[36, 100]),
   midi.NoteOffEvent(tick=1490300, channel=0, data=[36, 0]),
   midi.NoteOnEvent(tick=1490400, channel=0, data=[36, 100]),
   midi.NoteOffEvent(tick=1490500, channel=0, data=[36, 0]),
   midi.NoteOnEvent(tick=1490600, channel=0, data=[36, 100]),
   midi.NoteOffEvent(tick=1490700, channel=0, data=[36, 0]),
   midi.NoteOnEvent(tick=1490800, channel=0, data=[36, 100]),
   midi.NoteOffEvent(tick=1490900, channel=0, data=[36, 0]),
   midi.NoteOnEvent(tick=1491000, channel=0, data=[36, 100]),
   midi.NoteOffEvent(tick=1491100, channel=0, data=[36, 0]),
   midi.NoteOnEvent(tick=1491200, channel=0, data=[36, 100]),
   midi.NoteOffEvent(tick=1491300, channel=0, data=[36, 0]),
   midi.NoteOnEvent(tick=1491400, channel=0, data=[36, 100]),
   midi.NoteOffEvent(tick=1491500, channel=0, data=[36, 0]),
   midi.NoteOnEvent(tick=1491600, channel=0, data=[36, 100]),
   midi.NoteOffEvent(tick=1491700, channel=0, data=[36, 0]),
   midi.NoteOnEvent(tick=1491800, channel=0, data=[29, 100]),
   midi.NoteOffEvent(tick=1491900, channel=0, data=[29, 0]),
   midi.NoteOnEvent(tick=1492000, channel=0, data=[56, 100]),
   midi.NoteOffEvent(tick=1492100, channel=0, data=[56, 0]),
   midi.NoteOnEvent(tick=1492200, channel=0, data=[36, 100]),
   midi.NoteOffEvent(tick=1492300, channel=0, data=[36, 0]),
   midi.NoteOnEvent(tick=1492400, channel=0, data=[36, 100]),
   midi.NoteOffEvent(tick=1492500, channel=0, data=[36, 0]),
   midi.NoteOnEvent(tick=1492600, channel=0, data=[36, 100]),
   midi.NoteOffEvent(tick=1492700, channel=0, data=[36, 0]),
   midi.NoteOnEvent(tick=1492800, channel=0, data=[36, 100]),
   midi.NoteOffEvent(tick=1492900, channel=0, data=[36, 0]),
   midi.NoteOnEvent(tick=1493000, channel=0, data=[36, 100]),
   midi.NoteOffEvent(tick=1493100, channel=0, data=[36, 0]),
   midi.NoteOnEvent(tick=1493200, channel=0, data=[36, 100]),
   midi.NoteOffEvent(tick=1493300, channel=0, data=[36, 0]),
   midi.NoteOnEvent(tick=1493400, channel=0, data=[36, 100]),
   midi.NoteOffEvent(tick=1493500, channel=0, data=[36, 0]),
   midi.NoteOnEvent(tick=1493600, channel=0, data=[36, 100]),
   midi.NoteOffEvent(tick=1493700, channel=0, data=[36, 0]),
   midi.NoteOnEvent(tick=1493800, channel=0, data=[28, 100]),
   midi.NoteOffEvent(tick=1493900, channel=0, data=[28, 0]),
   midi.NoteOnEvent(tick=1494000, channel=0, data=[56, 100]),
   midi.NoteOffEvent(tick=1494100, channel=0, data=[56, 0]),
   midi.NoteOnEvent(tick=1494200, channel=0, data=[36, 100]),
   midi.NoteOffEvent(tick=1494300, channel=0, data=[36, 0]),
   midi.NoteOnEvent(tick=1494400, channel=0, data=[36, 100]),
   midi.NoteOffEvent(tick=1494500, channel=0, data=[36, 0]),
   midi.NoteOnEvent(tick=1494600, channel=0, data=[36, 100]),
   midi.NoteOffEvent(tick=1494700, channel=0, data=[36, 0]),
   midi.NoteOnEvent(tick=1494800, channel=0, data=[36, 100]),
   midi.NoteOffEvent(tick=1494900, channel=0, data=[36, 0]),
   midi.NoteOnEvent(tick=1495000, channel=0, data=[36, 100]),
   midi.NoteOffEvent(tick=1495100, channel=0, data=[36, 0]),
   midi.NoteOnEvent(tick=1495200, channel=0, data=[36, 100]),
   midi.NoteOffEvent(tick=1495300, channel=0, data=[36, 0]),
   midi.NoteOnEvent(tick=1495400, channel=0, data=[36, 100]),
   midi.NoteOffEvent(tick=1495500, channel=0, data=[36, 0]),
   midi.NoteOnEvent(tick=1495600, channel=0, data=[36, 100]),
   midi.NoteOffEvent(tick=1495700, channel=0, data=[36, 0]),
   midi.NoteOnEvent(tick=1495800, channel=0, data=[18, 100]),
   midi.NoteOffEvent(tick=1495900, channel=0, data=[18, 0]),
   midi.NoteOnEvent(tick=1496000, channel=0, data=[19, 100]),
   midi.NoteOffEvent(tick=1496100, channel=0, data=[19, 0]),
   midi.NoteOnEvent(tick=1496200, channel=0, data=[17, 100]),
   midi.NoteOffEvent(tick=1496300, channel=0, data=[17, 0]),
   midi.NoteOnEvent(tick=1496400, channel=0, data=[8, 100]),
   midi.NoteOffEvent(tick=1496500, channel=0, data=[8, 0]),
   midi.NoteOnEvent(tick=1496600, channel=0, data=[13, 100]),
   midi.NoteOffEvent(tick=1496700, channel=0, data=[13, 0]),
   midi.NoteOnEvent(tick=1496800, channel=0, data=[6, 100]),
   midi.NoteOffEvent(tick=1496900, channel=0, data=[6, 0]),
   midi.NoteOnEvent(tick=1497000, channel=0, data=[56, 100]),
   midi.NoteOffEvent(tick=1497100, channel=0, data=[56, 0]),
   midi.NoteOnEvent(tick=1497200, channel=0, data=[56, 100]),
   midi.NoteOffEvent(tick=1497300, channel=0, data=[56, 0]),
   midi.NoteOnEvent(tick=1497400, channel=0, data=[36, 100]),
   midi.NoteOffEvent(tick=1497500, channel=0, data=[36, 0]),
   midi.NoteOnEvent(tick=1497600, channel=0, data=[56, 100]),
   midi.NoteOffEvent(tick=1497700, channel=0, data=[56, 0]),
   midi.NoteOnEvent(tick=1497800, channel=0, data=[36, 100]),
   midi.NoteOffEvent(tick=1497900, channel=0, data=[36, 0]),
   midi.NoteOnEvent(tick=1498000, channel=0, data=[36, 100]),
   midi.NoteOffEvent(tick=1498100, channel=0, data=[36, 0]),
   midi.NoteOnEvent(tick=1498200, channel=0, data=[36, 100]),
   midi.NoteOffEvent(tick=1498300, channel=0, data=[36, 0]),
   midi.NoteOnEvent(tick=1498400, channel=0, data=[36, 100]),
   midi.NoteOffEvent(tick=1498500, channel=0, data=[36, 0]),
   midi.NoteOnEvent(tick=1498600, channel=0, data=[22, 100]),
   midi.NoteOffEvent(tick=1498700, channel=0, data=[22, 0]),
   midi.NoteOnEvent(tick=1498800, channel=0, data=[7, 100]),
   midi.NoteOffEvent(tick=1498900, channel=0, data=[7, 0]),
   midi.NoteOnEvent(tick=1499000, channel=0, data=[4, 100]),
   midi.NoteOffEvent(tick=1499100, channel=0, data=[4, 0]),
   midi.NoteOnEvent(tick=1499200, channel=0, data=[13, 100]),
   midi.NoteOffEvent(tick=1499300, channel=0, data=[13, 0]),
   midi.NoteOnEvent(tick=1499400, channel=0, data=[36, 100]),
   midi.NoteOffEvent(tick=1499500, channel=0, data=[36, 0]),
   midi.NoteOnEvent(tick=1499600, channel=0, data=[19, 100]),
   midi.NoteOffEvent(tick=1499700, channel=0, data=[19, 0]),
   midi.NoteOnEvent(tick=1499800, channel=0, data=[7, 100]),
   midi.NoteOffEvent(tick=1499900, channel=0, data=[7, 0]),
   midi.NoteOnEvent(tick=1500000, channel=0, data=[4, 100]),
   midi.NoteOffEvent(tick=1500100, channel=0, data=[4, 0]),
   midi.NoteOnEvent(tick=1500200, channel=0, data=[36, 100]),
   midi.NoteOffEvent(tick=1500300, channel=0, data=[36, 0]),
   midi.NoteOnEvent(tick=1500400, channel=0, data=[21, 100]),
   midi.NoteOffEvent(tick=1500500, channel=0, data=[21, 0]),
   midi.NoteOnEvent(tick=1500600, channel=0, data=[0, 100]),
   midi.NoteOffEvent(tick=1500700, channel=0, data=[0, 0]),
   midi.NoteOnEvent(tick=1500800, channel=0, data=[11, 100]),
   midi.NoteOffEvent(tick=1500900, channel=0, data=[11, 0]),
   midi.NoteOnEvent(tick=1501000, channel=0, data=[20, 100]),
   midi.NoteOffEvent(tick=1501100, channel=0, data=[20, 0]),
   midi.NoteOnEvent(tick=1501200, channel=0, data=[4, 100]),
   midi.NoteOffEvent(tick=1501300, channel=0, data=[4, 0]),
   midi.NoteOnEvent(tick=1501400, channel=0, data=[36, 100]),
   midi.NoteOffEvent(tick=1501500, channel=0, data=[36, 0]),
   midi.NoteOnEvent(tick=1501600, channel=0, data=[14, 100]),
   midi.NoteOffEvent(tick=1501700, channel=0, data=[14, 0]),
   midi.NoteOnEvent(tick=1501800, channel=0, data=[5, 100]),
   midi.NoteOffEvent(tick=1501900, channel=0, data=[5, 0]),
   midi.NoteOnEvent(tick=1502000, channel=0, data=[36, 100]),
   midi.NoteOffEvent(tick=1502100, channel=0, data=[36, 0]),
   midi.NoteOnEvent(tick=1502200, channel=0, data=[0, 100]),
   midi.NoteOffEvent(tick=1502300, channel=0, data=[0, 0]),
   midi.NoteOnEvent(tick=1502400, channel=0, data=[36, 100]),
   midi.NoteOffEvent(tick=1502500, channel=0, data=[36, 0]),
   midi.NoteOnEvent(tick=1502600, channel=0, data=[21, 100]),
   midi.NoteOffEvent(tick=1502700, channel=0, data=[21, 0]),
   midi.NoteOnEvent(tick=1502800, channel=0, data=[0, 100]),
   midi.NoteOffEvent(tick=1502900, channel=0, data=[0, 0]),
   midi.NoteOnEvent(tick=1503000, channel=0, data=[17, 100]),
   midi.NoteOffEvent(tick=1503100, channel=0, data=[17, 0]),
   midi.NoteOnEvent(tick=1503200, channel=0, data=[8, 100]),
   midi.NoteOffEvent(tick=1503300, channel=0, data=[8, 0]),
   midi.NoteOnEvent(tick=1503400, channel=0, data=[0, 100]),
   midi.NoteOffEvent(tick=1503500, channel=0, data=[0, 0]),
   midi.NoteOnEvent(tick=1503600, channel=0, data=[1, 100]),
   midi.NoteOffEvent(tick=1503700, channel=0, data=[1, 0]),
   midi.NoteOnEvent(tick=1503800, channel=0, data=[11, 100]),
   midi.NoteOffEvent(tick=1503900, channel=0, data=[11, 0]),
   midi.NoteOnEvent(tick=1504000, channel=0, data=[4, 100]),
   midi.NoteOffEvent(tick=1504100, channel=0, data=[4, 0]),
   midi.NoteOnEvent(tick=1504200, channel=0, data=[36, 100]),
   midi.NoteOffEvent(tick=1504300, channel=0, data=[36, 0]),
   midi.NoteOnEvent(tick=1504400, channel=0, data=[8, 100]),
   midi.NoteOffEvent(tick=1504500, channel=0, data=[8, 0]),
   midi.NoteOnEvent(tick=1504600, channel=0, data=[18, 100]),
   midi.NoteOffEvent(tick=1504700, channel=0, data=[18, 0]),
   midi.NoteOnEvent(tick=1504800, channel=0, data=[36, 100]),
   midi.NoteOffEvent(tick=1504900, channel=0, data=[36, 0]),
   midi.NoteOnEvent(tick=1505000, channel=0, data=[0, 100]),
   midi.NoteOffEvent(tick=1505100, channel=0, data=[0, 0]),
   midi.NoteOnEvent(tick=1505200, channel=0, data=[36, 100]),
   midi.NoteOffEvent(tick=1505300, channel=0, data=[36, 0]),
   midi.NoteOnEvent(tick=1505400, channel=0, data=[7, 100]),
   midi.NoteOffEvent(tick=1505500, channel=0, data=[7, 0]),
   midi.NoteOnEvent(tick=1505600, channel=0, data=[0, 100]),
   midi.NoteOffEvent(tick=1505700, channel=0, data=[0, 0]),
   midi.NoteOnEvent(tick=1505800, channel=0, data=[18, 100]),
   midi.NoteOffEvent(tick=1505900, channel=0, data=[18, 0]),
   midi.NoteOnEvent(tick=1506000, channel=0, data=[7, 100]),
   midi.NoteOffEvent(tick=1506100, channel=0, data=[7, 0]),
   midi.NoteOnEvent(tick=1506200, channel=0, data=[36, 100]),
   midi.NoteOffEvent(tick=1506300, channel=0, data=[36, 0]),
   midi.NoteOnEvent(tick=1506400, channel=0, data=[19, 100]),
   midi.NoteOffEvent(tick=1506500, channel=0, data=[19, 0]),
   midi.NoteOnEvent(tick=1506600, channel=0, data=[0, 100]),
   midi.NoteOffEvent(tick=1506700, channel=0, data=[0, 0]),
   midi.NoteOnEvent(tick=1506800, channel=0, data=[1, 100]),
   midi.NoteOffEvent(tick=1506900, channel=0, data=[1, 0]),
   midi.NoteOnEvent(tick=1507000, channel=0, data=[11, 100]),
   midi.NoteOffEvent(tick=1507100, channel=0, data=[11, 0]),
   midi.NoteOnEvent(tick=1507200, channel=0, data=[4, 100]),
   midi.NoteOffEvent(tick=1507300, channel=0, data=[4, 0]),
   midi.NoteOnEvent(tick=1507400, channel=0, data=[38, 100]),
   midi.NoteOffEvent(tick=1507500, channel=0, data=[38, 0]),
   midi.NoteOnEvent(tick=1507600, channel=0, data=[36, 100]),
   midi.NoteOffEvent(tick=1507700, channel=0, data=[36, 0]),
   midi.NoteOnEvent(tick=1507800, channel=0, data=[19, 100]),
   midi.NoteOffEvent(tick=1507900, channel=0, data=[19, 0]),
   midi.NoteOnEvent(tick=1508000, channel=0, data=[7, 100]),
   midi.NoteOffEvent(tick=1508100, channel=0, data=[7, 0]),
   midi.NoteOnEvent(tick=1508200, channel=0, data=[4, 100]),
   midi.NoteOffEvent(tick=1508300, channel=0, data=[4, 0]),
   midi.NoteOnEvent(tick=1508400, channel=0, data=[36, 100]),
   midi.NoteOffEvent(tick=1508500, channel=0, data=[36, 0]),
   midi.NoteOnEvent(tick=1508600, channel=0, data=[55, 100]),
   midi.NoteOffEvent(tick=1508700, channel=0, data=[55, 0]),
   midi.NoteOnEvent(tick=1508800, channel=0, data=[69, 100]),
   midi.NoteOffEvent(tick=1508900, channel=0, data=[69, 0]),
   midi.NoteOnEvent(tick=1509000, channel=0, data=[36, 100]),
   midi.NoteOffEvent(tick=1509100, channel=0, data=[36, 0]),
   midi.NoteOnEvent(tick=1509200, channel=0, data=[14, 100]),
   midi.NoteOffEvent(tick=1509300, channel=0, data=[14, 0]),
   midi.NoteOnEvent(tick=1509400, channel=0, data=[15, 100]),
   midi.NoteOffEvent(tick=1509500, channel=0, data=[15, 0]),
   midi.NoteOnEvent(tick=1509600, channel=0, data=[4, 100]),
   midi.NoteOffEvent(tick=1509700, channel=0, data=[4, 0]),
   midi.NoteOnEvent(tick=1509800, channel=0, data=[17, 100]),
   midi.NoteOffEvent(tick=1509900, channel=0, data=[17, 0]),
   midi.NoteOnEvent(tick=1510000, channel=0, data=[0, 100]),
   midi.NoteOffEvent(tick=1510100, channel=0, data=[0, 0]),
   midi.NoteOnEvent(tick=1510200, channel=0, data=[19, 100]),
   midi.NoteOffEvent(tick=1510300, channel=0, data=[19, 0]),
   midi.NoteOnEvent(tick=1510400, channel=0, data=[14, 100]),
   midi.NoteOffEvent(tick=1510500, channel=0, data=[14, 0]),
   midi.NoteOnEvent(tick=1510600, channel=0, data=[17, 100]),
   midi.NoteOffEvent(tick=1510700, channel=0, data=[17, 0]),
   midi.NoteOnEvent(tick=1510800, channel=0, data=[36, 100]),
   midi.NoteOffEvent(tick=1510900, channel=0, data=[36, 0]),
   midi.NoteOnEvent(tick=1511000, channel=0, data=[0, 100]),
   midi.NoteOffEvent(tick=1511100, channel=0, data=[0, 0]),
   midi.NoteOnEvent(tick=1511200, channel=0, data=[15, 100]),
   midi.NoteOffEvent(tick=1511300, channel=0, data=[15, 0]),
   midi.NoteOnEvent(tick=1511400, channel=0, data=[15, 100]),
   midi.NoteOffEvent(tick=1511500, channel=0, data=[15, 0]),
   midi.NoteOnEvent(tick=1511600, channel=0, data=[4, 100]),
   midi.NoteOffEvent(tick=1511700, channel=0, data=[4, 0]),
   midi.NoteOnEvent(tick=1511800, channel=0, data=[13, 100]),
   midi.NoteOffEvent(tick=1511900, channel=0, data=[13, 0]),
   midi.NoteOnEvent(tick=1512000, channel=0, data=[3, 100]),
   midi.NoteOffEvent(tick=1512100, channel=0, data=[3, 0]),
   midi.NoteOnEvent(tick=1512200, channel=0, data=[18, 100]),
   midi.NoteOffEvent(tick=1512300, channel=0, data=[18, 0]),
   midi.NoteOnEvent(tick=1512400, channel=0, data=[36, 100]),
   midi.NoteOffEvent(tick=1512500, channel=0, data=[36, 0]),
   midi.NoteOnEvent(tick=1512600, channel=0, data=[19, 100]),
   midi.NoteOffEvent(tick=1512700, channel=0, data=[19, 0]),
   midi.NoteOnEvent(tick=1512800, channel=0, data=[7, 100]),
   midi.NoteOffEvent(tick=1512900, channel=0, data=[7, 0]),
   midi.NoteOnEvent(tick=1513000, channel=0, data=[4, 100]),
   midi.NoteOffEvent(tick=1513100, channel=0, data=[4, 0]),
   midi.NoteOnEvent(tick=1513200, channel=0, data=[36, 100]),
   midi.NoteOffEvent(tick=1513300, channel=0, data=[36, 0]),
   midi.NoteOnEvent(tick=1513400, channel=0, data=[56, 100]),
   midi.NoteOffEvent(tick=1513500, channel=0, data=[56, 0]),
   midi.NoteOnEvent(tick=1513600, channel=0, data=[36, 100]),
   midi.NoteOffEvent(tick=1513700, channel=0, data=[36, 0]),
   midi.NoteOnEvent(tick=1513800, channel=0, data=[36, 100]),
   midi.NoteOffEvent(tick=1513900, channel=0, data=[36, 0]),
   midi.NoteOnEvent(tick=1514000, channel=0, data=[36, 100]),
   midi.NoteOffEvent(tick=1514100, channel=0, data=[36, 0]),
   midi.NoteOnEvent(tick=1514200, channel=0, data=[36, 100]),
   midi.NoteOffEvent(tick=1514300, channel=0, data=[36, 0]),
   midi.NoteOnEvent(tick=1514400, channel=0, data=[21, 100]),
   midi.NoteOffEvent(tick=1514500, channel=0, data=[21, 0]),
   midi.NoteOnEvent(tick=1514600, channel=0, data=[0, 100]),
   midi.NoteOffEvent(tick=1514700, channel=0, data=[0, 0]),
   midi.NoteOnEvent(tick=1514800, channel=0, data=[11, 100]),
   midi.NoteOffEvent(tick=1514900, channel=0, data=[11, 0]),
   midi.NoteOnEvent(tick=1515000, channel=0, data=[20, 100]),
   midi.NoteOffEvent(tick=1515100, channel=0, data=[20, 0]),
   midi.NoteOnEvent(tick=1515200, channel=0, data=[4, 100]),
   midi.NoteOffEvent(tick=1515300, channel=0, data=[4, 0]),
   midi.NoteOnEvent(tick=1515400, channel=0, data=[36, 100]),
   midi.NoteOffEvent(tick=1515500, channel=0, data=[36, 0]),
   midi.NoteOnEvent(tick=1515600, channel=0, data=[14, 100]),
   midi.NoteOffEvent(tick=1515700, channel=0, data=[14, 0]),
   midi.NoteOnEvent(tick=1515800, channel=0, data=[13, 100]),
   midi.NoteOffEvent(tick=1515900, channel=0, data=[13, 0]),
   midi.NoteOnEvent(tick=1516000, channel=0, data=[36, 100]),
   midi.NoteOffEvent(tick=1516100, channel=0, data=[36, 0]),
   midi.NoteOnEvent(tick=1516200, channel=0, data=[19, 100]),
   midi.NoteOffEvent(tick=1516300, channel=0, data=[19, 0]),
   midi.NoteOnEvent(tick=1516400, channel=0, data=[7, 100]),
   midi.NoteOffEvent(tick=1516500, channel=0, data=[7, 0]),
   midi.NoteOnEvent(tick=1516600, channel=0, data=[4, 100]),
   midi.NoteOffEvent(tick=1516700, channel=0, data=[4, 0]),
   midi.NoteOnEvent(tick=1516800, channel=0, data=[36, 100]),
   midi.NoteOffEvent(tick=1516900, channel=0, data=[36, 0]),
   midi.NoteOnEvent(tick=1517000, channel=0, data=[17, 100]),
   midi.NoteOffEvent(tick=1517100, channel=0, data=[17, 0]),
   midi.NoteOnEvent(tick=1517200, channel=0, data=[8, 100]),
   midi.NoteOffEvent(tick=1517300, channel=0, data=[8, 0]),
   midi.NoteOnEvent(tick=1517400, channel=0, data=[6, 100]),
   midi.NoteOffEvent(tick=1517500, channel=0, data=[6, 0]),
   midi.NoteOnEvent(tick=1517600, channel=0, data=[7, 100]),
   midi.NoteOffEvent(tick=1517700, channel=0, data=[7, 0]),
   midi.NoteOnEvent(tick=1517800, channel=0, data=[19, 100]),
   midi.NoteOffEvent(tick=1517900, channel=0, data=[19, 0]),
   midi.NoteOnEvent(tick=1518000, channel=0, data=[36, 100]),
   midi.NoteOffEvent(tick=1518100, channel=0, data=[36, 0]),
   midi.NoteOnEvent(tick=1518200, channel=0, data=[18, 100]),
   midi.NoteOffEvent(tick=1518300, channel=0, data=[18, 0]),
   midi.NoteOnEvent(tick=1518400, channel=0, data=[8, 100]),
   midi.NoteOffEvent(tick=1518500, channel=0, data=[8, 0]),
   midi.NoteOnEvent(tick=1518600, channel=0, data=[3, 100]),
   midi.NoteOffEvent(tick=1518700, channel=0, data=[3, 0]),
   midi.NoteOnEvent(tick=1518800, channel=0, data=[4, 100]),
   midi.NoteOffEvent(tick=1518900, channel=0, data=[4, 0]),
   midi.NoteOnEvent(tick=1519000, channel=0, data=[36, 100]),
   midi.NoteOffEvent(tick=1519100, channel=0, data=[36, 0]),
   midi.NoteOnEvent(tick=1519200, channel=0, data=[14, 100]),
   midi.NoteOffEvent(tick=1519300, channel=0, data=[14, 0]),
   midi.NoteOnEvent(tick=1519400, channel=0, data=[5, 100]),
   midi.NoteOffEvent(tick=1519500, channel=0, data=[5, 0]),
   midi.NoteOnEvent(tick=1519600, channel=0, data=[36, 100]),
   midi.NoteOffEvent(tick=1519700, channel=0, data=[36, 0]),
   midi.NoteOnEvent(tick=1519800, channel=0, data=[19, 100]),
   midi.NoteOffEvent(tick=1519900, channel=0, data=[19, 0]),
   midi.NoteOnEvent(tick=1520000, channel=0, data=[7, 100]),
   midi.NoteOffEvent(tick=1520100, channel=0, data=[7, 0]),
   midi.NoteOnEvent(tick=1520200, channel=0, data=[4, 100]),
   midi.NoteOffEvent(tick=1520300, channel=0, data=[4, 0]),
   midi.NoteOnEvent(tick=1520400, channel=0, data=[36, 100]),
   midi.NoteOffEvent(tick=1520500, channel=0, data=[36, 0]),
   midi.NoteOnEvent(tick=1520600, channel=0, data=[14, 100]),
   midi.NoteOffEvent(tick=1520700, channel=0, data=[14, 0]),
   midi.NoteOnEvent(tick=1520800, channel=0, data=[15, 100]),
   midi.NoteOffEvent(tick=1520900, channel=0, data=[15, 0]),
   midi.NoteOnEvent(tick=1521000, channel=0, data=[4, 100]),
   midi.NoteOffEvent(tick=1521100, channel=0, data=[4, 0]),
   midi.NoteOnEvent(tick=1521200, channel=0, data=[17, 100]),
   midi.NoteOffEvent(tick=1521300, channel=0, data=[17, 0]),
   midi.NoteOnEvent(tick=1521400, channel=0, data=[0, 100]),
   midi.NoteOffEvent(tick=1521500, channel=0, data=[0, 0]),
   midi.NoteOnEvent(tick=1521600, channel=0, data=[19, 100]),
   midi.NoteOffEvent(tick=1521700, channel=0, data=[19, 0]),
   midi.NoteOnEvent(tick=1521800, channel=0, data=[14, 100]),
   midi.NoteOffEvent(tick=1521900, channel=0, data=[14, 0]),
   midi.NoteOnEvent(tick=1522000, channel=0, data=[17, 100]),
   midi.NoteOffEvent(tick=1522100, channel=0, data=[17, 0]),
   midi.NoteOnEvent(tick=1522200, channel=0, data=[36, 100]),
   midi.NoteOffEvent(tick=1522300, channel=0, data=[36, 0]),
   midi.NoteOnEvent(tick=1522400, channel=0, data=[19, 100]),
   midi.NoteOffEvent(tick=1522500, channel=0, data=[19, 0]),
   midi.NoteOnEvent(tick=1522600, channel=0, data=[14, 100]),
   midi.NoteOffEvent(tick=1522700, channel=0, data=[14, 0]),
   midi.NoteOnEvent(tick=1522800, channel=0, data=[36, 100]),
   midi.NoteOffEvent(tick=1522900, channel=0, data=[36, 0]),
   midi.NoteOnEvent(tick=1523000, channel=0, data=[19, 100]),
   midi.NoteOffEvent(tick=1523100, channel=0, data=[19, 0]),
   midi.NoteOnEvent(tick=1523200, channel=0, data=[7, 100]),
   midi.NoteOffEvent(tick=1523300, channel=0, data=[7, 0]),
   midi.NoteOnEvent(tick=1523400, channel=0, data=[4, 100]),
   midi.NoteOffEvent(tick=1523500, channel=0, data=[4, 0]),
   midi.NoteOnEvent(tick=1523600, channel=0, data=[36, 100]),
   midi.NoteOffEvent(tick=1523700, channel=0, data=[36, 0]),
   midi.NoteOnEvent(tick=1523800, channel=0, data=[7, 100]),
   midi.NoteOffEvent(tick=1523900, channel=0, data=[7, 0]),
   midi.NoteOnEvent(tick=1524000, channel=0, data=[0, 100]),
   midi.NoteOffEvent(tick=1524100, channel=0, data=[0, 0]),
   midi.NoteOnEvent(tick=1524200, channel=0, data=[18, 100]),
   midi.NoteOffEvent(tick=1524300, channel=0, data=[18, 0]),
   midi.NoteOnEvent(tick=1524400, channel=0, data=[7, 100]),
   midi.NoteOffEvent(tick=1524500, channel=0, data=[7, 0]),
   midi.NoteOnEvent(tick=1524600, channel=0, data=[36, 100]),
   midi.NoteOffEvent(tick=1524700, channel=0, data=[36, 0]),
   midi.NoteOnEvent(tick=1524800, channel=0, data=[19, 100]),
   midi.NoteOffEvent(tick=1524900, channel=0, data=[19, 0]),
   midi.NoteOnEvent(tick=1525000, channel=0, data=[0, 100]),
   midi.NoteOffEvent(tick=1525100, channel=0, data=[0, 0]),
   midi.NoteOnEvent(tick=1525200, channel=0, data=[1, 100]),
   midi.NoteOffEvent(tick=1525300, channel=0, data=[1, 0]),
   midi.NoteOnEvent(tick=1525400, channel=0, data=[11, 100]),
   midi.NoteOffEvent(tick=1525500, channel=0, data=[11, 0]),
   midi.NoteOnEvent(tick=1525600, channel=0, data=[4, 100]),
   midi.NoteOffEvent(tick=1525700, channel=0, data=[4, 0]),
   midi.NoteOnEvent(tick=1525800, channel=0, data=[37, 100]),
   midi.NoteOffEvent(tick=1525900, channel=0, data=[37, 0]),
   midi.NoteOnEvent(tick=1526000, channel=0, data=[36, 100]),
   midi.NoteOffEvent(tick=1526100, channel=0, data=[36, 0]),
   midi.NoteOnEvent(tick=1526200, channel=0, data=[7, 100]),
   midi.NoteOffEvent(tick=1526300, channel=0, data=[7, 0]),
   midi.NoteOnEvent(tick=1526400, channel=0, data=[14, 100]),
   midi.NoteOffEvent(tick=1526500, channel=0, data=[14, 0]),
   midi.NoteOnEvent(tick=1526600, channel=0, data=[22, 100]),
   midi.NoteOffEvent(tick=1526700, channel=0, data=[22, 0]),
   midi.NoteOnEvent(tick=1526800, channel=0, data=[4, 100]),
   midi.NoteOffEvent(tick=1526900, channel=0, data=[4, 0]),
   midi.NoteOnEvent(tick=1527000, channel=0, data=[21, 100]),
   midi.NoteOffEvent(tick=1527100, channel=0, data=[21, 0]),
   midi.NoteOnEvent(tick=1527200, channel=0, data=[4, 100]),
   midi.NoteOffEvent(tick=1527300, channel=0, data=[4, 0]),
   midi.NoteOnEvent(tick=1527400, channel=0, data=[17, 100]),
   midi.NoteOffEvent(tick=1527500, channel=0, data=[17, 0]),
   midi.NoteOnEvent(tick=1527600, channel=0, data=[38, 100]),
   midi.NoteOffEvent(tick=1527700, channel=0, data=[38, 0]),
   midi.NoteOnEvent(tick=1527800, channel=0, data=[36, 100]),
   midi.NoteOffEvent(tick=1527900, channel=0, data=[36, 0]),
   midi.NoteOnEvent(tick=1528000, channel=0, data=[1, 100]),
   midi.NoteOffEvent(tick=1528100, channel=0, data=[1, 0]),
   midi.NoteOnEvent(tick=1528200, channel=0, data=[4, 100]),
   midi.NoteOffEvent(tick=1528300, channel=0, data=[4, 0]),
   midi.NoteOnEvent(tick=1528400, channel=0, data=[2, 100]),
   midi.NoteOffEvent(tick=1528500, channel=0, data=[2, 0]),
   midi.NoteOnEvent(tick=1528600, channel=0, data=[0, 100]),
   midi.NoteOffEvent(tick=1528700, channel=0, data=[0, 0]),
   midi.NoteOnEvent(tick=1528800, channel=0, data=[20, 100]),
   midi.NoteOffEvent(tick=1528900, channel=0, data=[20, 0]),
   midi.NoteOnEvent(tick=1529000, channel=0, data=[18, 100]),
   midi.NoteOffEvent(tick=1529100, channel=0, data=[18, 0]),
   midi.NoteOnEvent(tick=1529200, channel=0, data=[4, 100]),
   midi.NoteOffEvent(tick=1529300, channel=0, data=[4, 0]),
   midi.NoteOnEvent(tick=1529400, channel=0, data=[36, 100]),
   midi.NoteOffEvent(tick=1529500, channel=0, data=[36, 0]),
   midi.NoteOnEvent(tick=1529600, channel=0, data=[56, 100]),
   midi.NoteOffEvent(tick=1529700, channel=0, data=[56, 0]),
   midi.NoteOnEvent(tick=1529800, channel=0, data=[36, 100]),
   midi.NoteOffEvent(tick=1529900, channel=0, data=[36, 0]),
   midi.NoteOnEvent(tick=1530000, channel=0, data=[36, 100]),
   midi.NoteOffEvent(tick=1530100, channel=0, data=[36, 0]),
   midi.NoteOnEvent(tick=1530200, channel=0, data=[36, 100]),
   midi.NoteOffEvent(tick=1530300, channel=0, data=[36, 0]),
   midi.NoteOnEvent(tick=1530400, channel=0, data=[36, 100]),
   midi.NoteOffEvent(tick=1530500, channel=0, data=[36, 0]),
   midi.NoteOnEvent(tick=1530600, channel=0, data=[19, 100]),
   midi.NoteOffEvent(tick=1530700, channel=0, data=[19, 0]),
   midi.NoteOnEvent(tick=1530800, channel=0, data=[7, 100]),
   midi.NoteOffEvent(tick=1530900, channel=0, data=[7, 0]),
   midi.NoteOnEvent(tick=1531000, channel=0, data=[4, 100]),
   midi.NoteOffEvent(tick=1531100, channel=0, data=[4, 0]),
   midi.NoteOnEvent(tick=1531200, channel=0, data=[36, 100]),
   midi.NoteOffEvent(tick=1531300, channel=0, data=[36, 0]),
   midi.NoteOnEvent(tick=1531400, channel=0, data=[14, 100]),
   midi.NoteOffEvent(tick=1531500, channel=0, data=[14, 0]),
   midi.NoteOnEvent(tick=1531600, channel=0, data=[13, 100]),
   midi.NoteOffEvent(tick=1531700, channel=0, data=[13, 0]),
   midi.NoteOnEvent(tick=1531800, channel=0, data=[11, 100]),
   midi.NoteOffEvent(tick=1531900, channel=0, data=[11, 0]),
   midi.NoteOnEvent(tick=1532000, channel=0, data=[24, 100]),
   midi.NoteOffEvent(tick=1532100, channel=0, data=[24, 0]),
   midi.NoteOnEvent(tick=1532200, channel=0, data=[36, 100]),
   midi.NoteOffEvent(tick=1532300, channel=0, data=[36, 0]),
   midi.NoteOnEvent(tick=1532400, channel=0, data=[19, 100]),
   midi.NoteOffEvent(tick=1532500, channel=0, data=[19, 0]),
   midi.NoteOnEvent(tick=1532600, channel=0, data=[24, 100]),
   midi.NoteOffEvent(tick=1532700, channel=0, data=[24, 0]),
   midi.NoteOnEvent(tick=1532800, channel=0, data=[15, 100]),
   midi.NoteOffEvent(tick=1532900, channel=0, data=[15, 0]),
   midi.NoteOnEvent(tick=1533000, channel=0, data=[4, 100]),
   midi.NoteOffEvent(tick=1533100, channel=0, data=[4, 0]),
   midi.NoteOnEvent(tick=1533200, channel=0, data=[36, 100]),
   midi.NoteOffEvent(tick=1533300, channel=0, data=[36, 0]),
   midi.NoteOnEvent(tick=1533400, channel=0, data=[19, 100]),
   midi.NoteOffEvent(tick=1533500, channel=0, data=[19, 0]),
   midi.NoteOnEvent(tick=1533600, channel=0, data=[7, 100]),
   midi.NoteOffEvent(tick=1533700, channel=0, data=[7, 0]),
   midi.NoteOnEvent(tick=1533800, channel=0, data=[0, 100]),
   midi.NoteOffEvent(tick=1533900, channel=0, data=[0, 0]),
   midi.NoteOnEvent(tick=1534000, channel=0, data=[19, 100]),
   midi.NoteOffEvent(tick=1534100, channel=0, data=[19, 0]),
   midi.NoteOnEvent(tick=1534200, channel=0, data=[36, 100]),
   midi.NoteOffEvent(tick=1534300, channel=0, data=[36, 0]),
   midi.NoteOnEvent(tick=1534400, channel=0, data=[24, 100]),
   midi.NoteOffEvent(tick=1534500, channel=0, data=[24, 0]),
   midi.NoteOnEvent(tick=1534600, channel=0, data=[14, 100]),
   midi.NoteOffEvent(tick=1534700, channel=0, data=[14, 0]),
   midi.NoteOnEvent(tick=1534800, channel=0, data=[20, 100]),
   midi.NoteOffEvent(tick=1534900, channel=0, data=[20, 0]),
   midi.NoteOnEvent(tick=1535000, channel=0, data=[36, 100]),
   midi.NoteOffEvent(tick=1535100, channel=0, data=[36, 0]),
   midi.NoteOnEvent(tick=1535200, channel=0, data=[2, 100]),
   midi.NoteOffEvent(tick=1535300, channel=0, data=[2, 0]),
   midi.NoteOnEvent(tick=1535400, channel=0, data=[0, 100]),
   midi.NoteOffEvent(tick=1535500, channel=0, data=[0, 0]),
   midi.NoteOnEvent(tick=1535600, channel=0, data=[13, 100]),
   midi.NoteOffEvent(tick=1535700, channel=0, data=[13, 0]),
   midi.NoteOnEvent(tick=1535800, channel=0, data=[36, 100]),
   midi.NoteOffEvent(tick=1535900, channel=0, data=[36, 0]),
   midi.NoteOnEvent(tick=1536000, channel=0, data=[0, 100]),
   midi.NoteOffEvent(tick=1536100, channel=0, data=[0, 0]),
   midi.NoteOnEvent(tick=1536200, channel=0, data=[3, 100]),
   midi.NoteOffEvent(tick=1536300, channel=0, data=[3, 0]),
   midi.NoteOnEvent(tick=1536400, channel=0, data=[3, 100]),
   midi.NoteOffEvent(tick=1536500, channel=0, data=[3, 0]),
   midi.NoteOnEvent(tick=1536600, channel=0, data=[36, 100]),
   midi.NoteOffEvent(tick=1536700, channel=0, data=[36, 0]),
   midi.NoteOnEvent(tick=1536800, channel=0, data=[19, 100]),
   midi.NoteOffEvent(tick=1536900, channel=0, data=[19, 0]),
   midi.NoteOnEvent(tick=1537000, channel=0, data=[14, 100]),
   midi.NoteOffEvent(tick=1537100, channel=0, data=[14, 0]),
   midi.NoteOnEvent(tick=1537200, channel=0, data=[36, 100]),
   midi.NoteOffEvent(tick=1537300, channel=0, data=[36, 0]),
   midi.NoteOnEvent(tick=1537400, channel=0, data=[0, 100]),
   midi.NoteOffEvent(tick=1537500, channel=0, data=[0, 0]),
   midi.NoteOnEvent(tick=1537600, channel=0, data=[36, 100]),
   midi.NoteOffEvent(tick=1537700, channel=0, data=[36, 0]),
   midi.NoteOnEvent(tick=1537800, channel=0, data=[7, 100]),
   midi.NoteOffEvent(tick=1537900, channel=0, data=[7, 0]),
   midi.NoteOnEvent(tick=1538000, channel=0, data=[0, 100]),
   midi.NoteOffEvent(tick=1538100, channel=0, data=[0, 0]),
   midi.NoteOnEvent(tick=1538200, channel=0, data=[18, 100]),
   midi.NoteOffEvent(tick=1538300, channel=0, data=[18, 0]),
   midi.NoteOnEvent(tick=1538400, channel=0, data=[7, 100]),
   midi.NoteOffEvent(tick=1538500, channel=0, data=[7, 0]),
   midi.NoteOnEvent(tick=1538600, channel=0, data=[36, 100]),
   midi.NoteOffEvent(tick=1538700, channel=0, data=[36, 0]),
   midi.NoteOnEvent(tick=1538800, channel=0, data=[19, 100]),
   midi.NoteOffEvent(tick=1538900, channel=0, data=[19, 0]),
   midi.NoteOnEvent(tick=1539000, channel=0, data=[0, 100]),
   midi.NoteOffEvent(tick=1539100, channel=0, data=[0, 0]),
   midi.NoteOnEvent(tick=1539200, channel=0, data=[1, 100]),
   midi.NoteOffEvent(tick=1539300, channel=0, data=[1, 0]),
   midi.NoteOnEvent(tick=1539400, channel=0, data=[11, 100]),
   midi.NoteOffEvent(tick=1539500, channel=0, data=[11, 0]),
   midi.NoteOnEvent(tick=1539600, channel=0, data=[4, 100]),
   midi.NoteOffEvent(tick=1539700, channel=0, data=[4, 0]),
   midi.NoteOnEvent(tick=1539800, channel=0, data=[36, 100]),
   midi.NoteOffEvent(tick=1539900, channel=0, data=[36, 0]),
   midi.NoteOnEvent(tick=1540000, channel=0, data=[8, 100]),
   midi.NoteOffEvent(tick=1540100, channel=0, data=[8, 0]),
   midi.NoteOnEvent(tick=1540200, channel=0, data=[18, 100]),
   midi.NoteOffEvent(tick=1540300, channel=0, data=[18, 0]),
   midi.NoteOnEvent(tick=1540400, channel=0, data=[36, 100]),
   midi.NoteOffEvent(tick=1540500, channel=0, data=[36, 0]),
   midi.NoteOnEvent(tick=1540600, channel=0, data=[0, 100]),
   midi.NoteOffEvent(tick=1540700, channel=0, data=[0, 0]),
   midi.NoteOnEvent(tick=1540800, channel=0, data=[13, 100]),
   midi.NoteOffEvent(tick=1540900, channel=0, data=[13, 0]),
   midi.NoteOnEvent(tick=1541000, channel=0, data=[14, 100]),
   midi.NoteOffEvent(tick=1541100, channel=0, data=[14, 0]),
   midi.NoteOnEvent(tick=1541200, channel=0, data=[19, 100]),
   midi.NoteOffEvent(tick=1541300, channel=0, data=[19, 0]),
   midi.NoteOnEvent(tick=1541400, channel=0, data=[7, 100]),
   midi.NoteOffEvent(tick=1541500, channel=0, data=[7, 0]),
   midi.NoteOnEvent(tick=1541600, channel=0, data=[4, 100]),
   midi.NoteOffEvent(tick=1541700, channel=0, data=[4, 0]),
   midi.NoteOnEvent(tick=1541800, channel=0, data=[17, 100]),
   midi.NoteOffEvent(tick=1541900, channel=0, data=[17, 0]),
   midi.NoteOnEvent(tick=1542000, channel=0, data=[36, 100]),
   midi.NoteOffEvent(tick=1542100, channel=0, data=[36, 0]),
   midi.NoteOnEvent(tick=1542200, channel=0, data=[7, 100]),
   midi.NoteOffEvent(tick=1542300, channel=0, data=[7, 0]),
   midi.NoteOnEvent(tick=1542400, channel=0, data=[0, 100]),
   midi.NoteOffEvent(tick=1542500, channel=0, data=[0, 0]),
   midi.NoteOnEvent(tick=1542600, channel=0, data=[18, 100]),
   midi.NoteOffEvent(tick=1542700, channel=0, data=[18, 0]),
   midi.NoteOnEvent(tick=1542800, channel=0, data=[7, 100]),
   midi.NoteOffEvent(tick=1542900, channel=0, data=[7, 0]),
   midi.NoteOnEvent(tick=1543000, channel=0, data=[36, 100]),
   midi.NoteOffEvent(tick=1543100, channel=0, data=[36, 0]),
   midi.NoteOnEvent(tick=1543200, channel=0, data=[19, 100]),
   midi.NoteOffEvent(tick=1543300, channel=0, data=[19, 0]),
   midi.NoteOnEvent(tick=1543400, channel=0, data=[0, 100]),
   midi.NoteOffEvent(tick=1543500, channel=0, data=[0, 0]),
   midi.NoteOnEvent(tick=1543600, channel=0, data=[1, 100]),
   midi.NoteOffEvent(tick=1543700, channel=0, data=[1, 0]),
   midi.NoteOnEvent(tick=1543800, channel=0, data=[11, 100]),
   midi.NoteOffEvent(tick=1543900, channel=0, data=[11, 0]),
   midi.NoteOnEvent(tick=1544000, channel=0, data=[4, 100]),
   midi.NoteOffEvent(tick=1544100, channel=0, data=[4, 0]),
   midi.NoteOnEvent(tick=1544200, channel=0, data=[38, 100]),
   midi.NoteOffEvent(tick=1544300, channel=0, data=[38, 0]),
   midi.NoteOnEvent(tick=1544400, channel=0, data=[36, 100]),
   midi.NoteOffEvent(tick=1544500, channel=0, data=[36, 0]),
   midi.NoteOnEvent(tick=1544600, channel=0, data=[0, 100]),
   midi.NoteOffEvent(tick=1544700, channel=0, data=[0, 0]),
   midi.NoteOnEvent(tick=1544800, channel=0, data=[11, 100]),
   midi.NoteOffEvent(tick=1544900, channel=0, data=[11, 0]),
   midi.NoteOnEvent(tick=1545000, channel=0, data=[11, 100]),
   midi.NoteOffEvent(tick=1545100, channel=0, data=[11, 0]),
   midi.NoteOnEvent(tick=1545200, channel=0, data=[36, 100]),
   midi.NoteOffEvent(tick=1545300, channel=0, data=[36, 0]),
   midi.NoteOnEvent(tick=1545400, channel=0, data=[56, 100]),
   midi.NoteOffEvent(tick=1545500, channel=0, data=[56, 0]),
   midi.NoteOnEvent(tick=1545600, channel=0, data=[36, 100]),
   midi.NoteOffEvent(tick=1545700, channel=0, data=[36, 0]),
   midi.NoteOnEvent(tick=1545800, channel=0, data=[36, 100]),
   midi.NoteOffEvent(tick=1545900, channel=0, data=[36, 0]),
   midi.NoteOnEvent(tick=1546000, channel=0, data=[36, 100]),
   midi.NoteOffEvent(tick=1546100, channel=0, data=[36, 0]),
   midi.NoteOnEvent(tick=1546200, channel=0, data=[36, 100]),
   midi.NoteOffEvent(tick=1546300, channel=0, data=[36, 0]),
   midi.NoteOnEvent(tick=1546400, channel=0, data=[14, 100]),
   midi.NoteOffEvent(tick=1546500, channel=0, data=[14, 0]),
   midi.NoteOnEvent(tick=1546600, channel=0, data=[19, 100]),
   midi.NoteOffEvent(tick=1546700, channel=0, data=[19, 0]),
   midi.NoteOnEvent(tick=1546800, channel=0, data=[7, 100]),
   midi.NoteOffEvent(tick=1546900, channel=0, data=[7, 0]),
   midi.NoteOnEvent(tick=1547000, channel=0, data=[4, 100]),
   midi.NoteOffEvent(tick=1547100, channel=0, data=[4, 0]),
   midi.NoteOnEvent(tick=1547200, channel=0, data=[17, 100]),
   midi.NoteOffEvent(tick=1547300, channel=0, data=[17, 0]),
   midi.NoteOnEvent(tick=1547400, channel=0, data=[36, 100]),
   midi.NoteOffEvent(tick=1547500, channel=0, data=[36, 0]),
   midi.NoteOnEvent(tick=1547600, channel=0, data=[0, 100]),
   midi.NoteOffEvent(tick=1547700, channel=0, data=[0, 0]),
   midi.NoteOnEvent(tick=1547800, channel=0, data=[18, 100]),
   midi.NoteOffEvent(tick=1547900, channel=0, data=[18, 0]),
   midi.NoteOnEvent(tick=1548000, channel=0, data=[18, 100]),
   midi.NoteOffEvent(tick=1548100, channel=0, data=[18, 0]),
   midi.NoteOnEvent(tick=1548200, channel=0, data=[8, 100]),
   midi.NoteOffEvent(tick=1548300, channel=0, data=[8, 0]),
   midi.NoteOnEvent(tick=1548400, channel=0, data=[6, 100]),
   midi.NoteOffEvent(tick=1548500, channel=0, data=[6, 0]),
   midi.NoteOnEvent(tick=1548600, channel=0, data=[13, 100]),
   midi.NoteOffEvent(tick=1548700, channel=0, data=[13, 0]),
   midi.NoteOnEvent(tick=1548800, channel=0, data=[12, 100]),
   midi.NoteOffEvent(tick=1548900, channel=0, data=[12, 0]),
   midi.NoteOnEvent(tick=1549000, channel=0, data=[4, 100]),
   midi.NoteOffEvent(tick=1549100, channel=0, data=[4, 0]),
   midi.NoteOnEvent(tick=1549200, channel=0, data=[13, 100]),
   midi.NoteOffEvent(tick=1549300, channel=0, data=[13, 0]),
   midi.NoteOnEvent(tick=1549400, channel=0, data=[19, 100]),
   midi.NoteOffEvent(tick=1549500, channel=0, data=[19, 0]),
   midi.NoteOnEvent(tick=1549600, channel=0, data=[18, 100]),
   midi.NoteOffEvent(tick=1549700, channel=0, data=[18, 0]),
   midi.NoteOnEvent(tick=1549800, channel=0, data=[36, 100]),
   midi.NoteOffEvent(tick=1549900, channel=0, data=[36, 0]),
   midi.NoteOnEvent(tick=1550000, channel=0, data=[5, 100]),
   midi.NoteOffEvent(tick=1550100, channel=0, data=[5, 0]),
   midi.NoteOnEvent(tick=1550200, channel=0, data=[0, 100]),
   midi.NoteOffEvent(tick=1550300, channel=0, data=[0, 0]),
   midi.NoteOnEvent(tick=1550400, channel=0, data=[8, 100]),
   midi.NoteOffEvent(tick=1550500, channel=0, data=[8, 0]),
   midi.NoteOnEvent(tick=1550600, channel=0, data=[11, 100]),
   midi.NoteOffEvent(tick=1550700, channel=0, data=[11, 0]),
   midi.NoteOnEvent(tick=1550800, channel=0, data=[37, 100]),
   midi.NoteOffEvent(tick=1550900, channel=0, data=[37, 0]),
   midi.NoteOnEvent(tick=1551000, channel=0, data=[56, 100]),
   midi.NoteOffEvent(tick=1551100, channel=0, data=[56, 0]),
   midi.NoteOnEvent(tick=1551200, channel=0, data=[56, 100]),
   midi.NoteOffEvent(tick=1551300, channel=0, data=[56, 0]),
   midi.NoteOnEvent(tick=1551400, channel=0, data=[56, 100]),
   midi.NoteOffEvent(tick=1551500, channel=0, data=[56, 0]),
   midi.NoteOnEvent(tick=1551600, channel=0, data=[36, 100]),
   midi.NoteOffEvent(tick=1551700, channel=0, data=[36, 0]),
   midi.NoteOnEvent(tick=1551800, channel=0, data=[36, 100]),
   midi.NoteOffEvent(tick=1551900, channel=0, data=[36, 0]),
   midi.NoteOnEvent(tick=1552000, channel=0, data=[36, 100]),
   midi.NoteOffEvent(tick=1552100, channel=0, data=[36, 0]),
   midi.NoteOnEvent(tick=1552200, channel=0, data=[36, 100]),
   midi.NoteOffEvent(tick=1552300, channel=0, data=[36, 0]),
   midi.NoteOnEvent(tick=1552400, channel=0, data=[5, 100]),
   midi.NoteOffEvent(tick=1552500, channel=0, data=[5, 0]),
   midi.NoteOnEvent(tick=1552600, channel=0, data=[14, 100]),
   midi.NoteOffEvent(tick=1552700, channel=0, data=[14, 0]),
   midi.NoteOnEvent(tick=1552800, channel=0, data=[17, 100]),
   midi.NoteOffEvent(tick=1552900, channel=0, data=[17, 0]),
   midi.NoteOnEvent(tick=1553000, channel=0, data=[36, 100]),
   midi.NoteOffEvent(tick=1553100, channel=0, data=[36, 0]),
   midi.NoteOnEvent(tick=1553200, channel=0, data=[4, 100]),
   midi.NoteOffEvent(tick=1553300, channel=0, data=[4, 0]),
   midi.NoteOnEvent(tick=1553400, channel=0, data=[23, 100]),
   midi.NoteOffEvent(tick=1553500, channel=0, data=[23, 0]),
   midi.NoteOnEvent(tick=1553600, channel=0, data=[0, 100]),
   midi.NoteOffEvent(tick=1553700, channel=0, data=[0, 0]),
   midi.NoteOnEvent(tick=1553800, channel=0, data=[12, 100]),
   midi.NoteOffEvent(tick=1553900, channel=0, data=[12, 0]),
   midi.NoteOnEvent(tick=1554000, channel=0, data=[15, 100]),
   midi.NoteOffEvent(tick=1554100, channel=0, data=[15, 0]),
   midi.NoteOnEvent(tick=1554200, channel=0, data=[11, 100]),
   midi.NoteOffEvent(tick=1554300, channel=0, data=[11, 0]),
   midi.NoteOnEvent(tick=1554400, channel=0, data=[4, 100]),
   midi.NoteOffEvent(tick=1554500, channel=0, data=[4, 0]),
   midi.NoteOnEvent(tick=1554600, channel=0, data=[38, 100]),
   midi.NoteOffEvent(tick=1554700, channel=0, data=[38, 0]),
   midi.NoteOnEvent(tick=1554800, channel=0, data=[36, 100]),
   midi.NoteOffEvent(tick=1554900, channel=0, data=[36, 0]),
   midi.NoteOnEvent(tick=1555000, channel=0, data=[19, 100]),
   midi.NoteOffEvent(tick=1555100, channel=0, data=[19, 0]),
   midi.NoteOnEvent(tick=1555200, channel=0, data=[7, 100]),
   midi.NoteOffEvent(tick=1555300, channel=0, data=[7, 0]),
   midi.NoteOnEvent(tick=1555400, channel=0, data=[4, 100]),
   midi.NoteOffEvent(tick=1555500, channel=0, data=[4, 0]),
   midi.NoteOnEvent(tick=1555600, channel=0, data=[36, 100]),
   midi.NoteOffEvent(tick=1555700, channel=0, data=[36, 0]),
   midi.NoteOnEvent(tick=1555800, channel=0, data=[5, 100]),
   midi.NoteOffEvent(tick=1555900, channel=0, data=[5, 0]),
   midi.NoteOnEvent(tick=1556000, channel=0, data=[14, 100]),
   midi.NoteOffEvent(tick=1556100, channel=0, data=[14, 0]),
   midi.NoteOnEvent(tick=1556200, channel=0, data=[11, 100]),
   midi.NoteOffEvent(tick=1556300, channel=0, data=[11, 0]),
   midi.NoteOnEvent(tick=1556400, channel=0, data=[11, 100]),
   midi.NoteOffEvent(tick=1556500, channel=0, data=[11, 0]),
   midi.NoteOnEvent(tick=1556600, channel=0, data=[14, 100]),
   midi.NoteOffEvent(tick=1556700, channel=0, data=[14, 0]),
   midi.NoteOnEvent(tick=1556800, channel=0, data=[22, 100]),
   midi.NoteOffEvent(tick=1556900, channel=0, data=[22, 0]),
   midi.NoteOnEvent(tick=1557000, channel=0, data=[8, 100]),
   midi.NoteOffEvent(tick=1557100, channel=0, data=[8, 0]),
   midi.NoteOnEvent(tick=1557200, channel=0, data=[13, 100]),
   midi.NoteOffEvent(tick=1557300, channel=0, data=[13, 0]),
   midi.NoteOnEvent(tick=1557400, channel=0, data=[6, 100]),
   midi.NoteOffEvent(tick=1557500, channel=0, data=[6, 0]),
   midi.NoteOnEvent(tick=1557600, channel=0, data=[36, 100]),
   midi.NoteOffEvent(tick=1557700, channel=0, data=[36, 0]),
   midi.NoteOnEvent(tick=1557800, channel=0, data=[2, 100]),
   midi.NoteOffEvent(tick=1557900, channel=0, data=[2, 0]),
   midi.NoteOnEvent(tick=1558000, channel=0, data=[14, 100]),
   midi.NoteOffEvent(tick=1558100, channel=0, data=[14, 0]),
   midi.NoteOnEvent(tick=1558200, channel=0, data=[12, 100]),
   midi.NoteOffEvent(tick=1558300, channel=0, data=[12, 0]),
   midi.NoteOnEvent(tick=1558400, channel=0, data=[12, 100]),
   midi.NoteOffEvent(tick=1558500, channel=0, data=[12, 0]),
   midi.NoteOnEvent(tick=1558600, channel=0, data=[0, 100]),
   midi.NoteOffEvent(tick=1558700, channel=0, data=[0, 0]),
   midi.NoteOnEvent(tick=1558800, channel=0, data=[13, 100]),
   midi.NoteOffEvent(tick=1558900, channel=0, data=[13, 0]),
   midi.NoteOnEvent(tick=1559000, channel=0, data=[3, 100]),
   midi.NoteOffEvent(tick=1559100, channel=0, data=[3, 0]),
   midi.NoteOnEvent(tick=1559200, channel=0, data=[36, 100]),
   midi.NoteOffEvent(tick=1559300, channel=0, data=[36, 0]),
   midi.NoteOnEvent(tick=1559400, channel=0, data=[0, 100]),
   midi.NoteOffEvent(tick=1559500, channel=0, data=[0, 0]),
   midi.NoteOnEvent(tick=1559600, channel=0, data=[18, 100]),
   midi.NoteOffEvent(tick=1559700, channel=0, data=[18, 0]),
   midi.NoteOnEvent(tick=1559800, channel=0, data=[18, 100]),
   midi.NoteOffEvent(tick=1559900, channel=0, data=[18, 0]),
   midi.NoteOnEvent(tick=1560000, channel=0, data=[8, 100]),
   midi.NoteOffEvent(tick=1560100, channel=0, data=[8, 0]),
   midi.NoteOnEvent(tick=1560200, channel=0, data=[6, 100]),
   midi.NoteOffEvent(tick=1560300, channel=0, data=[6, 0]),
   midi.NoteOnEvent(tick=1560400, channel=0, data=[13, 100]),
   midi.NoteOffEvent(tick=1560500, channel=0, data=[13, 0]),
   midi.NoteOnEvent(tick=1560600, channel=0, data=[18, 100]),
   midi.NoteOffEvent(tick=1560700, channel=0, data=[18, 0]),
   midi.NoteOnEvent(tick=1560800, channel=0, data=[36, 100]),
   midi.NoteOffEvent(tick=1560900, channel=0, data=[36, 0]),
   midi.NoteOnEvent(tick=1561000, channel=0, data=[0, 100]),
   midi.NoteOffEvent(tick=1561100, channel=0, data=[0, 0]),
   midi.NoteOnEvent(tick=1561200, channel=0, data=[36, 100]),
   midi.NoteOffEvent(tick=1561300, channel=0, data=[36, 0]),
   midi.NoteOnEvent(tick=1561400, channel=0, data=[7, 100]),
   midi.NoteOffEvent(tick=1561500, channel=0, data=[7, 0]),
   midi.NoteOnEvent(tick=1561600, channel=0, data=[0, 100]),
   midi.NoteOffEvent(tick=1561700, channel=0, data=[0, 0]),
   midi.NoteOnEvent(tick=1561800, channel=0, data=[18, 100]),
   midi.NoteOffEvent(tick=1561900, channel=0, data=[18, 0]),
   midi.NoteOnEvent(tick=1562000, channel=0, data=[7, 100]),
   midi.NoteOffEvent(tick=1562100, channel=0, data=[7, 0]),
   midi.NoteOnEvent(tick=1562200, channel=0, data=[36, 100]),
   midi.NoteOffEvent(tick=1562300, channel=0, data=[36, 0]),
   midi.NoteOnEvent(tick=1562400, channel=0, data=[19, 100]),
   midi.NoteOffEvent(tick=1562500, channel=0, data=[19, 0]),
   midi.NoteOnEvent(tick=1562600, channel=0, data=[0, 100]),
   midi.NoteOffEvent(tick=1562700, channel=0, data=[0, 0]),
   midi.NoteOnEvent(tick=1562800, channel=0, data=[1, 100]),
   midi.NoteOffEvent(tick=1562900, channel=0, data=[1, 0]),
   midi.NoteOnEvent(tick=1563000, channel=0, data=[11, 100]),
   midi.NoteOffEvent(tick=1563100, channel=0, data=[11, 0]),
   midi.NoteOnEvent(tick=1563200, channel=0, data=[4, 100]),
   midi.NoteOffEvent(tick=1563300, channel=0, data=[4, 0]),
   midi.NoteOnEvent(tick=1563400, channel=0, data=[36, 100]),
   midi.NoteOffEvent(tick=1563500, channel=0, data=[36, 0]),
   midi.NoteOnEvent(tick=1563600, channel=0, data=[19, 100]),
   midi.NoteOffEvent(tick=1563700, channel=0, data=[19, 0]),
   midi.NoteOnEvent(tick=1563800, channel=0, data=[14, 100]),
   midi.NoteOffEvent(tick=1563900, channel=0, data=[14, 0]),
   midi.NoteOnEvent(tick=1564000, channel=0, data=[36, 100]),
   midi.NoteOffEvent(tick=1564100, channel=0, data=[36, 0]),
   midi.NoteOnEvent(tick=1564200, channel=0, data=[19, 100]),
   midi.NoteOffEvent(tick=1564300, channel=0, data=[19, 0]),
   midi.NoteOnEvent(tick=1564400, channel=0, data=[7, 100]),
   midi.NoteOffEvent(tick=1564500, channel=0, data=[7, 0]),
   midi.NoteOnEvent(tick=1564600, channel=0, data=[4, 100]),
   midi.NoteOffEvent(tick=1564700, channel=0, data=[4, 0]),
   midi.NoteOnEvent(tick=1564800, channel=0, data=[36, 100]),
   midi.NoteOffEvent(tick=1564900, channel=0, data=[36, 0]),
   midi.NoteOnEvent(tick=1565000, channel=0, data=[74, 100]),
   midi.NoteOffEvent(tick=1565100, channel=0, data=[74, 0]),
   midi.NoteOnEvent(tick=1565200, channel=0, data=[0, 100]),
   midi.NoteOffEvent(tick=1565300, channel=0, data=[0, 0]),
   midi.NoteOnEvent(tick=1565400, channel=0, data=[36, 100]),
   midi.NoteOffEvent(tick=1565500, channel=0, data=[36, 0]),
   midi.NoteOnEvent(tick=1565600, channel=0, data=[21, 100]),
   midi.NoteOffEvent(tick=1565700, channel=0, data=[21, 0]),
   midi.NoteOnEvent(tick=1565800, channel=0, data=[0, 100]),
   midi.NoteOffEvent(tick=1565900, channel=0, data=[0, 0]),
   midi.NoteOnEvent(tick=1566000, channel=0, data=[17, 100]),
   midi.NoteOffEvent(tick=1566100, channel=0, data=[17, 0]),
   midi.NoteOnEvent(tick=1566200, channel=0, data=[8, 100]),
   midi.NoteOffEvent(tick=1566300, channel=0, data=[8, 0]),
   midi.NoteOnEvent(tick=1566400, channel=0, data=[0, 100]),
   midi.NoteOffEvent(tick=1566500, channel=0, data=[0, 0]),
   midi.NoteOnEvent(tick=1566600, channel=0, data=[1, 100]),
   midi.NoteOffEvent(tick=1566700, channel=0, data=[1, 0]),
   midi.NoteOnEvent(tick=1566800, channel=0, data=[11, 100]),
   midi.NoteOffEvent(tick=1566900, channel=0, data=[11, 0]),
   midi.NoteOnEvent(tick=1567000, channel=0, data=[4, 100]),
   midi.NoteOffEvent(tick=1567100, channel=0, data=[4, 0]),
   midi.NoteOnEvent(tick=1567200, channel=0, data=[37, 100]),
   midi.NoteOffEvent(tick=1567300, channel=0, data=[37, 0]),
   midi.NoteOnEvent(tick=1567400, channel=0, data=[56, 100]),
   midi.NoteOffEvent(tick=1567500, channel=0, data=[56, 0]),
   midi.NoteOnEvent(tick=1567600, channel=0, data=[36, 100]),
   midi.NoteOffEvent(tick=1567700, channel=0, data=[36, 0]),
   midi.NoteOnEvent(tick=1567800, channel=0, data=[36, 100]),
   midi.NoteOffEvent(tick=1567900, channel=0, data=[36, 0]),
   midi.NoteOnEvent(tick=1568000, channel=0, data=[36, 100]),
   midi.NoteOffEvent(tick=1568100, channel=0, data=[36, 0]),
   midi.NoteOnEvent(tick=1568200, channel=0, data=[36, 100]),
   midi.NoteOffEvent(tick=1568300, channel=0, data=[36, 0]),
   midi.NoteOnEvent(tick=1568400, channel=0, data=[19, 100]),
   midi.NoteOffEvent(tick=1568500, channel=0, data=[19, 0]),
   midi.NoteOnEvent(tick=1568600, channel=0, data=[7, 100]),
   midi.NoteOffEvent(tick=1568700, channel=0, data=[7, 0]),
   midi.NoteOnEvent(tick=1568800, channel=0, data=[4, 100]),
   midi.NoteOffEvent(tick=1568900, channel=0, data=[4, 0]),
   midi.NoteOnEvent(tick=1569000, channel=0, data=[13, 100]),
   midi.NoteOffEvent(tick=1569100, channel=0, data=[13, 0]),
   midi.NoteOnEvent(tick=1569200, channel=0, data=[38, 100]),
   midi.NoteOffEvent(tick=1569300, channel=0, data=[38, 0]),
   midi.NoteOnEvent(tick=1569400, channel=0, data=[36, 100]),
   midi.NoteOffEvent(tick=1569500, channel=0, data=[36, 0]),
   midi.NoteOnEvent(tick=1569600, channel=0, data=[8, 100]),
   midi.NoteOffEvent(tick=1569700, channel=0, data=[8, 0]),
   midi.NoteOnEvent(tick=1569800, channel=0, data=[19, 100]),
   midi.NoteOffEvent(tick=1569900, channel=0, data=[19, 0]),
   midi.NoteOnEvent(tick=1570000, channel=0, data=[36, 100]),
   midi.NoteOffEvent(tick=1570100, channel=0, data=[36, 0]),
   midi.NoteOnEvent(tick=1570200, channel=0, data=[20, 100]),
   midi.NoteOffEvent(tick=1570300, channel=0, data=[20, 0]),
   midi.NoteOnEvent(tick=1570400, channel=0, data=[18, 100]),
   midi.NoteOffEvent(tick=1570500, channel=0, data=[18, 0]),
   midi.NoteOnEvent(tick=1570600, channel=0, data=[4, 100]),
   midi.NoteOffEvent(tick=1570700, channel=0, data=[4, 0]),
   midi.NoteOnEvent(tick=1570800, channel=0, data=[18, 100]),
   midi.NoteOffEvent(tick=1570900, channel=0, data=[18, 0]),
   midi.NoteOnEvent(tick=1571000, channel=0, data=[36, 100]),
   midi.NoteOffEvent(tick=1571100, channel=0, data=[36, 0]),
   midi.NoteOnEvent(tick=1571200, channel=0, data=[19, 100]),
   midi.NoteOffEvent(tick=1571300, channel=0, data=[19, 0]),
   midi.NoteOnEvent(tick=1571400, channel=0, data=[7, 100]),
   midi.NoteOffEvent(tick=1571500, channel=0, data=[7, 0]),
   midi.NoteOnEvent(tick=1571600, channel=0, data=[4, 100]),
   midi.NoteOffEvent(tick=1571700, channel=0, data=[4, 0]),
   midi.NoteOnEvent(tick=1571800, channel=0, data=[36, 100]),
   midi.NoteOffEvent(tick=1571900, channel=0, data=[36, 0]),
   midi.NoteOnEvent(tick=1572000, channel=0, data=[55, 100]),
   midi.NoteOffEvent(tick=1572100, channel=0, data=[55, 0]),
   midi.NoteOnEvent(tick=1572200, channel=0, data=[69, 100]),
   midi.NoteOffEvent(tick=1572300, channel=0, data=[69, 0]),
   midi.NoteOnEvent(tick=1572400, channel=0, data=[36, 100]),
   midi.NoteOffEvent(tick=1572500, channel=0, data=[36, 0]),
   midi.NoteOnEvent(tick=1572600, channel=0, data=[14, 100]),
   midi.NoteOffEvent(tick=1572700, channel=0, data=[14, 0]),
   midi.NoteOnEvent(tick=1572800, channel=0, data=[15, 100]),
   midi.NoteOffEvent(tick=1572900, channel=0, data=[15, 0]),
   midi.NoteOnEvent(tick=1573000, channel=0, data=[4, 100]),
   midi.NoteOffEvent(tick=1573100, channel=0, data=[4, 0]),
   midi.NoteOnEvent(tick=1573200, channel=0, data=[17, 100]),
   midi.NoteOffEvent(tick=1573300, channel=0, data=[17, 0]),
   midi.NoteOnEvent(tick=1573400, channel=0, data=[0, 100]),
   midi.NoteOffEvent(tick=1573500, channel=0, data=[0, 0]),
   midi.NoteOnEvent(tick=1573600, channel=0, data=[19, 100]),
   midi.NoteOffEvent(tick=1573700, channel=0, data=[19, 0]),
   midi.NoteOnEvent(tick=1573800, channel=0, data=[14, 100]),
   midi.NoteOffEvent(tick=1573900, channel=0, data=[14, 0]),
   midi.NoteOnEvent(tick=1574000, channel=0, data=[17, 100]),
   midi.NoteOffEvent(tick=1574100, channel=0, data=[17, 0]),
   midi.NoteOnEvent(tick=1574200, channel=0, data=[36, 100]),
   midi.NoteOffEvent(tick=1574300, channel=0, data=[36, 0]),
   midi.NoteOnEvent(tick=1574400, channel=0, data=[19, 100]),
   midi.NoteOffEvent(tick=1574500, channel=0, data=[19, 0]),
   midi.NoteOnEvent(tick=1574600, channel=0, data=[14, 100]),
   midi.NoteOffEvent(tick=1574700, channel=0, data=[14, 0]),
   midi.NoteOnEvent(tick=1574800, channel=0, data=[36, 100]),
   midi.NoteOffEvent(tick=1574900, channel=0, data=[36, 0]),
   midi.NoteOnEvent(tick=1575000, channel=0, data=[0, 100]),
   midi.NoteOffEvent(tick=1575100, channel=0, data=[0, 0]),
   midi.NoteOnEvent(tick=1575200, channel=0, data=[15, 100]),
   midi.NoteOffEvent(tick=1575300, channel=0, data=[15, 0]),
   midi.NoteOnEvent(tick=1575400, channel=0, data=[15, 100]),
   midi.NoteOffEvent(tick=1575500, channel=0, data=[15, 0]),
   midi.NoteOnEvent(tick=1575600, channel=0, data=[4, 100]),
   midi.NoteOffEvent(tick=1575700, channel=0, data=[4, 0]),
   midi.NoteOnEvent(tick=1575800, channel=0, data=[13, 100]),
   midi.NoteOffEvent(tick=1575900, channel=0, data=[13, 0]),
   midi.NoteOnEvent(tick=1576000, channel=0, data=[3, 100]),
   midi.NoteOffEvent(tick=1576100, channel=0, data=[3, 0]),
   midi.NoteOnEvent(tick=1576200, channel=0, data=[36, 100]),
   midi.NoteOffEvent(tick=1576300, channel=0, data=[36, 0]),
   midi.NoteOnEvent(tick=1576400, channel=0, data=[0, 100]),
   midi.NoteOffEvent(tick=1576500, channel=0, data=[0, 0]),
   midi.NoteOnEvent(tick=1576600, channel=0, data=[13, 100]),
   midi.NoteOffEvent(tick=1576700, channel=0, data=[13, 0]),
   midi.NoteOnEvent(tick=1576800, channel=0, data=[14, 100]),
   midi.NoteOffEvent(tick=1576900, channel=0, data=[14, 0]),
   midi.NoteOnEvent(tick=1577000, channel=0, data=[19, 100]),
   midi.NoteOffEvent(tick=1577100, channel=0, data=[19, 0]),
   midi.NoteOnEvent(tick=1577200, channel=0, data=[7, 100]),
   midi.NoteOffEvent(tick=1577300, channel=0, data=[7, 0]),
   midi.NoteOnEvent(tick=1577400, channel=0, data=[4, 100]),
   midi.NoteOffEvent(tick=1577500, channel=0, data=[4, 0]),
   midi.NoteOnEvent(tick=1577600, channel=0, data=[17, 100]),
   midi.NoteOffEvent(tick=1577700, channel=0, data=[17, 0]),
   midi.NoteOnEvent(tick=1577800, channel=0, data=[36, 100]),
   midi.NoteOffEvent(tick=1577900, channel=0, data=[36, 0]),
   midi.NoteOnEvent(tick=1578000, channel=0, data=[7, 100]),
   midi.NoteOffEvent(tick=1578100, channel=0, data=[7, 0]),
   midi.NoteOnEvent(tick=1578200, channel=0, data=[0, 100]),
   midi.NoteOffEvent(tick=1578300, channel=0, data=[0, 0]),
   midi.NoteOnEvent(tick=1578400, channel=0, data=[18, 100]),
   midi.NoteOffEvent(tick=1578500, channel=0, data=[18, 0]),
   midi.NoteOnEvent(tick=1578600, channel=0, data=[7, 100]),
   midi.NoteOffEvent(tick=1578700, channel=0, data=[7, 0]),
   midi.NoteOnEvent(tick=1578800, channel=0, data=[36, 100]),
   midi.NoteOffEvent(tick=1578900, channel=0, data=[36, 0]),
   midi.NoteOnEvent(tick=1579000, channel=0, data=[19, 100]),
   midi.NoteOffEvent(tick=1579100, channel=0, data=[19, 0]),
   midi.NoteOnEvent(tick=1579200, channel=0, data=[0, 100]),
   midi.NoteOffEvent(tick=1579300, channel=0, data=[0, 0]),
   midi.NoteOnEvent(tick=1579400, channel=0, data=[1, 100]),
   midi.NoteOffEvent(tick=1579500, channel=0, data=[1, 0]),
   midi.NoteOnEvent(tick=1579600, channel=0, data=[11, 100]),
   midi.NoteOffEvent(tick=1579700, channel=0, data=[11, 0]),
   midi.NoteOnEvent(tick=1579800, channel=0, data=[4, 100]),
   midi.NoteOffEvent(tick=1579900, channel=0, data=[4, 0]),
   midi.NoteOnEvent(tick=1580000, channel=0, data=[36, 100]),
   midi.NoteOffEvent(tick=1580100, channel=0, data=[36, 0]),
   midi.NoteOnEvent(tick=1580200, channel=0, data=[19, 100]),
   midi.NoteOffEvent(tick=1580300, channel=0, data=[19, 0]),
   midi.NoteOnEvent(tick=1580400, channel=0, data=[14, 100]),
   midi.NoteOffEvent(tick=1580500, channel=0, data=[14, 0]),
   midi.NoteOnEvent(tick=1580600, channel=0, data=[36, 100]),
   midi.NoteOffEvent(tick=1580700, channel=0, data=[36, 0]),
   midi.NoteOnEvent(tick=1580800, channel=0, data=[19, 100]),
   midi.NoteOffEvent(tick=1580900, channel=0, data=[19, 0]),
   midi.NoteOnEvent(tick=1581000, channel=0, data=[7, 100]),
   midi.NoteOffEvent(tick=1581100, channel=0, data=[7, 0]),
   midi.NoteOnEvent(tick=1581200, channel=0, data=[4, 100]),
   midi.NoteOffEvent(tick=1581300, channel=0, data=[4, 0]),
   midi.NoteOnEvent(tick=1581400, channel=0, data=[36, 100]),
   midi.NoteOffEvent(tick=1581500, channel=0, data=[36, 0]),
   midi.NoteOnEvent(tick=1581600, channel=0, data=[4, 100]),
   midi.NoteOffEvent(tick=1581700, channel=0, data=[4, 0]),
   midi.NoteOnEvent(tick=1581800, channel=0, data=[23, 100]),
   midi.NoteOffEvent(tick=1581900, channel=0, data=[23, 0]),
   midi.NoteOnEvent(tick=1582000, channel=0, data=[8, 100]),
   midi.NoteOffEvent(tick=1582100, channel=0, data=[8, 0]),
   midi.NoteOnEvent(tick=1582200, channel=0, data=[18, 100]),
   midi.NoteOffEvent(tick=1582300, channel=0, data=[18, 0]),
   midi.NoteOnEvent(tick=1582400, channel=0, data=[19, 100]),
   midi.NoteOffEvent(tick=1582500, channel=0, data=[19, 0]),
   midi.NoteOnEvent(tick=1582600, channel=0, data=[8, 100]),
   midi.NoteOffEvent(tick=1582700, channel=0, data=[8, 0]),
   midi.NoteOnEvent(tick=1582800, channel=0, data=[13, 100]),
   midi.NoteOffEvent(tick=1582900, channel=0, data=[13, 0]),
   midi.NoteOnEvent(tick=1583000, channel=0, data=[6, 100]),
   midi.NoteOffEvent(tick=1583100, channel=0, data=[6, 0]),
   midi.NoteOnEvent(tick=1583200, channel=0, data=[56, 100]),
   midi.NoteOffEvent(tick=1583300, channel=0, data=[56, 0]),
   midi.NoteOnEvent(tick=1583400, channel=0, data=[36, 100]),
   midi.NoteOffEvent(tick=1583500, channel=0, data=[36, 0]),
   midi.NoteOnEvent(tick=1583600, channel=0, data=[36, 100]),
   midi.NoteOffEvent(tick=1583700, channel=0, data=[36, 0]),
   midi.NoteOnEvent(tick=1583800, channel=0, data=[36, 100]),
   midi.NoteOffEvent(tick=1583900, channel=0, data=[36, 0]),
   midi.NoteOnEvent(tick=1584000, channel=0, data=[36, 100]),
   midi.NoteOffEvent(tick=1584100, channel=0, data=[36, 0]),
   midi.NoteOnEvent(tick=1584200, channel=0, data=[7, 100]),
   midi.NoteOffEvent(tick=1584300, channel=0, data=[7, 0]),
   midi.NoteOnEvent(tick=1584400, channel=0, data=[0, 100]),
   midi.NoteOffEvent(tick=1584500, channel=0, data=[0, 0]),
   midi.NoteOnEvent(tick=1584600, channel=0, data=[18, 100]),
   midi.NoteOffEvent(tick=1584700, channel=0, data=[18, 0]),
   midi.NoteOnEvent(tick=1584800, channel=0, data=[7, 100]),
   midi.NoteOffEvent(tick=1584900, channel=0, data=[7, 0]),
   midi.NoteOnEvent(tick=1585000, channel=0, data=[36, 100]),
   midi.NoteOffEvent(tick=1585100, channel=0, data=[36, 0]),
   midi.NoteOnEvent(tick=1585200, channel=0, data=[19, 100]),
   midi.NoteOffEvent(tick=1585300, channel=0, data=[19, 0]),
   midi.NoteOnEvent(tick=1585400, channel=0, data=[0, 100]),
   midi.NoteOffEvent(tick=1585500, channel=0, data=[0, 0]),
   midi.NoteOnEvent(tick=1585600, channel=0, data=[1, 100]),
   midi.NoteOffEvent(tick=1585700, channel=0, data=[1, 0]),
   midi.NoteOnEvent(tick=1585800, channel=0, data=[11, 100]),
   midi.NoteOffEvent(tick=1585900, channel=0, data=[11, 0]),
   midi.NoteOnEvent(tick=1586000, channel=0, data=[4, 100]),
   midi.NoteOffEvent(tick=1586100, channel=0, data=[4, 0]),
   midi.NoteOnEvent(tick=1586200, channel=0, data=[38, 100]),
   midi.NoteOffEvent(tick=1586300, channel=0, data=[38, 0]),
   midi.NoteOnEvent(tick=1586400, channel=0, data=[36, 100]),
   midi.NoteOffEvent(tick=1586500, channel=0, data=[36, 0]),
   midi.NoteOnEvent(tick=1586600, channel=0, data=[4, 100]),
   midi.NoteOffEvent(tick=1586700, channel=0, data=[4, 0]),
   midi.NoteOnEvent(tick=1586800, channel=0, data=[5, 100]),
   midi.NoteOffEvent(tick=1586900, channel=0, data=[5, 0]),
   midi.NoteOnEvent(tick=1587000, channel=0, data=[5, 100]),
   midi.NoteOffEvent(tick=1587100, channel=0, data=[5, 0]),
   midi.NoteOnEvent(tick=1587200, channel=0, data=[4, 100]),
   midi.NoteOffEvent(tick=1587300, channel=0, data=[4, 0]),
   midi.NoteOnEvent(tick=1587400, channel=0, data=[2, 100]),
   midi.NoteOffEvent(tick=1587500, channel=0, data=[2, 0]),
   midi.NoteOnEvent(tick=1587600, channel=0, data=[19, 100]),
   midi.NoteOffEvent(tick=1587700, channel=0, data=[19, 0]),
   midi.NoteOnEvent(tick=1587800, channel=0, data=[8, 100]),
   midi.NoteOffEvent(tick=1587900, channel=0, data=[8, 0]),
   midi.NoteOnEvent(tick=1588000, channel=0, data=[21, 100]),
   midi.NoteOffEvent(tick=1588100, channel=0, data=[21, 0]),
   midi.NoteOnEvent(tick=1588200, channel=0, data=[4, 100]),
   midi.NoteOffEvent(tick=1588300, channel=0, data=[4, 0]),
   midi.NoteOnEvent(tick=1588400, channel=0, data=[11, 100]),
   midi.NoteOffEvent(tick=1588500, channel=0, data=[11, 0]),
   midi.NoteOnEvent(tick=1588600, channel=0, data=[24, 100]),
   midi.NoteOffEvent(tick=1588700, channel=0, data=[24, 0]),
   midi.NoteOnEvent(tick=1588800, channel=0, data=[36, 100]),
   midi.NoteOffEvent(tick=1588900, channel=0, data=[36, 0]),
   midi.NoteOnEvent(tick=1589000, channel=0, data=[0, 100]),
   midi.NoteOffEvent(tick=1589100, channel=0, data=[0, 0]),
   midi.NoteOnEvent(tick=1589200, channel=0, data=[3, 100]),
   midi.NoteOffEvent(tick=1589300, channel=0, data=[3, 0]),
   midi.NoteOnEvent(tick=1589400, channel=0, data=[3, 100]),
   midi.NoteOffEvent(tick=1589500, channel=0, data=[3, 0]),
   midi.NoteOnEvent(tick=1589600, channel=0, data=[8, 100]),
   midi.NoteOffEvent(tick=1589700, channel=0, data=[8, 0]),
   midi.NoteOnEvent(tick=1589800, channel=0, data=[13, 100]),
   midi.NoteOffEvent(tick=1589900, channel=0, data=[13, 0]),
   midi.NoteOnEvent(tick=1590000, channel=0, data=[6, 100]),
   midi.NoteOffEvent(tick=1590100, channel=0, data=[6, 0]),
   midi.NoteOnEvent(tick=1590200, channel=0, data=[36, 100]),
   midi.NoteOffEvent(tick=1590300, channel=0, data=[36, 0]),
   midi.NoteOnEvent(tick=1590400, channel=0, data=[0, 100]),
   midi.NoteOffEvent(tick=1590500, channel=0, data=[0, 0]),
   midi.NoteOnEvent(tick=1590600, channel=0, data=[36, 100]),
   midi.NoteOffEvent(tick=1590700, channel=0, data=[36, 0]),
   midi.NoteOnEvent(tick=1590800, channel=0, data=[13, 100]),
   midi.NoteOffEvent(tick=1590900, channel=0, data=[13, 0]),
   midi.NoteOnEvent(tick=1591000, channel=0, data=[4, 100]),
   midi.NoteOffEvent(tick=1591100, channel=0, data=[4, 0]),
   midi.NoteOnEvent(tick=1591200, channel=0, data=[22, 100]),
   midi.NoteOffEvent(tick=1591300, channel=0, data=[22, 0]),
   midi.NoteOnEvent(tick=1591400, channel=0, data=[36, 100]),
   midi.NoteOffEvent(tick=1591500, channel=0, data=[36, 0]),
   midi.NoteOnEvent(tick=1591600, channel=0, data=[10, 100]),
   midi.NoteOffEvent(tick=1591700, channel=0, data=[10, 0]),
   midi.NoteOnEvent(tick=1591800, channel=0, data=[4, 100]),
   midi.NoteOffEvent(tick=1591900, channel=0, data=[4, 0]),
   midi.NoteOnEvent(tick=1592000, channel=0, data=[24, 100]),
   midi.NoteOffEvent(tick=1592100, channel=0, data=[24, 0]),
   midi.NoteOnEvent(tick=1592200, channel=0, data=[70, 100]),
   midi.NoteOffEvent(tick=1592300, channel=0, data=[70, 0]),
   midi.NoteOnEvent(tick=1592400, channel=0, data=[21, 100]),
   midi.NoteOffEvent(tick=1592500, channel=0, data=[21, 0]),
   midi.NoteOnEvent(tick=1592600, channel=0, data=[0, 100]),
   midi.NoteOffEvent(tick=1592700, channel=0, data=[0, 0]),
   midi.NoteOnEvent(tick=1592800, channel=0, data=[11, 100]),
   midi.NoteOffEvent(tick=1592900, channel=0, data=[11, 0]),
   midi.NoteOnEvent(tick=1593000, channel=0, data=[20, 100]),
   midi.NoteOffEvent(tick=1593100, channel=0, data=[20, 0]),
   midi.NoteOnEvent(tick=1593200, channel=0, data=[4, 100]),
   midi.NoteOffEvent(tick=1593300, channel=0, data=[4, 0]),
   midi.NoteOnEvent(tick=1593400, channel=0, data=[36, 100]),
   midi.NoteOffEvent(tick=1593500, channel=0, data=[36, 0]),
   midi.NoteOnEvent(tick=1593600, channel=0, data=[15, 100]),
   midi.NoteOffEvent(tick=1593700, channel=0, data=[15, 0]),
   midi.NoteOnEvent(tick=1593800, channel=0, data=[0, 100]),
   midi.NoteOffEvent(tick=1593900, channel=0, data=[0, 0]),
   midi.NoteOnEvent(tick=1594000, channel=0, data=[8, 100]),
   midi.NoteOffEvent(tick=1594100, channel=0, data=[8, 0]),
   midi.NoteOnEvent(tick=1594200, channel=0, data=[17, 100]),
   midi.NoteOffEvent(tick=1594300, channel=0, data=[17, 0]),
   midi.NoteOnEvent(tick=1594400, channel=0, data=[36, 100]),
   midi.NoteOffEvent(tick=1594500, channel=0, data=[36, 0]),
   midi.NoteOnEvent(tick=1594600, channel=0, data=[19, 100]),
   midi.NoteOffEvent(tick=1594700, channel=0, data=[19, 0]),
   midi.NoteOnEvent(tick=1594800, channel=0, data=[14, 100]),
   midi.NoteOffEvent(tick=1594900, channel=0, data=[14, 0]),
   midi.NoteOnEvent(tick=1595000, channel=0, data=[36, 100]),
   midi.NoteOffEvent(tick=1595100, channel=0, data=[36, 0]),
   midi.NoteOnEvent(tick=1595200, channel=0, data=[19, 100]),
   midi.NoteOffEvent(tick=1595300, channel=0, data=[19, 0]),
   midi.NoteOnEvent(tick=1595400, channel=0, data=[7, 100]),
   midi.NoteOffEvent(tick=1595500, channel=0, data=[7, 0]),
   midi.NoteOnEvent(tick=1595600, channel=0, data=[4, 100]),
   midi.NoteOffEvent(tick=1595700, channel=0, data=[4, 0]),
   midi.NoteOnEvent(tick=1595800, channel=0, data=[36, 100]),
   midi.NoteOffEvent(tick=1595900, channel=0, data=[36, 0]),
   midi.NoteOnEvent(tick=1596000, channel=0, data=[4, 100]),
   midi.NoteOffEvent(tick=1596100, channel=0, data=[4, 0]),
   midi.NoteOnEvent(tick=1596200, channel=0, data=[23, 100]),
   midi.NoteOffEvent(tick=1596300, channel=0, data=[23, 0]),
   midi.NoteOnEvent(tick=1596400, channel=0, data=[8, 100]),
   midi.NoteOffEvent(tick=1596500, channel=0, data=[8, 0]),
   midi.NoteOnEvent(tick=1596600, channel=0, data=[18, 100]),
   midi.NoteOffEvent(tick=1596700, channel=0, data=[18, 0]),
   midi.NoteOnEvent(tick=1596800, channel=0, data=[19, 100]),
   midi.NoteOffEvent(tick=1596900, channel=0, data=[19, 0]),
   midi.NoteOnEvent(tick=1597000, channel=0, data=[8, 100]),
   midi.NoteOffEvent(tick=1597100, channel=0, data=[8, 0]),
   midi.NoteOnEvent(tick=1597200, channel=0, data=[13, 100]),
   midi.NoteOffEvent(tick=1597300, channel=0, data=[13, 0]),
   midi.NoteOnEvent(tick=1597400, channel=0, data=[6, 100]),
   midi.NoteOffEvent(tick=1597500, channel=0, data=[6, 0]),
   midi.NoteOnEvent(tick=1597600, channel=0, data=[36, 100]),
   midi.NoteOffEvent(tick=1597700, channel=0, data=[36, 0]),
   midi.NoteOnEvent(tick=1597800, channel=0, data=[7, 100]),
   midi.NoteOffEvent(tick=1597900, channel=0, data=[7, 0]),
   midi.NoteOnEvent(tick=1598000, channel=0, data=[0, 100]),
   midi.NoteOffEvent(tick=1598100, channel=0, data=[0, 0]),
   midi.NoteOnEvent(tick=1598200, channel=0, data=[18, 100]),
   midi.NoteOffEvent(tick=1598300, channel=0, data=[18, 0]),
   midi.NoteOnEvent(tick=1598400, channel=0, data=[7, 100]),
   midi.NoteOffEvent(tick=1598500, channel=0, data=[7, 0]),
   midi.NoteOnEvent(tick=1598600, channel=0, data=[56, 100]),
   midi.NoteOffEvent(tick=1598700, channel=0, data=[56, 0]),
   midi.NoteOnEvent(tick=1598800, channel=0, data=[36, 100]),
   midi.NoteOffEvent(tick=1598900, channel=0, data=[36, 0]),
   midi.NoteOnEvent(tick=1599000, channel=0, data=[36, 100]),
   midi.NoteOffEvent(tick=1599100, channel=0, data=[36, 0]),
   midi.NoteOnEvent(tick=1599200, channel=0, data=[36, 100]),
   midi.NoteOffEvent(tick=1599300, channel=0, data=[36, 0]),
   midi.NoteOnEvent(tick=1599400, channel=0, data=[36, 100]),
   midi.NoteOffEvent(tick=1599500, channel=0, data=[36, 0]),
   midi.NoteOnEvent(tick=1599600, channel=0, data=[19, 100]),
   midi.NoteOffEvent(tick=1599700, channel=0, data=[19, 0]),
   midi.NoteOnEvent(tick=1599800, channel=0, data=[0, 100]),
   midi.NoteOffEvent(tick=1599900, channel=0, data=[0, 0]),
   midi.NoteOnEvent(tick=1600000, channel=0, data=[1, 100]),
   midi.NoteOffEvent(tick=1600100, channel=0, data=[1, 0]),
   midi.NoteOnEvent(tick=1600200, channel=0, data=[11, 100]),
   midi.NoteOffEvent(tick=1600300, channel=0, data=[11, 0]),
   midi.NoteOnEvent(tick=1600400, channel=0, data=[4, 100]),
   midi.NoteOffEvent(tick=1600500, channel=0, data=[4, 0]),
   midi.NoteOnEvent(tick=1600600, channel=0, data=[37, 100]),
   midi.NoteOffEvent(tick=1600700, channel=0, data=[37, 0]),
   midi.NoteOnEvent(tick=1600800, channel=0, data=[36, 100]),
   midi.NoteOffEvent(tick=1600900, channel=0, data=[36, 0]),
   midi.NoteOnEvent(tick=1601000, channel=0, data=[19, 100]),
   midi.NoteOffEvent(tick=1601100, channel=0, data=[19, 0]),
   midi.NoteOnEvent(tick=1601200, channel=0, data=[7, 100]),
   midi.NoteOffEvent(tick=1601300, channel=0, data=[7, 0]),
   midi.NoteOnEvent(tick=1601400, channel=0, data=[8, 100]),
   midi.NoteOffEvent(tick=1601500, channel=0, data=[8, 0]),
   midi.NoteOnEvent(tick=1601600, channel=0, data=[18, 100]),
   midi.NoteOffEvent(tick=1601700, channel=0, data=[18, 0]),
   midi.NoteOnEvent(tick=1601800, channel=0, data=[36, 100]),
   midi.NoteOffEvent(tick=1601900, channel=0, data=[36, 0]),
   midi.NoteOnEvent(tick=1602000, channel=0, data=[2, 100]),
   midi.NoteOffEvent(tick=1602100, channel=0, data=[2, 0]),
   midi.NoteOnEvent(tick=1602200, channel=0, data=[14, 100]),
   midi.NoteOffEvent(tick=1602300, channel=0, data=[14, 0]),
   midi.NoteOnEvent(tick=1602400, channel=0, data=[12, 100]),
   midi.NoteOffEvent(tick=1602500, channel=0, data=[12, 0]),
   midi.NoteOnEvent(tick=1602600, channel=0, data=[12, 100]),
   midi.NoteOffEvent(tick=1602700, channel=0, data=[12, 0]),
   midi.NoteOnEvent(tick=1602800, channel=0, data=[0, 100]),
   midi.NoteOffEvent(tick=1602900, channel=0, data=[0, 0]),
   midi.NoteOnEvent(tick=1603000, channel=0, data=[13, 100]),
   midi.NoteOffEvent(tick=1603100, channel=0, data=[13, 0]),
   midi.NoteOnEvent(tick=1603200, channel=0, data=[3, 100]),
   midi.NoteOffEvent(tick=1603300, channel=0, data=[3, 0]),
   midi.NoteOnEvent(tick=1603400, channel=0, data=[36, 100]),
   midi.NoteOffEvent(tick=1603500, channel=0, data=[36, 0]),
   midi.NoteOnEvent(tick=1603600, channel=0, data=[18, 100]),
   midi.NoteOffEvent(tick=1603700, channel=0, data=[18, 0]),
   midi.NoteOnEvent(tick=1603800, channel=0, data=[20, 100]),
   midi.NoteOffEvent(tick=1603900, channel=0, data=[20, 0]),
   midi.NoteOnEvent(tick=1604000, channel=0, data=[2, 100]),
   midi.NoteOffEvent(tick=1604100, channel=0, data=[2, 0]),
   midi.NoteOnEvent(tick=1604200, channel=0, data=[2, 100]),
   midi.NoteOffEvent(tick=1604300, channel=0, data=[2, 0]),
   midi.NoteOnEvent(tick=1604400, channel=0, data=[4, 100]),
   midi.NoteOffEvent(tick=1604500, channel=0, data=[4, 0]),
   midi.NoteOnEvent(tick=1604600, channel=0, data=[4, 100]),
   midi.NoteOffEvent(tick=1604700, channel=0, data=[4, 0]),
   midi.NoteOnEvent(tick=1604800, channel=0, data=[3, 100]),
   midi.NoteOffEvent(tick=1604900, channel=0, data=[3, 0]),
   midi.NoteOnEvent(tick=1605000, channel=0, data=[18, 100]),
   midi.NoteOffEvent(tick=1605100, channel=0, data=[18, 0]),
   midi.NoteOnEvent(tick=1605200, channel=0, data=[38, 100]),
   midi.NoteOffEvent(tick=1605300, channel=0, data=[38, 0]),
   midi.NoteOnEvent(tick=1605400, channel=0, data=[36, 100]),
   midi.NoteOffEvent(tick=1605500, channel=0, data=[36, 0]),
   midi.NoteOnEvent(tick=1605600, channel=0, data=[0, 100]),
   midi.NoteOffEvent(tick=1605700, channel=0, data=[0, 0]),
   midi.NoteOnEvent(tick=1605800, channel=0, data=[18, 100]),
   midi.NoteOffEvent(tick=1605900, channel=0, data=[18, 0]),
   midi.NoteOnEvent(tick=1606000, channel=0, data=[36, 100]),
   midi.NoteOffEvent(tick=1606100, channel=0, data=[36, 0]),
   midi.NoteOnEvent(tick=1606200, channel=0, data=[18, 100]),
   midi.NoteOffEvent(tick=1606300, channel=0, data=[18, 0]),
   midi.NoteOnEvent(tick=1606400, channel=0, data=[7, 100]),
   midi.NoteOffEvent(tick=1606500, channel=0, data=[7, 0]),
   midi.NoteOnEvent(tick=1606600, channel=0, data=[14, 100]),
   midi.NoteOffEvent(tick=1606700, channel=0, data=[14, 0]),
   midi.NoteOnEvent(tick=1606800, channel=0, data=[22, 100]),
   midi.NoteOffEvent(tick=1606900, channel=0, data=[22, 0]),
   midi.NoteOnEvent(tick=1607000, channel=0, data=[13, 100]),
   midi.NoteOffEvent(tick=1607100, channel=0, data=[13, 0]),
   midi.NoteOnEvent(tick=1607200, channel=0, data=[36, 100]),
   midi.NoteOffEvent(tick=1607300, channel=0, data=[36, 0]),
   midi.NoteOnEvent(tick=1607400, channel=0, data=[8, 100]),
   midi.NoteOffEvent(tick=1607500, channel=0, data=[8, 0]),
   midi.NoteOnEvent(tick=1607600, channel=0, data=[13, 100]),
   midi.NoteOffEvent(tick=1607700, channel=0, data=[13, 0]),
   midi.NoteOnEvent(tick=1607800, channel=0, data=[36, 100]),
   midi.NoteOffEvent(tick=1607900, channel=0, data=[36, 0]),
   midi.NoteOnEvent(tick=1608000, channel=0, data=[19, 100]),
   midi.NoteOffEvent(tick=1608100, channel=0, data=[19, 0]),
   midi.NoteOnEvent(tick=1608200, channel=0, data=[7, 100]),
   midi.NoteOffEvent(tick=1608300, channel=0, data=[7, 0]),
   midi.NoteOnEvent(tick=1608400, channel=0, data=[4, 100]),
   midi.NoteOffEvent(tick=1608500, channel=0, data=[4, 0]),
   midi.NoteOnEvent(tick=1608600, channel=0, data=[36, 100]),
   midi.NoteOffEvent(tick=1608700, channel=0, data=[36, 0]),
   midi.NoteOnEvent(tick=1608800, channel=0, data=[14, 100]),
   midi.NoteOffEvent(tick=1608900, channel=0, data=[14, 0]),
   midi.NoteOnEvent(tick=1609000, channel=0, data=[20, 100]),
   midi.NoteOffEvent(tick=1609100, channel=0, data=[20, 0]),
   midi.NoteOnEvent(tick=1609200, channel=0, data=[19, 100]),
   midi.NoteOffEvent(tick=1609300, channel=0, data=[19, 0]),
   midi.NoteOnEvent(tick=1609400, channel=0, data=[15, 100]),
   midi.NoteOffEvent(tick=1609500, channel=0, data=[15, 0]),
   midi.NoteOnEvent(tick=1609600, channel=0, data=[20, 100]),
   midi.NoteOffEvent(tick=1609700, channel=0, data=[20, 0]),
   midi.NoteOnEvent(tick=1609800, channel=0, data=[19, 100]),
   midi.NoteOffEvent(tick=1609900, channel=0, data=[19, 0]),
   midi.NoteOnEvent(tick=1610000, channel=0, data=[46, 100]),
   midi.NoteOffEvent(tick=1610100, channel=0, data=[46, 0]),
   midi.NoteOnEvent(tick=1610200, channel=0, data=[56, 100]),
   midi.NoteOffEvent(tick=1610300, channel=0, data=[56, 0]),
   midi.NoteOnEvent(tick=1610400, channel=0, data=[56, 100]),
   midi.NoteOffEvent(tick=1610500, channel=0, data=[56, 0]),
   midi.NoteOnEvent(tick=1610600, channel=0, data=[56, 100]),
   midi.NoteOffEvent(tick=1610700, channel=0, data=[56, 0]),
   midi.NoteOnEvent(tick=1610800, channel=0, data=[36, 100]),
   midi.NoteOffEvent(tick=1610900, channel=0, data=[36, 0]),
   midi.NoteOnEvent(tick=1611000, channel=0, data=[36, 100]),
   midi.NoteOffEvent(tick=1611100, channel=0, data=[36, 0]),
   midi.NoteOnEvent(tick=1611200, channel=0, data=[36, 100]),
   midi.NoteOffEvent(tick=1611300, channel=0, data=[36, 0]),
   midi.NoteOnEvent(tick=1611400, channel=0, data=[36, 100]),
   midi.NoteOffEvent(tick=1611500, channel=0, data=[36, 0]),
   midi.NoteOnEvent(tick=1611600, channel=0, data=[36, 100]),
   midi.NoteOffEvent(tick=1611700, channel=0, data=[36, 0]),
   midi.NoteOnEvent(tick=1611800, channel=0, data=[36, 100]),
   midi.NoteOffEvent(tick=1611900, channel=0, data=[36, 0]),
   midi.NoteOnEvent(tick=1612000, channel=0, data=[36, 100]),
   midi.NoteOffEvent(tick=1612100, channel=0, data=[36, 0]),
   midi.NoteOnEvent(tick=1612200, channel=0, data=[36, 100]),
   midi.NoteOffEvent(tick=1612300, channel=0, data=[36, 0]),
   midi.NoteOnEvent(tick=1612400, channel=0, data=[2, 100]),
   midi.NoteOffEvent(tick=1612500, channel=0, data=[2, 0]),
   midi.NoteOnEvent(tick=1612600, channel=0, data=[46, 100]),
   midi.NoteOffEvent(tick=1612700, channel=0, data=[46, 0]),
   midi.NoteOnEvent(tick=1612800, channel=0, data=[78, 100]),
   midi.NoteOffEvent(tick=1612900, channel=0, data=[78, 0]),
   midi.NoteOnEvent(tick=1613000, channel=0, data=[15, 100]),
   midi.NoteOffEvent(tick=1613100, channel=0, data=[15, 0]),
   midi.NoteOnEvent(tick=1613200, channel=0, data=[18, 100]),
   midi.NoteOffEvent(tick=1613300, channel=0, data=[18, 0]),
   midi.NoteOnEvent(tick=1613400, channel=0, data=[73, 100]),
   midi.NoteOffEvent(tick=1613500, channel=0, data=[73, 0]),
   midi.NoteOnEvent(tick=1613600, channel=0, data=[36, 100]),
   midi.NoteOffEvent(tick=1613700, channel=0, data=[36, 0]),
   midi.NoteOnEvent(tick=1613800, channel=0, data=[74, 100]),
   midi.NoteOffEvent(tick=1613900, channel=0, data=[74, 0]),
   midi.NoteOnEvent(tick=1614000, channel=0, data=[0, 100]),
   midi.NoteOffEvent(tick=1614100, channel=0, data=[0, 0]),
   midi.NoteOnEvent(tick=1614200, channel=0, data=[36, 100]),
   midi.NoteOffEvent(tick=1614300, channel=0, data=[36, 0]),
   midi.NoteOnEvent(tick=1614400, channel=0, data=[69, 100]),
   midi.NoteOffEvent(tick=1614500, channel=0, data=[69, 0]),
   midi.NoteOnEvent(tick=1614600, channel=0, data=[36, 100]),
   midi.NoteOffEvent(tick=1614700, channel=0, data=[36, 0]),
   midi.NoteOnEvent(tick=1614800, channel=0, data=[77, 100]),
   midi.NoteOffEvent(tick=1614900, channel=0, data=[77, 0]),
   midi.NoteOnEvent(tick=1615000, channel=0, data=[53, 100]),
   midi.NoteOffEvent(tick=1615100, channel=0, data=[53, 0]),
   midi.NoteOnEvent(tick=1615200, channel=0, data=[0, 100]),
   midi.NoteOffEvent(tick=1615300, channel=0, data=[0, 0]),
   midi.NoteOnEvent(tick=1615400, channel=0, data=[36, 100]),
   midi.NoteOffEvent(tick=1615500, channel=0, data=[36, 0]),
   midi.NoteOnEvent(tick=1615600, channel=0, data=[69, 100]),
   midi.NoteOffEvent(tick=1615700, channel=0, data=[69, 0]),
   midi.NoteOnEvent(tick=1615800, channel=0, data=[36, 100]),
   midi.NoteOffEvent(tick=1615900, channel=0, data=[36, 0]),
   midi.NoteOnEvent(tick=1616000, channel=0, data=[27, 100]),
   midi.NoteOffEvent(tick=1616100, channel=0, data=[27, 0]),
   midi.NoteOnEvent(tick=1616200, channel=0, data=[47, 100]),
   midi.NoteOffEvent(tick=1616300, channel=0, data=[47, 0]),
   midi.NoteOnEvent(tick=1616400, channel=0, data=[36, 100]),
   midi.NoteOffEvent(tick=1616500, channel=0, data=[36, 0]),
   midi.NoteOnEvent(tick=1616600, channel=0, data=[1, 100]),
   midi.NoteOffEvent(tick=1616700, channel=0, data=[1, 0]),
   midi.NoteOnEvent(tick=1616800, channel=0, data=[36, 100]),
   midi.NoteOffEvent(tick=1616900, channel=0, data=[36, 0]),
   midi.NoteOnEvent(tick=1617000, channel=0, data=[69, 100]),
   midi.NoteOffEvent(tick=1617100, channel=0, data=[69, 0]),
   midi.NoteOnEvent(tick=1617200, channel=0, data=[36, 100]),
   midi.NoteOffEvent(tick=1617300, channel=0, data=[36, 0]),
   midi.NoteOnEvent(tick=1617400, channel=0, data=[28, 100]),
   midi.NoteOffEvent(tick=1617500, channel=0, data=[28, 0]),
   midi.NoteOnEvent(tick=1617600, channel=0, data=[47, 100]),
   midi.NoteOffEvent(tick=1617700, channel=0, data=[47, 0]),
   midi.NoteOnEvent(tick=1617800, channel=0, data=[36, 100]),
   midi.NoteOffEvent(tick=1617900, channel=0, data=[36, 0]),
   midi.NoteOnEvent(tick=1618000, channel=0, data=[2, 100]),
   midi.NoteOffEvent(tick=1618100, channel=0, data=[2, 0]),
   midi.NoteOnEvent(tick=1618200, channel=0, data=[36, 100]),
   midi.NoteOffEvent(tick=1618300, channel=0, data=[36, 0]),
   midi.NoteOnEvent(tick=1618400, channel=0, data=[69, 100]),
   midi.NoteOffEvent(tick=1618500, channel=0, data=[69, 0]),
   midi.NoteOnEvent(tick=1618600, channel=0, data=[36, 100]),
   midi.NoteOffEvent(tick=1618700, channel=0, data=[36, 0]),
   midi.NoteOnEvent(tick=1618800, channel=0, data=[29, 100]),
   midi.NoteOffEvent(tick=1618900, channel=0, data=[29, 0]),
   midi.NoteOnEvent(tick=1619000, channel=0, data=[54, 100]),
   midi.NoteOffEvent(tick=1619100, channel=0, data=[54, 0]),
   midi.NoteOnEvent(tick=1619200, channel=0, data=[56, 100]),
   midi.NoteOffEvent(tick=1619300, channel=0, data=[56, 0]),
   midi.NoteOnEvent(tick=1619400, channel=0, data=[36, 100]),
   midi.NoteOffEvent(tick=1619500, channel=0, data=[36, 0]),
   midi.NoteOnEvent(tick=1619600, channel=0, data=[36, 100]),
   midi.NoteOffEvent(tick=1619700, channel=0, data=[36, 0]),
   midi.NoteOnEvent(tick=1619800, channel=0, data=[36, 100]),
   midi.NoteOffEvent(tick=1619900, channel=0, data=[36, 0]),
   midi.NoteOnEvent(tick=1620000, channel=0, data=[36, 100]),
   midi.NoteOffEvent(tick=1620100, channel=0, data=[36, 0]),
   midi.NoteOnEvent(tick=1620200, channel=0, data=[36, 100]),
   midi.NoteOffEvent(tick=1620300, channel=0, data=[36, 0]),
   midi.NoteOnEvent(tick=1620400, channel=0, data=[36, 100]),
   midi.NoteOffEvent(tick=1620500, channel=0, data=[36, 0]),
   midi.NoteOnEvent(tick=1620600, channel=0, data=[36, 100]),
   midi.NoteOffEvent(tick=1620700, channel=0, data=[36, 0]),
   midi.NoteOnEvent(tick=1620800, channel=0, data=[36, 100]),
   midi.NoteOffEvent(tick=1620900, channel=0, data=[36, 0]),
   midi.NoteOnEvent(tick=1621000, channel=0, data=[2, 100]),
   midi.NoteOffEvent(tick=1621100, channel=0, data=[2, 0]),
   midi.NoteOnEvent(tick=1621200, channel=0, data=[46, 100]),
   midi.NoteOffEvent(tick=1621300, channel=0, data=[46, 0]),
   midi.NoteOnEvent(tick=1621400, channel=0, data=[78, 100]),
   midi.NoteOffEvent(tick=1621500, channel=0, data=[78, 0]),
   midi.NoteOnEvent(tick=1621600, channel=0, data=[15, 100]),
   midi.NoteOffEvent(tick=1621700, channel=0, data=[15, 0]),
   midi.NoteOnEvent(tick=1621800, channel=0, data=[18, 100]),
   midi.NoteOffEvent(tick=1621900, channel=0, data=[18, 0]),
   midi.NoteOnEvent(tick=1622000, channel=0, data=[73, 100]),
   midi.NoteOffEvent(tick=1622100, channel=0, data=[73, 0]),
   midi.NoteOnEvent(tick=1622200, channel=0, data=[36, 100]),
   midi.NoteOffEvent(tick=1622300, channel=0, data=[36, 0]),
   midi.NoteOnEvent(tick=1622400, channel=0, data=[74, 100]),
   midi.NoteOffEvent(tick=1622500, channel=0, data=[74, 0]),
   midi.NoteOnEvent(tick=1622600, channel=0, data=[0, 100]),
   midi.NoteOffEvent(tick=1622700, channel=0, data=[0, 0]),
   midi.NoteOnEvent(tick=1622800, channel=0, data=[36, 100]),
   midi.NoteOffEvent(tick=1622900, channel=0, data=[36, 0]),
   midi.NoteOnEvent(tick=1623000, channel=0, data=[55, 100]),
   midi.NoteOffEvent(tick=1623100, channel=0, data=[55, 0]),
   midi.NoteOnEvent(tick=1623200, channel=0, data=[69, 100]),
   midi.NoteOffEvent(tick=1623300, channel=0, data=[69, 0]),
   midi.NoteOnEvent(tick=1623400, channel=0, data=[36, 100]),
   midi.NoteOffEvent(tick=1623500, channel=0, data=[36, 0]),
   midi.NoteOnEvent(tick=1623600, channel=0, data=[77, 100]),
   midi.NoteOffEvent(tick=1623700, channel=0, data=[77, 0]),
   midi.NoteOnEvent(tick=1623800, channel=0, data=[53, 100]),
   midi.NoteOffEvent(tick=1623900, channel=0, data=[53, 0]),
   midi.NoteOnEvent(tick=1624000, channel=0, data=[12, 100]),
   midi.NoteOffEvent(tick=1624100, channel=0, data=[12, 0]),
   midi.NoteOnEvent(tick=1624200, channel=0, data=[14, 100]),
   midi.NoteOffEvent(tick=1624300, channel=0, data=[14, 0]),
   midi.NoteOnEvent(tick=1624400, channel=0, data=[3, 100]),
   midi.NoteOffEvent(tick=1624500, channel=0, data=[3, 0]),
   midi.NoteOnEvent(tick=1624600, channel=0, data=[4, 100]),
   midi.NoteOffEvent(tick=1624700, channel=0, data=[4, 0]),
   midi.NoteOnEvent(tick=1624800, channel=0, data=[36, 100]),
   midi.NoteOffEvent(tick=1624900, channel=0, data=[36, 0]),
   midi.NoteOnEvent(tick=1625000, channel=0, data=[69, 100]),
   midi.NoteOffEvent(tick=1625100, channel=0, data=[69, 0]),
   midi.NoteOnEvent(tick=1625200, channel=0, data=[36, 100]),
   midi.NoteOffEvent(tick=1625300, channel=0, data=[36, 0]),
   midi.NoteOnEvent(tick=1625400, channel=0, data=[41, 100]),
   midi.NoteOffEvent(tick=1625500, channel=0, data=[41, 0]),
   midi.NoteOnEvent(tick=1625600, channel=0, data=[22, 100]),
   midi.NoteOffEvent(tick=1625700, channel=0, data=[22, 0]),
   midi.NoteOnEvent(tick=1625800, channel=0, data=[17, 100]),
   midi.NoteOffEvent(tick=1625900, channel=0, data=[17, 0]),
   midi.NoteOnEvent(tick=1626000, channel=0, data=[8, 100]),
   midi.NoteOffEvent(tick=1626100, channel=0, data=[8, 0]),
   midi.NoteOnEvent(tick=1626200, channel=0, data=[19, 100]),
   midi.NoteOffEvent(tick=1626300, channel=0, data=[19, 0]),
   midi.NoteOnEvent(tick=1626400, channel=0, data=[4, 100]),
   midi.NoteOffEvent(tick=1626500, channel=0, data=[4, 0]),
   midi.NoteOnEvent(tick=1626600, channel=0, data=[41, 100]),
   midi.NoteOffEvent(tick=1626700, channel=0, data=[41, 0]),
   midi.NoteOnEvent(tick=1626800, channel=0, data=[54, 100]),
   midi.NoteOffEvent(tick=1626900, channel=0, data=[54, 0]),
   midi.NoteOnEvent(tick=1627000, channel=0, data=[56, 100]),
   midi.NoteOffEvent(tick=1627100, channel=0, data=[56, 0]),
   midi.NoteOnEvent(tick=1627200, channel=0, data=[36, 100]),
   midi.NoteOffEvent(tick=1627300, channel=0, data=[36, 0]),
   midi.NoteOnEvent(tick=1627400, channel=0, data=[36, 100]),
   midi.NoteOffEvent(tick=1627500, channel=0, data=[36, 0]),
   midi.NoteOnEvent(tick=1627600, channel=0, data=[36, 100]),
   midi.NoteOffEvent(tick=1627700, channel=0, data=[36, 0]),
   midi.NoteOnEvent(tick=1627800, channel=0, data=[36, 100]),
   midi.NoteOffEvent(tick=1627900, channel=0, data=[36, 0]),
   midi.NoteOnEvent(tick=1628000, channel=0, data=[36, 100]),
   midi.NoteOffEvent(tick=1628100, channel=0, data=[36, 0]),
   midi.NoteOnEvent(tick=1628200, channel=0, data=[36, 100]),
   midi.NoteOffEvent(tick=1628300, channel=0, data=[36, 0]),
   midi.NoteOnEvent(tick=1628400, channel=0, data=[36, 100]),
   midi.NoteOffEvent(tick=1628500, channel=0, data=[36, 0]),
   midi.NoteOnEvent(tick=1628600, channel=0, data=[36, 100]),
   midi.NoteOffEvent(tick=1628700, channel=0, data=[36, 0]),
   midi.NoteOnEvent(tick=1628800, channel=0, data=[2, 100]),
   midi.NoteOffEvent(tick=1628900, channel=0, data=[2, 0]),
   midi.NoteOnEvent(tick=1629000, channel=0, data=[46, 100]),
   midi.NoteOffEvent(tick=1629100, channel=0, data=[46, 0]),
   midi.NoteOnEvent(tick=1629200, channel=0, data=[78, 100]),
   midi.NoteOffEvent(tick=1629300, channel=0, data=[78, 0]),
   midi.NoteOnEvent(tick=1629400, channel=0, data=[15, 100]),
   midi.NoteOffEvent(tick=1629500, channel=0, data=[15, 0]),
   midi.NoteOnEvent(tick=1629600, channel=0, data=[18, 100]),
   midi.NoteOffEvent(tick=1629700, channel=0, data=[18, 0]),
   midi.NoteOnEvent(tick=1629800, channel=0, data=[73, 100]),
   midi.NoteOffEvent(tick=1629900, channel=0, data=[73, 0]),
   midi.NoteOnEvent(tick=1630000, channel=0, data=[36, 100]),
   midi.NoteOffEvent(tick=1630100, channel=0, data=[36, 0]),
   midi.NoteOnEvent(tick=1630200, channel=0, data=[74, 100]),
   midi.NoteOffEvent(tick=1630300, channel=0, data=[74, 0]),
   midi.NoteOnEvent(tick=1630400, channel=0, data=[0, 100]),
   midi.NoteOffEvent(tick=1630500, channel=0, data=[0, 0]),
   midi.NoteOnEvent(tick=1630600, channel=0, data=[56, 100]),
   midi.NoteOffEvent(tick=1630700, channel=0, data=[56, 0]),
   midi.NoteOnEvent(tick=1630800, channel=0, data=[36, 100]),
   midi.NoteOffEvent(tick=1630900, channel=0, data=[36, 0]),
   midi.NoteOnEvent(tick=1631000, channel=0, data=[36, 100]),
   midi.NoteOffEvent(tick=1631100, channel=0, data=[36, 0]),
   midi.NoteOnEvent(tick=1631200, channel=0, data=[36, 100]),
   midi.NoteOffEvent(tick=1631300, channel=0, data=[36, 0]),
   midi.NoteOnEvent(tick=1631400, channel=0, data=[36, 100]),
   midi.NoteOffEvent(tick=1631500, channel=0, data=[36, 0]),
   midi.NoteOnEvent(tick=1631600, channel=0, data=[36, 100]),
   midi.NoteOffEvent(tick=1631700, channel=0, data=[36, 0]),
   midi.NoteOnEvent(tick=1631800, channel=0, data=[36, 100]),
   midi.NoteOffEvent(tick=1631900, channel=0, data=[36, 0]),
   midi.NoteOnEvent(tick=1632000, channel=0, data=[36, 100]),
   midi.NoteOffEvent(tick=1632100, channel=0, data=[36, 0]),
   midi.NoteOnEvent(tick=1632200, channel=0, data=[36, 100]),
   midi.NoteOffEvent(tick=1632300, channel=0, data=[36, 0]),
   midi.NoteOnEvent(tick=1632400, channel=0, data=[13, 100]),
   midi.NoteOffEvent(tick=1632500, channel=0, data=[13, 0]),
   midi.NoteOnEvent(tick=1632600, channel=0, data=[0, 100]),
   midi.NoteOffEvent(tick=1632700, channel=0, data=[0, 0]),
   midi.NoteOnEvent(tick=1632800, channel=0, data=[12, 100]),
   midi.NoteOffEvent(tick=1632900, channel=0, data=[12, 0]),
   midi.NoteOnEvent(tick=1633000, channel=0, data=[4, 100]),
   midi.NoteOffEvent(tick=1633100, channel=0, data=[4, 0]),
   midi.NoteOnEvent(tick=1633200, channel=0, data=[36, 100]),
   midi.NoteOffEvent(tick=1633300, channel=0, data=[36, 0]),
   midi.NoteOnEvent(tick=1633400, channel=0, data=[36, 100]),
   midi.NoteOffEvent(tick=1633500, channel=0, data=[36, 0]),
   midi.NoteOnEvent(tick=1633600, channel=0, data=[36, 100]),
   midi.NoteOffEvent(tick=1633700, channel=0, data=[36, 0]),
   midi.NoteOnEvent(tick=1633800, channel=0, data=[36, 100]),
   midi.NoteOffEvent(tick=1633900, channel=0, data=[36, 0]),
   midi.NoteOnEvent(tick=1634000, channel=0, data=[36, 100]),
   midi.NoteOffEvent(tick=1634100, channel=0, data=[36, 0]),
   midi.NoteOnEvent(tick=1634200, channel=0, data=[36, 100]),
   midi.NoteOffEvent(tick=1634300, channel=0, data=[36, 0]),
   midi.NoteOnEvent(tick=1634400, channel=0, data=[36, 100]),
   midi.NoteOffEvent(tick=1634500, channel=0, data=[36, 0]),
   midi.NoteOnEvent(tick=1634600, channel=0, data=[36, 100]),
   midi.NoteOffEvent(tick=1634700, channel=0, data=[36, 0]),
   midi.NoteOnEvent(tick=1634800, channel=0, data=[36, 100]),
   midi.NoteOffEvent(tick=1634900, channel=0, data=[36, 0]),
   midi.NoteOnEvent(tick=1635000, channel=0, data=[36, 100]),
   midi.NoteOffEvent(tick=1635100, channel=0, data=[36, 0]),
   midi.NoteOnEvent(tick=1635200, channel=0, data=[36, 100]),
   midi.NoteOffEvent(tick=1635300, channel=0, data=[36, 0]),
   midi.NoteOnEvent(tick=1635400, channel=0, data=[36, 100]),
   midi.NoteOffEvent(tick=1635500, channel=0, data=[36, 0]),
   midi.NoteOnEvent(tick=1635600, channel=0, data=[36, 100]),
   midi.NoteOffEvent(tick=1635700, channel=0, data=[36, 0]),
   midi.NoteOnEvent(tick=1635800, channel=0, data=[36, 100]),
   midi.NoteOffEvent(tick=1635900, channel=0, data=[36, 0]),
   midi.NoteOnEvent(tick=1636000, channel=0, data=[36, 100]),
   midi.NoteOffEvent(tick=1636100, channel=0, data=[36, 0]),
   midi.NoteOnEvent(tick=1636200, channel=0, data=[36, 100]),
   midi.NoteOffEvent(tick=1636300, channel=0, data=[36, 0]),
   midi.NoteOnEvent(tick=1636400, channel=0, data=[36, 100]),
   midi.NoteOffEvent(tick=1636500, channel=0, data=[36, 0]),
   midi.NoteOnEvent(tick=1636600, channel=0, data=[36, 100]),
   midi.NoteOffEvent(tick=1636700, channel=0, data=[36, 0]),
   midi.NoteOnEvent(tick=1636800, channel=0, data=[36, 100]),
   midi.NoteOffEvent(tick=1636900, channel=0, data=[36, 0]),
   midi.NoteOnEvent(tick=1637000, channel=0, data=[36, 100]),
   midi.NoteOffEvent(tick=1637100, channel=0, data=[36, 0]),
   midi.NoteOnEvent(tick=1637200, channel=0, data=[36, 100]),
   midi.NoteOffEvent(tick=1637300, channel=0, data=[36, 0]),
   midi.NoteOnEvent(tick=1637400, channel=0, data=[36, 100]),
   midi.NoteOffEvent(tick=1637500, channel=0, data=[36, 0]),
   midi.NoteOnEvent(tick=1637600, channel=0, data=[36, 100]),
   midi.NoteOffEvent(tick=1637700, channel=0, data=[36, 0]),
   midi.NoteOnEvent(tick=1637800, channel=0, data=[36, 100]),
   midi.NoteOffEvent(tick=1637900, channel=0, data=[36, 0]),
   midi.NoteOnEvent(tick=1638000, channel=0, data=[36, 100]),
   midi.NoteOffEvent(tick=1638100, channel=0, data=[36, 0]),
   midi.NoteOnEvent(tick=1638200, channel=0, data=[36, 100]),
   midi.NoteOffEvent(tick=1638300, channel=0, data=[36, 0]),
   midi.NoteOnEvent(tick=1638400, channel=0, data=[36, 100]),
   midi.NoteOffEvent(tick=1638500, channel=0, data=[36, 0]),
   midi.NoteOnEvent(tick=1638600, channel=0, data=[21, 100]),
   midi.NoteOffEvent(tick=1638700, channel=0, data=[21, 0]),
   midi.NoteOnEvent(tick=1638800, channel=0, data=[0, 100]),
   midi.NoteOffEvent(tick=1638900, channel=0, data=[0, 0]),
   midi.NoteOnEvent(tick=1639000, channel=0, data=[11, 100]),
   midi.NoteOffEvent(tick=1639100, channel=0, data=[11, 0]),
   midi.NoteOnEvent(tick=1639200, channel=0, data=[20, 100]),
   midi.NoteOffEvent(tick=1639300, channel=0, data=[20, 0]),
   midi.NoteOnEvent(tick=1639400, channel=0, data=[4, 100]),
   midi.NoteOffEvent(tick=1639500, channel=0, data=[4, 0]),
   midi.NoteOnEvent(tick=1639600, channel=0, data=[56, 100]),
   midi.NoteOffEvent(tick=1639700, channel=0, data=[56, 0]),
   midi.NoteOnEvent(tick=1639800, channel=0, data=[36, 100]),
   midi.NoteOffEvent(tick=1639900, channel=0, data=[36, 0]),
   midi.NoteOnEvent(tick=1640000, channel=0, data=[36, 100]),
   midi.NoteOffEvent(tick=1640100, channel=0, data=[36, 0]),
   midi.NoteOnEvent(tick=1640200, channel=0, data=[36, 100]),
   midi.NoteOffEvent(tick=1640300, channel=0, data=[36, 0]),
   midi.NoteOnEvent(tick=1640400, channel=0, data=[36, 100]),
   midi.NoteOffEvent(tick=1640500, channel=0, data=[36, 0]),
   midi.NoteOnEvent(tick=1640600, channel=0, data=[36, 100]),
   midi.NoteOffEvent(tick=1640700, channel=0, data=[36, 0]),
   midi.NoteOnEvent(tick=1640800, channel=0, data=[36, 100]),
   midi.NoteOffEvent(tick=1640900, channel=0, data=[36, 0]),
   midi.NoteOnEvent(tick=1641000, channel=0, data=[36, 100]),
   midi.NoteOffEvent(tick=1641100, channel=0, data=[36, 0]),
   midi.NoteOnEvent(tick=1641200, channel=0, data=[36, 100]),
   midi.NoteOffEvent(tick=1641300, channel=0, data=[36, 0]),
   midi.NoteOnEvent(tick=1641400, channel=0, data=[45, 100]),
   midi.NoteOffEvent(tick=1641500, channel=0, data=[45, 0]),
   midi.NoteOnEvent(tick=1641600, channel=0, data=[45, 100]),
   midi.NoteOffEvent(tick=1641700, channel=0, data=[45, 0]),
   midi.NoteOnEvent(tick=1641800, channel=0, data=[45, 100]),
   midi.NoteOffEvent(tick=1641900, channel=0, data=[45, 0]),
   midi.NoteOnEvent(tick=1642000, channel=0, data=[45, 100]),
   midi.NoteOffEvent(tick=1642100, channel=0, data=[45, 0]),
   midi.NoteOnEvent(tick=1642200, channel=0, data=[36, 100]),
   midi.NoteOffEvent(tick=1642300, channel=0, data=[36, 0]),
   midi.NoteOnEvent(tick=1642400, channel=0, data=[36, 100]),
   midi.NoteOffEvent(tick=1642500, channel=0, data=[36, 0]),
   midi.NoteOnEvent(tick=1642600, channel=0, data=[36, 100]),
   midi.NoteOffEvent(tick=1642700, channel=0, data=[36, 0]),
   midi.NoteOnEvent(tick=1642800, channel=0, data=[36, 100]),
   midi.NoteOffEvent(tick=1642900, channel=0, data=[36, 0]),
   midi.NoteOnEvent(tick=1643000, channel=0, data=[36, 100]),
   midi.NoteOffEvent(tick=1643100, channel=0, data=[36, 0]),
   midi.NoteOnEvent(tick=1643200, channel=0, data=[36, 100]),
   midi.NoteOffEvent(tick=1643300, channel=0, data=[36, 0]),
   midi.NoteOnEvent(tick=1643400, channel=0, data=[36, 100]),
   midi.NoteOffEvent(tick=1643500, channel=0, data=[36, 0]),
   midi.NoteOnEvent(tick=1643600, channel=0, data=[36, 100]),
   midi.NoteOffEvent(tick=1643700, channel=0, data=[36, 0]),
   midi.NoteOnEvent(tick=1643800, channel=0, data=[36, 100]),
   midi.NoteOffEvent(tick=1643900, channel=0, data=[36, 0]),
   midi.NoteOnEvent(tick=1644000, channel=0, data=[36, 100]),
   midi.NoteOffEvent(tick=1644100, channel=0, data=[36, 0]),
   midi.NoteOnEvent(tick=1644200, channel=0, data=[36, 100]),
   midi.NoteOffEvent(tick=1644300, channel=0, data=[36, 0]),
   midi.NoteOnEvent(tick=1644400, channel=0, data=[36, 100]),
   midi.NoteOffEvent(tick=1644500, channel=0, data=[36, 0]),
   midi.NoteOnEvent(tick=1644600, channel=0, data=[36, 100]),
   midi.NoteOffEvent(tick=1644700, channel=0, data=[36, 0]),
   midi.NoteOnEvent(tick=1644800, channel=0, data=[36, 100]),
   midi.NoteOffEvent(tick=1644900, channel=0, data=[36, 0]),
   midi.NoteOnEvent(tick=1645000, channel=0, data=[36, 100]),
   midi.NoteOffEvent(tick=1645100, channel=0, data=[36, 0]),
   midi.NoteOnEvent(tick=1645200, channel=0, data=[36, 100]),
   midi.NoteOffEvent(tick=1645300, channel=0, data=[36, 0]),
   midi.NoteOnEvent(tick=1645400, channel=0, data=[36, 100]),
   midi.NoteOffEvent(tick=1645500, channel=0, data=[36, 0]),
   midi.NoteOnEvent(tick=1645600, channel=0, data=[36, 100]),
   midi.NoteOffEvent(tick=1645700, channel=0, data=[36, 0]),
   midi.NoteOnEvent(tick=1645800, channel=0, data=[36, 100]),
   midi.NoteOffEvent(tick=1645900, channel=0, data=[36, 0]),
   midi.NoteOnEvent(tick=1646000, channel=0, data=[36, 100]),
   midi.NoteOffEvent(tick=1646100, channel=0, data=[36, 0]),
   midi.NoteOnEvent(tick=1646200, channel=0, data=[36, 100]),
   midi.NoteOffEvent(tick=1646300, channel=0, data=[36, 0]),
   midi.NoteOnEvent(tick=1646400, channel=0, data=[36, 100]),
   midi.NoteOffEvent(tick=1646500, channel=0, data=[36, 0]),
   midi.NoteOnEvent(tick=1646600, channel=0, data=[36, 100]),
   midi.NoteOffEvent(tick=1646700, channel=0, data=[36, 0]),
   midi.NoteOnEvent(tick=1646800, channel=0, data=[36, 100]),
   midi.NoteOffEvent(tick=1646900, channel=0, data=[36, 0]),
   midi.NoteOnEvent(tick=1647000, channel=0, data=[36, 100]),
   midi.NoteOffEvent(tick=1647100, channel=0, data=[36, 0]),
   midi.NoteOnEvent(tick=1647200, channel=0, data=[36, 100]),
   midi.NoteOffEvent(tick=1647300, channel=0, data=[36, 0]),
   midi.NoteOnEvent(tick=1647400, channel=0, data=[36, 100]),
   midi.NoteOffEvent(tick=1647500, channel=0, data=[36, 0]),
   midi.NoteOnEvent(tick=1647600, channel=0, data=[45, 100]),
   midi.NoteOffEvent(tick=1647700, channel=0, data=[45, 0]),
   midi.NoteOnEvent(tick=1647800, channel=0, data=[45, 100]),
   midi.NoteOffEvent(tick=1647900, channel=0, data=[45, 0]),
   midi.NoteOnEvent(tick=1648000, channel=0, data=[45, 100]),
   midi.NoteOffEvent(tick=1648100, channel=0, data=[45, 0]),
   midi.NoteOnEvent(tick=1648200, channel=0, data=[45, 100]),
   midi.NoteOffEvent(tick=1648300, channel=0, data=[45, 0]),
   midi.NoteOnEvent(tick=1648400, channel=0, data=[45, 100]),
   midi.NoteOffEvent(tick=1648500, channel=0, data=[45, 0]),
   midi.NoteOnEvent(tick=1648600, channel=0, data=[56, 100]),
   midi.NoteOffEvent(tick=1648700, channel=0, data=[56, 0]),
   midi.NoteOnEvent(tick=1648800, channel=0, data=[36, 100]),
   midi.NoteOffEvent(tick=1648900, channel=0, data=[36, 0]),
   midi.NoteOnEvent(tick=1649000, channel=0, data=[36, 100]),
   midi.NoteOffEvent(tick=1649100, channel=0, data=[36, 0]),
   midi.NoteOnEvent(tick=1649200, channel=0, data=[36, 100]),
   midi.NoteOffEvent(tick=1649300, channel=0, data=[36, 0]),
   midi.NoteOnEvent(tick=1649400, channel=0, data=[36, 100]),
   midi.NoteOffEvent(tick=1649500, channel=0, data=[36, 0]),
   midi.NoteOnEvent(tick=1649600, channel=0, data=[36, 100]),
   midi.NoteOffEvent(tick=1649700, channel=0, data=[36, 0]),
   midi.NoteOnEvent(tick=1649800, channel=0, data=[36, 100]),
   midi.NoteOffEvent(tick=1649900, channel=0, data=[36, 0]),
   midi.NoteOnEvent(tick=1650000, channel=0, data=[36, 100]),
   midi.NoteOffEvent(tick=1650100, channel=0, data=[36, 0]),
   midi.NoteOnEvent(tick=1650200, channel=0, data=[36, 100]),
   midi.NoteOffEvent(tick=1650300, channel=0, data=[36, 0]),
   midi.NoteOnEvent(tick=1650400, channel=0, data=[0, 100]),
   midi.NoteOffEvent(tick=1650500, channel=0, data=[0, 0]),
   midi.NoteOnEvent(tick=1650600, channel=0, data=[36, 100]),
   midi.NoteOffEvent(tick=1650700, channel=0, data=[36, 0]),
   midi.NoteOnEvent(tick=1650800, channel=0, data=[36, 100]),
   midi.NoteOffEvent(tick=1650900, channel=0, data=[36, 0]),
   midi.NoteOnEvent(tick=1651000, channel=0, data=[36, 100]),
   midi.NoteOffEvent(tick=1651100, channel=0, data=[36, 0]),
   midi.NoteOnEvent(tick=1651200, channel=0, data=[36, 100]),
   midi.NoteOffEvent(tick=1651300, channel=0, data=[36, 0]),
   midi.NoteOnEvent(tick=1651400, channel=0, data=[36, 100]),
   midi.NoteOffEvent(tick=1651500, channel=0, data=[36, 0]),
   midi.NoteOnEvent(tick=1651600, channel=0, data=[36, 100]),
   midi.NoteOffEvent(tick=1651700, channel=0, data=[36, 0]),
   midi.NoteOnEvent(tick=1651800, channel=0, data=[36, 100]),
   midi.NoteOffEvent(tick=1651900, channel=0, data=[36, 0]),
   midi.NoteOnEvent(tick=1652000, channel=0, data=[36, 100]),
   midi.NoteOffEvent(tick=1652100, channel=0, data=[36, 0]),
   midi.NoteOnEvent(tick=1652200, channel=0, data=[36, 100]),
   midi.NoteOffEvent(tick=1652300, channel=0, data=[36, 0]),
   midi.NoteOnEvent(tick=1652400, channel=0, data=[36, 100]),
   midi.NoteOffEvent(tick=1652500, channel=0, data=[36, 0]),
   midi.NoteOnEvent(tick=1652600, channel=0, data=[36, 100]),
   midi.NoteOffEvent(tick=1652700, channel=0, data=[36, 0]),
   midi.NoteOnEvent(tick=1652800, channel=0, data=[36, 100]),
   midi.NoteOffEvent(tick=1652900, channel=0, data=[36, 0]),
   midi.NoteOnEvent(tick=1653000, channel=0, data=[36, 100]),
   midi.NoteOffEvent(tick=1653100, channel=0, data=[36, 0]),
   midi.NoteOnEvent(tick=1653200, channel=0, data=[36, 100]),
   midi.NoteOffEvent(tick=1653300, channel=0, data=[36, 0]),
   midi.NoteOnEvent(tick=1653400, channel=0, data=[36, 100]),
   midi.NoteOffEvent(tick=1653500, channel=0, data=[36, 0]),
   midi.NoteOnEvent(tick=1653600, channel=0, data=[36, 100]),
   midi.NoteOffEvent(tick=1653700, channel=0, data=[36, 0]),
   midi.NoteOnEvent(tick=1653800, channel=0, data=[36, 100]),
   midi.NoteOffEvent(tick=1653900, channel=0, data=[36, 0]),
   midi.NoteOnEvent(tick=1654000, channel=0, data=[36, 100]),
   midi.NoteOffEvent(tick=1654100, channel=0, data=[36, 0]),
   midi.NoteOnEvent(tick=1654200, channel=0, data=[36, 100]),
   midi.NoteOffEvent(tick=1654300, channel=0, data=[36, 0]),
   midi.NoteOnEvent(tick=1654400, channel=0, data=[36, 100]),
   midi.NoteOffEvent(tick=1654500, channel=0, data=[36, 0]),
   midi.NoteOnEvent(tick=1654600, channel=0, data=[36, 100]),
   midi.NoteOffEvent(tick=1654700, channel=0, data=[36, 0]),
   midi.NoteOnEvent(tick=1654800, channel=0, data=[36, 100]),
   midi.NoteOffEvent(tick=1654900, channel=0, data=[36, 0]),
   midi.NoteOnEvent(tick=1655000, channel=0, data=[36, 100]),
   midi.NoteOffEvent(tick=1655100, channel=0, data=[36, 0]),
   midi.NoteOnEvent(tick=1655200, channel=0, data=[36, 100]),
   midi.NoteOffEvent(tick=1655300, channel=0, data=[36, 0]),
   midi.NoteOnEvent(tick=1655400, channel=0, data=[36, 100]),
   midi.NoteOffEvent(tick=1655500, channel=0, data=[36, 0]),
   midi.NoteOnEvent(tick=1655600, channel=0, data=[36, 100]),
   midi.NoteOffEvent(tick=1655700, channel=0, data=[36, 0]),
   midi.NoteOnEvent(tick=1655800, channel=0, data=[36, 100]),
   midi.NoteOffEvent(tick=1655900, channel=0, data=[36, 0]),
   midi.NoteOnEvent(tick=1656000, channel=0, data=[36, 100]),
   midi.NoteOffEvent(tick=1656100, channel=0, data=[36, 0]),
   midi.NoteOnEvent(tick=1656200, channel=0, data=[36, 100]),
   midi.NoteOffEvent(tick=1656300, channel=0, data=[36, 0]),
   midi.NoteOnEvent(tick=1656400, channel=0, data=[36, 100]),
   midi.NoteOffEvent(tick=1656500, channel=0, data=[36, 0]),
   midi.NoteOnEvent(tick=1656600, channel=0, data=[27, 100]),
   midi.NoteOffEvent(tick=1656700, channel=0, data=[27, 0]),
   midi.NoteOnEvent(tick=1656800, channel=0, data=[56, 100]),
   midi.NoteOffEvent(tick=1656900, channel=0, data=[56, 0]),
   midi.NoteOnEvent(tick=1657000, channel=0, data=[36, 100]),
   midi.NoteOffEvent(tick=1657100, channel=0, data=[36, 0]),
   midi.NoteOnEvent(tick=1657200, channel=0, data=[36, 100]),
   midi.NoteOffEvent(tick=1657300, channel=0, data=[36, 0]),
   midi.NoteOnEvent(tick=1657400, channel=0, data=[36, 100]),
   midi.NoteOffEvent(tick=1657500, channel=0, data=[36, 0]),
   midi.NoteOnEvent(tick=1657600, channel=0, data=[36, 100]),
   midi.NoteOffEvent(tick=1657700, channel=0, data=[36, 0]),
   midi.NoteOnEvent(tick=1657800, channel=0, data=[36, 100]),
   midi.NoteOffEvent(tick=1657900, channel=0, data=[36, 0]),
   midi.NoteOnEvent(tick=1658000, channel=0, data=[36, 100]),
   midi.NoteOffEvent(tick=1658100, channel=0, data=[36, 0]),
   midi.NoteOnEvent(tick=1658200, channel=0, data=[36, 100]),
   midi.NoteOffEvent(tick=1658300, channel=0, data=[36, 0]),
   midi.NoteOnEvent(tick=1658400, channel=0, data=[36, 100]),
   midi.NoteOffEvent(tick=1658500, channel=0, data=[36, 0]),
   midi.NoteOnEvent(tick=1658600, channel=0, data=[1, 100]),
   midi.NoteOffEvent(tick=1658700, channel=0, data=[1, 0]),
   midi.NoteOnEvent(tick=1658800, channel=0, data=[36, 100]),
   midi.NoteOffEvent(tick=1658900, channel=0, data=[36, 0]),
   midi.NoteOnEvent(tick=1659000, channel=0, data=[36, 100]),
   midi.NoteOffEvent(tick=1659100, channel=0, data=[36, 0]),
   midi.NoteOnEvent(tick=1659200, channel=0, data=[36, 100]),
   midi.NoteOffEvent(tick=1659300, channel=0, data=[36, 0]),
   midi.NoteOnEvent(tick=1659400, channel=0, data=[36, 100]),
   midi.NoteOffEvent(tick=1659500, channel=0, data=[36, 0]),
   midi.NoteOnEvent(tick=1659600, channel=0, data=[36, 100]),
   midi.NoteOffEvent(tick=1659700, channel=0, data=[36, 0]),
   midi.NoteOnEvent(tick=1659800, channel=0, data=[36, 100]),
   midi.NoteOffEvent(tick=1659900, channel=0, data=[36, 0]),
   midi.NoteOnEvent(tick=1660000, channel=0, data=[36, 100]),
   midi.NoteOffEvent(tick=1660100, channel=0, data=[36, 0]),
   midi.NoteOnEvent(tick=1660200, channel=0, data=[36, 100]),
   midi.NoteOffEvent(tick=1660300, channel=0, data=[36, 0]),
   midi.NoteOnEvent(tick=1660400, channel=0, data=[36, 100]),
   midi.NoteOffEvent(tick=1660500, channel=0, data=[36, 0]),
   midi.NoteOnEvent(tick=1660600, channel=0, data=[36, 100]),
   midi.NoteOffEvent(tick=1660700, channel=0, data=[36, 0]),
   midi.NoteOnEvent(tick=1660800, channel=0, data=[36, 100]),
   midi.NoteOffEvent(tick=1660900, channel=0, data=[36, 0]),
   midi.NoteOnEvent(tick=1661000, channel=0, data=[36, 100]),
   midi.NoteOffEvent(tick=1661100, channel=0, data=[36, 0]),
   midi.NoteOnEvent(tick=1661200, channel=0, data=[36, 100]),
   midi.NoteOffEvent(tick=1661300, channel=0, data=[36, 0]),
   midi.NoteOnEvent(tick=1661400, channel=0, data=[36, 100]),
   midi.NoteOffEvent(tick=1661500, channel=0, data=[36, 0]),
   midi.NoteOnEvent(tick=1661600, channel=0, data=[36, 100]),
   midi.NoteOffEvent(tick=1661700, channel=0, data=[36, 0]),
   midi.NoteOnEvent(tick=1661800, channel=0, data=[36, 100]),
   midi.NoteOffEvent(tick=1661900, channel=0, data=[36, 0]),
   midi.NoteOnEvent(tick=1662000, channel=0, data=[36, 100]),
   midi.NoteOffEvent(tick=1662100, channel=0, data=[36, 0]),
   midi.NoteOnEvent(tick=1662200, channel=0, data=[36, 100]),
   midi.NoteOffEvent(tick=1662300, channel=0, data=[36, 0]),
   midi.NoteOnEvent(tick=1662400, channel=0, data=[36, 100]),
   midi.NoteOffEvent(tick=1662500, channel=0, data=[36, 0]),
   midi.NoteOnEvent(tick=1662600, channel=0, data=[36, 100]),
   midi.NoteOffEvent(tick=1662700, channel=0, data=[36, 0]),
   midi.NoteOnEvent(tick=1662800, channel=0, data=[36, 100]),
   midi.NoteOffEvent(tick=1662900, channel=0, data=[36, 0]),
   midi.NoteOnEvent(tick=1663000, channel=0, data=[36, 100]),
   midi.NoteOffEvent(tick=1663100, channel=0, data=[36, 0]),
   midi.NoteOnEvent(tick=1663200, channel=0, data=[36, 100]),
   midi.NoteOffEvent(tick=1663300, channel=0, data=[36, 0]),
   midi.NoteOnEvent(tick=1663400, channel=0, data=[36, 100]),
   midi.NoteOffEvent(tick=1663500, channel=0, data=[36, 0]),
   midi.NoteOnEvent(tick=1663600, channel=0, data=[36, 100]),
   midi.NoteOffEvent(tick=1663700, channel=0, data=[36, 0]),
   midi.NoteOnEvent(tick=1663800, channel=0, data=[36, 100]),
   midi.NoteOffEvent(tick=1663900, channel=0, data=[36, 0]),
   midi.NoteOnEvent(tick=1664000, channel=0, data=[36, 100]),
   midi.NoteOffEvent(tick=1664100, channel=0, data=[36, 0]),
   midi.NoteOnEvent(tick=1664200, channel=0, data=[36, 100]),
   midi.NoteOffEvent(tick=1664300, channel=0, data=[36, 0]),
   midi.NoteOnEvent(tick=1664400, channel=0, data=[36, 100]),
   midi.NoteOffEvent(tick=1664500, channel=0, data=[36, 0]),
   midi.NoteOnEvent(tick=1664600, channel=0, data=[36, 100]),
   midi.NoteOffEvent(tick=1664700, channel=0, data=[36, 0]),
   midi.NoteOnEvent(tick=1664800, channel=0, data=[28, 100]),
   midi.NoteOffEvent(tick=1664900, channel=0, data=[28, 0]),
   midi.NoteOnEvent(tick=1665000, channel=0, data=[56, 100]),
   midi.NoteOffEvent(tick=1665100, channel=0, data=[56, 0]),
   midi.NoteOnEvent(tick=1665200, channel=0, data=[36, 100]),
   midi.NoteOffEvent(tick=1665300, channel=0, data=[36, 0]),
   midi.NoteOnEvent(tick=1665400, channel=0, data=[36, 100]),
   midi.NoteOffEvent(tick=1665500, channel=0, data=[36, 0]),
   midi.NoteOnEvent(tick=1665600, channel=0, data=[36, 100]),
   midi.NoteOffEvent(tick=1665700, channel=0, data=[36, 0]),
   midi.NoteOnEvent(tick=1665800, channel=0, data=[36, 100]),
   midi.NoteOffEvent(tick=1665900, channel=0, data=[36, 0]),
   midi.NoteOnEvent(tick=1666000, channel=0, data=[36, 100]),
   midi.NoteOffEvent(tick=1666100, channel=0, data=[36, 0]),
   midi.NoteOnEvent(tick=1666200, channel=0, data=[36, 100]),
   midi.NoteOffEvent(tick=1666300, channel=0, data=[36, 0]),
   midi.NoteOnEvent(tick=1666400, channel=0, data=[36, 100]),
   midi.NoteOffEvent(tick=1666500, channel=0, data=[36, 0]),
   midi.NoteOnEvent(tick=1666600, channel=0, data=[36, 100]),
   midi.NoteOffEvent(tick=1666700, channel=0, data=[36, 0]),
   midi.NoteOnEvent(tick=1666800, channel=0, data=[12, 100]),
   midi.NoteOffEvent(tick=1666900, channel=0, data=[12, 0]),
   midi.NoteOnEvent(tick=1667000, channel=0, data=[14, 100]),
   midi.NoteOffEvent(tick=1667100, channel=0, data=[14, 0]),
   midi.NoteOnEvent(tick=1667200, channel=0, data=[3, 100]),
   midi.NoteOffEvent(tick=1667300, channel=0, data=[3, 0]),
   midi.NoteOnEvent(tick=1667400, channel=0, data=[4, 100]),
   midi.NoteOffEvent(tick=1667500, channel=0, data=[4, 0]),
   midi.NoteOnEvent(tick=1667600, channel=0, data=[36, 100]),
   midi.NoteOffEvent(tick=1667700, channel=0, data=[36, 0]),
   midi.NoteOnEvent(tick=1667800, channel=0, data=[36, 100]),
   midi.NoteOffEvent(tick=1667900, channel=0, data=[36, 0]),
   midi.NoteOnEvent(tick=1668000, channel=0, data=[36, 100]),
   midi.NoteOffEvent(tick=1668100, channel=0, data=[36, 0]),
   midi.NoteOnEvent(tick=1668200, channel=0, data=[36, 100]),
   midi.NoteOffEvent(tick=1668300, channel=0, data=[36, 0]),
   midi.NoteOnEvent(tick=1668400, channel=0, data=[36, 100]),
   midi.NoteOffEvent(tick=1668500, channel=0, data=[36, 0]),
   midi.NoteOnEvent(tick=1668600, channel=0, data=[36, 100]),
   midi.NoteOffEvent(tick=1668700, channel=0, data=[36, 0]),
   midi.NoteOnEvent(tick=1668800, channel=0, data=[36, 100]),
   midi.NoteOffEvent(tick=1668900, channel=0, data=[36, 0]),
   midi.NoteOnEvent(tick=1669000, channel=0, data=[36, 100]),
   midi.NoteOffEvent(tick=1669100, channel=0, data=[36, 0]),
   midi.NoteOnEvent(tick=1669200, channel=0, data=[36, 100]),
   midi.NoteOffEvent(tick=1669300, channel=0, data=[36, 0]),
   midi.NoteOnEvent(tick=1669400, channel=0, data=[36, 100]),
   midi.NoteOffEvent(tick=1669500, channel=0, data=[36, 0]),
   midi.NoteOnEvent(tick=1669600, channel=0, data=[36, 100]),
   midi.NoteOffEvent(tick=1669700, channel=0, data=[36, 0]),
   midi.NoteOnEvent(tick=1669800, channel=0, data=[36, 100]),
   midi.NoteOffEvent(tick=1669900, channel=0, data=[36, 0]),
   midi.NoteOnEvent(tick=1670000, channel=0, data=[36, 100]),
   midi.NoteOffEvent(tick=1670100, channel=0, data=[36, 0]),
   midi.NoteOnEvent(tick=1670200, channel=0, data=[36, 100]),
   midi.NoteOffEvent(tick=1670300, channel=0, data=[36, 0]),
   midi.NoteOnEvent(tick=1670400, channel=0, data=[36, 100]),
   midi.NoteOffEvent(tick=1670500, channel=0, data=[36, 0]),
   midi.NoteOnEvent(tick=1670600, channel=0, data=[36, 100]),
   midi.NoteOffEvent(tick=1670700, channel=0, data=[36, 0]),
   midi.NoteOnEvent(tick=1670800, channel=0, data=[36, 100]),
   midi.NoteOffEvent(tick=1670900, channel=0, data=[36, 0]),
   midi.NoteOnEvent(tick=1671000, channel=0, data=[36, 100]),
   midi.NoteOffEvent(tick=1671100, channel=0, data=[36, 0]),
   midi.NoteOnEvent(tick=1671200, channel=0, data=[36, 100]),
   midi.NoteOffEvent(tick=1671300, channel=0, data=[36, 0]),
   midi.NoteOnEvent(tick=1671400, channel=0, data=[36, 100]),
   midi.NoteOffEvent(tick=1671500, channel=0, data=[36, 0]),
   midi.NoteOnEvent(tick=1671600, channel=0, data=[36, 100]),
   midi.NoteOffEvent(tick=1671700, channel=0, data=[36, 0]),
   midi.NoteOnEvent(tick=1671800, channel=0, data=[36, 100]),
   midi.NoteOffEvent(tick=1671900, channel=0, data=[36, 0]),
   midi.NoteOnEvent(tick=1672000, channel=0, data=[36, 100]),
   midi.NoteOffEvent(tick=1672100, channel=0, data=[36, 0]),
   midi.NoteOnEvent(tick=1672200, channel=0, data=[36, 100]),
   midi.NoteOffEvent(tick=1672300, channel=0, data=[36, 0]),
   midi.NoteOnEvent(tick=1672400, channel=0, data=[36, 100]),
   midi.NoteOffEvent(tick=1672500, channel=0, data=[36, 0]),
   midi.NoteOnEvent(tick=1672600, channel=0, data=[36, 100]),
   midi.NoteOffEvent(tick=1672700, channel=0, data=[36, 0]),
   midi.NoteOnEvent(tick=1672800, channel=0, data=[36, 100]),
   midi.NoteOffEvent(tick=1672900, channel=0, data=[36, 0]),
   midi.NoteOnEvent(tick=1673000, channel=0, data=[22, 100]),
   midi.NoteOffEvent(tick=1673100, channel=0, data=[22, 0]),
   midi.NoteOnEvent(tick=1673200, channel=0, data=[17, 100]),
   midi.NoteOffEvent(tick=1673300, channel=0, data=[17, 0]),
   midi.NoteOnEvent(tick=1673400, channel=0, data=[8, 100]),
   midi.NoteOffEvent(tick=1673500, channel=0, data=[8, 0]),
   midi.NoteOnEvent(tick=1673600, channel=0, data=[19, 100]),
   midi.NoteOffEvent(tick=1673700, channel=0, data=[19, 0]),
   midi.NoteOnEvent(tick=1673800, channel=0, data=[4, 100]),
   midi.NoteOffEvent(tick=1673900, channel=0, data=[4, 0]),
   midi.NoteOnEvent(tick=1674000, channel=0, data=[56, 100]),
   midi.NoteOffEvent(tick=1674100, channel=0, data=[56, 0]),
   midi.NoteOnEvent(tick=1674200, channel=0, data=[36, 100]),
   midi.NoteOffEvent(tick=1674300, channel=0, data=[36, 0]),
   midi.NoteOnEvent(tick=1674400, channel=0, data=[36, 100]),
   midi.NoteOffEvent(tick=1674500, channel=0, data=[36, 0]),
   midi.NoteOnEvent(tick=1674600, channel=0, data=[36, 100]),
   midi.NoteOffEvent(tick=1674700, channel=0, data=[36, 0]),
   midi.NoteOnEvent(tick=1674800, channel=0, data=[36, 100]),
   midi.NoteOffEvent(tick=1674900, channel=0, data=[36, 0]),
   midi.NoteOnEvent(tick=1675000, channel=0, data=[36, 100]),
   midi.NoteOffEvent(tick=1675100, channel=0, data=[36, 0]),
   midi.NoteOnEvent(tick=1675200, channel=0, data=[36, 100]),
   midi.NoteOffEvent(tick=1675300, channel=0, data=[36, 0]),
   midi.NoteOnEvent(tick=1675400, channel=0, data=[36, 100]),
   midi.NoteOffEvent(tick=1675500, channel=0, data=[36, 0]),
   midi.NoteOnEvent(tick=1675600, channel=0, data=[36, 100]),
   midi.NoteOffEvent(tick=1675700, channel=0, data=[36, 0]),
   midi.NoteOnEvent(tick=1675800, channel=0, data=[2, 100]),
   midi.NoteOffEvent(tick=1675900, channel=0, data=[2, 0]),
   midi.NoteOnEvent(tick=1676000, channel=0, data=[36, 100]),
   midi.NoteOffEvent(tick=1676100, channel=0, data=[36, 0]),
   midi.NoteOnEvent(tick=1676200, channel=0, data=[36, 100]),
   midi.NoteOffEvent(tick=1676300, channel=0, data=[36, 0]),
   midi.NoteOnEvent(tick=1676400, channel=0, data=[36, 100]),
   midi.NoteOffEvent(tick=1676500, channel=0, data=[36, 0]),
   midi.NoteOnEvent(tick=1676600, channel=0, data=[36, 100]),
   midi.NoteOffEvent(tick=1676700, channel=0, data=[36, 0]),
   midi.NoteOnEvent(tick=1676800, channel=0, data=[36, 100]),
   midi.NoteOffEvent(tick=1676900, channel=0, data=[36, 0]),
   midi.NoteOnEvent(tick=1677000, channel=0, data=[36, 100]),
   midi.NoteOffEvent(tick=1677100, channel=0, data=[36, 0]),
   midi.NoteOnEvent(tick=1677200, channel=0, data=[36, 100]),
   midi.NoteOffEvent(tick=1677300, channel=0, data=[36, 0]),
   midi.NoteOnEvent(tick=1677400, channel=0, data=[36, 100]),
   midi.NoteOffEvent(tick=1677500, channel=0, data=[36, 0]),
   midi.NoteOnEvent(tick=1677600, channel=0, data=[36, 100]),
   midi.NoteOffEvent(tick=1677700, channel=0, data=[36, 0]),
   midi.NoteOnEvent(tick=1677800, channel=0, data=[36, 100]),
   midi.NoteOffEvent(tick=1677900, channel=0, data=[36, 0]),
   midi.NoteOnEvent(tick=1678000, channel=0, data=[36, 100]),
   midi.NoteOffEvent(tick=1678100, channel=0, data=[36, 0]),
   midi.NoteOnEvent(tick=1678200, channel=0, data=[36, 100]),
   midi.NoteOffEvent(tick=1678300, channel=0, data=[36, 0]),
   midi.NoteOnEvent(tick=1678400, channel=0, data=[36, 100]),
   midi.NoteOffEvent(tick=1678500, channel=0, data=[36, 0]),
   midi.NoteOnEvent(tick=1678600, channel=0, data=[36, 100]),
   midi.NoteOffEvent(tick=1678700, channel=0, data=[36, 0]),
   midi.NoteOnEvent(tick=1678800, channel=0, data=[36, 100]),
   midi.NoteOffEvent(tick=1678900, channel=0, data=[36, 0]),
   midi.NoteOnEvent(tick=1679000, channel=0, data=[36, 100]),
   midi.NoteOffEvent(tick=1679100, channel=0, data=[36, 0]),
   midi.NoteOnEvent(tick=1679200, channel=0, data=[36, 100]),
   midi.NoteOffEvent(tick=1679300, channel=0, data=[36, 0]),
   midi.NoteOnEvent(tick=1679400, channel=0, data=[36, 100]),
   midi.NoteOffEvent(tick=1679500, channel=0, data=[36, 0]),
   midi.NoteOnEvent(tick=1679600, channel=0, data=[36, 100]),
   midi.NoteOffEvent(tick=1679700, channel=0, data=[36, 0]),
   midi.NoteOnEvent(tick=1679800, channel=0, data=[36, 100]),
   midi.NoteOffEvent(tick=1679900, channel=0, data=[36, 0]),
   midi.NoteOnEvent(tick=1680000, channel=0, data=[36, 100]),
   midi.NoteOffEvent(tick=1680100, channel=0, data=[36, 0]),
   midi.NoteOnEvent(tick=1680200, channel=0, data=[36, 100]),
   midi.NoteOffEvent(tick=1680300, channel=0, data=[36, 0]),
   midi.NoteOnEvent(tick=1680400, channel=0, data=[36, 100]),
   midi.NoteOffEvent(tick=1680500, channel=0, data=[36, 0]),
   midi.NoteOnEvent(tick=1680600, channel=0, data=[36, 100]),
   midi.NoteOffEvent(tick=1680700, channel=0, data=[36, 0]),
   midi.NoteOnEvent(tick=1680800, channel=0, data=[36, 100]),
   midi.NoteOffEvent(tick=1680900, channel=0, data=[36, 0]),
   midi.NoteOnEvent(tick=1681000, channel=0, data=[36, 100]),
   midi.NoteOffEvent(tick=1681100, channel=0, data=[36, 0]),
   midi.NoteOnEvent(tick=1681200, channel=0, data=[36, 100]),
   midi.NoteOffEvent(tick=1681300, channel=0, data=[36, 0]),
   midi.NoteOnEvent(tick=1681400, channel=0, data=[36, 100]),
   midi.NoteOffEvent(tick=1681500, channel=0, data=[36, 0]),
   midi.NoteOnEvent(tick=1681600, channel=0, data=[36, 100]),
   midi.NoteOffEvent(tick=1681700, channel=0, data=[36, 0]),
   midi.NoteOnEvent(tick=1681800, channel=0, data=[36, 100]),
   midi.NoteOffEvent(tick=1681900, channel=0, data=[36, 0]),
   midi.NoteOnEvent(tick=1682000, channel=0, data=[29, 100]),
   midi.NoteOffEvent(tick=1682100, channel=0, data=[29, 0]),
   midi.NoteOnEvent(tick=1682200, channel=0, data=[56, 100]),
   midi.NoteOffEvent(tick=1682300, channel=0, data=[56, 0]),
   midi.NoteOnEvent(tick=1682400, channel=0, data=[56, 100]),
   midi.NoteOffEvent(tick=1682500, channel=0, data=[56, 0]),
   midi.NoteOnEvent(tick=1682600, channel=0, data=[56, 100]),
   midi.NoteOffEvent(tick=1682700, channel=0, data=[56, 0]),
   midi.NoteOnEvent(tick=1682800, channel=0, data=[36, 100]),
   midi.NoteOffEvent(tick=1682900, channel=0, data=[36, 0]),
   midi.NoteOnEvent(tick=1683000, channel=0, data=[36, 100]),
   midi.NoteOffEvent(tick=1683100, channel=0, data=[36, 0]),
   midi.NoteOnEvent(tick=1683200, channel=0, data=[36, 100]),
   midi.NoteOffEvent(tick=1683300, channel=0, data=[36, 0]),
   midi.NoteOnEvent(tick=1683400, channel=0, data=[36, 100]),
   midi.NoteOffEvent(tick=1683500, channel=0, data=[36, 0]),
   midi.NoteOnEvent(tick=1683600, channel=0, data=[19, 100]),
   midi.NoteOffEvent(tick=1683700, channel=0, data=[19, 0]),
   midi.NoteOnEvent(tick=1683800, channel=0, data=[7, 100]),
   midi.NoteOffEvent(tick=1683900, channel=0, data=[7, 0]),
   midi.NoteOnEvent(tick=1684000, channel=0, data=[4, 100]),
   midi.NoteOffEvent(tick=1684100, channel=0, data=[4, 0]),
   midi.NoteOnEvent(tick=1684200, channel=0, data=[36, 100]),
   midi.NoteOffEvent(tick=1684300, channel=0, data=[36, 0]),
   midi.NoteOnEvent(tick=1684400, channel=0, data=[5, 100]),
   midi.NoteOffEvent(tick=1684500, channel=0, data=[5, 0]),
   midi.NoteOnEvent(tick=1684600, channel=0, data=[14, 100]),
   midi.NoteOffEvent(tick=1684700, channel=0, data=[14, 0]),
   midi.NoteOnEvent(tick=1684800, channel=0, data=[11, 100]),
   midi.NoteOffEvent(tick=1684900, channel=0, data=[11, 0]),
   midi.NoteOnEvent(tick=1685000, channel=0, data=[11, 100]),
   midi.NoteOffEvent(tick=1685100, channel=0, data=[11, 0]),
   midi.NoteOnEvent(tick=1685200, channel=0, data=[14, 100]),
   midi.NoteOffEvent(tick=1685300, channel=0, data=[14, 0]),
   midi.NoteOnEvent(tick=1685400, channel=0, data=[22, 100]),
   midi.NoteOffEvent(tick=1685500, channel=0, data=[22, 0]),
   midi.NoteOnEvent(tick=1685600, channel=0, data=[8, 100]),
   midi.NoteOffEvent(tick=1685700, channel=0, data=[8, 0]),
   midi.NoteOnEvent(tick=1685800, channel=0, data=[13, 100]),
   midi.NoteOffEvent(tick=1685900, channel=0, data=[13, 0]),
   midi.NoteOnEvent(tick=1686000, channel=0, data=[6, 100]),
   midi.NoteOffEvent(tick=1686100, channel=0, data=[6, 0]),
   midi.NoteOnEvent(tick=1686200, channel=0, data=[36, 100]),
   midi.NoteOffEvent(tick=1686300, channel=0, data=[36, 0]),
   midi.NoteOnEvent(tick=1686400, channel=0, data=[2, 100]),
   midi.NoteOffEvent(tick=1686500, channel=0, data=[2, 0]),
   midi.NoteOnEvent(tick=1686600, channel=0, data=[14, 100]),
   midi.NoteOffEvent(tick=1686700, channel=0, data=[14, 0]),
   midi.NoteOnEvent(tick=1686800, channel=0, data=[12, 100]),
   midi.NoteOffEvent(tick=1686900, channel=0, data=[12, 0]),
   midi.NoteOnEvent(tick=1687000, channel=0, data=[12, 100]),
   midi.NoteOffEvent(tick=1687100, channel=0, data=[12, 0]),
   midi.NoteOnEvent(tick=1687200, channel=0, data=[0, 100]),
   midi.NoteOffEvent(tick=1687300, channel=0, data=[0, 0]),
   midi.NoteOnEvent(tick=1687400, channel=0, data=[13, 100]),
   midi.NoteOffEvent(tick=1687500, channel=0, data=[13, 0]),
   midi.NoteOnEvent(tick=1687600, channel=0, data=[3, 100]),
   midi.NoteOffEvent(tick=1687700, channel=0, data=[3, 0]),
   midi.NoteOnEvent(tick=1687800, channel=0, data=[36, 100]),
   midi.NoteOffEvent(tick=1687900, channel=0, data=[36, 0]),
   midi.NoteOnEvent(tick=1688000, channel=0, data=[0, 100]),
   midi.NoteOffEvent(tick=1688100, channel=0, data=[0, 0]),
   midi.NoteOnEvent(tick=1688200, channel=0, data=[19, 100]),
   midi.NoteOffEvent(tick=1688300, channel=0, data=[19, 0]),
   midi.NoteOnEvent(tick=1688400, channel=0, data=[19, 100]),
   midi.NoteOffEvent(tick=1688500, channel=0, data=[19, 0]),
   midi.NoteOnEvent(tick=1688600, channel=0, data=[4, 100]),
   midi.NoteOffEvent(tick=1688700, channel=0, data=[4, 0]),
   midi.NoteOnEvent(tick=1688800, channel=0, data=[12, 100]),
   midi.NoteOffEvent(tick=1688900, channel=0, data=[12, 0]),
   midi.NoteOnEvent(tick=1689000, channel=0, data=[15, 100]),
   midi.NoteOffEvent(tick=1689100, channel=0, data=[15, 0]),
   midi.NoteOnEvent(tick=1689200, channel=0, data=[19, 100]),
   midi.NoteOffEvent(tick=1689300, channel=0, data=[19, 0]),
   midi.NoteOnEvent(tick=1689400, channel=0, data=[18, 100]),
   midi.NoteOffEvent(tick=1689500, channel=0, data=[18, 0]),
   midi.NoteOnEvent(tick=1689600, channel=0, data=[36, 100]),
   midi.NoteOffEvent(tick=1689700, channel=0, data=[36, 0]),
   midi.NoteOnEvent(tick=1689800, channel=0, data=[19, 100]),
   midi.NoteOffEvent(tick=1689900, channel=0, data=[19, 0]),
   midi.NoteOnEvent(tick=1690000, channel=0, data=[14, 100]),
   midi.NoteOffEvent(tick=1690100, channel=0, data=[14, 0]),
   midi.NoteOnEvent(tick=1690200, channel=0, data=[36, 100]),
   midi.NoteOffEvent(tick=1690300, channel=0, data=[36, 0]),
   midi.NoteOnEvent(tick=1690400, channel=0, data=[0, 100]),
   midi.NoteOffEvent(tick=1690500, channel=0, data=[0, 0]),
   midi.NoteOnEvent(tick=1690600, channel=0, data=[15, 100]),
   midi.NoteOffEvent(tick=1690700, channel=0, data=[15, 0]),
   midi.NoteOnEvent(tick=1690800, channel=0, data=[15, 100]),
   midi.NoteOffEvent(tick=1690900, channel=0, data=[15, 0]),
   midi.NoteOnEvent(tick=1691000, channel=0, data=[4, 100]),
   midi.NoteOffEvent(tick=1691100, channel=0, data=[4, 0]),
   midi.NoteOnEvent(tick=1691200, channel=0, data=[13, 100]),
   midi.NoteOffEvent(tick=1691300, channel=0, data=[13, 0]),
   midi.NoteOnEvent(tick=1691400, channel=0, data=[3, 100]),
   midi.NoteOffEvent(tick=1691500, channel=0, data=[3, 0]),
   midi.NoteOnEvent(tick=1691600, channel=0, data=[36, 100]),
   midi.NoteOffEvent(tick=1691700, channel=0, data=[36, 0]),
   midi.NoteOnEvent(tick=1691800, channel=0, data=[0, 100]),
   midi.NoteOffEvent(tick=1691900, channel=0, data=[0, 0]),
   midi.NoteOnEvent(tick=1692000, channel=0, data=[13, 100]),
   midi.NoteOffEvent(tick=1692100, channel=0, data=[13, 0]),
   midi.NoteOnEvent(tick=1692200, channel=0, data=[36, 100]),
   midi.NoteOffEvent(tick=1692300, channel=0, data=[36, 0]),
   midi.NoteOnEvent(tick=1692400, channel=0, data=[8, 100]),
   midi.NoteOffEvent(tick=1692500, channel=0, data=[8, 0]),
   midi.NoteOnEvent(tick=1692600, channel=0, data=[13, 100]),
   midi.NoteOffEvent(tick=1692700, channel=0, data=[13, 0]),
   midi.NoteOnEvent(tick=1692800, channel=0, data=[19, 100]),
   midi.NoteOffEvent(tick=1692900, channel=0, data=[19, 0]),
   midi.NoteOnEvent(tick=1693000, channel=0, data=[4, 100]),
   midi.NoteOffEvent(tick=1693100, channel=0, data=[4, 0]),
   midi.NoteOnEvent(tick=1693200, channel=0, data=[6, 100]),
   midi.NoteOffEvent(tick=1693300, channel=0, data=[6, 0]),
   midi.NoteOnEvent(tick=1693400, channel=0, data=[4, 100]),
   midi.NoteOffEvent(tick=1693500, channel=0, data=[4, 0]),
   midi.NoteOnEvent(tick=1693600, channel=0, data=[17, 100]),
   midi.NoteOffEvent(tick=1693700, channel=0, data=[17, 0]),
   midi.NoteOnEvent(tick=1693800, channel=0, data=[36, 100]),
   midi.NoteOffEvent(tick=1693900, channel=0, data=[36, 0]),
   midi.NoteOnEvent(tick=1694000, channel=0, data=[49, 100]),
   midi.NoteOffEvent(tick=1694100, channel=0, data=[49, 0]),
   midi.NoteOnEvent(tick=1694200, channel=0, data=[27, 100]),
   midi.NoteOffEvent(tick=1694300, channel=0, data=[27, 0]),
   midi.NoteOnEvent(tick=1694400, channel=0, data=[50, 100]),
   midi.NoteOffEvent(tick=1694500, channel=0, data=[50, 0]),
   midi.NoteOnEvent(tick=1694600, channel=0, data=[36, 100]),
   midi.NoteOffEvent(tick=1694700, channel=0, data=[36, 0]),
   midi.NoteOnEvent(tick=1694800, channel=0, data=[19, 100]),
   midi.NoteOffEvent(tick=1694900, channel=0, data=[19, 0]),
   midi.NoteOnEvent(tick=1695000, channel=0, data=[14, 100]),
   midi.NoteOffEvent(tick=1695100, channel=0, data=[14, 0]),
   midi.NoteOnEvent(tick=1695200, channel=0, data=[36, 100]),
   midi.NoteOffEvent(tick=1695300, channel=0, data=[36, 0]),
   midi.NoteOnEvent(tick=1695400, channel=0, data=[19, 100]),
   midi.NoteOffEvent(tick=1695500, channel=0, data=[19, 0]),
   midi.NoteOnEvent(tick=1695600, channel=0, data=[7, 100]),
   midi.NoteOffEvent(tick=1695700, channel=0, data=[7, 0]),
   midi.NoteOnEvent(tick=1695800, channel=0, data=[4, 100]),
   midi.NoteOffEvent(tick=1695900, channel=0, data=[4, 0]),
   midi.NoteOnEvent(tick=1696000, channel=0, data=[36, 100]),
   midi.NoteOffEvent(tick=1696100, channel=0, data=[36, 0]),
   midi.NoteOnEvent(tick=1696200, channel=0, data=[7, 100]),
   midi.NoteOffEvent(tick=1696300, channel=0, data=[7, 0]),
   midi.NoteOnEvent(tick=1696400, channel=0, data=[0, 100]),
   midi.NoteOffEvent(tick=1696500, channel=0, data=[0, 0]),
   midi.NoteOnEvent(tick=1696600, channel=0, data=[18, 100]),
   midi.NoteOffEvent(tick=1696700, channel=0, data=[18, 0]),
   midi.NoteOnEvent(tick=1696800, channel=0, data=[7, 100]),
   midi.NoteOffEvent(tick=1696900, channel=0, data=[7, 0]),
   midi.NoteOnEvent(tick=1697000, channel=0, data=[36, 100]),
   midi.NoteOffEvent(tick=1697100, channel=0, data=[36, 0]),
   midi.NoteOnEvent(tick=1697200, channel=0, data=[19, 100]),
   midi.NoteOffEvent(tick=1697300, channel=0, data=[19, 0]),
   midi.NoteOnEvent(tick=1697400, channel=0, data=[0, 100]),
   midi.NoteOffEvent(tick=1697500, channel=0, data=[0, 0]),
   midi.NoteOnEvent(tick=1697600, channel=0, data=[1, 100]),
   midi.NoteOffEvent(tick=1697700, channel=0, data=[1, 0]),
   midi.NoteOnEvent(tick=1697800, channel=0, data=[11, 100]),
   midi.NoteOffEvent(tick=1697900, channel=0, data=[11, 0]),
   midi.NoteOnEvent(tick=1698000, channel=0, data=[4, 100]),
   midi.NoteOffEvent(tick=1698100, channel=0, data=[4, 0]),
   midi.NoteOnEvent(tick=1698200, channel=0, data=[56, 100]),
   midi.NoteOffEvent(tick=1698300, channel=0, data=[56, 0]),
   midi.NoteOnEvent(tick=1698400, channel=0, data=[36, 100]),
   midi.NoteOffEvent(tick=1698500, channel=0, data=[36, 0]),
   midi.NoteOnEvent(tick=1698600, channel=0, data=[36, 100]),
   midi.NoteOffEvent(tick=1698700, channel=0, data=[36, 0]),
   midi.NoteOnEvent(tick=1698800, channel=0, data=[36, 100]),
   midi.NoteOffEvent(tick=1698900, channel=0, data=[36, 0]),
   midi.NoteOnEvent(tick=1699000, channel=0, data=[36, 100]),
   midi.NoteOffEvent(tick=1699100, channel=0, data=[36, 0]),
   midi.NoteOnEvent(tick=1699200, channel=0, data=[8, 100]),
   midi.NoteOffEvent(tick=1699300, channel=0, data=[8, 0]),
   midi.NoteOnEvent(tick=1699400, channel=0, data=[13, 100]),
   midi.NoteOffEvent(tick=1699500, channel=0, data=[13, 0]),
   midi.NoteOnEvent(tick=1699600, channel=0, data=[36, 100]),
   midi.NoteOffEvent(tick=1699700, channel=0, data=[36, 0]),
   midi.NoteOnEvent(tick=1699800, channel=0, data=[19, 100]),
   midi.NoteOffEvent(tick=1699900, channel=0, data=[19, 0]),
   midi.NoteOnEvent(tick=1700000, channel=0, data=[7, 100]),
   midi.NoteOffEvent(tick=1700100, channel=0, data=[7, 0]),
   midi.NoteOnEvent(tick=1700200, channel=0, data=[4, 100]),
   midi.NoteOffEvent(tick=1700300, channel=0, data=[4, 0]),
   midi.NoteOnEvent(tick=1700400, channel=0, data=[36, 100]),
   midi.NoteOffEvent(tick=1700500, channel=0, data=[36, 0]),
   midi.NoteOnEvent(tick=1700600, channel=0, data=[74, 100]),
   midi.NoteOffEvent(tick=1700700, channel=0, data=[74, 0]),
   midi.NoteOnEvent(tick=1700800, channel=0, data=[0, 100]),
   midi.NoteOffEvent(tick=1700900, channel=0, data=[0, 0]),
   midi.NoteOnEvent(tick=1701000, channel=0, data=[36, 100]),
   midi.NoteOffEvent(tick=1701100, channel=0, data=[36, 0]),
   midi.NoteOnEvent(tick=1701200, channel=0, data=[21, 100]),
   midi.NoteOffEvent(tick=1701300, channel=0, data=[21, 0]),
   midi.NoteOnEvent(tick=1701400, channel=0, data=[0, 100]),
   midi.NoteOffEvent(tick=1701500, channel=0, data=[0, 0]),
   midi.NoteOnEvent(tick=1701600, channel=0, data=[17, 100]),
   midi.NoteOffEvent(tick=1701700, channel=0, data=[17, 0]),
   midi.NoteOnEvent(tick=1701800, channel=0, data=[8, 100]),
   midi.NoteOffEvent(tick=1701900, channel=0, data=[8, 0]),
   midi.NoteOnEvent(tick=1702000, channel=0, data=[0, 100]),
   midi.NoteOffEvent(tick=1702100, channel=0, data=[0, 0]),
   midi.NoteOnEvent(tick=1702200, channel=0, data=[1, 100]),
   midi.NoteOffEvent(tick=1702300, channel=0, data=[1, 0]),
   midi.NoteOnEvent(tick=1702400, channel=0, data=[11, 100]),
   midi.NoteOffEvent(tick=1702500, channel=0, data=[11, 0]),
   midi.NoteOnEvent(tick=1702600, channel=0, data=[4, 100]),
   midi.NoteOffEvent(tick=1702700, channel=0, data=[4, 0]),
   midi.NoteOnEvent(tick=1702800, channel=0, data=[37, 100]),
   midi.NoteOffEvent(tick=1702900, channel=0, data=[37, 0]),
   midi.NoteOnEvent(tick=1703000, channel=0, data=[36, 100]),
   midi.NoteOffEvent(tick=1703100, channel=0, data=[36, 0]),
   midi.NoteOnEvent(tick=1703200, channel=0, data=[19, 100]),
   midi.NoteOffEvent(tick=1703300, channel=0, data=[19, 0]),
   midi.NoteOnEvent(tick=1703400, channel=0, data=[7, 100]),
   midi.NoteOffEvent(tick=1703500, channel=0, data=[7, 0]),
   midi.NoteOnEvent(tick=1703600, channel=0, data=[8, 100]),
   midi.NoteOffEvent(tick=1703700, channel=0, data=[8, 0]),
   midi.NoteOnEvent(tick=1703800, channel=0, data=[18, 100]),
   midi.NoteOffEvent(tick=1703900, channel=0, data=[18, 0]),
   midi.NoteOnEvent(tick=1704000, channel=0, data=[36, 100]),
   midi.NoteOffEvent(tick=1704100, channel=0, data=[36, 0]),
   midi.NoteOnEvent(tick=1704200, channel=0, data=[2, 100]),
   midi.NoteOffEvent(tick=1704300, channel=0, data=[2, 0]),
   midi.NoteOnEvent(tick=1704400, channel=0, data=[14, 100]),
   midi.NoteOffEvent(tick=1704500, channel=0, data=[14, 0]),
   midi.NoteOnEvent(tick=1704600, channel=0, data=[12, 100]),
   midi.NoteOffEvent(tick=1704700, channel=0, data=[12, 0]),
   midi.NoteOnEvent(tick=1704800, channel=0, data=[12, 100]),
   midi.NoteOffEvent(tick=1704900, channel=0, data=[12, 0]),
   midi.NoteOnEvent(tick=1705000, channel=0, data=[0, 100]),
   midi.NoteOffEvent(tick=1705100, channel=0, data=[0, 0]),
   midi.NoteOnEvent(tick=1705200, channel=0, data=[13, 100]),
   midi.NoteOffEvent(tick=1705300, channel=0, data=[13, 0]),
   midi.NoteOnEvent(tick=1705400, channel=0, data=[3, 100]),
   midi.NoteOffEvent(tick=1705500, channel=0, data=[3, 0]),
   midi.NoteOnEvent(tick=1705600, channel=0, data=[36, 100]),
   midi.NoteOffEvent(tick=1705700, channel=0, data=[36, 0]),
   midi.NoteOnEvent(tick=1705800, channel=0, data=[5, 100]),
   midi.NoteOffEvent(tick=1705900, channel=0, data=[5, 0]),
   midi.NoteOnEvent(tick=1706000, channel=0, data=[0, 100]),
   midi.NoteOffEvent(tick=1706100, channel=0, data=[0, 0]),
   midi.NoteOnEvent(tick=1706200, channel=0, data=[8, 100]),
   midi.NoteOffEvent(tick=1706300, channel=0, data=[8, 0]),
   midi.NoteOnEvent(tick=1706400, channel=0, data=[11, 100]),
   midi.NoteOffEvent(tick=1706500, channel=0, data=[11, 0]),
   midi.NoteOnEvent(tick=1706600, channel=0, data=[18, 100]),
   midi.NoteOffEvent(tick=1706700, channel=0, data=[18, 0]),
   midi.NoteOnEvent(tick=1706800, channel=0, data=[46, 100]),
   midi.NoteOffEvent(tick=1706900, channel=0, data=[46, 0]),
   midi.NoteOnEvent(tick=1707000, channel=0, data=[56, 100]),
   midi.NoteOffEvent(tick=1707100, channel=0, data=[56, 0]),
   midi.NoteOnEvent(tick=1707200, channel=0, data=[56, 100]),
   midi.NoteOffEvent(tick=1707300, channel=0, data=[56, 0]),
   midi.NoteOnEvent(tick=1707400, channel=0, data=[56, 100]),
   midi.NoteOffEvent(tick=1707500, channel=0, data=[56, 0]),
   midi.NoteOnEvent(tick=1707600, channel=0, data=[36, 100]),
   midi.NoteOffEvent(tick=1707700, channel=0, data=[36, 0]),
   midi.NoteOnEvent(tick=1707800, channel=0, data=[36, 100]),
   midi.NoteOffEvent(tick=1707900, channel=0, data=[36, 0]),
   midi.NoteOnEvent(tick=1708000, channel=0, data=[36, 100]),
   midi.NoteOffEvent(tick=1708100, channel=0, data=[36, 0]),
   midi.NoteOnEvent(tick=1708200, channel=0, data=[36, 100]),
   midi.NoteOffEvent(tick=1708300, channel=0, data=[36, 0]),
   midi.NoteOnEvent(tick=1708400, channel=0, data=[36, 100]),
   midi.NoteOffEvent(tick=1708500, channel=0, data=[36, 0]),
   midi.NoteOnEvent(tick=1708600, channel=0, data=[36, 100]),
   midi.NoteOffEvent(tick=1708700, channel=0, data=[36, 0]),
   midi.NoteOnEvent(tick=1708800, channel=0, data=[36, 100]),
   midi.NoteOffEvent(tick=1708900, channel=0, data=[36, 0]),
   midi.NoteOnEvent(tick=1709000, channel=0, data=[36, 100]),
   midi.NoteOffEvent(tick=1709100, channel=0, data=[36, 0]),
   midi.NoteOnEvent(tick=1709200, channel=0, data=[2, 100]),
   midi.NoteOffEvent(tick=1709300, channel=0, data=[2, 0]),
   midi.NoteOnEvent(tick=1709400, channel=0, data=[46, 100]),
   midi.NoteOffEvent(tick=1709500, channel=0, data=[46, 0]),
   midi.NoteOnEvent(tick=1709600, channel=0, data=[78, 100]),
   midi.NoteOffEvent(tick=1709700, channel=0, data=[78, 0]),
   midi.NoteOnEvent(tick=1709800, channel=0, data=[15, 100]),
   midi.NoteOffEvent(tick=1709900, channel=0, data=[15, 0]),
   midi.NoteOnEvent(tick=1710000, channel=0, data=[18, 100]),
   midi.NoteOffEvent(tick=1710100, channel=0, data=[18, 0]),
   midi.NoteOnEvent(tick=1710200, channel=0, data=[73, 100]),
   midi.NoteOffEvent(tick=1710300, channel=0, data=[73, 0]),
   midi.NoteOnEvent(tick=1710400, channel=0, data=[36, 100]),
   midi.NoteOffEvent(tick=1710500, channel=0, data=[36, 0]),
   midi.NoteOnEvent(tick=1710600, channel=0, data=[74, 100]),
   midi.NoteOffEvent(tick=1710700, channel=0, data=[74, 0]),
   midi.NoteOnEvent(tick=1710800, channel=0, data=[0, 100]),
   midi.NoteOffEvent(tick=1710900, channel=0, data=[0, 0]),
   midi.NoteOnEvent(tick=1711000, channel=0, data=[36, 100]),
   midi.NoteOffEvent(tick=1711100, channel=0, data=[36, 0]),
   midi.NoteOnEvent(tick=1711200, channel=0, data=[69, 100]),
   midi.NoteOffEvent(tick=1711300, channel=0, data=[69, 0]),
   midi.NoteOnEvent(tick=1711400, channel=0, data=[36, 100]),
   midi.NoteOffEvent(tick=1711500, channel=0, data=[36, 0]),
   midi.NoteOnEvent(tick=1711600, channel=0, data=[77, 100]),
   midi.NoteOffEvent(tick=1711700, channel=0, data=[77, 0]),
   midi.NoteOnEvent(tick=1711800, channel=0, data=[53, 100]),
   midi.NoteOffEvent(tick=1711900, channel=0, data=[53, 0]),
   midi.NoteOnEvent(tick=1712000, channel=0, data=[0, 100]),
   midi.NoteOffEvent(tick=1712100, channel=0, data=[0, 0]),
   midi.NoteOnEvent(tick=1712200, channel=0, data=[36, 100]),
   midi.NoteOffEvent(tick=1712300, channel=0, data=[36, 0]),
   midi.NoteOnEvent(tick=1712400, channel=0, data=[69, 100]),
   midi.NoteOffEvent(tick=1712500, channel=0, data=[69, 0]),
   midi.NoteOnEvent(tick=1712600, channel=0, data=[36, 100]),
   midi.NoteOffEvent(tick=1712700, channel=0, data=[36, 0]),
   midi.NoteOnEvent(tick=1712800, channel=0, data=[27, 100]),
   midi.NoteOffEvent(tick=1712900, channel=0, data=[27, 0]),
   midi.NoteOnEvent(tick=1713000, channel=0, data=[47, 100]),
   midi.NoteOffEvent(tick=1713100, channel=0, data=[47, 0]),
   midi.NoteOnEvent(tick=1713200, channel=0, data=[36, 100]),
   midi.NoteOffEvent(tick=1713300, channel=0, data=[36, 0]),
   midi.NoteOnEvent(tick=1713400, channel=0, data=[1, 100]),
   midi.NoteOffEvent(tick=1713500, channel=0, data=[1, 0]),
   midi.NoteOnEvent(tick=1713600, channel=0, data=[36, 100]),
   midi.NoteOffEvent(tick=1713700, channel=0, data=[36, 0]),
   midi.NoteOnEvent(tick=1713800, channel=0, data=[69, 100]),
   midi.NoteOffEvent(tick=1713900, channel=0, data=[69, 0]),
   midi.NoteOnEvent(tick=1714000, channel=0, data=[36, 100]),
   midi.NoteOffEvent(tick=1714100, channel=0, data=[36, 0]),
   midi.NoteOnEvent(tick=1714200, channel=0, data=[28, 100]),
   midi.NoteOffEvent(tick=1714300, channel=0, data=[28, 0]),
   midi.NoteOnEvent(tick=1714400, channel=0, data=[47, 100]),
   midi.NoteOffEvent(tick=1714500, channel=0, data=[47, 0]),
   midi.NoteOnEvent(tick=1714600, channel=0, data=[36, 100]),
   midi.NoteOffEvent(tick=1714700, channel=0, data=[36, 0]),
   midi.NoteOnEvent(tick=1714800, channel=0, data=[2, 100]),
   midi.NoteOffEvent(tick=1714900, channel=0, data=[2, 0]),
   midi.NoteOnEvent(tick=1715000, channel=0, data=[36, 100]),
   midi.NoteOffEvent(tick=1715100, channel=0, data=[36, 0]),
   midi.NoteOnEvent(tick=1715200, channel=0, data=[69, 100]),
   midi.NoteOffEvent(tick=1715300, channel=0, data=[69, 0]),
   midi.NoteOnEvent(tick=1715400, channel=0, data=[36, 100]),
   midi.NoteOffEvent(tick=1715500, channel=0, data=[36, 0]),
   midi.NoteOnEvent(tick=1715600, channel=0, data=[29, 100]),
   midi.NoteOffEvent(tick=1715700, channel=0, data=[29, 0]),
   midi.NoteOnEvent(tick=1715800, channel=0, data=[54, 100]),
   midi.NoteOffEvent(tick=1715900, channel=0, data=[54, 0]),
   midi.NoteOnEvent(tick=1716000, channel=0, data=[56, 100]),
   midi.NoteOffEvent(tick=1716100, channel=0, data=[56, 0]),
   midi.NoteOnEvent(tick=1716200, channel=0, data=[36, 100]),
   midi.NoteOffEvent(tick=1716300, channel=0, data=[36, 0]),
   midi.NoteOnEvent(tick=1716400, channel=0, data=[36, 100]),
   midi.NoteOffEvent(tick=1716500, channel=0, data=[36, 0]),
   midi.NoteOnEvent(tick=1716600, channel=0, data=[36, 100]),
   midi.NoteOffEvent(tick=1716700, channel=0, data=[36, 0]),
   midi.NoteOnEvent(tick=1716800, channel=0, data=[36, 100]),
   midi.NoteOffEvent(tick=1716900, channel=0, data=[36, 0]),
   midi.NoteOnEvent(tick=1717000, channel=0, data=[36, 100]),
   midi.NoteOffEvent(tick=1717100, channel=0, data=[36, 0]),
   midi.NoteOnEvent(tick=1717200, channel=0, data=[36, 100]),
   midi.NoteOffEvent(tick=1717300, channel=0, data=[36, 0]),
   midi.NoteOnEvent(tick=1717400, channel=0, data=[36, 100]),
   midi.NoteOffEvent(tick=1717500, channel=0, data=[36, 0]),
   midi.NoteOnEvent(tick=1717600, channel=0, data=[36, 100]),
   midi.NoteOffEvent(tick=1717700, channel=0, data=[36, 0]),
   midi.NoteOnEvent(tick=1717800, channel=0, data=[2, 100]),
   midi.NoteOffEvent(tick=1717900, channel=0, data=[2, 0]),
   midi.NoteOnEvent(tick=1718000, channel=0, data=[46, 100]),
   midi.NoteOffEvent(tick=1718100, channel=0, data=[46, 0]),
   midi.NoteOnEvent(tick=1718200, channel=0, data=[78, 100]),
   midi.NoteOffEvent(tick=1718300, channel=0, data=[78, 0]),
   midi.NoteOnEvent(tick=1718400, channel=0, data=[15, 100]),
   midi.NoteOffEvent(tick=1718500, channel=0, data=[15, 0]),
   midi.NoteOnEvent(tick=1718600, channel=0, data=[18, 100]),
   midi.NoteOffEvent(tick=1718700, channel=0, data=[18, 0]),
   midi.NoteOnEvent(tick=1718800, channel=0, data=[73, 100]),
   midi.NoteOffEvent(tick=1718900, channel=0, data=[73, 0]),
   midi.NoteOnEvent(tick=1719000, channel=0, data=[36, 100]),
   midi.NoteOffEvent(tick=1719100, channel=0, data=[36, 0]),
   midi.NoteOnEvent(tick=1719200, channel=0, data=[74, 100]),
   midi.NoteOffEvent(tick=1719300, channel=0, data=[74, 0]),
   midi.NoteOnEvent(tick=1719400, channel=0, data=[0, 100]),
   midi.NoteOffEvent(tick=1719500, channel=0, data=[0, 0]),
   midi.NoteOnEvent(tick=1719600, channel=0, data=[36, 100]),
   midi.NoteOffEvent(tick=1719700, channel=0, data=[36, 0]),
   midi.NoteOnEvent(tick=1719800, channel=0, data=[55, 100]),
   midi.NoteOffEvent(tick=1719900, channel=0, data=[55, 0]),
   midi.NoteOnEvent(tick=1720000, channel=0, data=[69, 100]),
   midi.NoteOffEvent(tick=1720100, channel=0, data=[69, 0]),
   midi.NoteOnEvent(tick=1720200, channel=0, data=[36, 100]),
   midi.NoteOffEvent(tick=1720300, channel=0, data=[36, 0]),
   midi.NoteOnEvent(tick=1720400, channel=0, data=[27, 100]),
   midi.NoteOffEvent(tick=1720500, channel=0, data=[27, 0]),
   midi.NoteOnEvent(tick=1720600, channel=0, data=[56, 100]),
   midi.NoteOffEvent(tick=1720700, channel=0, data=[56, 0]),
   midi.NoteOnEvent(tick=1720800, channel=0, data=[36, 100]),
   midi.NoteOffEvent(tick=1720900, channel=0, data=[36, 0]),
   midi.NoteOnEvent(tick=1721000, channel=0, data=[36, 100]),
   midi.NoteOffEvent(tick=1721100, channel=0, data=[36, 0]),
   midi.NoteOnEvent(tick=1721200, channel=0, data=[36, 100]),
   midi.NoteOffEvent(tick=1721300, channel=0, data=[36, 0]),
   midi.NoteOnEvent(tick=1721400, channel=0, data=[36, 100]),
   midi.NoteOffEvent(tick=1721500, channel=0, data=[36, 0]),
   midi.NoteOnEvent(tick=1721600, channel=0, data=[36, 100]),
   midi.NoteOffEvent(tick=1721700, channel=0, data=[36, 0]),
   midi.NoteOnEvent(tick=1721800, channel=0, data=[36, 100]),
   midi.NoteOffEvent(tick=1721900, channel=0, data=[36, 0]),
   midi.NoteOnEvent(tick=1722000, channel=0, data=[36, 100]),
   midi.NoteOffEvent(tick=1722100, channel=0, data=[36, 0]),
   midi.NoteOnEvent(tick=1722200, channel=0, data=[36, 100]),
   midi.NoteOffEvent(tick=1722300, channel=0, data=[36, 0]),
   midi.NoteOnEvent(tick=1722400, channel=0, data=[24, 100]),
   midi.NoteOffEvent(tick=1722500, channel=0, data=[24, 0]),
   midi.NoteOnEvent(tick=1722600, channel=0, data=[14, 100]),
   midi.NoteOffEvent(tick=1722700, channel=0, data=[14, 0]),
   midi.NoteOnEvent(tick=1722800, channel=0, data=[20, 100]),
   midi.NoteOffEvent(tick=1722900, channel=0, data=[20, 0]),
   midi.NoteOnEvent(tick=1723000, channel=0, data=[36, 100]),
   midi.NoteOffEvent(tick=1723100, channel=0, data=[36, 0]),
   midi.NoteOnEvent(tick=1723200, channel=0, data=[2, 100]),
   midi.NoteOffEvent(tick=1723300, channel=0, data=[2, 0]),
   midi.NoteOnEvent(tick=1723400, channel=0, data=[0, 100]),
   midi.NoteOffEvent(tick=1723500, channel=0, data=[0, 0]),
   midi.NoteOnEvent(tick=1723600, channel=0, data=[13, 100]),
   midi.NoteOffEvent(tick=1723700, channel=0, data=[13, 0]),
   midi.NoteOnEvent(tick=1723800, channel=0, data=[36, 100]),
   midi.NoteOffEvent(tick=1723900, channel=0, data=[36, 0]),
   midi.NoteOnEvent(tick=1724000, channel=0, data=[0, 100]),
   midi.NoteOffEvent(tick=1724100, channel=0, data=[0, 0]),
   midi.NoteOnEvent(tick=1724200, channel=0, data=[3, 100]),
   midi.NoteOffEvent(tick=1724300, channel=0, data=[3, 0]),
   midi.NoteOnEvent(tick=1724400, channel=0, data=[3, 100]),
   midi.NoteOffEvent(tick=1724500, channel=0, data=[3, 0]),
   midi.NoteOnEvent(tick=1724600, channel=0, data=[36, 100]),
   midi.NoteOffEvent(tick=1724700, channel=0, data=[36, 0]),
   midi.NoteOnEvent(tick=1724800, channel=0, data=[0, 100]),
   midi.NoteOffEvent(tick=1724900, channel=0, data=[0, 0]),
   midi.NoteOnEvent(tick=1725000, channel=0, data=[13, 100]),
   midi.NoteOffEvent(tick=1725100, channel=0, data=[13, 0]),
   midi.NoteOnEvent(tick=1725200, channel=0, data=[14, 100]),
   midi.NoteOffEvent(tick=1725300, channel=0, data=[14, 0]),
   midi.NoteOnEvent(tick=1725400, channel=0, data=[19, 100]),
   midi.NoteOffEvent(tick=1725500, channel=0, data=[19, 0]),
   midi.NoteOnEvent(tick=1725600, channel=0, data=[7, 100]),
   midi.NoteOffEvent(tick=1725700, channel=0, data=[7, 0]),
   midi.NoteOnEvent(tick=1725800, channel=0, data=[4, 100]),
   midi.NoteOffEvent(tick=1725900, channel=0, data=[4, 0]),
   midi.NoteOnEvent(tick=1726000, channel=0, data=[17, 100]),
   midi.NoteOffEvent(tick=1726100, channel=0, data=[17, 0]),
   midi.NoteOnEvent(tick=1726200, channel=0, data=[36, 100]),
   midi.NoteOffEvent(tick=1726300, channel=0, data=[36, 0]),
   midi.NoteOnEvent(tick=1726400, channel=0, data=[7, 100]),
   midi.NoteOffEvent(tick=1726500, channel=0, data=[7, 0]),
   midi.NoteOnEvent(tick=1726600, channel=0, data=[0, 100]),
   midi.NoteOffEvent(tick=1726700, channel=0, data=[0, 0]),
   midi.NoteOnEvent(tick=1726800, channel=0, data=[18, 100]),
   midi.NoteOffEvent(tick=1726900, channel=0, data=[18, 0]),
   midi.NoteOnEvent(tick=1727000, channel=0, data=[7, 100]),
   midi.NoteOffEvent(tick=1727100, channel=0, data=[7, 0]),
   midi.NoteOnEvent(tick=1727200, channel=0, data=[36, 100]),
   midi.NoteOffEvent(tick=1727300, channel=0, data=[36, 0]),
   midi.NoteOnEvent(tick=1727400, channel=0, data=[19, 100]),
   midi.NoteOffEvent(tick=1727500, channel=0, data=[19, 0]),
   midi.NoteOnEvent(tick=1727600, channel=0, data=[0, 100]),
   midi.NoteOffEvent(tick=1727700, channel=0, data=[0, 0]),
   midi.NoteOnEvent(tick=1727800, channel=0, data=[1, 100]),
   midi.NoteOffEvent(tick=1727900, channel=0, data=[1, 0]),
   midi.NoteOnEvent(tick=1728000, channel=0, data=[11, 100]),
   midi.NoteOffEvent(tick=1728100, channel=0, data=[11, 0]),
   midi.NoteOnEvent(tick=1728200, channel=0, data=[4, 100]),
   midi.NoteOffEvent(tick=1728300, channel=0, data=[4, 0]),
   midi.NoteOnEvent(tick=1728400, channel=0, data=[36, 100]),
   midi.NoteOffEvent(tick=1728500, channel=0, data=[36, 0]),
   midi.NoteOnEvent(tick=1728600, channel=0, data=[14, 100]),
   midi.NoteOffEvent(tick=1728700, channel=0, data=[14, 0]),
   midi.NoteOnEvent(tick=1728800, channel=0, data=[13, 100]),
   midi.NoteOffEvent(tick=1728900, channel=0, data=[13, 0]),
   midi.NoteOnEvent(tick=1729000, channel=0, data=[11, 100]),
   midi.NoteOffEvent(tick=1729100, channel=0, data=[11, 0]),
   midi.NoteOnEvent(tick=1729200, channel=0, data=[24, 100]),
   midi.NoteOffEvent(tick=1729300, channel=0, data=[24, 0]),
   midi.NoteOnEvent(tick=1729400, channel=0, data=[36, 100]),
   midi.NoteOffEvent(tick=1729500, channel=0, data=[36, 0]),
   midi.NoteOnEvent(tick=1729600, channel=0, data=[19, 100]),
   midi.NoteOffEvent(tick=1729700, channel=0, data=[19, 0]),
   midi.NoteOnEvent(tick=1729800, channel=0, data=[14, 100]),
   midi.NoteOffEvent(tick=1729900, channel=0, data=[14, 0]),
   midi.NoteOnEvent(tick=1730000, channel=0, data=[36, 100]),
   midi.NoteOffEvent(tick=1730100, channel=0, data=[36, 0]),
   midi.NoteOnEvent(tick=1730200, channel=0, data=[0, 100]),
   midi.NoteOffEvent(tick=1730300, channel=0, data=[0, 0]),
   midi.NoteOnEvent(tick=1730400, channel=0, data=[36, 100]),
   midi.NoteOffEvent(tick=1730500, channel=0, data=[36, 0]),
   midi.NoteOnEvent(tick=1730600, channel=0, data=[7, 100]),
   midi.NoteOffEvent(tick=1730700, channel=0, data=[7, 0]),
   midi.NoteOnEvent(tick=1730800, channel=0, data=[0, 100]),
   midi.NoteOffEvent(tick=1730900, channel=0, data=[0, 0]),
   midi.NoteOnEvent(tick=1731000, channel=0, data=[18, 100]),
   midi.NoteOffEvent(tick=1731100, channel=0, data=[18, 0]),
   midi.NoteOnEvent(tick=1731200, channel=0, data=[7, 100]),
   midi.NoteOffEvent(tick=1731300, channel=0, data=[7, 0]),
   midi.NoteOnEvent(tick=1731400, channel=0, data=[36, 100]),
   midi.NoteOffEvent(tick=1731500, channel=0, data=[36, 0]),
   midi.NoteOnEvent(tick=1731600, channel=0, data=[19, 100]),
   midi.NoteOffEvent(tick=1731700, channel=0, data=[19, 0]),
   midi.NoteOnEvent(tick=1731800, channel=0, data=[0, 100]),
   midi.NoteOffEvent(tick=1731900, channel=0, data=[0, 0]),
   midi.NoteOnEvent(tick=1732000, channel=0, data=[1, 100]),
   midi.NoteOffEvent(tick=1732100, channel=0, data=[1, 0]),
   midi.NoteOnEvent(tick=1732200, channel=0, data=[11, 100]),
   midi.NoteOffEvent(tick=1732300, channel=0, data=[11, 0]),
   midi.NoteOnEvent(tick=1732400, channel=0, data=[4, 100]),
   midi.NoteOffEvent(tick=1732500, channel=0, data=[4, 0]),
   midi.NoteOnEvent(tick=1732600, channel=0, data=[37, 100]),
   midi.NoteOffEvent(tick=1732700, channel=0, data=[37, 0]),
   midi.NoteOnEvent(tick=1732800, channel=0, data=[56, 100]),
   midi.NoteOffEvent(tick=1732900, channel=0, data=[56, 0]),
   midi.NoteOnEvent(tick=1733000, channel=0, data=[36, 100]),
   midi.NoteOffEvent(tick=1733100, channel=0, data=[36, 0]),
   midi.NoteOnEvent(tick=1733200, channel=0, data=[36, 100]),
   midi.NoteOffEvent(tick=1733300, channel=0, data=[36, 0]),
   midi.NoteOnEvent(tick=1733400, channel=0, data=[36, 100]),
   midi.NoteOffEvent(tick=1733500, channel=0, data=[36, 0]),
   midi.NoteOnEvent(tick=1733600, channel=0, data=[36, 100]),
   midi.NoteOffEvent(tick=1733700, channel=0, data=[36, 0]),
   midi.NoteOnEvent(tick=1733800, channel=0, data=[36, 100]),
   midi.NoteOffEvent(tick=1733900, channel=0, data=[36, 0]),
   midi.NoteOnEvent(tick=1734000, channel=0, data=[36, 100]),
   midi.NoteOffEvent(tick=1734100, channel=0, data=[36, 0]),
   midi.NoteOnEvent(tick=1734200, channel=0, data=[36, 100]),
   midi.NoteOffEvent(tick=1734300, channel=0, data=[36, 0]),
   midi.NoteOnEvent(tick=1734400, channel=0, data=[36, 100]),
   midi.NoteOffEvent(tick=1734500, channel=0, data=[36, 0]),
   midi.NoteOnEvent(tick=1734600, channel=0, data=[0, 100]),
   midi.NoteOffEvent(tick=1734700, channel=0, data=[0, 0]),
   midi.NoteOnEvent(tick=1734800, channel=0, data=[19, 100]),
   midi.NoteOffEvent(tick=1734900, channel=0, data=[19, 0]),
   midi.NoteOnEvent(tick=1735000, channel=0, data=[36, 100]),
   midi.NoteOffEvent(tick=1735100, channel=0, data=[36, 0]),
   midi.NoteOnEvent(tick=1735200, channel=0, data=[11, 100]),
   midi.NoteOffEvent(tick=1735300, channel=0, data=[11, 0]),
   midi.NoteOnEvent(tick=1735400, channel=0, data=[8, 100]),
   midi.NoteOffEvent(tick=1735500, channel=0, data=[8, 0]),
   midi.NoteOnEvent(tick=1735600, channel=0, data=[13, 100]),
   midi.NoteOffEvent(tick=1735700, channel=0, data=[13, 0]),
   midi.NoteOnEvent(tick=1735800, channel=0, data=[4, 100]),
   midi.NoteOffEvent(tick=1735900, channel=0, data=[4, 0]),
   midi.NoteOnEvent(tick=1736000, channel=0, data=[46, 100]),
   midi.NoteOffEvent(tick=1736100, channel=0, data=[46, 0]),
   midi.NoteOnEvent(tick=1736200, channel=0, data=[27, 100]),
   midi.NoteOffEvent(tick=1736300, channel=0, data=[27, 0]),
   midi.NoteOnEvent(tick=1736400, channel=0, data=[36, 100]),
   midi.NoteOffEvent(tick=1736500, channel=0, data=[36, 0]),
   midi.NoteOnEvent(tick=1736600, channel=0, data=[2, 100]),
   midi.NoteOffEvent(tick=1736700, channel=0, data=[2, 0]),
   midi.NoteOnEvent(tick=1736800, channel=0, data=[7, 100]),
   midi.NoteOffEvent(tick=1736900, channel=0, data=[7, 0]),
   midi.NoteOnEvent(tick=1737000, channel=0, data=[0, 100]),
   midi.NoteOffEvent(tick=1737100, channel=0, data=[0, 0]),
   midi.NoteOnEvent(tick=1737200, channel=0, data=[17, 100]),
   midi.NoteOffEvent(tick=1737300, channel=0, data=[17, 0]),
   midi.NoteOnEvent(tick=1737400, channel=0, data=[46, 100]),
   midi.NoteOffEvent(tick=1737500, channel=0, data=[46, 0]),
   midi.NoteOnEvent(tick=1737600, channel=0, data=[32, 100]),
   midi.NoteOffEvent(tick=1737700, channel=0, data=[32, 0]),
   midi.NoteOnEvent(tick=1737800, channel=0, data=[56, 100]),
   midi.NoteOffEvent(tick=1737900, channel=0, data=[56, 0]),
   midi.NoteOnEvent(tick=1738000, channel=0, data=[36, 100]),
   midi.NoteOffEvent(tick=1738100, channel=0, data=[36, 0]),
   midi.NoteOnEvent(tick=1738200, channel=0, data=[36, 100]),
   midi.NoteOffEvent(tick=1738300, channel=0, data=[36, 0]),
   midi.NoteOnEvent(tick=1738400, channel=0, data=[36, 100]),
   midi.NoteOffEvent(tick=1738500, channel=0, data=[36, 0]),
   midi.NoteOnEvent(tick=1738600, channel=0, data=[36, 100]),
   midi.NoteOffEvent(tick=1738700, channel=0, data=[36, 0]),
   midi.NoteOnEvent(tick=1738800, channel=0, data=[36, 100]),
   midi.NoteOffEvent(tick=1738900, channel=0, data=[36, 0]),
   midi.NoteOnEvent(tick=1739000, channel=0, data=[36, 100]),
   midi.NoteOffEvent(tick=1739100, channel=0, data=[36, 0]),
   midi.NoteOnEvent(tick=1739200, channel=0, data=[36, 100]),
   midi.NoteOffEvent(tick=1739300, channel=0, data=[36, 0]),
   midi.NoteOnEvent(tick=1739400, channel=0, data=[36, 100]),
   midi.NoteOffEvent(tick=1739500, channel=0, data=[36, 0]),
   midi.NoteOnEvent(tick=1739600, channel=0, data=[55, 100]),
   midi.NoteOffEvent(tick=1739700, channel=0, data=[55, 0]),
   midi.NoteOnEvent(tick=1739800, channel=0, data=[36, 100]),
   midi.NoteOffEvent(tick=1739900, channel=0, data=[36, 0]),
   midi.NoteOnEvent(tick=1740000, channel=0, data=[74, 100]),
   midi.NoteOffEvent(tick=1740100, channel=0, data=[74, 0]),
   midi.NoteOnEvent(tick=1740200, channel=0, data=[0, 100]),
   midi.NoteOffEvent(tick=1740300, channel=0, data=[0, 0]),
   midi.NoteOnEvent(tick=1740400, channel=0, data=[36, 100]),
   midi.NoteOffEvent(tick=1740500, channel=0, data=[36, 0]),
   midi.NoteOnEvent(tick=1740600, channel=0, data=[55, 100]),
   midi.NoteOffEvent(tick=1740700, channel=0, data=[55, 0]),
   midi.NoteOnEvent(tick=1740800, channel=0, data=[69, 100]),
   midi.NoteOffEvent(tick=1740900, channel=0, data=[69, 0]),
   midi.NoteOnEvent(tick=1741000, channel=0, data=[36, 100]),
   midi.NoteOffEvent(tick=1741100, channel=0, data=[36, 0]),
   midi.NoteOnEvent(tick=1741200, channel=0, data=[72, 100]),
   midi.NoteOffEvent(tick=1741300, channel=0, data=[72, 0]),
   midi.NoteOnEvent(tick=1741400, channel=0, data=[72, 100]),
   midi.NoteOffEvent(tick=1741500, channel=0, data=[72, 0]),
   midi.NoteOnEvent(tick=1741600, channel=0, data=[72, 100]),
   midi.NoteOffEvent(tick=1741700, channel=0, data=[72, 0]),
   midi.NoteOnEvent(tick=1741800, channel=0, data=[72, 100]),
   midi.NoteOffEvent(tick=1741900, channel=0, data=[72, 0]),
   midi.NoteOnEvent(tick=1742000, channel=0, data=[36, 100]),
   midi.NoteOffEvent(tick=1742100, channel=0, data=[36, 0]),
   midi.NoteOnEvent(tick=1742200, channel=0, data=[36, 100]),
   midi.NoteOffEvent(tick=1742300, channel=0, data=[36, 0]),
   midi.NoteOnEvent(tick=1742400, channel=0, data=[27, 100]),
   midi.NoteOffEvent(tick=1742500, channel=0, data=[27, 0]),
   midi.NoteOnEvent(tick=1742600, channel=0, data=[56, 100]),
   midi.NoteOffEvent(tick=1742700, channel=0, data=[56, 0]),
   midi.NoteOnEvent(tick=1742800, channel=0, data=[56, 100]),
   midi.NoteOffEvent(tick=1742900, channel=0, data=[56, 0]),
   midi.NoteOnEvent(tick=1743000, channel=0, data=[56, 100]),
   midi.NoteOffEvent(tick=1743100, channel=0, data=[56, 0]),
   midi.NoteOnEvent(tick=1743200, channel=0, data=[36, 100]),
   midi.NoteOffEvent(tick=1743300, channel=0, data=[36, 0]),
   midi.NoteOnEvent(tick=1743400, channel=0, data=[36, 100]),
   midi.NoteOffEvent(tick=1743500, channel=0, data=[36, 0]),
   midi.NoteOnEvent(tick=1743600, channel=0, data=[19, 100]),
   midi.NoteOffEvent(tick=1743700, channel=0, data=[19, 0]),
   midi.NoteOnEvent(tick=1743800, channel=0, data=[7, 100]),
   midi.NoteOffEvent(tick=1743900, channel=0, data=[7, 0]),
   midi.NoteOnEvent(tick=1744000, channel=0, data=[4, 100]),
   midi.NoteOffEvent(tick=1744100, channel=0, data=[4, 0]),
   midi.NoteOnEvent(tick=1744200, channel=0, data=[36, 100]),
   midi.NoteOffEvent(tick=1744300, channel=0, data=[36, 0]),
   midi.NoteOnEvent(tick=1744400, channel=0, data=[0, 100]),
   midi.NoteOffEvent(tick=1744500, channel=0, data=[0, 0]),
   midi.NoteOnEvent(tick=1744600, channel=0, data=[18, 100]),
   midi.NoteOffEvent(tick=1744700, channel=0, data=[18, 0]),
   midi.NoteOnEvent(tick=1744800, channel=0, data=[18, 100]),
   midi.NoteOffEvent(tick=1744900, channel=0, data=[18, 0]),
   midi.NoteOnEvent(tick=1745000, channel=0, data=[8, 100]),
   midi.NoteOffEvent(tick=1745100, channel=0, data=[8, 0]),
   midi.NoteOnEvent(tick=1745200, channel=0, data=[6, 100]),
   midi.NoteOffEvent(tick=1745300, channel=0, data=[6, 0]),
   midi.NoteOnEvent(tick=1745400, channel=0, data=[13, 100]),
   midi.NoteOffEvent(tick=1745500, channel=0, data=[13, 0]),
   midi.NoteOnEvent(tick=1745600, channel=0, data=[12, 100]),
   midi.NoteOffEvent(tick=1745700, channel=0, data=[12, 0]),
   midi.NoteOnEvent(tick=1745800, channel=0, data=[4, 100]),
   midi.NoteOffEvent(tick=1745900, channel=0, data=[4, 0]),
   midi.NoteOnEvent(tick=1746000, channel=0, data=[13, 100]),
   midi.NoteOffEvent(tick=1746100, channel=0, data=[13, 0]),
   midi.NoteOnEvent(tick=1746200, channel=0, data=[19, 100]),
   midi.NoteOffEvent(tick=1746300, channel=0, data=[19, 0]),
   midi.NoteOnEvent(tick=1746400, channel=0, data=[36, 100]),
   midi.NoteOffEvent(tick=1746500, channel=0, data=[36, 0]),
   midi.NoteOnEvent(tick=1746600, channel=0, data=[1, 100]),
   midi.NoteOffEvent(tick=1746700, channel=0, data=[1, 0]),
   midi.NoteOnEvent(tick=1746800, channel=0, data=[24, 100]),
   midi.NoteOffEvent(tick=1746900, channel=0, data=[24, 0]),
   midi.NoteOnEvent(tick=1747000, channel=0, data=[36, 100]),
   midi.NoteOffEvent(tick=1747100, channel=0, data=[36, 0]),
   midi.NoteOnEvent(tick=1747200, channel=0, data=[18, 100]),
   midi.NoteOffEvent(tick=1747300, channel=0, data=[18, 0]),
   midi.NoteOnEvent(tick=1747400, channel=0, data=[20, 100]),
   midi.NoteOffEvent(tick=1747500, channel=0, data=[20, 0]),
   midi.NoteOnEvent(tick=1747600, channel=0, data=[1, 100]),
   midi.NoteOffEvent(tick=1747700, channel=0, data=[1, 0]),
   midi.NoteOnEvent(tick=1747800, channel=0, data=[19, 100]),
   midi.NoteOffEvent(tick=1747900, channel=0, data=[19, 0]),
   midi.NoteOnEvent(tick=1748000, channel=0, data=[17, 100]),
   midi.NoteOffEvent(tick=1748100, channel=0, data=[17, 0]),
   midi.NoteOnEvent(tick=1748200, channel=0, data=[0, 100]),
   midi.NoteOffEvent(tick=1748300, channel=0, data=[0, 0]),
   midi.NoteOnEvent(tick=1748400, channel=0, data=[2, 100]),
   midi.NoteOffEvent(tick=1748500, channel=0, data=[2, 0]),
   midi.NoteOnEvent(tick=1748600, channel=0, data=[19, 100]),
   midi.NoteOffEvent(tick=1748700, channel=0, data=[19, 0]),
   midi.NoteOnEvent(tick=1748800, channel=0, data=[8, 100]),
   midi.NoteOffEvent(tick=1748900, channel=0, data=[8, 0]),
   midi.NoteOnEvent(tick=1749000, channel=0, data=[14, 100]),
   midi.NoteOffEvent(tick=1749100, channel=0, data=[14, 0]),
   midi.NoteOnEvent(tick=1749200, channel=0, data=[13, 100]),
   midi.NoteOffEvent(tick=1749300, channel=0, data=[13, 0]),
   midi.NoteOnEvent(tick=1749400, channel=0, data=[36, 100]),
   midi.NoteOffEvent(tick=1749500, channel=0, data=[36, 0]),
   midi.NoteOnEvent(tick=1749600, channel=0, data=[14, 100]),
   midi.NoteOffEvent(tick=1749700, channel=0, data=[14, 0]),
   midi.NoteOnEvent(tick=1749800, channel=0, data=[15, 100]),
   midi.NoteOffEvent(tick=1749900, channel=0, data=[15, 0]),
   midi.NoteOnEvent(tick=1750000, channel=0, data=[4, 100]),
   midi.NoteOffEvent(tick=1750100, channel=0, data=[4, 0]),
   midi.NoteOnEvent(tick=1750200, channel=0, data=[17, 100]),
   midi.NoteOffEvent(tick=1750300, channel=0, data=[17, 0]),
   midi.NoteOnEvent(tick=1750400, channel=0, data=[0, 100]),
   midi.NoteOffEvent(tick=1750500, channel=0, data=[0, 0]),
   midi.NoteOnEvent(tick=1750600, channel=0, data=[19, 100]),
   midi.NoteOffEvent(tick=1750700, channel=0, data=[19, 0]),
   midi.NoteOnEvent(tick=1750800, channel=0, data=[14, 100]),
   midi.NoteOffEvent(tick=1750900, channel=0, data=[14, 0]),
   midi.NoteOnEvent(tick=1751000, channel=0, data=[17, 100]),
   midi.NoteOffEvent(tick=1751100, channel=0, data=[17, 0]),
   midi.NoteOnEvent(tick=1751200, channel=0, data=[36, 100]),
   midi.NoteOffEvent(tick=1751300, channel=0, data=[36, 0]),
   midi.NoteOnEvent(tick=1751400, channel=0, data=[49, 100]),
   midi.NoteOffEvent(tick=1751500, channel=0, data=[49, 0]),
   midi.NoteOnEvent(tick=1751600, channel=0, data=[45, 100]),
   midi.NoteOffEvent(tick=1751700, channel=0, data=[45, 0]),
   midi.NoteOnEvent(tick=1751800, channel=0, data=[69, 100]),
   midi.NoteOffEvent(tick=1751900, channel=0, data=[69, 0]),
   midi.NoteOnEvent(tick=1752000, channel=0, data=[50, 100]),
   midi.NoteOffEvent(tick=1752100, channel=0, data=[50, 0]),
   midi.NoteOnEvent(tick=1752200, channel=0, data=[56, 100]),
   midi.NoteOffEvent(tick=1752300, channel=0, data=[56, 0]),
   midi.NoteOnEvent(tick=1752400, channel=0, data=[36, 100]),
   midi.NoteOffEvent(tick=1752500, channel=0, data=[36, 0]),
   midi.NoteOnEvent(tick=1752600, channel=0, data=[36, 100]),
   midi.NoteOffEvent(tick=1752700, channel=0, data=[36, 0]),
   midi.NoteOnEvent(tick=1752800, channel=0, data=[36, 100]),
   midi.NoteOffEvent(tick=1752900, channel=0, data=[36, 0]),
   midi.NoteOnEvent(tick=1753000, channel=0, data=[36, 100]),
   midi.NoteOffEvent(tick=1753100, channel=0, data=[36, 0]),
   midi.NoteOnEvent(tick=1753200, channel=0, data=[19, 100]),
   midi.NoteOffEvent(tick=1753300, channel=0, data=[19, 0]),
   midi.NoteOnEvent(tick=1753400, channel=0, data=[7, 100]),
   midi.NoteOffEvent(tick=1753500, channel=0, data=[7, 0]),
   midi.NoteOnEvent(tick=1753600, channel=0, data=[4, 100]),
   midi.NoteOffEvent(tick=1753700, channel=0, data=[4, 0]),
   midi.NoteOnEvent(tick=1753800, channel=0, data=[36, 100]),
   midi.NoteOffEvent(tick=1753900, channel=0, data=[36, 0]),
   midi.NoteOnEvent(tick=1754000, channel=0, data=[0, 100]),
   midi.NoteOffEvent(tick=1754100, channel=0, data=[0, 0]),
   midi.NoteOnEvent(tick=1754200, channel=0, data=[18, 100]),
   midi.NoteOffEvent(tick=1754300, channel=0, data=[18, 0]),
   midi.NoteOnEvent(tick=1754400, channel=0, data=[18, 100]),
   midi.NoteOffEvent(tick=1754500, channel=0, data=[18, 0]),
   midi.NoteOnEvent(tick=1754600, channel=0, data=[8, 100]),
   midi.NoteOffEvent(tick=1754700, channel=0, data=[8, 0]),
   midi.NoteOnEvent(tick=1754800, channel=0, data=[6, 100]),
   midi.NoteOffEvent(tick=1754900, channel=0, data=[6, 0]),
   midi.NoteOnEvent(tick=1755000, channel=0, data=[13, 100]),
   midi.NoteOffEvent(tick=1755100, channel=0, data=[13, 0]),
   midi.NoteOnEvent(tick=1755200, channel=0, data=[12, 100]),
   midi.NoteOffEvent(tick=1755300, channel=0, data=[12, 0]),
   midi.NoteOnEvent(tick=1755400, channel=0, data=[4, 100]),
   midi.NoteOffEvent(tick=1755500, channel=0, data=[4, 0]),
   midi.NoteOnEvent(tick=1755600, channel=0, data=[13, 100]),
   midi.NoteOffEvent(tick=1755700, channel=0, data=[13, 0]),
   midi.NoteOnEvent(tick=1755800, channel=0, data=[19, 100]),
   midi.NoteOffEvent(tick=1755900, channel=0, data=[19, 0]),
   midi.NoteOnEvent(tick=1756000, channel=0, data=[36, 100]),
   midi.NoteOffEvent(tick=1756100, channel=0, data=[36, 0]),
   midi.NoteOnEvent(tick=1756200, channel=0, data=[1, 100]),
   midi.NoteOffEvent(tick=1756300, channel=0, data=[1, 0]),
   midi.NoteOnEvent(tick=1756400, channel=0, data=[24, 100]),
   midi.NoteOffEvent(tick=1756500, channel=0, data=[24, 0]),
   midi.NoteOnEvent(tick=1756600, channel=0, data=[36, 100]),
   midi.NoteOffEvent(tick=1756700, channel=0, data=[36, 0]),
   midi.NoteOnEvent(tick=1756800, channel=0, data=[18, 100]),
   midi.NoteOffEvent(tick=1756900, channel=0, data=[18, 0]),
   midi.NoteOnEvent(tick=1757000, channel=0, data=[20, 100]),
   midi.NoteOffEvent(tick=1757100, channel=0, data=[20, 0]),
   midi.NoteOnEvent(tick=1757200, channel=0, data=[1, 100]),
   midi.NoteOffEvent(tick=1757300, channel=0, data=[1, 0]),
   midi.NoteOnEvent(tick=1757400, channel=0, data=[19, 100]),
   midi.NoteOffEvent(tick=1757500, channel=0, data=[19, 0]),
   midi.NoteOnEvent(tick=1757600, channel=0, data=[17, 100]),
   midi.NoteOffEvent(tick=1757700, channel=0, data=[17, 0]),
   midi.NoteOnEvent(tick=1757800, channel=0, data=[0, 100]),
   midi.NoteOffEvent(tick=1757900, channel=0, data=[0, 0]),
   midi.NoteOnEvent(tick=1758000, channel=0, data=[2, 100]),
   midi.NoteOffEvent(tick=1758100, channel=0, data=[2, 0]),
   midi.NoteOnEvent(tick=1758200, channel=0, data=[19, 100]),
   midi.NoteOffEvent(tick=1758300, channel=0, data=[19, 0]),
   midi.NoteOnEvent(tick=1758400, channel=0, data=[8, 100]),
   midi.NoteOffEvent(tick=1758500, channel=0, data=[8, 0]),
   midi.NoteOnEvent(tick=1758600, channel=0, data=[14, 100]),
   midi.NoteOffEvent(tick=1758700, channel=0, data=[14, 0]),
   midi.NoteOnEvent(tick=1758800, channel=0, data=[13, 100]),
   midi.NoteOffEvent(tick=1758900, channel=0, data=[13, 0]),
   midi.NoteOnEvent(tick=1759000, channel=0, data=[36, 100]),
   midi.NoteOffEvent(tick=1759100, channel=0, data=[36, 0]),
   midi.NoteOnEvent(tick=1759200, channel=0, data=[14, 100]),
   midi.NoteOffEvent(tick=1759300, channel=0, data=[14, 0]),
   midi.NoteOnEvent(tick=1759400, channel=0, data=[15, 100]),
   midi.NoteOffEvent(tick=1759500, channel=0, data=[15, 0]),
   midi.NoteOnEvent(tick=1759600, channel=0, data=[4, 100]),
   midi.NoteOffEvent(tick=1759700, channel=0, data=[4, 0]),
   midi.NoteOnEvent(tick=1759800, channel=0, data=[17, 100]),
   midi.NoteOffEvent(tick=1759900, channel=0, data=[17, 0]),
   midi.NoteOnEvent(tick=1760000, channel=0, data=[0, 100]),
   midi.NoteOffEvent(tick=1760100, channel=0, data=[0, 0]),
   midi.NoteOnEvent(tick=1760200, channel=0, data=[19, 100]),
   midi.NoteOffEvent(tick=1760300, channel=0, data=[19, 0]),
   midi.NoteOnEvent(tick=1760400, channel=0, data=[14, 100]),
   midi.NoteOffEvent(tick=1760500, channel=0, data=[14, 0]),
   midi.NoteOnEvent(tick=1760600, channel=0, data=[17, 100]),
   midi.NoteOffEvent(tick=1760700, channel=0, data=[17, 0]),
   midi.NoteOnEvent(tick=1760800, channel=0, data=[36, 100]),
   midi.NoteOffEvent(tick=1760900, channel=0, data=[36, 0]),
   midi.NoteOnEvent(tick=1761000, channel=0, data=[49, 100]),
   midi.NoteOffEvent(tick=1761100, channel=0, data=[49, 0]),
   midi.NoteOnEvent(tick=1761200, channel=0, data=[45, 100]),
   midi.NoteOffEvent(tick=1761300, channel=0, data=[45, 0]),
   midi.NoteOnEvent(tick=1761400, channel=0, data=[69, 100]),
   midi.NoteOffEvent(tick=1761500, channel=0, data=[69, 0]),
   midi.NoteOnEvent(tick=1761600, channel=0, data=[50, 100]),
   midi.NoteOffEvent(tick=1761700, channel=0, data=[50, 0]),
   midi.NoteOnEvent(tick=1761800, channel=0, data=[36, 100]),
   midi.NoteOffEvent(tick=1761900, channel=0, data=[36, 0]),
   midi.NoteOnEvent(tick=1762000, channel=0, data=[3, 100]),
   midi.NoteOffEvent(tick=1762100, channel=0, data=[3, 0]),
   midi.NoteOnEvent(tick=1762200, channel=0, data=[4, 100]),
   midi.NoteOffEvent(tick=1762300, channel=0, data=[4, 0]),
   midi.NoteOnEvent(tick=1762400, channel=0, data=[2, 100]),
   midi.NoteOffEvent(tick=1762500, channel=0, data=[2, 0]),
   midi.NoteOnEvent(tick=1762600, channel=0, data=[17, 100]),
   midi.NoteOffEvent(tick=1762700, channel=0, data=[17, 0]),
   midi.NoteOnEvent(tick=1762800, channel=0, data=[4, 100]),
   midi.NoteOffEvent(tick=1762900, channel=0, data=[4, 0]),
   midi.NoteOnEvent(tick=1763000, channel=0, data=[12, 100]),
   midi.NoteOffEvent(tick=1763100, channel=0, data=[12, 0]),
   midi.NoteOnEvent(tick=1763200, channel=0, data=[4, 100]),
   midi.NoteOffEvent(tick=1763300, channel=0, data=[4, 0]),
   midi.NoteOnEvent(tick=1763400, channel=0, data=[13, 100]),
   midi.NoteOffEvent(tick=1763500, channel=0, data=[13, 0]),
   midi.NoteOnEvent(tick=1763600, channel=0, data=[19, 100]),
   midi.NoteOffEvent(tick=1763700, channel=0, data=[19, 0]),
   midi.NoteOnEvent(tick=1763800, channel=0, data=[18, 100]),
   midi.NoteOffEvent(tick=1763900, channel=0, data=[18, 0]),
   midi.NoteOnEvent(tick=1764000, channel=0, data=[36, 100]),
   midi.NoteOffEvent(tick=1764100, channel=0, data=[36, 0]),
   midi.NoteOnEvent(tick=1764200, channel=0, data=[19, 100]),
   midi.NoteOffEvent(tick=1764300, channel=0, data=[19, 0]),
   midi.NoteOnEvent(tick=1764400, channel=0, data=[7, 100]),
   midi.NoteOffEvent(tick=1764500, channel=0, data=[7, 0]),
   midi.NoteOnEvent(tick=1764600, channel=0, data=[4, 100]),
   midi.NoteOffEvent(tick=1764700, channel=0, data=[4, 0]),
   midi.NoteOnEvent(tick=1764800, channel=0, data=[36, 100]),
   midi.NoteOffEvent(tick=1764900, channel=0, data=[36, 0]),
   midi.NoteOnEvent(tick=1765000, channel=0, data=[21, 100]),
   midi.NoteOffEvent(tick=1765100, channel=0, data=[21, 0]),
   midi.NoteOnEvent(tick=1765200, channel=0, data=[0, 100]),
   midi.NoteOffEvent(tick=1765300, channel=0, data=[0, 0]),
   midi.NoteOnEvent(tick=1765400, channel=0, data=[11, 100]),
   midi.NoteOffEvent(tick=1765500, channel=0, data=[11, 0]),
   midi.NoteOnEvent(tick=1765600, channel=0, data=[20, 100]),
   midi.NoteOffEvent(tick=1765700, channel=0, data=[20, 0]),
   midi.NoteOnEvent(tick=1765800, channel=0, data=[4, 100]),
   midi.NoteOffEvent(tick=1765900, channel=0, data=[4, 0]),
   midi.NoteOnEvent(tick=1766000, channel=0, data=[36, 100]),
   midi.NoteOffEvent(tick=1766100, channel=0, data=[36, 0]),
   midi.NoteOnEvent(tick=1766200, channel=0, data=[14, 100]),
   midi.NoteOffEvent(tick=1766300, channel=0, data=[14, 0]),
   midi.NoteOnEvent(tick=1766400, channel=0, data=[5, 100]),
   midi.NoteOffEvent(tick=1766500, channel=0, data=[5, 0]),
   midi.NoteOnEvent(tick=1766600, channel=0, data=[36, 100]),
   midi.NoteOffEvent(tick=1766700, channel=0, data=[36, 0]),
   midi.NoteOnEvent(tick=1766800, channel=0, data=[0, 100]),
   midi.NoteOffEvent(tick=1766900, channel=0, data=[0, 0]),
   midi.NoteOnEvent(tick=1767000, channel=0, data=[36, 100]),
   midi.NoteOffEvent(tick=1767100, channel=0, data=[36, 0]),
   midi.NoteOnEvent(tick=1767200, channel=0, data=[56, 100]),
   midi.NoteOffEvent(tick=1767300, channel=0, data=[56, 0]),
   midi.NoteOnEvent(tick=1767400, channel=0, data=[36, 100]),
   midi.NoteOffEvent(tick=1767500, channel=0, data=[36, 0]),
   midi.NoteOnEvent(tick=1767600, channel=0, data=[36, 100]),
   midi.NoteOffEvent(tick=1767700, channel=0, data=[36, 0]),
   midi.NoteOnEvent(tick=1767800, channel=0, data=[36, 100]),
   midi.NoteOffEvent(tick=1767900, channel=0, data=[36, 0]),
   midi.NoteOnEvent(tick=1768000, channel=0, data=[36, 100]),
   midi.NoteOffEvent(tick=1768100, channel=0, data=[36, 0]),
   midi.NoteOnEvent(tick=1768200, channel=0, data=[21, 100]),
   midi.NoteOffEvent(tick=1768300, channel=0, data=[21, 0]),
   midi.NoteOnEvent(tick=1768400, channel=0, data=[0, 100]),
   midi.NoteOffEvent(tick=1768500, channel=0, data=[0, 0]),
   midi.NoteOnEvent(tick=1768600, channel=0, data=[17, 100]),
   midi.NoteOffEvent(tick=1768700, channel=0, data=[17, 0]),
   midi.NoteOnEvent(tick=1768800, channel=0, data=[8, 100]),
   midi.NoteOffEvent(tick=1768900, channel=0, data=[8, 0]),
   midi.NoteOnEvent(tick=1769000, channel=0, data=[0, 100]),
   midi.NoteOffEvent(tick=1769100, channel=0, data=[0, 0]),
   midi.NoteOnEvent(tick=1769200, channel=0, data=[1, 100]),
   midi.NoteOffEvent(tick=1769300, channel=0, data=[1, 0]),
   midi.NoteOnEvent(tick=1769400, channel=0, data=[11, 100]),
   midi.NoteOffEvent(tick=1769500, channel=0, data=[11, 0]),
   midi.NoteOnEvent(tick=1769600, channel=0, data=[4, 100]),
   midi.NoteOffEvent(tick=1769700, channel=0, data=[4, 0]),
   midi.NoteOnEvent(tick=1769800, channel=0, data=[36, 100]),
   midi.NoteOffEvent(tick=1769900, channel=0, data=[36, 0]),
   midi.NoteOnEvent(tick=1770000, channel=0, data=[1, 100]),
   midi.NoteOffEvent(tick=1770100, channel=0, data=[1, 0]),
   midi.NoteOnEvent(tick=1770200, channel=0, data=[24, 100]),
   midi.NoteOffEvent(tick=1770300, channel=0, data=[24, 0]),
   midi.NoteOnEvent(tick=1770400, channel=0, data=[36, 100]),
   midi.NoteOffEvent(tick=1770500, channel=0, data=[36, 0]),
   midi.NoteOnEvent(tick=1770600, channel=0, data=[19, 100]),
   midi.NoteOffEvent(tick=1770700, channel=0, data=[19, 0]),
   midi.NoteOnEvent(tick=1770800, channel=0, data=[7, 100]),
   midi.NoteOffEvent(tick=1770900, channel=0, data=[7, 0]),
   midi.NoteOnEvent(tick=1771000, channel=0, data=[4, 100]),
   midi.NoteOffEvent(tick=1771100, channel=0, data=[4, 0]),
   midi.NoteOnEvent(tick=1771200, channel=0, data=[36, 100]),
   midi.NoteOffEvent(tick=1771300, channel=0, data=[36, 0]),
   midi.NoteOnEvent(tick=1771400, channel=0, data=[21, 100]),
   midi.NoteOffEvent(tick=1771500, channel=0, data=[21, 0]),
   midi.NoteOnEvent(tick=1771600, channel=0, data=[0, 100]),
   midi.NoteOffEvent(tick=1771700, channel=0, data=[0, 0]),
   midi.NoteOnEvent(tick=1771800, channel=0, data=[11, 100]),
   midi.NoteOffEvent(tick=1771900, channel=0, data=[11, 0]),
   midi.NoteOnEvent(tick=1772000, channel=0, data=[20, 100]),
   midi.NoteOffEvent(tick=1772100, channel=0, data=[20, 0]),
   midi.NoteOnEvent(tick=1772200, channel=0, data=[4, 100]),
   midi.NoteOffEvent(tick=1772300, channel=0, data=[4, 0]),
   midi.NoteOnEvent(tick=1772400, channel=0, data=[36, 100]),
   midi.NoteOffEvent(tick=1772500, channel=0, data=[36, 0]),
   midi.NoteOnEvent(tick=1772600, channel=0, data=[19, 100]),
   midi.NoteOffEvent(tick=1772700, channel=0, data=[19, 0]),
   midi.NoteOnEvent(tick=1772800, channel=0, data=[7, 100]),
   midi.NoteOffEvent(tick=1772900, channel=0, data=[7, 0]),
   midi.NoteOnEvent(tick=1773000, channel=0, data=[0, 100]),
   midi.NoteOffEvent(tick=1773100, channel=0, data=[0, 0]),
   midi.NoteOnEvent(tick=1773200, channel=0, data=[19, 100]),
   midi.NoteOffEvent(tick=1773300, channel=0, data=[19, 0]),
   midi.NoteOnEvent(tick=1773400, channel=0, data=[36, 100]),
   midi.NoteOffEvent(tick=1773500, channel=0, data=[36, 0]),
   midi.NoteOnEvent(tick=1773600, channel=0, data=[8, 100]),
   midi.NoteOffEvent(tick=1773700, channel=0, data=[8, 0]),
   midi.NoteOnEvent(tick=1773800, channel=0, data=[18, 100]),
   midi.NoteOffEvent(tick=1773900, channel=0, data=[18, 0]),
   midi.NoteOnEvent(tick=1774000, channel=0, data=[36, 100]),
   midi.NoteOffEvent(tick=1774100, channel=0, data=[36, 0]),
   midi.NoteOnEvent(tick=1774200, channel=0, data=[18, 100]),
   midi.NoteOffEvent(tick=1774300, channel=0, data=[18, 0]),
   midi.NoteOnEvent(tick=1774400, channel=0, data=[15, 100]),
   midi.NoteOffEvent(tick=1774500, channel=0, data=[15, 0]),
   midi.NoteOnEvent(tick=1774600, channel=0, data=[4, 100]),
   midi.NoteOffEvent(tick=1774700, channel=0, data=[4, 0]),
   midi.NoteOnEvent(tick=1774800, channel=0, data=[2, 100]),
   midi.NoteOffEvent(tick=1774900, channel=0, data=[2, 0]),
   midi.NoteOnEvent(tick=1775000, channel=0, data=[8, 100]),
   midi.NoteOffEvent(tick=1775100, channel=0, data=[8, 0]),
   midi.NoteOnEvent(tick=1775200, channel=0, data=[5, 100]),
   midi.NoteOffEvent(tick=1775300, channel=0, data=[5, 0]),
   midi.NoteOnEvent(tick=1775400, channel=0, data=[8, 100]),
   midi.NoteOffEvent(tick=1775500, channel=0, data=[8, 0]),
   midi.NoteOnEvent(tick=1775600, channel=0, data=[4, 100]),
   midi.NoteOffEvent(tick=1775700, channel=0, data=[4, 0]),
   midi.NoteOnEvent(tick=1775800, channel=0, data=[3, 100]),
   midi.NoteOffEvent(tick=1775900, channel=0, data=[3, 0]),
   midi.NoteOnEvent(tick=1776000, channel=0, data=[36, 100]),
   midi.NoteOffEvent(tick=1776100, channel=0, data=[36, 0]),
   midi.NoteOnEvent(tick=1776200, channel=0, data=[14, 100]),
   midi.NoteOffEvent(tick=1776300, channel=0, data=[14, 0]),
   midi.NoteOnEvent(tick=1776400, channel=0, data=[13, 100]),
   midi.NoteOffEvent(tick=1776500, channel=0, data=[13, 0]),
   midi.NoteOnEvent(tick=1776600, channel=0, data=[36, 100]),
   midi.NoteOffEvent(tick=1776700, channel=0, data=[36, 0]),
   midi.NoteOnEvent(tick=1776800, channel=0, data=[19, 100]),
   midi.NoteOffEvent(tick=1776900, channel=0, data=[19, 0]),
   midi.NoteOnEvent(tick=1777000, channel=0, data=[7, 100]),
   midi.NoteOffEvent(tick=1777100, channel=0, data=[7, 0]),
   midi.NoteOnEvent(tick=1777200, channel=0, data=[4, 100]),
   midi.NoteOffEvent(tick=1777300, channel=0, data=[4, 0]),
   midi.NoteOnEvent(tick=1777400, channel=0, data=[36, 100]),
   midi.NoteOffEvent(tick=1777500, channel=0, data=[36, 0]),
   midi.NoteOnEvent(tick=1777600, channel=0, data=[17, 100]),
   midi.NoteOffEvent(tick=1777700, channel=0, data=[17, 0]),
   midi.NoteOnEvent(tick=1777800, channel=0, data=[8, 100]),
   midi.NoteOffEvent(tick=1777900, channel=0, data=[8, 0]),
   midi.NoteOnEvent(tick=1778000, channel=0, data=[6, 100]),
   midi.NoteOffEvent(tick=1778100, channel=0, data=[6, 0]),
   midi.NoteOnEvent(tick=1778200, channel=0, data=[7, 100]),
   midi.NoteOffEvent(tick=1778300, channel=0, data=[7, 0]),
   midi.NoteOnEvent(tick=1778400, channel=0, data=[19, 100]),
   midi.NoteOffEvent(tick=1778500, channel=0, data=[19, 0]),
   midi.NoteOnEvent(tick=1778600, channel=0, data=[36, 100]),
   midi.NoteOffEvent(tick=1778700, channel=0, data=[36, 0]),
   midi.NoteOnEvent(tick=1778800, channel=0, data=[18, 100]),
   midi.NoteOffEvent(tick=1778900, channel=0, data=[18, 0]),
   midi.NoteOnEvent(tick=1779000, channel=0, data=[8, 100]),
   midi.NoteOffEvent(tick=1779100, channel=0, data=[8, 0]),
   midi.NoteOnEvent(tick=1779200, channel=0, data=[3, 100]),
   midi.NoteOffEvent(tick=1779300, channel=0, data=[3, 0]),
   midi.NoteOnEvent(tick=1779400, channel=0, data=[4, 100]),
   midi.NoteOffEvent(tick=1779500, channel=0, data=[4, 0]),
   midi.NoteOnEvent(tick=1779600, channel=0, data=[36, 100]),
   midi.NoteOffEvent(tick=1779700, channel=0, data=[36, 0]),
   midi.NoteOnEvent(tick=1779800, channel=0, data=[14, 100]),
   midi.NoteOffEvent(tick=1779900, channel=0, data=[14, 0]),
   midi.NoteOnEvent(tick=1780000, channel=0, data=[5, 100]),
   midi.NoteOffEvent(tick=1780100, channel=0, data=[5, 0]),
   midi.NoteOnEvent(tick=1780200, channel=0, data=[36, 100]),
   midi.NoteOffEvent(tick=1780300, channel=0, data=[36, 0]),
   midi.NoteOnEvent(tick=1780400, channel=0, data=[19, 100]),
   midi.NoteOffEvent(tick=1780500, channel=0, data=[19, 0]),
   midi.NoteOnEvent(tick=1780600, channel=0, data=[7, 100]),
   midi.NoteOffEvent(tick=1780700, channel=0, data=[7, 0]),
   midi.NoteOnEvent(tick=1780800, channel=0, data=[4, 100]),
   midi.NoteOffEvent(tick=1780900, channel=0, data=[4, 0]),
   midi.NoteOnEvent(tick=1781000, channel=0, data=[36, 100]),
   midi.NoteOffEvent(tick=1781100, channel=0, data=[36, 0]),
   midi.NoteOnEvent(tick=1781200, channel=0, data=[14, 100]),
   midi.NoteOffEvent(tick=1781300, channel=0, data=[14, 0]),
   midi.NoteOnEvent(tick=1781400, channel=0, data=[15, 100]),
   midi.NoteOffEvent(tick=1781500, channel=0, data=[15, 0]),
   midi.NoteOnEvent(tick=1781600, channel=0, data=[4, 100]),
   midi.NoteOffEvent(tick=1781700, channel=0, data=[4, 0]),
   midi.NoteOnEvent(tick=1781800, channel=0, data=[17, 100]),
   midi.NoteOffEvent(tick=1781900, channel=0, data=[17, 0]),
   midi.NoteOnEvent(tick=1782000, channel=0, data=[0, 100]),
   midi.NoteOffEvent(tick=1782100, channel=0, data=[0, 0]),
   midi.NoteOnEvent(tick=1782200, channel=0, data=[19, 100]),
   midi.NoteOffEvent(tick=1782300, channel=0, data=[19, 0]),
   midi.NoteOnEvent(tick=1782400, channel=0, data=[14, 100]),
   midi.NoteOffEvent(tick=1782500, channel=0, data=[14, 0]),
   midi.NoteOnEvent(tick=1782600, channel=0, data=[17, 100]),
   midi.NoteOffEvent(tick=1782700, channel=0, data=[17, 0]),
   midi.NoteOnEvent(tick=1782800, channel=0, data=[37, 100]),
   midi.NoteOffEvent(tick=1782900, channel=0, data=[37, 0]),
   midi.NoteOnEvent(tick=1783000, channel=0, data=[56, 100]),
   midi.NoteOffEvent(tick=1783100, channel=0, data=[56, 0]),
   midi.NoteOnEvent(tick=1783200, channel=0, data=[36, 100]),
   midi.NoteOffEvent(tick=1783300, channel=0, data=[36, 0]),
   midi.NoteOnEvent(tick=1783400, channel=0, data=[36, 100]),
   midi.NoteOffEvent(tick=1783500, channel=0, data=[36, 0]),
   midi.NoteOnEvent(tick=1783600, channel=0, data=[36, 100]),
   midi.NoteOffEvent(tick=1783700, channel=0, data=[36, 0]),
   midi.NoteOnEvent(tick=1783800, channel=0, data=[36, 100]),
   midi.NoteOffEvent(tick=1783900, channel=0, data=[36, 0]),
   midi.NoteOnEvent(tick=1784000, channel=0, data=[19, 100]),
   midi.NoteOffEvent(tick=1784100, channel=0, data=[19, 0]),
   midi.NoteOnEvent(tick=1784200, channel=0, data=[7, 100]),
   midi.NoteOffEvent(tick=1784300, channel=0, data=[7, 0]),
   midi.NoteOnEvent(tick=1784400, channel=0, data=[8, 100]),
   midi.NoteOffEvent(tick=1784500, channel=0, data=[8, 0]),
   midi.NoteOnEvent(tick=1784600, channel=0, data=[18, 100]),
   midi.NoteOffEvent(tick=1784700, channel=0, data=[18, 0]),
   midi.NoteOnEvent(tick=1784800, channel=0, data=[36, 100]),
   midi.NoteOffEvent(tick=1784900, channel=0, data=[36, 0]),
   midi.NoteOnEvent(tick=1785000, channel=0, data=[14, 100]),
   midi.NoteOffEvent(tick=1785100, channel=0, data=[14, 0]),
   midi.NoteOnEvent(tick=1785200, channel=0, data=[15, 100]),
   midi.NoteOffEvent(tick=1785300, channel=0, data=[15, 0]),
   midi.NoteOnEvent(tick=1785400, channel=0, data=[4, 100]),
   midi.NoteOffEvent(tick=1785500, channel=0, data=[4, 0]),
   midi.NoteOnEvent(tick=1785600, channel=0, data=[17, 100]),
   midi.NoteOffEvent(tick=1785700, channel=0, data=[17, 0]),
   midi.NoteOnEvent(tick=1785800, channel=0, data=[0, 100]),
   midi.NoteOffEvent(tick=1785900, channel=0, data=[0, 0]),
   midi.NoteOnEvent(tick=1786000, channel=0, data=[19, 100]),
   midi.NoteOffEvent(tick=1786100, channel=0, data=[19, 0]),
   midi.NoteOnEvent(tick=1786200, channel=0, data=[14, 100]),
   midi.NoteOffEvent(tick=1786300, channel=0, data=[14, 0]),
   midi.NoteOnEvent(tick=1786400, channel=0, data=[17, 100]),
   midi.NoteOffEvent(tick=1786500, channel=0, data=[17, 0]),
   midi.NoteOnEvent(tick=1786600, channel=0, data=[36, 100]),
   midi.NoteOffEvent(tick=1786700, channel=0, data=[36, 0]),
   midi.NoteOnEvent(tick=1786800, channel=0, data=[2, 100]),
   midi.NoteOffEvent(tick=1786900, channel=0, data=[2, 0]),
   midi.NoteOnEvent(tick=1787000, channel=0, data=[0, 100]),
   midi.NoteOffEvent(tick=1787100, channel=0, data=[0, 0]),
   midi.NoteOnEvent(tick=1787200, channel=0, data=[13, 100]),
   midi.NoteOffEvent(tick=1787300, channel=0, data=[13, 0]),
   midi.NoteOnEvent(tick=1787400, channel=0, data=[13, 100]),
   midi.NoteOffEvent(tick=1787500, channel=0, data=[13, 0]),
   midi.NoteOnEvent(tick=1787600, channel=0, data=[14, 100]),
   midi.NoteOffEvent(tick=1787700, channel=0, data=[14, 0]),
   midi.NoteOnEvent(tick=1787800, channel=0, data=[19, 100]),
   midi.NoteOffEvent(tick=1787900, channel=0, data=[19, 0]),
   midi.NoteOnEvent(tick=1788000, channel=0, data=[36, 100]),
   midi.NoteOffEvent(tick=1788100, channel=0, data=[36, 0]),
   midi.NoteOnEvent(tick=1788200, channel=0, data=[1, 100]),
   midi.NoteOffEvent(tick=1788300, channel=0, data=[1, 0]),
   midi.NoteOnEvent(tick=1788400, channel=0, data=[4, 100]),
   midi.NoteOffEvent(tick=1788500, channel=0, data=[4, 0]),
   midi.NoteOnEvent(tick=1788600, channel=0, data=[36, 100]),
   midi.NoteOffEvent(tick=1788700, channel=0, data=[36, 0]),
   midi.NoteOnEvent(tick=1788800, channel=0, data=[20, 100]),
   midi.NoteOffEvent(tick=1788900, channel=0, data=[20, 0]),
   midi.NoteOnEvent(tick=1789000, channel=0, data=[18, 100]),
   midi.NoteOffEvent(tick=1789100, channel=0, data=[18, 0]),
   midi.NoteOnEvent(tick=1789200, channel=0, data=[4, 100]),
   midi.NoteOffEvent(tick=1789300, channel=0, data=[4, 0]),
   midi.NoteOnEvent(tick=1789400, channel=0, data=[3, 100]),
   midi.NoteOffEvent(tick=1789500, channel=0, data=[3, 0]),
   midi.NoteOnEvent(tick=1789600, channel=0, data=[36, 100]),
   midi.NoteOffEvent(tick=1789700, channel=0, data=[36, 0]),
   midi.NoteOnEvent(tick=1789800, channel=0, data=[22, 100]),
   midi.NoteOffEvent(tick=1789900, channel=0, data=[22, 0]),
   midi.NoteOnEvent(tick=1790000, channel=0, data=[8, 100]),
   midi.NoteOffEvent(tick=1790100, channel=0, data=[8, 0]),
   midi.NoteOnEvent(tick=1790200, channel=0, data=[19, 100]),
   midi.NoteOffEvent(tick=1790300, channel=0, data=[19, 0]),
   midi.NoteOnEvent(tick=1790400, channel=0, data=[7, 100]),
   midi.NoteOffEvent(tick=1790500, channel=0, data=[7, 0]),
   midi.NoteOnEvent(tick=1790600, channel=0, data=[36, 100]),
   midi.NoteOffEvent(tick=1790700, channel=0, data=[36, 0]),
   midi.NoteOnEvent(tick=1790800, channel=0, data=[18, 100]),
   midi.NoteOffEvent(tick=1790900, channel=0, data=[18, 0]),
   midi.NoteOnEvent(tick=1791000, channel=0, data=[19, 100]),
   midi.NoteOffEvent(tick=1791100, channel=0, data=[19, 0]),
   midi.NoteOnEvent(tick=1791200, channel=0, data=[17, 100]),
   midi.NoteOffEvent(tick=1791300, channel=0, data=[17, 0]),
   midi.NoteOnEvent(tick=1791400, channel=0, data=[8, 100]),
   midi.NoteOffEvent(tick=1791500, channel=0, data=[8, 0]),
   midi.NoteOnEvent(tick=1791600, channel=0, data=[13, 100]),
   midi.NoteOffEvent(tick=1791700, channel=0, data=[13, 0]),
   midi.NoteOnEvent(tick=1791800, channel=0, data=[6, 100]),
   midi.NoteOffEvent(tick=1791900, channel=0, data=[6, 0]),
   midi.NoteOnEvent(tick=1792000, channel=0, data=[36, 100]),
   midi.NoteOffEvent(tick=1792100, channel=0, data=[36, 0]),
   midi.NoteOnEvent(tick=1792200, channel=0, data=[21, 100]),
   midi.NoteOffEvent(tick=1792300, channel=0, data=[21, 0]),
   midi.NoteOnEvent(tick=1792400, channel=0, data=[0, 100]),
   midi.NoteOffEvent(tick=1792500, channel=0, data=[0, 0]),
   midi.NoteOnEvent(tick=1792600, channel=0, data=[17, 100]),
   midi.NoteOffEvent(tick=1792700, channel=0, data=[17, 0]),
   midi.NoteOnEvent(tick=1792800, channel=0, data=[8, 100]),
   midi.NoteOffEvent(tick=1792900, channel=0, data=[8, 0]),
   midi.NoteOnEvent(tick=1793000, channel=0, data=[0, 100]),
   midi.NoteOffEvent(tick=1793100, channel=0, data=[0, 0]),
   midi.NoteOnEvent(tick=1793200, channel=0, data=[1, 100]),
   midi.NoteOffEvent(tick=1793300, channel=0, data=[1, 0]),
   midi.NoteOnEvent(tick=1793400, channel=0, data=[11, 100]),
   midi.NoteOffEvent(tick=1793500, channel=0, data=[11, 0]),
   midi.NoteOnEvent(tick=1793600, channel=0, data=[4, 100]),
   midi.NoteOffEvent(tick=1793700, channel=0, data=[4, 0]),
   midi.NoteOnEvent(tick=1793800, channel=0, data=[18, 100]),
   midi.NoteOffEvent(tick=1793900, channel=0, data=[18, 0]),
   midi.NoteOnEvent(tick=1794000, channel=0, data=[38, 100]),
   midi.NoteOffEvent(tick=1794100, channel=0, data=[38, 0]),
   midi.NoteOnEvent(tick=1794200, channel=0, data=[36, 100]),
   midi.NoteOffEvent(tick=1794300, channel=0, data=[36, 0]),
   midi.NoteOnEvent(tick=1794400, channel=0, data=[0, 100]),
   midi.NoteOffEvent(tick=1794500, channel=0, data=[0, 0]),
   midi.NoteOnEvent(tick=1794600, channel=0, data=[13, 100]),
   midi.NoteOffEvent(tick=1794700, channel=0, data=[13, 0]),
   midi.NoteOnEvent(tick=1794800, channel=0, data=[3, 100]),
   midi.NoteOffEvent(tick=1794900, channel=0, data=[3, 0]),
   midi.NoteOnEvent(tick=1795000, channel=0, data=[36, 100]),
   midi.NoteOffEvent(tick=1795100, channel=0, data=[36, 0]),
   midi.NoteOnEvent(tick=1795200, channel=0, data=[8, 100]),
   midi.NoteOffEvent(tick=1795300, channel=0, data=[8, 0]),
   midi.NoteOnEvent(tick=1795400, channel=0, data=[19, 100]),
   midi.NoteOffEvent(tick=1795500, channel=0, data=[19, 0]),
   midi.NoteOnEvent(tick=1795600, channel=0, data=[36, 100]),
   midi.NoteOffEvent(tick=1795700, channel=0, data=[36, 0]),
   midi.NoteOnEvent(tick=1795800, channel=0, data=[2, 100]),
   midi.NoteOffEvent(tick=1795900, channel=0, data=[2, 0]),
   midi.NoteOnEvent(tick=1796000, channel=0, data=[0, 100]),
   midi.NoteOffEvent(tick=1796100, channel=0, data=[0, 0]),
   midi.NoteOnEvent(tick=1796200, channel=0, data=[13, 100]),
   midi.NoteOffEvent(tick=1796300, channel=0, data=[13, 0]),
   midi.NoteOnEvent(tick=1796400, channel=0, data=[13, 100]),
   midi.NoteOffEvent(tick=1796500, channel=0, data=[13, 0]),
   midi.NoteOnEvent(tick=1796600, channel=0, data=[14, 100]),
   midi.NoteOffEvent(tick=1796700, channel=0, data=[14, 0]),
   midi.NoteOnEvent(tick=1796800, channel=0, data=[19, 100]),
   midi.NoteOffEvent(tick=1796900, channel=0, data=[19, 0]),
   midi.NoteOnEvent(tick=1797000, channel=0, data=[36, 100]),
   midi.NoteOffEvent(tick=1797100, channel=0, data=[36, 0]),
   midi.NoteOnEvent(tick=1797200, channel=0, data=[1, 100]),
   midi.NoteOffEvent(tick=1797300, channel=0, data=[1, 0]),
   midi.NoteOnEvent(tick=1797400, channel=0, data=[4, 100]),
   midi.NoteOffEvent(tick=1797500, channel=0, data=[4, 0]),
   midi.NoteOnEvent(tick=1797600, channel=0, data=[36, 100]),
   midi.NoteOffEvent(tick=1797700, channel=0, data=[36, 0]),
   midi.NoteOnEvent(tick=1797800, channel=0, data=[20, 100]),
   midi.NoteOffEvent(tick=1797900, channel=0, data=[20, 0]),
   midi.NoteOnEvent(tick=1798000, channel=0, data=[18, 100]),
   midi.NoteOffEvent(tick=1798100, channel=0, data=[18, 0]),
   midi.NoteOnEvent(tick=1798200, channel=0, data=[4, 100]),
   midi.NoteOffEvent(tick=1798300, channel=0, data=[4, 0]),
   midi.NoteOnEvent(tick=1798400, channel=0, data=[3, 100]),
   midi.NoteOffEvent(tick=1798500, channel=0, data=[3, 0]),
   midi.NoteOnEvent(tick=1798600, channel=0, data=[56, 100]),
   midi.NoteOffEvent(tick=1798700, channel=0, data=[56, 0]),
   midi.NoteOnEvent(tick=1798800, channel=0, data=[36, 100]),
   midi.NoteOffEvent(tick=1798900, channel=0, data=[36, 0]),
   midi.NoteOnEvent(tick=1799000, channel=0, data=[36, 100]),
   midi.NoteOffEvent(tick=1799100, channel=0, data=[36, 0]),
   midi.NoteOnEvent(tick=1799200, channel=0, data=[36, 100]),
   midi.NoteOffEvent(tick=1799300, channel=0, data=[36, 0]),
   midi.NoteOnEvent(tick=1799400, channel=0, data=[36, 100]),
   midi.NoteOffEvent(tick=1799500, channel=0, data=[36, 0]),
   midi.NoteOnEvent(tick=1799600, channel=0, data=[19, 100]),
   midi.NoteOffEvent(tick=1799700, channel=0, data=[19, 0]),
   midi.NoteOnEvent(tick=1799800, channel=0, data=[14, 100]),
   midi.NoteOffEvent(tick=1799900, channel=0, data=[14, 0]),
   midi.NoteOnEvent(tick=1800000, channel=0, data=[36, 100]),
   midi.NoteOffEvent(tick=1800100, channel=0, data=[36, 0]),
   midi.NoteOnEvent(tick=1800200, channel=0, data=[17, 100]),
   midi.NoteOffEvent(tick=1800300, channel=0, data=[17, 0]),
   midi.NoteOnEvent(tick=1800400, channel=0, data=[4, 100]),
   midi.NoteOffEvent(tick=1800500, channel=0, data=[4, 0]),
   midi.NoteOnEvent(tick=1800600, channel=0, data=[12, 100]),
   midi.NoteOffEvent(tick=1800700, channel=0, data=[12, 0]),
   midi.NoteOnEvent(tick=1800800, channel=0, data=[14, 100]),
   midi.NoteOffEvent(tick=1800900, channel=0, data=[14, 0]),
   midi.NoteOnEvent(tick=1801000, channel=0, data=[21, 100]),
   midi.NoteOffEvent(tick=1801100, channel=0, data=[21, 0]),
   midi.NoteOnEvent(tick=1801200, channel=0, data=[4, 100]),
   midi.NoteOffEvent(tick=1801300, channel=0, data=[4, 0]),
   midi.NoteOnEvent(tick=1801400, channel=0, data=[36, 100]),
   midi.NoteOffEvent(tick=1801500, channel=0, data=[36, 0]),
   midi.NoteOnEvent(tick=1801600, channel=0, data=[0, 100]),
   midi.NoteOffEvent(tick=1801700, channel=0, data=[0, 0]),
   midi.NoteOnEvent(tick=1801800, channel=0, data=[13, 100]),
   midi.NoteOffEvent(tick=1801900, channel=0, data=[13, 0]),
   midi.NoteOnEvent(tick=1802000, channel=0, data=[36, 100]),
   midi.NoteOffEvent(tick=1802100, channel=0, data=[36, 0]),
   midi.NoteOnEvent(tick=1802200, channel=0, data=[4, 100]),
   midi.NoteOffEvent(tick=1802300, channel=0, data=[4, 0]),
   midi.NoteOnEvent(tick=1802400, channel=0, data=[11, 100]),
   midi.NoteOffEvent(tick=1802500, channel=0, data=[11, 0]),
   midi.NoteOnEvent(tick=1802600, channel=0, data=[4, 100]),
   midi.NoteOffEvent(tick=1802700, channel=0, data=[4, 0]),
   midi.NoteOnEvent(tick=1802800, channel=0, data=[12, 100]),
   midi.NoteOffEvent(tick=1802900, channel=0, data=[12, 0]),
   midi.NoteOnEvent(tick=1803000, channel=0, data=[4, 100]),
   midi.NoteOffEvent(tick=1803100, channel=0, data=[4, 0]),
   midi.NoteOnEvent(tick=1803200, channel=0, data=[13, 100]),
   midi.NoteOffEvent(tick=1803300, channel=0, data=[13, 0]),
   midi.NoteOnEvent(tick=1803400, channel=0, data=[19, 100]),
   midi.NoteOffEvent(tick=1803500, channel=0, data=[19, 0]),
   midi.NoteOnEvent(tick=1803600, channel=0, data=[36, 100]),
   midi.NoteOffEvent(tick=1803700, channel=0, data=[36, 0]),
   midi.NoteOnEvent(tick=1803800, channel=0, data=[5, 100]),
   midi.NoteOffEvent(tick=1803900, channel=0, data=[5, 0]),
   midi.NoteOnEvent(tick=1804000, channel=0, data=[17, 100]),
   midi.NoteOffEvent(tick=1804100, channel=0, data=[17, 0]),
   midi.NoteOnEvent(tick=1804200, channel=0, data=[14, 100]),
   midi.NoteOffEvent(tick=1804300, channel=0, data=[14, 0]),
   midi.NoteOnEvent(tick=1804400, channel=0, data=[12, 100]),
   midi.NoteOffEvent(tick=1804500, channel=0, data=[12, 0]),
   midi.NoteOnEvent(tick=1804600, channel=0, data=[36, 100]),
   midi.NoteOffEvent(tick=1804700, channel=0, data=[36, 0]),
   midi.NoteOnEvent(tick=1804800, channel=0, data=[0, 100]),
   midi.NoteOffEvent(tick=1804900, channel=0, data=[0, 0]),
   midi.NoteOnEvent(tick=1805000, channel=0, data=[36, 100]),
   midi.NoteOffEvent(tick=1805100, channel=0, data=[36, 0]),
   midi.NoteOnEvent(tick=1805200, channel=0, data=[2, 100]),
   midi.NoteOffEvent(tick=1805300, channel=0, data=[2, 0]),
   midi.NoteOnEvent(tick=1805400, channel=0, data=[14, 100]),
   midi.NoteOffEvent(tick=1805500, channel=0, data=[14, 0]),
   midi.NoteOnEvent(tick=1805600, channel=0, data=[11, 100]),
   midi.NoteOffEvent(tick=1805700, channel=0, data=[11, 0]),
   midi.NoteOnEvent(tick=1805800, channel=0, data=[11, 100]),
   midi.NoteOffEvent(tick=1805900, channel=0, data=[11, 0]),
   midi.NoteOnEvent(tick=1806000, channel=0, data=[4, 100]),
   midi.NoteOffEvent(tick=1806100, channel=0, data=[4, 0]),
   midi.NoteOnEvent(tick=1806200, channel=0, data=[2, 100]),
   midi.NoteOffEvent(tick=1806300, channel=0, data=[2, 0]),
   midi.NoteOnEvent(tick=1806400, channel=0, data=[19, 100]),
   midi.NoteOffEvent(tick=1806500, channel=0, data=[19, 0]),
   midi.NoteOnEvent(tick=1806600, channel=0, data=[8, 100]),
   midi.NoteOffEvent(tick=1806700, channel=0, data=[8, 0]),
   midi.NoteOnEvent(tick=1806800, channel=0, data=[14, 100]),
   midi.NoteOffEvent(tick=1806900, channel=0, data=[14, 0]),
   midi.NoteOnEvent(tick=1807000, channel=0, data=[13, 100]),
   midi.NoteOffEvent(tick=1807100, channel=0, data=[13, 0]),
   midi.NoteOnEvent(tick=1807200, channel=0, data=[37, 100]),
   midi.NoteOffEvent(tick=1807300, channel=0, data=[37, 0]),
   midi.NoteOnEvent(tick=1807400, channel=0, data=[56, 100]),
   midi.NoteOffEvent(tick=1807500, channel=0, data=[56, 0]),
   midi.NoteOnEvent(tick=1807600, channel=0, data=[56, 100]),
   midi.NoteOffEvent(tick=1807700, channel=0, data=[56, 0]),
   midi.NoteOnEvent(tick=1807800, channel=0, data=[56, 100]),
   midi.NoteOffEvent(tick=1807900, channel=0, data=[56, 0]),
   midi.NoteOnEvent(tick=1808000, channel=0, data=[36, 100]),
   midi.NoteOffEvent(tick=1808100, channel=0, data=[36, 0]),
   midi.NoteOnEvent(tick=1808200, channel=0, data=[36, 100]),
   midi.NoteOffEvent(tick=1808300, channel=0, data=[36, 0]),
   midi.NoteOnEvent(tick=1808400, channel=0, data=[36, 100]),
   midi.NoteOffEvent(tick=1808500, channel=0, data=[36, 0]),
   midi.NoteOnEvent(tick=1808600, channel=0, data=[36, 100]),
   midi.NoteOffEvent(tick=1808700, channel=0, data=[36, 0]),
   midi.NoteOnEvent(tick=1808800, channel=0, data=[19, 100]),
   midi.NoteOffEvent(tick=1808900, channel=0, data=[19, 0]),
   midi.NoteOnEvent(tick=1809000, channel=0, data=[7, 100]),
   midi.NoteOffEvent(tick=1809100, channel=0, data=[7, 0]),
   midi.NoteOnEvent(tick=1809200, channel=0, data=[4, 100]),
   midi.NoteOffEvent(tick=1809300, channel=0, data=[4, 0]),
   midi.NoteOnEvent(tick=1809400, channel=0, data=[36, 100]),
   midi.NoteOffEvent(tick=1809500, channel=0, data=[36, 0]),
   midi.NoteOnEvent(tick=1809600, channel=0, data=[45, 100]),
   midi.NoteOffEvent(tick=1809700, channel=0, data=[45, 0]),
   midi.NoteOnEvent(tick=1809800, channel=0, data=[69, 100]),
   midi.NoteOffEvent(tick=1809900, channel=0, data=[69, 0]),
   midi.NoteOnEvent(tick=1810000, channel=0, data=[36, 100]),
   midi.NoteOffEvent(tick=1810100, channel=0, data=[36, 0]),
   midi.NoteOnEvent(tick=1810200, channel=0, data=[14, 100]),
   midi.NoteOffEvent(tick=1810300, channel=0, data=[14, 0]),
   midi.NoteOnEvent(tick=1810400, channel=0, data=[15, 100]),
   midi.NoteOffEvent(tick=1810500, channel=0, data=[15, 0]),
   midi.NoteOnEvent(tick=1810600, channel=0, data=[4, 100]),
   midi.NoteOffEvent(tick=1810700, channel=0, data=[4, 0]),
   midi.NoteOnEvent(tick=1810800, channel=0, data=[17, 100]),
   midi.NoteOffEvent(tick=1810900, channel=0, data=[17, 0]),
   midi.NoteOnEvent(tick=1811000, channel=0, data=[0, 100]),
   midi.NoteOffEvent(tick=1811100, channel=0, data=[0, 0]),
   midi.NoteOnEvent(tick=1811200, channel=0, data=[19, 100]),
   midi.NoteOffEvent(tick=1811300, channel=0, data=[19, 0]),
   midi.NoteOnEvent(tick=1811400, channel=0, data=[14, 100]),
   midi.NoteOffEvent(tick=1811500, channel=0, data=[14, 0]),
   midi.NoteOnEvent(tick=1811600, channel=0, data=[17, 100]),
   midi.NoteOffEvent(tick=1811700, channel=0, data=[17, 0]),
   midi.NoteOnEvent(tick=1811800, channel=0, data=[36, 100]),
   midi.NoteOffEvent(tick=1811900, channel=0, data=[36, 0]),
   midi.NoteOnEvent(tick=1812000, channel=0, data=[2, 100]),
   midi.NoteOffEvent(tick=1812100, channel=0, data=[2, 0]),
   midi.NoteOnEvent(tick=1812200, channel=0, data=[14, 100]),
   midi.NoteOffEvent(tick=1812300, channel=0, data=[14, 0]),
   midi.NoteOnEvent(tick=1812400, channel=0, data=[12, 100]),
   midi.NoteOffEvent(tick=1812500, channel=0, data=[12, 0]),
   midi.NoteOnEvent(tick=1812600, channel=0, data=[1, 100]),
   midi.NoteOffEvent(tick=1812700, channel=0, data=[1, 0]),
   midi.NoteOnEvent(tick=1812800, channel=0, data=[8, 100]),
   midi.NoteOffEvent(tick=1812900, channel=0, data=[8, 0]),
   midi.NoteOnEvent(tick=1813000, channel=0, data=[13, 100]),
   midi.NoteOffEvent(tick=1813100, channel=0, data=[13, 0]),
   midi.NoteOnEvent(tick=1813200, channel=0, data=[4, 100]),
   midi.NoteOffEvent(tick=1813300, channel=0, data=[4, 0]),
   midi.NoteOnEvent(tick=1813400, channel=0, data=[18, 100]),
   midi.NoteOffEvent(tick=1813500, channel=0, data=[18, 0]),
   midi.NoteOnEvent(tick=1813600, channel=0, data=[36, 100]),
   midi.NoteOffEvent(tick=1813700, channel=0, data=[36, 0]),
   midi.NoteOnEvent(tick=1813800, channel=0, data=[19, 100]),
   midi.NoteOffEvent(tick=1813900, channel=0, data=[19, 0]),
   midi.NoteOnEvent(tick=1814000, channel=0, data=[22, 100]),
   midi.NoteOffEvent(tick=1814100, channel=0, data=[22, 0]),
   midi.NoteOnEvent(tick=1814200, channel=0, data=[14, 100]),
   midi.NoteOffEvent(tick=1814300, channel=0, data=[14, 0]),
   midi.NoteOnEvent(tick=1814400, channel=0, data=[36, 100]),
   midi.NoteOffEvent(tick=1814500, channel=0, data=[36, 0]),
   midi.NoteOnEvent(tick=1814600, channel=0, data=[14, 100]),
   midi.NoteOffEvent(tick=1814700, channel=0, data=[14, 0]),
   midi.NoteOnEvent(tick=1814800, channel=0, data=[15, 100]),
   midi.NoteOffEvent(tick=1814900, channel=0, data=[15, 0]),
   midi.NoteOnEvent(tick=1815000, channel=0, data=[4, 100]),
   midi.NoteOffEvent(tick=1815100, channel=0, data=[4, 0]),
   midi.NoteOnEvent(tick=1815200, channel=0, data=[17, 100]),
   midi.NoteOffEvent(tick=1815300, channel=0, data=[17, 0]),
   midi.NoteOnEvent(tick=1815400, channel=0, data=[0, 100]),
   midi.NoteOffEvent(tick=1815500, channel=0, data=[0, 0]),
   midi.NoteOnEvent(tick=1815600, channel=0, data=[19, 100]),
   midi.NoteOffEvent(tick=1815700, channel=0, data=[19, 0]),
   midi.NoteOnEvent(tick=1815800, channel=0, data=[8, 100]),
   midi.NoteOffEvent(tick=1815900, channel=0, data=[8, 0]),
   midi.NoteOnEvent(tick=1816000, channel=0, data=[14, 100]),
   midi.NoteOffEvent(tick=1816100, channel=0, data=[14, 0]),
   midi.NoteOnEvent(tick=1816200, channel=0, data=[13, 100]),
   midi.NoteOffEvent(tick=1816300, channel=0, data=[13, 0]),
   midi.NoteOnEvent(tick=1816400, channel=0, data=[18, 100]),
   midi.NoteOffEvent(tick=1816500, channel=0, data=[18, 0]),
   midi.NoteOnEvent(tick=1816600, channel=0, data=[37, 100]),
   midi.NoteOffEvent(tick=1816700, channel=0, data=[37, 0]),
   midi.NoteOnEvent(tick=1816800, channel=0, data=[36, 100]),
   midi.NoteOffEvent(tick=1816900, channel=0, data=[36, 0]),
   midi.NoteOnEvent(tick=1817000, channel=0, data=[5, 100]),
   midi.NoteOffEvent(tick=1817100, channel=0, data=[5, 0]),
   midi.NoteOnEvent(tick=1817200, channel=0, data=[8, 100]),
   midi.NoteOffEvent(tick=1817300, channel=0, data=[8, 0]),
   midi.NoteOnEvent(tick=1817400, channel=0, data=[17, 100]),
   midi.NoteOffEvent(tick=1817500, channel=0, data=[17, 0]),
   midi.NoteOnEvent(tick=1817600, channel=0, data=[18, 100]),
   midi.NoteOffEvent(tick=1817700, channel=0, data=[18, 0]),
   midi.NoteOnEvent(tick=1817800, channel=0, data=[19, 100]),
   midi.NoteOffEvent(tick=1817900, channel=0, data=[19, 0]),
   midi.NoteOnEvent(tick=1818000, channel=0, data=[38, 100]),
   midi.NoteOffEvent(tick=1818100, channel=0, data=[38, 0]),
   midi.NoteOnEvent(tick=1818200, channel=0, data=[36, 100]),
   midi.NoteOffEvent(tick=1818300, channel=0, data=[36, 0]),
   midi.NoteOnEvent(tick=1818400, channel=0, data=[8, 100]),
   midi.NoteOffEvent(tick=1818500, channel=0, data=[8, 0]),
   midi.NoteOnEvent(tick=1818600, channel=0, data=[19, 100]),
   midi.NoteOffEvent(tick=1818700, channel=0, data=[19, 0]),
   midi.NoteOnEvent(tick=1818800, channel=0, data=[36, 100]),
   midi.NoteOffEvent(tick=1818900, channel=0, data=[36, 0]),
   midi.NoteOnEvent(tick=1819000, channel=0, data=[18, 100]),
   midi.NoteOffEvent(tick=1819100, channel=0, data=[18, 0]),
   midi.NoteOnEvent(tick=1819200, channel=0, data=[20, 100]),
   midi.NoteOffEvent(tick=1819300, channel=0, data=[20, 0]),
   midi.NoteOnEvent(tick=1819400, channel=0, data=[1, 100]),
   midi.NoteOffEvent(tick=1819500, channel=0, data=[1, 0]),
   midi.NoteOnEvent(tick=1819600, channel=0, data=[19, 100]),
   midi.NoteOffEvent(tick=1819700, channel=0, data=[19, 0]),
   midi.NoteOnEvent(tick=1819800, channel=0, data=[17, 100]),
   midi.NoteOffEvent(tick=1819900, channel=0, data=[17, 0]),
   midi.NoteOnEvent(tick=1820000, channel=0, data=[0, 100]),
   midi.NoteOffEvent(tick=1820100, channel=0, data=[0, 0]),
   midi.NoteOnEvent(tick=1820200, channel=0, data=[2, 100]),
   midi.NoteOffEvent(tick=1820300, channel=0, data=[2, 0]),
   midi.NoteOnEvent(tick=1820400, channel=0, data=[19, 100]),
   midi.NoteOffEvent(tick=1820500, channel=0, data=[19, 0]),
   midi.NoteOnEvent(tick=1820600, channel=0, data=[18, 100]),
   midi.NoteOffEvent(tick=1820700, channel=0, data=[18, 0]),
   midi.NoteOnEvent(tick=1820800, channel=0, data=[38, 100]),
   midi.NoteOffEvent(tick=1820900, channel=0, data=[38, 0]),
   midi.NoteOnEvent(tick=1821000, channel=0, data=[36, 100]),
   midi.NoteOffEvent(tick=1821100, channel=0, data=[36, 0]),
   midi.NoteOnEvent(tick=1821200, channel=0, data=[0, 100]),
   midi.NoteOffEvent(tick=1821300, channel=0, data=[0, 0]),
   midi.NoteOnEvent(tick=1821400, channel=0, data=[13, 100]),
   midi.NoteOffEvent(tick=1821500, channel=0, data=[13, 0]),
   midi.NoteOnEvent(tick=1821600, channel=0, data=[3, 100]),
   midi.NoteOffEvent(tick=1821700, channel=0, data=[3, 0]),
   midi.NoteOnEvent(tick=1821800, channel=0, data=[36, 100]),
   midi.NoteOffEvent(tick=1821900, channel=0, data=[36, 0]),
   midi.NoteOnEvent(tick=1822000, channel=0, data=[19, 100]),
   midi.NoteOffEvent(tick=1822100, channel=0, data=[19, 0]),
   midi.NoteOnEvent(tick=1822200, channel=0, data=[7, 100]),
   midi.NoteOffEvent(tick=1822300, channel=0, data=[7, 0]),
   midi.NoteOnEvent(tick=1822400, channel=0, data=[4, 100]),
   midi.NoteOffEvent(tick=1822500, channel=0, data=[4, 0]),
   midi.NoteOnEvent(tick=1822600, channel=0, data=[13, 100]),
   midi.NoteOffEvent(tick=1822700, channel=0, data=[13, 0]),
   midi.NoteOnEvent(tick=1822800, channel=0, data=[36, 100]),
   midi.NoteOffEvent(tick=1822900, channel=0, data=[36, 0]),
   midi.NoteOnEvent(tick=1823000, channel=0, data=[8, 100]),
   midi.NoteOffEvent(tick=1823100, channel=0, data=[8, 0]),
   midi.NoteOnEvent(tick=1823200, channel=0, data=[19, 100]),
   midi.NoteOffEvent(tick=1823300, channel=0, data=[19, 0]),
   midi.NoteOnEvent(tick=1823400, channel=0, data=[36, 100]),
   midi.NoteOffEvent(tick=1823500, channel=0, data=[36, 0]),
   midi.NoteOnEvent(tick=1823600, channel=0, data=[56, 100]),
   midi.NoteOffEvent(tick=1823700, channel=0, data=[56, 0]),
   midi.NoteOnEvent(tick=1823800, channel=0, data=[36, 100]),
   midi.NoteOffEvent(tick=1823900, channel=0, data=[36, 0]),
   midi.NoteOnEvent(tick=1824000, channel=0, data=[36, 100]),
   midi.NoteOffEvent(tick=1824100, channel=0, data=[36, 0]),
   midi.NoteOnEvent(tick=1824200, channel=0, data=[36, 100]),
   midi.NoteOffEvent(tick=1824300, channel=0, data=[36, 0]),
   midi.NoteOnEvent(tick=1824400, channel=0, data=[36, 100]),
   midi.NoteOffEvent(tick=1824500, channel=0, data=[36, 0]),
   midi.NoteOnEvent(tick=1824600, channel=0, data=[0, 100]),
   midi.NoteOffEvent(tick=1824700, channel=0, data=[0, 0]),
   midi.NoteOnEvent(tick=1824800, channel=0, data=[18, 100]),
   midi.NoteOffEvent(tick=1824900, channel=0, data=[18, 0]),
   midi.NoteOnEvent(tick=1825000, channel=0, data=[18, 100]),
   midi.NoteOffEvent(tick=1825100, channel=0, data=[18, 0]),
   midi.NoteOnEvent(tick=1825200, channel=0, data=[8, 100]),
   midi.NoteOffEvent(tick=1825300, channel=0, data=[8, 0]),
   midi.NoteOnEvent(tick=1825400, channel=0, data=[6, 100]),
   midi.NoteOffEvent(tick=1825500, channel=0, data=[6, 0]),
   midi.NoteOnEvent(tick=1825600, channel=0, data=[13, 100]),
   midi.NoteOffEvent(tick=1825700, channel=0, data=[13, 0]),
   midi.NoteOnEvent(tick=1825800, channel=0, data=[18, 100]),
   midi.NoteOffEvent(tick=1825900, channel=0, data=[18, 0]),
   midi.NoteOnEvent(tick=1826000, channel=0, data=[37, 100]),
   midi.NoteOffEvent(tick=1826100, channel=0, data=[37, 0]),
   midi.NoteOnEvent(tick=1826200, channel=0, data=[36, 100]),
   midi.NoteOffEvent(tick=1826300, channel=0, data=[36, 0]),
   midi.NoteOnEvent(tick=1826400, channel=0, data=[19, 100]),
   midi.NoteOffEvent(tick=1826500, channel=0, data=[19, 0]),
   midi.NoteOnEvent(tick=1826600, channel=0, data=[7, 100]),
   midi.NoteOffEvent(tick=1826700, channel=0, data=[7, 0]),
   midi.NoteOnEvent(tick=1826800, channel=0, data=[4, 100]),
   midi.NoteOffEvent(tick=1826900, channel=0, data=[4, 0]),
   midi.NoteOnEvent(tick=1827000, channel=0, data=[17, 100]),
   midi.NoteOffEvent(tick=1827100, channel=0, data=[17, 0]),
   midi.NoteOnEvent(tick=1827200, channel=0, data=[4, 100]),
   midi.NoteOffEvent(tick=1827300, channel=0, data=[4, 0]),
   midi.NoteOnEvent(tick=1827400, channel=0, data=[5, 100]),
   midi.NoteOffEvent(tick=1827500, channel=0, data=[5, 0]),
   midi.NoteOnEvent(tick=1827600, channel=0, data=[14, 100]),
   midi.NoteOffEvent(tick=1827700, channel=0, data=[14, 0]),
   midi.NoteOnEvent(tick=1827800, channel=0, data=[17, 100]),
   midi.NoteOffEvent(tick=1827900, channel=0, data=[17, 0]),
   midi.NoteOnEvent(tick=1828000, channel=0, data=[4, 100]),
   midi.NoteOffEvent(tick=1828100, channel=0, data=[4, 0]),
   midi.NoteOnEvent(tick=1828200, channel=0, data=[38, 100]),
   midi.NoteOffEvent(tick=1828300, channel=0, data=[38, 0]),
   midi.NoteOnEvent(tick=1828400, channel=0, data=[36, 100]),
   midi.NoteOffEvent(tick=1828500, channel=0, data=[36, 0]),
   midi.NoteOnEvent(tick=1828600, channel=0, data=[19, 100]),
   midi.NoteOffEvent(tick=1828700, channel=0, data=[19, 0]),
   midi.NoteOnEvent(tick=1828800, channel=0, data=[7, 100]),
   midi.NoteOffEvent(tick=1828900, channel=0, data=[7, 0]),
   midi.NoteOnEvent(tick=1829000, channel=0, data=[4, 100]),
   midi.NoteOffEvent(tick=1829100, channel=0, data=[4, 0]),
   midi.NoteOnEvent(tick=1829200, channel=0, data=[36, 100]),
   midi.NoteOffEvent(tick=1829300, channel=0, data=[36, 0]),
   midi.NoteOnEvent(tick=1829400, channel=0, data=[5, 100]),
   midi.NoteOffEvent(tick=1829500, channel=0, data=[5, 0]),
   midi.NoteOnEvent(tick=1829600, channel=0, data=[14, 100]),
   midi.NoteOffEvent(tick=1829700, channel=0, data=[14, 0]),
   midi.NoteOnEvent(tick=1829800, channel=0, data=[11, 100]),
   midi.NoteOffEvent(tick=1829900, channel=0, data=[11, 0]),
   midi.NoteOnEvent(tick=1830000, channel=0, data=[11, 100]),
   midi.NoteOffEvent(tick=1830100, channel=0, data=[11, 0]),
   midi.NoteOnEvent(tick=1830200, channel=0, data=[14, 100]),
   midi.NoteOffEvent(tick=1830300, channel=0, data=[14, 0]),
   midi.NoteOnEvent(tick=1830400, channel=0, data=[22, 100]),
   midi.NoteOffEvent(tick=1830500, channel=0, data=[22, 0]),
   midi.NoteOnEvent(tick=1830600, channel=0, data=[8, 100]),
   midi.NoteOffEvent(tick=1830700, channel=0, data=[8, 0]),
   midi.NoteOnEvent(tick=1830800, channel=0, data=[13, 100]),
   midi.NoteOffEvent(tick=1830900, channel=0, data=[13, 0]),
   midi.NoteOnEvent(tick=1831000, channel=0, data=[6, 100]),
   midi.NoteOffEvent(tick=1831100, channel=0, data=[6, 0]),
   midi.NoteOnEvent(tick=1831200, channel=0, data=[36, 100]),
   midi.NoteOffEvent(tick=1831300, channel=0, data=[36, 0]),
   midi.NoteOnEvent(tick=1831400, channel=0, data=[18, 100]),
   midi.NoteOffEvent(tick=1831500, channel=0, data=[18, 0]),
   midi.NoteOnEvent(tick=1831600, channel=0, data=[19, 100]),
   midi.NoteOffEvent(tick=1831700, channel=0, data=[19, 0]),
   midi.NoteOnEvent(tick=1831800, channel=0, data=[0, 100]),
   midi.NoteOffEvent(tick=1831900, channel=0, data=[0, 0]),
   midi.NoteOnEvent(tick=1832000, channel=0, data=[19, 100]),
   midi.NoteOffEvent(tick=1832100, channel=0, data=[19, 0]),
   midi.NoteOnEvent(tick=1832200, channel=0, data=[4, 100]),
   midi.NoteOffEvent(tick=1832300, channel=0, data=[4, 0]),
   midi.NoteOnEvent(tick=1832400, channel=0, data=[12, 100]),
   midi.NoteOffEvent(tick=1832500, channel=0, data=[12, 0]),
   midi.NoteOnEvent(tick=1832600, channel=0, data=[4, 100]),
   midi.NoteOffEvent(tick=1832700, channel=0, data=[4, 0]),
   midi.NoteOnEvent(tick=1832800, channel=0, data=[13, 100]),
   midi.NoteOffEvent(tick=1832900, channel=0, data=[13, 0]),
   midi.NoteOnEvent(tick=1833000, channel=0, data=[19, 100]),
   midi.NoteOffEvent(tick=1833100, channel=0, data=[19, 0]),
   midi.NoteOnEvent(tick=1833200, channel=0, data=[18, 100]),
   midi.NoteOffEvent(tick=1833300, channel=0, data=[18, 0]),
   midi.NoteOnEvent(tick=1833400, channel=0, data=[36, 100]),
   midi.NoteOffEvent(tick=1833500, channel=0, data=[36, 0]),
   midi.NoteOnEvent(tick=1833600, channel=0, data=[0, 100]),
   midi.NoteOffEvent(tick=1833700, channel=0, data=[0, 0]),
   midi.NoteOnEvent(tick=1833800, channel=0, data=[17, 100]),
   midi.NoteOffEvent(tick=1833900, channel=0, data=[17, 0]),
   midi.NoteOnEvent(tick=1834000, channel=0, data=[4, 100]),
   midi.NoteOffEvent(tick=1834100, channel=0, data=[4, 0]),
   midi.NoteOnEvent(tick=1834200, channel=0, data=[36, 100]),
   midi.NoteOffEvent(tick=1834300, channel=0, data=[36, 0]),
   midi.NoteOnEvent(tick=1834400, channel=0, data=[4, 100]),
   midi.NoteOffEvent(tick=1834500, channel=0, data=[4, 0]),
   midi.NoteOnEvent(tick=1834600, channel=0, data=[16, 100]),
   midi.NoteOffEvent(tick=1834700, channel=0, data=[16, 0]),
   midi.NoteOnEvent(tick=1834800, channel=0, data=[20, 100]),
   midi.NoteOffEvent(tick=1834900, channel=0, data=[20, 0]),
   midi.NoteOnEvent(tick=1835000, channel=0, data=[8, 100]),
   midi.NoteOffEvent(tick=1835100, channel=0, data=[8, 0]),
   midi.NoteOnEvent(tick=1835200, channel=0, data=[21, 100]),
   midi.NoteOffEvent(tick=1835300, channel=0, data=[21, 0]),
   midi.NoteOnEvent(tick=1835400, channel=0, data=[0, 100]),
   midi.NoteOffEvent(tick=1835500, channel=0, data=[0, 0]),
   midi.NoteOnEvent(tick=1835600, channel=0, data=[11, 100]),
   midi.NoteOffEvent(tick=1835700, channel=0, data=[11, 0]),
   midi.NoteOnEvent(tick=1835800, channel=0, data=[4, 100]),
   midi.NoteOffEvent(tick=1835900, channel=0, data=[4, 0]),
   midi.NoteOnEvent(tick=1836000, channel=0, data=[13, 100]),
   midi.NoteOffEvent(tick=1836100, channel=0, data=[13, 0]),
   midi.NoteOnEvent(tick=1836200, channel=0, data=[19, 100]),
   midi.NoteOffEvent(tick=1836300, channel=0, data=[19, 0]),
   midi.NoteOnEvent(tick=1836400, channel=0, data=[46, 100]),
   midi.NoteOffEvent(tick=1836500, channel=0, data=[46, 0]),
   midi.NoteOnEvent(tick=1836600, channel=0, data=[56, 100]),
   midi.NoteOffEvent(tick=1836700, channel=0, data=[56, 0]),
   midi.NoteOnEvent(tick=1836800, channel=0, data=[56, 100]),
   midi.NoteOffEvent(tick=1836900, channel=0, data=[56, 0]),
   midi.NoteOnEvent(tick=1837000, channel=0, data=[56, 100]),
   midi.NoteOffEvent(tick=1837100, channel=0, data=[56, 0]),
   midi.NoteOnEvent(tick=1837200, channel=0, data=[36, 100]),
   midi.NoteOffEvent(tick=1837300, channel=0, data=[36, 0]),
   midi.NoteOnEvent(tick=1837400, channel=0, data=[36, 100]),
   midi.NoteOffEvent(tick=1837500, channel=0, data=[36, 0]),
   midi.NoteOnEvent(tick=1837600, channel=0, data=[36, 100]),
   midi.NoteOffEvent(tick=1837700, channel=0, data=[36, 0]),
   midi.NoteOnEvent(tick=1837800, channel=0, data=[36, 100]),
   midi.NoteOffEvent(tick=1837900, channel=0, data=[36, 0]),
   midi.NoteOnEvent(tick=1838000, channel=0, data=[36, 100]),
   midi.NoteOffEvent(tick=1838100, channel=0, data=[36, 0]),
   midi.NoteOnEvent(tick=1838200, channel=0, data=[36, 100]),
   midi.NoteOffEvent(tick=1838300, channel=0, data=[36, 0]),
   midi.NoteOnEvent(tick=1838400, channel=0, data=[36, 100]),
   midi.NoteOffEvent(tick=1838500, channel=0, data=[36, 0]),
   midi.NoteOnEvent(tick=1838600, channel=0, data=[36, 100]),
   midi.NoteOffEvent(tick=1838700, channel=0, data=[36, 0]),
   midi.NoteOnEvent(tick=1838800, channel=0, data=[74, 100]),
   midi.NoteOffEvent(tick=1838900, channel=0, data=[74, 0]),
   midi.NoteOnEvent(tick=1839000, channel=0, data=[0, 100]),
   midi.NoteOffEvent(tick=1839100, channel=0, data=[0, 0]),
   midi.NoteOnEvent(tick=1839200, channel=0, data=[36, 100]),
   midi.NoteOffEvent(tick=1839300, channel=0, data=[36, 0]),
   midi.NoteOnEvent(tick=1839400, channel=0, data=[45, 100]),
   midi.NoteOffEvent(tick=1839500, channel=0, data=[45, 0]),
   midi.NoteOnEvent(tick=1839600, channel=0, data=[69, 100]),
   midi.NoteOffEvent(tick=1839700, channel=0, data=[69, 0]),
   midi.NoteOnEvent(tick=1839800, channel=0, data=[36, 100]),
   midi.NoteOffEvent(tick=1839900, channel=0, data=[36, 0]),
   midi.NoteOnEvent(tick=1840000, channel=0, data=[28, 100]),
   midi.NoteOffEvent(tick=1840100, channel=0, data=[28, 0]),
   midi.NoteOnEvent(tick=1840200, channel=0, data=[56, 100]),
   midi.NoteOffEvent(tick=1840300, channel=0, data=[56, 0]),
   midi.NoteOnEvent(tick=1840400, channel=0, data=[36, 100]),
   midi.NoteOffEvent(tick=1840500, channel=0, data=[36, 0]),
   midi.NoteOnEvent(tick=1840600, channel=0, data=[36, 100]),
   midi.NoteOffEvent(tick=1840700, channel=0, data=[36, 0]),
   midi.NoteOnEvent(tick=1840800, channel=0, data=[36, 100]),
   midi.NoteOffEvent(tick=1840900, channel=0, data=[36, 0]),
   midi.NoteOnEvent(tick=1841000, channel=0, data=[36, 100]),
   midi.NoteOffEvent(tick=1841100, channel=0, data=[36, 0]),
   midi.NoteOnEvent(tick=1841200, channel=0, data=[36, 100]),
   midi.NoteOffEvent(tick=1841300, channel=0, data=[36, 0]),
   midi.NoteOnEvent(tick=1841400, channel=0, data=[36, 100]),
   midi.NoteOffEvent(tick=1841500, channel=0, data=[36, 0]),
   midi.NoteOnEvent(tick=1841600, channel=0, data=[36, 100]),
   midi.NoteOffEvent(tick=1841700, channel=0, data=[36, 0]),
   midi.NoteOnEvent(tick=1841800, channel=0, data=[36, 100]),
   midi.NoteOffEvent(tick=1841900, channel=0, data=[36, 0]),
   midi.NoteOnEvent(tick=1842000, channel=0, data=[74, 100]),
   midi.NoteOffEvent(tick=1842100, channel=0, data=[74, 0]),
   midi.NoteOnEvent(tick=1842200, channel=0, data=[0, 100]),
   midi.NoteOffEvent(tick=1842300, channel=0, data=[0, 0]),
   midi.NoteOnEvent(tick=1842400, channel=0, data=[36, 100]),
   midi.NoteOffEvent(tick=1842500, channel=0, data=[36, 0]),
   midi.NoteOnEvent(tick=1842600, channel=0, data=[69, 100]),
   midi.NoteOffEvent(tick=1842700, channel=0, data=[69, 0]),
   midi.NoteOnEvent(tick=1842800, channel=0, data=[36, 100]),
   midi.NoteOffEvent(tick=1842900, channel=0, data=[36, 0]),
   midi.NoteOnEvent(tick=1843000, channel=0, data=[49, 100]),
   midi.NoteOffEvent(tick=1843100, channel=0, data=[49, 0]),
   midi.NoteOnEvent(tick=1843200, channel=0, data=[74, 100]),
   midi.NoteOffEvent(tick=1843300, channel=0, data=[74, 0]),
   midi.NoteOnEvent(tick=1843400, channel=0, data=[0, 100]),
   midi.NoteOffEvent(tick=1843500, channel=0, data=[0, 0]),
   midi.NoteOnEvent(tick=1843600, channel=0, data=[36, 100]),
   midi.NoteOffEvent(tick=1843700, channel=0, data=[36, 0]),
   midi.NoteOnEvent(tick=1843800, channel=0, data=[45, 100]),
   midi.NoteOffEvent(tick=1843900, channel=0, data=[45, 0]),
   midi.NoteOnEvent(tick=1844000, channel=0, data=[36, 100]),
   midi.NoteOffEvent(tick=1844100, channel=0, data=[36, 0]),
   midi.NoteOnEvent(tick=1844200, channel=0, data=[28, 100]),
   midi.NoteOffEvent(tick=1844300, channel=0, data=[28, 0]),
   midi.NoteOnEvent(tick=1844400, channel=0, data=[50, 100]),
   midi.NoteOffEvent(tick=1844500, channel=0, data=[50, 0]),
   midi.NoteOnEvent(tick=1844600, channel=0, data=[56, 100]),
   midi.NoteOffEvent(tick=1844700, channel=0, data=[56, 0]),
   midi.NoteOnEvent(tick=1844800, channel=0, data=[56, 100]),
   midi.NoteOffEvent(tick=1844900, channel=0, data=[56, 0]),
   midi.NoteOnEvent(tick=1845000, channel=0, data=[36, 100]),
   midi.NoteOffEvent(tick=1845100, channel=0, data=[36, 0]),
   midi.NoteOnEvent(tick=1845200, channel=0, data=[56, 100]),
   midi.NoteOffEvent(tick=1845300, channel=0, data=[56, 0]),
   midi.NoteOnEvent(tick=1845400, channel=0, data=[36, 100]),
   midi.NoteOffEvent(tick=1845500, channel=0, data=[36, 0]),
   midi.NoteOnEvent(tick=1845600, channel=0, data=[36, 100]),
   midi.NoteOffEvent(tick=1845700, channel=0, data=[36, 0]),
   midi.NoteOnEvent(tick=1845800, channel=0, data=[36, 100]),
   midi.NoteOffEvent(tick=1845900, channel=0, data=[36, 0]),
   midi.NoteOnEvent(tick=1846000, channel=0, data=[36, 100]),
   midi.NoteOffEvent(tick=1846100, channel=0, data=[36, 0]),
   midi.NoteOnEvent(tick=1846200, channel=0, data=[19, 100]),
   midi.NoteOffEvent(tick=1846300, channel=0, data=[19, 0]),
   midi.NoteOnEvent(tick=1846400, channel=0, data=[7, 100]),
   midi.NoteOffEvent(tick=1846500, channel=0, data=[7, 0]),
   midi.NoteOnEvent(tick=1846600, channel=0, data=[4, 100]),
   midi.NoteOffEvent(tick=1846700, channel=0, data=[4, 0]),
   midi.NoteOnEvent(tick=1846800, channel=0, data=[36, 100]),
   midi.NoteOffEvent(tick=1846900, channel=0, data=[36, 0]),
   midi.NoteOnEvent(tick=1847000, channel=0, data=[5, 100]),
   midi.NoteOffEvent(tick=1847100, channel=0, data=[5, 0]),
   midi.NoteOnEvent(tick=1847200, channel=0, data=[14, 100]),
   midi.NoteOffEvent(tick=1847300, channel=0, data=[14, 0]),
   midi.NoteOnEvent(tick=1847400, channel=0, data=[11, 100]),
   midi.NoteOffEvent(tick=1847500, channel=0, data=[11, 0]),
   midi.NoteOnEvent(tick=1847600, channel=0, data=[11, 100]),
   midi.NoteOffEvent(tick=1847700, channel=0, data=[11, 0]),
   midi.NoteOnEvent(tick=1847800, channel=0, data=[14, 100]),
   midi.NoteOffEvent(tick=1847900, channel=0, data=[14, 0]),
   midi.NoteOnEvent(tick=1848000, channel=0, data=[22, 100]),
   midi.NoteOffEvent(tick=1848100, channel=0, data=[22, 0]),
   midi.NoteOnEvent(tick=1848200, channel=0, data=[8, 100]),
   midi.NoteOffEvent(tick=1848300, channel=0, data=[8, 0]),
   midi.NoteOnEvent(tick=1848400, channel=0, data=[13, 100]),
   midi.NoteOffEvent(tick=1848500, channel=0, data=[13, 0]),
   midi.NoteOnEvent(tick=1848600, channel=0, data=[6, 100]),
   midi.NoteOffEvent(tick=1848700, channel=0, data=[6, 0]),
   midi.NoteOnEvent(tick=1848800, channel=0, data=[36, 100]),
   midi.NoteOffEvent(tick=1848900, channel=0, data=[36, 0]),
   midi.NoteOnEvent(tick=1849000, channel=0, data=[4, 100]),
   midi.NoteOffEvent(tick=1849100, channel=0, data=[4, 0]),
   midi.NoteOnEvent(tick=1849200, channel=0, data=[23, 100]),
   midi.NoteOffEvent(tick=1849300, channel=0, data=[23, 0]),
   midi.NoteOnEvent(tick=1849400, channel=0, data=[0, 100]),
   midi.NoteOffEvent(tick=1849500, channel=0, data=[0, 0]),
   midi.NoteOnEvent(tick=1849600, channel=0, data=[12, 100]),
   midi.NoteOffEvent(tick=1849700, channel=0, data=[12, 0]),
   midi.NoteOnEvent(tick=1849800, channel=0, data=[15, 100]),
   midi.NoteOffEvent(tick=1849900, channel=0, data=[15, 0]),
   midi.NoteOnEvent(tick=1850000, channel=0, data=[11, 100]),
   midi.NoteOffEvent(tick=1850100, channel=0, data=[11, 0]),
   midi.NoteOnEvent(tick=1850200, channel=0, data=[4, 100]),
   midi.NoteOffEvent(tick=1850300, channel=0, data=[4, 0]),
   midi.NoteOnEvent(tick=1850400, channel=0, data=[36, 100]),
   midi.NoteOffEvent(tick=1850500, channel=0, data=[36, 0]),
   midi.NoteOnEvent(tick=1850600, channel=0, data=[18, 100]),
   midi.NoteOffEvent(tick=1850700, channel=0, data=[18, 0]),
   midi.NoteOnEvent(tick=1850800, channel=0, data=[7, 100]),
   midi.NoteOffEvent(tick=1850900, channel=0, data=[7, 0]),
   midi.NoteOnEvent(tick=1851000, channel=0, data=[14, 100]),
   midi.NoteOffEvent(tick=1851100, channel=0, data=[14, 0]),
   midi.NoteOnEvent(tick=1851200, channel=0, data=[22, 100]),
   midi.NoteOffEvent(tick=1851300, channel=0, data=[22, 0]),
   midi.NoteOnEvent(tick=1851400, channel=0, data=[18, 100]),
   midi.NoteOffEvent(tick=1851500, channel=0, data=[18, 0]),
   midi.NoteOnEvent(tick=1851600, channel=0, data=[36, 100]),
   midi.NoteOffEvent(tick=1851700, channel=0, data=[36, 0]),
   midi.NoteOnEvent(tick=1851800, channel=0, data=[7, 100]),
   midi.NoteOffEvent(tick=1851900, channel=0, data=[7, 0]),
   midi.NoteOnEvent(tick=1852000, channel=0, data=[14, 100]),
   midi.NoteOffEvent(tick=1852100, channel=0, data=[14, 0]),
   midi.NoteOnEvent(tick=1852200, channel=0, data=[22, 100]),
   midi.NoteOffEvent(tick=1852300, channel=0, data=[22, 0]),
   midi.NoteOnEvent(tick=1852400, channel=0, data=[36, 100]),
   midi.NoteOffEvent(tick=1852500, channel=0, data=[36, 0]),
   midi.NoteOnEvent(tick=1852600, channel=0, data=[19, 100]),
   midi.NoteOffEvent(tick=1852700, channel=0, data=[19, 0]),
   midi.NoteOnEvent(tick=1852800, channel=0, data=[14, 100]),
   midi.NoteOffEvent(tick=1852900, channel=0, data=[14, 0]),
   midi.NoteOnEvent(tick=1853000, channel=0, data=[36, 100]),
   midi.NoteOffEvent(tick=1853100, channel=0, data=[36, 0]),
   midi.NoteOnEvent(tick=1853200, channel=0, data=[20, 100]),
   midi.NoteOffEvent(tick=1853300, channel=0, data=[20, 0]),
   midi.NoteOnEvent(tick=1853400, channel=0, data=[18, 100]),
   midi.NoteOffEvent(tick=1853500, channel=0, data=[18, 0]),
   midi.NoteOnEvent(tick=1853600, channel=0, data=[4, 100]),
   midi.NoteOffEvent(tick=1853700, channel=0, data=[4, 0]),
   midi.NoteOnEvent(tick=1853800, channel=0, data=[36, 100]),
   midi.NoteOffEvent(tick=1853900, channel=0, data=[36, 0]),
   midi.NoteOnEvent(tick=1854000, channel=0, data=[14, 100]),
   midi.NoteOffEvent(tick=1854100, channel=0, data=[14, 0]),
   midi.NoteOnEvent(tick=1854200, channel=0, data=[5, 100]),
   midi.NoteOffEvent(tick=1854300, channel=0, data=[5, 0]),
   midi.NoteOnEvent(tick=1854400, channel=0, data=[36, 100]),
   midi.NoteOffEvent(tick=1854500, channel=0, data=[36, 0]),
   midi.NoteOnEvent(tick=1854600, channel=0, data=[19, 100]),
   midi.NoteOffEvent(tick=1854700, channel=0, data=[19, 0]),
   midi.NoteOnEvent(tick=1854800, channel=0, data=[7, 100]),
   midi.NoteOffEvent(tick=1854900, channel=0, data=[7, 0]),
   midi.NoteOnEvent(tick=1855000, channel=0, data=[4, 100]),
   midi.NoteOffEvent(tick=1855100, channel=0, data=[4, 0]),
   midi.NoteOnEvent(tick=1855200, channel=0, data=[36, 100]),
   midi.NoteOffEvent(tick=1855300, channel=0, data=[36, 0]),
   midi.NoteOnEvent(tick=1855400, channel=0, data=[45, 100]),
   midi.NoteOffEvent(tick=1855500, channel=0, data=[45, 0]),
   midi.NoteOnEvent(tick=1855600, channel=0, data=[69, 100]),
   midi.NoteOffEvent(tick=1855700, channel=0, data=[69, 0]),
   midi.NoteOnEvent(tick=1855800, channel=0, data=[36, 100]),
   midi.NoteOffEvent(tick=1855900, channel=0, data=[36, 0]),
   midi.NoteOnEvent(tick=1856000, channel=0, data=[14, 100]),
   midi.NoteOffEvent(tick=1856100, channel=0, data=[14, 0]),
   midi.NoteOnEvent(tick=1856200, channel=0, data=[15, 100]),
   midi.NoteOffEvent(tick=1856300, channel=0, data=[15, 0]),
   midi.NoteOnEvent(tick=1856400, channel=0, data=[4, 100]),
   midi.NoteOffEvent(tick=1856500, channel=0, data=[4, 0]),
   midi.NoteOnEvent(tick=1856600, channel=0, data=[17, 100]),
   midi.NoteOffEvent(tick=1856700, channel=0, data=[17, 0]),
   midi.NoteOnEvent(tick=1856800, channel=0, data=[0, 100]),
   midi.NoteOffEvent(tick=1856900, channel=0, data=[0, 0]),
   midi.NoteOnEvent(tick=1857000, channel=0, data=[19, 100]),
   midi.NoteOffEvent(tick=1857100, channel=0, data=[19, 0]),
   midi.NoteOnEvent(tick=1857200, channel=0, data=[14, 100]),
   midi.NoteOffEvent(tick=1857300, channel=0, data=[14, 0]),
   midi.NoteOnEvent(tick=1857400, channel=0, data=[17, 100]),
   midi.NoteOffEvent(tick=1857500, channel=0, data=[17, 0]),
   midi.NoteOnEvent(tick=1857600, channel=0, data=[36, 100]),
   midi.NoteOffEvent(tick=1857700, channel=0, data=[36, 0]),
   midi.NoteOnEvent(tick=1857800, channel=0, data=[19, 100]),
   midi.NoteOffEvent(tick=1857900, channel=0, data=[19, 0]),
   midi.NoteOnEvent(tick=1858000, channel=0, data=[14, 100]),
   midi.NoteOffEvent(tick=1858100, channel=0, data=[14, 0]),
   midi.NoteOnEvent(tick=1858200, channel=0, data=[36, 100]),
   midi.NoteOffEvent(tick=1858300, channel=0, data=[36, 0]),
   midi.NoteOnEvent(tick=1858400, channel=0, data=[3, 100]),
   midi.NoteOffEvent(tick=1858500, channel=0, data=[3, 0]),
   midi.NoteOnEvent(tick=1858600, channel=0, data=[4, 100]),
   midi.NoteOffEvent(tick=1858700, channel=0, data=[4, 0]),
   midi.NoteOnEvent(tick=1858800, channel=0, data=[2, 100]),
   midi.NoteOffEvent(tick=1858900, channel=0, data=[2, 0]),
   midi.NoteOnEvent(tick=1859000, channel=0, data=[17, 100]),
   midi.NoteOffEvent(tick=1859100, channel=0, data=[17, 0]),
   midi.NoteOnEvent(tick=1859200, channel=0, data=[4, 100]),
   midi.NoteOffEvent(tick=1859300, channel=0, data=[4, 0]),
   midi.NoteOnEvent(tick=1859400, channel=0, data=[0, 100]),
   midi.NoteOffEvent(tick=1859500, channel=0, data=[0, 0]),
   midi.NoteOnEvent(tick=1859600, channel=0, data=[18, 100]),
   midi.NoteOffEvent(tick=1859700, channel=0, data=[18, 0]),
   midi.NoteOnEvent(tick=1859800, channel=0, data=[4, 100]),
   midi.NoteOffEvent(tick=1859900, channel=0, data=[4, 0]),
   midi.NoteOnEvent(tick=1860000, channel=0, data=[36, 100]),
   midi.NoteOffEvent(tick=1860100, channel=0, data=[36, 0]),
   midi.NoteOnEvent(tick=1860200, channel=0, data=[19, 100]),
   midi.NoteOffEvent(tick=1860300, channel=0, data=[19, 0]),
   midi.NoteOnEvent(tick=1860400, channel=0, data=[7, 100]),
   midi.NoteOffEvent(tick=1860500, channel=0, data=[7, 0]),
   midi.NoteOnEvent(tick=1860600, channel=0, data=[4, 100]),
   midi.NoteOffEvent(tick=1860700, channel=0, data=[4, 0]),
   midi.NoteOnEvent(tick=1860800, channel=0, data=[36, 100]),
   midi.NoteOffEvent(tick=1860900, channel=0, data=[36, 0]),
   midi.NoteOnEvent(tick=1861000, channel=0, data=[56, 100]),
   midi.NoteOffEvent(tick=1861100, channel=0, data=[56, 0]),
   midi.NoteOnEvent(tick=1861200, channel=0, data=[36, 100]),
   midi.NoteOffEvent(tick=1861300, channel=0, data=[36, 0]),
   midi.NoteOnEvent(tick=1861400, channel=0, data=[36, 100]),
   midi.NoteOffEvent(tick=1861500, channel=0, data=[36, 0]),
   midi.NoteOnEvent(tick=1861600, channel=0, data=[36, 100]),
   midi.NoteOffEvent(tick=1861700, channel=0, data=[36, 0]),
   midi.NoteOnEvent(tick=1861800, channel=0, data=[36, 100]),
   midi.NoteOffEvent(tick=1861900, channel=0, data=[36, 0]),
   midi.NoteOnEvent(tick=1862000, channel=0, data=[21, 100]),
   midi.NoteOffEvent(tick=1862100, channel=0, data=[21, 0]),
   midi.NoteOnEvent(tick=1862200, channel=0, data=[0, 100]),
   midi.NoteOffEvent(tick=1862300, channel=0, data=[0, 0]),
   midi.NoteOnEvent(tick=1862400, channel=0, data=[11, 100]),
   midi.NoteOffEvent(tick=1862500, channel=0, data=[11, 0]),
   midi.NoteOnEvent(tick=1862600, channel=0, data=[20, 100]),
   midi.NoteOffEvent(tick=1862700, channel=0, data=[20, 0]),
   midi.NoteOnEvent(tick=1862800, channel=0, data=[4, 100]),
   midi.NoteOffEvent(tick=1862900, channel=0, data=[4, 0]),
   midi.NoteOnEvent(tick=1863000, channel=0, data=[36, 100]),
   midi.NoteOffEvent(tick=1863100, channel=0, data=[36, 0]),
   midi.NoteOnEvent(tick=1863200, channel=0, data=[14, 100]),
   midi.NoteOffEvent(tick=1863300, channel=0, data=[14, 0]),
   midi.NoteOnEvent(tick=1863400, channel=0, data=[5, 100]),
   midi.NoteOffEvent(tick=1863500, channel=0, data=[5, 0]),
   midi.NoteOnEvent(tick=1863600, channel=0, data=[36, 100]),
   midi.NoteOffEvent(tick=1863700, channel=0, data=[36, 0]),
   midi.NoteOnEvent(tick=1863800, channel=0, data=[0, 100]),
   midi.NoteOffEvent(tick=1863900, channel=0, data=[0, 0]),
   midi.NoteOnEvent(tick=1864000, channel=0, data=[36, 100]),
   midi.NoteOffEvent(tick=1864100, channel=0, data=[36, 0]),
   midi.NoteOnEvent(tick=1864200, channel=0, data=[21, 100]),
   midi.NoteOffEvent(tick=1864300, channel=0, data=[21, 0]),
   midi.NoteOnEvent(tick=1864400, channel=0, data=[0, 100]),
   midi.NoteOffEvent(tick=1864500, channel=0, data=[0, 0]),
   midi.NoteOnEvent(tick=1864600, channel=0, data=[17, 100]),
   midi.NoteOffEvent(tick=1864700, channel=0, data=[17, 0]),
   midi.NoteOnEvent(tick=1864800, channel=0, data=[8, 100]),
   midi.NoteOffEvent(tick=1864900, channel=0, data=[8, 0]),
   midi.NoteOnEvent(tick=1865000, channel=0, data=[0, 100]),
   midi.NoteOffEvent(tick=1865100, channel=0, data=[0, 0]),
   midi.NoteOnEvent(tick=1865200, channel=0, data=[1, 100]),
   midi.NoteOffEvent(tick=1865300, channel=0, data=[1, 0]),
   midi.NoteOnEvent(tick=1865400, channel=0, data=[11, 100]),
   midi.NoteOffEvent(tick=1865500, channel=0, data=[11, 0]),
   midi.NoteOnEvent(tick=1865600, channel=0, data=[4, 100]),
   midi.NoteOffEvent(tick=1865700, channel=0, data=[4, 0]),
   midi.NoteOnEvent(tick=1865800, channel=0, data=[46, 100]),
   midi.NoteOffEvent(tick=1865900, channel=0, data=[46, 0]),
   midi.NoteOnEvent(tick=1866000, channel=0, data=[56, 100]),
   midi.NoteOffEvent(tick=1866100, channel=0, data=[56, 0]),
   midi.NoteOnEvent(tick=1866200, channel=0, data=[56, 100]),
   midi.NoteOffEvent(tick=1866300, channel=0, data=[56, 0]),
   midi.NoteOnEvent(tick=1866400, channel=0, data=[56, 100]),
   midi.NoteOffEvent(tick=1866500, channel=0, data=[56, 0]),
   midi.NoteOnEvent(tick=1866600, channel=0, data=[36, 100]),
   midi.NoteOffEvent(tick=1866700, channel=0, data=[36, 0]),
   midi.NoteOnEvent(tick=1866800, channel=0, data=[36, 100]),
   midi.NoteOffEvent(tick=1866900, channel=0, data=[36, 0]),
   midi.NoteOnEvent(tick=1867000, channel=0, data=[36, 100]),
   midi.NoteOffEvent(tick=1867100, channel=0, data=[36, 0]),
   midi.NoteOnEvent(tick=1867200, channel=0, data=[36, 100]),
   midi.NoteOffEvent(tick=1867300, channel=0, data=[36, 0]),
   midi.NoteOnEvent(tick=1867400, channel=0, data=[36, 100]),
   midi.NoteOffEvent(tick=1867500, channel=0, data=[36, 0]),
   midi.NoteOnEvent(tick=1867600, channel=0, data=[36, 100]),
   midi.NoteOffEvent(tick=1867700, channel=0, data=[36, 0]),
   midi.NoteOnEvent(tick=1867800, channel=0, data=[36, 100]),
   midi.NoteOffEvent(tick=1867900, channel=0, data=[36, 0]),
   midi.NoteOnEvent(tick=1868000, channel=0, data=[36, 100]),
   midi.NoteOffEvent(tick=1868100, channel=0, data=[36, 0]),
   midi.NoteOnEvent(tick=1868200, channel=0, data=[2, 100]),
   midi.NoteOffEvent(tick=1868300, channel=0, data=[2, 0]),
   midi.NoteOnEvent(tick=1868400, channel=0, data=[46, 100]),
   midi.NoteOffEvent(tick=1868500, channel=0, data=[46, 0]),
   midi.NoteOnEvent(tick=1868600, channel=0, data=[78, 100]),
   midi.NoteOffEvent(tick=1868700, channel=0, data=[78, 0]),
   midi.NoteOnEvent(tick=1868800, channel=0, data=[15, 100]),
   midi.NoteOffEvent(tick=1868900, channel=0, data=[15, 0]),
   midi.NoteOnEvent(tick=1869000, channel=0, data=[18, 100]),
   midi.NoteOffEvent(tick=1869100, channel=0, data=[18, 0]),
   midi.NoteOnEvent(tick=1869200, channel=0, data=[73, 100]),
   midi.NoteOffEvent(tick=1869300, channel=0, data=[73, 0]),
   midi.NoteOnEvent(tick=1869400, channel=0, data=[36, 100]),
   midi.NoteOffEvent(tick=1869500, channel=0, data=[36, 0]),
   midi.NoteOnEvent(tick=1869600, channel=0, data=[74, 100]),
   midi.NoteOffEvent(tick=1869700, channel=0, data=[74, 0]),
   midi.NoteOnEvent(tick=1869800, channel=0, data=[0, 100]),
   midi.NoteOffEvent(tick=1869900, channel=0, data=[0, 0]),
   midi.NoteOnEvent(tick=1870000, channel=0, data=[36, 100]),
   midi.NoteOffEvent(tick=1870100, channel=0, data=[36, 0]),
   midi.NoteOnEvent(tick=1870200, channel=0, data=[69, 100]),
   midi.NoteOffEvent(tick=1870300, channel=0, data=[69, 0]),
   midi.NoteOnEvent(tick=1870400, channel=0, data=[36, 100]),
   midi.NoteOffEvent(tick=1870500, channel=0, data=[36, 0]),
   midi.NoteOnEvent(tick=1870600, channel=0, data=[34, 100]),
   midi.NoteOffEvent(tick=1870700, channel=0, data=[34, 0]),
   midi.NoteOnEvent(tick=1870800, channel=0, data=[56, 100]),
   midi.NoteOffEvent(tick=1870900, channel=0, data=[56, 0]),
   midi.NoteOnEvent(tick=1871000, channel=0, data=[36, 100]),
   midi.NoteOffEvent(tick=1871100, channel=0, data=[36, 0]),
   midi.NoteOnEvent(tick=1871200, channel=0, data=[36, 100]),
   midi.NoteOffEvent(tick=1871300, channel=0, data=[36, 0]),
   midi.NoteOnEvent(tick=1871400, channel=0, data=[36, 100]),
   midi.NoteOffEvent(tick=1871500, channel=0, data=[36, 0]),
   midi.NoteOnEvent(tick=1871600, channel=0, data=[36, 100]),
   midi.NoteOffEvent(tick=1871700, channel=0, data=[36, 0]),
   midi.NoteOnEvent(tick=1871800, channel=0, data=[36, 100]),
   midi.NoteOffEvent(tick=1871900, channel=0, data=[36, 0]),
   midi.NoteOnEvent(tick=1872000, channel=0, data=[36, 100]),
   midi.NoteOffEvent(tick=1872100, channel=0, data=[36, 0]),
   midi.NoteOnEvent(tick=1872200, channel=0, data=[36, 100]),
   midi.NoteOffEvent(tick=1872300, channel=0, data=[36, 0]),
   midi.NoteOnEvent(tick=1872400, channel=0, data=[36, 100]),
   midi.NoteOffEvent(tick=1872500, channel=0, data=[36, 0]),
   midi.NoteOnEvent(tick=1872600, channel=0, data=[2, 100]),
   midi.NoteOffEvent(tick=1872700, channel=0, data=[2, 0]),
   midi.NoteOnEvent(tick=1872800, channel=0, data=[46, 100]),
   midi.NoteOffEvent(tick=1872900, channel=0, data=[46, 0]),
   midi.NoteOnEvent(tick=1873000, channel=0, data=[78, 100]),
   midi.NoteOffEvent(tick=1873100, channel=0, data=[78, 0]),
   midi.NoteOnEvent(tick=1873200, channel=0, data=[15, 100]),
   midi.NoteOffEvent(tick=1873300, channel=0, data=[15, 0]),
   midi.NoteOnEvent(tick=1873400, channel=0, data=[18, 100]),
   midi.NoteOffEvent(tick=1873500, channel=0, data=[18, 0]),
   midi.NoteOnEvent(tick=1873600, channel=0, data=[73, 100]),
   midi.NoteOffEvent(tick=1873700, channel=0, data=[73, 0]),
   midi.NoteOnEvent(tick=1873800, channel=0, data=[36, 100]),
   midi.NoteOffEvent(tick=1873900, channel=0, data=[36, 0]),
   midi.NoteOnEvent(tick=1874000, channel=0, data=[74, 100]),
   midi.NoteOffEvent(tick=1874100, channel=0, data=[74, 0]),
   midi.NoteOnEvent(tick=1874200, channel=0, data=[0, 100]),
   midi.NoteOffEvent(tick=1874300, channel=0, data=[0, 0]),
   midi.NoteOnEvent(tick=1874400, channel=0, data=[36, 100]),
   midi.NoteOffEvent(tick=1874500, channel=0, data=[36, 0]),
   midi.NoteOnEvent(tick=1874600, channel=0, data=[45, 100]),
   midi.NoteOffEvent(tick=1874700, channel=0, data=[45, 0]),
   midi.NoteOnEvent(tick=1874800, channel=0, data=[69, 100]),
   midi.NoteOffEvent(tick=1874900, channel=0, data=[69, 0]),
   midi.NoteOnEvent(tick=1875000, channel=0, data=[36, 100]),
   midi.NoteOffEvent(tick=1875100, channel=0, data=[36, 0]),
   midi.NoteOnEvent(tick=1875200, channel=0, data=[28, 100]),
   midi.NoteOffEvent(tick=1875300, channel=0, data=[28, 0]),
   midi.NoteOnEvent(tick=1875400, channel=0, data=[56, 100]),
   midi.NoteOffEvent(tick=1875500, channel=0, data=[56, 0]),
   midi.NoteOnEvent(tick=1875600, channel=0, data=[36, 100]),
   midi.NoteOffEvent(tick=1875700, channel=0, data=[36, 0]),
   midi.NoteOnEvent(tick=1875800, channel=0, data=[36, 100]),
   midi.NoteOffEvent(tick=1875900, channel=0, data=[36, 0]),
   midi.NoteOnEvent(tick=1876000, channel=0, data=[36, 100]),
   midi.NoteOffEvent(tick=1876100, channel=0, data=[36, 0]),
   midi.NoteOnEvent(tick=1876200, channel=0, data=[36, 100]),
   midi.NoteOffEvent(tick=1876300, channel=0, data=[36, 0]),
   midi.NoteOnEvent(tick=1876400, channel=0, data=[36, 100]),
   midi.NoteOffEvent(tick=1876500, channel=0, data=[36, 0]),
   midi.NoteOnEvent(tick=1876600, channel=0, data=[36, 100]),
   midi.NoteOffEvent(tick=1876700, channel=0, data=[36, 0]),
   midi.NoteOnEvent(tick=1876800, channel=0, data=[36, 100]),
   midi.NoteOffEvent(tick=1876900, channel=0, data=[36, 0]),
   midi.NoteOnEvent(tick=1877000, channel=0, data=[36, 100]),
   midi.NoteOffEvent(tick=1877100, channel=0, data=[36, 0]),
   midi.NoteOnEvent(tick=1877200, channel=0, data=[2, 100]),
   midi.NoteOffEvent(tick=1877300, channel=0, data=[2, 0]),
   midi.NoteOnEvent(tick=1877400, channel=0, data=[46, 100]),
   midi.NoteOffEvent(tick=1877500, channel=0, data=[46, 0]),
   midi.NoteOnEvent(tick=1877600, channel=0, data=[78, 100]),
   midi.NoteOffEvent(tick=1877700, channel=0, data=[78, 0]),
   midi.NoteOnEvent(tick=1877800, channel=0, data=[15, 100]),
   midi.NoteOffEvent(tick=1877900, channel=0, data=[15, 0]),
   midi.NoteOnEvent(tick=1878000, channel=0, data=[18, 100]),
   midi.NoteOffEvent(tick=1878100, channel=0, data=[18, 0]),
   midi.NoteOnEvent(tick=1878200, channel=0, data=[73, 100]),
   midi.NoteOffEvent(tick=1878300, channel=0, data=[73, 0]),
   midi.NoteOnEvent(tick=1878400, channel=0, data=[36, 100]),
   midi.NoteOffEvent(tick=1878500, channel=0, data=[36, 0]),
   midi.NoteOnEvent(tick=1878600, channel=0, data=[74, 100]),
   midi.NoteOffEvent(tick=1878700, channel=0, data=[74, 0]),
   midi.NoteOnEvent(tick=1878800, channel=0, data=[0, 100]),
   midi.NoteOffEvent(tick=1878900, channel=0, data=[0, 0]),
   midi.NoteOnEvent(tick=1879000, channel=0, data=[56, 100]),
   midi.NoteOffEvent(tick=1879100, channel=0, data=[56, 0]),
   midi.NoteOnEvent(tick=1879200, channel=0, data=[36, 100]),
   midi.NoteOffEvent(tick=1879300, channel=0, data=[36, 0]),
   midi.NoteOnEvent(tick=1879400, channel=0, data=[36, 100]),
   midi.NoteOffEvent(tick=1879500, channel=0, data=[36, 0]),
   midi.NoteOnEvent(tick=1879600, channel=0, data=[36, 100]),
   midi.NoteOffEvent(tick=1879700, channel=0, data=[36, 0]),
   midi.NoteOnEvent(tick=1879800, channel=0, data=[36, 100]),
   midi.NoteOffEvent(tick=1879900, channel=0, data=[36, 0]),
   midi.NoteOnEvent(tick=1880000, channel=0, data=[36, 100]),
   midi.NoteOffEvent(tick=1880100, channel=0, data=[36, 0]),
   midi.NoteOnEvent(tick=1880200, channel=0, data=[36, 100]),
   midi.NoteOffEvent(tick=1880300, channel=0, data=[36, 0]),
   midi.NoteOnEvent(tick=1880400, channel=0, data=[36, 100]),
   midi.NoteOffEvent(tick=1880500, channel=0, data=[36, 0]),
   midi.NoteOnEvent(tick=1880600, channel=0, data=[36, 100]),
   midi.NoteOffEvent(tick=1880700, channel=0, data=[36, 0]),
   midi.NoteOnEvent(tick=1880800, channel=0, data=[32, 100]),
   midi.NoteOffEvent(tick=1880900, channel=0, data=[32, 0]),
   midi.NoteOnEvent(tick=1881000, channel=0, data=[56, 100]),
   midi.NoteOffEvent(tick=1881100, channel=0, data=[56, 0]),
   midi.NoteOnEvent(tick=1881200, channel=0, data=[56, 100]),
   midi.NoteOffEvent(tick=1881300, channel=0, data=[56, 0]),
   midi.NoteOnEvent(tick=1881400, channel=0, data=[36, 100]),
   midi.NoteOffEvent(tick=1881500, channel=0, data=[36, 0]),
   midi.NoteOnEvent(tick=1881600, channel=0, data=[56, 100]),
   midi.NoteOffEvent(tick=1881700, channel=0, data=[56, 0]),
   midi.NoteOnEvent(tick=1881800, channel=0, data=[36, 100]),
   midi.NoteOffEvent(tick=1881900, channel=0, data=[36, 0]),
   midi.NoteOnEvent(tick=1882000, channel=0, data=[36, 100]),
   midi.NoteOffEvent(tick=1882100, channel=0, data=[36, 0]),
   midi.NoteOnEvent(tick=1882200, channel=0, data=[36, 100]),
   midi.NoteOffEvent(tick=1882300, channel=0, data=[36, 0]),
   midi.NoteOnEvent(tick=1882400, channel=0, data=[36, 100]),
   midi.NoteOffEvent(tick=1882500, channel=0, data=[36, 0]),
   midi.NoteOnEvent(tick=1882600, channel=0, data=[24, 100]),
   midi.NoteOffEvent(tick=1882700, channel=0, data=[24, 0]),
   midi.NoteOnEvent(tick=1882800, channel=0, data=[14, 100]),
   midi.NoteOffEvent(tick=1882900, channel=0, data=[14, 0]),
   midi.NoteOnEvent(tick=1883000, channel=0, data=[20, 100]),
   midi.NoteOffEvent(tick=1883100, channel=0, data=[20, 0]),
   midi.NoteOnEvent(tick=1883200, channel=0, data=[36, 100]),
   midi.NoteOffEvent(tick=1883300, channel=0, data=[36, 0]),
   midi.NoteOnEvent(tick=1883400, channel=0, data=[2, 100]),
   midi.NoteOffEvent(tick=1883500, channel=0, data=[2, 0]),
   midi.NoteOnEvent(tick=1883600, channel=0, data=[0, 100]),
   midi.NoteOffEvent(tick=1883700, channel=0, data=[0, 0]),
   midi.NoteOnEvent(tick=1883800, channel=0, data=[13, 100]),
   midi.NoteOffEvent(tick=1883900, channel=0, data=[13, 0]),
   midi.NoteOnEvent(tick=1884000, channel=0, data=[36, 100]),
   midi.NoteOffEvent(tick=1884100, channel=0, data=[36, 0]),
   midi.NoteOnEvent(tick=1884200, channel=0, data=[0, 100]),
   midi.NoteOffEvent(tick=1884300, channel=0, data=[0, 0]),
   midi.NoteOnEvent(tick=1884400, channel=0, data=[11, 100]),
   midi.NoteOffEvent(tick=1884500, channel=0, data=[11, 0]),
   midi.NoteOnEvent(tick=1884600, channel=0, data=[18, 100]),
   midi.NoteOffEvent(tick=1884700, channel=0, data=[18, 0]),
   midi.NoteOnEvent(tick=1884800, channel=0, data=[14, 100]),
   midi.NoteOffEvent(tick=1884900, channel=0, data=[14, 0]),
   midi.NoteOnEvent(tick=1885000, channel=0, data=[36, 100]),
   midi.NoteOffEvent(tick=1885100, channel=0, data=[36, 0]),
   midi.NoteOnEvent(tick=1885200, channel=0, data=[20, 100]),
   midi.NoteOffEvent(tick=1885300, channel=0, data=[20, 0]),
   midi.NoteOnEvent(tick=1885400, channel=0, data=[18, 100]),
   midi.NoteOffEvent(tick=1885500, channel=0, data=[18, 0]),
   midi.NoteOnEvent(tick=1885600, channel=0, data=[4, 100]),
   midi.NoteOffEvent(tick=1885700, channel=0, data=[4, 0]),
   midi.NoteOnEvent(tick=1885800, channel=0, data=[36, 100]),
   midi.NoteOffEvent(tick=1885900, channel=0, data=[36, 0]),
   midi.NoteOnEvent(tick=1886000, channel=0, data=[19, 100]),
   midi.NoteOffEvent(tick=1886100, channel=0, data=[19, 0]),
   midi.NoteOnEvent(tick=1886200, channel=0, data=[7, 100]),
   midi.NoteOffEvent(tick=1886300, channel=0, data=[7, 0]),
   midi.NoteOnEvent(tick=1886400, channel=0, data=[4, 100]),
   midi.NoteOffEvent(tick=1886500, channel=0, data=[4, 0]),
   midi.NoteOnEvent(tick=1886600, channel=0, data=[36, 100]),
   midi.NoteOffEvent(tick=1886700, channel=0, data=[36, 0]),
   midi.NoteOnEvent(tick=1886800, channel=0, data=[45, 100]),
   midi.NoteOffEvent(tick=1886900, channel=0, data=[45, 0]),
   midi.NoteOnEvent(tick=1887000, channel=0, data=[69, 100]),
   midi.NoteOffEvent(tick=1887100, channel=0, data=[69, 0]),
   midi.NoteOnEvent(tick=1887200, channel=0, data=[36, 100]),
   midi.NoteOffEvent(tick=1887300, channel=0, data=[36, 0]),
   midi.NoteOnEvent(tick=1887400, channel=0, data=[0, 100]),
   midi.NoteOffEvent(tick=1887500, channel=0, data=[0, 0]),
   midi.NoteOnEvent(tick=1887600, channel=0, data=[18, 100]),
   midi.NoteOffEvent(tick=1887700, channel=0, data=[18, 0]),
   midi.NoteOnEvent(tick=1887800, channel=0, data=[18, 100]),
   midi.NoteOffEvent(tick=1887900, channel=0, data=[18, 0]),
   midi.NoteOnEvent(tick=1888000, channel=0, data=[8, 100]),
   midi.NoteOffEvent(tick=1888100, channel=0, data=[8, 0]),
   midi.NoteOnEvent(tick=1888200, channel=0, data=[6, 100]),
   midi.NoteOffEvent(tick=1888300, channel=0, data=[6, 0]),
   midi.NoteOnEvent(tick=1888400, channel=0, data=[13, 100]),
   midi.NoteOffEvent(tick=1888500, channel=0, data=[13, 0]),
   midi.NoteOnEvent(tick=1888600, channel=0, data=[12, 100]),
   midi.NoteOffEvent(tick=1888700, channel=0, data=[12, 0]),
   midi.NoteOnEvent(tick=1888800, channel=0, data=[4, 100]),
   midi.NoteOffEvent(tick=1888900, channel=0, data=[4, 0]),
   midi.NoteOnEvent(tick=1889000, channel=0, data=[13, 100]),
   midi.NoteOffEvent(tick=1889100, channel=0, data=[13, 0]),
   midi.NoteOnEvent(tick=1889200, channel=0, data=[19, 100]),
   midi.NoteOffEvent(tick=1889300, channel=0, data=[19, 0]),
   midi.NoteOnEvent(tick=1889400, channel=0, data=[36, 100]),
   midi.NoteOffEvent(tick=1889500, channel=0, data=[36, 0]),
   midi.NoteOnEvent(tick=1889600, channel=0, data=[14, 100]),
   midi.NoteOffEvent(tick=1889700, channel=0, data=[14, 0]),
   midi.NoteOnEvent(tick=1889800, channel=0, data=[15, 100]),
   midi.NoteOffEvent(tick=1889900, channel=0, data=[15, 0]),
   midi.NoteOnEvent(tick=1890000, channel=0, data=[4, 100]),
   midi.NoteOffEvent(tick=1890100, channel=0, data=[4, 0]),
   midi.NoteOnEvent(tick=1890200, channel=0, data=[17, 100]),
   midi.NoteOffEvent(tick=1890300, channel=0, data=[17, 0]),
   midi.NoteOnEvent(tick=1890400, channel=0, data=[0, 100]),
   midi.NoteOffEvent(tick=1890500, channel=0, data=[0, 0]),
   midi.NoteOnEvent(tick=1890600, channel=0, data=[19, 100]),
   midi.NoteOffEvent(tick=1890700, channel=0, data=[19, 0]),
   midi.NoteOnEvent(tick=1890800, channel=0, data=[14, 100]),
   midi.NoteOffEvent(tick=1890900, channel=0, data=[14, 0]),
   midi.NoteOnEvent(tick=1891000, channel=0, data=[17, 100]),
   midi.NoteOffEvent(tick=1891100, channel=0, data=[17, 0]),
   midi.NoteOnEvent(tick=1891200, channel=0, data=[36, 100]),
   midi.NoteOffEvent(tick=1891300, channel=0, data=[36, 0]),
   midi.NoteOnEvent(tick=1891400, channel=0, data=[19, 100]),
   midi.NoteOffEvent(tick=1891500, channel=0, data=[19, 0]),
   midi.NoteOnEvent(tick=1891600, channel=0, data=[14, 100]),
   midi.NoteOffEvent(tick=1891700, channel=0, data=[14, 0]),
   midi.NoteOnEvent(tick=1891800, channel=0, data=[36, 100]),
   midi.NoteOffEvent(tick=1891900, channel=0, data=[36, 0]),
   midi.NoteOnEvent(tick=1892000, channel=0, data=[3, 100]),
   midi.NoteOffEvent(tick=1892100, channel=0, data=[3, 0]),
   midi.NoteOnEvent(tick=1892200, channel=0, data=[4, 100]),
   midi.NoteOffEvent(tick=1892300, channel=0, data=[4, 0]),
   midi.NoteOnEvent(tick=1892400, channel=0, data=[2, 100]),
   midi.NoteOffEvent(tick=1892500, channel=0, data=[2, 0]),
   midi.NoteOnEvent(tick=1892600, channel=0, data=[17, 100]),
   midi.NoteOffEvent(tick=1892700, channel=0, data=[17, 0]),
   midi.NoteOnEvent(tick=1892800, channel=0, data=[4, 100]),
   midi.NoteOffEvent(tick=1892900, channel=0, data=[4, 0]),
   midi.NoteOnEvent(tick=1893000, channel=0, data=[0, 100]),
   midi.NoteOffEvent(tick=1893100, channel=0, data=[0, 0]),
   midi.NoteOnEvent(tick=1893200, channel=0, data=[18, 100]),
   midi.NoteOffEvent(tick=1893300, channel=0, data=[18, 0]),
   midi.NoteOnEvent(tick=1893400, channel=0, data=[4, 100]),
   midi.NoteOffEvent(tick=1893500, channel=0, data=[4, 0]),
   midi.NoteOnEvent(tick=1893600, channel=0, data=[36, 100]),
   midi.NoteOffEvent(tick=1893700, channel=0, data=[36, 0]),
   midi.NoteOnEvent(tick=1893800, channel=0, data=[19, 100]),
   midi.NoteOffEvent(tick=1893900, channel=0, data=[19, 0]),
   midi.NoteOnEvent(tick=1894000, channel=0, data=[7, 100]),
   midi.NoteOffEvent(tick=1894100, channel=0, data=[7, 0]),
   midi.NoteOnEvent(tick=1894200, channel=0, data=[4, 100]),
   midi.NoteOffEvent(tick=1894300, channel=0, data=[4, 0]),
   midi.NoteOnEvent(tick=1894400, channel=0, data=[36, 100]),
   midi.NoteOffEvent(tick=1894500, channel=0, data=[36, 0]),
   midi.NoteOnEvent(tick=1894600, channel=0, data=[21, 100]),
   midi.NoteOffEvent(tick=1894700, channel=0, data=[21, 0]),
   midi.NoteOnEvent(tick=1894800, channel=0, data=[0, 100]),
   midi.NoteOffEvent(tick=1894900, channel=0, data=[0, 0]),
   midi.NoteOnEvent(tick=1895000, channel=0, data=[11, 100]),
   midi.NoteOffEvent(tick=1895100, channel=0, data=[11, 0]),
   midi.NoteOnEvent(tick=1895200, channel=0, data=[20, 100]),
   midi.NoteOffEvent(tick=1895300, channel=0, data=[20, 0]),
   midi.NoteOnEvent(tick=1895400, channel=0, data=[4, 100]),
   midi.NoteOffEvent(tick=1895500, channel=0, data=[4, 0]),
   midi.NoteOnEvent(tick=1895600, channel=0, data=[36, 100]),
   midi.NoteOffEvent(tick=1895700, channel=0, data=[36, 0]),
   midi.NoteOnEvent(tick=1895800, channel=0, data=[14, 100]),
   midi.NoteOffEvent(tick=1895900, channel=0, data=[14, 0]),
   midi.NoteOnEvent(tick=1896000, channel=0, data=[5, 100]),
   midi.NoteOffEvent(tick=1896100, channel=0, data=[5, 0]),
   midi.NoteOnEvent(tick=1896200, channel=0, data=[36, 100]),
   midi.NoteOffEvent(tick=1896300, channel=0, data=[36, 0]),
   midi.NoteOnEvent(tick=1896400, channel=0, data=[0, 100]),
   midi.NoteOffEvent(tick=1896500, channel=0, data=[0, 0]),
   midi.NoteOnEvent(tick=1896600, channel=0, data=[36, 100]),
   midi.NoteOffEvent(tick=1896700, channel=0, data=[36, 0]),
   midi.NoteOnEvent(tick=1896800, channel=0, data=[56, 100]),
   midi.NoteOffEvent(tick=1896900, channel=0, data=[56, 0]),
   midi.NoteOnEvent(tick=1897000, channel=0, data=[36, 100]),
   midi.NoteOffEvent(tick=1897100, channel=0, data=[36, 0]),
   midi.NoteOnEvent(tick=1897200, channel=0, data=[36, 100]),
   midi.NoteOffEvent(tick=1897300, channel=0, data=[36, 0]),
   midi.NoteOnEvent(tick=1897400, channel=0, data=[36, 100]),
   midi.NoteOffEvent(tick=1897500, channel=0, data=[36, 0]),
   midi.NoteOnEvent(tick=1897600, channel=0, data=[36, 100]),
   midi.NoteOffEvent(tick=1897700, channel=0, data=[36, 0]),
   midi.NoteOnEvent(tick=1897800, channel=0, data=[12, 100]),
   midi.NoteOffEvent(tick=1897900, channel=0, data=[12, 0]),
   midi.NoteOnEvent(tick=1898000, channel=0, data=[4, 100]),
   midi.NoteOffEvent(tick=1898100, channel=0, data=[4, 0]),
   midi.NoteOnEvent(tick=1898200, channel=0, data=[12, 100]),
   midi.NoteOffEvent(tick=1898300, channel=0, data=[12, 0]),
   midi.NoteOnEvent(tick=1898400, channel=0, data=[1, 100]),
   midi.NoteOffEvent(tick=1898500, channel=0, data=[1, 0]),
   midi.NoteOnEvent(tick=1898600, channel=0, data=[4, 100]),
   midi.NoteOffEvent(tick=1898700, channel=0, data=[4, 0]),
   midi.NoteOnEvent(tick=1898800, channel=0, data=[17, 100]),
   midi.NoteOffEvent(tick=1898900, channel=0, data=[17, 0]),
   midi.NoteOnEvent(tick=1899000, channel=0, data=[36, 100]),
   midi.NoteOffEvent(tick=1899100, channel=0, data=[36, 0]),
   midi.NoteOnEvent(tick=1899200, channel=0, data=[14, 100]),
   midi.NoteOffEvent(tick=1899300, channel=0, data=[14, 0]),
   midi.NoteOnEvent(tick=1899400, channel=0, data=[5, 100]),
   midi.NoteOffEvent(tick=1899500, channel=0, data=[5, 0]),
   midi.NoteOnEvent(tick=1899600, channel=0, data=[36, 100]),
   midi.NoteOffEvent(tick=1899700, channel=0, data=[36, 0]),
   midi.NoteOnEvent(tick=1899800, channel=0, data=[0, 100]),
   midi.NoteOffEvent(tick=1899900, channel=0, data=[0, 0]),
   midi.NoteOnEvent(tick=1900000, channel=0, data=[36, 100]),
   midi.NoteOffEvent(tick=1900100, channel=0, data=[36, 0]),
   midi.NoteOnEvent(tick=1900200, channel=0, data=[13, 100]),
   midi.NoteOffEvent(tick=1900300, channel=0, data=[13, 0]),
   midi.NoteOnEvent(tick=1900400, channel=0, data=[20, 100]),
   midi.NoteOffEvent(tick=1900500, channel=0, data=[20, 0]),
   midi.NoteOnEvent(tick=1900600, channel=0, data=[12, 100]),
   midi.NoteOffEvent(tick=1900700, channel=0, data=[12, 0]),
   midi.NoteOnEvent(tick=1900800, channel=0, data=[4, 100]),
   midi.NoteOffEvent(tick=1900900, channel=0, data=[4, 0]),
   midi.NoteOnEvent(tick=1901000, channel=0, data=[17, 100]),
   midi.NoteOffEvent(tick=1901100, channel=0, data=[17, 0]),
   midi.NoteOnEvent(tick=1901200, channel=0, data=[8, 100]),
   midi.NoteOffEvent(tick=1901300, channel=0, data=[8, 0]),
   midi.NoteOnEvent(tick=1901400, channel=0, data=[2, 100]),
   midi.NoteOffEvent(tick=1901500, channel=0, data=[2, 0]),
   midi.NoteOnEvent(tick=1901600, channel=0, data=[36, 100]),
   midi.NoteOffEvent(tick=1901700, channel=0, data=[36, 0]),
   midi.NoteOnEvent(tick=1901800, channel=0, data=[0, 100]),
   midi.NoteOffEvent(tick=1901900, channel=0, data=[0, 0]),
   midi.NoteOnEvent(tick=1902000, channel=0, data=[17, 100]),
   midi.NoteOffEvent(tick=1902100, channel=0, data=[17, 0]),
   midi.NoteOnEvent(tick=1902200, channel=0, data=[17, 100]),
   midi.NoteOffEvent(tick=1902300, channel=0, data=[17, 0]),
   midi.NoteOnEvent(tick=1902400, channel=0, data=[0, 100]),
   midi.NoteOffEvent(tick=1902500, channel=0, data=[0, 0]),
   midi.NoteOnEvent(tick=1902600, channel=0, data=[24, 100]),
   midi.NoteOffEvent(tick=1902700, channel=0, data=[24, 0]),
   midi.NoteOnEvent(tick=1902800, channel=0, data=[37, 100]),
   midi.NoteOffEvent(tick=1902900, channel=0, data=[37, 0]),
   midi.NoteOnEvent(tick=1903000, channel=0, data=[36, 100]),
   midi.NoteOffEvent(tick=1903100, channel=0, data=[36, 0]),
   midi.NoteOnEvent(tick=1903200, channel=0, data=[19, 100]),
   midi.NoteOffEvent(tick=1903300, channel=0, data=[19, 0]),
   midi.NoteOnEvent(tick=1903400, channel=0, data=[14, 100]),
   midi.NoteOffEvent(tick=1903500, channel=0, data=[14, 0]),
   midi.NoteOnEvent(tick=1903600, channel=0, data=[36, 100]),
   midi.NoteOffEvent(tick=1903700, channel=0, data=[36, 0]),
   midi.NoteOnEvent(tick=1903800, channel=0, data=[3, 100]),
   midi.NoteOffEvent(tick=1903900, channel=0, data=[3, 0]),
   midi.NoteOnEvent(tick=1904000, channel=0, data=[14, 100]),
   midi.NoteOffEvent(tick=1904100, channel=0, data=[14, 0]),
   midi.NoteOnEvent(tick=1904200, channel=0, data=[36, 100]),
   midi.NoteOffEvent(tick=1904300, channel=0, data=[36, 0]),
   midi.NoteOnEvent(tick=1904400, channel=0, data=[19, 100]),
   midi.NoteOffEvent(tick=1904500, channel=0, data=[19, 0]),
   midi.NoteOnEvent(tick=1904600, channel=0, data=[7, 100]),
   midi.NoteOffEvent(tick=1904700, channel=0, data=[7, 0]),
   midi.NoteOnEvent(tick=1904800, channel=0, data=[8, 100]),
   midi.NoteOffEvent(tick=1904900, channel=0, data=[8, 0]),
   midi.NoteOnEvent(tick=1905000, channel=0, data=[18, 100]),
   midi.NoteOffEvent(tick=1905100, channel=0, data=[18, 0]),
   midi.NoteOnEvent(tick=1905200, channel=0, data=[38, 100]),
   midi.NoteOffEvent(tick=1905300, channel=0, data=[38, 0]),
   midi.NoteOnEvent(tick=1905400, channel=0, data=[36, 100]),
   midi.NoteOffEvent(tick=1905500, channel=0, data=[36, 0]),
   midi.NoteOnEvent(tick=1905600, channel=0, data=[18, 100]),
   midi.NoteOffEvent(tick=1905700, channel=0, data=[18, 0]),
   midi.NoteOnEvent(tick=1905800, channel=0, data=[15, 100]),
   midi.NoteOffEvent(tick=1905900, channel=0, data=[15, 0]),
   midi.NoteOnEvent(tick=1906000, channel=0, data=[4, 100]),
   midi.NoteOffEvent(tick=1906100, channel=0, data=[4, 0]),
   midi.NoteOnEvent(tick=1906200, channel=0, data=[2, 100]),
   midi.NoteOffEvent(tick=1906300, channel=0, data=[2, 0]),
   midi.NoteOnEvent(tick=1906400, channel=0, data=[8, 100]),
   midi.NoteOffEvent(tick=1906500, channel=0, data=[8, 0]),
   midi.NoteOnEvent(tick=1906600, channel=0, data=[5, 100]),
   midi.NoteOffEvent(tick=1906700, channel=0, data=[5, 0]),
   midi.NoteOnEvent(tick=1906800, channel=0, data=[24, 100]),
   midi.NoteOffEvent(tick=1906900, channel=0, data=[24, 0]),
   midi.NoteOnEvent(tick=1907000, channel=0, data=[36, 100]),
   midi.NoteOffEvent(tick=1907100, channel=0, data=[36, 0]),
   midi.NoteOnEvent(tick=1907200, channel=0, data=[19, 100]),
   midi.NoteOffEvent(tick=1907300, channel=0, data=[19, 0]),
   midi.NoteOnEvent(tick=1907400, channel=0, data=[7, 100]),
   midi.NoteOffEvent(tick=1907500, channel=0, data=[7, 0]),
   midi.NoteOnEvent(tick=1907600, channel=0, data=[4, 100]),
   midi.NoteOffEvent(tick=1907700, channel=0, data=[4, 0]),
   midi.NoteOnEvent(tick=1907800, channel=0, data=[36, 100]),
   midi.NoteOffEvent(tick=1907900, channel=0, data=[36, 0]),
   midi.NoteOnEvent(tick=1908000, channel=0, data=[8, 100]),
   midi.NoteOffEvent(tick=1908100, channel=0, data=[8, 0]),
   midi.NoteOnEvent(tick=1908200, channel=0, data=[13, 100]),
   midi.NoteOffEvent(tick=1908300, channel=0, data=[13, 0]),
   midi.NoteOnEvent(tick=1908400, channel=0, data=[3, 100]),
   midi.NoteOffEvent(tick=1908500, channel=0, data=[3, 0]),
   midi.NoteOnEvent(tick=1908600, channel=0, data=[4, 100]),
   midi.NoteOffEvent(tick=1908700, channel=0, data=[4, 0]),
   midi.NoteOnEvent(tick=1908800, channel=0, data=[23, 100]),
   midi.NoteOffEvent(tick=1908900, channel=0, data=[23, 0]),
   midi.NoteOnEvent(tick=1909000, channel=0, data=[36, 100]),
   midi.NoteOffEvent(tick=1909100, channel=0, data=[36, 0]),
   midi.NoteOnEvent(tick=1909200, channel=0, data=[14, 100]),
   midi.NoteOffEvent(tick=1909300, channel=0, data=[14, 0]),
   midi.NoteOnEvent(tick=1909400, channel=0, data=[5, 100]),
   midi.NoteOffEvent(tick=1909500, channel=0, data=[5, 0]),
   midi.NoteOnEvent(tick=1909600, channel=0, data=[36, 100]),
   midi.NoteOffEvent(tick=1909700, channel=0, data=[36, 0]),
   midi.NoteOnEvent(tick=1909800, channel=0, data=[19, 100]),
   midi.NoteOffEvent(tick=1909900, channel=0, data=[19, 0]),
   midi.NoteOnEvent(tick=1910000, channel=0, data=[7, 100]),
   midi.NoteOffEvent(tick=1910100, channel=0, data=[7, 0]),
   midi.NoteOnEvent(tick=1910200, channel=0, data=[4, 100]),
   midi.NoteOffEvent(tick=1910300, channel=0, data=[4, 0]),
   midi.NoteOnEvent(tick=1910400, channel=0, data=[36, 100]),
   midi.NoteOffEvent(tick=1910500, channel=0, data=[36, 0]),
   midi.NoteOnEvent(tick=1910600, channel=0, data=[0, 100]),
   midi.NoteOffEvent(tick=1910700, channel=0, data=[0, 0]),
   midi.NoteOnEvent(tick=1910800, channel=0, data=[17, 100]),
   midi.NoteOffEvent(tick=1910900, channel=0, data=[17, 0]),
   midi.NoteOnEvent(tick=1911000, channel=0, data=[17, 100]),
   midi.NoteOffEvent(tick=1911100, channel=0, data=[17, 0]),
   midi.NoteOnEvent(tick=1911200, channel=0, data=[0, 100]),
   midi.NoteOffEvent(tick=1911300, channel=0, data=[0, 0]),
   midi.NoteOnEvent(tick=1911400, channel=0, data=[24, 100]),
   midi.NoteOffEvent(tick=1911500, channel=0, data=[24, 0]),
   midi.NoteOnEvent(tick=1911600, channel=0, data=[56, 100]),
   midi.NoteOffEvent(tick=1911700, channel=0, data=[56, 0]),
   midi.NoteOnEvent(tick=1911800, channel=0, data=[36, 100]),
   midi.NoteOffEvent(tick=1911900, channel=0, data=[36, 0]),
   midi.NoteOnEvent(tick=1912000, channel=0, data=[36, 100]),
   midi.NoteOffEvent(tick=1912100, channel=0, data=[36, 0]),
   midi.NoteOnEvent(tick=1912200, channel=0, data=[36, 100]),
   midi.NoteOffEvent(tick=1912300, channel=0, data=[36, 0]),
   midi.NoteOnEvent(tick=1912400, channel=0, data=[36, 100]),
   midi.NoteOffEvent(tick=1912500, channel=0, data=[36, 0]),
   midi.NoteOnEvent(tick=1912600, channel=0, data=[4, 100]),
   midi.NoteOffEvent(tick=1912700, channel=0, data=[4, 0]),
   midi.NoteOnEvent(tick=1912800, channel=0, data=[11, 100]),
   midi.NoteOffEvent(tick=1912900, channel=0, data=[11, 0]),
   midi.NoteOnEvent(tick=1913000, channel=0, data=[4, 100]),
   midi.NoteOffEvent(tick=1913100, channel=0, data=[4, 0]),
   midi.NoteOnEvent(tick=1913200, channel=0, data=[12, 100]),
   midi.NoteOffEvent(tick=1913300, channel=0, data=[12, 0]),
   midi.NoteOnEvent(tick=1913400, channel=0, data=[4, 100]),
   midi.NoteOffEvent(tick=1913500, channel=0, data=[4, 0]),
   midi.NoteOnEvent(tick=1913600, channel=0, data=[13, 100]),
   midi.NoteOffEvent(tick=1913700, channel=0, data=[13, 0]),
   midi.NoteOnEvent(tick=1913800, channel=0, data=[19, 100]),
   midi.NoteOffEvent(tick=1913900, channel=0, data=[19, 0]),
   midi.NoteOnEvent(tick=1914000, channel=0, data=[36, 100]),
   midi.NoteOffEvent(tick=1914100, channel=0, data=[36, 0]),
   midi.NoteOnEvent(tick=1914200, channel=0, data=[19, 100]),
   midi.NoteOffEvent(tick=1914300, channel=0, data=[19, 0]),
   midi.NoteOnEvent(tick=1914400, channel=0, data=[7, 100]),
   midi.NoteOffEvent(tick=1914500, channel=0, data=[7, 0]),
   midi.NoteOnEvent(tick=1914600, channel=0, data=[0, 100]),
   midi.NoteOffEvent(tick=1914700, channel=0, data=[0, 0]),
   midi.NoteOnEvent(tick=1914800, channel=0, data=[19, 100]),
   midi.NoteOffEvent(tick=1914900, channel=0, data=[19, 0]),
   midi.NoteOnEvent(tick=1915000, channel=0, data=[36, 100]),
   midi.NoteOffEvent(tick=1915100, channel=0, data=[36, 0]),
   midi.NoteOnEvent(tick=1915200, channel=0, data=[24, 100]),
   midi.NoteOffEvent(tick=1915300, channel=0, data=[24, 0]),
   midi.NoteOnEvent(tick=1915400, channel=0, data=[14, 100]),
   midi.NoteOffEvent(tick=1915500, channel=0, data=[14, 0]),
   midi.NoteOnEvent(tick=1915600, channel=0, data=[20, 100]),
   midi.NoteOffEvent(tick=1915700, channel=0, data=[20, 0]),
   midi.NoteOnEvent(tick=1915800, channel=0, data=[36, 100]),
   midi.NoteOffEvent(tick=1915900, channel=0, data=[36, 0]),
   midi.NoteOnEvent(tick=1916000, channel=0, data=[22, 100]),
   midi.NoteOffEvent(tick=1916100, channel=0, data=[22, 0]),
   midi.NoteOnEvent(tick=1916200, channel=0, data=[0, 100]),
   midi.NoteOffEvent(tick=1916300, channel=0, data=[0, 0]),
   midi.NoteOnEvent(tick=1916400, channel=0, data=[13, 100]),
   midi.NoteOffEvent(tick=1916500, channel=0, data=[13, 0]),
   midi.NoteOnEvent(tick=1916600, channel=0, data=[19, 100]),
   midi.NoteOffEvent(tick=1916700, channel=0, data=[19, 0]),
   midi.NoteOnEvent(tick=1916800, channel=0, data=[36, 100]),
   midi.NoteOffEvent(tick=1916900, channel=0, data=[36, 0]),
   midi.NoteOnEvent(tick=1917000, channel=0, data=[19, 100]),
   midi.NoteOffEvent(tick=1917100, channel=0, data=[19, 0]),
   midi.NoteOnEvent(tick=1917200, channel=0, data=[14, 100]),
   midi.NoteOffEvent(tick=1917300, channel=0, data=[14, 0]),
   midi.NoteOnEvent(tick=1917400, channel=0, data=[36, 100]),
   midi.NoteOffEvent(tick=1917500, channel=0, data=[36, 0]),
   midi.NoteOnEvent(tick=1917600, channel=0, data=[2, 100]),
   midi.NoteOffEvent(tick=1917700, channel=0, data=[2, 0]),
   midi.NoteOnEvent(tick=1917800, channel=0, data=[7, 100]),
   midi.NoteOffEvent(tick=1917900, channel=0, data=[7, 0]),
   midi.NoteOnEvent(tick=1918000, channel=0, data=[0, 100]),
   midi.NoteOffEvent(tick=1918100, channel=0, data=[0, 0]),
   midi.NoteOnEvent(tick=1918200, channel=0, data=[13, 100]),
   midi.NoteOffEvent(tick=1918300, channel=0, data=[13, 0]),
   midi.NoteOnEvent(tick=1918400, channel=0, data=[6, 100]),
   midi.NoteOffEvent(tick=1918500, channel=0, data=[6, 0]),
   midi.NoteOnEvent(tick=1918600, channel=0, data=[4, 100]),
   midi.NoteOffEvent(tick=1918700, channel=0, data=[4, 0]),
   midi.NoteOnEvent(tick=1918800, channel=0, data=[37, 100]),
   midi.NoteOffEvent(tick=1918900, channel=0, data=[37, 0]),
   midi.NoteOnEvent(tick=1919000, channel=0, data=[36, 100]),
   midi.NoteOffEvent(tick=1919100, channel=0, data=[36, 0]),
   midi.NoteOnEvent(tick=1919200, channel=0, data=[8, 100]),
   midi.NoteOffEvent(tick=1919300, channel=0, data=[8, 0]),
   midi.NoteOnEvent(tick=1919400, channel=0, data=[13, 100]),
   midi.NoteOffEvent(tick=1919500, channel=0, data=[13, 0]),
   midi.NoteOnEvent(tick=1919600, channel=0, data=[36, 100]),
   midi.NoteOffEvent(tick=1919700, channel=0, data=[36, 0]),
   midi.NoteOnEvent(tick=1919800, channel=0, data=[19, 100]),
   midi.NoteOffEvent(tick=1919900, channel=0, data=[19, 0]),
   midi.NoteOnEvent(tick=1920000, channel=0, data=[7, 100]),
   midi.NoteOffEvent(tick=1920100, channel=0, data=[7, 0]),
   midi.NoteOnEvent(tick=1920200, channel=0, data=[4, 100]),
   midi.NoteOffEvent(tick=1920300, channel=0, data=[4, 0]),
   midi.NoteOnEvent(tick=1920400, channel=0, data=[36, 100]),
   midi.NoteOffEvent(tick=1920500, channel=0, data=[36, 0]),
   midi.NoteOnEvent(tick=1920600, channel=0, data=[5, 100]),
   midi.NoteOffEvent(tick=1920700, channel=0, data=[5, 0]),
   midi.NoteOnEvent(tick=1920800, channel=0, data=[14, 100]),
   midi.NoteOffEvent(tick=1920900, channel=0, data=[14, 0]),
   midi.NoteOnEvent(tick=1921000, channel=0, data=[11, 100]),
   midi.NoteOffEvent(tick=1921100, channel=0, data=[11, 0]),
   midi.NoteOnEvent(tick=1921200, channel=0, data=[11, 100]),
   midi.NoteOffEvent(tick=1921300, channel=0, data=[11, 0]),
   midi.NoteOnEvent(tick=1921400, channel=0, data=[14, 100]),
   midi.NoteOffEvent(tick=1921500, channel=0, data=[14, 0]),
   midi.NoteOnEvent(tick=1921600, channel=0, data=[22, 100]),
   midi.NoteOffEvent(tick=1921700, channel=0, data=[22, 0]),
   midi.NoteOnEvent(tick=1921800, channel=0, data=[8, 100]),
   midi.NoteOffEvent(tick=1921900, channel=0, data=[8, 0]),
   midi.NoteOnEvent(tick=1922000, channel=0, data=[13, 100]),
   midi.NoteOffEvent(tick=1922100, channel=0, data=[13, 0]),
   midi.NoteOnEvent(tick=1922200, channel=0, data=[6, 100]),
   midi.NoteOffEvent(tick=1922300, channel=0, data=[6, 0]),
   midi.NoteOnEvent(tick=1922400, channel=0, data=[36, 100]),
   midi.NoteOffEvent(tick=1922500, channel=0, data=[36, 0]),
   midi.NoteOnEvent(tick=1922600, channel=0, data=[4, 100]),
   midi.NoteOffEvent(tick=1922700, channel=0, data=[4, 0]),
   midi.NoteOnEvent(tick=1922800, channel=0, data=[23, 100]),
   midi.NoteOffEvent(tick=1922900, channel=0, data=[23, 0]),
   midi.NoteOnEvent(tick=1923000, channel=0, data=[0, 100]),
   midi.NoteOffEvent(tick=1923100, channel=0, data=[0, 0]),
   midi.NoteOnEvent(tick=1923200, channel=0, data=[12, 100]),
   midi.NoteOffEvent(tick=1923300, channel=0, data=[12, 0]),
   midi.NoteOnEvent(tick=1923400, channel=0, data=[15, 100]),
   midi.NoteOffEvent(tick=1923500, channel=0, data=[15, 0]),
   midi.NoteOnEvent(tick=1923600, channel=0, data=[11, 100]),
   midi.NoteOffEvent(tick=1923700, channel=0, data=[11, 0]),
   midi.NoteOnEvent(tick=1923800, channel=0, data=[4, 100]),
   midi.NoteOffEvent(tick=1923900, channel=0, data=[4, 0]),
   midi.NoteOnEvent(tick=1924000, channel=0, data=[38, 100]),
   midi.NoteOffEvent(tick=1924100, channel=0, data=[38, 0]),
   midi.NoteOnEvent(tick=1924200, channel=0, data=[36, 100]),
   midi.NoteOffEvent(tick=1924300, channel=0, data=[36, 0]),
   midi.NoteOnEvent(tick=1924400, channel=0, data=[19, 100]),
   midi.NoteOffEvent(tick=1924500, channel=0, data=[19, 0]),
   midi.NoteOnEvent(tick=1924600, channel=0, data=[7, 100]),
   midi.NoteOffEvent(tick=1924700, channel=0, data=[7, 0]),
   midi.NoteOnEvent(tick=1924800, channel=0, data=[4, 100]),
   midi.NoteOffEvent(tick=1924900, channel=0, data=[4, 0]),
   midi.NoteOnEvent(tick=1925000, channel=0, data=[36, 100]),
   midi.NoteOffEvent(tick=1925100, channel=0, data=[36, 0]),
   midi.NoteOnEvent(tick=1925200, channel=0, data=[21, 100]),
   midi.NoteOffEvent(tick=1925300, channel=0, data=[21, 0]),
   midi.NoteOnEvent(tick=1925400, channel=0, data=[0, 100]),
   midi.NoteOffEvent(tick=1925500, channel=0, data=[0, 0]),
   midi.NoteOnEvent(tick=1925600, channel=0, data=[11, 100]),
   midi.NoteOffEvent(tick=1925700, channel=0, data=[11, 0]),
   midi.NoteOnEvent(tick=1925800, channel=0, data=[20, 100]),
   midi.NoteOffEvent(tick=1925900, channel=0, data=[20, 0]),
   midi.NoteOnEvent(tick=1926000, channel=0, data=[4, 100]),
   midi.NoteOffEvent(tick=1926100, channel=0, data=[4, 0]),
   midi.NoteOnEvent(tick=1926200, channel=0, data=[36, 100]),
   midi.NoteOffEvent(tick=1926300, channel=0, data=[36, 0]),
   midi.NoteOnEvent(tick=1926400, channel=0, data=[14, 100]),
   midi.NoteOffEvent(tick=1926500, channel=0, data=[14, 0]),
   midi.NoteOnEvent(tick=1926600, channel=0, data=[5, 100]),
   midi.NoteOffEvent(tick=1926700, channel=0, data=[5, 0]),
   midi.NoteOnEvent(tick=1926800, channel=0, data=[36, 100]),
   midi.NoteOffEvent(tick=1926900, channel=0, data=[36, 0]),
   midi.NoteOnEvent(tick=1927000, channel=0, data=[19, 100]),
   midi.NoteOffEvent(tick=1927100, channel=0, data=[19, 0]),
   midi.NoteOnEvent(tick=1927200, channel=0, data=[7, 100]),
   midi.NoteOffEvent(tick=1927300, channel=0, data=[7, 0]),
   midi.NoteOnEvent(tick=1927400, channel=0, data=[4, 100]),
   midi.NoteOffEvent(tick=1927500, channel=0, data=[4, 0]),
   midi.NoteOnEvent(tick=1927600, channel=0, data=[56, 100]),
   midi.NoteOffEvent(tick=1927700, channel=0, data=[56, 0]),
   midi.NoteOnEvent(tick=1927800, channel=0, data=[36, 100]),
   midi.NoteOffEvent(tick=1927900, channel=0, data=[36, 0]),
   midi.NoteOnEvent(tick=1928000, channel=0, data=[36, 100]),
   midi.NoteOffEvent(tick=1928100, channel=0, data=[36, 0]),
   midi.NoteOnEvent(tick=1928200, channel=0, data=[36, 100]),
   midi.NoteOffEvent(tick=1928300, channel=0, data=[36, 0]),
   midi.NoteOnEvent(tick=1928400, channel=0, data=[36, 100]),
   midi.NoteOffEvent(tick=1928500, channel=0, data=[36, 0]),
   midi.NoteOnEvent(tick=1928600, channel=0, data=[19, 100]),
   midi.NoteOffEvent(tick=1928700, channel=0, data=[19, 0]),
   midi.NoteOnEvent(tick=1928800, channel=0, data=[7, 100]),
   midi.NoteOffEvent(tick=1928900, channel=0, data=[7, 0]),
   midi.NoteOnEvent(tick=1929000, channel=0, data=[8, 100]),
   midi.NoteOffEvent(tick=1929100, channel=0, data=[8, 0]),
   midi.NoteOnEvent(tick=1929200, channel=0, data=[17, 100]),
   midi.NoteOffEvent(tick=1929300, channel=0, data=[17, 0]),
   midi.NoteOnEvent(tick=1929400, channel=0, data=[3, 100]),
   midi.NoteOffEvent(tick=1929500, channel=0, data=[3, 0]),
   midi.NoteOnEvent(tick=1929600, channel=0, data=[36, 100]),
   midi.NoteOffEvent(tick=1929700, channel=0, data=[36, 0]),
   midi.NoteOnEvent(tick=1929800, channel=0, data=[4, 100]),
   midi.NoteOffEvent(tick=1929900, channel=0, data=[4, 0]),
   midi.NoteOnEvent(tick=1930000, channel=0, data=[11, 100]),
   midi.NoteOffEvent(tick=1930100, channel=0, data=[11, 0]),
   midi.NoteOnEvent(tick=1930200, channel=0, data=[4, 100]),
   midi.NoteOffEvent(tick=1930300, channel=0, data=[4, 0]),
   midi.NoteOnEvent(tick=1930400, channel=0, data=[12, 100]),
   midi.NoteOffEvent(tick=1930500, channel=0, data=[12, 0]),
   midi.NoteOnEvent(tick=1930600, channel=0, data=[4, 100]),
   midi.NoteOffEvent(tick=1930700, channel=0, data=[4, 0]),
   midi.NoteOnEvent(tick=1930800, channel=0, data=[13, 100]),
   midi.NoteOffEvent(tick=1930900, channel=0, data=[13, 0]),
   midi.NoteOnEvent(tick=1931000, channel=0, data=[19, 100]),
   midi.NoteOffEvent(tick=1931100, channel=0, data=[19, 0]),
   midi.NoteOnEvent(tick=1931200, channel=0, data=[36, 100]),
   midi.NoteOffEvent(tick=1931300, channel=0, data=[36, 0]),
   midi.NoteOnEvent(tick=1931400, channel=0, data=[14, 100]),
   midi.NoteOffEvent(tick=1931500, channel=0, data=[14, 0]),
   midi.NoteOnEvent(tick=1931600, channel=0, data=[5, 100]),
   midi.NoteOffEvent(tick=1931700, channel=0, data=[5, 0]),
   midi.NoteOnEvent(tick=1931800, channel=0, data=[36, 100]),
   midi.NoteOffEvent(tick=1931900, channel=0, data=[36, 0]),
   midi.NoteOnEvent(tick=1932000, channel=0, data=[0, 100]),
   midi.NoteOffEvent(tick=1932100, channel=0, data=[0, 0]),
   midi.NoteOnEvent(tick=1932200, channel=0, data=[13, 100]),
   midi.NoteOffEvent(tick=1932300, channel=0, data=[13, 0]),
   midi.NoteOnEvent(tick=1932400, channel=0, data=[36, 100]),
   midi.NoteOffEvent(tick=1932500, channel=0, data=[36, 0]),
   midi.NoteOnEvent(tick=1932600, channel=0, data=[0, 100]),
   midi.NoteOffEvent(tick=1932700, channel=0, data=[0, 0]),
   midi.NoteOnEvent(tick=1932800, channel=0, data=[17, 100]),
   midi.NoteOffEvent(tick=1932900, channel=0, data=[17, 0]),
   midi.NoteOnEvent(tick=1933000, channel=0, data=[17, 100]),
   midi.NoteOffEvent(tick=1933100, channel=0, data=[17, 0]),
   midi.NoteOnEvent(tick=1933200, channel=0, data=[0, 100]),
   midi.NoteOffEvent(tick=1933300, channel=0, data=[0, 0]),
   midi.NoteOnEvent(tick=1933400, channel=0, data=[24, 100]),
   midi.NoteOffEvent(tick=1933500, channel=0, data=[24, 0]),
   midi.NoteOnEvent(tick=1933600, channel=0, data=[36, 100]),
   midi.NoteOffEvent(tick=1933700, channel=0, data=[36, 0]),
   midi.NoteOnEvent(tick=1933800, channel=0, data=[49, 100]),
   midi.NoteOffEvent(tick=1933900, channel=0, data=[49, 0]),
   midi.NoteOnEvent(tick=1934000, channel=0, data=[4, 100]),
   midi.NoteOffEvent(tick=1934100, channel=0, data=[4, 0]),
   midi.NoteOnEvent(tick=1934200, channel=0, data=[11, 100]),
   midi.NoteOffEvent(tick=1934300, channel=0, data=[11, 0]),
   midi.NoteOnEvent(tick=1934400, channel=0, data=[4, 100]),
   midi.NoteOffEvent(tick=1934500, channel=0, data=[4, 0]),
   midi.NoteOnEvent(tick=1934600, channel=0, data=[12, 100]),
   midi.NoteOffEvent(tick=1934700, channel=0, data=[12, 0]),
   midi.NoteOnEvent(tick=1934800, channel=0, data=[4, 100]),
   midi.NoteOffEvent(tick=1934900, channel=0, data=[4, 0]),
   midi.NoteOnEvent(tick=1935000, channel=0, data=[13, 100]),
   midi.NoteOffEvent(tick=1935100, channel=0, data=[13, 0]),
   midi.NoteOnEvent(tick=1935200, channel=0, data=[19, 100]),
   midi.NoteOffEvent(tick=1935300, channel=0, data=[19, 0]),
   midi.NoteOnEvent(tick=1935400, channel=0, data=[36, 100]),
   midi.NoteOffEvent(tick=1935500, channel=0, data=[36, 0]),
   midi.NoteOnEvent(tick=1935600, channel=0, data=[28, 100]),
   midi.NoteOffEvent(tick=1935700, channel=0, data=[28, 0]),
   midi.NoteOnEvent(tick=1935800, channel=0, data=[50, 100]),
   midi.NoteOffEvent(tick=1935900, channel=0, data=[50, 0]),
   midi.NoteOnEvent(tick=1936000, channel=0, data=[36, 100]),
   midi.NoteOffEvent(tick=1936100, channel=0, data=[36, 0]),
   midi.NoteOnEvent(tick=1936200, channel=0, data=[8, 100]),
   midi.NoteOffEvent(tick=1936300, channel=0, data=[8, 0]),
   midi.NoteOnEvent(tick=1936400, channel=0, data=[18, 100]),
   midi.NoteOffEvent(tick=1936500, channel=0, data=[18, 0]),
   midi.NoteOnEvent(tick=1936600, channel=0, data=[36, 100]),
   midi.NoteOffEvent(tick=1936700, channel=0, data=[36, 0]),
   midi.NoteOnEvent(tick=1936800, channel=0, data=[3, 100]),
   midi.NoteOffEvent(tick=1936900, channel=0, data=[3, 0]),
   midi.NoteOnEvent(tick=1937000, channel=0, data=[4, 100]),
   midi.NoteOffEvent(tick=1937100, channel=0, data=[4, 0]),
   midi.NoteOnEvent(tick=1937200, channel=0, data=[2, 100]),
   midi.NoteOffEvent(tick=1937300, channel=0, data=[2, 0]),
   midi.NoteOnEvent(tick=1937400, channel=0, data=[17, 100]),
   midi.NoteOffEvent(tick=1937500, channel=0, data=[17, 0]),
   midi.NoteOnEvent(tick=1937600, channel=0, data=[4, 100]),
   midi.NoteOffEvent(tick=1937700, channel=0, data=[4, 0]),
   midi.NoteOnEvent(tick=1937800, channel=0, data=[0, 100]),
   midi.NoteOffEvent(tick=1937900, channel=0, data=[0, 0]),
   midi.NoteOnEvent(tick=1938000, channel=0, data=[18, 100]),
   midi.NoteOffEvent(tick=1938100, channel=0, data=[18, 0]),
   midi.NoteOnEvent(tick=1938200, channel=0, data=[4, 100]),
   midi.NoteOffEvent(tick=1938300, channel=0, data=[4, 0]),
   midi.NoteOnEvent(tick=1938400, channel=0, data=[3, 100]),
   midi.NoteOffEvent(tick=1938500, channel=0, data=[3, 0]),
   midi.NoteOnEvent(tick=1938600, channel=0, data=[36, 100]),
   midi.NoteOffEvent(tick=1938700, channel=0, data=[36, 0]),
   midi.NoteOnEvent(tick=1938800, channel=0, data=[1, 100]),
   midi.NoteOffEvent(tick=1938900, channel=0, data=[1, 0]),
   midi.NoteOnEvent(tick=1939000, channel=0, data=[24, 100]),
   midi.NoteOffEvent(tick=1939100, channel=0, data=[24, 0]),
   midi.NoteOnEvent(tick=1939200, channel=0, data=[36, 100]),
   midi.NoteOffEvent(tick=1939300, channel=0, data=[36, 0]),
   midi.NoteOnEvent(tick=1939400, channel=0, data=[27, 100]),
   midi.NoteOffEvent(tick=1939500, channel=0, data=[27, 0]),
   midi.NoteOnEvent(tick=1939600, channel=0, data=[46, 100]),
   midi.NoteOffEvent(tick=1939700, channel=0, data=[46, 0]),
   midi.NoteOnEvent(tick=1939800, channel=0, data=[56, 100]),
   midi.NoteOffEvent(tick=1939900, channel=0, data=[56, 0]),
   midi.NoteOnEvent(tick=1940000, channel=0, data=[56, 100]),
   midi.NoteOffEvent(tick=1940100, channel=0, data=[56, 0]),
   midi.NoteOnEvent(tick=1940200, channel=0, data=[56, 100]),
   midi.NoteOffEvent(tick=1940300, channel=0, data=[56, 0]),
   midi.NoteOnEvent(tick=1940400, channel=0, data=[36, 100]),
   midi.NoteOffEvent(tick=1940500, channel=0, data=[36, 0]),
   midi.NoteOnEvent(tick=1940600, channel=0, data=[36, 100]),
   midi.NoteOffEvent(tick=1940700, channel=0, data=[36, 0]),
   midi.NoteOnEvent(tick=1940800, channel=0, data=[36, 100]),
   midi.NoteOffEvent(tick=1940900, channel=0, data=[36, 0]),
   midi.NoteOnEvent(tick=1941000, channel=0, data=[36, 100]),
   midi.NoteOffEvent(tick=1941100, channel=0, data=[36, 0]),
   midi.NoteOnEvent(tick=1941200, channel=0, data=[36, 100]),
   midi.NoteOffEvent(tick=1941300, channel=0, data=[36, 0]),
   midi.NoteOnEvent(tick=1941400, channel=0, data=[36, 100]),
   midi.NoteOffEvent(tick=1941500, channel=0, data=[36, 0]),
   midi.NoteOnEvent(tick=1941600, channel=0, data=[36, 100]),
   midi.NoteOffEvent(tick=1941700, channel=0, data=[36, 0]),
   midi.NoteOnEvent(tick=1941800, channel=0, data=[36, 100]),
   midi.NoteOffEvent(tick=1941900, channel=0, data=[36, 0]),
   midi.NoteOnEvent(tick=1942000, channel=0, data=[2, 100]),
   midi.NoteOffEvent(tick=1942100, channel=0, data=[2, 0]),
   midi.NoteOnEvent(tick=1942200, channel=0, data=[46, 100]),
   midi.NoteOffEvent(tick=1942300, channel=0, data=[46, 0]),
   midi.NoteOnEvent(tick=1942400, channel=0, data=[78, 100]),
   midi.NoteOffEvent(tick=1942500, channel=0, data=[78, 0]),
   midi.NoteOnEvent(tick=1942600, channel=0, data=[15, 100]),
   midi.NoteOffEvent(tick=1942700, channel=0, data=[15, 0]),
   midi.NoteOnEvent(tick=1942800, channel=0, data=[18, 100]),
   midi.NoteOffEvent(tick=1942900, channel=0, data=[18, 0]),
   midi.NoteOnEvent(tick=1943000, channel=0, data=[73, 100]),
   midi.NoteOffEvent(tick=1943100, channel=0, data=[73, 0]),
   midi.NoteOnEvent(tick=1943200, channel=0, data=[36, 100]),
   midi.NoteOffEvent(tick=1943300, channel=0, data=[36, 0]),
   midi.NoteOnEvent(tick=1943400, channel=0, data=[74, 100]),
   midi.NoteOffEvent(tick=1943500, channel=0, data=[74, 0]),
   midi.NoteOnEvent(tick=1943600, channel=0, data=[0, 100]),
   midi.NoteOffEvent(tick=1943700, channel=0, data=[0, 0]),
   midi.NoteOnEvent(tick=1943800, channel=0, data=[36, 100]),
   midi.NoteOffEvent(tick=1943900, channel=0, data=[36, 0]),
   midi.NoteOnEvent(tick=1944000, channel=0, data=[69, 100]),
   midi.NoteOffEvent(tick=1944100, channel=0, data=[69, 0]),
   midi.NoteOnEvent(tick=1944200, channel=0, data=[36, 100]),
   midi.NoteOffEvent(tick=1944300, channel=0, data=[36, 0]),
   midi.NoteOnEvent(tick=1944400, channel=0, data=[27, 100]),
   midi.NoteOffEvent(tick=1944500, channel=0, data=[27, 0]),
   midi.NoteOnEvent(tick=1944600, channel=0, data=[38, 100]),
   midi.NoteOffEvent(tick=1944700, channel=0, data=[38, 0]),
   midi.NoteOnEvent(tick=1944800, channel=0, data=[28, 100]),
   midi.NoteOffEvent(tick=1944900, channel=0, data=[28, 0]),
   midi.NoteOnEvent(tick=1945000, channel=0, data=[38, 100]),
   midi.NoteOffEvent(tick=1945100, channel=0, data=[38, 0]),
   midi.NoteOnEvent(tick=1945200, channel=0, data=[29, 100]),
   midi.NoteOffEvent(tick=1945300, channel=0, data=[29, 0]),
   midi.NoteOnEvent(tick=1945400, channel=0, data=[56, 100]),
   midi.NoteOffEvent(tick=1945500, channel=0, data=[56, 0]),
   midi.NoteOnEvent(tick=1945600, channel=0, data=[36, 100]),
   midi.NoteOffEvent(tick=1945700, channel=0, data=[36, 0]),
   midi.NoteOnEvent(tick=1945800, channel=0, data=[36, 100]),
   midi.NoteOffEvent(tick=1945900, channel=0, data=[36, 0]),
   midi.NoteOnEvent(tick=1946000, channel=0, data=[36, 100]),
   midi.NoteOffEvent(tick=1946100, channel=0, data=[36, 0]),
   midi.NoteOnEvent(tick=1946200, channel=0, data=[36, 100]),
   midi.NoteOffEvent(tick=1946300, channel=0, data=[36, 0]),
   midi.NoteOnEvent(tick=1946400, channel=0, data=[36, 100]),
   midi.NoteOffEvent(tick=1946500, channel=0, data=[36, 0]),
   midi.NoteOnEvent(tick=1946600, channel=0, data=[36, 100]),
   midi.NoteOffEvent(tick=1946700, channel=0, data=[36, 0]),
   midi.NoteOnEvent(tick=1946800, channel=0, data=[36, 100]),
   midi.NoteOffEvent(tick=1946900, channel=0, data=[36, 0]),
   midi.NoteOnEvent(tick=1947000, channel=0, data=[36, 100]),
   midi.NoteOffEvent(tick=1947100, channel=0, data=[36, 0]),
   midi.NoteOnEvent(tick=1947200, channel=0, data=[2, 100]),
   midi.NoteOffEvent(tick=1947300, channel=0, data=[2, 0]),
   midi.NoteOnEvent(tick=1947400, channel=0, data=[46, 100]),
   midi.NoteOffEvent(tick=1947500, channel=0, data=[46, 0]),
   midi.NoteOnEvent(tick=1947600, channel=0, data=[78, 100]),
   midi.NoteOffEvent(tick=1947700, channel=0, data=[78, 0]),
   midi.NoteOnEvent(tick=1947800, channel=0, data=[15, 100]),
   midi.NoteOffEvent(tick=1947900, channel=0, data=[15, 0]),
   midi.NoteOnEvent(tick=1948000, channel=0, data=[18, 100]),
   midi.NoteOffEvent(tick=1948100, channel=0, data=[18, 0]),
   midi.NoteOnEvent(tick=1948200, channel=0, data=[73, 100]),
   midi.NoteOffEvent(tick=1948300, channel=0, data=[73, 0]),
   midi.NoteOnEvent(tick=1948400, channel=0, data=[36, 100]),
   midi.NoteOffEvent(tick=1948500, channel=0, data=[36, 0]),
   midi.NoteOnEvent(tick=1948600, channel=0, data=[74, 100]),
   midi.NoteOffEvent(tick=1948700, channel=0, data=[74, 0]),
   midi.NoteOnEvent(tick=1948800, channel=0, data=[0, 100]),
   midi.NoteOffEvent(tick=1948900, channel=0, data=[0, 0]),
   midi.NoteOnEvent(tick=1949000, channel=0, data=[51, 100]),
   midi.NoteOffEvent(tick=1949100, channel=0, data=[51, 0]),
   midi.NoteOnEvent(tick=1949200, channel=0, data=[28, 100]),
   midi.NoteOffEvent(tick=1949300, channel=0, data=[28, 0]),
   midi.NoteOnEvent(tick=1949400, channel=0, data=[52, 100]),
   midi.NoteOffEvent(tick=1949500, channel=0, data=[52, 0]),
   midi.NoteOnEvent(tick=1949600, channel=0, data=[36, 100]),
   midi.NoteOffEvent(tick=1949700, channel=0, data=[36, 0]),
   midi.NoteOnEvent(tick=1949800, channel=0, data=[45, 100]),
   midi.NoteOffEvent(tick=1949900, channel=0, data=[45, 0]),
   midi.NoteOnEvent(tick=1950000, channel=0, data=[69, 100]),
   midi.NoteOffEvent(tick=1950100, channel=0, data=[69, 0]),
   midi.NoteOnEvent(tick=1950200, channel=0, data=[36, 100]),
   midi.NoteOffEvent(tick=1950300, channel=0, data=[36, 0]),
   midi.NoteOnEvent(tick=1950400, channel=0, data=[27, 100]),
   midi.NoteOffEvent(tick=1950500, channel=0, data=[27, 0]),
   midi.NoteOnEvent(tick=1950600, channel=0, data=[37, 100]),
   midi.NoteOffEvent(tick=1950700, channel=0, data=[37, 0]),
   midi.NoteOnEvent(tick=1950800, channel=0, data=[56, 100]),
   midi.NoteOffEvent(tick=1950900, channel=0, data=[56, 0]),
   midi.NoteOnEvent(tick=1951000, channel=0, data=[36, 100]),
   midi.NoteOffEvent(tick=1951100, channel=0, data=[36, 0]),
   midi.NoteOnEvent(tick=1951200, channel=0, data=[36, 100]),
   midi.NoteOffEvent(tick=1951300, channel=0, data=[36, 0]),
   midi.NoteOnEvent(tick=1951400, channel=0, data=[36, 100]),
   midi.NoteOffEvent(tick=1951500, channel=0, data=[36, 0]),
   midi.NoteOnEvent(tick=1951600, channel=0, data=[36, 100]),
   midi.NoteOffEvent(tick=1951700, channel=0, data=[36, 0]),
   midi.NoteOnEvent(tick=1951800, channel=0, data=[36, 100]),
   midi.NoteOffEvent(tick=1951900, channel=0, data=[36, 0]),
   midi.NoteOnEvent(tick=1952000, channel=0, data=[36, 100]),
   midi.NoteOffEvent(tick=1952100, channel=0, data=[36, 0]),
   midi.NoteOnEvent(tick=1952200, channel=0, data=[36, 100]),
   midi.NoteOffEvent(tick=1952300, channel=0, data=[36, 0]),
   midi.NoteOnEvent(tick=1952400, channel=0, data=[36, 100]),
   midi.NoteOffEvent(tick=1952500, channel=0, data=[36, 0]),
   midi.NoteOnEvent(tick=1952600, channel=0, data=[2, 100]),
   midi.NoteOffEvent(tick=1952700, channel=0, data=[2, 0]),
   midi.NoteOnEvent(tick=1952800, channel=0, data=[46, 100]),
   midi.NoteOffEvent(tick=1952900, channel=0, data=[46, 0]),
   midi.NoteOnEvent(tick=1953000, channel=0, data=[78, 100]),
   midi.NoteOffEvent(tick=1953100, channel=0, data=[78, 0]),
   midi.NoteOnEvent(tick=1953200, channel=0, data=[15, 100]),
   midi.NoteOffEvent(tick=1953300, channel=0, data=[15, 0]),
   midi.NoteOnEvent(tick=1953400, channel=0, data=[18, 100]),
   midi.NoteOffEvent(tick=1953500, channel=0, data=[18, 0]),
   midi.NoteOnEvent(tick=1953600, channel=0, data=[73, 100]),
   midi.NoteOffEvent(tick=1953700, channel=0, data=[73, 0]),
   midi.NoteOnEvent(tick=1953800, channel=0, data=[36, 100]),
   midi.NoteOffEvent(tick=1953900, channel=0, data=[36, 0]),
   midi.NoteOnEvent(tick=1954000, channel=0, data=[74, 100]),
   midi.NoteOffEvent(tick=1954100, channel=0, data=[74, 0]),
   midi.NoteOnEvent(tick=1954200, channel=0, data=[0, 100]),
   midi.NoteOffEvent(tick=1954300, channel=0, data=[0, 0]),
   midi.NoteOnEvent(tick=1954400, channel=0, data=[56, 100]),
   midi.NoteOffEvent(tick=1954500, channel=0, data=[56, 0]),
   midi.NoteOnEvent(tick=1954600, channel=0, data=[36, 100]),
   midi.NoteOffEvent(tick=1954700, channel=0, data=[36, 0]),
   midi.NoteOnEvent(tick=1954800, channel=0, data=[36, 100]),
   midi.NoteOffEvent(tick=1954900, channel=0, data=[36, 0]),
   midi.NoteOnEvent(tick=1955000, channel=0, data=[36, 100]),
   midi.NoteOffEvent(tick=1955100, channel=0, data=[36, 0]),
   midi.NoteOnEvent(tick=1955200, channel=0, data=[36, 100]),
   midi.NoteOffEvent(tick=1955300, channel=0, data=[36, 0]),
   midi.NoteOnEvent(tick=1955400, channel=0, data=[36, 100]),
   midi.NoteOffEvent(tick=1955500, channel=0, data=[36, 0]),
   midi.NoteOnEvent(tick=1955600, channel=0, data=[36, 100]),
   midi.NoteOffEvent(tick=1955700, channel=0, data=[36, 0]),
   midi.NoteOnEvent(tick=1955800, channel=0, data=[36, 100]),
   midi.NoteOffEvent(tick=1955900, channel=0, data=[36, 0]),
   midi.NoteOnEvent(tick=1956000, channel=0, data=[36, 100]),
   midi.NoteOffEvent(tick=1956100, channel=0, data=[36, 0]),
   midi.NoteOnEvent(tick=1956200, channel=0, data=[27, 100]),
   midi.NoteOffEvent(tick=1956300, channel=0, data=[27, 0]),
   midi.NoteOnEvent(tick=1956400, channel=0, data=[56, 100]),
   midi.NoteOffEvent(tick=1956500, channel=0, data=[56, 0]),
   midi.NoteOnEvent(tick=1956600, channel=0, data=[36, 100]),
   midi.NoteOffEvent(tick=1956700, channel=0, data=[36, 0]),
   midi.NoteOnEvent(tick=1956800, channel=0, data=[36, 100]),
   midi.NoteOffEvent(tick=1956900, channel=0, data=[36, 0]),
   midi.NoteOnEvent(tick=1957000, channel=0, data=[36, 100]),
   midi.NoteOffEvent(tick=1957100, channel=0, data=[36, 0]),
   midi.NoteOnEvent(tick=1957200, channel=0, data=[36, 100]),
   midi.NoteOffEvent(tick=1957300, channel=0, data=[36, 0]),
   midi.NoteOnEvent(tick=1957400, channel=0, data=[36, 100]),
   midi.NoteOffEvent(tick=1957500, channel=0, data=[36, 0]),
   midi.NoteOnEvent(tick=1957600, channel=0, data=[36, 100]),
   midi.NoteOffEvent(tick=1957700, channel=0, data=[36, 0]),
   midi.NoteOnEvent(tick=1957800, channel=0, data=[36, 100]),
   midi.NoteOffEvent(tick=1957900, channel=0, data=[36, 0]),
   midi.NoteOnEvent(tick=1958000, channel=0, data=[36, 100]),
   midi.NoteOffEvent(tick=1958100, channel=0, data=[36, 0]),
   midi.NoteOnEvent(tick=1958200, channel=0, data=[28, 100]),
   midi.NoteOffEvent(tick=1958300, channel=0, data=[28, 0]),
   midi.NoteOnEvent(tick=1958400, channel=0, data=[56, 100]),
   midi.NoteOffEvent(tick=1958500, channel=0, data=[56, 0]),
   midi.NoteOnEvent(tick=1958600, channel=0, data=[36, 100]),
   midi.NoteOffEvent(tick=1958700, channel=0, data=[36, 0]),
   midi.NoteOnEvent(tick=1958800, channel=0, data=[36, 100]),
   midi.NoteOffEvent(tick=1958900, channel=0, data=[36, 0]),
   midi.NoteOnEvent(tick=1959000, channel=0, data=[36, 100]),
   midi.NoteOffEvent(tick=1959100, channel=0, data=[36, 0]),
   midi.NoteOnEvent(tick=1959200, channel=0, data=[36, 100]),
   midi.NoteOffEvent(tick=1959300, channel=0, data=[36, 0]),
   midi.NoteOnEvent(tick=1959400, channel=0, data=[36, 100]),
   midi.NoteOffEvent(tick=1959500, channel=0, data=[36, 0]),
   midi.NoteOnEvent(tick=1959600, channel=0, data=[36, 100]),
   midi.NoteOffEvent(tick=1959700, channel=0, data=[36, 0]),
   midi.NoteOnEvent(tick=1959800, channel=0, data=[36, 100]),
   midi.NoteOffEvent(tick=1959900, channel=0, data=[36, 0]),
   midi.NoteOnEvent(tick=1960000, channel=0, data=[36, 100]),
   midi.NoteOffEvent(tick=1960100, channel=0, data=[36, 0]),
   midi.NoteOnEvent(tick=1960200, channel=0, data=[28, 100]),
   midi.NoteOffEvent(tick=1960300, channel=0, data=[28, 0]),
   midi.NoteOnEvent(tick=1960400, channel=0, data=[56, 100]),
   midi.NoteOffEvent(tick=1960500, channel=0, data=[56, 0]),
   midi.NoteOnEvent(tick=1960600, channel=0, data=[56, 100]),
   midi.NoteOffEvent(tick=1960700, channel=0, data=[56, 0]),
   midi.NoteOnEvent(tick=1960800, channel=0, data=[36, 100]),
   midi.NoteOffEvent(tick=1960900, channel=0, data=[36, 0]),
   midi.NoteOnEvent(tick=1961000, channel=0, data=[56, 100]),
   midi.NoteOffEvent(tick=1961100, channel=0, data=[56, 0]),
   midi.NoteOnEvent(tick=1961200, channel=0, data=[36, 100]),
   midi.NoteOffEvent(tick=1961300, channel=0, data=[36, 0]),
   midi.NoteOnEvent(tick=1961400, channel=0, data=[36, 100]),
   midi.NoteOffEvent(tick=1961500, channel=0, data=[36, 0]),
   midi.NoteOnEvent(tick=1961600, channel=0, data=[36, 100]),
   midi.NoteOffEvent(tick=1961700, channel=0, data=[36, 0]),
   midi.NoteOnEvent(tick=1961800, channel=0, data=[36, 100]),
   midi.NoteOffEvent(tick=1961900, channel=0, data=[36, 0]),
   midi.NoteOnEvent(tick=1962000, channel=0, data=[24, 100]),
   midi.NoteOffEvent(tick=1962100, channel=0, data=[24, 0]),
   midi.NoteOnEvent(tick=1962200, channel=0, data=[14, 100]),
   midi.NoteOffEvent(tick=1962300, channel=0, data=[14, 0]),
   midi.NoteOnEvent(tick=1962400, channel=0, data=[20, 100]),
   midi.NoteOffEvent(tick=1962500, channel=0, data=[20, 0]),
   midi.NoteOnEvent(tick=1962600, channel=0, data=[36, 100]),
   midi.NoteOffEvent(tick=1962700, channel=0, data=[36, 0]),
   midi.NoteOnEvent(tick=1962800, channel=0, data=[2, 100]),
   midi.NoteOffEvent(tick=1962900, channel=0, data=[2, 0]),
   midi.NoteOnEvent(tick=1963000, channel=0, data=[0, 100]),
   midi.NoteOffEvent(tick=1963100, channel=0, data=[0, 0]),
   midi.NoteOnEvent(tick=1963200, channel=0, data=[13, 100]),
   midi.NoteOffEvent(tick=1963300, channel=0, data=[13, 0]),
   midi.NoteOnEvent(tick=1963400, channel=0, data=[13, 100]),
   midi.NoteOffEvent(tick=1963500, channel=0, data=[13, 0]),
   midi.NoteOnEvent(tick=1963600, channel=0, data=[14, 100]),
   midi.NoteOffEvent(tick=1963700, channel=0, data=[14, 0]),
   midi.NoteOnEvent(tick=1963800, channel=0, data=[19, 100]),
   midi.NoteOffEvent(tick=1963900, channel=0, data=[19, 0]),
   midi.NoteOnEvent(tick=1964000, channel=0, data=[36, 100]),
   midi.NoteOffEvent(tick=1964100, channel=0, data=[36, 0]),
   midi.NoteOnEvent(tick=1964200, channel=0, data=[20, 100]),
   midi.NoteOffEvent(tick=1964300, channel=0, data=[20, 0]),
   midi.NoteOnEvent(tick=1964400, channel=0, data=[18, 100]),
   midi.NoteOffEvent(tick=1964500, channel=0, data=[18, 0]),
   midi.NoteOnEvent(tick=1964600, channel=0, data=[4, 100]),
   midi.NoteOffEvent(tick=1964700, channel=0, data=[4, 0]),
   midi.NoteOnEvent(tick=1964800, channel=0, data=[36, 100]),
   midi.NoteOffEvent(tick=1964900, channel=0, data=[36, 0]),
   midi.NoteOnEvent(tick=1965000, channel=0, data=[19, 100]),
   midi.NoteOffEvent(tick=1965100, channel=0, data=[19, 0]),
   midi.NoteOnEvent(tick=1965200, channel=0, data=[7, 100]),
   midi.NoteOffEvent(tick=1965300, channel=0, data=[7, 0]),
   midi.NoteOnEvent(tick=1965400, channel=0, data=[4, 100]),
   midi.NoteOffEvent(tick=1965500, channel=0, data=[4, 0]),
   midi.NoteOnEvent(tick=1965600, channel=0, data=[36, 100]),
   midi.NoteOffEvent(tick=1965700, channel=0, data=[36, 0]),
   midi.NoteOnEvent(tick=1965800, channel=0, data=[45, 100]),
   midi.NoteOffEvent(tick=1965900, channel=0, data=[45, 0]),
   midi.NoteOnEvent(tick=1966000, channel=0, data=[69, 100]),
   midi.NoteOffEvent(tick=1966100, channel=0, data=[69, 0]),
   midi.NoteOnEvent(tick=1966200, channel=0, data=[36, 100]),
   midi.NoteOffEvent(tick=1966300, channel=0, data=[36, 0]),
   midi.NoteOnEvent(tick=1966400, channel=0, data=[14, 100]),
   midi.NoteOffEvent(tick=1966500, channel=0, data=[14, 0]),
   midi.NoteOnEvent(tick=1966600, channel=0, data=[15, 100]),
   midi.NoteOffEvent(tick=1966700, channel=0, data=[15, 0]),
   midi.NoteOnEvent(tick=1966800, channel=0, data=[4, 100]),
   midi.NoteOffEvent(tick=1966900, channel=0, data=[4, 0]),
   midi.NoteOnEvent(tick=1967000, channel=0, data=[17, 100]),
   midi.NoteOffEvent(tick=1967100, channel=0, data=[17, 0]),
   midi.NoteOnEvent(tick=1967200, channel=0, data=[0, 100]),
   midi.NoteOffEvent(tick=1967300, channel=0, data=[0, 0]),
   midi.NoteOnEvent(tick=1967400, channel=0, data=[19, 100]),
   midi.NoteOffEvent(tick=1967500, channel=0, data=[19, 0]),
   midi.NoteOnEvent(tick=1967600, channel=0, data=[14, 100]),
   midi.NoteOffEvent(tick=1967700, channel=0, data=[14, 0]),
   midi.NoteOnEvent(tick=1967800, channel=0, data=[17, 100]),
   midi.NoteOffEvent(tick=1967900, channel=0, data=[17, 0]),
   midi.NoteOnEvent(tick=1968000, channel=0, data=[36, 100]),
   midi.NoteOffEvent(tick=1968100, channel=0, data=[36, 0]),
   midi.NoteOnEvent(tick=1968200, channel=0, data=[19, 100]),
   midi.NoteOffEvent(tick=1968300, channel=0, data=[19, 0]),
   midi.NoteOnEvent(tick=1968400, channel=0, data=[14, 100]),
   midi.NoteOffEvent(tick=1968500, channel=0, data=[14, 0]),
   midi.NoteOnEvent(tick=1968600, channel=0, data=[36, 100]),
   midi.NoteOffEvent(tick=1968700, channel=0, data=[36, 0]),
   midi.NoteOnEvent(tick=1968800, channel=0, data=[3, 100]),
   midi.NoteOffEvent(tick=1968900, channel=0, data=[3, 0]),
   midi.NoteOnEvent(tick=1969000, channel=0, data=[4, 100]),
   midi.NoteOffEvent(tick=1969100, channel=0, data=[4, 0]),
   midi.NoteOnEvent(tick=1969200, channel=0, data=[11, 100]),
   midi.NoteOffEvent(tick=1969300, channel=0, data=[11, 0]),
   midi.NoteOnEvent(tick=1969400, channel=0, data=[4, 100]),
   midi.NoteOffEvent(tick=1969500, channel=0, data=[4, 0]),
   midi.NoteOnEvent(tick=1969600, channel=0, data=[19, 100]),
   midi.NoteOffEvent(tick=1969700, channel=0, data=[19, 0]),
   midi.NoteOnEvent(tick=1969800, channel=0, data=[4, 100]),
   midi.NoteOffEvent(tick=1969900, channel=0, data=[4, 0]),
   midi.NoteOnEvent(tick=1970000, channel=0, data=[36, 100]),
   midi.NoteOffEvent(tick=1970100, channel=0, data=[36, 0]),
   midi.NoteOnEvent(tick=1970200, channel=0, data=[19, 100]),
   midi.NoteOffEvent(tick=1970300, channel=0, data=[19, 0]),
   midi.NoteOnEvent(tick=1970400, channel=0, data=[7, 100]),
   midi.NoteOffEvent(tick=1970500, channel=0, data=[7, 0]),
   midi.NoteOnEvent(tick=1970600, channel=0, data=[4, 100]),
   midi.NoteOffEvent(tick=1970700, channel=0, data=[4, 0]),
   midi.NoteOnEvent(tick=1970800, channel=0, data=[36, 100]),
   midi.NoteOffEvent(tick=1970900, channel=0, data=[36, 0]),
   midi.NoteOnEvent(tick=1971000, channel=0, data=[21, 100]),
   midi.NoteOffEvent(tick=1971100, channel=0, data=[21, 0]),
   midi.NoteOnEvent(tick=1971200, channel=0, data=[0, 100]),
   midi.NoteOffEvent(tick=1971300, channel=0, data=[0, 0]),
   midi.NoteOnEvent(tick=1971400, channel=0, data=[11, 100]),
   midi.NoteOffEvent(tick=1971500, channel=0, data=[11, 0]),
   midi.NoteOnEvent(tick=1971600, channel=0, data=[20, 100]),
   midi.NoteOffEvent(tick=1971700, channel=0, data=[20, 0]),
   midi.NoteOnEvent(tick=1971800, channel=0, data=[4, 100]),
   midi.NoteOffEvent(tick=1971900, channel=0, data=[4, 0]),
   midi.NoteOnEvent(tick=1972000, channel=0, data=[18, 100]),
   midi.NoteOffEvent(tick=1972100, channel=0, data=[18, 0]),
   midi.NoteOnEvent(tick=1972200, channel=0, data=[36, 100]),
   midi.NoteOffEvent(tick=1972300, channel=0, data=[36, 0]),
   midi.NoteOnEvent(tick=1972400, channel=0, data=[14, 100]),
   midi.NoteOffEvent(tick=1972500, channel=0, data=[14, 0]),
   midi.NoteOnEvent(tick=1972600, channel=0, data=[5, 100]),
   midi.NoteOffEvent(tick=1972700, channel=0, data=[5, 0]),
   midi.NoteOnEvent(tick=1972800, channel=0, data=[36, 100]),
   midi.NoteOffEvent(tick=1972900, channel=0, data=[36, 0]),
   midi.NoteOnEvent(tick=1973000, channel=0, data=[0, 100]),
   midi.NoteOffEvent(tick=1973100, channel=0, data=[0, 0]),
   midi.NoteOnEvent(tick=1973200, channel=0, data=[36, 100]),
   midi.NoteOffEvent(tick=1973300, channel=0, data=[36, 0]),
   midi.NoteOnEvent(tick=1973400, channel=0, data=[21, 100]),
   midi.NoteOffEvent(tick=1973500, channel=0, data=[21, 0]),
   midi.NoteOnEvent(tick=1973600, channel=0, data=[0, 100]),
   midi.NoteOffEvent(tick=1973700, channel=0, data=[0, 0]),
   midi.NoteOnEvent(tick=1973800, channel=0, data=[17, 100]),
   midi.NoteOffEvent(tick=1973900, channel=0, data=[17, 0]),
   midi.NoteOnEvent(tick=1974000, channel=0, data=[8, 100]),
   midi.NoteOffEvent(tick=1974100, channel=0, data=[8, 0]),
   midi.NoteOnEvent(tick=1974200, channel=0, data=[0, 100]),
   midi.NoteOffEvent(tick=1974300, channel=0, data=[0, 0]),
   midi.NoteOnEvent(tick=1974400, channel=0, data=[1, 100]),
   midi.NoteOffEvent(tick=1974500, channel=0, data=[1, 0]),
   midi.NoteOnEvent(tick=1974600, channel=0, data=[11, 100]),
   midi.NoteOffEvent(tick=1974700, channel=0, data=[11, 0]),
   midi.NoteOnEvent(tick=1974800, channel=0, data=[4, 100]),
   midi.NoteOffEvent(tick=1974900, channel=0, data=[4, 0]),
   midi.NoteOnEvent(tick=1975000, channel=0, data=[37, 100]),
   midi.NoteOffEvent(tick=1975100, channel=0, data=[37, 0]),
   midi.NoteOnEvent(tick=1975200, channel=0, data=[36, 100]),
   midi.NoteOffEvent(tick=1975300, channel=0, data=[36, 0]),
   midi.NoteOnEvent(tick=1975400, channel=0, data=[19, 100]),
   midi.NoteOffEvent(tick=1975500, channel=0, data=[19, 0]),
   midi.NoteOnEvent(tick=1975600, channel=0, data=[14, 100]),
   midi.NoteOffEvent(tick=1975700, channel=0, data=[14, 0]),
   midi.NoteOnEvent(tick=1975800, channel=0, data=[36, 100]),
   midi.NoteOffEvent(tick=1975900, channel=0, data=[36, 0]),
   midi.NoteOnEvent(tick=1976000, channel=0, data=[56, 100]),
   midi.NoteOffEvent(tick=1976100, channel=0, data=[56, 0]),
   midi.NoteOnEvent(tick=1976200, channel=0, data=[36, 100]),
   midi.NoteOffEvent(tick=1976300, channel=0, data=[36, 0]),
   midi.NoteOnEvent(tick=1976400, channel=0, data=[36, 100]),
   midi.NoteOffEvent(tick=1976500, channel=0, data=[36, 0]),
   midi.NoteOnEvent(tick=1976600, channel=0, data=[36, 100]),
   midi.NoteOffEvent(tick=1976700, channel=0, data=[36, 0]),
   midi.NoteOnEvent(tick=1976800, channel=0, data=[36, 100]),
   midi.NoteOffEvent(tick=1976900, channel=0, data=[36, 0]),
   midi.NoteOnEvent(tick=1977000, channel=0, data=[3, 100]),
   midi.NoteOffEvent(tick=1977100, channel=0, data=[3, 0]),
   midi.NoteOnEvent(tick=1977200, channel=0, data=[4, 100]),
   midi.NoteOffEvent(tick=1977300, channel=0, data=[4, 0]),
   midi.NoteOnEvent(tick=1977400, channel=0, data=[11, 100]),
   midi.NoteOffEvent(tick=1977500, channel=0, data=[11, 0]),
   midi.NoteOnEvent(tick=1977600, channel=0, data=[4, 100]),
   midi.NoteOffEvent(tick=1977700, channel=0, data=[4, 0]),
   midi.NoteOnEvent(tick=1977800, channel=0, data=[19, 100]),
   midi.NoteOffEvent(tick=1977900, channel=0, data=[19, 0]),
   midi.NoteOnEvent(tick=1978000, channel=0, data=[4, 100]),
   midi.NoteOffEvent(tick=1978100, channel=0, data=[4, 0]),
   midi.NoteOnEvent(tick=1978200, channel=0, data=[36, 100]),
   midi.NoteOffEvent(tick=1978300, channel=0, data=[36, 0]),
   midi.NoteOnEvent(tick=1978400, channel=0, data=[0, 100]),
   midi.NoteOffEvent(tick=1978500, channel=0, data=[0, 0]),
   midi.NoteOnEvent(tick=1978600, channel=0, data=[11, 100]),
   midi.NoteOffEvent(tick=1978700, channel=0, data=[11, 0]),
   midi.NoteOnEvent(tick=1978800, channel=0, data=[11, 100]),
   midi.NoteOffEvent(tick=1978900, channel=0, data=[11, 0]),
   midi.NoteOnEvent(tick=1979000, channel=0, data=[36, 100]),
   midi.NoteOffEvent(tick=1979100, channel=0, data=[36, 0]),
   midi.NoteOnEvent(tick=1979200, channel=0, data=[19, 100]),
   midi.NoteOffEvent(tick=1979300, channel=0, data=[19, 0]),
   midi.NoteOnEvent(tick=1979400, channel=0, data=[7, 100]),
   midi.NoteOffEvent(tick=1979500, channel=0, data=[7, 0]),
   midi.NoteOnEvent(tick=1979600, channel=0, data=[4, 100]),
   midi.NoteOffEvent(tick=1979700, channel=0, data=[4, 0]),
   midi.NoteOnEvent(tick=1979800, channel=0, data=[36, 100]),
   midi.NoteOffEvent(tick=1979900, channel=0, data=[36, 0]),
   midi.NoteOnEvent(tick=1980000, channel=0, data=[21, 100]),
   midi.NoteOffEvent(tick=1980100, channel=0, data=[21, 0]),
   midi.NoteOnEvent(tick=1980200, channel=0, data=[0, 100]),
   midi.NoteOffEvent(tick=1980300, channel=0, data=[0, 0]),
   midi.NoteOnEvent(tick=1980400, channel=0, data=[11, 100]),
   midi.NoteOffEvent(tick=1980500, channel=0, data=[11, 0]),
   midi.NoteOnEvent(tick=1980600, channel=0, data=[20, 100]),
   midi.NoteOffEvent(tick=1980700, channel=0, data=[20, 0]),
   midi.NoteOnEvent(tick=1980800, channel=0, data=[4, 100]),
   midi.NoteOffEvent(tick=1980900, channel=0, data=[4, 0]),
   midi.NoteOnEvent(tick=1981000, channel=0, data=[18, 100]),
   midi.NoteOffEvent(tick=1981100, channel=0, data=[18, 0]),
   midi.NoteOnEvent(tick=1981200, channel=0, data=[36, 100]),
   midi.NoteOffEvent(tick=1981300, channel=0, data=[36, 0]),
   midi.NoteOnEvent(tick=1981400, channel=0, data=[19, 100]),
   midi.NoteOffEvent(tick=1981500, channel=0, data=[19, 0]),
   midi.NoteOnEvent(tick=1981600, channel=0, data=[7, 100]),
   midi.NoteOffEvent(tick=1981700, channel=0, data=[7, 0]),
   midi.NoteOnEvent(tick=1981800, channel=0, data=[0, 100]),
   midi.NoteOffEvent(tick=1981900, channel=0, data=[0, 0]),
   midi.NoteOnEvent(tick=1982000, channel=0, data=[19, 100]),
   midi.NoteOffEvent(tick=1982100, channel=0, data=[19, 0]),
   midi.NoteOnEvent(tick=1982200, channel=0, data=[36, 100]),
   midi.NoteOffEvent(tick=1982300, channel=0, data=[36, 0]),
   midi.NoteOnEvent(tick=1982400, channel=0, data=[0, 100]),
   midi.NoteOffEvent(tick=1982500, channel=0, data=[0, 0]),
   midi.NoteOnEvent(tick=1982600, channel=0, data=[17, 100]),
   midi.NoteOffEvent(tick=1982700, channel=0, data=[17, 0]),
   midi.NoteOnEvent(tick=1982800, channel=0, data=[4, 100]),
   midi.NoteOffEvent(tick=1982900, channel=0, data=[4, 0]),
   midi.NoteOnEvent(tick=1983000, channel=0, data=[36, 100]),
   midi.NoteOffEvent(tick=1983100, channel=0, data=[36, 0]),
   midi.NoteOnEvent(tick=1983200, channel=0, data=[0, 100]),
   midi.NoteOffEvent(tick=1983300, channel=0, data=[0, 0]),
   midi.NoteOnEvent(tick=1983400, channel=0, data=[18, 100]),
   midi.NoteOffEvent(tick=1983500, channel=0, data=[18, 0]),
   midi.NoteOnEvent(tick=1983600, channel=0, data=[18, 100]),
   midi.NoteOffEvent(tick=1983700, channel=0, data=[18, 0]),
   midi.NoteOnEvent(tick=1983800, channel=0, data=[8, 100]),
   midi.NoteOffEvent(tick=1983900, channel=0, data=[8, 0]),
   midi.NoteOnEvent(tick=1984000, channel=0, data=[6, 100]),
   midi.NoteOffEvent(tick=1984100, channel=0, data=[6, 0]),
   midi.NoteOnEvent(tick=1984200, channel=0, data=[13, 100]),
   midi.NoteOffEvent(tick=1984300, channel=0, data=[13, 0]),
   midi.NoteOnEvent(tick=1984400, channel=0, data=[4, 100]),
   midi.NoteOffEvent(tick=1984500, channel=0, data=[4, 0]),
   midi.NoteOnEvent(tick=1984600, channel=0, data=[3, 100]),
   midi.NoteOffEvent(tick=1984700, channel=0, data=[3, 0]),
   midi.NoteOnEvent(tick=1984800, channel=0, data=[36, 100]),
   midi.NoteOffEvent(tick=1984900, channel=0, data=[36, 0]),
   midi.NoteOnEvent(tick=1985000, channel=0, data=[19, 100]),
   midi.NoteOffEvent(tick=1985100, channel=0, data=[19, 0]),
   midi.NoteOnEvent(tick=1985200, channel=0, data=[14, 100]),
   midi.NoteOffEvent(tick=1985300, channel=0, data=[14, 0]),
   midi.NoteOnEvent(tick=1985400, channel=0, data=[36, 100]),
   midi.NoteOffEvent(tick=1985500, channel=0, data=[36, 0]),
   midi.NoteOnEvent(tick=1985600, channel=0, data=[0, 100]),
   midi.NoteOffEvent(tick=1985700, channel=0, data=[0, 0]),
   midi.NoteOnEvent(tick=1985800, channel=0, data=[36, 100]),
   midi.NoteOffEvent(tick=1985900, channel=0, data=[36, 0]),
   midi.NoteOnEvent(tick=1986000, channel=0, data=[21, 100]),
   midi.NoteOffEvent(tick=1986100, channel=0, data=[21, 0]),
   midi.NoteOnEvent(tick=1986200, channel=0, data=[0, 100]),
   midi.NoteOffEvent(tick=1986300, channel=0, data=[0, 0]),
   midi.NoteOnEvent(tick=1986400, channel=0, data=[17, 100]),
   midi.NoteOffEvent(tick=1986500, channel=0, data=[17, 0]),
   midi.NoteOnEvent(tick=1986600, channel=0, data=[8, 100]),
   midi.NoteOffEvent(tick=1986700, channel=0, data=[8, 0]),
   midi.NoteOnEvent(tick=1986800, channel=0, data=[0, 100]),
   midi.NoteOffEvent(tick=1986900, channel=0, data=[0, 0]),
   midi.NoteOnEvent(tick=1987000, channel=0, data=[1, 100]),
   midi.NoteOffEvent(tick=1987100, channel=0, data=[1, 0]),
   midi.NoteOnEvent(tick=1987200, channel=0, data=[11, 100]),
   midi.NoteOffEvent(tick=1987300, channel=0, data=[11, 0]),
   midi.NoteOnEvent(tick=1987400, channel=0, data=[4, 100]),
   midi.NoteOffEvent(tick=1987500, channel=0, data=[4, 0]),
   midi.NoteOnEvent(tick=1987600, channel=0, data=[38, 100]),
   midi.NoteOffEvent(tick=1987700, channel=0, data=[38, 0]),
   midi.NoteOnEvent(tick=1987800, channel=0, data=[36, 100]),
   midi.NoteOffEvent(tick=1987900, channel=0, data=[36, 0]),
   midi.NoteOnEvent(tick=1988000, channel=0, data=[20, 100]),
   midi.NoteOffEvent(tick=1988100, channel=0, data=[20, 0]),
   midi.NoteOnEvent(tick=1988200, channel=0, data=[18, 100]),
   midi.NoteOffEvent(tick=1988300, channel=0, data=[18, 0]),
   midi.NoteOnEvent(tick=1988400, channel=0, data=[4, 100]),
   midi.NoteOffEvent(tick=1988500, channel=0, data=[4, 0]),
   midi.NoteOnEvent(tick=1988600, channel=0, data=[36, 100]),
   midi.NoteOffEvent(tick=1988700, channel=0, data=[36, 0]),
   midi.NoteOnEvent(tick=1988800, channel=0, data=[19, 100]),
   midi.NoteOffEvent(tick=1988900, channel=0, data=[19, 0]),
   midi.NoteOnEvent(tick=1989000, channel=0, data=[7, 100]),
   midi.NoteOffEvent(tick=1989100, channel=0, data=[7, 0]),
   midi.NoteOnEvent(tick=1989200, channel=0, data=[4, 100]),
   midi.NoteOffEvent(tick=1989300, channel=0, data=[4, 0]),
   midi.NoteOnEvent(tick=1989400, channel=0, data=[36, 100]),
   midi.NoteOffEvent(tick=1989500, channel=0, data=[36, 0]),
   midi.NoteOnEvent(tick=1989600, channel=0, data=[2, 100]),
   midi.NoteOffEvent(tick=1989700, channel=0, data=[2, 0]),
   midi.NoteOnEvent(tick=1989800, channel=0, data=[11, 100]),
   midi.NoteOffEvent(tick=1989900, channel=0, data=[11, 0]),
   midi.NoteOnEvent(tick=1990000, channel=0, data=[4, 100]),
   midi.NoteOffEvent(tick=1990100, channel=0, data=[4, 0]),
   midi.NoteOnEvent(tick=1990200, channel=0, data=[0, 100]),
   midi.NoteOffEvent(tick=1990300, channel=0, data=[0, 0]),
   midi.NoteOnEvent(tick=1990400, channel=0, data=[17, 100]),
   midi.NoteOffEvent(tick=1990500, channel=0, data=[17, 0]),
   midi.NoteOnEvent(tick=1990600, channel=0, data=[45, 100]),
   midi.NoteOffEvent(tick=1990700, channel=0, data=[45, 0]),
   midi.NoteOnEvent(tick=1990800, channel=0, data=[8, 100]),
   midi.NoteOffEvent(tick=1990900, channel=0, data=[8, 0]),
   midi.NoteOnEvent(tick=1991000, channel=0, data=[19, 100]),
   midi.NoteOffEvent(tick=1991100, channel=0, data=[19, 0]),
   midi.NoteOnEvent(tick=1991200, channel=0, data=[4, 100]),
   midi.NoteOffEvent(tick=1991300, channel=0, data=[4, 0]),
   midi.NoteOnEvent(tick=1991400, channel=0, data=[12, 100]),
   midi.NoteOffEvent(tick=1991500, channel=0, data=[12, 0]),
   midi.NoteOnEvent(tick=1991600, channel=0, data=[36, 100]),
   midi.NoteOffEvent(tick=1991700, channel=0, data=[36, 0]),
   midi.NoteOnEvent(tick=1991800, channel=0, data=[56, 100]),
   midi.NoteOffEvent(tick=1991900, channel=0, data=[56, 0]),
   midi.NoteOnEvent(tick=1992000, channel=0, data=[36, 100]),
   midi.NoteOffEvent(tick=1992100, channel=0, data=[36, 0]),
   midi.NoteOnEvent(tick=1992200, channel=0, data=[36, 100]),
   midi.NoteOffEvent(tick=1992300, channel=0, data=[36, 0]),
   midi.NoteOnEvent(tick=1992400, channel=0, data=[36, 100]),
   midi.NoteOffEvent(tick=1992500, channel=0, data=[36, 0]),
   midi.NoteOnEvent(tick=1992600, channel=0, data=[36, 100]),
   midi.NoteOffEvent(tick=1992700, channel=0, data=[36, 0]),
   midi.NoteOnEvent(tick=1992800, channel=0, data=[14, 100]),
   midi.NoteOffEvent(tick=1992900, channel=0, data=[14, 0]),
   midi.NoteOnEvent(tick=1993000, channel=0, data=[17, 100]),
   midi.NoteOffEvent(tick=1993100, channel=0, data=[17, 0]),
   midi.NoteOnEvent(tick=1993200, channel=0, data=[36, 100]),
   midi.NoteOffEvent(tick=1993300, channel=0, data=[36, 0]),
   midi.NoteOnEvent(tick=1993400, channel=0, data=[2, 100]),
   midi.NoteOffEvent(tick=1993500, channel=0, data=[2, 0]),
   midi.NoteOnEvent(tick=1993600, channel=0, data=[11, 100]),
   midi.NoteOffEvent(tick=1993700, channel=0, data=[11, 0]),
   midi.NoteOnEvent(tick=1993800, channel=0, data=[4, 100]),
   midi.NoteOffEvent(tick=1993900, channel=0, data=[4, 0]),
   midi.NoteOnEvent(tick=1994000, channel=0, data=[0, 100]),
   midi.NoteOffEvent(tick=1994100, channel=0, data=[0, 0]),
   midi.NoteOnEvent(tick=1994200, channel=0, data=[17, 100]),
   midi.NoteOffEvent(tick=1994300, channel=0, data=[17, 0]),
   midi.NoteOnEvent(tick=1994400, channel=0, data=[45, 100]),
   midi.NoteOffEvent(tick=1994500, channel=0, data=[45, 0]),
   midi.NoteOnEvent(tick=1994600, channel=0, data=[21, 100]),
   midi.NoteOffEvent(tick=1994700, channel=0, data=[21, 0]),
   midi.NoteOnEvent(tick=1994800, channel=0, data=[0, 100]),
   midi.NoteOffEvent(tick=1994900, channel=0, data=[0, 0]),
   midi.NoteOnEvent(tick=1995000, channel=0, data=[17, 100]),
   midi.NoteOffEvent(tick=1995100, channel=0, data=[17, 0]),
   midi.NoteOnEvent(tick=1995200, channel=0, data=[8, 100]),
   midi.NoteOffEvent(tick=1995300, channel=0, data=[8, 0]),
   midi.NoteOnEvent(tick=1995400, channel=0, data=[0, 100]),
   midi.NoteOffEvent(tick=1995500, channel=0, data=[0, 0]),
   midi.NoteOnEvent(tick=1995600, channel=0, data=[1, 100]),
   midi.NoteOffEvent(tick=1995700, channel=0, data=[1, 0]),
   midi.NoteOnEvent(tick=1995800, channel=0, data=[11, 100]),
   midi.NoteOffEvent(tick=1995900, channel=0, data=[11, 0]),
   midi.NoteOnEvent(tick=1996000, channel=0, data=[4, 100]),
   midi.NoteOffEvent(tick=1996100, channel=0, data=[4, 0]),
   midi.NoteOnEvent(tick=1996200, channel=0, data=[36, 100]),
   midi.NoteOffEvent(tick=1996300, channel=0, data=[36, 0]),
   midi.NoteOnEvent(tick=1996400, channel=0, data=[2, 100]),
   midi.NoteOffEvent(tick=1996500, channel=0, data=[2, 0]),
   midi.NoteOnEvent(tick=1996600, channel=0, data=[12, 100]),
   midi.NoteOffEvent(tick=1996700, channel=0, data=[12, 0]),
   midi.NoteOnEvent(tick=1996800, channel=0, data=[3, 100]),
   midi.NoteOffEvent(tick=1996900, channel=0, data=[3, 0]),
   midi.NoteOnEvent(tick=1997000, channel=0, data=[11, 100]),
   midi.NoteOffEvent(tick=1997100, channel=0, data=[11, 0]),
   midi.NoteOnEvent(tick=1997200, channel=0, data=[4, 100]),
   midi.NoteOffEvent(tick=1997300, channel=0, data=[4, 0]),
   midi.NoteOnEvent(tick=1997400, channel=0, data=[19, 100]),
   midi.NoteOffEvent(tick=1997500, channel=0, data=[19, 0]),
   midi.NoteOnEvent(tick=1997600, channel=0, data=[18, 100]),
   midi.NoteOffEvent(tick=1997700, channel=0, data=[18, 0]),
   midi.NoteOnEvent(tick=1997800, channel=0, data=[36, 100]),
   midi.NoteOffEvent(tick=1997900, channel=0, data=[36, 0]),
   midi.NoteOnEvent(tick=1998000, channel=0, data=[19, 100]),
   midi.NoteOffEvent(tick=1998100, channel=0, data=[19, 0]),
   midi.NoteOnEvent(tick=1998200, channel=0, data=[14, 100]),
   midi.NoteOffEvent(tick=1998300, channel=0, data=[14, 0]),
   midi.NoteOnEvent(tick=1998400, channel=0, data=[36, 100]),
   midi.NoteOffEvent(tick=1998500, channel=0, data=[36, 0]),
   midi.NoteOnEvent(tick=1998600, channel=0, data=[0, 100]),
   midi.NoteOffEvent(tick=1998700, channel=0, data=[0, 0]),
   midi.NoteOnEvent(tick=1998800, channel=0, data=[18, 100]),
   midi.NoteOffEvent(tick=1998900, channel=0, data=[18, 0]),
   midi.NoteOnEvent(tick=1999000, channel=0, data=[18, 100]),
   midi.NoteOffEvent(tick=1999100, channel=0, data=[18, 0]),
   midi.NoteOnEvent(tick=1999200, channel=0, data=[8, 100]),
   midi.NoteOffEvent(tick=1999300, channel=0, data=[8, 0]),
   midi.NoteOnEvent(tick=1999400, channel=0, data=[6, 100]),
   midi.NoteOffEvent(tick=1999500, channel=0, data=[6, 0]),
   midi.NoteOnEvent(tick=1999600, channel=0, data=[13, 100]),
   midi.NoteOffEvent(tick=1999700, channel=0, data=[13, 0]),
   midi.NoteOnEvent(tick=1999800, channel=0, data=[36, 100]),
   midi.NoteOffEvent(tick=1999900, channel=0, data=[36, 0]),
   midi.NoteOnEvent(tick=2000000, channel=0, data=[0, 100]),
   midi.NoteOffEvent(tick=2000100, channel=0, data=[0, 0]),
   midi.NoteOnEvent(tick=2000200, channel=0, data=[36, 100]),
   midi.NoteOffEvent(tick=2000300, channel=0, data=[36, 0]),
   midi.NoteOnEvent(tick=2000400, channel=0, data=[21, 100]),
   midi.NoteOffEvent(tick=2000500, channel=0, data=[21, 0]),
   midi.NoteOnEvent(tick=2000600, channel=0, data=[0, 100]),
   midi.NoteOffEvent(tick=2000700, channel=0, data=[0, 0]),
   midi.NoteOnEvent(tick=2000800, channel=0, data=[11, 100]),
   midi.NoteOffEvent(tick=2000900, channel=0, data=[11, 0]),
   midi.NoteOnEvent(tick=2001000, channel=0, data=[20, 100]),
   midi.NoteOffEvent(tick=2001100, channel=0, data=[20, 0]),
   midi.NoteOnEvent(tick=2001200, channel=0, data=[4, 100]),
   midi.NoteOffEvent(tick=2001300, channel=0, data=[4, 0]),
   midi.NoteOnEvent(tick=2001400, channel=0, data=[36, 100]),
   midi.NoteOffEvent(tick=2001500, channel=0, data=[36, 0]),
   midi.NoteOnEvent(tick=2001600, channel=0, data=[14, 100]),
   midi.NoteOffEvent(tick=2001700, channel=0, data=[14, 0]),
   midi.NoteOnEvent(tick=2001800, channel=0, data=[5, 100]),
   midi.NoteOffEvent(tick=2001900, channel=0, data=[5, 0]),
   midi.NoteOnEvent(tick=2002000, channel=0, data=[36, 100]),
   midi.NoteOffEvent(tick=2002100, channel=0, data=[36, 0]),
   midi.NoteOnEvent(tick=2002200, channel=0, data=[74, 100]),
   midi.NoteOffEvent(tick=2002300, channel=0, data=[74, 0]),
   midi.NoteOnEvent(tick=2002400, channel=0, data=[13, 100]),
   midi.NoteOffEvent(tick=2002500, channel=0, data=[13, 0]),
   midi.NoteOnEvent(tick=2002600, channel=0, data=[20, 100]),
   midi.NoteOffEvent(tick=2002700, channel=0, data=[20, 0]),
   midi.NoteOnEvent(tick=2002800, channel=0, data=[11, 100]),
   midi.NoteOffEvent(tick=2002900, channel=0, data=[11, 0]),
   midi.NoteOnEvent(tick=2003000, channel=0, data=[11, 100]),
   midi.NoteOffEvent(tick=2003100, channel=0, data=[11, 0]),
   midi.NoteOnEvent(tick=2003200, channel=0, data=[36, 100]),
   midi.NoteOffEvent(tick=2003300, channel=0, data=[36, 0]),
   midi.NoteOnEvent(tick=2003400, channel=0, data=[14, 100]),
   midi.NoteOffEvent(tick=2003500, channel=0, data=[14, 0]),
   midi.NoteOnEvent(tick=2003600, channel=0, data=[17, 100]),
   midi.NoteOffEvent(tick=2003700, channel=0, data=[17, 0]),
   midi.NoteOnEvent(tick=2003800, channel=0, data=[36, 100]),
   midi.NoteOffEvent(tick=2003900, channel=0, data=[36, 0]),
   midi.NoteOnEvent(tick=2004000, channel=0, data=[41, 100]),
   midi.NoteOffEvent(tick=2004100, channel=0, data=[41, 0]),
   midi.NoteOnEvent(tick=2004200, channel=0, data=[41, 100]),
   midi.NoteOffEvent(tick=2004300, channel=0, data=[41, 0]),
   midi.NoteOnEvent(tick=2004400, channel=0, data=[36, 100]),
   midi.NoteOffEvent(tick=2004500, channel=0, data=[36, 0]),
   midi.NoteOnEvent(tick=2004600, channel=0, data=[19, 100]),
   midi.NoteOffEvent(tick=2004700, channel=0, data=[19, 0]),
   midi.NoteOnEvent(tick=2004800, channel=0, data=[14, 100]),
   midi.NoteOffEvent(tick=2004900, channel=0, data=[14, 0]),
   midi.NoteOnEvent(tick=2005000, channel=0, data=[36, 100]),
   midi.NoteOffEvent(tick=2005100, channel=0, data=[36, 0]),
   midi.NoteOnEvent(tick=2005200, channel=0, data=[19, 100]),
   midi.NoteOffEvent(tick=2005300, channel=0, data=[19, 0]),
   midi.NoteOnEvent(tick=2005400, channel=0, data=[7, 100]),
   midi.NoteOffEvent(tick=2005500, channel=0, data=[7, 0]),
   midi.NoteOnEvent(tick=2005600, channel=0, data=[4, 100]),
   midi.NoteOffEvent(tick=2005700, channel=0, data=[4, 0]),
   midi.NoteOnEvent(tick=2005800, channel=0, data=[36, 100]),
   midi.NoteOffEvent(tick=2005900, channel=0, data=[36, 0]),
   midi.NoteOnEvent(tick=2006000, channel=0, data=[21, 100]),
   midi.NoteOffEvent(tick=2006100, channel=0, data=[21, 0]),
   midi.NoteOnEvent(tick=2006200, channel=0, data=[0, 100]),
   midi.NoteOffEvent(tick=2006300, channel=0, data=[0, 0]),
   midi.NoteOnEvent(tick=2006400, channel=0, data=[17, 100]),
   midi.NoteOffEvent(tick=2006500, channel=0, data=[17, 0]),
   midi.NoteOnEvent(tick=2006600, channel=0, data=[8, 100]),
   midi.NoteOffEvent(tick=2006700, channel=0, data=[8, 0]),
   midi.NoteOnEvent(tick=2006800, channel=0, data=[0, 100]),
   midi.NoteOffEvent(tick=2006900, channel=0, data=[0, 0]),
   midi.NoteOnEvent(tick=2007000, channel=0, data=[1, 100]),
   midi.NoteOffEvent(tick=2007100, channel=0, data=[1, 0]),
   midi.NoteOnEvent(tick=2007200, channel=0, data=[11, 100]),
   midi.NoteOffEvent(tick=2007300, channel=0, data=[11, 0]),
   midi.NoteOnEvent(tick=2007400, channel=0, data=[4, 100]),
   midi.NoteOffEvent(tick=2007500, channel=0, data=[4, 0]),
   midi.NoteOnEvent(tick=2007600, channel=0, data=[37, 100]),
   midi.NoteOffEvent(tick=2007700, channel=0, data=[37, 0]),
   midi.NoteOnEvent(tick=2007800, channel=0, data=[56, 100]),
   midi.NoteOffEvent(tick=2007900, channel=0, data=[56, 0]),
   midi.NoteOnEvent(tick=2008000, channel=0, data=[56, 100]),
   midi.NoteOffEvent(tick=2008100, channel=0, data=[56, 0]),
   midi.NoteOnEvent(tick=2008200, channel=0, data=[56, 100]),
   midi.NoteOffEvent(tick=2008300, channel=0, data=[56, 0]),
   midi.NoteOnEvent(tick=2008400, channel=0, data=[36, 100]),
   midi.NoteOffEvent(tick=2008500, channel=0, data=[36, 0]),
   midi.NoteOnEvent(tick=2008600, channel=0, data=[36, 100]),
   midi.NoteOffEvent(tick=2008700, channel=0, data=[36, 0]),
   midi.NoteOnEvent(tick=2008800, channel=0, data=[36, 100]),
   midi.NoteOffEvent(tick=2008900, channel=0, data=[36, 0]),
   midi.NoteOnEvent(tick=2009000, channel=0, data=[36, 100]),
   midi.NoteOffEvent(tick=2009100, channel=0, data=[36, 0]),
   midi.NoteOnEvent(tick=2009200, channel=0, data=[36, 100]),
   midi.NoteOffEvent(tick=2009300, channel=0, data=[36, 0]),
   midi.NoteOnEvent(tick=2009400, channel=0, data=[36, 100]),
   midi.NoteOffEvent(tick=2009500, channel=0, data=[36, 0]),
   midi.NoteOnEvent(tick=2009600, channel=0, data=[36, 100]),
   midi.NoteOffEvent(tick=2009700, channel=0, data=[36, 0]),
   midi.NoteOnEvent(tick=2009800, channel=0, data=[36, 100]),
   midi.NoteOffEvent(tick=2009900, channel=0, data=[36, 0]),
   midi.NoteOnEvent(tick=2010000, channel=0, data=[74, 100]),
   midi.NoteOffEvent(tick=2010100, channel=0, data=[74, 0]),
   midi.NoteOnEvent(tick=2010200, channel=0, data=[0, 100]),
   midi.NoteOffEvent(tick=2010300, channel=0, data=[0, 0]),
   midi.NoteOnEvent(tick=2010400, channel=0, data=[36, 100]),
   midi.NoteOffEvent(tick=2010500, channel=0, data=[36, 0]),
   midi.NoteOnEvent(tick=2010600, channel=0, data=[69, 100]),
   midi.NoteOffEvent(tick=2010700, channel=0, data=[69, 0]),
   midi.NoteOnEvent(tick=2010800, channel=0, data=[36, 100]),
   midi.NoteOffEvent(tick=2010900, channel=0, data=[36, 0]),
   midi.NoteOnEvent(tick=2011000, channel=0, data=[74, 100]),
   midi.NoteOffEvent(tick=2011100, channel=0, data=[74, 0]),
   midi.NoteOnEvent(tick=2011200, channel=0, data=[13, 100]),
   midi.NoteOffEvent(tick=2011300, channel=0, data=[13, 0]),
   midi.NoteOnEvent(tick=2011400, channel=0, data=[20, 100]),
   midi.NoteOffEvent(tick=2011500, channel=0, data=[20, 0]),
   midi.NoteOnEvent(tick=2011600, channel=0, data=[11, 100]),
   midi.NoteOffEvent(tick=2011700, channel=0, data=[11, 0]),
   midi.NoteOnEvent(tick=2011800, channel=0, data=[11, 100]),
   midi.NoteOffEvent(tick=2011900, channel=0, data=[11, 0]),
   midi.NoteOnEvent(tick=2012000, channel=0, data=[36, 100]),
   midi.NoteOffEvent(tick=2012100, channel=0, data=[36, 0]),
   midi.NoteOnEvent(tick=2012200, channel=0, data=[56, 100]),
   midi.NoteOffEvent(tick=2012300, channel=0, data=[56, 0]),
   midi.NoteOnEvent(tick=2012400, channel=0, data=[56, 100]),
   midi.NoteOffEvent(tick=2012500, channel=0, data=[56, 0]),
   midi.NoteOnEvent(tick=2012600, channel=0, data=[56, 100]),
   midi.NoteOffEvent(tick=2012700, channel=0, data=[56, 0]),
   midi.NoteOnEvent(tick=2012800, channel=0, data=[36, 100]),
   midi.NoteOffEvent(tick=2012900, channel=0, data=[36, 0]),
   midi.NoteOnEvent(tick=2013000, channel=0, data=[36, 100]),
   midi.NoteOffEvent(tick=2013100, channel=0, data=[36, 0]),
   midi.NoteOnEvent(tick=2013200, channel=0, data=[36, 100]),
   midi.NoteOffEvent(tick=2013300, channel=0, data=[36, 0]),
   midi.NoteOnEvent(tick=2013400, channel=0, data=[36, 100]),
   midi.NoteOffEvent(tick=2013500, channel=0, data=[36, 0]),
   midi.NoteOnEvent(tick=2013600, channel=0, data=[19, 100]),
   midi.NoteOffEvent(tick=2013700, channel=0, data=[19, 0]),
   midi.NoteOnEvent(tick=2013800, channel=0, data=[14, 100]),
   midi.NoteOffEvent(tick=2013900, channel=0, data=[14, 0]),
   midi.NoteOnEvent(tick=2014000, channel=0, data=[36, 100]),
   midi.NoteOffEvent(tick=2014100, channel=0, data=[36, 0]),
   midi.NoteOnEvent(tick=2014200, channel=0, data=[3, 100]),
   midi.NoteOffEvent(tick=2014300, channel=0, data=[3, 0]),
   midi.NoteOnEvent(tick=2014400, channel=0, data=[4, 100]),
   midi.NoteOffEvent(tick=2014500, channel=0, data=[4, 0]),
   midi.NoteOnEvent(tick=2014600, channel=0, data=[11, 100]),
   midi.NoteOffEvent(tick=2014700, channel=0, data=[11, 0]),
   midi.NoteOnEvent(tick=2014800, channel=0, data=[4, 100]),
   midi.NoteOffEvent(tick=2014900, channel=0, data=[4, 0]),
   midi.NoteOnEvent(tick=2015000, channel=0, data=[19, 100]),
   midi.NoteOffEvent(tick=2015100, channel=0, data=[19, 0]),
   midi.NoteOnEvent(tick=2015200, channel=0, data=[4, 100]),
   midi.NoteOffEvent(tick=2015300, channel=0, data=[4, 0]),
   midi.NoteOnEvent(tick=2015400, channel=0, data=[36, 100]),
   midi.NoteOffEvent(tick=2015500, channel=0, data=[36, 0]),
   midi.NoteOnEvent(tick=2015600, channel=0, data=[0, 100]),
   midi.NoteOffEvent(tick=2015700, channel=0, data=[0, 0]),
   midi.NoteOnEvent(tick=2015800, channel=0, data=[36, 100]),
   midi.NoteOffEvent(tick=2015900, channel=0, data=[36, 0]),
   midi.NoteOnEvent(tick=2016000, channel=0, data=[15, 100]),
   midi.NoteOffEvent(tick=2016100, channel=0, data=[15, 0]),
   midi.NoteOnEvent(tick=2016200, channel=0, data=[0, 100]),
   midi.NoteOffEvent(tick=2016300, channel=0, data=[0, 0]),
   midi.NoteOnEvent(tick=2016400, channel=0, data=[17, 100]),
   midi.NoteOffEvent(tick=2016500, channel=0, data=[17, 0]),
   midi.NoteOnEvent(tick=2016600, channel=0, data=[19, 100]),
   midi.NoteOffEvent(tick=2016700, channel=0, data=[19, 0]),
   midi.NoteOnEvent(tick=2016800, channel=0, data=[8, 100]),
   midi.NoteOffEvent(tick=2016900, channel=0, data=[8, 0]),
   midi.NoteOnEvent(tick=2017000, channel=0, data=[2, 100]),
   midi.NoteOffEvent(tick=2017100, channel=0, data=[2, 0]),
   midi.NoteOnEvent(tick=2017200, channel=0, data=[20, 100]),
   midi.NoteOffEvent(tick=2017300, channel=0, data=[20, 0]),
   midi.NoteOnEvent(tick=2017400, channel=0, data=[11, 100]),
   midi.NoteOffEvent(tick=2017500, channel=0, data=[11, 0]),
   midi.NoteOnEvent(tick=2017600, channel=0, data=[0, 100]),
   midi.NoteOffEvent(tick=2017700, channel=0, data=[0, 0]),
   midi.NoteOnEvent(tick=2017800, channel=0, data=[17, 100]),
   midi.NoteOffEvent(tick=2017900, channel=0, data=[17, 0]),
   midi.NoteOnEvent(tick=2018000, channel=0, data=[36, 100]),
   midi.NoteOffEvent(tick=2018100, channel=0, data=[36, 0]),
   midi.NoteOnEvent(tick=2018200, channel=0, data=[21, 100]),
   midi.NoteOffEvent(tick=2018300, channel=0, data=[21, 0]),
   midi.NoteOnEvent(tick=2018400, channel=0, data=[0, 100]),
   midi.NoteOffEvent(tick=2018500, channel=0, data=[0, 0]),
   midi.NoteOnEvent(tick=2018600, channel=0, data=[11, 100]),
   midi.NoteOffEvent(tick=2018700, channel=0, data=[11, 0]),
   midi.NoteOnEvent(tick=2018800, channel=0, data=[20, 100]),
   midi.NoteOffEvent(tick=2018900, channel=0, data=[20, 0]),
   midi.NoteOnEvent(tick=2019000, channel=0, data=[4, 100]),
   midi.NoteOffEvent(tick=2019100, channel=0, data=[4, 0]),
   midi.NoteOnEvent(tick=2019200, channel=0, data=[36, 100]),
   midi.NoteOffEvent(tick=2019300, channel=0, data=[36, 0]),
   midi.NoteOnEvent(tick=2019400, channel=0, data=[5, 100]),
   midi.NoteOffEvent(tick=2019500, channel=0, data=[5, 0]),
   midi.NoteOnEvent(tick=2019600, channel=0, data=[17, 100]),
   midi.NoteOffEvent(tick=2019700, channel=0, data=[17, 0]),
   midi.NoteOnEvent(tick=2019800, channel=0, data=[14, 100]),
   midi.NoteOffEvent(tick=2019900, channel=0, data=[14, 0]),
   midi.NoteOnEvent(tick=2020000, channel=0, data=[12, 100]),
   midi.NoteOffEvent(tick=2020100, channel=0, data=[12, 0]),
   midi.NoteOnEvent(tick=2020200, channel=0, data=[36, 100]),
   midi.NoteOffEvent(tick=2020300, channel=0, data=[36, 0]),
   midi.NoteOnEvent(tick=2020400, channel=0, data=[0, 100]),
   midi.NoteOffEvent(tick=2020500, channel=0, data=[0, 0]),
   midi.NoteOnEvent(tick=2020600, channel=0, data=[13, 100]),
   midi.NoteOffEvent(tick=2020700, channel=0, data=[13, 0]),
   midi.NoteOnEvent(tick=2020800, channel=0, data=[36, 100]),
   midi.NoteOffEvent(tick=2020900, channel=0, data=[36, 0]),
   midi.NoteOnEvent(tick=2021000, channel=0, data=[0, 100]),
   midi.NoteOffEvent(tick=2021100, channel=0, data=[0, 0]),
   midi.NoteOnEvent(tick=2021200, channel=0, data=[17, 100]),
   midi.NoteOffEvent(tick=2021300, channel=0, data=[17, 0]),
   midi.NoteOnEvent(tick=2021400, channel=0, data=[17, 100]),
   midi.NoteOffEvent(tick=2021500, channel=0, data=[17, 0]),
   midi.NoteOnEvent(tick=2021600, channel=0, data=[0, 100]),
   midi.NoteOffEvent(tick=2021700, channel=0, data=[0, 0]),
   midi.NoteOnEvent(tick=2021800, channel=0, data=[24, 100]),
   midi.NoteOffEvent(tick=2021900, channel=0, data=[24, 0]),
   midi.NoteOnEvent(tick=2022000, channel=0, data=[38, 100]),
   midi.NoteOffEvent(tick=2022100, channel=0, data=[38, 0]),
   midi.NoteOnEvent(tick=2022200, channel=0, data=[36, 100]),
   midi.NoteOffEvent(tick=2022300, channel=0, data=[36, 0]),
   midi.NoteOnEvent(tick=2022400, channel=0, data=[20, 100]),
   midi.NoteOffEvent(tick=2022500, channel=0, data=[20, 0]),
   midi.NoteOnEvent(tick=2022600, channel=0, data=[18, 100]),
   midi.NoteOffEvent(tick=2022700, channel=0, data=[18, 0]),
   midi.NoteOnEvent(tick=2022800, channel=0, data=[4, 100]),
   midi.NoteOffEvent(tick=2022900, channel=0, data=[4, 0]),
   midi.NoteOnEvent(tick=2023000, channel=0, data=[36, 100]),
   midi.NoteOffEvent(tick=2023100, channel=0, data=[36, 0]),
   midi.NoteOnEvent(tick=2023200, channel=0, data=[0, 100]),
   midi.NoteOffEvent(tick=2023300, channel=0, data=[0, 0]),
   midi.NoteOnEvent(tick=2023400, channel=0, data=[17, 100]),
   midi.NoteOffEvent(tick=2023500, channel=0, data=[17, 0]),
   midi.NoteOnEvent(tick=2023600, channel=0, data=[17, 100]),
   midi.NoteOffEvent(tick=2023700, channel=0, data=[17, 0]),
   midi.NoteOnEvent(tick=2023800, channel=0, data=[0, 100]),
   midi.NoteOffEvent(tick=2023900, channel=0, data=[0, 0]),
   midi.NoteOnEvent(tick=2024000, channel=0, data=[24, 100]),
   midi.NoteOffEvent(tick=2024100, channel=0, data=[24, 0]),
   midi.NoteOnEvent(tick=2024200, channel=0, data=[36, 100]),
   midi.NoteOffEvent(tick=2024300, channel=0, data=[36, 0]),
   midi.NoteOnEvent(tick=2024400, channel=0, data=[13, 100]),
   midi.NoteOffEvent(tick=2024500, channel=0, data=[13, 0]),
   midi.NoteOnEvent(tick=2024600, channel=0, data=[14, 100]),
   midi.NoteOffEvent(tick=2024700, channel=0, data=[14, 0]),
   midi.NoteOnEvent(tick=2024800, channel=0, data=[19, 100]),
   midi.NoteOffEvent(tick=2024900, channel=0, data=[19, 0]),
   midi.NoteOnEvent(tick=2025000, channel=0, data=[0, 100]),
   midi.NoteOffEvent(tick=2025100, channel=0, data=[0, 0]),
   midi.NoteOnEvent(tick=2025200, channel=0, data=[19, 100]),
   midi.NoteOffEvent(tick=2025300, channel=0, data=[19, 0]),
   midi.NoteOnEvent(tick=2025400, channel=0, data=[8, 100]),
   midi.NoteOffEvent(tick=2025500, channel=0, data=[8, 0]),
   midi.NoteOnEvent(tick=2025600, channel=0, data=[14, 100]),
   midi.NoteOffEvent(tick=2025700, channel=0, data=[14, 0]),
   midi.NoteOnEvent(tick=2025800, channel=0, data=[13, 100]),
   midi.NoteOffEvent(tick=2025900, channel=0, data=[13, 0]),
   midi.NoteOnEvent(tick=2026000, channel=0, data=[36, 100]),
   midi.NoteOffEvent(tick=2026100, channel=0, data=[36, 0]),
   midi.NoteOnEvent(tick=2026200, channel=0, data=[19, 100]),
   midi.NoteOffEvent(tick=2026300, channel=0, data=[19, 0]),
   midi.NoteOnEvent(tick=2026400, channel=0, data=[14, 100]),
   midi.NoteOffEvent(tick=2026500, channel=0, data=[14, 0]),
   midi.NoteOnEvent(tick=2026600, channel=0, data=[36, 100]),
   midi.NoteOffEvent(tick=2026700, channel=0, data=[36, 0]),
   midi.NoteOnEvent(tick=2026800, channel=0, data=[0, 100]),
   midi.NoteOffEvent(tick=2026900, channel=0, data=[0, 0]),
   midi.NoteOnEvent(tick=2027000, channel=0, data=[18, 100]),
   midi.NoteOffEvent(tick=2027100, channel=0, data=[18, 0]),
   midi.NoteOnEvent(tick=2027200, channel=0, data=[18, 100]),
   midi.NoteOffEvent(tick=2027300, channel=0, data=[18, 0]),
   midi.NoteOnEvent(tick=2027400, channel=0, data=[8, 100]),
   midi.NoteOffEvent(tick=2027500, channel=0, data=[8, 0]),
   midi.NoteOnEvent(tick=2027600, channel=0, data=[6, 100]),
   midi.NoteOffEvent(tick=2027700, channel=0, data=[6, 0]),
   midi.NoteOnEvent(tick=2027800, channel=0, data=[13, 100]),
   midi.NoteOffEvent(tick=2027900, channel=0, data=[13, 0]),
   midi.NoteOnEvent(tick=2028000, channel=0, data=[36, 100]),
   midi.NoteOffEvent(tick=2028100, channel=0, data=[36, 0]),
   midi.NoteOnEvent(tick=2028200, channel=0, data=[0, 100]),
   midi.NoteOffEvent(tick=2028300, channel=0, data=[0, 0]),
   midi.NoteOnEvent(tick=2028400, channel=0, data=[36, 100]),
   midi.NoteOffEvent(tick=2028500, channel=0, data=[36, 0]),
   midi.NoteOnEvent(tick=2028600, channel=0, data=[56, 100]),
   midi.NoteOffEvent(tick=2028700, channel=0, data=[56, 0]),
   midi.NoteOnEvent(tick=2028800, channel=0, data=[36, 100]),
   midi.NoteOffEvent(tick=2028900, channel=0, data=[36, 0]),
   midi.NoteOnEvent(tick=2029000, channel=0, data=[36, 100]),
   midi.NoteOffEvent(tick=2029100, channel=0, data=[36, 0]),
   midi.NoteOnEvent(tick=2029200, channel=0, data=[36, 100]),
   midi.NoteOffEvent(tick=2029300, channel=0, data=[36, 0]),
   midi.NoteOnEvent(tick=2029400, channel=0, data=[36, 100]),
   midi.NoteOffEvent(tick=2029500, channel=0, data=[36, 0]),
   midi.NoteOnEvent(tick=2029600, channel=0, data=[21, 100]),
   midi.NoteOffEvent(tick=2029700, channel=0, data=[21, 0]),
   midi.NoteOnEvent(tick=2029800, channel=0, data=[0, 100]),
   midi.NoteOffEvent(tick=2029900, channel=0, data=[0, 0]),
   midi.NoteOnEvent(tick=2030000, channel=0, data=[11, 100]),
   midi.NoteOffEvent(tick=2030100, channel=0, data=[11, 0]),
   midi.NoteOnEvent(tick=2030200, channel=0, data=[20, 100]),
   midi.NoteOffEvent(tick=2030300, channel=0, data=[20, 0]),
   midi.NoteOnEvent(tick=2030400, channel=0, data=[4, 100]),
   midi.NoteOffEvent(tick=2030500, channel=0, data=[4, 0]),
   midi.NoteOnEvent(tick=2030600, channel=0, data=[36, 100]),
   midi.NoteOffEvent(tick=2030700, channel=0, data=[36, 0]),
   midi.NoteOnEvent(tick=2030800, channel=0, data=[14, 100]),
   midi.NoteOffEvent(tick=2030900, channel=0, data=[14, 0]),
   midi.NoteOnEvent(tick=2031000, channel=0, data=[5, 100]),
   midi.NoteOffEvent(tick=2031100, channel=0, data=[5, 0]),
   midi.NoteOnEvent(tick=2031200, channel=0, data=[36, 100]),
   midi.NoteOffEvent(tick=2031300, channel=0, data=[36, 0]),
   midi.NoteOnEvent(tick=2031400, channel=0, data=[74, 100]),
   midi.NoteOffEvent(tick=2031500, channel=0, data=[74, 0]),
   midi.NoteOnEvent(tick=2031600, channel=0, data=[13, 100]),
   midi.NoteOffEvent(tick=2031700, channel=0, data=[13, 0]),
   midi.NoteOnEvent(tick=2031800, channel=0, data=[20, 100]),
   midi.NoteOffEvent(tick=2031900, channel=0, data=[20, 0]),
   midi.NoteOnEvent(tick=2032000, channel=0, data=[11, 100]),
   midi.NoteOffEvent(tick=2032100, channel=0, data=[11, 0]),
   midi.NoteOnEvent(tick=2032200, channel=0, data=[11, 100]),
   midi.NoteOffEvent(tick=2032300, channel=0, data=[11, 0]),
   midi.NoteOnEvent(tick=2032400, channel=0, data=[36, 100]),
   midi.NoteOffEvent(tick=2032500, channel=0, data=[36, 0]),
   midi.NoteOnEvent(tick=2032600, channel=0, data=[19, 100]),
   midi.NoteOffEvent(tick=2032700, channel=0, data=[19, 0]),
   midi.NoteOnEvent(tick=2032800, channel=0, data=[14, 100]),
   midi.NoteOffEvent(tick=2032900, channel=0, data=[14, 0]),
   midi.NoteOnEvent(tick=2033000, channel=0, data=[36, 100]),
   midi.NoteOffEvent(tick=2033100, channel=0, data=[36, 0]),
   midi.NoteOnEvent(tick=2033200, channel=0, data=[19, 100]),
   midi.NoteOffEvent(tick=2033300, channel=0, data=[19, 0]),
   midi.NoteOnEvent(tick=2033400, channel=0, data=[7, 100]),
   midi.NoteOffEvent(tick=2033500, channel=0, data=[7, 0]),
   midi.NoteOnEvent(tick=2033600, channel=0, data=[4, 100]),
   midi.NoteOffEvent(tick=2033700, channel=0, data=[4, 0]),
   midi.NoteOnEvent(tick=2033800, channel=0, data=[36, 100]),
   midi.NoteOffEvent(tick=2033900, channel=0, data=[36, 0]),
   midi.NoteOnEvent(tick=2034000, channel=0, data=[15, 100]),
   midi.NoteOffEvent(tick=2034100, channel=0, data=[15, 0]),
   midi.NoteOnEvent(tick=2034200, channel=0, data=[0, 100]),
   midi.NoteOffEvent(tick=2034300, channel=0, data=[0, 0]),
   midi.NoteOnEvent(tick=2034400, channel=0, data=[17, 100]),
   midi.NoteOffEvent(tick=2034500, channel=0, data=[17, 0]),
   midi.NoteOnEvent(tick=2034600, channel=0, data=[19, 100]),
   midi.NoteOffEvent(tick=2034700, channel=0, data=[19, 0]),
   midi.NoteOnEvent(tick=2034800, channel=0, data=[8, 100]),
   midi.NoteOffEvent(tick=2034900, channel=0, data=[8, 0]),
   midi.NoteOnEvent(tick=2035000, channel=0, data=[2, 100]),
   midi.NoteOffEvent(tick=2035100, channel=0, data=[2, 0]),
   midi.NoteOnEvent(tick=2035200, channel=0, data=[20, 100]),
   midi.NoteOffEvent(tick=2035300, channel=0, data=[20, 0]),
   midi.NoteOnEvent(tick=2035400, channel=0, data=[11, 100]),
   midi.NoteOffEvent(tick=2035500, channel=0, data=[11, 0]),
   midi.NoteOnEvent(tick=2035600, channel=0, data=[0, 100]),
   midi.NoteOffEvent(tick=2035700, channel=0, data=[0, 0]),
   midi.NoteOnEvent(tick=2035800, channel=0, data=[17, 100]),
   midi.NoteOffEvent(tick=2035900, channel=0, data=[17, 0]),
   midi.NoteOnEvent(tick=2036000, channel=0, data=[36, 100]),
   midi.NoteOffEvent(tick=2036100, channel=0, data=[36, 0]),
   midi.NoteOnEvent(tick=2036200, channel=0, data=[8, 100]),
   midi.NoteOffEvent(tick=2036300, channel=0, data=[8, 0]),
   midi.NoteOnEvent(tick=2036400, channel=0, data=[19, 100]),
   midi.NoteOffEvent(tick=2036500, channel=0, data=[19, 0]),
   midi.NoteOnEvent(tick=2036600, channel=0, data=[4, 100]),
   midi.NoteOffEvent(tick=2036700, channel=0, data=[4, 0]),
   midi.NoteOnEvent(tick=2036800, channel=0, data=[12, 100]),
   midi.NoteOffEvent(tick=2036900, channel=0, data=[12, 0]),
   midi.NoteOnEvent(tick=2037000, channel=0, data=[37, 100]),
   midi.NoteOffEvent(tick=2037100, channel=0, data=[37, 0]),
   midi.NoteOnEvent(tick=2037200, channel=0, data=[36, 100]),
   midi.NoteOffEvent(tick=2037300, channel=0, data=[36, 0]),
   midi.NoteOnEvent(tick=2037400, channel=0, data=[5, 100]),
   midi.NoteOffEvent(tick=2037500, channel=0, data=[5, 0]),
   midi.NoteOnEvent(tick=2037600, channel=0, data=[14, 100]),
   midi.NoteOffEvent(tick=2037700, channel=0, data=[14, 0]),
   midi.NoteOnEvent(tick=2037800, channel=0, data=[17, 100]),
   midi.NoteOffEvent(tick=2037900, channel=0, data=[17, 0]),
   midi.NoteOnEvent(tick=2038000, channel=0, data=[36, 100]),
   midi.NoteOffEvent(tick=2038100, channel=0, data=[36, 0]),
   midi.NoteOnEvent(tick=2038200, channel=0, data=[4, 100]),
   midi.NoteOffEvent(tick=2038300, channel=0, data=[4, 0]),
   midi.NoteOnEvent(tick=2038400, channel=0, data=[23, 100]),
   midi.NoteOffEvent(tick=2038500, channel=0, data=[23, 0]),
   midi.NoteOnEvent(tick=2038600, channel=0, data=[0, 100]),
   midi.NoteOffEvent(tick=2038700, channel=0, data=[0, 0]),
   midi.NoteOnEvent(tick=2038800, channel=0, data=[12, 100]),
   midi.NoteOffEvent(tick=2038900, channel=0, data=[12, 0]),
   midi.NoteOnEvent(tick=2039000, channel=0, data=[15, 100]),
   midi.NoteOffEvent(tick=2039100, channel=0, data=[15, 0]),
   midi.NoteOnEvent(tick=2039200, channel=0, data=[11, 100]),
   midi.NoteOffEvent(tick=2039300, channel=0, data=[11, 0]),
   midi.NoteOnEvent(tick=2039400, channel=0, data=[4, 100]),
   midi.NoteOffEvent(tick=2039500, channel=0, data=[4, 0]),
   midi.NoteOnEvent(tick=2039600, channel=0, data=[38, 100]),
   midi.NoteOffEvent(tick=2039700, channel=0, data=[38, 0]),
   midi.NoteOnEvent(tick=2039800, channel=0, data=[36, 100]),
   midi.NoteOffEvent(tick=2039900, channel=0, data=[36, 0]),
   midi.NoteOnEvent(tick=2040000, channel=0, data=[19, 100]),
   midi.NoteOffEvent(tick=2040100, channel=0, data=[19, 0]),
   midi.NoteOnEvent(tick=2040200, channel=0, data=[7, 100]),
   midi.NoteOffEvent(tick=2040300, channel=0, data=[7, 0]),
   midi.NoteOnEvent(tick=2040400, channel=0, data=[4, 100]),
   midi.NoteOffEvent(tick=2040500, channel=0, data=[4, 0]),
   midi.NoteOnEvent(tick=2040600, channel=0, data=[36, 100]),
   midi.NoteOffEvent(tick=2040700, channel=0, data=[36, 0]),
   midi.NoteOnEvent(tick=2040800, channel=0, data=[5, 100]),
   midi.NoteOffEvent(tick=2040900, channel=0, data=[5, 0]),
   midi.NoteOnEvent(tick=2041000, channel=0, data=[14, 100]),
   midi.NoteOffEvent(tick=2041100, channel=0, data=[14, 0]),
   midi.NoteOnEvent(tick=2041200, channel=0, data=[11, 100]),
   midi.NoteOffEvent(tick=2041300, channel=0, data=[11, 0]),
   midi.NoteOnEvent(tick=2041400, channel=0, data=[11, 100]),
   midi.NoteOffEvent(tick=2041500, channel=0, data=[11, 0]),
   midi.NoteOnEvent(tick=2041600, channel=0, data=[14, 100]),
   midi.NoteOffEvent(tick=2041700, channel=0, data=[14, 0]),
   midi.NoteOnEvent(tick=2041800, channel=0, data=[22, 100]),
   midi.NoteOffEvent(tick=2041900, channel=0, data=[22, 0]),
   midi.NoteOnEvent(tick=2042000, channel=0, data=[8, 100]),
   midi.NoteOffEvent(tick=2042100, channel=0, data=[8, 0]),
   midi.NoteOnEvent(tick=2042200, channel=0, data=[13, 100]),
   midi.NoteOffEvent(tick=2042300, channel=0, data=[13, 0]),
   midi.NoteOnEvent(tick=2042400, channel=0, data=[6, 100]),
   midi.NoteOffEvent(tick=2042500, channel=0, data=[6, 0]),
   midi.NoteOnEvent(tick=2042600, channel=0, data=[36, 100]),
   midi.NoteOffEvent(tick=2042700, channel=0, data=[36, 0]),
   midi.NoteOnEvent(tick=2042800, channel=0, data=[18, 100]),
   midi.NoteOffEvent(tick=2042900, channel=0, data=[18, 0]),
   midi.NoteOnEvent(tick=2043000, channel=0, data=[19, 100]),
   midi.NoteOffEvent(tick=2043100, channel=0, data=[19, 0]),
   midi.NoteOnEvent(tick=2043200, channel=0, data=[0, 100]),
   midi.NoteOffEvent(tick=2043300, channel=0, data=[0, 0]),
   midi.NoteOnEvent(tick=2043400, channel=0, data=[19, 100]),
   midi.NoteOffEvent(tick=2043500, channel=0, data=[19, 0]),
   midi.NoteOnEvent(tick=2043600, channel=0, data=[4, 100]),
   midi.NoteOffEvent(tick=2043700, channel=0, data=[4, 0]),
   midi.NoteOnEvent(tick=2043800, channel=0, data=[12, 100]),
   midi.NoteOffEvent(tick=2043900, channel=0, data=[12, 0]),
   midi.NoteOnEvent(tick=2044000, channel=0, data=[4, 100]),
   midi.NoteOffEvent(tick=2044100, channel=0, data=[4, 0]),
   midi.NoteOnEvent(tick=2044200, channel=0, data=[13, 100]),
   midi.NoteOffEvent(tick=2044300, channel=0, data=[13, 0]),
   midi.NoteOnEvent(tick=2044400, channel=0, data=[19, 100]),
   midi.NoteOffEvent(tick=2044500, channel=0, data=[19, 0]),
   midi.NoteOnEvent(tick=2044600, channel=0, data=[56, 100]),
   midi.NoteOffEvent(tick=2044700, channel=0, data=[56, 0]),
   midi.NoteOnEvent(tick=2044800, channel=0, data=[36, 100]),
   midi.NoteOffEvent(tick=2044900, channel=0, data=[36, 0]),
   midi.NoteOnEvent(tick=2045000, channel=0, data=[36, 100]),
   midi.NoteOffEvent(tick=2045100, channel=0, data=[36, 0]),
   midi.NoteOnEvent(tick=2045200, channel=0, data=[36, 100]),
   midi.NoteOffEvent(tick=2045300, channel=0, data=[36, 0]),
   midi.NoteOnEvent(tick=2045400, channel=0, data=[36, 100]),
   midi.NoteOffEvent(tick=2045500, channel=0, data=[36, 0]),
   midi.NoteOnEvent(tick=2045600, channel=0, data=[3, 100]),
   midi.NoteOffEvent(tick=2045700, channel=0, data=[3, 0]),
   midi.NoteOnEvent(tick=2045800, channel=0, data=[4, 100]),
   midi.NoteOffEvent(tick=2045900, channel=0, data=[4, 0]),
   midi.NoteOnEvent(tick=2046000, channel=0, data=[11, 100]),
   midi.NoteOffEvent(tick=2046100, channel=0, data=[11, 0]),
   midi.NoteOnEvent(tick=2046200, channel=0, data=[4, 100]),
   midi.NoteOffEvent(tick=2046300, channel=0, data=[4, 0]),
   midi.NoteOnEvent(tick=2046400, channel=0, data=[19, 100]),
   midi.NoteOffEvent(tick=2046500, channel=0, data=[19, 0]),
   midi.NoteOnEvent(tick=2046600, channel=0, data=[4, 100]),
   midi.NoteOffEvent(tick=2046700, channel=0, data=[4, 0]),
   midi.NoteOnEvent(tick=2046800, channel=0, data=[18, 100]),
   midi.NoteOffEvent(tick=2046900, channel=0, data=[18, 0]),
   midi.NoteOnEvent(tick=2047000, channel=0, data=[36, 100]),
   midi.NoteOffEvent(tick=2047100, channel=0, data=[36, 0]),
   midi.NoteOnEvent(tick=2047200, channel=0, data=[19, 100]),
   midi.NoteOffEvent(tick=2047300, channel=0, data=[19, 0]),
   midi.NoteOnEvent(tick=2047400, channel=0, data=[7, 100]),
   midi.NoteOffEvent(tick=2047500, channel=0, data=[7, 0]),
   midi.NoteOnEvent(tick=2047600, channel=0, data=[4, 100]),
   midi.NoteOffEvent(tick=2047700, channel=0, data=[4, 0]),
   midi.NoteOnEvent(tick=2047800, channel=0, data=[36, 100]),
   midi.NoteOffEvent(tick=2047900, channel=0, data=[36, 0]),
   midi.NoteOnEvent(tick=2048000, channel=0, data=[18, 100]),
   midi.NoteOffEvent(tick=2048100, channel=0, data=[18, 0]),
   midi.NoteOnEvent(tick=2048200, channel=0, data=[4, 100]),
   midi.NoteOffEvent(tick=2048300, channel=0, data=[4, 0]),
   midi.NoteOnEvent(tick=2048400, channel=0, data=[2, 100]),
   midi.NoteOffEvent(tick=2048500, channel=0, data=[2, 0]),
   midi.NoteOnEvent(tick=2048600, channel=0, data=[14, 100]),
   midi.NoteOffEvent(tick=2048700, channel=0, data=[14, 0]),
   midi.NoteOnEvent(tick=2048800, channel=0, data=[13, 100]),
   midi.NoteOffEvent(tick=2048900, channel=0, data=[13, 0]),
   midi.NoteOnEvent(tick=2049000, channel=0, data=[3, 100]),
   midi.NoteOffEvent(tick=2049100, channel=0, data=[3, 0]),
   midi.NoteOnEvent(tick=2049200, channel=0, data=[36, 100]),
   midi.NoteOffEvent(tick=2049300, channel=0, data=[36, 0]),
   midi.NoteOnEvent(tick=2049400, channel=0, data=[21, 100]),
   midi.NoteOffEvent(tick=2049500, channel=0, data=[21, 0]),
   midi.NoteOnEvent(tick=2049600, channel=0, data=[0, 100]),
   midi.NoteOffEvent(tick=2049700, channel=0, data=[0, 0]),
   midi.NoteOnEvent(tick=2049800, channel=0, data=[11, 100]),
   midi.NoteOffEvent(tick=2049900, channel=0, data=[11, 0]),
   midi.NoteOnEvent(tick=2050000, channel=0, data=[20, 100]),
   midi.NoteOffEvent(tick=2050100, channel=0, data=[20, 0]),
   midi.NoteOnEvent(tick=2050200, channel=0, data=[4, 100]),
   midi.NoteOffEvent(tick=2050300, channel=0, data=[4, 0]),
   midi.NoteOnEvent(tick=2050400, channel=0, data=[36, 100]),
   midi.NoteOffEvent(tick=2050500, channel=0, data=[36, 0]),
   midi.NoteOnEvent(tick=2050600, channel=0, data=[49, 100]),
   midi.NoteOffEvent(tick=2050700, channel=0, data=[49, 0]),
   midi.NoteOnEvent(tick=2050800, channel=0, data=[8, 100]),
   midi.NoteOffEvent(tick=2050900, channel=0, data=[8, 0]),
   midi.NoteOnEvent(tick=2051000, channel=0, data=[13, 100]),
   midi.NoteOffEvent(tick=2051100, channel=0, data=[13, 0]),
   midi.NoteOnEvent(tick=2051200, channel=0, data=[3, 100]),
   midi.NoteOffEvent(tick=2051300, channel=0, data=[3, 0]),
   midi.NoteOnEvent(tick=2051400, channel=0, data=[4, 100]),
   midi.NoteOffEvent(tick=2051500, channel=0, data=[4, 0]),
   midi.NoteOnEvent(tick=2051600, channel=0, data=[23, 100]),
   midi.NoteOffEvent(tick=2051700, channel=0, data=[23, 0]),
   midi.NoteOnEvent(tick=2051800, channel=0, data=[36, 100]),
   midi.NoteOffEvent(tick=2051900, channel=0, data=[36, 0]),
   midi.NoteOnEvent(tick=2052000, channel=0, data=[15, 100]),
   midi.NoteOffEvent(tick=2052100, channel=0, data=[15, 0]),
   midi.NoteOnEvent(tick=2052200, channel=0, data=[14, 100]),
   midi.NoteOffEvent(tick=2052300, channel=0, data=[14, 0]),
   midi.NoteOnEvent(tick=2052400, channel=0, data=[18, 100]),
   midi.NoteOffEvent(tick=2052500, channel=0, data=[18, 0]),
   midi.NoteOnEvent(tick=2052600, channel=0, data=[8, 100]),
   midi.NoteOffEvent(tick=2052700, channel=0, data=[8, 0]),
   midi.NoteOnEvent(tick=2052800, channel=0, data=[19, 100]),
   midi.NoteOffEvent(tick=2052900, channel=0, data=[19, 0]),
   midi.NoteOnEvent(tick=2053000, channel=0, data=[8, 100]),
   midi.NoteOffEvent(tick=2053100, channel=0, data=[8, 0]),
   midi.NoteOnEvent(tick=2053200, channel=0, data=[14, 100]),
   midi.NoteOffEvent(tick=2053300, channel=0, data=[14, 0]),
   midi.NoteOnEvent(tick=2053400, channel=0, data=[13, 100]),
   midi.NoteOffEvent(tick=2053500, channel=0, data=[13, 0]),
   midi.NoteOnEvent(tick=2053600, channel=0, data=[36, 100]),
   midi.NoteOffEvent(tick=2053700, channel=0, data=[36, 0]),
   midi.NoteOnEvent(tick=2053800, channel=0, data=[27, 100]),
   midi.NoteOffEvent(tick=2053900, channel=0, data=[27, 0]),
   midi.NoteOnEvent(tick=2054000, channel=0, data=[50, 100]),
   midi.NoteOffEvent(tick=2054100, channel=0, data=[50, 0]),
   midi.NoteOnEvent(tick=2054200, channel=0, data=[36, 100]),
   midi.NoteOffEvent(tick=2054300, channel=0, data=[36, 0]),
   midi.NoteOnEvent(tick=2054400, channel=0, data=[5, 100]),
   midi.NoteOffEvent(tick=2054500, channel=0, data=[5, 0]),
   midi.NoteOnEvent(tick=2054600, channel=0, data=[17, 100]),
   midi.NoteOffEvent(tick=2054700, channel=0, data=[17, 0]),
   midi.NoteOnEvent(tick=2054800, channel=0, data=[14, 100]),
   midi.NoteOffEvent(tick=2054900, channel=0, data=[14, 0]),
   midi.NoteOnEvent(tick=2055000, channel=0, data=[12, 100]),
   midi.NoteOffEvent(tick=2055100, channel=0, data=[12, 0]),
   midi.NoteOnEvent(tick=2055200, channel=0, data=[36, 100]),
   midi.NoteOffEvent(tick=2055300, channel=0, data=[36, 0]),
   midi.NoteOnEvent(tick=2055400, channel=0, data=[0, 100]),
   midi.NoteOffEvent(tick=2055500, channel=0, data=[0, 0]),
   midi.NoteOnEvent(tick=2055600, channel=0, data=[13, 100]),
   midi.NoteOffEvent(tick=2055700, channel=0, data=[13, 0]),
   midi.NoteOnEvent(tick=2055800, channel=0, data=[36, 100]),
   midi.NoteOffEvent(tick=2055900, channel=0, data=[36, 0]),
   midi.NoteOnEvent(tick=2056000, channel=0, data=[0, 100]),
   midi.NoteOffEvent(tick=2056100, channel=0, data=[0, 0]),
   midi.NoteOnEvent(tick=2056200, channel=0, data=[17, 100]),
   midi.NoteOffEvent(tick=2056300, channel=0, data=[17, 0]),
   midi.NoteOnEvent(tick=2056400, channel=0, data=[17, 100]),
   midi.NoteOffEvent(tick=2056500, channel=0, data=[17, 0]),
   midi.NoteOnEvent(tick=2056600, channel=0, data=[0, 100]),
   midi.NoteOffEvent(tick=2056700, channel=0, data=[0, 0]),
   midi.NoteOnEvent(tick=2056800, channel=0, data=[24, 100]),
   midi.NoteOffEvent(tick=2056900, channel=0, data=[24, 0]),
   midi.NoteOnEvent(tick=2057000, channel=0, data=[46, 100]),
   midi.NoteOffEvent(tick=2057100, channel=0, data=[46, 0]),
   midi.NoteOnEvent(tick=2057200, channel=0, data=[56, 100]),
   midi.NoteOffEvent(tick=2057300, channel=0, data=[56, 0]),
   midi.NoteOnEvent(tick=2057400, channel=0, data=[56, 100]),
   midi.NoteOffEvent(tick=2057500, channel=0, data=[56, 0]),
   midi.NoteOnEvent(tick=2057600, channel=0, data=[56, 100]),
   midi.NoteOffEvent(tick=2057700, channel=0, data=[56, 0]),
   midi.NoteOnEvent(tick=2057800, channel=0, data=[56, 100]),
   midi.NoteOffEvent(tick=2057900, channel=0, data=[56, 0]),
   midi.NoteOnEvent(tick=2058000, channel=0, data=[36, 100]),
   midi.NoteOffEvent(tick=2058100, channel=0, data=[36, 0]),
   midi.NoteOnEvent(tick=2058200, channel=0, data=[36, 100]),
   midi.NoteOffEvent(tick=2058300, channel=0, data=[36, 0]),
   midi.NoteOnEvent(tick=2058400, channel=0, data=[36, 100]),
   midi.NoteOffEvent(tick=2058500, channel=0, data=[36, 0]),
   midi.NoteOnEvent(tick=2058600, channel=0, data=[36, 100]),
   midi.NoteOffEvent(tick=2058700, channel=0, data=[36, 0]),
   midi.NoteOnEvent(tick=2058800, channel=0, data=[36, 100]),
   midi.NoteOffEvent(tick=2058900, channel=0, data=[36, 0]),
   midi.NoteOnEvent(tick=2059000, channel=0, data=[36, 100]),
   midi.NoteOffEvent(tick=2059100, channel=0, data=[36, 0]),
   midi.NoteOnEvent(tick=2059200, channel=0, data=[36, 100]),
   midi.NoteOffEvent(tick=2059300, channel=0, data=[36, 0]),
   midi.NoteOnEvent(tick=2059400, channel=0, data=[36, 100]),
   midi.NoteOffEvent(tick=2059500, channel=0, data=[36, 0]),
   midi.NoteOnEvent(tick=2059600, channel=0, data=[2, 100]),
   midi.NoteOffEvent(tick=2059700, channel=0, data=[2, 0]),
   midi.NoteOnEvent(tick=2059800, channel=0, data=[46, 100]),
   midi.NoteOffEvent(tick=2059900, channel=0, data=[46, 0]),
   midi.NoteOnEvent(tick=2060000, channel=0, data=[78, 100]),
   midi.NoteOffEvent(tick=2060100, channel=0, data=[78, 0]),
   midi.NoteOnEvent(tick=2060200, channel=0, data=[15, 100]),
   midi.NoteOffEvent(tick=2060300, channel=0, data=[15, 0]),
   midi.NoteOnEvent(tick=2060400, channel=0, data=[18, 100]),
   midi.NoteOffEvent(tick=2060500, channel=0, data=[18, 0]),
   midi.NoteOnEvent(tick=2060600, channel=0, data=[73, 100]),
   midi.NoteOffEvent(tick=2060700, channel=0, data=[73, 0]),
   midi.NoteOnEvent(tick=2060800, channel=0, data=[36, 100]),
   midi.NoteOffEvent(tick=2060900, channel=0, data=[36, 0]),
   midi.NoteOnEvent(tick=2061000, channel=0, data=[74, 100]),
   midi.NoteOffEvent(tick=2061100, channel=0, data=[74, 0]),
   midi.NoteOnEvent(tick=2061200, channel=0, data=[0, 100]),
   midi.NoteOffEvent(tick=2061300, channel=0, data=[0, 0]),
   midi.NoteOnEvent(tick=2061400, channel=0, data=[36, 100]),
   midi.NoteOffEvent(tick=2061500, channel=0, data=[36, 0]),
   midi.NoteOnEvent(tick=2061600, channel=0, data=[69, 100]),
   midi.NoteOffEvent(tick=2061700, channel=0, data=[69, 0]),
   midi.NoteOnEvent(tick=2061800, channel=0, data=[36, 100]),
   midi.NoteOffEvent(tick=2061900, channel=0, data=[36, 0]),
   midi.NoteOnEvent(tick=2062000, channel=0, data=[27, 100]),
   midi.NoteOffEvent(tick=2062100, channel=0, data=[27, 0]),
   midi.NoteOnEvent(tick=2062200, channel=0, data=[38, 100]),
   midi.NoteOffEvent(tick=2062300, channel=0, data=[38, 0]),
   midi.NoteOnEvent(tick=2062400, channel=0, data=[28, 100]),
   midi.NoteOffEvent(tick=2062500, channel=0, data=[28, 0]),
   midi.NoteOnEvent(tick=2062600, channel=0, data=[38, 100]),
   midi.NoteOffEvent(tick=2062700, channel=0, data=[38, 0]),
   midi.NoteOnEvent(tick=2062800, channel=0, data=[29, 100]),
   midi.NoteOffEvent(tick=2062900, channel=0, data=[29, 0]),
   midi.NoteOnEvent(tick=2063000, channel=0, data=[56, 100]),
   midi.NoteOffEvent(tick=2063100, channel=0, data=[56, 0]),
   midi.NoteOnEvent(tick=2063200, channel=0, data=[36, 100]),
   midi.NoteOffEvent(tick=2063300, channel=0, data=[36, 0]),
   midi.NoteOnEvent(tick=2063400, channel=0, data=[36, 100]),
   midi.NoteOffEvent(tick=2063500, channel=0, data=[36, 0]),
   midi.NoteOnEvent(tick=2063600, channel=0, data=[36, 100]),
   midi.NoteOffEvent(tick=2063700, channel=0, data=[36, 0]),
   midi.NoteOnEvent(tick=2063800, channel=0, data=[36, 100]),
   midi.NoteOffEvent(tick=2063900, channel=0, data=[36, 0]),
   midi.NoteOnEvent(tick=2064000, channel=0, data=[36, 100]),
   midi.NoteOffEvent(tick=2064100, channel=0, data=[36, 0]),
   midi.NoteOnEvent(tick=2064200, channel=0, data=[36, 100]),
   midi.NoteOffEvent(tick=2064300, channel=0, data=[36, 0]),
   midi.NoteOnEvent(tick=2064400, channel=0, data=[36, 100]),
   midi.NoteOffEvent(tick=2064500, channel=0, data=[36, 0]),
   midi.NoteOnEvent(tick=2064600, channel=0, data=[36, 100]),
   midi.NoteOffEvent(tick=2064700, channel=0, data=[36, 0]),
   midi.NoteOnEvent(tick=2064800, channel=0, data=[2, 100]),
   midi.NoteOffEvent(tick=2064900, channel=0, data=[2, 0]),
   midi.NoteOnEvent(tick=2065000, channel=0, data=[46, 100]),
   midi.NoteOffEvent(tick=2065100, channel=0, data=[46, 0]),
   midi.NoteOnEvent(tick=2065200, channel=0, data=[78, 100]),
   midi.NoteOffEvent(tick=2065300, channel=0, data=[78, 0]),
   midi.NoteOnEvent(tick=2065400, channel=0, data=[15, 100]),
   midi.NoteOffEvent(tick=2065500, channel=0, data=[15, 0]),
   midi.NoteOnEvent(tick=2065600, channel=0, data=[18, 100]),
   midi.NoteOffEvent(tick=2065700, channel=0, data=[18, 0]),
   midi.NoteOnEvent(tick=2065800, channel=0, data=[73, 100]),
   midi.NoteOffEvent(tick=2065900, channel=0, data=[73, 0]),
   midi.NoteOnEvent(tick=2066000, channel=0, data=[36, 100]),
   midi.NoteOffEvent(tick=2066100, channel=0, data=[36, 0]),
   midi.NoteOnEvent(tick=2066200, channel=0, data=[74, 100]),
   midi.NoteOffEvent(tick=2066300, channel=0, data=[74, 0]),
   midi.NoteOnEvent(tick=2066400, channel=0, data=[0, 100]),
   midi.NoteOffEvent(tick=2066500, channel=0, data=[0, 0]),
   midi.NoteOnEvent(tick=2066600, channel=0, data=[56, 100]),
   midi.NoteOffEvent(tick=2066700, channel=0, data=[56, 0]),
   midi.NoteOnEvent(tick=2066800, channel=0, data=[36, 100]),
   midi.NoteOffEvent(tick=2066900, channel=0, data=[36, 0]),
   midi.NoteOnEvent(tick=2067000, channel=0, data=[36, 100]),
   midi.NoteOffEvent(tick=2067100, channel=0, data=[36, 0]),
   midi.NoteOnEvent(tick=2067200, channel=0, data=[36, 100]),
   midi.NoteOffEvent(tick=2067300, channel=0, data=[36, 0]),
   midi.NoteOnEvent(tick=2067400, channel=0, data=[36, 100]),
   midi.NoteOffEvent(tick=2067500, channel=0, data=[36, 0]),
   midi.NoteOnEvent(tick=2067600, channel=0, data=[36, 100]),
   midi.NoteOffEvent(tick=2067700, channel=0, data=[36, 0]),
   midi.NoteOnEvent(tick=2067800, channel=0, data=[36, 100]),
   midi.NoteOffEvent(tick=2067900, channel=0, data=[36, 0]),
   midi.NoteOnEvent(tick=2068000, channel=0, data=[36, 100]),
   midi.NoteOffEvent(tick=2068100, channel=0, data=[36, 0]),
   midi.NoteOnEvent(tick=2068200, channel=0, data=[36, 100]),
   midi.NoteOffEvent(tick=2068300, channel=0, data=[36, 0]),
   midi.NoteOnEvent(tick=2068400, channel=0, data=[27, 100]),
   midi.NoteOffEvent(tick=2068500, channel=0, data=[27, 0]),
   midi.NoteOnEvent(tick=2068600, channel=0, data=[56, 100]),
   midi.NoteOffEvent(tick=2068700, channel=0, data=[56, 0]),
   midi.NoteOnEvent(tick=2068800, channel=0, data=[36, 100]),
   midi.NoteOffEvent(tick=2068900, channel=0, data=[36, 0]),
   midi.NoteOnEvent(tick=2069000, channel=0, data=[36, 100]),
   midi.NoteOffEvent(tick=2069100, channel=0, data=[36, 0]),
   midi.NoteOnEvent(tick=2069200, channel=0, data=[36, 100]),
   midi.NoteOffEvent(tick=2069300, channel=0, data=[36, 0]),
   midi.NoteOnEvent(tick=2069400, channel=0, data=[36, 100]),
   midi.NoteOffEvent(tick=2069500, channel=0, data=[36, 0]),
   midi.NoteOnEvent(tick=2069600, channel=0, data=[36, 100]),
   midi.NoteOffEvent(tick=2069700, channel=0, data=[36, 0]),
   midi.NoteOnEvent(tick=2069800, channel=0, data=[36, 100]),
   midi.NoteOffEvent(tick=2069900, channel=0, data=[36, 0]),
   midi.NoteOnEvent(tick=2070000, channel=0, data=[36, 100]),
   midi.NoteOffEvent(tick=2070100, channel=0, data=[36, 0]),
   midi.NoteOnEvent(tick=2070200, channel=0, data=[36, 100]),
   midi.NoteOffEvent(tick=2070300, channel=0, data=[36, 0]),
   midi.NoteOnEvent(tick=2070400, channel=0, data=[28, 100]),
   midi.NoteOffEvent(tick=2070500, channel=0, data=[28, 0]),
   midi.NoteOnEvent(tick=2070600, channel=0, data=[56, 100]),
   midi.NoteOffEvent(tick=2070700, channel=0, data=[56, 0]),
   midi.NoteOnEvent(tick=2070800, channel=0, data=[36, 100]),
   midi.NoteOffEvent(tick=2070900, channel=0, data=[36, 0]),
   midi.NoteOnEvent(tick=2071000, channel=0, data=[36, 100]),
   midi.NoteOffEvent(tick=2071100, channel=0, data=[36, 0]),
   midi.NoteOnEvent(tick=2071200, channel=0, data=[36, 100]),
   midi.NoteOffEvent(tick=2071300, channel=0, data=[36, 0]),
   midi.NoteOnEvent(tick=2071400, channel=0, data=[36, 100]),
   midi.NoteOffEvent(tick=2071500, channel=0, data=[36, 0]),
   midi.NoteOnEvent(tick=2071600, channel=0, data=[36, 100]),
   midi.NoteOffEvent(tick=2071700, channel=0, data=[36, 0]),
   midi.NoteOnEvent(tick=2071800, channel=0, data=[36, 100]),
   midi.NoteOffEvent(tick=2071900, channel=0, data=[36, 0]),
   midi.NoteOnEvent(tick=2072000, channel=0, data=[36, 100]),
   midi.NoteOffEvent(tick=2072100, channel=0, data=[36, 0]),
   midi.NoteOnEvent(tick=2072200, channel=0, data=[36, 100]),
   midi.NoteOffEvent(tick=2072300, channel=0, data=[36, 0]),
   midi.NoteOnEvent(tick=2072400, channel=0, data=[29, 100]),
   midi.NoteOffEvent(tick=2072500, channel=0, data=[29, 0]),
   midi.NoteOnEvent(tick=2072600, channel=0, data=[56, 100]),
   midi.NoteOffEvent(tick=2072700, channel=0, data=[56, 0]),
   midi.NoteOnEvent(tick=2072800, channel=0, data=[56, 100]),
   midi.NoteOffEvent(tick=2072900, channel=0, data=[56, 0]),
   midi.NoteOnEvent(tick=2073000, channel=0, data=[36, 100]),
   midi.NoteOffEvent(tick=2073100, channel=0, data=[36, 0]),
   midi.NoteOnEvent(tick=2073200, channel=0, data=[36, 100]),
   midi.NoteOffEvent(tick=2073300, channel=0, data=[36, 0]),
   midi.NoteOnEvent(tick=2073400, channel=0, data=[36, 100]),
   midi.NoteOffEvent(tick=2073500, channel=0, data=[36, 0]),
   midi.NoteOnEvent(tick=2073600, channel=0, data=[36, 100]),
   midi.NoteOffEvent(tick=2073700, channel=0, data=[36, 0]),
   midi.NoteOnEvent(tick=2073800, channel=0, data=[36, 100]),
   midi.NoteOffEvent(tick=2073900, channel=0, data=[36, 0]),
   midi.NoteOnEvent(tick=2074000, channel=0, data=[36, 100]),
   midi.NoteOffEvent(tick=2074100, channel=0, data=[36, 0]),
   midi.NoteOnEvent(tick=2074200, channel=0, data=[36, 100]),
   midi.NoteOffEvent(tick=2074300, channel=0, data=[36, 0]),
   midi.NoteOnEvent(tick=2074400, channel=0, data=[36, 100]),
   midi.NoteOffEvent(tick=2074500, channel=0, data=[36, 0]),
   midi.NoteOnEvent(tick=2074600, channel=0, data=[2, 100]),
   midi.NoteOffEvent(tick=2074700, channel=0, data=[2, 0]),
   midi.NoteOnEvent(tick=2074800, channel=0, data=[46, 100]),
   midi.NoteOffEvent(tick=2074900, channel=0, data=[46, 0]),
   midi.NoteOnEvent(tick=2075000, channel=0, data=[78, 100]),
   midi.NoteOffEvent(tick=2075100, channel=0, data=[78, 0]),
   midi.NoteOnEvent(tick=2075200, channel=0, data=[15, 100]),
   midi.NoteOffEvent(tick=2075300, channel=0, data=[15, 0]),
   midi.NoteOnEvent(tick=2075400, channel=0, data=[18, 100]),
   midi.NoteOffEvent(tick=2075500, channel=0, data=[18, 0]),
   midi.NoteOnEvent(tick=2075600, channel=0, data=[73, 100]),
   midi.NoteOffEvent(tick=2075700, channel=0, data=[73, 0]),
   midi.NoteOnEvent(tick=2075800, channel=0, data=[36, 100]),
   midi.NoteOffEvent(tick=2075900, channel=0, data=[36, 0]),
   midi.NoteOnEvent(tick=2076000, channel=0, data=[74, 100]),
   midi.NoteOffEvent(tick=2076100, channel=0, data=[74, 0]),
   midi.NoteOnEvent(tick=2076200, channel=0, data=[0, 100]),
   midi.NoteOffEvent(tick=2076300, channel=0, data=[0, 0]),
   midi.NoteOnEvent(tick=2076400, channel=0, data=[51, 100]),
   midi.NoteOffEvent(tick=2076500, channel=0, data=[51, 0]),
   midi.NoteOnEvent(tick=2076600, channel=0, data=[27, 100]),
   midi.NoteOffEvent(tick=2076700, channel=0, data=[27, 0]),
   midi.NoteOnEvent(tick=2076800, channel=0, data=[52, 100]),
   midi.NoteOffEvent(tick=2076900, channel=0, data=[52, 0]),
   midi.NoteOnEvent(tick=2077000, channel=0, data=[36, 100]),
   midi.NoteOffEvent(tick=2077100, channel=0, data=[36, 0]),
   midi.NoteOnEvent(tick=2077200, channel=0, data=[69, 100]),
   midi.NoteOffEvent(tick=2077300, channel=0, data=[69, 0]),
   midi.NoteOnEvent(tick=2077400, channel=0, data=[36, 100]),
   midi.NoteOffEvent(tick=2077500, channel=0, data=[36, 0]),
   midi.NoteOnEvent(tick=2077600, channel=0, data=[74, 100]),
   midi.NoteOffEvent(tick=2077700, channel=0, data=[74, 0]),
   midi.NoteOnEvent(tick=2077800, channel=0, data=[13, 100]),
   midi.NoteOffEvent(tick=2077900, channel=0, data=[13, 0]),
   midi.NoteOnEvent(tick=2078000, channel=0, data=[20, 100]),
   midi.NoteOffEvent(tick=2078100, channel=0, data=[20, 0]),
   midi.NoteOnEvent(tick=2078200, channel=0, data=[11, 100]),
   midi.NoteOffEvent(tick=2078300, channel=0, data=[11, 0]),
   midi.NoteOnEvent(tick=2078400, channel=0, data=[11, 100]),
   midi.NoteOffEvent(tick=2078500, channel=0, data=[11, 0]),
   midi.NoteOnEvent(tick=2078600, channel=0, data=[56, 100]),
   midi.NoteOffEvent(tick=2078700, channel=0, data=[56, 0]),
   midi.NoteOnEvent(tick=2078800, channel=0, data=[36, 100]),
   midi.NoteOffEvent(tick=2078900, channel=0, data=[36, 0]),
   midi.NoteOnEvent(tick=2079000, channel=0, data=[36, 100]),
   midi.NoteOffEvent(tick=2079100, channel=0, data=[36, 0]),
   midi.NoteOnEvent(tick=2079200, channel=0, data=[36, 100]),
   midi.NoteOffEvent(tick=2079300, channel=0, data=[36, 0]),
   midi.NoteOnEvent(tick=2079400, channel=0, data=[36, 100]),
   midi.NoteOffEvent(tick=2079500, channel=0, data=[36, 0]),
   midi.NoteOnEvent(tick=2079600, channel=0, data=[36, 100]),
   midi.NoteOffEvent(tick=2079700, channel=0, data=[36, 0]),
   midi.NoteOnEvent(tick=2079800, channel=0, data=[36, 100]),
   midi.NoteOffEvent(tick=2079900, channel=0, data=[36, 0]),
   midi.NoteOnEvent(tick=2080000, channel=0, data=[36, 100]),
   midi.NoteOffEvent(tick=2080100, channel=0, data=[36, 0]),
   midi.NoteOnEvent(tick=2080200, channel=0, data=[36, 100]),
   midi.NoteOffEvent(tick=2080300, channel=0, data=[36, 0]),
   midi.NoteOnEvent(tick=2080400, channel=0, data=[2, 100]),
   midi.NoteOffEvent(tick=2080500, channel=0, data=[2, 0]),
   midi.NoteOnEvent(tick=2080600, channel=0, data=[46, 100]),
   midi.NoteOffEvent(tick=2080700, channel=0, data=[46, 0]),
   midi.NoteOnEvent(tick=2080800, channel=0, data=[78, 100]),
   midi.NoteOffEvent(tick=2080900, channel=0, data=[78, 0]),
   midi.NoteOnEvent(tick=2081000, channel=0, data=[15, 100]),
   midi.NoteOffEvent(tick=2081100, channel=0, data=[15, 0]),
   midi.NoteOnEvent(tick=2081200, channel=0, data=[18, 100]),
   midi.NoteOffEvent(tick=2081300, channel=0, data=[18, 0]),
   midi.NoteOnEvent(tick=2081400, channel=0, data=[73, 100]),
   midi.NoteOffEvent(tick=2081500, channel=0, data=[73, 0]),
   midi.NoteOnEvent(tick=2081600, channel=0, data=[36, 100]),
   midi.NoteOffEvent(tick=2081700, channel=0, data=[36, 0]),
   midi.NoteOnEvent(tick=2081800, channel=0, data=[74, 100]),
   midi.NoteOffEvent(tick=2081900, channel=0, data=[74, 0]),
   midi.NoteOnEvent(tick=2082000, channel=0, data=[0, 100]),
   midi.NoteOffEvent(tick=2082100, channel=0, data=[0, 0]),
   midi.NoteOnEvent(tick=2082200, channel=0, data=[56, 100]),
   midi.NoteOffEvent(tick=2082300, channel=0, data=[56, 0]),
   midi.NoteOnEvent(tick=2082400, channel=0, data=[36, 100]),
   midi.NoteOffEvent(tick=2082500, channel=0, data=[36, 0]),
   midi.NoteOnEvent(tick=2082600, channel=0, data=[36, 100]),
   midi.NoteOffEvent(tick=2082700, channel=0, data=[36, 0]),
   midi.NoteOnEvent(tick=2082800, channel=0, data=[36, 100]),
   midi.NoteOffEvent(tick=2082900, channel=0, data=[36, 0]),
   midi.NoteOnEvent(tick=2083000, channel=0, data=[36, 100]),
   midi.NoteOffEvent(tick=2083100, channel=0, data=[36, 0]),
   midi.NoteOnEvent(tick=2083200, channel=0, data=[36, 100]),
   midi.NoteOffEvent(tick=2083300, channel=0, data=[36, 0]),
   midi.NoteOnEvent(tick=2083400, channel=0, data=[36, 100]),
   midi.NoteOffEvent(tick=2083500, channel=0, data=[36, 0]),
   midi.NoteOnEvent(tick=2083600, channel=0, data=[36, 100]),
   midi.NoteOffEvent(tick=2083700, channel=0, data=[36, 0]),
   midi.NoteOnEvent(tick=2083800, channel=0, data=[36, 100]),
   midi.NoteOffEvent(tick=2083900, channel=0, data=[36, 0]),
   midi.NoteOnEvent(tick=2084000, channel=0, data=[27, 100]),
   midi.NoteOffEvent(tick=2084100, channel=0, data=[27, 0]),
   midi.NoteOnEvent(tick=2084200, channel=0, data=[56, 100]),
   midi.NoteOffEvent(tick=2084300, channel=0, data=[56, 0]),
   midi.NoteOnEvent(tick=2084400, channel=0, data=[36, 100]),
   midi.NoteOffEvent(tick=2084500, channel=0, data=[36, 0]),
   midi.NoteOnEvent(tick=2084600, channel=0, data=[36, 100]),
   midi.NoteOffEvent(tick=2084700, channel=0, data=[36, 0]),
   midi.NoteOnEvent(tick=2084800, channel=0, data=[36, 100]),
   midi.NoteOffEvent(tick=2084900, channel=0, data=[36, 0]),
   midi.NoteOnEvent(tick=2085000, channel=0, data=[36, 100]),
   midi.NoteOffEvent(tick=2085100, channel=0, data=[36, 0]),
   midi.NoteOnEvent(tick=2085200, channel=0, data=[36, 100]),
   midi.NoteOffEvent(tick=2085300, channel=0, data=[36, 0]),
   midi.NoteOnEvent(tick=2085400, channel=0, data=[36, 100]),
   midi.NoteOffEvent(tick=2085500, channel=0, data=[36, 0]),
   midi.NoteOnEvent(tick=2085600, channel=0, data=[36, 100]),
   midi.NoteOffEvent(tick=2085700, channel=0, data=[36, 0]),
   midi.NoteOnEvent(tick=2085800, channel=0, data=[36, 100]),
   midi.NoteOffEvent(tick=2085900, channel=0, data=[36, 0]),
   midi.NoteOnEvent(tick=2086000, channel=0, data=[29, 100]),
   midi.NoteOffEvent(tick=2086100, channel=0, data=[29, 0]),
   midi.NoteOnEvent(tick=2086200, channel=0, data=[56, 100]),
   midi.NoteOffEvent(tick=2086300, channel=0, data=[56, 0]),
   midi.NoteOnEvent(tick=2086400, channel=0, data=[36, 100]),
   midi.NoteOffEvent(tick=2086500, channel=0, data=[36, 0]),
   midi.NoteOnEvent(tick=2086600, channel=0, data=[56, 100]),
   midi.NoteOffEvent(tick=2086700, channel=0, data=[56, 0]),
   midi.NoteOnEvent(tick=2086800, channel=0, data=[56, 100]),
   midi.NoteOffEvent(tick=2086900, channel=0, data=[56, 0]),
   midi.NoteOnEvent(tick=2087000, channel=0, data=[36, 100]),
   midi.NoteOffEvent(tick=2087100, channel=0, data=[36, 0]),
   midi.NoteOnEvent(tick=2087200, channel=0, data=[36, 100]),
   midi.NoteOffEvent(tick=2087300, channel=0, data=[36, 0]),
   midi.NoteOnEvent(tick=2087400, channel=0, data=[36, 100]),
   midi.NoteOffEvent(tick=2087500, channel=0, data=[36, 0]),
   midi.NoteOnEvent(tick=2087600, channel=0, data=[36, 100]),
   midi.NoteOffEvent(tick=2087700, channel=0, data=[36, 0]),
   midi.NoteOnEvent(tick=2087800, channel=0, data=[19, 100]),
   midi.NoteOffEvent(tick=2087900, channel=0, data=[19, 0]),
   midi.NoteOnEvent(tick=2088000, channel=0, data=[14, 100]),
   midi.NoteOffEvent(tick=2088100, channel=0, data=[14, 0]),
   midi.NoteOnEvent(tick=2088200, channel=0, data=[36, 100]),
   midi.NoteOffEvent(tick=2088300, channel=0, data=[36, 0]),
   midi.NoteOnEvent(tick=2088400, channel=0, data=[3, 100]),
   midi.NoteOffEvent(tick=2088500, channel=0, data=[3, 0]),
   midi.NoteOnEvent(tick=2088600, channel=0, data=[4, 100]),
   midi.NoteOffEvent(tick=2088700, channel=0, data=[4, 0]),
   midi.NoteOnEvent(tick=2088800, channel=0, data=[11, 100]),
   midi.NoteOffEvent(tick=2088900, channel=0, data=[11, 0]),
   midi.NoteOnEvent(tick=2089000, channel=0, data=[4, 100]),
   midi.NoteOffEvent(tick=2089100, channel=0, data=[4, 0]),
   midi.NoteOnEvent(tick=2089200, channel=0, data=[19, 100]),
   midi.NoteOffEvent(tick=2089300, channel=0, data=[19, 0]),
   midi.NoteOnEvent(tick=2089400, channel=0, data=[4, 100]),
   midi.NoteOffEvent(tick=2089500, channel=0, data=[4, 0]),
   midi.NoteOnEvent(tick=2089600, channel=0, data=[36, 100]),
   midi.NoteOffEvent(tick=2089700, channel=0, data=[36, 0]),
   midi.NoteOnEvent(tick=2089800, channel=0, data=[0, 100]),
   midi.NoteOffEvent(tick=2089900, channel=0, data=[0, 0]),
   midi.NoteOnEvent(tick=2090000, channel=0, data=[36, 100]),
   midi.NoteOffEvent(tick=2090100, channel=0, data=[36, 0]),
   midi.NoteOnEvent(tick=2090200, channel=0, data=[21, 100]),
   midi.NoteOffEvent(tick=2090300, channel=0, data=[21, 0]),
   midi.NoteOnEvent(tick=2090400, channel=0, data=[0, 100]),
   midi.NoteOffEvent(tick=2090500, channel=0, data=[0, 0]),
   midi.NoteOnEvent(tick=2090600, channel=0, data=[17, 100]),
   midi.NoteOffEvent(tick=2090700, channel=0, data=[17, 0]),
   midi.NoteOnEvent(tick=2090800, channel=0, data=[8, 100]),
   midi.NoteOffEvent(tick=2090900, channel=0, data=[8, 0]),
   midi.NoteOnEvent(tick=2091000, channel=0, data=[0, 100]),
   midi.NoteOffEvent(tick=2091100, channel=0, data=[0, 0]),
   midi.NoteOnEvent(tick=2091200, channel=0, data=[1, 100]),
   midi.NoteOffEvent(tick=2091300, channel=0, data=[1, 0]),
   midi.NoteOnEvent(tick=2091400, channel=0, data=[11, 100]),
   midi.NoteOffEvent(tick=2091500, channel=0, data=[11, 0]),
   midi.NoteOnEvent(tick=2091600, channel=0, data=[4, 100]),
   midi.NoteOffEvent(tick=2091700, channel=0, data=[4, 0]),
   midi.NoteOnEvent(tick=2091800, channel=0, data=[38, 100]),
   midi.NoteOffEvent(tick=2091900, channel=0, data=[38, 0]),
   midi.NoteOnEvent(tick=2092000, channel=0, data=[36, 100]),
   midi.NoteOffEvent(tick=2092100, channel=0, data=[36, 0]),
   midi.NoteOnEvent(tick=2092200, channel=0, data=[20, 100]),
   midi.NoteOffEvent(tick=2092300, channel=0, data=[20, 0]),
   midi.NoteOnEvent(tick=2092400, channel=0, data=[18, 100]),
   midi.NoteOffEvent(tick=2092500, channel=0, data=[18, 0]),
   midi.NoteOnEvent(tick=2092600, channel=0, data=[4, 100]),
   midi.NoteOffEvent(tick=2092700, channel=0, data=[4, 0]),
   midi.NoteOnEvent(tick=2092800, channel=0, data=[36, 100]),
   midi.NoteOffEvent(tick=2092900, channel=0, data=[36, 0]),
   midi.NoteOnEvent(tick=2093000, channel=0, data=[19, 100]),
   midi.NoteOffEvent(tick=2093100, channel=0, data=[19, 0]),
   midi.NoteOnEvent(tick=2093200, channel=0, data=[7, 100]),
   midi.NoteOffEvent(tick=2093300, channel=0, data=[7, 0]),
   midi.NoteOnEvent(tick=2093400, channel=0, data=[4, 100]),
   midi.NoteOffEvent(tick=2093500, channel=0, data=[4, 0]),
   midi.NoteOnEvent(tick=2093600, channel=0, data=[36, 100]),
   midi.NoteOffEvent(tick=2093700, channel=0, data=[36, 0]),
   midi.NoteOnEvent(tick=2093800, channel=0, data=[17, 100]),
   midi.NoteOffEvent(tick=2093900, channel=0, data=[17, 0]),
   midi.NoteOnEvent(tick=2094000, channel=0, data=[4, 100]),
   midi.NoteOffEvent(tick=2094100, channel=0, data=[4, 0]),
   midi.NoteOnEvent(tick=2094200, channel=0, data=[12, 100]),
   midi.NoteOffEvent(tick=2094300, channel=0, data=[12, 0]),
   midi.NoteOnEvent(tick=2094400, channel=0, data=[14, 100]),
   midi.NoteOffEvent(tick=2094500, channel=0, data=[14, 0]),
   midi.NoteOnEvent(tick=2094600, channel=0, data=[21, 100]),
   midi.NoteOffEvent(tick=2094700, channel=0, data=[21, 0]),
   midi.NoteOnEvent(tick=2094800, channel=0, data=[4, 100]),
   midi.NoteOffEvent(tick=2094900, channel=0, data=[4, 0]),
   midi.NoteOnEvent(tick=2095000, channel=0, data=[45, 100]),
   midi.NoteOffEvent(tick=2095100, channel=0, data=[45, 0]),
   midi.NoteOnEvent(tick=2095200, channel=0, data=[21, 100]),
   midi.NoteOffEvent(tick=2095300, channel=0, data=[21, 0]),
   midi.NoteOnEvent(tick=2095400, channel=0, data=[0, 100]),
   midi.NoteOffEvent(tick=2095500, channel=0, data=[0, 0]),
   midi.NoteOnEvent(tick=2095600, channel=0, data=[17, 100]),
   midi.NoteOffEvent(tick=2095700, channel=0, data=[17, 0]),
   midi.NoteOnEvent(tick=2095800, channel=0, data=[8, 100]),
   midi.NoteOffEvent(tick=2095900, channel=0, data=[8, 0]),
   midi.NoteOnEvent(tick=2096000, channel=0, data=[0, 100]),
   midi.NoteOffEvent(tick=2096100, channel=0, data=[0, 0]),
   midi.NoteOnEvent(tick=2096200, channel=0, data=[1, 100]),
   midi.NoteOffEvent(tick=2096300, channel=0, data=[1, 0]),
   midi.NoteOnEvent(tick=2096400, channel=0, data=[11, 100]),
   midi.NoteOffEvent(tick=2096500, channel=0, data=[11, 0]),
   midi.NoteOnEvent(tick=2096600, channel=0, data=[4, 100]),
   midi.NoteOffEvent(tick=2096700, channel=0, data=[4, 0]),
   midi.NoteOnEvent(tick=2096800, channel=0, data=[36, 100]),
   midi.NoteOffEvent(tick=2096900, channel=0, data=[36, 0]),
   midi.NoteOnEvent(tick=2097000, channel=0, data=[2, 100]),
   midi.NoteOffEvent(tick=2097100, channel=0, data=[2, 0]),
   midi.NoteOnEvent(tick=2097200, channel=0, data=[12, 100]),
   midi.NoteOffEvent(tick=2097300, channel=0, data=[12, 0]),
   midi.NoteOnEvent(tick=2097400, channel=0, data=[3, 100]),
   midi.NoteOffEvent(tick=2097500, channel=0, data=[3, 0]),
   midi.NoteOnEvent(tick=2097600, channel=0, data=[11, 100]),
   midi.NoteOffEvent(tick=2097700, channel=0, data=[11, 0]),
   midi.NoteOnEvent(tick=2097800, channel=0, data=[4, 100]),
   midi.NoteOffEvent(tick=2097900, channel=0, data=[4, 0]),
   midi.NoteOnEvent(tick=2098000, channel=0, data=[19, 100]),
   midi.NoteOffEvent(tick=2098100, channel=0, data=[19, 0]),
   midi.NoteOnEvent(tick=2098200, channel=0, data=[37, 100]),
   midi.NoteOffEvent(tick=2098300, channel=0, data=[37, 0]),
   midi.NoteOnEvent(tick=2098400, channel=0, data=[36, 100]),
   midi.NoteOffEvent(tick=2098500, channel=0, data=[36, 0]),
   midi.NoteOnEvent(tick=2098600, channel=0, data=[19, 100]),
   midi.NoteOffEvent(tick=2098700, channel=0, data=[19, 0]),
   midi.NoteOnEvent(tick=2098800, channel=0, data=[7, 100]),
   midi.NoteOffEvent(tick=2098900, channel=0, data=[7, 0]),
   midi.NoteOnEvent(tick=2099000, channel=0, data=[8, 100]),
   midi.NoteOffEvent(tick=2099100, channel=0, data=[8, 0]),
   midi.NoteOnEvent(tick=2099200, channel=0, data=[18, 100]),
   midi.NoteOffEvent(tick=2099300, channel=0, data=[18, 0]),
   midi.NoteOnEvent(tick=2099400, channel=0, data=[36, 100]),
   midi.NoteOffEvent(tick=2099500, channel=0, data=[36, 0]),
   midi.NoteOnEvent(tick=2099600, channel=0, data=[12, 100]),
   midi.NoteOffEvent(tick=2099700, channel=0, data=[12, 0]),
   midi.NoteOnEvent(tick=2099800, channel=0, data=[4, 100]),
   midi.NoteOffEvent(tick=2099900, channel=0, data=[4, 0]),
   midi.NoteOnEvent(tick=2100000, channel=0, data=[19, 100]),
   midi.NoteOffEvent(tick=2100100, channel=0, data=[19, 0]),
   midi.NoteOnEvent(tick=2100200, channel=0, data=[7, 100]),
   midi.NoteOffEvent(tick=2100300, channel=0, data=[7, 0]),
   midi.NoteOnEvent(tick=2100400, channel=0, data=[14, 100]),
   midi.NoteOffEvent(tick=2100500, channel=0, data=[14, 0]),
   midi.NoteOnEvent(tick=2100600, channel=0, data=[3, 100]),
   midi.NoteOffEvent(tick=2100700, channel=0, data=[3, 0]),
   midi.NoteOnEvent(tick=2100800, channel=0, data=[36, 100]),
   midi.NoteOffEvent(tick=2100900, channel=0, data=[36, 0]),
   midi.NoteOnEvent(tick=2101000, channel=0, data=[8, 100]),
   midi.NoteOffEvent(tick=2101100, channel=0, data=[8, 0]),
   midi.NoteOnEvent(tick=2101200, channel=0, data=[18, 100]),
   midi.NoteOffEvent(tick=2101300, channel=0, data=[18, 0]),
   midi.NoteOnEvent(tick=2101400, channel=0, data=[36, 100]),
   midi.NoteOffEvent(tick=2101500, channel=0, data=[36, 0]),
   midi.NoteOnEvent(tick=2101600, channel=0, data=[20, 100]),
   midi.NoteOffEvent(tick=2101700, channel=0, data=[20, 0]),
   midi.NoteOnEvent(tick=2101800, channel=0, data=[18, 100]),
   midi.NoteOffEvent(tick=2101900, channel=0, data=[18, 0]),
   midi.NoteOnEvent(tick=2102000, channel=0, data=[4, 100]),
   midi.NoteOffEvent(tick=2102100, channel=0, data=[4, 0]),
   midi.NoteOnEvent(tick=2102200, channel=0, data=[5, 100]),
   midi.NoteOffEvent(tick=2102300, channel=0, data=[5, 0]),
   midi.NoteOnEvent(tick=2102400, channel=0, data=[20, 100]),
   midi.NoteOffEvent(tick=2102500, channel=0, data=[20, 0]),
   midi.NoteOnEvent(tick=2102600, channel=0, data=[11, 100]),
   midi.NoteOffEvent(tick=2102700, channel=0, data=[11, 0]),
   midi.NoteOnEvent(tick=2102800, channel=0, data=[56, 100]),
   midi.NoteOffEvent(tick=2102900, channel=0, data=[56, 0]),
   midi.NoteOnEvent(tick=2103000, channel=0, data=[36, 100]),
   midi.NoteOffEvent(tick=2103100, channel=0, data=[36, 0]),
   midi.NoteOnEvent(tick=2103200, channel=0, data=[36, 100]),
   midi.NoteOffEvent(tick=2103300, channel=0, data=[36, 0]),
   midi.NoteOnEvent(tick=2103400, channel=0, data=[36, 100]),
   midi.NoteOffEvent(tick=2103500, channel=0, data=[36, 0]),
   midi.NoteOnEvent(tick=2103600, channel=0, data=[36, 100]),
   midi.NoteOffEvent(tick=2103700, channel=0, data=[36, 0]),
   midi.NoteOnEvent(tick=2103800, channel=0, data=[22, 100]),
   midi.NoteOffEvent(tick=2103900, channel=0, data=[22, 0]),
   midi.NoteOnEvent(tick=2104000, channel=0, data=[7, 100]),
   midi.NoteOffEvent(tick=2104100, channel=0, data=[7, 0]),
   midi.NoteOnEvent(tick=2104200, channel=0, data=[4, 100]),
   midi.NoteOffEvent(tick=2104300, channel=0, data=[4, 0]),
   midi.NoteOnEvent(tick=2104400, channel=0, data=[13, 100]),
   midi.NoteOffEvent(tick=2104500, channel=0, data=[13, 0]),
   midi.NoteOnEvent(tick=2104600, channel=0, data=[36, 100]),
   midi.NoteOffEvent(tick=2104700, channel=0, data=[36, 0]),
   midi.NoteOnEvent(tick=2104800, channel=0, data=[19, 100]),
   midi.NoteOffEvent(tick=2104900, channel=0, data=[19, 0]),
   midi.NoteOnEvent(tick=2105000, channel=0, data=[7, 100]),
   midi.NoteOffEvent(tick=2105100, channel=0, data=[7, 0]),
   midi.NoteOnEvent(tick=2105200, channel=0, data=[4, 100]),
   midi.NoteOffEvent(tick=2105300, channel=0, data=[4, 0]),
   midi.NoteOnEvent(tick=2105400, channel=0, data=[36, 100]),
   midi.NoteOffEvent(tick=2105500, channel=0, data=[36, 0]),
   midi.NoteOnEvent(tick=2105600, channel=0, data=[21, 100]),
   midi.NoteOffEvent(tick=2105700, channel=0, data=[21, 0]),
   midi.NoteOnEvent(tick=2105800, channel=0, data=[0, 100]),
   midi.NoteOffEvent(tick=2105900, channel=0, data=[0, 0]),
   midi.NoteOnEvent(tick=2106000, channel=0, data=[17, 100]),
   midi.NoteOffEvent(tick=2106100, channel=0, data=[17, 0]),
   midi.NoteOnEvent(tick=2106200, channel=0, data=[8, 100]),
   midi.NoteOffEvent(tick=2106300, channel=0, data=[8, 0]),
   midi.NoteOnEvent(tick=2106400, channel=0, data=[0, 100]),
   midi.NoteOffEvent(tick=2106500, channel=0, data=[0, 0]),
   midi.NoteOnEvent(tick=2106600, channel=0, data=[1, 100]),
   midi.NoteOffEvent(tick=2106700, channel=0, data=[1, 0]),
   midi.NoteOnEvent(tick=2106800, channel=0, data=[11, 100]),
   midi.NoteOffEvent(tick=2106900, channel=0, data=[11, 0]),
   midi.NoteOnEvent(tick=2107000, channel=0, data=[4, 100]),
   midi.NoteOffEvent(tick=2107100, channel=0, data=[4, 0]),
   midi.NoteOnEvent(tick=2107200, channel=0, data=[36, 100]),
   midi.NoteOffEvent(tick=2107300, channel=0, data=[36, 0]),
   midi.NoteOnEvent(tick=2107400, channel=0, data=[8, 100]),
   midi.NoteOffEvent(tick=2107500, channel=0, data=[8, 0]),
   midi.NoteOnEvent(tick=2107600, channel=0, data=[18, 100]),
   midi.NoteOffEvent(tick=2107700, channel=0, data=[18, 0]),
   midi.NoteOnEvent(tick=2107800, channel=0, data=[36, 100]),
   midi.NoteOffEvent(tick=2107900, channel=0, data=[36, 0]),
   midi.NoteOnEvent(tick=2108000, channel=0, data=[4, 100]),
   midi.NoteOffEvent(tick=2108100, channel=0, data=[4, 0]),
   midi.NoteOnEvent(tick=2108200, channel=0, data=[23, 100]),
   midi.NoteOffEvent(tick=2108300, channel=0, data=[23, 0]),
   midi.NoteOnEvent(tick=2108400, channel=0, data=[15, 100]),
   midi.NoteOffEvent(tick=2108500, channel=0, data=[15, 0]),
   midi.NoteOnEvent(tick=2108600, channel=0, data=[11, 100]),
   midi.NoteOffEvent(tick=2108700, channel=0, data=[11, 0]),
   midi.NoteOnEvent(tick=2108800, channel=0, data=[8, 100]),
   midi.NoteOffEvent(tick=2108900, channel=0, data=[8, 0]),
   midi.NoteOnEvent(tick=2109000, channel=0, data=[2, 100]),
   midi.NoteOffEvent(tick=2109100, channel=0, data=[2, 0]),
   midi.NoteOnEvent(tick=2109200, channel=0, data=[8, 100]),
   midi.NoteOffEvent(tick=2109300, channel=0, data=[8, 0]),
   midi.NoteOnEvent(tick=2109400, channel=0, data=[19, 100]),
   midi.NoteOffEvent(tick=2109500, channel=0, data=[19, 0]),
   midi.NoteOnEvent(tick=2109600, channel=0, data=[11, 100]),
   midi.NoteOffEvent(tick=2109700, channel=0, data=[11, 0]),
   midi.NoteOnEvent(tick=2109800, channel=0, data=[24, 100]),
   midi.NoteOffEvent(tick=2109900, channel=0, data=[24, 0]),
   midi.NoteOnEvent(tick=2110000, channel=0, data=[36, 100]),
   midi.NoteOffEvent(tick=2110100, channel=0, data=[36, 0]),
   midi.NoteOnEvent(tick=2110200, channel=0, data=[2, 100]),
   midi.NoteOffEvent(tick=2110300, channel=0, data=[2, 0]),
   midi.NoteOnEvent(tick=2110400, channel=0, data=[0, 100]),
   midi.NoteOffEvent(tick=2110500, channel=0, data=[0, 0]),
   midi.NoteOnEvent(tick=2110600, channel=0, data=[18, 100]),
   midi.NoteOffEvent(tick=2110700, channel=0, data=[18, 0]),
   midi.NoteOnEvent(tick=2110800, channel=0, data=[19, 100]),
   midi.NoteOffEvent(tick=2110900, channel=0, data=[19, 0]),
   midi.NoteOnEvent(tick=2111000, channel=0, data=[36, 100]),
   midi.NoteOffEvent(tick=2111100, channel=0, data=[36, 0]),
   midi.NoteOnEvent(tick=2111200, channel=0, data=[19, 100]),
   midi.NoteOffEvent(tick=2111300, channel=0, data=[19, 0]),
   midi.NoteOnEvent(tick=2111400, channel=0, data=[14, 100]),
   midi.NoteOffEvent(tick=2111500, channel=0, data=[14, 0]),
   midi.NoteOnEvent(tick=2111600, channel=0, data=[36, 100]),
   midi.NoteOffEvent(tick=2111700, channel=0, data=[36, 0]),
   midi.NoteOnEvent(tick=2111800, channel=0, data=[0, 100]),
   midi.NoteOffEvent(tick=2111900, channel=0, data=[0, 0]),
   midi.NoteOnEvent(tick=2112000, channel=0, data=[36, 100]),
   midi.NoteOffEvent(tick=2112100, channel=0, data=[36, 0]),
   midi.NoteOnEvent(tick=2112200, channel=0, data=[15, 100]),
   midi.NoteOffEvent(tick=2112300, channel=0, data=[15, 0]),
   midi.NoteOnEvent(tick=2112400, channel=0, data=[0, 100]),
   midi.NoteOffEvent(tick=2112500, channel=0, data=[0, 0]),
   midi.NoteOnEvent(tick=2112600, channel=0, data=[17, 100]),
   midi.NoteOffEvent(tick=2112700, channel=0, data=[17, 0]),
   midi.NoteOnEvent(tick=2112800, channel=0, data=[19, 100]),
   midi.NoteOffEvent(tick=2112900, channel=0, data=[19, 0]),
   midi.NoteOnEvent(tick=2113000, channel=0, data=[8, 100]),
   midi.NoteOffEvent(tick=2113100, channel=0, data=[8, 0]),
   midi.NoteOnEvent(tick=2113200, channel=0, data=[2, 100]),
   midi.NoteOffEvent(tick=2113300, channel=0, data=[2, 0]),
   midi.NoteOnEvent(tick=2113400, channel=0, data=[20, 100]),
   midi.NoteOffEvent(tick=2113500, channel=0, data=[20, 0]),
   midi.NoteOnEvent(tick=2113600, channel=0, data=[11, 100]),
   midi.NoteOffEvent(tick=2113700, channel=0, data=[11, 0]),
   midi.NoteOnEvent(tick=2113800, channel=0, data=[0, 100]),
   midi.NoteOffEvent(tick=2113900, channel=0, data=[0, 0]),
   midi.NoteOnEvent(tick=2114000, channel=0, data=[17, 100]),
   midi.NoteOffEvent(tick=2114100, channel=0, data=[17, 0]),
   midi.NoteOnEvent(tick=2114200, channel=0, data=[36, 100]),
   midi.NoteOffEvent(tick=2114300, channel=0, data=[36, 0]),
   midi.NoteOnEvent(tick=2114400, channel=0, data=[3, 100]),
   midi.NoteOffEvent(tick=2114500, channel=0, data=[3, 0]),
   midi.NoteOnEvent(tick=2114600, channel=0, data=[0, 100]),
   midi.NoteOffEvent(tick=2114700, channel=0, data=[0, 0]),
   midi.NoteOnEvent(tick=2114800, channel=0, data=[19, 100]),
   midi.NoteOffEvent(tick=2114900, channel=0, data=[19, 0]),
   midi.NoteOnEvent(tick=2115000, channel=0, data=[0, 100]),
   midi.NoteOffEvent(tick=2115100, channel=0, data=[0, 0]),
   midi.NoteOnEvent(tick=2115200, channel=0, data=[36, 100]),
   midi.NoteOffEvent(tick=2115300, channel=0, data=[36, 0]),
   midi.NoteOnEvent(tick=2115400, channel=0, data=[19, 100]),
   midi.NoteOffEvent(tick=2115500, channel=0, data=[19, 0]),
   midi.NoteOnEvent(tick=2115600, channel=0, data=[24, 100]),
   midi.NoteOffEvent(tick=2115700, channel=0, data=[24, 0]),
   midi.NoteOnEvent(tick=2115800, channel=0, data=[15, 100]),
   midi.NoteOffEvent(tick=2115900, channel=0, data=[15, 0]),
   midi.NoteOnEvent(tick=2116000, channel=0, data=[4, 100]),
   midi.NoteOffEvent(tick=2116100, channel=0, data=[4, 0]),
   midi.NoteOnEvent(tick=2116200, channel=0, data=[38, 100]),
   midi.NoteOffEvent(tick=2116300, channel=0, data=[38, 0]),
   midi.NoteOnEvent(tick=2116400, channel=0, data=[36, 100]),
   midi.NoteOffEvent(tick=2116500, channel=0, data=[36, 0]),
   midi.NoteOnEvent(tick=2116600, channel=0, data=[0, 100]),
   midi.NoteOffEvent(tick=2116700, channel=0, data=[0, 0]),
   midi.NoteOnEvent(tick=2116800, channel=0, data=[13, 100]),
   midi.NoteOffEvent(tick=2116900, channel=0, data=[13, 0]),
   midi.NoteOnEvent(tick=2117000, channel=0, data=[3, 100]),
   midi.NoteOffEvent(tick=2117100, channel=0, data=[3, 0]),
   midi.NoteOnEvent(tick=2117200, channel=0, data=[36, 100]),
   midi.NoteOffEvent(tick=2117300, channel=0, data=[36, 0]),
   midi.NoteOnEvent(tick=2117400, channel=0, data=[24, 100]),
   midi.NoteOffEvent(tick=2117500, channel=0, data=[24, 0]),
   midi.NoteOnEvent(tick=2117600, channel=0, data=[14, 100]),
   midi.NoteOffEvent(tick=2117700, channel=0, data=[14, 0]),
   midi.NoteOnEvent(tick=2117800, channel=0, data=[20, 100]),
   midi.NoteOffEvent(tick=2117900, channel=0, data=[20, 0]),
   midi.NoteOnEvent(tick=2118000, channel=0, data=[36, 100]),
   midi.NoteOffEvent(tick=2118100, channel=0, data=[36, 0]),
   midi.NoteOnEvent(tick=2118200, channel=0, data=[56, 100]),
   midi.NoteOffEvent(tick=2118300, channel=0, data=[56, 0]),
   midi.NoteOnEvent(tick=2118400, channel=0, data=[36, 100]),
   midi.NoteOffEvent(tick=2118500, channel=0, data=[36, 0]),
   midi.NoteOnEvent(tick=2118600, channel=0, data=[36, 100]),
   midi.NoteOffEvent(tick=2118700, channel=0, data=[36, 0]),
   midi.NoteOnEvent(tick=2118800, channel=0, data=[36, 100]),
   midi.NoteOffEvent(tick=2118900, channel=0, data=[36, 0]),
   midi.NoteOnEvent(tick=2119000, channel=0, data=[36, 100]),
   midi.NoteOffEvent(tick=2119100, channel=0, data=[36, 0]),
   midi.NoteOnEvent(tick=2119200, channel=0, data=[22, 100]),
   midi.NoteOffEvent(tick=2119300, channel=0, data=[22, 0]),
   midi.NoteOnEvent(tick=2119400, channel=0, data=[0, 100]),
   midi.NoteOffEvent(tick=2119500, channel=0, data=[0, 0]),
   midi.NoteOnEvent(tick=2119600, channel=0, data=[13, 100]),
   midi.NoteOffEvent(tick=2119700, channel=0, data=[13, 0]),
   midi.NoteOnEvent(tick=2119800, channel=0, data=[19, 100]),
   midi.NoteOffEvent(tick=2119900, channel=0, data=[19, 0]),
   midi.NoteOnEvent(tick=2120000, channel=0, data=[36, 100]),
   midi.NoteOffEvent(tick=2120100, channel=0, data=[36, 0]),
   midi.NoteOnEvent(tick=2120200, channel=0, data=[0, 100]),
   midi.NoteOffEvent(tick=2120300, channel=0, data=[0, 0]),
   midi.NoteOnEvent(tick=2120400, channel=0, data=[13, 100]),
   midi.NoteOffEvent(tick=2120500, channel=0, data=[13, 0]),
   midi.NoteOnEvent(tick=2120600, channel=0, data=[36, 100]),
   midi.NoteOffEvent(tick=2120700, channel=0, data=[36, 0]),
   midi.NoteOnEvent(tick=2120800, channel=0, data=[20, 100]),
   midi.NoteOffEvent(tick=2120900, channel=0, data=[20, 0]),
   midi.NoteOnEvent(tick=2121000, channel=0, data=[13, 100]),
   midi.NoteOffEvent(tick=2121100, channel=0, data=[13, 0]),
   midi.NoteOnEvent(tick=2121200, channel=0, data=[19, 100]),
   midi.NoteOffEvent(tick=2121300, channel=0, data=[19, 0]),
   midi.NoteOnEvent(tick=2121400, channel=0, data=[24, 100]),
   midi.NoteOffEvent(tick=2121500, channel=0, data=[24, 0]),
   midi.NoteOnEvent(tick=2121600, channel=0, data=[15, 100]),
   midi.NoteOffEvent(tick=2121700, channel=0, data=[15, 0]),
   midi.NoteOnEvent(tick=2121800, channel=0, data=[4, 100]),
   midi.NoteOffEvent(tick=2121900, channel=0, data=[4, 0]),
   midi.NoteOnEvent(tick=2122000, channel=0, data=[3, 100]),
   midi.NoteOffEvent(tick=2122100, channel=0, data=[3, 0]),
   midi.NoteOnEvent(tick=2122200, channel=0, data=[36, 100]),
   midi.NoteOffEvent(tick=2122300, channel=0, data=[36, 0]),
   midi.NoteOnEvent(tick=2122400, channel=0, data=[21, 100]),
   midi.NoteOffEvent(tick=2122500, channel=0, data=[21, 0]),
   midi.NoteOnEvent(tick=2122600, channel=0, data=[0, 100]),
   midi.NoteOffEvent(tick=2122700, channel=0, data=[0, 0]),
   midi.NoteOnEvent(tick=2122800, channel=0, data=[17, 100]),
   midi.NoteOffEvent(tick=2122900, channel=0, data=[17, 0]),
   midi.NoteOnEvent(tick=2123000, channel=0, data=[8, 100]),
   midi.NoteOffEvent(tick=2123100, channel=0, data=[8, 0]),
   midi.NoteOnEvent(tick=2123200, channel=0, data=[0, 100]),
   midi.NoteOffEvent(tick=2123300, channel=0, data=[0, 0]),
   midi.NoteOnEvent(tick=2123400, channel=0, data=[1, 100]),
   midi.NoteOffEvent(tick=2123500, channel=0, data=[1, 0]),
   midi.NoteOnEvent(tick=2123600, channel=0, data=[11, 100]),
   midi.NoteOffEvent(tick=2123700, channel=0, data=[11, 0]),
   midi.NoteOnEvent(tick=2123800, channel=0, data=[4, 100]),
   midi.NoteOffEvent(tick=2123900, channel=0, data=[4, 0]),
   midi.NoteOnEvent(tick=2124000, channel=0, data=[37, 100]),
   midi.NoteOffEvent(tick=2124100, channel=0, data=[37, 0]),
   midi.NoteOnEvent(tick=2124200, channel=0, data=[36, 100]),
   midi.NoteOffEvent(tick=2124300, channel=0, data=[36, 0]),
   midi.NoteOnEvent(tick=2124400, channel=0, data=[19, 100]),
   midi.NoteOffEvent(tick=2124500, channel=0, data=[19, 0]),
   midi.NoteOnEvent(tick=2124600, channel=0, data=[7, 100]),
   midi.NoteOffEvent(tick=2124700, channel=0, data=[7, 0]),
   midi.NoteOnEvent(tick=2124800, channel=0, data=[4, 100]),
   midi.NoteOffEvent(tick=2124900, channel=0, data=[4, 0]),
   midi.NoteOnEvent(tick=2125000, channel=0, data=[36, 100]),
   midi.NoteOffEvent(tick=2125100, channel=0, data=[36, 0]),
   midi.NoteOnEvent(tick=2125200, channel=0, data=[5, 100]),
   midi.NoteOffEvent(tick=2125300, channel=0, data=[5, 0]),
   midi.NoteOnEvent(tick=2125400, channel=0, data=[14, 100]),
   midi.NoteOffEvent(tick=2125500, channel=0, data=[14, 0]),
   midi.NoteOnEvent(tick=2125600, channel=0, data=[11, 100]),
   midi.NoteOffEvent(tick=2125700, channel=0, data=[11, 0]),
   midi.NoteOnEvent(tick=2125800, channel=0, data=[11, 100]),
   midi.NoteOffEvent(tick=2125900, channel=0, data=[11, 0]),
   midi.NoteOnEvent(tick=2126000, channel=0, data=[14, 100]),
   midi.NoteOffEvent(tick=2126100, channel=0, data=[14, 0]),
   midi.NoteOnEvent(tick=2126200, channel=0, data=[22, 100]),
   midi.NoteOffEvent(tick=2126300, channel=0, data=[22, 0]),
   midi.NoteOnEvent(tick=2126400, channel=0, data=[8, 100]),
   midi.NoteOffEvent(tick=2126500, channel=0, data=[8, 0]),
   midi.NoteOnEvent(tick=2126600, channel=0, data=[13, 100]),
   midi.NoteOffEvent(tick=2126700, channel=0, data=[13, 0]),
   midi.NoteOnEvent(tick=2126800, channel=0, data=[6, 100]),
   midi.NoteOffEvent(tick=2126900, channel=0, data=[6, 0]),
   midi.NoteOnEvent(tick=2127000, channel=0, data=[36, 100]),
   midi.NoteOffEvent(tick=2127100, channel=0, data=[36, 0]),
   midi.NoteOnEvent(tick=2127200, channel=0, data=[2, 100]),
   midi.NoteOffEvent(tick=2127300, channel=0, data=[2, 0]),
   midi.NoteOnEvent(tick=2127400, channel=0, data=[14, 100]),
   midi.NoteOffEvent(tick=2127500, channel=0, data=[14, 0]),
   midi.NoteOnEvent(tick=2127600, channel=0, data=[12, 100]),
   midi.NoteOffEvent(tick=2127700, channel=0, data=[12, 0]),
   midi.NoteOnEvent(tick=2127800, channel=0, data=[12, 100]),
   midi.NoteOffEvent(tick=2127900, channel=0, data=[12, 0]),
   midi.NoteOnEvent(tick=2128000, channel=0, data=[0, 100]),
   midi.NoteOffEvent(tick=2128100, channel=0, data=[0, 0]),
   midi.NoteOnEvent(tick=2128200, channel=0, data=[13, 100]),
   midi.NoteOffEvent(tick=2128300, channel=0, data=[13, 0]),
   midi.NoteOnEvent(tick=2128400, channel=0, data=[3, 100]),
   midi.NoteOffEvent(tick=2128500, channel=0, data=[3, 0]),
   midi.NoteOnEvent(tick=2128600, channel=0, data=[36, 100]),
   midi.NoteOffEvent(tick=2128700, channel=0, data=[36, 0]),
   midi.NoteOnEvent(tick=2128800, channel=0, data=[3, 100]),
   midi.NoteOffEvent(tick=2128900, channel=0, data=[3, 0]),
   midi.NoteOnEvent(tick=2129000, channel=0, data=[4, 100]),
   midi.NoteOffEvent(tick=2129100, channel=0, data=[4, 0]),
   midi.NoteOnEvent(tick=2129200, channel=0, data=[11, 100]),
   midi.NoteOffEvent(tick=2129300, channel=0, data=[11, 0]),
   midi.NoteOnEvent(tick=2129400, channel=0, data=[4, 100]),
   midi.NoteOffEvent(tick=2129500, channel=0, data=[4, 0]),
   midi.NoteOnEvent(tick=2129600, channel=0, data=[19, 100]),
   midi.NoteOffEvent(tick=2129700, channel=0, data=[19, 0]),
   midi.NoteOnEvent(tick=2129800, channel=0, data=[4, 100]),
   midi.NoteOffEvent(tick=2129900, channel=0, data=[4, 0]),
   midi.NoteOnEvent(tick=2130000, channel=0, data=[18, 100]),
   midi.NoteOffEvent(tick=2130100, channel=0, data=[18, 0]),
   midi.NoteOnEvent(tick=2130200, channel=0, data=[36, 100]),
   midi.NoteOffEvent(tick=2130300, channel=0, data=[36, 0]),
   midi.NoteOnEvent(tick=2130400, channel=0, data=[19, 100]),
   midi.NoteOffEvent(tick=2130500, channel=0, data=[19, 0]),
   midi.NoteOnEvent(tick=2130600, channel=0, data=[7, 100]),
   midi.NoteOffEvent(tick=2130700, channel=0, data=[7, 0]),
   midi.NoteOnEvent(tick=2130800, channel=0, data=[4, 100]),
   midi.NoteOffEvent(tick=2130900, channel=0, data=[4, 0]),
   midi.NoteOnEvent(tick=2131000, channel=0, data=[36, 100]),
   midi.NoteOffEvent(tick=2131100, channel=0, data=[36, 0]),
   midi.NoteOnEvent(tick=2131200, channel=0, data=[74, 100]),
   midi.NoteOffEvent(tick=2131300, channel=0, data=[74, 0]),
   midi.NoteOnEvent(tick=2131400, channel=0, data=[0, 100]),
   midi.NoteOffEvent(tick=2131500, channel=0, data=[0, 0]),
   midi.NoteOnEvent(tick=2131600, channel=0, data=[36, 100]),
   midi.NoteOffEvent(tick=2131700, channel=0, data=[36, 0]),
   midi.NoteOnEvent(tick=2131800, channel=0, data=[21, 100]),
   midi.NoteOffEvent(tick=2131900, channel=0, data=[21, 0]),
   midi.NoteOnEvent(tick=2132000, channel=0, data=[0, 100]),
   midi.NoteOffEvent(tick=2132100, channel=0, data=[0, 0]),
   midi.NoteOnEvent(tick=2132200, channel=0, data=[17, 100]),
   midi.NoteOffEvent(tick=2132300, channel=0, data=[17, 0]),
   midi.NoteOnEvent(tick=2132400, channel=0, data=[8, 100]),
   midi.NoteOffEvent(tick=2132500, channel=0, data=[8, 0]),
   midi.NoteOnEvent(tick=2132600, channel=0, data=[0, 100]),
   midi.NoteOffEvent(tick=2132700, channel=0, data=[0, 0]),
   midi.NoteOnEvent(tick=2132800, channel=0, data=[1, 100]),
   midi.NoteOffEvent(tick=2132900, channel=0, data=[1, 0]),
   midi.NoteOnEvent(tick=2133000, channel=0, data=[11, 100]),
   midi.NoteOffEvent(tick=2133100, channel=0, data=[11, 0]),
   midi.NoteOnEvent(tick=2133200, channel=0, data=[4, 100]),
   midi.NoteOffEvent(tick=2133300, channel=0, data=[4, 0]),
   midi.NoteOnEvent(tick=2133400, channel=0, data=[46, 100]),
   midi.NoteOffEvent(tick=2133500, channel=0, data=[46, 0]),
   midi.NoteOnEvent(tick=2133600, channel=0, data=[56, 100]),
   midi.NoteOffEvent(tick=2133700, channel=0, data=[56, 0]),
   midi.NoteOnEvent(tick=2133800, channel=0, data=[56, 100]),
   midi.NoteOffEvent(tick=2133900, channel=0, data=[56, 0]),
   midi.NoteOnEvent(tick=2134000, channel=0, data=[56, 100]),
   midi.NoteOffEvent(tick=2134100, channel=0, data=[56, 0]),
   midi.NoteOnEvent(tick=2134200, channel=0, data=[36, 100]),
   midi.NoteOffEvent(tick=2134300, channel=0, data=[36, 0]),
   midi.NoteOnEvent(tick=2134400, channel=0, data=[36, 100]),
   midi.NoteOffEvent(tick=2134500, channel=0, data=[36, 0]),
   midi.NoteOnEvent(tick=2134600, channel=0, data=[36, 100]),
   midi.NoteOffEvent(tick=2134700, channel=0, data=[36, 0]),
   midi.NoteOnEvent(tick=2134800, channel=0, data=[36, 100]),
   midi.NoteOffEvent(tick=2134900, channel=0, data=[36, 0]),
   midi.NoteOnEvent(tick=2135000, channel=0, data=[36, 100]),
   midi.NoteOffEvent(tick=2135100, channel=0, data=[36, 0]),
   midi.NoteOnEvent(tick=2135200, channel=0, data=[36, 100]),
   midi.NoteOffEvent(tick=2135300, channel=0, data=[36, 0]),
   midi.NoteOnEvent(tick=2135400, channel=0, data=[36, 100]),
   midi.NoteOffEvent(tick=2135500, channel=0, data=[36, 0]),
   midi.NoteOnEvent(tick=2135600, channel=0, data=[36, 100]),
   midi.NoteOffEvent(tick=2135700, channel=0, data=[36, 0]),
   midi.NoteOnEvent(tick=2135800, channel=0, data=[17, 100]),
   midi.NoteOffEvent(tick=2135900, channel=0, data=[17, 0]),
   midi.NoteOnEvent(tick=2136000, channel=0, data=[4, 100]),
   midi.NoteOffEvent(tick=2136100, channel=0, data=[4, 0]),
   midi.NoteOnEvent(tick=2136200, channel=0, data=[12, 100]),
   midi.NoteOffEvent(tick=2136300, channel=0, data=[12, 0]),
   midi.NoteOnEvent(tick=2136400, channel=0, data=[14, 100]),
   midi.NoteOffEvent(tick=2136500, channel=0, data=[14, 0]),
   midi.NoteOnEvent(tick=2136600, channel=0, data=[21, 100]),
   midi.NoteOffEvent(tick=2136700, channel=0, data=[21, 0]),
   midi.NoteOnEvent(tick=2136800, channel=0, data=[4, 100]),
   midi.NoteOffEvent(tick=2136900, channel=0, data=[4, 0]),
   midi.NoteOnEvent(tick=2137000, channel=0, data=[45, 100]),
   midi.NoteOffEvent(tick=2137100, channel=0, data=[45, 0]),
   midi.NoteOnEvent(tick=2137200, channel=0, data=[21, 100]),
   midi.NoteOffEvent(tick=2137300, channel=0, data=[21, 0]),
   midi.NoteOnEvent(tick=2137400, channel=0, data=[0, 100]),
   midi.NoteOffEvent(tick=2137500, channel=0, data=[0, 0]),
   midi.NoteOnEvent(tick=2137600, channel=0, data=[17, 100]),
   midi.NoteOffEvent(tick=2137700, channel=0, data=[17, 0]),
   midi.NoteOnEvent(tick=2137800, channel=0, data=[8, 100]),
   midi.NoteOffEvent(tick=2137900, channel=0, data=[8, 0]),
   midi.NoteOnEvent(tick=2138000, channel=0, data=[0, 100]),
   midi.NoteOffEvent(tick=2138100, channel=0, data=[0, 0]),
   midi.NoteOnEvent(tick=2138200, channel=0, data=[1, 100]),
   midi.NoteOffEvent(tick=2138300, channel=0, data=[1, 0]),
   midi.NoteOnEvent(tick=2138400, channel=0, data=[11, 100]),
   midi.NoteOffEvent(tick=2138500, channel=0, data=[11, 0]),
   midi.NoteOnEvent(tick=2138600, channel=0, data=[4, 100]),
   midi.NoteOffEvent(tick=2138700, channel=0, data=[4, 0]),
   midi.NoteOnEvent(tick=2138800, channel=0, data=[36, 100]),
   midi.NoteOffEvent(tick=2138900, channel=0, data=[36, 0]),
   midi.NoteOnEvent(tick=2139000, channel=0, data=[0, 100]),
   midi.NoteOffEvent(tick=2139100, channel=0, data=[0, 0]),
   midi.NoteOnEvent(tick=2139200, channel=0, data=[56, 100]),
   midi.NoteOffEvent(tick=2139300, channel=0, data=[56, 0]),
   midi.NoteOnEvent(tick=2139400, channel=0, data=[36, 100]),
   midi.NoteOffEvent(tick=2139500, channel=0, data=[36, 0]),
   midi.NoteOnEvent(tick=2139600, channel=0, data=[56, 100]),
   midi.NoteOffEvent(tick=2139700, channel=0, data=[56, 0]),
   midi.NoteOnEvent(tick=2139800, channel=0, data=[56, 100]),
   midi.NoteOffEvent(tick=2139900, channel=0, data=[56, 0]),
   midi.NoteOnEvent(tick=2140000, channel=0, data=[36, 100]),
   midi.NoteOffEvent(tick=2140100, channel=0, data=[36, 0]),
   midi.NoteOnEvent(tick=2140200, channel=0, data=[36, 100]),
   midi.NoteOffEvent(tick=2140300, channel=0, data=[36, 0]),
   midi.NoteOnEvent(tick=2140400, channel=0, data=[19, 100]),
   midi.NoteOffEvent(tick=2140500, channel=0, data=[19, 0]),
   midi.NoteOnEvent(tick=2140600, channel=0, data=[7, 100]),
   midi.NoteOffEvent(tick=2140700, channel=0, data=[7, 0]),
   midi.NoteOnEvent(tick=2140800, channel=0, data=[4, 100]),
   midi.NoteOffEvent(tick=2140900, channel=0, data=[4, 0]),
   midi.NoteOnEvent(tick=2141000, channel=0, data=[36, 100]),
   midi.NoteOffEvent(tick=2141100, channel=0, data=[36, 0]),
   midi.NoteOnEvent(tick=2141200, channel=0, data=[0, 100]),
   midi.NoteOffEvent(tick=2141300, channel=0, data=[0, 0]),
   midi.NoteOnEvent(tick=2141400, channel=0, data=[18, 100]),
   midi.NoteOffEvent(tick=2141500, channel=0, data=[18, 0]),
   midi.NoteOnEvent(tick=2141600, channel=0, data=[18, 100]),
   midi.NoteOffEvent(tick=2141700, channel=0, data=[18, 0]),
   midi.NoteOnEvent(tick=2141800, channel=0, data=[8, 100]),
   midi.NoteOffEvent(tick=2141900, channel=0, data=[8, 0]),
   midi.NoteOnEvent(tick=2142000, channel=0, data=[6, 100]),
   midi.NoteOffEvent(tick=2142100, channel=0, data=[6, 0]),
   midi.NoteOnEvent(tick=2142200, channel=0, data=[13, 100]),
   midi.NoteOffEvent(tick=2142300, channel=0, data=[13, 0]),
   midi.NoteOnEvent(tick=2142400, channel=0, data=[12, 100]),
   midi.NoteOffEvent(tick=2142500, channel=0, data=[12, 0]),
   midi.NoteOnEvent(tick=2142600, channel=0, data=[4, 100]),
   midi.NoteOffEvent(tick=2142700, channel=0, data=[4, 0]),
   midi.NoteOnEvent(tick=2142800, channel=0, data=[13, 100]),
   midi.NoteOffEvent(tick=2142900, channel=0, data=[13, 0]),
   midi.NoteOnEvent(tick=2143000, channel=0, data=[19, 100]),
   midi.NoteOffEvent(tick=2143100, channel=0, data=[19, 0]),
   midi.NoteOnEvent(tick=2143200, channel=0, data=[36, 100]),
   midi.NoteOffEvent(tick=2143300, channel=0, data=[36, 0]),
   midi.NoteOnEvent(tick=2143400, channel=0, data=[1, 100]),
   midi.NoteOffEvent(tick=2143500, channel=0, data=[1, 0]),
   midi.NoteOnEvent(tick=2143600, channel=0, data=[24, 100]),
   midi.NoteOffEvent(tick=2143700, channel=0, data=[24, 0]),
   midi.NoteOnEvent(tick=2143800, channel=0, data=[36, 100]),
   midi.NoteOffEvent(tick=2143900, channel=0, data=[36, 0]),
   midi.NoteOnEvent(tick=2144000, channel=0, data=[12, 100]),
   midi.NoteOffEvent(tick=2144100, channel=0, data=[12, 0]),
   midi.NoteOnEvent(tick=2144200, channel=0, data=[20, 100]),
   midi.NoteOffEvent(tick=2144300, channel=0, data=[20, 0]),
   midi.NoteOnEvent(tick=2144400, channel=0, data=[11, 100]),
   midi.NoteOffEvent(tick=2144500, channel=0, data=[11, 0]),
   midi.NoteOnEvent(tick=2144600, channel=0, data=[19, 100]),
   midi.NoteOffEvent(tick=2144700, channel=0, data=[19, 0]),
   midi.NoteOnEvent(tick=2144800, channel=0, data=[8, 100]),
   midi.NoteOffEvent(tick=2144900, channel=0, data=[8, 0]),
   midi.NoteOnEvent(tick=2145000, channel=0, data=[15, 100]),
   midi.NoteOffEvent(tick=2145100, channel=0, data=[15, 0]),
   midi.NoteOnEvent(tick=2145200, channel=0, data=[11, 100]),
   midi.NoteOffEvent(tick=2145300, channel=0, data=[11, 0]),
   midi.NoteOnEvent(tick=2145400, channel=0, data=[8, 100]),
   midi.NoteOffEvent(tick=2145500, channel=0, data=[8, 0]),
   midi.NoteOnEvent(tick=2145600, channel=0, data=[2, 100]),
   midi.NoteOffEvent(tick=2145700, channel=0, data=[2, 0]),
   midi.NoteOnEvent(tick=2145800, channel=0, data=[0, 100]),
   midi.NoteOffEvent(tick=2145900, channel=0, data=[0, 0]),
   midi.NoteOnEvent(tick=2146000, channel=0, data=[19, 100]),
   midi.NoteOffEvent(tick=2146100, channel=0, data=[19, 0]),
   midi.NoteOnEvent(tick=2146200, channel=0, data=[8, 100]),
   midi.NoteOffEvent(tick=2146300, channel=0, data=[8, 0]),
   midi.NoteOnEvent(tick=2146400, channel=0, data=[14, 100]),
   midi.NoteOffEvent(tick=2146500, channel=0, data=[14, 0]),
   midi.NoteOnEvent(tick=2146600, channel=0, data=[13, 100]),
   midi.NoteOffEvent(tick=2146700, channel=0, data=[13, 0]),
   midi.NoteOnEvent(tick=2146800, channel=0, data=[36, 100]),
   midi.NoteOffEvent(tick=2146900, channel=0, data=[36, 0]),
   midi.NoteOnEvent(tick=2147000, channel=0, data=[14, 100]),
   midi.NoteOffEvent(tick=2147100, channel=0, data=[14, 0]),
   midi.NoteOnEvent(tick=2147200, channel=0, data=[15, 100]),
   midi.NoteOffEvent(tick=2147300, channel=0, data=[15, 0]),
   midi.NoteOnEvent(tick=2147400, channel=0, data=[4, 100]),
   midi.NoteOffEvent(tick=2147500, channel=0, data=[4, 0]),
   midi.NoteOnEvent(tick=2147600, channel=0, data=[17, 100]),
   midi.NoteOffEvent(tick=2147700, channel=0, data=[17, 0]),
   midi.NoteOnEvent(tick=2147800, channel=0, data=[0, 100]),
   midi.NoteOffEvent(tick=2147900, channel=0, data=[0, 0]),
   midi.NoteOnEvent(tick=2148000, channel=0, data=[19, 100]),
   midi.NoteOffEvent(tick=2148100, channel=0, data=[19, 0]),
   midi.NoteOnEvent(tick=2148200, channel=0, data=[14, 100]),
   midi.NoteOffEvent(tick=2148300, channel=0, data=[14, 0]),
   midi.NoteOnEvent(tick=2148400, channel=0, data=[17, 100]),
   midi.NoteOffEvent(tick=2148500, channel=0, data=[17, 0]),
   midi.NoteOnEvent(tick=2148600, channel=0, data=[36, 100]),
   midi.NoteOffEvent(tick=2148700, channel=0, data=[36, 0]),
   midi.NoteOnEvent(tick=2148800, channel=0, data=[49, 100]),
   midi.NoteOffEvent(tick=2148900, channel=0, data=[49, 0]),
   midi.NoteOnEvent(tick=2149000, channel=0, data=[48, 100]),
   midi.NoteOffEvent(tick=2149100, channel=0, data=[48, 0]),
   midi.NoteOnEvent(tick=2149200, channel=0, data=[69, 100]),
   midi.NoteOffEvent(tick=2149300, channel=0, data=[69, 0]),
   midi.NoteOnEvent(tick=2149400, channel=0, data=[50, 100]),
   midi.NoteOffEvent(tick=2149500, channel=0, data=[50, 0]),
   midi.NoteOnEvent(tick=2149600, channel=0, data=[56, 100]),
   midi.NoteOffEvent(tick=2149700, channel=0, data=[56, 0]),
   midi.NoteOnEvent(tick=2149800, channel=0, data=[36, 100]),
   midi.NoteOffEvent(tick=2149900, channel=0, data=[36, 0]),
   midi.NoteOnEvent(tick=2150000, channel=0, data=[36, 100]),
   midi.NoteOffEvent(tick=2150100, channel=0, data=[36, 0]),
   midi.NoteOnEvent(tick=2150200, channel=0, data=[36, 100]),
   midi.NoteOffEvent(tick=2150300, channel=0, data=[36, 0]),
   midi.NoteOnEvent(tick=2150400, channel=0, data=[36, 100]),
   midi.NoteOffEvent(tick=2150500, channel=0, data=[36, 0]),
   midi.NoteOnEvent(tick=2150600, channel=0, data=[19, 100]),
   midi.NoteOffEvent(tick=2150700, channel=0, data=[19, 0]),
   midi.NoteOnEvent(tick=2150800, channel=0, data=[7, 100]),
   midi.NoteOffEvent(tick=2150900, channel=0, data=[7, 0]),
   midi.NoteOnEvent(tick=2151000, channel=0, data=[4, 100]),
   midi.NoteOffEvent(tick=2151100, channel=0, data=[4, 0]),
   midi.NoteOnEvent(tick=2151200, channel=0, data=[36, 100]),
   midi.NoteOffEvent(tick=2151300, channel=0, data=[36, 0]),
   midi.NoteOnEvent(tick=2151400, channel=0, data=[0, 100]),
   midi.NoteOffEvent(tick=2151500, channel=0, data=[0, 0]),
   midi.NoteOnEvent(tick=2151600, channel=0, data=[18, 100]),
   midi.NoteOffEvent(tick=2151700, channel=0, data=[18, 0]),
   midi.NoteOnEvent(tick=2151800, channel=0, data=[18, 100]),
   midi.NoteOffEvent(tick=2151900, channel=0, data=[18, 0]),
   midi.NoteOnEvent(tick=2152000, channel=0, data=[8, 100]),
   midi.NoteOffEvent(tick=2152100, channel=0, data=[8, 0]),
   midi.NoteOnEvent(tick=2152200, channel=0, data=[6, 100]),
   midi.NoteOffEvent(tick=2152300, channel=0, data=[6, 0]),
   midi.NoteOnEvent(tick=2152400, channel=0, data=[13, 100]),
   midi.NoteOffEvent(tick=2152500, channel=0, data=[13, 0]),
   midi.NoteOnEvent(tick=2152600, channel=0, data=[12, 100]),
   midi.NoteOffEvent(tick=2152700, channel=0, data=[12, 0]),
   midi.NoteOnEvent(tick=2152800, channel=0, data=[4, 100]),
   midi.NoteOffEvent(tick=2152900, channel=0, data=[4, 0]),
   midi.NoteOnEvent(tick=2153000, channel=0, data=[13, 100]),
   midi.NoteOffEvent(tick=2153100, channel=0, data=[13, 0]),
   midi.NoteOnEvent(tick=2153200, channel=0, data=[19, 100]),
   midi.NoteOffEvent(tick=2153300, channel=0, data=[19, 0]),
   midi.NoteOnEvent(tick=2153400, channel=0, data=[36, 100]),
   midi.NoteOffEvent(tick=2153500, channel=0, data=[36, 0]),
   midi.NoteOnEvent(tick=2153600, channel=0, data=[1, 100]),
   midi.NoteOffEvent(tick=2153700, channel=0, data=[1, 0]),
   midi.NoteOnEvent(tick=2153800, channel=0, data=[24, 100]),
   midi.NoteOffEvent(tick=2153900, channel=0, data=[24, 0]),
   midi.NoteOnEvent(tick=2154000, channel=0, data=[36, 100]),
   midi.NoteOffEvent(tick=2154100, channel=0, data=[36, 0]),
   midi.NoteOnEvent(tick=2154200, channel=0, data=[12, 100]),
   midi.NoteOffEvent(tick=2154300, channel=0, data=[12, 0]),
   midi.NoteOnEvent(tick=2154400, channel=0, data=[20, 100]),
   midi.NoteOffEvent(tick=2154500, channel=0, data=[20, 0]),
   midi.NoteOnEvent(tick=2154600, channel=0, data=[11, 100]),
   midi.NoteOffEvent(tick=2154700, channel=0, data=[11, 0]),
   midi.NoteOnEvent(tick=2154800, channel=0, data=[19, 100]),
   midi.NoteOffEvent(tick=2154900, channel=0, data=[19, 0]),
   midi.NoteOnEvent(tick=2155000, channel=0, data=[8, 100]),
   midi.NoteOffEvent(tick=2155100, channel=0, data=[8, 0]),
   midi.NoteOnEvent(tick=2155200, channel=0, data=[15, 100]),
   midi.NoteOffEvent(tick=2155300, channel=0, data=[15, 0]),
   midi.NoteOnEvent(tick=2155400, channel=0, data=[11, 100]),
   midi.NoteOffEvent(tick=2155500, channel=0, data=[11, 0]),
   midi.NoteOnEvent(tick=2155600, channel=0, data=[8, 100]),
   midi.NoteOffEvent(tick=2155700, channel=0, data=[8, 0]),
   midi.NoteOnEvent(tick=2155800, channel=0, data=[2, 100]),
   midi.NoteOffEvent(tick=2155900, channel=0, data=[2, 0]),
   midi.NoteOnEvent(tick=2156000, channel=0, data=[0, 100]),
   midi.NoteOffEvent(tick=2156100, channel=0, data=[0, 0]),
   midi.NoteOnEvent(tick=2156200, channel=0, data=[19, 100]),
   midi.NoteOffEvent(tick=2156300, channel=0, data=[19, 0]),
   midi.NoteOnEvent(tick=2156400, channel=0, data=[8, 100]),
   midi.NoteOffEvent(tick=2156500, channel=0, data=[8, 0]),
   midi.NoteOnEvent(tick=2156600, channel=0, data=[14, 100]),
   midi.NoteOffEvent(tick=2156700, channel=0, data=[14, 0]),
   midi.NoteOnEvent(tick=2156800, channel=0, data=[13, 100]),
   midi.NoteOffEvent(tick=2156900, channel=0, data=[13, 0]),
   midi.NoteOnEvent(tick=2157000, channel=0, data=[36, 100]),
   midi.NoteOffEvent(tick=2157100, channel=0, data=[36, 0]),
   midi.NoteOnEvent(tick=2157200, channel=0, data=[14, 100]),
   midi.NoteOffEvent(tick=2157300, channel=0, data=[14, 0]),
   midi.NoteOnEvent(tick=2157400, channel=0, data=[15, 100]),
   midi.NoteOffEvent(tick=2157500, channel=0, data=[15, 0]),
   midi.NoteOnEvent(tick=2157600, channel=0, data=[4, 100]),
   midi.NoteOffEvent(tick=2157700, channel=0, data=[4, 0]),
   midi.NoteOnEvent(tick=2157800, channel=0, data=[17, 100]),
   midi.NoteOffEvent(tick=2157900, channel=0, data=[17, 0]),
   midi.NoteOnEvent(tick=2158000, channel=0, data=[0, 100]),
   midi.NoteOffEvent(tick=2158100, channel=0, data=[0, 0]),
   midi.NoteOnEvent(tick=2158200, channel=0, data=[19, 100]),
   midi.NoteOffEvent(tick=2158300, channel=0, data=[19, 0]),
   midi.NoteOnEvent(tick=2158400, channel=0, data=[14, 100]),
   midi.NoteOffEvent(tick=2158500, channel=0, data=[14, 0]),
   midi.NoteOnEvent(tick=2158600, channel=0, data=[17, 100]),
   midi.NoteOffEvent(tick=2158700, channel=0, data=[17, 0]),
   midi.NoteOnEvent(tick=2158800, channel=0, data=[36, 100]),
   midi.NoteOffEvent(tick=2158900, channel=0, data=[36, 0]),
   midi.NoteOnEvent(tick=2159000, channel=0, data=[49, 100]),
   midi.NoteOffEvent(tick=2159100, channel=0, data=[49, 0]),
   midi.NoteOnEvent(tick=2159200, channel=0, data=[48, 100]),
   midi.NoteOffEvent(tick=2159300, channel=0, data=[48, 0]),
   midi.NoteOnEvent(tick=2159400, channel=0, data=[69, 100]),
   midi.NoteOffEvent(tick=2159500, channel=0, data=[69, 0]),
   midi.NoteOnEvent(tick=2159600, channel=0, data=[50, 100]),
   midi.NoteOffEvent(tick=2159700, channel=0, data=[50, 0]),
   midi.NoteOnEvent(tick=2159800, channel=0, data=[36, 100]),
   midi.NoteOffEvent(tick=2159900, channel=0, data=[36, 0]),
   midi.NoteOnEvent(tick=2160000, channel=0, data=[12, 100]),
   midi.NoteOffEvent(tick=2160100, channel=0, data=[12, 0]),
   midi.NoteOnEvent(tick=2160200, channel=0, data=[20, 100]),
   midi.NoteOffEvent(tick=2160300, channel=0, data=[20, 0]),
   midi.NoteOnEvent(tick=2160400, channel=0, data=[11, 100]),
   midi.NoteOffEvent(tick=2160500, channel=0, data=[11, 0]),
   midi.NoteOnEvent(tick=2160600, channel=0, data=[19, 100]),
   midi.NoteOffEvent(tick=2160700, channel=0, data=[19, 0]),
   midi.NoteOnEvent(tick=2160800, channel=0, data=[8, 100]),
   midi.NoteOffEvent(tick=2160900, channel=0, data=[8, 0]),
   midi.NoteOnEvent(tick=2161000, channel=0, data=[15, 100]),
   midi.NoteOffEvent(tick=2161100, channel=0, data=[15, 0]),
   midi.NoteOnEvent(tick=2161200, channel=0, data=[11, 100]),
   midi.NoteOffEvent(tick=2161300, channel=0, data=[11, 0]),
   midi.NoteOnEvent(tick=2161400, channel=0, data=[8, 100]),
   midi.NoteOffEvent(tick=2161500, channel=0, data=[8, 0]),
   midi.NoteOnEvent(tick=2161600, channel=0, data=[4, 100]),
   midi.NoteOffEvent(tick=2161700, channel=0, data=[4, 0]),
   midi.NoteOnEvent(tick=2161800, channel=0, data=[18, 100]),
   midi.NoteOffEvent(tick=2161900, channel=0, data=[18, 0]),
   midi.NoteOnEvent(tick=2162000, channel=0, data=[36, 100]),
   midi.NoteOffEvent(tick=2162100, channel=0, data=[36, 0]),
   midi.NoteOnEvent(tick=2162200, channel=0, data=[0, 100]),
   midi.NoteOffEvent(tick=2162300, channel=0, data=[0, 0]),
   midi.NoteOnEvent(tick=2162400, channel=0, data=[36, 100]),
   midi.NoteOffEvent(tick=2162500, channel=0, data=[36, 0]),
   midi.NoteOnEvent(tick=2162600, channel=0, data=[13, 100]),
   midi.NoteOffEvent(tick=2162700, channel=0, data=[13, 0]),
   midi.NoteOnEvent(tick=2162800, channel=0, data=[20, 100]),
   midi.NoteOffEvent(tick=2162900, channel=0, data=[20, 0]),
   midi.NoteOnEvent(tick=2163000, channel=0, data=[12, 100]),
   midi.NoteOffEvent(tick=2163100, channel=0, data=[12, 0]),
   midi.NoteOnEvent(tick=2163200, channel=0, data=[4, 100]),
   midi.NoteOffEvent(tick=2163300, channel=0, data=[4, 0]),
   midi.NoteOnEvent(tick=2163400, channel=0, data=[17, 100]),
   midi.NoteOffEvent(tick=2163500, channel=0, data=[17, 0]),
   midi.NoteOnEvent(tick=2163600, channel=0, data=[8, 100]),
   midi.NoteOffEvent(tick=2163700, channel=0, data=[8, 0]),
   midi.NoteOnEvent(tick=2163800, channel=0, data=[2, 100]),
   midi.NoteOffEvent(tick=2163900, channel=0, data=[2, 0]),
   midi.NoteOnEvent(tick=2164000, channel=0, data=[36, 100]),
   midi.NoteOffEvent(tick=2164100, channel=0, data=[36, 0]),
   midi.NoteOnEvent(tick=2164200, channel=0, data=[21, 100]),
   midi.NoteOffEvent(tick=2164300, channel=0, data=[21, 0]),
   midi.NoteOnEvent(tick=2164400, channel=0, data=[0, 100]),
   midi.NoteOffEvent(tick=2164500, channel=0, data=[0, 0]),
   midi.NoteOnEvent(tick=2164600, channel=0, data=[11, 100]),
   midi.NoteOffEvent(tick=2164700, channel=0, data=[11, 0]),
   midi.NoteOnEvent(tick=2164800, channel=0, data=[20, 100]),
   midi.NoteOffEvent(tick=2164900, channel=0, data=[20, 0]),
   midi.NoteOnEvent(tick=2165000, channel=0, data=[4, 100]),
   midi.NoteOffEvent(tick=2165100, channel=0, data=[4, 0]),
   midi.NoteOnEvent(tick=2165200, channel=0, data=[56, 100]),
   midi.NoteOffEvent(tick=2165300, channel=0, data=[56, 0]),
   midi.NoteOnEvent(tick=2165400, channel=0, data=[36, 100]),
   midi.NoteOffEvent(tick=2165500, channel=0, data=[36, 0]),
   midi.NoteOnEvent(tick=2165600, channel=0, data=[36, 100]),
   midi.NoteOffEvent(tick=2165700, channel=0, data=[36, 0]),
   midi.NoteOnEvent(tick=2165800, channel=0, data=[36, 100]),
   midi.NoteOffEvent(tick=2165900, channel=0, data=[36, 0]),
   midi.NoteOnEvent(tick=2166000, channel=0, data=[36, 100]),
   midi.NoteOffEvent(tick=2166100, channel=0, data=[36, 0]),
   midi.NoteOnEvent(tick=2166200, channel=0, data=[14, 100]),
   midi.NoteOffEvent(tick=2166300, channel=0, data=[14, 0]),
   midi.NoteOnEvent(tick=2166400, channel=0, data=[17, 100]),
   midi.NoteOffEvent(tick=2166500, channel=0, data=[17, 0]),
   midi.NoteOnEvent(tick=2166600, channel=0, data=[36, 100]),
   midi.NoteOffEvent(tick=2166700, channel=0, data=[36, 0]),
   midi.NoteOnEvent(tick=2166800, channel=0, data=[0, 100]),
   midi.NoteOffEvent(tick=2166900, channel=0, data=[0, 0]),
   midi.NoteOnEvent(tick=2167000, channel=0, data=[15, 100]),
   midi.NoteOffEvent(tick=2167100, channel=0, data=[15, 0]),
   midi.NoteOnEvent(tick=2167200, channel=0, data=[15, 100]),
   midi.NoteOffEvent(tick=2167300, channel=0, data=[15, 0]),
   midi.NoteOnEvent(tick=2167400, channel=0, data=[4, 100]),
   midi.NoteOffEvent(tick=2167500, channel=0, data=[4, 0]),
   midi.NoteOnEvent(tick=2167600, channel=0, data=[13, 100]),
   midi.NoteOffEvent(tick=2167700, channel=0, data=[13, 0]),
   midi.NoteOnEvent(tick=2167800, channel=0, data=[3, 100]),
   midi.NoteOffEvent(tick=2167900, channel=0, data=[3, 0]),
   midi.NoteOnEvent(tick=2168000, channel=0, data=[18, 100]),
   midi.NoteOffEvent(tick=2168100, channel=0, data=[18, 0]),
   midi.NoteOnEvent(tick=2168200, channel=0, data=[36, 100]),
   midi.NoteOffEvent(tick=2168300, channel=0, data=[36, 0]),
   midi.NoteOnEvent(tick=2168400, channel=0, data=[19, 100]),
   midi.NoteOffEvent(tick=2168500, channel=0, data=[19, 0]),
   midi.NoteOnEvent(tick=2168600, channel=0, data=[7, 100]),
   midi.NoteOffEvent(tick=2168700, channel=0, data=[7, 0]),
   midi.NoteOnEvent(tick=2168800, channel=0, data=[4, 100]),
   midi.NoteOffEvent(tick=2168900, channel=0, data=[4, 0]),
   midi.NoteOnEvent(tick=2169000, channel=0, data=[36, 100]),
   midi.NoteOffEvent(tick=2169100, channel=0, data=[36, 0]),
   midi.NoteOnEvent(tick=2169200, channel=0, data=[18, 100]),
   midi.NoteOffEvent(tick=2169300, channel=0, data=[18, 0]),
   midi.NoteOnEvent(tick=2169400, channel=0, data=[15, 100]),
   midi.NoteOffEvent(tick=2169500, channel=0, data=[15, 0]),
   midi.NoteOnEvent(tick=2169600, channel=0, data=[4, 100]),
   midi.NoteOffEvent(tick=2169700, channel=0, data=[4, 0]),
   midi.NoteOnEvent(tick=2169800, channel=0, data=[2, 100]),
   midi.NoteOffEvent(tick=2169900, channel=0, data=[2, 0]),
   midi.NoteOnEvent(tick=2170000, channel=0, data=[8, 100]),
   midi.NoteOffEvent(tick=2170100, channel=0, data=[8, 0]),
   midi.NoteOnEvent(tick=2170200, channel=0, data=[5, 100]),
   midi.NoteOffEvent(tick=2170300, channel=0, data=[5, 0]),
   midi.NoteOnEvent(tick=2170400, channel=0, data=[8, 100]),
   midi.NoteOffEvent(tick=2170500, channel=0, data=[8, 0]),
   midi.NoteOnEvent(tick=2170600, channel=0, data=[4, 100]),
   midi.NoteOffEvent(tick=2170700, channel=0, data=[4, 0]),
   midi.NoteOnEvent(tick=2170800, channel=0, data=[3, 100]),
   midi.NoteOffEvent(tick=2170900, channel=0, data=[3, 0]),
   midi.NoteOnEvent(tick=2171000, channel=0, data=[36, 100]),
   midi.NoteOffEvent(tick=2171100, channel=0, data=[36, 0]),
   midi.NoteOnEvent(tick=2171200, channel=0, data=[13, 100]),
   midi.NoteOffEvent(tick=2171300, channel=0, data=[13, 0]),
   midi.NoteOnEvent(tick=2171400, channel=0, data=[20, 100]),
   midi.NoteOffEvent(tick=2171500, channel=0, data=[20, 0]),
   midi.NoteOnEvent(tick=2171600, channel=0, data=[12, 100]),
   midi.NoteOffEvent(tick=2171700, channel=0, data=[12, 0]),
   midi.NoteOnEvent(tick=2171800, channel=0, data=[1, 100]),
   midi.NoteOffEvent(tick=2171900, channel=0, data=[1, 0]),
   midi.NoteOnEvent(tick=2172000, channel=0, data=[4, 100]),
   midi.NoteOffEvent(tick=2172100, channel=0, data=[4, 0]),
   midi.NoteOnEvent(tick=2172200, channel=0, data=[17, 100]),
   midi.NoteOffEvent(tick=2172300, channel=0, data=[17, 0]),
   midi.NoteOnEvent(tick=2172400, channel=0, data=[36, 100]),
   midi.NoteOffEvent(tick=2172500, channel=0, data=[36, 0]),
   midi.NoteOnEvent(tick=2172600, channel=0, data=[14, 100]),
   midi.NoteOffEvent(tick=2172700, channel=0, data=[14, 0]),
   midi.NoteOnEvent(tick=2172800, channel=0, data=[5, 100]),
   midi.NoteOffEvent(tick=2172900, channel=0, data=[5, 0]),
   midi.NoteOnEvent(tick=2173000, channel=0, data=[36, 100]),
   midi.NoteOffEvent(tick=2173100, channel=0, data=[36, 0]),
   midi.NoteOnEvent(tick=2173200, channel=0, data=[2, 100]),
   midi.NoteOffEvent(tick=2173300, channel=0, data=[2, 0]),
   midi.NoteOnEvent(tick=2173400, channel=0, data=[14, 100]),
   midi.NoteOffEvent(tick=2173500, channel=0, data=[14, 0]),
   midi.NoteOnEvent(tick=2173600, channel=0, data=[15, 100]),
   midi.NoteOffEvent(tick=2173700, channel=0, data=[15, 0]),
   midi.NoteOnEvent(tick=2173800, channel=0, data=[8, 100]),
   midi.NoteOffEvent(tick=2173900, channel=0, data=[8, 0]),
   midi.NoteOnEvent(tick=2174000, channel=0, data=[4, 100]),
   midi.NoteOffEvent(tick=2174100, channel=0, data=[4, 0]),
   midi.NoteOnEvent(tick=2174200, channel=0, data=[18, 100]),
   midi.NoteOffEvent(tick=2174300, channel=0, data=[18, 0]),
   midi.NoteOnEvent(tick=2174400, channel=0, data=[36, 100]),
   midi.NoteOffEvent(tick=2174500, channel=0, data=[36, 0]),
   midi.NoteOnEvent(tick=2174600, channel=0, data=[14, 100]),
   midi.NoteOffEvent(tick=2174700, channel=0, data=[14, 0]),
   midi.NoteOnEvent(tick=2174800, channel=0, data=[5, 100]),
   midi.NoteOffEvent(tick=2174900, channel=0, data=[5, 0]),
   midi.NoteOnEvent(tick=2175000, channel=0, data=[36, 100]),
   midi.NoteOffEvent(tick=2175100, channel=0, data=[36, 0]),
   midi.NoteOnEvent(tick=2175200, channel=0, data=[19, 100]),
   midi.NoteOffEvent(tick=2175300, channel=0, data=[19, 0]),
   midi.NoteOnEvent(tick=2175400, channel=0, data=[7, 100]),
   midi.NoteOffEvent(tick=2175500, channel=0, data=[7, 0]),
   midi.NoteOnEvent(tick=2175600, channel=0, data=[4, 100]),
   midi.NoteOffEvent(tick=2175700, channel=0, data=[4, 0]),
   midi.NoteOnEvent(tick=2175800, channel=0, data=[36, 100]),
   midi.NoteOffEvent(tick=2175900, channel=0, data=[36, 0]),
   midi.NoteOnEvent(tick=2176000, channel=0, data=[18, 100]),
   midi.NoteOffEvent(tick=2176100, channel=0, data=[18, 0]),
   midi.NoteOnEvent(tick=2176200, channel=0, data=[19, 100]),
   midi.NoteOffEvent(tick=2176300, channel=0, data=[19, 0]),
   midi.NoteOnEvent(tick=2176400, channel=0, data=[17, 100]),
   midi.NoteOffEvent(tick=2176500, channel=0, data=[17, 0]),
   midi.NoteOnEvent(tick=2176600, channel=0, data=[8, 100]),
   midi.NoteOffEvent(tick=2176700, channel=0, data=[8, 0]),
   midi.NoteOnEvent(tick=2176800, channel=0, data=[13, 100]),
   midi.NoteOffEvent(tick=2176900, channel=0, data=[13, 0]),
   midi.NoteOnEvent(tick=2177000, channel=0, data=[6, 100]),
   midi.NoteOffEvent(tick=2177100, channel=0, data=[6, 0]),
   midi.NoteOnEvent(tick=2177200, channel=0, data=[36, 100]),
   midi.NoteOffEvent(tick=2177300, channel=0, data=[36, 0]),
   midi.NoteOnEvent(tick=2177400, channel=0, data=[21, 100]),
   midi.NoteOffEvent(tick=2177500, channel=0, data=[21, 0]),
   midi.NoteOnEvent(tick=2177600, channel=0, data=[0, 100]),
   midi.NoteOffEvent(tick=2177700, channel=0, data=[0, 0]),
   midi.NoteOnEvent(tick=2177800, channel=0, data=[11, 100]),
   midi.NoteOffEvent(tick=2177900, channel=0, data=[11, 0]),
   midi.NoteOnEvent(tick=2178000, channel=0, data=[20, 100]),
   midi.NoteOffEvent(tick=2178100, channel=0, data=[20, 0]),
   midi.NoteOnEvent(tick=2178200, channel=0, data=[4, 100]),
   midi.NoteOffEvent(tick=2178300, channel=0, data=[4, 0]),
   midi.NoteOnEvent(tick=2178400, channel=0, data=[36, 100]),
   midi.NoteOffEvent(tick=2178500, channel=0, data=[36, 0]),
   midi.NoteOnEvent(tick=2178600, channel=0, data=[14, 100]),
   midi.NoteOffEvent(tick=2178700, channel=0, data=[14, 0]),
   midi.NoteOnEvent(tick=2178800, channel=0, data=[5, 100]),
   midi.NoteOffEvent(tick=2178900, channel=0, data=[5, 0]),
   midi.NoteOnEvent(tick=2179000, channel=0, data=[36, 100]),
   midi.NoteOffEvent(tick=2179100, channel=0, data=[36, 0]),
   midi.NoteOnEvent(tick=2179200, channel=0, data=[0, 100]),
   midi.NoteOffEvent(tick=2179300, channel=0, data=[0, 0]),
   midi.NoteOnEvent(tick=2179400, channel=0, data=[36, 100]),
   midi.NoteOffEvent(tick=2179500, channel=0, data=[36, 0]),
   midi.NoteOnEvent(tick=2179600, channel=0, data=[56, 100]),
   midi.NoteOffEvent(tick=2179700, channel=0, data=[56, 0]),
   midi.NoteOnEvent(tick=2179800, channel=0, data=[36, 100]),
   midi.NoteOffEvent(tick=2179900, channel=0, data=[36, 0]),
   midi.NoteOnEvent(tick=2180000, channel=0, data=[36, 100]),
   midi.NoteOffEvent(tick=2180100, channel=0, data=[36, 0]),
   midi.NoteOnEvent(tick=2180200, channel=0, data=[36, 100]),
   midi.NoteOffEvent(tick=2180300, channel=0, data=[36, 0]),
   midi.NoteOnEvent(tick=2180400, channel=0, data=[36, 100]),
   midi.NoteOffEvent(tick=2180500, channel=0, data=[36, 0]),
   midi.NoteOnEvent(tick=2180600, channel=0, data=[21, 100]),
   midi.NoteOffEvent(tick=2180700, channel=0, data=[21, 0]),
   midi.NoteOnEvent(tick=2180800, channel=0, data=[0, 100]),
   midi.NoteOffEvent(tick=2180900, channel=0, data=[0, 0]),
   midi.NoteOnEvent(tick=2181000, channel=0, data=[17, 100]),
   midi.NoteOffEvent(tick=2181100, channel=0, data=[17, 0]),
   midi.NoteOnEvent(tick=2181200, channel=0, data=[8, 100]),
   midi.NoteOffEvent(tick=2181300, channel=0, data=[8, 0]),
   midi.NoteOnEvent(tick=2181400, channel=0, data=[0, 100]),
   midi.NoteOffEvent(tick=2181500, channel=0, data=[0, 0]),
   midi.NoteOnEvent(tick=2181600, channel=0, data=[1, 100]),
   midi.NoteOffEvent(tick=2181700, channel=0, data=[1, 0]),
   midi.NoteOnEvent(tick=2181800, channel=0, data=[11, 100]),
   midi.NoteOffEvent(tick=2181900, channel=0, data=[11, 0]),
   midi.NoteOnEvent(tick=2182000, channel=0, data=[4, 100]),
   midi.NoteOffEvent(tick=2182100, channel=0, data=[4, 0]),
   midi.NoteOnEvent(tick=2182200, channel=0, data=[37, 100]),
   midi.NoteOffEvent(tick=2182300, channel=0, data=[37, 0]),
   midi.NoteOnEvent(tick=2182400, channel=0, data=[36, 100]),
   midi.NoteOffEvent(tick=2182500, channel=0, data=[36, 0]),
   midi.NoteOnEvent(tick=2182600, channel=0, data=[56, 100]),
   midi.NoteOffEvent(tick=2182700, channel=0, data=[56, 0]),
   midi.NoteOnEvent(tick=2182800, channel=0, data=[56, 100]),
   midi.NoteOffEvent(tick=2182900, channel=0, data=[56, 0]),
   midi.NoteOnEvent(tick=2183000, channel=0, data=[56, 100]),
   midi.NoteOffEvent(tick=2183100, channel=0, data=[56, 0]),
   midi.NoteOnEvent(tick=2183200, channel=0, data=[36, 100]),
   midi.NoteOffEvent(tick=2183300, channel=0, data=[36, 0]),
   midi.NoteOnEvent(tick=2183400, channel=0, data=[36, 100]),
   midi.NoteOffEvent(tick=2183500, channel=0, data=[36, 0]),
   midi.NoteOnEvent(tick=2183600, channel=0, data=[36, 100]),
   midi.NoteOffEvent(tick=2183700, channel=0, data=[36, 0]),
   midi.NoteOnEvent(tick=2183800, channel=0, data=[36, 100]),
   midi.NoteOffEvent(tick=2183900, channel=0, data=[36, 0]),
   midi.NoteOnEvent(tick=2184000, channel=0, data=[22, 100]),
   midi.NoteOffEvent(tick=2184100, channel=0, data=[22, 0]),
   midi.NoteOnEvent(tick=2184200, channel=0, data=[7, 100]),
   midi.NoteOffEvent(tick=2184300, channel=0, data=[7, 0]),
   midi.NoteOnEvent(tick=2184400, channel=0, data=[4, 100]),
   midi.NoteOffEvent(tick=2184500, channel=0, data=[4, 0]),
   midi.NoteOnEvent(tick=2184600, channel=0, data=[13, 100]),
   midi.NoteOffEvent(tick=2184700, channel=0, data=[13, 0]),
   midi.NoteOnEvent(tick=2184800, channel=0, data=[36, 100]),
   midi.NoteOffEvent(tick=2184900, channel=0, data=[36, 0]),
   midi.NoteOnEvent(tick=2185000, channel=0, data=[0, 100]),
   midi.NoteOffEvent(tick=2185100, channel=0, data=[0, 0]),
   midi.NoteOnEvent(tick=2185200, channel=0, data=[36, 100]),
   midi.NoteOffEvent(tick=2185300, channel=0, data=[36, 0]),
   midi.NoteOnEvent(tick=2185400, channel=0, data=[21, 100]),
   midi.NoteOffEvent(tick=2185500, channel=0, data=[21, 0]),
   midi.NoteOnEvent(tick=2185600, channel=0, data=[0, 100]),
   midi.NoteOffEvent(tick=2185700, channel=0, data=[0, 0]),
   midi.NoteOnEvent(tick=2185800, channel=0, data=[17, 100]),
   midi.NoteOffEvent(tick=2185900, channel=0, data=[17, 0]),
   midi.NoteOnEvent(tick=2186000, channel=0, data=[8, 100]),
   midi.NoteOffEvent(tick=2186100, channel=0, data=[8, 0]),
   midi.NoteOnEvent(tick=2186200, channel=0, data=[0, 100]),
   midi.NoteOffEvent(tick=2186300, channel=0, data=[0, 0]),
   midi.NoteOnEvent(tick=2186400, channel=0, data=[1, 100]),
   midi.NoteOffEvent(tick=2186500, channel=0, data=[1, 0]),
   midi.NoteOnEvent(tick=2186600, channel=0, data=[11, 100]),
   midi.NoteOffEvent(tick=2186700, channel=0, data=[11, 0]),
   midi.NoteOnEvent(tick=2186800, channel=0, data=[4, 100]),
   midi.NoteOffEvent(tick=2186900, channel=0, data=[4, 0]),
   midi.NoteOnEvent(tick=2187000, channel=0, data=[36, 100]),
   midi.NoteOffEvent(tick=2187100, channel=0, data=[36, 0]),
   midi.NoteOnEvent(tick=2187200, channel=0, data=[2, 100]),
   midi.NoteOffEvent(tick=2187300, channel=0, data=[2, 0]),
   midi.NoteOnEvent(tick=2187400, channel=0, data=[14, 100]),
   midi.NoteOffEvent(tick=2187500, channel=0, data=[14, 0]),
   midi.NoteOnEvent(tick=2187600, channel=0, data=[13, 100]),
   midi.NoteOffEvent(tick=2187700, channel=0, data=[13, 0]),
   midi.NoteOnEvent(tick=2187800, channel=0, data=[19, 100]),
   midi.NoteOffEvent(tick=2187900, channel=0, data=[19, 0]),
   midi.NoteOnEvent(tick=2188000, channel=0, data=[0, 100]),
   midi.NoteOffEvent(tick=2188100, channel=0, data=[0, 0]),
   midi.NoteOnEvent(tick=2188200, channel=0, data=[8, 100]),
   midi.NoteOffEvent(tick=2188300, channel=0, data=[8, 0]),
   midi.NoteOnEvent(tick=2188400, channel=0, data=[13, 100]),
   midi.NoteOffEvent(tick=2188500, channel=0, data=[13, 0]),
   midi.NoteOnEvent(tick=2188600, channel=0, data=[18, 100]),
   midi.NoteOffEvent(tick=2188700, channel=0, data=[18, 0]),
   midi.NoteOnEvent(tick=2188800, channel=0, data=[36, 100]),
   midi.NoteOffEvent(tick=2188900, channel=0, data=[36, 0]),
   midi.NoteOnEvent(tick=2189000, channel=0, data=[0, 100]),
   midi.NoteOffEvent(tick=2189100, channel=0, data=[0, 0]),
   midi.NoteOnEvent(tick=2189200, channel=0, data=[36, 100]),
   midi.NoteOffEvent(tick=2189300, channel=0, data=[36, 0]),
   midi.NoteOnEvent(tick=2189400, channel=0, data=[18, 100]),
   midi.NoteOffEvent(tick=2189500, channel=0, data=[18, 0]),
   midi.NoteOnEvent(tick=2189600, channel=0, data=[8, 100]),
   midi.NoteOffEvent(tick=2189700, channel=0, data=[8, 0]),
   midi.NoteOnEvent(tick=2189800, channel=0, data=[13, 100]),
   midi.NoteOffEvent(tick=2189900, channel=0, data=[13, 0]),
   midi.NoteOnEvent(tick=2190000, channel=0, data=[6, 100]),
   midi.NoteOffEvent(tick=2190100, channel=0, data=[6, 0]),
   midi.NoteOnEvent(tick=2190200, channel=0, data=[11, 100]),
   midi.NoteOffEvent(tick=2190300, channel=0, data=[11, 0]),
   midi.NoteOnEvent(tick=2190400, channel=0, data=[4, 100]),
   midi.NoteOffEvent(tick=2190500, channel=0, data=[4, 0]),
   midi.NoteOnEvent(tick=2190600, channel=0, data=[36, 100]),
   midi.NoteOffEvent(tick=2190700, channel=0, data=[36, 0]),
   midi.NoteOnEvent(tick=2190800, channel=0, data=[13, 100]),
   midi.NoteOffEvent(tick=2190900, channel=0, data=[13, 0]),
   midi.NoteOnEvent(tick=2191000, channel=0, data=[20, 100]),
   midi.NoteOffEvent(tick=2191100, channel=0, data=[20, 0]),
   midi.NoteOnEvent(tick=2191200, channel=0, data=[12, 100]),
   midi.NoteOffEvent(tick=2191300, channel=0, data=[12, 0]),
   midi.NoteOnEvent(tick=2191400, channel=0, data=[4, 100]),
   midi.NoteOffEvent(tick=2191500, channel=0, data=[4, 0]),
   midi.NoteOnEvent(tick=2191600, channel=0, data=[17, 100]),
   midi.NoteOffEvent(tick=2191700, channel=0, data=[17, 0]),
   midi.NoteOnEvent(tick=2191800, channel=0, data=[8, 100]),
   midi.NoteOffEvent(tick=2191900, channel=0, data=[8, 0]),
   midi.NoteOnEvent(tick=2192000, channel=0, data=[2, 100]),
   midi.NoteOffEvent(tick=2192100, channel=0, data=[2, 0]),
   midi.NoteOnEvent(tick=2192200, channel=0, data=[36, 100]),
   midi.NoteOffEvent(tick=2192300, channel=0, data=[36, 0]),
   midi.NoteOnEvent(tick=2192400, channel=0, data=[21, 100]),
   midi.NoteOffEvent(tick=2192500, channel=0, data=[21, 0]),
   midi.NoteOnEvent(tick=2192600, channel=0, data=[0, 100]),
   midi.NoteOffEvent(tick=2192700, channel=0, data=[0, 0]),
   midi.NoteOnEvent(tick=2192800, channel=0, data=[11, 100]),
   midi.NoteOffEvent(tick=2192900, channel=0, data=[11, 0]),
   midi.NoteOnEvent(tick=2193000, channel=0, data=[20, 100]),
   midi.NoteOffEvent(tick=2193100, channel=0, data=[20, 0]),
   midi.NoteOnEvent(tick=2193200, channel=0, data=[4, 100]),
   midi.NoteOffEvent(tick=2193300, channel=0, data=[4, 0]),
   midi.NoteOnEvent(tick=2193400, channel=0, data=[38, 100]),
   midi.NoteOffEvent(tick=2193500, channel=0, data=[38, 0]),
   midi.NoteOnEvent(tick=2193600, channel=0, data=[36, 100]),
   midi.NoteOffEvent(tick=2193700, channel=0, data=[36, 0]),
   midi.NoteOnEvent(tick=2193800, channel=0, data=[19, 100]),
   midi.NoteOffEvent(tick=2193900, channel=0, data=[19, 0]),
   midi.NoteOnEvent(tick=2194000, channel=0, data=[7, 100]),
   midi.NoteOffEvent(tick=2194100, channel=0, data=[7, 0]),
   midi.NoteOnEvent(tick=2194200, channel=0, data=[0, 100]),
   midi.NoteOffEvent(tick=2194300, channel=0, data=[0, 0]),
   midi.NoteOnEvent(tick=2194400, channel=0, data=[19, 100]),
   midi.NoteOffEvent(tick=2194500, channel=0, data=[19, 0]),
   midi.NoteOnEvent(tick=2194600, channel=0, data=[36, 100]),
   midi.NoteOffEvent(tick=2194700, channel=0, data=[36, 0]),
   midi.NoteOnEvent(tick=2194800, channel=0, data=[21, 100]),
   midi.NoteOffEvent(tick=2194900, channel=0, data=[21, 0]),
   midi.NoteOnEvent(tick=2195000, channel=0, data=[0, 100]),
   midi.NoteOffEvent(tick=2195100, channel=0, data=[0, 0]),
   midi.NoteOnEvent(tick=2195200, channel=0, data=[11, 100]),
   midi.NoteOffEvent(tick=2195300, channel=0, data=[11, 0]),
   midi.NoteOnEvent(tick=2195400, channel=0, data=[20, 100]),
   midi.NoteOffEvent(tick=2195500, channel=0, data=[20, 0]),
   midi.NoteOnEvent(tick=2195600, channel=0, data=[4, 100]),
   midi.NoteOffEvent(tick=2195700, channel=0, data=[4, 0]),
   midi.NoteOnEvent(tick=2195800, channel=0, data=[36, 100]),
   midi.NoteOffEvent(tick=2195900, channel=0, data=[36, 0]),
   midi.NoteOnEvent(tick=2196000, channel=0, data=[8, 100]),
   midi.NoteOffEvent(tick=2196100, channel=0, data=[8, 0]),
   midi.NoteOnEvent(tick=2196200, channel=0, data=[18, 100]),
   midi.NoteOffEvent(tick=2196300, channel=0, data=[18, 0]),
   midi.NoteOnEvent(tick=2196400, channel=0, data=[36, 100]),
   midi.NoteOffEvent(tick=2196500, channel=0, data=[36, 0]),
   midi.NoteOnEvent(tick=2196600, channel=0, data=[12, 100]),
   midi.NoteOffEvent(tick=2196700, channel=0, data=[12, 0]),
   midi.NoteOnEvent(tick=2196800, channel=0, data=[20, 100]),
   midi.NoteOffEvent(tick=2196900, channel=0, data=[20, 0]),
   midi.NoteOnEvent(tick=2197000, channel=0, data=[11, 100]),
   midi.NoteOffEvent(tick=2197100, channel=0, data=[11, 0]),
   midi.NoteOnEvent(tick=2197200, channel=0, data=[19, 100]),
   midi.NoteOffEvent(tick=2197300, channel=0, data=[19, 0]),
   midi.NoteOnEvent(tick=2197400, channel=0, data=[8, 100]),
   midi.NoteOffEvent(tick=2197500, channel=0, data=[8, 0]),
   midi.NoteOnEvent(tick=2197600, channel=0, data=[15, 100]),
   midi.NoteOffEvent(tick=2197700, channel=0, data=[15, 0]),
   midi.NoteOnEvent(tick=2197800, channel=0, data=[11, 100]),
   midi.NoteOffEvent(tick=2197900, channel=0, data=[11, 0]),
   midi.NoteOnEvent(tick=2198000, channel=0, data=[8, 100]),
   midi.NoteOffEvent(tick=2198100, channel=0, data=[8, 0]),
   midi.NoteOnEvent(tick=2198200, channel=0, data=[4, 100]),
   midi.NoteOffEvent(tick=2198300, channel=0, data=[4, 0]),
   midi.NoteOnEvent(tick=2198400, channel=0, data=[3, 100]),
   midi.NoteOffEvent(tick=2198500, channel=0, data=[3, 0]),
   midi.NoteOnEvent(tick=2198600, channel=0, data=[36, 100]),
   midi.NoteOffEvent(tick=2198700, channel=0, data=[36, 0]),
   midi.NoteOnEvent(tick=2198800, channel=0, data=[56, 100]),
   midi.NoteOffEvent(tick=2198900, channel=0, data=[56, 0]),
   midi.NoteOnEvent(tick=2199000, channel=0, data=[36, 100]),
   midi.NoteOffEvent(tick=2199100, channel=0, data=[36, 0]),
   midi.NoteOnEvent(tick=2199200, channel=0, data=[36, 100]),
   midi.NoteOffEvent(tick=2199300, channel=0, data=[36, 0]),
   midi.NoteOnEvent(tick=2199400, channel=0, data=[36, 100]),
   midi.NoteOffEvent(tick=2199500, channel=0, data=[36, 0]),
   midi.NoteOnEvent(tick=2199600, channel=0, data=[36, 100]),
   midi.NoteOffEvent(tick=2199700, channel=0, data=[36, 0]),
   midi.NoteOnEvent(tick=2199800, channel=0, data=[1, 100]),
   midi.NoteOffEvent(tick=2199900, channel=0, data=[1, 0]),
   midi.NoteOnEvent(tick=2200000, channel=0, data=[24, 100]),
   midi.NoteOffEvent(tick=2200100, channel=0, data=[24, 0]),
   midi.NoteOnEvent(tick=2200200, channel=0, data=[36, 100]),
   midi.NoteOffEvent(tick=2200300, channel=0, data=[36, 0]),
   midi.NoteOnEvent(tick=2200400, channel=0, data=[19, 100]),
   midi.NoteOffEvent(tick=2200500, channel=0, data=[19, 0]),
   midi.NoteOnEvent(tick=2200600, channel=0, data=[7, 100]),
   midi.NoteOffEvent(tick=2200700, channel=0, data=[7, 0]),
   midi.NoteOnEvent(tick=2200800, channel=0, data=[4, 100]),
   midi.NoteOffEvent(tick=2200900, channel=0, data=[4, 0]),
   midi.NoteOnEvent(tick=2201000, channel=0, data=[36, 100]),
   midi.NoteOffEvent(tick=2201100, channel=0, data=[36, 0]),
   midi.NoteOnEvent(tick=2201200, channel=0, data=[21, 100]),
   midi.NoteOffEvent(tick=2201300, channel=0, data=[21, 0]),
   midi.NoteOnEvent(tick=2201400, channel=0, data=[0, 100]),
   midi.NoteOffEvent(tick=2201500, channel=0, data=[0, 0]),
   midi.NoteOnEvent(tick=2201600, channel=0, data=[11, 100]),
   midi.NoteOffEvent(tick=2201700, channel=0, data=[11, 0]),
   midi.NoteOnEvent(tick=2201800, channel=0, data=[20, 100]),
   midi.NoteOffEvent(tick=2201900, channel=0, data=[20, 0]),
   midi.NoteOnEvent(tick=2202000, channel=0, data=[4, 100]),
   midi.NoteOffEvent(tick=2202100, channel=0, data=[4, 0]),
   midi.NoteOnEvent(tick=2202200, channel=0, data=[36, 100]),
   midi.NoteOffEvent(tick=2202300, channel=0, data=[36, 0]),
   midi.NoteOnEvent(tick=2202400, channel=0, data=[14, 100]),
   midi.NoteOffEvent(tick=2202500, channel=0, data=[14, 0]),
   midi.NoteOnEvent(tick=2202600, channel=0, data=[13, 100]),
   midi.NoteOffEvent(tick=2202700, channel=0, data=[13, 0]),
   midi.NoteOnEvent(tick=2202800, channel=0, data=[36, 100]),
   midi.NoteOffEvent(tick=2202900, channel=0, data=[36, 0]),
   midi.NoteOnEvent(tick=2203000, channel=0, data=[19, 100]),
   midi.NoteOffEvent(tick=2203100, channel=0, data=[19, 0]),
   midi.NoteOnEvent(tick=2203200, channel=0, data=[7, 100]),
   midi.NoteOffEvent(tick=2203300, channel=0, data=[7, 0]),
   midi.NoteOnEvent(tick=2203400, channel=0, data=[4, 100]),
   midi.NoteOffEvent(tick=2203500, channel=0, data=[4, 0]),
   midi.NoteOnEvent(tick=2203600, channel=0, data=[36, 100]),
   midi.NoteOffEvent(tick=2203700, channel=0, data=[36, 0]),
   midi.NoteOnEvent(tick=2203800, channel=0, data=[17, 100]),
   midi.NoteOffEvent(tick=2203900, channel=0, data=[17, 0]),
   midi.NoteOnEvent(tick=2204000, channel=0, data=[8, 100]),
   midi.NoteOffEvent(tick=2204100, channel=0, data=[8, 0]),
   midi.NoteOnEvent(tick=2204200, channel=0, data=[6, 100]),
   midi.NoteOffEvent(tick=2204300, channel=0, data=[6, 0]),
   midi.NoteOnEvent(tick=2204400, channel=0, data=[7, 100]),
   midi.NoteOffEvent(tick=2204500, channel=0, data=[7, 0]),
   midi.NoteOnEvent(tick=2204600, channel=0, data=[19, 100]),
   midi.NoteOffEvent(tick=2204700, channel=0, data=[19, 0]),
   midi.NoteOnEvent(tick=2204800, channel=0, data=[36, 100]),
   midi.NoteOffEvent(tick=2204900, channel=0, data=[36, 0]),
   midi.NoteOnEvent(tick=2205000, channel=0, data=[18, 100]),
   midi.NoteOffEvent(tick=2205100, channel=0, data=[18, 0]),
   midi.NoteOnEvent(tick=2205200, channel=0, data=[8, 100]),
   midi.NoteOffEvent(tick=2205300, channel=0, data=[8, 0]),
   midi.NoteOnEvent(tick=2205400, channel=0, data=[3, 100]),
   midi.NoteOffEvent(tick=2205500, channel=0, data=[3, 0]),
   midi.NoteOnEvent(tick=2205600, channel=0, data=[4, 100]),
   midi.NoteOffEvent(tick=2205700, channel=0, data=[4, 0]),
   midi.NoteOnEvent(tick=2205800, channel=0, data=[36, 100]),
   midi.NoteOffEvent(tick=2205900, channel=0, data=[36, 0]),
   midi.NoteOnEvent(tick=2206000, channel=0, data=[14, 100]),
   midi.NoteOffEvent(tick=2206100, channel=0, data=[14, 0]),
   midi.NoteOnEvent(tick=2206200, channel=0, data=[5, 100]),
   midi.NoteOffEvent(tick=2206300, channel=0, data=[5, 0]),
   midi.NoteOnEvent(tick=2206400, channel=0, data=[36, 100]),
   midi.NoteOffEvent(tick=2206500, channel=0, data=[36, 0]),
   midi.NoteOnEvent(tick=2206600, channel=0, data=[19, 100]),
   midi.NoteOffEvent(tick=2206700, channel=0, data=[19, 0]),
   midi.NoteOnEvent(tick=2206800, channel=0, data=[7, 100]),
   midi.NoteOffEvent(tick=2206900, channel=0, data=[7, 0]),
   midi.NoteOnEvent(tick=2207000, channel=0, data=[4, 100]),
   midi.NoteOffEvent(tick=2207100, channel=0, data=[4, 0]),
   midi.NoteOnEvent(tick=2207200, channel=0, data=[36, 100]),
   midi.NoteOffEvent(tick=2207300, channel=0, data=[36, 0]),
   midi.NoteOnEvent(tick=2207400, channel=0, data=[14, 100]),
   midi.NoteOffEvent(tick=2207500, channel=0, data=[14, 0]),
   midi.NoteOnEvent(tick=2207600, channel=0, data=[15, 100]),
   midi.NoteOffEvent(tick=2207700, channel=0, data=[15, 0]),
   midi.NoteOnEvent(tick=2207800, channel=0, data=[4, 100]),
   midi.NoteOffEvent(tick=2207900, channel=0, data=[4, 0]),
   midi.NoteOnEvent(tick=2208000, channel=0, data=[17, 100]),
   midi.NoteOffEvent(tick=2208100, channel=0, data=[17, 0]),
   midi.NoteOnEvent(tick=2208200, channel=0, data=[0, 100]),
   midi.NoteOffEvent(tick=2208300, channel=0, data=[0, 0]),
   midi.NoteOnEvent(tick=2208400, channel=0, data=[19, 100]),
   midi.NoteOffEvent(tick=2208500, channel=0, data=[19, 0]),
   midi.NoteOnEvent(tick=2208600, channel=0, data=[14, 100]),
   midi.NoteOffEvent(tick=2208700, channel=0, data=[14, 0]),
   midi.NoteOnEvent(tick=2208800, channel=0, data=[17, 100]),
   midi.NoteOffEvent(tick=2208900, channel=0, data=[17, 0]),
   midi.NoteOnEvent(tick=2209000, channel=0, data=[37, 100]),
   midi.NoteOffEvent(tick=2209100, channel=0, data=[37, 0]),
   midi.NoteOnEvent(tick=2209200, channel=0, data=[36, 100]),
   midi.NoteOffEvent(tick=2209300, channel=0, data=[36, 0]),
   midi.NoteOnEvent(tick=2209400, channel=0, data=[5, 100]),
   midi.NoteOffEvent(tick=2209500, channel=0, data=[5, 0]),
   midi.NoteOnEvent(tick=2209600, channel=0, data=[14, 100]),
   midi.NoteOffEvent(tick=2209700, channel=0, data=[14, 0]),
   midi.NoteOnEvent(tick=2209800, channel=0, data=[17, 100]),
   midi.NoteOffEvent(tick=2209900, channel=0, data=[17, 0]),
   midi.NoteOnEvent(tick=2210000, channel=0, data=[36, 100]),
   midi.NoteOffEvent(tick=2210100, channel=0, data=[36, 0]),
   midi.NoteOnEvent(tick=2210200, channel=0, data=[4, 100]),
   midi.NoteOffEvent(tick=2210300, channel=0, data=[4, 0]),
   midi.NoteOnEvent(tick=2210400, channel=0, data=[23, 100]),
   midi.NoteOffEvent(tick=2210500, channel=0, data=[23, 0]),
   midi.NoteOnEvent(tick=2210600, channel=0, data=[0, 100]),
   midi.NoteOffEvent(tick=2210700, channel=0, data=[0, 0]),
   midi.NoteOnEvent(tick=2210800, channel=0, data=[12, 100]),
   midi.NoteOffEvent(tick=2210900, channel=0, data=[12, 0]),
   midi.NoteOnEvent(tick=2211000, channel=0, data=[15, 100]),
   midi.NoteOffEvent(tick=2211100, channel=0, data=[15, 0]),
   midi.NoteOnEvent(tick=2211200, channel=0, data=[11, 100]),
   midi.NoteOffEvent(tick=2211300, channel=0, data=[11, 0]),
   midi.NoteOnEvent(tick=2211400, channel=0, data=[4, 100]),
   midi.NoteOffEvent(tick=2211500, channel=0, data=[4, 0]),
   midi.NoteOnEvent(tick=2211600, channel=0, data=[38, 100]),
   midi.NoteOffEvent(tick=2211700, channel=0, data=[38, 0]),
   midi.NoteOnEvent(tick=2211800, channel=0, data=[36, 100]),
   midi.NoteOffEvent(tick=2211900, channel=0, data=[36, 0]),
   midi.NoteOnEvent(tick=2212000, channel=0, data=[19, 100]),
   midi.NoteOffEvent(tick=2212100, channel=0, data=[19, 0]),
   midi.NoteOnEvent(tick=2212200, channel=0, data=[7, 100]),
   midi.NoteOffEvent(tick=2212300, channel=0, data=[7, 0]),
   midi.NoteOnEvent(tick=2212400, channel=0, data=[4, 100]),
   midi.NoteOffEvent(tick=2212500, channel=0, data=[4, 0]),
   midi.NoteOnEvent(tick=2212600, channel=0, data=[36, 100]),
   midi.NoteOffEvent(tick=2212700, channel=0, data=[36, 0]),
   midi.NoteOnEvent(tick=2212800, channel=0, data=[5, 100]),
   midi.NoteOffEvent(tick=2212900, channel=0, data=[5, 0]),
   midi.NoteOnEvent(tick=2213000, channel=0, data=[14, 100]),
   midi.NoteOffEvent(tick=2213100, channel=0, data=[14, 0]),
   midi.NoteOnEvent(tick=2213200, channel=0, data=[11, 100]),
   midi.NoteOffEvent(tick=2213300, channel=0, data=[11, 0]),
   midi.NoteOnEvent(tick=2213400, channel=0, data=[11, 100]),
   midi.NoteOffEvent(tick=2213500, channel=0, data=[11, 0]),
   midi.NoteOnEvent(tick=2213600, channel=0, data=[14, 100]),
   midi.NoteOffEvent(tick=2213700, channel=0, data=[14, 0]),
   midi.NoteOnEvent(tick=2213800, channel=0, data=[22, 100]),
   midi.NoteOffEvent(tick=2213900, channel=0, data=[22, 0]),
   midi.NoteOnEvent(tick=2214000, channel=0, data=[8, 100]),
   midi.NoteOffEvent(tick=2214100, channel=0, data=[8, 0]),
   midi.NoteOnEvent(tick=2214200, channel=0, data=[13, 100]),
   midi.NoteOffEvent(tick=2214300, channel=0, data=[13, 0]),
   midi.NoteOnEvent(tick=2214400, channel=0, data=[6, 100]),
   midi.NoteOffEvent(tick=2214500, channel=0, data=[6, 0]),
   midi.NoteOnEvent(tick=2214600, channel=0, data=[36, 100]),
   midi.NoteOffEvent(tick=2214700, channel=0, data=[36, 0]),
   midi.NoteOnEvent(tick=2214800, channel=0, data=[56, 100]),
   midi.NoteOffEvent(tick=2214900, channel=0, data=[56, 0]),
   midi.NoteOnEvent(tick=2215000, channel=0, data=[36, 100]),
   midi.NoteOffEvent(tick=2215100, channel=0, data=[36, 0]),
   midi.NoteOnEvent(tick=2215200, channel=0, data=[36, 100]),
   midi.NoteOffEvent(tick=2215300, channel=0, data=[36, 0]),
   midi.NoteOnEvent(tick=2215400, channel=0, data=[36, 100]),
   midi.NoteOffEvent(tick=2215500, channel=0, data=[36, 0]),
   midi.NoteOnEvent(tick=2215600, channel=0, data=[36, 100]),
   midi.NoteOffEvent(tick=2215700, channel=0, data=[36, 0]),
   midi.NoteOnEvent(tick=2215800, channel=0, data=[4, 100]),
   midi.NoteOffEvent(tick=2215900, channel=0, data=[4, 0]),
   midi.NoteOnEvent(tick=2216000, channel=0, data=[23, 100]),
   midi.NoteOffEvent(tick=2216100, channel=0, data=[23, 0]),
   midi.NoteOnEvent(tick=2216200, channel=0, data=[0, 100]),
   midi.NoteOffEvent(tick=2216300, channel=0, data=[0, 0]),
   midi.NoteOnEvent(tick=2216400, channel=0, data=[12, 100]),
   midi.NoteOffEvent(tick=2216500, channel=0, data=[12, 0]),
   midi.NoteOnEvent(tick=2216600, channel=0, data=[15, 100]),
   midi.NoteOffEvent(tick=2216700, channel=0, data=[15, 0]),
   midi.NoteOnEvent(tick=2216800, channel=0, data=[11, 100]),
   midi.NoteOffEvent(tick=2216900, channel=0, data=[11, 0]),
   midi.NoteOnEvent(tick=2217000, channel=0, data=[4, 100]),
   midi.NoteOffEvent(tick=2217100, channel=0, data=[4, 0]),
   midi.NoteOnEvent(tick=2217200, channel=0, data=[36, 100]),
   midi.NoteOffEvent(tick=2217300, channel=0, data=[36, 0]),
   midi.NoteOnEvent(tick=2217400, channel=0, data=[18, 100]),
   midi.NoteOffEvent(tick=2217500, channel=0, data=[18, 0]),
   midi.NoteOnEvent(tick=2217600, channel=0, data=[7, 100]),
   midi.NoteOffEvent(tick=2217700, channel=0, data=[7, 0]),
   midi.NoteOnEvent(tick=2217800, channel=0, data=[14, 100]),
   midi.NoteOffEvent(tick=2217900, channel=0, data=[14, 0]),
   midi.NoteOnEvent(tick=2218000, channel=0, data=[22, 100]),
   midi.NoteOffEvent(tick=2218100, channel=0, data=[22, 0]),
   midi.NoteOnEvent(tick=2218200, channel=0, data=[18, 100]),
   midi.NoteOffEvent(tick=2218300, channel=0, data=[18, 0]),
   midi.NoteOnEvent(tick=2218400, channel=0, data=[36, 100]),
   midi.NoteOffEvent(tick=2218500, channel=0, data=[36, 0]),
   midi.NoteOnEvent(tick=2218600, channel=0, data=[7, 100]),
   midi.NoteOffEvent(tick=2218700, channel=0, data=[7, 0]),
   midi.NoteOnEvent(tick=2218800, channel=0, data=[14, 100]),
   midi.NoteOffEvent(tick=2218900, channel=0, data=[14, 0]),
   midi.NoteOnEvent(tick=2219000, channel=0, data=[22, 100]),
   midi.NoteOffEvent(tick=2219100, channel=0, data=[22, 0]),
   midi.NoteOnEvent(tick=2219200, channel=0, data=[36, 100]),
   midi.NoteOffEvent(tick=2219300, channel=0, data=[36, 0]),
   midi.NoteOnEvent(tick=2219400, channel=0, data=[19, 100]),
   midi.NoteOffEvent(tick=2219500, channel=0, data=[19, 0]),
   midi.NoteOnEvent(tick=2219600, channel=0, data=[14, 100]),
   midi.NoteOffEvent(tick=2219700, channel=0, data=[14, 0]),
   midi.NoteOnEvent(tick=2219800, channel=0, data=[36, 100]),
   midi.NoteOffEvent(tick=2219900, channel=0, data=[36, 0]),
   midi.NoteOnEvent(tick=2220000, channel=0, data=[20, 100]),
   midi.NoteOffEvent(tick=2220100, channel=0, data=[20, 0]),
   midi.NoteOnEvent(tick=2220200, channel=0, data=[18, 100]),
   midi.NoteOffEvent(tick=2220300, channel=0, data=[18, 0]),
   midi.NoteOnEvent(tick=2220400, channel=0, data=[4, 100]),
   midi.NoteOffEvent(tick=2220500, channel=0, data=[4, 0]),
   midi.NoteOnEvent(tick=2220600, channel=0, data=[36, 100]),
   midi.NoteOffEvent(tick=2220700, channel=0, data=[36, 0]),
   midi.NoteOnEvent(tick=2220800, channel=0, data=[19, 100]),
   midi.NoteOffEvent(tick=2220900, channel=0, data=[19, 0]),
   midi.NoteOnEvent(tick=2221000, channel=0, data=[7, 100]),
   midi.NoteOffEvent(tick=2221100, channel=0, data=[7, 0]),
   midi.NoteOnEvent(tick=2221200, channel=0, data=[4, 100]),
   midi.NoteOffEvent(tick=2221300, channel=0, data=[4, 0]),
   midi.NoteOnEvent(tick=2221400, channel=0, data=[36, 100]),
   midi.NoteOffEvent(tick=2221500, channel=0, data=[36, 0]),
   midi.NoteOnEvent(tick=2221600, channel=0, data=[48, 100]),
   midi.NoteOffEvent(tick=2221700, channel=0, data=[48, 0]),
   midi.NoteOnEvent(tick=2221800, channel=0, data=[69, 100]),
   midi.NoteOffEvent(tick=2221900, channel=0, data=[69, 0]),
   midi.NoteOnEvent(tick=2222000, channel=0, data=[36, 100]),
   midi.NoteOffEvent(tick=2222100, channel=0, data=[36, 0]),
   midi.NoteOnEvent(tick=2222200, channel=0, data=[14, 100]),
   midi.NoteOffEvent(tick=2222300, channel=0, data=[14, 0]),
   midi.NoteOnEvent(tick=2222400, channel=0, data=[15, 100]),
   midi.NoteOffEvent(tick=2222500, channel=0, data=[15, 0]),
   midi.NoteOnEvent(tick=2222600, channel=0, data=[4, 100]),
   midi.NoteOffEvent(tick=2222700, channel=0, data=[4, 0]),
   midi.NoteOnEvent(tick=2222800, channel=0, data=[17, 100]),
   midi.NoteOffEvent(tick=2222900, channel=0, data=[17, 0]),
   midi.NoteOnEvent(tick=2223000, channel=0, data=[0, 100]),
   midi.NoteOffEvent(tick=2223100, channel=0, data=[0, 0]),
   midi.NoteOnEvent(tick=2223200, channel=0, data=[19, 100]),
   midi.NoteOffEvent(tick=2223300, channel=0, data=[19, 0]),
   midi.NoteOnEvent(tick=2223400, channel=0, data=[14, 100]),
   midi.NoteOffEvent(tick=2223500, channel=0, data=[14, 0]),
   midi.NoteOnEvent(tick=2223600, channel=0, data=[17, 100]),
   midi.NoteOffEvent(tick=2223700, channel=0, data=[17, 0]),
   midi.NoteOnEvent(tick=2223800, channel=0, data=[36, 100]),
   midi.NoteOffEvent(tick=2223900, channel=0, data=[36, 0]),
   midi.NoteOnEvent(tick=2224000, channel=0, data=[19, 100]),
   midi.NoteOffEvent(tick=2224100, channel=0, data=[19, 0]),
   midi.NoteOnEvent(tick=2224200, channel=0, data=[14, 100]),
   midi.NoteOffEvent(tick=2224300, channel=0, data=[14, 0]),
   midi.NoteOnEvent(tick=2224400, channel=0, data=[36, 100]),
   midi.NoteOffEvent(tick=2224500, channel=0, data=[36, 0]),
   midi.NoteOnEvent(tick=2224600, channel=0, data=[12, 100]),
   midi.NoteOffEvent(tick=2224700, channel=0, data=[12, 0]),
   midi.NoteOnEvent(tick=2224800, channel=0, data=[20, 100]),
   midi.NoteOffEvent(tick=2224900, channel=0, data=[20, 0]),
   midi.NoteOnEvent(tick=2225000, channel=0, data=[11, 100]),
   midi.NoteOffEvent(tick=2225100, channel=0, data=[11, 0]),
   midi.NoteOnEvent(tick=2225200, channel=0, data=[19, 100]),
   midi.NoteOffEvent(tick=2225300, channel=0, data=[19, 0]),
   midi.NoteOnEvent(tick=2225400, channel=0, data=[8, 100]),
   midi.NoteOffEvent(tick=2225500, channel=0, data=[8, 0]),
   midi.NoteOnEvent(tick=2225600, channel=0, data=[15, 100]),
   midi.NoteOffEvent(tick=2225700, channel=0, data=[15, 0]),
   midi.NoteOnEvent(tick=2225800, channel=0, data=[11, 100]),
   midi.NoteOffEvent(tick=2225900, channel=0, data=[11, 0]),
   midi.NoteOnEvent(tick=2226000, channel=0, data=[24, 100]),
   midi.NoteOffEvent(tick=2226100, channel=0, data=[24, 0]),
   midi.NoteOnEvent(tick=2226200, channel=0, data=[36, 100]),
   midi.NoteOffEvent(tick=2226300, channel=0, data=[36, 0]),
   midi.NoteOnEvent(tick=2226400, channel=0, data=[19, 100]),
   midi.NoteOffEvent(tick=2226500, channel=0, data=[19, 0]),
   midi.NoteOnEvent(tick=2226600, channel=0, data=[7, 100]),
   midi.NoteOffEvent(tick=2226700, channel=0, data=[7, 0]),
   midi.NoteOnEvent(tick=2226800, channel=0, data=[4, 100]),
   midi.NoteOffEvent(tick=2226900, channel=0, data=[4, 0]),
   midi.NoteOnEvent(tick=2227000, channel=0, data=[36, 100]),
   midi.NoteOffEvent(tick=2227100, channel=0, data=[36, 0]),
   midi.NoteOnEvent(tick=2227200, channel=0, data=[21, 100]),
   midi.NoteOffEvent(tick=2227300, channel=0, data=[21, 0]),
   midi.NoteOnEvent(tick=2227400, channel=0, data=[0, 100]),
   midi.NoteOffEvent(tick=2227500, channel=0, data=[0, 0]),
   midi.NoteOnEvent(tick=2227600, channel=0, data=[11, 100]),
   midi.NoteOffEvent(tick=2227700, channel=0, data=[11, 0]),
   midi.NoteOnEvent(tick=2227800, channel=0, data=[20, 100]),
   midi.NoteOffEvent(tick=2227900, channel=0, data=[20, 0]),
   midi.NoteOnEvent(tick=2228000, channel=0, data=[4, 100]),
   midi.NoteOffEvent(tick=2228100, channel=0, data=[4, 0]),
   midi.NoteOnEvent(tick=2228200, channel=0, data=[36, 100]),
   midi.NoteOffEvent(tick=2228300, channel=0, data=[36, 0]),
   midi.NoteOnEvent(tick=2228400, channel=0, data=[14, 100]),
   midi.NoteOffEvent(tick=2228500, channel=0, data=[14, 0]),
   midi.NoteOnEvent(tick=2228600, channel=0, data=[5, 100]),
   midi.NoteOffEvent(tick=2228700, channel=0, data=[5, 0]),
   midi.NoteOnEvent(tick=2228800, channel=0, data=[36, 100]),
   midi.NoteOffEvent(tick=2228900, channel=0, data=[36, 0]),
   midi.NoteOnEvent(tick=2229000, channel=0, data=[0, 100]),
   midi.NoteOffEvent(tick=2229100, channel=0, data=[0, 0]),
   midi.NoteOnEvent(tick=2229200, channel=0, data=[36, 100]),
   midi.NoteOffEvent(tick=2229300, channel=0, data=[36, 0]),
   midi.NoteOnEvent(tick=2229400, channel=0, data=[56, 100]),
   midi.NoteOffEvent(tick=2229500, channel=0, data=[56, 0]),
   midi.NoteOnEvent(tick=2229600, channel=0, data=[36, 100]),
   midi.NoteOffEvent(tick=2229700, channel=0, data=[36, 0]),
   midi.NoteOnEvent(tick=2229800, channel=0, data=[36, 100]),
   midi.NoteOffEvent(tick=2229900, channel=0, data=[36, 0]),
   midi.NoteOnEvent(tick=2230000, channel=0, data=[36, 100]),
   midi.NoteOffEvent(tick=2230100, channel=0, data=[36, 0]),
   midi.NoteOnEvent(tick=2230200, channel=0, data=[36, 100]),
   midi.NoteOffEvent(tick=2230300, channel=0, data=[36, 0]),
   midi.NoteOnEvent(tick=2230400, channel=0, data=[21, 100]),
   midi.NoteOffEvent(tick=2230500, channel=0, data=[21, 0]),
   midi.NoteOnEvent(tick=2230600, channel=0, data=[0, 100]),
   midi.NoteOffEvent(tick=2230700, channel=0, data=[0, 0]),
   midi.NoteOnEvent(tick=2230800, channel=0, data=[17, 100]),
   midi.NoteOffEvent(tick=2230900, channel=0, data=[17, 0]),
   midi.NoteOnEvent(tick=2231000, channel=0, data=[8, 100]),
   midi.NoteOffEvent(tick=2231100, channel=0, data=[8, 0]),
   midi.NoteOnEvent(tick=2231200, channel=0, data=[0, 100]),
   midi.NoteOffEvent(tick=2231300, channel=0, data=[0, 0]),
   midi.NoteOnEvent(tick=2231400, channel=0, data=[1, 100]),
   midi.NoteOffEvent(tick=2231500, channel=0, data=[1, 0]),
   midi.NoteOnEvent(tick=2231600, channel=0, data=[11, 100]),
   midi.NoteOffEvent(tick=2231700, channel=0, data=[11, 0]),
   midi.NoteOnEvent(tick=2231800, channel=0, data=[4, 100]),
   midi.NoteOffEvent(tick=2231900, channel=0, data=[4, 0]),
   midi.NoteOnEvent(tick=2232000, channel=0, data=[46, 100]),
   midi.NoteOffEvent(tick=2232100, channel=0, data=[46, 0]),
   midi.NoteOnEvent(tick=2232200, channel=0, data=[56, 100]),
   midi.NoteOffEvent(tick=2232300, channel=0, data=[56, 0]),
   midi.NoteOnEvent(tick=2232400, channel=0, data=[56, 100]),
   midi.NoteOffEvent(tick=2232500, channel=0, data=[56, 0]),
   midi.NoteOnEvent(tick=2232600, channel=0, data=[56, 100]),
   midi.NoteOffEvent(tick=2232700, channel=0, data=[56, 0]),
   midi.NoteOnEvent(tick=2232800, channel=0, data=[36, 100]),
   midi.NoteOffEvent(tick=2232900, channel=0, data=[36, 0]),
   midi.NoteOnEvent(tick=2233000, channel=0, data=[36, 100]),
   midi.NoteOffEvent(tick=2233100, channel=0, data=[36, 0]),
   midi.NoteOnEvent(tick=2233200, channel=0, data=[36, 100]),
   midi.NoteOffEvent(tick=2233300, channel=0, data=[36, 0]),
   midi.NoteOnEvent(tick=2233400, channel=0, data=[36, 100]),
   midi.NoteOffEvent(tick=2233500, channel=0, data=[36, 0]),
   midi.NoteOnEvent(tick=2233600, channel=0, data=[36, 100]),
   midi.NoteOffEvent(tick=2233700, channel=0, data=[36, 0]),
   midi.NoteOnEvent(tick=2233800, channel=0, data=[36, 100]),
   midi.NoteOffEvent(tick=2233900, channel=0, data=[36, 0]),
   midi.NoteOnEvent(tick=2234000, channel=0, data=[36, 100]),
   midi.NoteOffEvent(tick=2234100, channel=0, data=[36, 0]),
   midi.NoteOnEvent(tick=2234200, channel=0, data=[36, 100]),
   midi.NoteOffEvent(tick=2234300, channel=0, data=[36, 0]),
   midi.NoteOnEvent(tick=2234400, channel=0, data=[2, 100]),
   midi.NoteOffEvent(tick=2234500, channel=0, data=[2, 0]),
   midi.NoteOnEvent(tick=2234600, channel=0, data=[46, 100]),
   midi.NoteOffEvent(tick=2234700, channel=0, data=[46, 0]),
   midi.NoteOnEvent(tick=2234800, channel=0, data=[78, 100]),
   midi.NoteOffEvent(tick=2234900, channel=0, data=[78, 0]),
   midi.NoteOnEvent(tick=2235000, channel=0, data=[15, 100]),
   midi.NoteOffEvent(tick=2235100, channel=0, data=[15, 0]),
   midi.NoteOnEvent(tick=2235200, channel=0, data=[18, 100]),
   midi.NoteOffEvent(tick=2235300, channel=0, data=[18, 0]),
   midi.NoteOnEvent(tick=2235400, channel=0, data=[73, 100]),
   midi.NoteOffEvent(tick=2235500, channel=0, data=[73, 0]),
   midi.NoteOnEvent(tick=2235600, channel=0, data=[36, 100]),
   midi.NoteOffEvent(tick=2235700, channel=0, data=[36, 0]),
   midi.NoteOnEvent(tick=2235800, channel=0, data=[74, 100]),
   midi.NoteOffEvent(tick=2235900, channel=0, data=[74, 0]),
   midi.NoteOnEvent(tick=2236000, channel=0, data=[0, 100]),
   midi.NoteOffEvent(tick=2236100, channel=0, data=[0, 0]),
   midi.NoteOnEvent(tick=2236200, channel=0, data=[36, 100]),
   midi.NoteOffEvent(tick=2236300, channel=0, data=[36, 0]),
   midi.NoteOnEvent(tick=2236400, channel=0, data=[69, 100]),
   midi.NoteOffEvent(tick=2236500, channel=0, data=[69, 0]),
   midi.NoteOnEvent(tick=2236600, channel=0, data=[36, 100]),
   midi.NoteOffEvent(tick=2236700, channel=0, data=[36, 0]),
   midi.NoteOnEvent(tick=2236800, channel=0, data=[29, 100]),
   midi.NoteOffEvent(tick=2236900, channel=0, data=[29, 0]),
   midi.NoteOnEvent(tick=2237000, channel=0, data=[56, 100]),
   midi.NoteOffEvent(tick=2237100, channel=0, data=[56, 0]),
   midi.NoteOnEvent(tick=2237200, channel=0, data=[36, 100]),
   midi.NoteOffEvent(tick=2237300, channel=0, data=[36, 0]),
   midi.NoteOnEvent(tick=2237400, channel=0, data=[36, 100]),
   midi.NoteOffEvent(tick=2237500, channel=0, data=[36, 0]),
   midi.NoteOnEvent(tick=2237600, channel=0, data=[36, 100]),
   midi.NoteOffEvent(tick=2237700, channel=0, data=[36, 0]),
   midi.NoteOnEvent(tick=2237800, channel=0, data=[36, 100]),
   midi.NoteOffEvent(tick=2237900, channel=0, data=[36, 0]),
   midi.NoteOnEvent(tick=2238000, channel=0, data=[36, 100]),
   midi.NoteOffEvent(tick=2238100, channel=0, data=[36, 0]),
   midi.NoteOnEvent(tick=2238200, channel=0, data=[36, 100]),
   midi.NoteOffEvent(tick=2238300, channel=0, data=[36, 0]),
   midi.NoteOnEvent(tick=2238400, channel=0, data=[36, 100]),
   midi.NoteOffEvent(tick=2238500, channel=0, data=[36, 0]),
   midi.NoteOnEvent(tick=2238600, channel=0, data=[36, 100]),
   midi.NoteOffEvent(tick=2238700, channel=0, data=[36, 0]),
   midi.NoteOnEvent(tick=2238800, channel=0, data=[2, 100]),
   midi.NoteOffEvent(tick=2238900, channel=0, data=[2, 0]),
   midi.NoteOnEvent(tick=2239000, channel=0, data=[46, 100]),
   midi.NoteOffEvent(tick=2239100, channel=0, data=[46, 0]),
   midi.NoteOnEvent(tick=2239200, channel=0, data=[78, 100]),
   midi.NoteOffEvent(tick=2239300, channel=0, data=[78, 0]),
   midi.NoteOnEvent(tick=2239400, channel=0, data=[15, 100]),
   midi.NoteOffEvent(tick=2239500, channel=0, data=[15, 0]),
   midi.NoteOnEvent(tick=2239600, channel=0, data=[18, 100]),
   midi.NoteOffEvent(tick=2239700, channel=0, data=[18, 0]),
   midi.NoteOnEvent(tick=2239800, channel=0, data=[73, 100]),
   midi.NoteOffEvent(tick=2239900, channel=0, data=[73, 0]),
   midi.NoteOnEvent(tick=2240000, channel=0, data=[36, 100]),
   midi.NoteOffEvent(tick=2240100, channel=0, data=[36, 0]),
   midi.NoteOnEvent(tick=2240200, channel=0, data=[74, 100]),
   midi.NoteOffEvent(tick=2240300, channel=0, data=[74, 0]),
   midi.NoteOnEvent(tick=2240400, channel=0, data=[0, 100]),
   midi.NoteOffEvent(tick=2240500, channel=0, data=[0, 0]),
   midi.NoteOnEvent(tick=2240600, channel=0, data=[36, 100]),
   midi.NoteOffEvent(tick=2240700, channel=0, data=[36, 0]),
   midi.NoteOnEvent(tick=2240800, channel=0, data=[48, 100]),
   midi.NoteOffEvent(tick=2240900, channel=0, data=[48, 0]),
   midi.NoteOnEvent(tick=2241000, channel=0, data=[69, 100]),
   midi.NoteOffEvent(tick=2241100, channel=0, data=[69, 0]),
   midi.NoteOnEvent(tick=2241200, channel=0, data=[36, 100]),
   midi.NoteOffEvent(tick=2241300, channel=0, data=[36, 0]),
   midi.NoteOnEvent(tick=2241400, channel=0, data=[30, 100]),
   midi.NoteOffEvent(tick=2241500, channel=0, data=[30, 0]),
   midi.NoteOnEvent(tick=2241600, channel=0, data=[56, 100]),
   midi.NoteOffEvent(tick=2241700, channel=0, data=[56, 0]),
   midi.NoteOnEvent(tick=2241800, channel=0, data=[36, 100]),
   midi.NoteOffEvent(tick=2241900, channel=0, data=[36, 0]),
   midi.NoteOnEvent(tick=2242000, channel=0, data=[36, 100]),
   midi.NoteOffEvent(tick=2242100, channel=0, data=[36, 0]),
   midi.NoteOnEvent(tick=2242200, channel=0, data=[36, 100]),
   midi.NoteOffEvent(tick=2242300, channel=0, data=[36, 0]),
   midi.NoteOnEvent(tick=2242400, channel=0, data=[36, 100]),
   midi.NoteOffEvent(tick=2242500, channel=0, data=[36, 0]),
   midi.NoteOnEvent(tick=2242600, channel=0, data=[36, 100]),
   midi.NoteOffEvent(tick=2242700, channel=0, data=[36, 0]),
   midi.NoteOnEvent(tick=2242800, channel=0, data=[36, 100]),
   midi.NoteOffEvent(tick=2242900, channel=0, data=[36, 0]),
   midi.NoteOnEvent(tick=2243000, channel=0, data=[36, 100]),
   midi.NoteOffEvent(tick=2243100, channel=0, data=[36, 0]),
   midi.NoteOnEvent(tick=2243200, channel=0, data=[36, 100]),
   midi.NoteOffEvent(tick=2243300, channel=0, data=[36, 0]),
   midi.NoteOnEvent(tick=2243400, channel=0, data=[2, 100]),
   midi.NoteOffEvent(tick=2243500, channel=0, data=[2, 0]),
   midi.NoteOnEvent(tick=2243600, channel=0, data=[46, 100]),
   midi.NoteOffEvent(tick=2243700, channel=0, data=[46, 0]),
   midi.NoteOnEvent(tick=2243800, channel=0, data=[78, 100]),
   midi.NoteOffEvent(tick=2243900, channel=0, data=[78, 0]),
   midi.NoteOnEvent(tick=2244000, channel=0, data=[15, 100]),
   midi.NoteOffEvent(tick=2244100, channel=0, data=[15, 0]),
   midi.NoteOnEvent(tick=2244200, channel=0, data=[18, 100]),
   midi.NoteOffEvent(tick=2244300, channel=0, data=[18, 0]),
   midi.NoteOnEvent(tick=2244400, channel=0, data=[73, 100]),
   midi.NoteOffEvent(tick=2244500, channel=0, data=[73, 0]),
   midi.NoteOnEvent(tick=2244600, channel=0, data=[36, 100]),
   midi.NoteOffEvent(tick=2244700, channel=0, data=[36, 0]),
   midi.NoteOnEvent(tick=2244800, channel=0, data=[74, 100]),
   midi.NoteOffEvent(tick=2244900, channel=0, data=[74, 0]),
   midi.NoteOnEvent(tick=2245000, channel=0, data=[0, 100]),
   midi.NoteOffEvent(tick=2245100, channel=0, data=[0, 0]),
   midi.NoteOnEvent(tick=2245200, channel=0, data=[56, 100]),
   midi.NoteOffEvent(tick=2245300, channel=0, data=[56, 0]),
   midi.NoteOnEvent(tick=2245400, channel=0, data=[36, 100]),
   midi.NoteOffEvent(tick=2245500, channel=0, data=[36, 0]),
   midi.NoteOnEvent(tick=2245600, channel=0, data=[36, 100]),
   midi.NoteOffEvent(tick=2245700, channel=0, data=[36, 0]),
   midi.NoteOnEvent(tick=2245800, channel=0, data=[36, 100]),
   midi.NoteOffEvent(tick=2245900, channel=0, data=[36, 0]),
   midi.NoteOnEvent(tick=2246000, channel=0, data=[36, 100]),
   midi.NoteOffEvent(tick=2246100, channel=0, data=[36, 0]),
   midi.NoteOnEvent(tick=2246200, channel=0, data=[36, 100]),
   midi.NoteOffEvent(tick=2246300, channel=0, data=[36, 0]),
   midi.NoteOnEvent(tick=2246400, channel=0, data=[36, 100]),
   midi.NoteOffEvent(tick=2246500, channel=0, data=[36, 0]),
   midi.NoteOnEvent(tick=2246600, channel=0, data=[36, 100]),
   midi.NoteOffEvent(tick=2246700, channel=0, data=[36, 0]),
   midi.NoteOnEvent(tick=2246800, channel=0, data=[36, 100]),
   midi.NoteOffEvent(tick=2246900, channel=0, data=[36, 0]),
   midi.NoteOnEvent(tick=2247000, channel=0, data=[27, 100]),
   midi.NoteOffEvent(tick=2247100, channel=0, data=[27, 0]),
   midi.NoteOnEvent(tick=2247200, channel=0, data=[28, 100]),
   midi.NoteOffEvent(tick=2247300, channel=0, data=[28, 0]),
   midi.NoteOnEvent(tick=2247400, channel=0, data=[56, 100]),
   midi.NoteOffEvent(tick=2247500, channel=0, data=[56, 0]),
   midi.NoteOnEvent(tick=2247600, channel=0, data=[36, 100]),
   midi.NoteOffEvent(tick=2247700, channel=0, data=[36, 0]),
   midi.NoteOnEvent(tick=2247800, channel=0, data=[56, 100]),
   midi.NoteOffEvent(tick=2247900, channel=0, data=[56, 0]),
   midi.NoteOnEvent(tick=2248000, channel=0, data=[56, 100]),
   midi.NoteOffEvent(tick=2248100, channel=0, data=[56, 0]),
   midi.NoteOnEvent(tick=2248200, channel=0, data=[36, 100]),
   midi.NoteOffEvent(tick=2248300, channel=0, data=[36, 0]),
   midi.NoteOnEvent(tick=2248400, channel=0, data=[36, 100]),
   midi.NoteOffEvent(tick=2248500, channel=0, data=[36, 0]),
   midi.NoteOnEvent(tick=2248600, channel=0, data=[36, 100]),
   midi.NoteOffEvent(tick=2248700, channel=0, data=[36, 0]),
   midi.NoteOnEvent(tick=2248800, channel=0, data=[36, 100]),
   midi.NoteOffEvent(tick=2248900, channel=0, data=[36, 0]),
   midi.NoteOnEvent(tick=2249000, channel=0, data=[8, 100]),
   midi.NoteOffEvent(tick=2249100, channel=0, data=[8, 0]),
   midi.NoteOnEvent(tick=2249200, channel=0, data=[13, 100]),
   midi.NoteOffEvent(tick=2249300, channel=0, data=[13, 0]),
   midi.NoteOnEvent(tick=2249400, channel=0, data=[36, 100]),
   midi.NoteOffEvent(tick=2249500, channel=0, data=[36, 0]),
   midi.NoteOnEvent(tick=2249600, channel=0, data=[19, 100]),
   midi.NoteOffEvent(tick=2249700, channel=0, data=[19, 0]),
   midi.NoteOnEvent(tick=2249800, channel=0, data=[7, 100]),
   midi.NoteOffEvent(tick=2249900, channel=0, data=[7, 0]),
   midi.NoteOnEvent(tick=2250000, channel=0, data=[8, 100]),
   midi.NoteOffEvent(tick=2250100, channel=0, data=[8, 0]),
   midi.NoteOnEvent(tick=2250200, channel=0, data=[18, 100]),
   midi.NoteOffEvent(tick=2250300, channel=0, data=[18, 0]),
   midi.NoteOnEvent(tick=2250400, channel=0, data=[36, 100]),
   midi.NoteOffEvent(tick=2250500, channel=0, data=[36, 0]),
   midi.NoteOnEvent(tick=2250600, channel=0, data=[2, 100]),
   midi.NoteOffEvent(tick=2250700, channel=0, data=[2, 0]),
   midi.NoteOnEvent(tick=2250800, channel=0, data=[0, 100]),
   midi.NoteOffEvent(tick=2250900, channel=0, data=[0, 0]),
   midi.NoteOnEvent(tick=2251000, channel=0, data=[18, 100]),
   midi.NoteOffEvent(tick=2251100, channel=0, data=[18, 0]),
   midi.NoteOnEvent(tick=2251200, channel=0, data=[4, 100]),
   midi.NoteOffEvent(tick=2251300, channel=0, data=[4, 0]),
   midi.NoteOnEvent(tick=2251400, channel=0, data=[38, 100]),
   midi.NoteOffEvent(tick=2251500, channel=0, data=[38, 0]),
   midi.NoteOnEvent(tick=2251600, channel=0, data=[36, 100]),
   midi.NoteOffEvent(tick=2251700, channel=0, data=[36, 0]),
   midi.NoteOnEvent(tick=2251800, channel=0, data=[19, 100]),
   midi.NoteOffEvent(tick=2251900, channel=0, data=[19, 0]),
   midi.NoteOnEvent(tick=2252000, channel=0, data=[7, 100]),
   midi.NoteOffEvent(tick=2252100, channel=0, data=[7, 0]),
   midi.NoteOnEvent(tick=2252200, channel=0, data=[4, 100]),
   midi.NoteOffEvent(tick=2252300, channel=0, data=[4, 0]),
   midi.NoteOnEvent(tick=2252400, channel=0, data=[36, 100]),
   midi.NoteOffEvent(tick=2252500, channel=0, data=[36, 0]),
   midi.NoteOnEvent(tick=2252600, channel=0, data=[48, 100]),
   midi.NoteOffEvent(tick=2252700, channel=0, data=[48, 0]),
   midi.NoteOnEvent(tick=2252800, channel=0, data=[69, 100]),
   midi.NoteOffEvent(tick=2252900, channel=0, data=[69, 0]),
   midi.NoteOnEvent(tick=2253000, channel=0, data=[36, 100]),
   midi.NoteOffEvent(tick=2253100, channel=0, data=[36, 0]),
   midi.NoteOnEvent(tick=2253200, channel=0, data=[14, 100]),
   midi.NoteOffEvent(tick=2253300, channel=0, data=[14, 0]),
   midi.NoteOnEvent(tick=2253400, channel=0, data=[15, 100]),
   midi.NoteOffEvent(tick=2253500, channel=0, data=[15, 0]),
   midi.NoteOnEvent(tick=2253600, channel=0, data=[4, 100]),
   midi.NoteOffEvent(tick=2253700, channel=0, data=[4, 0]),
   midi.NoteOnEvent(tick=2253800, channel=0, data=[17, 100]),
   midi.NoteOffEvent(tick=2253900, channel=0, data=[17, 0]),
   midi.NoteOnEvent(tick=2254000, channel=0, data=[0, 100]),
   midi.NoteOffEvent(tick=2254100, channel=0, data=[0, 0]),
   midi.NoteOnEvent(tick=2254200, channel=0, data=[19, 100]),
   midi.NoteOffEvent(tick=2254300, channel=0, data=[19, 0]),
   midi.NoteOnEvent(tick=2254400, channel=0, data=[14, 100]),
   midi.NoteOffEvent(tick=2254500, channel=0, data=[14, 0]),
   midi.NoteOnEvent(tick=2254600, channel=0, data=[17, 100]),
   midi.NoteOffEvent(tick=2254700, channel=0, data=[17, 0]),
   midi.NoteOnEvent(tick=2254800, channel=0, data=[36, 100]),
   midi.NoteOffEvent(tick=2254900, channel=0, data=[36, 0]),
   midi.NoteOnEvent(tick=2255000, channel=0, data=[2, 100]),
   midi.NoteOffEvent(tick=2255100, channel=0, data=[2, 0]),
   midi.NoteOnEvent(tick=2255200, channel=0, data=[14, 100]),
   midi.NoteOffEvent(tick=2255300, channel=0, data=[14, 0]),
   midi.NoteOnEvent(tick=2255400, channel=0, data=[12, 100]),
   midi.NoteOffEvent(tick=2255500, channel=0, data=[12, 0]),
   midi.NoteOnEvent(tick=2255600, channel=0, data=[1, 100]),
   midi.NoteOffEvent(tick=2255700, channel=0, data=[1, 0]),
   midi.NoteOnEvent(tick=2255800, channel=0, data=[8, 100]),
   midi.NoteOffEvent(tick=2255900, channel=0, data=[8, 0]),
   midi.NoteOnEvent(tick=2256000, channel=0, data=[13, 100]),
   midi.NoteOffEvent(tick=2256100, channel=0, data=[13, 0]),
   midi.NoteOnEvent(tick=2256200, channel=0, data=[4, 100]),
   midi.NoteOffEvent(tick=2256300, channel=0, data=[4, 0]),
   midi.NoteOnEvent(tick=2256400, channel=0, data=[18, 100]),
   midi.NoteOffEvent(tick=2256500, channel=0, data=[18, 0]),
   midi.NoteOnEvent(tick=2256600, channel=0, data=[36, 100]),
   midi.NoteOffEvent(tick=2256700, channel=0, data=[36, 0]),
   midi.NoteOnEvent(tick=2256800, channel=0, data=[19, 100]),
   midi.NoteOffEvent(tick=2256900, channel=0, data=[19, 0]),
   midi.NoteOnEvent(tick=2257000, channel=0, data=[22, 100]),
   midi.NoteOffEvent(tick=2257100, channel=0, data=[22, 0]),
   midi.NoteOnEvent(tick=2257200, channel=0, data=[14, 100]),
   midi.NoteOffEvent(tick=2257300, channel=0, data=[14, 0]),
   midi.NoteOnEvent(tick=2257400, channel=0, data=[36, 100]),
   midi.NoteOffEvent(tick=2257500, channel=0, data=[36, 0]),
   midi.NoteOnEvent(tick=2257600, channel=0, data=[14, 100]),
   midi.NoteOffEvent(tick=2257700, channel=0, data=[14, 0]),
   midi.NoteOnEvent(tick=2257800, channel=0, data=[15, 100]),
   midi.NoteOffEvent(tick=2257900, channel=0, data=[15, 0]),
   midi.NoteOnEvent(tick=2258000, channel=0, data=[4, 100]),
   midi.NoteOffEvent(tick=2258100, channel=0, data=[4, 0]),
   midi.NoteOnEvent(tick=2258200, channel=0, data=[17, 100]),
   midi.NoteOffEvent(tick=2258300, channel=0, data=[17, 0]),
   midi.NoteOnEvent(tick=2258400, channel=0, data=[0, 100]),
   midi.NoteOffEvent(tick=2258500, channel=0, data=[0, 0]),
   midi.NoteOnEvent(tick=2258600, channel=0, data=[19, 100]),
   midi.NoteOffEvent(tick=2258700, channel=0, data=[19, 0]),
   midi.NoteOnEvent(tick=2258800, channel=0, data=[8, 100]),
   midi.NoteOffEvent(tick=2258900, channel=0, data=[8, 0]),
   midi.NoteOnEvent(tick=2259000, channel=0, data=[14, 100]),
   midi.NoteOffEvent(tick=2259100, channel=0, data=[14, 0]),
   midi.NoteOnEvent(tick=2259200, channel=0, data=[13, 100]),
   midi.NoteOffEvent(tick=2259300, channel=0, data=[13, 0]),
   midi.NoteOnEvent(tick=2259400, channel=0, data=[18, 100]),
   midi.NoteOffEvent(tick=2259500, channel=0, data=[18, 0]),
   midi.NoteOnEvent(tick=2259600, channel=0, data=[37, 100]),
   midi.NoteOffEvent(tick=2259700, channel=0, data=[37, 0]),
   midi.NoteOnEvent(tick=2259800, channel=0, data=[36, 100]),
   midi.NoteOffEvent(tick=2259900, channel=0, data=[36, 0]),
   midi.NoteOnEvent(tick=2260000, channel=0, data=[5, 100]),
   midi.NoteOffEvent(tick=2260100, channel=0, data=[5, 0]),
   midi.NoteOnEvent(tick=2260200, channel=0, data=[8, 100]),
   midi.NoteOffEvent(tick=2260300, channel=0, data=[8, 0]),
   midi.NoteOnEvent(tick=2260400, channel=0, data=[17, 100]),
   midi.NoteOffEvent(tick=2260500, channel=0, data=[17, 0]),
   midi.NoteOnEvent(tick=2260600, channel=0, data=[18, 100]),
   midi.NoteOffEvent(tick=2260700, channel=0, data=[18, 0]),
   midi.NoteOnEvent(tick=2260800, channel=0, data=[19, 100]),
   midi.NoteOffEvent(tick=2260900, channel=0, data=[19, 0]),
   midi.NoteOnEvent(tick=2261000, channel=0, data=[38, 100]),
   midi.NoteOffEvent(tick=2261100, channel=0, data=[38, 0]),
   midi.NoteOnEvent(tick=2261200, channel=0, data=[36, 100]),
   midi.NoteOffEvent(tick=2261300, channel=0, data=[36, 0]),
   midi.NoteOnEvent(tick=2261400, channel=0, data=[8, 100]),
   midi.NoteOffEvent(tick=2261500, channel=0, data=[8, 0]),
   midi.NoteOnEvent(tick=2261600, channel=0, data=[19, 100]),
   midi.NoteOffEvent(tick=2261700, channel=0, data=[19, 0]),
   midi.NoteOnEvent(tick=2261800, channel=0, data=[36, 100]),
   midi.NoteOffEvent(tick=2261900, channel=0, data=[36, 0]),
   midi.NoteOnEvent(tick=2262000, channel=0, data=[56, 100]),
   midi.NoteOffEvent(tick=2262100, channel=0, data=[56, 0]),
   midi.NoteOnEvent(tick=2262200, channel=0, data=[36, 100]),
   midi.NoteOffEvent(tick=2262300, channel=0, data=[36, 0]),
   midi.NoteOnEvent(tick=2262400, channel=0, data=[36, 100]),
   midi.NoteOffEvent(tick=2262500, channel=0, data=[36, 0]),
   midi.NoteOnEvent(tick=2262600, channel=0, data=[36, 100]),
   midi.NoteOffEvent(tick=2262700, channel=0, data=[36, 0]),
   midi.NoteOnEvent(tick=2262800, channel=0, data=[36, 100]),
   midi.NoteOffEvent(tick=2262900, channel=0, data=[36, 0]),
   midi.NoteOnEvent(tick=2263000, channel=0, data=[12, 100]),
   midi.NoteOffEvent(tick=2263100, channel=0, data=[12, 0]),
   midi.NoteOnEvent(tick=2263200, channel=0, data=[20, 100]),
   midi.NoteOffEvent(tick=2263300, channel=0, data=[20, 0]),
   midi.NoteOnEvent(tick=2263400, channel=0, data=[11, 100]),
   midi.NoteOffEvent(tick=2263500, channel=0, data=[11, 0]),
   midi.NoteOnEvent(tick=2263600, channel=0, data=[19, 100]),
   midi.NoteOffEvent(tick=2263700, channel=0, data=[19, 0]),
   midi.NoteOnEvent(tick=2263800, channel=0, data=[8, 100]),
   midi.NoteOffEvent(tick=2263900, channel=0, data=[8, 0]),
   midi.NoteOnEvent(tick=2264000, channel=0, data=[15, 100]),
   midi.NoteOffEvent(tick=2264100, channel=0, data=[15, 0]),
   midi.NoteOnEvent(tick=2264200, channel=0, data=[11, 100]),
   midi.NoteOffEvent(tick=2264300, channel=0, data=[11, 0]),
   midi.NoteOnEvent(tick=2264400, channel=0, data=[8, 100]),
   midi.NoteOffEvent(tick=2264500, channel=0, data=[8, 0]),
   midi.NoteOnEvent(tick=2264600, channel=0, data=[4, 100]),
   midi.NoteOffEvent(tick=2264700, channel=0, data=[4, 0]),
   midi.NoteOnEvent(tick=2264800, channel=0, data=[18, 100]),
   midi.NoteOffEvent(tick=2264900, channel=0, data=[18, 0]),
   midi.NoteOnEvent(tick=2265000, channel=0, data=[38, 100]),
   midi.NoteOffEvent(tick=2265100, channel=0, data=[38, 0]),
   midi.NoteOnEvent(tick=2265200, channel=0, data=[36, 100]),
   midi.NoteOffEvent(tick=2265300, channel=0, data=[36, 0]),
   midi.NoteOnEvent(tick=2265400, channel=0, data=[0, 100]),
   midi.NoteOffEvent(tick=2265500, channel=0, data=[0, 0]),
   midi.NoteOnEvent(tick=2265600, channel=0, data=[13, 100]),
   midi.NoteOffEvent(tick=2265700, channel=0, data=[13, 0]),
   midi.NoteOnEvent(tick=2265800, channel=0, data=[3, 100]),
   midi.NoteOffEvent(tick=2265900, channel=0, data=[3, 0]),
   midi.NoteOnEvent(tick=2266000, channel=0, data=[36, 100]),
   midi.NoteOffEvent(tick=2266100, channel=0, data=[36, 0]),
   midi.NoteOnEvent(tick=2266200, channel=0, data=[19, 100]),
   midi.NoteOffEvent(tick=2266300, channel=0, data=[19, 0]),
   midi.NoteOnEvent(tick=2266400, channel=0, data=[7, 100]),
   midi.NoteOffEvent(tick=2266500, channel=0, data=[7, 0]),
   midi.NoteOnEvent(tick=2266600, channel=0, data=[4, 100]),
   midi.NoteOffEvent(tick=2266700, channel=0, data=[4, 0]),
   midi.NoteOnEvent(tick=2266800, channel=0, data=[13, 100]),
   midi.NoteOffEvent(tick=2266900, channel=0, data=[13, 0]),
   midi.NoteOnEvent(tick=2267000, channel=0, data=[36, 100]),
   midi.NoteOffEvent(tick=2267100, channel=0, data=[36, 0]),
   midi.NoteOnEvent(tick=2267200, channel=0, data=[8, 100]),
   midi.NoteOffEvent(tick=2267300, channel=0, data=[8, 0]),
   midi.NoteOnEvent(tick=2267400, channel=0, data=[19, 100]),
   midi.NoteOffEvent(tick=2267500, channel=0, data=[19, 0]),
   midi.NoteOnEvent(tick=2267600, channel=0, data=[36, 100]),
   midi.NoteOffEvent(tick=2267700, channel=0, data=[36, 0]),
   midi.NoteOnEvent(tick=2267800, channel=0, data=[0, 100]),
   midi.NoteOffEvent(tick=2267900, channel=0, data=[0, 0]),
   midi.NoteOnEvent(tick=2268000, channel=0, data=[18, 100]),
   midi.NoteOffEvent(tick=2268100, channel=0, data=[18, 0]),
   midi.NoteOnEvent(tick=2268200, channel=0, data=[18, 100]),
   midi.NoteOffEvent(tick=2268300, channel=0, data=[18, 0]),
   midi.NoteOnEvent(tick=2268400, channel=0, data=[8, 100]),
   midi.NoteOffEvent(tick=2268500, channel=0, data=[8, 0]),
   midi.NoteOnEvent(tick=2268600, channel=0, data=[6, 100]),
   midi.NoteOffEvent(tick=2268700, channel=0, data=[6, 0]),
   midi.NoteOnEvent(tick=2268800, channel=0, data=[13, 100]),
   midi.NoteOffEvent(tick=2268900, channel=0, data=[13, 0]),
   midi.NoteOnEvent(tick=2269000, channel=0, data=[18, 100]),
   midi.NoteOffEvent(tick=2269100, channel=0, data=[18, 0]),
   midi.NoteOnEvent(tick=2269200, channel=0, data=[37, 100]),
   midi.NoteOffEvent(tick=2269300, channel=0, data=[37, 0]),
   midi.NoteOnEvent(tick=2269400, channel=0, data=[36, 100]),
   midi.NoteOffEvent(tick=2269500, channel=0, data=[36, 0]),
   midi.NoteOnEvent(tick=2269600, channel=0, data=[19, 100]),
   midi.NoteOffEvent(tick=2269700, channel=0, data=[19, 0]),
   midi.NoteOnEvent(tick=2269800, channel=0, data=[7, 100]),
   midi.NoteOffEvent(tick=2269900, channel=0, data=[7, 0]),
   midi.NoteOnEvent(tick=2270000, channel=0, data=[4, 100]),
   midi.NoteOffEvent(tick=2270100, channel=0, data=[4, 0]),
   midi.NoteOnEvent(tick=2270200, channel=0, data=[17, 100]),
   midi.NoteOffEvent(tick=2270300, channel=0, data=[17, 0]),
   midi.NoteOnEvent(tick=2270400, channel=0, data=[4, 100]),
   midi.NoteOffEvent(tick=2270500, channel=0, data=[4, 0]),
   midi.NoteOnEvent(tick=2270600, channel=0, data=[5, 100]),
   midi.NoteOffEvent(tick=2270700, channel=0, data=[5, 0]),
   midi.NoteOnEvent(tick=2270800, channel=0, data=[14, 100]),
   midi.NoteOffEvent(tick=2270900, channel=0, data=[14, 0]),
   midi.NoteOnEvent(tick=2271000, channel=0, data=[17, 100]),
   midi.NoteOffEvent(tick=2271100, channel=0, data=[17, 0]),
   midi.NoteOnEvent(tick=2271200, channel=0, data=[4, 100]),
   midi.NoteOffEvent(tick=2271300, channel=0, data=[4, 0]),
   midi.NoteOnEvent(tick=2271400, channel=0, data=[38, 100]),
   midi.NoteOffEvent(tick=2271500, channel=0, data=[38, 0]),
   midi.NoteOnEvent(tick=2271600, channel=0, data=[36, 100]),
   midi.NoteOffEvent(tick=2271700, channel=0, data=[36, 0]),
   midi.NoteOnEvent(tick=2271800, channel=0, data=[19, 100]),
   midi.NoteOffEvent(tick=2271900, channel=0, data=[19, 0]),
   midi.NoteOnEvent(tick=2272000, channel=0, data=[7, 100]),
   midi.NoteOffEvent(tick=2272100, channel=0, data=[7, 0]),
   midi.NoteOnEvent(tick=2272200, channel=0, data=[4, 100]),
   midi.NoteOffEvent(tick=2272300, channel=0, data=[4, 0]),
   midi.NoteOnEvent(tick=2272400, channel=0, data=[36, 100]),
   midi.NoteOffEvent(tick=2272500, channel=0, data=[36, 0]),
   midi.NoteOnEvent(tick=2272600, channel=0, data=[5, 100]),
   midi.NoteOffEvent(tick=2272700, channel=0, data=[5, 0]),
   midi.NoteOnEvent(tick=2272800, channel=0, data=[14, 100]),
   midi.NoteOffEvent(tick=2272900, channel=0, data=[14, 0]),
   midi.NoteOnEvent(tick=2273000, channel=0, data=[11, 100]),
   midi.NoteOffEvent(tick=2273100, channel=0, data=[11, 0]),
   midi.NoteOnEvent(tick=2273200, channel=0, data=[11, 100]),
   midi.NoteOffEvent(tick=2273300, channel=0, data=[11, 0]),
   midi.NoteOnEvent(tick=2273400, channel=0, data=[14, 100]),
   midi.NoteOffEvent(tick=2273500, channel=0, data=[14, 0]),
   midi.NoteOnEvent(tick=2273600, channel=0, data=[22, 100]),
   midi.NoteOffEvent(tick=2273700, channel=0, data=[22, 0]),
   midi.NoteOnEvent(tick=2273800, channel=0, data=[8, 100]),
   midi.NoteOffEvent(tick=2273900, channel=0, data=[8, 0]),
   midi.NoteOnEvent(tick=2274000, channel=0, data=[13, 100]),
   midi.NoteOffEvent(tick=2274100, channel=0, data=[13, 0]),
   midi.NoteOnEvent(tick=2274200, channel=0, data=[6, 100]),
   midi.NoteOffEvent(tick=2274300, channel=0, data=[6, 0]),
   midi.NoteOnEvent(tick=2274400, channel=0, data=[36, 100]),
   midi.NoteOffEvent(tick=2274500, channel=0, data=[36, 0]),
   midi.NoteOnEvent(tick=2274600, channel=0, data=[18, 100]),
   midi.NoteOffEvent(tick=2274700, channel=0, data=[18, 0]),
   midi.NoteOnEvent(tick=2274800, channel=0, data=[19, 100]),
   midi.NoteOffEvent(tick=2274900, channel=0, data=[19, 0]),
   midi.NoteOnEvent(tick=2275000, channel=0, data=[0, 100]),
   midi.NoteOffEvent(tick=2275100, channel=0, data=[0, 0]),
   midi.NoteOnEvent(tick=2275200, channel=0, data=[19, 100]),
   midi.NoteOffEvent(tick=2275300, channel=0, data=[19, 0]),
   midi.NoteOnEvent(tick=2275400, channel=0, data=[4, 100]),
   midi.NoteOffEvent(tick=2275500, channel=0, data=[4, 0]),
   midi.NoteOnEvent(tick=2275600, channel=0, data=[12, 100]),
   midi.NoteOffEvent(tick=2275700, channel=0, data=[12, 0]),
   midi.NoteOnEvent(tick=2275800, channel=0, data=[4, 100]),
   midi.NoteOffEvent(tick=2275900, channel=0, data=[4, 0]),
   midi.NoteOnEvent(tick=2276000, channel=0, data=[13, 100]),
   midi.NoteOffEvent(tick=2276100, channel=0, data=[13, 0]),
   midi.NoteOnEvent(tick=2276200, channel=0, data=[19, 100]),
   midi.NoteOffEvent(tick=2276300, channel=0, data=[19, 0]),
   midi.NoteOnEvent(tick=2276400, channel=0, data=[18, 100]),
   midi.NoteOffEvent(tick=2276500, channel=0, data=[18, 0]),
   midi.NoteOnEvent(tick=2276600, channel=0, data=[36, 100]),
   midi.NoteOffEvent(tick=2276700, channel=0, data=[36, 0]),
   midi.NoteOnEvent(tick=2276800, channel=0, data=[0, 100]),
   midi.NoteOffEvent(tick=2276900, channel=0, data=[0, 0]),
   midi.NoteOnEvent(tick=2277000, channel=0, data=[17, 100]),
   midi.NoteOffEvent(tick=2277100, channel=0, data=[17, 0]),
   midi.NoteOnEvent(tick=2277200, channel=0, data=[4, 100]),
   midi.NoteOffEvent(tick=2277300, channel=0, data=[4, 0]),
   midi.NoteOnEvent(tick=2277400, channel=0, data=[56, 100]),
   midi.NoteOffEvent(tick=2277500, channel=0, data=[56, 0]),
   midi.NoteOnEvent(tick=2277600, channel=0, data=[36, 100]),
   midi.NoteOffEvent(tick=2277700, channel=0, data=[36, 0]),
   midi.NoteOnEvent(tick=2277800, channel=0, data=[36, 100]),
   midi.NoteOffEvent(tick=2277900, channel=0, data=[36, 0]),
   midi.NoteOnEvent(tick=2278000, channel=0, data=[36, 100]),
   midi.NoteOffEvent(tick=2278100, channel=0, data=[36, 0]),
   midi.NoteOnEvent(tick=2278200, channel=0, data=[36, 100]),
   midi.NoteOffEvent(tick=2278300, channel=0, data=[36, 0]),
   midi.NoteOnEvent(tick=2278400, channel=0, data=[4, 100]),
   midi.NoteOffEvent(tick=2278500, channel=0, data=[4, 0]),
   midi.NoteOnEvent(tick=2278600, channel=0, data=[16, 100]),
   midi.NoteOffEvent(tick=2278700, channel=0, data=[16, 0]),
   midi.NoteOnEvent(tick=2278800, channel=0, data=[20, 100]),
   midi.NoteOffEvent(tick=2278900, channel=0, data=[20, 0]),
   midi.NoteOnEvent(tick=2279000, channel=0, data=[8, 100]),
   midi.NoteOffEvent(tick=2279100, channel=0, data=[8, 0]),
   midi.NoteOnEvent(tick=2279200, channel=0, data=[21, 100]),
   midi.NoteOffEvent(tick=2279300, channel=0, data=[21, 0]),
   midi.NoteOnEvent(tick=2279400, channel=0, data=[0, 100]),
   midi.NoteOffEvent(tick=2279500, channel=0, data=[0, 0]),
   midi.NoteOnEvent(tick=2279600, channel=0, data=[11, 100]),
   midi.NoteOffEvent(tick=2279700, channel=0, data=[11, 0]),
   midi.NoteOnEvent(tick=2279800, channel=0, data=[4, 100]),
   midi.NoteOffEvent(tick=2279900, channel=0, data=[4, 0]),
   midi.NoteOnEvent(tick=2280000, channel=0, data=[13, 100]),
   midi.NoteOffEvent(tick=2280100, channel=0, data=[13, 0]),
   midi.NoteOnEvent(tick=2280200, channel=0, data=[19, 100]),
   midi.NoteOffEvent(tick=2280300, channel=0, data=[19, 0]),
   midi.NoteOnEvent(tick=2280400, channel=0, data=[46, 100]),
   midi.NoteOffEvent(tick=2280500, channel=0, data=[46, 0]),
   midi.NoteOnEvent(tick=2280600, channel=0, data=[56, 100]),
   midi.NoteOffEvent(tick=2280700, channel=0, data=[56, 0]),
   midi.NoteOnEvent(tick=2280800, channel=0, data=[56, 100]),
   midi.NoteOffEvent(tick=2280900, channel=0, data=[56, 0]),
   midi.NoteOnEvent(tick=2281000, channel=0, data=[56, 100]),
   midi.NoteOffEvent(tick=2281100, channel=0, data=[56, 0]),
   midi.NoteOnEvent(tick=2281200, channel=0, data=[36, 100]),
   midi.NoteOffEvent(tick=2281300, channel=0, data=[36, 0]),
   midi.NoteOnEvent(tick=2281400, channel=0, data=[36, 100]),
   midi.NoteOffEvent(tick=2281500, channel=0, data=[36, 0]),
   midi.NoteOnEvent(tick=2281600, channel=0, data=[36, 100]),
   midi.NoteOffEvent(tick=2281700, channel=0, data=[36, 0]),
   midi.NoteOnEvent(tick=2281800, channel=0, data=[36, 100]),
   midi.NoteOffEvent(tick=2281900, channel=0, data=[36, 0]),
   midi.NoteOnEvent(tick=2282000, channel=0, data=[36, 100]),
   midi.NoteOffEvent(tick=2282100, channel=0, data=[36, 0]),
   midi.NoteOnEvent(tick=2282200, channel=0, data=[36, 100]),
   midi.NoteOffEvent(tick=2282300, channel=0, data=[36, 0]),
   midi.NoteOnEvent(tick=2282400, channel=0, data=[36, 100]),
   midi.NoteOffEvent(tick=2282500, channel=0, data=[36, 0]),
   midi.NoteOnEvent(tick=2282600, channel=0, data=[36, 100]),
   midi.NoteOffEvent(tick=2282700, channel=0, data=[36, 0]),
   midi.NoteOnEvent(tick=2282800, channel=0, data=[74, 100]),
   midi.NoteOffEvent(tick=2282900, channel=0, data=[74, 0]),
   midi.NoteOnEvent(tick=2283000, channel=0, data=[0, 100]),
   midi.NoteOffEvent(tick=2283100, channel=0, data=[0, 0]),
   midi.NoteOnEvent(tick=2283200, channel=0, data=[36, 100]),
   midi.NoteOffEvent(tick=2283300, channel=0, data=[36, 0]),
   midi.NoteOnEvent(tick=2283400, channel=0, data=[48, 100]),
   midi.NoteOffEvent(tick=2283500, channel=0, data=[48, 0]),
   midi.NoteOnEvent(tick=2283600, channel=0, data=[69, 100]),
   midi.NoteOffEvent(tick=2283700, channel=0, data=[69, 0]),
   midi.NoteOnEvent(tick=2283800, channel=0, data=[36, 100]),
   midi.NoteOffEvent(tick=2283900, channel=0, data=[36, 0]),
   midi.NoteOnEvent(tick=2284000, channel=0, data=[28, 100]),
   midi.NoteOffEvent(tick=2284100, channel=0, data=[28, 0]),
   midi.NoteOnEvent(tick=2284200, channel=0, data=[56, 100]),
   midi.NoteOffEvent(tick=2284300, channel=0, data=[56, 0]),
   midi.NoteOnEvent(tick=2284400, channel=0, data=[36, 100]),
   midi.NoteOffEvent(tick=2284500, channel=0, data=[36, 0]),
   midi.NoteOnEvent(tick=2284600, channel=0, data=[36, 100]),
   midi.NoteOffEvent(tick=2284700, channel=0, data=[36, 0]),
   midi.NoteOnEvent(tick=2284800, channel=0, data=[36, 100]),
   midi.NoteOffEvent(tick=2284900, channel=0, data=[36, 0]),
   midi.NoteOnEvent(tick=2285000, channel=0, data=[36, 100]),
   midi.NoteOffEvent(tick=2285100, channel=0, data=[36, 0]),
   midi.NoteOnEvent(tick=2285200, channel=0, data=[36, 100]),
   midi.NoteOffEvent(tick=2285300, channel=0, data=[36, 0]),
   midi.NoteOnEvent(tick=2285400, channel=0, data=[36, 100]),
   midi.NoteOffEvent(tick=2285500, channel=0, data=[36, 0]),
   midi.NoteOnEvent(tick=2285600, channel=0, data=[36, 100]),
   midi.NoteOffEvent(tick=2285700, channel=0, data=[36, 0]),
   midi.NoteOnEvent(tick=2285800, channel=0, data=[36, 100]),
   midi.NoteOffEvent(tick=2285900, channel=0, data=[36, 0]),
   midi.NoteOnEvent(tick=2286000, channel=0, data=[74, 100]),
   midi.NoteOffEvent(tick=2286100, channel=0, data=[74, 0]),
   midi.NoteOnEvent(tick=2286200, channel=0, data=[0, 100]),
   midi.NoteOffEvent(tick=2286300, channel=0, data=[0, 0]),
   midi.NoteOnEvent(tick=2286400, channel=0, data=[36, 100]),
   midi.NoteOffEvent(tick=2286500, channel=0, data=[36, 0]),
   midi.NoteOnEvent(tick=2286600, channel=0, data=[69, 100]),
   midi.NoteOffEvent(tick=2286700, channel=0, data=[69, 0]),
   midi.NoteOnEvent(tick=2286800, channel=0, data=[36, 100]),
   midi.NoteOffEvent(tick=2286900, channel=0, data=[36, 0]),
   midi.NoteOnEvent(tick=2287000, channel=0, data=[49, 100]),
   midi.NoteOffEvent(tick=2287100, channel=0, data=[49, 0]),
   midi.NoteOnEvent(tick=2287200, channel=0, data=[74, 100]),
   midi.NoteOffEvent(tick=2287300, channel=0, data=[74, 0]),
   midi.NoteOnEvent(tick=2287400, channel=0, data=[0, 100]),
   midi.NoteOffEvent(tick=2287500, channel=0, data=[0, 0]),
   midi.NoteOnEvent(tick=2287600, channel=0, data=[36, 100]),
   midi.NoteOffEvent(tick=2287700, channel=0, data=[36, 0]),
   midi.NoteOnEvent(tick=2287800, channel=0, data=[48, 100]),
   midi.NoteOffEvent(tick=2287900, channel=0, data=[48, 0]),
   midi.NoteOnEvent(tick=2288000, channel=0, data=[36, 100]),
   midi.NoteOffEvent(tick=2288100, channel=0, data=[36, 0]),
   midi.NoteOnEvent(tick=2288200, channel=0, data=[28, 100]),
   midi.NoteOffEvent(tick=2288300, channel=0, data=[28, 0]),
   midi.NoteOnEvent(tick=2288400, channel=0, data=[50, 100]),
   midi.NoteOffEvent(tick=2288500, channel=0, data=[50, 0]),
   midi.NoteOnEvent(tick=2288600, channel=0, data=[56, 100]),
   midi.NoteOffEvent(tick=2288700, channel=0, data=[56, 0]),
   midi.NoteOnEvent(tick=2288800, channel=0, data=[56, 100]),
   midi.NoteOffEvent(tick=2288900, channel=0, data=[56, 0]),
   midi.NoteOnEvent(tick=2289000, channel=0, data=[36, 100]),
   midi.NoteOffEvent(tick=2289100, channel=0, data=[36, 0]),
   midi.NoteOnEvent(tick=2289200, channel=0, data=[56, 100]),
   midi.NoteOffEvent(tick=2289300, channel=0, data=[56, 0]),
   midi.NoteOnEvent(tick=2289400, channel=0, data=[36, 100]),
   midi.NoteOffEvent(tick=2289500, channel=0, data=[36, 0]),
   midi.NoteOnEvent(tick=2289600, channel=0, data=[36, 100]),
   midi.NoteOffEvent(tick=2289700, channel=0, data=[36, 0]),
   midi.NoteOnEvent(tick=2289800, channel=0, data=[36, 100]),
   midi.NoteOffEvent(tick=2289900, channel=0, data=[36, 0]),
   midi.NoteOnEvent(tick=2290000, channel=0, data=[36, 100]),
   midi.NoteOffEvent(tick=2290100, channel=0, data=[36, 0]),
   midi.NoteOnEvent(tick=2290200, channel=0, data=[22, 100]),
   midi.NoteOffEvent(tick=2290300, channel=0, data=[22, 0]),
   midi.NoteOnEvent(tick=2290400, channel=0, data=[7, 100]),
   midi.NoteOffEvent(tick=2290500, channel=0, data=[7, 0]),
   midi.NoteOnEvent(tick=2290600, channel=0, data=[4, 100]),
   midi.NoteOffEvent(tick=2290700, channel=0, data=[4, 0]),
   midi.NoteOnEvent(tick=2290800, channel=0, data=[13, 100]),
   midi.NoteOffEvent(tick=2290900, channel=0, data=[13, 0]),
   midi.NoteOnEvent(tick=2291000, channel=0, data=[36, 100]),
   midi.NoteOffEvent(tick=2291100, channel=0, data=[36, 0]),
   midi.NoteOnEvent(tick=2291200, channel=0, data=[0, 100]),
   midi.NoteOffEvent(tick=2291300, channel=0, data=[0, 0]),
   midi.NoteOnEvent(tick=2291400, channel=0, data=[36, 100]),
   midi.NoteOffEvent(tick=2291500, channel=0, data=[36, 0]),
   midi.NoteOnEvent(tick=2291600, channel=0, data=[21, 100]),
   midi.NoteOffEvent(tick=2291700, channel=0, data=[21, 0]),
   midi.NoteOnEvent(tick=2291800, channel=0, data=[0, 100]),
   midi.NoteOffEvent(tick=2291900, channel=0, data=[0, 0]),
   midi.NoteOnEvent(tick=2292000, channel=0, data=[17, 100]),
   midi.NoteOffEvent(tick=2292100, channel=0, data=[17, 0]),
   midi.NoteOnEvent(tick=2292200, channel=0, data=[8, 100]),
   midi.NoteOffEvent(tick=2292300, channel=0, data=[8, 0]),
   midi.NoteOnEvent(tick=2292400, channel=0, data=[0, 100]),
   midi.NoteOffEvent(tick=2292500, channel=0, data=[0, 0]),
   midi.NoteOnEvent(tick=2292600, channel=0, data=[1, 100]),
   midi.NoteOffEvent(tick=2292700, channel=0, data=[1, 0]),
   midi.NoteOnEvent(tick=2292800, channel=0, data=[11, 100]),
   midi.NoteOffEvent(tick=2292900, channel=0, data=[11, 0]),
   midi.NoteOnEvent(tick=2293000, channel=0, data=[4, 100]),
   midi.NoteOffEvent(tick=2293100, channel=0, data=[4, 0]),
   midi.NoteOnEvent(tick=2293200, channel=0, data=[36, 100]),
   midi.NoteOffEvent(tick=2293300, channel=0, data=[36, 0]),
   midi.NoteOnEvent(tick=2293400, channel=0, data=[2, 100]),
   midi.NoteOffEvent(tick=2293500, channel=0, data=[2, 0]),
   midi.NoteOnEvent(tick=2293600, channel=0, data=[14, 100]),
   midi.NoteOffEvent(tick=2293700, channel=0, data=[14, 0]),
   midi.NoteOnEvent(tick=2293800, channel=0, data=[13, 100]),
   midi.NoteOffEvent(tick=2293900, channel=0, data=[13, 0]),
   midi.NoteOnEvent(tick=2294000, channel=0, data=[19, 100]),
   midi.NoteOffEvent(tick=2294100, channel=0, data=[19, 0]),
   midi.NoteOnEvent(tick=2294200, channel=0, data=[0, 100]),
   midi.NoteOffEvent(tick=2294300, channel=0, data=[0, 0]),
   midi.NoteOnEvent(tick=2294400, channel=0, data=[8, 100]),
   midi.NoteOffEvent(tick=2294500, channel=0, data=[8, 0]),
   midi.NoteOnEvent(tick=2294600, channel=0, data=[13, 100]),
   midi.NoteOffEvent(tick=2294700, channel=0, data=[13, 0]),
   midi.NoteOnEvent(tick=2294800, channel=0, data=[18, 100]),
   midi.NoteOffEvent(tick=2294900, channel=0, data=[18, 0]),
   midi.NoteOnEvent(tick=2295000, channel=0, data=[36, 100]),
   midi.NoteOffEvent(tick=2295100, channel=0, data=[36, 0]),
   midi.NoteOnEvent(tick=2295200, channel=0, data=[0, 100]),
   midi.NoteOffEvent(tick=2295300, channel=0, data=[0, 0]),
   midi.NoteOnEvent(tick=2295400, channel=0, data=[36, 100]),
   midi.NoteOffEvent(tick=2295500, channel=0, data=[36, 0]),
   midi.NoteOnEvent(tick=2295600, channel=0, data=[18, 100]),
   midi.NoteOffEvent(tick=2295700, channel=0, data=[18, 0]),
   midi.NoteOnEvent(tick=2295800, channel=0, data=[19, 100]),
   midi.NoteOffEvent(tick=2295900, channel=0, data=[19, 0]),
   midi.NoteOnEvent(tick=2296000, channel=0, data=[17, 100]),
   midi.NoteOffEvent(tick=2296100, channel=0, data=[17, 0]),
   midi.NoteOnEvent(tick=2296200, channel=0, data=[8, 100]),
   midi.NoteOffEvent(tick=2296300, channel=0, data=[8, 0]),
   midi.NoteOnEvent(tick=2296400, channel=0, data=[13, 100]),
   midi.NoteOffEvent(tick=2296500, channel=0, data=[13, 0]),
   midi.NoteOnEvent(tick=2296600, channel=0, data=[6, 100]),
   midi.NoteOffEvent(tick=2296700, channel=0, data=[6, 0]),
   midi.NoteOnEvent(tick=2296800, channel=0, data=[36, 100]),
   midi.NoteOffEvent(tick=2296900, channel=0, data=[36, 0]),
   midi.NoteOnEvent(tick=2297000, channel=0, data=[21, 100]),
   midi.NoteOffEvent(tick=2297100, channel=0, data=[21, 0]),
   midi.NoteOnEvent(tick=2297200, channel=0, data=[0, 100]),
   midi.NoteOffEvent(tick=2297300, channel=0, data=[0, 0]),
   midi.NoteOnEvent(tick=2297400, channel=0, data=[11, 100]),
   midi.NoteOffEvent(tick=2297500, channel=0, data=[11, 0]),
   midi.NoteOnEvent(tick=2297600, channel=0, data=[20, 100]),
   midi.NoteOffEvent(tick=2297700, channel=0, data=[20, 0]),
   midi.NoteOnEvent(tick=2297800, channel=0, data=[4, 100]),
   midi.NoteOffEvent(tick=2297900, channel=0, data=[4, 0]),
   midi.NoteOnEvent(tick=2298000, channel=0, data=[38, 100]),
   midi.NoteOffEvent(tick=2298100, channel=0, data=[38, 0]),
   midi.NoteOnEvent(tick=2298200, channel=0, data=[36, 100]),
   midi.NoteOffEvent(tick=2298300, channel=0, data=[36, 0]),
   midi.NoteOnEvent(tick=2298400, channel=0, data=[22, 100]),
   midi.NoteOffEvent(tick=2298500, channel=0, data=[22, 0]),
   midi.NoteOnEvent(tick=2298600, channel=0, data=[8, 100]),
   midi.NoteOffEvent(tick=2298700, channel=0, data=[8, 0]),
   midi.NoteOnEvent(tick=2298800, channel=0, data=[13, 100]),
   midi.NoteOffEvent(tick=2298900, channel=0, data=[13, 0]),
   midi.NoteOnEvent(tick=2299000, channel=0, data=[3, 100]),
   midi.NoteOffEvent(tick=2299100, channel=0, data=[3, 0]),
   midi.NoteOnEvent(tick=2299200, channel=0, data=[14, 100]),
   midi.NoteOffEvent(tick=2299300, channel=0, data=[14, 0]),
   midi.NoteOnEvent(tick=2299400, channel=0, data=[22, 100]),
   midi.NoteOffEvent(tick=2299500, channel=0, data=[22, 0]),
   midi.NoteOnEvent(tick=2299600, channel=0, data=[18, 100]),
   midi.NoteOffEvent(tick=2299700, channel=0, data=[18, 0]),
   midi.NoteOnEvent(tick=2299800, channel=0, data=[36, 100]),
   midi.NoteOffEvent(tick=2299900, channel=0, data=[36, 0]),
   midi.NoteOnEvent(tick=2300000, channel=0, data=[15, 100]),
   midi.NoteOffEvent(tick=2300100, channel=0, data=[15, 0]),
   midi.NoteOnEvent(tick=2300200, channel=0, data=[14, 100]),
   midi.NoteOffEvent(tick=2300300, channel=0, data=[14, 0]),
   midi.NoteOnEvent(tick=2300400, channel=0, data=[22, 100]),
   midi.NoteOffEvent(tick=2300500, channel=0, data=[22, 0]),
   midi.NoteOnEvent(tick=2300600, channel=0, data=[4, 100]),
   midi.NoteOffEvent(tick=2300700, channel=0, data=[4, 0]),
   midi.NoteOnEvent(tick=2300800, channel=0, data=[17, 100]),
   midi.NoteOffEvent(tick=2300900, channel=0, data=[17, 0]),
   midi.NoteOnEvent(tick=2301000, channel=0, data=[18, 100]),
   midi.NoteOffEvent(tick=2301100, channel=0, data=[18, 0]),
   midi.NoteOnEvent(tick=2301200, channel=0, data=[7, 100]),
   midi.NoteOffEvent(tick=2301300, channel=0, data=[7, 0]),
   midi.NoteOnEvent(tick=2301400, channel=0, data=[4, 100]),
   midi.NoteOffEvent(tick=2301500, channel=0, data=[4, 0]),
   midi.NoteOnEvent(tick=2301600, channel=0, data=[11, 100]),
   midi.NoteOffEvent(tick=2301700, channel=0, data=[11, 0]),
   midi.NoteOnEvent(tick=2301800, channel=0, data=[11, 100]),
   midi.NoteOffEvent(tick=2301900, channel=0, data=[11, 0]),
   midi.NoteOnEvent(tick=2302000, channel=0, data=[36, 100]),
   midi.NoteOffEvent(tick=2302100, channel=0, data=[36, 0]),
   midi.NoteOnEvent(tick=2302200, channel=0, data=[0, 100]),
   midi.NoteOffEvent(tick=2302300, channel=0, data=[0, 0]),
   midi.NoteOnEvent(tick=2302400, channel=0, data=[15, 100]),
   midi.NoteOffEvent(tick=2302500, channel=0, data=[15, 0]),
   midi.NoteOnEvent(tick=2302600, channel=0, data=[15, 100]),
   midi.NoteOffEvent(tick=2302700, channel=0, data=[15, 0]),
   midi.NoteOnEvent(tick=2302800, channel=0, data=[4, 100]),
   midi.NoteOffEvent(tick=2302900, channel=0, data=[4, 0]),
   midi.NoteOnEvent(tick=2303000, channel=0, data=[13, 100]),
   midi.NoteOffEvent(tick=2303100, channel=0, data=[13, 0]),
   midi.NoteOnEvent(tick=2303200, channel=0, data=[3, 100]),
   midi.NoteOffEvent(tick=2303300, channel=0, data=[3, 0]),
   midi.NoteOnEvent(tick=2303400, channel=0, data=[18, 100]),
   midi.NoteOffEvent(tick=2303500, channel=0, data=[18, 0]),
   midi.NoteOnEvent(tick=2303600, channel=0, data=[36, 100]),
   midi.NoteOffEvent(tick=2303700, channel=0, data=[36, 0]),
   midi.NoteOnEvent(tick=2303800, channel=0, data=[19, 100]),
   midi.NoteOffEvent(tick=2303900, channel=0, data=[19, 0]),
   midi.NoteOnEvent(tick=2304000, channel=0, data=[7, 100]),
   midi.NoteOffEvent(tick=2304100, channel=0, data=[7, 0]),
   midi.NoteOnEvent(tick=2304200, channel=0, data=[4, 100]),
   midi.NoteOffEvent(tick=2304300, channel=0, data=[4, 0]),
   midi.NoteOnEvent(tick=2304400, channel=0, data=[36, 100]),
   midi.NoteOffEvent(tick=2304500, channel=0, data=[36, 0]),
   midi.NoteOnEvent(tick=2304600, channel=0, data=[56, 100]),
   midi.NoteOffEvent(tick=2304700, channel=0, data=[56, 0]),
   midi.NoteOnEvent(tick=2304800, channel=0, data=[36, 100]),
   midi.NoteOffEvent(tick=2304900, channel=0, data=[36, 0]),
   midi.NoteOnEvent(tick=2305000, channel=0, data=[36, 100]),
   midi.NoteOffEvent(tick=2305100, channel=0, data=[36, 0]),
   midi.NoteOnEvent(tick=2305200, channel=0, data=[36, 100]),
   midi.NoteOffEvent(tick=2305300, channel=0, data=[36, 0]),
   midi.NoteOnEvent(tick=2305400, channel=0, data=[36, 100]),
   midi.NoteOffEvent(tick=2305500, channel=0, data=[36, 0]),
   midi.NoteOnEvent(tick=2305600, channel=0, data=[18, 100]),
   midi.NoteOffEvent(tick=2305700, channel=0, data=[18, 0]),
   midi.NoteOnEvent(tick=2305800, channel=0, data=[15, 100]),
   midi.NoteOffEvent(tick=2305900, channel=0, data=[15, 0]),
   midi.NoteOnEvent(tick=2306000, channel=0, data=[4, 100]),
   midi.NoteOffEvent(tick=2306100, channel=0, data=[4, 0]),
   midi.NoteOnEvent(tick=2306200, channel=0, data=[2, 100]),
   midi.NoteOffEvent(tick=2306300, channel=0, data=[2, 0]),
   midi.NoteOnEvent(tick=2306400, channel=0, data=[8, 100]),
   midi.NoteOffEvent(tick=2306500, channel=0, data=[8, 0]),
   midi.NoteOnEvent(tick=2306600, channel=0, data=[5, 100]),
   midi.NoteOffEvent(tick=2306700, channel=0, data=[5, 0]),
   midi.NoteOnEvent(tick=2306800, channel=0, data=[8, 100]),
   midi.NoteOffEvent(tick=2306900, channel=0, data=[8, 0]),
   midi.NoteOnEvent(tick=2307000, channel=0, data=[4, 100]),
   midi.NoteOffEvent(tick=2307100, channel=0, data=[4, 0]),
   midi.NoteOnEvent(tick=2307200, channel=0, data=[3, 100]),
   midi.NoteOffEvent(tick=2307300, channel=0, data=[3, 0]),
   midi.NoteOnEvent(tick=2307400, channel=0, data=[36, 100]),
   midi.NoteOffEvent(tick=2307500, channel=0, data=[36, 0]),
   midi.NoteOnEvent(tick=2307600, channel=0, data=[13, 100]),
   midi.NoteOffEvent(tick=2307700, channel=0, data=[13, 0]),
   midi.NoteOnEvent(tick=2307800, channel=0, data=[20, 100]),
   midi.NoteOffEvent(tick=2307900, channel=0, data=[20, 0]),
   midi.NoteOnEvent(tick=2308000, channel=0, data=[12, 100]),
   midi.NoteOffEvent(tick=2308100, channel=0, data=[12, 0]),
   midi.NoteOnEvent(tick=2308200, channel=0, data=[1, 100]),
   midi.NoteOffEvent(tick=2308300, channel=0, data=[1, 0]),
   midi.NoteOnEvent(tick=2308400, channel=0, data=[4, 100]),
   midi.NoteOffEvent(tick=2308500, channel=0, data=[4, 0]),
   midi.NoteOnEvent(tick=2308600, channel=0, data=[17, 100]),
   midi.NoteOffEvent(tick=2308700, channel=0, data=[17, 0]),
   midi.NoteOnEvent(tick=2308800, channel=0, data=[36, 100]),
   midi.NoteOffEvent(tick=2308900, channel=0, data=[36, 0]),
   midi.NoteOnEvent(tick=2309000, channel=0, data=[14, 100]),
   midi.NoteOffEvent(tick=2309100, channel=0, data=[14, 0]),
   midi.NoteOnEvent(tick=2309200, channel=0, data=[5, 100]),
   midi.NoteOffEvent(tick=2309300, channel=0, data=[5, 0]),
   midi.NoteOnEvent(tick=2309400, channel=0, data=[36, 100]),
   midi.NoteOffEvent(tick=2309500, channel=0, data=[36, 0]),
   midi.NoteOnEvent(tick=2309600, channel=0, data=[18, 100]),
   midi.NoteOffEvent(tick=2309700, channel=0, data=[18, 0]),
   midi.NoteOnEvent(tick=2309800, channel=0, data=[19, 100]),
   midi.NoteOffEvent(tick=2309900, channel=0, data=[19, 0]),
   midi.NoteOnEvent(tick=2310000, channel=0, data=[17, 100]),
   midi.NoteOffEvent(tick=2310100, channel=0, data=[17, 0]),
   midi.NoteOnEvent(tick=2310200, channel=0, data=[8, 100]),
   midi.NoteOffEvent(tick=2310300, channel=0, data=[8, 0]),
   midi.NoteOnEvent(tick=2310400, channel=0, data=[13, 100]),
   midi.NoteOffEvent(tick=2310500, channel=0, data=[13, 0]),
   midi.NoteOnEvent(tick=2310600, channel=0, data=[6, 100]),
   midi.NoteOffEvent(tick=2310700, channel=0, data=[6, 0]),
   midi.NoteOnEvent(tick=2310800, channel=0, data=[18, 100]),
   midi.NoteOffEvent(tick=2310900, channel=0, data=[18, 0]),
   midi.NoteOnEvent(tick=2311000, channel=0, data=[36, 100]),
   midi.NoteOffEvent(tick=2311100, channel=0, data=[36, 0]),
   midi.NoteOnEvent(tick=2311200, channel=0, data=[19, 100]),
   midi.NoteOffEvent(tick=2311300, channel=0, data=[19, 0]),
   midi.NoteOnEvent(tick=2311400, channel=0, data=[14, 100]),
   midi.NoteOffEvent(tick=2311500, channel=0, data=[14, 0]),
   midi.NoteOnEvent(tick=2311600, channel=0, data=[36, 100]),
   midi.NoteOffEvent(tick=2311700, channel=0, data=[36, 0]),
   midi.NoteOnEvent(tick=2311800, channel=0, data=[19, 100]),
   midi.NoteOffEvent(tick=2311900, channel=0, data=[19, 0]),
   midi.NoteOnEvent(tick=2312000, channel=0, data=[7, 100]),
   midi.NoteOffEvent(tick=2312100, channel=0, data=[7, 0]),
   midi.NoteOnEvent(tick=2312200, channel=0, data=[4, 100]),
   midi.NoteOffEvent(tick=2312300, channel=0, data=[4, 0]),
   midi.NoteOnEvent(tick=2312400, channel=0, data=[36, 100]),
   midi.NoteOffEvent(tick=2312500, channel=0, data=[36, 0]),
   midi.NoteOnEvent(tick=2312600, channel=0, data=[21, 100]),
   midi.NoteOffEvent(tick=2312700, channel=0, data=[21, 0]),
   midi.NoteOnEvent(tick=2312800, channel=0, data=[0, 100]),
   midi.NoteOffEvent(tick=2312900, channel=0, data=[0, 0]),
   midi.NoteOnEvent(tick=2313000, channel=0, data=[11, 100]),
   midi.NoteOffEvent(tick=2313100, channel=0, data=[11, 0]),
   midi.NoteOnEvent(tick=2313200, channel=0, data=[20, 100]),
   midi.NoteOffEvent(tick=2313300, channel=0, data=[20, 0]),
   midi.NoteOnEvent(tick=2313400, channel=0, data=[4, 100]),
   midi.NoteOffEvent(tick=2313500, channel=0, data=[4, 0]),
   midi.NoteOnEvent(tick=2313600, channel=0, data=[38, 100]),
   midi.NoteOffEvent(tick=2313700, channel=0, data=[38, 0]),
   midi.NoteOnEvent(tick=2313800, channel=0, data=[36, 100]),
   midi.NoteOffEvent(tick=2313900, channel=0, data=[36, 0]),
   midi.NoteOnEvent(tick=2314000, channel=0, data=[0, 100]),
   midi.NoteOffEvent(tick=2314100, channel=0, data=[0, 0]),
   midi.NoteOnEvent(tick=2314200, channel=0, data=[18, 100]),
   midi.NoteOffEvent(tick=2314300, channel=0, data=[18, 0]),
   midi.NoteOnEvent(tick=2314400, channel=0, data=[36, 100]),
   midi.NoteOffEvent(tick=2314500, channel=0, data=[36, 0]),
   midi.NoteOnEvent(tick=2314600, channel=0, data=[5, 100]),
   midi.NoteOffEvent(tick=2314700, channel=0, data=[5, 0]),
   midi.NoteOnEvent(tick=2314800, channel=0, data=[14, 100]),
   midi.NoteOffEvent(tick=2314900, channel=0, data=[14, 0]),
   midi.NoteOnEvent(tick=2315000, channel=0, data=[11, 100]),
   midi.NoteOffEvent(tick=2315100, channel=0, data=[11, 0]),
   midi.NoteOnEvent(tick=2315200, channel=0, data=[11, 100]),
   midi.NoteOffEvent(tick=2315300, channel=0, data=[11, 0]),
   midi.NoteOnEvent(tick=2315400, channel=0, data=[14, 100]),
   midi.NoteOffEvent(tick=2315500, channel=0, data=[14, 0]),
   midi.NoteOnEvent(tick=2315600, channel=0, data=[22, 100]),
   midi.NoteOffEvent(tick=2315700, channel=0, data=[22, 0]),
   midi.NoteOnEvent(tick=2315800, channel=0, data=[18, 100]),
   midi.NoteOffEvent(tick=2315900, channel=0, data=[18, 0]),
   midi.NoteOnEvent(tick=2316000, channel=0, data=[46, 100]),
   midi.NoteOffEvent(tick=2316100, channel=0, data=[46, 0]),
   midi.NoteOnEvent(tick=2316200, channel=0, data=[56, 100]),
   midi.NoteOffEvent(tick=2316300, channel=0, data=[56, 0]),
   midi.NoteOnEvent(tick=2316400, channel=0, data=[56, 100]),
   midi.NoteOffEvent(tick=2316500, channel=0, data=[56, 0]),
   midi.NoteOnEvent(tick=2316600, channel=0, data=[56, 100]),
   midi.NoteOffEvent(tick=2316700, channel=0, data=[56, 0]),
   midi.NoteOnEvent(tick=2316800, channel=0, data=[36, 100]),
   midi.NoteOffEvent(tick=2316900, channel=0, data=[36, 0]),
   midi.NoteOnEvent(tick=2317000, channel=0, data=[36, 100]),
   midi.NoteOffEvent(tick=2317100, channel=0, data=[36, 0]),
   midi.NoteOnEvent(tick=2317200, channel=0, data=[36, 100]),
   midi.NoteOffEvent(tick=2317300, channel=0, data=[36, 0]),
   midi.NoteOnEvent(tick=2317400, channel=0, data=[36, 100]),
   midi.NoteOffEvent(tick=2317500, channel=0, data=[36, 0]),
   midi.NoteOnEvent(tick=2317600, channel=0, data=[36, 100]),
   midi.NoteOffEvent(tick=2317700, channel=0, data=[36, 0]),
   midi.NoteOnEvent(tick=2317800, channel=0, data=[36, 100]),
   midi.NoteOffEvent(tick=2317900, channel=0, data=[36, 0]),
   midi.NoteOnEvent(tick=2318000, channel=0, data=[36, 100]),
   midi.NoteOffEvent(tick=2318100, channel=0, data=[36, 0]),
   midi.NoteOnEvent(tick=2318200, channel=0, data=[36, 100]),
   midi.NoteOffEvent(tick=2318300, channel=0, data=[36, 0]),
   midi.NoteOnEvent(tick=2318400, channel=0, data=[2, 100]),
   midi.NoteOffEvent(tick=2318500, channel=0, data=[2, 0]),
   midi.NoteOnEvent(tick=2318600, channel=0, data=[46, 100]),
   midi.NoteOffEvent(tick=2318700, channel=0, data=[46, 0]),
   midi.NoteOnEvent(tick=2318800, channel=0, data=[78, 100]),
   midi.NoteOffEvent(tick=2318900, channel=0, data=[78, 0]),
   midi.NoteOnEvent(tick=2319000, channel=0, data=[15, 100]),
   midi.NoteOffEvent(tick=2319100, channel=0, data=[15, 0]),
   midi.NoteOnEvent(tick=2319200, channel=0, data=[18, 100]),
   midi.NoteOffEvent(tick=2319300, channel=0, data=[18, 0]),
   midi.NoteOnEvent(tick=2319400, channel=0, data=[73, 100]),
   midi.NoteOffEvent(tick=2319500, channel=0, data=[73, 0]),
   midi.NoteOnEvent(tick=2319600, channel=0, data=[36, 100]),
   midi.NoteOffEvent(tick=2319700, channel=0, data=[36, 0]),
   midi.NoteOnEvent(tick=2319800, channel=0, data=[74, 100]),
   midi.NoteOffEvent(tick=2319900, channel=0, data=[74, 0]),
   midi.NoteOnEvent(tick=2320000, channel=0, data=[0, 100]),
   midi.NoteOffEvent(tick=2320100, channel=0, data=[0, 0]),
   midi.NoteOnEvent(tick=2320200, channel=0, data=[36, 100]),
   midi.NoteOffEvent(tick=2320300, channel=0, data=[36, 0]),
   midi.NoteOnEvent(tick=2320400, channel=0, data=[69, 100]),
   midi.NoteOffEvent(tick=2320500, channel=0, data=[69, 0]),
   midi.NoteOnEvent(tick=2320600, channel=0, data=[36, 100]),
   midi.NoteOffEvent(tick=2320700, channel=0, data=[36, 0]),
   midi.NoteOnEvent(tick=2320800, channel=0, data=[41, 100]),
   midi.NoteOffEvent(tick=2320900, channel=0, data=[41, 0]),
   midi.NoteOnEvent(tick=2321000, channel=0, data=[5, 100]),
   midi.NoteOffEvent(tick=2321100, channel=0, data=[5, 0]),
   midi.NoteOnEvent(tick=2321200, channel=0, data=[8, 100]),
   midi.NoteOffEvent(tick=2321300, channel=0, data=[8, 0]),
   midi.NoteOnEvent(tick=2321400, channel=0, data=[11, 100]),
   midi.NoteOffEvent(tick=2321500, channel=0, data=[11, 0]),
   midi.NoteOnEvent(tick=2321600, channel=0, data=[4, 100]),
   midi.NoteOffEvent(tick=2321700, channel=0, data=[4, 0]),
   midi.NoteOnEvent(tick=2321800, channel=0, data=[41, 100]),
   midi.NoteOffEvent(tick=2321900, channel=0, data=[41, 0]),
   midi.NoteOnEvent(tick=2322000, channel=0, data=[56, 100]),
   midi.NoteOffEvent(tick=2322100, channel=0, data=[56, 0]),
   midi.NoteOnEvent(tick=2322200, channel=0, data=[36, 100]),
   midi.NoteOffEvent(tick=2322300, channel=0, data=[36, 0]),
   midi.NoteOnEvent(tick=2322400, channel=0, data=[36, 100]),
   midi.NoteOffEvent(tick=2322500, channel=0, data=[36, 0]),
   midi.NoteOnEvent(tick=2322600, channel=0, data=[36, 100]),
   midi.NoteOffEvent(tick=2322700, channel=0, data=[36, 0]),
   midi.NoteOnEvent(tick=2322800, channel=0, data=[36, 100]),
   midi.NoteOffEvent(tick=2322900, channel=0, data=[36, 0]),
   midi.NoteOnEvent(tick=2323000, channel=0, data=[36, 100]),
   midi.NoteOffEvent(tick=2323100, channel=0, data=[36, 0]),
   midi.NoteOnEvent(tick=2323200, channel=0, data=[36, 100]),
   midi.NoteOffEvent(tick=2323300, channel=0, data=[36, 0]),
   midi.NoteOnEvent(tick=2323400, channel=0, data=[36, 100]),
   midi.NoteOffEvent(tick=2323500, channel=0, data=[36, 0]),
   midi.NoteOnEvent(tick=2323600, channel=0, data=[36, 100]),
   midi.NoteOffEvent(tick=2323700, channel=0, data=[36, 0]),
   midi.NoteOnEvent(tick=2323800, channel=0, data=[2, 100]),
   midi.NoteOffEvent(tick=2323900, channel=0, data=[2, 0]),
   midi.NoteOnEvent(tick=2324000, channel=0, data=[46, 100]),
   midi.NoteOffEvent(tick=2324100, channel=0, data=[46, 0]),
   midi.NoteOnEvent(tick=2324200, channel=0, data=[78, 100]),
   midi.NoteOffEvent(tick=2324300, channel=0, data=[78, 0]),
   midi.NoteOnEvent(tick=2324400, channel=0, data=[15, 100]),
   midi.NoteOffEvent(tick=2324500, channel=0, data=[15, 0]),
   midi.NoteOnEvent(tick=2324600, channel=0, data=[18, 100]),
   midi.NoteOffEvent(tick=2324700, channel=0, data=[18, 0]),
   midi.NoteOnEvent(tick=2324800, channel=0, data=[73, 100]),
   midi.NoteOffEvent(tick=2324900, channel=0, data=[73, 0]),
   midi.NoteOnEvent(tick=2325000, channel=0, data=[36, 100]),
   midi.NoteOffEvent(tick=2325100, channel=0, data=[36, 0]),
   midi.NoteOnEvent(tick=2325200, channel=0, data=[74, 100]),
   midi.NoteOffEvent(tick=2325300, channel=0, data=[74, 0]),
   midi.NoteOnEvent(tick=2325400, channel=0, data=[0, 100]),
   midi.NoteOffEvent(tick=2325500, channel=0, data=[0, 0]),
   midi.NoteOnEvent(tick=2325600, channel=0, data=[36, 100]),
   midi.NoteOffEvent(tick=2325700, channel=0, data=[36, 0]),
   midi.NoteOnEvent(tick=2325800, channel=0, data=[48, 100]),
   midi.NoteOffEvent(tick=2325900, channel=0, data=[48, 0]),
   midi.NoteOnEvent(tick=2326000, channel=0, data=[69, 100]),
   midi.NoteOffEvent(tick=2326100, channel=0, data=[69, 0]),
   midi.NoteOnEvent(tick=2326200, channel=0, data=[36, 100]),
   midi.NoteOffEvent(tick=2326300, channel=0, data=[36, 0]),
   midi.NoteOnEvent(tick=2326400, channel=0, data=[30, 100]),
   midi.NoteOffEvent(tick=2326500, channel=0, data=[30, 0]),
   midi.NoteOnEvent(tick=2326600, channel=0, data=[36, 100]),
   midi.NoteOffEvent(tick=2326700, channel=0, data=[36, 0]),
   midi.NoteOnEvent(tick=2326800, channel=0, data=[56, 100]),
   midi.NoteOffEvent(tick=2326900, channel=0, data=[56, 0]),
   midi.NoteOnEvent(tick=2327000, channel=0, data=[36, 100]),
   midi.NoteOffEvent(tick=2327100, channel=0, data=[36, 0]),
   midi.NoteOnEvent(tick=2327200, channel=0, data=[36, 100]),
   midi.NoteOffEvent(tick=2327300, channel=0, data=[36, 0]),
   midi.NoteOnEvent(tick=2327400, channel=0, data=[36, 100]),
   midi.NoteOffEvent(tick=2327500, channel=0, data=[36, 0]),
   midi.NoteOnEvent(tick=2327600, channel=0, data=[36, 100]),
   midi.NoteOffEvent(tick=2327700, channel=0, data=[36, 0]),
   midi.NoteOnEvent(tick=2327800, channel=0, data=[36, 100]),
   midi.NoteOffEvent(tick=2327900, channel=0, data=[36, 0]),
   midi.NoteOnEvent(tick=2328000, channel=0, data=[36, 100]),
   midi.NoteOffEvent(tick=2328100, channel=0, data=[36, 0]),
   midi.NoteOnEvent(tick=2328200, channel=0, data=[36, 100]),
   midi.NoteOffEvent(tick=2328300, channel=0, data=[36, 0]),
   midi.NoteOnEvent(tick=2328400, channel=0, data=[36, 100]),
   midi.NoteOffEvent(tick=2328500, channel=0, data=[36, 0]),
   midi.NoteOnEvent(tick=2328600, channel=0, data=[2, 100]),
   midi.NoteOffEvent(tick=2328700, channel=0, data=[2, 0]),
   midi.NoteOnEvent(tick=2328800, channel=0, data=[46, 100]),
   midi.NoteOffEvent(tick=2328900, channel=0, data=[46, 0]),
   midi.NoteOnEvent(tick=2329000, channel=0, data=[78, 100]),
   midi.NoteOffEvent(tick=2329100, channel=0, data=[78, 0]),
   midi.NoteOnEvent(tick=2329200, channel=0, data=[15, 100]),
   midi.NoteOffEvent(tick=2329300, channel=0, data=[15, 0]),
   midi.NoteOnEvent(tick=2329400, channel=0, data=[18, 100]),
   midi.NoteOffEvent(tick=2329500, channel=0, data=[18, 0]),
   midi.NoteOnEvent(tick=2329600, channel=0, data=[73, 100]),
   midi.NoteOffEvent(tick=2329700, channel=0, data=[73, 0]),
   midi.NoteOnEvent(tick=2329800, channel=0, data=[36, 100]),
   midi.NoteOffEvent(tick=2329900, channel=0, data=[36, 0]),
   midi.NoteOnEvent(tick=2330000, channel=0, data=[74, 100]),
   midi.NoteOffEvent(tick=2330100, channel=0, data=[74, 0]),
   midi.NoteOnEvent(tick=2330200, channel=0, data=[0, 100]),
   midi.NoteOffEvent(tick=2330300, channel=0, data=[0, 0]),
   midi.NoteOnEvent(tick=2330400, channel=0, data=[56, 100]),
   midi.NoteOffEvent(tick=2330500, channel=0, data=[56, 0]),
   midi.NoteOnEvent(tick=2330600, channel=0, data=[36, 100]),
   midi.NoteOffEvent(tick=2330700, channel=0, data=[36, 0]),
   midi.NoteOnEvent(tick=2330800, channel=0, data=[36, 100]),
   midi.NoteOffEvent(tick=2330900, channel=0, data=[36, 0]),
   midi.NoteOnEvent(tick=2331000, channel=0, data=[36, 100]),
   midi.NoteOffEvent(tick=2331100, channel=0, data=[36, 0]),
   midi.NoteOnEvent(tick=2331200, channel=0, data=[36, 100]),
   midi.NoteOffEvent(tick=2331300, channel=0, data=[36, 0]),
   midi.NoteOnEvent(tick=2331400, channel=0, data=[36, 100]),
   midi.NoteOffEvent(tick=2331500, channel=0, data=[36, 0]),
   midi.NoteOnEvent(tick=2331600, channel=0, data=[36, 100]),
   midi.NoteOffEvent(tick=2331700, channel=0, data=[36, 0]),
   midi.NoteOnEvent(tick=2331800, channel=0, data=[36, 100]),
   midi.NoteOffEvent(tick=2331900, channel=0, data=[36, 0]),
   midi.NoteOnEvent(tick=2332000, channel=0, data=[36, 100]),
   midi.NoteOffEvent(tick=2332100, channel=0, data=[36, 0]),
   midi.NoteOnEvent(tick=2332200, channel=0, data=[5, 100]),
   midi.NoteOffEvent(tick=2332300, channel=0, data=[5, 0]),
   midi.NoteOnEvent(tick=2332400, channel=0, data=[8, 100]),
   midi.NoteOffEvent(tick=2332500, channel=0, data=[8, 0]),
   midi.NoteOnEvent(tick=2332600, channel=0, data=[11, 100]),
   midi.NoteOffEvent(tick=2332700, channel=0, data=[11, 0]),
   midi.NoteOnEvent(tick=2332800, channel=0, data=[4, 100]),
   midi.NoteOffEvent(tick=2332900, channel=0, data=[4, 0]),
   midi.NoteOnEvent(tick=2333000, channel=0, data=[5, 100]),
   midi.NoteOffEvent(tick=2333100, channel=0, data=[5, 0]),
   midi.NoteOnEvent(tick=2333200, channel=0, data=[8, 100]),
   midi.NoteOffEvent(tick=2333300, channel=0, data=[8, 0]),
   midi.NoteOnEvent(tick=2333400, channel=0, data=[11, 100]),
   midi.NoteOffEvent(tick=2333500, channel=0, data=[11, 0]),
   midi.NoteOnEvent(tick=2333600, channel=0, data=[4, 100]),
   midi.NoteOffEvent(tick=2333700, channel=0, data=[4, 0]),
   midi.NoteOnEvent(tick=2333800, channel=0, data=[5, 100]),
   midi.NoteOffEvent(tick=2333900, channel=0, data=[5, 0]),
   midi.NoteOnEvent(tick=2334000, channel=0, data=[8, 100]),
   midi.NoteOffEvent(tick=2334100, channel=0, data=[8, 0]),
   midi.NoteOnEvent(tick=2334200, channel=0, data=[11, 100]),
   midi.NoteOffEvent(tick=2334300, channel=0, data=[11, 0]),
   midi.NoteOnEvent(tick=2334400, channel=0, data=[4, 100]),
   midi.NoteOffEvent(tick=2334500, channel=0, data=[4, 0]),
   midi.NoteOnEvent(tick=2334600, channel=0, data=[5, 100]),
   midi.NoteOffEvent(tick=2334700, channel=0, data=[5, 0]),
   midi.NoteOnEvent(tick=2334800, channel=0, data=[8, 100]),
   midi.NoteOffEvent(tick=2334900, channel=0, data=[8, 0]),
   midi.NoteOnEvent(tick=2335000, channel=0, data=[11, 100]),
   midi.NoteOffEvent(tick=2335100, channel=0, data=[11, 0]),
   midi.NoteOnEvent(tick=2335200, channel=0, data=[4, 100]),
   midi.NoteOffEvent(tick=2335300, channel=0, data=[4, 0]),
   midi.NoteOnEvent(tick=2335400, channel=0, data=[56, 100]),
   midi.NoteOffEvent(tick=2335500, channel=0, data=[56, 0]),
   midi.NoteOnEvent(tick=2335600, channel=0, data=[56, 100]),
   midi.NoteOffEvent(tick=2335700, channel=0, data=[56, 0]),
   midi.NoteOnEvent(tick=2335800, channel=0, data=[36, 100]),
   midi.NoteOffEvent(tick=2335900, channel=0, data=[36, 0]),
   midi.NoteOnEvent(tick=2336000, channel=0, data=[56, 100]),
   midi.NoteOffEvent(tick=2336100, channel=0, data=[56, 0]),
   midi.NoteOnEvent(tick=2336200, channel=0, data=[36, 100]),
   midi.NoteOffEvent(tick=2336300, channel=0, data=[36, 0]),
   midi.NoteOnEvent(tick=2336400, channel=0, data=[36, 100]),
   midi.NoteOffEvent(tick=2336500, channel=0, data=[36, 0]),
   midi.NoteOnEvent(tick=2336600, channel=0, data=[36, 100]),
   midi.NoteOffEvent(tick=2336700, channel=0, data=[36, 0]),
   midi.NoteOnEvent(tick=2336800, channel=0, data=[36, 100]),
   midi.NoteOffEvent(tick=2336900, channel=0, data=[36, 0]),
   midi.NoteOnEvent(tick=2337000, channel=0, data=[19, 100]),
   midi.NoteOffEvent(tick=2337100, channel=0, data=[19, 0]),
   midi.NoteOnEvent(tick=2337200, channel=0, data=[14, 100]),
   midi.NoteOffEvent(tick=2337300, channel=0, data=[14, 0]),
   midi.NoteOnEvent(tick=2337400, channel=0, data=[36, 100]),
   midi.NoteOffEvent(tick=2337500, channel=0, data=[36, 0]),
   midi.NoteOnEvent(tick=2337600, channel=0, data=[12, 100]),
   midi.NoteOffEvent(tick=2337700, channel=0, data=[12, 0]),
   midi.NoteOnEvent(tick=2337800, channel=0, data=[20, 100]),
   midi.NoteOffEvent(tick=2337900, channel=0, data=[20, 0]),
   midi.NoteOnEvent(tick=2338000, channel=0, data=[11, 100]),
   midi.NoteOffEvent(tick=2338100, channel=0, data=[11, 0]),
   midi.NoteOnEvent(tick=2338200, channel=0, data=[19, 100]),
   midi.NoteOffEvent(tick=2338300, channel=0, data=[19, 0]),
   midi.NoteOnEvent(tick=2338400, channel=0, data=[8, 100]),
   midi.NoteOffEvent(tick=2338500, channel=0, data=[8, 0]),
   midi.NoteOnEvent(tick=2338600, channel=0, data=[15, 100]),
   midi.NoteOffEvent(tick=2338700, channel=0, data=[15, 0]),
   midi.NoteOnEvent(tick=2338800, channel=0, data=[11, 100]),
   midi.NoteOffEvent(tick=2338900, channel=0, data=[11, 0]),
   midi.NoteOnEvent(tick=2339000, channel=0, data=[24, 100]),
   midi.NoteOffEvent(tick=2339100, channel=0, data=[24, 0]),
   midi.NoteOnEvent(tick=2339200, channel=0, data=[36, 100]),
   midi.NoteOffEvent(tick=2339300, channel=0, data=[36, 0]),
   midi.NoteOnEvent(tick=2339400, channel=0, data=[0, 100]),
   midi.NoteOffEvent(tick=2339500, channel=0, data=[0, 0]),
   midi.NoteOnEvent(tick=2339600, channel=0, data=[13, 100]),
   midi.NoteOffEvent(tick=2339700, channel=0, data=[13, 0]),
   midi.NoteOnEvent(tick=2339800, channel=0, data=[36, 100]),
   midi.NoteOffEvent(tick=2339900, channel=0, data=[36, 0]),
   midi.NoteOnEvent(tick=2340000, channel=0, data=[4, 100]),
   midi.NoteOffEvent(tick=2340100, channel=0, data=[4, 0]),
   midi.NoteOnEvent(tick=2340200, channel=0, data=[11, 100]),
   midi.NoteOffEvent(tick=2340300, channel=0, data=[11, 0]),
   midi.NoteOnEvent(tick=2340400, channel=0, data=[4, 100]),
   midi.NoteOffEvent(tick=2340500, channel=0, data=[4, 0]),
   midi.NoteOnEvent(tick=2340600, channel=0, data=[12, 100]),
   midi.NoteOffEvent(tick=2340700, channel=0, data=[12, 0]),
   midi.NoteOnEvent(tick=2340800, channel=0, data=[4, 100]),
   midi.NoteOffEvent(tick=2340900, channel=0, data=[4, 0]),
   midi.NoteOnEvent(tick=2341000, channel=0, data=[13, 100]),
   midi.NoteOffEvent(tick=2341100, channel=0, data=[13, 0]),
   midi.NoteOnEvent(tick=2341200, channel=0, data=[19, 100]),
   midi.NoteOffEvent(tick=2341300, channel=0, data=[19, 0]),
   midi.NoteOnEvent(tick=2341400, channel=0, data=[36, 100]),
   midi.NoteOffEvent(tick=2341500, channel=0, data=[36, 0]),
   midi.NoteOnEvent(tick=2341600, channel=0, data=[14, 100]),
   midi.NoteOffEvent(tick=2341700, channel=0, data=[14, 0]),
   midi.NoteOnEvent(tick=2341800, channel=0, data=[5, 100]),
   midi.NoteOffEvent(tick=2341900, channel=0, data=[5, 0]),
   midi.NoteOnEvent(tick=2342000, channel=0, data=[36, 100]),
   midi.NoteOffEvent(tick=2342100, channel=0, data=[36, 0]),
   midi.NoteOnEvent(tick=2342200, channel=0, data=[0, 100]),
   midi.NoteOffEvent(tick=2342300, channel=0, data=[0, 0]),
   midi.NoteOnEvent(tick=2342400, channel=0, data=[13, 100]),
   midi.NoteOffEvent(tick=2342500, channel=0, data=[13, 0]),
   midi.NoteOnEvent(tick=2342600, channel=0, data=[36, 100]),
   midi.NoteOffEvent(tick=2342700, channel=0, data=[36, 0]),
   midi.NoteOnEvent(tick=2342800, channel=0, data=[0, 100]),
   midi.NoteOffEvent(tick=2342900, channel=0, data=[0, 0]),
   midi.NoteOnEvent(tick=2343000, channel=0, data=[17, 100]),
   midi.NoteOffEvent(tick=2343100, channel=0, data=[17, 0]),
   midi.NoteOnEvent(tick=2343200, channel=0, data=[17, 100]),
   midi.NoteOffEvent(tick=2343300, channel=0, data=[17, 0]),
   midi.NoteOnEvent(tick=2343400, channel=0, data=[0, 100]),
   midi.NoteOffEvent(tick=2343500, channel=0, data=[0, 0]),
   midi.NoteOnEvent(tick=2343600, channel=0, data=[24, 100]),
   midi.NoteOffEvent(tick=2343700, channel=0, data=[24, 0]),
   midi.NoteOnEvent(tick=2343800, channel=0, data=[38, 100]),
   midi.NoteOffEvent(tick=2343900, channel=0, data=[38, 0]),
   midi.NoteOnEvent(tick=2344000, channel=0, data=[36, 100]),
   midi.NoteOffEvent(tick=2344100, channel=0, data=[36, 0]),
   midi.NoteOnEvent(tick=2344200, channel=0, data=[20, 100]),
   midi.NoteOffEvent(tick=2344300, channel=0, data=[20, 0]),
   midi.NoteOnEvent(tick=2344400, channel=0, data=[18, 100]),
   midi.NoteOffEvent(tick=2344500, channel=0, data=[18, 0]),
   midi.NoteOnEvent(tick=2344600, channel=0, data=[4, 100]),
   midi.NoteOffEvent(tick=2344700, channel=0, data=[4, 0]),
   midi.NoteOnEvent(tick=2344800, channel=0, data=[36, 100]),
   midi.NoteOffEvent(tick=2344900, channel=0, data=[36, 0]),
   midi.NoteOnEvent(tick=2345000, channel=0, data=[0, 100]),
   midi.NoteOffEvent(tick=2345100, channel=0, data=[0, 0]),
   midi.NoteOnEvent(tick=2345200, channel=0, data=[13, 100]),
   midi.NoteOffEvent(tick=2345300, channel=0, data=[13, 0]),
   midi.NoteOnEvent(tick=2345400, channel=0, data=[36, 100]),
   midi.NoteOffEvent(tick=2345500, channel=0, data=[36, 0]),
   midi.NoteOnEvent(tick=2345600, channel=0, data=[8, 100]),
   midi.NoteOffEvent(tick=2345700, channel=0, data=[8, 0]),
   midi.NoteOnEvent(tick=2345800, channel=0, data=[13, 100]),
   midi.NoteOffEvent(tick=2345900, channel=0, data=[13, 0]),
   midi.NoteOnEvent(tick=2346000, channel=0, data=[3, 100]),
   midi.NoteOffEvent(tick=2346100, channel=0, data=[3, 0]),
   midi.NoteOnEvent(tick=2346200, channel=0, data=[4, 100]),
   midi.NoteOffEvent(tick=2346300, channel=0, data=[4, 0]),
   midi.NoteOnEvent(tick=2346400, channel=0, data=[23, 100]),
   midi.NoteOffEvent(tick=2346500, channel=0, data=[23, 0]),
   midi.NoteOnEvent(tick=2346600, channel=0, data=[36, 100]),
   midi.NoteOffEvent(tick=2346700, channel=0, data=[36, 0]),
   midi.NoteOnEvent(tick=2346800, channel=0, data=[19, 100]),
   midi.NoteOffEvent(tick=2346900, channel=0, data=[19, 0]),
   midi.NoteOnEvent(tick=2347000, channel=0, data=[14, 100]),
   midi.NoteOffEvent(tick=2347100, channel=0, data=[14, 0]),
   midi.NoteOnEvent(tick=2347200, channel=0, data=[36, 100]),
   midi.NoteOffEvent(tick=2347300, channel=0, data=[36, 0]),
   midi.NoteOnEvent(tick=2347400, channel=0, data=[8, 100]),
   midi.NoteOffEvent(tick=2347500, channel=0, data=[8, 0]),
   midi.NoteOnEvent(tick=2347600, channel=0, data=[3, 100]),
   midi.NoteOffEvent(tick=2347700, channel=0, data=[3, 0]),
   midi.NoteOnEvent(tick=2347800, channel=0, data=[4, 100]),
   midi.NoteOffEvent(tick=2347900, channel=0, data=[4, 0]),
   midi.NoteOnEvent(tick=2348000, channel=0, data=[13, 100]),
   midi.NoteOffEvent(tick=2348100, channel=0, data=[13, 0]),
   midi.NoteOnEvent(tick=2348200, channel=0, data=[19, 100]),
   midi.NoteOffEvent(tick=2348300, channel=0, data=[19, 0]),
   midi.NoteOnEvent(tick=2348400, channel=0, data=[8, 100]),
   midi.NoteOffEvent(tick=2348500, channel=0, data=[8, 0]),
   midi.NoteOnEvent(tick=2348600, channel=0, data=[5, 100]),
   midi.NoteOffEvent(tick=2348700, channel=0, data=[5, 0]),
   midi.NoteOnEvent(tick=2348800, channel=0, data=[24, 100]),
   midi.NoteOffEvent(tick=2348900, channel=0, data=[24, 0]),
   midi.NoteOnEvent(tick=2349000, channel=0, data=[36, 100]),
   midi.NoteOffEvent(tick=2349100, channel=0, data=[36, 0]),
   midi.NoteOnEvent(tick=2349200, channel=0, data=[19, 100]),
   midi.NoteOffEvent(tick=2349300, channel=0, data=[19, 0]),
   midi.NoteOnEvent(tick=2349400, channel=0, data=[7, 100]),
   midi.NoteOffEvent(tick=2349500, channel=0, data=[7, 0]),
   midi.NoteOnEvent(tick=2349600, channel=0, data=[4, 100]),
   midi.NoteOffEvent(tick=2349700, channel=0, data=[4, 0]),
   midi.NoteOnEvent(tick=2349800, channel=0, data=[36, 100]),
   midi.NoteOffEvent(tick=2349900, channel=0, data=[36, 0]),
   midi.NoteOnEvent(tick=2350000, channel=0, data=[4, 100]),
   midi.NoteOffEvent(tick=2350100, channel=0, data=[4, 0]),
   midi.NoteOnEvent(tick=2350200, channel=0, data=[11, 100]),
   midi.NoteOffEvent(tick=2350300, channel=0, data=[11, 0]),
   midi.NoteOnEvent(tick=2350400, channel=0, data=[4, 100]),
   midi.NoteOffEvent(tick=2350500, channel=0, data=[4, 0]),
   midi.NoteOnEvent(tick=2350600, channel=0, data=[12, 100]),
   midi.NoteOffEvent(tick=2350700, channel=0, data=[12, 0]),
   midi.NoteOnEvent(tick=2350800, channel=0, data=[4, 100]),
   midi.NoteOffEvent(tick=2350900, channel=0, data=[4, 0]),
   midi.NoteOnEvent(tick=2351000, channel=0, data=[13, 100]),
   midi.NoteOffEvent(tick=2351100, channel=0, data=[13, 0]),
   midi.NoteOnEvent(tick=2351200, channel=0, data=[19, 100]),
   midi.NoteOffEvent(tick=2351300, channel=0, data=[19, 0]),
   midi.NoteOnEvent(tick=2351400, channel=0, data=[36, 100]),
   midi.NoteOffEvent(tick=2351500, channel=0, data=[36, 0]),
   midi.NoteOnEvent(tick=2351600, channel=0, data=[56, 100]),
   midi.NoteOffEvent(tick=2351700, channel=0, data=[56, 0]),
   midi.NoteOnEvent(tick=2351800, channel=0, data=[36, 100]),
   midi.NoteOffEvent(tick=2351900, channel=0, data=[36, 0]),
   midi.NoteOnEvent(tick=2352000, channel=0, data=[36, 100]),
   midi.NoteOffEvent(tick=2352100, channel=0, data=[36, 0]),
   midi.NoteOnEvent(tick=2352200, channel=0, data=[36, 100]),
   midi.NoteOffEvent(tick=2352300, channel=0, data=[36, 0]),
   midi.NoteOnEvent(tick=2352400, channel=0, data=[36, 100]),
   midi.NoteOffEvent(tick=2352500, channel=0, data=[36, 0]),
   midi.NoteOnEvent(tick=2352600, channel=0, data=[19, 100]),
   midi.NoteOffEvent(tick=2352700, channel=0, data=[19, 0]),
   midi.NoteOnEvent(tick=2352800, channel=0, data=[7, 100]),
   midi.NoteOffEvent(tick=2352900, channel=0, data=[7, 0]),
   midi.NoteOnEvent(tick=2353000, channel=0, data=[0, 100]),
   midi.NoteOffEvent(tick=2353100, channel=0, data=[0, 0]),
   midi.NoteOnEvent(tick=2353200, channel=0, data=[19, 100]),
   midi.NoteOffEvent(tick=2353300, channel=0, data=[19, 0]),
   midi.NoteOnEvent(tick=2353400, channel=0, data=[36, 100]),
   midi.NoteOffEvent(tick=2353500, channel=0, data=[36, 0]),
   midi.NoteOnEvent(tick=2353600, channel=0, data=[24, 100]),
   midi.NoteOffEvent(tick=2353700, channel=0, data=[24, 0]),
   midi.NoteOnEvent(tick=2353800, channel=0, data=[14, 100]),
   midi.NoteOffEvent(tick=2353900, channel=0, data=[14, 0]),
   midi.NoteOnEvent(tick=2354000, channel=0, data=[20, 100]),
   midi.NoteOffEvent(tick=2354100, channel=0, data=[20, 0]),
   midi.NoteOnEvent(tick=2354200, channel=0, data=[36, 100]),
   midi.NoteOffEvent(tick=2354300, channel=0, data=[36, 0]),
   midi.NoteOnEvent(tick=2354400, channel=0, data=[22, 100]),
   midi.NoteOffEvent(tick=2354500, channel=0, data=[22, 0]),
   midi.NoteOnEvent(tick=2354600, channel=0, data=[0, 100]),
   midi.NoteOffEvent(tick=2354700, channel=0, data=[0, 0]),
   midi.NoteOnEvent(tick=2354800, channel=0, data=[13, 100]),
   midi.NoteOffEvent(tick=2354900, channel=0, data=[13, 0]),
   midi.NoteOnEvent(tick=2355000, channel=0, data=[19, 100]),
   midi.NoteOffEvent(tick=2355100, channel=0, data=[19, 0]),
   midi.NoteOnEvent(tick=2355200, channel=0, data=[36, 100]),
   midi.NoteOffEvent(tick=2355300, channel=0, data=[36, 0]),
   midi.NoteOnEvent(tick=2355400, channel=0, data=[19, 100]),
   midi.NoteOffEvent(tick=2355500, channel=0, data=[19, 0]),
   midi.NoteOnEvent(tick=2355600, channel=0, data=[14, 100]),
   midi.NoteOffEvent(tick=2355700, channel=0, data=[14, 0]),
   midi.NoteOnEvent(tick=2355800, channel=0, data=[36, 100]),
   midi.NoteOffEvent(tick=2355900, channel=0, data=[36, 0]),
   midi.NoteOnEvent(tick=2356000, channel=0, data=[12, 100]),
   midi.NoteOffEvent(tick=2356100, channel=0, data=[12, 0]),
   midi.NoteOnEvent(tick=2356200, channel=0, data=[20, 100]),
   midi.NoteOffEvent(tick=2356300, channel=0, data=[20, 0]),
   midi.NoteOnEvent(tick=2356400, channel=0, data=[11, 100]),
   midi.NoteOffEvent(tick=2356500, channel=0, data=[11, 0]),
   midi.NoteOnEvent(tick=2356600, channel=0, data=[19, 100]),
   midi.NoteOffEvent(tick=2356700, channel=0, data=[19, 0]),
   midi.NoteOnEvent(tick=2356800, channel=0, data=[8, 100]),
   midi.NoteOffEvent(tick=2356900, channel=0, data=[8, 0]),
   midi.NoteOnEvent(tick=2357000, channel=0, data=[15, 100]),
   midi.NoteOffEvent(tick=2357100, channel=0, data=[15, 0]),
   midi.NoteOnEvent(tick=2357200, channel=0, data=[11, 100]),
   midi.NoteOffEvent(tick=2357300, channel=0, data=[11, 0]),
   midi.NoteOnEvent(tick=2357400, channel=0, data=[24, 100]),
   midi.NoteOffEvent(tick=2357500, channel=0, data=[24, 0]),
   midi.NoteOnEvent(tick=2357600, channel=0, data=[37, 100]),
   midi.NoteOffEvent(tick=2357700, channel=0, data=[37, 0]),
   midi.NoteOnEvent(tick=2357800, channel=0, data=[36, 100]),
   midi.NoteOffEvent(tick=2357900, channel=0, data=[36, 0]),
   midi.NoteOnEvent(tick=2358000, channel=0, data=[5, 100]),
   midi.NoteOffEvent(tick=2358100, channel=0, data=[5, 0]),
   midi.NoteOnEvent(tick=2358200, channel=0, data=[14, 100]),
   midi.NoteOffEvent(tick=2358300, channel=0, data=[14, 0]),
   midi.NoteOnEvent(tick=2358400, channel=0, data=[17, 100]),
   midi.NoteOffEvent(tick=2358500, channel=0, data=[17, 0]),
   midi.NoteOnEvent(tick=2358600, channel=0, data=[36, 100]),
   midi.NoteOffEvent(tick=2358700, channel=0, data=[36, 0]),
   midi.NoteOnEvent(tick=2358800, channel=0, data=[4, 100]),
   midi.NoteOffEvent(tick=2358900, channel=0, data=[4, 0]),
   midi.NoteOnEvent(tick=2359000, channel=0, data=[23, 100]),
   midi.NoteOffEvent(tick=2359100, channel=0, data=[23, 0]),
   midi.NoteOnEvent(tick=2359200, channel=0, data=[0, 100]),
   midi.NoteOffEvent(tick=2359300, channel=0, data=[0, 0]),
   midi.NoteOnEvent(tick=2359400, channel=0, data=[12, 100]),
   midi.NoteOffEvent(tick=2359500, channel=0, data=[12, 0]),
   midi.NoteOnEvent(tick=2359600, channel=0, data=[15, 100]),
   midi.NoteOffEvent(tick=2359700, channel=0, data=[15, 0]),
   midi.NoteOnEvent(tick=2359800, channel=0, data=[11, 100]),
   midi.NoteOffEvent(tick=2359900, channel=0, data=[11, 0]),
   midi.NoteOnEvent(tick=2360000, channel=0, data=[4, 100]),
   midi.NoteOffEvent(tick=2360100, channel=0, data=[4, 0]),
   midi.NoteOnEvent(tick=2360200, channel=0, data=[38, 100]),
   midi.NoteOffEvent(tick=2360300, channel=0, data=[38, 0]),
   midi.NoteOnEvent(tick=2360400, channel=0, data=[36, 100]),
   midi.NoteOffEvent(tick=2360500, channel=0, data=[36, 0]),
   midi.NoteOnEvent(tick=2360600, channel=0, data=[19, 100]),
   midi.NoteOffEvent(tick=2360700, channel=0, data=[19, 0]),
   midi.NoteOnEvent(tick=2360800, channel=0, data=[7, 100]),
   midi.NoteOffEvent(tick=2360900, channel=0, data=[7, 0]),
   midi.NoteOnEvent(tick=2361000, channel=0, data=[4, 100]),
   midi.NoteOffEvent(tick=2361100, channel=0, data=[4, 0]),
   midi.NoteOnEvent(tick=2361200, channel=0, data=[36, 100]),
   midi.NoteOffEvent(tick=2361300, channel=0, data=[36, 0]),
   midi.NoteOnEvent(tick=2361400, channel=0, data=[5, 100]),
   midi.NoteOffEvent(tick=2361500, channel=0, data=[5, 0]),
   midi.NoteOnEvent(tick=2361600, channel=0, data=[14, 100]),
   midi.NoteOffEvent(tick=2361700, channel=0, data=[14, 0]),
   midi.NoteOnEvent(tick=2361800, channel=0, data=[11, 100]),
   midi.NoteOffEvent(tick=2361900, channel=0, data=[11, 0]),
   midi.NoteOnEvent(tick=2362000, channel=0, data=[11, 100]),
   midi.NoteOffEvent(tick=2362100, channel=0, data=[11, 0]),
   midi.NoteOnEvent(tick=2362200, channel=0, data=[14, 100]),
   midi.NoteOffEvent(tick=2362300, channel=0, data=[14, 0]),
   midi.NoteOnEvent(tick=2362400, channel=0, data=[22, 100]),
   midi.NoteOffEvent(tick=2362500, channel=0, data=[22, 0]),
   midi.NoteOnEvent(tick=2362600, channel=0, data=[8, 100]),
   midi.NoteOffEvent(tick=2362700, channel=0, data=[8, 0]),
   midi.NoteOnEvent(tick=2362800, channel=0, data=[13, 100]),
   midi.NoteOffEvent(tick=2362900, channel=0, data=[13, 0]),
   midi.NoteOnEvent(tick=2363000, channel=0, data=[6, 100]),
   midi.NoteOffEvent(tick=2363100, channel=0, data=[6, 0]),
   midi.NoteOnEvent(tick=2363200, channel=0, data=[36, 100]),
   midi.NoteOffEvent(tick=2363300, channel=0, data=[36, 0]),
   midi.NoteOnEvent(tick=2363400, channel=0, data=[2, 100]),
   midi.NoteOffEvent(tick=2363500, channel=0, data=[2, 0]),
   midi.NoteOnEvent(tick=2363600, channel=0, data=[14, 100]),
   midi.NoteOffEvent(tick=2363700, channel=0, data=[14, 0]),
   midi.NoteOnEvent(tick=2363800, channel=0, data=[12, 100]),
   midi.NoteOffEvent(tick=2363900, channel=0, data=[12, 0]),
   midi.NoteOnEvent(tick=2364000, channel=0, data=[12, 100]),
   midi.NoteOffEvent(tick=2364100, channel=0, data=[12, 0]),
   midi.NoteOnEvent(tick=2364200, channel=0, data=[0, 100]),
   midi.NoteOffEvent(tick=2364300, channel=0, data=[0, 0]),
   midi.NoteOnEvent(tick=2364400, channel=0, data=[13, 100]),
   midi.NoteOffEvent(tick=2364500, channel=0, data=[13, 0]),
   midi.NoteOnEvent(tick=2364600, channel=0, data=[3, 100]),
   midi.NoteOffEvent(tick=2364700, channel=0, data=[3, 0]),
   midi.NoteOnEvent(tick=2364800, channel=0, data=[36, 100]),
   midi.NoteOffEvent(tick=2364900, channel=0, data=[36, 0]),
   midi.NoteOnEvent(tick=2365000, channel=0, data=[12, 100]),
   midi.NoteOffEvent(tick=2365100, channel=0, data=[12, 0]),
   midi.NoteOnEvent(tick=2365200, channel=0, data=[20, 100]),
   midi.NoteOffEvent(tick=2365300, channel=0, data=[20, 0]),
   midi.NoteOnEvent(tick=2365400, channel=0, data=[11, 100]),
   midi.NoteOffEvent(tick=2365500, channel=0, data=[11, 0]),
   midi.NoteOnEvent(tick=2365600, channel=0, data=[19, 100]),
   midi.NoteOffEvent(tick=2365700, channel=0, data=[19, 0]),
   midi.NoteOnEvent(tick=2365800, channel=0, data=[8, 100]),
   midi.NoteOffEvent(tick=2365900, channel=0, data=[8, 0]),
   midi.NoteOnEvent(tick=2366000, channel=0, data=[15, 100]),
   midi.NoteOffEvent(tick=2366100, channel=0, data=[15, 0]),
   midi.NoteOnEvent(tick=2366200, channel=0, data=[11, 100]),
   midi.NoteOffEvent(tick=2366300, channel=0, data=[11, 0]),
   midi.NoteOnEvent(tick=2366400, channel=0, data=[8, 100]),
   midi.NoteOffEvent(tick=2366500, channel=0, data=[8, 0]),
   midi.NoteOnEvent(tick=2366600, channel=0, data=[4, 100]),
   midi.NoteOffEvent(tick=2366700, channel=0, data=[4, 0]),
   midi.NoteOnEvent(tick=2366800, channel=0, data=[18, 100]),
   midi.NoteOffEvent(tick=2366900, channel=0, data=[18, 0]),
   midi.NoteOnEvent(tick=2367000, channel=0, data=[36, 100]),
   midi.NoteOffEvent(tick=2367100, channel=0, data=[36, 0]),
   midi.NoteOnEvent(tick=2367200, channel=0, data=[56, 100]),
   midi.NoteOffEvent(tick=2367300, channel=0, data=[56, 0]),
   midi.NoteOnEvent(tick=2367400, channel=0, data=[36, 100]),
   midi.NoteOffEvent(tick=2367500, channel=0, data=[36, 0]),
   midi.NoteOnEvent(tick=2367600, channel=0, data=[36, 100]),
   midi.NoteOffEvent(tick=2367700, channel=0, data=[36, 0]),
   midi.NoteOnEvent(tick=2367800, channel=0, data=[36, 100]),
   midi.NoteOffEvent(tick=2367900, channel=0, data=[36, 0]),
   midi.NoteOnEvent(tick=2368000, channel=0, data=[36, 100]),
   midi.NoteOffEvent(tick=2368100, channel=0, data=[36, 0]),
   midi.NoteOnEvent(tick=2368200, channel=0, data=[19, 100]),
   midi.NoteOffEvent(tick=2368300, channel=0, data=[19, 0]),
   midi.NoteOnEvent(tick=2368400, channel=0, data=[7, 100]),
   midi.NoteOffEvent(tick=2368500, channel=0, data=[7, 0]),
   midi.NoteOnEvent(tick=2368600, channel=0, data=[4, 100]),
   midi.NoteOffEvent(tick=2368700, channel=0, data=[4, 0]),
   midi.NoteOnEvent(tick=2368800, channel=0, data=[36, 100]),
   midi.NoteOffEvent(tick=2368900, channel=0, data=[36, 0]),
   midi.NoteOnEvent(tick=2369000, channel=0, data=[5, 100]),
   midi.NoteOffEvent(tick=2369100, channel=0, data=[5, 0]),
   midi.NoteOnEvent(tick=2369200, channel=0, data=[8, 100]),
   midi.NoteOffEvent(tick=2369300, channel=0, data=[8, 0]),
   midi.NoteOnEvent(tick=2369400, channel=0, data=[17, 100]),
   midi.NoteOffEvent(tick=2369500, channel=0, data=[17, 0]),
   midi.NoteOnEvent(tick=2369600, channel=0, data=[18, 100]),
   midi.NoteOffEvent(tick=2369700, channel=0, data=[18, 0]),
   midi.NoteOnEvent(tick=2369800, channel=0, data=[19, 100]),
   midi.NoteOffEvent(tick=2369900, channel=0, data=[19, 0]),
   midi.NoteOnEvent(tick=2370000, channel=0, data=[36, 100]),
   midi.NoteOffEvent(tick=2370100, channel=0, data=[36, 0]),
   midi.NoteOnEvent(tick=2370200, channel=0, data=[4, 100]),
   midi.NoteOffEvent(tick=2370300, channel=0, data=[4, 0]),
   midi.NoteOnEvent(tick=2370400, channel=0, data=[11, 100]),
   midi.NoteOffEvent(tick=2370500, channel=0, data=[11, 0]),
   midi.NoteOnEvent(tick=2370600, channel=0, data=[4, 100]),
   midi.NoteOffEvent(tick=2370700, channel=0, data=[4, 0]),
   midi.NoteOnEvent(tick=2370800, channel=0, data=[12, 100]),
   midi.NoteOffEvent(tick=2370900, channel=0, data=[12, 0]),
   midi.NoteOnEvent(tick=2371000, channel=0, data=[4, 100]),
   midi.NoteOffEvent(tick=2371100, channel=0, data=[4, 0]),
   midi.NoteOnEvent(tick=2371200, channel=0, data=[13, 100]),
   midi.NoteOffEvent(tick=2371300, channel=0, data=[13, 0]),
   midi.NoteOnEvent(tick=2371400, channel=0, data=[19, 100]),
   midi.NoteOffEvent(tick=2371500, channel=0, data=[19, 0]),
   midi.NoteOnEvent(tick=2371600, channel=0, data=[36, 100]),
   midi.NoteOffEvent(tick=2371700, channel=0, data=[36, 0]),
   midi.NoteOnEvent(tick=2371800, channel=0, data=[8, 100]),
   midi.NoteOffEvent(tick=2371900, channel=0, data=[8, 0]),
   midi.NoteOnEvent(tick=2372000, channel=0, data=[13, 100]),
   midi.NoteOffEvent(tick=2372100, channel=0, data=[13, 0]),
   midi.NoteOnEvent(tick=2372200, channel=0, data=[36, 100]),
   midi.NoteOffEvent(tick=2372300, channel=0, data=[36, 0]),
   midi.NoteOnEvent(tick=2372400, channel=0, data=[19, 100]),
   midi.NoteOffEvent(tick=2372500, channel=0, data=[19, 0]),
   midi.NoteOnEvent(tick=2372600, channel=0, data=[7, 100]),
   midi.NoteOffEvent(tick=2372700, channel=0, data=[7, 0]),
   midi.NoteOnEvent(tick=2372800, channel=0, data=[4, 100]),
   midi.NoteOffEvent(tick=2372900, channel=0, data=[4, 0]),
   midi.NoteOnEvent(tick=2373000, channel=0, data=[36, 100]),
   midi.NoteOffEvent(tick=2373100, channel=0, data=[36, 0]),
   midi.NoteOnEvent(tick=2373200, channel=0, data=[0, 100]),
   midi.NoteOffEvent(tick=2373300, channel=0, data=[0, 0]),
   midi.NoteOnEvent(tick=2373400, channel=0, data=[17, 100]),
   midi.NoteOffEvent(tick=2373500, channel=0, data=[17, 0]),
   midi.NoteOnEvent(tick=2373600, channel=0, data=[17, 100]),
   midi.NoteOffEvent(tick=2373700, channel=0, data=[17, 0]),
   midi.NoteOnEvent(tick=2373800, channel=0, data=[0, 100]),
   midi.NoteOffEvent(tick=2373900, channel=0, data=[0, 0]),
   midi.NoteOnEvent(tick=2374000, channel=0, data=[24, 100]),
   midi.NoteOffEvent(tick=2374100, channel=0, data=[24, 0]),
   midi.NoteOnEvent(tick=2374200, channel=0, data=[36, 100]),
   midi.NoteOffEvent(tick=2374300, channel=0, data=[36, 0]),
   midi.NoteOnEvent(tick=2374400, channel=0, data=[49, 100]),
   midi.NoteOffEvent(tick=2374500, channel=0, data=[49, 0]),
   midi.NoteOnEvent(tick=2374600, channel=0, data=[8, 100]),
   midi.NoteOffEvent(tick=2374700, channel=0, data=[8, 0]),
   midi.NoteOnEvent(tick=2374800, channel=0, data=[13, 100]),
   midi.NoteOffEvent(tick=2374900, channel=0, data=[13, 0]),
   midi.NoteOnEvent(tick=2375000, channel=0, data=[3, 100]),
   midi.NoteOffEvent(tick=2375100, channel=0, data=[3, 0]),
   midi.NoteOnEvent(tick=2375200, channel=0, data=[4, 100]),
   midi.NoteOffEvent(tick=2375300, channel=0, data=[4, 0]),
   midi.NoteOnEvent(tick=2375400, channel=0, data=[23, 100]),
   midi.NoteOffEvent(tick=2375500, channel=0, data=[23, 0]),
   midi.NoteOnEvent(tick=2375600, channel=0, data=[36, 100]),
   midi.NoteOffEvent(tick=2375700, channel=0, data=[36, 0]),
   midi.NoteOnEvent(tick=2375800, channel=0, data=[15, 100]),
   midi.NoteOffEvent(tick=2375900, channel=0, data=[15, 0]),
   midi.NoteOnEvent(tick=2376000, channel=0, data=[14, 100]),
   midi.NoteOffEvent(tick=2376100, channel=0, data=[14, 0]),
   midi.NoteOnEvent(tick=2376200, channel=0, data=[18, 100]),
   midi.NoteOffEvent(tick=2376300, channel=0, data=[18, 0]),
   midi.NoteOnEvent(tick=2376400, channel=0, data=[8, 100]),
   midi.NoteOffEvent(tick=2376500, channel=0, data=[8, 0]),
   midi.NoteOnEvent(tick=2376600, channel=0, data=[19, 100]),
   midi.NoteOffEvent(tick=2376700, channel=0, data=[19, 0]),
   midi.NoteOnEvent(tick=2376800, channel=0, data=[8, 100]),
   midi.NoteOffEvent(tick=2376900, channel=0, data=[8, 0]),
   midi.NoteOnEvent(tick=2377000, channel=0, data=[14, 100]),
   midi.NoteOffEvent(tick=2377100, channel=0, data=[14, 0]),
   midi.NoteOnEvent(tick=2377200, channel=0, data=[13, 100]),
   midi.NoteOffEvent(tick=2377300, channel=0, data=[13, 0]),
   midi.NoteOnEvent(tick=2377400, channel=0, data=[36, 100]),
   midi.NoteOffEvent(tick=2377500, channel=0, data=[36, 0]),
   midi.NoteOnEvent(tick=2377600, channel=0, data=[26, 100]),
   midi.NoteOffEvent(tick=2377700, channel=0, data=[26, 0]),
   midi.NoteOnEvent(tick=2377800, channel=0, data=[50, 100]),
   midi.NoteOffEvent(tick=2377900, channel=0, data=[50, 0]),
   midi.NoteOnEvent(tick=2378000, channel=0, data=[36, 100]),
   midi.NoteOffEvent(tick=2378100, channel=0, data=[36, 0]),
   midi.NoteOnEvent(tick=2378200, channel=0, data=[1, 100]),
   midi.NoteOffEvent(tick=2378300, channel=0, data=[1, 0]),
   midi.NoteOnEvent(tick=2378400, channel=0, data=[24, 100]),
   midi.NoteOffEvent(tick=2378500, channel=0, data=[24, 0]),
   midi.NoteOnEvent(tick=2378600, channel=0, data=[36, 100]),
   midi.NoteOffEvent(tick=2378700, channel=0, data=[36, 0]),
   midi.NoteOnEvent(tick=2378800, channel=0, data=[28, 100]),
   midi.NoteOffEvent(tick=2378900, channel=0, data=[28, 0]),
   midi.NoteOnEvent(tick=2379000, channel=0, data=[46, 100]),
   midi.NoteOffEvent(tick=2379100, channel=0, data=[46, 0]),
   midi.NoteOnEvent(tick=2379200, channel=0, data=[56, 100]),
   midi.NoteOffEvent(tick=2379300, channel=0, data=[56, 0]),
   midi.NoteOnEvent(tick=2379400, channel=0, data=[56, 100]),
   midi.NoteOffEvent(tick=2379500, channel=0, data=[56, 0]),
   midi.NoteOnEvent(tick=2379600, channel=0, data=[56, 100]),
   midi.NoteOffEvent(tick=2379700, channel=0, data=[56, 0]),
   midi.NoteOnEvent(tick=2379800, channel=0, data=[36, 100]),
   midi.NoteOffEvent(tick=2379900, channel=0, data=[36, 0]),
   midi.NoteOnEvent(tick=2380000, channel=0, data=[36, 100]),
   midi.NoteOffEvent(tick=2380100, channel=0, data=[36, 0]),
   midi.NoteOnEvent(tick=2380200, channel=0, data=[36, 100]),
   midi.NoteOffEvent(tick=2380300, channel=0, data=[36, 0]),
   midi.NoteOnEvent(tick=2380400, channel=0, data=[36, 100]),
   midi.NoteOffEvent(tick=2380500, channel=0, data=[36, 0]),
   midi.NoteOnEvent(tick=2380600, channel=0, data=[36, 100]),
   midi.NoteOffEvent(tick=2380700, channel=0, data=[36, 0]),
   midi.NoteOnEvent(tick=2380800, channel=0, data=[36, 100]),
   midi.NoteOffEvent(tick=2380900, channel=0, data=[36, 0]),
   midi.NoteOnEvent(tick=2381000, channel=0, data=[36, 100]),
   midi.NoteOffEvent(tick=2381100, channel=0, data=[36, 0]),
   midi.NoteOnEvent(tick=2381200, channel=0, data=[36, 100]),
   midi.NoteOffEvent(tick=2381300, channel=0, data=[36, 0]),
   midi.NoteOnEvent(tick=2381400, channel=0, data=[74, 100]),
   midi.NoteOffEvent(tick=2381500, channel=0, data=[74, 0]),
   midi.NoteOnEvent(tick=2381600, channel=0, data=[0, 100]),
   midi.NoteOffEvent(tick=2381700, channel=0, data=[0, 0]),
   midi.NoteOnEvent(tick=2381800, channel=0, data=[51, 100]),
   midi.NoteOffEvent(tick=2381900, channel=0, data=[51, 0]),
   midi.NoteOnEvent(tick=2382000, channel=0, data=[26, 100]),
   midi.NoteOffEvent(tick=2382100, channel=0, data=[26, 0]),
   midi.NoteOnEvent(tick=2382200, channel=0, data=[52, 100]),
   midi.NoteOffEvent(tick=2382300, channel=0, data=[52, 0]),
   midi.NoteOnEvent(tick=2382400, channel=0, data=[36, 100]),
   midi.NoteOffEvent(tick=2382500, channel=0, data=[36, 0]),
   midi.NoteOnEvent(tick=2382600, channel=0, data=[48, 100]),
   midi.NoteOffEvent(tick=2382700, channel=0, data=[48, 0]),
   midi.NoteOnEvent(tick=2382800, channel=0, data=[69, 100]),
   midi.NoteOffEvent(tick=2382900, channel=0, data=[69, 0]),
   midi.NoteOnEvent(tick=2383000, channel=0, data=[36, 100]),
   midi.NoteOffEvent(tick=2383100, channel=0, data=[36, 0]),
   midi.NoteOnEvent(tick=2383200, channel=0, data=[28, 100]),
   midi.NoteOffEvent(tick=2383300, channel=0, data=[28, 0]),
   midi.NoteOnEvent(tick=2383400, channel=0, data=[56, 100]),
   midi.NoteOffEvent(tick=2383500, channel=0, data=[56, 0]),
   midi.NoteOnEvent(tick=2383600, channel=0, data=[36, 100]),
   midi.NoteOffEvent(tick=2383700, channel=0, data=[36, 0]),
   midi.NoteOnEvent(tick=2383800, channel=0, data=[56, 100]),
   midi.NoteOffEvent(tick=2383900, channel=0, data=[56, 0]),
   midi.NoteOnEvent(tick=2384000, channel=0, data=[56, 100]),
   midi.NoteOffEvent(tick=2384100, channel=0, data=[56, 0]),
   midi.NoteOnEvent(tick=2384200, channel=0, data=[36, 100]),
   midi.NoteOffEvent(tick=2384300, channel=0, data=[36, 0]),
   midi.NoteOnEvent(tick=2384400, channel=0, data=[36, 100]),
   midi.NoteOffEvent(tick=2384500, channel=0, data=[36, 0]),
   midi.NoteOnEvent(tick=2384600, channel=0, data=[19, 100]),
   midi.NoteOffEvent(tick=2384700, channel=0, data=[19, 0]),
   midi.NoteOnEvent(tick=2384800, channel=0, data=[7, 100]),
   midi.NoteOffEvent(tick=2384900, channel=0, data=[7, 0]),
   midi.NoteOnEvent(tick=2385000, channel=0, data=[4, 100]),
   midi.NoteOffEvent(tick=2385100, channel=0, data=[4, 0]),
   midi.NoteOnEvent(tick=2385200, channel=0, data=[36, 100]),
   midi.NoteOffEvent(tick=2385300, channel=0, data=[36, 0]),
   midi.NoteOnEvent(tick=2385400, channel=0, data=[0, 100]),
   midi.NoteOffEvent(tick=2385500, channel=0, data=[0, 0]),
   midi.NoteOnEvent(tick=2385600, channel=0, data=[18, 100]),
   midi.NoteOffEvent(tick=2385700, channel=0, data=[18, 0]),
   midi.NoteOnEvent(tick=2385800, channel=0, data=[18, 100]),
   midi.NoteOffEvent(tick=2385900, channel=0, data=[18, 0]),
   midi.NoteOnEvent(tick=2386000, channel=0, data=[8, 100]),
   midi.NoteOffEvent(tick=2386100, channel=0, data=[8, 0]),
   midi.NoteOnEvent(tick=2386200, channel=0, data=[6, 100]),
   midi.NoteOffEvent(tick=2386300, channel=0, data=[6, 0]),
   midi.NoteOnEvent(tick=2386400, channel=0, data=[13, 100]),
   midi.NoteOffEvent(tick=2386500, channel=0, data=[13, 0]),
   midi.NoteOnEvent(tick=2386600, channel=0, data=[12, 100]),
   midi.NoteOffEvent(tick=2386700, channel=0, data=[12, 0]),
   midi.NoteOnEvent(tick=2386800, channel=0, data=[4, 100]),
   midi.NoteOffEvent(tick=2386900, channel=0, data=[4, 0]),
   midi.NoteOnEvent(tick=2387000, channel=0, data=[13, 100]),
   midi.NoteOffEvent(tick=2387100, channel=0, data=[13, 0]),
   midi.NoteOnEvent(tick=2387200, channel=0, data=[19, 100]),
   midi.NoteOffEvent(tick=2387300, channel=0, data=[19, 0]),
   midi.NoteOnEvent(tick=2387400, channel=0, data=[36, 100]),
   midi.NoteOffEvent(tick=2387500, channel=0, data=[36, 0]),
   midi.NoteOnEvent(tick=2387600, channel=0, data=[1, 100]),
   midi.NoteOffEvent(tick=2387700, channel=0, data=[1, 0]),
   midi.NoteOnEvent(tick=2387800, channel=0, data=[24, 100]),
   midi.NoteOffEvent(tick=2387900, channel=0, data=[24, 0]),
   midi.NoteOnEvent(tick=2388000, channel=0, data=[36, 100]),
   midi.NoteOffEvent(tick=2388100, channel=0, data=[36, 0]),
   midi.NoteOnEvent(tick=2388200, channel=0, data=[3, 100]),
   midi.NoteOffEvent(tick=2388300, channel=0, data=[3, 0]),
   midi.NoteOnEvent(tick=2388400, channel=0, data=[8, 100]),
   midi.NoteOffEvent(tick=2388500, channel=0, data=[8, 0]),
   midi.NoteOnEvent(tick=2388600, channel=0, data=[21, 100]),
   midi.NoteOffEvent(tick=2388700, channel=0, data=[21, 0]),
   midi.NoteOnEvent(tick=2388800, channel=0, data=[8, 100]),
   midi.NoteOffEvent(tick=2388900, channel=0, data=[8, 0]),
   midi.NoteOnEvent(tick=2389000, channel=0, data=[18, 100]),
   midi.NoteOffEvent(tick=2389100, channel=0, data=[18, 0]),
   midi.NoteOnEvent(tick=2389200, channel=0, data=[8, 100]),
   midi.NoteOffEvent(tick=2389300, channel=0, data=[8, 0]),
   midi.NoteOnEvent(tick=2389400, channel=0, data=[14, 100]),
   midi.NoteOffEvent(tick=2389500, channel=0, data=[14, 0]),
   midi.NoteOnEvent(tick=2389600, channel=0, data=[13, 100]),
   midi.NoteOffEvent(tick=2389700, channel=0, data=[13, 0]),
   midi.NoteOnEvent(tick=2389800, channel=0, data=[36, 100]),
   midi.NoteOffEvent(tick=2389900, channel=0, data=[36, 0]),
   midi.NoteOnEvent(tick=2390000, channel=0, data=[14, 100]),
   midi.NoteOffEvent(tick=2390100, channel=0, data=[14, 0]),
   midi.NoteOnEvent(tick=2390200, channel=0, data=[15, 100]),
   midi.NoteOffEvent(tick=2390300, channel=0, data=[15, 0]),
   midi.NoteOnEvent(tick=2390400, channel=0, data=[4, 100]),
   midi.NoteOffEvent(tick=2390500, channel=0, data=[4, 0]),
   midi.NoteOnEvent(tick=2390600, channel=0, data=[17, 100]),
   midi.NoteOffEvent(tick=2390700, channel=0, data=[17, 0]),
   midi.NoteOnEvent(tick=2390800, channel=0, data=[0, 100]),
   midi.NoteOffEvent(tick=2390900, channel=0, data=[0, 0]),
   midi.NoteOnEvent(tick=2391000, channel=0, data=[19, 100]),
   midi.NoteOffEvent(tick=2391100, channel=0, data=[19, 0]),
   midi.NoteOnEvent(tick=2391200, channel=0, data=[14, 100]),
   midi.NoteOffEvent(tick=2391300, channel=0, data=[14, 0]),
   midi.NoteOnEvent(tick=2391400, channel=0, data=[17, 100]),
   midi.NoteOffEvent(tick=2391500, channel=0, data=[17, 0]),
   midi.NoteOnEvent(tick=2391600, channel=0, data=[36, 100]),
   midi.NoteOffEvent(tick=2391700, channel=0, data=[36, 0]),
   midi.NoteOnEvent(tick=2391800, channel=0, data=[49, 100]),
   midi.NoteOffEvent(tick=2391900, channel=0, data=[49, 0]),
   midi.NoteOnEvent(tick=2392000, channel=0, data=[70, 100]),
   midi.NoteOffEvent(tick=2392100, channel=0, data=[70, 0]),
   midi.NoteOnEvent(tick=2392200, channel=0, data=[69, 100]),
   midi.NoteOffEvent(tick=2392300, channel=0, data=[69, 0]),
   midi.NoteOnEvent(tick=2392400, channel=0, data=[50, 100]),
   midi.NoteOffEvent(tick=2392500, channel=0, data=[50, 0]),
   midi.NoteOnEvent(tick=2392600, channel=0, data=[56, 100]),
   midi.NoteOffEvent(tick=2392700, channel=0, data=[56, 0]),
   midi.NoteOnEvent(tick=2392800, channel=0, data=[36, 100]),
   midi.NoteOffEvent(tick=2392900, channel=0, data=[36, 0]),
   midi.NoteOnEvent(tick=2393000, channel=0, data=[36, 100]),
   midi.NoteOffEvent(tick=2393100, channel=0, data=[36, 0]),
   midi.NoteOnEvent(tick=2393200, channel=0, data=[36, 100]),
   midi.NoteOffEvent(tick=2393300, channel=0, data=[36, 0]),
   midi.NoteOnEvent(tick=2393400, channel=0, data=[36, 100]),
   midi.NoteOffEvent(tick=2393500, channel=0, data=[36, 0]),
   midi.NoteOnEvent(tick=2393600, channel=0, data=[19, 100]),
   midi.NoteOffEvent(tick=2393700, channel=0, data=[19, 0]),
   midi.NoteOnEvent(tick=2393800, channel=0, data=[7, 100]),
   midi.NoteOffEvent(tick=2393900, channel=0, data=[7, 0]),
   midi.NoteOnEvent(tick=2394000, channel=0, data=[4, 100]),
   midi.NoteOffEvent(tick=2394100, channel=0, data=[4, 0]),
   midi.NoteOnEvent(tick=2394200, channel=0, data=[36, 100]),
   midi.NoteOffEvent(tick=2394300, channel=0, data=[36, 0]),
   midi.NoteOnEvent(tick=2394400, channel=0, data=[0, 100]),
   midi.NoteOffEvent(tick=2394500, channel=0, data=[0, 0]),
   midi.NoteOnEvent(tick=2394600, channel=0, data=[18, 100]),
   midi.NoteOffEvent(tick=2394700, channel=0, data=[18, 0]),
   midi.NoteOnEvent(tick=2394800, channel=0, data=[18, 100]),
   midi.NoteOffEvent(tick=2394900, channel=0, data=[18, 0]),
   midi.NoteOnEvent(tick=2395000, channel=0, data=[8, 100]),
   midi.NoteOffEvent(tick=2395100, channel=0, data=[8, 0]),
   midi.NoteOnEvent(tick=2395200, channel=0, data=[6, 100]),
   midi.NoteOffEvent(tick=2395300, channel=0, data=[6, 0]),
   midi.NoteOnEvent(tick=2395400, channel=0, data=[13, 100]),
   midi.NoteOffEvent(tick=2395500, channel=0, data=[13, 0]),
   midi.NoteOnEvent(tick=2395600, channel=0, data=[12, 100]),
   midi.NoteOffEvent(tick=2395700, channel=0, data=[12, 0]),
   midi.NoteOnEvent(tick=2395800, channel=0, data=[4, 100]),
   midi.NoteOffEvent(tick=2395900, channel=0, data=[4, 0]),
   midi.NoteOnEvent(tick=2396000, channel=0, data=[13, 100]),
   midi.NoteOffEvent(tick=2396100, channel=0, data=[13, 0]),
   midi.NoteOnEvent(tick=2396200, channel=0, data=[19, 100]),
   midi.NoteOffEvent(tick=2396300, channel=0, data=[19, 0]),
   midi.NoteOnEvent(tick=2396400, channel=0, data=[36, 100]),
   midi.NoteOffEvent(tick=2396500, channel=0, data=[36, 0]),
   midi.NoteOnEvent(tick=2396600, channel=0, data=[1, 100]),
   midi.NoteOffEvent(tick=2396700, channel=0, data=[1, 0]),
   midi.NoteOnEvent(tick=2396800, channel=0, data=[24, 100]),
   midi.NoteOffEvent(tick=2396900, channel=0, data=[24, 0]),
   midi.NoteOnEvent(tick=2397000, channel=0, data=[36, 100]),
   midi.NoteOffEvent(tick=2397100, channel=0, data=[36, 0]),
   midi.NoteOnEvent(tick=2397200, channel=0, data=[3, 100]),
   midi.NoteOffEvent(tick=2397300, channel=0, data=[3, 0]),
   midi.NoteOnEvent(tick=2397400, channel=0, data=[8, 100]),
   midi.NoteOffEvent(tick=2397500, channel=0, data=[8, 0]),
   midi.NoteOnEvent(tick=2397600, channel=0, data=[21, 100]),
   midi.NoteOffEvent(tick=2397700, channel=0, data=[21, 0]),
   midi.NoteOnEvent(tick=2397800, channel=0, data=[8, 100]),
   midi.NoteOffEvent(tick=2397900, channel=0, data=[8, 0]),
   midi.NoteOnEvent(tick=2398000, channel=0, data=[18, 100]),
   midi.NoteOffEvent(tick=2398100, channel=0, data=[18, 0]),
   midi.NoteOnEvent(tick=2398200, channel=0, data=[8, 100]),
   midi.NoteOffEvent(tick=2398300, channel=0, data=[8, 0]),
   midi.NoteOnEvent(tick=2398400, channel=0, data=[14, 100]),
   midi.NoteOffEvent(tick=2398500, channel=0, data=[14, 0]),
   midi.NoteOnEvent(tick=2398600, channel=0, data=[13, 100]),
   midi.NoteOffEvent(tick=2398700, channel=0, data=[13, 0]),
   midi.NoteOnEvent(tick=2398800, channel=0, data=[36, 100]),
   midi.NoteOffEvent(tick=2398900, channel=0, data=[36, 0]),
   midi.NoteOnEvent(tick=2399000, channel=0, data=[14, 100]),
   midi.NoteOffEvent(tick=2399100, channel=0, data=[14, 0]),
   midi.NoteOnEvent(tick=2399200, channel=0, data=[15, 100]),
   midi.NoteOffEvent(tick=2399300, channel=0, data=[15, 0]),
   midi.NoteOnEvent(tick=2399400, channel=0, data=[4, 100]),
   midi.NoteOffEvent(tick=2399500, channel=0, data=[4, 0]),
   midi.NoteOnEvent(tick=2399600, channel=0, data=[17, 100]),
   midi.NoteOffEvent(tick=2399700, channel=0, data=[17, 0]),
   midi.NoteOnEvent(tick=2399800, channel=0, data=[0, 100]),
   midi.NoteOffEvent(tick=2399900, channel=0, data=[0, 0]),
   midi.NoteOnEvent(tick=2400000, channel=0, data=[19, 100]),
   midi.NoteOffEvent(tick=2400100, channel=0, data=[19, 0]),
   midi.NoteOnEvent(tick=2400200, channel=0, data=[14, 100]),
   midi.NoteOffEvent(tick=2400300, channel=0, data=[14, 0]),
   midi.NoteOnEvent(tick=2400400, channel=0, data=[17, 100]),
   midi.NoteOffEvent(tick=2400500, channel=0, data=[17, 0]),
   midi.NoteOnEvent(tick=2400600, channel=0, data=[36, 100]),
   midi.NoteOffEvent(tick=2400700, channel=0, data=[36, 0]),
   midi.NoteOnEvent(tick=2400800, channel=0, data=[49, 100]),
   midi.NoteOffEvent(tick=2400900, channel=0, data=[49, 0]),
   midi.NoteOnEvent(tick=2401000, channel=0, data=[70, 100]),
   midi.NoteOffEvent(tick=2401100, channel=0, data=[70, 0]),
   midi.NoteOnEvent(tick=2401200, channel=0, data=[69, 100]),
   midi.NoteOffEvent(tick=2401300, channel=0, data=[69, 0]),
   midi.NoteOnEvent(tick=2401400, channel=0, data=[50, 100]),
   midi.NoteOffEvent(tick=2401500, channel=0, data=[50, 0]),
   midi.NoteOnEvent(tick=2401600, channel=0, data=[36, 100]),
   midi.NoteOffEvent(tick=2401700, channel=0, data=[36, 0]),
   midi.NoteOnEvent(tick=2401800, channel=0, data=[3, 100]),
   midi.NoteOffEvent(tick=2401900, channel=0, data=[3, 0]),
   midi.NoteOnEvent(tick=2402000, channel=0, data=[8, 100]),
   midi.NoteOffEvent(tick=2402100, channel=0, data=[8, 0]),
   midi.NoteOnEvent(tick=2402200, channel=0, data=[21, 100]),
   midi.NoteOffEvent(tick=2402300, channel=0, data=[21, 0]),
   midi.NoteOnEvent(tick=2402400, channel=0, data=[8, 100]),
   midi.NoteOffEvent(tick=2402500, channel=0, data=[8, 0]),
   midi.NoteOnEvent(tick=2402600, channel=0, data=[3, 100]),
   midi.NoteOffEvent(tick=2402700, channel=0, data=[3, 0]),
   midi.NoteOnEvent(tick=2402800, channel=0, data=[4, 100]),
   midi.NoteOffEvent(tick=2402900, channel=0, data=[4, 0]),
   midi.NoteOnEvent(tick=2403000, channel=0, data=[18, 100]),
   midi.NoteOffEvent(tick=2403100, channel=0, data=[18, 0]),
   midi.NoteOnEvent(tick=2403200, channel=0, data=[36, 100]),
   midi.NoteOffEvent(tick=2403300, channel=0, data=[36, 0]),
   midi.NoteOnEvent(tick=2403400, channel=0, data=[0, 100]),
   midi.NoteOffEvent(tick=2403500, channel=0, data=[0, 0]),
   midi.NoteOnEvent(tick=2403600, channel=0, data=[36, 100]),
   midi.NoteOffEvent(tick=2403700, channel=0, data=[36, 0]),
   midi.NoteOnEvent(tick=2403800, channel=0, data=[13, 100]),
   midi.NoteOffEvent(tick=2403900, channel=0, data=[13, 0]),
   midi.NoteOnEvent(tick=2404000, channel=0, data=[20, 100]),
   midi.NoteOffEvent(tick=2404100, channel=0, data=[20, 0]),
   midi.NoteOnEvent(tick=2404200, channel=0, data=[12, 100]),
   midi.NoteOffEvent(tick=2404300, channel=0, data=[12, 0]),
   midi.NoteOnEvent(tick=2404400, channel=0, data=[4, 100]),
   midi.NoteOffEvent(tick=2404500, channel=0, data=[4, 0]),
   midi.NoteOnEvent(tick=2404600, channel=0, data=[17, 100]),
   midi.NoteOffEvent(tick=2404700, channel=0, data=[17, 0]),
   midi.NoteOnEvent(tick=2404800, channel=0, data=[8, 100]),
   midi.NoteOffEvent(tick=2404900, channel=0, data=[8, 0]),
   midi.NoteOnEvent(tick=2405000, channel=0, data=[2, 100]),
   midi.NoteOffEvent(tick=2405100, channel=0, data=[2, 0]),
   midi.NoteOnEvent(tick=2405200, channel=0, data=[36, 100]),
   midi.NoteOffEvent(tick=2405300, channel=0, data=[36, 0]),
   midi.NoteOnEvent(tick=2405400, channel=0, data=[21, 100]),
   midi.NoteOffEvent(tick=2405500, channel=0, data=[21, 0]),
   midi.NoteOnEvent(tick=2405600, channel=0, data=[0, 100]),
   midi.NoteOffEvent(tick=2405700, channel=0, data=[0, 0]),
   midi.NoteOnEvent(tick=2405800, channel=0, data=[11, 100]),
   midi.NoteOffEvent(tick=2405900, channel=0, data=[11, 0]),
   midi.NoteOnEvent(tick=2406000, channel=0, data=[20, 100]),
   midi.NoteOffEvent(tick=2406100, channel=0, data=[20, 0]),
   midi.NoteOnEvent(tick=2406200, channel=0, data=[4, 100]),
   midi.NoteOffEvent(tick=2406300, channel=0, data=[4, 0]),
   midi.NoteOnEvent(tick=2406400, channel=0, data=[36, 100]),
   midi.NoteOffEvent(tick=2406500, channel=0, data=[36, 0]),
   midi.NoteOnEvent(tick=2406600, channel=0, data=[1, 100]),
   midi.NoteOffEvent(tick=2406700, channel=0, data=[1, 0]),
   midi.NoteOnEvent(tick=2406800, channel=0, data=[24, 100]),
   midi.NoteOffEvent(tick=2406900, channel=0, data=[24, 0]),
   midi.NoteOnEvent(tick=2407000, channel=0, data=[36, 100]),
   midi.NoteOffEvent(tick=2407100, channel=0, data=[36, 0]),
   midi.NoteOnEvent(tick=2407200, channel=0, data=[19, 100]),
   midi.NoteOffEvent(tick=2407300, channel=0, data=[19, 0]),
   midi.NoteOnEvent(tick=2407400, channel=0, data=[7, 100]),
   midi.NoteOffEvent(tick=2407500, channel=0, data=[7, 0]),
   midi.NoteOnEvent(tick=2407600, channel=0, data=[4, 100]),
   midi.NoteOffEvent(tick=2407700, channel=0, data=[4, 0]),
   midi.NoteOnEvent(tick=2407800, channel=0, data=[36, 100]),
   midi.NoteOffEvent(tick=2407900, channel=0, data=[36, 0]),
   midi.NoteOnEvent(tick=2408000, channel=0, data=[56, 100]),
   midi.NoteOffEvent(tick=2408100, channel=0, data=[56, 0]),
   midi.NoteOnEvent(tick=2408200, channel=0, data=[36, 100]),
   midi.NoteOffEvent(tick=2408300, channel=0, data=[36, 0]),
   midi.NoteOnEvent(tick=2408400, channel=0, data=[36, 100]),
   midi.NoteOffEvent(tick=2408500, channel=0, data=[36, 0]),
   midi.NoteOnEvent(tick=2408600, channel=0, data=[36, 100]),
   midi.NoteOffEvent(tick=2408700, channel=0, data=[36, 0]),
   midi.NoteOnEvent(tick=2408800, channel=0, data=[36, 100]),
   midi.NoteOffEvent(tick=2408900, channel=0, data=[36, 0]),
   midi.NoteOnEvent(tick=2409000, channel=0, data=[21, 100]),
   midi.NoteOffEvent(tick=2409100, channel=0, data=[21, 0]),
   midi.NoteOnEvent(tick=2409200, channel=0, data=[0, 100]),
   midi.NoteOffEvent(tick=2409300, channel=0, data=[0, 0]),
   midi.NoteOnEvent(tick=2409400, channel=0, data=[11, 100]),
   midi.NoteOffEvent(tick=2409500, channel=0, data=[11, 0]),
   midi.NoteOnEvent(tick=2409600, channel=0, data=[20, 100]),
   midi.NoteOffEvent(tick=2409700, channel=0, data=[20, 0]),
   midi.NoteOnEvent(tick=2409800, channel=0, data=[4, 100]),
   midi.NoteOffEvent(tick=2409900, channel=0, data=[4, 0]),
   midi.NoteOnEvent(tick=2410000, channel=0, data=[36, 100]),
   midi.NoteOffEvent(tick=2410100, channel=0, data=[36, 0]),
   midi.NoteOnEvent(tick=2410200, channel=0, data=[19, 100]),
   midi.NoteOffEvent(tick=2410300, channel=0, data=[19, 0]),
   midi.NoteOnEvent(tick=2410400, channel=0, data=[7, 100]),
   midi.NoteOffEvent(tick=2410500, channel=0, data=[7, 0]),
   midi.NoteOnEvent(tick=2410600, channel=0, data=[0, 100]),
   midi.NoteOffEvent(tick=2410700, channel=0, data=[0, 0]),
   midi.NoteOnEvent(tick=2410800, channel=0, data=[19, 100]),
   midi.NoteOffEvent(tick=2410900, channel=0, data=[19, 0]),
   midi.NoteOnEvent(tick=2411000, channel=0, data=[36, 100]),
   midi.NoteOffEvent(tick=2411100, channel=0, data=[36, 0]),
   midi.NoteOnEvent(tick=2411200, channel=0, data=[8, 100]),
   midi.NoteOffEvent(tick=2411300, channel=0, data=[8, 0]),
   midi.NoteOnEvent(tick=2411400, channel=0, data=[18, 100]),
   midi.NoteOffEvent(tick=2411500, channel=0, data=[18, 0]),
   midi.NoteOnEvent(tick=2411600, channel=0, data=[36, 100]),
   midi.NoteOffEvent(tick=2411700, channel=0, data=[36, 0]),
   midi.NoteOnEvent(tick=2411800, channel=0, data=[18, 100]),
   midi.NoteOffEvent(tick=2411900, channel=0, data=[18, 0]),
   midi.NoteOnEvent(tick=2412000, channel=0, data=[15, 100]),
   midi.NoteOffEvent(tick=2412100, channel=0, data=[15, 0]),
   midi.NoteOnEvent(tick=2412200, channel=0, data=[4, 100]),
   midi.NoteOffEvent(tick=2412300, channel=0, data=[4, 0]),
   midi.NoteOnEvent(tick=2412400, channel=0, data=[2, 100]),
   midi.NoteOffEvent(tick=2412500, channel=0, data=[2, 0]),
   midi.NoteOnEvent(tick=2412600, channel=0, data=[8, 100]),
   midi.NoteOffEvent(tick=2412700, channel=0, data=[8, 0]),
   midi.NoteOnEvent(tick=2412800, channel=0, data=[5, 100]),
   midi.NoteOffEvent(tick=2412900, channel=0, data=[5, 0]),
   midi.NoteOnEvent(tick=2413000, channel=0, data=[8, 100]),
   midi.NoteOffEvent(tick=2413100, channel=0, data=[8, 0]),
   midi.NoteOnEvent(tick=2413200, channel=0, data=[4, 100]),
   midi.NoteOffEvent(tick=2413300, channel=0, data=[4, 0]),
   midi.NoteOnEvent(tick=2413400, channel=0, data=[3, 100]),
   midi.NoteOffEvent(tick=2413500, channel=0, data=[3, 0]),
   midi.NoteOnEvent(tick=2413600, channel=0, data=[36, 100]),
   midi.NoteOffEvent(tick=2413700, channel=0, data=[36, 0]),
   midi.NoteOnEvent(tick=2413800, channel=0, data=[14, 100]),
   midi.NoteOffEvent(tick=2413900, channel=0, data=[14, 0]),
   midi.NoteOnEvent(tick=2414000, channel=0, data=[13, 100]),
   midi.NoteOffEvent(tick=2414100, channel=0, data=[13, 0]),
   midi.NoteOnEvent(tick=2414200, channel=0, data=[36, 100]),
   midi.NoteOffEvent(tick=2414300, channel=0, data=[36, 0]),
   midi.NoteOnEvent(tick=2414400, channel=0, data=[19, 100]),
   midi.NoteOffEvent(tick=2414500, channel=0, data=[19, 0]),
   midi.NoteOnEvent(tick=2414600, channel=0, data=[7, 100]),
   midi.NoteOffEvent(tick=2414700, channel=0, data=[7, 0]),
   midi.NoteOnEvent(tick=2414800, channel=0, data=[4, 100]),
   midi.NoteOffEvent(tick=2414900, channel=0, data=[4, 0]),
   midi.NoteOnEvent(tick=2415000, channel=0, data=[36, 100]),
   midi.NoteOffEvent(tick=2415100, channel=0, data=[36, 0]),
   midi.NoteOnEvent(tick=2415200, channel=0, data=[17, 100]),
   midi.NoteOffEvent(tick=2415300, channel=0, data=[17, 0]),
   midi.NoteOnEvent(tick=2415400, channel=0, data=[8, 100]),
   midi.NoteOffEvent(tick=2415500, channel=0, data=[8, 0]),
   midi.NoteOnEvent(tick=2415600, channel=0, data=[6, 100]),
   midi.NoteOffEvent(tick=2415700, channel=0, data=[6, 0]),
   midi.NoteOnEvent(tick=2415800, channel=0, data=[7, 100]),
   midi.NoteOffEvent(tick=2415900, channel=0, data=[7, 0]),
   midi.NoteOnEvent(tick=2416000, channel=0, data=[19, 100]),
   midi.NoteOffEvent(tick=2416100, channel=0, data=[19, 0]),
   midi.NoteOnEvent(tick=2416200, channel=0, data=[36, 100]),
   midi.NoteOffEvent(tick=2416300, channel=0, data=[36, 0]),
   midi.NoteOnEvent(tick=2416400, channel=0, data=[18, 100]),
   midi.NoteOffEvent(tick=2416500, channel=0, data=[18, 0]),
   midi.NoteOnEvent(tick=2416600, channel=0, data=[8, 100]),
   midi.NoteOffEvent(tick=2416700, channel=0, data=[8, 0]),
   midi.NoteOnEvent(tick=2416800, channel=0, data=[3, 100]),
   midi.NoteOffEvent(tick=2416900, channel=0, data=[3, 0]),
   midi.NoteOnEvent(tick=2417000, channel=0, data=[4, 100]),
   midi.NoteOffEvent(tick=2417100, channel=0, data=[4, 0]),
   midi.NoteOnEvent(tick=2417200, channel=0, data=[36, 100]),
   midi.NoteOffEvent(tick=2417300, channel=0, data=[36, 0]),
   midi.NoteOnEvent(tick=2417400, channel=0, data=[14, 100]),
   midi.NoteOffEvent(tick=2417500, channel=0, data=[14, 0]),
   midi.NoteOnEvent(tick=2417600, channel=0, data=[5, 100]),
   midi.NoteOffEvent(tick=2417700, channel=0, data=[5, 0]),
   midi.NoteOnEvent(tick=2417800, channel=0, data=[36, 100]),
   midi.NoteOffEvent(tick=2417900, channel=0, data=[36, 0]),
   midi.NoteOnEvent(tick=2418000, channel=0, data=[19, 100]),
   midi.NoteOffEvent(tick=2418100, channel=0, data=[19, 0]),
   midi.NoteOnEvent(tick=2418200, channel=0, data=[7, 100]),
   midi.NoteOffEvent(tick=2418300, channel=0, data=[7, 0]),
   midi.NoteOnEvent(tick=2418400, channel=0, data=[4, 100]),
   midi.NoteOffEvent(tick=2418500, channel=0, data=[4, 0]),
   midi.NoteOnEvent(tick=2418600, channel=0, data=[36, 100]),
   midi.NoteOffEvent(tick=2418700, channel=0, data=[36, 0]),
   midi.NoteOnEvent(tick=2418800, channel=0, data=[14, 100]),
   midi.NoteOffEvent(tick=2418900, channel=0, data=[14, 0]),
   midi.NoteOnEvent(tick=2419000, channel=0, data=[15, 100]),
   midi.NoteOffEvent(tick=2419100, channel=0, data=[15, 0]),
   midi.NoteOnEvent(tick=2419200, channel=0, data=[4, 100]),
   midi.NoteOffEvent(tick=2419300, channel=0, data=[4, 0]),
   midi.NoteOnEvent(tick=2419400, channel=0, data=[17, 100]),
   midi.NoteOffEvent(tick=2419500, channel=0, data=[17, 0]),
   midi.NoteOnEvent(tick=2419600, channel=0, data=[0, 100]),
   midi.NoteOffEvent(tick=2419700, channel=0, data=[0, 0]),
   midi.NoteOnEvent(tick=2419800, channel=0, data=[19, 100]),
   midi.NoteOffEvent(tick=2419900, channel=0, data=[19, 0]),
   midi.NoteOnEvent(tick=2420000, channel=0, data=[14, 100]),
   midi.NoteOffEvent(tick=2420100, channel=0, data=[14, 0]),
   midi.NoteOnEvent(tick=2420200, channel=0, data=[17, 100]),
   midi.NoteOffEvent(tick=2420300, channel=0, data=[17, 0]),
   midi.NoteOnEvent(tick=2420400, channel=0, data=[37, 100]),
   midi.NoteOffEvent(tick=2420500, channel=0, data=[37, 0]),
   midi.NoteOnEvent(tick=2420600, channel=0, data=[36, 100]),
   midi.NoteOffEvent(tick=2420700, channel=0, data=[36, 0]),
   midi.NoteOnEvent(tick=2420800, channel=0, data=[19, 100]),
   midi.NoteOffEvent(tick=2420900, channel=0, data=[19, 0]),
   midi.NoteOnEvent(tick=2421000, channel=0, data=[7, 100]),
   midi.NoteOffEvent(tick=2421100, channel=0, data=[7, 0]),
   midi.NoteOnEvent(tick=2421200, channel=0, data=[4, 100]),
   midi.NoteOffEvent(tick=2421300, channel=0, data=[4, 0]),
   midi.NoteOnEvent(tick=2421400, channel=0, data=[36, 100]),
   midi.NoteOffEvent(tick=2421500, channel=0, data=[36, 0]),
   midi.NoteOnEvent(tick=2421600, channel=0, data=[14, 100]),
   midi.NoteOffEvent(tick=2421700, channel=0, data=[14, 0]),
   midi.NoteOnEvent(tick=2421800, channel=0, data=[15, 100]),
   midi.NoteOffEvent(tick=2421900, channel=0, data=[15, 0]),
   midi.NoteOnEvent(tick=2422000, channel=0, data=[4, 100]),
   midi.NoteOffEvent(tick=2422100, channel=0, data=[4, 0]),
   midi.NoteOnEvent(tick=2422200, channel=0, data=[17, 100]),
   midi.NoteOffEvent(tick=2422300, channel=0, data=[17, 0]),
   midi.NoteOnEvent(tick=2422400, channel=0, data=[0, 100]),
   midi.NoteOffEvent(tick=2422500, channel=0, data=[0, 0]),
   midi.NoteOnEvent(tick=2422600, channel=0, data=[19, 100]),
   midi.NoteOffEvent(tick=2422700, channel=0, data=[19, 0]),
   midi.NoteOnEvent(tick=2422800, channel=0, data=[14, 100]),
   midi.NoteOffEvent(tick=2422900, channel=0, data=[14, 0]),
   midi.NoteOnEvent(tick=2423000, channel=0, data=[17, 100]),
   midi.NoteOffEvent(tick=2423100, channel=0, data=[17, 0]),
   midi.NoteOnEvent(tick=2423200, channel=0, data=[56, 100]),
   midi.NoteOffEvent(tick=2423300, channel=0, data=[56, 0]),
   midi.NoteOnEvent(tick=2423400, channel=0, data=[36, 100]),
   midi.NoteOffEvent(tick=2423500, channel=0, data=[36, 0]),
   midi.NoteOnEvent(tick=2423600, channel=0, data=[36, 100]),
   midi.NoteOffEvent(tick=2423700, channel=0, data=[36, 0]),
   midi.NoteOnEvent(tick=2423800, channel=0, data=[36, 100]),
   midi.NoteOffEvent(tick=2423900, channel=0, data=[36, 0]),
   midi.NoteOnEvent(tick=2424000, channel=0, data=[36, 100]),
   midi.NoteOffEvent(tick=2424100, channel=0, data=[36, 0]),
   midi.NoteOnEvent(tick=2424200, channel=0, data=[2, 100]),
   midi.NoteOffEvent(tick=2424300, channel=0, data=[2, 0]),
   midi.NoteOnEvent(tick=2424400, channel=0, data=[0, 100]),
   midi.NoteOffEvent(tick=2424500, channel=0, data=[0, 0]),
   midi.NoteOnEvent(tick=2424600, channel=0, data=[13, 100]),
   midi.NoteOffEvent(tick=2424700, channel=0, data=[13, 0]),
   midi.NoteOnEvent(tick=2424800, channel=0, data=[13, 100]),
   midi.NoteOffEvent(tick=2424900, channel=0, data=[13, 0]),
   midi.NoteOnEvent(tick=2425000, channel=0, data=[14, 100]),
   midi.NoteOffEvent(tick=2425100, channel=0, data=[14, 0]),
   midi.NoteOnEvent(tick=2425200, channel=0, data=[19, 100]),
   midi.NoteOffEvent(tick=2425300, channel=0, data=[19, 0]),
   midi.NoteOnEvent(tick=2425400, channel=0, data=[36, 100]),
   midi.NoteOffEvent(tick=2425500, channel=0, data=[36, 0]),
   midi.NoteOnEvent(tick=2425600, channel=0, data=[1, 100]),
   midi.NoteOffEvent(tick=2425700, channel=0, data=[1, 0]),
   midi.NoteOnEvent(tick=2425800, channel=0, data=[4, 100]),
   midi.NoteOffEvent(tick=2425900, channel=0, data=[4, 0]),
   midi.NoteOnEvent(tick=2426000, channel=0, data=[36, 100]),
   midi.NoteOffEvent(tick=2426100, channel=0, data=[36, 0]),
   midi.NoteOnEvent(tick=2426200, channel=0, data=[20, 100]),
   midi.NoteOffEvent(tick=2426300, channel=0, data=[20, 0]),
   midi.NoteOnEvent(tick=2426400, channel=0, data=[18, 100]),
   midi.NoteOffEvent(tick=2426500, channel=0, data=[18, 0]),
   midi.NoteOnEvent(tick=2426600, channel=0, data=[4, 100]),
   midi.NoteOffEvent(tick=2426700, channel=0, data=[4, 0]),
   midi.NoteOnEvent(tick=2426800, channel=0, data=[3, 100]),
   midi.NoteOffEvent(tick=2426900, channel=0, data=[3, 0]),
   midi.NoteOnEvent(tick=2427000, channel=0, data=[36, 100]),
   midi.NoteOffEvent(tick=2427100, channel=0, data=[36, 0]),
   midi.NoteOnEvent(tick=2427200, channel=0, data=[22, 100]),
   midi.NoteOffEvent(tick=2427300, channel=0, data=[22, 0]),
   midi.NoteOnEvent(tick=2427400, channel=0, data=[8, 100]),
   midi.NoteOffEvent(tick=2427500, channel=0, data=[8, 0]),
   midi.NoteOnEvent(tick=2427600, channel=0, data=[19, 100]),
   midi.NoteOffEvent(tick=2427700, channel=0, data=[19, 0]),
   midi.NoteOnEvent(tick=2427800, channel=0, data=[7, 100]),
   midi.NoteOffEvent(tick=2427900, channel=0, data=[7, 0]),
   midi.NoteOnEvent(tick=2428000, channel=0, data=[36, 100]),
   midi.NoteOffEvent(tick=2428100, channel=0, data=[36, 0]),
   midi.NoteOnEvent(tick=2428200, channel=0, data=[18, 100]),
   midi.NoteOffEvent(tick=2428300, channel=0, data=[18, 0]),
   midi.NoteOnEvent(tick=2428400, channel=0, data=[19, 100]),
   midi.NoteOffEvent(tick=2428500, channel=0, data=[19, 0]),
   midi.NoteOnEvent(tick=2428600, channel=0, data=[17, 100]),
   midi.NoteOffEvent(tick=2428700, channel=0, data=[17, 0]),
   midi.NoteOnEvent(tick=2428800, channel=0, data=[8, 100]),
   midi.NoteOffEvent(tick=2428900, channel=0, data=[8, 0]),
   midi.NoteOnEvent(tick=2429000, channel=0, data=[13, 100]),
   midi.NoteOffEvent(tick=2429100, channel=0, data=[13, 0]),
   midi.NoteOnEvent(tick=2429200, channel=0, data=[6, 100]),
   midi.NoteOffEvent(tick=2429300, channel=0, data=[6, 0]),
   midi.NoteOnEvent(tick=2429400, channel=0, data=[36, 100]),
   midi.NoteOffEvent(tick=2429500, channel=0, data=[36, 0]),
   midi.NoteOnEvent(tick=2429600, channel=0, data=[21, 100]),
   midi.NoteOffEvent(tick=2429700, channel=0, data=[21, 0]),
   midi.NoteOnEvent(tick=2429800, channel=0, data=[0, 100]),
   midi.NoteOffEvent(tick=2429900, channel=0, data=[0, 0]),
   midi.NoteOnEvent(tick=2430000, channel=0, data=[17, 100]),
   midi.NoteOffEvent(tick=2430100, channel=0, data=[17, 0]),
   midi.NoteOnEvent(tick=2430200, channel=0, data=[8, 100]),
   midi.NoteOffEvent(tick=2430300, channel=0, data=[8, 0]),
   midi.NoteOnEvent(tick=2430400, channel=0, data=[0, 100]),
   midi.NoteOffEvent(tick=2430500, channel=0, data=[0, 0]),
   midi.NoteOnEvent(tick=2430600, channel=0, data=[1, 100]),
   midi.NoteOffEvent(tick=2430700, channel=0, data=[1, 0]),
   midi.NoteOnEvent(tick=2430800, channel=0, data=[11, 100]),
   midi.NoteOffEvent(tick=2430900, channel=0, data=[11, 0]),
   midi.NoteOnEvent(tick=2431000, channel=0, data=[4, 100]),
   midi.NoteOffEvent(tick=2431100, channel=0, data=[4, 0]),
   midi.NoteOnEvent(tick=2431200, channel=0, data=[18, 100]),
   midi.NoteOffEvent(tick=2431300, channel=0, data=[18, 0]),
   midi.NoteOnEvent(tick=2431400, channel=0, data=[37, 100]),
   midi.NoteOffEvent(tick=2431500, channel=0, data=[37, 0]),
   midi.NoteOnEvent(tick=2431600, channel=0, data=[56, 100]),
   midi.NoteOffEvent(tick=2431700, channel=0, data=[56, 0]),
   midi.NoteOnEvent(tick=2431800, channel=0, data=[56, 100]),
   midi.NoteOffEvent(tick=2431900, channel=0, data=[56, 0]),
   midi.NoteOnEvent(tick=2432000, channel=0, data=[56, 100]),
   midi.NoteOffEvent(tick=2432100, channel=0, data=[56, 0]),
   midi.NoteOnEvent(tick=2432200, channel=0, data=[36, 100]),
   midi.NoteOffEvent(tick=2432300, channel=0, data=[36, 0]),
   midi.NoteOnEvent(tick=2432400, channel=0, data=[36, 100]),
   midi.NoteOffEvent(tick=2432500, channel=0, data=[36, 0]),
   midi.NoteOnEvent(tick=2432600, channel=0, data=[36, 100]),
   midi.NoteOffEvent(tick=2432700, channel=0, data=[36, 0]),
   midi.NoteOnEvent(tick=2432800, channel=0, data=[36, 100]),
   midi.NoteOffEvent(tick=2432900, channel=0, data=[36, 0]),
   midi.NoteOnEvent(tick=2433000, channel=0, data=[19, 100]),
   midi.NoteOffEvent(tick=2433100, channel=0, data=[19, 0]),
   midi.NoteOnEvent(tick=2433200, channel=0, data=[7, 100]),
   midi.NoteOffEvent(tick=2433300, channel=0, data=[7, 0]),
   midi.NoteOnEvent(tick=2433400, channel=0, data=[4, 100]),
   midi.NoteOffEvent(tick=2433500, channel=0, data=[4, 0]),
   midi.NoteOnEvent(tick=2433600, channel=0, data=[36, 100]),
   midi.NoteOffEvent(tick=2433700, channel=0, data=[36, 0]),
   midi.NoteOnEvent(tick=2433800, channel=0, data=[70, 100]),
   midi.NoteOffEvent(tick=2433900, channel=0, data=[70, 0]),
   midi.NoteOnEvent(tick=2434000, channel=0, data=[69, 100]),
   midi.NoteOffEvent(tick=2434100, channel=0, data=[69, 0]),
   midi.NoteOnEvent(tick=2434200, channel=0, data=[36, 100]),
   midi.NoteOffEvent(tick=2434300, channel=0, data=[36, 0]),
   midi.NoteOnEvent(tick=2434400, channel=0, data=[14, 100]),
   midi.NoteOffEvent(tick=2434500, channel=0, data=[14, 0]),
   midi.NoteOnEvent(tick=2434600, channel=0, data=[15, 100]),
   midi.NoteOffEvent(tick=2434700, channel=0, data=[15, 0]),
   midi.NoteOnEvent(tick=2434800, channel=0, data=[4, 100]),
   midi.NoteOffEvent(tick=2434900, channel=0, data=[4, 0]),
   midi.NoteOnEvent(tick=2435000, channel=0, data=[17, 100]),
   midi.NoteOffEvent(tick=2435100, channel=0, data=[17, 0]),
   midi.NoteOnEvent(tick=2435200, channel=0, data=[0, 100]),
   midi.NoteOffEvent(tick=2435300, channel=0, data=[0, 0]),
   midi.NoteOnEvent(tick=2435400, channel=0, data=[19, 100]),
   midi.NoteOffEvent(tick=2435500, channel=0, data=[19, 0]),
   midi.NoteOnEvent(tick=2435600, channel=0, data=[14, 100]),
   midi.NoteOffEvent(tick=2435700, channel=0, data=[14, 0]),
   midi.NoteOnEvent(tick=2435800, channel=0, data=[17, 100]),
   midi.NoteOffEvent(tick=2435900, channel=0, data=[17, 0]),
   midi.NoteOnEvent(tick=2436000, channel=0, data=[36, 100]),
   midi.NoteOffEvent(tick=2436100, channel=0, data=[36, 0]),
   midi.NoteOnEvent(tick=2436200, channel=0, data=[2, 100]),
   midi.NoteOffEvent(tick=2436300, channel=0, data=[2, 0]),
   midi.NoteOnEvent(tick=2436400, channel=0, data=[14, 100]),
   midi.NoteOffEvent(tick=2436500, channel=0, data=[14, 0]),
   midi.NoteOnEvent(tick=2436600, channel=0, data=[12, 100]),
   midi.NoteOffEvent(tick=2436700, channel=0, data=[12, 0]),
   midi.NoteOnEvent(tick=2436800, channel=0, data=[1, 100]),
   midi.NoteOffEvent(tick=2436900, channel=0, data=[1, 0]),
   midi.NoteOnEvent(tick=2437000, channel=0, data=[8, 100]),
   midi.NoteOffEvent(tick=2437100, channel=0, data=[8, 0]),
   midi.NoteOnEvent(tick=2437200, channel=0, data=[13, 100]),
   midi.NoteOffEvent(tick=2437300, channel=0, data=[13, 0]),
   midi.NoteOnEvent(tick=2437400, channel=0, data=[4, 100]),
   midi.NoteOffEvent(tick=2437500, channel=0, data=[4, 0]),
   midi.NoteOnEvent(tick=2437600, channel=0, data=[18, 100]),
   midi.NoteOffEvent(tick=2437700, channel=0, data=[18, 0]),
   midi.NoteOnEvent(tick=2437800, channel=0, data=[36, 100]),
   midi.NoteOffEvent(tick=2437900, channel=0, data=[36, 0]),
   midi.NoteOnEvent(tick=2438000, channel=0, data=[19, 100]),
   midi.NoteOffEvent(tick=2438100, channel=0, data=[19, 0]),
   midi.NoteOnEvent(tick=2438200, channel=0, data=[22, 100]),
   midi.NoteOffEvent(tick=2438300, channel=0, data=[22, 0]),
   midi.NoteOnEvent(tick=2438400, channel=0, data=[14, 100]),
   midi.NoteOffEvent(tick=2438500, channel=0, data=[14, 0]),
   midi.NoteOnEvent(tick=2438600, channel=0, data=[36, 100]),
   midi.NoteOffEvent(tick=2438700, channel=0, data=[36, 0]),
   midi.NoteOnEvent(tick=2438800, channel=0, data=[14, 100]),
   midi.NoteOffEvent(tick=2438900, channel=0, data=[14, 0]),
   midi.NoteOnEvent(tick=2439000, channel=0, data=[15, 100]),
   midi.NoteOffEvent(tick=2439100, channel=0, data=[15, 0]),
   midi.NoteOnEvent(tick=2439200, channel=0, data=[4, 100]),
   midi.NoteOffEvent(tick=2439300, channel=0, data=[4, 0]),
   midi.NoteOnEvent(tick=2439400, channel=0, data=[17, 100]),
   midi.NoteOffEvent(tick=2439500, channel=0, data=[17, 0]),
   midi.NoteOnEvent(tick=2439600, channel=0, data=[0, 100]),
   midi.NoteOffEvent(tick=2439700, channel=0, data=[0, 0]),
   midi.NoteOnEvent(tick=2439800, channel=0, data=[19, 100]),
   midi.NoteOffEvent(tick=2439900, channel=0, data=[19, 0]),
   midi.NoteOnEvent(tick=2440000, channel=0, data=[8, 100]),
   midi.NoteOffEvent(tick=2440100, channel=0, data=[8, 0]),
   midi.NoteOnEvent(tick=2440200, channel=0, data=[14, 100]),
   midi.NoteOffEvent(tick=2440300, channel=0, data=[14, 0]),
   midi.NoteOnEvent(tick=2440400, channel=0, data=[13, 100]),
   midi.NoteOffEvent(tick=2440500, channel=0, data=[13, 0]),
   midi.NoteOnEvent(tick=2440600, channel=0, data=[18, 100]),
   midi.NoteOffEvent(tick=2440700, channel=0, data=[18, 0]),
   midi.NoteOnEvent(tick=2440800, channel=0, data=[37, 100]),
   midi.NoteOffEvent(tick=2440900, channel=0, data=[37, 0]),
   midi.NoteOnEvent(tick=2441000, channel=0, data=[36, 100]),
   midi.NoteOffEvent(tick=2441100, channel=0, data=[36, 0]),
   midi.NoteOnEvent(tick=2441200, channel=0, data=[5, 100]),
   midi.NoteOffEvent(tick=2441300, channel=0, data=[5, 0]),
   midi.NoteOnEvent(tick=2441400, channel=0, data=[8, 100]),
   midi.NoteOffEvent(tick=2441500, channel=0, data=[8, 0]),
   midi.NoteOnEvent(tick=2441600, channel=0, data=[17, 100]),
   midi.NoteOffEvent(tick=2441700, channel=0, data=[17, 0]),
   midi.NoteOnEvent(tick=2441800, channel=0, data=[18, 100]),
   midi.NoteOffEvent(tick=2441900, channel=0, data=[18, 0]),
   midi.NoteOnEvent(tick=2442000, channel=0, data=[19, 100]),
   midi.NoteOffEvent(tick=2442100, channel=0, data=[19, 0]),
   midi.NoteOnEvent(tick=2442200, channel=0, data=[38, 100]),
   midi.NoteOffEvent(tick=2442300, channel=0, data=[38, 0]),
   midi.NoteOnEvent(tick=2442400, channel=0, data=[36, 100]),
   midi.NoteOffEvent(tick=2442500, channel=0, data=[36, 0]),
   midi.NoteOnEvent(tick=2442600, channel=0, data=[8, 100]),
   midi.NoteOffEvent(tick=2442700, channel=0, data=[8, 0]),
   midi.NoteOnEvent(tick=2442800, channel=0, data=[19, 100]),
   midi.NoteOffEvent(tick=2442900, channel=0, data=[19, 0]),
   midi.NoteOnEvent(tick=2443000, channel=0, data=[36, 100]),
   midi.NoteOffEvent(tick=2443100, channel=0, data=[36, 0]),
   midi.NoteOnEvent(tick=2443200, channel=0, data=[3, 100]),
   midi.NoteOffEvent(tick=2443300, channel=0, data=[3, 0]),
   midi.NoteOnEvent(tick=2443400, channel=0, data=[8, 100]),
   midi.NoteOffEvent(tick=2443500, channel=0, data=[8, 0]),
   midi.NoteOnEvent(tick=2443600, channel=0, data=[21, 100]),
   midi.NoteOffEvent(tick=2443700, channel=0, data=[21, 0]),
   midi.NoteOnEvent(tick=2443800, channel=0, data=[8, 100]),
   midi.NoteOffEvent(tick=2443900, channel=0, data=[8, 0]),
   midi.NoteOnEvent(tick=2444000, channel=0, data=[3, 100]),
   midi.NoteOffEvent(tick=2444100, channel=0, data=[3, 0]),
   midi.NoteOnEvent(tick=2444200, channel=0, data=[4, 100]),
   midi.NoteOffEvent(tick=2444300, channel=0, data=[4, 0]),
   midi.NoteOnEvent(tick=2444400, channel=0, data=[18, 100]),
   midi.NoteOffEvent(tick=2444500, channel=0, data=[18, 0]),
   midi.NoteOnEvent(tick=2444600, channel=0, data=[38, 100]),
   midi.NoteOffEvent(tick=2444700, channel=0, data=[38, 0]),
   midi.NoteOnEvent(tick=2444800, channel=0, data=[36, 100]),
   midi.NoteOffEvent(tick=2444900, channel=0, data=[36, 0]),
   midi.NoteOnEvent(tick=2445000, channel=0, data=[0, 100]),
   midi.NoteOffEvent(tick=2445100, channel=0, data=[0, 0]),
   midi.NoteOnEvent(tick=2445200, channel=0, data=[13, 100]),
   midi.NoteOffEvent(tick=2445300, channel=0, data=[13, 0]),
   midi.NoteOnEvent(tick=2445400, channel=0, data=[3, 100]),
   midi.NoteOffEvent(tick=2445500, channel=0, data=[3, 0]),
   midi.NoteOnEvent(tick=2445600, channel=0, data=[36, 100]),
   midi.NoteOffEvent(tick=2445700, channel=0, data=[36, 0]),
   midi.NoteOnEvent(tick=2445800, channel=0, data=[19, 100]),
   midi.NoteOffEvent(tick=2445900, channel=0, data=[19, 0]),
   midi.NoteOnEvent(tick=2446000, channel=0, data=[7, 100]),
   midi.NoteOffEvent(tick=2446100, channel=0, data=[7, 0]),
   midi.NoteOnEvent(tick=2446200, channel=0, data=[4, 100]),
   midi.NoteOffEvent(tick=2446300, channel=0, data=[4, 0]),
   midi.NoteOnEvent(tick=2446400, channel=0, data=[13, 100]),
   midi.NoteOffEvent(tick=2446500, channel=0, data=[13, 0]),
   midi.NoteOnEvent(tick=2446600, channel=0, data=[36, 100]),
   midi.NoteOffEvent(tick=2446700, channel=0, data=[36, 0]),
   midi.NoteOnEvent(tick=2446800, channel=0, data=[8, 100]),
   midi.NoteOffEvent(tick=2446900, channel=0, data=[8, 0]),
   midi.NoteOnEvent(tick=2447000, channel=0, data=[19, 100]),
   midi.NoteOffEvent(tick=2447100, channel=0, data=[19, 0]),
   midi.NoteOnEvent(tick=2447200, channel=0, data=[36, 100]),
   midi.NoteOffEvent(tick=2447300, channel=0, data=[36, 0]),
   midi.NoteOnEvent(tick=2447400, channel=0, data=[56, 100]),
   midi.NoteOffEvent(tick=2447500, channel=0, data=[56, 0]),
   midi.NoteOnEvent(tick=2447600, channel=0, data=[36, 100]),
   midi.NoteOffEvent(tick=2447700, channel=0, data=[36, 0]),
   midi.NoteOnEvent(tick=2447800, channel=0, data=[36, 100]),
   midi.NoteOffEvent(tick=2447900, channel=0, data=[36, 0]),
   midi.NoteOnEvent(tick=2448000, channel=0, data=[36, 100]),
   midi.NoteOffEvent(tick=2448100, channel=0, data=[36, 0]),
   midi.NoteOnEvent(tick=2448200, channel=0, data=[36, 100]),
   midi.NoteOffEvent(tick=2448300, channel=0, data=[36, 0]),
   midi.NoteOnEvent(tick=2448400, channel=0, data=[0, 100]),
   midi.NoteOffEvent(tick=2448500, channel=0, data=[0, 0]),
   midi.NoteOnEvent(tick=2448600, channel=0, data=[18, 100]),
   midi.NoteOffEvent(tick=2448700, channel=0, data=[18, 0]),
   midi.NoteOnEvent(tick=2448800, channel=0, data=[18, 100]),
   midi.NoteOffEvent(tick=2448900, channel=0, data=[18, 0]),
   midi.NoteOnEvent(tick=2449000, channel=0, data=[8, 100]),
   midi.NoteOffEvent(tick=2449100, channel=0, data=[8, 0]),
   midi.NoteOnEvent(tick=2449200, channel=0, data=[6, 100]),
   midi.NoteOffEvent(tick=2449300, channel=0, data=[6, 0]),
   midi.NoteOnEvent(tick=2449400, channel=0, data=[13, 100]),
   midi.NoteOffEvent(tick=2449500, channel=0, data=[13, 0]),
   midi.NoteOnEvent(tick=2449600, channel=0, data=[18, 100]),
   midi.NoteOffEvent(tick=2449700, channel=0, data=[18, 0]),
   midi.NoteOnEvent(tick=2449800, channel=0, data=[37, 100]),
   midi.NoteOffEvent(tick=2449900, channel=0, data=[37, 0]),
   midi.NoteOnEvent(tick=2450000, channel=0, data=[36, 100]),
   midi.NoteOffEvent(tick=2450100, channel=0, data=[36, 0]),
   midi.NoteOnEvent(tick=2450200, channel=0, data=[19, 100]),
   midi.NoteOffEvent(tick=2450300, channel=0, data=[19, 0]),
   midi.NoteOnEvent(tick=2450400, channel=0, data=[7, 100]),
   midi.NoteOffEvent(tick=2450500, channel=0, data=[7, 0]),
   midi.NoteOnEvent(tick=2450600, channel=0, data=[4, 100]),
   midi.NoteOffEvent(tick=2450700, channel=0, data=[4, 0]),
   midi.NoteOnEvent(tick=2450800, channel=0, data=[17, 100]),
   midi.NoteOffEvent(tick=2450900, channel=0, data=[17, 0]),
   midi.NoteOnEvent(tick=2451000, channel=0, data=[4, 100]),
   midi.NoteOffEvent(tick=2451100, channel=0, data=[4, 0]),
   midi.NoteOnEvent(tick=2451200, channel=0, data=[5, 100]),
   midi.NoteOffEvent(tick=2451300, channel=0, data=[5, 0]),
   midi.NoteOnEvent(tick=2451400, channel=0, data=[14, 100]),
   midi.NoteOffEvent(tick=2451500, channel=0, data=[14, 0]),
   midi.NoteOnEvent(tick=2451600, channel=0, data=[17, 100]),
   midi.NoteOffEvent(tick=2451700, channel=0, data=[17, 0]),
   midi.NoteOnEvent(tick=2451800, channel=0, data=[4, 100]),
   midi.NoteOffEvent(tick=2451900, channel=0, data=[4, 0]),
   midi.NoteOnEvent(tick=2452000, channel=0, data=[38, 100]),
   midi.NoteOffEvent(tick=2452100, channel=0, data=[38, 0]),
   midi.NoteOnEvent(tick=2452200, channel=0, data=[36, 100]),
   midi.NoteOffEvent(tick=2452300, channel=0, data=[36, 0]),
   midi.NoteOnEvent(tick=2452400, channel=0, data=[19, 100]),
   midi.NoteOffEvent(tick=2452500, channel=0, data=[19, 0]),
   midi.NoteOnEvent(tick=2452600, channel=0, data=[7, 100]),
   midi.NoteOffEvent(tick=2452700, channel=0, data=[7, 0]),
   midi.NoteOnEvent(tick=2452800, channel=0, data=[4, 100]),
   midi.NoteOffEvent(tick=2452900, channel=0, data=[4, 0]),
   midi.NoteOnEvent(tick=2453000, channel=0, data=[36, 100]),
   midi.NoteOffEvent(tick=2453100, channel=0, data=[36, 0]),
   midi.NoteOnEvent(tick=2453200, channel=0, data=[5, 100]),
   midi.NoteOffEvent(tick=2453300, channel=0, data=[5, 0]),
   midi.NoteOnEvent(tick=2453400, channel=0, data=[14, 100]),
   midi.NoteOffEvent(tick=2453500, channel=0, data=[14, 0]),
   midi.NoteOnEvent(tick=2453600, channel=0, data=[11, 100]),
   midi.NoteOffEvent(tick=2453700, channel=0, data=[11, 0]),
   midi.NoteOnEvent(tick=2453800, channel=0, data=[11, 100]),
   midi.NoteOffEvent(tick=2453900, channel=0, data=[11, 0]),
   midi.NoteOnEvent(tick=2454000, channel=0, data=[14, 100]),
   midi.NoteOffEvent(tick=2454100, channel=0, data=[14, 0]),
   midi.NoteOnEvent(tick=2454200, channel=0, data=[22, 100]),
   midi.NoteOffEvent(tick=2454300, channel=0, data=[22, 0]),
   midi.NoteOnEvent(tick=2454400, channel=0, data=[8, 100]),
   midi.NoteOffEvent(tick=2454500, channel=0, data=[8, 0]),
   midi.NoteOnEvent(tick=2454600, channel=0, data=[13, 100]),
   midi.NoteOffEvent(tick=2454700, channel=0, data=[13, 0]),
   midi.NoteOnEvent(tick=2454800, channel=0, data=[6, 100]),
   midi.NoteOffEvent(tick=2454900, channel=0, data=[6, 0]),
   midi.NoteOnEvent(tick=2455000, channel=0, data=[36, 100]),
   midi.NoteOffEvent(tick=2455100, channel=0, data=[36, 0]),
   midi.NoteOnEvent(tick=2455200, channel=0, data=[19, 100]),
   midi.NoteOffEvent(tick=2455300, channel=0, data=[19, 0]),
   midi.NoteOnEvent(tick=2455400, channel=0, data=[22, 100]),
   midi.NoteOffEvent(tick=2455500, channel=0, data=[22, 0]),
   midi.NoteOnEvent(tick=2455600, channel=0, data=[14, 100]),
   midi.NoteOffEvent(tick=2455700, channel=0, data=[14, 0]),
   midi.NoteOnEvent(tick=2455800, channel=0, data=[36, 100]),
   midi.NoteOffEvent(tick=2455900, channel=0, data=[36, 0]),
   midi.NoteOnEvent(tick=2456000, channel=0, data=[18, 100]),
   midi.NoteOffEvent(tick=2456100, channel=0, data=[18, 0]),
   midi.NoteOnEvent(tick=2456200, channel=0, data=[19, 100]),
   midi.NoteOffEvent(tick=2456300, channel=0, data=[19, 0]),
   midi.NoteOnEvent(tick=2456400, channel=0, data=[0, 100]),
   midi.NoteOffEvent(tick=2456500, channel=0, data=[0, 0]),
   midi.NoteOnEvent(tick=2456600, channel=0, data=[19, 100]),
   midi.NoteOffEvent(tick=2456700, channel=0, data=[19, 0]),
   midi.NoteOnEvent(tick=2456800, channel=0, data=[4, 100]),
   midi.NoteOffEvent(tick=2456900, channel=0, data=[4, 0]),
   midi.NoteOnEvent(tick=2457000, channel=0, data=[12, 100]),
   midi.NoteOffEvent(tick=2457100, channel=0, data=[12, 0]),
   midi.NoteOnEvent(tick=2457200, channel=0, data=[4, 100]),
   midi.NoteOffEvent(tick=2457300, channel=0, data=[4, 0]),
   midi.NoteOnEvent(tick=2457400, channel=0, data=[13, 100]),
   midi.NoteOffEvent(tick=2457500, channel=0, data=[13, 0]),
   midi.NoteOnEvent(tick=2457600, channel=0, data=[19, 100]),
   midi.NoteOffEvent(tick=2457700, channel=0, data=[19, 0]),
   midi.NoteOnEvent(tick=2457800, channel=0, data=[18, 100]),
   midi.NoteOffEvent(tick=2457900, channel=0, data=[18, 0]),
   midi.NoteOnEvent(tick=2458000, channel=0, data=[36, 100]),
   midi.NoteOffEvent(tick=2458100, channel=0, data=[36, 0]),
   midi.NoteOnEvent(tick=2458200, channel=0, data=[0, 100]),
   midi.NoteOffEvent(tick=2458300, channel=0, data=[0, 0]),
   midi.NoteOnEvent(tick=2458400, channel=0, data=[17, 100]),
   midi.NoteOffEvent(tick=2458500, channel=0, data=[17, 0]),
   midi.NoteOnEvent(tick=2458600, channel=0, data=[4, 100]),
   midi.NoteOffEvent(tick=2458700, channel=0, data=[4, 0]),
   midi.NoteOnEvent(tick=2458800, channel=0, data=[36, 100]),
   midi.NoteOffEvent(tick=2458900, channel=0, data=[36, 0]),
   midi.NoteOnEvent(tick=2459000, channel=0, data=[4, 100]),
   midi.NoteOffEvent(tick=2459100, channel=0, data=[4, 0]),
   midi.NoteOnEvent(tick=2459200, channel=0, data=[16, 100]),
   midi.NoteOffEvent(tick=2459300, channel=0, data=[16, 0]),
   midi.NoteOnEvent(tick=2459400, channel=0, data=[20, 100]),
   midi.NoteOffEvent(tick=2459500, channel=0, data=[20, 0]),
   midi.NoteOnEvent(tick=2459600, channel=0, data=[8, 100]),
   midi.NoteOffEvent(tick=2459700, channel=0, data=[8, 0]),
   midi.NoteOnEvent(tick=2459800, channel=0, data=[21, 100]),
   midi.NoteOffEvent(tick=2459900, channel=0, data=[21, 0]),
   midi.NoteOnEvent(tick=2460000, channel=0, data=[0, 100]),
   midi.NoteOffEvent(tick=2460100, channel=0, data=[0, 0]),
   midi.NoteOnEvent(tick=2460200, channel=0, data=[11, 100]),
   midi.NoteOffEvent(tick=2460300, channel=0, data=[11, 0]),
   midi.NoteOnEvent(tick=2460400, channel=0, data=[4, 100]),
   midi.NoteOffEvent(tick=2460500, channel=0, data=[4, 0]),
   midi.NoteOnEvent(tick=2460600, channel=0, data=[13, 100]),
   midi.NoteOffEvent(tick=2460700, channel=0, data=[13, 0]),
   midi.NoteOnEvent(tick=2460800, channel=0, data=[19, 100]),
   midi.NoteOffEvent(tick=2460900, channel=0, data=[19, 0]),
   midi.NoteOnEvent(tick=2461000, channel=0, data=[46, 100]),
   midi.NoteOffEvent(tick=2461100, channel=0, data=[46, 0]),
   midi.NoteOnEvent(tick=2461200, channel=0, data=[56, 100]),
   midi.NoteOffEvent(tick=2461300, channel=0, data=[56, 0]),
   midi.NoteOnEvent(tick=2461400, channel=0, data=[56, 100]),
   midi.NoteOffEvent(tick=2461500, channel=0, data=[56, 0]),
   midi.NoteOnEvent(tick=2461600, channel=0, data=[56, 100]),
   midi.NoteOffEvent(tick=2461700, channel=0, data=[56, 0]),
   midi.NoteOnEvent(tick=2461800, channel=0, data=[36, 100]),
   midi.NoteOffEvent(tick=2461900, channel=0, data=[36, 0]),
   midi.NoteOnEvent(tick=2462000, channel=0, data=[36, 100]),
   midi.NoteOffEvent(tick=2462100, channel=0, data=[36, 0]),
   midi.NoteOnEvent(tick=2462200, channel=0, data=[36, 100]),
   midi.NoteOffEvent(tick=2462300, channel=0, data=[36, 0]),
   midi.NoteOnEvent(tick=2462400, channel=0, data=[36, 100]),
   midi.NoteOffEvent(tick=2462500, channel=0, data=[36, 0]),
   midi.NoteOnEvent(tick=2462600, channel=0, data=[36, 100]),
   midi.NoteOffEvent(tick=2462700, channel=0, data=[36, 0]),
   midi.NoteOnEvent(tick=2462800, channel=0, data=[36, 100]),
   midi.NoteOffEvent(tick=2462900, channel=0, data=[36, 0]),
   midi.NoteOnEvent(tick=2463000, channel=0, data=[36, 100]),
   midi.NoteOffEvent(tick=2463100, channel=0, data=[36, 0]),
   midi.NoteOnEvent(tick=2463200, channel=0, data=[36, 100]),
   midi.NoteOffEvent(tick=2463300, channel=0, data=[36, 0]),
   midi.NoteOnEvent(tick=2463400, channel=0, data=[74, 100]),
   midi.NoteOffEvent(tick=2463500, channel=0, data=[74, 0]),
   midi.NoteOnEvent(tick=2463600, channel=0, data=[0, 100]),
   midi.NoteOffEvent(tick=2463700, channel=0, data=[0, 0]),
   midi.NoteOnEvent(tick=2463800, channel=0, data=[36, 100]),
   midi.NoteOffEvent(tick=2463900, channel=0, data=[36, 0]),
   midi.NoteOnEvent(tick=2464000, channel=0, data=[70, 100]),
   midi.NoteOffEvent(tick=2464100, channel=0, data=[70, 0]),
   midi.NoteOnEvent(tick=2464200, channel=0, data=[69, 100]),
   midi.NoteOffEvent(tick=2464300, channel=0, data=[69, 0]),
   midi.NoteOnEvent(tick=2464400, channel=0, data=[36, 100]),
   midi.NoteOffEvent(tick=2464500, channel=0, data=[36, 0]),
   midi.NoteOnEvent(tick=2464600, channel=0, data=[28, 100]),
   midi.NoteOffEvent(tick=2464700, channel=0, data=[28, 0]),
   midi.NoteOnEvent(tick=2464800, channel=0, data=[56, 100]),
   midi.NoteOffEvent(tick=2464900, channel=0, data=[56, 0]),
   midi.NoteOnEvent(tick=2465000, channel=0, data=[36, 100]),
   midi.NoteOffEvent(tick=2465100, channel=0, data=[36, 0]),
   midi.NoteOnEvent(tick=2465200, channel=0, data=[36, 100]),
   midi.NoteOffEvent(tick=2465300, channel=0, data=[36, 0]),
   midi.NoteOnEvent(tick=2465400, channel=0, data=[36, 100]),
   midi.NoteOffEvent(tick=2465500, channel=0, data=[36, 0]),
   midi.NoteOnEvent(tick=2465600, channel=0, data=[36, 100]),
   midi.NoteOffEvent(tick=2465700, channel=0, data=[36, 0]),
   midi.NoteOnEvent(tick=2465800, channel=0, data=[36, 100]),
   midi.NoteOffEvent(tick=2465900, channel=0, data=[36, 0]),
   midi.NoteOnEvent(tick=2466000, channel=0, data=[36, 100]),
   midi.NoteOffEvent(tick=2466100, channel=0, data=[36, 0]),
   midi.NoteOnEvent(tick=2466200, channel=0, data=[36, 100]),
   midi.NoteOffEvent(tick=2466300, channel=0, data=[36, 0]),
   midi.NoteOnEvent(tick=2466400, channel=0, data=[36, 100]),
   midi.NoteOffEvent(tick=2466500, channel=0, data=[36, 0]),
   midi.NoteOnEvent(tick=2466600, channel=0, data=[74, 100]),
   midi.NoteOffEvent(tick=2466700, channel=0, data=[74, 0]),
   midi.NoteOnEvent(tick=2466800, channel=0, data=[0, 100]),
   midi.NoteOffEvent(tick=2466900, channel=0, data=[0, 0]),
   midi.NoteOnEvent(tick=2467000, channel=0, data=[36, 100]),
   midi.NoteOffEvent(tick=2467100, channel=0, data=[36, 0]),
   midi.NoteOnEvent(tick=2467200, channel=0, data=[69, 100]),
   midi.NoteOffEvent(tick=2467300, channel=0, data=[69, 0]),
   midi.NoteOnEvent(tick=2467400, channel=0, data=[36, 100]),
   midi.NoteOffEvent(tick=2467500, channel=0, data=[36, 0]),
   midi.NoteOnEvent(tick=2467600, channel=0, data=[49, 100]),
   midi.NoteOffEvent(tick=2467700, channel=0, data=[49, 0]),
   midi.NoteOnEvent(tick=2467800, channel=0, data=[74, 100]),
   midi.NoteOffEvent(tick=2467900, channel=0, data=[74, 0]),
   midi.NoteOnEvent(tick=2468000, channel=0, data=[0, 100]),
   midi.NoteOffEvent(tick=2468100, channel=0, data=[0, 0]),
   midi.NoteOnEvent(tick=2468200, channel=0, data=[36, 100]),
   midi.NoteOffEvent(tick=2468300, channel=0, data=[36, 0]),
   midi.NoteOnEvent(tick=2468400, channel=0, data=[70, 100]),
   midi.NoteOffEvent(tick=2468500, channel=0, data=[70, 0]),
   midi.NoteOnEvent(tick=2468600, channel=0, data=[36, 100]),
   midi.NoteOffEvent(tick=2468700, channel=0, data=[36, 0]),
   midi.NoteOnEvent(tick=2468800, channel=0, data=[28, 100]),
   midi.NoteOffEvent(tick=2468900, channel=0, data=[28, 0]),
   midi.NoteOnEvent(tick=2469000, channel=0, data=[50, 100]),
   midi.NoteOffEvent(tick=2469100, channel=0, data=[50, 0]),
   midi.NoteOnEvent(tick=2469200, channel=0, data=[56, 100]),
   midi.NoteOffEvent(tick=2469300, channel=0, data=[56, 0]),
   midi.NoteOnEvent(tick=2469400, channel=0, data=[56, 100]),
   midi.NoteOffEvent(tick=2469500, channel=0, data=[56, 0]),
   midi.NoteOnEvent(tick=2469600, channel=0, data=[36, 100]),
   midi.NoteOffEvent(tick=2469700, channel=0, data=[36, 0]),
   midi.NoteOnEvent(tick=2469800, channel=0, data=[56, 100]),
   midi.NoteOffEvent(tick=2469900, channel=0, data=[56, 0]),
   midi.NoteOnEvent(tick=2470000, channel=0, data=[36, 100]),
   midi.NoteOffEvent(tick=2470100, channel=0, data=[36, 0]),
   midi.NoteOnEvent(tick=2470200, channel=0, data=[36, 100]),
   midi.NoteOffEvent(tick=2470300, channel=0, data=[36, 0]),
   midi.NoteOnEvent(tick=2470400, channel=0, data=[36, 100]),
   midi.NoteOffEvent(tick=2470500, channel=0, data=[36, 0]),
   midi.NoteOnEvent(tick=2470600, channel=0, data=[36, 100]),
   midi.NoteOffEvent(tick=2470700, channel=0, data=[36, 0]),
   midi.NoteOnEvent(tick=2470800, channel=0, data=[5, 100]),
   midi.NoteOffEvent(tick=2470900, channel=0, data=[5, 0]),
   midi.NoteOnEvent(tick=2471000, channel=0, data=[14, 100]),
   midi.NoteOffEvent(tick=2471100, channel=0, data=[14, 0]),
   midi.NoteOnEvent(tick=2471200, channel=0, data=[17, 100]),
   midi.NoteOffEvent(tick=2471300, channel=0, data=[17, 0]),
   midi.NoteOnEvent(tick=2471400, channel=0, data=[36, 100]),
   midi.NoteOffEvent(tick=2471500, channel=0, data=[36, 0]),
   midi.NoteOnEvent(tick=2471600, channel=0, data=[4, 100]),
   midi.NoteOffEvent(tick=2471700, channel=0, data=[4, 0]),
   midi.NoteOnEvent(tick=2471800, channel=0, data=[23, 100]),
   midi.NoteOffEvent(tick=2471900, channel=0, data=[23, 0]),
   midi.NoteOnEvent(tick=2472000, channel=0, data=[0, 100]),
   midi.NoteOffEvent(tick=2472100, channel=0, data=[0, 0]),
   midi.NoteOnEvent(tick=2472200, channel=0, data=[12, 100]),
   midi.NoteOffEvent(tick=2472300, channel=0, data=[12, 0]),
   midi.NoteOnEvent(tick=2472400, channel=0, data=[15, 100]),
   midi.NoteOffEvent(tick=2472500, channel=0, data=[15, 0]),
   midi.NoteOnEvent(tick=2472600, channel=0, data=[11, 100]),
   midi.NoteOffEvent(tick=2472700, channel=0, data=[11, 0]),
   midi.NoteOnEvent(tick=2472800, channel=0, data=[4, 100]),
   midi.NoteOffEvent(tick=2472900, channel=0, data=[4, 0]),
   midi.NoteOnEvent(tick=2473000, channel=0, data=[38, 100]),
   midi.NoteOffEvent(tick=2473100, channel=0, data=[38, 0]),
   midi.NoteOnEvent(tick=2473200, channel=0, data=[36, 100]),
   midi.NoteOffEvent(tick=2473300, channel=0, data=[36, 0]),
   midi.NoteOnEvent(tick=2473400, channel=0, data=[19, 100]),
   midi.NoteOffEvent(tick=2473500, channel=0, data=[19, 0]),
   midi.NoteOnEvent(tick=2473600, channel=0, data=[7, 100]),
   midi.NoteOffEvent(tick=2473700, channel=0, data=[7, 0]),
   midi.NoteOnEvent(tick=2473800, channel=0, data=[4, 100]),
   midi.NoteOffEvent(tick=2473900, channel=0, data=[4, 0]),
   midi.NoteOnEvent(tick=2474000, channel=0, data=[36, 100]),
   midi.NoteOffEvent(tick=2474100, channel=0, data=[36, 0]),
   midi.NoteOnEvent(tick=2474200, channel=0, data=[5, 100]),
   midi.NoteOffEvent(tick=2474300, channel=0, data=[5, 0]),
   midi.NoteOnEvent(tick=2474400, channel=0, data=[14, 100]),
   midi.NoteOffEvent(tick=2474500, channel=0, data=[14, 0]),
   midi.NoteOnEvent(tick=2474600, channel=0, data=[11, 100]),
   midi.NoteOffEvent(tick=2474700, channel=0, data=[11, 0]),
   midi.NoteOnEvent(tick=2474800, channel=0, data=[11, 100]),
   midi.NoteOffEvent(tick=2474900, channel=0, data=[11, 0]),
   midi.NoteOnEvent(tick=2475000, channel=0, data=[14, 100]),
   midi.NoteOffEvent(tick=2475100, channel=0, data=[14, 0]),
   midi.NoteOnEvent(tick=2475200, channel=0, data=[22, 100]),
   midi.NoteOffEvent(tick=2475300, channel=0, data=[22, 0]),
   midi.NoteOnEvent(tick=2475400, channel=0, data=[8, 100]),
   midi.NoteOffEvent(tick=2475500, channel=0, data=[8, 0]),
   midi.NoteOnEvent(tick=2475600, channel=0, data=[13, 100]),
   midi.NoteOffEvent(tick=2475700, channel=0, data=[13, 0]),
   midi.NoteOnEvent(tick=2475800, channel=0, data=[6, 100]),
   midi.NoteOffEvent(tick=2475900, channel=0, data=[6, 0]),
   midi.NoteOnEvent(tick=2476000, channel=0, data=[36, 100]),
   midi.NoteOffEvent(tick=2476100, channel=0, data=[36, 0]),
   midi.NoteOnEvent(tick=2476200, channel=0, data=[2, 100]),
   midi.NoteOffEvent(tick=2476300, channel=0, data=[2, 0]),
   midi.NoteOnEvent(tick=2476400, channel=0, data=[14, 100]),
   midi.NoteOffEvent(tick=2476500, channel=0, data=[14, 0]),
   midi.NoteOnEvent(tick=2476600, channel=0, data=[12, 100]),
   midi.NoteOffEvent(tick=2476700, channel=0, data=[12, 0]),
   midi.NoteOnEvent(tick=2476800, channel=0, data=[12, 100]),
   midi.NoteOffEvent(tick=2476900, channel=0, data=[12, 0]),
   midi.NoteOnEvent(tick=2477000, channel=0, data=[0, 100]),
   midi.NoteOffEvent(tick=2477100, channel=0, data=[0, 0]),
   midi.NoteOnEvent(tick=2477200, channel=0, data=[13, 100]),
   midi.NoteOffEvent(tick=2477300, channel=0, data=[13, 0]),
   midi.NoteOnEvent(tick=2477400, channel=0, data=[3, 100]),
   midi.NoteOffEvent(tick=2477500, channel=0, data=[3, 0]),
   midi.NoteOnEvent(tick=2477600, channel=0, data=[36, 100]),
   midi.NoteOffEvent(tick=2477700, channel=0, data=[36, 0]),
   midi.NoteOnEvent(tick=2477800, channel=0, data=[20, 100]),
   midi.NoteOffEvent(tick=2477900, channel=0, data=[20, 0]),
   midi.NoteOnEvent(tick=2478000, channel=0, data=[18, 100]),
   midi.NoteOffEvent(tick=2478100, channel=0, data=[18, 0]),
   midi.NoteOnEvent(tick=2478200, channel=0, data=[4, 100]),
   midi.NoteOffEvent(tick=2478300, channel=0, data=[4, 0]),
   midi.NoteOnEvent(tick=2478400, channel=0, data=[18, 100]),
   midi.NoteOffEvent(tick=2478500, channel=0, data=[18, 0]),
   midi.NoteOnEvent(tick=2478600, channel=0, data=[36, 100]),
   midi.NoteOffEvent(tick=2478700, channel=0, data=[36, 0]),
   midi.NoteOnEvent(tick=2478800, channel=0, data=[19, 100]),
   midi.NoteOffEvent(tick=2478900, channel=0, data=[19, 0]),
   midi.NoteOnEvent(tick=2479000, channel=0, data=[7, 100]),
   midi.NoteOffEvent(tick=2479100, channel=0, data=[7, 0]),
   midi.NoteOnEvent(tick=2479200, channel=0, data=[4, 100]),
   midi.NoteOffEvent(tick=2479300, channel=0, data=[4, 0]),
   midi.NoteOnEvent(tick=2479400, channel=0, data=[36, 100]),
   midi.NoteOffEvent(tick=2479500, channel=0, data=[36, 0]),
   midi.NoteOnEvent(tick=2479600, channel=0, data=[70, 100]),
   midi.NoteOffEvent(tick=2479700, channel=0, data=[70, 0]),
   midi.NoteOnEvent(tick=2479800, channel=0, data=[69, 100]),
   midi.NoteOffEvent(tick=2479900, channel=0, data=[69, 0]),
   midi.NoteOnEvent(tick=2480000, channel=0, data=[36, 100]),
   midi.NoteOffEvent(tick=2480100, channel=0, data=[36, 0]),
   midi.NoteOnEvent(tick=2480200, channel=0, data=[14, 100]),
   midi.NoteOffEvent(tick=2480300, channel=0, data=[14, 0]),
   midi.NoteOnEvent(tick=2480400, channel=0, data=[15, 100]),
   midi.NoteOffEvent(tick=2480500, channel=0, data=[15, 0]),
   midi.NoteOnEvent(tick=2480600, channel=0, data=[4, 100]),
   midi.NoteOffEvent(tick=2480700, channel=0, data=[4, 0]),
   midi.NoteOnEvent(tick=2480800, channel=0, data=[17, 100]),
   midi.NoteOffEvent(tick=2480900, channel=0, data=[17, 0]),
   midi.NoteOnEvent(tick=2481000, channel=0, data=[0, 100]),
   midi.NoteOffEvent(tick=2481100, channel=0, data=[0, 0]),
   midi.NoteOnEvent(tick=2481200, channel=0, data=[19, 100]),
   midi.NoteOffEvent(tick=2481300, channel=0, data=[19, 0]),
   midi.NoteOnEvent(tick=2481400, channel=0, data=[14, 100]),
   midi.NoteOffEvent(tick=2481500, channel=0, data=[14, 0]),
   midi.NoteOnEvent(tick=2481600, channel=0, data=[17, 100]),
   midi.NoteOffEvent(tick=2481700, channel=0, data=[17, 0]),
   midi.NoteOnEvent(tick=2481800, channel=0, data=[36, 100]),
   midi.NoteOffEvent(tick=2481900, channel=0, data=[36, 0]),
   midi.NoteOnEvent(tick=2482000, channel=0, data=[19, 100]),
   midi.NoteOffEvent(tick=2482100, channel=0, data=[19, 0]),
   midi.NoteOnEvent(tick=2482200, channel=0, data=[14, 100]),
   midi.NoteOffEvent(tick=2482300, channel=0, data=[14, 0]),
   midi.NoteOnEvent(tick=2482400, channel=0, data=[36, 100]),
   midi.NoteOffEvent(tick=2482500, channel=0, data=[36, 0]),
   midi.NoteOnEvent(tick=2482600, channel=0, data=[3, 100]),
   midi.NoteOffEvent(tick=2482700, channel=0, data=[3, 0]),
   midi.NoteOnEvent(tick=2482800, channel=0, data=[8, 100]),
   midi.NoteOffEvent(tick=2482900, channel=0, data=[8, 0]),
   midi.NoteOnEvent(tick=2483000, channel=0, data=[21, 100]),
   midi.NoteOffEvent(tick=2483100, channel=0, data=[21, 0]),
   midi.NoteOnEvent(tick=2483200, channel=0, data=[8, 100]),
   midi.NoteOffEvent(tick=2483300, channel=0, data=[8, 0]),
   midi.NoteOnEvent(tick=2483400, channel=0, data=[3, 100]),
   midi.NoteOffEvent(tick=2483500, channel=0, data=[3, 0]),
   midi.NoteOnEvent(tick=2483600, channel=0, data=[4, 100]),
   midi.NoteOffEvent(tick=2483700, channel=0, data=[4, 0]),
   midi.NoteOnEvent(tick=2483800, channel=0, data=[36, 100]),
   midi.NoteOffEvent(tick=2483900, channel=0, data=[36, 0]),
   midi.NoteOnEvent(tick=2484000, channel=0, data=[19, 100]),
   midi.NoteOffEvent(tick=2484100, channel=0, data=[19, 0]),
   midi.NoteOnEvent(tick=2484200, channel=0, data=[7, 100]),
   midi.NoteOffEvent(tick=2484300, channel=0, data=[7, 0]),
   midi.NoteOnEvent(tick=2484400, channel=0, data=[4, 100]),
   midi.NoteOffEvent(tick=2484500, channel=0, data=[4, 0]),
   midi.NoteOnEvent(tick=2484600, channel=0, data=[36, 100]),
   midi.NoteOffEvent(tick=2484700, channel=0, data=[36, 0]),
   midi.NoteOnEvent(tick=2484800, channel=0, data=[21, 100]),
   midi.NoteOffEvent(tick=2484900, channel=0, data=[21, 0]),
   midi.NoteOnEvent(tick=2485000, channel=0, data=[0, 100]),
   midi.NoteOffEvent(tick=2485100, channel=0, data=[0, 0]),
   midi.NoteOnEvent(tick=2485200, channel=0, data=[11, 100]),
   midi.NoteOffEvent(tick=2485300, channel=0, data=[11, 0]),
   midi.NoteOnEvent(tick=2485400, channel=0, data=[20, 100]),
   midi.NoteOffEvent(tick=2485500, channel=0, data=[20, 0]),
   midi.NoteOnEvent(tick=2485600, channel=0, data=[4, 100]),
   midi.NoteOffEvent(tick=2485700, channel=0, data=[4, 0]),
   midi.NoteOnEvent(tick=2485800, channel=0, data=[56, 100]),
   midi.NoteOffEvent(tick=2485900, channel=0, data=[56, 0]),
   midi.NoteOnEvent(tick=2486000, channel=0, data=[36, 100]),
   midi.NoteOffEvent(tick=2486100, channel=0, data=[36, 0]),
   midi.NoteOnEvent(tick=2486200, channel=0, data=[36, 100]),
   midi.NoteOffEvent(tick=2486300, channel=0, data=[36, 0]),
   midi.NoteOnEvent(tick=2486400, channel=0, data=[36, 100]),
   midi.NoteOffEvent(tick=2486500, channel=0, data=[36, 0]),
   midi.NoteOnEvent(tick=2486600, channel=0, data=[36, 100]),
   midi.NoteOffEvent(tick=2486700, channel=0, data=[36, 0]),
   midi.NoteOnEvent(tick=2486800, channel=0, data=[14, 100]),
   midi.NoteOffEvent(tick=2486900, channel=0, data=[14, 0]),
   midi.NoteOnEvent(tick=2487000, channel=0, data=[5, 100]),
   midi.NoteOffEvent(tick=2487100, channel=0, data=[5, 0]),
   midi.NoteOnEvent(tick=2487200, channel=0, data=[36, 100]),
   midi.NoteOffEvent(tick=2487300, channel=0, data=[36, 0]),
   midi.NoteOnEvent(tick=2487400, channel=0, data=[0, 100]),
   midi.NoteOffEvent(tick=2487500, channel=0, data=[0, 0]),
   midi.NoteOnEvent(tick=2487600, channel=0, data=[36, 100]),
   midi.NoteOffEvent(tick=2487700, channel=0, data=[36, 0]),
   midi.NoteOnEvent(tick=2487800, channel=0, data=[21, 100]),
   midi.NoteOffEvent(tick=2487900, channel=0, data=[21, 0]),
   midi.NoteOnEvent(tick=2488000, channel=0, data=[0, 100]),
   midi.NoteOffEvent(tick=2488100, channel=0, data=[0, 0]),
   midi.NoteOnEvent(tick=2488200, channel=0, data=[17, 100]),
   midi.NoteOffEvent(tick=2488300, channel=0, data=[17, 0]),
   midi.NoteOnEvent(tick=2488400, channel=0, data=[8, 100]),
   midi.NoteOffEvent(tick=2488500, channel=0, data=[8, 0]),
   midi.NoteOnEvent(tick=2488600, channel=0, data=[0, 100]),
   midi.NoteOffEvent(tick=2488700, channel=0, data=[0, 0]),
   midi.NoteOnEvent(tick=2488800, channel=0, data=[1, 100]),
   midi.NoteOffEvent(tick=2488900, channel=0, data=[1, 0]),
   midi.NoteOnEvent(tick=2489000, channel=0, data=[11, 100]),
   midi.NoteOffEvent(tick=2489100, channel=0, data=[11, 0]),
   midi.NoteOnEvent(tick=2489200, channel=0, data=[4, 100]),
   midi.NoteOffEvent(tick=2489300, channel=0, data=[4, 0]),
   midi.NoteOnEvent(tick=2489400, channel=0, data=[46, 100]),
   midi.NoteOffEvent(tick=2489500, channel=0, data=[46, 0]),
   midi.NoteOnEvent(tick=2489600, channel=0, data=[56, 100]),
   midi.NoteOffEvent(tick=2489700, channel=0, data=[56, 0]),
   midi.NoteOnEvent(tick=2489800, channel=0, data=[56, 100]),
   midi.NoteOffEvent(tick=2489900, channel=0, data=[56, 0]),
   midi.NoteOnEvent(tick=2490000, channel=0, data=[56, 100]),
   midi.NoteOffEvent(tick=2490100, channel=0, data=[56, 0]),
   midi.NoteOnEvent(tick=2490200, channel=0, data=[36, 100]),
   midi.NoteOffEvent(tick=2490300, channel=0, data=[36, 0]),
   midi.NoteOnEvent(tick=2490400, channel=0, data=[36, 100]),
   midi.NoteOffEvent(tick=2490500, channel=0, data=[36, 0]),
   midi.NoteOnEvent(tick=2490600, channel=0, data=[36, 100]),
   midi.NoteOffEvent(tick=2490700, channel=0, data=[36, 0]),
   midi.NoteOnEvent(tick=2490800, channel=0, data=[36, 100]),
   midi.NoteOffEvent(tick=2490900, channel=0, data=[36, 0]),
   midi.NoteOnEvent(tick=2491000, channel=0, data=[36, 100]),
   midi.NoteOffEvent(tick=2491100, channel=0, data=[36, 0]),
   midi.NoteOnEvent(tick=2491200, channel=0, data=[36, 100]),
   midi.NoteOffEvent(tick=2491300, channel=0, data=[36, 0]),
   midi.NoteOnEvent(tick=2491400, channel=0, data=[36, 100]),
   midi.NoteOffEvent(tick=2491500, channel=0, data=[36, 0]),
   midi.NoteOnEvent(tick=2491600, channel=0, data=[36, 100]),
   midi.NoteOffEvent(tick=2491700, channel=0, data=[36, 0]),
   midi.NoteOnEvent(tick=2491800, channel=0, data=[2, 100]),
   midi.NoteOffEvent(tick=2491900, channel=0, data=[2, 0]),
   midi.NoteOnEvent(tick=2492000, channel=0, data=[46, 100]),
   midi.NoteOffEvent(tick=2492100, channel=0, data=[46, 0]),
   midi.NoteOnEvent(tick=2492200, channel=0, data=[78, 100]),
   midi.NoteOffEvent(tick=2492300, channel=0, data=[78, 0]),
   midi.NoteOnEvent(tick=2492400, channel=0, data=[15, 100]),
   midi.NoteOffEvent(tick=2492500, channel=0, data=[15, 0]),
   midi.NoteOnEvent(tick=2492600, channel=0, data=[18, 100]),
   midi.NoteOffEvent(tick=2492700, channel=0, data=[18, 0]),
   midi.NoteOnEvent(tick=2492800, channel=0, data=[73, 100]),
   midi.NoteOffEvent(tick=2492900, channel=0, data=[73, 0]),
   midi.NoteOnEvent(tick=2493000, channel=0, data=[36, 100]),
   midi.NoteOffEvent(tick=2493100, channel=0, data=[36, 0]),
   midi.NoteOnEvent(tick=2493200, channel=0, data=[74, 100]),
   midi.NoteOffEvent(tick=2493300, channel=0, data=[74, 0]),
   midi.NoteOnEvent(tick=2493400, channel=0, data=[0, 100]),
   midi.NoteOffEvent(tick=2493500, channel=0, data=[0, 0]),
   midi.NoteOnEvent(tick=2493600, channel=0, data=[36, 100]),
   midi.NoteOffEvent(tick=2493700, channel=0, data=[36, 0]),
   midi.NoteOnEvent(tick=2493800, channel=0, data=[69, 100]),
   midi.NoteOffEvent(tick=2493900, channel=0, data=[69, 0]),
   midi.NoteOnEvent(tick=2494000, channel=0, data=[36, 100]),
   midi.NoteOffEvent(tick=2494100, channel=0, data=[36, 0]),
   midi.NoteOnEvent(tick=2494200, channel=0, data=[34, 100]),
   midi.NoteOffEvent(tick=2494300, channel=0, data=[34, 0]),
   midi.NoteOnEvent(tick=2494400, channel=0, data=[56, 100]),
   midi.NoteOffEvent(tick=2494500, channel=0, data=[56, 0]),
   midi.NoteOnEvent(tick=2494600, channel=0, data=[36, 100]),
   midi.NoteOffEvent(tick=2494700, channel=0, data=[36, 0]),
   midi.NoteOnEvent(tick=2494800, channel=0, data=[36, 100]),
   midi.NoteOffEvent(tick=2494900, channel=0, data=[36, 0]),
   midi.NoteOnEvent(tick=2495000, channel=0, data=[36, 100]),
   midi.NoteOffEvent(tick=2495100, channel=0, data=[36, 0]),
   midi.NoteOnEvent(tick=2495200, channel=0, data=[36, 100]),
   midi.NoteOffEvent(tick=2495300, channel=0, data=[36, 0]),
   midi.NoteOnEvent(tick=2495400, channel=0, data=[36, 100]),
   midi.NoteOffEvent(tick=2495500, channel=0, data=[36, 0]),
   midi.NoteOnEvent(tick=2495600, channel=0, data=[36, 100]),
   midi.NoteOffEvent(tick=2495700, channel=0, data=[36, 0]),
   midi.NoteOnEvent(tick=2495800, channel=0, data=[36, 100]),
   midi.NoteOffEvent(tick=2495900, channel=0, data=[36, 0]),
   midi.NoteOnEvent(tick=2496000, channel=0, data=[36, 100]),
   midi.NoteOffEvent(tick=2496100, channel=0, data=[36, 0]),
   midi.NoteOnEvent(tick=2496200, channel=0, data=[2, 100]),
   midi.NoteOffEvent(tick=2496300, channel=0, data=[2, 0]),
   midi.NoteOnEvent(tick=2496400, channel=0, data=[46, 100]),
   midi.NoteOffEvent(tick=2496500, channel=0, data=[46, 0]),
   midi.NoteOnEvent(tick=2496600, channel=0, data=[78, 100]),
   midi.NoteOffEvent(tick=2496700, channel=0, data=[78, 0]),
   midi.NoteOnEvent(tick=2496800, channel=0, data=[15, 100]),
   midi.NoteOffEvent(tick=2496900, channel=0, data=[15, 0]),
   midi.NoteOnEvent(tick=2497000, channel=0, data=[18, 100]),
   midi.NoteOffEvent(tick=2497100, channel=0, data=[18, 0]),
   midi.NoteOnEvent(tick=2497200, channel=0, data=[73, 100]),
   midi.NoteOffEvent(tick=2497300, channel=0, data=[73, 0]),
   midi.NoteOnEvent(tick=2497400, channel=0, data=[36, 100]),
   midi.NoteOffEvent(tick=2497500, channel=0, data=[36, 0]),
   midi.NoteOnEvent(tick=2497600, channel=0, data=[74, 100]),
   midi.NoteOffEvent(tick=2497700, channel=0, data=[74, 0]),
   midi.NoteOnEvent(tick=2497800, channel=0, data=[0, 100]),
   midi.NoteOffEvent(tick=2497900, channel=0, data=[0, 0]),
   midi.NoteOnEvent(tick=2498000, channel=0, data=[36, 100]),
   midi.NoteOffEvent(tick=2498100, channel=0, data=[36, 0]),
   midi.NoteOnEvent(tick=2498200, channel=0, data=[70, 100]),
   midi.NoteOffEvent(tick=2498300, channel=0, data=[70, 0]),
   midi.NoteOnEvent(tick=2498400, channel=0, data=[69, 100]),
   midi.NoteOffEvent(tick=2498500, channel=0, data=[69, 0]),
   midi.NoteOnEvent(tick=2498600, channel=0, data=[28, 100]),
   midi.NoteOffEvent(tick=2498700, channel=0, data=[28, 0]),
   midi.NoteOnEvent(tick=2498800, channel=0, data=[56, 100]),
   midi.NoteOffEvent(tick=2498900, channel=0, data=[56, 0]),
   midi.NoteOnEvent(tick=2499000, channel=0, data=[36, 100]),
   midi.NoteOffEvent(tick=2499100, channel=0, data=[36, 0]),
   midi.NoteOnEvent(tick=2499200, channel=0, data=[36, 100]),
   midi.NoteOffEvent(tick=2499300, channel=0, data=[36, 0]),
   midi.NoteOnEvent(tick=2499400, channel=0, data=[36, 100]),
   midi.NoteOffEvent(tick=2499500, channel=0, data=[36, 0]),
   midi.NoteOnEvent(tick=2499600, channel=0, data=[36, 100]),
   midi.NoteOffEvent(tick=2499700, channel=0, data=[36, 0]),
   midi.NoteOnEvent(tick=2499800, channel=0, data=[36, 100]),
   midi.NoteOffEvent(tick=2499900, channel=0, data=[36, 0]),
   midi.NoteOnEvent(tick=2500000, channel=0, data=[36, 100]),
   midi.NoteOffEvent(tick=2500100, channel=0, data=[36, 0]),
   midi.NoteOnEvent(tick=2500200, channel=0, data=[36, 100]),
   midi.NoteOffEvent(tick=2500300, channel=0, data=[36, 0]),
   midi.NoteOnEvent(tick=2500400, channel=0, data=[36, 100]),
   midi.NoteOffEvent(tick=2500500, channel=0, data=[36, 0]),
   midi.NoteOnEvent(tick=2500600, channel=0, data=[2, 100]),
   midi.NoteOffEvent(tick=2500700, channel=0, data=[2, 0]),
   midi.NoteOnEvent(tick=2500800, channel=0, data=[46, 100]),
   midi.NoteOffEvent(tick=2500900, channel=0, data=[46, 0]),
   midi.NoteOnEvent(tick=2501000, channel=0, data=[78, 100]),
   midi.NoteOffEvent(tick=2501100, channel=0, data=[78, 0]),
   midi.NoteOnEvent(tick=2501200, channel=0, data=[15, 100]),
   midi.NoteOffEvent(tick=2501300, channel=0, data=[15, 0]),
   midi.NoteOnEvent(tick=2501400, channel=0, data=[18, 100]),
   midi.NoteOffEvent(tick=2501500, channel=0, data=[18, 0]),
   midi.NoteOnEvent(tick=2501600, channel=0, data=[73, 100]),
   midi.NoteOffEvent(tick=2501700, channel=0, data=[73, 0]),
   midi.NoteOnEvent(tick=2501800, channel=0, data=[36, 100]),
   midi.NoteOffEvent(tick=2501900, channel=0, data=[36, 0]),
   midi.NoteOnEvent(tick=2502000, channel=0, data=[74, 100]),
   midi.NoteOffEvent(tick=2502100, channel=0, data=[74, 0]),
   midi.NoteOnEvent(tick=2502200, channel=0, data=[0, 100]),
   midi.NoteOffEvent(tick=2502300, channel=0, data=[0, 0]),
   midi.NoteOnEvent(tick=2502400, channel=0, data=[56, 100]),
   midi.NoteOffEvent(tick=2502500, channel=0, data=[56, 0]),
   midi.NoteOnEvent(tick=2502600, channel=0, data=[36, 100]),
   midi.NoteOffEvent(tick=2502700, channel=0, data=[36, 0]),
   midi.NoteOnEvent(tick=2502800, channel=0, data=[36, 100]),
   midi.NoteOffEvent(tick=2502900, channel=0, data=[36, 0]),
   midi.NoteOnEvent(tick=2503000, channel=0, data=[36, 100]),
   midi.NoteOffEvent(tick=2503100, channel=0, data=[36, 0]),
   midi.NoteOnEvent(tick=2503200, channel=0, data=[36, 100]),
   midi.NoteOffEvent(tick=2503300, channel=0, data=[36, 0]),
   midi.NoteOnEvent(tick=2503400, channel=0, data=[36, 100]),
   midi.NoteOffEvent(tick=2503500, channel=0, data=[36, 0]),
   midi.NoteOnEvent(tick=2503600, channel=0, data=[36, 100]),
   midi.NoteOffEvent(tick=2503700, channel=0, data=[36, 0]),
   midi.NoteOnEvent(tick=2503800, channel=0, data=[36, 100]),
   midi.NoteOffEvent(tick=2503900, channel=0, data=[36, 0]),
   midi.NoteOnEvent(tick=2504000, channel=0, data=[36, 100]),
   midi.NoteOffEvent(tick=2504100, channel=0, data=[36, 0]),
   midi.NoteOnEvent(tick=2504200, channel=0, data=[30, 100]),
   midi.NoteOffEvent(tick=2504300, channel=0, data=[30, 0]),
   midi.NoteOnEvent(tick=2504400, channel=0, data=[56, 100]),
   midi.NoteOffEvent(tick=2504500, channel=0, data=[56, 0]),
   midi.NoteOnEvent(tick=2504600, channel=0, data=[56, 100]),
   midi.NoteOffEvent(tick=2504700, channel=0, data=[56, 0]),
   midi.NoteOnEvent(tick=2504800, channel=0, data=[36, 100]),
   midi.NoteOffEvent(tick=2504900, channel=0, data=[36, 0]),
   midi.NoteOnEvent(tick=2505000, channel=0, data=[56, 100]),
   midi.NoteOffEvent(tick=2505100, channel=0, data=[56, 0]),
   midi.NoteOnEvent(tick=2505200, channel=0, data=[36, 100]),
   midi.NoteOffEvent(tick=2505300, channel=0, data=[36, 0]),
   midi.NoteOnEvent(tick=2505400, channel=0, data=[36, 100]),
   midi.NoteOffEvent(tick=2505500, channel=0, data=[36, 0]),
   midi.NoteOnEvent(tick=2505600, channel=0, data=[36, 100]),
   midi.NoteOffEvent(tick=2505700, channel=0, data=[36, 0]),
   midi.NoteOnEvent(tick=2505800, channel=0, data=[36, 100]),
   midi.NoteOffEvent(tick=2505900, channel=0, data=[36, 0]),
   midi.NoteOnEvent(tick=2506000, channel=0, data=[19, 100]),
   midi.NoteOffEvent(tick=2506100, channel=0, data=[19, 0]),
   midi.NoteOnEvent(tick=2506200, channel=0, data=[14, 100]),
   midi.NoteOffEvent(tick=2506300, channel=0, data=[14, 0]),
   midi.NoteOnEvent(tick=2506400, channel=0, data=[36, 100]),
   midi.NoteOffEvent(tick=2506500, channel=0, data=[36, 0]),
   midi.NoteOnEvent(tick=2506600, channel=0, data=[3, 100]),
   midi.NoteOffEvent(tick=2506700, channel=0, data=[3, 0]),
   midi.NoteOnEvent(tick=2506800, channel=0, data=[8, 100]),
   midi.NoteOffEvent(tick=2506900, channel=0, data=[8, 0]),
   midi.NoteOnEvent(tick=2507000, channel=0, data=[21, 100]),
   midi.NoteOffEvent(tick=2507100, channel=0, data=[21, 0]),
   midi.NoteOnEvent(tick=2507200, channel=0, data=[8, 100]),
   midi.NoteOffEvent(tick=2507300, channel=0, data=[8, 0]),
   midi.NoteOnEvent(tick=2507400, channel=0, data=[3, 100]),
   midi.NoteOffEvent(tick=2507500, channel=0, data=[3, 0]),
   midi.NoteOnEvent(tick=2507600, channel=0, data=[4, 100]),
   midi.NoteOffEvent(tick=2507700, channel=0, data=[4, 0]),
   midi.NoteOnEvent(tick=2507800, channel=0, data=[36, 100]),
   midi.NoteOffEvent(tick=2507900, channel=0, data=[36, 0]),
   midi.NoteOnEvent(tick=2508000, channel=0, data=[0, 100]),
   midi.NoteOffEvent(tick=2508100, channel=0, data=[0, 0]),
   midi.NoteOnEvent(tick=2508200, channel=0, data=[13, 100]),
   midi.NoteOffEvent(tick=2508300, channel=0, data=[13, 0]),
   midi.NoteOnEvent(tick=2508400, channel=0, data=[36, 100]),
   midi.NoteOffEvent(tick=2508500, channel=0, data=[36, 0]),
   midi.NoteOnEvent(tick=2508600, channel=0, data=[4, 100]),
   midi.NoteOffEvent(tick=2508700, channel=0, data=[4, 0]),
   midi.NoteOnEvent(tick=2508800, channel=0, data=[11, 100]),
   midi.NoteOffEvent(tick=2508900, channel=0, data=[11, 0]),
   midi.NoteOnEvent(tick=2509000, channel=0, data=[4, 100]),
   midi.NoteOffEvent(tick=2509100, channel=0, data=[4, 0]),
   midi.NoteOnEvent(tick=2509200, channel=0, data=[12, 100]),
   midi.NoteOffEvent(tick=2509300, channel=0, data=[12, 0]),
   midi.NoteOnEvent(tick=2509400, channel=0, data=[4, 100]),
   midi.NoteOffEvent(tick=2509500, channel=0, data=[4, 0]),
   midi.NoteOnEvent(tick=2509600, channel=0, data=[13, 100]),
   midi.NoteOffEvent(tick=2509700, channel=0, data=[13, 0]),
   midi.NoteOnEvent(tick=2509800, channel=0, data=[19, 100]),
   midi.NoteOffEvent(tick=2509900, channel=0, data=[19, 0]),
   midi.NoteOnEvent(tick=2510000, channel=0, data=[36, 100]),
   midi.NoteOffEvent(tick=2510100, channel=0, data=[36, 0]),
   midi.NoteOnEvent(tick=2510200, channel=0, data=[14, 100]),
   midi.NoteOffEvent(tick=2510300, channel=0, data=[14, 0]),
   midi.NoteOnEvent(tick=2510400, channel=0, data=[5, 100]),
   midi.NoteOffEvent(tick=2510500, channel=0, data=[5, 0]),
   midi.NoteOnEvent(tick=2510600, channel=0, data=[36, 100]),
   midi.NoteOffEvent(tick=2510700, channel=0, data=[36, 0]),
   midi.NoteOnEvent(tick=2510800, channel=0, data=[0, 100]),
   midi.NoteOffEvent(tick=2510900, channel=0, data=[0, 0]),
   midi.NoteOnEvent(tick=2511000, channel=0, data=[13, 100]),
   midi.NoteOffEvent(tick=2511100, channel=0, data=[13, 0]),
   midi.NoteOnEvent(tick=2511200, channel=0, data=[36, 100]),
   midi.NoteOffEvent(tick=2511300, channel=0, data=[36, 0]),
   midi.NoteOnEvent(tick=2511400, channel=0, data=[0, 100]),
   midi.NoteOffEvent(tick=2511500, channel=0, data=[0, 0]),
   midi.NoteOnEvent(tick=2511600, channel=0, data=[17, 100]),
   midi.NoteOffEvent(tick=2511700, channel=0, data=[17, 0]),
   midi.NoteOnEvent(tick=2511800, channel=0, data=[17, 100]),
   midi.NoteOffEvent(tick=2511900, channel=0, data=[17, 0]),
   midi.NoteOnEvent(tick=2512000, channel=0, data=[0, 100]),
   midi.NoteOffEvent(tick=2512100, channel=0, data=[0, 0]),
   midi.NoteOnEvent(tick=2512200, channel=0, data=[24, 100]),
   midi.NoteOffEvent(tick=2512300, channel=0, data=[24, 0]),
   midi.NoteOnEvent(tick=2512400, channel=0, data=[38, 100]),
   midi.NoteOffEvent(tick=2512500, channel=0, data=[38, 0]),
   midi.NoteOnEvent(tick=2512600, channel=0, data=[36, 100]),
   midi.NoteOffEvent(tick=2512700, channel=0, data=[36, 0]),
   midi.NoteOnEvent(tick=2512800, channel=0, data=[20, 100]),
   midi.NoteOffEvent(tick=2512900, channel=0, data=[20, 0]),
   midi.NoteOnEvent(tick=2513000, channel=0, data=[18, 100]),
   midi.NoteOffEvent(tick=2513100, channel=0, data=[18, 0]),
   midi.NoteOnEvent(tick=2513200, channel=0, data=[4, 100]),
   midi.NoteOffEvent(tick=2513300, channel=0, data=[4, 0]),
   midi.NoteOnEvent(tick=2513400, channel=0, data=[36, 100]),
   midi.NoteOffEvent(tick=2513500, channel=0, data=[36, 0]),
   midi.NoteOnEvent(tick=2513600, channel=0, data=[0, 100]),
   midi.NoteOffEvent(tick=2513700, channel=0, data=[0, 0]),
   midi.NoteOnEvent(tick=2513800, channel=0, data=[13, 100]),
   midi.NoteOffEvent(tick=2513900, channel=0, data=[13, 0]),
   midi.NoteOnEvent(tick=2514000, channel=0, data=[36, 100]),
   midi.NoteOffEvent(tick=2514100, channel=0, data=[36, 0]),
   midi.NoteOnEvent(tick=2514200, channel=0, data=[8, 100]),
   midi.NoteOffEvent(tick=2514300, channel=0, data=[8, 0]),
   midi.NoteOnEvent(tick=2514400, channel=0, data=[13, 100]),
   midi.NoteOffEvent(tick=2514500, channel=0, data=[13, 0]),
   midi.NoteOnEvent(tick=2514600, channel=0, data=[3, 100]),
   midi.NoteOffEvent(tick=2514700, channel=0, data=[3, 0]),
   midi.NoteOnEvent(tick=2514800, channel=0, data=[4, 100]),
   midi.NoteOffEvent(tick=2514900, channel=0, data=[4, 0]),
   midi.NoteOnEvent(tick=2515000, channel=0, data=[23, 100]),
   midi.NoteOffEvent(tick=2515100, channel=0, data=[23, 0]),
   midi.NoteOnEvent(tick=2515200, channel=0, data=[36, 100]),
   midi.NoteOffEvent(tick=2515300, channel=0, data=[36, 0]),
   midi.NoteOnEvent(tick=2515400, channel=0, data=[19, 100]),
   midi.NoteOffEvent(tick=2515500, channel=0, data=[19, 0]),
   midi.NoteOnEvent(tick=2515600, channel=0, data=[14, 100]),
   midi.NoteOffEvent(tick=2515700, channel=0, data=[14, 0]),
   midi.NoteOnEvent(tick=2515800, channel=0, data=[36, 100]),
   midi.NoteOffEvent(tick=2515900, channel=0, data=[36, 0]),
   midi.NoteOnEvent(tick=2516000, channel=0, data=[8, 100]),
   midi.NoteOffEvent(tick=2516100, channel=0, data=[8, 0]),
   midi.NoteOnEvent(tick=2516200, channel=0, data=[3, 100]),
   midi.NoteOffEvent(tick=2516300, channel=0, data=[3, 0]),
   midi.NoteOnEvent(tick=2516400, channel=0, data=[4, 100]),
   midi.NoteOffEvent(tick=2516500, channel=0, data=[4, 0]),
   midi.NoteOnEvent(tick=2516600, channel=0, data=[13, 100]),
   midi.NoteOffEvent(tick=2516700, channel=0, data=[13, 0]),
   midi.NoteOnEvent(tick=2516800, channel=0, data=[19, 100]),
   midi.NoteOffEvent(tick=2516900, channel=0, data=[19, 0]),
   midi.NoteOnEvent(tick=2517000, channel=0, data=[8, 100]),
   midi.NoteOffEvent(tick=2517100, channel=0, data=[8, 0]),
   midi.NoteOnEvent(tick=2517200, channel=0, data=[5, 100]),
   midi.NoteOffEvent(tick=2517300, channel=0, data=[5, 0]),
   midi.NoteOnEvent(tick=2517400, channel=0, data=[24, 100]),
   midi.NoteOffEvent(tick=2517500, channel=0, data=[24, 0]),
   midi.NoteOnEvent(tick=2517600, channel=0, data=[36, 100]),
   midi.NoteOffEvent(tick=2517700, channel=0, data=[36, 0]),
   midi.NoteOnEvent(tick=2517800, channel=0, data=[19, 100]),
   midi.NoteOffEvent(tick=2517900, channel=0, data=[19, 0]),
   midi.NoteOnEvent(tick=2518000, channel=0, data=[7, 100]),
   midi.NoteOffEvent(tick=2518100, channel=0, data=[7, 0]),
   midi.NoteOnEvent(tick=2518200, channel=0, data=[4, 100]),
   midi.NoteOffEvent(tick=2518300, channel=0, data=[4, 0]),
   midi.NoteOnEvent(tick=2518400, channel=0, data=[36, 100]),
   midi.NoteOffEvent(tick=2518500, channel=0, data=[36, 0]),
   midi.NoteOnEvent(tick=2518600, channel=0, data=[4, 100]),
   midi.NoteOffEvent(tick=2518700, channel=0, data=[4, 0]),
   midi.NoteOnEvent(tick=2518800, channel=0, data=[11, 100]),
   midi.NoteOffEvent(tick=2518900, channel=0, data=[11, 0]),
   midi.NoteOnEvent(tick=2519000, channel=0, data=[4, 100]),
   midi.NoteOffEvent(tick=2519100, channel=0, data=[4, 0]),
   midi.NoteOnEvent(tick=2519200, channel=0, data=[12, 100]),
   midi.NoteOffEvent(tick=2519300, channel=0, data=[12, 0]),
   midi.NoteOnEvent(tick=2519400, channel=0, data=[4, 100]),
   midi.NoteOffEvent(tick=2519500, channel=0, data=[4, 0]),
   midi.NoteOnEvent(tick=2519600, channel=0, data=[13, 100]),
   midi.NoteOffEvent(tick=2519700, channel=0, data=[13, 0]),
   midi.NoteOnEvent(tick=2519800, channel=0, data=[19, 100]),
   midi.NoteOffEvent(tick=2519900, channel=0, data=[19, 0]),
   midi.NoteOnEvent(tick=2520000, channel=0, data=[36, 100]),
   midi.NoteOffEvent(tick=2520100, channel=0, data=[36, 0]),
   midi.NoteOnEvent(tick=2520200, channel=0, data=[19, 100]),
   midi.NoteOffEvent(tick=2520300, channel=0, data=[19, 0]),
   midi.NoteOnEvent(tick=2520400, channel=0, data=[7, 100]),
   midi.NoteOffEvent(tick=2520500, channel=0, data=[7, 0]),
   midi.NoteOnEvent(tick=2520600, channel=0, data=[0, 100]),
   midi.NoteOffEvent(tick=2520700, channel=0, data=[0, 0]),
   midi.NoteOnEvent(tick=2520800, channel=0, data=[19, 100]),
   midi.NoteOffEvent(tick=2520900, channel=0, data=[19, 0]),
   midi.NoteOnEvent(tick=2521000, channel=0, data=[56, 100]),
   midi.NoteOffEvent(tick=2521100, channel=0, data=[56, 0]),
   midi.NoteOnEvent(tick=2521200, channel=0, data=[36, 100]),
   midi.NoteOffEvent(tick=2521300, channel=0, data=[36, 0]),
   midi.NoteOnEvent(tick=2521400, channel=0, data=[36, 100]),
   midi.NoteOffEvent(tick=2521500, channel=0, data=[36, 0]),
   midi.NoteOnEvent(tick=2521600, channel=0, data=[36, 100]),
   midi.NoteOffEvent(tick=2521700, channel=0, data=[36, 0]),
   midi.NoteOnEvent(tick=2521800, channel=0, data=[36, 100]),
   midi.NoteOffEvent(tick=2521900, channel=0, data=[36, 0]),
   midi.NoteOnEvent(tick=2522000, channel=0, data=[24, 100]),
   midi.NoteOffEvent(tick=2522100, channel=0, data=[24, 0]),
   midi.NoteOnEvent(tick=2522200, channel=0, data=[14, 100]),
   midi.NoteOffEvent(tick=2522300, channel=0, data=[14, 0]),
   midi.NoteOnEvent(tick=2522400, channel=0, data=[20, 100]),
   midi.NoteOffEvent(tick=2522500, channel=0, data=[20, 0]),
   midi.NoteOnEvent(tick=2522600, channel=0, data=[36, 100]),
   midi.NoteOffEvent(tick=2522700, channel=0, data=[36, 0]),
   midi.NoteOnEvent(tick=2522800, channel=0, data=[22, 100]),
   midi.NoteOffEvent(tick=2522900, channel=0, data=[22, 0]),
   midi.NoteOnEvent(tick=2523000, channel=0, data=[0, 100]),
   midi.NoteOffEvent(tick=2523100, channel=0, data=[0, 0]),
   midi.NoteOnEvent(tick=2523200, channel=0, data=[13, 100]),
   midi.NoteOffEvent(tick=2523300, channel=0, data=[13, 0]),
   midi.NoteOnEvent(tick=2523400, channel=0, data=[19, 100]),
   midi.NoteOffEvent(tick=2523500, channel=0, data=[19, 0]),
   midi.NoteOnEvent(tick=2523600, channel=0, data=[36, 100]),
   midi.NoteOffEvent(tick=2523700, channel=0, data=[36, 0]),
   midi.NoteOnEvent(tick=2523800, channel=0, data=[19, 100]),
   midi.NoteOffEvent(tick=2523900, channel=0, data=[19, 0]),
   midi.NoteOnEvent(tick=2524000, channel=0, data=[14, 100]),
   midi.NoteOffEvent(tick=2524100, channel=0, data=[14, 0]),
   midi.NoteOnEvent(tick=2524200, channel=0, data=[36, 100]),
   midi.NoteOffEvent(tick=2524300, channel=0, data=[36, 0]),
   midi.NoteOnEvent(tick=2524400, channel=0, data=[2, 100]),
   midi.NoteOffEvent(tick=2524500, channel=0, data=[2, 0]),
   midi.NoteOnEvent(tick=2524600, channel=0, data=[7, 100]),
   midi.NoteOffEvent(tick=2524700, channel=0, data=[7, 0]),
   midi.NoteOnEvent(tick=2524800, channel=0, data=[0, 100]),
   midi.NoteOffEvent(tick=2524900, channel=0, data=[0, 0]),
   midi.NoteOnEvent(tick=2525000, channel=0, data=[13, 100]),
   midi.NoteOffEvent(tick=2525100, channel=0, data=[13, 0]),
   midi.NoteOnEvent(tick=2525200, channel=0, data=[6, 100]),
   midi.NoteOffEvent(tick=2525300, channel=0, data=[6, 0]),
   midi.NoteOnEvent(tick=2525400, channel=0, data=[4, 100]),
   midi.NoteOffEvent(tick=2525500, channel=0, data=[4, 0]),
   midi.NoteOnEvent(tick=2525600, channel=0, data=[37, 100]),
   midi.NoteOffEvent(tick=2525700, channel=0, data=[37, 0]),
   midi.NoteOnEvent(tick=2525800, channel=0, data=[36, 100]),
   midi.NoteOffEvent(tick=2525900, channel=0, data=[36, 0]),
   midi.NoteOnEvent(tick=2526000, channel=0, data=[5, 100]),
   midi.NoteOffEvent(tick=2526100, channel=0, data=[5, 0]),
   midi.NoteOnEvent(tick=2526200, channel=0, data=[14, 100]),
   midi.NoteOffEvent(tick=2526300, channel=0, data=[14, 0]),
   midi.NoteOnEvent(tick=2526400, channel=0, data=[17, 100]),
   midi.NoteOffEvent(tick=2526500, channel=0, data=[17, 0]),
   midi.NoteOnEvent(tick=2526600, channel=0, data=[36, 100]),
   midi.NoteOffEvent(tick=2526700, channel=0, data=[36, 0]),
   midi.NoteOnEvent(tick=2526800, channel=0, data=[4, 100]),
   midi.NoteOffEvent(tick=2526900, channel=0, data=[4, 0]),
   midi.NoteOnEvent(tick=2527000, channel=0, data=[23, 100]),
   midi.NoteOffEvent(tick=2527100, channel=0, data=[23, 0]),
   midi.NoteOnEvent(tick=2527200, channel=0, data=[0, 100]),
   midi.NoteOffEvent(tick=2527300, channel=0, data=[0, 0]),
   midi.NoteOnEvent(tick=2527400, channel=0, data=[12, 100]),
   midi.NoteOffEvent(tick=2527500, channel=0, data=[12, 0]),
   midi.NoteOnEvent(tick=2527600, channel=0, data=[15, 100]),
   midi.NoteOffEvent(tick=2527700, channel=0, data=[15, 0]),
   midi.NoteOnEvent(tick=2527800, channel=0, data=[11, 100]),
   midi.NoteOffEvent(tick=2527900, channel=0, data=[11, 0]),
   midi.NoteOnEvent(tick=2528000, channel=0, data=[4, 100]),
   midi.NoteOffEvent(tick=2528100, channel=0, data=[4, 0]),
   midi.NoteOnEvent(tick=2528200, channel=0, data=[38, 100]),
   midi.NoteOffEvent(tick=2528300, channel=0, data=[38, 0]),
   midi.NoteOnEvent(tick=2528400, channel=0, data=[36, 100]),
   midi.NoteOffEvent(tick=2528500, channel=0, data=[36, 0]),
   midi.NoteOnEvent(tick=2528600, channel=0, data=[19, 100]),
   midi.NoteOffEvent(tick=2528700, channel=0, data=[19, 0]),
   midi.NoteOnEvent(tick=2528800, channel=0, data=[7, 100]),
   midi.NoteOffEvent(tick=2528900, channel=0, data=[7, 0]),
   midi.NoteOnEvent(tick=2529000, channel=0, data=[4, 100]),
   midi.NoteOffEvent(tick=2529100, channel=0, data=[4, 0]),
   midi.NoteOnEvent(tick=2529200, channel=0, data=[36, 100]),
   midi.NoteOffEvent(tick=2529300, channel=0, data=[36, 0]),
   midi.NoteOnEvent(tick=2529400, channel=0, data=[5, 100]),
   midi.NoteOffEvent(tick=2529500, channel=0, data=[5, 0]),
   midi.NoteOnEvent(tick=2529600, channel=0, data=[14, 100]),
   midi.NoteOffEvent(tick=2529700, channel=0, data=[14, 0]),
   midi.NoteOnEvent(tick=2529800, channel=0, data=[11, 100]),
   midi.NoteOffEvent(tick=2529900, channel=0, data=[11, 0]),
   midi.NoteOnEvent(tick=2530000, channel=0, data=[11, 100]),
   midi.NoteOffEvent(tick=2530100, channel=0, data=[11, 0]),
   midi.NoteOnEvent(tick=2530200, channel=0, data=[14, 100]),
   midi.NoteOffEvent(tick=2530300, channel=0, data=[14, 0]),
   midi.NoteOnEvent(tick=2530400, channel=0, data=[22, 100]),
   midi.NoteOffEvent(tick=2530500, channel=0, data=[22, 0]),
   midi.NoteOnEvent(tick=2530600, channel=0, data=[8, 100]),
   midi.NoteOffEvent(tick=2530700, channel=0, data=[8, 0]),
   midi.NoteOnEvent(tick=2530800, channel=0, data=[13, 100]),
   midi.NoteOffEvent(tick=2530900, channel=0, data=[13, 0]),
   midi.NoteOnEvent(tick=2531000, channel=0, data=[6, 100]),
   midi.NoteOffEvent(tick=2531100, channel=0, data=[6, 0]),
   midi.NoteOnEvent(tick=2531200, channel=0, data=[36, 100]),
   midi.NoteOffEvent(tick=2531300, channel=0, data=[36, 0]),
   midi.NoteOnEvent(tick=2531400, channel=0, data=[2, 100]),
   midi.NoteOffEvent(tick=2531500, channel=0, data=[2, 0]),
   midi.NoteOnEvent(tick=2531600, channel=0, data=[14, 100]),
   midi.NoteOffEvent(tick=2531700, channel=0, data=[14, 0]),
   midi.NoteOnEvent(tick=2531800, channel=0, data=[12, 100]),
   midi.NoteOffEvent(tick=2531900, channel=0, data=[12, 0]),
   midi.NoteOnEvent(tick=2532000, channel=0, data=[12, 100]),
   midi.NoteOffEvent(tick=2532100, channel=0, data=[12, 0]),
   midi.NoteOnEvent(tick=2532200, channel=0, data=[0, 100]),
   midi.NoteOffEvent(tick=2532300, channel=0, data=[0, 0]),
   midi.NoteOnEvent(tick=2532400, channel=0, data=[13, 100]),
   midi.NoteOffEvent(tick=2532500, channel=0, data=[13, 0]),
   midi.NoteOnEvent(tick=2532600, channel=0, data=[3, 100]),
   midi.NoteOffEvent(tick=2532700, channel=0, data=[3, 0]),
   midi.NoteOnEvent(tick=2532800, channel=0, data=[36, 100]),
   midi.NoteOffEvent(tick=2532900, channel=0, data=[36, 0]),
   midi.NoteOnEvent(tick=2533000, channel=0, data=[3, 100]),
   midi.NoteOffEvent(tick=2533100, channel=0, data=[3, 0]),
   midi.NoteOnEvent(tick=2533200, channel=0, data=[8, 100]),
   midi.NoteOffEvent(tick=2533300, channel=0, data=[8, 0]),
   midi.NoteOnEvent(tick=2533400, channel=0, data=[21, 100]),
   midi.NoteOffEvent(tick=2533500, channel=0, data=[21, 0]),
   midi.NoteOnEvent(tick=2533600, channel=0, data=[8, 100]),
   midi.NoteOffEvent(tick=2533700, channel=0, data=[8, 0]),
   midi.NoteOnEvent(tick=2533800, channel=0, data=[3, 100]),
   midi.NoteOffEvent(tick=2533900, channel=0, data=[3, 0]),
   midi.NoteOnEvent(tick=2534000, channel=0, data=[4, 100]),
   midi.NoteOffEvent(tick=2534100, channel=0, data=[4, 0]),
   midi.NoteOnEvent(tick=2534200, channel=0, data=[18, 100]),
   midi.NoteOffEvent(tick=2534300, channel=0, data=[18, 0]),
   midi.NoteOnEvent(tick=2534400, channel=0, data=[36, 100]),
   midi.NoteOffEvent(tick=2534500, channel=0, data=[36, 0]),
   midi.NoteOnEvent(tick=2534600, channel=0, data=[19, 100]),
   midi.NoteOffEvent(tick=2534700, channel=0, data=[19, 0]),
   midi.NoteOnEvent(tick=2534800, channel=0, data=[7, 100]),
   midi.NoteOffEvent(tick=2534900, channel=0, data=[7, 0]),
   midi.NoteOnEvent(tick=2535000, channel=0, data=[4, 100]),
   midi.NoteOffEvent(tick=2535100, channel=0, data=[4, 0]),
   midi.NoteOnEvent(tick=2535200, channel=0, data=[36, 100]),
   midi.NoteOffEvent(tick=2535300, channel=0, data=[36, 0]),
   midi.NoteOnEvent(tick=2535400, channel=0, data=[18, 100]),
   midi.NoteOffEvent(tick=2535500, channel=0, data=[18, 0]),
   midi.NoteOnEvent(tick=2535600, channel=0, data=[4, 100]),
   midi.NoteOffEvent(tick=2535700, channel=0, data=[4, 0]),
   midi.NoteOnEvent(tick=2535800, channel=0, data=[2, 100]),
   midi.NoteOffEvent(tick=2535900, channel=0, data=[2, 0]),
   midi.NoteOnEvent(tick=2536000, channel=0, data=[14, 100]),
   midi.NoteOffEvent(tick=2536100, channel=0, data=[14, 0]),
   midi.NoteOnEvent(tick=2536200, channel=0, data=[13, 100]),
   midi.NoteOffEvent(tick=2536300, channel=0, data=[13, 0]),
   midi.NoteOnEvent(tick=2536400, channel=0, data=[3, 100]),
   midi.NoteOffEvent(tick=2536500, channel=0, data=[3, 0]),
   midi.NoteOnEvent(tick=2536600, channel=0, data=[36, 100]),
   midi.NoteOffEvent(tick=2536700, channel=0, data=[36, 0]),
   midi.NoteOnEvent(tick=2536800, channel=0, data=[56, 100]),
   midi.NoteOffEvent(tick=2536900, channel=0, data=[56, 0]),
   midi.NoteOnEvent(tick=2537000, channel=0, data=[36, 100]),
   midi.NoteOffEvent(tick=2537100, channel=0, data=[36, 0]),
   midi.NoteOnEvent(tick=2537200, channel=0, data=[36, 100]),
   midi.NoteOffEvent(tick=2537300, channel=0, data=[36, 0]),
   midi.NoteOnEvent(tick=2537400, channel=0, data=[36, 100]),
   midi.NoteOffEvent(tick=2537500, channel=0, data=[36, 0]),
   midi.NoteOnEvent(tick=2537600, channel=0, data=[36, 100]),
   midi.NoteOffEvent(tick=2537700, channel=0, data=[36, 0]),
   midi.NoteOnEvent(tick=2537800, channel=0, data=[4, 100]),
   midi.NoteOffEvent(tick=2537900, channel=0, data=[4, 0]),
   midi.NoteOnEvent(tick=2538000, channel=0, data=[11, 100]),
   midi.NoteOffEvent(tick=2538100, channel=0, data=[11, 0]),
   midi.NoteOnEvent(tick=2538200, channel=0, data=[4, 100]),
   midi.NoteOffEvent(tick=2538300, channel=0, data=[4, 0]),
   midi.NoteOnEvent(tick=2538400, channel=0, data=[12, 100]),
   midi.NoteOffEvent(tick=2538500, channel=0, data=[12, 0]),
   midi.NoteOnEvent(tick=2538600, channel=0, data=[4, 100]),
   midi.NoteOffEvent(tick=2538700, channel=0, data=[4, 0]),
   midi.NoteOnEvent(tick=2538800, channel=0, data=[13, 100]),
   midi.NoteOffEvent(tick=2538900, channel=0, data=[13, 0]),
   midi.NoteOnEvent(tick=2539000, channel=0, data=[19, 100]),
   midi.NoteOffEvent(tick=2539100, channel=0, data=[19, 0]),
   midi.NoteOnEvent(tick=2539200, channel=0, data=[36, 100]),
   midi.NoteOffEvent(tick=2539300, channel=0, data=[36, 0]),
   midi.NoteOnEvent(tick=2539400, channel=0, data=[8, 100]),
   midi.NoteOffEvent(tick=2539500, channel=0, data=[8, 0]),
   midi.NoteOnEvent(tick=2539600, channel=0, data=[13, 100]),
   midi.NoteOffEvent(tick=2539700, channel=0, data=[13, 0]),
   midi.NoteOnEvent(tick=2539800, channel=0, data=[36, 100]),
   midi.NoteOffEvent(tick=2539900, channel=0, data=[36, 0]),
   midi.NoteOnEvent(tick=2540000, channel=0, data=[19, 100]),
   midi.NoteOffEvent(tick=2540100, channel=0, data=[19, 0]),
   midi.NoteOnEvent(tick=2540200, channel=0, data=[7, 100]),
   midi.NoteOffEvent(tick=2540300, channel=0, data=[7, 0]),
   midi.NoteOnEvent(tick=2540400, channel=0, data=[4, 100]),
   midi.NoteOffEvent(tick=2540500, channel=0, data=[4, 0]),
   midi.NoteOnEvent(tick=2540600, channel=0, data=[36, 100]),
   midi.NoteOffEvent(tick=2540700, channel=0, data=[36, 0]),
   midi.NoteOnEvent(tick=2540800, channel=0, data=[0, 100]),
   midi.NoteOffEvent(tick=2540900, channel=0, data=[0, 0]),
   midi.NoteOnEvent(tick=2541000, channel=0, data=[17, 100]),
   midi.NoteOffEvent(tick=2541100, channel=0, data=[17, 0]),
   midi.NoteOnEvent(tick=2541200, channel=0, data=[17, 100]),
   midi.NoteOffEvent(tick=2541300, channel=0, data=[17, 0]),
   midi.NoteOnEvent(tick=2541400, channel=0, data=[0, 100]),
   midi.NoteOffEvent(tick=2541500, channel=0, data=[0, 0]),
   midi.NoteOnEvent(tick=2541600, channel=0, data=[24, 100]),
   midi.NoteOffEvent(tick=2541700, channel=0, data=[24, 0]),
   midi.NoteOnEvent(tick=2541800, channel=0, data=[36, 100]),
   midi.NoteOffEvent(tick=2541900, channel=0, data=[36, 0]),
   midi.NoteOnEvent(tick=2542000, channel=0, data=[49, 100]),
   midi.NoteOffEvent(tick=2542100, channel=0, data=[49, 0]),
   midi.NoteOnEvent(tick=2542200, channel=0, data=[8, 100]),
   midi.NoteOffEvent(tick=2542300, channel=0, data=[8, 0]),
   midi.NoteOnEvent(tick=2542400, channel=0, data=[13, 100]),
   midi.NoteOffEvent(tick=2542500, channel=0, data=[13, 0]),
   midi.NoteOnEvent(tick=2542600, channel=0, data=[3, 100]),
   midi.NoteOffEvent(tick=2542700, channel=0, data=[3, 0]),
   midi.NoteOnEvent(tick=2542800, channel=0, data=[4, 100]),
   midi.NoteOffEvent(tick=2542900, channel=0, data=[4, 0]),
   midi.NoteOnEvent(tick=2543000, channel=0, data=[23, 100]),
   midi.NoteOffEvent(tick=2543100, channel=0, data=[23, 0]),
   midi.NoteOnEvent(tick=2543200, channel=0, data=[36, 100]),
   midi.NoteOffEvent(tick=2543300, channel=0, data=[36, 0]),
   midi.NoteOnEvent(tick=2543400, channel=0, data=[15, 100]),
   midi.NoteOffEvent(tick=2543500, channel=0, data=[15, 0]),
   midi.NoteOnEvent(tick=2543600, channel=0, data=[14, 100]),
   midi.NoteOffEvent(tick=2543700, channel=0, data=[14, 0]),
   midi.NoteOnEvent(tick=2543800, channel=0, data=[18, 100]),
   midi.NoteOffEvent(tick=2543900, channel=0, data=[18, 0]),
   midi.NoteOnEvent(tick=2544000, channel=0, data=[8, 100]),
   midi.NoteOffEvent(tick=2544100, channel=0, data=[8, 0]),
   midi.NoteOnEvent(tick=2544200, channel=0, data=[19, 100]),
   midi.NoteOffEvent(tick=2544300, channel=0, data=[19, 0]),
   midi.NoteOnEvent(tick=2544400, channel=0, data=[8, 100]),
   midi.NoteOffEvent(tick=2544500, channel=0, data=[8, 0]),
   midi.NoteOnEvent(tick=2544600, channel=0, data=[14, 100]),
   midi.NoteOffEvent(tick=2544700, channel=0, data=[14, 0]),
   midi.NoteOnEvent(tick=2544800, channel=0, data=[13, 100]),
   midi.NoteOffEvent(tick=2544900, channel=0, data=[13, 0]),
   midi.NoteOnEvent(tick=2545000, channel=0, data=[36, 100]),
   midi.NoteOffEvent(tick=2545100, channel=0, data=[36, 0]),
   midi.NoteOnEvent(tick=2545200, channel=0, data=[27, 100]),
   midi.NoteOffEvent(tick=2545300, channel=0, data=[27, 0]),
   midi.NoteOnEvent(tick=2545400, channel=0, data=[50, 100]),
   midi.NoteOffEvent(tick=2545500, channel=0, data=[50, 0]),
   midi.NoteOnEvent(tick=2545600, channel=0, data=[36, 100]),
   midi.NoteOffEvent(tick=2545700, channel=0, data=[36, 0]),
   midi.NoteOnEvent(tick=2545800, channel=0, data=[1, 100]),
   midi.NoteOffEvent(tick=2545900, channel=0, data=[1, 0]),
   midi.NoteOnEvent(tick=2546000, channel=0, data=[24, 100]),
   midi.NoteOffEvent(tick=2546100, channel=0, data=[24, 0]),
   midi.NoteOnEvent(tick=2546200, channel=0, data=[36, 100]),
   midi.NoteOffEvent(tick=2546300, channel=0, data=[36, 0]),
   midi.NoteOnEvent(tick=2546400, channel=0, data=[28, 100]),
   midi.NoteOffEvent(tick=2546500, channel=0, data=[28, 0]),
   midi.NoteOnEvent(tick=2546600, channel=0, data=[46, 100]),
   midi.NoteOffEvent(tick=2546700, channel=0, data=[46, 0]),
   midi.NoteOnEvent(tick=2546800, channel=0, data=[56, 100]),
   midi.NoteOffEvent(tick=2546900, channel=0, data=[56, 0]),
   midi.NoteOnEvent(tick=2547000, channel=0, data=[56, 100]),
   midi.NoteOffEvent(tick=2547100, channel=0, data=[56, 0]),
   midi.NoteOnEvent(tick=2547200, channel=0, data=[56, 100]),
   midi.NoteOffEvent(tick=2547300, channel=0, data=[56, 0]),
   midi.NoteOnEvent(tick=2547400, channel=0, data=[36, 100]),
   midi.NoteOffEvent(tick=2547500, channel=0, data=[36, 0]),
   midi.NoteOnEvent(tick=2547600, channel=0, data=[36, 100]),
   midi.NoteOffEvent(tick=2547700, channel=0, data=[36, 0]),
   midi.NoteOnEvent(tick=2547800, channel=0, data=[36, 100]),
   midi.NoteOffEvent(tick=2547900, channel=0, data=[36, 0]),
   midi.NoteOnEvent(tick=2548000, channel=0, data=[36, 100]),
   midi.NoteOffEvent(tick=2548100, channel=0, data=[36, 0]),
   midi.NoteOnEvent(tick=2548200, channel=0, data=[36, 100]),
   midi.NoteOffEvent(tick=2548300, channel=0, data=[36, 0]),
   midi.NoteOnEvent(tick=2548400, channel=0, data=[36, 100]),
   midi.NoteOffEvent(tick=2548500, channel=0, data=[36, 0]),
   midi.NoteOnEvent(tick=2548600, channel=0, data=[36, 100]),
   midi.NoteOffEvent(tick=2548700, channel=0, data=[36, 0]),
   midi.NoteOnEvent(tick=2548800, channel=0, data=[36, 100]),
   midi.NoteOffEvent(tick=2548900, channel=0, data=[36, 0]),
   midi.NoteOnEvent(tick=2549000, channel=0, data=[74, 100]),
   midi.NoteOffEvent(tick=2549100, channel=0, data=[74, 0]),
   midi.NoteOnEvent(tick=2549200, channel=0, data=[0, 100]),
   midi.NoteOffEvent(tick=2549300, channel=0, data=[0, 0]),
   midi.NoteOnEvent(tick=2549400, channel=0, data=[51, 100]),
   midi.NoteOffEvent(tick=2549500, channel=0, data=[51, 0]),
   midi.NoteOnEvent(tick=2549600, channel=0, data=[27, 100]),
   midi.NoteOffEvent(tick=2549700, channel=0, data=[27, 0]),
   midi.NoteOnEvent(tick=2549800, channel=0, data=[52, 100]),
   midi.NoteOffEvent(tick=2549900, channel=0, data=[52, 0]),
   midi.NoteOnEvent(tick=2550000, channel=0, data=[36, 100]),
   midi.NoteOffEvent(tick=2550100, channel=0, data=[36, 0]),
   midi.NoteOnEvent(tick=2550200, channel=0, data=[70, 100]),
   midi.NoteOffEvent(tick=2550300, channel=0, data=[70, 0]),
   midi.NoteOnEvent(tick=2550400, channel=0, data=[69, 100]),
   midi.NoteOffEvent(tick=2550500, channel=0, data=[69, 0]),
   midi.NoteOnEvent(tick=2550600, channel=0, data=[36, 100]),
   midi.NoteOffEvent(tick=2550700, channel=0, data=[36, 0]),
   midi.NoteOnEvent(tick=2550800, channel=0, data=[28, 100]),
   midi.NoteOffEvent(tick=2550900, channel=0, data=[28, 0]),
   midi.NoteOnEvent(tick=2551000, channel=0, data=[56, 100]),
   midi.NoteOffEvent(tick=2551100, channel=0, data=[56, 0]),
   midi.NoteOnEvent(tick=2551200, channel=0, data=[36, 100]),
   midi.NoteOffEvent(tick=2551300, channel=0, data=[36, 0]),
   midi.NoteOnEvent(tick=2551400, channel=0, data=[56, 100]),
   midi.NoteOffEvent(tick=2551500, channel=0, data=[56, 0]),
   midi.NoteOnEvent(tick=2551600, channel=0, data=[56, 100]),
   midi.NoteOffEvent(tick=2551700, channel=0, data=[56, 0]),
   midi.NoteOnEvent(tick=2551800, channel=0, data=[36, 100]),
   midi.NoteOffEvent(tick=2551900, channel=0, data=[36, 0]),
   midi.NoteOnEvent(tick=2552000, channel=0, data=[36, 100]),
   midi.NoteOffEvent(tick=2552100, channel=0, data=[36, 0]),
   midi.NoteOnEvent(tick=2552200, channel=0, data=[19, 100]),
   midi.NoteOffEvent(tick=2552300, channel=0, data=[19, 0]),
   midi.NoteOnEvent(tick=2552400, channel=0, data=[7, 100]),
   midi.NoteOffEvent(tick=2552500, channel=0, data=[7, 0]),
   midi.NoteOnEvent(tick=2552600, channel=0, data=[4, 100]),
   midi.NoteOffEvent(tick=2552700, channel=0, data=[4, 0]),
   midi.NoteOnEvent(tick=2552800, channel=0, data=[36, 100]),
   midi.NoteOffEvent(tick=2552900, channel=0, data=[36, 0]),
   midi.NoteOnEvent(tick=2553000, channel=0, data=[36, 100]),
   midi.NoteOffEvent(tick=2553100, channel=0, data=[36, 0]),
   midi.NoteOnEvent(tick=2553200, channel=0, data=[0, 100]),
   midi.NoteOffEvent(tick=2553300, channel=0, data=[0, 0]),
   midi.NoteOnEvent(tick=2553400, channel=0, data=[18, 100]),
   midi.NoteOffEvent(tick=2553500, channel=0, data=[18, 0]),
   midi.NoteOnEvent(tick=2553600, channel=0, data=[18, 100]),
   midi.NoteOffEvent(tick=2553700, channel=0, data=[18, 0]),
   midi.NoteOnEvent(tick=2553800, channel=0, data=[8, 100]),
   midi.NoteOffEvent(tick=2553900, channel=0, data=[8, 0]),
   midi.NoteOnEvent(tick=2554000, channel=0, data=[6, 100]),
   midi.NoteOffEvent(tick=2554100, channel=0, data=[6, 0]),
   midi.NoteOnEvent(tick=2554200, channel=0, data=[13, 100]),
   midi.NoteOffEvent(tick=2554300, channel=0, data=[13, 0]),
   midi.NoteOnEvent(tick=2554400, channel=0, data=[12, 100]),
   midi.NoteOffEvent(tick=2554500, channel=0, data=[12, 0]),
   midi.NoteOnEvent(tick=2554600, channel=0, data=[4, 100]),
   midi.NoteOffEvent(tick=2554700, channel=0, data=[4, 0]),
   midi.NoteOnEvent(tick=2554800, channel=0, data=[13, 100]),
   midi.NoteOffEvent(tick=2554900, channel=0, data=[13, 0]),
   midi.NoteOnEvent(tick=2555000, channel=0, data=[19, 100]),
   midi.NoteOffEvent(tick=2555100, channel=0, data=[19, 0]),
   midi.NoteOnEvent(tick=2555200, channel=0, data=[36, 100]),
   midi.NoteOffEvent(tick=2555300, channel=0, data=[36, 0]),
   midi.NoteOnEvent(tick=2555400, channel=0, data=[1, 100]),
   midi.NoteOffEvent(tick=2555500, channel=0, data=[1, 0]),
   midi.NoteOnEvent(tick=2555600, channel=0, data=[24, 100]),
   midi.NoteOffEvent(tick=2555700, channel=0, data=[24, 0]),
   midi.NoteOnEvent(tick=2555800, channel=0, data=[36, 100]),
   midi.NoteOffEvent(tick=2555900, channel=0, data=[36, 0]),
   midi.NoteOnEvent(tick=2556000, channel=0, data=[12, 100]),
   midi.NoteOffEvent(tick=2556100, channel=0, data=[12, 0]),
   midi.NoteOnEvent(tick=2556200, channel=0, data=[14, 100]),
   midi.NoteOffEvent(tick=2556300, channel=0, data=[14, 0]),
   midi.NoteOnEvent(tick=2556400, channel=0, data=[3, 100]),
   midi.NoteOffEvent(tick=2556500, channel=0, data=[3, 0]),
   midi.NoteOnEvent(tick=2556600, channel=0, data=[20, 100]),
   midi.NoteOffEvent(tick=2556700, channel=0, data=[20, 0]),
   midi.NoteOnEvent(tick=2556800, channel=0, data=[11, 100]),
   midi.NoteOffEvent(tick=2556900, channel=0, data=[11, 0]),
   midi.NoteOnEvent(tick=2557000, channel=0, data=[20, 100]),
   midi.NoteOffEvent(tick=2557100, channel=0, data=[20, 0]),
   midi.NoteOnEvent(tick=2557200, channel=0, data=[18, 100]),
   midi.NoteOffEvent(tick=2557300, channel=0, data=[18, 0]),
   midi.NoteOnEvent(tick=2557400, channel=0, data=[36, 100]),
   midi.NoteOffEvent(tick=2557500, channel=0, data=[36, 0]),
   midi.NoteOnEvent(tick=2557600, channel=0, data=[14, 100]),
   midi.NoteOffEvent(tick=2557700, channel=0, data=[14, 0]),
   midi.NoteOnEvent(tick=2557800, channel=0, data=[15, 100]),
   midi.NoteOffEvent(tick=2557900, channel=0, data=[15, 0]),
   midi.NoteOnEvent(tick=2558000, channel=0, data=[4, 100]),
   midi.NoteOffEvent(tick=2558100, channel=0, data=[4, 0]),
   midi.NoteOnEvent(tick=2558200, channel=0, data=[17, 100]),
   midi.NoteOffEvent(tick=2558300, channel=0, data=[17, 0]),
   midi.NoteOnEvent(tick=2558400, channel=0, data=[0, 100]),
   midi.NoteOffEvent(tick=2558500, channel=0, data=[0, 0]),
   midi.NoteOnEvent(tick=2558600, channel=0, data=[19, 100]),
   midi.NoteOffEvent(tick=2558700, channel=0, data=[19, 0]),
   midi.NoteOnEvent(tick=2558800, channel=0, data=[14, 100]),
   midi.NoteOffEvent(tick=2558900, channel=0, data=[14, 0]),
   midi.NoteOnEvent(tick=2559000, channel=0, data=[17, 100]),
   midi.NoteOffEvent(tick=2559100, channel=0, data=[17, 0]),
   midi.NoteOnEvent(tick=2559200, channel=0, data=[36, 100]),
   midi.NoteOffEvent(tick=2559300, channel=0, data=[36, 0]),
   midi.NoteOnEvent(tick=2559400, channel=0, data=[49, 100]),
   midi.NoteOffEvent(tick=2559500, channel=0, data=[49, 0]),
   midi.NoteOnEvent(tick=2559600, channel=0, data=[71, 100]),
   midi.NoteOffEvent(tick=2559700, channel=0, data=[71, 0]),
   midi.NoteOnEvent(tick=2559800, channel=0, data=[69, 100]),
   midi.NoteOffEvent(tick=2559900, channel=0, data=[69, 0]),
   midi.NoteOnEvent(tick=2560000, channel=0, data=[50, 100]),
   midi.NoteOffEvent(tick=2560100, channel=0, data=[50, 0]),
   midi.NoteOnEvent(tick=2560200, channel=0, data=[56, 100]),
   midi.NoteOffEvent(tick=2560300, channel=0, data=[56, 0]),
   midi.NoteOnEvent(tick=2560400, channel=0, data=[36, 100]),
   midi.NoteOffEvent(tick=2560500, channel=0, data=[36, 0]),
   midi.NoteOnEvent(tick=2560600, channel=0, data=[36, 100]),
   midi.NoteOffEvent(tick=2560700, channel=0, data=[36, 0]),
   midi.NoteOnEvent(tick=2560800, channel=0, data=[36, 100]),
   midi.NoteOffEvent(tick=2560900, channel=0, data=[36, 0]),
   midi.NoteOnEvent(tick=2561000, channel=0, data=[36, 100]),
   midi.NoteOffEvent(tick=2561100, channel=0, data=[36, 0]),
   midi.NoteOnEvent(tick=2561200, channel=0, data=[19, 100]),
   midi.NoteOffEvent(tick=2561300, channel=0, data=[19, 0]),
   midi.NoteOnEvent(tick=2561400, channel=0, data=[7, 100]),
   midi.NoteOffEvent(tick=2561500, channel=0, data=[7, 0]),
   midi.NoteOnEvent(tick=2561600, channel=0, data=[4, 100]),
   midi.NoteOffEvent(tick=2561700, channel=0, data=[4, 0]),
   midi.NoteOnEvent(tick=2561800, channel=0, data=[36, 100]),
   midi.NoteOffEvent(tick=2561900, channel=0, data=[36, 0]),
   midi.NoteOnEvent(tick=2562000, channel=0, data=[0, 100]),
   midi.NoteOffEvent(tick=2562100, channel=0, data=[0, 0]),
   midi.NoteOnEvent(tick=2562200, channel=0, data=[18, 100]),
   midi.NoteOffEvent(tick=2562300, channel=0, data=[18, 0]),
   midi.NoteOnEvent(tick=2562400, channel=0, data=[18, 100]),
   midi.NoteOffEvent(tick=2562500, channel=0, data=[18, 0]),
   midi.NoteOnEvent(tick=2562600, channel=0, data=[8, 100]),
   midi.NoteOffEvent(tick=2562700, channel=0, data=[8, 0]),
   midi.NoteOnEvent(tick=2562800, channel=0, data=[6, 100]),
   midi.NoteOffEvent(tick=2562900, channel=0, data=[6, 0]),
   midi.NoteOnEvent(tick=2563000, channel=0, data=[13, 100]),
   midi.NoteOffEvent(tick=2563100, channel=0, data=[13, 0]),
   midi.NoteOnEvent(tick=2563200, channel=0, data=[12, 100]),
   midi.NoteOffEvent(tick=2563300, channel=0, data=[12, 0]),
   midi.NoteOnEvent(tick=2563400, channel=0, data=[4, 100]),
   midi.NoteOffEvent(tick=2563500, channel=0, data=[4, 0]),
   midi.NoteOnEvent(tick=2563600, channel=0, data=[13, 100]),
   midi.NoteOffEvent(tick=2563700, channel=0, data=[13, 0]),
   midi.NoteOnEvent(tick=2563800, channel=0, data=[19, 100]),
   midi.NoteOffEvent(tick=2563900, channel=0, data=[19, 0]),
   midi.NoteOnEvent(tick=2564000, channel=0, data=[36, 100]),
   midi.NoteOffEvent(tick=2564100, channel=0, data=[36, 0]),
   midi.NoteOnEvent(tick=2564200, channel=0, data=[1, 100]),
   midi.NoteOffEvent(tick=2564300, channel=0, data=[1, 0]),
   midi.NoteOnEvent(tick=2564400, channel=0, data=[24, 100]),
   midi.NoteOffEvent(tick=2564500, channel=0, data=[24, 0]),
   midi.NoteOnEvent(tick=2564600, channel=0, data=[36, 100]),
   midi.NoteOffEvent(tick=2564700, channel=0, data=[36, 0]),
   midi.NoteOnEvent(tick=2564800, channel=0, data=[12, 100]),
   midi.NoteOffEvent(tick=2564900, channel=0, data=[12, 0]),
   midi.NoteOnEvent(tick=2565000, channel=0, data=[14, 100]),
   midi.NoteOffEvent(tick=2565100, channel=0, data=[14, 0]),
   midi.NoteOnEvent(tick=2565200, channel=0, data=[3, 100]),
   midi.NoteOffEvent(tick=2565300, channel=0, data=[3, 0]),
   midi.NoteOnEvent(tick=2565400, channel=0, data=[20, 100]),
   midi.NoteOffEvent(tick=2565500, channel=0, data=[20, 0]),
   midi.NoteOnEvent(tick=2565600, channel=0, data=[11, 100]),
   midi.NoteOffEvent(tick=2565700, channel=0, data=[11, 0]),
   midi.NoteOnEvent(tick=2565800, channel=0, data=[20, 100]),
   midi.NoteOffEvent(tick=2565900, channel=0, data=[20, 0]),
   midi.NoteOnEvent(tick=2566000, channel=0, data=[18, 100]),
   midi.NoteOffEvent(tick=2566100, channel=0, data=[18, 0]),
   midi.NoteOnEvent(tick=2566200, channel=0, data=[36, 100]),
   midi.NoteOffEvent(tick=2566300, channel=0, data=[36, 0]),
   midi.NoteOnEvent(tick=2566400, channel=0, data=[14, 100]),
   midi.NoteOffEvent(tick=2566500, channel=0, data=[14, 0]),
   midi.NoteOnEvent(tick=2566600, channel=0, data=[15, 100]),
   midi.NoteOffEvent(tick=2566700, channel=0, data=[15, 0]),
   midi.NoteOnEvent(tick=2566800, channel=0, data=[4, 100]),
   midi.NoteOffEvent(tick=2566900, channel=0, data=[4, 0]),
   midi.NoteOnEvent(tick=2567000, channel=0, data=[17, 100]),
   midi.NoteOffEvent(tick=2567100, channel=0, data=[17, 0]),
   midi.NoteOnEvent(tick=2567200, channel=0, data=[0, 100]),
   midi.NoteOffEvent(tick=2567300, channel=0, data=[0, 0]),
   midi.NoteOnEvent(tick=2567400, channel=0, data=[19, 100]),
   midi.NoteOffEvent(tick=2567500, channel=0, data=[19, 0]),
   midi.NoteOnEvent(tick=2567600, channel=0, data=[14, 100]),
   midi.NoteOffEvent(tick=2567700, channel=0, data=[14, 0]),
   midi.NoteOnEvent(tick=2567800, channel=0, data=[17, 100]),
   midi.NoteOffEvent(tick=2567900, channel=0, data=[17, 0]),
   midi.NoteOnEvent(tick=2568000, channel=0, data=[36, 100]),
   midi.NoteOffEvent(tick=2568100, channel=0, data=[36, 0]),
   midi.NoteOnEvent(tick=2568200, channel=0, data=[49, 100]),
   midi.NoteOffEvent(tick=2568300, channel=0, data=[49, 0]),
   midi.NoteOnEvent(tick=2568400, channel=0, data=[71, 100]),
   midi.NoteOffEvent(tick=2568500, channel=0, data=[71, 0]),
   midi.NoteOnEvent(tick=2568600, channel=0, data=[69, 100]),
   midi.NoteOffEvent(tick=2568700, channel=0, data=[69, 0]),
   midi.NoteOnEvent(tick=2568800, channel=0, data=[50, 100]),
   midi.NoteOffEvent(tick=2568900, channel=0, data=[50, 0]),
   midi.NoteOnEvent(tick=2569000, channel=0, data=[36, 100]),
   midi.NoteOffEvent(tick=2569100, channel=0, data=[36, 0]),
   midi.NoteOnEvent(tick=2569200, channel=0, data=[3, 100]),
   midi.NoteOffEvent(tick=2569300, channel=0, data=[3, 0]),
   midi.NoteOnEvent(tick=2569400, channel=0, data=[8, 100]),
   midi.NoteOffEvent(tick=2569500, channel=0, data=[8, 0]),
   midi.NoteOnEvent(tick=2569600, channel=0, data=[21, 100]),
   midi.NoteOffEvent(tick=2569700, channel=0, data=[21, 0]),
   midi.NoteOnEvent(tick=2569800, channel=0, data=[8, 100]),
   midi.NoteOffEvent(tick=2569900, channel=0, data=[8, 0]),
   midi.NoteOnEvent(tick=2570000, channel=0, data=[3, 100]),
   midi.NoteOffEvent(tick=2570100, channel=0, data=[3, 0]),
   midi.NoteOnEvent(tick=2570200, channel=0, data=[4, 100]),
   midi.NoteOffEvent(tick=2570300, channel=0, data=[4, 0]),
   midi.NoteOnEvent(tick=2570400, channel=0, data=[18, 100]),
   midi.NoteOffEvent(tick=2570500, channel=0, data=[18, 0]),
   midi.NoteOnEvent(tick=2570600, channel=0, data=[36, 100]),
   midi.NoteOffEvent(tick=2570700, channel=0, data=[36, 0]),
   midi.NoteOnEvent(tick=2570800, channel=0, data=[19, 100]),
   midi.NoteOffEvent(tick=2570900, channel=0, data=[19, 0]),
   midi.NoteOnEvent(tick=2571000, channel=0, data=[7, 100]),
   midi.NoteOffEvent(tick=2571100, channel=0, data=[7, 0]),
   midi.NoteOnEvent(tick=2571200, channel=0, data=[4, 100]),
   midi.NoteOffEvent(tick=2571300, channel=0, data=[4, 0]),
   midi.NoteOnEvent(tick=2571400, channel=0, data=[36, 100]),
   midi.NoteOffEvent(tick=2571500, channel=0, data=[36, 0]),
   midi.NoteOnEvent(tick=2571600, channel=0, data=[21, 100]),
   midi.NoteOffEvent(tick=2571700, channel=0, data=[21, 0]),
   midi.NoteOnEvent(tick=2571800, channel=0, data=[0, 100]),
   midi.NoteOffEvent(tick=2571900, channel=0, data=[0, 0]),
   midi.NoteOnEvent(tick=2572000, channel=0, data=[11, 100]),
   midi.NoteOffEvent(tick=2572100, channel=0, data=[11, 0]),
   midi.NoteOnEvent(tick=2572200, channel=0, data=[20, 100]),
   midi.NoteOffEvent(tick=2572300, channel=0, data=[20, 0]),
   midi.NoteOnEvent(tick=2572400, channel=0, data=[4, 100]),
   midi.NoteOffEvent(tick=2572500, channel=0, data=[4, 0]),
   midi.NoteOnEvent(tick=2572600, channel=0, data=[36, 100]),
   midi.NoteOffEvent(tick=2572700, channel=0, data=[36, 0]),
   midi.NoteOnEvent(tick=2572800, channel=0, data=[14, 100]),
   midi.NoteOffEvent(tick=2572900, channel=0, data=[14, 0]),
   midi.NoteOnEvent(tick=2573000, channel=0, data=[5, 100]),
   midi.NoteOffEvent(tick=2573100, channel=0, data=[5, 0]),
   midi.NoteOnEvent(tick=2573200, channel=0, data=[36, 100]),
   midi.NoteOffEvent(tick=2573300, channel=0, data=[36, 0]),
   midi.NoteOnEvent(tick=2573400, channel=0, data=[0, 100]),
   midi.NoteOffEvent(tick=2573500, channel=0, data=[0, 0]),
   midi.NoteOnEvent(tick=2573600, channel=0, data=[36, 100]),
   midi.NoteOffEvent(tick=2573700, channel=0, data=[36, 0]),
   midi.NoteOnEvent(tick=2573800, channel=0, data=[21, 100]),
   midi.NoteOffEvent(tick=2573900, channel=0, data=[21, 0]),
   midi.NoteOnEvent(tick=2574000, channel=0, data=[0, 100]),
   midi.NoteOffEvent(tick=2574100, channel=0, data=[0, 0]),
   midi.NoteOnEvent(tick=2574200, channel=0, data=[17, 100]),
   midi.NoteOffEvent(tick=2574300, channel=0, data=[17, 0]),
   midi.NoteOnEvent(tick=2574400, channel=0, data=[8, 100]),
   midi.NoteOffEvent(tick=2574500, channel=0, data=[8, 0]),
   midi.NoteOnEvent(tick=2574600, channel=0, data=[0, 100]),
   midi.NoteOffEvent(tick=2574700, channel=0, data=[0, 0]),
   midi.NoteOnEvent(tick=2574800, channel=0, data=[1, 100]),
   midi.NoteOffEvent(tick=2574900, channel=0, data=[1, 0]),
   midi.NoteOnEvent(tick=2575000, channel=0, data=[11, 100]),
   midi.NoteOffEvent(tick=2575100, channel=0, data=[11, 0]),
   midi.NoteOnEvent(tick=2575200, channel=0, data=[4, 100]),
   midi.NoteOffEvent(tick=2575300, channel=0, data=[4, 0]),
   midi.NoteOnEvent(tick=2575400, channel=0, data=[36, 100]),
   midi.NoteOffEvent(tick=2575500, channel=0, data=[36, 0]),
   midi.NoteOnEvent(tick=2575600, channel=0, data=[1, 100]),
   midi.NoteOffEvent(tick=2575700, channel=0, data=[1, 0]),
   midi.NoteOnEvent(tick=2575800, channel=0, data=[24, 100]),
   midi.NoteOffEvent(tick=2575900, channel=0, data=[24, 0]),
   midi.NoteOnEvent(tick=2576000, channel=0, data=[56, 100]),
   midi.NoteOffEvent(tick=2576100, channel=0, data=[56, 0]),
   midi.NoteOnEvent(tick=2576200, channel=0, data=[36, 100]),
   midi.NoteOffEvent(tick=2576300, channel=0, data=[36, 0]),
   midi.NoteOnEvent(tick=2576400, channel=0, data=[36, 100]),
   midi.NoteOffEvent(tick=2576500, channel=0, data=[36, 0]),
   midi.NoteOnEvent(tick=2576600, channel=0, data=[36, 100]),
   midi.NoteOffEvent(tick=2576700, channel=0, data=[36, 0]),
   midi.NoteOnEvent(tick=2576800, channel=0, data=[36, 100]),
   midi.NoteOffEvent(tick=2576900, channel=0, data=[36, 0]),
   midi.NoteOnEvent(tick=2577000, channel=0, data=[19, 100]),
   midi.NoteOffEvent(tick=2577100, channel=0, data=[19, 0]),
   midi.NoteOnEvent(tick=2577200, channel=0, data=[7, 100]),
   midi.NoteOffEvent(tick=2577300, channel=0, data=[7, 0]),
   midi.NoteOnEvent(tick=2577400, channel=0, data=[4, 100]),
   midi.NoteOffEvent(tick=2577500, channel=0, data=[4, 0]),
   midi.NoteOnEvent(tick=2577600, channel=0, data=[36, 100]),
   midi.NoteOffEvent(tick=2577700, channel=0, data=[36, 0]),
   midi.NoteOnEvent(tick=2577800, channel=0, data=[21, 100]),
   midi.NoteOffEvent(tick=2577900, channel=0, data=[21, 0]),
   midi.NoteOnEvent(tick=2578000, channel=0, data=[0, 100]),
   midi.NoteOffEvent(tick=2578100, channel=0, data=[0, 0]),
   midi.NoteOnEvent(tick=2578200, channel=0, data=[11, 100]),
   midi.NoteOffEvent(tick=2578300, channel=0, data=[11, 0]),
   midi.NoteOnEvent(tick=2578400, channel=0, data=[20, 100]),
   midi.NoteOffEvent(tick=2578500, channel=0, data=[20, 0]),
   midi.NoteOnEvent(tick=2578600, channel=0, data=[4, 100]),
   midi.NoteOffEvent(tick=2578700, channel=0, data=[4, 0]),
   midi.NoteOnEvent(tick=2578800, channel=0, data=[36, 100]),
   midi.NoteOffEvent(tick=2578900, channel=0, data=[36, 0]),
   midi.NoteOnEvent(tick=2579000, channel=0, data=[14, 100]),
   midi.NoteOffEvent(tick=2579100, channel=0, data=[14, 0]),
   midi.NoteOnEvent(tick=2579200, channel=0, data=[13, 100]),
   midi.NoteOffEvent(tick=2579300, channel=0, data=[13, 0]),
   midi.NoteOnEvent(tick=2579400, channel=0, data=[36, 100]),
   midi.NoteOffEvent(tick=2579500, channel=0, data=[36, 0]),
   midi.NoteOnEvent(tick=2579600, channel=0, data=[19, 100]),
   midi.NoteOffEvent(tick=2579700, channel=0, data=[19, 0]),
   midi.NoteOnEvent(tick=2579800, channel=0, data=[7, 100]),
   midi.NoteOffEvent(tick=2579900, channel=0, data=[7, 0]),
   midi.NoteOnEvent(tick=2580000, channel=0, data=[4, 100]),
   midi.NoteOffEvent(tick=2580100, channel=0, data=[4, 0]),
   midi.NoteOnEvent(tick=2580200, channel=0, data=[36, 100]),
   midi.NoteOffEvent(tick=2580300, channel=0, data=[36, 0]),
   midi.NoteOnEvent(tick=2580400, channel=0, data=[17, 100]),
   midi.NoteOffEvent(tick=2580500, channel=0, data=[17, 0]),
   midi.NoteOnEvent(tick=2580600, channel=0, data=[8, 100]),
   midi.NoteOffEvent(tick=2580700, channel=0, data=[8, 0]),
   midi.NoteOnEvent(tick=2580800, channel=0, data=[6, 100]),
   midi.NoteOffEvent(tick=2580900, channel=0, data=[6, 0]),
   midi.NoteOnEvent(tick=2581000, channel=0, data=[7, 100]),
   midi.NoteOffEvent(tick=2581100, channel=0, data=[7, 0]),
   midi.NoteOnEvent(tick=2581200, channel=0, data=[19, 100]),
   midi.NoteOffEvent(tick=2581300, channel=0, data=[19, 0]),
   midi.NoteOnEvent(tick=2581400, channel=0, data=[36, 100]),
   midi.NoteOffEvent(tick=2581500, channel=0, data=[36, 0]),
   midi.NoteOnEvent(tick=2581600, channel=0, data=[18, 100]),
   midi.NoteOffEvent(tick=2581700, channel=0, data=[18, 0]),
   midi.NoteOnEvent(tick=2581800, channel=0, data=[8, 100]),
   midi.NoteOffEvent(tick=2581900, channel=0, data=[8, 0]),
   midi.NoteOnEvent(tick=2582000, channel=0, data=[3, 100]),
   midi.NoteOffEvent(tick=2582100, channel=0, data=[3, 0]),
   midi.NoteOnEvent(tick=2582200, channel=0, data=[4, 100]),
   midi.NoteOffEvent(tick=2582300, channel=0, data=[4, 0]),
   midi.NoteOnEvent(tick=2582400, channel=0, data=[36, 100]),
   midi.NoteOffEvent(tick=2582500, channel=0, data=[36, 0]),
   midi.NoteOnEvent(tick=2582600, channel=0, data=[14, 100]),
   midi.NoteOffEvent(tick=2582700, channel=0, data=[14, 0]),
   midi.NoteOnEvent(tick=2582800, channel=0, data=[5, 100]),
   midi.NoteOffEvent(tick=2582900, channel=0, data=[5, 0]),
   midi.NoteOnEvent(tick=2583000, channel=0, data=[36, 100]),
   midi.NoteOffEvent(tick=2583100, channel=0, data=[36, 0]),
   midi.NoteOnEvent(tick=2583200, channel=0, data=[19, 100]),
   midi.NoteOffEvent(tick=2583300, channel=0, data=[19, 0]),
   midi.NoteOnEvent(tick=2583400, channel=0, data=[7, 100]),
   midi.NoteOffEvent(tick=2583500, channel=0, data=[7, 0]),
   midi.NoteOnEvent(tick=2583600, channel=0, data=[4, 100]),
   midi.NoteOffEvent(tick=2583700, channel=0, data=[4, 0]),
   midi.NoteOnEvent(tick=2583800, channel=0, data=[36, 100]),
   midi.NoteOffEvent(tick=2583900, channel=0, data=[36, 0]),
   midi.NoteOnEvent(tick=2584000, channel=0, data=[14, 100]),
   midi.NoteOffEvent(tick=2584100, channel=0, data=[14, 0]),
   midi.NoteOnEvent(tick=2584200, channel=0, data=[15, 100]),
   midi.NoteOffEvent(tick=2584300, channel=0, data=[15, 0]),
   midi.NoteOnEvent(tick=2584400, channel=0, data=[4, 100]),
   midi.NoteOffEvent(tick=2584500, channel=0, data=[4, 0]),
   midi.NoteOnEvent(tick=2584600, channel=0, data=[17, 100]),
   midi.NoteOffEvent(tick=2584700, channel=0, data=[17, 0]),
   midi.NoteOnEvent(tick=2584800, channel=0, data=[0, 100]),
   midi.NoteOffEvent(tick=2584900, channel=0, data=[0, 0]),
   midi.NoteOnEvent(tick=2585000, channel=0, data=[19, 100]),
   midi.NoteOffEvent(tick=2585100, channel=0, data=[19, 0]),
   midi.NoteOnEvent(tick=2585200, channel=0, data=[14, 100]),
   midi.NoteOffEvent(tick=2585300, channel=0, data=[14, 0]),
   midi.NoteOnEvent(tick=2585400, channel=0, data=[17, 100]),
   midi.NoteOffEvent(tick=2585500, channel=0, data=[17, 0]),
   midi.NoteOnEvent(tick=2585600, channel=0, data=[37, 100]),
   midi.NoteOffEvent(tick=2585700, channel=0, data=[37, 0]),
   midi.NoteOnEvent(tick=2585800, channel=0, data=[36, 100]),
   midi.NoteOffEvent(tick=2585900, channel=0, data=[36, 0]),
   midi.NoteOnEvent(tick=2586000, channel=0, data=[19, 100]),
   midi.NoteOffEvent(tick=2586100, channel=0, data=[19, 0]),
   midi.NoteOnEvent(tick=2586200, channel=0, data=[7, 100]),
   midi.NoteOffEvent(tick=2586300, channel=0, data=[7, 0]),
   midi.NoteOnEvent(tick=2586400, channel=0, data=[4, 100]),
   midi.NoteOffEvent(tick=2586500, channel=0, data=[4, 0]),
   midi.NoteOnEvent(tick=2586600, channel=0, data=[13, 100]),
   midi.NoteOffEvent(tick=2586700, channel=0, data=[13, 0]),
   midi.NoteOnEvent(tick=2586800, channel=0, data=[38, 100]),
   midi.NoteOffEvent(tick=2586900, channel=0, data=[38, 0]),
   midi.NoteOnEvent(tick=2587000, channel=0, data=[36, 100]),
   midi.NoteOffEvent(tick=2587100, channel=0, data=[36, 0]),
   midi.NoteOnEvent(tick=2587200, channel=0, data=[19, 100]),
   midi.NoteOffEvent(tick=2587300, channel=0, data=[19, 0]),
   midi.NoteOnEvent(tick=2587400, channel=0, data=[7, 100]),
   midi.NoteOffEvent(tick=2587500, channel=0, data=[7, 0]),
   midi.NoteOnEvent(tick=2587600, channel=0, data=[4, 100]),
   midi.NoteOffEvent(tick=2587700, channel=0, data=[4, 0]),
   midi.NoteOnEvent(tick=2587800, channel=0, data=[36, 100]),
   midi.NoteOffEvent(tick=2587900, channel=0, data=[36, 0]),
   midi.NoteOnEvent(tick=2588000, channel=0, data=[71, 100]),
   midi.NoteOffEvent(tick=2588100, channel=0, data=[71, 0]),
   midi.NoteOnEvent(tick=2588200, channel=0, data=[69, 100]),
   midi.NoteOffEvent(tick=2588300, channel=0, data=[69, 0]),
   midi.NoteOnEvent(tick=2588400, channel=0, data=[36, 100]),
   midi.NoteOffEvent(tick=2588500, channel=0, data=[36, 0]),
   midi.NoteOnEvent(tick=2588600, channel=0, data=[14, 100]),
   midi.NoteOffEvent(tick=2588700, channel=0, data=[14, 0]),
   midi.NoteOnEvent(tick=2588800, channel=0, data=[15, 100]),
   midi.NoteOffEvent(tick=2588900, channel=0, data=[15, 0]),
   midi.NoteOnEvent(tick=2589000, channel=0, data=[4, 100]),
   midi.NoteOffEvent(tick=2589100, channel=0, data=[4, 0]),
   midi.NoteOnEvent(tick=2589200, channel=0, data=[17, 100]),
   midi.NoteOffEvent(tick=2589300, channel=0, data=[17, 0]),
   midi.NoteOnEvent(tick=2589400, channel=0, data=[0, 100]),
   midi.NoteOffEvent(tick=2589500, channel=0, data=[0, 0]),
   midi.NoteOnEvent(tick=2589600, channel=0, data=[19, 100]),
   midi.NoteOffEvent(tick=2589700, channel=0, data=[19, 0]),
   midi.NoteOnEvent(tick=2589800, channel=0, data=[14, 100]),
   midi.NoteOffEvent(tick=2589900, channel=0, data=[14, 0]),
   midi.NoteOnEvent(tick=2590000, channel=0, data=[17, 100]),
   midi.NoteOffEvent(tick=2590100, channel=0, data=[17, 0]),
   midi.NoteOnEvent(tick=2590200, channel=0, data=[36, 100]),
   midi.NoteOffEvent(tick=2590300, channel=0, data=[36, 0]),
   midi.NoteOnEvent(tick=2590400, channel=0, data=[0, 100]),
   midi.NoteOffEvent(tick=2590500, channel=0, data=[0, 0]),
   midi.NoteOnEvent(tick=2590600, channel=0, data=[18, 100]),
   midi.NoteOffEvent(tick=2590700, channel=0, data=[18, 0]),
   midi.NoteOnEvent(tick=2590800, channel=0, data=[18, 100]),
   midi.NoteOffEvent(tick=2590900, channel=0, data=[18, 0]),
   midi.NoteOnEvent(tick=2591000, channel=0, data=[8, 100]),
   midi.NoteOffEvent(tick=2591100, channel=0, data=[8, 0]),
   midi.NoteOnEvent(tick=2591200, channel=0, data=[6, 100]),
   midi.NoteOffEvent(tick=2591300, channel=0, data=[6, 0]),
   midi.NoteOnEvent(tick=2591400, channel=0, data=[13, 100]),
   midi.NoteOffEvent(tick=2591500, channel=0, data=[13, 0]),
   midi.NoteOnEvent(tick=2591600, channel=0, data=[18, 100]),
   midi.NoteOffEvent(tick=2591700, channel=0, data=[18, 0]),
   midi.NoteOnEvent(tick=2591800, channel=0, data=[36, 100]),
   midi.NoteOffEvent(tick=2591900, channel=0, data=[36, 0]),
   midi.NoteOnEvent(tick=2592000, channel=0, data=[56, 100]),
   midi.NoteOffEvent(tick=2592100, channel=0, data=[56, 0]),
   midi.NoteOnEvent(tick=2592200, channel=0, data=[36, 100]),
   midi.NoteOffEvent(tick=2592300, channel=0, data=[36, 0]),
   midi.NoteOnEvent(tick=2592400, channel=0, data=[36, 100]),
   midi.NoteOffEvent(tick=2592500, channel=0, data=[36, 0]),
   midi.NoteOnEvent(tick=2592600, channel=0, data=[36, 100]),
   midi.NoteOffEvent(tick=2592700, channel=0, data=[36, 0]),
   midi.NoteOnEvent(tick=2592800, channel=0, data=[36, 100]),
   midi.NoteOffEvent(tick=2592900, channel=0, data=[36, 0]),
   midi.NoteOnEvent(tick=2593000, channel=0, data=[19, 100]),
   midi.NoteOffEvent(tick=2593100, channel=0, data=[19, 0]),
   midi.NoteOnEvent(tick=2593200, channel=0, data=[7, 100]),
   midi.NoteOffEvent(tick=2593300, channel=0, data=[7, 0]),
   midi.NoteOnEvent(tick=2593400, channel=0, data=[4, 100]),
   midi.NoteOffEvent(tick=2593500, channel=0, data=[4, 0]),
   midi.NoteOnEvent(tick=2593600, channel=0, data=[36, 100]),
   midi.NoteOffEvent(tick=2593700, channel=0, data=[36, 0]),
   midi.NoteOnEvent(tick=2593800, channel=0, data=[17, 100]),
   midi.NoteOffEvent(tick=2593900, channel=0, data=[17, 0]),
   midi.NoteOnEvent(tick=2594000, channel=0, data=[4, 100]),
   midi.NoteOffEvent(tick=2594100, channel=0, data=[4, 0]),
   midi.NoteOnEvent(tick=2594200, channel=0, data=[12, 100]),
   midi.NoteOffEvent(tick=2594300, channel=0, data=[12, 0]),
   midi.NoteOnEvent(tick=2594400, channel=0, data=[0, 100]),
   midi.NoteOffEvent(tick=2594500, channel=0, data=[0, 0]),
   midi.NoteOnEvent(tick=2594600, channel=0, data=[8, 100]),
   midi.NoteOffEvent(tick=2594700, channel=0, data=[8, 0]),
   midi.NoteOnEvent(tick=2594800, channel=0, data=[13, 100]),
   midi.NoteOffEvent(tick=2594900, channel=0, data=[13, 0]),
   midi.NoteOnEvent(tick=2595000, channel=0, data=[3, 100]),
   midi.NoteOffEvent(tick=2595100, channel=0, data=[3, 0]),
   midi.NoteOnEvent(tick=2595200, channel=0, data=[4, 100]),
   midi.NoteOffEvent(tick=2595300, channel=0, data=[4, 0]),
   midi.NoteOnEvent(tick=2595400, channel=0, data=[17, 100]),
   midi.NoteOffEvent(tick=2595500, channel=0, data=[17, 0]),
   midi.NoteOnEvent(tick=2595600, channel=0, data=[36, 100]),
   midi.NoteOffEvent(tick=2595700, channel=0, data=[36, 0]),
   midi.NoteOnEvent(tick=2595800, channel=0, data=[49, 100]),
   midi.NoteOffEvent(tick=2595900, channel=0, data=[49, 0]),
   midi.NoteOnEvent(tick=2596000, channel=0, data=[10, 100]),
   midi.NoteOffEvent(tick=2596100, channel=0, data=[10, 0]),
   midi.NoteOnEvent(tick=2596200, channel=0, data=[13, 100]),
   midi.NoteOffEvent(tick=2596300, channel=0, data=[13, 0]),
   midi.NoteOnEvent(tick=2596400, channel=0, data=[14, 100]),
   midi.NoteOffEvent(tick=2596500, channel=0, data=[14, 0]),
   midi.NoteOnEvent(tick=2596600, channel=0, data=[22, 100]),
   midi.NoteOffEvent(tick=2596700, channel=0, data=[22, 0]),
   midi.NoteOnEvent(tick=2596800, channel=0, data=[13, 100]),
   midi.NoteOffEvent(tick=2596900, channel=0, data=[13, 0]),
   midi.NoteOnEvent(tick=2597000, channel=0, data=[36, 100]),
   midi.NoteOffEvent(tick=2597100, channel=0, data=[36, 0]),
   midi.NoteOnEvent(tick=2597200, channel=0, data=[0, 100]),
   midi.NoteOffEvent(tick=2597300, channel=0, data=[0, 0]),
   midi.NoteOnEvent(tick=2597400, channel=0, data=[18, 100]),
   midi.NoteOffEvent(tick=2597500, channel=0, data=[18, 0]),
   midi.NoteOnEvent(tick=2597600, channel=0, data=[36, 100]),
   midi.NoteOffEvent(tick=2597700, channel=0, data=[36, 0]),
   midi.NoteOnEvent(tick=2597800, channel=0, data=[19, 100]),
   midi.NoteOffEvent(tick=2597900, channel=0, data=[19, 0]),
   midi.NoteOnEvent(tick=2598000, channel=0, data=[7, 100]),
   midi.NoteOffEvent(tick=2598100, channel=0, data=[7, 0]),
   midi.NoteOnEvent(tick=2598200, channel=0, data=[4, 100]),
   midi.NoteOffEvent(tick=2598300, channel=0, data=[4, 0]),
   midi.NoteOnEvent(tick=2598400, channel=0, data=[36, 100]),
   midi.NoteOffEvent(tick=2598500, channel=0, data=[36, 0]),
   midi.NoteOnEvent(tick=2598600, channel=0, data=[12, 100]),
   midi.NoteOffEvent(tick=2598700, channel=0, data=[12, 0]),
   midi.NoteOnEvent(tick=2598800, channel=0, data=[14, 100]),
   midi.NoteOffEvent(tick=2598900, channel=0, data=[14, 0]),
   midi.NoteOnEvent(tick=2599000, channel=0, data=[3, 100]),
   midi.NoteOffEvent(tick=2599100, channel=0, data=[3, 0]),
   midi.NoteOnEvent(tick=2599200, channel=0, data=[20, 100]),
   midi.NoteOffEvent(tick=2599300, channel=0, data=[20, 0]),
   midi.NoteOnEvent(tick=2599400, channel=0, data=[11, 100]),
   midi.NoteOffEvent(tick=2599500, channel=0, data=[11, 0]),
   midi.NoteOnEvent(tick=2599600, channel=0, data=[20, 100]),
   midi.NoteOffEvent(tick=2599700, channel=0, data=[20, 0]),
   midi.NoteOnEvent(tick=2599800, channel=0, data=[18, 100]),
   midi.NoteOffEvent(tick=2599900, channel=0, data=[18, 0]),
   midi.NoteOnEvent(tick=2600000, channel=0, data=[50, 100]),
   midi.NoteOffEvent(tick=2600100, channel=0, data=[50, 0]),
   midi.NoteOnEvent(tick=2600200, channel=0, data=[36, 100]),
   midi.NoteOffEvent(tick=2600300, channel=0, data=[36, 0]),
   midi.NoteOnEvent(tick=2600400, channel=0, data=[19, 100]),
   midi.NoteOffEvent(tick=2600500, channel=0, data=[19, 0]),
   midi.NoteOnEvent(tick=2600600, channel=0, data=[14, 100]),
   midi.NoteOffEvent(tick=2600700, channel=0, data=[14, 0]),
   midi.NoteOnEvent(tick=2600800, channel=0, data=[36, 100]),
   midi.NoteOffEvent(tick=2600900, channel=0, data=[36, 0]),
   midi.NoteOnEvent(tick=2601000, channel=0, data=[19, 100]),
   midi.NoteOffEvent(tick=2601100, channel=0, data=[19, 0]),
   midi.NoteOnEvent(tick=2601200, channel=0, data=[7, 100]),
   midi.NoteOffEvent(tick=2601300, channel=0, data=[7, 0]),
   midi.NoteOnEvent(tick=2601400, channel=0, data=[4, 100]),
   midi.NoteOffEvent(tick=2601500, channel=0, data=[4, 0]),
   midi.NoteOnEvent(tick=2601600, channel=0, data=[36, 100]),
   midi.NoteOffEvent(tick=2601700, channel=0, data=[36, 0]),
   midi.NoteOnEvent(tick=2601800, channel=0, data=[21, 100]),
   midi.NoteOffEvent(tick=2601900, channel=0, data=[21, 0]),
   midi.NoteOnEvent(tick=2602000, channel=0, data=[0, 100]),
   midi.NoteOffEvent(tick=2602100, channel=0, data=[0, 0]),
   midi.NoteOnEvent(tick=2602200, channel=0, data=[17, 100]),
   midi.NoteOffEvent(tick=2602300, channel=0, data=[17, 0]),
   midi.NoteOnEvent(tick=2602400, channel=0, data=[8, 100]),
   midi.NoteOffEvent(tick=2602500, channel=0, data=[8, 0]),
   midi.NoteOnEvent(tick=2602600, channel=0, data=[0, 100]),
   midi.NoteOffEvent(tick=2602700, channel=0, data=[0, 0]),
   midi.NoteOnEvent(tick=2602800, channel=0, data=[1, 100]),
   midi.NoteOffEvent(tick=2602900, channel=0, data=[1, 0]),
   midi.NoteOnEvent(tick=2603000, channel=0, data=[11, 100]),
   midi.NoteOffEvent(tick=2603100, channel=0, data=[11, 0]),
   midi.NoteOnEvent(tick=2603200, channel=0, data=[4, 100]),
   midi.NoteOffEvent(tick=2603300, channel=0, data=[4, 0]),
   midi.NoteOnEvent(tick=2603400, channel=0, data=[37, 100]),
   midi.NoteOffEvent(tick=2603500, channel=0, data=[37, 0]),
   midi.NoteOnEvent(tick=2603600, channel=0, data=[36, 100]),
   midi.NoteOffEvent(tick=2603700, channel=0, data=[36, 0]),
   midi.NoteOnEvent(tick=2603800, channel=0, data=[24, 100]),
   midi.NoteOffEvent(tick=2603900, channel=0, data=[24, 0]),
   midi.NoteOnEvent(tick=2604000, channel=0, data=[14, 100]),
   midi.NoteOffEvent(tick=2604100, channel=0, data=[14, 0]),
   midi.NoteOnEvent(tick=2604200, channel=0, data=[20, 100]),
   midi.NoteOffEvent(tick=2604300, channel=0, data=[20, 0]),
   midi.NoteOnEvent(tick=2604400, channel=0, data=[36, 100]),
   midi.NoteOffEvent(tick=2604500, channel=0, data=[36, 0]),
   midi.NoteOnEvent(tick=2604600, channel=0, data=[2, 100]),
   midi.NoteOffEvent(tick=2604700, channel=0, data=[2, 0]),
   midi.NoteOnEvent(tick=2604800, channel=0, data=[0, 100]),
   midi.NoteOffEvent(tick=2604900, channel=0, data=[0, 0]),
   midi.NoteOnEvent(tick=2605000, channel=0, data=[13, 100]),
   midi.NoteOffEvent(tick=2605100, channel=0, data=[13, 0]),
   midi.NoteOnEvent(tick=2605200, channel=0, data=[36, 100]),
   midi.NoteOffEvent(tick=2605300, channel=0, data=[36, 0]),
   midi.NoteOnEvent(tick=2605400, channel=0, data=[20, 100]),
   midi.NoteOffEvent(tick=2605500, channel=0, data=[20, 0]),
   midi.NoteOnEvent(tick=2605600, channel=0, data=[18, 100]),
   midi.NoteOffEvent(tick=2605700, channel=0, data=[18, 0]),
   midi.NoteOnEvent(tick=2605800, channel=0, data=[4, 100]),
   midi.NoteOffEvent(tick=2605900, channel=0, data=[4, 0]),
   midi.NoteOnEvent(tick=2606000, channel=0, data=[36, 100]),
   midi.NoteOffEvent(tick=2606100, channel=0, data=[36, 0]),
   midi.NoteOnEvent(tick=2606200, channel=0, data=[19, 100]),
   midi.NoteOffEvent(tick=2606300, channel=0, data=[19, 0]),
   midi.NoteOnEvent(tick=2606400, channel=0, data=[7, 100]),
   midi.NoteOffEvent(tick=2606500, channel=0, data=[7, 0]),
   midi.NoteOnEvent(tick=2606600, channel=0, data=[8, 100]),
   midi.NoteOffEvent(tick=2606700, channel=0, data=[8, 0]),
   midi.NoteOnEvent(tick=2606800, channel=0, data=[18, 100]),
   midi.NoteOffEvent(tick=2606900, channel=0, data=[18, 0]),
   midi.NoteOnEvent(tick=2607000, channel=0, data=[36, 100]),
   midi.NoteOffEvent(tick=2607100, channel=0, data=[36, 0]),
   midi.NoteOnEvent(tick=2607200, channel=0, data=[56, 100]),
   midi.NoteOffEvent(tick=2607300, channel=0, data=[56, 0]),
   midi.NoteOnEvent(tick=2607400, channel=0, data=[36, 100]),
   midi.NoteOffEvent(tick=2607500, channel=0, data=[36, 0]),
   midi.NoteOnEvent(tick=2607600, channel=0, data=[36, 100]),
   midi.NoteOffEvent(tick=2607700, channel=0, data=[36, 0]),
   midi.NoteOnEvent(tick=2607800, channel=0, data=[36, 100]),
   midi.NoteOffEvent(tick=2607900, channel=0, data=[36, 0]),
   midi.NoteOnEvent(tick=2608000, channel=0, data=[36, 100]),
   midi.NoteOffEvent(tick=2608100, channel=0, data=[36, 0]),
   midi.NoteOnEvent(tick=2608200, channel=0, data=[14, 100]),
   midi.NoteOffEvent(tick=2608300, channel=0, data=[14, 0]),
   midi.NoteOnEvent(tick=2608400, channel=0, data=[15, 100]),
   midi.NoteOffEvent(tick=2608500, channel=0, data=[15, 0]),
   midi.NoteOnEvent(tick=2608600, channel=0, data=[4, 100]),
   midi.NoteOffEvent(tick=2608700, channel=0, data=[4, 0]),
   midi.NoteOnEvent(tick=2608800, channel=0, data=[17, 100]),
   midi.NoteOffEvent(tick=2608900, channel=0, data=[17, 0]),
   midi.NoteOnEvent(tick=2609000, channel=0, data=[0, 100]),
   midi.NoteOffEvent(tick=2609100, channel=0, data=[0, 0]),
   midi.NoteOnEvent(tick=2609200, channel=0, data=[19, 100]),
   midi.NoteOffEvent(tick=2609300, channel=0, data=[19, 0]),
   midi.NoteOnEvent(tick=2609400, channel=0, data=[14, 100]),
   midi.NoteOffEvent(tick=2609500, channel=0, data=[14, 0]),
   midi.NoteOnEvent(tick=2609600, channel=0, data=[17, 100]),
   midi.NoteOffEvent(tick=2609700, channel=0, data=[17, 0]),
   midi.NoteOnEvent(tick=2609800, channel=0, data=[36, 100]),
   midi.NoteOffEvent(tick=2609900, channel=0, data=[36, 0]),
   midi.NoteOnEvent(tick=2610000, channel=0, data=[14, 100]),
   midi.NoteOffEvent(tick=2610100, channel=0, data=[14, 0]),
   midi.NoteOnEvent(tick=2610200, channel=0, data=[13, 100]),
   midi.NoteOffEvent(tick=2610300, channel=0, data=[13, 0]),
   midi.NoteOnEvent(tick=2610400, channel=0, data=[11, 100]),
   midi.NoteOffEvent(tick=2610500, channel=0, data=[11, 0]),
   midi.NoteOnEvent(tick=2610600, channel=0, data=[24, 100]),
   midi.NoteOffEvent(tick=2610700, channel=0, data=[24, 0]),
   midi.NoteOnEvent(tick=2610800, channel=0, data=[36, 100]),
   midi.NoteOffEvent(tick=2610900, channel=0, data=[36, 0]),
   midi.NoteOnEvent(tick=2611000, channel=0, data=[22, 100]),
   midi.NoteOffEvent(tick=2611100, channel=0, data=[22, 0]),
   midi.NoteOnEvent(tick=2611200, channel=0, data=[7, 100]),
   midi.NoteOffEvent(tick=2611300, channel=0, data=[7, 0]),
   midi.NoteOnEvent(tick=2611400, channel=0, data=[4, 100]),
   midi.NoteOffEvent(tick=2611500, channel=0, data=[4, 0]),
   midi.NoteOnEvent(tick=2611600, channel=0, data=[13, 100]),
   midi.NoteOffEvent(tick=2611700, channel=0, data=[13, 0]),
   midi.NoteOnEvent(tick=2611800, channel=0, data=[36, 100]),
   midi.NoteOffEvent(tick=2611900, channel=0, data=[36, 0]),
   midi.NoteOnEvent(tick=2612000, channel=0, data=[0, 100]),
   midi.NoteOffEvent(tick=2612100, channel=0, data=[0, 0]),
   midi.NoteOnEvent(tick=2612200, channel=0, data=[36, 100]),
   midi.NoteOffEvent(tick=2612300, channel=0, data=[36, 0]),
   midi.NoteOnEvent(tick=2612400, channel=0, data=[21, 100]),
   midi.NoteOffEvent(tick=2612500, channel=0, data=[21, 0]),
   midi.NoteOnEvent(tick=2612600, channel=0, data=[0, 100]),
   midi.NoteOffEvent(tick=2612700, channel=0, data=[0, 0]),
   midi.NoteOnEvent(tick=2612800, channel=0, data=[17, 100]),
   midi.NoteOffEvent(tick=2612900, channel=0, data=[17, 0]),
   midi.NoteOnEvent(tick=2613000, channel=0, data=[8, 100]),
   midi.NoteOffEvent(tick=2613100, channel=0, data=[8, 0]),
   midi.NoteOnEvent(tick=2613200, channel=0, data=[0, 100]),
   midi.NoteOffEvent(tick=2613300, channel=0, data=[0, 0]),
   midi.NoteOnEvent(tick=2613400, channel=0, data=[1, 100]),
   midi.NoteOffEvent(tick=2613500, channel=0, data=[1, 0]),
   midi.NoteOnEvent(tick=2613600, channel=0, data=[11, 100]),
   midi.NoteOffEvent(tick=2613700, channel=0, data=[11, 0]),
   midi.NoteOnEvent(tick=2613800, channel=0, data=[4, 100]),
   midi.NoteOffEvent(tick=2613900, channel=0, data=[4, 0]),
   midi.NoteOnEvent(tick=2614000, channel=0, data=[36, 100]),
   midi.NoteOffEvent(tick=2614100, channel=0, data=[36, 0]),
   midi.NoteOnEvent(tick=2614200, channel=0, data=[2, 100]),
   midi.NoteOffEvent(tick=2614300, channel=0, data=[2, 0]),
   midi.NoteOnEvent(tick=2614400, channel=0, data=[14, 100]),
   midi.NoteOffEvent(tick=2614500, channel=0, data=[14, 0]),
   midi.NoteOnEvent(tick=2614600, channel=0, data=[13, 100]),
   midi.NoteOffEvent(tick=2614700, channel=0, data=[13, 0]),
   midi.NoteOnEvent(tick=2614800, channel=0, data=[19, 100]),
   midi.NoteOffEvent(tick=2614900, channel=0, data=[19, 0]),
   midi.NoteOnEvent(tick=2615000, channel=0, data=[0, 100]),
   midi.NoteOffEvent(tick=2615100, channel=0, data=[0, 0]),
   midi.NoteOnEvent(tick=2615200, channel=0, data=[8, 100]),
   midi.NoteOffEvent(tick=2615300, channel=0, data=[8, 0]),
   midi.NoteOnEvent(tick=2615400, channel=0, data=[13, 100]),
   midi.NoteOffEvent(tick=2615500, channel=0, data=[13, 0]),
   midi.NoteOnEvent(tick=2615600, channel=0, data=[18, 100]),
   midi.NoteOffEvent(tick=2615700, channel=0, data=[18, 0]),
   midi.NoteOnEvent(tick=2615800, channel=0, data=[36, 100]),
   midi.NoteOffEvent(tick=2615900, channel=0, data=[36, 0]),
   midi.NoteOnEvent(tick=2616000, channel=0, data=[0, 100]),
   midi.NoteOffEvent(tick=2616100, channel=0, data=[0, 0]),
   midi.NoteOnEvent(tick=2616200, channel=0, data=[36, 100]),
   midi.NoteOffEvent(tick=2616300, channel=0, data=[36, 0]),
   midi.NoteOnEvent(tick=2616400, channel=0, data=[18, 100]),
   midi.NoteOffEvent(tick=2616500, channel=0, data=[18, 0]),
   midi.NoteOnEvent(tick=2616600, channel=0, data=[8, 100]),
   midi.NoteOffEvent(tick=2616700, channel=0, data=[8, 0]),
   midi.NoteOnEvent(tick=2616800, channel=0, data=[13, 100]),
   midi.NoteOffEvent(tick=2616900, channel=0, data=[13, 0]),
   midi.NoteOnEvent(tick=2617000, channel=0, data=[6, 100]),
   midi.NoteOffEvent(tick=2617100, channel=0, data=[6, 0]),
   midi.NoteOnEvent(tick=2617200, channel=0, data=[11, 100]),
   midi.NoteOffEvent(tick=2617300, channel=0, data=[11, 0]),
   midi.NoteOnEvent(tick=2617400, channel=0, data=[4, 100]),
   midi.NoteOffEvent(tick=2617500, channel=0, data=[4, 0]),
   midi.NoteOnEvent(tick=2617600, channel=0, data=[36, 100]),
   midi.NoteOffEvent(tick=2617700, channel=0, data=[36, 0]),
   midi.NoteOnEvent(tick=2617800, channel=0, data=[13, 100]),
   midi.NoteOffEvent(tick=2617900, channel=0, data=[13, 0]),
   midi.NoteOnEvent(tick=2618000, channel=0, data=[20, 100]),
   midi.NoteOffEvent(tick=2618100, channel=0, data=[20, 0]),
   midi.NoteOnEvent(tick=2618200, channel=0, data=[12, 100]),
   midi.NoteOffEvent(tick=2618300, channel=0, data=[12, 0]),
   midi.NoteOnEvent(tick=2618400, channel=0, data=[4, 100]),
   midi.NoteOffEvent(tick=2618500, channel=0, data=[4, 0]),
   midi.NoteOnEvent(tick=2618600, channel=0, data=[17, 100]),
   midi.NoteOffEvent(tick=2618700, channel=0, data=[17, 0]),
   midi.NoteOnEvent(tick=2618800, channel=0, data=[8, 100]),
   midi.NoteOffEvent(tick=2618900, channel=0, data=[8, 0]),
   midi.NoteOnEvent(tick=2619000, channel=0, data=[2, 100]),
   midi.NoteOffEvent(tick=2619100, channel=0, data=[2, 0]),
   midi.NoteOnEvent(tick=2619200, channel=0, data=[36, 100]),
   midi.NoteOffEvent(tick=2619300, channel=0, data=[36, 0]),
   midi.NoteOnEvent(tick=2619400, channel=0, data=[21, 100]),
   midi.NoteOffEvent(tick=2619500, channel=0, data=[21, 0]),
   midi.NoteOnEvent(tick=2619600, channel=0, data=[0, 100]),
   midi.NoteOffEvent(tick=2619700, channel=0, data=[0, 0]),
   midi.NoteOnEvent(tick=2619800, channel=0, data=[11, 100]),
   midi.NoteOffEvent(tick=2619900, channel=0, data=[11, 0]),
   midi.NoteOnEvent(tick=2620000, channel=0, data=[20, 100]),
   midi.NoteOffEvent(tick=2620100, channel=0, data=[20, 0]),
   midi.NoteOnEvent(tick=2620200, channel=0, data=[4, 100]),
   midi.NoteOffEvent(tick=2620300, channel=0, data=[4, 0]),
   midi.NoteOnEvent(tick=2620400, channel=0, data=[37, 100]),
   midi.NoteOffEvent(tick=2620500, channel=0, data=[37, 0]),
   midi.NoteOnEvent(tick=2620600, channel=0, data=[36, 100]),
   midi.NoteOffEvent(tick=2620700, channel=0, data=[36, 0]),
   midi.NoteOnEvent(tick=2620800, channel=0, data=[24, 100]),
   midi.NoteOffEvent(tick=2620900, channel=0, data=[24, 0]),
   midi.NoteOnEvent(tick=2621000, channel=0, data=[14, 100]),
   midi.NoteOffEvent(tick=2621100, channel=0, data=[14, 0]),
   midi.NoteOnEvent(tick=2621200, channel=0, data=[20, 100]),
   midi.NoteOffEvent(tick=2621300, channel=0, data=[20, 0]),
   midi.NoteOnEvent(tick=2621400, channel=0, data=[36, 100]),
   midi.NoteOffEvent(tick=2621500, channel=0, data=[36, 0]),
   midi.NoteOnEvent(tick=2621600, channel=0, data=[2, 100]),
   midi.NoteOffEvent(tick=2621700, channel=0, data=[2, 0]),
   midi.NoteOnEvent(tick=2621800, channel=0, data=[0, 100]),
   midi.NoteOffEvent(tick=2621900, channel=0, data=[0, 0]),
   midi.NoteOnEvent(tick=2622000, channel=0, data=[13, 100]),
   midi.NoteOffEvent(tick=2622100, channel=0, data=[13, 0]),
   midi.NoteOnEvent(tick=2622200, channel=0, data=[13, 100]),
   midi.NoteOffEvent(tick=2622300, channel=0, data=[13, 0]),
   midi.NoteOnEvent(tick=2622400, channel=0, data=[14, 100]),
   midi.NoteOffEvent(tick=2622500, channel=0, data=[14, 0]),
   midi.NoteOnEvent(tick=2622600, channel=0, data=[19, 100]),
   midi.NoteOffEvent(tick=2622700, channel=0, data=[19, 0]),
   midi.NoteOnEvent(tick=2622800, channel=0, data=[56, 100]),
   midi.NoteOffEvent(tick=2622900, channel=0, data=[56, 0]),
   midi.NoteOnEvent(tick=2623000, channel=0, data=[36, 100]),
   midi.NoteOffEvent(tick=2623100, channel=0, data=[36, 0]),
   midi.NoteOnEvent(tick=2623200, channel=0, data=[36, 100]),
   midi.NoteOffEvent(tick=2623300, channel=0, data=[36, 0]),
   midi.NoteOnEvent(tick=2623400, channel=0, data=[36, 100]),
   midi.NoteOffEvent(tick=2623500, channel=0, data=[36, 0]),
   midi.NoteOnEvent(tick=2623600, channel=0, data=[36, 100]),
   midi.NoteOffEvent(tick=2623700, channel=0, data=[36, 0]),
   midi.NoteOnEvent(tick=2623800, channel=0, data=[20, 100]),
   midi.NoteOffEvent(tick=2623900, channel=0, data=[20, 0]),
   midi.NoteOnEvent(tick=2624000, channel=0, data=[18, 100]),
   midi.NoteOffEvent(tick=2624100, channel=0, data=[18, 0]),
   midi.NoteOnEvent(tick=2624200, channel=0, data=[4, 100]),
   midi.NoteOffEvent(tick=2624300, channel=0, data=[4, 0]),
   midi.NoteOnEvent(tick=2624400, channel=0, data=[36, 100]),
   midi.NoteOffEvent(tick=2624500, channel=0, data=[36, 0]),
   midi.NoteOnEvent(tick=2624600, channel=0, data=[19, 100]),
   midi.NoteOffEvent(tick=2624700, channel=0, data=[19, 0]),
   midi.NoteOnEvent(tick=2624800, channel=0, data=[7, 100]),
   midi.NoteOffEvent(tick=2624900, channel=0, data=[7, 0]),
   midi.NoteOnEvent(tick=2625000, channel=0, data=[8, 100]),
   midi.NoteOffEvent(tick=2625100, channel=0, data=[8, 0]),
   midi.NoteOnEvent(tick=2625200, channel=0, data=[18, 100]),
   midi.NoteOffEvent(tick=2625300, channel=0, data=[18, 0]),
   midi.NoteOnEvent(tick=2625400, channel=0, data=[36, 100]),
   midi.NoteOffEvent(tick=2625500, channel=0, data=[36, 0]),
   midi.NoteOnEvent(tick=2625600, channel=0, data=[14, 100]),
   midi.NoteOffEvent(tick=2625700, channel=0, data=[14, 0]),
   midi.NoteOnEvent(tick=2625800, channel=0, data=[15, 100]),
   midi.NoteOffEvent(tick=2625900, channel=0, data=[15, 0]),
   midi.NoteOnEvent(tick=2626000, channel=0, data=[4, 100]),
   midi.NoteOffEvent(tick=2626100, channel=0, data=[4, 0]),
   midi.NoteOnEvent(tick=2626200, channel=0, data=[17, 100]),
   midi.NoteOffEvent(tick=2626300, channel=0, data=[17, 0]),
   midi.NoteOnEvent(tick=2626400, channel=0, data=[0, 100]),
   midi.NoteOffEvent(tick=2626500, channel=0, data=[0, 0]),
   midi.NoteOnEvent(tick=2626600, channel=0, data=[19, 100]),
   midi.NoteOffEvent(tick=2626700, channel=0, data=[19, 0]),
   midi.NoteOnEvent(tick=2626800, channel=0, data=[14, 100]),
   midi.NoteOffEvent(tick=2626900, channel=0, data=[14, 0]),
   midi.NoteOnEvent(tick=2627000, channel=0, data=[17, 100]),
   midi.NoteOffEvent(tick=2627100, channel=0, data=[17, 0]),
   midi.NoteOnEvent(tick=2627200, channel=0, data=[36, 100]),
   midi.NoteOffEvent(tick=2627300, channel=0, data=[36, 0]),
   midi.NoteOnEvent(tick=2627400, channel=0, data=[22, 100]),
   midi.NoteOffEvent(tick=2627500, channel=0, data=[22, 0]),
   midi.NoteOnEvent(tick=2627600, channel=0, data=[7, 100]),
   midi.NoteOffEvent(tick=2627700, channel=0, data=[7, 0]),
   midi.NoteOnEvent(tick=2627800, channel=0, data=[4, 100]),
   midi.NoteOffEvent(tick=2627900, channel=0, data=[4, 0]),
   midi.NoteOnEvent(tick=2628000, channel=0, data=[13, 100]),
   midi.NoteOffEvent(tick=2628100, channel=0, data=[13, 0]),
   midi.NoteOnEvent(tick=2628200, channel=0, data=[36, 100]),
   midi.NoteOffEvent(tick=2628300, channel=0, data=[36, 0]),
   midi.NoteOnEvent(tick=2628400, channel=0, data=[0, 100]),
   midi.NoteOffEvent(tick=2628500, channel=0, data=[0, 0]),
   midi.NoteOnEvent(tick=2628600, channel=0, data=[36, 100]),
   midi.NoteOffEvent(tick=2628700, channel=0, data=[36, 0]),
   midi.NoteOnEvent(tick=2628800, channel=0, data=[21, 100]),
   midi.NoteOffEvent(tick=2628900, channel=0, data=[21, 0]),
   midi.NoteOnEvent(tick=2629000, channel=0, data=[0, 100]),
   midi.NoteOffEvent(tick=2629100, channel=0, data=[0, 0]),
   midi.NoteOnEvent(tick=2629200, channel=0, data=[17, 100]),
   midi.NoteOffEvent(tick=2629300, channel=0, data=[17, 0]),
   midi.NoteOnEvent(tick=2629400, channel=0, data=[8, 100]),
   midi.NoteOffEvent(tick=2629500, channel=0, data=[8, 0]),
   midi.NoteOnEvent(tick=2629600, channel=0, data=[0, 100]),
   midi.NoteOffEvent(tick=2629700, channel=0, data=[0, 0]),
   midi.NoteOnEvent(tick=2629800, channel=0, data=[1, 100]),
   midi.NoteOffEvent(tick=2629900, channel=0, data=[1, 0]),
   midi.NoteOnEvent(tick=2630000, channel=0, data=[11, 100]),
   midi.NoteOffEvent(tick=2630100, channel=0, data=[11, 0]),
   midi.NoteOnEvent(tick=2630200, channel=0, data=[4, 100]),
   midi.NoteOffEvent(tick=2630300, channel=0, data=[4, 0]),
   midi.NoteOnEvent(tick=2630400, channel=0, data=[36, 100]),
   midi.NoteOffEvent(tick=2630500, channel=0, data=[36, 0]),
   midi.NoteOnEvent(tick=2630600, channel=0, data=[2, 100]),
   midi.NoteOffEvent(tick=2630700, channel=0, data=[2, 0]),
   midi.NoteOnEvent(tick=2630800, channel=0, data=[14, 100]),
   midi.NoteOffEvent(tick=2630900, channel=0, data=[14, 0]),
   midi.NoteOnEvent(tick=2631000, channel=0, data=[13, 100]),
   midi.NoteOffEvent(tick=2631100, channel=0, data=[13, 0]),
   midi.NoteOnEvent(tick=2631200, channel=0, data=[19, 100]),
   midi.NoteOffEvent(tick=2631300, channel=0, data=[19, 0]),
   midi.NoteOnEvent(tick=2631400, channel=0, data=[0, 100]),
   midi.NoteOffEvent(tick=2631500, channel=0, data=[0, 0]),
   midi.NoteOnEvent(tick=2631600, channel=0, data=[8, 100]),
   midi.NoteOffEvent(tick=2631700, channel=0, data=[8, 0]),
   midi.NoteOnEvent(tick=2631800, channel=0, data=[13, 100]),
   midi.NoteOffEvent(tick=2631900, channel=0, data=[13, 0]),
   midi.NoteOnEvent(tick=2632000, channel=0, data=[18, 100]),
   midi.NoteOffEvent(tick=2632100, channel=0, data=[18, 0]),
   midi.NoteOnEvent(tick=2632200, channel=0, data=[36, 100]),
   midi.NoteOffEvent(tick=2632300, channel=0, data=[36, 0]),
   midi.NoteOnEvent(tick=2632400, channel=0, data=[0, 100]),
   midi.NoteOffEvent(tick=2632500, channel=0, data=[0, 0]),
   midi.NoteOnEvent(tick=2632600, channel=0, data=[36, 100]),
   midi.NoteOffEvent(tick=2632700, channel=0, data=[36, 0]),
   midi.NoteOnEvent(tick=2632800, channel=0, data=[18, 100]),
   midi.NoteOffEvent(tick=2632900, channel=0, data=[18, 0]),
   midi.NoteOnEvent(tick=2633000, channel=0, data=[19, 100]),
   midi.NoteOffEvent(tick=2633100, channel=0, data=[19, 0]),
   midi.NoteOnEvent(tick=2633200, channel=0, data=[17, 100]),
   midi.NoteOffEvent(tick=2633300, channel=0, data=[17, 0]),
   midi.NoteOnEvent(tick=2633400, channel=0, data=[8, 100]),
   midi.NoteOffEvent(tick=2633500, channel=0, data=[8, 0]),
   midi.NoteOnEvent(tick=2633600, channel=0, data=[13, 100]),
   midi.NoteOffEvent(tick=2633700, channel=0, data=[13, 0]),
   midi.NoteOnEvent(tick=2633800, channel=0, data=[6, 100]),
   midi.NoteOffEvent(tick=2633900, channel=0, data=[6, 0]),
   midi.NoteOnEvent(tick=2634000, channel=0, data=[36, 100]),
   midi.NoteOffEvent(tick=2634100, channel=0, data=[36, 0]),
   midi.NoteOnEvent(tick=2634200, channel=0, data=[21, 100]),
   midi.NoteOffEvent(tick=2634300, channel=0, data=[21, 0]),
   midi.NoteOnEvent(tick=2634400, channel=0, data=[0, 100]),
   midi.NoteOffEvent(tick=2634500, channel=0, data=[0, 0]),
   midi.NoteOnEvent(tick=2634600, channel=0, data=[17, 100]),
   midi.NoteOffEvent(tick=2634700, channel=0, data=[17, 0]),
   midi.NoteOnEvent(tick=2634800, channel=0, data=[8, 100]),
   midi.NoteOffEvent(tick=2634900, channel=0, data=[8, 0]),
   midi.NoteOnEvent(tick=2635000, channel=0, data=[0, 100]),
   midi.NoteOffEvent(tick=2635100, channel=0, data=[0, 0]),
   midi.NoteOnEvent(tick=2635200, channel=0, data=[1, 100]),
   midi.NoteOffEvent(tick=2635300, channel=0, data=[1, 0]),
   midi.NoteOnEvent(tick=2635400, channel=0, data=[11, 100]),
   midi.NoteOffEvent(tick=2635500, channel=0, data=[11, 0]),
   midi.NoteOnEvent(tick=2635600, channel=0, data=[4, 100]),
   midi.NoteOffEvent(tick=2635700, channel=0, data=[4, 0]),
   midi.NoteOnEvent(tick=2635800, channel=0, data=[36, 100]),
   midi.NoteOffEvent(tick=2635900, channel=0, data=[36, 0]),
   midi.NoteOnEvent(tick=2636000, channel=0, data=[14, 100]),
   midi.NoteOffEvent(tick=2636100, channel=0, data=[14, 0]),
   midi.NoteOnEvent(tick=2636200, channel=0, data=[17, 100]),
   midi.NoteOffEvent(tick=2636300, channel=0, data=[17, 0]),
   midi.NoteOnEvent(tick=2636400, channel=0, data=[36, 100]),
   midi.NoteOffEvent(tick=2636500, channel=0, data=[36, 0]),
   midi.NoteOnEvent(tick=2636600, channel=0, data=[0, 100]),
   midi.NoteOffEvent(tick=2636700, channel=0, data=[0, 0]),
   midi.NoteOnEvent(tick=2636800, channel=0, data=[13, 100]),
   midi.NoteOffEvent(tick=2636900, channel=0, data=[13, 0]),
   midi.NoteOnEvent(tick=2637000, channel=0, data=[36, 100]),
   midi.NoteOffEvent(tick=2637100, channel=0, data=[36, 0]),
   midi.NoteOnEvent(tick=2637200, channel=0, data=[0, 100]),
   midi.NoteOffEvent(tick=2637300, channel=0, data=[0, 0]),
   midi.NoteOnEvent(tick=2637400, channel=0, data=[17, 100]),
   midi.NoteOffEvent(tick=2637500, channel=0, data=[17, 0]),
   midi.NoteOnEvent(tick=2637600, channel=0, data=[17, 100]),
   midi.NoteOffEvent(tick=2637700, channel=0, data=[17, 0]),
   midi.NoteOnEvent(tick=2637800, channel=0, data=[0, 100]),
   midi.NoteOffEvent(tick=2637900, channel=0, data=[0, 0]),
   midi.NoteOnEvent(tick=2638000, channel=0, data=[24, 100]),
   midi.NoteOffEvent(tick=2638100, channel=0, data=[24, 0]),
   midi.NoteOnEvent(tick=2638200, channel=0, data=[37, 100]),
   midi.NoteOffEvent(tick=2638300, channel=0, data=[37, 0]),
   midi.NoteOnEvent(tick=2638400, channel=0, data=[56, 100]),
   midi.NoteOffEvent(tick=2638500, channel=0, data=[56, 0]),
   midi.NoteOnEvent(tick=2638600, channel=0, data=[56, 100]),
   midi.NoteOffEvent(tick=2638700, channel=0, data=[56, 0]),
   midi.NoteOnEvent(tick=2638800, channel=0, data=[56, 100]),
   midi.NoteOffEvent(tick=2638900, channel=0, data=[56, 0]),
   midi.NoteOnEvent(tick=2639000, channel=0, data=[36, 100]),
   midi.NoteOffEvent(tick=2639100, channel=0, data=[36, 0]),
   midi.NoteOnEvent(tick=2639200, channel=0, data=[36, 100]),
   midi.NoteOffEvent(tick=2639300, channel=0, data=[36, 0]),
   midi.NoteOnEvent(tick=2639400, channel=0, data=[36, 100]),
   midi.NoteOffEvent(tick=2639500, channel=0, data=[36, 0]),
   midi.NoteOnEvent(tick=2639600, channel=0, data=[36, 100]),
   midi.NoteOffEvent(tick=2639700, channel=0, data=[36, 0]),
   midi.NoteOnEvent(tick=2639800, channel=0, data=[19, 100]),
   midi.NoteOffEvent(tick=2639900, channel=0, data=[19, 0]),
   midi.NoteOnEvent(tick=2640000, channel=0, data=[7, 100]),
   midi.NoteOffEvent(tick=2640100, channel=0, data=[7, 0]),
   midi.NoteOnEvent(tick=2640200, channel=0, data=[4, 100]),
   midi.NoteOffEvent(tick=2640300, channel=0, data=[4, 0]),
   midi.NoteOnEvent(tick=2640400, channel=0, data=[36, 100]),
   midi.NoteOffEvent(tick=2640500, channel=0, data=[36, 0]),
   midi.NoteOnEvent(tick=2640600, channel=0, data=[71, 100]),
   midi.NoteOffEvent(tick=2640700, channel=0, data=[71, 0]),
   midi.NoteOnEvent(tick=2640800, channel=0, data=[69, 100]),
   midi.NoteOffEvent(tick=2640900, channel=0, data=[69, 0]),
   midi.NoteOnEvent(tick=2641000, channel=0, data=[36, 100]),
   midi.NoteOffEvent(tick=2641100, channel=0, data=[36, 0]),
   midi.NoteOnEvent(tick=2641200, channel=0, data=[14, 100]),
   midi.NoteOffEvent(tick=2641300, channel=0, data=[14, 0]),
   midi.NoteOnEvent(tick=2641400, channel=0, data=[15, 100]),
   midi.NoteOffEvent(tick=2641500, channel=0, data=[15, 0]),
   midi.NoteOnEvent(tick=2641600, channel=0, data=[4, 100]),
   midi.NoteOffEvent(tick=2641700, channel=0, data=[4, 0]),
   midi.NoteOnEvent(tick=2641800, channel=0, data=[17, 100]),
   midi.NoteOffEvent(tick=2641900, channel=0, data=[17, 0]),
   midi.NoteOnEvent(tick=2642000, channel=0, data=[0, 100]),
   midi.NoteOffEvent(tick=2642100, channel=0, data=[0, 0]),
   midi.NoteOnEvent(tick=2642200, channel=0, data=[19, 100]),
   midi.NoteOffEvent(tick=2642300, channel=0, data=[19, 0]),
   midi.NoteOnEvent(tick=2642400, channel=0, data=[14, 100]),
   midi.NoteOffEvent(tick=2642500, channel=0, data=[14, 0]),
   midi.NoteOnEvent(tick=2642600, channel=0, data=[17, 100]),
   midi.NoteOffEvent(tick=2642700, channel=0, data=[17, 0]),
   midi.NoteOnEvent(tick=2642800, channel=0, data=[36, 100]),
   midi.NoteOffEvent(tick=2642900, channel=0, data=[36, 0]),
   midi.NoteOnEvent(tick=2643000, channel=0, data=[2, 100]),
   midi.NoteOffEvent(tick=2643100, channel=0, data=[2, 0]),
   midi.NoteOnEvent(tick=2643200, channel=0, data=[14, 100]),
   midi.NoteOffEvent(tick=2643300, channel=0, data=[14, 0]),
   midi.NoteOnEvent(tick=2643400, channel=0, data=[12, 100]),
   midi.NoteOffEvent(tick=2643500, channel=0, data=[12, 0]),
   midi.NoteOnEvent(tick=2643600, channel=0, data=[1, 100]),
   midi.NoteOffEvent(tick=2643700, channel=0, data=[1, 0]),
   midi.NoteOnEvent(tick=2643800, channel=0, data=[8, 100]),
   midi.NoteOffEvent(tick=2643900, channel=0, data=[8, 0]),
   midi.NoteOnEvent(tick=2644000, channel=0, data=[13, 100]),
   midi.NoteOffEvent(tick=2644100, channel=0, data=[13, 0]),
   midi.NoteOnEvent(tick=2644200, channel=0, data=[4, 100]),
   midi.NoteOffEvent(tick=2644300, channel=0, data=[4, 0]),
   midi.NoteOnEvent(tick=2644400, channel=0, data=[18, 100]),
   midi.NoteOffEvent(tick=2644500, channel=0, data=[18, 0]),
   midi.NoteOnEvent(tick=2644600, channel=0, data=[36, 100]),
   midi.NoteOffEvent(tick=2644700, channel=0, data=[36, 0]),
   midi.NoteOnEvent(tick=2644800, channel=0, data=[19, 100]),
   midi.NoteOffEvent(tick=2644900, channel=0, data=[19, 0]),
   midi.NoteOnEvent(tick=2645000, channel=0, data=[22, 100]),
   midi.NoteOffEvent(tick=2645100, channel=0, data=[22, 0]),
   midi.NoteOnEvent(tick=2645200, channel=0, data=[14, 100]),
   midi.NoteOffEvent(tick=2645300, channel=0, data=[14, 0]),
   midi.NoteOnEvent(tick=2645400, channel=0, data=[36, 100]),
   midi.NoteOffEvent(tick=2645500, channel=0, data=[36, 0]),
   midi.NoteOnEvent(tick=2645600, channel=0, data=[14, 100]),
   midi.NoteOffEvent(tick=2645700, channel=0, data=[14, 0]),
   midi.NoteOnEvent(tick=2645800, channel=0, data=[15, 100]),
   midi.NoteOffEvent(tick=2645900, channel=0, data=[15, 0]),
   midi.NoteOnEvent(tick=2646000, channel=0, data=[4, 100]),
   midi.NoteOffEvent(tick=2646100, channel=0, data=[4, 0]),
   midi.NoteOnEvent(tick=2646200, channel=0, data=[17, 100]),
   midi.NoteOffEvent(tick=2646300, channel=0, data=[17, 0]),
   midi.NoteOnEvent(tick=2646400, channel=0, data=[0, 100]),
   midi.NoteOffEvent(tick=2646500, channel=0, data=[0, 0]),
   midi.NoteOnEvent(tick=2646600, channel=0, data=[19, 100]),
   midi.NoteOffEvent(tick=2646700, channel=0, data=[19, 0]),
   midi.NoteOnEvent(tick=2646800, channel=0, data=[8, 100]),
   midi.NoteOffEvent(tick=2646900, channel=0, data=[8, 0]),
   midi.NoteOnEvent(tick=2647000, channel=0, data=[14, 100]),
   midi.NoteOffEvent(tick=2647100, channel=0, data=[14, 0]),
   midi.NoteOnEvent(tick=2647200, channel=0, data=[13, 100]),
   midi.NoteOffEvent(tick=2647300, channel=0, data=[13, 0]),
   midi.NoteOnEvent(tick=2647400, channel=0, data=[18, 100]),
   midi.NoteOffEvent(tick=2647500, channel=0, data=[18, 0]),
   midi.NoteOnEvent(tick=2647600, channel=0, data=[37, 100]),
   midi.NoteOffEvent(tick=2647700, channel=0, data=[37, 0]),
   midi.NoteOnEvent(tick=2647800, channel=0, data=[36, 100]),
   midi.NoteOffEvent(tick=2647900, channel=0, data=[36, 0]),
   midi.NoteOnEvent(tick=2648000, channel=0, data=[5, 100]),
   midi.NoteOffEvent(tick=2648100, channel=0, data=[5, 0]),
   midi.NoteOnEvent(tick=2648200, channel=0, data=[8, 100]),
   midi.NoteOffEvent(tick=2648300, channel=0, data=[8, 0]),
   midi.NoteOnEvent(tick=2648400, channel=0, data=[17, 100]),
   midi.NoteOffEvent(tick=2648500, channel=0, data=[17, 0]),
   midi.NoteOnEvent(tick=2648600, channel=0, data=[18, 100]),
   midi.NoteOffEvent(tick=2648700, channel=0, data=[18, 0]),
   midi.NoteOnEvent(tick=2648800, channel=0, data=[19, 100]),
   midi.NoteOffEvent(tick=2648900, channel=0, data=[19, 0]),
   midi.NoteOnEvent(tick=2649000, channel=0, data=[38, 100]),
   midi.NoteOffEvent(tick=2649100, channel=0, data=[38, 0]),
   midi.NoteOnEvent(tick=2649200, channel=0, data=[36, 100]),
   midi.NoteOffEvent(tick=2649300, channel=0, data=[36, 0]),
   midi.NoteOnEvent(tick=2649400, channel=0, data=[8, 100]),
   midi.NoteOffEvent(tick=2649500, channel=0, data=[8, 0]),
   midi.NoteOnEvent(tick=2649600, channel=0, data=[19, 100]),
   midi.NoteOffEvent(tick=2649700, channel=0, data=[19, 0]),
   midi.NoteOnEvent(tick=2649800, channel=0, data=[36, 100]),
   midi.NoteOffEvent(tick=2649900, channel=0, data=[36, 0]),
   midi.NoteOnEvent(tick=2650000, channel=0, data=[3, 100]),
   midi.NoteOffEvent(tick=2650100, channel=0, data=[3, 0]),
   midi.NoteOnEvent(tick=2650200, channel=0, data=[8, 100]),
   midi.NoteOffEvent(tick=2650300, channel=0, data=[8, 0]),
   midi.NoteOnEvent(tick=2650400, channel=0, data=[21, 100]),
   midi.NoteOffEvent(tick=2650500, channel=0, data=[21, 0]),
   midi.NoteOnEvent(tick=2650600, channel=0, data=[8, 100]),
   midi.NoteOffEvent(tick=2650700, channel=0, data=[8, 0]),
   midi.NoteOnEvent(tick=2650800, channel=0, data=[3, 100]),
   midi.NoteOffEvent(tick=2650900, channel=0, data=[3, 0]),
   midi.NoteOnEvent(tick=2651000, channel=0, data=[4, 100]),
   midi.NoteOffEvent(tick=2651100, channel=0, data=[4, 0]),
   midi.NoteOnEvent(tick=2651200, channel=0, data=[18, 100]),
   midi.NoteOffEvent(tick=2651300, channel=0, data=[18, 0]),
   midi.NoteOnEvent(tick=2651400, channel=0, data=[36, 100]),
   midi.NoteOffEvent(tick=2651500, channel=0, data=[36, 0]),
   midi.NoteOnEvent(tick=2651600, channel=0, data=[0, 100]),
   midi.NoteOffEvent(tick=2651700, channel=0, data=[0, 0]),
   midi.NoteOnEvent(tick=2651800, channel=0, data=[13, 100]),
   midi.NoteOffEvent(tick=2651900, channel=0, data=[13, 0]),
   midi.NoteOnEvent(tick=2652000, channel=0, data=[3, 100]),
   midi.NoteOffEvent(tick=2652100, channel=0, data=[3, 0]),
   midi.NoteOnEvent(tick=2652200, channel=0, data=[36, 100]),
   midi.NoteOffEvent(tick=2652300, channel=0, data=[36, 0]),
   midi.NoteOnEvent(tick=2652400, channel=0, data=[3, 100]),
   midi.NoteOffEvent(tick=2652500, channel=0, data=[3, 0]),
   midi.NoteOnEvent(tick=2652600, channel=0, data=[4, 100]),
   midi.NoteOffEvent(tick=2652700, channel=0, data=[4, 0]),
   midi.NoteOnEvent(tick=2652800, channel=0, data=[19, 100]),
   midi.NoteOffEvent(tick=2652900, channel=0, data=[19, 0]),
   midi.NoteOnEvent(tick=2653000, channel=0, data=[4, 100]),
   midi.NoteOffEvent(tick=2653100, channel=0, data=[4, 0]),
   midi.NoteOnEvent(tick=2653200, channel=0, data=[17, 100]),
   midi.NoteOffEvent(tick=2653300, channel=0, data=[17, 0]),
   midi.NoteOnEvent(tick=2653400, channel=0, data=[12, 100]),
   midi.NoteOffEvent(tick=2653500, channel=0, data=[12, 0]),
   midi.NoteOnEvent(tick=2653600, channel=0, data=[8, 100]),
   midi.NoteOffEvent(tick=2653700, channel=0, data=[8, 0]),
   midi.NoteOnEvent(tick=2653800, channel=0, data=[13, 100]),
   midi.NoteOffEvent(tick=2653900, channel=0, data=[13, 0]),
   midi.NoteOnEvent(tick=2654000, channel=0, data=[4, 100]),
   midi.NoteOffEvent(tick=2654100, channel=0, data=[4, 0]),
   midi.NoteOnEvent(tick=2654200, channel=0, data=[18, 100]),
   midi.NoteOffEvent(tick=2654300, channel=0, data=[18, 0]),
   midi.NoteOnEvent(tick=2654400, channel=0, data=[36, 100]),
   midi.NoteOffEvent(tick=2654500, channel=0, data=[36, 0]),
   midi.NoteOnEvent(tick=2654600, channel=0, data=[56, 100]),
   midi.NoteOffEvent(tick=2654700, channel=0, data=[56, 0]),
   midi.NoteOnEvent(tick=2654800, channel=0, data=[36, 100]),
   midi.NoteOffEvent(tick=2654900, channel=0, data=[36, 0]),
   midi.NoteOnEvent(tick=2655000, channel=0, data=[36, 100]),
   midi.NoteOffEvent(tick=2655100, channel=0, data=[36, 0]),
   midi.NoteOnEvent(tick=2655200, channel=0, data=[36, 100]),
   midi.NoteOffEvent(tick=2655300, channel=0, data=[36, 0]),
   midi.NoteOnEvent(tick=2655400, channel=0, data=[36, 100]),
   midi.NoteOffEvent(tick=2655500, channel=0, data=[36, 0]),
   midi.NoteOnEvent(tick=2655600, channel=0, data=[19, 100]),
   midi.NoteOffEvent(tick=2655700, channel=0, data=[19, 0]),
   midi.NoteOnEvent(tick=2655800, channel=0, data=[7, 100]),
   midi.NoteOffEvent(tick=2655900, channel=0, data=[7, 0]),
   midi.NoteOnEvent(tick=2656000, channel=0, data=[4, 100]),
   midi.NoteOffEvent(tick=2656100, channel=0, data=[4, 0]),
   midi.NoteOnEvent(tick=2656200, channel=0, data=[36, 100]),
   midi.NoteOffEvent(tick=2656300, channel=0, data=[36, 0]),
   midi.NoteOnEvent(tick=2656400, channel=0, data=[17, 100]),
   midi.NoteOffEvent(tick=2656500, channel=0, data=[17, 0]),
   midi.NoteOnEvent(tick=2656600, channel=0, data=[4, 100]),
   midi.NoteOffEvent(tick=2656700, channel=0, data=[4, 0]),
   midi.NoteOnEvent(tick=2656800, channel=0, data=[12, 100]),
   midi.NoteOffEvent(tick=2656900, channel=0, data=[12, 0]),
   midi.NoteOnEvent(tick=2657000, channel=0, data=[0, 100]),
   midi.NoteOffEvent(tick=2657100, channel=0, data=[0, 0]),
   midi.NoteOnEvent(tick=2657200, channel=0, data=[8, 100]),
   midi.NoteOffEvent(tick=2657300, channel=0, data=[8, 0]),
   midi.NoteOnEvent(tick=2657400, channel=0, data=[13, 100]),
   midi.NoteOffEvent(tick=2657500, channel=0, data=[13, 0]),
   midi.NoteOnEvent(tick=2657600, channel=0, data=[3, 100]),
   midi.NoteOffEvent(tick=2657700, channel=0, data=[3, 0]),
   midi.NoteOnEvent(tick=2657800, channel=0, data=[4, 100]),
   midi.NoteOffEvent(tick=2657900, channel=0, data=[4, 0]),
   midi.NoteOnEvent(tick=2658000, channel=0, data=[17, 100]),
   midi.NoteOffEvent(tick=2658100, channel=0, data=[17, 0]),
   midi.NoteOnEvent(tick=2658200, channel=0, data=[38, 100]),
   midi.NoteOffEvent(tick=2658300, channel=0, data=[38, 0]),
   midi.NoteOnEvent(tick=2658400, channel=0, data=[36, 100]),
   midi.NoteOffEvent(tick=2658500, channel=0, data=[36, 0]),
   midi.NoteOnEvent(tick=2658600, channel=0, data=[0, 100]),
   midi.NoteOffEvent(tick=2658700, channel=0, data=[0, 0]),
   midi.NoteOnEvent(tick=2658800, channel=0, data=[13, 100]),
   midi.NoteOffEvent(tick=2658900, channel=0, data=[13, 0]),
   midi.NoteOnEvent(tick=2659000, channel=0, data=[3, 100]),
   midi.NoteOffEvent(tick=2659100, channel=0, data=[3, 0]),
   midi.NoteOnEvent(tick=2659200, channel=0, data=[36, 100]),
   midi.NoteOffEvent(tick=2659300, channel=0, data=[36, 0]),
   midi.NoteOnEvent(tick=2659400, channel=0, data=[19, 100]),
   midi.NoteOffEvent(tick=2659500, channel=0, data=[19, 0]),
   midi.NoteOnEvent(tick=2659600, channel=0, data=[7, 100]),
   midi.NoteOffEvent(tick=2659700, channel=0, data=[7, 0]),
   midi.NoteOnEvent(tick=2659800, channel=0, data=[4, 100]),
   midi.NoteOffEvent(tick=2659900, channel=0, data=[4, 0]),
   midi.NoteOnEvent(tick=2660000, channel=0, data=[13, 100]),
   midi.NoteOffEvent(tick=2660100, channel=0, data=[13, 0]),
   midi.NoteOnEvent(tick=2660200, channel=0, data=[36, 100]),
   midi.NoteOffEvent(tick=2660300, channel=0, data=[36, 0]),
   midi.NoteOnEvent(tick=2660400, channel=0, data=[8, 100]),
   midi.NoteOffEvent(tick=2660500, channel=0, data=[8, 0]),
   midi.NoteOnEvent(tick=2660600, channel=0, data=[19, 100]),
   midi.NoteOffEvent(tick=2660700, channel=0, data=[19, 0]),
   midi.NoteOnEvent(tick=2660800, channel=0, data=[36, 100]),
   midi.NoteOffEvent(tick=2660900, channel=0, data=[36, 0]),
   midi.NoteOnEvent(tick=2661000, channel=0, data=[0, 100]),
   midi.NoteOffEvent(tick=2661100, channel=0, data=[0, 0]),
   midi.NoteOnEvent(tick=2661200, channel=0, data=[18, 100]),
   midi.NoteOffEvent(tick=2661300, channel=0, data=[18, 0]),
   midi.NoteOnEvent(tick=2661400, channel=0, data=[18, 100]),
   midi.NoteOffEvent(tick=2661500, channel=0, data=[18, 0]),
   midi.NoteOnEvent(tick=2661600, channel=0, data=[8, 100]),
   midi.NoteOffEvent(tick=2661700, channel=0, data=[8, 0]),
   midi.NoteOnEvent(tick=2661800, channel=0, data=[6, 100]),
   midi.NoteOffEvent(tick=2661900, channel=0, data=[6, 0]),
   midi.NoteOnEvent(tick=2662000, channel=0, data=[13, 100]),
   midi.NoteOffEvent(tick=2662100, channel=0, data=[13, 0]),
   midi.NoteOnEvent(tick=2662200, channel=0, data=[18, 100]),
   midi.NoteOffEvent(tick=2662300, channel=0, data=[18, 0]),
   midi.NoteOnEvent(tick=2662400, channel=0, data=[36, 100]),
   midi.NoteOffEvent(tick=2662500, channel=0, data=[36, 0]),
   midi.NoteOnEvent(tick=2662600, channel=0, data=[19, 100]),
   midi.NoteOffEvent(tick=2662700, channel=0, data=[19, 0]),
   midi.NoteOnEvent(tick=2662800, channel=0, data=[7, 100]),
   midi.NoteOffEvent(tick=2662900, channel=0, data=[7, 0]),
   midi.NoteOnEvent(tick=2663000, channel=0, data=[4, 100]),
   midi.NoteOffEvent(tick=2663100, channel=0, data=[4, 0]),
   midi.NoteOnEvent(tick=2663200, channel=0, data=[36, 100]),
   midi.NoteOffEvent(tick=2663300, channel=0, data=[36, 0]),
   midi.NoteOnEvent(tick=2663400, channel=0, data=[17, 100]),
   midi.NoteOffEvent(tick=2663500, channel=0, data=[17, 0]),
   midi.NoteOnEvent(tick=2663600, channel=0, data=[4, 100]),
   midi.NoteOffEvent(tick=2663700, channel=0, data=[4, 0]),
   midi.NoteOnEvent(tick=2663800, channel=0, data=[12, 100]),
   midi.NoteOffEvent(tick=2663900, channel=0, data=[12, 0]),
   midi.NoteOnEvent(tick=2664000, channel=0, data=[0, 100]),
   midi.NoteOffEvent(tick=2664100, channel=0, data=[0, 0]),
   midi.NoteOnEvent(tick=2664200, channel=0, data=[8, 100]),
   midi.NoteOffEvent(tick=2664300, channel=0, data=[8, 0]),
   midi.NoteOnEvent(tick=2664400, channel=0, data=[13, 100]),
   midi.NoteOffEvent(tick=2664500, channel=0, data=[13, 0]),
   midi.NoteOnEvent(tick=2664600, channel=0, data=[3, 100]),
   midi.NoteOffEvent(tick=2664700, channel=0, data=[3, 0]),
   midi.NoteOnEvent(tick=2664800, channel=0, data=[4, 100]),
   midi.NoteOffEvent(tick=2664900, channel=0, data=[4, 0]),
   midi.NoteOnEvent(tick=2665000, channel=0, data=[17, 100]),
   midi.NoteOffEvent(tick=2665100, channel=0, data=[17, 0]),
   midi.NoteOnEvent(tick=2665200, channel=0, data=[36, 100]),
   midi.NoteOffEvent(tick=2665300, channel=0, data=[36, 0]),
   midi.NoteOnEvent(tick=2665400, channel=0, data=[19, 100]),
   midi.NoteOffEvent(tick=2665500, channel=0, data=[19, 0]),
   midi.NoteOnEvent(tick=2665600, channel=0, data=[14, 100]),
   midi.NoteOffEvent(tick=2665700, channel=0, data=[14, 0]),
   midi.NoteOnEvent(tick=2665800, channel=0, data=[36, 100]),
   midi.NoteOffEvent(tick=2665900, channel=0, data=[36, 0]),
   midi.NoteOnEvent(tick=2666000, channel=0, data=[19, 100]),
   midi.NoteOffEvent(tick=2666100, channel=0, data=[19, 0]),
   midi.NoteOnEvent(tick=2666200, channel=0, data=[7, 100]),
   midi.NoteOffEvent(tick=2666300, channel=0, data=[7, 0]),
   midi.NoteOnEvent(tick=2666400, channel=0, data=[4, 100]),
   midi.NoteOffEvent(tick=2666500, channel=0, data=[4, 0]),
   midi.NoteOnEvent(tick=2666600, channel=0, data=[36, 100]),
   midi.NoteOffEvent(tick=2666700, channel=0, data=[36, 0]),
   midi.NoteOnEvent(tick=2666800, channel=0, data=[21, 100]),
   midi.NoteOffEvent(tick=2666900, channel=0, data=[21, 0]),
   midi.NoteOnEvent(tick=2667000, channel=0, data=[0, 100]),
   midi.NoteOffEvent(tick=2667100, channel=0, data=[0, 0]),
   midi.NoteOnEvent(tick=2667200, channel=0, data=[17, 100]),
   midi.NoteOffEvent(tick=2667300, channel=0, data=[17, 0]),
   midi.NoteOnEvent(tick=2667400, channel=0, data=[8, 100]),
   midi.NoteOffEvent(tick=2667500, channel=0, data=[8, 0]),
   midi.NoteOnEvent(tick=2667600, channel=0, data=[0, 100]),
   midi.NoteOffEvent(tick=2667700, channel=0, data=[0, 0]),
   midi.NoteOnEvent(tick=2667800, channel=0, data=[1, 100]),
   midi.NoteOffEvent(tick=2667900, channel=0, data=[1, 0]),
   midi.NoteOnEvent(tick=2668000, channel=0, data=[11, 100]),
   midi.NoteOffEvent(tick=2668100, channel=0, data=[11, 0]),
   midi.NoteOnEvent(tick=2668200, channel=0, data=[4, 100]),
   midi.NoteOffEvent(tick=2668300, channel=0, data=[4, 0]),
   midi.NoteOnEvent(tick=2668400, channel=0, data=[37, 100]),
   midi.NoteOffEvent(tick=2668500, channel=0, data=[37, 0]),
   midi.NoteOnEvent(tick=2668600, channel=0, data=[36, 100]),
   midi.NoteOffEvent(tick=2668700, channel=0, data=[36, 0]),
   midi.NoteOnEvent(tick=2668800, channel=0, data=[56, 100]),
   midi.NoteOffEvent(tick=2668900, channel=0, data=[56, 0]),
   midi.NoteOnEvent(tick=2669000, channel=0, data=[36, 100]),
   midi.NoteOffEvent(tick=2669100, channel=0, data=[36, 0]),
   midi.NoteOnEvent(tick=2669200, channel=0, data=[36, 100]),
   midi.NoteOffEvent(tick=2669300, channel=0, data=[36, 0]),
   midi.NoteOnEvent(tick=2669400, channel=0, data=[36, 100]),
   midi.NoteOffEvent(tick=2669500, channel=0, data=[36, 0]),
   midi.NoteOnEvent(tick=2669600, channel=0, data=[36, 100]),
   midi.NoteOffEvent(tick=2669700, channel=0, data=[36, 0]),
   midi.NoteOnEvent(tick=2669800, channel=0, data=[19, 100]),
   midi.NoteOffEvent(tick=2669900, channel=0, data=[19, 0]),
   midi.NoteOnEvent(tick=2670000, channel=0, data=[7, 100]),
   midi.NoteOffEvent(tick=2670100, channel=0, data=[7, 0]),
   midi.NoteOnEvent(tick=2670200, channel=0, data=[4, 100]),
   midi.NoteOffEvent(tick=2670300, channel=0, data=[4, 0]),
   midi.NoteOnEvent(tick=2670400, channel=0, data=[17, 100]),
   midi.NoteOffEvent(tick=2670500, channel=0, data=[17, 0]),
   midi.NoteOnEvent(tick=2670600, channel=0, data=[4, 100]),
   midi.NoteOffEvent(tick=2670700, channel=0, data=[4, 0]),
   midi.NoteOnEvent(tick=2670800, channel=0, data=[5, 100]),
   midi.NoteOffEvent(tick=2670900, channel=0, data=[5, 0]),
   midi.NoteOnEvent(tick=2671000, channel=0, data=[14, 100]),
   midi.NoteOffEvent(tick=2671100, channel=0, data=[14, 0]),
   midi.NoteOnEvent(tick=2671200, channel=0, data=[17, 100]),
   midi.NoteOffEvent(tick=2671300, channel=0, data=[17, 0]),
   midi.NoteOnEvent(tick=2671400, channel=0, data=[4, 100]),
   midi.NoteOffEvent(tick=2671500, channel=0, data=[4, 0]),
   midi.NoteOnEvent(tick=2671600, channel=0, data=[38, 100]),
   midi.NoteOffEvent(tick=2671700, channel=0, data=[38, 0]),
   midi.NoteOnEvent(tick=2671800, channel=0, data=[36, 100]),
   midi.NoteOffEvent(tick=2671900, channel=0, data=[36, 0]),
   midi.NoteOnEvent(tick=2672000, channel=0, data=[19, 100]),
   midi.NoteOffEvent(tick=2672100, channel=0, data=[19, 0]),
   midi.NoteOnEvent(tick=2672200, channel=0, data=[7, 100]),
   midi.NoteOffEvent(tick=2672300, channel=0, data=[7, 0]),
   midi.NoteOnEvent(tick=2672400, channel=0, data=[4, 100]),
   midi.NoteOffEvent(tick=2672500, channel=0, data=[4, 0]),
   midi.NoteOnEvent(tick=2672600, channel=0, data=[36, 100]),
   midi.NoteOffEvent(tick=2672700, channel=0, data=[36, 0]),
   midi.NoteOnEvent(tick=2672800, channel=0, data=[5, 100]),
   midi.NoteOffEvent(tick=2672900, channel=0, data=[5, 0]),
   midi.NoteOnEvent(tick=2673000, channel=0, data=[14, 100]),
   midi.NoteOffEvent(tick=2673100, channel=0, data=[14, 0]),
   midi.NoteOnEvent(tick=2673200, channel=0, data=[11, 100]),
   midi.NoteOffEvent(tick=2673300, channel=0, data=[11, 0]),
   midi.NoteOnEvent(tick=2673400, channel=0, data=[11, 100]),
   midi.NoteOffEvent(tick=2673500, channel=0, data=[11, 0]),
   midi.NoteOnEvent(tick=2673600, channel=0, data=[14, 100]),
   midi.NoteOffEvent(tick=2673700, channel=0, data=[14, 0]),
   midi.NoteOnEvent(tick=2673800, channel=0, data=[22, 100]),
   midi.NoteOffEvent(tick=2673900, channel=0, data=[22, 0]),
   midi.NoteOnEvent(tick=2674000, channel=0, data=[8, 100]),
   midi.NoteOffEvent(tick=2674100, channel=0, data=[8, 0]),
   midi.NoteOnEvent(tick=2674200, channel=0, data=[13, 100]),
   midi.NoteOffEvent(tick=2674300, channel=0, data=[13, 0]),
   midi.NoteOnEvent(tick=2674400, channel=0, data=[6, 100]),
   midi.NoteOffEvent(tick=2674500, channel=0, data=[6, 0]),
   midi.NoteOnEvent(tick=2674600, channel=0, data=[36, 100]),
   midi.NoteOffEvent(tick=2674700, channel=0, data=[36, 0]),
   midi.NoteOnEvent(tick=2674800, channel=0, data=[18, 100]),
   midi.NoteOffEvent(tick=2674900, channel=0, data=[18, 0]),
   midi.NoteOnEvent(tick=2675000, channel=0, data=[19, 100]),
   midi.NoteOffEvent(tick=2675100, channel=0, data=[19, 0]),
   midi.NoteOnEvent(tick=2675200, channel=0, data=[0, 100]),
   midi.NoteOffEvent(tick=2675300, channel=0, data=[0, 0]),
   midi.NoteOnEvent(tick=2675400, channel=0, data=[19, 100]),
   midi.NoteOffEvent(tick=2675500, channel=0, data=[19, 0]),
   midi.NoteOnEvent(tick=2675600, channel=0, data=[4, 100]),
   midi.NoteOffEvent(tick=2675700, channel=0, data=[4, 0]),
   midi.NoteOnEvent(tick=2675800, channel=0, data=[12, 100]),
   midi.NoteOffEvent(tick=2675900, channel=0, data=[12, 0]),
   midi.NoteOnEvent(tick=2676000, channel=0, data=[4, 100]),
   midi.NoteOffEvent(tick=2676100, channel=0, data=[4, 0]),
   midi.NoteOnEvent(tick=2676200, channel=0, data=[13, 100]),
   midi.NoteOffEvent(tick=2676300, channel=0, data=[13, 0]),
   midi.NoteOnEvent(tick=2676400, channel=0, data=[19, 100]),
   midi.NoteOffEvent(tick=2676500, channel=0, data=[19, 0]),
   midi.NoteOnEvent(tick=2676600, channel=0, data=[18, 100]),
   midi.NoteOffEvent(tick=2676700, channel=0, data=[18, 0]),
   midi.NoteOnEvent(tick=2676800, channel=0, data=[36, 100]),
   midi.NoteOffEvent(tick=2676900, channel=0, data=[36, 0]),
   midi.NoteOnEvent(tick=2677000, channel=0, data=[0, 100]),
   midi.NoteOffEvent(tick=2677100, channel=0, data=[0, 0]),
   midi.NoteOnEvent(tick=2677200, channel=0, data=[17, 100]),
   midi.NoteOffEvent(tick=2677300, channel=0, data=[17, 0]),
   midi.NoteOnEvent(tick=2677400, channel=0, data=[4, 100]),
   midi.NoteOffEvent(tick=2677500, channel=0, data=[4, 0]),
   midi.NoteOnEvent(tick=2677600, channel=0, data=[36, 100]),
   midi.NoteOffEvent(tick=2677700, channel=0, data=[36, 0]),
   midi.NoteOnEvent(tick=2677800, channel=0, data=[4, 100]),
   midi.NoteOffEvent(tick=2677900, channel=0, data=[4, 0]),
   midi.NoteOnEvent(tick=2678000, channel=0, data=[16, 100]),
   midi.NoteOffEvent(tick=2678100, channel=0, data=[16, 0]),
   midi.NoteOnEvent(tick=2678200, channel=0, data=[20, 100]),
   midi.NoteOffEvent(tick=2678300, channel=0, data=[20, 0]),
   midi.NoteOnEvent(tick=2678400, channel=0, data=[8, 100]),
   midi.NoteOffEvent(tick=2678500, channel=0, data=[8, 0]),
   midi.NoteOnEvent(tick=2678600, channel=0, data=[21, 100]),
   midi.NoteOffEvent(tick=2678700, channel=0, data=[21, 0]),
   midi.NoteOnEvent(tick=2678800, channel=0, data=[0, 100]),
   midi.NoteOffEvent(tick=2678900, channel=0, data=[0, 0]),
   midi.NoteOnEvent(tick=2679000, channel=0, data=[11, 100]),
   midi.NoteOffEvent(tick=2679100, channel=0, data=[11, 0]),
   midi.NoteOnEvent(tick=2679200, channel=0, data=[4, 100]),
   midi.NoteOffEvent(tick=2679300, channel=0, data=[4, 0]),
   midi.NoteOnEvent(tick=2679400, channel=0, data=[13, 100]),
   midi.NoteOffEvent(tick=2679500, channel=0, data=[13, 0]),
   midi.NoteOnEvent(tick=2679600, channel=0, data=[19, 100]),
   midi.NoteOffEvent(tick=2679700, channel=0, data=[19, 0]),
   midi.NoteOnEvent(tick=2679800, channel=0, data=[46, 100]),
   midi.NoteOffEvent(tick=2679900, channel=0, data=[46, 0]),
   midi.NoteOnEvent(tick=2680000, channel=0, data=[56, 100]),
   midi.NoteOffEvent(tick=2680100, channel=0, data=[56, 0]),
   midi.NoteOnEvent(tick=2680200, channel=0, data=[56, 100]),
   midi.NoteOffEvent(tick=2680300, channel=0, data=[56, 0]),
   midi.NoteOnEvent(tick=2680400, channel=0, data=[56, 100]),
   midi.NoteOffEvent(tick=2680500, channel=0, data=[56, 0]),
   midi.NoteOnEvent(tick=2680600, channel=0, data=[36, 100]),
   midi.NoteOffEvent(tick=2680700, channel=0, data=[36, 0]),
   midi.NoteOnEvent(tick=2680800, channel=0, data=[36, 100]),
   midi.NoteOffEvent(tick=2680900, channel=0, data=[36, 0]),
   midi.NoteOnEvent(tick=2681000, channel=0, data=[36, 100]),
   midi.NoteOffEvent(tick=2681100, channel=0, data=[36, 0]),
   midi.NoteOnEvent(tick=2681200, channel=0, data=[36, 100]),
   midi.NoteOffEvent(tick=2681300, channel=0, data=[36, 0]),
   midi.NoteOnEvent(tick=2681400, channel=0, data=[36, 100]),
   midi.NoteOffEvent(tick=2681500, channel=0, data=[36, 0]),
   midi.NoteOnEvent(tick=2681600, channel=0, data=[36, 100]),
   midi.NoteOffEvent(tick=2681700, channel=0, data=[36, 0]),
   midi.NoteOnEvent(tick=2681800, channel=0, data=[36, 100]),
   midi.NoteOffEvent(tick=2681900, channel=0, data=[36, 0]),
   midi.NoteOnEvent(tick=2682000, channel=0, data=[36, 100]),
   midi.NoteOffEvent(tick=2682100, channel=0, data=[36, 0]),
   midi.NoteOnEvent(tick=2682200, channel=0, data=[74, 100]),
   midi.NoteOffEvent(tick=2682300, channel=0, data=[74, 0]),
   midi.NoteOnEvent(tick=2682400, channel=0, data=[0, 100]),
   midi.NoteOffEvent(tick=2682500, channel=0, data=[0, 0]),
   midi.NoteOnEvent(tick=2682600, channel=0, data=[36, 100]),
   midi.NoteOffEvent(tick=2682700, channel=0, data=[36, 0]),
   midi.NoteOnEvent(tick=2682800, channel=0, data=[71, 100]),
   midi.NoteOffEvent(tick=2682900, channel=0, data=[71, 0]),
   midi.NoteOnEvent(tick=2683000, channel=0, data=[69, 100]),
   midi.NoteOffEvent(tick=2683100, channel=0, data=[69, 0]),
   midi.NoteOnEvent(tick=2683200, channel=0, data=[36, 100]),
   midi.NoteOffEvent(tick=2683300, channel=0, data=[36, 0]),
   midi.NoteOnEvent(tick=2683400, channel=0, data=[28, 100]),
   midi.NoteOffEvent(tick=2683500, channel=0, data=[28, 0]),
   midi.NoteOnEvent(tick=2683600, channel=0, data=[56, 100]),
   midi.NoteOffEvent(tick=2683700, channel=0, data=[56, 0]),
   midi.NoteOnEvent(tick=2683800, channel=0, data=[36, 100]),
   midi.NoteOffEvent(tick=2683900, channel=0, data=[36, 0]),
   midi.NoteOnEvent(tick=2684000, channel=0, data=[36, 100]),
   midi.NoteOffEvent(tick=2684100, channel=0, data=[36, 0]),
   midi.NoteOnEvent(tick=2684200, channel=0, data=[36, 100]),
   midi.NoteOffEvent(tick=2684300, channel=0, data=[36, 0]),
   midi.NoteOnEvent(tick=2684400, channel=0, data=[36, 100]),
   midi.NoteOffEvent(tick=2684500, channel=0, data=[36, 0]),
   midi.NoteOnEvent(tick=2684600, channel=0, data=[36, 100]),
   midi.NoteOffEvent(tick=2684700, channel=0, data=[36, 0]),
   midi.NoteOnEvent(tick=2684800, channel=0, data=[36, 100]),
   midi.NoteOffEvent(tick=2684900, channel=0, data=[36, 0]),
   midi.NoteOnEvent(tick=2685000, channel=0, data=[36, 100]),
   midi.NoteOffEvent(tick=2685100, channel=0, data=[36, 0]),
   midi.NoteOnEvent(tick=2685200, channel=0, data=[36, 100]),
   midi.NoteOffEvent(tick=2685300, channel=0, data=[36, 0]),
   midi.NoteOnEvent(tick=2685400, channel=0, data=[74, 100]),
   midi.NoteOffEvent(tick=2685500, channel=0, data=[74, 0]),
   midi.NoteOnEvent(tick=2685600, channel=0, data=[0, 100]),
   midi.NoteOffEvent(tick=2685700, channel=0, data=[0, 0]),
   midi.NoteOnEvent(tick=2685800, channel=0, data=[36, 100]),
   midi.NoteOffEvent(tick=2685900, channel=0, data=[36, 0]),
   midi.NoteOnEvent(tick=2686000, channel=0, data=[69, 100]),
   midi.NoteOffEvent(tick=2686100, channel=0, data=[69, 0]),
   midi.NoteOnEvent(tick=2686200, channel=0, data=[36, 100]),
   midi.NoteOffEvent(tick=2686300, channel=0, data=[36, 0]),
   midi.NoteOnEvent(tick=2686400, channel=0, data=[49, 100]),
   midi.NoteOffEvent(tick=2686500, channel=0, data=[49, 0]),
   midi.NoteOnEvent(tick=2686600, channel=0, data=[74, 100]),
   midi.NoteOffEvent(tick=2686700, channel=0, data=[74, 0]),
   midi.NoteOnEvent(tick=2686800, channel=0, data=[0, 100]),
   midi.NoteOffEvent(tick=2686900, channel=0, data=[0, 0]),
   midi.NoteOnEvent(tick=2687000, channel=0, data=[36, 100]),
   midi.NoteOffEvent(tick=2687100, channel=0, data=[36, 0]),
   midi.NoteOnEvent(tick=2687200, channel=0, data=[71, 100]),
   midi.NoteOffEvent(tick=2687300, channel=0, data=[71, 0]),
   midi.NoteOnEvent(tick=2687400, channel=0, data=[36, 100]),
   midi.NoteOffEvent(tick=2687500, channel=0, data=[36, 0]),
   midi.NoteOnEvent(tick=2687600, channel=0, data=[28, 100]),
   midi.NoteOffEvent(tick=2687700, channel=0, data=[28, 0]),
   midi.NoteOnEvent(tick=2687800, channel=0, data=[50, 100]),
   midi.NoteOffEvent(tick=2687900, channel=0, data=[50, 0]),
   midi.NoteOnEvent(tick=2688000, channel=0, data=[56, 100]),
   midi.NoteOffEvent(tick=2688100, channel=0, data=[56, 0]),
   midi.NoteOnEvent(tick=2688200, channel=0, data=[56, 100]),
   midi.NoteOffEvent(tick=2688300, channel=0, data=[56, 0]),
   midi.NoteOnEvent(tick=2688400, channel=0, data=[36, 100]),
   midi.NoteOffEvent(tick=2688500, channel=0, data=[36, 0]),
   midi.NoteOnEvent(tick=2688600, channel=0, data=[56, 100]),
   midi.NoteOffEvent(tick=2688700, channel=0, data=[56, 0]),
   midi.NoteOnEvent(tick=2688800, channel=0, data=[36, 100]),
   midi.NoteOffEvent(tick=2688900, channel=0, data=[36, 0]),
   midi.NoteOnEvent(tick=2689000, channel=0, data=[36, 100]),
   midi.NoteOffEvent(tick=2689100, channel=0, data=[36, 0]),
   midi.NoteOnEvent(tick=2689200, channel=0, data=[36, 100]),
   midi.NoteOffEvent(tick=2689300, channel=0, data=[36, 0]),
   midi.NoteOnEvent(tick=2689400, channel=0, data=[36, 100]),
   midi.NoteOffEvent(tick=2689500, channel=0, data=[36, 0]),
   midi.NoteOnEvent(tick=2689600, channel=0, data=[19, 100]),
   midi.NoteOffEvent(tick=2689700, channel=0, data=[19, 0]),
   midi.NoteOnEvent(tick=2689800, channel=0, data=[7, 100]),
   midi.NoteOffEvent(tick=2689900, channel=0, data=[7, 0]),
   midi.NoteOnEvent(tick=2690000, channel=0, data=[4, 100]),
   midi.NoteOffEvent(tick=2690100, channel=0, data=[4, 0]),
   midi.NoteOnEvent(tick=2690200, channel=0, data=[36, 100]),
   midi.NoteOffEvent(tick=2690300, channel=0, data=[36, 0]),
   midi.NoteOnEvent(tick=2690400, channel=0, data=[5, 100]),
   midi.NoteOffEvent(tick=2690500, channel=0, data=[5, 0]),
   midi.NoteOnEvent(tick=2690600, channel=0, data=[14, 100]),
   midi.NoteOffEvent(tick=2690700, channel=0, data=[14, 0]),
   midi.NoteOnEvent(tick=2690800, channel=0, data=[11, 100]),
   midi.NoteOffEvent(tick=2690900, channel=0, data=[11, 0]),
   midi.NoteOnEvent(tick=2691000, channel=0, data=[11, 100]),
   midi.NoteOffEvent(tick=2691100, channel=0, data=[11, 0]),
   midi.NoteOnEvent(tick=2691200, channel=0, data=[14, 100]),
   midi.NoteOffEvent(tick=2691300, channel=0, data=[14, 0]),
   midi.NoteOnEvent(tick=2691400, channel=0, data=[22, 100]),
   midi.NoteOffEvent(tick=2691500, channel=0, data=[22, 0]),
   midi.NoteOnEvent(tick=2691600, channel=0, data=[8, 100]),
   midi.NoteOffEvent(tick=2691700, channel=0, data=[8, 0]),
   midi.NoteOnEvent(tick=2691800, channel=0, data=[13, 100]),
   midi.NoteOffEvent(tick=2691900, channel=0, data=[13, 0]),
   midi.NoteOnEvent(tick=2692000, channel=0, data=[6, 100]),
   midi.NoteOffEvent(tick=2692100, channel=0, data=[6, 0]),
   midi.NoteOnEvent(tick=2692200, channel=0, data=[36, 100]),
   midi.NoteOffEvent(tick=2692300, channel=0, data=[36, 0]),
   midi.NoteOnEvent(tick=2692400, channel=0, data=[4, 100]),
   midi.NoteOffEvent(tick=2692500, channel=0, data=[4, 0]),
   midi.NoteOnEvent(tick=2692600, channel=0, data=[23, 100]),
   midi.NoteOffEvent(tick=2692700, channel=0, data=[23, 0]),
   midi.NoteOnEvent(tick=2692800, channel=0, data=[0, 100]),
   midi.NoteOffEvent(tick=2692900, channel=0, data=[0, 0]),
   midi.NoteOnEvent(tick=2693000, channel=0, data=[12, 100]),
   midi.NoteOffEvent(tick=2693100, channel=0, data=[12, 0]),
   midi.NoteOnEvent(tick=2693200, channel=0, data=[15, 100]),
   midi.NoteOffEvent(tick=2693300, channel=0, data=[15, 0]),
   midi.NoteOnEvent(tick=2693400, channel=0, data=[11, 100]),
   midi.NoteOffEvent(tick=2693500, channel=0, data=[11, 0]),
   midi.NoteOnEvent(tick=2693600, channel=0, data=[4, 100]),
   midi.NoteOffEvent(tick=2693700, channel=0, data=[4, 0]),
   midi.NoteOnEvent(tick=2693800, channel=0, data=[36, 100]),
   midi.NoteOffEvent(tick=2693900, channel=0, data=[36, 0]),
   midi.NoteOnEvent(tick=2694000, channel=0, data=[18, 100]),
   midi.NoteOffEvent(tick=2694100, channel=0, data=[18, 0]),
   midi.NoteOnEvent(tick=2694200, channel=0, data=[7, 100]),
   midi.NoteOffEvent(tick=2694300, channel=0, data=[7, 0]),
   midi.NoteOnEvent(tick=2694400, channel=0, data=[14, 100]),
   midi.NoteOffEvent(tick=2694500, channel=0, data=[14, 0]),
   midi.NoteOnEvent(tick=2694600, channel=0, data=[22, 100]),
   midi.NoteOffEvent(tick=2694700, channel=0, data=[22, 0]),
   midi.NoteOnEvent(tick=2694800, channel=0, data=[18, 100]),
   midi.NoteOffEvent(tick=2694900, channel=0, data=[18, 0]),
   midi.NoteOnEvent(tick=2695000, channel=0, data=[36, 100]),
   midi.NoteOffEvent(tick=2695100, channel=0, data=[36, 0]),
   midi.NoteOnEvent(tick=2695200, channel=0, data=[7, 100]),
   midi.NoteOffEvent(tick=2695300, channel=0, data=[7, 0]),
   midi.NoteOnEvent(tick=2695400, channel=0, data=[14, 100]),
   midi.NoteOffEvent(tick=2695500, channel=0, data=[14, 0]),
   midi.NoteOnEvent(tick=2695600, channel=0, data=[22, 100]),
   midi.NoteOffEvent(tick=2695700, channel=0, data=[22, 0]),
   midi.NoteOnEvent(tick=2695800, channel=0, data=[36, 100]),
   midi.NoteOffEvent(tick=2695900, channel=0, data=[36, 0]),
   midi.NoteOnEvent(tick=2696000, channel=0, data=[19, 100]),
   midi.NoteOffEvent(tick=2696100, channel=0, data=[19, 0]),
   midi.NoteOnEvent(tick=2696200, channel=0, data=[14, 100]),
   midi.NoteOffEvent(tick=2696300, channel=0, data=[14, 0]),
   midi.NoteOnEvent(tick=2696400, channel=0, data=[36, 100]),
   midi.NoteOffEvent(tick=2696500, channel=0, data=[36, 0]),
   midi.NoteOnEvent(tick=2696600, channel=0, data=[20, 100]),
   midi.NoteOffEvent(tick=2696700, channel=0, data=[20, 0]),
   midi.NoteOnEvent(tick=2696800, channel=0, data=[18, 100]),
   midi.NoteOffEvent(tick=2696900, channel=0, data=[18, 0]),
   midi.NoteOnEvent(tick=2697000, channel=0, data=[4, 100]),
   midi.NoteOffEvent(tick=2697100, channel=0, data=[4, 0]),
   midi.NoteOnEvent(tick=2697200, channel=0, data=[36, 100]),
   midi.NoteOffEvent(tick=2697300, channel=0, data=[36, 0]),
   midi.NoteOnEvent(tick=2697400, channel=0, data=[19, 100]),
   midi.NoteOffEvent(tick=2697500, channel=0, data=[19, 0]),
   midi.NoteOnEvent(tick=2697600, channel=0, data=[7, 100]),
   midi.NoteOffEvent(tick=2697700, channel=0, data=[7, 0]),
   midi.NoteOnEvent(tick=2697800, channel=0, data=[4, 100]),
   midi.NoteOffEvent(tick=2697900, channel=0, data=[4, 0]),
   midi.NoteOnEvent(tick=2698000, channel=0, data=[36, 100]),
   midi.NoteOffEvent(tick=2698100, channel=0, data=[36, 0]),
   midi.NoteOnEvent(tick=2698200, channel=0, data=[71, 100]),
   midi.NoteOffEvent(tick=2698300, channel=0, data=[71, 0]),
   midi.NoteOnEvent(tick=2698400, channel=0, data=[69, 100]),
   midi.NoteOffEvent(tick=2698500, channel=0, data=[69, 0]),
   midi.NoteOnEvent(tick=2698600, channel=0, data=[36, 100]),
   midi.NoteOffEvent(tick=2698700, channel=0, data=[36, 0]),
   midi.NoteOnEvent(tick=2698800, channel=0, data=[14, 100]),
   midi.NoteOffEvent(tick=2698900, channel=0, data=[14, 0]),
   midi.NoteOnEvent(tick=2699000, channel=0, data=[15, 100]),
   midi.NoteOffEvent(tick=2699100, channel=0, data=[15, 0]),
   midi.NoteOnEvent(tick=2699200, channel=0, data=[4, 100]),
   midi.NoteOffEvent(tick=2699300, channel=0, data=[4, 0]),
   midi.NoteOnEvent(tick=2699400, channel=0, data=[17, 100]),
   midi.NoteOffEvent(tick=2699500, channel=0, data=[17, 0]),
   midi.NoteOnEvent(tick=2699600, channel=0, data=[0, 100]),
   midi.NoteOffEvent(tick=2699700, channel=0, data=[0, 0]),
   midi.NoteOnEvent(tick=2699800, channel=0, data=[19, 100]),
   midi.NoteOffEvent(tick=2699900, channel=0, data=[19, 0]),
   midi.NoteOnEvent(tick=2700000, channel=0, data=[14, 100]),
   midi.NoteOffEvent(tick=2700100, channel=0, data=[14, 0]),
   midi.NoteOnEvent(tick=2700200, channel=0, data=[17, 100]),
   midi.NoteOffEvent(tick=2700300, channel=0, data=[17, 0]),
   midi.NoteOnEvent(tick=2700400, channel=0, data=[36, 100]),
   midi.NoteOffEvent(tick=2700500, channel=0, data=[36, 0]),
   midi.NoteOnEvent(tick=2700600, channel=0, data=[19, 100]),
   midi.NoteOffEvent(tick=2700700, channel=0, data=[19, 0]),
   midi.NoteOnEvent(tick=2700800, channel=0, data=[14, 100]),
   midi.NoteOffEvent(tick=2700900, channel=0, data=[14, 0]),
   midi.NoteOnEvent(tick=2701000, channel=0, data=[36, 100]),
   midi.NoteOffEvent(tick=2701100, channel=0, data=[36, 0]),
   midi.NoteOnEvent(tick=2701200, channel=0, data=[18, 100]),
   midi.NoteOffEvent(tick=2701300, channel=0, data=[18, 0]),
   midi.NoteOnEvent(tick=2701400, channel=0, data=[0, 100]),
   midi.NoteOffEvent(tick=2701500, channel=0, data=[0, 0]),
   midi.NoteOnEvent(tick=2701600, channel=0, data=[21, 100]),
   midi.NoteOffEvent(tick=2701700, channel=0, data=[21, 0]),
   midi.NoteOnEvent(tick=2701800, channel=0, data=[4, 100]),
   midi.NoteOffEvent(tick=2701900, channel=0, data=[4, 0]),
   midi.NoteOnEvent(tick=2702000, channel=0, data=[36, 100]),
   midi.NoteOffEvent(tick=2702100, channel=0, data=[36, 0]),
   midi.NoteOnEvent(tick=2702200, channel=0, data=[19, 100]),
   midi.NoteOffEvent(tick=2702300, channel=0, data=[19, 0]),
   midi.NoteOnEvent(tick=2702400, channel=0, data=[7, 100]),
   midi.NoteOffEvent(tick=2702500, channel=0, data=[7, 0]),
   midi.NoteOnEvent(tick=2702600, channel=0, data=[4, 100]),
   midi.NoteOffEvent(tick=2702700, channel=0, data=[4, 0]),
   midi.NoteOnEvent(tick=2702800, channel=0, data=[36, 100]),
   midi.NoteOffEvent(tick=2702900, channel=0, data=[36, 0]),
   midi.NoteOnEvent(tick=2703000, channel=0, data=[12, 100]),
   midi.NoteOffEvent(tick=2703100, channel=0, data=[12, 0]),
   midi.NoteOnEvent(tick=2703200, channel=0, data=[14, 100]),
   midi.NoteOffEvent(tick=2703300, channel=0, data=[14, 0]),
   midi.NoteOnEvent(tick=2703400, channel=0, data=[3, 100]),
   midi.NoteOffEvent(tick=2703500, channel=0, data=[3, 0]),
   midi.NoteOnEvent(tick=2703600, channel=0, data=[20, 100]),
   midi.NoteOffEvent(tick=2703700, channel=0, data=[20, 0]),
   midi.NoteOnEvent(tick=2703800, channel=0, data=[11, 100]),
   midi.NoteOffEvent(tick=2703900, channel=0, data=[11, 0]),
   midi.NoteOnEvent(tick=2704000, channel=0, data=[20, 100]),
   midi.NoteOffEvent(tick=2704100, channel=0, data=[20, 0]),
   midi.NoteOnEvent(tick=2704200, channel=0, data=[18, 100]),
   midi.NoteOffEvent(tick=2704300, channel=0, data=[18, 0]),
   midi.NoteOnEvent(tick=2704400, channel=0, data=[36, 100]),
   midi.NoteOffEvent(tick=2704500, channel=0, data=[36, 0]),
   midi.NoteOnEvent(tick=2704600, channel=0, data=[56, 100]),
   midi.NoteOffEvent(tick=2704700, channel=0, data=[56, 0]),
   midi.NoteOnEvent(tick=2704800, channel=0, data=[36, 100]),
   midi.NoteOffEvent(tick=2704900, channel=0, data=[36, 0]),
   midi.NoteOnEvent(tick=2705000, channel=0, data=[36, 100]),
   midi.NoteOffEvent(tick=2705100, channel=0, data=[36, 0]),
   midi.NoteOnEvent(tick=2705200, channel=0, data=[36, 100]),
   midi.NoteOffEvent(tick=2705300, channel=0, data=[36, 0]),
   midi.NoteOnEvent(tick=2705400, channel=0, data=[36, 100]),
   midi.NoteOffEvent(tick=2705500, channel=0, data=[36, 0]),
   midi.NoteOnEvent(tick=2705600, channel=0, data=[14, 100]),
   midi.NoteOffEvent(tick=2705700, channel=0, data=[14, 0]),
   midi.NoteOnEvent(tick=2705800, channel=0, data=[5, 100]),
   midi.NoteOffEvent(tick=2705900, channel=0, data=[5, 0]),
   midi.NoteOnEvent(tick=2706000, channel=0, data=[36, 100]),
   midi.NoteOffEvent(tick=2706100, channel=0, data=[36, 0]),
   midi.NoteOnEvent(tick=2706200, channel=0, data=[0, 100]),
   midi.NoteOffEvent(tick=2706300, channel=0, data=[0, 0]),
   midi.NoteOnEvent(tick=2706400, channel=0, data=[36, 100]),
   midi.NoteOffEvent(tick=2706500, channel=0, data=[36, 0]),
   midi.NoteOnEvent(tick=2706600, channel=0, data=[16, 100]),
   midi.NoteOffEvent(tick=2706700, channel=0, data=[16, 0]),
   midi.NoteOnEvent(tick=2706800, channel=0, data=[20, 100]),
   midi.NoteOffEvent(tick=2706900, channel=0, data=[20, 0]),
   midi.NoteOnEvent(tick=2707000, channel=0, data=[14, 100]),
   midi.NoteOffEvent(tick=2707100, channel=0, data=[14, 0]),
   midi.NoteOnEvent(tick=2707200, channel=0, data=[19, 100]),
   midi.NoteOffEvent(tick=2707300, channel=0, data=[19, 0]),
   midi.NoteOnEvent(tick=2707400, channel=0, data=[8, 100]),
   midi.NoteOffEvent(tick=2707500, channel=0, data=[8, 0]),
   midi.NoteOnEvent(tick=2707600, channel=0, data=[4, 100]),
   midi.NoteOffEvent(tick=2707700, channel=0, data=[4, 0]),
   midi.NoteOnEvent(tick=2707800, channel=0, data=[13, 100]),
   midi.NoteOffEvent(tick=2707900, channel=0, data=[13, 0]),
   midi.NoteOnEvent(tick=2708000, channel=0, data=[19, 100]),
   midi.NoteOffEvent(tick=2708100, channel=0, data=[19, 0]),
   midi.NoteOnEvent(tick=2708200, channel=0, data=[46, 100]),
   midi.NoteOffEvent(tick=2708300, channel=0, data=[46, 0]),
   midi.NoteOnEvent(tick=2708400, channel=0, data=[56, 100]),
   midi.NoteOffEvent(tick=2708500, channel=0, data=[56, 0]),
   midi.NoteOnEvent(tick=2708600, channel=0, data=[56, 100]),
   midi.NoteOffEvent(tick=2708700, channel=0, data=[56, 0]),
   midi.NoteOnEvent(tick=2708800, channel=0, data=[56, 100]),
   midi.NoteOffEvent(tick=2708900, channel=0, data=[56, 0]),
   midi.NoteOnEvent(tick=2709000, channel=0, data=[36, 100]),
   midi.NoteOffEvent(tick=2709100, channel=0, data=[36, 0]),
   midi.NoteOnEvent(tick=2709200, channel=0, data=[36, 100]),
   midi.NoteOffEvent(tick=2709300, channel=0, data=[36, 0]),
   midi.NoteOnEvent(tick=2709400, channel=0, data=[36, 100]),
   midi.NoteOffEvent(tick=2709500, channel=0, data=[36, 0]),
   midi.NoteOnEvent(tick=2709600, channel=0, data=[36, 100]),
   midi.NoteOffEvent(tick=2709700, channel=0, data=[36, 0]),
   midi.NoteOnEvent(tick=2709800, channel=0, data=[36, 100]),
   midi.NoteOffEvent(tick=2709900, channel=0, data=[36, 0]),
   midi.NoteOnEvent(tick=2710000, channel=0, data=[36, 100]),
   midi.NoteOffEvent(tick=2710100, channel=0, data=[36, 0]),
   midi.NoteOnEvent(tick=2710200, channel=0, data=[36, 100]),
   midi.NoteOffEvent(tick=2710300, channel=0, data=[36, 0]),
   midi.NoteOnEvent(tick=2710400, channel=0, data=[36, 100]),
   midi.NoteOffEvent(tick=2710500, channel=0, data=[36, 0]),
   midi.NoteOnEvent(tick=2710600, channel=0, data=[2, 100]),
   midi.NoteOffEvent(tick=2710700, channel=0, data=[2, 0]),
   midi.NoteOnEvent(tick=2710800, channel=0, data=[46, 100]),
   midi.NoteOffEvent(tick=2710900, channel=0, data=[46, 0]),
   midi.NoteOnEvent(tick=2711000, channel=0, data=[78, 100]),
   midi.NoteOffEvent(tick=2711100, channel=0, data=[78, 0]),
   midi.NoteOnEvent(tick=2711200, channel=0, data=[15, 100]),
   midi.NoteOffEvent(tick=2711300, channel=0, data=[15, 0]),
   midi.NoteOnEvent(tick=2711400, channel=0, data=[18, 100]),
   midi.NoteOffEvent(tick=2711500, channel=0, data=[18, 0]),
   midi.NoteOnEvent(tick=2711600, channel=0, data=[73, 100]),
   midi.NoteOffEvent(tick=2711700, channel=0, data=[73, 0]),
   midi.NoteOnEvent(tick=2711800, channel=0, data=[36, 100]),
   midi.NoteOffEvent(tick=2711900, channel=0, data=[36, 0]),
   midi.NoteOnEvent(tick=2712000, channel=0, data=[74, 100]),
   midi.NoteOffEvent(tick=2712100, channel=0, data=[74, 0]),
   midi.NoteOnEvent(tick=2712200, channel=0, data=[0, 100]),
   midi.NoteOffEvent(tick=2712300, channel=0, data=[0, 0]),
   midi.NoteOnEvent(tick=2712400, channel=0, data=[36, 100]),
   midi.NoteOffEvent(tick=2712500, channel=0, data=[36, 0]),
   midi.NoteOnEvent(tick=2712600, channel=0, data=[69, 100]),
   midi.NoteOffEvent(tick=2712700, channel=0, data=[69, 0]),
   midi.NoteOnEvent(tick=2712800, channel=0, data=[36, 100]),
   midi.NoteOffEvent(tick=2712900, channel=0, data=[36, 0]),
   midi.NoteOnEvent(tick=2713000, channel=0, data=[33, 100]),
   midi.NoteOffEvent(tick=2713100, channel=0, data=[33, 0]),
   midi.NoteOnEvent(tick=2713200, channel=0, data=[56, 100]),
   midi.NoteOffEvent(tick=2713300, channel=0, data=[56, 0]),
   midi.NoteOnEvent(tick=2713400, channel=0, data=[36, 100]),
   midi.NoteOffEvent(tick=2713500, channel=0, data=[36, 0]),
   midi.NoteOnEvent(tick=2713600, channel=0, data=[36, 100]),
   midi.NoteOffEvent(tick=2713700, channel=0, data=[36, 0]),
   midi.NoteOnEvent(tick=2713800, channel=0, data=[36, 100]),
   midi.NoteOffEvent(tick=2713900, channel=0, data=[36, 0]),
   midi.NoteOnEvent(tick=2714000, channel=0, data=[36, 100]),
   midi.NoteOffEvent(tick=2714100, channel=0, data=[36, 0]),
   midi.NoteOnEvent(tick=2714200, channel=0, data=[36, 100]),
   midi.NoteOffEvent(tick=2714300, channel=0, data=[36, 0]),
   midi.NoteOnEvent(tick=2714400, channel=0, data=[36, 100]),
   midi.NoteOffEvent(tick=2714500, channel=0, data=[36, 0]),
   midi.NoteOnEvent(tick=2714600, channel=0, data=[36, 100]),
   midi.NoteOffEvent(tick=2714700, channel=0, data=[36, 0]),
   midi.NoteOnEvent(tick=2714800, channel=0, data=[36, 100]),
   midi.NoteOffEvent(tick=2714900, channel=0, data=[36, 0]),
   midi.NoteOnEvent(tick=2715000, channel=0, data=[2, 100]),
   midi.NoteOffEvent(tick=2715100, channel=0, data=[2, 0]),
   midi.NoteOnEvent(tick=2715200, channel=0, data=[46, 100]),
   midi.NoteOffEvent(tick=2715300, channel=0, data=[46, 0]),
   midi.NoteOnEvent(tick=2715400, channel=0, data=[78, 100]),
   midi.NoteOffEvent(tick=2715500, channel=0, data=[78, 0]),
   midi.NoteOnEvent(tick=2715600, channel=0, data=[15, 100]),
   midi.NoteOffEvent(tick=2715700, channel=0, data=[15, 0]),
   midi.NoteOnEvent(tick=2715800, channel=0, data=[18, 100]),
   midi.NoteOffEvent(tick=2715900, channel=0, data=[18, 0]),
   midi.NoteOnEvent(tick=2716000, channel=0, data=[73, 100]),
   midi.NoteOffEvent(tick=2716100, channel=0, data=[73, 0]),
   midi.NoteOnEvent(tick=2716200, channel=0, data=[36, 100]),
   midi.NoteOffEvent(tick=2716300, channel=0, data=[36, 0]),
   midi.NoteOnEvent(tick=2716400, channel=0, data=[74, 100]),
   midi.NoteOffEvent(tick=2716500, channel=0, data=[74, 0]),
   midi.NoteOnEvent(tick=2716600, channel=0, data=[0, 100]),
   midi.NoteOffEvent(tick=2716700, channel=0, data=[0, 0]),
   midi.NoteOnEvent(tick=2716800, channel=0, data=[36, 100]),
   midi.NoteOffEvent(tick=2716900, channel=0, data=[36, 0]),
   midi.NoteOnEvent(tick=2717000, channel=0, data=[71, 100]),
   midi.NoteOffEvent(tick=2717100, channel=0, data=[71, 0]),
   midi.NoteOnEvent(tick=2717200, channel=0, data=[69, 100]),
   midi.NoteOffEvent(tick=2717300, channel=0, data=[69, 0]),
   midi.NoteOnEvent(tick=2717400, channel=0, data=[36, 100]),
   midi.NoteOffEvent(tick=2717500, channel=0, data=[36, 0]),
   midi.NoteOnEvent(tick=2717600, channel=0, data=[30, 100]),
   midi.NoteOffEvent(tick=2717700, channel=0, data=[30, 0]),
   midi.NoteOnEvent(tick=2717800, channel=0, data=[56, 100]),
   midi.NoteOffEvent(tick=2717900, channel=0, data=[56, 0]),
   midi.NoteOnEvent(tick=2718000, channel=0, data=[36, 100]),
   midi.NoteOffEvent(tick=2718100, channel=0, data=[36, 0]),
   midi.NoteOnEvent(tick=2718200, channel=0, data=[36, 100]),
   midi.NoteOffEvent(tick=2718300, channel=0, data=[36, 0]),
   midi.NoteOnEvent(tick=2718400, channel=0, data=[36, 100]),
   midi.NoteOffEvent(tick=2718500, channel=0, data=[36, 0]),
   midi.NoteOnEvent(tick=2718600, channel=0, data=[36, 100]),
   midi.NoteOffEvent(tick=2718700, channel=0, data=[36, 0]),
   midi.NoteOnEvent(tick=2718800, channel=0, data=[36, 100]),
   midi.NoteOffEvent(tick=2718900, channel=0, data=[36, 0]),
   midi.NoteOnEvent(tick=2719000, channel=0, data=[36, 100]),
   midi.NoteOffEvent(tick=2719100, channel=0, data=[36, 0]),
   midi.NoteOnEvent(tick=2719200, channel=0, data=[36, 100]),
   midi.NoteOffEvent(tick=2719300, channel=0, data=[36, 0]),
   midi.NoteOnEvent(tick=2719400, channel=0, data=[36, 100]),
   midi.NoteOffEvent(tick=2719500, channel=0, data=[36, 0]),
   midi.NoteOnEvent(tick=2719600, channel=0, data=[2, 100]),
   midi.NoteOffEvent(tick=2719700, channel=0, data=[2, 0]),
   midi.NoteOnEvent(tick=2719800, channel=0, data=[46, 100]),
   midi.NoteOffEvent(tick=2719900, channel=0, data=[46, 0]),
   midi.NoteOnEvent(tick=2720000, channel=0, data=[78, 100]),
   midi.NoteOffEvent(tick=2720100, channel=0, data=[78, 0]),
   midi.NoteOnEvent(tick=2720200, channel=0, data=[15, 100]),
   midi.NoteOffEvent(tick=2720300, channel=0, data=[15, 0]),
   midi.NoteOnEvent(tick=2720400, channel=0, data=[18, 100]),
   midi.NoteOffEvent(tick=2720500, channel=0, data=[18, 0]),
   midi.NoteOnEvent(tick=2720600, channel=0, data=[73, 100]),
   midi.NoteOffEvent(tick=2720700, channel=0, data=[73, 0]),
   midi.NoteOnEvent(tick=2720800, channel=0, data=[36, 100]),
   midi.NoteOffEvent(tick=2720900, channel=0, data=[36, 0]),
   midi.NoteOnEvent(tick=2721000, channel=0, data=[74, 100]),
   midi.NoteOffEvent(tick=2721100, channel=0, data=[74, 0]),
   midi.NoteOnEvent(tick=2721200, channel=0, data=[0, 100]),
   midi.NoteOffEvent(tick=2721300, channel=0, data=[0, 0]),
   midi.NoteOnEvent(tick=2721400, channel=0, data=[56, 100]),
   midi.NoteOffEvent(tick=2721500, channel=0, data=[56, 0]),
   midi.NoteOnEvent(tick=2721600, channel=0, data=[36, 100]),
   midi.NoteOffEvent(tick=2721700, channel=0, data=[36, 0]),
   midi.NoteOnEvent(tick=2721800, channel=0, data=[36, 100]),
   midi.NoteOffEvent(tick=2721900, channel=0, data=[36, 0]),
   midi.NoteOnEvent(tick=2722000, channel=0, data=[36, 100]),
   midi.NoteOffEvent(tick=2722100, channel=0, data=[36, 0]),
   midi.NoteOnEvent(tick=2722200, channel=0, data=[36, 100]),
   midi.NoteOffEvent(tick=2722300, channel=0, data=[36, 0]),
   midi.NoteOnEvent(tick=2722400, channel=0, data=[36, 100]),
   midi.NoteOffEvent(tick=2722500, channel=0, data=[36, 0]),
   midi.NoteOnEvent(tick=2722600, channel=0, data=[36, 100]),
   midi.NoteOffEvent(tick=2722700, channel=0, data=[36, 0]),
   midi.NoteOnEvent(tick=2722800, channel=0, data=[36, 100]),
   midi.NoteOffEvent(tick=2722900, channel=0, data=[36, 0]),
   midi.NoteOnEvent(tick=2723000, channel=0, data=[36, 100]),
   midi.NoteOffEvent(tick=2723100, channel=0, data=[36, 0]),
   midi.NoteOnEvent(tick=2723200, channel=0, data=[29, 100]),
   midi.NoteOffEvent(tick=2723300, channel=0, data=[29, 0]),
   midi.NoteOnEvent(tick=2723400, channel=0, data=[56, 100]),
   midi.NoteOffEvent(tick=2723500, channel=0, data=[56, 0]),
   midi.NoteOnEvent(tick=2723600, channel=0, data=[56, 100]),
   midi.NoteOffEvent(tick=2723700, channel=0, data=[56, 0]),
   midi.NoteOnEvent(tick=2723800, channel=0, data=[56, 100]),
   midi.NoteOffEvent(tick=2723900, channel=0, data=[56, 0]),
   midi.NoteOnEvent(tick=2724000, channel=0, data=[36, 100]),
   midi.NoteOffEvent(tick=2724100, channel=0, data=[36, 0]),
   midi.NoteOnEvent(tick=2724200, channel=0, data=[36, 100]),
   midi.NoteOffEvent(tick=2724300, channel=0, data=[36, 0]),
   midi.NoteOnEvent(tick=2724400, channel=0, data=[19, 100]),
   midi.NoteOffEvent(tick=2724500, channel=0, data=[19, 0]),
   midi.NoteOnEvent(tick=2724600, channel=0, data=[7, 100]),
   midi.NoteOffEvent(tick=2724700, channel=0, data=[7, 0]),
   midi.NoteOnEvent(tick=2724800, channel=0, data=[4, 100]),
   midi.NoteOffEvent(tick=2724900, channel=0, data=[4, 0]),
   midi.NoteOnEvent(tick=2725000, channel=0, data=[36, 100]),
   midi.NoteOffEvent(tick=2725100, channel=0, data=[36, 0]),
   midi.NoteOnEvent(tick=2725200, channel=0, data=[8, 100]),
   midi.NoteOffEvent(tick=2725300, channel=0, data=[8, 0]),
   midi.NoteOnEvent(tick=2725400, channel=0, data=[13, 100]),
   midi.NoteOffEvent(tick=2725500, channel=0, data=[13, 0]),
   midi.NoteOnEvent(tick=2725600, channel=0, data=[2, 100]),
   midi.NoteOffEvent(tick=2725700, channel=0, data=[2, 0]),
   midi.NoteOnEvent(tick=2725800, channel=0, data=[17, 100]),
   midi.NoteOffEvent(tick=2725900, channel=0, data=[17, 0]),
   midi.NoteOnEvent(tick=2726000, channel=0, data=[4, 100]),
   midi.NoteOffEvent(tick=2726100, channel=0, data=[4, 0]),
   midi.NoteOnEvent(tick=2726200, channel=0, data=[12, 100]),
   midi.NoteOffEvent(tick=2726300, channel=0, data=[12, 0]),
   midi.NoteOnEvent(tick=2726400, channel=0, data=[4, 100]),
   midi.NoteOffEvent(tick=2726500, channel=0, data=[4, 0]),
   midi.NoteOnEvent(tick=2726600, channel=0, data=[13, 100]),
   midi.NoteOffEvent(tick=2726700, channel=0, data=[13, 0]),
   midi.NoteOnEvent(tick=2726800, channel=0, data=[19, 100]),
   midi.NoteOffEvent(tick=2726900, channel=0, data=[19, 0]),
   midi.NoteOnEvent(tick=2727000, channel=0, data=[36, 100]),
   midi.NoteOffEvent(tick=2727100, channel=0, data=[36, 0]),
   midi.NoteOnEvent(tick=2727200, channel=0, data=[0, 100]),
   midi.NoteOffEvent(tick=2727300, channel=0, data=[0, 0]),
   midi.NoteOnEvent(tick=2727400, channel=0, data=[13, 100]),
   midi.NoteOffEvent(tick=2727500, channel=0, data=[13, 0]),
   midi.NoteOnEvent(tick=2727600, channel=0, data=[3, 100]),
   midi.NoteOffEvent(tick=2727700, channel=0, data=[3, 0]),
   midi.NoteOnEvent(tick=2727800, channel=0, data=[36, 100]),
   midi.NoteOffEvent(tick=2727900, channel=0, data=[36, 0]),
   midi.NoteOnEvent(tick=2728000, channel=0, data=[3, 100]),
   midi.NoteOffEvent(tick=2728100, channel=0, data=[3, 0]),
   midi.NoteOnEvent(tick=2728200, channel=0, data=[4, 100]),
   midi.NoteOffEvent(tick=2728300, channel=0, data=[4, 0]),
   midi.NoteOnEvent(tick=2728400, channel=0, data=[2, 100]),
   midi.NoteOffEvent(tick=2728500, channel=0, data=[2, 0]),
   midi.NoteOnEvent(tick=2728600, channel=0, data=[17, 100]),
   midi.NoteOffEvent(tick=2728700, channel=0, data=[17, 0]),
   midi.NoteOnEvent(tick=2728800, channel=0, data=[4, 100]),
   midi.NoteOffEvent(tick=2728900, channel=0, data=[4, 0]),
   midi.NoteOnEvent(tick=2729000, channel=0, data=[12, 100]),
   midi.NoteOffEvent(tick=2729100, channel=0, data=[12, 0]),
   midi.NoteOnEvent(tick=2729200, channel=0, data=[4, 100]),
   midi.NoteOffEvent(tick=2729300, channel=0, data=[4, 0]),
   midi.NoteOnEvent(tick=2729400, channel=0, data=[13, 100]),
   midi.NoteOffEvent(tick=2729500, channel=0, data=[13, 0]),
   midi.NoteOnEvent(tick=2729600, channel=0, data=[19, 100]),
   midi.NoteOffEvent(tick=2729700, channel=0, data=[19, 0]),
   midi.NoteOnEvent(tick=2729800, channel=0, data=[36, 100]),
   midi.NoteOffEvent(tick=2729900, channel=0, data=[36, 0]),
   midi.NoteOnEvent(tick=2730000, channel=0, data=[14, 100]),
   midi.NoteOffEvent(tick=2730100, channel=0, data=[14, 0]),
   midi.NoteOnEvent(tick=2730200, channel=0, data=[15, 100]),
   midi.NoteOffEvent(tick=2730300, channel=0, data=[15, 0]),
   midi.NoteOnEvent(tick=2730400, channel=0, data=[4, 100]),
   midi.NoteOffEvent(tick=2730500, channel=0, data=[4, 0]),
   midi.NoteOnEvent(tick=2730600, channel=0, data=[17, 100]),
   midi.NoteOffEvent(tick=2730700, channel=0, data=[17, 0]),
   midi.NoteOnEvent(tick=2730800, channel=0, data=[0, 100]),
   midi.NoteOffEvent(tick=2730900, channel=0, data=[0, 0]),
   midi.NoteOnEvent(tick=2731000, channel=0, data=[19, 100]),
   midi.NoteOffEvent(tick=2731100, channel=0, data=[19, 0]),
   midi.NoteOnEvent(tick=2731200, channel=0, data=[14, 100]),
   midi.NoteOffEvent(tick=2731300, channel=0, data=[14, 0]),
   midi.NoteOnEvent(tick=2731400, channel=0, data=[17, 100]),
   midi.NoteOffEvent(tick=2731500, channel=0, data=[17, 0]),
   midi.NoteOnEvent(tick=2731600, channel=0, data=[18, 100]),
   midi.NoteOffEvent(tick=2731700, channel=0, data=[18, 0]),
   midi.NoteOnEvent(tick=2731800, channel=0, data=[56, 100]),
   midi.NoteOffEvent(tick=2731900, channel=0, data=[56, 0]),
   midi.NoteOnEvent(tick=2732000, channel=0, data=[56, 100]),
   midi.NoteOffEvent(tick=2732100, channel=0, data=[56, 0]),
   midi.NoteOnEvent(tick=2732200, channel=0, data=[36, 100]),
   midi.NoteOffEvent(tick=2732300, channel=0, data=[36, 0]),
   midi.NoteOnEvent(tick=2732400, channel=0, data=[36, 100]),
   midi.NoteOffEvent(tick=2732500, channel=0, data=[36, 0]),
   midi.NoteOnEvent(tick=2732600, channel=0, data=[36, 100]),
   midi.NoteOffEvent(tick=2732700, channel=0, data=[36, 0]),
   midi.NoteOnEvent(tick=2732800, channel=0, data=[36, 100]),
   midi.NoteOffEvent(tick=2732900, channel=0, data=[36, 0]),
   midi.NoteOnEvent(tick=2733000, channel=0, data=[19, 100]),
   midi.NoteOffEvent(tick=2733100, channel=0, data=[19, 0]),
   midi.NoteOnEvent(tick=2733200, channel=0, data=[7, 100]),
   midi.NoteOffEvent(tick=2733300, channel=0, data=[7, 0]),
   midi.NoteOnEvent(tick=2733400, channel=0, data=[4, 100]),
   midi.NoteOffEvent(tick=2733500, channel=0, data=[4, 0]),
   midi.NoteOnEvent(tick=2733600, channel=0, data=[36, 100]),
   midi.NoteOffEvent(tick=2733700, channel=0, data=[36, 0]),
   midi.NoteOnEvent(tick=2733800, channel=0, data=[8, 100]),
   midi.NoteOffEvent(tick=2733900, channel=0, data=[8, 0]),
   midi.NoteOnEvent(tick=2734000, channel=0, data=[13, 100]),
   midi.NoteOffEvent(tick=2734100, channel=0, data=[13, 0]),
   midi.NoteOnEvent(tick=2734200, channel=0, data=[2, 100]),
   midi.NoteOffEvent(tick=2734300, channel=0, data=[2, 0]),
   midi.NoteOnEvent(tick=2734400, channel=0, data=[17, 100]),
   midi.NoteOffEvent(tick=2734500, channel=0, data=[17, 0]),
   midi.NoteOnEvent(tick=2734600, channel=0, data=[4, 100]),
   midi.NoteOffEvent(tick=2734700, channel=0, data=[4, 0]),
   midi.NoteOnEvent(tick=2734800, channel=0, data=[12, 100]),
   midi.NoteOffEvent(tick=2734900, channel=0, data=[12, 0]),
   midi.NoteOnEvent(tick=2735000, channel=0, data=[4, 100]),
   midi.NoteOffEvent(tick=2735100, channel=0, data=[4, 0]),
   midi.NoteOnEvent(tick=2735200, channel=0, data=[13, 100]),
   midi.NoteOffEvent(tick=2735300, channel=0, data=[13, 0]),
   midi.NoteOnEvent(tick=2735400, channel=0, data=[19, 100]),
   midi.NoteOffEvent(tick=2735500, channel=0, data=[19, 0]),
   midi.NoteOnEvent(tick=2735600, channel=0, data=[36, 100]),
   midi.NoteOffEvent(tick=2735700, channel=0, data=[36, 0]),
   midi.NoteOnEvent(tick=2735800, channel=0, data=[14, 100]),
   midi.NoteOffEvent(tick=2735900, channel=0, data=[14, 0]),
   midi.NoteOnEvent(tick=2736000, channel=0, data=[15, 100]),
   midi.NoteOffEvent(tick=2736100, channel=0, data=[15, 0]),
   midi.NoteOnEvent(tick=2736200, channel=0, data=[4, 100]),
   midi.NoteOffEvent(tick=2736300, channel=0, data=[4, 0]),
   midi.NoteOnEvent(tick=2736400, channel=0, data=[17, 100]),
   midi.NoteOffEvent(tick=2736500, channel=0, data=[17, 0]),
   midi.NoteOnEvent(tick=2736600, channel=0, data=[0, 100]),
   midi.NoteOffEvent(tick=2736700, channel=0, data=[0, 0]),
   midi.NoteOnEvent(tick=2736800, channel=0, data=[19, 100]),
   midi.NoteOffEvent(tick=2736900, channel=0, data=[19, 0]),
   midi.NoteOnEvent(tick=2737000, channel=0, data=[14, 100]),
   midi.NoteOffEvent(tick=2737100, channel=0, data=[14, 0]),
   midi.NoteOnEvent(tick=2737200, channel=0, data=[17, 100]),
   midi.NoteOffEvent(tick=2737300, channel=0, data=[17, 0]),
   midi.NoteOnEvent(tick=2737400, channel=0, data=[36, 100]),
   midi.NoteOffEvent(tick=2737500, channel=0, data=[36, 0]),
   midi.NoteOnEvent(tick=2737600, channel=0, data=[49, 100]),
   midi.NoteOffEvent(tick=2737700, channel=0, data=[49, 0]),
   midi.NoteOnEvent(tick=2737800, channel=0, data=[55, 100]),
   midi.NoteOffEvent(tick=2737900, channel=0, data=[55, 0]),
   midi.NoteOnEvent(tick=2738000, channel=0, data=[55, 100]),
   midi.NoteOffEvent(tick=2738100, channel=0, data=[55, 0]),
   midi.NoteOnEvent(tick=2738200, channel=0, data=[50, 100]),
   midi.NoteOffEvent(tick=2738300, channel=0, data=[50, 0]),
   midi.NoteOnEvent(tick=2738400, channel=0, data=[36, 100]),
   midi.NoteOffEvent(tick=2738500, channel=0, data=[36, 0]),
   midi.NoteOnEvent(tick=2738600, channel=0, data=[8, 100]),
   midi.NoteOffEvent(tick=2738700, channel=0, data=[8, 0]),
   midi.NoteOnEvent(tick=2738800, channel=0, data=[13, 100]),
   midi.NoteOffEvent(tick=2738900, channel=0, data=[13, 0]),
   midi.NoteOnEvent(tick=2739000, channel=0, data=[2, 100]),
   midi.NoteOffEvent(tick=2739100, channel=0, data=[2, 0]),
   midi.NoteOnEvent(tick=2739200, channel=0, data=[17, 100]),
   midi.NoteOffEvent(tick=2739300, channel=0, data=[17, 0]),
   midi.NoteOnEvent(tick=2739400, channel=0, data=[4, 100]),
   midi.NoteOffEvent(tick=2739500, channel=0, data=[4, 0]),
   midi.NoteOnEvent(tick=2739600, channel=0, data=[0, 100]),
   midi.NoteOffEvent(tick=2739700, channel=0, data=[0, 0]),
   midi.NoteOnEvent(tick=2739800, channel=0, data=[18, 100]),
   midi.NoteOffEvent(tick=2739900, channel=0, data=[18, 0]),
   midi.NoteOnEvent(tick=2740000, channel=0, data=[4, 100]),
   midi.NoteOffEvent(tick=2740100, channel=0, data=[4, 0]),
   midi.NoteOnEvent(tick=2740200, channel=0, data=[18, 100]),
   midi.NoteOffEvent(tick=2740300, channel=0, data=[18, 0]),
   midi.NoteOnEvent(tick=2740400, channel=0, data=[36, 100]),
   midi.NoteOffEvent(tick=2740500, channel=0, data=[36, 0]),
   midi.NoteOnEvent(tick=2740600, channel=0, data=[19, 100]),
   midi.NoteOffEvent(tick=2740700, channel=0, data=[19, 0]),
   midi.NoteOnEvent(tick=2740800, channel=0, data=[7, 100]),
   midi.NoteOffEvent(tick=2740900, channel=0, data=[7, 0]),
   midi.NoteOnEvent(tick=2741000, channel=0, data=[4, 100]),
   midi.NoteOffEvent(tick=2741100, channel=0, data=[4, 0]),
   midi.NoteOnEvent(tick=2741200, channel=0, data=[36, 100]),
   midi.NoteOffEvent(tick=2741300, channel=0, data=[36, 0]),
   midi.NoteOnEvent(tick=2741400, channel=0, data=[21, 100]),
   midi.NoteOffEvent(tick=2741500, channel=0, data=[21, 0]),
   midi.NoteOnEvent(tick=2741600, channel=0, data=[0, 100]),
   midi.NoteOffEvent(tick=2741700, channel=0, data=[0, 0]),
   midi.NoteOnEvent(tick=2741800, channel=0, data=[11, 100]),
   midi.NoteOffEvent(tick=2741900, channel=0, data=[11, 0]),
   midi.NoteOnEvent(tick=2742000, channel=0, data=[20, 100]),
   midi.NoteOffEvent(tick=2742100, channel=0, data=[20, 0]),
   midi.NoteOnEvent(tick=2742200, channel=0, data=[4, 100]),
   midi.NoteOffEvent(tick=2742300, channel=0, data=[4, 0]),
   midi.NoteOnEvent(tick=2742400, channel=0, data=[36, 100]),
   midi.NoteOffEvent(tick=2742500, channel=0, data=[36, 0]),
   midi.NoteOnEvent(tick=2742600, channel=0, data=[14, 100]),
   midi.NoteOffEvent(tick=2742700, channel=0, data=[14, 0]),
   midi.NoteOnEvent(tick=2742800, channel=0, data=[5, 100]),
   midi.NoteOffEvent(tick=2742900, channel=0, data=[5, 0]),
   midi.NoteOnEvent(tick=2743000, channel=0, data=[36, 100]),
   midi.NoteOffEvent(tick=2743100, channel=0, data=[36, 0]),
   midi.NoteOnEvent(tick=2743200, channel=0, data=[0, 100]),
   midi.NoteOffEvent(tick=2743300, channel=0, data=[0, 0]),
   midi.NoteOnEvent(tick=2743400, channel=0, data=[36, 100]),
   midi.NoteOffEvent(tick=2743500, channel=0, data=[36, 0]),
   midi.NoteOnEvent(tick=2743600, channel=0, data=[21, 100]),
   midi.NoteOffEvent(tick=2743700, channel=0, data=[21, 0]),
   midi.NoteOnEvent(tick=2743800, channel=0, data=[0, 100]),
   midi.NoteOffEvent(tick=2743900, channel=0, data=[0, 0]),
   midi.NoteOnEvent(tick=2744000, channel=0, data=[17, 100]),
   midi.NoteOffEvent(tick=2744100, channel=0, data=[17, 0]),
   midi.NoteOnEvent(tick=2744200, channel=0, data=[8, 100]),
   midi.NoteOffEvent(tick=2744300, channel=0, data=[8, 0]),
   midi.NoteOnEvent(tick=2744400, channel=0, data=[0, 100]),
   midi.NoteOffEvent(tick=2744500, channel=0, data=[0, 0]),
   midi.NoteOnEvent(tick=2744600, channel=0, data=[1, 100]),
   midi.NoteOffEvent(tick=2744700, channel=0, data=[1, 0]),
   midi.NoteOnEvent(tick=2744800, channel=0, data=[11, 100]),
   midi.NoteOffEvent(tick=2744900, channel=0, data=[11, 0]),
   midi.NoteOnEvent(tick=2745000, channel=0, data=[4, 100]),
   midi.NoteOffEvent(tick=2745100, channel=0, data=[4, 0]),
   midi.NoteOnEvent(tick=2745200, channel=0, data=[36, 100]),
   midi.NoteOffEvent(tick=2745300, channel=0, data=[36, 0]),
   midi.NoteOnEvent(tick=2745400, channel=0, data=[1, 100]),
   midi.NoteOffEvent(tick=2745500, channel=0, data=[1, 0]),
   midi.NoteOnEvent(tick=2745600, channel=0, data=[24, 100]),
   midi.NoteOffEvent(tick=2745700, channel=0, data=[24, 0]),
   midi.NoteOnEvent(tick=2745800, channel=0, data=[36, 100]),
   midi.NoteOffEvent(tick=2745900, channel=0, data=[36, 0]),
   midi.NoteOnEvent(tick=2746000, channel=0, data=[27, 100]),
   midi.NoteOffEvent(tick=2746100, channel=0, data=[27, 0]),
   midi.NoteOnEvent(tick=2746200, channel=0, data=[37, 100]),
   midi.NoteOffEvent(tick=2746300, channel=0, data=[37, 0]),
   midi.NoteOnEvent(tick=2746400, channel=0, data=[36, 100]),
   midi.NoteOffEvent(tick=2746500, channel=0, data=[36, 0]),
   midi.NoteOnEvent(tick=2746600, channel=0, data=[22, 100]),
   midi.NoteOffEvent(tick=2746700, channel=0, data=[22, 0]),
   midi.NoteOnEvent(tick=2746800, channel=0, data=[7, 100]),
   midi.NoteOffEvent(tick=2746900, channel=0, data=[7, 0]),
   midi.NoteOnEvent(tick=2747000, channel=0, data=[4, 100]),
   midi.NoteOffEvent(tick=2747100, channel=0, data=[4, 0]),
   midi.NoteOnEvent(tick=2747200, channel=0, data=[13, 100]),
   midi.NoteOffEvent(tick=2747300, channel=0, data=[13, 0]),
   midi.NoteOnEvent(tick=2747400, channel=0, data=[56, 100]),
   midi.NoteOffEvent(tick=2747500, channel=0, data=[56, 0]),
   midi.NoteOnEvent(tick=2747600, channel=0, data=[36, 100]),
   midi.NoteOffEvent(tick=2747700, channel=0, data=[36, 0]),
   midi.NoteOnEvent(tick=2747800, channel=0, data=[36, 100]),
   midi.NoteOffEvent(tick=2747900, channel=0, data=[36, 0]),
   midi.NoteOnEvent(tick=2748000, channel=0, data=[36, 100]),
   midi.NoteOffEvent(tick=2748100, channel=0, data=[36, 0]),
   midi.NoteOnEvent(tick=2748200, channel=0, data=[36, 100]),
   midi.NoteOffEvent(tick=2748300, channel=0, data=[36, 0]),
   midi.NoteOnEvent(tick=2748400, channel=0, data=[24, 100]),
   midi.NoteOffEvent(tick=2748500, channel=0, data=[24, 0]),
   midi.NoteOnEvent(tick=2748600, channel=0, data=[14, 100]),
   midi.NoteOffEvent(tick=2748700, channel=0, data=[14, 0]),
   midi.NoteOnEvent(tick=2748800, channel=0, data=[20, 100]),
   midi.NoteOffEvent(tick=2748900, channel=0, data=[20, 0]),
   midi.NoteOnEvent(tick=2749000, channel=0, data=[36, 100]),
   midi.NoteOffEvent(tick=2749100, channel=0, data=[36, 0]),
   midi.NoteOnEvent(tick=2749200, channel=0, data=[20, 100]),
   midi.NoteOffEvent(tick=2749300, channel=0, data=[20, 0]),
   midi.NoteOnEvent(tick=2749400, channel=0, data=[18, 100]),
   midi.NoteOffEvent(tick=2749500, channel=0, data=[18, 0]),
   midi.NoteOnEvent(tick=2749600, channel=0, data=[4, 100]),
   midi.NoteOffEvent(tick=2749700, channel=0, data=[4, 0]),
   midi.NoteOnEvent(tick=2749800, channel=0, data=[36, 100]),
   midi.NoteOffEvent(tick=2749900, channel=0, data=[36, 0]),
   midi.NoteOnEvent(tick=2750000, channel=0, data=[19, 100]),
   midi.NoteOffEvent(tick=2750100, channel=0, data=[19, 0]),
   midi.NoteOnEvent(tick=2750200, channel=0, data=[7, 100]),
   midi.NoteOffEvent(tick=2750300, channel=0, data=[7, 0]),
   midi.NoteOnEvent(tick=2750400, channel=0, data=[4, 100]),
   midi.NoteOffEvent(tick=2750500, channel=0, data=[4, 0]),
   midi.NoteOnEvent(tick=2750600, channel=0, data=[36, 100]),
   midi.NoteOffEvent(tick=2750700, channel=0, data=[36, 0]),
   midi.NoteOnEvent(tick=2750800, channel=0, data=[8, 100]),
   midi.NoteOffEvent(tick=2750900, channel=0, data=[8, 0]),
   midi.NoteOnEvent(tick=2751000, channel=0, data=[13, 100]),
   midi.NoteOffEvent(tick=2751100, channel=0, data=[13, 0]),
   midi.NoteOnEvent(tick=2751200, channel=0, data=[2, 100]),
   midi.NoteOffEvent(tick=2751300, channel=0, data=[2, 0]),
   midi.NoteOnEvent(tick=2751400, channel=0, data=[17, 100]),
   midi.NoteOffEvent(tick=2751500, channel=0, data=[17, 0]),
   midi.NoteOnEvent(tick=2751600, channel=0, data=[4, 100]),
   midi.NoteOffEvent(tick=2751700, channel=0, data=[4, 0]),
   midi.NoteOnEvent(tick=2751800, channel=0, data=[12, 100]),
   midi.NoteOffEvent(tick=2751900, channel=0, data=[12, 0]),
   midi.NoteOnEvent(tick=2752000, channel=0, data=[4, 100]),
   midi.NoteOffEvent(tick=2752100, channel=0, data=[4, 0]),
   midi.NoteOnEvent(tick=2752200, channel=0, data=[13, 100]),
   midi.NoteOffEvent(tick=2752300, channel=0, data=[13, 0]),
   midi.NoteOnEvent(tick=2752400, channel=0, data=[19, 100]),
   midi.NoteOffEvent(tick=2752500, channel=0, data=[19, 0]),
   midi.NoteOnEvent(tick=2752600, channel=0, data=[36, 100]),
   midi.NoteOffEvent(tick=2752700, channel=0, data=[36, 0]),
   midi.NoteOnEvent(tick=2752800, channel=0, data=[14, 100]),
   midi.NoteOffEvent(tick=2752900, channel=0, data=[14, 0]),
   midi.NoteOnEvent(tick=2753000, channel=0, data=[15, 100]),
   midi.NoteOffEvent(tick=2753100, channel=0, data=[15, 0]),
   midi.NoteOnEvent(tick=2753200, channel=0, data=[4, 100]),
   midi.NoteOffEvent(tick=2753300, channel=0, data=[4, 0]),
   midi.NoteOnEvent(tick=2753400, channel=0, data=[17, 100]),
   midi.NoteOffEvent(tick=2753500, channel=0, data=[17, 0]),
   midi.NoteOnEvent(tick=2753600, channel=0, data=[0, 100]),
   midi.NoteOffEvent(tick=2753700, channel=0, data=[0, 0]),
   midi.NoteOnEvent(tick=2753800, channel=0, data=[19, 100]),
   midi.NoteOffEvent(tick=2753900, channel=0, data=[19, 0]),
   midi.NoteOnEvent(tick=2754000, channel=0, data=[14, 100]),
   midi.NoteOffEvent(tick=2754100, channel=0, data=[14, 0]),
   midi.NoteOnEvent(tick=2754200, channel=0, data=[17, 100]),
   midi.NoteOffEvent(tick=2754300, channel=0, data=[17, 0]),
   midi.NoteOnEvent(tick=2754400, channel=0, data=[36, 100]),
   midi.NoteOffEvent(tick=2754500, channel=0, data=[36, 0]),
   midi.NoteOnEvent(tick=2754600, channel=0, data=[8, 100]),
   midi.NoteOffEvent(tick=2754700, channel=0, data=[8, 0]),
   midi.NoteOnEvent(tick=2754800, channel=0, data=[13, 100]),
   midi.NoteOffEvent(tick=2754900, channel=0, data=[13, 0]),
   midi.NoteOnEvent(tick=2755000, channel=0, data=[36, 100]),
   midi.NoteOffEvent(tick=2755100, channel=0, data=[36, 0]),
   midi.NoteOnEvent(tick=2755200, channel=0, data=[0, 100]),
   midi.NoteOffEvent(tick=2755300, channel=0, data=[0, 0]),
   midi.NoteOnEvent(tick=2755400, channel=0, data=[36, 100]),
   midi.NoteOffEvent(tick=2755500, channel=0, data=[36, 0]),
   midi.NoteOnEvent(tick=2755600, channel=0, data=[18, 100]),
   midi.NoteOffEvent(tick=2755700, channel=0, data=[18, 0]),
   midi.NoteOnEvent(tick=2755800, channel=0, data=[8, 100]),
   midi.NoteOffEvent(tick=2755900, channel=0, data=[8, 0]),
   midi.NoteOnEvent(tick=2756000, channel=0, data=[12, 100]),
   midi.NoteOffEvent(tick=2756100, channel=0, data=[12, 0]),
   midi.NoteOnEvent(tick=2756200, channel=0, data=[15, 100]),
   midi.NoteOffEvent(tick=2756300, channel=0, data=[15, 0]),
   midi.NoteOnEvent(tick=2756400, channel=0, data=[11, 100]),
   midi.NoteOffEvent(tick=2756500, channel=0, data=[11, 0]),
   midi.NoteOnEvent(tick=2756600, channel=0, data=[4, 100]),
   midi.NoteOffEvent(tick=2756700, channel=0, data=[4, 0]),
   midi.NoteOnEvent(tick=2756800, channel=0, data=[36, 100]),
   midi.NoteOffEvent(tick=2756900, channel=0, data=[36, 0]),
   midi.NoteOnEvent(tick=2757000, channel=0, data=[18, 100]),
   midi.NoteOffEvent(tick=2757100, channel=0, data=[18, 0]),
   midi.NoteOnEvent(tick=2757200, channel=0, data=[19, 100]),
   midi.NoteOffEvent(tick=2757300, channel=0, data=[19, 0]),
   midi.NoteOnEvent(tick=2757400, channel=0, data=[0, 100]),
   midi.NoteOffEvent(tick=2757500, channel=0, data=[0, 0]),
   midi.NoteOnEvent(tick=2757600, channel=0, data=[19, 100]),
   midi.NoteOffEvent(tick=2757700, channel=0, data=[19, 0]),
   midi.NoteOnEvent(tick=2757800, channel=0, data=[4, 100]),
   midi.NoteOffEvent(tick=2757900, channel=0, data=[4, 0]),
   midi.NoteOnEvent(tick=2758000, channel=0, data=[12, 100]),
   midi.NoteOffEvent(tick=2758100, channel=0, data=[12, 0]),
   midi.NoteOnEvent(tick=2758200, channel=0, data=[4, 100]),
   midi.NoteOffEvent(tick=2758300, channel=0, data=[4, 0]),
   midi.NoteOnEvent(tick=2758400, channel=0, data=[13, 100]),
   midi.NoteOffEvent(tick=2758500, channel=0, data=[13, 0]),
   midi.NoteOnEvent(tick=2758600, channel=0, data=[19, 100]),
   midi.NoteOffEvent(tick=2758700, channel=0, data=[19, 0]),
   midi.NoteOnEvent(tick=2758800, channel=0, data=[38, 100]),
   midi.NoteOffEvent(tick=2758900, channel=0, data=[38, 0]),
   midi.NoteOnEvent(tick=2759000, channel=0, data=[36, 100]),
   midi.NoteOffEvent(tick=2759100, channel=0, data=[36, 0]),
   midi.NoteOnEvent(tick=2759200, channel=0, data=[13, 100]),
   midi.NoteOffEvent(tick=2759300, channel=0, data=[13, 0]),
   midi.NoteOnEvent(tick=2759400, channel=0, data=[14, 100]),
   midi.NoteOffEvent(tick=2759500, channel=0, data=[14, 0]),
   midi.NoteOnEvent(tick=2759600, channel=0, data=[36, 100]),
   midi.NoteOffEvent(tick=2759700, channel=0, data=[36, 0]),
   midi.NoteOnEvent(tick=2759800, channel=0, data=[21, 100]),
   midi.NoteOffEvent(tick=2759900, channel=0, data=[21, 0]),
   midi.NoteOnEvent(tick=2760000, channel=0, data=[0, 100]),
   midi.NoteOffEvent(tick=2760100, channel=0, data=[0, 0]),
   midi.NoteOnEvent(tick=2760200, channel=0, data=[11, 100]),
   midi.NoteOffEvent(tick=2760300, channel=0, data=[11, 0]),
   midi.NoteOnEvent(tick=2760400, channel=0, data=[20, 100]),
   midi.NoteOffEvent(tick=2760500, channel=0, data=[20, 0]),
   midi.NoteOnEvent(tick=2760600, channel=0, data=[4, 100]),
   midi.NoteOffEvent(tick=2760700, channel=0, data=[4, 0]),
   midi.NoteOnEvent(tick=2760800, channel=0, data=[36, 100]),
   midi.NoteOffEvent(tick=2760900, channel=0, data=[36, 0]),
   midi.NoteOnEvent(tick=2761000, channel=0, data=[8, 100]),
   midi.NoteOffEvent(tick=2761100, channel=0, data=[8, 0]),
   midi.NoteOnEvent(tick=2761200, channel=0, data=[18, 100]),
   midi.NoteOffEvent(tick=2761300, channel=0, data=[18, 0]),
   midi.NoteOnEvent(tick=2761400, channel=0, data=[36, 100]),
   midi.NoteOffEvent(tick=2761500, channel=0, data=[36, 0]),
   midi.NoteOnEvent(tick=2761600, channel=0, data=[17, 100]),
   midi.NoteOffEvent(tick=2761700, channel=0, data=[17, 0]),
   midi.NoteOnEvent(tick=2761800, channel=0, data=[4, 100]),
   midi.NoteOffEvent(tick=2761900, channel=0, data=[4, 0]),
   midi.NoteOnEvent(tick=2762000, channel=0, data=[19, 100]),
   midi.NoteOffEvent(tick=2762100, channel=0, data=[19, 0]),
   midi.NoteOnEvent(tick=2762200, channel=0, data=[20, 100]),
   midi.NoteOffEvent(tick=2762300, channel=0, data=[20, 0]),
   midi.NoteOnEvent(tick=2762400, channel=0, data=[17, 100]),
   midi.NoteOffEvent(tick=2762500, channel=0, data=[17, 0]),
   midi.NoteOnEvent(tick=2762600, channel=0, data=[13, 100]),
   midi.NoteOffEvent(tick=2762700, channel=0, data=[13, 0]),
   midi.NoteOnEvent(tick=2762800, channel=0, data=[4, 100]),
   midi.NoteOffEvent(tick=2762900, channel=0, data=[4, 0]),
   midi.NoteOnEvent(tick=2763000, channel=0, data=[3, 100]),
   midi.NoteOffEvent(tick=2763100, channel=0, data=[3, 0]),
   midi.NoteOnEvent(tick=2763200, channel=0, data=[37, 100]),
   midi.NoteOffEvent(tick=2763300, channel=0, data=[37, 0]),
   midi.NoteOnEvent(tick=2763400, channel=0, data=[56, 100]),
   midi.NoteOffEvent(tick=2763500, channel=0, data=[56, 0]),
   midi.NoteOnEvent(tick=2763600, channel=0, data=[36, 100]),
   midi.NoteOffEvent(tick=2763700, channel=0, data=[36, 0]),
   midi.NoteOnEvent(tick=2763800, channel=0, data=[36, 100]),
   midi.NoteOffEvent(tick=2763900, channel=0, data=[36, 0]),
   midi.NoteOnEvent(tick=2764000, channel=0, data=[36, 100]),
   midi.NoteOffEvent(tick=2764100, channel=0, data=[36, 0]),
   midi.NoteOnEvent(tick=2764200, channel=0, data=[36, 100]),
   midi.NoteOffEvent(tick=2764300, channel=0, data=[36, 0]),
   midi.NoteOnEvent(tick=2764400, channel=0, data=[19, 100]),
   midi.NoteOffEvent(tick=2764500, channel=0, data=[19, 0]),
   midi.NoteOnEvent(tick=2764600, channel=0, data=[14, 100]),
   midi.NoteOffEvent(tick=2764700, channel=0, data=[14, 0]),
   midi.NoteOnEvent(tick=2764800, channel=0, data=[36, 100]),
   midi.NoteOffEvent(tick=2764900, channel=0, data=[36, 0]),
   midi.NoteOnEvent(tick=2765000, channel=0, data=[21, 100]),
   midi.NoteOffEvent(tick=2765100, channel=0, data=[21, 0]),
   midi.NoteOnEvent(tick=2765200, channel=0, data=[8, 100]),
   midi.NoteOffEvent(tick=2765300, channel=0, data=[8, 0]),
   midi.NoteOnEvent(tick=2765400, channel=0, data=[4, 100]),
   midi.NoteOffEvent(tick=2765500, channel=0, data=[4, 0]),
   midi.NoteOnEvent(tick=2765600, channel=0, data=[22, 100]),
   midi.NoteOffEvent(tick=2765700, channel=0, data=[22, 0]),
   midi.NoteOnEvent(tick=2765800, channel=0, data=[36, 100]),
   midi.NoteOffEvent(tick=2765900, channel=0, data=[36, 0]),
   midi.NoteOnEvent(tick=2766000, channel=0, data=[19, 100]),
   midi.NoteOffEvent(tick=2766100, channel=0, data=[19, 0]),
   midi.NoteOnEvent(tick=2766200, channel=0, data=[7, 100]),
   midi.NoteOffEvent(tick=2766300, channel=0, data=[7, 0]),
   midi.NoteOnEvent(tick=2766400, channel=0, data=[4, 100]),
   midi.NoteOffEvent(tick=2766500, channel=0, data=[4, 0]),
   midi.NoteOnEvent(tick=2766600, channel=0, data=[36, 100]),
   midi.NoteOffEvent(tick=2766700, channel=0, data=[36, 0]),
   midi.NoteOnEvent(tick=2766800, channel=0, data=[17, 100]),
   midi.NoteOffEvent(tick=2766900, channel=0, data=[17, 0]),
   midi.NoteOnEvent(tick=2767000, channel=0, data=[4, 100]),
   midi.NoteOffEvent(tick=2767100, channel=0, data=[4, 0]),
   midi.NoteOnEvent(tick=2767200, channel=0, data=[18, 100]),
   midi.NoteOffEvent(tick=2767300, channel=0, data=[18, 0]),
   midi.NoteOnEvent(tick=2767400, channel=0, data=[20, 100]),
   midi.NoteOffEvent(tick=2767500, channel=0, data=[20, 0]),
   midi.NoteOnEvent(tick=2767600, channel=0, data=[11, 100]),
   midi.NoteOffEvent(tick=2767700, channel=0, data=[11, 0]),
   midi.NoteOnEvent(tick=2767800, channel=0, data=[19, 100]),
   midi.NoteOffEvent(tick=2767900, channel=0, data=[19, 0]),
   midi.NoteOnEvent(tick=2768000, channel=0, data=[38, 100]),
   midi.NoteOffEvent(tick=2768100, channel=0, data=[38, 0]),
   midi.NoteOnEvent(tick=2768200, channel=0, data=[36, 100]),
   midi.NoteOffEvent(tick=2768300, channel=0, data=[36, 0]),
   midi.NoteOnEvent(tick=2768400, channel=0, data=[3, 100]),
   midi.NoteOffEvent(tick=2768500, channel=0, data=[3, 0]),
   midi.NoteOnEvent(tick=2768600, channel=0, data=[8, 100]),
   midi.NoteOffEvent(tick=2768700, channel=0, data=[8, 0]),
   midi.NoteOnEvent(tick=2768800, channel=0, data=[18, 100]),
   midi.NoteOffEvent(tick=2768900, channel=0, data=[18, 0]),
   midi.NoteOnEvent(tick=2769000, channel=0, data=[15, 100]),
   midi.NoteOffEvent(tick=2769100, channel=0, data=[15, 0]),
   midi.NoteOnEvent(tick=2769200, channel=0, data=[11, 100]),
   midi.NoteOffEvent(tick=2769300, channel=0, data=[11, 0]),
   midi.NoteOnEvent(tick=2769400, channel=0, data=[0, 100]),
   midi.NoteOffEvent(tick=2769500, channel=0, data=[0, 0]),
   midi.NoteOnEvent(tick=2769600, channel=0, data=[24, 100]),
   midi.NoteOffEvent(tick=2769700, channel=0, data=[24, 0]),
   midi.NoteOnEvent(tick=2769800, channel=0, data=[36, 100]),
   midi.NoteOffEvent(tick=2769900, channel=0, data=[36, 0]),
   midi.NoteOnEvent(tick=2770000, channel=0, data=[19, 100]),
   midi.NoteOffEvent(tick=2770100, channel=0, data=[19, 0]),
   midi.NoteOnEvent(tick=2770200, channel=0, data=[7, 100]),
   midi.NoteOffEvent(tick=2770300, channel=0, data=[7, 0]),
   midi.NoteOnEvent(tick=2770400, channel=0, data=[4, 100]),
   midi.NoteOffEvent(tick=2770500, channel=0, data=[4, 0]),
   midi.NoteOnEvent(tick=2770600, channel=0, data=[36, 100]),
   midi.NoteOffEvent(tick=2770700, channel=0, data=[36, 0]),
   midi.NoteOnEvent(tick=2770800, channel=0, data=[21, 100]),
   midi.NoteOffEvent(tick=2770900, channel=0, data=[21, 0]),
   midi.NoteOnEvent(tick=2771000, channel=0, data=[0, 100]),
   midi.NoteOffEvent(tick=2771100, channel=0, data=[0, 0]),
   midi.NoteOnEvent(tick=2771200, channel=0, data=[11, 100]),
   midi.NoteOffEvent(tick=2771300, channel=0, data=[11, 0]),
   midi.NoteOnEvent(tick=2771400, channel=0, data=[20, 100]),
   midi.NoteOffEvent(tick=2771500, channel=0, data=[20, 0]),
   midi.NoteOnEvent(tick=2771600, channel=0, data=[4, 100]),
   midi.NoteOffEvent(tick=2771700, channel=0, data=[4, 0]),
   midi.NoteOnEvent(tick=2771800, channel=0, data=[36, 100]),
   midi.NoteOffEvent(tick=2771900, channel=0, data=[36, 0]),
   midi.NoteOnEvent(tick=2772000, channel=0, data=[14, 100]),
   midi.NoteOffEvent(tick=2772100, channel=0, data=[14, 0]),
   midi.NoteOnEvent(tick=2772200, channel=0, data=[5, 100]),
   midi.NoteOffEvent(tick=2772300, channel=0, data=[5, 0]),
   midi.NoteOnEvent(tick=2772400, channel=0, data=[36, 100]),
   midi.NoteOffEvent(tick=2772500, channel=0, data=[36, 0]),
   midi.NoteOnEvent(tick=2772600, channel=0, data=[19, 100]),
   midi.NoteOffEvent(tick=2772700, channel=0, data=[19, 0]),
   midi.NoteOnEvent(tick=2772800, channel=0, data=[7, 100]),
   midi.NoteOffEvent(tick=2772900, channel=0, data=[7, 0]),
   midi.NoteOnEvent(tick=2773000, channel=0, data=[4, 100]),
   midi.NoteOffEvent(tick=2773100, channel=0, data=[4, 0]),
   midi.NoteOnEvent(tick=2773200, channel=0, data=[36, 100]),
   midi.NoteOffEvent(tick=2773300, channel=0, data=[36, 0]),
   midi.NoteOnEvent(tick=2773400, channel=0, data=[21, 100]),
   midi.NoteOffEvent(tick=2773500, channel=0, data=[21, 0]),
   midi.NoteOnEvent(tick=2773600, channel=0, data=[0, 100]),
   midi.NoteOffEvent(tick=2773700, channel=0, data=[0, 0]),
   midi.NoteOnEvent(tick=2773800, channel=0, data=[17, 100]),
   midi.NoteOffEvent(tick=2773900, channel=0, data=[17, 0]),
   midi.NoteOnEvent(tick=2774000, channel=0, data=[8, 100]),
   midi.NoteOffEvent(tick=2774100, channel=0, data=[8, 0]),
   midi.NoteOnEvent(tick=2774200, channel=0, data=[0, 100]),
   midi.NoteOffEvent(tick=2774300, channel=0, data=[0, 0]),
   midi.NoteOnEvent(tick=2774400, channel=0, data=[1, 100]),
   midi.NoteOffEvent(tick=2774500, channel=0, data=[1, 0]),
   midi.NoteOnEvent(tick=2774600, channel=0, data=[11, 100]),
   midi.NoteOffEvent(tick=2774700, channel=0, data=[11, 0]),
   midi.NoteOnEvent(tick=2774800, channel=0, data=[4, 100]),
   midi.NoteOffEvent(tick=2774900, channel=0, data=[4, 0]),
   midi.NoteOnEvent(tick=2775000, channel=0, data=[38, 100]),
   midi.NoteOffEvent(tick=2775100, channel=0, data=[38, 0]),
   midi.NoteOnEvent(tick=2775200, channel=0, data=[36, 100]),
   midi.NoteOffEvent(tick=2775300, channel=0, data=[36, 0]),
   midi.NoteOnEvent(tick=2775400, channel=0, data=[0, 100]),
   midi.NoteOffEvent(tick=2775500, channel=0, data=[0, 0]),
   midi.NoteOnEvent(tick=2775600, channel=0, data=[18, 100]),
   midi.NoteOffEvent(tick=2775700, channel=0, data=[18, 0]),
   midi.NoteOnEvent(tick=2775800, channel=0, data=[36, 100]),
   midi.NoteOffEvent(tick=2775900, channel=0, data=[36, 0]),
   midi.NoteOnEvent(tick=2776000, channel=0, data=[5, 100]),
   midi.NoteOffEvent(tick=2776100, channel=0, data=[5, 0]),
   midi.NoteOnEvent(tick=2776200, channel=0, data=[14, 100]),
   midi.NoteOffEvent(tick=2776300, channel=0, data=[14, 0]),
   midi.NoteOnEvent(tick=2776400, channel=0, data=[11, 100]),
   midi.NoteOffEvent(tick=2776500, channel=0, data=[11, 0]),
   midi.NoteOnEvent(tick=2776600, channel=0, data=[11, 100]),
   midi.NoteOffEvent(tick=2776700, channel=0, data=[11, 0]),
   midi.NoteOnEvent(tick=2776800, channel=0, data=[14, 100]),
   midi.NoteOffEvent(tick=2776900, channel=0, data=[14, 0]),
   midi.NoteOnEvent(tick=2777000, channel=0, data=[22, 100]),
   midi.NoteOffEvent(tick=2777100, channel=0, data=[22, 0]),
   midi.NoteOnEvent(tick=2777200, channel=0, data=[18, 100]),
   midi.NoteOffEvent(tick=2777300, channel=0, data=[18, 0]),
   midi.NoteOnEvent(tick=2777400, channel=0, data=[46, 100]),
   midi.NoteOffEvent(tick=2777500, channel=0, data=[46, 0]),
   midi.NoteOnEvent(tick=2777600, channel=0, data=[56, 100]),
   midi.NoteOffEvent(tick=2777700, channel=0, data=[56, 0]),
   midi.NoteOnEvent(tick=2777800, channel=0, data=[56, 100]),
   midi.NoteOffEvent(tick=2777900, channel=0, data=[56, 0]),
   midi.NoteOnEvent(tick=2778000, channel=0, data=[56, 100]),
   midi.NoteOffEvent(tick=2778100, channel=0, data=[56, 0]),
   midi.NoteOnEvent(tick=2778200, channel=0, data=[36, 100]),
   midi.NoteOffEvent(tick=2778300, channel=0, data=[36, 0]),
   midi.NoteOnEvent(tick=2778400, channel=0, data=[36, 100]),
   midi.NoteOffEvent(tick=2778500, channel=0, data=[36, 0]),
   midi.NoteOnEvent(tick=2778600, channel=0, data=[36, 100]),
   midi.NoteOffEvent(tick=2778700, channel=0, data=[36, 0]),
   midi.NoteOnEvent(tick=2778800, channel=0, data=[36, 100]),
   midi.NoteOffEvent(tick=2778900, channel=0, data=[36, 0]),
   midi.NoteOnEvent(tick=2779000, channel=0, data=[36, 100]),
   midi.NoteOffEvent(tick=2779100, channel=0, data=[36, 0]),
   midi.NoteOnEvent(tick=2779200, channel=0, data=[36, 100]),
   midi.NoteOffEvent(tick=2779300, channel=0, data=[36, 0]),
   midi.NoteOnEvent(tick=2779400, channel=0, data=[36, 100]),
   midi.NoteOffEvent(tick=2779500, channel=0, data=[36, 0]),
   midi.NoteOnEvent(tick=2779600, channel=0, data=[36, 100]),
   midi.NoteOffEvent(tick=2779700, channel=0, data=[36, 0]),
   midi.NoteOnEvent(tick=2779800, channel=0, data=[2, 100]),
   midi.NoteOffEvent(tick=2779900, channel=0, data=[2, 0]),
   midi.NoteOnEvent(tick=2780000, channel=0, data=[46, 100]),
   midi.NoteOffEvent(tick=2780100, channel=0, data=[46, 0]),
   midi.NoteOnEvent(tick=2780200, channel=0, data=[78, 100]),
   midi.NoteOffEvent(tick=2780300, channel=0, data=[78, 0]),
   midi.NoteOnEvent(tick=2780400, channel=0, data=[15, 100]),
   midi.NoteOffEvent(tick=2780500, channel=0, data=[15, 0]),
   midi.NoteOnEvent(tick=2780600, channel=0, data=[18, 100]),
   midi.NoteOffEvent(tick=2780700, channel=0, data=[18, 0]),
   midi.NoteOnEvent(tick=2780800, channel=0, data=[73, 100]),
   midi.NoteOffEvent(tick=2780900, channel=0, data=[73, 0]),
   midi.NoteOnEvent(tick=2781000, channel=0, data=[36, 100]),
   midi.NoteOffEvent(tick=2781100, channel=0, data=[36, 0]),
   midi.NoteOnEvent(tick=2781200, channel=0, data=[74, 100]),
   midi.NoteOffEvent(tick=2781300, channel=0, data=[74, 0]),
   midi.NoteOnEvent(tick=2781400, channel=0, data=[0, 100]),
   midi.NoteOffEvent(tick=2781500, channel=0, data=[0, 0]),
   midi.NoteOnEvent(tick=2781600, channel=0, data=[36, 100]),
   midi.NoteOffEvent(tick=2781700, channel=0, data=[36, 0]),
   midi.NoteOnEvent(tick=2781800, channel=0, data=[69, 100]),
   midi.NoteOffEvent(tick=2781900, channel=0, data=[69, 0]),
   midi.NoteOnEvent(tick=2782000, channel=0, data=[36, 100]),
   midi.NoteOffEvent(tick=2782100, channel=0, data=[36, 0]),
   midi.NoteOnEvent(tick=2782200, channel=0, data=[33, 100]),
   midi.NoteOffEvent(tick=2782300, channel=0, data=[33, 0]),
   midi.NoteOnEvent(tick=2782400, channel=0, data=[56, 100]),
   midi.NoteOffEvent(tick=2782500, channel=0, data=[56, 0]),
   midi.NoteOnEvent(tick=2782600, channel=0, data=[36, 100]),
   midi.NoteOffEvent(tick=2782700, channel=0, data=[36, 0]),
   midi.NoteOnEvent(tick=2782800, channel=0, data=[36, 100]),
   midi.NoteOffEvent(tick=2782900, channel=0, data=[36, 0]),
   midi.NoteOnEvent(tick=2783000, channel=0, data=[36, 100]),
   midi.NoteOffEvent(tick=2783100, channel=0, data=[36, 0]),
   midi.NoteOnEvent(tick=2783200, channel=0, data=[36, 100]),
   midi.NoteOffEvent(tick=2783300, channel=0, data=[36, 0]),
   midi.NoteOnEvent(tick=2783400, channel=0, data=[36, 100]),
   midi.NoteOffEvent(tick=2783500, channel=0, data=[36, 0]),
   midi.NoteOnEvent(tick=2783600, channel=0, data=[36, 100]),
   midi.NoteOffEvent(tick=2783700, channel=0, data=[36, 0]),
   midi.NoteOnEvent(tick=2783800, channel=0, data=[36, 100]),
   midi.NoteOffEvent(tick=2783900, channel=0, data=[36, 0]),
   midi.NoteOnEvent(tick=2784000, channel=0, data=[36, 100]),
   midi.NoteOffEvent(tick=2784100, channel=0, data=[36, 0]),
   midi.NoteOnEvent(tick=2784200, channel=0, data=[2, 100]),
   midi.NoteOffEvent(tick=2784300, channel=0, data=[2, 0]),
   midi.NoteOnEvent(tick=2784400, channel=0, data=[46, 100]),
   midi.NoteOffEvent(tick=2784500, channel=0, data=[46, 0]),
   midi.NoteOnEvent(tick=2784600, channel=0, data=[78, 100]),
   midi.NoteOffEvent(tick=2784700, channel=0, data=[78, 0]),
   midi.NoteOnEvent(tick=2784800, channel=0, data=[15, 100]),
   midi.NoteOffEvent(tick=2784900, channel=0, data=[15, 0]),
   midi.NoteOnEvent(tick=2785000, channel=0, data=[18, 100]),
   midi.NoteOffEvent(tick=2785100, channel=0, data=[18, 0]),
   midi.NoteOnEvent(tick=2785200, channel=0, data=[73, 100]),
   midi.NoteOffEvent(tick=2785300, channel=0, data=[73, 0]),
   midi.NoteOnEvent(tick=2785400, channel=0, data=[36, 100]),
   midi.NoteOffEvent(tick=2785500, channel=0, data=[36, 0]),
   midi.NoteOnEvent(tick=2785600, channel=0, data=[55, 100]),
   midi.NoteOffEvent(tick=2785700, channel=0, data=[55, 0]),
   midi.NoteOnEvent(tick=2785800, channel=0, data=[55, 100]),
   midi.NoteOffEvent(tick=2785900, channel=0, data=[55, 0]),
   midi.NoteOnEvent(tick=2786000, channel=0, data=[74, 100]),
   midi.NoteOffEvent(tick=2786100, channel=0, data=[74, 0]),
   midi.NoteOnEvent(tick=2786200, channel=0, data=[0, 100]),
   midi.NoteOffEvent(tick=2786300, channel=0, data=[0, 0]),
   midi.NoteOnEvent(tick=2786400, channel=0, data=[56, 100]),
   midi.NoteOffEvent(tick=2786500, channel=0, data=[56, 0]),
   midi.NoteOnEvent(tick=2786600, channel=0, data=[36, 100]),
   midi.NoteOffEvent(tick=2786700, channel=0, data=[36, 0]),
   midi.NoteOnEvent(tick=2786800, channel=0, data=[36, 100]),
   midi.NoteOffEvent(tick=2786900, channel=0, data=[36, 0]),
   midi.NoteOnEvent(tick=2787000, channel=0, data=[36, 100]),
   midi.NoteOffEvent(tick=2787100, channel=0, data=[36, 0]),
   midi.NoteOnEvent(tick=2787200, channel=0, data=[36, 100]),
   midi.NoteOffEvent(tick=2787300, channel=0, data=[36, 0]),
   midi.NoteOnEvent(tick=2787400, channel=0, data=[36, 100]),
   midi.NoteOffEvent(tick=2787500, channel=0, data=[36, 0]),
   midi.NoteOnEvent(tick=2787600, channel=0, data=[36, 100]),
   midi.NoteOffEvent(tick=2787700, channel=0, data=[36, 0]),
   midi.NoteOnEvent(tick=2787800, channel=0, data=[36, 100]),
   midi.NoteOffEvent(tick=2787900, channel=0, data=[36, 0]),
   midi.NoteOnEvent(tick=2788000, channel=0, data=[36, 100]),
   midi.NoteOffEvent(tick=2788100, channel=0, data=[36, 0]),
   midi.NoteOnEvent(tick=2788200, channel=0, data=[2, 100]),
   midi.NoteOffEvent(tick=2788300, channel=0, data=[2, 0]),
   midi.NoteOnEvent(tick=2788400, channel=0, data=[46, 100]),
   midi.NoteOffEvent(tick=2788500, channel=0, data=[46, 0]),
   midi.NoteOnEvent(tick=2788600, channel=0, data=[78, 100]),
   midi.NoteOffEvent(tick=2788700, channel=0, data=[78, 0]),
   midi.NoteOnEvent(tick=2788800, channel=0, data=[15, 100]),
   midi.NoteOffEvent(tick=2788900, channel=0, data=[15, 0]),
   midi.NoteOnEvent(tick=2789000, channel=0, data=[18, 100]),
   midi.NoteOffEvent(tick=2789100, channel=0, data=[18, 0]),
   midi.NoteOnEvent(tick=2789200, channel=0, data=[73, 100]),
   midi.NoteOffEvent(tick=2789300, channel=0, data=[73, 0]),
   midi.NoteOnEvent(tick=2789400, channel=0, data=[36, 100]),
   midi.NoteOffEvent(tick=2789500, channel=0, data=[36, 0]),
   midi.NoteOnEvent(tick=2789600, channel=0, data=[74, 100]),
   midi.NoteOffEvent(tick=2789700, channel=0, data=[74, 0]),
   midi.NoteOnEvent(tick=2789800, channel=0, data=[0, 100]),
   midi.NoteOffEvent(tick=2789900, channel=0, data=[0, 0]),
   midi.NoteOnEvent(tick=2790000, channel=0, data=[56, 100]),
   midi.NoteOffEvent(tick=2790100, channel=0, data=[56, 0]),
   midi.NoteOnEvent(tick=2790200, channel=0, data=[36, 100]),
   midi.NoteOffEvent(tick=2790300, channel=0, data=[36, 0]),
   midi.NoteOnEvent(tick=2790400, channel=0, data=[36, 100]),
   midi.NoteOffEvent(tick=2790500, channel=0, data=[36, 0]),
   midi.NoteOnEvent(tick=2790600, channel=0, data=[36, 100]),
   midi.NoteOffEvent(tick=2790700, channel=0, data=[36, 0]),
   midi.NoteOnEvent(tick=2790800, channel=0, data=[36, 100]),
   midi.NoteOffEvent(tick=2790900, channel=0, data=[36, 0]),
   midi.NoteOnEvent(tick=2791000, channel=0, data=[36, 100]),
   midi.NoteOffEvent(tick=2791100, channel=0, data=[36, 0]),
   midi.NoteOnEvent(tick=2791200, channel=0, data=[36, 100]),
   midi.NoteOffEvent(tick=2791300, channel=0, data=[36, 0]),
   midi.NoteOnEvent(tick=2791400, channel=0, data=[36, 100]),
   midi.NoteOffEvent(tick=2791500, channel=0, data=[36, 0]),
   midi.NoteOnEvent(tick=2791600, channel=0, data=[36, 100]),
   midi.NoteOffEvent(tick=2791700, channel=0, data=[36, 0]),
   midi.NoteOnEvent(tick=2791800, channel=0, data=[34, 100]),
   midi.NoteOffEvent(tick=2791900, channel=0, data=[34, 0]),
   midi.NoteOnEvent(tick=2792000, channel=0, data=[56, 100]),
   midi.NoteOffEvent(tick=2792100, channel=0, data=[56, 0]),
   midi.NoteOnEvent(tick=2792200, channel=0, data=[56, 100]),
   midi.NoteOffEvent(tick=2792300, channel=0, data=[56, 0]),
   midi.NoteOnEvent(tick=2792400, channel=0, data=[56, 100]),
   midi.NoteOffEvent(tick=2792500, channel=0, data=[56, 0]),
   midi.NoteOnEvent(tick=2792600, channel=0, data=[36, 100]),
   midi.NoteOffEvent(tick=2792700, channel=0, data=[36, 0]),
   midi.NoteOnEvent(tick=2792800, channel=0, data=[36, 100]),
   midi.NoteOffEvent(tick=2792900, channel=0, data=[36, 0]),
   midi.NoteOnEvent(tick=2793000, channel=0, data=[36, 100]),
   midi.NoteOffEvent(tick=2793100, channel=0, data=[36, 0]),
   midi.NoteOnEvent(tick=2793200, channel=0, data=[36, 100]),
   midi.NoteOffEvent(tick=2793300, channel=0, data=[36, 0]),
   midi.NoteOnEvent(tick=2793400, channel=0, data=[19, 100]),
   midi.NoteOffEvent(tick=2793500, channel=0, data=[19, 0]),
   midi.NoteOnEvent(tick=2793600, channel=0, data=[14, 100]),
   midi.NoteOffEvent(tick=2793700, channel=0, data=[14, 0]),
   midi.NoteOnEvent(tick=2793800, channel=0, data=[36, 100]),
   midi.NoteOffEvent(tick=2793900, channel=0, data=[36, 0]),
   midi.NoteOnEvent(tick=2794000, channel=0, data=[5, 100]),
   midi.NoteOffEvent(tick=2794100, channel=0, data=[5, 0]),
   midi.NoteOnEvent(tick=2794200, channel=0, data=[14, 100]),
   midi.NoteOffEvent(tick=2794300, channel=0, data=[14, 0]),
   midi.NoteOnEvent(tick=2794400, channel=0, data=[17, 100]),
   midi.NoteOffEvent(tick=2794500, channel=0, data=[17, 0]),
   midi.NoteOnEvent(tick=2794600, channel=0, data=[2, 100]),
   midi.NoteOffEvent(tick=2794700, channel=0, data=[2, 0]),
   midi.NoteOnEvent(tick=2794800, channel=0, data=[4, 100]),
   midi.NoteOffEvent(tick=2794900, channel=0, data=[4, 0]),
   midi.NoteOnEvent(tick=2795000, channel=0, data=[36, 100]),
   midi.NoteOffEvent(tick=2795100, channel=0, data=[36, 0]),
   midi.NoteOnEvent(tick=2795200, channel=0, data=[0, 100]),
   midi.NoteOffEvent(tick=2795300, channel=0, data=[0, 0]),
   midi.NoteOnEvent(tick=2795400, channel=0, data=[36, 100]),
   midi.NoteOffEvent(tick=2795500, channel=0, data=[36, 0]),
   midi.NoteOnEvent(tick=2795600, channel=0, data=[21, 100]),
   midi.NoteOffEvent(tick=2795700, channel=0, data=[21, 0]),
   midi.NoteOnEvent(tick=2795800, channel=0, data=[0, 100]),
   midi.NoteOffEvent(tick=2795900, channel=0, data=[0, 0]),
   midi.NoteOnEvent(tick=2796000, channel=0, data=[11, 100]),
   midi.NoteOffEvent(tick=2796100, channel=0, data=[11, 0]),
   midi.NoteOnEvent(tick=2796200, channel=0, data=[20, 100]),
   midi.NoteOffEvent(tick=2796300, channel=0, data=[20, 0]),
   midi.NoteOnEvent(tick=2796400, channel=0, data=[4, 100]),
   midi.NoteOffEvent(tick=2796500, channel=0, data=[4, 0]),
   midi.NoteOnEvent(tick=2796600, channel=0, data=[36, 100]),
   midi.NoteOffEvent(tick=2796700, channel=0, data=[36, 0]),
   midi.NoteOnEvent(tick=2796800, channel=0, data=[19, 100]),
   midi.NoteOffEvent(tick=2796900, channel=0, data=[19, 0]),
   midi.NoteOnEvent(tick=2797000, channel=0, data=[14, 100]),
   midi.NoteOffEvent(tick=2797100, channel=0, data=[14, 0]),
   midi.NoteOnEvent(tick=2797200, channel=0, data=[36, 100]),
   midi.NoteOffEvent(tick=2797300, channel=0, data=[36, 0]),
   midi.NoteOnEvent(tick=2797400, channel=0, data=[1, 100]),
   midi.NoteOffEvent(tick=2797500, channel=0, data=[1, 0]),
   midi.NoteOnEvent(tick=2797600, channel=0, data=[4, 100]),
   midi.NoteOffEvent(tick=2797700, channel=0, data=[4, 0]),
   midi.NoteOnEvent(tick=2797800, channel=0, data=[36, 100]),
   midi.NoteOffEvent(tick=2797900, channel=0, data=[36, 0]),
   midi.NoteOnEvent(tick=2798000, channel=0, data=[17, 100]),
   midi.NoteOffEvent(tick=2798100, channel=0, data=[17, 0]),
   midi.NoteOnEvent(tick=2798200, channel=0, data=[4, 100]),
   midi.NoteOffEvent(tick=2798300, channel=0, data=[4, 0]),
   midi.NoteOnEvent(tick=2798400, channel=0, data=[19, 100]),
   midi.NoteOffEvent(tick=2798500, channel=0, data=[19, 0]),
   midi.NoteOnEvent(tick=2798600, channel=0, data=[20, 100]),
   midi.NoteOffEvent(tick=2798700, channel=0, data=[20, 0]),
   midi.NoteOnEvent(tick=2798800, channel=0, data=[17, 100]),
   midi.NoteOffEvent(tick=2798900, channel=0, data=[17, 0]),
   midi.NoteOnEvent(tick=2799000, channel=0, data=[13, 100]),
   midi.NoteOffEvent(tick=2799100, channel=0, data=[13, 0]),
   midi.NoteOnEvent(tick=2799200, channel=0, data=[4, 100]),
   midi.NoteOffEvent(tick=2799300, channel=0, data=[4, 0]),
   midi.NoteOnEvent(tick=2799400, channel=0, data=[3, 100]),
   midi.NoteOffEvent(tick=2799500, channel=0, data=[3, 0]),
   midi.NoteOnEvent(tick=2799600, channel=0, data=[38, 100]),
   midi.NoteOffEvent(tick=2799700, channel=0, data=[38, 0]),
   midi.NoteOnEvent(tick=2799800, channel=0, data=[36, 100]),
   midi.NoteOffEvent(tick=2799900, channel=0, data=[36, 0]),
   midi.NoteOnEvent(tick=2800000, channel=0, data=[4, 100]),
   midi.NoteOffEvent(tick=2800100, channel=0, data=[4, 0]),
   midi.NoteOnEvent(tick=2800200, channel=0, data=[13, 100]),
   midi.NoteOffEvent(tick=2800300, channel=0, data=[13, 0]),
   midi.NoteOnEvent(tick=2800400, channel=0, data=[2, 100]),
   midi.NoteOffEvent(tick=2800500, channel=0, data=[2, 0]),
   midi.NoteOnEvent(tick=2800600, channel=0, data=[11, 100]),
   midi.NoteOffEvent(tick=2800700, channel=0, data=[11, 0]),
   midi.NoteOnEvent(tick=2800800, channel=0, data=[14, 100]),
   midi.NoteOffEvent(tick=2800900, channel=0, data=[14, 0]),
   midi.NoteOnEvent(tick=2801000, channel=0, data=[18, 100]),
   midi.NoteOffEvent(tick=2801100, channel=0, data=[18, 0]),
   midi.NoteOnEvent(tick=2801200, channel=0, data=[4, 100]),
   midi.NoteOffEvent(tick=2801300, channel=0, data=[4, 0]),
   midi.NoteOnEvent(tick=2801400, channel=0, data=[36, 100]),
   midi.NoteOffEvent(tick=2801500, channel=0, data=[36, 0]),
   midi.NoteOnEvent(tick=2801600, channel=0, data=[19, 100]),
   midi.NoteOffEvent(tick=2801700, channel=0, data=[19, 0]),
   midi.NoteOnEvent(tick=2801800, channel=0, data=[7, 100]),
   midi.NoteOffEvent(tick=2801900, channel=0, data=[7, 0]),
   midi.NoteOnEvent(tick=2802000, channel=0, data=[4, 100]),
   midi.NoteOffEvent(tick=2802100, channel=0, data=[4, 0]),
   midi.NoteOnEvent(tick=2802200, channel=0, data=[36, 100]),
   midi.NoteOffEvent(tick=2802300, channel=0, data=[36, 0]),
   midi.NoteOnEvent(tick=2802400, channel=0, data=[21, 100]),
   midi.NoteOffEvent(tick=2802500, channel=0, data=[21, 0]),
   midi.NoteOnEvent(tick=2802600, channel=0, data=[0, 100]),
   midi.NoteOffEvent(tick=2802700, channel=0, data=[0, 0]),
   midi.NoteOnEvent(tick=2802800, channel=0, data=[17, 100]),
   midi.NoteOffEvent(tick=2802900, channel=0, data=[17, 0]),
   midi.NoteOnEvent(tick=2803000, channel=0, data=[8, 100]),
   midi.NoteOffEvent(tick=2803100, channel=0, data=[8, 0]),
   midi.NoteOnEvent(tick=2803200, channel=0, data=[0, 100]),
   midi.NoteOffEvent(tick=2803300, channel=0, data=[0, 0]),
   midi.NoteOnEvent(tick=2803400, channel=0, data=[1, 100]),
   midi.NoteOffEvent(tick=2803500, channel=0, data=[1, 0]),
   midi.NoteOnEvent(tick=2803600, channel=0, data=[11, 100]),
   midi.NoteOffEvent(tick=2803700, channel=0, data=[11, 0]),
   midi.NoteOnEvent(tick=2803800, channel=0, data=[4, 100]),
   midi.NoteOffEvent(tick=2803900, channel=0, data=[4, 0]),
   midi.NoteOnEvent(tick=2804000, channel=0, data=[36, 100]),
   midi.NoteOffEvent(tick=2804100, channel=0, data=[36, 0]),
   midi.NoteOnEvent(tick=2804200, channel=0, data=[0, 100]),
   midi.NoteOffEvent(tick=2804300, channel=0, data=[0, 0]),
   midi.NoteOnEvent(tick=2804400, channel=0, data=[13, 100]),
   midi.NoteOffEvent(tick=2804500, channel=0, data=[13, 0]),
   midi.NoteOnEvent(tick=2804600, channel=0, data=[3, 100]),
   midi.NoteOffEvent(tick=2804700, channel=0, data=[3, 0]),
   midi.NoteOnEvent(tick=2804800, channel=0, data=[36, 100]),
   midi.NoteOffEvent(tick=2804900, channel=0, data=[36, 0]),
   midi.NoteOnEvent(tick=2805000, channel=0, data=[19, 100]),
   midi.NoteOffEvent(tick=2805100, channel=0, data=[19, 0]),
   midi.NoteOnEvent(tick=2805200, channel=0, data=[7, 100]),
   midi.NoteOffEvent(tick=2805300, channel=0, data=[7, 0]),
   midi.NoteOnEvent(tick=2805400, channel=0, data=[4, 100]),
   midi.NoteOffEvent(tick=2805500, channel=0, data=[4, 0]),
   midi.NoteOnEvent(tick=2805600, channel=0, data=[36, 100]),
   midi.NoteOffEvent(tick=2805700, channel=0, data=[36, 0]),
   midi.NoteOnEvent(tick=2805800, channel=0, data=[14, 100]),
   midi.NoteOffEvent(tick=2805900, channel=0, data=[14, 0]),
   midi.NoteOnEvent(tick=2806000, channel=0, data=[15, 100]),
   midi.NoteOffEvent(tick=2806100, channel=0, data=[15, 0]),
   midi.NoteOnEvent(tick=2806200, channel=0, data=[4, 100]),
   midi.NoteOffEvent(tick=2806300, channel=0, data=[4, 0]),
   midi.NoteOnEvent(tick=2806400, channel=0, data=[17, 100]),
   midi.NoteOffEvent(tick=2806500, channel=0, data=[17, 0]),
   midi.NoteOnEvent(tick=2806600, channel=0, data=[0, 100]),
   midi.NoteOffEvent(tick=2806700, channel=0, data=[0, 0]),
   midi.NoteOnEvent(tick=2806800, channel=0, data=[19, 100]),
   midi.NoteOffEvent(tick=2806900, channel=0, data=[19, 0]),
   midi.NoteOnEvent(tick=2807000, channel=0, data=[14, 100]),
   midi.NoteOffEvent(tick=2807100, channel=0, data=[14, 0]),
   midi.NoteOnEvent(tick=2807200, channel=0, data=[17, 100]),
   midi.NoteOffEvent(tick=2807300, channel=0, data=[17, 0]),
   midi.NoteOnEvent(tick=2807400, channel=0, data=[36, 100]),
   midi.NoteOffEvent(tick=2807500, channel=0, data=[36, 0]),
   midi.NoteOnEvent(tick=2807600, channel=0, data=[8, 100]),
   midi.NoteOffEvent(tick=2807700, channel=0, data=[8, 0]),
   midi.NoteOnEvent(tick=2807800, channel=0, data=[13, 100]),
   midi.NoteOffEvent(tick=2807900, channel=0, data=[13, 0]),
   midi.NoteOnEvent(tick=2808000, channel=0, data=[36, 100]),
   midi.NoteOffEvent(tick=2808100, channel=0, data=[36, 0]),
   midi.NoteOnEvent(tick=2808200, channel=0, data=[56, 100]),
   midi.NoteOffEvent(tick=2808300, channel=0, data=[56, 0]),
   midi.NoteOnEvent(tick=2808400, channel=0, data=[36, 100]),
   midi.NoteOffEvent(tick=2808500, channel=0, data=[36, 0]),
   midi.NoteOnEvent(tick=2808600, channel=0, data=[36, 100]),
   midi.NoteOffEvent(tick=2808700, channel=0, data=[36, 0]),
   midi.NoteOnEvent(tick=2808800, channel=0, data=[36, 100]),
   midi.NoteOffEvent(tick=2808900, channel=0, data=[36, 0]),
   midi.NoteOnEvent(tick=2809000, channel=0, data=[36, 100]),
   midi.NoteOffEvent(tick=2809100, channel=0, data=[36, 0]),
   midi.NoteOnEvent(tick=2809200, channel=0, data=[15, 100]),
   midi.NoteOffEvent(tick=2809300, channel=0, data=[15, 0]),
   midi.NoteOnEvent(tick=2809400, channel=0, data=[0, 100]),
   midi.NoteOffEvent(tick=2809500, channel=0, data=[0, 0]),
   midi.NoteOnEvent(tick=2809600, channel=0, data=[17, 100]),
   midi.NoteOffEvent(tick=2809700, channel=0, data=[17, 0]),
   midi.NoteOnEvent(tick=2809800, channel=0, data=[4, 100]),
   midi.NoteOffEvent(tick=2809900, channel=0, data=[4, 0]),
   midi.NoteOnEvent(tick=2810000, channel=0, data=[13, 100]),
   midi.NoteOffEvent(tick=2810100, channel=0, data=[13, 0]),
   midi.NoteOnEvent(tick=2810200, channel=0, data=[19, 100]),
   midi.NoteOffEvent(tick=2810300, channel=0, data=[19, 0]),
   midi.NoteOnEvent(tick=2810400, channel=0, data=[7, 100]),
   midi.NoteOffEvent(tick=2810500, channel=0, data=[7, 0]),
   midi.NoteOnEvent(tick=2810600, channel=0, data=[4, 100]),
   midi.NoteOffEvent(tick=2810700, channel=0, data=[4, 0]),
   midi.NoteOnEvent(tick=2810800, channel=0, data=[18, 100]),
   midi.NoteOffEvent(tick=2810900, channel=0, data=[18, 0]),
   midi.NoteOnEvent(tick=2811000, channel=0, data=[4, 100]),
   midi.NoteOffEvent(tick=2811100, channel=0, data=[4, 0]),
   midi.NoteOnEvent(tick=2811200, channel=0, data=[18, 100]),
   midi.NoteOffEvent(tick=2811300, channel=0, data=[18, 0]),
   midi.NoteOnEvent(tick=2811400, channel=0, data=[38, 100]),
   midi.NoteOffEvent(tick=2811500, channel=0, data=[38, 0]),
   midi.NoteOnEvent(tick=2811600, channel=0, data=[36, 100]),
   midi.NoteOffEvent(tick=2811700, channel=0, data=[36, 0]),
   midi.NoteOnEvent(tick=2811800, channel=0, data=[0, 100]),
   midi.NoteOffEvent(tick=2811900, channel=0, data=[0, 0]),
   midi.NoteOnEvent(tick=2812000, channel=0, data=[18, 100]),
   midi.NoteOffEvent(tick=2812100, channel=0, data=[18, 0]),
   midi.NoteOnEvent(tick=2812200, channel=0, data=[36, 100]),
   midi.NoteOffEvent(tick=2812300, channel=0, data=[36, 0]),
   midi.NoteOnEvent(tick=2812400, channel=0, data=[5, 100]),
   midi.NoteOffEvent(tick=2812500, channel=0, data=[5, 0]),
   midi.NoteOnEvent(tick=2812600, channel=0, data=[14, 100]),
   midi.NoteOffEvent(tick=2812700, channel=0, data=[14, 0]),
   midi.NoteOnEvent(tick=2812800, channel=0, data=[11, 100]),
   midi.NoteOffEvent(tick=2812900, channel=0, data=[11, 0]),
   midi.NoteOnEvent(tick=2813000, channel=0, data=[11, 100]),
   midi.NoteOffEvent(tick=2813100, channel=0, data=[11, 0]),
   midi.NoteOnEvent(tick=2813200, channel=0, data=[14, 100]),
   midi.NoteOffEvent(tick=2813300, channel=0, data=[14, 0]),
   midi.NoteOnEvent(tick=2813400, channel=0, data=[22, 100]),
   midi.NoteOffEvent(tick=2813500, channel=0, data=[22, 0]),
   midi.NoteOnEvent(tick=2813600, channel=0, data=[18, 100]),
   midi.NoteOffEvent(tick=2813700, channel=0, data=[18, 0]),
   midi.NoteOnEvent(tick=2813800, channel=0, data=[46, 100]),
   midi.NoteOffEvent(tick=2813900, channel=0, data=[46, 0]),
   midi.NoteOnEvent(tick=2814000, channel=0, data=[56, 100]),
   midi.NoteOffEvent(tick=2814100, channel=0, data=[56, 0]),
   midi.NoteOnEvent(tick=2814200, channel=0, data=[56, 100]),
   midi.NoteOffEvent(tick=2814300, channel=0, data=[56, 0]),
   midi.NoteOnEvent(tick=2814400, channel=0, data=[56, 100]),
   midi.NoteOffEvent(tick=2814500, channel=0, data=[56, 0]),
   midi.NoteOnEvent(tick=2814600, channel=0, data=[36, 100]),
   midi.NoteOffEvent(tick=2814700, channel=0, data=[36, 0]),
   midi.NoteOnEvent(tick=2814800, channel=0, data=[36, 100]),
   midi.NoteOffEvent(tick=2814900, channel=0, data=[36, 0]),
   midi.NoteOnEvent(tick=2815000, channel=0, data=[36, 100]),
   midi.NoteOffEvent(tick=2815100, channel=0, data=[36, 0]),
   midi.NoteOnEvent(tick=2815200, channel=0, data=[36, 100]),
   midi.NoteOffEvent(tick=2815300, channel=0, data=[36, 0]),
   midi.NoteOnEvent(tick=2815400, channel=0, data=[36, 100]),
   midi.NoteOffEvent(tick=2815500, channel=0, data=[36, 0]),
   midi.NoteOnEvent(tick=2815600, channel=0, data=[36, 100]),
   midi.NoteOffEvent(tick=2815700, channel=0, data=[36, 0]),
   midi.NoteOnEvent(tick=2815800, channel=0, data=[36, 100]),
   midi.NoteOffEvent(tick=2815900, channel=0, data=[36, 0]),
   midi.NoteOnEvent(tick=2816000, channel=0, data=[36, 100]),
   midi.NoteOffEvent(tick=2816100, channel=0, data=[36, 0]),
   midi.NoteOnEvent(tick=2816200, channel=0, data=[2, 100]),
   midi.NoteOffEvent(tick=2816300, channel=0, data=[2, 0]),
   midi.NoteOnEvent(tick=2816400, channel=0, data=[46, 100]),
   midi.NoteOffEvent(tick=2816500, channel=0, data=[46, 0]),
   midi.NoteOnEvent(tick=2816600, channel=0, data=[78, 100]),
   midi.NoteOffEvent(tick=2816700, channel=0, data=[78, 0]),
   midi.NoteOnEvent(tick=2816800, channel=0, data=[15, 100]),
   midi.NoteOffEvent(tick=2816900, channel=0, data=[15, 0]),
   midi.NoteOnEvent(tick=2817000, channel=0, data=[18, 100]),
   midi.NoteOffEvent(tick=2817100, channel=0, data=[18, 0]),
   midi.NoteOnEvent(tick=2817200, channel=0, data=[73, 100]),
   midi.NoteOffEvent(tick=2817300, channel=0, data=[73, 0]),
   midi.NoteOnEvent(tick=2817400, channel=0, data=[36, 100]),
   midi.NoteOffEvent(tick=2817500, channel=0, data=[36, 0]),
   midi.NoteOnEvent(tick=2817600, channel=0, data=[74, 100]),
   midi.NoteOffEvent(tick=2817700, channel=0, data=[74, 0]),
   midi.NoteOnEvent(tick=2817800, channel=0, data=[0, 100]),
   midi.NoteOffEvent(tick=2817900, channel=0, data=[0, 0]),
   midi.NoteOnEvent(tick=2818000, channel=0, data=[36, 100]),
   midi.NoteOffEvent(tick=2818100, channel=0, data=[36, 0]),
   midi.NoteOnEvent(tick=2818200, channel=0, data=[69, 100]),
   midi.NoteOffEvent(tick=2818300, channel=0, data=[69, 0]),
   midi.NoteOnEvent(tick=2818400, channel=0, data=[36, 100]),
   midi.NoteOffEvent(tick=2818500, channel=0, data=[36, 0]),
   midi.NoteOnEvent(tick=2818600, channel=0, data=[33, 100]),
   midi.NoteOffEvent(tick=2818700, channel=0, data=[33, 0]),
   midi.NoteOnEvent(tick=2818800, channel=0, data=[56, 100]),
   midi.NoteOffEvent(tick=2818900, channel=0, data=[56, 0]),
   midi.NoteOnEvent(tick=2819000, channel=0, data=[36, 100]),
   midi.NoteOffEvent(tick=2819100, channel=0, data=[36, 0]),
   midi.NoteOnEvent(tick=2819200, channel=0, data=[36, 100]),
   midi.NoteOffEvent(tick=2819300, channel=0, data=[36, 0]),
   midi.NoteOnEvent(tick=2819400, channel=0, data=[36, 100]),
   midi.NoteOffEvent(tick=2819500, channel=0, data=[36, 0]),
   midi.NoteOnEvent(tick=2819600, channel=0, data=[36, 100]),
   midi.NoteOffEvent(tick=2819700, channel=0, data=[36, 0]),
   midi.NoteOnEvent(tick=2819800, channel=0, data=[36, 100]),
   midi.NoteOffEvent(tick=2819900, channel=0, data=[36, 0]),
   midi.NoteOnEvent(tick=2820000, channel=0, data=[36, 100]),
   midi.NoteOffEvent(tick=2820100, channel=0, data=[36, 0]),
   midi.NoteOnEvent(tick=2820200, channel=0, data=[36, 100]),
   midi.NoteOffEvent(tick=2820300, channel=0, data=[36, 0]),
   midi.NoteOnEvent(tick=2820400, channel=0, data=[36, 100]),
   midi.NoteOffEvent(tick=2820500, channel=0, data=[36, 0]),
   midi.NoteOnEvent(tick=2820600, channel=0, data=[2, 100]),
   midi.NoteOffEvent(tick=2820700, channel=0, data=[2, 0]),
   midi.NoteOnEvent(tick=2820800, channel=0, data=[46, 100]),
   midi.NoteOffEvent(tick=2820900, channel=0, data=[46, 0]),
   midi.NoteOnEvent(tick=2821000, channel=0, data=[78, 100]),
   midi.NoteOffEvent(tick=2821100, channel=0, data=[78, 0]),
   midi.NoteOnEvent(tick=2821200, channel=0, data=[15, 100]),
   midi.NoteOffEvent(tick=2821300, channel=0, data=[15, 0]),
   midi.NoteOnEvent(tick=2821400, channel=0, data=[18, 100]),
   midi.NoteOffEvent(tick=2821500, channel=0, data=[18, 0]),
   midi.NoteOnEvent(tick=2821600, channel=0, data=[73, 100]),
   midi.NoteOffEvent(tick=2821700, channel=0, data=[73, 0]),
   midi.NoteOnEvent(tick=2821800, channel=0, data=[36, 100]),
   midi.NoteOffEvent(tick=2821900, channel=0, data=[36, 0]),
   midi.NoteOnEvent(tick=2822000, channel=0, data=[49, 100]),
   midi.NoteOffEvent(tick=2822100, channel=0, data=[49, 0]),
   midi.NoteOnEvent(tick=2822200, channel=0, data=[55, 100]),
   midi.NoteOffEvent(tick=2822300, channel=0, data=[55, 0]),
   midi.NoteOnEvent(tick=2822400, channel=0, data=[55, 100]),
   midi.NoteOffEvent(tick=2822500, channel=0, data=[55, 0]),
   midi.NoteOnEvent(tick=2822600, channel=0, data=[74, 100]),
   midi.NoteOffEvent(tick=2822700, channel=0, data=[74, 0]),
   midi.NoteOnEvent(tick=2822800, channel=0, data=[0, 100]),
   midi.NoteOffEvent(tick=2822900, channel=0, data=[0, 0]),
   midi.NoteOnEvent(tick=2823000, channel=0, data=[50, 100]),
   midi.NoteOffEvent(tick=2823100, channel=0, data=[50, 0]),
   midi.NoteOnEvent(tick=2823200, channel=0, data=[56, 100]),
   midi.NoteOffEvent(tick=2823300, channel=0, data=[56, 0]),
   midi.NoteOnEvent(tick=2823400, channel=0, data=[36, 100]),
   midi.NoteOffEvent(tick=2823500, channel=0, data=[36, 0]),
   midi.NoteOnEvent(tick=2823600, channel=0, data=[36, 100]),
   midi.NoteOffEvent(tick=2823700, channel=0, data=[36, 0]),
   midi.NoteOnEvent(tick=2823800, channel=0, data=[36, 100]),
   midi.NoteOffEvent(tick=2823900, channel=0, data=[36, 0]),
   midi.NoteOnEvent(tick=2824000, channel=0, data=[36, 100]),
   midi.NoteOffEvent(tick=2824100, channel=0, data=[36, 0]),
   midi.NoteOnEvent(tick=2824200, channel=0, data=[36, 100]),
   midi.NoteOffEvent(tick=2824300, channel=0, data=[36, 0]),
   midi.NoteOnEvent(tick=2824400, channel=0, data=[36, 100]),
   midi.NoteOffEvent(tick=2824500, channel=0, data=[36, 0]),
   midi.NoteOnEvent(tick=2824600, channel=0, data=[36, 100]),
   midi.NoteOffEvent(tick=2824700, channel=0, data=[36, 0]),
   midi.NoteOnEvent(tick=2824800, channel=0, data=[36, 100]),
   midi.NoteOffEvent(tick=2824900, channel=0, data=[36, 0]),
   midi.NoteOnEvent(tick=2825000, channel=0, data=[34, 100]),
   midi.NoteOffEvent(tick=2825100, channel=0, data=[34, 0]),
   midi.NoteOnEvent(tick=2825200, channel=0, data=[56, 100]),
   midi.NoteOffEvent(tick=2825300, channel=0, data=[56, 0]),
   midi.NoteOnEvent(tick=2825400, channel=0, data=[56, 100]),
   midi.NoteOffEvent(tick=2825500, channel=0, data=[56, 0]),
   midi.NoteOnEvent(tick=2825600, channel=0, data=[56, 100]),
   midi.NoteOffEvent(tick=2825700, channel=0, data=[56, 0]),
   midi.NoteOnEvent(tick=2825800, channel=0, data=[36, 100]),
   midi.NoteOffEvent(tick=2825900, channel=0, data=[36, 0]),
   midi.NoteOnEvent(tick=2826000, channel=0, data=[36, 100]),
   midi.NoteOffEvent(tick=2826100, channel=0, data=[36, 0]),
   midi.NoteOnEvent(tick=2826200, channel=0, data=[36, 100]),
   midi.NoteOffEvent(tick=2826300, channel=0, data=[36, 0]),
   midi.NoteOnEvent(tick=2826400, channel=0, data=[36, 100]),
   midi.NoteOffEvent(tick=2826500, channel=0, data=[36, 0]),
   midi.NoteOnEvent(tick=2826600, channel=0, data=[19, 100]),
   midi.NoteOffEvent(tick=2826700, channel=0, data=[19, 0]),
   midi.NoteOnEvent(tick=2826800, channel=0, data=[7, 100]),
   midi.NoteOffEvent(tick=2826900, channel=0, data=[7, 0]),
   midi.NoteOnEvent(tick=2827000, channel=0, data=[4, 100]),
   midi.NoteOffEvent(tick=2827100, channel=0, data=[4, 0]),
   midi.NoteOnEvent(tick=2827200, channel=0, data=[36, 100]),
   midi.NoteOffEvent(tick=2827300, channel=0, data=[36, 0]),
   midi.NoteOnEvent(tick=2827400, channel=0, data=[8, 100]),
   midi.NoteOffEvent(tick=2827500, channel=0, data=[8, 0]),
   midi.NoteOnEvent(tick=2827600, channel=0, data=[13, 100]),
   midi.NoteOffEvent(tick=2827700, channel=0, data=[13, 0]),
   midi.NoteOnEvent(tick=2827800, channel=0, data=[2, 100]),
   midi.NoteOffEvent(tick=2827900, channel=0, data=[2, 0]),
   midi.NoteOnEvent(tick=2828000, channel=0, data=[17, 100]),
   midi.NoteOffEvent(tick=2828100, channel=0, data=[17, 0]),
   midi.NoteOnEvent(tick=2828200, channel=0, data=[4, 100]),
   midi.NoteOffEvent(tick=2828300, channel=0, data=[4, 0]),
   midi.NoteOnEvent(tick=2828400, channel=0, data=[12, 100]),
   midi.NoteOffEvent(tick=2828500, channel=0, data=[12, 0]),
   midi.NoteOnEvent(tick=2828600, channel=0, data=[4, 100]),
   midi.NoteOffEvent(tick=2828700, channel=0, data=[4, 0]),
   midi.NoteOnEvent(tick=2828800, channel=0, data=[13, 100]),
   midi.NoteOffEvent(tick=2828900, channel=0, data=[13, 0]),
   midi.NoteOnEvent(tick=2829000, channel=0, data=[19, 100]),
   midi.NoteOffEvent(tick=2829100, channel=0, data=[19, 0]),
   midi.NoteOnEvent(tick=2829200, channel=0, data=[36, 100]),
   midi.NoteOffEvent(tick=2829300, channel=0, data=[36, 0]),
   midi.NoteOnEvent(tick=2829400, channel=0, data=[14, 100]),
   midi.NoteOffEvent(tick=2829500, channel=0, data=[14, 0]),
   midi.NoteOnEvent(tick=2829600, channel=0, data=[15, 100]),
   midi.NoteOffEvent(tick=2829700, channel=0, data=[15, 0]),
   midi.NoteOnEvent(tick=2829800, channel=0, data=[4, 100]),
   midi.NoteOffEvent(tick=2829900, channel=0, data=[4, 0]),
   midi.NoteOnEvent(tick=2830000, channel=0, data=[17, 100]),
   midi.NoteOffEvent(tick=2830100, channel=0, data=[17, 0]),
   midi.NoteOnEvent(tick=2830200, channel=0, data=[0, 100]),
   midi.NoteOffEvent(tick=2830300, channel=0, data=[0, 0]),
   midi.NoteOnEvent(tick=2830400, channel=0, data=[19, 100]),
   midi.NoteOffEvent(tick=2830500, channel=0, data=[19, 0]),
   midi.NoteOnEvent(tick=2830600, channel=0, data=[14, 100]),
   midi.NoteOffEvent(tick=2830700, channel=0, data=[14, 0]),
   midi.NoteOnEvent(tick=2830800, channel=0, data=[17, 100]),
   midi.NoteOffEvent(tick=2830900, channel=0, data=[17, 0]),
   midi.NoteOnEvent(tick=2831000, channel=0, data=[36, 100]),
   midi.NoteOffEvent(tick=2831100, channel=0, data=[36, 0]),
   midi.NoteOnEvent(tick=2831200, channel=0, data=[2, 100]),
   midi.NoteOffEvent(tick=2831300, channel=0, data=[2, 0]),
   midi.NoteOnEvent(tick=2831400, channel=0, data=[0, 100]),
   midi.NoteOffEvent(tick=2831500, channel=0, data=[0, 0]),
   midi.NoteOnEvent(tick=2831600, channel=0, data=[13, 100]),
   midi.NoteOffEvent(tick=2831700, channel=0, data=[13, 0]),
   midi.NoteOnEvent(tick=2831800, channel=0, data=[36, 100]),
   midi.NoteOffEvent(tick=2831900, channel=0, data=[36, 0]),
   midi.NoteOnEvent(tick=2832000, channel=0, data=[1, 100]),
   midi.NoteOffEvent(tick=2832100, channel=0, data=[1, 0]),
   midi.NoteOnEvent(tick=2832200, channel=0, data=[4, 100]),
   midi.NoteOffEvent(tick=2832300, channel=0, data=[4, 0]),
   midi.NoteOnEvent(tick=2832400, channel=0, data=[36, 100]),
   midi.NoteOffEvent(tick=2832500, channel=0, data=[36, 0]),
   midi.NoteOnEvent(tick=2832600, channel=0, data=[15, 100]),
   midi.NoteOffEvent(tick=2832700, channel=0, data=[15, 0]),
   midi.NoteOnEvent(tick=2832800, channel=0, data=[11, 100]),
   midi.NoteOffEvent(tick=2832900, channel=0, data=[11, 0]),
   midi.NoteOnEvent(tick=2833000, channel=0, data=[0, 100]),
   midi.NoteOffEvent(tick=2833100, channel=0, data=[0, 0]),
   midi.NoteOnEvent(tick=2833200, channel=0, data=[2, 100]),
   midi.NoteOffEvent(tick=2833300, channel=0, data=[2, 0]),
   midi.NoteOnEvent(tick=2833400, channel=0, data=[4, 100]),
   midi.NoteOffEvent(tick=2833500, channel=0, data=[4, 0]),
   midi.NoteOnEvent(tick=2833600, channel=0, data=[3, 100]),
   midi.NoteOffEvent(tick=2833700, channel=0, data=[3, 0]),
   midi.NoteOnEvent(tick=2833800, channel=0, data=[36, 100]),
   midi.NoteOffEvent(tick=2833900, channel=0, data=[36, 0]),
   midi.NoteOnEvent(tick=2834000, channel=0, data=[1, 100]),
   midi.NoteOffEvent(tick=2834100, channel=0, data=[1, 0]),
   midi.NoteOnEvent(tick=2834200, channel=0, data=[4, 100]),
   midi.NoteOffEvent(tick=2834300, channel=0, data=[4, 0]),
   midi.NoteOnEvent(tick=2834400, channel=0, data=[5, 100]),
   midi.NoteOffEvent(tick=2834500, channel=0, data=[5, 0]),
   midi.NoteOnEvent(tick=2834600, channel=0, data=[14, 100]),
   midi.NoteOffEvent(tick=2834700, channel=0, data=[14, 0]),
   midi.NoteOnEvent(tick=2834800, channel=0, data=[17, 100]),
   midi.NoteOffEvent(tick=2834900, channel=0, data=[17, 0]),
   midi.NoteOnEvent(tick=2835000, channel=0, data=[4, 100]),
   midi.NoteOffEvent(tick=2835100, channel=0, data=[4, 0]),
   midi.NoteOnEvent(tick=2835200, channel=0, data=[36, 100]),
   midi.NoteOffEvent(tick=2835300, channel=0, data=[36, 0]),
   midi.NoteOnEvent(tick=2835400, channel=0, data=[49, 100]),
   midi.NoteOffEvent(tick=2835500, channel=0, data=[49, 0]),
   midi.NoteOnEvent(tick=2835600, channel=0, data=[15, 100]),
   midi.NoteOffEvent(tick=2835700, channel=0, data=[15, 0]),
   midi.NoteOnEvent(tick=2835800, channel=0, data=[17, 100]),
   midi.NoteOffEvent(tick=2835900, channel=0, data=[17, 0]),
   midi.NoteOnEvent(tick=2836000, channel=0, data=[4, 100]),
   midi.NoteOffEvent(tick=2836100, channel=0, data=[4, 0]),
   midi.NoteOnEvent(tick=2836200, channel=0, data=[5, 100]),
   midi.NoteOffEvent(tick=2836300, channel=0, data=[5, 0]),
   midi.NoteOnEvent(tick=2836400, channel=0, data=[8, 100]),
   midi.NoteOffEvent(tick=2836500, channel=0, data=[8, 0]),
   midi.NoteOnEvent(tick=2836600, channel=0, data=[23, 100]),
   midi.NoteOffEvent(tick=2836700, channel=0, data=[23, 0]),
   midi.NoteOnEvent(tick=2836800, channel=0, data=[50, 100]),
   midi.NoteOffEvent(tick=2836900, channel=0, data=[50, 0]),
   midi.NoteOnEvent(tick=2837000, channel=0, data=[36, 100]),
   midi.NoteOffEvent(tick=2837100, channel=0, data=[36, 0]),
   midi.NoteOnEvent(tick=2837200, channel=0, data=[14, 100]),
   midi.NoteOffEvent(tick=2837300, channel=0, data=[14, 0]),
   midi.NoteOnEvent(tick=2837400, channel=0, data=[17, 100]),
   midi.NoteOffEvent(tick=2837500, channel=0, data=[17, 0]),
   midi.NoteOnEvent(tick=2837600, channel=0, data=[36, 100]),
   midi.NoteOffEvent(tick=2837700, channel=0, data=[36, 0]),
   midi.NoteOnEvent(tick=2837800, channel=0, data=[0, 100]),
   midi.NoteOffEvent(tick=2837900, channel=0, data=[0, 0]),
   midi.NoteOnEvent(tick=2838000, channel=0, data=[5, 100]),
   midi.NoteOffEvent(tick=2838100, channel=0, data=[5, 0]),
   midi.NoteOnEvent(tick=2838200, channel=0, data=[19, 100]),
   midi.NoteOffEvent(tick=2838300, channel=0, data=[19, 0]),
   midi.NoteOnEvent(tick=2838400, channel=0, data=[4, 100]),
   midi.NoteOffEvent(tick=2838500, channel=0, data=[4, 0]),
   midi.NoteOnEvent(tick=2838600, channel=0, data=[17, 100]),
   midi.NoteOffEvent(tick=2838700, channel=0, data=[17, 0]),
   midi.NoteOnEvent(tick=2838800, channel=0, data=[36, 100]),
   midi.NoteOffEvent(tick=2838900, channel=0, data=[36, 0]),
   midi.NoteOnEvent(tick=2839000, channel=0, data=[49, 100]),
   midi.NoteOffEvent(tick=2839100, channel=0, data=[49, 0]),
   midi.NoteOnEvent(tick=2839200, channel=0, data=[15, 100]),
   midi.NoteOffEvent(tick=2839300, channel=0, data=[15, 0]),
   midi.NoteOnEvent(tick=2839400, channel=0, data=[14, 100]),
   midi.NoteOffEvent(tick=2839500, channel=0, data=[14, 0]),
   midi.NoteOnEvent(tick=2839600, channel=0, data=[18, 100]),
   midi.NoteOffEvent(tick=2839700, channel=0, data=[18, 0]),
   midi.NoteOnEvent(tick=2839800, channel=0, data=[19, 100]),
   midi.NoteOffEvent(tick=2839900, channel=0, data=[19, 0]),
   midi.NoteOnEvent(tick=2840000, channel=0, data=[5, 100]),
   midi.NoteOffEvent(tick=2840100, channel=0, data=[5, 0]),
   midi.NoteOnEvent(tick=2840200, channel=0, data=[8, 100]),
   midi.NoteOffEvent(tick=2840300, channel=0, data=[8, 0]),
   midi.NoteOnEvent(tick=2840400, channel=0, data=[23, 100]),
   midi.NoteOffEvent(tick=2840500, channel=0, data=[23, 0]),
   midi.NoteOnEvent(tick=2840600, channel=0, data=[50, 100]),
   midi.NoteOffEvent(tick=2840700, channel=0, data=[50, 0]),
   midi.NoteOnEvent(tick=2840800, channel=0, data=[36, 100]),
   midi.NoteOffEvent(tick=2840900, channel=0, data=[36, 0]),
   midi.NoteOnEvent(tick=2841000, channel=0, data=[0, 100]),
   midi.NoteOffEvent(tick=2841100, channel=0, data=[0, 0]),
   midi.NoteOnEvent(tick=2841200, channel=0, data=[36, 100]),
   midi.NoteOffEvent(tick=2841300, channel=0, data=[36, 0]),
   midi.NoteOnEvent(tick=2841400, channel=0, data=[56, 100]),
   midi.NoteOffEvent(tick=2841500, channel=0, data=[56, 0]),
   midi.NoteOnEvent(tick=2841600, channel=0, data=[36, 100]),
   midi.NoteOffEvent(tick=2841700, channel=0, data=[36, 0]),
   midi.NoteOnEvent(tick=2841800, channel=0, data=[36, 100]),
   midi.NoteOffEvent(tick=2841900, channel=0, data=[36, 0]),
   midi.NoteOnEvent(tick=2842000, channel=0, data=[36, 100]),
   midi.NoteOffEvent(tick=2842100, channel=0, data=[36, 0]),
   midi.NoteOnEvent(tick=2842200, channel=0, data=[36, 100]),
   midi.NoteOffEvent(tick=2842300, channel=0, data=[36, 0]),
   midi.NoteOnEvent(tick=2842400, channel=0, data=[21, 100]),
   midi.NoteOffEvent(tick=2842500, channel=0, data=[21, 0]),
   midi.NoteOnEvent(tick=2842600, channel=0, data=[0, 100]),
   midi.NoteOffEvent(tick=2842700, channel=0, data=[0, 0]),
   midi.NoteOnEvent(tick=2842800, channel=0, data=[17, 100]),
   midi.NoteOffEvent(tick=2842900, channel=0, data=[17, 0]),
   midi.NoteOnEvent(tick=2843000, channel=0, data=[8, 100]),
   midi.NoteOffEvent(tick=2843100, channel=0, data=[8, 0]),
   midi.NoteOnEvent(tick=2843200, channel=0, data=[0, 100]),
   midi.NoteOffEvent(tick=2843300, channel=0, data=[0, 0]),
   midi.NoteOnEvent(tick=2843400, channel=0, data=[1, 100]),
   midi.NoteOffEvent(tick=2843500, channel=0, data=[1, 0]),
   midi.NoteOnEvent(tick=2843600, channel=0, data=[11, 100]),
   midi.NoteOffEvent(tick=2843700, channel=0, data=[11, 0]),
   midi.NoteOnEvent(tick=2843800, channel=0, data=[4, 100]),
   midi.NoteOffEvent(tick=2843900, channel=0, data=[4, 0]),
   midi.NoteOnEvent(tick=2844000, channel=0, data=[37, 100]),
   midi.NoteOffEvent(tick=2844100, channel=0, data=[37, 0]),
   midi.NoteOnEvent(tick=2844200, channel=0, data=[36, 100]),
   midi.NoteOffEvent(tick=2844300, channel=0, data=[36, 0]),
   midi.NoteOnEvent(tick=2844400, channel=0, data=[19, 100]),
   midi.NoteOffEvent(tick=2844500, channel=0, data=[19, 0]),
   midi.NoteOnEvent(tick=2844600, channel=0, data=[7, 100]),
   midi.NoteOffEvent(tick=2844700, channel=0, data=[7, 0]),
   midi.NoteOnEvent(tick=2844800, channel=0, data=[4, 100]),
   midi.NoteOffEvent(tick=2844900, channel=0, data=[4, 0]),
   midi.NoteOnEvent(tick=2845000, channel=0, data=[36, 100]),
   midi.NoteOffEvent(tick=2845100, channel=0, data=[36, 0]),
   midi.NoteOnEvent(tick=2845200, channel=0, data=[15, 100]),
   midi.NoteOffEvent(tick=2845300, channel=0, data=[15, 0]),
   midi.NoteOnEvent(tick=2845400, channel=0, data=[17, 100]),
   midi.NoteOffEvent(tick=2845500, channel=0, data=[17, 0]),
   midi.NoteOnEvent(tick=2845600, channel=0, data=[4, 100]),
   midi.NoteOffEvent(tick=2845700, channel=0, data=[4, 0]),
   midi.NoteOnEvent(tick=2845800, channel=0, data=[5, 100]),
   midi.NoteOffEvent(tick=2845900, channel=0, data=[5, 0]),
   midi.NoteOnEvent(tick=2846000, channel=0, data=[8, 100]),
   midi.NoteOffEvent(tick=2846100, channel=0, data=[8, 0]),
   midi.NoteOnEvent(tick=2846200, channel=0, data=[23, 100]),
   midi.NoteOffEvent(tick=2846300, channel=0, data=[23, 0]),
   midi.NoteOnEvent(tick=2846400, channel=0, data=[36, 100]),
   midi.NoteOffEvent(tick=2846500, channel=0, data=[36, 0]),
   midi.NoteOnEvent(tick=2846600, channel=0, data=[21, 100]),
   midi.NoteOffEvent(tick=2846700, channel=0, data=[21, 0]),
   midi.NoteOnEvent(tick=2846800, channel=0, data=[4, 100]),
   midi.NoteOffEvent(tick=2846900, channel=0, data=[4, 0]),
   midi.NoteOnEvent(tick=2847000, channel=0, data=[17, 100]),
   midi.NoteOffEvent(tick=2847100, channel=0, data=[17, 0]),
   midi.NoteOnEvent(tick=2847200, channel=0, data=[18, 100]),
   midi.NoteOffEvent(tick=2847300, channel=0, data=[18, 0]),
   midi.NoteOnEvent(tick=2847400, channel=0, data=[8, 100]),
   midi.NoteOffEvent(tick=2847500, channel=0, data=[8, 0]),
   midi.NoteOnEvent(tick=2847600, channel=0, data=[14, 100]),
   midi.NoteOffEvent(tick=2847700, channel=0, data=[14, 0]),
   midi.NoteOnEvent(tick=2847800, channel=0, data=[13, 100]),
   midi.NoteOffEvent(tick=2847900, channel=0, data=[13, 0]),
   midi.NoteOnEvent(tick=2848000, channel=0, data=[36, 100]),
   midi.NoteOffEvent(tick=2848100, channel=0, data=[36, 0]),
   midi.NoteOnEvent(tick=2848200, channel=0, data=[14, 100]),
   midi.NoteOffEvent(tick=2848300, channel=0, data=[14, 0]),
   midi.NoteOnEvent(tick=2848400, channel=0, data=[5, 100]),
   midi.NoteOffEvent(tick=2848500, channel=0, data=[5, 0]),
   midi.NoteOnEvent(tick=2848600, channel=0, data=[36, 100]),
   midi.NoteOffEvent(tick=2848700, channel=0, data=[36, 0]),
   midi.NoteOnEvent(tick=2848800, channel=0, data=[19, 100]),
   midi.NoteOffEvent(tick=2848900, channel=0, data=[19, 0]),
   midi.NoteOnEvent(tick=2849000, channel=0, data=[7, 100]),
   midi.NoteOffEvent(tick=2849100, channel=0, data=[7, 0]),
   midi.NoteOnEvent(tick=2849200, channel=0, data=[4, 100]),
   midi.NoteOffEvent(tick=2849300, channel=0, data=[4, 0]),
   midi.NoteOnEvent(tick=2849400, channel=0, data=[36, 100]),
   midi.NoteOffEvent(tick=2849500, channel=0, data=[36, 0]),
   midi.NoteOnEvent(tick=2849600, channel=0, data=[14, 100]),
   midi.NoteOffEvent(tick=2849700, channel=0, data=[14, 0]),
   midi.NoteOnEvent(tick=2849800, channel=0, data=[15, 100]),
   midi.NoteOffEvent(tick=2849900, channel=0, data=[15, 0]),
   midi.NoteOnEvent(tick=2850000, channel=0, data=[4, 100]),
   midi.NoteOffEvent(tick=2850100, channel=0, data=[4, 0]),
   midi.NoteOnEvent(tick=2850200, channel=0, data=[17, 100]),
   midi.NoteOffEvent(tick=2850300, channel=0, data=[17, 0]),
   midi.NoteOnEvent(tick=2850400, channel=0, data=[0, 100]),
   midi.NoteOffEvent(tick=2850500, channel=0, data=[0, 0]),
   midi.NoteOnEvent(tick=2850600, channel=0, data=[19, 100]),
   midi.NoteOffEvent(tick=2850700, channel=0, data=[19, 0]),
   midi.NoteOnEvent(tick=2850800, channel=0, data=[14, 100]),
   midi.NoteOffEvent(tick=2850900, channel=0, data=[14, 0]),
   midi.NoteOnEvent(tick=2851000, channel=0, data=[17, 100]),
   midi.NoteOffEvent(tick=2851100, channel=0, data=[17, 0]),
   midi.NoteOnEvent(tick=2851200, channel=0, data=[36, 100]),
   midi.NoteOffEvent(tick=2851300, channel=0, data=[36, 0]),
   midi.NoteOnEvent(tick=2851400, channel=0, data=[8, 100]),
   midi.NoteOffEvent(tick=2851500, channel=0, data=[8, 0]),
   midi.NoteOnEvent(tick=2851600, channel=0, data=[13, 100]),
   midi.NoteOffEvent(tick=2851700, channel=0, data=[13, 0]),
   midi.NoteOnEvent(tick=2851800, channel=0, data=[2, 100]),
   midi.NoteOffEvent(tick=2851900, channel=0, data=[2, 0]),
   midi.NoteOnEvent(tick=2852000, channel=0, data=[17, 100]),
   midi.NoteOffEvent(tick=2852100, channel=0, data=[17, 0]),
   midi.NoteOnEvent(tick=2852200, channel=0, data=[4, 100]),
   midi.NoteOffEvent(tick=2852300, channel=0, data=[4, 0]),
   midi.NoteOnEvent(tick=2852400, channel=0, data=[12, 100]),
   midi.NoteOffEvent(tick=2852500, channel=0, data=[12, 0]),
   midi.NoteOnEvent(tick=2852600, channel=0, data=[4, 100]),
   midi.NoteOffEvent(tick=2852700, channel=0, data=[4, 0]),
   midi.NoteOnEvent(tick=2852800, channel=0, data=[13, 100]),
   midi.NoteOffEvent(tick=2852900, channel=0, data=[13, 0]),
   midi.NoteOnEvent(tick=2853000, channel=0, data=[19, 100]),
   midi.NoteOffEvent(tick=2853100, channel=0, data=[19, 0]),
   midi.NoteOnEvent(tick=2853200, channel=0, data=[18, 100]),
   midi.NoteOffEvent(tick=2853300, channel=0, data=[18, 0]),
   midi.NoteOnEvent(tick=2853400, channel=0, data=[36, 100]),
   midi.NoteOffEvent(tick=2853500, channel=0, data=[36, 0]),
   midi.NoteOnEvent(tick=2853600, channel=0, data=[0, 100]),
   midi.NoteOffEvent(tick=2853700, channel=0, data=[0, 0]),
   midi.NoteOnEvent(tick=2853800, channel=0, data=[36, 100]),
   midi.NoteOffEvent(tick=2853900, channel=0, data=[36, 0]),
   midi.NoteOnEvent(tick=2854000, channel=0, data=[21, 100]),
   midi.NoteOffEvent(tick=2854100, channel=0, data=[21, 0]),
   midi.NoteOnEvent(tick=2854200, channel=0, data=[0, 100]),
   midi.NoteOffEvent(tick=2854300, channel=0, data=[0, 0]),
   midi.NoteOnEvent(tick=2854400, channel=0, data=[17, 100]),
   midi.NoteOffEvent(tick=2854500, channel=0, data=[17, 0]),
   midi.NoteOnEvent(tick=2854600, channel=0, data=[8, 100]),
   midi.NoteOffEvent(tick=2854700, channel=0, data=[8, 0]),
   midi.NoteOnEvent(tick=2854800, channel=0, data=[0, 100]),
   midi.NoteOffEvent(tick=2854900, channel=0, data=[0, 0]),
   midi.NoteOnEvent(tick=2855000, channel=0, data=[1, 100]),
   midi.NoteOffEvent(tick=2855100, channel=0, data=[1, 0]),
   midi.NoteOnEvent(tick=2855200, channel=0, data=[11, 100]),
   midi.NoteOffEvent(tick=2855300, channel=0, data=[11, 0]),
   midi.NoteOnEvent(tick=2855400, channel=0, data=[4, 100]),
   midi.NoteOffEvent(tick=2855500, channel=0, data=[4, 0]),
   midi.NoteOnEvent(tick=2855600, channel=0, data=[36, 100]),
   midi.NoteOffEvent(tick=2855700, channel=0, data=[36, 0]),
   midi.NoteOnEvent(tick=2855800, channel=0, data=[1, 100]),
   midi.NoteOffEvent(tick=2855900, channel=0, data=[1, 0]),
   midi.NoteOnEvent(tick=2856000, channel=0, data=[4, 100]),
   midi.NoteOffEvent(tick=2856100, channel=0, data=[4, 0]),
   midi.NoteOnEvent(tick=2856200, channel=0, data=[5, 100]),
   midi.NoteOffEvent(tick=2856300, channel=0, data=[5, 0]),
   midi.NoteOnEvent(tick=2856400, channel=0, data=[14, 100]),
   midi.NoteOffEvent(tick=2856500, channel=0, data=[14, 0]),
   midi.NoteOnEvent(tick=2856600, channel=0, data=[17, 100]),
   midi.NoteOffEvent(tick=2856700, channel=0, data=[17, 0]),
   midi.NoteOnEvent(tick=2856800, channel=0, data=[4, 100]),
   midi.NoteOffEvent(tick=2856900, channel=0, data=[4, 0]),
   midi.NoteOnEvent(tick=2857000, channel=0, data=[36, 100]),
   midi.NoteOffEvent(tick=2857100, channel=0, data=[36, 0]),
   midi.NoteOnEvent(tick=2857200, channel=0, data=[56, 100]),
   midi.NoteOffEvent(tick=2857300, channel=0, data=[56, 0]),
   midi.NoteOnEvent(tick=2857400, channel=0, data=[36, 100]),
   midi.NoteOffEvent(tick=2857500, channel=0, data=[36, 0]),
   midi.NoteOnEvent(tick=2857600, channel=0, data=[36, 100]),
   midi.NoteOffEvent(tick=2857700, channel=0, data=[36, 0]),
   midi.NoteOnEvent(tick=2857800, channel=0, data=[36, 100]),
   midi.NoteOffEvent(tick=2857900, channel=0, data=[36, 0]),
   midi.NoteOnEvent(tick=2858000, channel=0, data=[36, 100]),
   midi.NoteOffEvent(tick=2858100, channel=0, data=[36, 0]),
   midi.NoteOnEvent(tick=2858200, channel=0, data=[8, 100]),
   midi.NoteOffEvent(tick=2858300, channel=0, data=[8, 0]),
   midi.NoteOnEvent(tick=2858400, channel=0, data=[19, 100]),
   midi.NoteOffEvent(tick=2858500, channel=0, data=[19, 0]),
   midi.NoteOnEvent(tick=2858600, channel=0, data=[18, 100]),
   midi.NoteOffEvent(tick=2858700, channel=0, data=[18, 0]),
   midi.NoteOnEvent(tick=2858800, channel=0, data=[36, 100]),
   midi.NoteOffEvent(tick=2858900, channel=0, data=[36, 0]),
   midi.NoteOnEvent(tick=2859000, channel=0, data=[21, 100]),
   midi.NoteOffEvent(tick=2859100, channel=0, data=[21, 0]),
   midi.NoteOnEvent(tick=2859200, channel=0, data=[0, 100]),
   midi.NoteOffEvent(tick=2859300, channel=0, data=[0, 0]),
   midi.NoteOnEvent(tick=2859400, channel=0, data=[11, 100]),
   midi.NoteOffEvent(tick=2859500, channel=0, data=[11, 0]),
   midi.NoteOnEvent(tick=2859600, channel=0, data=[20, 100]),
   midi.NoteOffEvent(tick=2859700, channel=0, data=[20, 0]),
   midi.NoteOnEvent(tick=2859800, channel=0, data=[4, 100]),
   midi.NoteOffEvent(tick=2859900, channel=0, data=[4, 0]),
   midi.NoteOnEvent(tick=2860000, channel=0, data=[36, 100]),
   midi.NoteOffEvent(tick=2860100, channel=0, data=[36, 0]),
   midi.NoteOnEvent(tick=2860200, channel=0, data=[8, 100]),
   midi.NoteOffEvent(tick=2860300, channel=0, data=[8, 0]),
   midi.NoteOnEvent(tick=2860400, channel=0, data=[18, 100]),
   midi.NoteOffEvent(tick=2860500, channel=0, data=[18, 0]),
   midi.NoteOnEvent(tick=2860600, channel=0, data=[36, 100]),
   midi.NoteOffEvent(tick=2860700, channel=0, data=[36, 0]),
   midi.NoteOnEvent(tick=2860800, channel=0, data=[20, 100]),
   midi.NoteOffEvent(tick=2860900, channel=0, data=[20, 0]),
   midi.NoteOnEvent(tick=2861000, channel=0, data=[18, 100]),
   midi.NoteOffEvent(tick=2861100, channel=0, data=[18, 0]),
   midi.NoteOnEvent(tick=2861200, channel=0, data=[4, 100]),
   midi.NoteOffEvent(tick=2861300, channel=0, data=[4, 0]),
   midi.NoteOnEvent(tick=2861400, channel=0, data=[3, 100]),
   midi.NoteOffEvent(tick=2861500, channel=0, data=[3, 0]),
   midi.NoteOnEvent(tick=2861600, channel=0, data=[36, 100]),
   midi.NoteOffEvent(tick=2861700, channel=0, data=[36, 0]),
   midi.NoteOnEvent(tick=2861800, channel=0, data=[8, 100]),
   midi.NoteOffEvent(tick=2861900, channel=0, data=[8, 0]),
   midi.NoteOnEvent(tick=2862000, channel=0, data=[13, 100]),
   midi.NoteOffEvent(tick=2862100, channel=0, data=[13, 0]),
   midi.NoteOnEvent(tick=2862200, channel=0, data=[36, 100]),
   midi.NoteOffEvent(tick=2862300, channel=0, data=[36, 0]),
   midi.NoteOnEvent(tick=2862400, channel=0, data=[19, 100]),
   midi.NoteOffEvent(tick=2862500, channel=0, data=[19, 0]),
   midi.NoteOnEvent(tick=2862600, channel=0, data=[7, 100]),
   midi.NoteOffEvent(tick=2862700, channel=0, data=[7, 0]),
   midi.NoteOnEvent(tick=2862800, channel=0, data=[4, 100]),
   midi.NoteOffEvent(tick=2862900, channel=0, data=[4, 0]),
   midi.NoteOnEvent(tick=2863000, channel=0, data=[36, 100]),
   midi.NoteOffEvent(tick=2863100, channel=0, data=[36, 0]),
   midi.NoteOnEvent(tick=2863200, channel=0, data=[18, 100]),
   midi.NoteOffEvent(tick=2863300, channel=0, data=[18, 0]),
   midi.NoteOnEvent(tick=2863400, channel=0, data=[19, 100]),
   midi.NoteOffEvent(tick=2863500, channel=0, data=[19, 0]),
   midi.NoteOnEvent(tick=2863600, channel=0, data=[0, 100]),
   midi.NoteOffEvent(tick=2863700, channel=0, data=[0, 0]),
   midi.NoteOnEvent(tick=2863800, channel=0, data=[19, 100]),
   midi.NoteOffEvent(tick=2863900, channel=0, data=[19, 0]),
   midi.NoteOnEvent(tick=2864000, channel=0, data=[4, 100]),
   midi.NoteOffEvent(tick=2864100, channel=0, data=[4, 0]),
   midi.NoteOnEvent(tick=2864200, channel=0, data=[12, 100]),
   midi.NoteOffEvent(tick=2864300, channel=0, data=[12, 0]),
   midi.NoteOnEvent(tick=2864400, channel=0, data=[4, 100]),
   midi.NoteOffEvent(tick=2864500, channel=0, data=[4, 0]),
   midi.NoteOnEvent(tick=2864600, channel=0, data=[13, 100]),
   midi.NoteOffEvent(tick=2864700, channel=0, data=[13, 0]),
   midi.NoteOnEvent(tick=2864800, channel=0, data=[19, 100]),
   midi.NoteOffEvent(tick=2864900, channel=0, data=[19, 0]),
   midi.NoteOnEvent(tick=2865000, channel=0, data=[38, 100]),
   midi.NoteOffEvent(tick=2865100, channel=0, data=[38, 0]),
   midi.NoteOnEvent(tick=2865200, channel=0, data=[36, 100]),
   midi.NoteOffEvent(tick=2865300, channel=0, data=[36, 0]),
   midi.NoteOnEvent(tick=2865400, channel=0, data=[0, 100]),
   midi.NoteOffEvent(tick=2865500, channel=0, data=[0, 0]),
   midi.NoteOnEvent(tick=2865600, channel=0, data=[18, 100]),
   midi.NoteOffEvent(tick=2865700, channel=0, data=[18, 0]),
   midi.NoteOnEvent(tick=2865800, channel=0, data=[36, 100]),
   midi.NoteOffEvent(tick=2865900, channel=0, data=[36, 0]),
   midi.NoteOnEvent(tick=2866000, channel=0, data=[5, 100]),
   midi.NoteOffEvent(tick=2866100, channel=0, data=[5, 0]),
   midi.NoteOnEvent(tick=2866200, channel=0, data=[14, 100]),
   midi.NoteOffEvent(tick=2866300, channel=0, data=[14, 0]),
   midi.NoteOnEvent(tick=2866400, channel=0, data=[11, 100]),
   midi.NoteOffEvent(tick=2866500, channel=0, data=[11, 0]),
   midi.NoteOnEvent(tick=2866600, channel=0, data=[11, 100]),
   midi.NoteOffEvent(tick=2866700, channel=0, data=[11, 0]),
   midi.NoteOnEvent(tick=2866800, channel=0, data=[14, 100]),
   midi.NoteOffEvent(tick=2866900, channel=0, data=[14, 0]),
   midi.NoteOnEvent(tick=2867000, channel=0, data=[22, 100]),
   midi.NoteOffEvent(tick=2867100, channel=0, data=[22, 0]),
   midi.NoteOnEvent(tick=2867200, channel=0, data=[18, 100]),
   midi.NoteOffEvent(tick=2867300, channel=0, data=[18, 0]),
   midi.NoteOnEvent(tick=2867400, channel=0, data=[46, 100]),
   midi.NoteOffEvent(tick=2867500, channel=0, data=[46, 0]),
   midi.NoteOnEvent(tick=2867600, channel=0, data=[56, 100]),
   midi.NoteOffEvent(tick=2867700, channel=0, data=[56, 0]),
   midi.NoteOnEvent(tick=2867800, channel=0, data=[56, 100]),
   midi.NoteOffEvent(tick=2867900, channel=0, data=[56, 0]),
   midi.NoteOnEvent(tick=2868000, channel=0, data=[56, 100]),
   midi.NoteOffEvent(tick=2868100, channel=0, data=[56, 0]),
   midi.NoteOnEvent(tick=2868200, channel=0, data=[36, 100]),
   midi.NoteOffEvent(tick=2868300, channel=0, data=[36, 0]),
   midi.NoteOnEvent(tick=2868400, channel=0, data=[36, 100]),
   midi.NoteOffEvent(tick=2868500, channel=0, data=[36, 0]),
   midi.NoteOnEvent(tick=2868600, channel=0, data=[36, 100]),
   midi.NoteOffEvent(tick=2868700, channel=0, data=[36, 0]),
   midi.NoteOnEvent(tick=2868800, channel=0, data=[36, 100]),
   midi.NoteOffEvent(tick=2868900, channel=0, data=[36, 0]),
   midi.NoteOnEvent(tick=2869000, channel=0, data=[36, 100]),
   midi.NoteOffEvent(tick=2869100, channel=0, data=[36, 0]),
   midi.NoteOnEvent(tick=2869200, channel=0, data=[36, 100]),
   midi.NoteOffEvent(tick=2869300, channel=0, data=[36, 0]),
   midi.NoteOnEvent(tick=2869400, channel=0, data=[36, 100]),
   midi.NoteOffEvent(tick=2869500, channel=0, data=[36, 0]),
   midi.NoteOnEvent(tick=2869600, channel=0, data=[36, 100]),
   midi.NoteOffEvent(tick=2869700, channel=0, data=[36, 0]),
   midi.NoteOnEvent(tick=2869800, channel=0, data=[2, 100]),
   midi.NoteOffEvent(tick=2869900, channel=0, data=[2, 0]),
   midi.NoteOnEvent(tick=2870000, channel=0, data=[46, 100]),
   midi.NoteOffEvent(tick=2870100, channel=0, data=[46, 0]),
   midi.NoteOnEvent(tick=2870200, channel=0, data=[78, 100]),
   midi.NoteOffEvent(tick=2870300, channel=0, data=[78, 0]),
   midi.NoteOnEvent(tick=2870400, channel=0, data=[15, 100]),
   midi.NoteOffEvent(tick=2870500, channel=0, data=[15, 0]),
   midi.NoteOnEvent(tick=2870600, channel=0, data=[18, 100]),
   midi.NoteOffEvent(tick=2870700, channel=0, data=[18, 0]),
   midi.NoteOnEvent(tick=2870800, channel=0, data=[73, 100]),
   midi.NoteOffEvent(tick=2870900, channel=0, data=[73, 0]),
   midi.NoteOnEvent(tick=2871000, channel=0, data=[36, 100]),
   midi.NoteOffEvent(tick=2871100, channel=0, data=[36, 0]),
   midi.NoteOnEvent(tick=2871200, channel=0, data=[74, 100]),
   midi.NoteOffEvent(tick=2871300, channel=0, data=[74, 0]),
   midi.NoteOnEvent(tick=2871400, channel=0, data=[0, 100]),
   midi.NoteOffEvent(tick=2871500, channel=0, data=[0, 0]),
   midi.NoteOnEvent(tick=2871600, channel=0, data=[36, 100]),
   midi.NoteOffEvent(tick=2871700, channel=0, data=[36, 0]),
   midi.NoteOnEvent(tick=2871800, channel=0, data=[69, 100]),
   midi.NoteOffEvent(tick=2871900, channel=0, data=[69, 0]),
   midi.NoteOnEvent(tick=2872000, channel=0, data=[36, 100]),
   midi.NoteOffEvent(tick=2872100, channel=0, data=[36, 0]),
   midi.NoteOnEvent(tick=2872200, channel=0, data=[33, 100]),
   midi.NoteOffEvent(tick=2872300, channel=0, data=[33, 0]),
   midi.NoteOnEvent(tick=2872400, channel=0, data=[56, 100]),
   midi.NoteOffEvent(tick=2872500, channel=0, data=[56, 0]),
   midi.NoteOnEvent(tick=2872600, channel=0, data=[36, 100]),
   midi.NoteOffEvent(tick=2872700, channel=0, data=[36, 0]),
   midi.NoteOnEvent(tick=2872800, channel=0, data=[36, 100]),
   midi.NoteOffEvent(tick=2872900, channel=0, data=[36, 0]),
   midi.NoteOnEvent(tick=2873000, channel=0, data=[36, 100]),
   midi.NoteOffEvent(tick=2873100, channel=0, data=[36, 0]),
   midi.NoteOnEvent(tick=2873200, channel=0, data=[36, 100]),
   midi.NoteOffEvent(tick=2873300, channel=0, data=[36, 0]),
   midi.NoteOnEvent(tick=2873400, channel=0, data=[36, 100]),
   midi.NoteOffEvent(tick=2873500, channel=0, data=[36, 0]),
   midi.NoteOnEvent(tick=2873600, channel=0, data=[36, 100]),
   midi.NoteOffEvent(tick=2873700, channel=0, data=[36, 0]),
   midi.NoteOnEvent(tick=2873800, channel=0, data=[36, 100]),
   midi.NoteOffEvent(tick=2873900, channel=0, data=[36, 0]),
   midi.NoteOnEvent(tick=2874000, channel=0, data=[36, 100]),
   midi.NoteOffEvent(tick=2874100, channel=0, data=[36, 0]),
   midi.NoteOnEvent(tick=2874200, channel=0, data=[2, 100]),
   midi.NoteOffEvent(tick=2874300, channel=0, data=[2, 0]),
   midi.NoteOnEvent(tick=2874400, channel=0, data=[46, 100]),
   midi.NoteOffEvent(tick=2874500, channel=0, data=[46, 0]),
   midi.NoteOnEvent(tick=2874600, channel=0, data=[78, 100]),
   midi.NoteOffEvent(tick=2874700, channel=0, data=[78, 0]),
   midi.NoteOnEvent(tick=2874800, channel=0, data=[15, 100]),
   midi.NoteOffEvent(tick=2874900, channel=0, data=[15, 0]),
   midi.NoteOnEvent(tick=2875000, channel=0, data=[18, 100]),
   midi.NoteOffEvent(tick=2875100, channel=0, data=[18, 0]),
   midi.NoteOnEvent(tick=2875200, channel=0, data=[73, 100]),
   midi.NoteOffEvent(tick=2875300, channel=0, data=[73, 0]),
   midi.NoteOnEvent(tick=2875400, channel=0, data=[36, 100]),
   midi.NoteOffEvent(tick=2875500, channel=0, data=[36, 0]),
   midi.NoteOnEvent(tick=2875600, channel=0, data=[74, 100]),
   midi.NoteOffEvent(tick=2875700, channel=0, data=[74, 0]),
   midi.NoteOnEvent(tick=2875800, channel=0, data=[2, 100]),
   midi.NoteOffEvent(tick=2875900, channel=0, data=[2, 0]),
   midi.NoteOnEvent(tick=2876000, channel=0, data=[36, 100]),
   midi.NoteOffEvent(tick=2876100, channel=0, data=[36, 0]),
   midi.NoteOnEvent(tick=2876200, channel=0, data=[69, 100]),
   midi.NoteOffEvent(tick=2876300, channel=0, data=[69, 0]),
   midi.NoteOnEvent(tick=2876400, channel=0, data=[36, 100]),
   midi.NoteOffEvent(tick=2876500, channel=0, data=[36, 0]),
   midi.NoteOnEvent(tick=2876600, channel=0, data=[55, 100]),
   midi.NoteOffEvent(tick=2876700, channel=0, data=[55, 0]),
   midi.NoteOnEvent(tick=2876800, channel=0, data=[55, 100]),
   midi.NoteOffEvent(tick=2876900, channel=0, data=[55, 0]),
   midi.NoteOnEvent(tick=2877000, channel=0, data=[74, 100]),
   midi.NoteOffEvent(tick=2877100, channel=0, data=[74, 0]),
   midi.NoteOnEvent(tick=2877200, channel=0, data=[0, 100]),
   midi.NoteOffEvent(tick=2877300, channel=0, data=[0, 0]),
   midi.NoteOnEvent(tick=2877400, channel=0, data=[56, 100]),
   midi.NoteOffEvent(tick=2877500, channel=0, data=[56, 0]),
   midi.NoteOnEvent(tick=2877600, channel=0, data=[36, 100]),
   midi.NoteOffEvent(tick=2877700, channel=0, data=[36, 0]),
   midi.NoteOnEvent(tick=2877800, channel=0, data=[36, 100]),
   midi.NoteOffEvent(tick=2877900, channel=0, data=[36, 0]),
   midi.NoteOnEvent(tick=2878000, channel=0, data=[36, 100]),
   midi.NoteOffEvent(tick=2878100, channel=0, data=[36, 0]),
   midi.NoteOnEvent(tick=2878200, channel=0, data=[36, 100]),
   midi.NoteOffEvent(tick=2878300, channel=0, data=[36, 0]),
   midi.NoteOnEvent(tick=2878400, channel=0, data=[36, 100]),
   midi.NoteOffEvent(tick=2878500, channel=0, data=[36, 0]),
   midi.NoteOnEvent(tick=2878600, channel=0, data=[36, 100]),
   midi.NoteOffEvent(tick=2878700, channel=0, data=[36, 0]),
   midi.NoteOnEvent(tick=2878800, channel=0, data=[36, 100]),
   midi.NoteOffEvent(tick=2878900, channel=0, data=[36, 0]),
   midi.NoteOnEvent(tick=2879000, channel=0, data=[36, 100]),
   midi.NoteOffEvent(tick=2879100, channel=0, data=[36, 0]),
   midi.NoteOnEvent(tick=2879200, channel=0, data=[2, 100]),
   midi.NoteOffEvent(tick=2879300, channel=0, data=[2, 0]),
   midi.NoteOnEvent(tick=2879400, channel=0, data=[46, 100]),
   midi.NoteOffEvent(tick=2879500, channel=0, data=[46, 0]),
   midi.NoteOnEvent(tick=2879600, channel=0, data=[78, 100]),
   midi.NoteOffEvent(tick=2879700, channel=0, data=[78, 0]),
   midi.NoteOnEvent(tick=2879800, channel=0, data=[15, 100]),
   midi.NoteOffEvent(tick=2879900, channel=0, data=[15, 0]),
   midi.NoteOnEvent(tick=2880000, channel=0, data=[18, 100]),
   midi.NoteOffEvent(tick=2880100, channel=0, data=[18, 0]),
   midi.NoteOnEvent(tick=2880200, channel=0, data=[73, 100]),
   midi.NoteOffEvent(tick=2880300, channel=0, data=[73, 0]),
   midi.NoteOnEvent(tick=2880400, channel=0, data=[36, 100]),
   midi.NoteOffEvent(tick=2880500, channel=0, data=[36, 0]),
   midi.NoteOnEvent(tick=2880600, channel=0, data=[74, 100]),
   midi.NoteOffEvent(tick=2880700, channel=0, data=[74, 0]),
   midi.NoteOnEvent(tick=2880800, channel=0, data=[0, 100]),
   midi.NoteOffEvent(tick=2880900, channel=0, data=[0, 0]),
   midi.NoteOnEvent(tick=2881000, channel=0, data=[56, 100]),
   midi.NoteOffEvent(tick=2881100, channel=0, data=[56, 0]),
   midi.NoteOnEvent(tick=2881200, channel=0, data=[36, 100]),
   midi.NoteOffEvent(tick=2881300, channel=0, data=[36, 0]),
   midi.NoteOnEvent(tick=2881400, channel=0, data=[36, 100]),
   midi.NoteOffEvent(tick=2881500, channel=0, data=[36, 0]),
   midi.NoteOnEvent(tick=2881600, channel=0, data=[36, 100]),
   midi.NoteOffEvent(tick=2881700, channel=0, data=[36, 0]),
   midi.NoteOnEvent(tick=2881800, channel=0, data=[36, 100]),
   midi.NoteOffEvent(tick=2881900, channel=0, data=[36, 0]),
   midi.NoteOnEvent(tick=2882000, channel=0, data=[36, 100]),
   midi.NoteOffEvent(tick=2882100, channel=0, data=[36, 0]),
   midi.NoteOnEvent(tick=2882200, channel=0, data=[36, 100]),
   midi.NoteOffEvent(tick=2882300, channel=0, data=[36, 0]),
   midi.NoteOnEvent(tick=2882400, channel=0, data=[36, 100]),
   midi.NoteOffEvent(tick=2882500, channel=0, data=[36, 0]),
   midi.NoteOnEvent(tick=2882600, channel=0, data=[36, 100]),
   midi.NoteOffEvent(tick=2882700, channel=0, data=[36, 0]),
   midi.NoteOnEvent(tick=2882800, channel=0, data=[34, 100]),
   midi.NoteOffEvent(tick=2882900, channel=0, data=[34, 0]),
   midi.NoteOnEvent(tick=2883000, channel=0, data=[56, 100]),
   midi.NoteOffEvent(tick=2883100, channel=0, data=[56, 0]),
   midi.NoteOnEvent(tick=2883200, channel=0, data=[36, 100]),
   midi.NoteOffEvent(tick=2883300, channel=0, data=[36, 0]),
   midi.NoteOnEvent(tick=2883400, channel=0, data=[36, 100]),
   midi.NoteOffEvent(tick=2883500, channel=0, data=[36, 0]),
   midi.NoteOnEvent(tick=2883600, channel=0, data=[36, 100]),
   midi.NoteOffEvent(tick=2883700, channel=0, data=[36, 0]),
   midi.NoteOnEvent(tick=2883800, channel=0, data=[36, 100]),
   midi.NoteOffEvent(tick=2883900, channel=0, data=[36, 0]),
   midi.NoteOnEvent(tick=2884000, channel=0, data=[36, 100]),
   midi.NoteOffEvent(tick=2884100, channel=0, data=[36, 0]),
   midi.NoteOnEvent(tick=2884200, channel=0, data=[36, 100]),
   midi.NoteOffEvent(tick=2884300, channel=0, data=[36, 0]),
   midi.NoteOnEvent(tick=2884400, channel=0, data=[36, 100]),
   midi.NoteOffEvent(tick=2884500, channel=0, data=[36, 0]),
   midi.NoteOnEvent(tick=2884600, channel=0, data=[36, 100]),
   midi.NoteOffEvent(tick=2884700, channel=0, data=[36, 0]),
   midi.NoteOnEvent(tick=2884800, channel=0, data=[2, 100]),
   midi.NoteOffEvent(tick=2884900, channel=0, data=[2, 0]),
   midi.NoteOnEvent(tick=2885000, channel=0, data=[46, 100]),
   midi.NoteOffEvent(tick=2885100, channel=0, data=[46, 0]),
   midi.NoteOnEvent(tick=2885200, channel=0, data=[78, 100]),
   midi.NoteOffEvent(tick=2885300, channel=0, data=[78, 0]),
   midi.NoteOnEvent(tick=2885400, channel=0, data=[15, 100]),
   midi.NoteOffEvent(tick=2885500, channel=0, data=[15, 0]),
   midi.NoteOnEvent(tick=2885600, channel=0, data=[18, 100]),
   midi.NoteOffEvent(tick=2885700, channel=0, data=[18, 0]),
   midi.NoteOnEvent(tick=2885800, channel=0, data=[73, 100]),
   midi.NoteOffEvent(tick=2885900, channel=0, data=[73, 0]),
   midi.NoteOnEvent(tick=2886000, channel=0, data=[36, 100]),
   midi.NoteOffEvent(tick=2886100, channel=0, data=[36, 0]),
   midi.NoteOnEvent(tick=2886200, channel=0, data=[74, 100]),
   midi.NoteOffEvent(tick=2886300, channel=0, data=[74, 0]),
   midi.NoteOnEvent(tick=2886400, channel=0, data=[2, 100]),
   midi.NoteOffEvent(tick=2886500, channel=0, data=[2, 0]),
   midi.NoteOnEvent(tick=2886600, channel=0, data=[56, 100]),
   midi.NoteOffEvent(tick=2886700, channel=0, data=[56, 0]),
   midi.NoteOnEvent(tick=2886800, channel=0, data=[36, 100]),
   midi.NoteOffEvent(tick=2886900, channel=0, data=[36, 0]),
   midi.NoteOnEvent(tick=2887000, channel=0, data=[36, 100]),
   midi.NoteOffEvent(tick=2887100, channel=0, data=[36, 0]),
   midi.NoteOnEvent(tick=2887200, channel=0, data=[36, 100]),
   midi.NoteOffEvent(tick=2887300, channel=0, data=[36, 0]),
   midi.NoteOnEvent(tick=2887400, channel=0, data=[36, 100]),
   midi.NoteOffEvent(tick=2887500, channel=0, data=[36, 0]),
   midi.NoteOnEvent(tick=2887600, channel=0, data=[36, 100]),
   midi.NoteOffEvent(tick=2887700, channel=0, data=[36, 0]),
   midi.NoteOnEvent(tick=2887800, channel=0, data=[36, 100]),
   midi.NoteOffEvent(tick=2887900, channel=0, data=[36, 0]),
   midi.NoteOnEvent(tick=2888000, channel=0, data=[36, 100]),
   midi.NoteOffEvent(tick=2888100, channel=0, data=[36, 0]),
   midi.NoteOnEvent(tick=2888200, channel=0, data=[36, 100]),
   midi.NoteOffEvent(tick=2888300, channel=0, data=[36, 0]),
   midi.NoteOnEvent(tick=2888400, channel=0, data=[34, 100]),
   midi.NoteOffEvent(tick=2888500, channel=0, data=[34, 0]),
   midi.NoteOnEvent(tick=2888600, channel=0, data=[56, 100]),
   midi.NoteOffEvent(tick=2888700, channel=0, data=[56, 0]),
   midi.NoteOnEvent(tick=2888800, channel=0, data=[56, 100]),
   midi.NoteOffEvent(tick=2888900, channel=0, data=[56, 0]),
   midi.NoteOnEvent(tick=2889000, channel=0, data=[56, 100]),
   midi.NoteOffEvent(tick=2889100, channel=0, data=[56, 0]),
   midi.NoteOnEvent(tick=2889200, channel=0, data=[36, 100]),
   midi.NoteOffEvent(tick=2889300, channel=0, data=[36, 0]),
   midi.NoteOnEvent(tick=2889400, channel=0, data=[36, 100]),
   midi.NoteOffEvent(tick=2889500, channel=0, data=[36, 0]),
   midi.NoteOnEvent(tick=2889600, channel=0, data=[36, 100]),
   midi.NoteOffEvent(tick=2889700, channel=0, data=[36, 0]),
   midi.NoteOnEvent(tick=2889800, channel=0, data=[36, 100]),
   midi.NoteOffEvent(tick=2889900, channel=0, data=[36, 0]),
   midi.NoteOnEvent(tick=2890000, channel=0, data=[19, 100]),
   midi.NoteOffEvent(tick=2890100, channel=0, data=[19, 0]),
   midi.NoteOnEvent(tick=2890200, channel=0, data=[7, 100]),
   midi.NoteOffEvent(tick=2890300, channel=0, data=[7, 0]),
   midi.NoteOnEvent(tick=2890400, channel=0, data=[4, 100]),
   midi.NoteOffEvent(tick=2890500, channel=0, data=[4, 0]),
   midi.NoteOnEvent(tick=2890600, channel=0, data=[36, 100]),
   midi.NoteOffEvent(tick=2890700, channel=0, data=[36, 0]),
   midi.NoteOnEvent(tick=2890800, channel=0, data=[15, 100]),
   midi.NoteOffEvent(tick=2890900, channel=0, data=[15, 0]),
   midi.NoteOnEvent(tick=2891000, channel=0, data=[14, 100]),
   midi.NoteOffEvent(tick=2891100, channel=0, data=[14, 0]),
   midi.NoteOnEvent(tick=2891200, channel=0, data=[18, 100]),
   midi.NoteOffEvent(tick=2891300, channel=0, data=[18, 0]),
   midi.NoteOnEvent(tick=2891400, channel=0, data=[19, 100]),
   midi.NoteOffEvent(tick=2891500, channel=0, data=[19, 0]),
   midi.NoteOnEvent(tick=2891600, channel=0, data=[5, 100]),
   midi.NoteOffEvent(tick=2891700, channel=0, data=[5, 0]),
   midi.NoteOnEvent(tick=2891800, channel=0, data=[8, 100]),
   midi.NoteOffEvent(tick=2891900, channel=0, data=[8, 0]),
   midi.NoteOnEvent(tick=2892000, channel=0, data=[23, 100]),
   midi.NoteOffEvent(tick=2892100, channel=0, data=[23, 0]),
   midi.NoteOnEvent(tick=2892200, channel=0, data=[36, 100]),
   midi.NoteOffEvent(tick=2892300, channel=0, data=[36, 0]),
   midi.NoteOnEvent(tick=2892400, channel=0, data=[21, 100]),
   midi.NoteOffEvent(tick=2892500, channel=0, data=[21, 0]),
   midi.NoteOnEvent(tick=2892600, channel=0, data=[4, 100]),
   midi.NoteOffEvent(tick=2892700, channel=0, data=[4, 0]),
   midi.NoteOnEvent(tick=2892800, channel=0, data=[17, 100]),
   midi.NoteOffEvent(tick=2892900, channel=0, data=[17, 0]),
   midi.NoteOnEvent(tick=2893000, channel=0, data=[18, 100]),
   midi.NoteOffEvent(tick=2893100, channel=0, data=[18, 0]),
   midi.NoteOnEvent(tick=2893200, channel=0, data=[8, 100]),
   midi.NoteOffEvent(tick=2893300, channel=0, data=[8, 0]),
   midi.NoteOnEvent(tick=2893400, channel=0, data=[14, 100]),
   midi.NoteOffEvent(tick=2893500, channel=0, data=[14, 0]),
   midi.NoteOnEvent(tick=2893600, channel=0, data=[13, 100]),
   midi.NoteOffEvent(tick=2893700, channel=0, data=[13, 0]),
   midi.NoteOnEvent(tick=2893800, channel=0, data=[36, 100]),
   midi.NoteOffEvent(tick=2893900, channel=0, data=[36, 0]),
   midi.NoteOnEvent(tick=2894000, channel=0, data=[14, 100]),
   midi.NoteOffEvent(tick=2894100, channel=0, data=[14, 0]),
   midi.NoteOnEvent(tick=2894200, channel=0, data=[5, 100]),
   midi.NoteOffEvent(tick=2894300, channel=0, data=[5, 0]),
   midi.NoteOnEvent(tick=2894400, channel=0, data=[36, 100]),
   midi.NoteOffEvent(tick=2894500, channel=0, data=[36, 0]),
   midi.NoteOnEvent(tick=2894600, channel=0, data=[19, 100]),
   midi.NoteOffEvent(tick=2894700, channel=0, data=[19, 0]),
   midi.NoteOnEvent(tick=2894800, channel=0, data=[7, 100]),
   midi.NoteOffEvent(tick=2894900, channel=0, data=[7, 0]),
   midi.NoteOnEvent(tick=2895000, channel=0, data=[4, 100]),
   midi.NoteOffEvent(tick=2895100, channel=0, data=[4, 0]),
   midi.NoteOnEvent(tick=2895200, channel=0, data=[36, 100]),
   midi.NoteOffEvent(tick=2895300, channel=0, data=[36, 0]),
   midi.NoteOnEvent(tick=2895400, channel=0, data=[14, 100]),
   midi.NoteOffEvent(tick=2895500, channel=0, data=[14, 0]),
   midi.NoteOnEvent(tick=2895600, channel=0, data=[15, 100]),
   midi.NoteOffEvent(tick=2895700, channel=0, data=[15, 0]),
   midi.NoteOnEvent(tick=2895800, channel=0, data=[4, 100]),
   midi.NoteOffEvent(tick=2895900, channel=0, data=[4, 0]),
   midi.NoteOnEvent(tick=2896000, channel=0, data=[17, 100]),
   midi.NoteOffEvent(tick=2896100, channel=0, data=[17, 0]),
   midi.NoteOnEvent(tick=2896200, channel=0, data=[0, 100]),
   midi.NoteOffEvent(tick=2896300, channel=0, data=[0, 0]),
   midi.NoteOnEvent(tick=2896400, channel=0, data=[19, 100]),
   midi.NoteOffEvent(tick=2896500, channel=0, data=[19, 0]),
   midi.NoteOnEvent(tick=2896600, channel=0, data=[14, 100]),
   midi.NoteOffEvent(tick=2896700, channel=0, data=[14, 0]),
   midi.NoteOnEvent(tick=2896800, channel=0, data=[17, 100]),
   midi.NoteOffEvent(tick=2896900, channel=0, data=[17, 0]),
   midi.NoteOnEvent(tick=2897000, channel=0, data=[36, 100]),
   midi.NoteOffEvent(tick=2897100, channel=0, data=[36, 0]),
   midi.NoteOnEvent(tick=2897200, channel=0, data=[8, 100]),
   midi.NoteOffEvent(tick=2897300, channel=0, data=[8, 0]),
   midi.NoteOnEvent(tick=2897400, channel=0, data=[13, 100]),
   midi.NoteOffEvent(tick=2897500, channel=0, data=[13, 0]),
   midi.NoteOnEvent(tick=2897600, channel=0, data=[2, 100]),
   midi.NoteOffEvent(tick=2897700, channel=0, data=[2, 0]),
   midi.NoteOnEvent(tick=2897800, channel=0, data=[17, 100]),
   midi.NoteOffEvent(tick=2897900, channel=0, data=[17, 0]),
   midi.NoteOnEvent(tick=2898000, channel=0, data=[4, 100]),
   midi.NoteOffEvent(tick=2898100, channel=0, data=[4, 0]),
   midi.NoteOnEvent(tick=2898200, channel=0, data=[12, 100]),
   midi.NoteOffEvent(tick=2898300, channel=0, data=[12, 0]),
   midi.NoteOnEvent(tick=2898400, channel=0, data=[4, 100]),
   midi.NoteOffEvent(tick=2898500, channel=0, data=[4, 0]),
   midi.NoteOnEvent(tick=2898600, channel=0, data=[13, 100]),
   midi.NoteOffEvent(tick=2898700, channel=0, data=[13, 0]),
   midi.NoteOnEvent(tick=2898800, channel=0, data=[19, 100]),
   midi.NoteOffEvent(tick=2898900, channel=0, data=[19, 0]),
   midi.NoteOnEvent(tick=2899000, channel=0, data=[18, 100]),
   midi.NoteOffEvent(tick=2899100, channel=0, data=[18, 0]),
   midi.NoteOnEvent(tick=2899200, channel=0, data=[36, 100]),
   midi.NoteOffEvent(tick=2899300, channel=0, data=[36, 0]),
   midi.NoteOnEvent(tick=2899400, channel=0, data=[0, 100]),
   midi.NoteOffEvent(tick=2899500, channel=0, data=[0, 0]),
   midi.NoteOnEvent(tick=2899600, channel=0, data=[36, 100]),
   midi.NoteOffEvent(tick=2899700, channel=0, data=[36, 0]),
   midi.NoteOnEvent(tick=2899800, channel=0, data=[21, 100]),
   midi.NoteOffEvent(tick=2899900, channel=0, data=[21, 0]),
   midi.NoteOnEvent(tick=2900000, channel=0, data=[0, 100]),
   midi.NoteOffEvent(tick=2900100, channel=0, data=[0, 0]),
   midi.NoteOnEvent(tick=2900200, channel=0, data=[17, 100]),
   midi.NoteOffEvent(tick=2900300, channel=0, data=[17, 0]),
   midi.NoteOnEvent(tick=2900400, channel=0, data=[8, 100]),
   midi.NoteOffEvent(tick=2900500, channel=0, data=[8, 0]),
   midi.NoteOnEvent(tick=2900600, channel=0, data=[0, 100]),
   midi.NoteOffEvent(tick=2900700, channel=0, data=[0, 0]),
   midi.NoteOnEvent(tick=2900800, channel=0, data=[1, 100]),
   midi.NoteOffEvent(tick=2900900, channel=0, data=[1, 0]),
   midi.NoteOnEvent(tick=2901000, channel=0, data=[11, 100]),
   midi.NoteOffEvent(tick=2901100, channel=0, data=[11, 0]),
   midi.NoteOnEvent(tick=2901200, channel=0, data=[4, 100]),
   midi.NoteOffEvent(tick=2901300, channel=0, data=[4, 0]),
   midi.NoteOnEvent(tick=2901400, channel=0, data=[36, 100]),
   midi.NoteOffEvent(tick=2901500, channel=0, data=[36, 0]),
   midi.NoteOnEvent(tick=2901600, channel=0, data=[0, 100]),
   midi.NoteOffEvent(tick=2901700, channel=0, data=[0, 0]),
   midi.NoteOnEvent(tick=2901800, channel=0, data=[5, 100]),
   midi.NoteOffEvent(tick=2901900, channel=0, data=[5, 0]),
   midi.NoteOnEvent(tick=2902000, channel=0, data=[19, 100]),
   midi.NoteOffEvent(tick=2902100, channel=0, data=[19, 0]),
   midi.NoteOnEvent(tick=2902200, channel=0, data=[4, 100]),
   midi.NoteOffEvent(tick=2902300, channel=0, data=[4, 0]),
   midi.NoteOnEvent(tick=2902400, channel=0, data=[17, 100]),
   midi.NoteOffEvent(tick=2902500, channel=0, data=[17, 0]),
   midi.NoteOnEvent(tick=2902600, channel=0, data=[36, 100]),
   midi.NoteOffEvent(tick=2902700, channel=0, data=[36, 0]),
   midi.NoteOnEvent(tick=2902800, channel=0, data=[8, 100]),
   midi.NoteOffEvent(tick=2902900, channel=0, data=[8, 0]),
   midi.NoteOnEvent(tick=2903000, channel=0, data=[19, 100]),
   midi.NoteOffEvent(tick=2903100, channel=0, data=[19, 0]),
   midi.NoteOnEvent(tick=2903200, channel=0, data=[18, 100]),
   midi.NoteOffEvent(tick=2903300, channel=0, data=[18, 0]),
   midi.NoteOnEvent(tick=2903400, channel=0, data=[36, 100]),
   midi.NoteOffEvent(tick=2903500, channel=0, data=[36, 0]),
   midi.NoteOnEvent(tick=2903600, channel=0, data=[21, 100]),
   midi.NoteOffEvent(tick=2903700, channel=0, data=[21, 0]),
   midi.NoteOnEvent(tick=2903800, channel=0, data=[0, 100]),
   midi.NoteOffEvent(tick=2903900, channel=0, data=[0, 0]),
   midi.NoteOnEvent(tick=2904000, channel=0, data=[11, 100]),
   midi.NoteOffEvent(tick=2904100, channel=0, data=[11, 0]),
   midi.NoteOnEvent(tick=2904200, channel=0, data=[20, 100]),
   midi.NoteOffEvent(tick=2904300, channel=0, data=[20, 0]),
   midi.NoteOnEvent(tick=2904400, channel=0, data=[4, 100]),
   midi.NoteOffEvent(tick=2904500, channel=0, data=[4, 0]),
   midi.NoteOnEvent(tick=2904600, channel=0, data=[36, 100]),
   midi.NoteOffEvent(tick=2904700, channel=0, data=[36, 0]),
   midi.NoteOnEvent(tick=2904800, channel=0, data=[56, 100]),
   midi.NoteOffEvent(tick=2904900, channel=0, data=[56, 0]),
   midi.NoteOnEvent(tick=2905000, channel=0, data=[36, 100]),
   midi.NoteOffEvent(tick=2905100, channel=0, data=[36, 0]),
   midi.NoteOnEvent(tick=2905200, channel=0, data=[36, 100]),
   midi.NoteOffEvent(tick=2905300, channel=0, data=[36, 0]),
   midi.NoteOnEvent(tick=2905400, channel=0, data=[36, 100]),
   midi.NoteOffEvent(tick=2905500, channel=0, data=[36, 0]),
   midi.NoteOnEvent(tick=2905600, channel=0, data=[36, 100]),
   midi.NoteOffEvent(tick=2905700, channel=0, data=[36, 0]),
   midi.NoteOnEvent(tick=2905800, channel=0, data=[8, 100]),
   midi.NoteOffEvent(tick=2905900, channel=0, data=[8, 0]),
   midi.NoteOnEvent(tick=2906000, channel=0, data=[18, 100]),
   midi.NoteOffEvent(tick=2906100, channel=0, data=[18, 0]),
   midi.NoteOnEvent(tick=2906200, channel=0, data=[36, 100]),
   midi.NoteOffEvent(tick=2906300, channel=0, data=[36, 0]),
   midi.NoteOnEvent(tick=2906400, channel=0, data=[20, 100]),
   midi.NoteOffEvent(tick=2906500, channel=0, data=[20, 0]),
   midi.NoteOnEvent(tick=2906600, channel=0, data=[18, 100]),
   midi.NoteOffEvent(tick=2906700, channel=0, data=[18, 0]),
   midi.NoteOnEvent(tick=2906800, channel=0, data=[4, 100]),
   midi.NoteOffEvent(tick=2906900, channel=0, data=[4, 0]),
   midi.NoteOnEvent(tick=2907000, channel=0, data=[3, 100]),
   midi.NoteOffEvent(tick=2907100, channel=0, data=[3, 0]),
   midi.NoteOnEvent(tick=2907200, channel=0, data=[36, 100]),
   midi.NoteOffEvent(tick=2907300, channel=0, data=[36, 0]),
   midi.NoteOnEvent(tick=2907400, channel=0, data=[8, 100]),
   midi.NoteOffEvent(tick=2907500, channel=0, data=[8, 0]),
   midi.NoteOnEvent(tick=2907600, channel=0, data=[13, 100]),
   midi.NoteOffEvent(tick=2907700, channel=0, data=[13, 0]),
   midi.NoteOnEvent(tick=2907800, channel=0, data=[36, 100]),
   midi.NoteOffEvent(tick=2907900, channel=0, data=[36, 0]),
   midi.NoteOnEvent(tick=2908000, channel=0, data=[19, 100]),
   midi.NoteOffEvent(tick=2908100, channel=0, data=[19, 0]),
   midi.NoteOnEvent(tick=2908200, channel=0, data=[7, 100]),
   midi.NoteOffEvent(tick=2908300, channel=0, data=[7, 0]),
   midi.NoteOnEvent(tick=2908400, channel=0, data=[4, 100]),
   midi.NoteOffEvent(tick=2908500, channel=0, data=[4, 0]),
   midi.NoteOnEvent(tick=2908600, channel=0, data=[36, 100]),
   midi.NoteOffEvent(tick=2908700, channel=0, data=[36, 0]),
   midi.NoteOnEvent(tick=2908800, channel=0, data=[18, 100]),
   midi.NoteOffEvent(tick=2908900, channel=0, data=[18, 0]),
   midi.NoteOnEvent(tick=2909000, channel=0, data=[19, 100]),
   midi.NoteOffEvent(tick=2909100, channel=0, data=[19, 0]),
   midi.NoteOnEvent(tick=2909200, channel=0, data=[0, 100]),
   midi.NoteOffEvent(tick=2909300, channel=0, data=[0, 0]),
   midi.NoteOnEvent(tick=2909400, channel=0, data=[19, 100]),
   midi.NoteOffEvent(tick=2909500, channel=0, data=[19, 0]),
   midi.NoteOnEvent(tick=2909600, channel=0, data=[4, 100]),
   midi.NoteOffEvent(tick=2909700, channel=0, data=[4, 0]),
   midi.NoteOnEvent(tick=2909800, channel=0, data=[12, 100]),
   midi.NoteOffEvent(tick=2909900, channel=0, data=[12, 0]),
   midi.NoteOnEvent(tick=2910000, channel=0, data=[4, 100]),
   midi.NoteOffEvent(tick=2910100, channel=0, data=[4, 0]),
   midi.NoteOnEvent(tick=2910200, channel=0, data=[13, 100]),
   midi.NoteOffEvent(tick=2910300, channel=0, data=[13, 0]),
   midi.NoteOnEvent(tick=2910400, channel=0, data=[19, 100]),
   midi.NoteOffEvent(tick=2910500, channel=0, data=[19, 0]),
   midi.NoteOnEvent(tick=2910600, channel=0, data=[37, 100]),
   midi.NoteOffEvent(tick=2910700, channel=0, data=[37, 0]),
   midi.NoteOnEvent(tick=2910800, channel=0, data=[36, 100]),
   midi.NoteOffEvent(tick=2910900, channel=0, data=[36, 0]),
   midi.NoteOnEvent(tick=2911000, channel=0, data=[8, 100]),
   midi.NoteOffEvent(tick=2911100, channel=0, data=[8, 0]),
   midi.NoteOnEvent(tick=2911200, channel=0, data=[13, 100]),
   midi.NoteOffEvent(tick=2911300, channel=0, data=[13, 0]),
   midi.NoteOnEvent(tick=2911400, channel=0, data=[36, 100]),
   midi.NoteOffEvent(tick=2911500, channel=0, data=[36, 0]),
   midi.NoteOnEvent(tick=2911600, channel=0, data=[19, 100]),
   midi.NoteOffEvent(tick=2911700, channel=0, data=[19, 0]),
   midi.NoteOnEvent(tick=2911800, channel=0, data=[7, 100]),
   midi.NoteOffEvent(tick=2911900, channel=0, data=[7, 0]),
   midi.NoteOnEvent(tick=2912000, channel=0, data=[4, 100]),
   midi.NoteOffEvent(tick=2912100, channel=0, data=[4, 0]),
   midi.NoteOnEvent(tick=2912200, channel=0, data=[36, 100]),
   midi.NoteOffEvent(tick=2912300, channel=0, data=[36, 0]),
   midi.NoteOnEvent(tick=2912400, channel=0, data=[5, 100]),
   midi.NoteOffEvent(tick=2912500, channel=0, data=[5, 0]),
   midi.NoteOnEvent(tick=2912600, channel=0, data=[14, 100]),
   midi.NoteOffEvent(tick=2912700, channel=0, data=[14, 0]),
   midi.NoteOnEvent(tick=2912800, channel=0, data=[11, 100]),
   midi.NoteOffEvent(tick=2912900, channel=0, data=[11, 0]),
   midi.NoteOnEvent(tick=2913000, channel=0, data=[11, 100]),
   midi.NoteOffEvent(tick=2913100, channel=0, data=[11, 0]),
   midi.NoteOnEvent(tick=2913200, channel=0, data=[14, 100]),
   midi.NoteOffEvent(tick=2913300, channel=0, data=[14, 0]),
   midi.NoteOnEvent(tick=2913400, channel=0, data=[22, 100]),
   midi.NoteOffEvent(tick=2913500, channel=0, data=[22, 0]),
   midi.NoteOnEvent(tick=2913600, channel=0, data=[8, 100]),
   midi.NoteOffEvent(tick=2913700, channel=0, data=[8, 0]),
   midi.NoteOnEvent(tick=2913800, channel=0, data=[13, 100]),
   midi.NoteOffEvent(tick=2913900, channel=0, data=[13, 0]),
   midi.NoteOnEvent(tick=2914000, channel=0, data=[6, 100]),
   midi.NoteOffEvent(tick=2914100, channel=0, data=[6, 0]),
   midi.NoteOnEvent(tick=2914200, channel=0, data=[36, 100]),
   midi.NoteOffEvent(tick=2914300, channel=0, data=[36, 0]),
   midi.NoteOnEvent(tick=2914400, channel=0, data=[4, 100]),
   midi.NoteOffEvent(tick=2914500, channel=0, data=[4, 0]),
   midi.NoteOnEvent(tick=2914600, channel=0, data=[23, 100]),
   midi.NoteOffEvent(tick=2914700, channel=0, data=[23, 0]),
   midi.NoteOnEvent(tick=2914800, channel=0, data=[0, 100]),
   midi.NoteOffEvent(tick=2914900, channel=0, data=[0, 0]),
   midi.NoteOnEvent(tick=2915000, channel=0, data=[12, 100]),
   midi.NoteOffEvent(tick=2915100, channel=0, data=[12, 0]),
   midi.NoteOnEvent(tick=2915200, channel=0, data=[15, 100]),
   midi.NoteOffEvent(tick=2915300, channel=0, data=[15, 0]),
   midi.NoteOnEvent(tick=2915400, channel=0, data=[11, 100]),
   midi.NoteOffEvent(tick=2915500, channel=0, data=[11, 0]),
   midi.NoteOnEvent(tick=2915600, channel=0, data=[4, 100]),
   midi.NoteOffEvent(tick=2915700, channel=0, data=[4, 0]),
   midi.NoteOnEvent(tick=2915800, channel=0, data=[38, 100]),
   midi.NoteOffEvent(tick=2915900, channel=0, data=[38, 0]),
   midi.NoteOnEvent(tick=2916000, channel=0, data=[36, 100]),
   midi.NoteOffEvent(tick=2916100, channel=0, data=[36, 0]),
   midi.NoteOnEvent(tick=2916200, channel=0, data=[19, 100]),
   midi.NoteOffEvent(tick=2916300, channel=0, data=[19, 0]),
   midi.NoteOnEvent(tick=2916400, channel=0, data=[7, 100]),
   midi.NoteOffEvent(tick=2916500, channel=0, data=[7, 0]),
   midi.NoteOnEvent(tick=2916600, channel=0, data=[4, 100]),
   midi.NoteOffEvent(tick=2916700, channel=0, data=[4, 0]),
   midi.NoteOnEvent(tick=2916800, channel=0, data=[36, 100]),
   midi.NoteOffEvent(tick=2916900, channel=0, data=[36, 0]),
   midi.NoteOnEvent(tick=2917000, channel=0, data=[74, 100]),
   midi.NoteOffEvent(tick=2917100, channel=0, data=[74, 0]),
   midi.NoteOnEvent(tick=2917200, channel=0, data=[2, 100]),
   midi.NoteOffEvent(tick=2917300, channel=0, data=[2, 0]),
   midi.NoteOnEvent(tick=2917400, channel=0, data=[36, 100]),
   midi.NoteOffEvent(tick=2917500, channel=0, data=[36, 0]),
   midi.NoteOnEvent(tick=2917600, channel=0, data=[0, 100]),
   midi.NoteOffEvent(tick=2917700, channel=0, data=[0, 0]),
   midi.NoteOnEvent(tick=2917800, channel=0, data=[13, 100]),
   midi.NoteOffEvent(tick=2917900, channel=0, data=[13, 0]),
   midi.NoteOnEvent(tick=2918000, channel=0, data=[3, 100]),
   midi.NoteOffEvent(tick=2918100, channel=0, data=[3, 0]),
   midi.NoteOnEvent(tick=2918200, channel=0, data=[36, 100]),
   midi.NoteOffEvent(tick=2918300, channel=0, data=[36, 0]),
   midi.NoteOnEvent(tick=2918400, channel=0, data=[74, 100]),
   midi.NoteOffEvent(tick=2918500, channel=0, data=[74, 0]),
   midi.NoteOnEvent(tick=2918600, channel=0, data=[0, 100]),
   midi.NoteOffEvent(tick=2918700, channel=0, data=[0, 0]),
   midi.NoteOnEvent(tick=2918800, channel=0, data=[36, 100]),
   midi.NoteOffEvent(tick=2918900, channel=0, data=[36, 0]),
   midi.NoteOnEvent(tick=2919000, channel=0, data=[21, 100]),
   midi.NoteOffEvent(tick=2919100, channel=0, data=[21, 0]),
   midi.NoteOnEvent(tick=2919200, channel=0, data=[0, 100]),
   midi.NoteOffEvent(tick=2919300, channel=0, data=[0, 0]),
   midi.NoteOnEvent(tick=2919400, channel=0, data=[17, 100]),
   midi.NoteOffEvent(tick=2919500, channel=0, data=[17, 0]),
   midi.NoteOnEvent(tick=2919600, channel=0, data=[8, 100]),
   midi.NoteOffEvent(tick=2919700, channel=0, data=[8, 0]),
   midi.NoteOnEvent(tick=2919800, channel=0, data=[0, 100]),
   midi.NoteOffEvent(tick=2919900, channel=0, data=[0, 0]),
   midi.NoteOnEvent(tick=2920000, channel=0, data=[1, 100]),
   midi.NoteOffEvent(tick=2920100, channel=0, data=[1, 0]),
   midi.NoteOnEvent(tick=2920200, channel=0, data=[11, 100]),
   midi.NoteOffEvent(tick=2920300, channel=0, data=[11, 0]),
   midi.NoteOnEvent(tick=2920400, channel=0, data=[4, 100]),
   midi.NoteOffEvent(tick=2920500, channel=0, data=[4, 0]),
   midi.NoteOnEvent(tick=2920600, channel=0, data=[18, 100]),
   midi.NoteOffEvent(tick=2920700, channel=0, data=[18, 0]),
   midi.NoteOnEvent(tick=2920800, channel=0, data=[56, 100]),
   midi.NoteOffEvent(tick=2920900, channel=0, data=[56, 0]),
   midi.NoteOnEvent(tick=2921000, channel=0, data=[36, 100]),
   midi.NoteOffEvent(tick=2921100, channel=0, data=[36, 0]),
   midi.NoteOnEvent(tick=2921200, channel=0, data=[36, 100]),
   midi.NoteOffEvent(tick=2921300, channel=0, data=[36, 0]),
   midi.NoteOnEvent(tick=2921400, channel=0, data=[36, 100]),
   midi.NoteOffEvent(tick=2921500, channel=0, data=[36, 0]),
   midi.NoteOnEvent(tick=2921600, channel=0, data=[36, 100]),
   midi.NoteOffEvent(tick=2921700, channel=0, data=[36, 0]),
   midi.NoteOnEvent(tick=2921800, channel=0, data=[7, 100]),
   midi.NoteOffEvent(tick=2921900, channel=0, data=[7, 0]),
   midi.NoteOnEvent(tick=2922000, channel=0, data=[0, 100]),
   midi.NoteOffEvent(tick=2922100, channel=0, data=[0, 0]),
   midi.NoteOnEvent(tick=2922200, channel=0, data=[21, 100]),
   midi.NoteOffEvent(tick=2922300, channel=0, data=[21, 0]),
   midi.NoteOnEvent(tick=2922400, channel=0, data=[4, 100]),
   midi.NoteOffEvent(tick=2922500, channel=0, data=[4, 0]),
   midi.NoteOnEvent(tick=2922600, channel=0, data=[36, 100]),
   midi.NoteOffEvent(tick=2922700, channel=0, data=[36, 0]),
   midi.NoteOnEvent(tick=2922800, channel=0, data=[3, 100]),
   midi.NoteOffEvent(tick=2922900, channel=0, data=[3, 0]),
   midi.NoteOnEvent(tick=2923000, channel=0, data=[8, 100]),
   midi.NoteOffEvent(tick=2923100, channel=0, data=[8, 0]),
   midi.NoteOnEvent(tick=2923200, channel=0, data=[5, 100]),
   midi.NoteOffEvent(tick=2923300, channel=0, data=[5, 0]),
   midi.NoteOnEvent(tick=2923400, channel=0, data=[5, 100]),
   midi.NoteOffEvent(tick=2923500, channel=0, data=[5, 0]),
   midi.NoteOnEvent(tick=2923600, channel=0, data=[4, 100]),
   midi.NoteOffEvent(tick=2923700, channel=0, data=[4, 0]),
   midi.NoteOnEvent(tick=2923800, channel=0, data=[17, 100]),
   midi.NoteOffEvent(tick=2923900, channel=0, data=[17, 0]),
   midi.NoteOnEvent(tick=2924000, channel=0, data=[4, 100]),
   midi.NoteOffEvent(tick=2924100, channel=0, data=[4, 0]),
   midi.NoteOnEvent(tick=2924200, channel=0, data=[13, 100]),
   midi.NoteOffEvent(tick=2924300, channel=0, data=[13, 0]),
   midi.NoteOnEvent(tick=2924400, channel=0, data=[19, 100]),
   midi.NoteOffEvent(tick=2924500, channel=0, data=[19, 0]),
   midi.NoteOnEvent(tick=2924600, channel=0, data=[36, 100]),
   midi.NoteOffEvent(tick=2924700, channel=0, data=[36, 0]),
   midi.NoteOnEvent(tick=2924800, channel=0, data=[21, 100]),
   midi.NoteOffEvent(tick=2924900, channel=0, data=[21, 0]),
   midi.NoteOnEvent(tick=2925000, channel=0, data=[0, 100]),
   midi.NoteOffEvent(tick=2925100, channel=0, data=[0, 0]),
   midi.NoteOnEvent(tick=2925200, channel=0, data=[11, 100]),
   midi.NoteOffEvent(tick=2925300, channel=0, data=[11, 0]),
   midi.NoteOnEvent(tick=2925400, channel=0, data=[20, 100]),
   midi.NoteOffEvent(tick=2925500, channel=0, data=[20, 0]),
   midi.NoteOnEvent(tick=2925600, channel=0, data=[4, 100]),
   midi.NoteOffEvent(tick=2925700, channel=0, data=[4, 0]),
   midi.NoteOnEvent(tick=2925800, channel=0, data=[18, 100]),
   midi.NoteOffEvent(tick=2925900, channel=0, data=[18, 0]),
   midi.NoteOnEvent(tick=2926000, channel=0, data=[36, 100]),
   midi.NoteOffEvent(tick=2926100, channel=0, data=[36, 0]),
   midi.NoteOnEvent(tick=2926200, channel=0, data=[1, 100]),
   midi.NoteOffEvent(tick=2926300, channel=0, data=[1, 0]),
   midi.NoteOnEvent(tick=2926400, channel=0, data=[4, 100]),
   midi.NoteOffEvent(tick=2926500, channel=0, data=[4, 0]),
   midi.NoteOnEvent(tick=2926600, channel=0, data=[2, 100]),
   midi.NoteOffEvent(tick=2926700, channel=0, data=[2, 0]),
   midi.NoteOnEvent(tick=2926800, channel=0, data=[0, 100]),
   midi.NoteOffEvent(tick=2926900, channel=0, data=[0, 0]),
   midi.NoteOnEvent(tick=2927000, channel=0, data=[20, 100]),
   midi.NoteOffEvent(tick=2927100, channel=0, data=[20, 0]),
   midi.NoteOnEvent(tick=2927200, channel=0, data=[18, 100]),
   midi.NoteOffEvent(tick=2927300, channel=0, data=[18, 0]),
   midi.NoteOnEvent(tick=2927400, channel=0, data=[4, 100]),
   midi.NoteOffEvent(tick=2927500, channel=0, data=[4, 0]),
   midi.NoteOnEvent(tick=2927600, channel=0, data=[36, 100]),
   midi.NoteOffEvent(tick=2927700, channel=0, data=[36, 0]),
   midi.NoteOnEvent(tick=2927800, channel=0, data=[19, 100]),
   midi.NoteOffEvent(tick=2927900, channel=0, data=[19, 0]),
   midi.NoteOnEvent(tick=2928000, channel=0, data=[7, 100]),
   midi.NoteOffEvent(tick=2928100, channel=0, data=[7, 0]),
   midi.NoteOnEvent(tick=2928200, channel=0, data=[4, 100]),
   midi.NoteOffEvent(tick=2928300, channel=0, data=[4, 0]),
   midi.NoteOnEvent(tick=2928400, channel=0, data=[36, 100]),
   midi.NoteOffEvent(tick=2928500, channel=0, data=[36, 0]),
   midi.NoteOnEvent(tick=2928600, channel=0, data=[21, 100]),
   midi.NoteOffEvent(tick=2928700, channel=0, data=[21, 0]),
   midi.NoteOnEvent(tick=2928800, channel=0, data=[0, 100]),
   midi.NoteOffEvent(tick=2928900, channel=0, data=[0, 0]),
   midi.NoteOnEvent(tick=2929000, channel=0, data=[11, 100]),
   midi.NoteOffEvent(tick=2929100, channel=0, data=[11, 0]),
   midi.NoteOnEvent(tick=2929200, channel=0, data=[20, 100]),
   midi.NoteOffEvent(tick=2929300, channel=0, data=[20, 0]),
   midi.NoteOnEvent(tick=2929400, channel=0, data=[4, 100]),
   midi.NoteOffEvent(tick=2929500, channel=0, data=[4, 0]),
   midi.NoteOnEvent(tick=2929600, channel=0, data=[36, 100]),
   midi.NoteOffEvent(tick=2929700, channel=0, data=[36, 0]),
   midi.NoteOnEvent(tick=2929800, channel=0, data=[8, 100]),
   midi.NoteOffEvent(tick=2929900, channel=0, data=[8, 0]),
   midi.NoteOnEvent(tick=2930000, channel=0, data=[18, 100]),
   midi.NoteOffEvent(tick=2930100, channel=0, data=[18, 0]),
   midi.NoteOnEvent(tick=2930200, channel=0, data=[36, 100]),
   midi.NoteOffEvent(tick=2930300, channel=0, data=[36, 0]),
   midi.NoteOnEvent(tick=2930400, channel=0, data=[0, 100]),
   midi.NoteOffEvent(tick=2930500, channel=0, data=[0, 0]),
   midi.NoteOnEvent(tick=2930600, channel=0, data=[18, 100]),
   midi.NoteOffEvent(tick=2930700, channel=0, data=[18, 0]),
   midi.NoteOnEvent(tick=2930800, channel=0, data=[18, 100]),
   midi.NoteOffEvent(tick=2930900, channel=0, data=[18, 0]),
   midi.NoteOnEvent(tick=2931000, channel=0, data=[8, 100]),
   midi.NoteOffEvent(tick=2931100, channel=0, data=[8, 0]),
   midi.NoteOnEvent(tick=2931200, channel=0, data=[6, 100]),
   midi.NoteOffEvent(tick=2931300, channel=0, data=[6, 0]),
   midi.NoteOnEvent(tick=2931400, channel=0, data=[13, 100]),
   midi.NoteOffEvent(tick=2931500, channel=0, data=[13, 0]),
   midi.NoteOnEvent(tick=2931600, channel=0, data=[4, 100]),
   midi.NoteOffEvent(tick=2931700, channel=0, data=[4, 0]),
   midi.NoteOnEvent(tick=2931800, channel=0, data=[3, 100]),
   midi.NoteOffEvent(tick=2931900, channel=0, data=[3, 0]),
   midi.NoteOnEvent(tick=2932000, channel=0, data=[36, 100]),
   midi.NoteOffEvent(tick=2932100, channel=0, data=[36, 0]),
   midi.NoteOnEvent(tick=2932200, channel=0, data=[19, 100]),
   midi.NoteOffEvent(tick=2932300, channel=0, data=[19, 0]),
   midi.NoteOnEvent(tick=2932400, channel=0, data=[14, 100]),
   midi.NoteOffEvent(tick=2932500, channel=0, data=[14, 0]),
   midi.NoteOnEvent(tick=2932600, channel=0, data=[36, 100]),
   midi.NoteOffEvent(tick=2932700, channel=0, data=[36, 0]),
   midi.NoteOnEvent(tick=2932800, channel=0, data=[74, 100]),
   midi.NoteOffEvent(tick=2932900, channel=0, data=[74, 0]),
   midi.NoteOnEvent(tick=2933000, channel=0, data=[2, 100]),
   midi.NoteOffEvent(tick=2933100, channel=0, data=[2, 0]),
   midi.NoteOnEvent(tick=2933200, channel=0, data=[36, 100]),
   midi.NoteOffEvent(tick=2933300, channel=0, data=[36, 0]),
   midi.NoteOnEvent(tick=2933400, channel=0, data=[1, 100]),
   midi.NoteOffEvent(tick=2933500, channel=0, data=[1, 0]),
   midi.NoteOnEvent(tick=2933600, channel=0, data=[4, 100]),
   midi.NoteOffEvent(tick=2933700, channel=0, data=[4, 0]),
   midi.NoteOnEvent(tick=2933800, channel=0, data=[5, 100]),
   midi.NoteOffEvent(tick=2933900, channel=0, data=[5, 0]),
   midi.NoteOnEvent(tick=2934000, channel=0, data=[14, 100]),
   midi.NoteOffEvent(tick=2934100, channel=0, data=[14, 0]),
   midi.NoteOnEvent(tick=2934200, channel=0, data=[17, 100]),
   midi.NoteOffEvent(tick=2934300, channel=0, data=[17, 0]),
   midi.NoteOnEvent(tick=2934400, channel=0, data=[4, 100]),
   midi.NoteOffEvent(tick=2934500, channel=0, data=[4, 0]),
   midi.NoteOnEvent(tick=2934600, channel=0, data=[36, 100]),
   midi.NoteOffEvent(tick=2934700, channel=0, data=[36, 0]),
   midi.NoteOnEvent(tick=2934800, channel=0, data=[74, 100]),
   midi.NoteOffEvent(tick=2934900, channel=0, data=[74, 0]),
   midi.NoteOnEvent(tick=2935000, channel=0, data=[0, 100]),
   midi.NoteOffEvent(tick=2935100, channel=0, data=[0, 0]),
   midi.NoteOnEvent(tick=2935200, channel=0, data=[36, 100]),
   midi.NoteOffEvent(tick=2935300, channel=0, data=[36, 0]),
   midi.NoteOnEvent(tick=2935400, channel=0, data=[56, 100]),
   midi.NoteOffEvent(tick=2935500, channel=0, data=[56, 0]),
   midi.NoteOnEvent(tick=2935600, channel=0, data=[36, 100]),
   midi.NoteOffEvent(tick=2935700, channel=0, data=[36, 0]),
   midi.NoteOnEvent(tick=2935800, channel=0, data=[36, 100]),
   midi.NoteOffEvent(tick=2935900, channel=0, data=[36, 0]),
   midi.NoteOnEvent(tick=2936000, channel=0, data=[36, 100]),
   midi.NoteOffEvent(tick=2936100, channel=0, data=[36, 0]),
   midi.NoteOnEvent(tick=2936200, channel=0, data=[36, 100]),
   midi.NoteOffEvent(tick=2936300, channel=0, data=[36, 0]),
   midi.NoteOnEvent(tick=2936400, channel=0, data=[2, 100]),
   midi.NoteOffEvent(tick=2936500, channel=0, data=[2, 0]),
   midi.NoteOnEvent(tick=2936600, channel=0, data=[7, 100]),
   midi.NoteOffEvent(tick=2936700, channel=0, data=[7, 0]),
   midi.NoteOnEvent(tick=2936800, channel=0, data=[0, 100]),
   midi.NoteOffEvent(tick=2936900, channel=0, data=[0, 0]),
   midi.NoteOnEvent(tick=2937000, channel=0, data=[13, 100]),
   midi.NoteOffEvent(tick=2937100, channel=0, data=[13, 0]),
   midi.NoteOnEvent(tick=2937200, channel=0, data=[6, 100]),
   midi.NoteOffEvent(tick=2937300, channel=0, data=[6, 0]),
   midi.NoteOnEvent(tick=2937400, channel=0, data=[4, 100]),
   midi.NoteOffEvent(tick=2937500, channel=0, data=[4, 0]),
   midi.NoteOnEvent(tick=2937600, channel=0, data=[18, 100]),
   midi.NoteOffEvent(tick=2937700, channel=0, data=[18, 0]),
   midi.NoteOnEvent(tick=2937800, channel=0, data=[46, 100]),
   midi.NoteOffEvent(tick=2937900, channel=0, data=[46, 0]),
   midi.NoteOnEvent(tick=2938000, channel=0, data=[56, 100]),
   midi.NoteOffEvent(tick=2938100, channel=0, data=[56, 0]),
   midi.NoteOnEvent(tick=2938200, channel=0, data=[56, 100]),
   midi.NoteOffEvent(tick=2938300, channel=0, data=[56, 0]),
   midi.NoteOnEvent(tick=2938400, channel=0, data=[56, 100]),
   midi.NoteOffEvent(tick=2938500, channel=0, data=[56, 0]),
   midi.NoteOnEvent(tick=2938600, channel=0, data=[36, 100]),
   midi.NoteOffEvent(tick=2938700, channel=0, data=[36, 0]),
   midi.NoteOnEvent(tick=2938800, channel=0, data=[36, 100]),
   midi.NoteOffEvent(tick=2938900, channel=0, data=[36, 0]),
   midi.NoteOnEvent(tick=2939000, channel=0, data=[36, 100]),
   midi.NoteOffEvent(tick=2939100, channel=0, data=[36, 0]),
   midi.NoteOnEvent(tick=2939200, channel=0, data=[36, 100]),
   midi.NoteOffEvent(tick=2939300, channel=0, data=[36, 0]),
   midi.NoteOnEvent(tick=2939400, channel=0, data=[36, 100]),
   midi.NoteOffEvent(tick=2939500, channel=0, data=[36, 0]),
   midi.NoteOnEvent(tick=2939600, channel=0, data=[36, 100]),
   midi.NoteOffEvent(tick=2939700, channel=0, data=[36, 0]),
   midi.NoteOnEvent(tick=2939800, channel=0, data=[36, 100]),
   midi.NoteOffEvent(tick=2939900, channel=0, data=[36, 0]),
   midi.NoteOnEvent(tick=2940000, channel=0, data=[36, 100]),
   midi.NoteOffEvent(tick=2940100, channel=0, data=[36, 0]),
   midi.NoteOnEvent(tick=2940200, channel=0, data=[2, 100]),
   midi.NoteOffEvent(tick=2940300, channel=0, data=[2, 0]),
   midi.NoteOnEvent(tick=2940400, channel=0, data=[46, 100]),
   midi.NoteOffEvent(tick=2940500, channel=0, data=[46, 0]),
   midi.NoteOnEvent(tick=2940600, channel=0, data=[78, 100]),
   midi.NoteOffEvent(tick=2940700, channel=0, data=[78, 0]),
   midi.NoteOnEvent(tick=2940800, channel=0, data=[15, 100]),
   midi.NoteOffEvent(tick=2940900, channel=0, data=[15, 0]),
   midi.NoteOnEvent(tick=2941000, channel=0, data=[18, 100]),
   midi.NoteOffEvent(tick=2941100, channel=0, data=[18, 0]),
   midi.NoteOnEvent(tick=2941200, channel=0, data=[73, 100]),
   midi.NoteOffEvent(tick=2941300, channel=0, data=[73, 0]),
   midi.NoteOnEvent(tick=2941400, channel=0, data=[36, 100]),
   midi.NoteOffEvent(tick=2941500, channel=0, data=[36, 0]),
   midi.NoteOnEvent(tick=2941600, channel=0, data=[74, 100]),
   midi.NoteOffEvent(tick=2941700, channel=0, data=[74, 0]),
   midi.NoteOnEvent(tick=2941800, channel=0, data=[0, 100]),
   midi.NoteOffEvent(tick=2941900, channel=0, data=[0, 0]),
   midi.NoteOnEvent(tick=2942000, channel=0, data=[36, 100]),
   midi.NoteOffEvent(tick=2942100, channel=0, data=[36, 0]),
   midi.NoteOnEvent(tick=2942200, channel=0, data=[69, 100]),
   midi.NoteOffEvent(tick=2942300, channel=0, data=[69, 0]),
   midi.NoteOnEvent(tick=2942400, channel=0, data=[36, 100]),
   midi.NoteOffEvent(tick=2942500, channel=0, data=[36, 0]),
   midi.NoteOnEvent(tick=2942600, channel=0, data=[33, 100]),
   midi.NoteOffEvent(tick=2942700, channel=0, data=[33, 0]),
   midi.NoteOnEvent(tick=2942800, channel=0, data=[56, 100]),
   midi.NoteOffEvent(tick=2942900, channel=0, data=[56, 0]),
   midi.NoteOnEvent(tick=2943000, channel=0, data=[36, 100]),
   midi.NoteOffEvent(tick=2943100, channel=0, data=[36, 0]),
   midi.NoteOnEvent(tick=2943200, channel=0, data=[36, 100]),
   midi.NoteOffEvent(tick=2943300, channel=0, data=[36, 0]),
   midi.NoteOnEvent(tick=2943400, channel=0, data=[36, 100]),
   midi.NoteOffEvent(tick=2943500, channel=0, data=[36, 0]),
   midi.NoteOnEvent(tick=2943600, channel=0, data=[36, 100]),
   midi.NoteOffEvent(tick=2943700, channel=0, data=[36, 0]),
   midi.NoteOnEvent(tick=2943800, channel=0, data=[36, 100]),
   midi.NoteOffEvent(tick=2943900, channel=0, data=[36, 0]),
   midi.NoteOnEvent(tick=2944000, channel=0, data=[36, 100]),
   midi.NoteOffEvent(tick=2944100, channel=0, data=[36, 0]),
   midi.NoteOnEvent(tick=2944200, channel=0, data=[36, 100]),
   midi.NoteOffEvent(tick=2944300, channel=0, data=[36, 0]),
   midi.NoteOnEvent(tick=2944400, channel=0, data=[36, 100]),
   midi.NoteOffEvent(tick=2944500, channel=0, data=[36, 0]),
   midi.NoteOnEvent(tick=2944600, channel=0, data=[2, 100]),
   midi.NoteOffEvent(tick=2944700, channel=0, data=[2, 0]),
   midi.NoteOnEvent(tick=2944800, channel=0, data=[46, 100]),
   midi.NoteOffEvent(tick=2944900, channel=0, data=[46, 0]),
   midi.NoteOnEvent(tick=2945000, channel=0, data=[78, 100]),
   midi.NoteOffEvent(tick=2945100, channel=0, data=[78, 0]),
   midi.NoteOnEvent(tick=2945200, channel=0, data=[15, 100]),
   midi.NoteOffEvent(tick=2945300, channel=0, data=[15, 0]),
   midi.NoteOnEvent(tick=2945400, channel=0, data=[18, 100]),
   midi.NoteOffEvent(tick=2945500, channel=0, data=[18, 0]),
   midi.NoteOnEvent(tick=2945600, channel=0, data=[73, 100]),
   midi.NoteOffEvent(tick=2945700, channel=0, data=[73, 0]),
   midi.NoteOnEvent(tick=2945800, channel=0, data=[36, 100]),
   midi.NoteOffEvent(tick=2945900, channel=0, data=[36, 0]),
   midi.NoteOnEvent(tick=2946000, channel=0, data=[74, 100]),
   midi.NoteOffEvent(tick=2946100, channel=0, data=[74, 0]),
   midi.NoteOnEvent(tick=2946200, channel=0, data=[2, 100]),
   midi.NoteOffEvent(tick=2946300, channel=0, data=[2, 0]),
   midi.NoteOnEvent(tick=2946400, channel=0, data=[36, 100]),
   midi.NoteOffEvent(tick=2946500, channel=0, data=[36, 0]),
   midi.NoteOnEvent(tick=2946600, channel=0, data=[69, 100]),
   midi.NoteOffEvent(tick=2946700, channel=0, data=[69, 0]),
   midi.NoteOnEvent(tick=2946800, channel=0, data=[36, 100]),
   midi.NoteOffEvent(tick=2946900, channel=0, data=[36, 0]),
   midi.NoteOnEvent(tick=2947000, channel=0, data=[74, 100]),
   midi.NoteOffEvent(tick=2947100, channel=0, data=[74, 0]),
   midi.NoteOnEvent(tick=2947200, channel=0, data=[0, 100]),
   midi.NoteOffEvent(tick=2947300, channel=0, data=[0, 0]),
   midi.NoteOnEvent(tick=2947400, channel=0, data=[55, 100]),
   midi.NoteOffEvent(tick=2947500, channel=0, data=[55, 0]),
   midi.NoteOnEvent(tick=2947600, channel=0, data=[55, 100]),
   midi.NoteOffEvent(tick=2947700, channel=0, data=[55, 0]),
   midi.NoteOnEvent(tick=2947800, channel=0, data=[56, 100]),
   midi.NoteOffEvent(tick=2947900, channel=0, data=[56, 0]),
   midi.NoteOnEvent(tick=2948000, channel=0, data=[36, 100]),
   midi.NoteOffEvent(tick=2948100, channel=0, data=[36, 0]),
   midi.NoteOnEvent(tick=2948200, channel=0, data=[36, 100]),
   midi.NoteOffEvent(tick=2948300, channel=0, data=[36, 0]),
   midi.NoteOnEvent(tick=2948400, channel=0, data=[36, 100]),
   midi.NoteOffEvent(tick=2948500, channel=0, data=[36, 0]),
   midi.NoteOnEvent(tick=2948600, channel=0, data=[36, 100]),
   midi.NoteOffEvent(tick=2948700, channel=0, data=[36, 0]),
   midi.NoteOnEvent(tick=2948800, channel=0, data=[36, 100]),
   midi.NoteOffEvent(tick=2948900, channel=0, data=[36, 0]),
   midi.NoteOnEvent(tick=2949000, channel=0, data=[36, 100]),
   midi.NoteOffEvent(tick=2949100, channel=0, data=[36, 0]),
   midi.NoteOnEvent(tick=2949200, channel=0, data=[36, 100]),
   midi.NoteOffEvent(tick=2949300, channel=0, data=[36, 0]),
   midi.NoteOnEvent(tick=2949400, channel=0, data=[36, 100]),
   midi.NoteOffEvent(tick=2949500, channel=0, data=[36, 0]),
   midi.NoteOnEvent(tick=2949600, channel=0, data=[2, 100]),
   midi.NoteOffEvent(tick=2949700, channel=0, data=[2, 0]),
   midi.NoteOnEvent(tick=2949800, channel=0, data=[46, 100]),
   midi.NoteOffEvent(tick=2949900, channel=0, data=[46, 0]),
   midi.NoteOnEvent(tick=2950000, channel=0, data=[78, 100]),
   midi.NoteOffEvent(tick=2950100, channel=0, data=[78, 0]),
   midi.NoteOnEvent(tick=2950200, channel=0, data=[15, 100]),
   midi.NoteOffEvent(tick=2950300, channel=0, data=[15, 0]),
   midi.NoteOnEvent(tick=2950400, channel=0, data=[18, 100]),
   midi.NoteOffEvent(tick=2950500, channel=0, data=[18, 0]),
   midi.NoteOnEvent(tick=2950600, channel=0, data=[73, 100]),
   midi.NoteOffEvent(tick=2950700, channel=0, data=[73, 0]),
   midi.NoteOnEvent(tick=2950800, channel=0, data=[36, 100]),
   midi.NoteOffEvent(tick=2950900, channel=0, data=[36, 0]),
   midi.NoteOnEvent(tick=2951000, channel=0, data=[74, 100]),
   midi.NoteOffEvent(tick=2951100, channel=0, data=[74, 0]),
   midi.NoteOnEvent(tick=2951200, channel=0, data=[0, 100]),
   midi.NoteOffEvent(tick=2951300, channel=0, data=[0, 0]),
   midi.NoteOnEvent(tick=2951400, channel=0, data=[56, 100]),
   midi.NoteOffEvent(tick=2951500, channel=0, data=[56, 0]),
   midi.NoteOnEvent(tick=2951600, channel=0, data=[36, 100]),
   midi.NoteOffEvent(tick=2951700, channel=0, data=[36, 0]),
   midi.NoteOnEvent(tick=2951800, channel=0, data=[36, 100]),
   midi.NoteOffEvent(tick=2951900, channel=0, data=[36, 0]),
   midi.NoteOnEvent(tick=2952000, channel=0, data=[36, 100]),
   midi.NoteOffEvent(tick=2952100, channel=0, data=[36, 0]),
   midi.NoteOnEvent(tick=2952200, channel=0, data=[36, 100]),
   midi.NoteOffEvent(tick=2952300, channel=0, data=[36, 0]),
   midi.NoteOnEvent(tick=2952400, channel=0, data=[36, 100]),
   midi.NoteOffEvent(tick=2952500, channel=0, data=[36, 0]),
   midi.NoteOnEvent(tick=2952600, channel=0, data=[36, 100]),
   midi.NoteOffEvent(tick=2952700, channel=0, data=[36, 0]),
   midi.NoteOnEvent(tick=2952800, channel=0, data=[36, 100]),
   midi.NoteOffEvent(tick=2952900, channel=0, data=[36, 0]),
   midi.NoteOnEvent(tick=2953000, channel=0, data=[36, 100]),
   midi.NoteOffEvent(tick=2953100, channel=0, data=[36, 0]),
   midi.NoteOnEvent(tick=2953200, channel=0, data=[34, 100]),
   midi.NoteOffEvent(tick=2953300, channel=0, data=[34, 0]),
   midi.NoteOnEvent(tick=2953400, channel=0, data=[56, 100]),
   midi.NoteOffEvent(tick=2953500, channel=0, data=[56, 0]),
   midi.NoteOnEvent(tick=2953600, channel=0, data=[36, 100]),
   midi.NoteOffEvent(tick=2953700, channel=0, data=[36, 0]),
   midi.NoteOnEvent(tick=2953800, channel=0, data=[36, 100]),
   midi.NoteOffEvent(tick=2953900, channel=0, data=[36, 0]),
   midi.NoteOnEvent(tick=2954000, channel=0, data=[36, 100]),
   midi.NoteOffEvent(tick=2954100, channel=0, data=[36, 0]),
   midi.NoteOnEvent(tick=2954200, channel=0, data=[36, 100]),
   midi.NoteOffEvent(tick=2954300, channel=0, data=[36, 0]),
   midi.NoteOnEvent(tick=2954400, channel=0, data=[36, 100]),
   midi.NoteOffEvent(tick=2954500, channel=0, data=[36, 0]),
   midi.NoteOnEvent(tick=2954600, channel=0, data=[36, 100]),
   midi.NoteOffEvent(tick=2954700, channel=0, data=[36, 0]),
   midi.NoteOnEvent(tick=2954800, channel=0, data=[36, 100]),
   midi.NoteOffEvent(tick=2954900, channel=0, data=[36, 0]),
   midi.NoteOnEvent(tick=2955000, channel=0, data=[36, 100]),
   midi.NoteOffEvent(tick=2955100, channel=0, data=[36, 0]),
   midi.NoteOnEvent(tick=2955200, channel=0, data=[2, 100]),
   midi.NoteOffEvent(tick=2955300, channel=0, data=[2, 0]),
   midi.NoteOnEvent(tick=2955400, channel=0, data=[46, 100]),
   midi.NoteOffEvent(tick=2955500, channel=0, data=[46, 0]),
   midi.NoteOnEvent(tick=2955600, channel=0, data=[78, 100]),
   midi.NoteOffEvent(tick=2955700, channel=0, data=[78, 0]),
   midi.NoteOnEvent(tick=2955800, channel=0, data=[15, 100]),
   midi.NoteOffEvent(tick=2955900, channel=0, data=[15, 0]),
   midi.NoteOnEvent(tick=2956000, channel=0, data=[18, 100]),
   midi.NoteOffEvent(tick=2956100, channel=0, data=[18, 0]),
   midi.NoteOnEvent(tick=2956200, channel=0, data=[73, 100]),
   midi.NoteOffEvent(tick=2956300, channel=0, data=[73, 0]),
   midi.NoteOnEvent(tick=2956400, channel=0, data=[36, 100]),
   midi.NoteOffEvent(tick=2956500, channel=0, data=[36, 0]),
   midi.NoteOnEvent(tick=2956600, channel=0, data=[74, 100]),
   midi.NoteOffEvent(tick=2956700, channel=0, data=[74, 0]),
   midi.NoteOnEvent(tick=2956800, channel=0, data=[2, 100]),
   midi.NoteOffEvent(tick=2956900, channel=0, data=[2, 0]),
   midi.NoteOnEvent(tick=2957000, channel=0, data=[56, 100]),
   midi.NoteOffEvent(tick=2957100, channel=0, data=[56, 0]),
   midi.NoteOnEvent(tick=2957200, channel=0, data=[36, 100]),
   midi.NoteOffEvent(tick=2957300, channel=0, data=[36, 0]),
   midi.NoteOnEvent(tick=2957400, channel=0, data=[36, 100]),
   midi.NoteOffEvent(tick=2957500, channel=0, data=[36, 0]),
   midi.NoteOnEvent(tick=2957600, channel=0, data=[36, 100]),
   midi.NoteOffEvent(tick=2957700, channel=0, data=[36, 0]),
   midi.NoteOnEvent(tick=2957800, channel=0, data=[36, 100]),
   midi.NoteOffEvent(tick=2957900, channel=0, data=[36, 0]),
   midi.NoteOnEvent(tick=2958000, channel=0, data=[36, 100]),
   midi.NoteOffEvent(tick=2958100, channel=0, data=[36, 0]),
   midi.NoteOnEvent(tick=2958200, channel=0, data=[36, 100]),
   midi.NoteOffEvent(tick=2958300, channel=0, data=[36, 0]),
   midi.NoteOnEvent(tick=2958400, channel=0, data=[36, 100]),
   midi.NoteOffEvent(tick=2958500, channel=0, data=[36, 0]),
   midi.NoteOnEvent(tick=2958600, channel=0, data=[36, 100]),
   midi.NoteOffEvent(tick=2958700, channel=0, data=[36, 0]),
   midi.NoteOnEvent(tick=2958800, channel=0, data=[33, 100]),
   midi.NoteOffEvent(tick=2958900, channel=0, data=[33, 0]),
   midi.NoteOnEvent(tick=2959000, channel=0, data=[56, 100]),
   midi.NoteOffEvent(tick=2959100, channel=0, data=[56, 0]),
   midi.NoteOnEvent(tick=2959200, channel=0, data=[56, 100]),
   midi.NoteOffEvent(tick=2959300, channel=0, data=[56, 0]),
   midi.NoteOnEvent(tick=2959400, channel=0, data=[56, 100]),
   midi.NoteOffEvent(tick=2959500, channel=0, data=[56, 0]),
   midi.NoteOnEvent(tick=2959600, channel=0, data=[36, 100]),
   midi.NoteOffEvent(tick=2959700, channel=0, data=[36, 0]),
   midi.NoteOnEvent(tick=2959800, channel=0, data=[36, 100]),
   midi.NoteOffEvent(tick=2959900, channel=0, data=[36, 0]),
   midi.NoteOnEvent(tick=2960000, channel=0, data=[36, 100]),
   midi.NoteOffEvent(tick=2960100, channel=0, data=[36, 0]),
   midi.NoteOnEvent(tick=2960200, channel=0, data=[36, 100]),
   midi.NoteOffEvent(tick=2960300, channel=0, data=[36, 0]),
   midi.NoteOnEvent(tick=2960400, channel=0, data=[19, 100]),
   midi.NoteOffEvent(tick=2960500, channel=0, data=[19, 0]),
   midi.NoteOnEvent(tick=2960600, channel=0, data=[7, 100]),
   midi.NoteOffEvent(tick=2960700, channel=0, data=[7, 0]),
   midi.NoteOnEvent(tick=2960800, channel=0, data=[4, 100]),
   midi.NoteOffEvent(tick=2960900, channel=0, data=[4, 0]),
   midi.NoteOnEvent(tick=2961000, channel=0, data=[36, 100]),
   midi.NoteOffEvent(tick=2961100, channel=0, data=[36, 0]),
   midi.NoteOnEvent(tick=2961200, channel=0, data=[3, 100]),
   midi.NoteOffEvent(tick=2961300, channel=0, data=[3, 0]),
   midi.NoteOnEvent(tick=2961400, channel=0, data=[4, 100]),
   midi.NoteOffEvent(tick=2961500, channel=0, data=[4, 0]),
   midi.NoteOnEvent(tick=2961600, channel=0, data=[2, 100]),
   midi.NoteOffEvent(tick=2961700, channel=0, data=[2, 0]),
   midi.NoteOnEvent(tick=2961800, channel=0, data=[17, 100]),
   midi.NoteOffEvent(tick=2961900, channel=0, data=[17, 0]),
   midi.NoteOnEvent(tick=2962000, channel=0, data=[4, 100]),
   midi.NoteOffEvent(tick=2962100, channel=0, data=[4, 0]),
   midi.NoteOnEvent(tick=2962200, channel=0, data=[12, 100]),
   midi.NoteOffEvent(tick=2962300, channel=0, data=[12, 0]),
   midi.NoteOnEvent(tick=2962400, channel=0, data=[4, 100]),
   midi.NoteOffEvent(tick=2962500, channel=0, data=[4, 0]),
   midi.NoteOnEvent(tick=2962600, channel=0, data=[13, 100]),
   midi.NoteOffEvent(tick=2962700, channel=0, data=[13, 0]),
   midi.NoteOnEvent(tick=2962800, channel=0, data=[19, 100]),
   midi.NoteOffEvent(tick=2962900, channel=0, data=[19, 0]),
   midi.NoteOnEvent(tick=2963000, channel=0, data=[36, 100]),
   midi.NoteOffEvent(tick=2963100, channel=0, data=[36, 0]),
   midi.NoteOnEvent(tick=2963200, channel=0, data=[14, 100]),
   midi.NoteOffEvent(tick=2963300, channel=0, data=[14, 0]),
   midi.NoteOnEvent(tick=2963400, channel=0, data=[15, 100]),
   midi.NoteOffEvent(tick=2963500, channel=0, data=[15, 0]),
   midi.NoteOnEvent(tick=2963600, channel=0, data=[4, 100]),
   midi.NoteOffEvent(tick=2963700, channel=0, data=[4, 0]),
   midi.NoteOnEvent(tick=2963800, channel=0, data=[17, 100]),
   midi.NoteOffEvent(tick=2963900, channel=0, data=[17, 0]),
   midi.NoteOnEvent(tick=2964000, channel=0, data=[0, 100]),
   midi.NoteOffEvent(tick=2964100, channel=0, data=[0, 0]),
   midi.NoteOnEvent(tick=2964200, channel=0, data=[19, 100]),
   midi.NoteOffEvent(tick=2964300, channel=0, data=[19, 0]),
   midi.NoteOnEvent(tick=2964400, channel=0, data=[14, 100]),
   midi.NoteOffEvent(tick=2964500, channel=0, data=[14, 0]),
   midi.NoteOnEvent(tick=2964600, channel=0, data=[17, 100]),
   midi.NoteOffEvent(tick=2964700, channel=0, data=[17, 0]),
   midi.NoteOnEvent(tick=2964800, channel=0, data=[36, 100]),
   midi.NoteOffEvent(tick=2964900, channel=0, data=[36, 0]),
   midi.NoteOnEvent(tick=2965000, channel=0, data=[49, 100]),
   midi.NoteOffEvent(tick=2965100, channel=0, data=[49, 0]),
   midi.NoteOnEvent(tick=2965200, channel=0, data=[45, 100]),
   midi.NoteOffEvent(tick=2965300, channel=0, data=[45, 0]),
   midi.NoteOnEvent(tick=2965400, channel=0, data=[45, 100]),
   midi.NoteOffEvent(tick=2965500, channel=0, data=[45, 0]),
   midi.NoteOnEvent(tick=2965600, channel=0, data=[50, 100]),
   midi.NoteOffEvent(tick=2965700, channel=0, data=[50, 0]),
   midi.NoteOnEvent(tick=2965800, channel=0, data=[36, 100]),
   midi.NoteOffEvent(tick=2965900, channel=0, data=[36, 0]),
   midi.NoteOnEvent(tick=2966000, channel=0, data=[3, 100]),
   midi.NoteOffEvent(tick=2966100, channel=0, data=[3, 0]),
   midi.NoteOnEvent(tick=2966200, channel=0, data=[4, 100]),
   midi.NoteOffEvent(tick=2966300, channel=0, data=[4, 0]),
   midi.NoteOnEvent(tick=2966400, channel=0, data=[2, 100]),
   midi.NoteOffEvent(tick=2966500, channel=0, data=[2, 0]),
   midi.NoteOnEvent(tick=2966600, channel=0, data=[17, 100]),
   midi.NoteOffEvent(tick=2966700, channel=0, data=[17, 0]),
   midi.NoteOnEvent(tick=2966800, channel=0, data=[4, 100]),
   midi.NoteOffEvent(tick=2966900, channel=0, data=[4, 0]),
   midi.NoteOnEvent(tick=2967000, channel=0, data=[0, 100]),
   midi.NoteOffEvent(tick=2967100, channel=0, data=[0, 0]),
   midi.NoteOnEvent(tick=2967200, channel=0, data=[18, 100]),
   midi.NoteOffEvent(tick=2967300, channel=0, data=[18, 0]),
   midi.NoteOnEvent(tick=2967400, channel=0, data=[4, 100]),
   midi.NoteOffEvent(tick=2967500, channel=0, data=[4, 0]),
   midi.NoteOnEvent(tick=2967600, channel=0, data=[18, 100]),
   midi.NoteOffEvent(tick=2967700, channel=0, data=[18, 0]),
   midi.NoteOnEvent(tick=2967800, channel=0, data=[36, 100]),
   midi.NoteOffEvent(tick=2967900, channel=0, data=[36, 0]),
   midi.NoteOnEvent(tick=2968000, channel=0, data=[19, 100]),
   midi.NoteOffEvent(tick=2968100, channel=0, data=[19, 0]),
   midi.NoteOnEvent(tick=2968200, channel=0, data=[7, 100]),
   midi.NoteOffEvent(tick=2968300, channel=0, data=[7, 0]),
   midi.NoteOnEvent(tick=2968400, channel=0, data=[4, 100]),
   midi.NoteOffEvent(tick=2968500, channel=0, data=[4, 0]),
   midi.NoteOnEvent(tick=2968600, channel=0, data=[36, 100]),
   midi.NoteOffEvent(tick=2968700, channel=0, data=[36, 0]),
   midi.NoteOnEvent(tick=2968800, channel=0, data=[21, 100]),
   midi.NoteOffEvent(tick=2968900, channel=0, data=[21, 0]),
   midi.NoteOnEvent(tick=2969000, channel=0, data=[0, 100]),
   midi.NoteOffEvent(tick=2969100, channel=0, data=[0, 0]),
   midi.NoteOnEvent(tick=2969200, channel=0, data=[11, 100]),
   midi.NoteOffEvent(tick=2969300, channel=0, data=[11, 0]),
   midi.NoteOnEvent(tick=2969400, channel=0, data=[20, 100]),
   midi.NoteOffEvent(tick=2969500, channel=0, data=[20, 0]),
   midi.NoteOnEvent(tick=2969600, channel=0, data=[4, 100]),
   midi.NoteOffEvent(tick=2969700, channel=0, data=[4, 0]),
   midi.NoteOnEvent(tick=2969800, channel=0, data=[36, 100]),
   midi.NoteOffEvent(tick=2969900, channel=0, data=[36, 0]),
   midi.NoteOnEvent(tick=2970000, channel=0, data=[14, 100]),
   midi.NoteOffEvent(tick=2970100, channel=0, data=[14, 0]),
   midi.NoteOnEvent(tick=2970200, channel=0, data=[5, 100]),
   midi.NoteOffEvent(tick=2970300, channel=0, data=[5, 0]),
   midi.NoteOnEvent(tick=2970400, channel=0, data=[36, 100]),
   midi.NoteOffEvent(tick=2970500, channel=0, data=[36, 0]),
   midi.NoteOnEvent(tick=2970600, channel=0, data=[0, 100]),
   midi.NoteOffEvent(tick=2970700, channel=0, data=[0, 0]),
   midi.NoteOnEvent(tick=2970800, channel=0, data=[36, 100]),
   midi.NoteOffEvent(tick=2970900, channel=0, data=[36, 0]),
   midi.NoteOnEvent(tick=2971000, channel=0, data=[21, 100]),
   midi.NoteOffEvent(tick=2971100, channel=0, data=[21, 0]),
   midi.NoteOnEvent(tick=2971200, channel=0, data=[0, 100]),
   midi.NoteOffEvent(tick=2971300, channel=0, data=[0, 0]),
   midi.NoteOnEvent(tick=2971400, channel=0, data=[17, 100]),
   midi.NoteOffEvent(tick=2971500, channel=0, data=[17, 0]),
   midi.NoteOnEvent(tick=2971600, channel=0, data=[8, 100]),
   midi.NoteOffEvent(tick=2971700, channel=0, data=[8, 0]),
   midi.NoteOnEvent(tick=2971800, channel=0, data=[0, 100]),
   midi.NoteOffEvent(tick=2971900, channel=0, data=[0, 0]),
   midi.NoteOnEvent(tick=2972000, channel=0, data=[1, 100]),
   midi.NoteOffEvent(tick=2972100, channel=0, data=[1, 0]),
   midi.NoteOnEvent(tick=2972200, channel=0, data=[11, 100]),
   midi.NoteOffEvent(tick=2972300, channel=0, data=[11, 0]),
   midi.NoteOnEvent(tick=2972400, channel=0, data=[4, 100]),
   midi.NoteOffEvent(tick=2972500, channel=0, data=[4, 0]),
   midi.NoteOnEvent(tick=2972600, channel=0, data=[36, 100]),
   midi.NoteOffEvent(tick=2972700, channel=0, data=[36, 0]),
   midi.NoteOnEvent(tick=2972800, channel=0, data=[1, 100]),
   midi.NoteOffEvent(tick=2972900, channel=0, data=[1, 0]),
   midi.NoteOnEvent(tick=2973000, channel=0, data=[24, 100]),
   midi.NoteOffEvent(tick=2973100, channel=0, data=[24, 0]),
   midi.NoteOnEvent(tick=2973200, channel=0, data=[36, 100]),
   midi.NoteOffEvent(tick=2973300, channel=0, data=[36, 0]),
   midi.NoteOnEvent(tick=2973400, channel=0, data=[27, 100]),
   midi.NoteOffEvent(tick=2973500, channel=0, data=[27, 0]),
   midi.NoteOnEvent(tick=2973600, channel=0, data=[37, 100]),
   midi.NoteOffEvent(tick=2973700, channel=0, data=[37, 0]),
   midi.NoteOnEvent(tick=2973800, channel=0, data=[36, 100]),
   midi.NoteOffEvent(tick=2973900, channel=0, data=[36, 0]),
   midi.NoteOnEvent(tick=2974000, channel=0, data=[0, 100]),
   midi.NoteOffEvent(tick=2974100, channel=0, data=[0, 0]),
   midi.NoteOnEvent(tick=2974200, channel=0, data=[18, 100]),
   midi.NoteOffEvent(tick=2974300, channel=0, data=[18, 0]),
   midi.NoteOnEvent(tick=2974400, channel=0, data=[36, 100]),
   midi.NoteOffEvent(tick=2974500, channel=0, data=[36, 0]),
   midi.NoteOnEvent(tick=2974600, channel=0, data=[22, 100]),
   midi.NoteOffEvent(tick=2974700, channel=0, data=[22, 0]),
   midi.NoteOnEvent(tick=2974800, channel=0, data=[8, 100]),
   midi.NoteOffEvent(tick=2974900, channel=0, data=[8, 0]),
   midi.NoteOnEvent(tick=2975000, channel=0, data=[19, 100]),
   midi.NoteOffEvent(tick=2975100, channel=0, data=[19, 0]),
   midi.NoteOnEvent(tick=2975200, channel=0, data=[7, 100]),
   midi.NoteOffEvent(tick=2975300, channel=0, data=[7, 0]),
   midi.NoteOnEvent(tick=2975400, channel=0, data=[36, 100]),
   midi.NoteOffEvent(tick=2975500, channel=0, data=[36, 0]),
   midi.NoteOnEvent(tick=2975600, channel=0, data=[56, 100]),
   midi.NoteOffEvent(tick=2975700, channel=0, data=[56, 0]),
   midi.NoteOnEvent(tick=2975800, channel=0, data=[36, 100]),
   midi.NoteOffEvent(tick=2975900, channel=0, data=[36, 0]),
   midi.NoteOnEvent(tick=2976000, channel=0, data=[36, 100]),
   midi.NoteOffEvent(tick=2976100, channel=0, data=[36, 0]),
   midi.NoteOnEvent(tick=2976200, channel=0, data=[36, 100]),
   midi.NoteOffEvent(tick=2976300, channel=0, data=[36, 0]),
   midi.NoteOnEvent(tick=2976400, channel=0, data=[36, 100]),
   midi.NoteOffEvent(tick=2976500, channel=0, data=[36, 0]),
   midi.NoteOnEvent(tick=2976600, channel=0, data=[19, 100]),
   midi.NoteOffEvent(tick=2976700, channel=0, data=[19, 0]),
   midi.NoteOnEvent(tick=2976800, channel=0, data=[7, 100]),
   midi.NoteOffEvent(tick=2976900, channel=0, data=[7, 0]),
   midi.NoteOnEvent(tick=2977000, channel=0, data=[4, 100]),
   midi.NoteOffEvent(tick=2977100, channel=0, data=[4, 0]),
   midi.NoteOnEvent(tick=2977200, channel=0, data=[36, 100]),
   midi.NoteOffEvent(tick=2977300, channel=0, data=[36, 0]),
   midi.NoteOnEvent(tick=2977400, channel=0, data=[8, 100]),
   midi.NoteOffEvent(tick=2977500, channel=0, data=[8, 0]),
   midi.NoteOnEvent(tick=2977600, channel=0, data=[13, 100]),
   midi.NoteOffEvent(tick=2977700, channel=0, data=[13, 0]),
   midi.NoteOnEvent(tick=2977800, channel=0, data=[2, 100]),
   midi.NoteOffEvent(tick=2977900, channel=0, data=[2, 0]),
   midi.NoteOnEvent(tick=2978000, channel=0, data=[17, 100]),
   midi.NoteOffEvent(tick=2978100, channel=0, data=[17, 0]),
   midi.NoteOnEvent(tick=2978200, channel=0, data=[4, 100]),
   midi.NoteOffEvent(tick=2978300, channel=0, data=[4, 0]),
   midi.NoteOnEvent(tick=2978400, channel=0, data=[12, 100]),
   midi.NoteOffEvent(tick=2978500, channel=0, data=[12, 0]),
   midi.NoteOnEvent(tick=2978600, channel=0, data=[4, 100]),
   midi.NoteOffEvent(tick=2978700, channel=0, data=[4, 0]),
   midi.NoteOnEvent(tick=2978800, channel=0, data=[13, 100]),
   midi.NoteOffEvent(tick=2978900, channel=0, data=[13, 0]),
   midi.NoteOnEvent(tick=2979000, channel=0, data=[19, 100]),
   midi.NoteOffEvent(tick=2979100, channel=0, data=[19, 0]),
   midi.NoteOnEvent(tick=2979200, channel=0, data=[36, 100]),
   midi.NoteOffEvent(tick=2979300, channel=0, data=[36, 0]),
   midi.NoteOnEvent(tick=2979400, channel=0, data=[14, 100]),
   midi.NoteOffEvent(tick=2979500, channel=0, data=[14, 0]),
   midi.NoteOnEvent(tick=2979600, channel=0, data=[15, 100]),
   midi.NoteOffEvent(tick=2979700, channel=0, data=[15, 0]),
   midi.NoteOnEvent(tick=2979800, channel=0, data=[4, 100]),
   midi.NoteOffEvent(tick=2979900, channel=0, data=[4, 0]),
   midi.NoteOnEvent(tick=2980000, channel=0, data=[17, 100]),
   midi.NoteOffEvent(tick=2980100, channel=0, data=[17, 0]),
   midi.NoteOnEvent(tick=2980200, channel=0, data=[0, 100]),
   midi.NoteOffEvent(tick=2980300, channel=0, data=[0, 0]),
   midi.NoteOnEvent(tick=2980400, channel=0, data=[19, 100]),
   midi.NoteOffEvent(tick=2980500, channel=0, data=[19, 0]),
   midi.NoteOnEvent(tick=2980600, channel=0, data=[14, 100]),
   midi.NoteOffEvent(tick=2980700, channel=0, data=[14, 0]),
   midi.NoteOnEvent(tick=2980800, channel=0, data=[17, 100]),
   midi.NoteOffEvent(tick=2980900, channel=0, data=[17, 0]),
   midi.NoteOnEvent(tick=2981000, channel=0, data=[38, 100]),
   midi.NoteOffEvent(tick=2981100, channel=0, data=[38, 0]),
   midi.NoteOnEvent(tick=2981200, channel=0, data=[36, 100]),
   midi.NoteOffEvent(tick=2981300, channel=0, data=[36, 0]),
   midi.NoteOnEvent(tick=2981400, channel=0, data=[13, 100]),
   midi.NoteOffEvent(tick=2981500, channel=0, data=[13, 0]),
   midi.NoteOnEvent(tick=2981600, channel=0, data=[14, 100]),
   midi.NoteOffEvent(tick=2981700, channel=0, data=[14, 0]),
   midi.NoteOnEvent(tick=2981800, channel=0, data=[36, 100]),
   midi.NoteOffEvent(tick=2981900, channel=0, data=[36, 0]),
   midi.NoteOnEvent(tick=2982000, channel=0, data=[21, 100]),
   midi.NoteOffEvent(tick=2982100, channel=0, data=[21, 0]),
   midi.NoteOnEvent(tick=2982200, channel=0, data=[0, 100]),
   midi.NoteOffEvent(tick=2982300, channel=0, data=[0, 0]),
   midi.NoteOnEvent(tick=2982400, channel=0, data=[11, 100]),
   midi.NoteOffEvent(tick=2982500, channel=0, data=[11, 0]),
   midi.NoteOnEvent(tick=2982600, channel=0, data=[20, 100]),
   midi.NoteOffEvent(tick=2982700, channel=0, data=[20, 0]),
   midi.NoteOnEvent(tick=2982800, channel=0, data=[4, 100]),
   midi.NoteOffEvent(tick=2982900, channel=0, data=[4, 0]),
   midi.NoteOnEvent(tick=2983000, channel=0, data=[36, 100]),
   midi.NoteOffEvent(tick=2983100, channel=0, data=[36, 0]),
   midi.NoteOnEvent(tick=2983200, channel=0, data=[8, 100]),
   midi.NoteOffEvent(tick=2983300, channel=0, data=[8, 0]),
   midi.NoteOnEvent(tick=2983400, channel=0, data=[18, 100]),
   midi.NoteOffEvent(tick=2983500, channel=0, data=[18, 0]),
   midi.NoteOnEvent(tick=2983600, channel=0, data=[36, 100]),
   midi.NoteOffEvent(tick=2983700, channel=0, data=[36, 0]),
   midi.NoteOnEvent(tick=2983800, channel=0, data=[17, 100]),
   midi.NoteOffEvent(tick=2983900, channel=0, data=[17, 0]),
   midi.NoteOnEvent(tick=2984000, channel=0, data=[4, 100]),
   midi.NoteOffEvent(tick=2984100, channel=0, data=[4, 0]),
   midi.NoteOnEvent(tick=2984200, channel=0, data=[19, 100]),
   midi.NoteOffEvent(tick=2984300, channel=0, data=[19, 0]),
   midi.NoteOnEvent(tick=2984400, channel=0, data=[20, 100]),
   midi.NoteOffEvent(tick=2984500, channel=0, data=[20, 0]),
   midi.NoteOnEvent(tick=2984600, channel=0, data=[17, 100]),
   midi.NoteOffEvent(tick=2984700, channel=0, data=[17, 0]),
   midi.NoteOnEvent(tick=2984800, channel=0, data=[13, 100]),
   midi.NoteOffEvent(tick=2984900, channel=0, data=[13, 0]),
   midi.NoteOnEvent(tick=2985000, channel=0, data=[4, 100]),
   midi.NoteOffEvent(tick=2985100, channel=0, data=[4, 0]),
   midi.NoteOnEvent(tick=2985200, channel=0, data=[3, 100]),
   midi.NoteOffEvent(tick=2985300, channel=0, data=[3, 0]),
   midi.NoteOnEvent(tick=2985400, channel=0, data=[36, 100]),
   midi.NoteOffEvent(tick=2985500, channel=0, data=[36, 0]),
   midi.NoteOnEvent(tick=2985600, channel=0, data=[22, 100]),
   midi.NoteOffEvent(tick=2985700, channel=0, data=[22, 0]),
   midi.NoteOnEvent(tick=2985800, channel=0, data=[7, 100]),
   midi.NoteOffEvent(tick=2985900, channel=0, data=[7, 0]),
   midi.NoteOnEvent(tick=2986000, channel=0, data=[4, 100]),
   midi.NoteOffEvent(tick=2986100, channel=0, data=[4, 0]),
   midi.NoteOnEvent(tick=2986200, channel=0, data=[13, 100]),
   midi.NoteOffEvent(tick=2986300, channel=0, data=[13, 0]),
   midi.NoteOnEvent(tick=2986400, channel=0, data=[36, 100]),
   midi.NoteOffEvent(tick=2986500, channel=0, data=[36, 0]),
   midi.NoteOnEvent(tick=2986600, channel=0, data=[24, 100]),
   midi.NoteOffEvent(tick=2986700, channel=0, data=[24, 0]),
   midi.NoteOnEvent(tick=2986800, channel=0, data=[14, 100]),
   midi.NoteOffEvent(tick=2986900, channel=0, data=[14, 0]),
   midi.NoteOnEvent(tick=2987000, channel=0, data=[20, 100]),
   midi.NoteOffEvent(tick=2987100, channel=0, data=[20, 0]),
   midi.NoteOnEvent(tick=2987200, channel=0, data=[36, 100]),
   midi.NoteOffEvent(tick=2987300, channel=0, data=[36, 0]),
   midi.NoteOnEvent(tick=2987400, channel=0, data=[20, 100]),
   midi.NoteOffEvent(tick=2987500, channel=0, data=[20, 0]),
   midi.NoteOnEvent(tick=2987600, channel=0, data=[18, 100]),
   midi.NoteOffEvent(tick=2987700, channel=0, data=[18, 0]),
   midi.NoteOnEvent(tick=2987800, channel=0, data=[4, 100]),
   midi.NoteOffEvent(tick=2987900, channel=0, data=[4, 0]),
   midi.NoteOnEvent(tick=2988000, channel=0, data=[36, 100]),
   midi.NoteOffEvent(tick=2988100, channel=0, data=[36, 0]),
   midi.NoteOnEvent(tick=2988200, channel=0, data=[19, 100]),
   midi.NoteOffEvent(tick=2988300, channel=0, data=[19, 0]),
   midi.NoteOnEvent(tick=2988400, channel=0, data=[7, 100]),
   midi.NoteOffEvent(tick=2988500, channel=0, data=[7, 0]),
   midi.NoteOnEvent(tick=2988600, channel=0, data=[4, 100]),
   midi.NoteOffEvent(tick=2988700, channel=0, data=[4, 0]),
   midi.NoteOnEvent(tick=2988800, channel=0, data=[36, 100]),
   midi.NoteOffEvent(tick=2988900, channel=0, data=[36, 0]),
   midi.NoteOnEvent(tick=2989000, channel=0, data=[14, 100]),
   midi.NoteOffEvent(tick=2989100, channel=0, data=[14, 0]),
   midi.NoteOnEvent(tick=2989200, channel=0, data=[15, 100]),
   midi.NoteOffEvent(tick=2989300, channel=0, data=[15, 0]),
   midi.NoteOnEvent(tick=2989400, channel=0, data=[4, 100]),
   midi.NoteOffEvent(tick=2989500, channel=0, data=[4, 0]),
   midi.NoteOnEvent(tick=2989600, channel=0, data=[17, 100]),
   midi.NoteOffEvent(tick=2989700, channel=0, data=[17, 0]),
   midi.NoteOnEvent(tick=2989800, channel=0, data=[0, 100]),
   midi.NoteOffEvent(tick=2989900, channel=0, data=[0, 0]),
   midi.NoteOnEvent(tick=2990000, channel=0, data=[19, 100]),
   midi.NoteOffEvent(tick=2990100, channel=0, data=[19, 0]),
   midi.NoteOnEvent(tick=2990200, channel=0, data=[14, 100]),
   midi.NoteOffEvent(tick=2990300, channel=0, data=[14, 0]),
   midi.NoteOnEvent(tick=2990400, channel=0, data=[17, 100]),
   midi.NoteOffEvent(tick=2990500, channel=0, data=[17, 0]),
   midi.NoteOnEvent(tick=2990600, channel=0, data=[36, 100]),
   midi.NoteOffEvent(tick=2990700, channel=0, data=[36, 0]),
   midi.NoteOnEvent(tick=2990800, channel=0, data=[8, 100]),
   midi.NoteOffEvent(tick=2990900, channel=0, data=[8, 0]),
   midi.NoteOnEvent(tick=2991000, channel=0, data=[13, 100]),
   midi.NoteOffEvent(tick=2991100, channel=0, data=[13, 0]),
   midi.NoteOnEvent(tick=2991200, channel=0, data=[36, 100]),
   midi.NoteOffEvent(tick=2991300, channel=0, data=[36, 0]),
   midi.NoteOnEvent(tick=2991400, channel=0, data=[0, 100]),
   midi.NoteOffEvent(tick=2991500, channel=0, data=[0, 0]),
   midi.NoteOnEvent(tick=2991600, channel=0, data=[56, 100]),
   midi.NoteOffEvent(tick=2991700, channel=0, data=[56, 0]),
   midi.NoteOnEvent(tick=2991800, channel=0, data=[36, 100]),
   midi.NoteOffEvent(tick=2991900, channel=0, data=[36, 0]),
   midi.NoteOnEvent(tick=2992000, channel=0, data=[36, 100]),
   midi.NoteOffEvent(tick=2992100, channel=0, data=[36, 0]),
   midi.NoteOnEvent(tick=2992200, channel=0, data=[36, 100]),
   midi.NoteOffEvent(tick=2992300, channel=0, data=[36, 0]),
   midi.NoteOnEvent(tick=2992400, channel=0, data=[36, 100]),
   midi.NoteOffEvent(tick=2992500, channel=0, data=[36, 0]),
   midi.NoteOnEvent(tick=2992600, channel=0, data=[18, 100]),
   midi.NoteOffEvent(tick=2992700, channel=0, data=[18, 0]),
   midi.NoteOnEvent(tick=2992800, channel=0, data=[8, 100]),
   midi.NoteOffEvent(tick=2992900, channel=0, data=[8, 0]),
   midi.NoteOnEvent(tick=2993000, channel=0, data=[12, 100]),
   midi.NoteOffEvent(tick=2993100, channel=0, data=[12, 0]),
   midi.NoteOnEvent(tick=2993200, channel=0, data=[15, 100]),
   midi.NoteOffEvent(tick=2993300, channel=0, data=[15, 0]),
   midi.NoteOnEvent(tick=2993400, channel=0, data=[11, 100]),
   midi.NoteOffEvent(tick=2993500, channel=0, data=[11, 0]),
   midi.NoteOnEvent(tick=2993600, channel=0, data=[4, 100]),
   midi.NoteOffEvent(tick=2993700, channel=0, data=[4, 0]),
   midi.NoteOnEvent(tick=2993800, channel=0, data=[36, 100]),
   midi.NoteOffEvent(tick=2993900, channel=0, data=[36, 0]),
   midi.NoteOnEvent(tick=2994000, channel=0, data=[18, 100]),
   midi.NoteOffEvent(tick=2994100, channel=0, data=[18, 0]),
   midi.NoteOnEvent(tick=2994200, channel=0, data=[19, 100]),
   midi.NoteOffEvent(tick=2994300, channel=0, data=[19, 0]),
   midi.NoteOnEvent(tick=2994400, channel=0, data=[0, 100]),
   midi.NoteOffEvent(tick=2994500, channel=0, data=[0, 0]),
   midi.NoteOnEvent(tick=2994600, channel=0, data=[19, 100]),
   midi.NoteOffEvent(tick=2994700, channel=0, data=[19, 0]),
   midi.NoteOnEvent(tick=2994800, channel=0, data=[4, 100]),
   midi.NoteOffEvent(tick=2994900, channel=0, data=[4, 0]),
   midi.NoteOnEvent(tick=2995000, channel=0, data=[12, 100]),
   midi.NoteOffEvent(tick=2995100, channel=0, data=[12, 0]),
   midi.NoteOnEvent(tick=2995200, channel=0, data=[4, 100]),
   midi.NoteOffEvent(tick=2995300, channel=0, data=[4, 0]),
   midi.NoteOnEvent(tick=2995400, channel=0, data=[13, 100]),
   midi.NoteOffEvent(tick=2995500, channel=0, data=[13, 0]),
   midi.NoteOnEvent(tick=2995600, channel=0, data=[19, 100]),
   midi.NoteOffEvent(tick=2995700, channel=0, data=[19, 0]),
   midi.NoteOnEvent(tick=2995800, channel=0, data=[37, 100]),
   midi.NoteOffEvent(tick=2995900, channel=0, data=[37, 0]),
   midi.NoteOnEvent(tick=2996000, channel=0, data=[36, 100]),
   midi.NoteOffEvent(tick=2996100, channel=0, data=[36, 0]),
   midi.NoteOnEvent(tick=2996200, channel=0, data=[20, 100]),
   midi.NoteOffEvent(tick=2996300, channel=0, data=[20, 0]),
   midi.NoteOnEvent(tick=2996400, channel=0, data=[18, 100]),
   midi.NoteOffEvent(tick=2996500, channel=0, data=[18, 0]),
   midi.NoteOnEvent(tick=2996600, channel=0, data=[4, 100]),
   midi.NoteOffEvent(tick=2996700, channel=0, data=[4, 0]),
   midi.NoteOnEvent(tick=2996800, channel=0, data=[36, 100]),
   midi.NoteOffEvent(tick=2996900, channel=0, data=[36, 0]),
   midi.NoteOnEvent(tick=2997000, channel=0, data=[15, 100]),
   midi.NoteOffEvent(tick=2997100, channel=0, data=[15, 0]),
   midi.NoteOnEvent(tick=2997200, channel=0, data=[0, 100]),
   midi.NoteOffEvent(tick=2997300, channel=0, data=[0, 0]),
   midi.NoteOnEvent(tick=2997400, channel=0, data=[17, 100]),
   midi.NoteOffEvent(tick=2997500, channel=0, data=[17, 0]),
   midi.NoteOnEvent(tick=2997600, channel=0, data=[4, 100]),
   midi.NoteOffEvent(tick=2997700, channel=0, data=[4, 0]),
   midi.NoteOnEvent(tick=2997800, channel=0, data=[13, 100]),
   midi.NoteOffEvent(tick=2997900, channel=0, data=[13, 0]),
   midi.NoteOnEvent(tick=2998000, channel=0, data=[19, 100]),
   midi.NoteOffEvent(tick=2998100, channel=0, data=[19, 0]),
   midi.NoteOnEvent(tick=2998200, channel=0, data=[7, 100]),
   midi.NoteOffEvent(tick=2998300, channel=0, data=[7, 0]),
   midi.NoteOnEvent(tick=2998400, channel=0, data=[4, 100]),
   midi.NoteOffEvent(tick=2998500, channel=0, data=[4, 0]),
   midi.NoteOnEvent(tick=2998600, channel=0, data=[18, 100]),
   midi.NoteOffEvent(tick=2998700, channel=0, data=[18, 0]),
   midi.NoteOnEvent(tick=2998800, channel=0, data=[4, 100]),
   midi.NoteOffEvent(tick=2998900, channel=0, data=[4, 0]),
   midi.NoteOnEvent(tick=2999000, channel=0, data=[18, 100]),
   midi.NoteOffEvent(tick=2999100, channel=0, data=[18, 0]),
   midi.NoteOnEvent(tick=2999200, channel=0, data=[36, 100]),
   midi.NoteOffEvent(tick=2999300, channel=0, data=[36, 0]),
   midi.NoteOnEvent(tick=2999400, channel=0, data=[19, 100]),
   midi.NoteOffEvent(tick=2999500, channel=0, data=[19, 0]),
   midi.NoteOnEvent(tick=2999600, channel=0, data=[14, 100]),
   midi.NoteOffEvent(tick=2999700, channel=0, data=[14, 0]),
   midi.NoteOnEvent(tick=2999800, channel=0, data=[36, 100]),
   midi.NoteOffEvent(tick=2999900, channel=0, data=[36, 0]),
   midi.NoteOnEvent(tick=3000000, channel=0, data=[17, 100]),
   midi.NoteOffEvent(tick=3000100, channel=0, data=[17, 0]),
   midi.NoteOnEvent(tick=3000200, channel=0, data=[4, 100]),
   midi.NoteOffEvent(tick=3000300, channel=0, data=[4, 0]),
   midi.NoteOnEvent(tick=3000400, channel=0, data=[19, 100]),
   midi.NoteOffEvent(tick=3000500, channel=0, data=[19, 0]),
   midi.NoteOnEvent(tick=3000600, channel=0, data=[20, 100]),
   midi.NoteOffEvent(tick=3000700, channel=0, data=[20, 0]),
   midi.NoteOnEvent(tick=3000800, channel=0, data=[17, 100]),
   midi.NoteOffEvent(tick=3000900, channel=0, data=[17, 0]),
   midi.NoteOnEvent(tick=3001000, channel=0, data=[13, 100]),
   midi.NoteOffEvent(tick=3001100, channel=0, data=[13, 0]),
   midi.NoteOnEvent(tick=3001200, channel=0, data=[36, 100]),
   midi.NoteOffEvent(tick=3001300, channel=0, data=[36, 0]),
   midi.NoteOnEvent(tick=3001400, channel=0, data=[0, 100]),
   midi.NoteOffEvent(tick=3001500, channel=0, data=[0, 0]),
   midi.NoteOnEvent(tick=3001600, channel=0, data=[36, 100]),
   midi.NoteOffEvent(tick=3001700, channel=0, data=[36, 0]),
   midi.NoteOnEvent(tick=3001800, channel=0, data=[21, 100]),
   midi.NoteOffEvent(tick=3001900, channel=0, data=[21, 0]),
   midi.NoteOnEvent(tick=3002000, channel=0, data=[0, 100]),
   midi.NoteOffEvent(tick=3002100, channel=0, data=[0, 0]),
   midi.NoteOnEvent(tick=3002200, channel=0, data=[11, 100]),
   midi.NoteOffEvent(tick=3002300, channel=0, data=[11, 0]),
   midi.NoteOnEvent(tick=3002400, channel=0, data=[20, 100]),
   midi.NoteOffEvent(tick=3002500, channel=0, data=[20, 0]),
   midi.NoteOnEvent(tick=3002600, channel=0, data=[4, 100]),
   midi.NoteOffEvent(tick=3002700, channel=0, data=[4, 0]),
   midi.NoteOnEvent(tick=3002800, channel=0, data=[38, 100]),
   midi.NoteOffEvent(tick=3002900, channel=0, data=[38, 0]),
   midi.NoteOnEvent(tick=3003000, channel=0, data=[36, 100]),
   midi.NoteOffEvent(tick=3003100, channel=0, data=[36, 0]),
   midi.NoteOnEvent(tick=3003200, channel=0, data=[0, 100]),
   midi.NoteOffEvent(tick=3003300, channel=0, data=[0, 0]),
   midi.NoteOnEvent(tick=3003400, channel=0, data=[18, 100]),
   midi.NoteOffEvent(tick=3003500, channel=0, data=[18, 0]),
   midi.NoteOnEvent(tick=3003600, channel=0, data=[36, 100]),
   midi.NoteOffEvent(tick=3003700, channel=0, data=[36, 0]),
   midi.NoteOnEvent(tick=3003800, channel=0, data=[5, 100]),
   midi.NoteOffEvent(tick=3003900, channel=0, data=[5, 0]),
   midi.NoteOnEvent(tick=3004000, channel=0, data=[14, 100]),
   midi.NoteOffEvent(tick=3004100, channel=0, data=[14, 0]),
   midi.NoteOnEvent(tick=3004200, channel=0, data=[11, 100]),
   midi.NoteOffEvent(tick=3004300, channel=0, data=[11, 0]),
   midi.NoteOnEvent(tick=3004400, channel=0, data=[11, 100]),
   midi.NoteOffEvent(tick=3004500, channel=0, data=[11, 0]),
   midi.NoteOnEvent(tick=3004600, channel=0, data=[14, 100]),
   midi.NoteOffEvent(tick=3004700, channel=0, data=[14, 0]),
   midi.NoteOnEvent(tick=3004800, channel=0, data=[22, 100]),
   midi.NoteOffEvent(tick=3004900, channel=0, data=[22, 0]),
   midi.NoteOnEvent(tick=3005000, channel=0, data=[18, 100]),
   midi.NoteOffEvent(tick=3005100, channel=0, data=[18, 0]),
   midi.NoteOnEvent(tick=3005200, channel=0, data=[46, 100]),
   midi.NoteOffEvent(tick=3005300, channel=0, data=[46, 0]),
   midi.NoteOnEvent(tick=3005400, channel=0, data=[56, 100]),
   midi.NoteOffEvent(tick=3005500, channel=0, data=[56, 0]),
   midi.NoteOnEvent(tick=3005600, channel=0, data=[56, 100]),
   midi.NoteOffEvent(tick=3005700, channel=0, data=[56, 0]),
   midi.NoteOnEvent(tick=3005800, channel=0, data=[56, 100]),
   midi.NoteOffEvent(tick=3005900, channel=0, data=[56, 0]),
   midi.NoteOnEvent(tick=3006000, channel=0, data=[36, 100]),
   midi.NoteOffEvent(tick=3006100, channel=0, data=[36, 0]),
   midi.NoteOnEvent(tick=3006200, channel=0, data=[36, 100]),
   midi.NoteOffEvent(tick=3006300, channel=0, data=[36, 0]),
   midi.NoteOnEvent(tick=3006400, channel=0, data=[36, 100]),
   midi.NoteOffEvent(tick=3006500, channel=0, data=[36, 0]),
   midi.NoteOnEvent(tick=3006600, channel=0, data=[36, 100]),
   midi.NoteOffEvent(tick=3006700, channel=0, data=[36, 0]),
   midi.NoteOnEvent(tick=3006800, channel=0, data=[36, 100]),
   midi.NoteOffEvent(tick=3006900, channel=0, data=[36, 0]),
   midi.NoteOnEvent(tick=3007000, channel=0, data=[36, 100]),
   midi.NoteOffEvent(tick=3007100, channel=0, data=[36, 0]),
   midi.NoteOnEvent(tick=3007200, channel=0, data=[36, 100]),
   midi.NoteOffEvent(tick=3007300, channel=0, data=[36, 0]),
   midi.NoteOnEvent(tick=3007400, channel=0, data=[36, 100]),
   midi.NoteOffEvent(tick=3007500, channel=0, data=[36, 0]),
   midi.NoteOnEvent(tick=3007600, channel=0, data=[2, 100]),
   midi.NoteOffEvent(tick=3007700, channel=0, data=[2, 0]),
   midi.NoteOnEvent(tick=3007800, channel=0, data=[46, 100]),
   midi.NoteOffEvent(tick=3007900, channel=0, data=[46, 0]),
   midi.NoteOnEvent(tick=3008000, channel=0, data=[78, 100]),
   midi.NoteOffEvent(tick=3008100, channel=0, data=[78, 0]),
   midi.NoteOnEvent(tick=3008200, channel=0, data=[15, 100]),
   midi.NoteOffEvent(tick=3008300, channel=0, data=[15, 0]),
   midi.NoteOnEvent(tick=3008400, channel=0, data=[18, 100]),
   midi.NoteOffEvent(tick=3008500, channel=0, data=[18, 0]),
   midi.NoteOnEvent(tick=3008600, channel=0, data=[73, 100]),
   midi.NoteOffEvent(tick=3008700, channel=0, data=[73, 0]),
   midi.NoteOnEvent(tick=3008800, channel=0, data=[36, 100]),
   midi.NoteOffEvent(tick=3008900, channel=0, data=[36, 0]),
   midi.NoteOnEvent(tick=3009000, channel=0, data=[74, 100]),
   midi.NoteOffEvent(tick=3009100, channel=0, data=[74, 0]),
   midi.NoteOnEvent(tick=3009200, channel=0, data=[0, 100]),
   midi.NoteOffEvent(tick=3009300, channel=0, data=[0, 0]),
   midi.NoteOnEvent(tick=3009400, channel=0, data=[36, 100]),
   midi.NoteOffEvent(tick=3009500, channel=0, data=[36, 0]),
   midi.NoteOnEvent(tick=3009600, channel=0, data=[69, 100]),
   midi.NoteOffEvent(tick=3009700, channel=0, data=[69, 0]),
   midi.NoteOnEvent(tick=3009800, channel=0, data=[36, 100]),
   midi.NoteOffEvent(tick=3009900, channel=0, data=[36, 0]),
   midi.NoteOnEvent(tick=3010000, channel=0, data=[33, 100]),
   midi.NoteOffEvent(tick=3010100, channel=0, data=[33, 0]),
   midi.NoteOnEvent(tick=3010200, channel=0, data=[56, 100]),
   midi.NoteOffEvent(tick=3010300, channel=0, data=[56, 0]),
   midi.NoteOnEvent(tick=3010400, channel=0, data=[36, 100]),
   midi.NoteOffEvent(tick=3010500, channel=0, data=[36, 0]),
   midi.NoteOnEvent(tick=3010600, channel=0, data=[36, 100]),
   midi.NoteOffEvent(tick=3010700, channel=0, data=[36, 0]),
   midi.NoteOnEvent(tick=3010800, channel=0, data=[36, 100]),
   midi.NoteOffEvent(tick=3010900, channel=0, data=[36, 0]),
   midi.NoteOnEvent(tick=3011000, channel=0, data=[36, 100]),
   midi.NoteOffEvent(tick=3011100, channel=0, data=[36, 0]),
   midi.NoteOnEvent(tick=3011200, channel=0, data=[36, 100]),
   midi.NoteOffEvent(tick=3011300, channel=0, data=[36, 0]),
   midi.NoteOnEvent(tick=3011400, channel=0, data=[36, 100]),
   midi.NoteOffEvent(tick=3011500, channel=0, data=[36, 0]),
   midi.NoteOnEvent(tick=3011600, channel=0, data=[36, 100]),
   midi.NoteOffEvent(tick=3011700, channel=0, data=[36, 0]),
   midi.NoteOnEvent(tick=3011800, channel=0, data=[36, 100]),
   midi.NoteOffEvent(tick=3011900, channel=0, data=[36, 0]),
   midi.NoteOnEvent(tick=3012000, channel=0, data=[2, 100]),
   midi.NoteOffEvent(tick=3012100, channel=0, data=[2, 0]),
   midi.NoteOnEvent(tick=3012200, channel=0, data=[46, 100]),
   midi.NoteOffEvent(tick=3012300, channel=0, data=[46, 0]),
   midi.NoteOnEvent(tick=3012400, channel=0, data=[78, 100]),
   midi.NoteOffEvent(tick=3012500, channel=0, data=[78, 0]),
   midi.NoteOnEvent(tick=3012600, channel=0, data=[15, 100]),
   midi.NoteOffEvent(tick=3012700, channel=0, data=[15, 0]),
   midi.NoteOnEvent(tick=3012800, channel=0, data=[18, 100]),
   midi.NoteOffEvent(tick=3012900, channel=0, data=[18, 0]),
   midi.NoteOnEvent(tick=3013000, channel=0, data=[73, 100]),
   midi.NoteOffEvent(tick=3013100, channel=0, data=[73, 0]),
   midi.NoteOnEvent(tick=3013200, channel=0, data=[36, 100]),
   midi.NoteOffEvent(tick=3013300, channel=0, data=[36, 0]),
   midi.NoteOnEvent(tick=3013400, channel=0, data=[45, 100]),
   midi.NoteOffEvent(tick=3013500, channel=0, data=[45, 0]),
   midi.NoteOnEvent(tick=3013600, channel=0, data=[45, 100]),
   midi.NoteOffEvent(tick=3013700, channel=0, data=[45, 0]),
   midi.NoteOnEvent(tick=3013800, channel=0, data=[74, 100]),
   midi.NoteOffEvent(tick=3013900, channel=0, data=[74, 0]),
   midi.NoteOnEvent(tick=3014000, channel=0, data=[0, 100]),
   midi.NoteOffEvent(tick=3014100, channel=0, data=[0, 0]),
   midi.NoteOnEvent(tick=3014200, channel=0, data=[56, 100]),
   midi.NoteOffEvent(tick=3014300, channel=0, data=[56, 0]),
   midi.NoteOnEvent(tick=3014400, channel=0, data=[36, 100]),
   midi.NoteOffEvent(tick=3014500, channel=0, data=[36, 0]),
   midi.NoteOnEvent(tick=3014600, channel=0, data=[36, 100]),
   midi.NoteOffEvent(tick=3014700, channel=0, data=[36, 0]),
   midi.NoteOnEvent(tick=3014800, channel=0, data=[36, 100]),
   midi.NoteOffEvent(tick=3014900, channel=0, data=[36, 0]),
   midi.NoteOnEvent(tick=3015000, channel=0, data=[36, 100]),
   midi.NoteOffEvent(tick=3015100, channel=0, data=[36, 0]),
   midi.NoteOnEvent(tick=3015200, channel=0, data=[36, 100]),
   midi.NoteOffEvent(tick=3015300, channel=0, data=[36, 0]),
   midi.NoteOnEvent(tick=3015400, channel=0, data=[36, 100]),
   midi.NoteOffEvent(tick=3015500, channel=0, data=[36, 0]),
   midi.NoteOnEvent(tick=3015600, channel=0, data=[36, 100]),
   midi.NoteOffEvent(tick=3015700, channel=0, data=[36, 0]),
   midi.NoteOnEvent(tick=3015800, channel=0, data=[36, 100]),
   midi.NoteOffEvent(tick=3015900, channel=0, data=[36, 0]),
   midi.NoteOnEvent(tick=3016000, channel=0, data=[2, 100]),
   midi.NoteOffEvent(tick=3016100, channel=0, data=[2, 0]),
   midi.NoteOnEvent(tick=3016200, channel=0, data=[46, 100]),
   midi.NoteOffEvent(tick=3016300, channel=0, data=[46, 0]),
   midi.NoteOnEvent(tick=3016400, channel=0, data=[78, 100]),
   midi.NoteOffEvent(tick=3016500, channel=0, data=[78, 0]),
   midi.NoteOnEvent(tick=3016600, channel=0, data=[15, 100]),
   midi.NoteOffEvent(tick=3016700, channel=0, data=[15, 0]),
   midi.NoteOnEvent(tick=3016800, channel=0, data=[18, 100]),
   midi.NoteOffEvent(tick=3016900, channel=0, data=[18, 0]),
   midi.NoteOnEvent(tick=3017000, channel=0, data=[73, 100]),
   midi.NoteOffEvent(tick=3017100, channel=0, data=[73, 0]),
   midi.NoteOnEvent(tick=3017200, channel=0, data=[36, 100]),
   midi.NoteOffEvent(tick=3017300, channel=0, data=[36, 0]),
   midi.NoteOnEvent(tick=3017400, channel=0, data=[74, 100]),
   midi.NoteOffEvent(tick=3017500, channel=0, data=[74, 0]),
   midi.NoteOnEvent(tick=3017600, channel=0, data=[0, 100]),
   midi.NoteOffEvent(tick=3017700, channel=0, data=[0, 0]),
   midi.NoteOnEvent(tick=3017800, channel=0, data=[56, 100]),
   midi.NoteOffEvent(tick=3017900, channel=0, data=[56, 0]),
   midi.NoteOnEvent(tick=3018000, channel=0, data=[36, 100]),
   midi.NoteOffEvent(tick=3018100, channel=0, data=[36, 0]),
   midi.NoteOnEvent(tick=3018200, channel=0, data=[36, 100]),
   midi.NoteOffEvent(tick=3018300, channel=0, data=[36, 0]),
   midi.NoteOnEvent(tick=3018400, channel=0, data=[36, 100]),
   midi.NoteOffEvent(tick=3018500, channel=0, data=[36, 0]),
   midi.NoteOnEvent(tick=3018600, channel=0, data=[36, 100]),
   midi.NoteOffEvent(tick=3018700, channel=0, data=[36, 0]),
   midi.NoteOnEvent(tick=3018800, channel=0, data=[36, 100]),
   midi.NoteOffEvent(tick=3018900, channel=0, data=[36, 0]),
   midi.NoteOnEvent(tick=3019000, channel=0, data=[36, 100]),
   midi.NoteOffEvent(tick=3019100, channel=0, data=[36, 0]),
   midi.NoteOnEvent(tick=3019200, channel=0, data=[36, 100]),
   midi.NoteOffEvent(tick=3019300, channel=0, data=[36, 0]),
   midi.NoteOnEvent(tick=3019400, channel=0, data=[36, 100]),
   midi.NoteOffEvent(tick=3019500, channel=0, data=[36, 0]),
   midi.NoteOnEvent(tick=3019600, channel=0, data=[32, 100]),
   midi.NoteOffEvent(tick=3019700, channel=0, data=[32, 0]),
   midi.NoteOnEvent(tick=3019800, channel=0, data=[56, 100]),
   midi.NoteOffEvent(tick=3019900, channel=0, data=[56, 0]),
   midi.NoteOnEvent(tick=3020000, channel=0, data=[36, 100]),
   midi.NoteOffEvent(tick=3020100, channel=0, data=[36, 0]),
   midi.NoteOnEvent(tick=3020200, channel=0, data=[36, 100]),
   midi.NoteOffEvent(tick=3020300, channel=0, data=[36, 0]),
   midi.NoteOnEvent(tick=3020400, channel=0, data=[36, 100]),
   midi.NoteOffEvent(tick=3020500, channel=0, data=[36, 0]),
   midi.NoteOnEvent(tick=3020600, channel=0, data=[36, 100]),
   midi.NoteOffEvent(tick=3020700, channel=0, data=[36, 0]),
   midi.NoteOnEvent(tick=3020800, channel=0, data=[36, 100]),
   midi.NoteOffEvent(tick=3020900, channel=0, data=[36, 0]),
   midi.NoteOnEvent(tick=3021000, channel=0, data=[36, 100]),
   midi.NoteOffEvent(tick=3021100, channel=0, data=[36, 0]),
   midi.NoteOnEvent(tick=3021200, channel=0, data=[36, 100]),
   midi.NoteOffEvent(tick=3021300, channel=0, data=[36, 0]),
   midi.NoteOnEvent(tick=3021400, channel=0, data=[36, 100]),
   midi.NoteOffEvent(tick=3021500, channel=0, data=[36, 0]),
   midi.NoteOnEvent(tick=3021600, channel=0, data=[2, 100]),
   midi.NoteOffEvent(tick=3021700, channel=0, data=[2, 0]),
   midi.NoteOnEvent(tick=3021800, channel=0, data=[46, 100]),
   midi.NoteOffEvent(tick=3021900, channel=0, data=[46, 0]),
   midi.NoteOnEvent(tick=3022000, channel=0, data=[78, 100]),
   midi.NoteOffEvent(tick=3022100, channel=0, data=[78, 0]),
   midi.NoteOnEvent(tick=3022200, channel=0, data=[15, 100]),
   midi.NoteOffEvent(tick=3022300, channel=0, data=[15, 0]),
   midi.NoteOnEvent(tick=3022400, channel=0, data=[18, 100]),
   midi.NoteOffEvent(tick=3022500, channel=0, data=[18, 0]),
   midi.NoteOnEvent(tick=3022600, channel=0, data=[73, 100]),
   midi.NoteOffEvent(tick=3022700, channel=0, data=[73, 0]),
   midi.NoteOnEvent(tick=3022800, channel=0, data=[36, 100]),
   midi.NoteOffEvent(tick=3022900, channel=0, data=[36, 0]),
   midi.NoteOnEvent(tick=3023000, channel=0, data=[49, 100]),
   midi.NoteOffEvent(tick=3023100, channel=0, data=[49, 0]),
   midi.NoteOnEvent(tick=3023200, channel=0, data=[45, 100]),
   midi.NoteOffEvent(tick=3023300, channel=0, data=[45, 0]),
   midi.NoteOnEvent(tick=3023400, channel=0, data=[45, 100]),
   midi.NoteOffEvent(tick=3023500, channel=0, data=[45, 0]),
   midi.NoteOnEvent(tick=3023600, channel=0, data=[74, 100]),
   midi.NoteOffEvent(tick=3023700, channel=0, data=[74, 0]),
   midi.NoteOnEvent(tick=3023800, channel=0, data=[0, 100]),
   midi.NoteOffEvent(tick=3023900, channel=0, data=[0, 0]),
   midi.NoteOnEvent(tick=3024000, channel=0, data=[50, 100]),
   midi.NoteOffEvent(tick=3024100, channel=0, data=[50, 0]),
   midi.NoteOnEvent(tick=3024200, channel=0, data=[56, 100]),
   midi.NoteOffEvent(tick=3024300, channel=0, data=[56, 0]),
   midi.NoteOnEvent(tick=3024400, channel=0, data=[36, 100]),
   midi.NoteOffEvent(tick=3024500, channel=0, data=[36, 0]),
   midi.NoteOnEvent(tick=3024600, channel=0, data=[36, 100]),
   midi.NoteOffEvent(tick=3024700, channel=0, data=[36, 0]),
   midi.NoteOnEvent(tick=3024800, channel=0, data=[36, 100]),
   midi.NoteOffEvent(tick=3024900, channel=0, data=[36, 0]),
   midi.NoteOnEvent(tick=3025000, channel=0, data=[36, 100]),
   midi.NoteOffEvent(tick=3025100, channel=0, data=[36, 0]),
   midi.NoteOnEvent(tick=3025200, channel=0, data=[36, 100]),
   midi.NoteOffEvent(tick=3025300, channel=0, data=[36, 0]),
   midi.NoteOnEvent(tick=3025400, channel=0, data=[36, 100]),
   midi.NoteOffEvent(tick=3025500, channel=0, data=[36, 0]),
   midi.NoteOnEvent(tick=3025600, channel=0, data=[36, 100]),
   midi.NoteOffEvent(tick=3025700, channel=0, data=[36, 0]),
   midi.NoteOnEvent(tick=3025800, channel=0, data=[36, 100]),
   midi.NoteOffEvent(tick=3025900, channel=0, data=[36, 0]),
   midi.NoteOnEvent(tick=3026000, channel=0, data=[31, 100]),
   midi.NoteOffEvent(tick=3026100, channel=0, data=[31, 0]),
   midi.NoteOnEvent(tick=3026200, channel=0, data=[56, 100]),
   midi.NoteOffEvent(tick=3026300, channel=0, data=[56, 0]),
   midi.NoteOnEvent(tick=3026400, channel=0, data=[56, 100]),
   midi.NoteOffEvent(tick=3026500, channel=0, data=[56, 0]),
   midi.NoteOnEvent(tick=3026600, channel=0, data=[56, 100]),
   midi.NoteOffEvent(tick=3026700, channel=0, data=[56, 0]),
   midi.NoteOnEvent(tick=3026800, channel=0, data=[36, 100]),
   midi.NoteOffEvent(tick=3026900, channel=0, data=[36, 0]),
   midi.NoteOnEvent(tick=3027000, channel=0, data=[36, 100]),
   midi.NoteOffEvent(tick=3027100, channel=0, data=[36, 0]),
   midi.NoteOnEvent(tick=3027200, channel=0, data=[36, 100]),
   midi.NoteOffEvent(tick=3027300, channel=0, data=[36, 0]),
   midi.NoteOnEvent(tick=3027400, channel=0, data=[36, 100]),
   midi.NoteOffEvent(tick=3027500, channel=0, data=[36, 0]),
   midi.NoteOnEvent(tick=3027600, channel=0, data=[19, 100]),
   midi.NoteOffEvent(tick=3027700, channel=0, data=[19, 0]),
   midi.NoteOnEvent(tick=3027800, channel=0, data=[7, 100]),
   midi.NoteOffEvent(tick=3027900, channel=0, data=[7, 0]),
   midi.NoteOnEvent(tick=3028000, channel=0, data=[4, 100]),
   midi.NoteOffEvent(tick=3028100, channel=0, data=[4, 0]),
   midi.NoteOnEvent(tick=3028200, channel=0, data=[36, 100]),
   midi.NoteOffEvent(tick=3028300, channel=0, data=[36, 0]),
   midi.NoteOnEvent(tick=3028400, channel=0, data=[15, 100]),
   midi.NoteOffEvent(tick=3028500, channel=0, data=[15, 0]),
   midi.NoteOnEvent(tick=3028600, channel=0, data=[17, 100]),
   midi.NoteOffEvent(tick=3028700, channel=0, data=[17, 0]),
   midi.NoteOnEvent(tick=3028800, channel=0, data=[4, 100]),
   midi.NoteOffEvent(tick=3028900, channel=0, data=[4, 0]),
   midi.NoteOnEvent(tick=3029000, channel=0, data=[5, 100]),
   midi.NoteOffEvent(tick=3029100, channel=0, data=[5, 0]),
   midi.NoteOnEvent(tick=3029200, channel=0, data=[8, 100]),
   midi.NoteOffEvent(tick=3029300, channel=0, data=[8, 0]),
   midi.NoteOnEvent(tick=3029400, channel=0, data=[23, 100]),
   midi.NoteOffEvent(tick=3029500, channel=0, data=[23, 0]),
   midi.NoteOnEvent(tick=3029600, channel=0, data=[36, 100]),
   midi.NoteOffEvent(tick=3029700, channel=0, data=[36, 0]),
   midi.NoteOnEvent(tick=3029800, channel=0, data=[21, 100]),
   midi.NoteOffEvent(tick=3029900, channel=0, data=[21, 0]),
   midi.NoteOnEvent(tick=3030000, channel=0, data=[4, 100]),
   midi.NoteOffEvent(tick=3030100, channel=0, data=[4, 0]),
   midi.NoteOnEvent(tick=3030200, channel=0, data=[17, 100]),
   midi.NoteOffEvent(tick=3030300, channel=0, data=[17, 0]),
   midi.NoteOnEvent(tick=3030400, channel=0, data=[18, 100]),
   midi.NoteOffEvent(tick=3030500, channel=0, data=[18, 0]),
   midi.NoteOnEvent(tick=3030600, channel=0, data=[8, 100]),
   midi.NoteOffEvent(tick=3030700, channel=0, data=[8, 0]),
   midi.NoteOnEvent(tick=3030800, channel=0, data=[14, 100]),
   midi.NoteOffEvent(tick=3030900, channel=0, data=[14, 0]),
   midi.NoteOnEvent(tick=3031000, channel=0, data=[13, 100]),
   midi.NoteOffEvent(tick=3031100, channel=0, data=[13, 0]),
   midi.NoteOnEvent(tick=3031200, channel=0, data=[36, 100]),
   midi.NoteOffEvent(tick=3031300, channel=0, data=[36, 0]),
   midi.NoteOnEvent(tick=3031400, channel=0, data=[14, 100]),
   midi.NoteOffEvent(tick=3031500, channel=0, data=[14, 0]),
   midi.NoteOnEvent(tick=3031600, channel=0, data=[5, 100]),
   midi.NoteOffEvent(tick=3031700, channel=0, data=[5, 0]),
   midi.NoteOnEvent(tick=3031800, channel=0, data=[36, 100]),
   midi.NoteOffEvent(tick=3031900, channel=0, data=[36, 0]),
   midi.NoteOnEvent(tick=3032000, channel=0, data=[19, 100]),
   midi.NoteOffEvent(tick=3032100, channel=0, data=[19, 0]),
   midi.NoteOnEvent(tick=3032200, channel=0, data=[7, 100]),
   midi.NoteOffEvent(tick=3032300, channel=0, data=[7, 0]),
   midi.NoteOnEvent(tick=3032400, channel=0, data=[4, 100]),
   midi.NoteOffEvent(tick=3032500, channel=0, data=[4, 0]),
   midi.NoteOnEvent(tick=3032600, channel=0, data=[36, 100]),
   midi.NoteOffEvent(tick=3032700, channel=0, data=[36, 0]),
   midi.NoteOnEvent(tick=3032800, channel=0, data=[14, 100]),
   midi.NoteOffEvent(tick=3032900, channel=0, data=[14, 0]),
   midi.NoteOnEvent(tick=3033000, channel=0, data=[15, 100]),
   midi.NoteOffEvent(tick=3033100, channel=0, data=[15, 0]),
   midi.NoteOnEvent(tick=3033200, channel=0, data=[4, 100]),
   midi.NoteOffEvent(tick=3033300, channel=0, data=[4, 0]),
   midi.NoteOnEvent(tick=3033400, channel=0, data=[17, 100]),
   midi.NoteOffEvent(tick=3033500, channel=0, data=[17, 0]),
   midi.NoteOnEvent(tick=3033600, channel=0, data=[0, 100]),
   midi.NoteOffEvent(tick=3033700, channel=0, data=[0, 0]),
   midi.NoteOnEvent(tick=3033800, channel=0, data=[19, 100]),
   midi.NoteOffEvent(tick=3033900, channel=0, data=[19, 0]),
   midi.NoteOnEvent(tick=3034000, channel=0, data=[14, 100]),
   midi.NoteOffEvent(tick=3034100, channel=0, data=[14, 0]),
   midi.NoteOnEvent(tick=3034200, channel=0, data=[17, 100]),
   midi.NoteOffEvent(tick=3034300, channel=0, data=[17, 0]),
   midi.NoteOnEvent(tick=3034400, channel=0, data=[36, 100]),
   midi.NoteOffEvent(tick=3034500, channel=0, data=[36, 0]),
   midi.NoteOnEvent(tick=3034600, channel=0, data=[3, 100]),
   midi.NoteOffEvent(tick=3034700, channel=0, data=[3, 0]),
   midi.NoteOnEvent(tick=3034800, channel=0, data=[4, 100]),
   midi.NoteOffEvent(tick=3034900, channel=0, data=[4, 0]),
   midi.NoteOnEvent(tick=3035000, channel=0, data=[2, 100]),
   midi.NoteOffEvent(tick=3035100, channel=0, data=[2, 0]),
   midi.NoteOnEvent(tick=3035200, channel=0, data=[17, 100]),
   midi.NoteOffEvent(tick=3035300, channel=0, data=[17, 0]),
   midi.NoteOnEvent(tick=3035400, channel=0, data=[4, 100]),
   midi.NoteOffEvent(tick=3035500, channel=0, data=[4, 0]),
   midi.NoteOnEvent(tick=3035600, channel=0, data=[12, 100]),
   midi.NoteOffEvent(tick=3035700, channel=0, data=[12, 0]),
   midi.NoteOnEvent(tick=3035800, channel=0, data=[4, 100]),
   midi.NoteOffEvent(tick=3035900, channel=0, data=[4, 0]),
   midi.NoteOnEvent(tick=3036000, channel=0, data=[13, 100]),
   midi.NoteOffEvent(tick=3036100, channel=0, data=[13, 0]),
   midi.NoteOnEvent(tick=3036200, channel=0, data=[19, 100]),
   midi.NoteOffEvent(tick=3036300, channel=0, data=[19, 0]),
   midi.NoteOnEvent(tick=3036400, channel=0, data=[18, 100]),
   midi.NoteOffEvent(tick=3036500, channel=0, data=[18, 0]),
   midi.NoteOnEvent(tick=3036600, channel=0, data=[36, 100]),
   midi.NoteOffEvent(tick=3036700, channel=0, data=[36, 0]),
   midi.NoteOnEvent(tick=3036800, channel=0, data=[0, 100]),
   midi.NoteOffEvent(tick=3036900, channel=0, data=[0, 0]),
   midi.NoteOnEvent(tick=3037000, channel=0, data=[36, 100]),
   midi.NoteOffEvent(tick=3037100, channel=0, data=[36, 0]),
   midi.NoteOnEvent(tick=3037200, channel=0, data=[21, 100]),
   midi.NoteOffEvent(tick=3037300, channel=0, data=[21, 0]),
   midi.NoteOnEvent(tick=3037400, channel=0, data=[0, 100]),
   midi.NoteOffEvent(tick=3037500, channel=0, data=[0, 0]),
   midi.NoteOnEvent(tick=3037600, channel=0, data=[17, 100]),
   midi.NoteOffEvent(tick=3037700, channel=0, data=[17, 0]),
   midi.NoteOnEvent(tick=3037800, channel=0, data=[8, 100]),
   midi.NoteOffEvent(tick=3037900, channel=0, data=[8, 0]),
   midi.NoteOnEvent(tick=3038000, channel=0, data=[0, 100]),
   midi.NoteOffEvent(tick=3038100, channel=0, data=[0, 0]),
   midi.NoteOnEvent(tick=3038200, channel=0, data=[1, 100]),
   midi.NoteOffEvent(tick=3038300, channel=0, data=[1, 0]),
   midi.NoteOnEvent(tick=3038400, channel=0, data=[11, 100]),
   midi.NoteOffEvent(tick=3038500, channel=0, data=[11, 0]),
   midi.NoteOnEvent(tick=3038600, channel=0, data=[4, 100]),
   midi.NoteOffEvent(tick=3038700, channel=0, data=[4, 0]),
   midi.NoteOnEvent(tick=3038800, channel=0, data=[36, 100]),
   midi.NoteOffEvent(tick=3038900, channel=0, data=[36, 0]),
   midi.NoteOnEvent(tick=3039000, channel=0, data=[1, 100]),
   midi.NoteOffEvent(tick=3039100, channel=0, data=[1, 0]),
   midi.NoteOnEvent(tick=3039200, channel=0, data=[4, 100]),
   midi.NoteOffEvent(tick=3039300, channel=0, data=[4, 0]),
   midi.NoteOnEvent(tick=3039400, channel=0, data=[5, 100]),
   midi.NoteOffEvent(tick=3039500, channel=0, data=[5, 0]),
   midi.NoteOnEvent(tick=3039600, channel=0, data=[14, 100]),
   midi.NoteOffEvent(tick=3039700, channel=0, data=[14, 0]),
   midi.NoteOnEvent(tick=3039800, channel=0, data=[17, 100]),
   midi.NoteOffEvent(tick=3039900, channel=0, data=[17, 0]),
   midi.NoteOnEvent(tick=3040000, channel=0, data=[4, 100]),
   midi.NoteOffEvent(tick=3040100, channel=0, data=[4, 0]),
   midi.NoteOnEvent(tick=3040200, channel=0, data=[36, 100]),
   midi.NoteOffEvent(tick=3040300, channel=0, data=[36, 0]),
   midi.NoteOnEvent(tick=3040400, channel=0, data=[8, 100]),
   midi.NoteOffEvent(tick=3040500, channel=0, data=[8, 0]),
   midi.NoteOnEvent(tick=3040600, channel=0, data=[19, 100]),
   midi.NoteOffEvent(tick=3040700, channel=0, data=[19, 0]),
   midi.NoteOnEvent(tick=3040800, channel=0, data=[18, 100]),
   midi.NoteOffEvent(tick=3040900, channel=0, data=[18, 0]),
   midi.NoteOnEvent(tick=3041000, channel=0, data=[36, 100]),
   midi.NoteOffEvent(tick=3041100, channel=0, data=[36, 0]),
   midi.NoteOnEvent(tick=3041200, channel=0, data=[21, 100]),
   midi.NoteOffEvent(tick=3041300, channel=0, data=[21, 0]),
   midi.NoteOnEvent(tick=3041400, channel=0, data=[0, 100]),
   midi.NoteOffEvent(tick=3041500, channel=0, data=[0, 0]),
   midi.NoteOnEvent(tick=3041600, channel=0, data=[11, 100]),
   midi.NoteOffEvent(tick=3041700, channel=0, data=[11, 0]),
   midi.NoteOnEvent(tick=3041800, channel=0, data=[20, 100]),
   midi.NoteOffEvent(tick=3041900, channel=0, data=[20, 0]),
   midi.NoteOnEvent(tick=3042000, channel=0, data=[4, 100]),
   midi.NoteOffEvent(tick=3042100, channel=0, data=[4, 0]),
   midi.NoteOnEvent(tick=3042200, channel=0, data=[36, 100]),
   midi.NoteOffEvent(tick=3042300, channel=0, data=[36, 0]),
   midi.NoteOnEvent(tick=3042400, channel=0, data=[56, 100]),
   midi.NoteOffEvent(tick=3042500, channel=0, data=[56, 0]),
   midi.NoteOnEvent(tick=3042600, channel=0, data=[36, 100]),
   midi.NoteOffEvent(tick=3042700, channel=0, data=[36, 0]),
   midi.NoteOnEvent(tick=3042800, channel=0, data=[36, 100]),
   midi.NoteOffEvent(tick=3042900, channel=0, data=[36, 0]),
   midi.NoteOnEvent(tick=3043000, channel=0, data=[36, 100]),
   midi.NoteOffEvent(tick=3043100, channel=0, data=[36, 0]),
   midi.NoteOnEvent(tick=3043200, channel=0, data=[36, 100]),
   midi.NoteOffEvent(tick=3043300, channel=0, data=[36, 0]),
   midi.NoteOnEvent(tick=3043400, channel=0, data=[8, 100]),
   midi.NoteOffEvent(tick=3043500, channel=0, data=[8, 0]),
   midi.NoteOnEvent(tick=3043600, channel=0, data=[18, 100]),
   midi.NoteOffEvent(tick=3043700, channel=0, data=[18, 0]),
   midi.NoteOnEvent(tick=3043800, channel=0, data=[36, 100]),
   midi.NoteOffEvent(tick=3043900, channel=0, data=[36, 0]),
   midi.NoteOnEvent(tick=3044000, channel=0, data=[20, 100]),
   midi.NoteOffEvent(tick=3044100, channel=0, data=[20, 0]),
   midi.NoteOnEvent(tick=3044200, channel=0, data=[18, 100]),
   midi.NoteOffEvent(tick=3044300, channel=0, data=[18, 0]),
   midi.NoteOnEvent(tick=3044400, channel=0, data=[4, 100]),
   midi.NoteOffEvent(tick=3044500, channel=0, data=[4, 0]),
   midi.NoteOnEvent(tick=3044600, channel=0, data=[3, 100]),
   midi.NoteOffEvent(tick=3044700, channel=0, data=[3, 0]),
   midi.NoteOnEvent(tick=3044800, channel=0, data=[36, 100]),
   midi.NoteOffEvent(tick=3044900, channel=0, data=[36, 0]),
   midi.NoteOnEvent(tick=3045000, channel=0, data=[8, 100]),
   midi.NoteOffEvent(tick=3045100, channel=0, data=[8, 0]),
   midi.NoteOnEvent(tick=3045200, channel=0, data=[13, 100]),
   midi.NoteOffEvent(tick=3045300, channel=0, data=[13, 0]),
   midi.NoteOnEvent(tick=3045400, channel=0, data=[36, 100]),
   midi.NoteOffEvent(tick=3045500, channel=0, data=[36, 0]),
   midi.NoteOnEvent(tick=3045600, channel=0, data=[19, 100]),
   midi.NoteOffEvent(tick=3045700, channel=0, data=[19, 0]),
   midi.NoteOnEvent(tick=3045800, channel=0, data=[7, 100]),
   midi.NoteOffEvent(tick=3045900, channel=0, data=[7, 0]),
   midi.NoteOnEvent(tick=3046000, channel=0, data=[4, 100]),
   midi.NoteOffEvent(tick=3046100, channel=0, data=[4, 0]),
   midi.NoteOnEvent(tick=3046200, channel=0, data=[36, 100]),
   midi.NoteOffEvent(tick=3046300, channel=0, data=[36, 0]),
   midi.NoteOnEvent(tick=3046400, channel=0, data=[18, 100]),
   midi.NoteOffEvent(tick=3046500, channel=0, data=[18, 0]),
   midi.NoteOnEvent(tick=3046600, channel=0, data=[19, 100]),
   midi.NoteOffEvent(tick=3046700, channel=0, data=[19, 0]),
   midi.NoteOnEvent(tick=3046800, channel=0, data=[0, 100]),
   midi.NoteOffEvent(tick=3046900, channel=0, data=[0, 0]),
   midi.NoteOnEvent(tick=3047000, channel=0, data=[19, 100]),
   midi.NoteOffEvent(tick=3047100, channel=0, data=[19, 0]),
   midi.NoteOnEvent(tick=3047200, channel=0, data=[4, 100]),
   midi.NoteOffEvent(tick=3047300, channel=0, data=[4, 0]),
   midi.NoteOnEvent(tick=3047400, channel=0, data=[12, 100]),
   midi.NoteOffEvent(tick=3047500, channel=0, data=[12, 0]),
   midi.NoteOnEvent(tick=3047600, channel=0, data=[4, 100]),
   midi.NoteOffEvent(tick=3047700, channel=0, data=[4, 0]),
   midi.NoteOnEvent(tick=3047800, channel=0, data=[13, 100]),
   midi.NoteOffEvent(tick=3047900, channel=0, data=[13, 0]),
   midi.NoteOnEvent(tick=3048000, channel=0, data=[19, 100]),
   midi.NoteOffEvent(tick=3048100, channel=0, data=[19, 0]),
   midi.NoteOnEvent(tick=3048200, channel=0, data=[38, 100]),
   midi.NoteOffEvent(tick=3048300, channel=0, data=[38, 0]),
   midi.NoteOnEvent(tick=3048400, channel=0, data=[36, 100]),
   midi.NoteOffEvent(tick=3048500, channel=0, data=[36, 0]),
   midi.NoteOnEvent(tick=3048600, channel=0, data=[0, 100]),
   midi.NoteOffEvent(tick=3048700, channel=0, data=[0, 0]),
   midi.NoteOnEvent(tick=3048800, channel=0, data=[18, 100]),
   midi.NoteOffEvent(tick=3048900, channel=0, data=[18, 0]),
   midi.NoteOnEvent(tick=3049000, channel=0, data=[36, 100]),
   midi.NoteOffEvent(tick=3049100, channel=0, data=[36, 0]),
   midi.NoteOnEvent(tick=3049200, channel=0, data=[5, 100]),
   midi.NoteOffEvent(tick=3049300, channel=0, data=[5, 0]),
   midi.NoteOnEvent(tick=3049400, channel=0, data=[14, 100]),
   midi.NoteOffEvent(tick=3049500, channel=0, data=[14, 0]),
   midi.NoteOnEvent(tick=3049600, channel=0, data=[11, 100]),
   midi.NoteOffEvent(tick=3049700, channel=0, data=[11, 0]),
   midi.NoteOnEvent(tick=3049800, channel=0, data=[11, 100]),
   midi.NoteOffEvent(tick=3049900, channel=0, data=[11, 0]),
   midi.NoteOnEvent(tick=3050000, channel=0, data=[14, 100]),
   midi.NoteOffEvent(tick=3050100, channel=0, data=[14, 0]),
   midi.NoteOnEvent(tick=3050200, channel=0, data=[22, 100]),
   midi.NoteOffEvent(tick=3050300, channel=0, data=[22, 0]),
   midi.NoteOnEvent(tick=3050400, channel=0, data=[18, 100]),
   midi.NoteOffEvent(tick=3050500, channel=0, data=[18, 0]),
   midi.NoteOnEvent(tick=3050600, channel=0, data=[46, 100]),
   midi.NoteOffEvent(tick=3050700, channel=0, data=[46, 0]),
   midi.NoteOnEvent(tick=3050800, channel=0, data=[56, 100]),
   midi.NoteOffEvent(tick=3050900, channel=0, data=[56, 0]),
   midi.NoteOnEvent(tick=3051000, channel=0, data=[56, 100]),
   midi.NoteOffEvent(tick=3051100, channel=0, data=[56, 0]),
   midi.NoteOnEvent(tick=3051200, channel=0, data=[56, 100]),
   midi.NoteOffEvent(tick=3051300, channel=0, data=[56, 0]),
   midi.NoteOnEvent(tick=3051400, channel=0, data=[36, 100]),
   midi.NoteOffEvent(tick=3051500, channel=0, data=[36, 0]),
   midi.NoteOnEvent(tick=3051600, channel=0, data=[36, 100]),
   midi.NoteOffEvent(tick=3051700, channel=0, data=[36, 0]),
   midi.NoteOnEvent(tick=3051800, channel=0, data=[36, 100]),
   midi.NoteOffEvent(tick=3051900, channel=0, data=[36, 0]),
   midi.NoteOnEvent(tick=3052000, channel=0, data=[36, 100]),
   midi.NoteOffEvent(tick=3052100, channel=0, data=[36, 0]),
   midi.NoteOnEvent(tick=3052200, channel=0, data=[36, 100]),
   midi.NoteOffEvent(tick=3052300, channel=0, data=[36, 0]),
   midi.NoteOnEvent(tick=3052400, channel=0, data=[36, 100]),
   midi.NoteOffEvent(tick=3052500, channel=0, data=[36, 0]),
   midi.NoteOnEvent(tick=3052600, channel=0, data=[36, 100]),
   midi.NoteOffEvent(tick=3052700, channel=0, data=[36, 0]),
   midi.NoteOnEvent(tick=3052800, channel=0, data=[36, 100]),
   midi.NoteOffEvent(tick=3052900, channel=0, data=[36, 0]),
   midi.NoteOnEvent(tick=3053000, channel=0, data=[2, 100]),
   midi.NoteOffEvent(tick=3053100, channel=0, data=[2, 0]),
   midi.NoteOnEvent(tick=3053200, channel=0, data=[46, 100]),
   midi.NoteOffEvent(tick=3053300, channel=0, data=[46, 0]),
   midi.NoteOnEvent(tick=3053400, channel=0, data=[78, 100]),
   midi.NoteOffEvent(tick=3053500, channel=0, data=[78, 0]),
   midi.NoteOnEvent(tick=3053600, channel=0, data=[15, 100]),
   midi.NoteOffEvent(tick=3053700, channel=0, data=[15, 0]),
   midi.NoteOnEvent(tick=3053800, channel=0, data=[18, 100]),
   midi.NoteOffEvent(tick=3053900, channel=0, data=[18, 0]),
   midi.NoteOnEvent(tick=3054000, channel=0, data=[73, 100]),
   midi.NoteOffEvent(tick=3054100, channel=0, data=[73, 0]),
   midi.NoteOnEvent(tick=3054200, channel=0, data=[36, 100]),
   midi.NoteOffEvent(tick=3054300, channel=0, data=[36, 0]),
   midi.NoteOnEvent(tick=3054400, channel=0, data=[74, 100]),
   midi.NoteOffEvent(tick=3054500, channel=0, data=[74, 0]),
   midi.NoteOnEvent(tick=3054600, channel=0, data=[0, 100]),
   midi.NoteOffEvent(tick=3054700, channel=0, data=[0, 0]),
   midi.NoteOnEvent(tick=3054800, channel=0, data=[36, 100]),
   midi.NoteOffEvent(tick=3054900, channel=0, data=[36, 0]),
   midi.NoteOnEvent(tick=3055000, channel=0, data=[69, 100]),
   midi.NoteOffEvent(tick=3055100, channel=0, data=[69, 0]),
   midi.NoteOnEvent(tick=3055200, channel=0, data=[36, 100]),
   midi.NoteOffEvent(tick=3055300, channel=0, data=[36, 0]),
   midi.NoteOnEvent(tick=3055400, channel=0, data=[33, 100]),
   midi.NoteOffEvent(tick=3055500, channel=0, data=[33, 0]),
   midi.NoteOnEvent(tick=3055600, channel=0, data=[56, 100]),
   midi.NoteOffEvent(tick=3055700, channel=0, data=[56, 0]),
   midi.NoteOnEvent(tick=3055800, channel=0, data=[36, 100]),
   midi.NoteOffEvent(tick=3055900, channel=0, data=[36, 0]),
   midi.NoteOnEvent(tick=3056000, channel=0, data=[36, 100]),
   midi.NoteOffEvent(tick=3056100, channel=0, data=[36, 0]),
   midi.NoteOnEvent(tick=3056200, channel=0, data=[36, 100]),
   midi.NoteOffEvent(tick=3056300, channel=0, data=[36, 0]),
   midi.NoteOnEvent(tick=3056400, channel=0, data=[36, 100]),
   midi.NoteOffEvent(tick=3056500, channel=0, data=[36, 0]),
   midi.NoteOnEvent(tick=3056600, channel=0, data=[36, 100]),
   midi.NoteOffEvent(tick=3056700, channel=0, data=[36, 0]),
   midi.NoteOnEvent(tick=3056800, channel=0, data=[36, 100]),
   midi.NoteOffEvent(tick=3056900, channel=0, data=[36, 0]),
   midi.NoteOnEvent(tick=3057000, channel=0, data=[36, 100]),
   midi.NoteOffEvent(tick=3057100, channel=0, data=[36, 0]),
   midi.NoteOnEvent(tick=3057200, channel=0, data=[36, 100]),
   midi.NoteOffEvent(tick=3057300, channel=0, data=[36, 0]),
   midi.NoteOnEvent(tick=3057400, channel=0, data=[2, 100]),
   midi.NoteOffEvent(tick=3057500, channel=0, data=[2, 0]),
   midi.NoteOnEvent(tick=3057600, channel=0, data=[46, 100]),
   midi.NoteOffEvent(tick=3057700, channel=0, data=[46, 0]),
   midi.NoteOnEvent(tick=3057800, channel=0, data=[78, 100]),
   midi.NoteOffEvent(tick=3057900, channel=0, data=[78, 0]),
   midi.NoteOnEvent(tick=3058000, channel=0, data=[15, 100]),
   midi.NoteOffEvent(tick=3058100, channel=0, data=[15, 0]),
   midi.NoteOnEvent(tick=3058200, channel=0, data=[18, 100]),
   midi.NoteOffEvent(tick=3058300, channel=0, data=[18, 0]),
   midi.NoteOnEvent(tick=3058400, channel=0, data=[73, 100]),
   midi.NoteOffEvent(tick=3058500, channel=0, data=[73, 0]),
   midi.NoteOnEvent(tick=3058600, channel=0, data=[36, 100]),
   midi.NoteOffEvent(tick=3058700, channel=0, data=[36, 0]),
   midi.NoteOnEvent(tick=3058800, channel=0, data=[74, 100]),
   midi.NoteOffEvent(tick=3058900, channel=0, data=[74, 0]),
   midi.NoteOnEvent(tick=3059000, channel=0, data=[2, 100]),
   midi.NoteOffEvent(tick=3059100, channel=0, data=[2, 0]),
   midi.NoteOnEvent(tick=3059200, channel=0, data=[36, 100]),
   midi.NoteOffEvent(tick=3059300, channel=0, data=[36, 0]),
   midi.NoteOnEvent(tick=3059400, channel=0, data=[69, 100]),
   midi.NoteOffEvent(tick=3059500, channel=0, data=[69, 0]),
   midi.NoteOnEvent(tick=3059600, channel=0, data=[36, 100]),
   midi.NoteOffEvent(tick=3059700, channel=0, data=[36, 0]),
   midi.NoteOnEvent(tick=3059800, channel=0, data=[45, 100]),
   midi.NoteOffEvent(tick=3059900, channel=0, data=[45, 0]),
   midi.NoteOnEvent(tick=3060000, channel=0, data=[45, 100]),
   midi.NoteOffEvent(tick=3060100, channel=0, data=[45, 0]),
   midi.NoteOnEvent(tick=3060200, channel=0, data=[74, 100]),
   midi.NoteOffEvent(tick=3060300, channel=0, data=[74, 0]),
   midi.NoteOnEvent(tick=3060400, channel=0, data=[0, 100]),
   midi.NoteOffEvent(tick=3060500, channel=0, data=[0, 0]),
   midi.NoteOnEvent(tick=3060600, channel=0, data=[56, 100]),
   midi.NoteOffEvent(tick=3060700, channel=0, data=[56, 0]),
   midi.NoteOnEvent(tick=3060800, channel=0, data=[36, 100]),
   midi.NoteOffEvent(tick=3060900, channel=0, data=[36, 0]),
   midi.NoteOnEvent(tick=3061000, channel=0, data=[36, 100]),
   midi.NoteOffEvent(tick=3061100, channel=0, data=[36, 0]),
   midi.NoteOnEvent(tick=3061200, channel=0, data=[36, 100]),
   midi.NoteOffEvent(tick=3061300, channel=0, data=[36, 0]),
   midi.NoteOnEvent(tick=3061400, channel=0, data=[36, 100]),
   midi.NoteOffEvent(tick=3061500, channel=0, data=[36, 0]),
   midi.NoteOnEvent(tick=3061600, channel=0, data=[36, 100]),
   midi.NoteOffEvent(tick=3061700, channel=0, data=[36, 0]),
   midi.NoteOnEvent(tick=3061800, channel=0, data=[36, 100]),
   midi.NoteOffEvent(tick=3061900, channel=0, data=[36, 0]),
   midi.NoteOnEvent(tick=3062000, channel=0, data=[36, 100]),
   midi.NoteOffEvent(tick=3062100, channel=0, data=[36, 0]),
   midi.NoteOnEvent(tick=3062200, channel=0, data=[36, 100]),
   midi.NoteOffEvent(tick=3062300, channel=0, data=[36, 0]),
   midi.NoteOnEvent(tick=3062400, channel=0, data=[2, 100]),
   midi.NoteOffEvent(tick=3062500, channel=0, data=[2, 0]),
   midi.NoteOnEvent(tick=3062600, channel=0, data=[46, 100]),
   midi.NoteOffEvent(tick=3062700, channel=0, data=[46, 0]),
   midi.NoteOnEvent(tick=3062800, channel=0, data=[78, 100]),
   midi.NoteOffEvent(tick=3062900, channel=0, data=[78, 0]),
   midi.NoteOnEvent(tick=3063000, channel=0, data=[15, 100]),
   midi.NoteOffEvent(tick=3063100, channel=0, data=[15, 0]),
   midi.NoteOnEvent(tick=3063200, channel=0, data=[18, 100]),
   midi.NoteOffEvent(tick=3063300, channel=0, data=[18, 0]),
   midi.NoteOnEvent(tick=3063400, channel=0, data=[73, 100]),
   midi.NoteOffEvent(tick=3063500, channel=0, data=[73, 0]),
   midi.NoteOnEvent(tick=3063600, channel=0, data=[36, 100]),
   midi.NoteOffEvent(tick=3063700, channel=0, data=[36, 0]),
   midi.NoteOnEvent(tick=3063800, channel=0, data=[74, 100]),
   midi.NoteOffEvent(tick=3063900, channel=0, data=[74, 0]),
   midi.NoteOnEvent(tick=3064000, channel=0, data=[0, 100]),
   midi.NoteOffEvent(tick=3064100, channel=0, data=[0, 0]),
   midi.NoteOnEvent(tick=3064200, channel=0, data=[56, 100]),
   midi.NoteOffEvent(tick=3064300, channel=0, data=[56, 0]),
   midi.NoteOnEvent(tick=3064400, channel=0, data=[36, 100]),
   midi.NoteOffEvent(tick=3064500, channel=0, data=[36, 0]),
   midi.NoteOnEvent(tick=3064600, channel=0, data=[36, 100]),
   midi.NoteOffEvent(tick=3064700, channel=0, data=[36, 0]),
   midi.NoteOnEvent(tick=3064800, channel=0, data=[36, 100]),
   midi.NoteOffEvent(tick=3064900, channel=0, data=[36, 0]),
   midi.NoteOnEvent(tick=3065000, channel=0, data=[36, 100]),
   midi.NoteOffEvent(tick=3065100, channel=0, data=[36, 0]),
   midi.NoteOnEvent(tick=3065200, channel=0, data=[36, 100]),
   midi.NoteOffEvent(tick=3065300, channel=0, data=[36, 0]),
   midi.NoteOnEvent(tick=3065400, channel=0, data=[36, 100]),
   midi.NoteOffEvent(tick=3065500, channel=0, data=[36, 0]),
   midi.NoteOnEvent(tick=3065600, channel=0, data=[36, 100]),
   midi.NoteOffEvent(tick=3065700, channel=0, data=[36, 0]),
   midi.NoteOnEvent(tick=3065800, channel=0, data=[36, 100]),
   midi.NoteOffEvent(tick=3065900, channel=0, data=[36, 0]),
   midi.NoteOnEvent(tick=3066000, channel=0, data=[32, 100]),
   midi.NoteOffEvent(tick=3066100, channel=0, data=[32, 0]),
   midi.NoteOnEvent(tick=3066200, channel=0, data=[56, 100]),
   midi.NoteOffEvent(tick=3066300, channel=0, data=[56, 0]),
   midi.NoteOnEvent(tick=3066400, channel=0, data=[36, 100]),
   midi.NoteOffEvent(tick=3066500, channel=0, data=[36, 0]),
   midi.NoteOnEvent(tick=3066600, channel=0, data=[36, 100]),
   midi.NoteOffEvent(tick=3066700, channel=0, data=[36, 0]),
   midi.NoteOnEvent(tick=3066800, channel=0, data=[36, 100]),
   midi.NoteOffEvent(tick=3066900, channel=0, data=[36, 0]),
   midi.NoteOnEvent(tick=3067000, channel=0, data=[36, 100]),
   midi.NoteOffEvent(tick=3067100, channel=0, data=[36, 0]),
   midi.NoteOnEvent(tick=3067200, channel=0, data=[36, 100]),
   midi.NoteOffEvent(tick=3067300, channel=0, data=[36, 0]),
   midi.NoteOnEvent(tick=3067400, channel=0, data=[36, 100]),
   midi.NoteOffEvent(tick=3067500, channel=0, data=[36, 0]),
   midi.NoteOnEvent(tick=3067600, channel=0, data=[36, 100]),
   midi.NoteOffEvent(tick=3067700, channel=0, data=[36, 0]),
   midi.NoteOnEvent(tick=3067800, channel=0, data=[36, 100]),
   midi.NoteOffEvent(tick=3067900, channel=0, data=[36, 0]),
   midi.NoteOnEvent(tick=3068000, channel=0, data=[2, 100]),
   midi.NoteOffEvent(tick=3068100, channel=0, data=[2, 0]),
   midi.NoteOnEvent(tick=3068200, channel=0, data=[46, 100]),
   midi.NoteOffEvent(tick=3068300, channel=0, data=[46, 0]),
   midi.NoteOnEvent(tick=3068400, channel=0, data=[78, 100]),
   midi.NoteOffEvent(tick=3068500, channel=0, data=[78, 0]),
   midi.NoteOnEvent(tick=3068600, channel=0, data=[15, 100]),
   midi.NoteOffEvent(tick=3068700, channel=0, data=[15, 0]),
   midi.NoteOnEvent(tick=3068800, channel=0, data=[18, 100]),
   midi.NoteOffEvent(tick=3068900, channel=0, data=[18, 0]),
   midi.NoteOnEvent(tick=3069000, channel=0, data=[73, 100]),
   midi.NoteOffEvent(tick=3069100, channel=0, data=[73, 0]),
   midi.NoteOnEvent(tick=3069200, channel=0, data=[36, 100]),
   midi.NoteOffEvent(tick=3069300, channel=0, data=[36, 0]),
   midi.NoteOnEvent(tick=3069400, channel=0, data=[74, 100]),
   midi.NoteOffEvent(tick=3069500, channel=0, data=[74, 0]),
   midi.NoteOnEvent(tick=3069600, channel=0, data=[2, 100]),
   midi.NoteOffEvent(tick=3069700, channel=0, data=[2, 0]),
   midi.NoteOnEvent(tick=3069800, channel=0, data=[56, 100]),
   midi.NoteOffEvent(tick=3069900, channel=0, data=[56, 0]),
   midi.NoteOnEvent(tick=3070000, channel=0, data=[36, 100]),
   midi.NoteOffEvent(tick=3070100, channel=0, data=[36, 0]),
   midi.NoteOnEvent(tick=3070200, channel=0, data=[36, 100]),
   midi.NoteOffEvent(tick=3070300, channel=0, data=[36, 0]),
   midi.NoteOnEvent(tick=3070400, channel=0, data=[36, 100]),
   midi.NoteOffEvent(tick=3070500, channel=0, data=[36, 0]),
   midi.NoteOnEvent(tick=3070600, channel=0, data=[36, 100]),
   midi.NoteOffEvent(tick=3070700, channel=0, data=[36, 0]),
   midi.NoteOnEvent(tick=3070800, channel=0, data=[36, 100]),
   midi.NoteOffEvent(tick=3070900, channel=0, data=[36, 0]),
   midi.NoteOnEvent(tick=3071000, channel=0, data=[36, 100]),
   midi.NoteOffEvent(tick=3071100, channel=0, data=[36, 0]),
   midi.NoteOnEvent(tick=3071200, channel=0, data=[36, 100]),
   midi.NoteOffEvent(tick=3071300, channel=0, data=[36, 0]),
   midi.NoteOnEvent(tick=3071400, channel=0, data=[36, 100]),
   midi.NoteOffEvent(tick=3071500, channel=0, data=[36, 0]),
   midi.NoteOnEvent(tick=3071600, channel=0, data=[32, 100]),
   midi.NoteOffEvent(tick=3071700, channel=0, data=[32, 0]),
   midi.NoteOnEvent(tick=3071800, channel=0, data=[56, 100]),
   midi.NoteOffEvent(tick=3071900, channel=0, data=[56, 0]),
   midi.NoteOnEvent(tick=3072000, channel=0, data=[56, 100]),
   midi.NoteOffEvent(tick=3072100, channel=0, data=[56, 0]),
   midi.NoteOnEvent(tick=3072200, channel=0, data=[56, 100]),
   midi.NoteOffEvent(tick=3072300, channel=0, data=[56, 0]),
   midi.NoteOnEvent(tick=3072400, channel=0, data=[36, 100]),
   midi.NoteOffEvent(tick=3072500, channel=0, data=[36, 0]),
   midi.NoteOnEvent(tick=3072600, channel=0, data=[36, 100]),
   midi.NoteOffEvent(tick=3072700, channel=0, data=[36, 0]),
   midi.NoteOnEvent(tick=3072800, channel=0, data=[36, 100]),
   midi.NoteOffEvent(tick=3072900, channel=0, data=[36, 0]),
   midi.NoteOnEvent(tick=3073000, channel=0, data=[36, 100]),
   midi.NoteOffEvent(tick=3073100, channel=0, data=[36, 0]),
   midi.NoteOnEvent(tick=3073200, channel=0, data=[19, 100]),
   midi.NoteOffEvent(tick=3073300, channel=0, data=[19, 0]),
   midi.NoteOnEvent(tick=3073400, channel=0, data=[7, 100]),
   midi.NoteOffEvent(tick=3073500, channel=0, data=[7, 0]),
   midi.NoteOnEvent(tick=3073600, channel=0, data=[4, 100]),
   midi.NoteOffEvent(tick=3073700, channel=0, data=[4, 0]),
   midi.NoteOnEvent(tick=3073800, channel=0, data=[36, 100]),
   midi.NoteOffEvent(tick=3073900, channel=0, data=[36, 0]),
   midi.NoteOnEvent(tick=3074000, channel=0, data=[15, 100]),
   midi.NoteOffEvent(tick=3074100, channel=0, data=[15, 0]),
   midi.NoteOnEvent(tick=3074200, channel=0, data=[14, 100]),
   midi.NoteOffEvent(tick=3074300, channel=0, data=[14, 0]),
   midi.NoteOnEvent(tick=3074400, channel=0, data=[18, 100]),
   midi.NoteOffEvent(tick=3074500, channel=0, data=[18, 0]),
   midi.NoteOnEvent(tick=3074600, channel=0, data=[19, 100]),
   midi.NoteOffEvent(tick=3074700, channel=0, data=[19, 0]),
   midi.NoteOnEvent(tick=3074800, channel=0, data=[5, 100]),
   midi.NoteOffEvent(tick=3074900, channel=0, data=[5, 0]),
   midi.NoteOnEvent(tick=3075000, channel=0, data=[8, 100]),
   midi.NoteOffEvent(tick=3075100, channel=0, data=[8, 0]),
   midi.NoteOnEvent(tick=3075200, channel=0, data=[23, 100]),
   midi.NoteOffEvent(tick=3075300, channel=0, data=[23, 0]),
   midi.NoteOnEvent(tick=3075400, channel=0, data=[36, 100]),
   midi.NoteOffEvent(tick=3075500, channel=0, data=[36, 0]),
   midi.NoteOnEvent(tick=3075600, channel=0, data=[21, 100]),
   midi.NoteOffEvent(tick=3075700, channel=0, data=[21, 0]),
   midi.NoteOnEvent(tick=3075800, channel=0, data=[4, 100]),
   midi.NoteOffEvent(tick=3075900, channel=0, data=[4, 0]),
   midi.NoteOnEvent(tick=3076000, channel=0, data=[17, 100]),
   midi.NoteOffEvent(tick=3076100, channel=0, data=[17, 0]),
   midi.NoteOnEvent(tick=3076200, channel=0, data=[18, 100]),
   midi.NoteOffEvent(tick=3076300, channel=0, data=[18, 0]),
   midi.NoteOnEvent(tick=3076400, channel=0, data=[8, 100]),
   midi.NoteOffEvent(tick=3076500, channel=0, data=[8, 0]),
   midi.NoteOnEvent(tick=3076600, channel=0, data=[14, 100]),
   midi.NoteOffEvent(tick=3076700, channel=0, data=[14, 0]),
   midi.NoteOnEvent(tick=3076800, channel=0, data=[13, 100]),
   midi.NoteOffEvent(tick=3076900, channel=0, data=[13, 0]),
   midi.NoteOnEvent(tick=3077000, channel=0, data=[36, 100]),
   midi.NoteOffEvent(tick=3077100, channel=0, data=[36, 0]),
   midi.NoteOnEvent(tick=3077200, channel=0, data=[14, 100]),
   midi.NoteOffEvent(tick=3077300, channel=0, data=[14, 0]),
   midi.NoteOnEvent(tick=3077400, channel=0, data=[5, 100]),
   midi.NoteOffEvent(tick=3077500, channel=0, data=[5, 0]),
   midi.NoteOnEvent(tick=3077600, channel=0, data=[36, 100]),
   midi.NoteOffEvent(tick=3077700, channel=0, data=[36, 0]),
   midi.NoteOnEvent(tick=3077800, channel=0, data=[19, 100]),
   midi.NoteOffEvent(tick=3077900, channel=0, data=[19, 0]),
   midi.NoteOnEvent(tick=3078000, channel=0, data=[7, 100]),
   midi.NoteOffEvent(tick=3078100, channel=0, data=[7, 0]),
   midi.NoteOnEvent(tick=3078200, channel=0, data=[4, 100]),
   midi.NoteOffEvent(tick=3078300, channel=0, data=[4, 0]),
   midi.NoteOnEvent(tick=3078400, channel=0, data=[36, 100]),
   midi.NoteOffEvent(tick=3078500, channel=0, data=[36, 0]),
   midi.NoteOnEvent(tick=3078600, channel=0, data=[14, 100]),
   midi.NoteOffEvent(tick=3078700, channel=0, data=[14, 0]),
   midi.NoteOnEvent(tick=3078800, channel=0, data=[15, 100]),
   midi.NoteOffEvent(tick=3078900, channel=0, data=[15, 0]),
   midi.NoteOnEvent(tick=3079000, channel=0, data=[4, 100]),
   midi.NoteOffEvent(tick=3079100, channel=0, data=[4, 0]),
   midi.NoteOnEvent(tick=3079200, channel=0, data=[17, 100]),
   midi.NoteOffEvent(tick=3079300, channel=0, data=[17, 0]),
   midi.NoteOnEvent(tick=3079400, channel=0, data=[0, 100]),
   midi.NoteOffEvent(tick=3079500, channel=0, data=[0, 0]),
   midi.NoteOnEvent(tick=3079600, channel=0, data=[19, 100]),
   midi.NoteOffEvent(tick=3079700, channel=0, data=[19, 0]),
   midi.NoteOnEvent(tick=3079800, channel=0, data=[14, 100]),
   midi.NoteOffEvent(tick=3079900, channel=0, data=[14, 0]),
   midi.NoteOnEvent(tick=3080000, channel=0, data=[17, 100]),
   midi.NoteOffEvent(tick=3080100, channel=0, data=[17, 0]),
   midi.NoteOnEvent(tick=3080200, channel=0, data=[36, 100]),
   midi.NoteOffEvent(tick=3080300, channel=0, data=[36, 0]),
   midi.NoteOnEvent(tick=3080400, channel=0, data=[3, 100]),
   midi.NoteOffEvent(tick=3080500, channel=0, data=[3, 0]),
   midi.NoteOnEvent(tick=3080600, channel=0, data=[4, 100]),
   midi.NoteOffEvent(tick=3080700, channel=0, data=[4, 0]),
   midi.NoteOnEvent(tick=3080800, channel=0, data=[2, 100]),
   midi.NoteOffEvent(tick=3080900, channel=0, data=[2, 0]),
   midi.NoteOnEvent(tick=3081000, channel=0, data=[17, 100]),
   midi.NoteOffEvent(tick=3081100, channel=0, data=[17, 0]),
   midi.NoteOnEvent(tick=3081200, channel=0, data=[4, 100]),
   midi.NoteOffEvent(tick=3081300, channel=0, data=[4, 0]),
   midi.NoteOnEvent(tick=3081400, channel=0, data=[12, 100]),
   midi.NoteOffEvent(tick=3081500, channel=0, data=[12, 0]),
   midi.NoteOnEvent(tick=3081600, channel=0, data=[4, 100]),
   midi.NoteOffEvent(tick=3081700, channel=0, data=[4, 0]),
   midi.NoteOnEvent(tick=3081800, channel=0, data=[13, 100]),
   midi.NoteOffEvent(tick=3081900, channel=0, data=[13, 0]),
   midi.NoteOnEvent(tick=3082000, channel=0, data=[19, 100]),
   midi.NoteOffEvent(tick=3082100, channel=0, data=[19, 0]),
   midi.NoteOnEvent(tick=3082200, channel=0, data=[18, 100]),
   midi.NoteOffEvent(tick=3082300, channel=0, data=[18, 0]),
   midi.NoteOnEvent(tick=3082400, channel=0, data=[36, 100]),
   midi.NoteOffEvent(tick=3082500, channel=0, data=[36, 0]),
   midi.NoteOnEvent(tick=3082600, channel=0, data=[0, 100]),
   midi.NoteOffEvent(tick=3082700, channel=0, data=[0, 0]),
   midi.NoteOnEvent(tick=3082800, channel=0, data=[36, 100]),
   midi.NoteOffEvent(tick=3082900, channel=0, data=[36, 0]),
   midi.NoteOnEvent(tick=3083000, channel=0, data=[21, 100]),
   midi.NoteOffEvent(tick=3083100, channel=0, data=[21, 0]),
   midi.NoteOnEvent(tick=3083200, channel=0, data=[0, 100]),
   midi.NoteOffEvent(tick=3083300, channel=0, data=[0, 0]),
   midi.NoteOnEvent(tick=3083400, channel=0, data=[17, 100]),
   midi.NoteOffEvent(tick=3083500, channel=0, data=[17, 0]),
   midi.NoteOnEvent(tick=3083600, channel=0, data=[8, 100]),
   midi.NoteOffEvent(tick=3083700, channel=0, data=[8, 0]),
   midi.NoteOnEvent(tick=3083800, channel=0, data=[0, 100]),
   midi.NoteOffEvent(tick=3083900, channel=0, data=[0, 0]),
   midi.NoteOnEvent(tick=3084000, channel=0, data=[1, 100]),
   midi.NoteOffEvent(tick=3084100, channel=0, data=[1, 0]),
   midi.NoteOnEvent(tick=3084200, channel=0, data=[11, 100]),
   midi.NoteOffEvent(tick=3084300, channel=0, data=[11, 0]),
   midi.NoteOnEvent(tick=3084400, channel=0, data=[4, 100]),
   midi.NoteOffEvent(tick=3084500, channel=0, data=[4, 0]),
   midi.NoteOnEvent(tick=3084600, channel=0, data=[36, 100]),
   midi.NoteOffEvent(tick=3084700, channel=0, data=[36, 0]),
   midi.NoteOnEvent(tick=3084800, channel=0, data=[0, 100]),
   midi.NoteOffEvent(tick=3084900, channel=0, data=[0, 0]),
   midi.NoteOnEvent(tick=3085000, channel=0, data=[5, 100]),
   midi.NoteOffEvent(tick=3085100, channel=0, data=[5, 0]),
   midi.NoteOnEvent(tick=3085200, channel=0, data=[19, 100]),
   midi.NoteOffEvent(tick=3085300, channel=0, data=[19, 0]),
   midi.NoteOnEvent(tick=3085400, channel=0, data=[4, 100]),
   midi.NoteOffEvent(tick=3085500, channel=0, data=[4, 0]),
   midi.NoteOnEvent(tick=3085600, channel=0, data=[17, 100]),
   midi.NoteOffEvent(tick=3085700, channel=0, data=[17, 0]),
   midi.NoteOnEvent(tick=3085800, channel=0, data=[36, 100]),
   midi.NoteOffEvent(tick=3085900, channel=0, data=[36, 0]),
   midi.NoteOnEvent(tick=3086000, channel=0, data=[8, 100]),
   midi.NoteOffEvent(tick=3086100, channel=0, data=[8, 0]),
   midi.NoteOnEvent(tick=3086200, channel=0, data=[19, 100]),
   midi.NoteOffEvent(tick=3086300, channel=0, data=[19, 0]),
   midi.NoteOnEvent(tick=3086400, channel=0, data=[18, 100]),
   midi.NoteOffEvent(tick=3086500, channel=0, data=[18, 0]),
   midi.NoteOnEvent(tick=3086600, channel=0, data=[36, 100]),
   midi.NoteOffEvent(tick=3086700, channel=0, data=[36, 0]),
   midi.NoteOnEvent(tick=3086800, channel=0, data=[21, 100]),
   midi.NoteOffEvent(tick=3086900, channel=0, data=[21, 0]),
   midi.NoteOnEvent(tick=3087000, channel=0, data=[0, 100]),
   midi.NoteOffEvent(tick=3087100, channel=0, data=[0, 0]),
   midi.NoteOnEvent(tick=3087200, channel=0, data=[11, 100]),
   midi.NoteOffEvent(tick=3087300, channel=0, data=[11, 0]),
   midi.NoteOnEvent(tick=3087400, channel=0, data=[20, 100]),
   midi.NoteOffEvent(tick=3087500, channel=0, data=[20, 0]),
   midi.NoteOnEvent(tick=3087600, channel=0, data=[4, 100]),
   midi.NoteOffEvent(tick=3087700, channel=0, data=[4, 0]),
   midi.NoteOnEvent(tick=3087800, channel=0, data=[36, 100]),
   midi.NoteOffEvent(tick=3087900, channel=0, data=[36, 0]),
   midi.NoteOnEvent(tick=3088000, channel=0, data=[56, 100]),
   midi.NoteOffEvent(tick=3088100, channel=0, data=[56, 0]),
   midi.NoteOnEvent(tick=3088200, channel=0, data=[36, 100]),
   midi.NoteOffEvent(tick=3088300, channel=0, data=[36, 0]),
   midi.NoteOnEvent(tick=3088400, channel=0, data=[36, 100]),
   midi.NoteOffEvent(tick=3088500, channel=0, data=[36, 0]),
   midi.NoteOnEvent(tick=3088600, channel=0, data=[36, 100]),
   midi.NoteOffEvent(tick=3088700, channel=0, data=[36, 0]),
   midi.NoteOnEvent(tick=3088800, channel=0, data=[36, 100]),
   midi.NoteOffEvent(tick=3088900, channel=0, data=[36, 0]),
   midi.NoteOnEvent(tick=3089000, channel=0, data=[8, 100]),
   midi.NoteOffEvent(tick=3089100, channel=0, data=[8, 0]),
   midi.NoteOnEvent(tick=3089200, channel=0, data=[18, 100]),
   midi.NoteOffEvent(tick=3089300, channel=0, data=[18, 0]),
   midi.NoteOnEvent(tick=3089400, channel=0, data=[36, 100]),
   midi.NoteOffEvent(tick=3089500, channel=0, data=[36, 0]),
   midi.NoteOnEvent(tick=3089600, channel=0, data=[20, 100]),
   midi.NoteOffEvent(tick=3089700, channel=0, data=[20, 0]),
   midi.NoteOnEvent(tick=3089800, channel=0, data=[18, 100]),
   midi.NoteOffEvent(tick=3089900, channel=0, data=[18, 0]),
   midi.NoteOnEvent(tick=3090000, channel=0, data=[4, 100]),
   midi.NoteOffEvent(tick=3090100, channel=0, data=[4, 0]),
   midi.NoteOnEvent(tick=3090200, channel=0, data=[3, 100]),
   midi.NoteOffEvent(tick=3090300, channel=0, data=[3, 0]),
   midi.NoteOnEvent(tick=3090400, channel=0, data=[36, 100]),
   midi.NoteOffEvent(tick=3090500, channel=0, data=[36, 0]),
   midi.NoteOnEvent(tick=3090600, channel=0, data=[8, 100]),
   midi.NoteOffEvent(tick=3090700, channel=0, data=[8, 0]),
   midi.NoteOnEvent(tick=3090800, channel=0, data=[13, 100]),
   midi.NoteOffEvent(tick=3090900, channel=0, data=[13, 0]),
   midi.NoteOnEvent(tick=3091000, channel=0, data=[36, 100]),
   midi.NoteOffEvent(tick=3091100, channel=0, data=[36, 0]),
   midi.NoteOnEvent(tick=3091200, channel=0, data=[19, 100]),
   midi.NoteOffEvent(tick=3091300, channel=0, data=[19, 0]),
   midi.NoteOnEvent(tick=3091400, channel=0, data=[7, 100]),
   midi.NoteOffEvent(tick=3091500, channel=0, data=[7, 0]),
   midi.NoteOnEvent(tick=3091600, channel=0, data=[4, 100]),
   midi.NoteOffEvent(tick=3091700, channel=0, data=[4, 0]),
   midi.NoteOnEvent(tick=3091800, channel=0, data=[36, 100]),
   midi.NoteOffEvent(tick=3091900, channel=0, data=[36, 0]),
   midi.NoteOnEvent(tick=3092000, channel=0, data=[18, 100]),
   midi.NoteOffEvent(tick=3092100, channel=0, data=[18, 0]),
   midi.NoteOnEvent(tick=3092200, channel=0, data=[19, 100]),
   midi.NoteOffEvent(tick=3092300, channel=0, data=[19, 0]),
   midi.NoteOnEvent(tick=3092400, channel=0, data=[0, 100]),
   midi.NoteOffEvent(tick=3092500, channel=0, data=[0, 0]),
   midi.NoteOnEvent(tick=3092600, channel=0, data=[19, 100]),
   midi.NoteOffEvent(tick=3092700, channel=0, data=[19, 0]),
   midi.NoteOnEvent(tick=3092800, channel=0, data=[4, 100]),
   midi.NoteOffEvent(tick=3092900, channel=0, data=[4, 0]),
   midi.NoteOnEvent(tick=3093000, channel=0, data=[12, 100]),
   midi.NoteOffEvent(tick=3093100, channel=0, data=[12, 0]),
   midi.NoteOnEvent(tick=3093200, channel=0, data=[4, 100]),
   midi.NoteOffEvent(tick=3093300, channel=0, data=[4, 0]),
   midi.NoteOnEvent(tick=3093400, channel=0, data=[13, 100]),
   midi.NoteOffEvent(tick=3093500, channel=0, data=[13, 0]),
   midi.NoteOnEvent(tick=3093600, channel=0, data=[19, 100]),
   midi.NoteOffEvent(tick=3093700, channel=0, data=[19, 0]),
   midi.NoteOnEvent(tick=3093800, channel=0, data=[37, 100]),
   midi.NoteOffEvent(tick=3093900, channel=0, data=[37, 0]),
   midi.NoteOnEvent(tick=3094000, channel=0, data=[36, 100]),
   midi.NoteOffEvent(tick=3094100, channel=0, data=[36, 0]),
   midi.NoteOnEvent(tick=3094200, channel=0, data=[8, 100]),
   midi.NoteOffEvent(tick=3094300, channel=0, data=[8, 0]),
   midi.NoteOnEvent(tick=3094400, channel=0, data=[13, 100]),
   midi.NoteOffEvent(tick=3094500, channel=0, data=[13, 0]),
   midi.NoteOnEvent(tick=3094600, channel=0, data=[36, 100]),
   midi.NoteOffEvent(tick=3094700, channel=0, data=[36, 0]),
   midi.NoteOnEvent(tick=3094800, channel=0, data=[19, 100]),
   midi.NoteOffEvent(tick=3094900, channel=0, data=[19, 0]),
   midi.NoteOnEvent(tick=3095000, channel=0, data=[7, 100]),
   midi.NoteOffEvent(tick=3095100, channel=0, data=[7, 0]),
   midi.NoteOnEvent(tick=3095200, channel=0, data=[4, 100]),
   midi.NoteOffEvent(tick=3095300, channel=0, data=[4, 0]),
   midi.NoteOnEvent(tick=3095400, channel=0, data=[36, 100]),
   midi.NoteOffEvent(tick=3095500, channel=0, data=[36, 0]),
   midi.NoteOnEvent(tick=3095600, channel=0, data=[5, 100]),
   midi.NoteOffEvent(tick=3095700, channel=0, data=[5, 0]),
   midi.NoteOnEvent(tick=3095800, channel=0, data=[14, 100]),
   midi.NoteOffEvent(tick=3095900, channel=0, data=[14, 0]),
   midi.NoteOnEvent(tick=3096000, channel=0, data=[11, 100]),
   midi.NoteOffEvent(tick=3096100, channel=0, data=[11, 0]),
   midi.NoteOnEvent(tick=3096200, channel=0, data=[11, 100]),
   midi.NoteOffEvent(tick=3096300, channel=0, data=[11, 0]),
   midi.NoteOnEvent(tick=3096400, channel=0, data=[14, 100]),
   midi.NoteOffEvent(tick=3096500, channel=0, data=[14, 0]),
   midi.NoteOnEvent(tick=3096600, channel=0, data=[22, 100]),
   midi.NoteOffEvent(tick=3096700, channel=0, data=[22, 0]),
   midi.NoteOnEvent(tick=3096800, channel=0, data=[8, 100]),
   midi.NoteOffEvent(tick=3096900, channel=0, data=[8, 0]),
   midi.NoteOnEvent(tick=3097000, channel=0, data=[13, 100]),
   midi.NoteOffEvent(tick=3097100, channel=0, data=[13, 0]),
   midi.NoteOnEvent(tick=3097200, channel=0, data=[6, 100]),
   midi.NoteOffEvent(tick=3097300, channel=0, data=[6, 0]),
   midi.NoteOnEvent(tick=3097400, channel=0, data=[36, 100]),
   midi.NoteOffEvent(tick=3097500, channel=0, data=[36, 0]),
   midi.NoteOnEvent(tick=3097600, channel=0, data=[4, 100]),
   midi.NoteOffEvent(tick=3097700, channel=0, data=[4, 0]),
   midi.NoteOnEvent(tick=3097800, channel=0, data=[23, 100]),
   midi.NoteOffEvent(tick=3097900, channel=0, data=[23, 0]),
   midi.NoteOnEvent(tick=3098000, channel=0, data=[0, 100]),
   midi.NoteOffEvent(tick=3098100, channel=0, data=[0, 0]),
   midi.NoteOnEvent(tick=3098200, channel=0, data=[12, 100]),
   midi.NoteOffEvent(tick=3098300, channel=0, data=[12, 0]),
   midi.NoteOnEvent(tick=3098400, channel=0, data=[15, 100]),
   midi.NoteOffEvent(tick=3098500, channel=0, data=[15, 0]),
   midi.NoteOnEvent(tick=3098600, channel=0, data=[11, 100]),
   midi.NoteOffEvent(tick=3098700, channel=0, data=[11, 0]),
   midi.NoteOnEvent(tick=3098800, channel=0, data=[4, 100]),
   midi.NoteOffEvent(tick=3098900, channel=0, data=[4, 0]),
   midi.NoteOnEvent(tick=3099000, channel=0, data=[38, 100]),
   midi.NoteOffEvent(tick=3099100, channel=0, data=[38, 0]),
   midi.NoteOnEvent(tick=3099200, channel=0, data=[36, 100]),
   midi.NoteOffEvent(tick=3099300, channel=0, data=[36, 0]),
   midi.NoteOnEvent(tick=3099400, channel=0, data=[19, 100]),
   midi.NoteOffEvent(tick=3099500, channel=0, data=[19, 0]),
   midi.NoteOnEvent(tick=3099600, channel=0, data=[7, 100]),
   midi.NoteOffEvent(tick=3099700, channel=0, data=[7, 0]),
   midi.NoteOnEvent(tick=3099800, channel=0, data=[4, 100]),
   midi.NoteOffEvent(tick=3099900, channel=0, data=[4, 0]),
   midi.NoteOnEvent(tick=3100000, channel=0, data=[36, 100]),
   midi.NoteOffEvent(tick=3100100, channel=0, data=[36, 0]),
   midi.NoteOnEvent(tick=3100200, channel=0, data=[74, 100]),
   midi.NoteOffEvent(tick=3100300, channel=0, data=[74, 0]),
   midi.NoteOnEvent(tick=3100400, channel=0, data=[3, 100]),
   midi.NoteOffEvent(tick=3100500, channel=0, data=[3, 0]),
   midi.NoteOnEvent(tick=3100600, channel=0, data=[36, 100]),
   midi.NoteOffEvent(tick=3100700, channel=0, data=[36, 0]),
   midi.NoteOnEvent(tick=3100800, channel=0, data=[0, 100]),
   midi.NoteOffEvent(tick=3100900, channel=0, data=[0, 0]),
   midi.NoteOnEvent(tick=3101000, channel=0, data=[13, 100]),
   midi.NoteOffEvent(tick=3101100, channel=0, data=[13, 0]),
   midi.NoteOnEvent(tick=3101200, channel=0, data=[3, 100]),
   midi.NoteOffEvent(tick=3101300, channel=0, data=[3, 0]),
   midi.NoteOnEvent(tick=3101400, channel=0, data=[36, 100]),
   midi.NoteOffEvent(tick=3101500, channel=0, data=[36, 0]),
   midi.NoteOnEvent(tick=3101600, channel=0, data=[74, 100]),
   midi.NoteOffEvent(tick=3101700, channel=0, data=[74, 0]),
   midi.NoteOnEvent(tick=3101800, channel=0, data=[0, 100]),
   midi.NoteOffEvent(tick=3101900, channel=0, data=[0, 0]),
   midi.NoteOnEvent(tick=3102000, channel=0, data=[36, 100]),
   midi.NoteOffEvent(tick=3102100, channel=0, data=[36, 0]),
   midi.NoteOnEvent(tick=3102200, channel=0, data=[21, 100]),
   midi.NoteOffEvent(tick=3102300, channel=0, data=[21, 0]),
   midi.NoteOnEvent(tick=3102400, channel=0, data=[0, 100]),
   midi.NoteOffEvent(tick=3102500, channel=0, data=[0, 0]),
   midi.NoteOnEvent(tick=3102600, channel=0, data=[17, 100]),
   midi.NoteOffEvent(tick=3102700, channel=0, data=[17, 0]),
   midi.NoteOnEvent(tick=3102800, channel=0, data=[8, 100]),
   midi.NoteOffEvent(tick=3102900, channel=0, data=[8, 0]),
   midi.NoteOnEvent(tick=3103000, channel=0, data=[0, 100]),
   midi.NoteOffEvent(tick=3103100, channel=0, data=[0, 0]),
   midi.NoteOnEvent(tick=3103200, channel=0, data=[1, 100]),
   midi.NoteOffEvent(tick=3103300, channel=0, data=[1, 0]),
   midi.NoteOnEvent(tick=3103400, channel=0, data=[11, 100]),
   midi.NoteOffEvent(tick=3103500, channel=0, data=[11, 0]),
   midi.NoteOnEvent(tick=3103600, channel=0, data=[4, 100]),
   midi.NoteOffEvent(tick=3103700, channel=0, data=[4, 0]),
   midi.NoteOnEvent(tick=3103800, channel=0, data=[18, 100]),
   midi.NoteOffEvent(tick=3103900, channel=0, data=[18, 0]),
   midi.NoteOnEvent(tick=3104000, channel=0, data=[56, 100]),
   midi.NoteOffEvent(tick=3104100, channel=0, data=[56, 0]),
   midi.NoteOnEvent(tick=3104200, channel=0, data=[36, 100]),
   midi.NoteOffEvent(tick=3104300, channel=0, data=[36, 0]),
   midi.NoteOnEvent(tick=3104400, channel=0, data=[36, 100]),
   midi.NoteOffEvent(tick=3104500, channel=0, data=[36, 0]),
   midi.NoteOnEvent(tick=3104600, channel=0, data=[36, 100]),
   midi.NoteOffEvent(tick=3104700, channel=0, data=[36, 0]),
   midi.NoteOnEvent(tick=3104800, channel=0, data=[36, 100]),
   midi.NoteOffEvent(tick=3104900, channel=0, data=[36, 0]),
   midi.NoteOnEvent(tick=3105000, channel=0, data=[7, 100]),
   midi.NoteOffEvent(tick=3105100, channel=0, data=[7, 0]),
   midi.NoteOnEvent(tick=3105200, channel=0, data=[0, 100]),
   midi.NoteOffEvent(tick=3105300, channel=0, data=[0, 0]),
   midi.NoteOnEvent(tick=3105400, channel=0, data=[21, 100]),
   midi.NoteOffEvent(tick=3105500, channel=0, data=[21, 0]),
   midi.NoteOnEvent(tick=3105600, channel=0, data=[4, 100]),
   midi.NoteOffEvent(tick=3105700, channel=0, data=[4, 0]),
   midi.NoteOnEvent(tick=3105800, channel=0, data=[36, 100]),
   midi.NoteOffEvent(tick=3105900, channel=0, data=[36, 0]),
   midi.NoteOnEvent(tick=3106000, channel=0, data=[3, 100]),
   midi.NoteOffEvent(tick=3106100, channel=0, data=[3, 0]),
   midi.NoteOnEvent(tick=3106200, channel=0, data=[8, 100]),
   midi.NoteOffEvent(tick=3106300, channel=0, data=[8, 0]),
   midi.NoteOnEvent(tick=3106400, channel=0, data=[5, 100]),
   midi.NoteOffEvent(tick=3106500, channel=0, data=[5, 0]),
   midi.NoteOnEvent(tick=3106600, channel=0, data=[5, 100]),
   midi.NoteOffEvent(tick=3106700, channel=0, data=[5, 0]),
   midi.NoteOnEvent(tick=3106800, channel=0, data=[4, 100]),
   midi.NoteOffEvent(tick=3106900, channel=0, data=[4, 0]),
   midi.NoteOnEvent(tick=3107000, channel=0, data=[17, 100]),
   midi.NoteOffEvent(tick=3107100, channel=0, data=[17, 0]),
   midi.NoteOnEvent(tick=3107200, channel=0, data=[4, 100]),
   midi.NoteOffEvent(tick=3107300, channel=0, data=[4, 0]),
   midi.NoteOnEvent(tick=3107400, channel=0, data=[13, 100]),
   midi.NoteOffEvent(tick=3107500, channel=0, data=[13, 0]),
   midi.NoteOnEvent(tick=3107600, channel=0, data=[19, 100]),
   midi.NoteOffEvent(tick=3107700, channel=0, data=[19, 0]),
   midi.NoteOnEvent(tick=3107800, channel=0, data=[36, 100]),
   midi.NoteOffEvent(tick=3107900, channel=0, data=[36, 0]),
   midi.NoteOnEvent(tick=3108000, channel=0, data=[21, 100]),
   midi.NoteOffEvent(tick=3108100, channel=0, data=[21, 0]),
   midi.NoteOnEvent(tick=3108200, channel=0, data=[0, 100]),
   midi.NoteOffEvent(tick=3108300, channel=0, data=[0, 0]),
   midi.NoteOnEvent(tick=3108400, channel=0, data=[11, 100]),
   midi.NoteOffEvent(tick=3108500, channel=0, data=[11, 0]),
   midi.NoteOnEvent(tick=3108600, channel=0, data=[20, 100]),
   midi.NoteOffEvent(tick=3108700, channel=0, data=[20, 0]),
   midi.NoteOnEvent(tick=3108800, channel=0, data=[4, 100]),
   midi.NoteOffEvent(tick=3108900, channel=0, data=[4, 0]),
   midi.NoteOnEvent(tick=3109000, channel=0, data=[18, 100]),
   midi.NoteOffEvent(tick=3109100, channel=0, data=[18, 0]),
   midi.NoteOnEvent(tick=3109200, channel=0, data=[36, 100]),
   midi.NoteOffEvent(tick=3109300, channel=0, data=[36, 0]),
   midi.NoteOnEvent(tick=3109400, channel=0, data=[1, 100]),
   midi.NoteOffEvent(tick=3109500, channel=0, data=[1, 0]),
   midi.NoteOnEvent(tick=3109600, channel=0, data=[4, 100]),
   midi.NoteOffEvent(tick=3109700, channel=0, data=[4, 0]),
   midi.NoteOnEvent(tick=3109800, channel=0, data=[2, 100]),
   midi.NoteOffEvent(tick=3109900, channel=0, data=[2, 0]),
   midi.NoteOnEvent(tick=3110000, channel=0, data=[0, 100]),
   midi.NoteOffEvent(tick=3110100, channel=0, data=[0, 0]),
   midi.NoteOnEvent(tick=3110200, channel=0, data=[20, 100]),
   midi.NoteOffEvent(tick=3110300, channel=0, data=[20, 0]),
   midi.NoteOnEvent(tick=3110400, channel=0, data=[18, 100]),
   midi.NoteOffEvent(tick=3110500, channel=0, data=[18, 0]),
   midi.NoteOnEvent(tick=3110600, channel=0, data=[4, 100]),
   midi.NoteOffEvent(tick=3110700, channel=0, data=[4, 0]),
   midi.NoteOnEvent(tick=3110800, channel=0, data=[36, 100]),
   midi.NoteOffEvent(tick=3110900, channel=0, data=[36, 0]),
   midi.NoteOnEvent(tick=3111000, channel=0, data=[19, 100]),
   midi.NoteOffEvent(tick=3111100, channel=0, data=[19, 0]),
   midi.NoteOnEvent(tick=3111200, channel=0, data=[7, 100]),
   midi.NoteOffEvent(tick=3111300, channel=0, data=[7, 0]),
   midi.NoteOnEvent(tick=3111400, channel=0, data=[4, 100]),
   midi.NoteOffEvent(tick=3111500, channel=0, data=[4, 0]),
   midi.NoteOnEvent(tick=3111600, channel=0, data=[36, 100]),
   midi.NoteOffEvent(tick=3111700, channel=0, data=[36, 0]),
   midi.NoteOnEvent(tick=3111800, channel=0, data=[21, 100]),
   midi.NoteOffEvent(tick=3111900, channel=0, data=[21, 0]),
   midi.NoteOnEvent(tick=3112000, channel=0, data=[0, 100]),
   midi.NoteOffEvent(tick=3112100, channel=0, data=[0, 0]),
   midi.NoteOnEvent(tick=3112200, channel=0, data=[11, 100]),
   midi.NoteOffEvent(tick=3112300, channel=0, data=[11, 0]),
   midi.NoteOnEvent(tick=3112400, channel=0, data=[20, 100]),
   midi.NoteOffEvent(tick=3112500, channel=0, data=[20, 0]),
   midi.NoteOnEvent(tick=3112600, channel=0, data=[4, 100]),
   midi.NoteOffEvent(tick=3112700, channel=0, data=[4, 0]),
   midi.NoteOnEvent(tick=3112800, channel=0, data=[36, 100]),
   midi.NoteOffEvent(tick=3112900, channel=0, data=[36, 0]),
   midi.NoteOnEvent(tick=3113000, channel=0, data=[8, 100]),
   midi.NoteOffEvent(tick=3113100, channel=0, data=[8, 0]),
   midi.NoteOnEvent(tick=3113200, channel=0, data=[18, 100]),
   midi.NoteOffEvent(tick=3113300, channel=0, data=[18, 0]),
   midi.NoteOnEvent(tick=3113400, channel=0, data=[36, 100]),
   midi.NoteOffEvent(tick=3113500, channel=0, data=[36, 0]),
   midi.NoteOnEvent(tick=3113600, channel=0, data=[0, 100]),
   midi.NoteOffEvent(tick=3113700, channel=0, data=[0, 0]),
   midi.NoteOnEvent(tick=3113800, channel=0, data=[18, 100]),
   midi.NoteOffEvent(tick=3113900, channel=0, data=[18, 0]),
   midi.NoteOnEvent(tick=3114000, channel=0, data=[18, 100]),
   midi.NoteOffEvent(tick=3114100, channel=0, data=[18, 0]),
   midi.NoteOnEvent(tick=3114200, channel=0, data=[8, 100]),
   midi.NoteOffEvent(tick=3114300, channel=0, data=[8, 0]),
   midi.NoteOnEvent(tick=3114400, channel=0, data=[6, 100]),
   midi.NoteOffEvent(tick=3114500, channel=0, data=[6, 0]),
   midi.NoteOnEvent(tick=3114600, channel=0, data=[13, 100]),
   midi.NoteOffEvent(tick=3114700, channel=0, data=[13, 0]),
   midi.NoteOnEvent(tick=3114800, channel=0, data=[4, 100]),
   midi.NoteOffEvent(tick=3114900, channel=0, data=[4, 0]),
   midi.NoteOnEvent(tick=3115000, channel=0, data=[3, 100]),
   midi.NoteOffEvent(tick=3115100, channel=0, data=[3, 0]),
   midi.NoteOnEvent(tick=3115200, channel=0, data=[36, 100]),
   midi.NoteOffEvent(tick=3115300, channel=0, data=[36, 0]),
   midi.NoteOnEvent(tick=3115400, channel=0, data=[19, 100]),
   midi.NoteOffEvent(tick=3115500, channel=0, data=[19, 0]),
   midi.NoteOnEvent(tick=3115600, channel=0, data=[14, 100]),
   midi.NoteOffEvent(tick=3115700, channel=0, data=[14, 0]),
   midi.NoteOnEvent(tick=3115800, channel=0, data=[36, 100]),
   midi.NoteOffEvent(tick=3115900, channel=0, data=[36, 0]),
   midi.NoteOnEvent(tick=3116000, channel=0, data=[74, 100]),
   midi.NoteOffEvent(tick=3116100, channel=0, data=[74, 0]),
   midi.NoteOnEvent(tick=3116200, channel=0, data=[3, 100]),
   midi.NoteOffEvent(tick=3116300, channel=0, data=[3, 0]),
   midi.NoteOnEvent(tick=3116400, channel=0, data=[36, 100]),
   midi.NoteOffEvent(tick=3116500, channel=0, data=[36, 0]),
   midi.NoteOnEvent(tick=3116600, channel=0, data=[1, 100]),
   midi.NoteOffEvent(tick=3116700, channel=0, data=[1, 0]),
   midi.NoteOnEvent(tick=3116800, channel=0, data=[4, 100]),
   midi.NoteOffEvent(tick=3116900, channel=0, data=[4, 0]),
   midi.NoteOnEvent(tick=3117000, channel=0, data=[5, 100]),
   midi.NoteOffEvent(tick=3117100, channel=0, data=[5, 0]),
   midi.NoteOnEvent(tick=3117200, channel=0, data=[14, 100]),
   midi.NoteOffEvent(tick=3117300, channel=0, data=[14, 0]),
   midi.NoteOnEvent(tick=3117400, channel=0, data=[17, 100]),
   midi.NoteOffEvent(tick=3117500, channel=0, data=[17, 0]),
   midi.NoteOnEvent(tick=3117600, channel=0, data=[4, 100]),
   midi.NoteOffEvent(tick=3117700, channel=0, data=[4, 0]),
   midi.NoteOnEvent(tick=3117800, channel=0, data=[36, 100]),
   midi.NoteOffEvent(tick=3117900, channel=0, data=[36, 0]),
   midi.NoteOnEvent(tick=3118000, channel=0, data=[74, 100]),
   midi.NoteOffEvent(tick=3118100, channel=0, data=[74, 0]),
   midi.NoteOnEvent(tick=3118200, channel=0, data=[0, 100]),
   midi.NoteOffEvent(tick=3118300, channel=0, data=[0, 0]),
   midi.NoteOnEvent(tick=3118400, channel=0, data=[36, 100]),
   midi.NoteOffEvent(tick=3118500, channel=0, data=[36, 0]),
   midi.NoteOnEvent(tick=3118600, channel=0, data=[56, 100]),
   midi.NoteOffEvent(tick=3118700, channel=0, data=[56, 0]),
   midi.NoteOnEvent(tick=3118800, channel=0, data=[36, 100]),
   midi.NoteOffEvent(tick=3118900, channel=0, data=[36, 0]),
   midi.NoteOnEvent(tick=3119000, channel=0, data=[36, 100]),
   midi.NoteOffEvent(tick=3119100, channel=0, data=[36, 0]),
   midi.NoteOnEvent(tick=3119200, channel=0, data=[36, 100]),
   midi.NoteOffEvent(tick=3119300, channel=0, data=[36, 0]),
   midi.NoteOnEvent(tick=3119400, channel=0, data=[36, 100]),
   midi.NoteOffEvent(tick=3119500, channel=0, data=[36, 0]),
   midi.NoteOnEvent(tick=3119600, channel=0, data=[2, 100]),
   midi.NoteOffEvent(tick=3119700, channel=0, data=[2, 0]),
   midi.NoteOnEvent(tick=3119800, channel=0, data=[7, 100]),
   midi.NoteOffEvent(tick=3119900, channel=0, data=[7, 0]),
   midi.NoteOnEvent(tick=3120000, channel=0, data=[0, 100]),
   midi.NoteOffEvent(tick=3120100, channel=0, data=[0, 0]),
   midi.NoteOnEvent(tick=3120200, channel=0, data=[13, 100]),
   midi.NoteOffEvent(tick=3120300, channel=0, data=[13, 0]),
   midi.NoteOnEvent(tick=3120400, channel=0, data=[6, 100]),
   midi.NoteOffEvent(tick=3120500, channel=0, data=[6, 0]),
   midi.NoteOnEvent(tick=3120600, channel=0, data=[4, 100]),
   midi.NoteOffEvent(tick=3120700, channel=0, data=[4, 0]),
   midi.NoteOnEvent(tick=3120800, channel=0, data=[18, 100]),
   midi.NoteOffEvent(tick=3120900, channel=0, data=[18, 0]),
   midi.NoteOnEvent(tick=3121000, channel=0, data=[46, 100]),
   midi.NoteOffEvent(tick=3121100, channel=0, data=[46, 0]),
   midi.NoteOnEvent(tick=3121200, channel=0, data=[56, 100]),
   midi.NoteOffEvent(tick=3121300, channel=0, data=[56, 0]),
   midi.NoteOnEvent(tick=3121400, channel=0, data=[56, 100]),
   midi.NoteOffEvent(tick=3121500, channel=0, data=[56, 0]),
   midi.NoteOnEvent(tick=3121600, channel=0, data=[56, 100]),
   midi.NoteOffEvent(tick=3121700, channel=0, data=[56, 0]),
   midi.NoteOnEvent(tick=3121800, channel=0, data=[36, 100]),
   midi.NoteOffEvent(tick=3121900, channel=0, data=[36, 0]),
   midi.NoteOnEvent(tick=3122000, channel=0, data=[36, 100]),
   midi.NoteOffEvent(tick=3122100, channel=0, data=[36, 0]),
   midi.NoteOnEvent(tick=3122200, channel=0, data=[36, 100]),
   midi.NoteOffEvent(tick=3122300, channel=0, data=[36, 0]),
   midi.NoteOnEvent(tick=3122400, channel=0, data=[36, 100]),
   midi.NoteOffEvent(tick=3122500, channel=0, data=[36, 0]),
   midi.NoteOnEvent(tick=3122600, channel=0, data=[36, 100]),
   midi.NoteOffEvent(tick=3122700, channel=0, data=[36, 0]),
   midi.NoteOnEvent(tick=3122800, channel=0, data=[36, 100]),
   midi.NoteOffEvent(tick=3122900, channel=0, data=[36, 0]),
   midi.NoteOnEvent(tick=3123000, channel=0, data=[36, 100]),
   midi.NoteOffEvent(tick=3123100, channel=0, data=[36, 0]),
   midi.NoteOnEvent(tick=3123200, channel=0, data=[36, 100]),
   midi.NoteOffEvent(tick=3123300, channel=0, data=[36, 0]),
   midi.NoteOnEvent(tick=3123400, channel=0, data=[2, 100]),
   midi.NoteOffEvent(tick=3123500, channel=0, data=[2, 0]),
   midi.NoteOnEvent(tick=3123600, channel=0, data=[46, 100]),
   midi.NoteOffEvent(tick=3123700, channel=0, data=[46, 0]),
   midi.NoteOnEvent(tick=3123800, channel=0, data=[78, 100]),
   midi.NoteOffEvent(tick=3123900, channel=0, data=[78, 0]),
   midi.NoteOnEvent(tick=3124000, channel=0, data=[15, 100]),
   midi.NoteOffEvent(tick=3124100, channel=0, data=[15, 0]),
   midi.NoteOnEvent(tick=3124200, channel=0, data=[18, 100]),
   midi.NoteOffEvent(tick=3124300, channel=0, data=[18, 0]),
   midi.NoteOnEvent(tick=3124400, channel=0, data=[73, 100]),
   midi.NoteOffEvent(tick=3124500, channel=0, data=[73, 0]),
   midi.NoteOnEvent(tick=3124600, channel=0, data=[36, 100]),
   midi.NoteOffEvent(tick=3124700, channel=0, data=[36, 0]),
   midi.NoteOnEvent(tick=3124800, channel=0, data=[74, 100]),
   midi.NoteOffEvent(tick=3124900, channel=0, data=[74, 0]),
   midi.NoteOnEvent(tick=3125000, channel=0, data=[0, 100]),
   midi.NoteOffEvent(tick=3125100, channel=0, data=[0, 0]),
   midi.NoteOnEvent(tick=3125200, channel=0, data=[36, 100]),
   midi.NoteOffEvent(tick=3125300, channel=0, data=[36, 0]),
   midi.NoteOnEvent(tick=3125400, channel=0, data=[69, 100]),
   midi.NoteOffEvent(tick=3125500, channel=0, data=[69, 0]),
   midi.NoteOnEvent(tick=3125600, channel=0, data=[36, 100]),
   midi.NoteOffEvent(tick=3125700, channel=0, data=[36, 0]),
   midi.NoteOnEvent(tick=3125800, channel=0, data=[33, 100]),
   midi.NoteOffEvent(tick=3125900, channel=0, data=[33, 0]),
   midi.NoteOnEvent(tick=3126000, channel=0, data=[56, 100]),
   midi.NoteOffEvent(tick=3126100, channel=0, data=[56, 0]),
   midi.NoteOnEvent(tick=3126200, channel=0, data=[36, 100]),
   midi.NoteOffEvent(tick=3126300, channel=0, data=[36, 0]),
   midi.NoteOnEvent(tick=3126400, channel=0, data=[36, 100]),
   midi.NoteOffEvent(tick=3126500, channel=0, data=[36, 0]),
   midi.NoteOnEvent(tick=3126600, channel=0, data=[36, 100]),
   midi.NoteOffEvent(tick=3126700, channel=0, data=[36, 0]),
   midi.NoteOnEvent(tick=3126800, channel=0, data=[36, 100]),
   midi.NoteOffEvent(tick=3126900, channel=0, data=[36, 0]),
   midi.NoteOnEvent(tick=3127000, channel=0, data=[36, 100]),
   midi.NoteOffEvent(tick=3127100, channel=0, data=[36, 0]),
   midi.NoteOnEvent(tick=3127200, channel=0, data=[36, 100]),
   midi.NoteOffEvent(tick=3127300, channel=0, data=[36, 0]),
   midi.NoteOnEvent(tick=3127400, channel=0, data=[36, 100]),
   midi.NoteOffEvent(tick=3127500, channel=0, data=[36, 0]),
   midi.NoteOnEvent(tick=3127600, channel=0, data=[36, 100]),
   midi.NoteOffEvent(tick=3127700, channel=0, data=[36, 0]),
   midi.NoteOnEvent(tick=3127800, channel=0, data=[2, 100]),
   midi.NoteOffEvent(tick=3127900, channel=0, data=[2, 0]),
   midi.NoteOnEvent(tick=3128000, channel=0, data=[46, 100]),
   midi.NoteOffEvent(tick=3128100, channel=0, data=[46, 0]),
   midi.NoteOnEvent(tick=3128200, channel=0, data=[78, 100]),
   midi.NoteOffEvent(tick=3128300, channel=0, data=[78, 0]),
   midi.NoteOnEvent(tick=3128400, channel=0, data=[15, 100]),
   midi.NoteOffEvent(tick=3128500, channel=0, data=[15, 0]),
   midi.NoteOnEvent(tick=3128600, channel=0, data=[18, 100]),
   midi.NoteOffEvent(tick=3128700, channel=0, data=[18, 0]),
   midi.NoteOnEvent(tick=3128800, channel=0, data=[73, 100]),
   midi.NoteOffEvent(tick=3128900, channel=0, data=[73, 0]),
   midi.NoteOnEvent(tick=3129000, channel=0, data=[36, 100]),
   midi.NoteOffEvent(tick=3129100, channel=0, data=[36, 0]),
   midi.NoteOnEvent(tick=3129200, channel=0, data=[74, 100]),
   midi.NoteOffEvent(tick=3129300, channel=0, data=[74, 0]),
   midi.NoteOnEvent(tick=3129400, channel=0, data=[3, 100]),
   midi.NoteOffEvent(tick=3129500, channel=0, data=[3, 0]),
   midi.NoteOnEvent(tick=3129600, channel=0, data=[36, 100]),
   midi.NoteOffEvent(tick=3129700, channel=0, data=[36, 0]),
   midi.NoteOnEvent(tick=3129800, channel=0, data=[69, 100]),
   midi.NoteOffEvent(tick=3129900, channel=0, data=[69, 0]),
   midi.NoteOnEvent(tick=3130000, channel=0, data=[36, 100]),
   midi.NoteOffEvent(tick=3130100, channel=0, data=[36, 0]),
   midi.NoteOnEvent(tick=3130200, channel=0, data=[74, 100]),
   midi.NoteOffEvent(tick=3130300, channel=0, data=[74, 0]),
   midi.NoteOnEvent(tick=3130400, channel=0, data=[0, 100]),
   midi.NoteOffEvent(tick=3130500, channel=0, data=[0, 0]),
   midi.NoteOnEvent(tick=3130600, channel=0, data=[45, 100]),
   midi.NoteOffEvent(tick=3130700, channel=0, data=[45, 0]),
   midi.NoteOnEvent(tick=3130800, channel=0, data=[45, 100]),
   midi.NoteOffEvent(tick=3130900, channel=0, data=[45, 0]),
   midi.NoteOnEvent(tick=3131000, channel=0, data=[56, 100]),
   midi.NoteOffEvent(tick=3131100, channel=0, data=[56, 0]),
   midi.NoteOnEvent(tick=3131200, channel=0, data=[36, 100]),
   midi.NoteOffEvent(tick=3131300, channel=0, data=[36, 0]),
   midi.NoteOnEvent(tick=3131400, channel=0, data=[36, 100]),
   midi.NoteOffEvent(tick=3131500, channel=0, data=[36, 0]),
   midi.NoteOnEvent(tick=3131600, channel=0, data=[36, 100]),
   midi.NoteOffEvent(tick=3131700, channel=0, data=[36, 0]),
   midi.NoteOnEvent(tick=3131800, channel=0, data=[36, 100]),
   midi.NoteOffEvent(tick=3131900, channel=0, data=[36, 0]),
   midi.NoteOnEvent(tick=3132000, channel=0, data=[36, 100]),
   midi.NoteOffEvent(tick=3132100, channel=0, data=[36, 0]),
   midi.NoteOnEvent(tick=3132200, channel=0, data=[36, 100]),
   midi.NoteOffEvent(tick=3132300, channel=0, data=[36, 0]),
   midi.NoteOnEvent(tick=3132400, channel=0, data=[36, 100]),
   midi.NoteOffEvent(tick=3132500, channel=0, data=[36, 0]),
   midi.NoteOnEvent(tick=3132600, channel=0, data=[36, 100]),
   midi.NoteOffEvent(tick=3132700, channel=0, data=[36, 0]),
   midi.NoteOnEvent(tick=3132800, channel=0, data=[2, 100]),
   midi.NoteOffEvent(tick=3132900, channel=0, data=[2, 0]),
   midi.NoteOnEvent(tick=3133000, channel=0, data=[46, 100]),
   midi.NoteOffEvent(tick=3133100, channel=0, data=[46, 0]),
   midi.NoteOnEvent(tick=3133200, channel=0, data=[78, 100]),
   midi.NoteOffEvent(tick=3133300, channel=0, data=[78, 0]),
   midi.NoteOnEvent(tick=3133400, channel=0, data=[15, 100]),
   midi.NoteOffEvent(tick=3133500, channel=0, data=[15, 0]),
   midi.NoteOnEvent(tick=3133600, channel=0, data=[18, 100]),
   midi.NoteOffEvent(tick=3133700, channel=0, data=[18, 0]),
   midi.NoteOnEvent(tick=3133800, channel=0, data=[73, 100]),
   midi.NoteOffEvent(tick=3133900, channel=0, data=[73, 0]),
   midi.NoteOnEvent(tick=3134000, channel=0, data=[36, 100]),
   midi.NoteOffEvent(tick=3134100, channel=0, data=[36, 0]),
   midi.NoteOnEvent(tick=3134200, channel=0, data=[74, 100]),
   midi.NoteOffEvent(tick=3134300, channel=0, data=[74, 0]),
   midi.NoteOnEvent(tick=3134400, channel=0, data=[0, 100]),
   midi.NoteOffEvent(tick=3134500, channel=0, data=[0, 0]),
   midi.NoteOnEvent(tick=3134600, channel=0, data=[56, 100]),
   midi.NoteOffEvent(tick=3134700, channel=0, data=[56, 0]),
   midi.NoteOnEvent(tick=3134800, channel=0, data=[36, 100]),
   midi.NoteOffEvent(tick=3134900, channel=0, data=[36, 0]),
   midi.NoteOnEvent(tick=3135000, channel=0, data=[36, 100]),
   midi.NoteOffEvent(tick=3135100, channel=0, data=[36, 0]),
   midi.NoteOnEvent(tick=3135200, channel=0, data=[36, 100]),
   midi.NoteOffEvent(tick=3135300, channel=0, data=[36, 0]),
   midi.NoteOnEvent(tick=3135400, channel=0, data=[36, 100]),
   midi.NoteOffEvent(tick=3135500, channel=0, data=[36, 0]),
   midi.NoteOnEvent(tick=3135600, channel=0, data=[36, 100]),
   midi.NoteOffEvent(tick=3135700, channel=0, data=[36, 0]),
   midi.NoteOnEvent(tick=3135800, channel=0, data=[36, 100]),
   midi.NoteOffEvent(tick=3135900, channel=0, data=[36, 0]),
   midi.NoteOnEvent(tick=3136000, channel=0, data=[36, 100]),
   midi.NoteOffEvent(tick=3136100, channel=0, data=[36, 0]),
   midi.NoteOnEvent(tick=3136200, channel=0, data=[36, 100]),
   midi.NoteOffEvent(tick=3136300, channel=0, data=[36, 0]),
   midi.NoteOnEvent(tick=3136400, channel=0, data=[32, 100]),
   midi.NoteOffEvent(tick=3136500, channel=0, data=[32, 0]),
   midi.NoteOnEvent(tick=3136600, channel=0, data=[56, 100]),
   midi.NoteOffEvent(tick=3136700, channel=0, data=[56, 0]),
   midi.NoteOnEvent(tick=3136800, channel=0, data=[36, 100]),
   midi.NoteOffEvent(tick=3136900, channel=0, data=[36, 0]),
   midi.NoteOnEvent(tick=3137000, channel=0, data=[36, 100]),
   midi.NoteOffEvent(tick=3137100, channel=0, data=[36, 0]),
   midi.NoteOnEvent(tick=3137200, channel=0, data=[36, 100]),
   midi.NoteOffEvent(tick=3137300, channel=0, data=[36, 0]),
   midi.NoteOnEvent(tick=3137400, channel=0, data=[36, 100]),
   midi.NoteOffEvent(tick=3137500, channel=0, data=[36, 0]),
   midi.NoteOnEvent(tick=3137600, channel=0, data=[36, 100]),
   midi.NoteOffEvent(tick=3137700, channel=0, data=[36, 0]),
   midi.NoteOnEvent(tick=3137800, channel=0, data=[36, 100]),
   midi.NoteOffEvent(tick=3137900, channel=0, data=[36, 0]),
   midi.NoteOnEvent(tick=3138000, channel=0, data=[36, 100]),
   midi.NoteOffEvent(tick=3138100, channel=0, data=[36, 0]),
   midi.NoteOnEvent(tick=3138200, channel=0, data=[36, 100]),
   midi.NoteOffEvent(tick=3138300, channel=0, data=[36, 0]),
   midi.NoteOnEvent(tick=3138400, channel=0, data=[2, 100]),
   midi.NoteOffEvent(tick=3138500, channel=0, data=[2, 0]),
   midi.NoteOnEvent(tick=3138600, channel=0, data=[46, 100]),
   midi.NoteOffEvent(tick=3138700, channel=0, data=[46, 0]),
   midi.NoteOnEvent(tick=3138800, channel=0, data=[78, 100]),
   midi.NoteOffEvent(tick=3138900, channel=0, data=[78, 0]),
   midi.NoteOnEvent(tick=3139000, channel=0, data=[15, 100]),
   midi.NoteOffEvent(tick=3139100, channel=0, data=[15, 0]),
   midi.NoteOnEvent(tick=3139200, channel=0, data=[18, 100]),
   midi.NoteOffEvent(tick=3139300, channel=0, data=[18, 0]),
   midi.NoteOnEvent(tick=3139400, channel=0, data=[73, 100]),
   midi.NoteOffEvent(tick=3139500, channel=0, data=[73, 0]),
   midi.NoteOnEvent(tick=3139600, channel=0, data=[36, 100]),
   midi.NoteOffEvent(tick=3139700, channel=0, data=[36, 0]),
   midi.NoteOnEvent(tick=3139800, channel=0, data=[74, 100]),
   midi.NoteOffEvent(tick=3139900, channel=0, data=[74, 0]),
   midi.NoteOnEvent(tick=3140000, channel=0, data=[3, 100]),
   midi.NoteOffEvent(tick=3140100, channel=0, data=[3, 0]),
   midi.NoteOnEvent(tick=3140200, channel=0, data=[56, 100]),
   midi.NoteOffEvent(tick=3140300, channel=0, data=[56, 0]),
   midi.NoteOnEvent(tick=3140400, channel=0, data=[36, 100]),
   midi.NoteOffEvent(tick=3140500, channel=0, data=[36, 0]),
   midi.NoteOnEvent(tick=3140600, channel=0, data=[36, 100]),
   midi.NoteOffEvent(tick=3140700, channel=0, data=[36, 0]),
   midi.NoteOnEvent(tick=3140800, channel=0, data=[36, 100]),
   midi.NoteOffEvent(tick=3140900, channel=0, data=[36, 0]),
   midi.NoteOnEvent(tick=3141000, channel=0, data=[36, 100]),
   midi.NoteOffEvent(tick=3141100, channel=0, data=[36, 0]),
   midi.NoteOnEvent(tick=3141200, channel=0, data=[36, 100]),
   midi.NoteOffEvent(tick=3141300, channel=0, data=[36, 0]),
   midi.NoteOnEvent(tick=3141400, channel=0, data=[36, 100]),
   midi.NoteOffEvent(tick=3141500, channel=0, data=[36, 0]),
   midi.NoteOnEvent(tick=3141600, channel=0, data=[36, 100]),
   midi.NoteOffEvent(tick=3141700, channel=0, data=[36, 0]),
   midi.NoteOnEvent(tick=3141800, channel=0, data=[36, 100]),
   midi.NoteOffEvent(tick=3141900, channel=0, data=[36, 0]),
   midi.NoteOnEvent(tick=3142000, channel=0, data=[33, 100]),
   midi.NoteOffEvent(tick=3142100, channel=0, data=[33, 0]),
   midi.NoteOnEvent(tick=3142200, channel=0, data=[56, 100]),
   midi.NoteOffEvent(tick=3142300, channel=0, data=[56, 0]),
   midi.NoteOnEvent(tick=3142400, channel=0, data=[56, 100]),
   midi.NoteOffEvent(tick=3142500, channel=0, data=[56, 0]),
   midi.NoteOnEvent(tick=3142600, channel=0, data=[56, 100]),
   midi.NoteOffEvent(tick=3142700, channel=0, data=[56, 0]),
   midi.NoteOnEvent(tick=3142800, channel=0, data=[36, 100]),
   midi.NoteOffEvent(tick=3142900, channel=0, data=[36, 0]),
   midi.NoteOnEvent(tick=3143000, channel=0, data=[36, 100]),
   midi.NoteOffEvent(tick=3143100, channel=0, data=[36, 0]),
   midi.NoteOnEvent(tick=3143200, channel=0, data=[12, 100]),
   midi.NoteOffEvent(tick=3143300, channel=0, data=[12, 0]),
   midi.NoteOnEvent(tick=3143400, channel=0, data=[8, 100]),
   midi.NoteOffEvent(tick=3143500, channel=0, data=[8, 0]),
   midi.NoteOnEvent(tick=3143600, channel=0, data=[2, 100]),
   midi.NoteOffEvent(tick=3143700, channel=0, data=[2, 0]),
   midi.NoteOnEvent(tick=3143800, channel=0, data=[17, 100]),
   midi.NoteOffEvent(tick=3143900, channel=0, data=[17, 0]),
   midi.NoteOnEvent(tick=3144000, channel=0, data=[14, 100]),
   midi.NoteOffEvent(tick=3144100, channel=0, data=[14, 0]),
   midi.NoteOnEvent(tick=3144200, channel=0, data=[18, 100]),
   midi.NoteOffEvent(tick=3144300, channel=0, data=[18, 0]),
   midi.NoteOnEvent(tick=3144400, channel=0, data=[14, 100]),
   midi.NoteOffEvent(tick=3144500, channel=0, data=[14, 0]),
   midi.NoteOnEvent(tick=3144600, channel=0, data=[5, 100]),
   midi.NoteOffEvent(tick=3144700, channel=0, data=[5, 0]),
   midi.NoteOnEvent(tick=3144800, channel=0, data=[19, 100]),
   midi.NoteOffEvent(tick=3144900, channel=0, data=[19, 0]),
   midi.NoteOnEvent(tick=3145000, channel=0, data=[36, 100]),
   midi.NoteOffEvent(tick=3145100, channel=0, data=[36, 0]),
   midi.NoteOnEvent(tick=3145200, channel=0, data=[37, 100]),
   midi.NoteOffEvent(tick=3145300, channel=0, data=[37, 0]),
   midi.NoteOnEvent(tick=3145400, channel=0, data=[13, 100]),
   midi.NoteOffEvent(tick=3145500, channel=0, data=[13, 0]),
   midi.NoteOnEvent(tick=3145600, channel=0, data=[4, 100]),
   midi.NoteOffEvent(tick=3145700, channel=0, data=[4, 0]),
   midi.NoteOnEvent(tick=3145800, channel=0, data=[19, 100]),
   midi.NoteOffEvent(tick=3145900, channel=0, data=[19, 0]),
   midi.NoteOnEvent(tick=3146000, channel=0, data=[36, 100]),
   midi.NoteOffEvent(tick=3146100, channel=0, data=[36, 0]),
   midi.NoteOnEvent(tick=3146200, channel=0, data=[5, 100]),
   midi.NoteOffEvent(tick=3146300, channel=0, data=[5, 0]),
   midi.NoteOnEvent(tick=3146400, channel=0, data=[17, 100]),
   midi.NoteOffEvent(tick=3146500, channel=0, data=[17, 0]),
   midi.NoteOnEvent(tick=3146600, channel=0, data=[0, 100]),
   midi.NoteOffEvent(tick=3146700, channel=0, data=[0, 0]),
   midi.NoteOnEvent(tick=3146800, channel=0, data=[12, 100]),
   midi.NoteOffEvent(tick=3146900, channel=0, data=[12, 0]),
   midi.NoteOnEvent(tick=3147000, channel=0, data=[4, 100]),
   midi.NoteOffEvent(tick=3147100, channel=0, data=[4, 0]),
   midi.NoteOnEvent(tick=3147200, channel=0, data=[22, 100]),
   midi.NoteOffEvent(tick=3147300, channel=0, data=[22, 0]),
   midi.NoteOnEvent(tick=3147400, channel=0, data=[14, 100]),
   midi.NoteOffEvent(tick=3147500, channel=0, data=[14, 0]),
   midi.NoteOnEvent(tick=3147600, channel=0, data=[17, 100]),
   midi.NoteOffEvent(tick=3147700, channel=0, data=[17, 0]),
   midi.NoteOnEvent(tick=3147800, channel=0, data=[10, 100]),
   midi.NoteOffEvent(tick=3147900, channel=0, data=[10, 0]),
   midi.NoteOnEvent(tick=3148000, channel=0, data=[36, 100]),
   midi.NoteOffEvent(tick=3148100, channel=0, data=[36, 0]),
   midi.NoteOnEvent(tick=3148200, channel=0, data=[19, 100]),
   midi.NoteOffEvent(tick=3148300, channel=0, data=[19, 0]),
   midi.NoteOnEvent(tick=3148400, channel=0, data=[24, 100]),
   midi.NoteOffEvent(tick=3148500, channel=0, data=[24, 0]),
   midi.NoteOnEvent(tick=3148600, channel=0, data=[15, 100]),
   midi.NoteOffEvent(tick=3148700, channel=0, data=[15, 0]),
   midi.NoteOnEvent(tick=3148800, channel=0, data=[4, 100]),
   midi.NoteOffEvent(tick=3148900, channel=0, data=[4, 0]),
   midi.NoteOnEvent(tick=3149000, channel=0, data=[18, 100]),
   midi.NoteOffEvent(tick=3149100, channel=0, data=[18, 0]),
   midi.NoteOnEvent(tick=3149200, channel=0, data=[56, 100]),
   midi.NoteOffEvent(tick=3149300, channel=0, data=[56, 0]),
   midi.NoteOnEvent(tick=3149400, channel=0, data=[36, 100]),
   midi.NoteOffEvent(tick=3149500, channel=0, data=[36, 0]),
   midi.NoteOnEvent(tick=3149600, channel=0, data=[36, 100]),
   midi.NoteOffEvent(tick=3149700, channel=0, data=[36, 0]),
   midi.NoteOnEvent(tick=3149800, channel=0, data=[36, 100]),
   midi.NoteOffEvent(tick=3149900, channel=0, data=[36, 0]),
   midi.NoteOnEvent(tick=3150000, channel=0, data=[36, 100]),
   midi.NoteOffEvent(tick=3150100, channel=0, data=[36, 0]),
   midi.NoteOnEvent(tick=3150200, channel=0, data=[1, 100]),
   midi.NoteOffEvent(tick=3150300, channel=0, data=[1, 0]),
   midi.NoteOnEvent(tick=3150400, channel=0, data=[24, 100]),
   midi.NoteOffEvent(tick=3150500, channel=0, data=[24, 0]),
   midi.NoteOnEvent(tick=3150600, channel=0, data=[36, 100]),
   midi.NoteOffEvent(tick=3150700, channel=0, data=[36, 0]),
   midi.NoteOnEvent(tick=3150800, channel=0, data=[3, 100]),
   midi.NoteOffEvent(tick=3150900, channel=0, data=[3, 0]),
   midi.NoteOnEvent(tick=3151000, channel=0, data=[4, 100]),
   midi.NoteOffEvent(tick=3151100, channel=0, data=[4, 0]),
   midi.NoteOnEvent(tick=3151200, channel=0, data=[5, 100]),
   midi.NoteOffEvent(tick=3151300, channel=0, data=[5, 0]),
   midi.NoteOnEvent(tick=3151400, channel=0, data=[0, 100]),
   midi.NoteOffEvent(tick=3151500, channel=0, data=[0, 0]),
   midi.NoteOnEvent(tick=3151600, channel=0, data=[20, 100]),
   midi.NoteOffEvent(tick=3151700, channel=0, data=[20, 0]),
   midi.NoteOnEvent(tick=3151800, channel=0, data=[11, 100]),
   midi.NoteOffEvent(tick=3151900, channel=0, data=[11, 0]),
   midi.NoteOnEvent(tick=3152000, channel=0, data=[19, 100]),
   midi.NoteOffEvent(tick=3152100, channel=0, data=[19, 0]),
   midi.NoteOnEvent(tick=3152200, channel=0, data=[38, 100]),
   midi.NoteOffEvent(tick=3152300, channel=0, data=[38, 0]),
   midi.NoteOnEvent(tick=3152400, channel=0, data=[36, 100]),
   midi.NoteOffEvent(tick=3152500, channel=0, data=[36, 0]),
   midi.NoteOnEvent(tick=3152600, channel=0, data=[22, 100]),
   midi.NoteOffEvent(tick=3152700, channel=0, data=[22, 0]),
   midi.NoteOnEvent(tick=3152800, channel=0, data=[7, 100]),
   midi.NoteOffEvent(tick=3152900, channel=0, data=[7, 0]),
   midi.NoteOnEvent(tick=3153000, channel=0, data=[4, 100]),
   midi.NoteOffEvent(tick=3153100, channel=0, data=[4, 0]),
   midi.NoteOnEvent(tick=3153200, channel=0, data=[13, 100]),
   midi.NoteOffEvent(tick=3153300, channel=0, data=[13, 0]),
   midi.NoteOnEvent(tick=3153400, channel=0, data=[36, 100]),
   midi.NoteOffEvent(tick=3153500, channel=0, data=[36, 0]),
   midi.NoteOnEvent(tick=3153600, channel=0, data=[0, 100]),
   midi.NoteOffEvent(tick=3153700, channel=0, data=[0, 0]),
   midi.NoteOnEvent(tick=3153800, channel=0, data=[36, 100]),
   midi.NoteOffEvent(tick=3153900, channel=0, data=[36, 0]),
   midi.NoteOnEvent(tick=3154000, channel=0, data=[21, 100]),
   midi.NoteOffEvent(tick=3154100, channel=0, data=[21, 0]),
   midi.NoteOnEvent(tick=3154200, channel=0, data=[0, 100]),
   midi.NoteOffEvent(tick=3154300, channel=0, data=[0, 0]),
   midi.NoteOnEvent(tick=3154400, channel=0, data=[17, 100]),
   midi.NoteOffEvent(tick=3154500, channel=0, data=[17, 0]),
   midi.NoteOnEvent(tick=3154600, channel=0, data=[8, 100]),
   midi.NoteOffEvent(tick=3154700, channel=0, data=[8, 0]),
   midi.NoteOnEvent(tick=3154800, channel=0, data=[0, 100]),
   midi.NoteOffEvent(tick=3154900, channel=0, data=[0, 0]),
   midi.NoteOnEvent(tick=3155000, channel=0, data=[1, 100]),
   midi.NoteOffEvent(tick=3155100, channel=0, data=[1, 0]),
   midi.NoteOnEvent(tick=3155200, channel=0, data=[11, 100]),
   midi.NoteOffEvent(tick=3155300, channel=0, data=[11, 0]),
   midi.NoteOnEvent(tick=3155400, channel=0, data=[4, 100]),
   midi.NoteOffEvent(tick=3155500, channel=0, data=[4, 0]),
   midi.NoteOnEvent(tick=3155600, channel=0, data=[36, 100]),
   midi.NoteOffEvent(tick=3155700, channel=0, data=[36, 0]),
   midi.NoteOnEvent(tick=3155800, channel=0, data=[7, 100]),
   midi.NoteOffEvent(tick=3155900, channel=0, data=[7, 0]),
   midi.NoteOnEvent(tick=3156000, channel=0, data=[0, 100]),
   midi.NoteOffEvent(tick=3156100, channel=0, data=[0, 0]),
   midi.NoteOnEvent(tick=3156200, channel=0, data=[18, 100]),
   midi.NoteOffEvent(tick=3156300, channel=0, data=[18, 0]),
   midi.NoteOnEvent(tick=3156400, channel=0, data=[36, 100]),
   midi.NoteOffEvent(tick=3156500, channel=0, data=[36, 0]),
   midi.NoteOnEvent(tick=3156600, channel=0, data=[14, 100]),
   midi.NoteOffEvent(tick=3156700, channel=0, data=[14, 0]),
   midi.NoteOnEvent(tick=3156800, channel=0, data=[13, 100]),
   midi.NoteOffEvent(tick=3156900, channel=0, data=[13, 0]),
   midi.NoteOnEvent(tick=3157000, channel=0, data=[11, 100]),
   midi.NoteOffEvent(tick=3157100, channel=0, data=[11, 0]),
   midi.NoteOnEvent(tick=3157200, channel=0, data=[24, 100]),
   midi.NoteOffEvent(tick=3157300, channel=0, data=[24, 0]),
   midi.NoteOnEvent(tick=3157400, channel=0, data=[36, 100]),
   midi.NoteOffEvent(tick=3157500, channel=0, data=[36, 0]),
   midi.NoteOnEvent(tick=3157600, channel=0, data=[14, 100]),
   midi.NoteOffEvent(tick=3157700, channel=0, data=[14, 0]),
   midi.NoteOnEvent(tick=3157800, channel=0, data=[13, 100]),
   midi.NoteOffEvent(tick=3157900, channel=0, data=[13, 0]),
   midi.NoteOnEvent(tick=3158000, channel=0, data=[4, 100]),
   midi.NoteOffEvent(tick=3158100, channel=0, data=[4, 0]),
   midi.NoteOnEvent(tick=3158200, channel=0, data=[36, 100]),
   midi.NoteOffEvent(tick=3158300, channel=0, data=[36, 0]),
   midi.NoteOnEvent(tick=3158400, channel=0, data=[21, 100]),
   midi.NoteOffEvent(tick=3158500, channel=0, data=[21, 0]),
   midi.NoteOnEvent(tick=3158600, channel=0, data=[0, 100]),
   midi.NoteOffEvent(tick=3158700, channel=0, data=[0, 0]),
   midi.NoteOnEvent(tick=3158800, channel=0, data=[11, 100]),
   midi.NoteOffEvent(tick=3158900, channel=0, data=[11, 0]),
   midi.NoteOnEvent(tick=3159000, channel=0, data=[20, 100]),
   midi.NoteOffEvent(tick=3159100, channel=0, data=[20, 0]),
   midi.NoteOnEvent(tick=3159200, channel=0, data=[4, 100]),
   midi.NoteOffEvent(tick=3159300, channel=0, data=[4, 0]),
   midi.NoteOnEvent(tick=3159400, channel=0, data=[38, 100]),
   midi.NoteOffEvent(tick=3159500, channel=0, data=[38, 0]),
   midi.NoteOnEvent(tick=3159600, channel=0, data=[36, 100]),
   midi.NoteOffEvent(tick=3159700, channel=0, data=[36, 0]),
   midi.NoteOnEvent(tick=3159800, channel=0, data=[19, 100]),
   midi.NoteOffEvent(tick=3159900, channel=0, data=[19, 0]),
   midi.NoteOnEvent(tick=3160000, channel=0, data=[7, 100]),
   midi.NoteOffEvent(tick=3160100, channel=0, data=[7, 0]),
   midi.NoteOnEvent(tick=3160200, channel=0, data=[4, 100]),
   midi.NoteOffEvent(tick=3160300, channel=0, data=[4, 0]),
   midi.NoteOnEvent(tick=3160400, channel=0, data=[36, 100]),
   midi.NoteOffEvent(tick=3160500, channel=0, data=[36, 0]),
   midi.NoteOnEvent(tick=3160600, channel=0, data=[21, 100]),
   midi.NoteOffEvent(tick=3160700, channel=0, data=[21, 0]),
   midi.NoteOnEvent(tick=3160800, channel=0, data=[0, 100]),
   midi.NoteOffEvent(tick=3160900, channel=0, data=[0, 0]),
   midi.NoteOnEvent(tick=3161000, channel=0, data=[11, 100]),
   midi.NoteOffEvent(tick=3161100, channel=0, data=[11, 0]),
   midi.NoteOnEvent(tick=3161200, channel=0, data=[20, 100]),
   midi.NoteOffEvent(tick=3161300, channel=0, data=[20, 0]),
   midi.NoteOnEvent(tick=3161400, channel=0, data=[4, 100]),
   midi.NoteOffEvent(tick=3161500, channel=0, data=[4, 0]),
   midi.NoteOnEvent(tick=3161600, channel=0, data=[36, 100]),
   midi.NoteOffEvent(tick=3161700, channel=0, data=[36, 0]),
   midi.NoteOnEvent(tick=3161800, channel=0, data=[19, 100]),
   midi.NoteOffEvent(tick=3161900, channel=0, data=[19, 0]),
   midi.NoteOnEvent(tick=3162000, channel=0, data=[7, 100]),
   midi.NoteOffEvent(tick=3162100, channel=0, data=[7, 0]),
   midi.NoteOnEvent(tick=3162200, channel=0, data=[0, 100]),
   midi.NoteOffEvent(tick=3162300, channel=0, data=[0, 0]),
   midi.NoteOnEvent(tick=3162400, channel=0, data=[19, 100]),
   midi.NoteOffEvent(tick=3162500, channel=0, data=[19, 0]),
   midi.NoteOnEvent(tick=3162600, channel=0, data=[36, 100]),
   midi.NoteOffEvent(tick=3162700, channel=0, data=[36, 0]),
   midi.NoteOnEvent(tick=3162800, channel=0, data=[8, 100]),
   midi.NoteOffEvent(tick=3162900, channel=0, data=[8, 0]),
   midi.NoteOnEvent(tick=3163000, channel=0, data=[18, 100]),
   midi.NoteOffEvent(tick=3163100, channel=0, data=[18, 0]),
   midi.NoteOnEvent(tick=3163200, channel=0, data=[36, 100]),
   midi.NoteOffEvent(tick=3163300, channel=0, data=[36, 0]),
   midi.NoteOnEvent(tick=3163400, channel=0, data=[0, 100]),
   midi.NoteOffEvent(tick=3163500, channel=0, data=[0, 0]),
   midi.NoteOnEvent(tick=3163600, channel=0, data=[18, 100]),
   midi.NoteOffEvent(tick=3163700, channel=0, data=[18, 0]),
   midi.NoteOnEvent(tick=3163800, channel=0, data=[18, 100]),
   midi.NoteOffEvent(tick=3163900, channel=0, data=[18, 0]),
   midi.NoteOnEvent(tick=3164000, channel=0, data=[8, 100]),
   midi.NoteOffEvent(tick=3164100, channel=0, data=[8, 0]),
   midi.NoteOnEvent(tick=3164200, channel=0, data=[6, 100]),
   midi.NoteOffEvent(tick=3164300, channel=0, data=[6, 0]),
   midi.NoteOnEvent(tick=3164400, channel=0, data=[13, 100]),
   midi.NoteOffEvent(tick=3164500, channel=0, data=[13, 0]),
   midi.NoteOnEvent(tick=3164600, channel=0, data=[4, 100]),
   midi.NoteOffEvent(tick=3164700, channel=0, data=[4, 0]),
   midi.NoteOnEvent(tick=3164800, channel=0, data=[3, 100]),
   midi.NoteOffEvent(tick=3164900, channel=0, data=[3, 0]),
   midi.NoteOnEvent(tick=3165000, channel=0, data=[56, 100]),
   midi.NoteOffEvent(tick=3165100, channel=0, data=[56, 0]),
   midi.NoteOnEvent(tick=3165200, channel=0, data=[36, 100]),
   midi.NoteOffEvent(tick=3165300, channel=0, data=[36, 0]),
   midi.NoteOnEvent(tick=3165400, channel=0, data=[36, 100]),
   midi.NoteOffEvent(tick=3165500, channel=0, data=[36, 0]),
   midi.NoteOnEvent(tick=3165600, channel=0, data=[36, 100]),
   midi.NoteOffEvent(tick=3165700, channel=0, data=[36, 0]),
   midi.NoteOnEvent(tick=3165800, channel=0, data=[36, 100]),
   midi.NoteOffEvent(tick=3165900, channel=0, data=[36, 0]),
   midi.NoteOnEvent(tick=3166000, channel=0, data=[19, 100]),
   midi.NoteOffEvent(tick=3166100, channel=0, data=[19, 0]),
   midi.NoteOnEvent(tick=3166200, channel=0, data=[14, 100]),
   midi.NoteOffEvent(tick=3166300, channel=0, data=[14, 0]),
   midi.NoteOnEvent(tick=3166400, channel=0, data=[36, 100]),
   midi.NoteOffEvent(tick=3166500, channel=0, data=[36, 0]),
   midi.NoteOnEvent(tick=3166600, channel=0, data=[19, 100]),
   midi.NoteOffEvent(tick=3166700, channel=0, data=[19, 0]),
   midi.NoteOnEvent(tick=3166800, channel=0, data=[7, 100]),
   midi.NoteOffEvent(tick=3166900, channel=0, data=[7, 0]),
   midi.NoteOnEvent(tick=3167000, channel=0, data=[4, 100]),
   midi.NoteOffEvent(tick=3167100, channel=0, data=[4, 0]),
   midi.NoteOnEvent(tick=3167200, channel=0, data=[36, 100]),
   midi.NoteOffEvent(tick=3167300, channel=0, data=[36, 0]),
   midi.NoteOnEvent(tick=3167400, channel=0, data=[21, 100]),
   midi.NoteOffEvent(tick=3167500, channel=0, data=[21, 0]),
   midi.NoteOnEvent(tick=3167600, channel=0, data=[0, 100]),
   midi.NoteOffEvent(tick=3167700, channel=0, data=[0, 0]),
   midi.NoteOnEvent(tick=3167800, channel=0, data=[17, 100]),
   midi.NoteOffEvent(tick=3167900, channel=0, data=[17, 0]),
   midi.NoteOnEvent(tick=3168000, channel=0, data=[8, 100]),
   midi.NoteOffEvent(tick=3168100, channel=0, data=[8, 0]),
   midi.NoteOnEvent(tick=3168200, channel=0, data=[0, 100]),
   midi.NoteOffEvent(tick=3168300, channel=0, data=[0, 0]),
   midi.NoteOnEvent(tick=3168400, channel=0, data=[1, 100]),
   midi.NoteOffEvent(tick=3168500, channel=0, data=[1, 0]),
   midi.NoteOnEvent(tick=3168600, channel=0, data=[11, 100]),
   midi.NoteOffEvent(tick=3168700, channel=0, data=[11, 0]),
   midi.NoteOnEvent(tick=3168800, channel=0, data=[4, 100]),
   midi.NoteOffEvent(tick=3168900, channel=0, data=[4, 0]),
   midi.NoteOnEvent(tick=3169000, channel=0, data=[36, 100]),
   midi.NoteOffEvent(tick=3169100, channel=0, data=[36, 0]),
   midi.NoteOnEvent(tick=3169200, channel=0, data=[3, 100]),
   midi.NoteOffEvent(tick=3169300, channel=0, data=[3, 0]),
   midi.NoteOnEvent(tick=3169400, channel=0, data=[4, 100]),
   midi.NoteOffEvent(tick=3169500, channel=0, data=[4, 0]),
   midi.NoteOnEvent(tick=3169600, channel=0, data=[19, 100]),
   midi.NoteOffEvent(tick=3169700, channel=0, data=[19, 0]),
   midi.NoteOnEvent(tick=3169800, channel=0, data=[4, 100]),
   midi.NoteOffEvent(tick=3169900, channel=0, data=[4, 0]),
   midi.NoteOnEvent(tick=3170000, channel=0, data=[17, 100]),
   midi.NoteOffEvent(tick=3170100, channel=0, data=[17, 0]),
   midi.NoteOnEvent(tick=3170200, channel=0, data=[12, 100]),
   midi.NoteOffEvent(tick=3170300, channel=0, data=[12, 0]),
   midi.NoteOnEvent(tick=3170400, channel=0, data=[8, 100]),
   midi.NoteOffEvent(tick=3170500, channel=0, data=[8, 0]),
   midi.NoteOnEvent(tick=3170600, channel=0, data=[13, 100]),
   midi.NoteOffEvent(tick=3170700, channel=0, data=[13, 0]),
   midi.NoteOnEvent(tick=3170800, channel=0, data=[4, 100]),
   midi.NoteOffEvent(tick=3170900, channel=0, data=[4, 0]),
   midi.NoteOnEvent(tick=3171000, channel=0, data=[18, 100]),
   midi.NoteOffEvent(tick=3171100, channel=0, data=[18, 0]),
   midi.NoteOnEvent(tick=3171200, channel=0, data=[36, 100]),
   midi.NoteOffEvent(tick=3171300, channel=0, data=[36, 0]),
   midi.NoteOnEvent(tick=3171400, channel=0, data=[19, 100]),
   midi.NoteOffEvent(tick=3171500, channel=0, data=[19, 0]),
   midi.NoteOnEvent(tick=3171600, channel=0, data=[7, 100]),
   midi.NoteOffEvent(tick=3171700, channel=0, data=[7, 0]),
   midi.NoteOnEvent(tick=3171800, channel=0, data=[4, 100]),
   midi.NoteOffEvent(tick=3171900, channel=0, data=[4, 0]),
   midi.NoteOnEvent(tick=3172000, channel=0, data=[36, 100]),
   midi.NoteOffEvent(tick=3172100, channel=0, data=[36, 0]),
   midi.NoteOnEvent(tick=3172200, channel=0, data=[3, 100]),
   midi.NoteOffEvent(tick=3172300, channel=0, data=[3, 0]),
   midi.NoteOnEvent(tick=3172400, channel=0, data=[0, 100]),
   midi.NoteOffEvent(tick=3172500, channel=0, data=[0, 0]),
   midi.NoteOnEvent(tick=3172600, channel=0, data=[19, 100]),
   midi.NoteOffEvent(tick=3172700, channel=0, data=[19, 0]),
   midi.NoteOnEvent(tick=3172800, channel=0, data=[0, 100]),
   midi.NoteOffEvent(tick=3172900, channel=0, data=[0, 0]),
   midi.NoteOnEvent(tick=3173000, channel=0, data=[36, 100]),
   midi.NoteOffEvent(tick=3173100, channel=0, data=[36, 0]),
   midi.NoteOnEvent(tick=3173200, channel=0, data=[19, 100]),
   midi.NoteOffEvent(tick=3173300, channel=0, data=[19, 0]),
   midi.NoteOnEvent(tick=3173400, channel=0, data=[24, 100]),
   midi.NoteOffEvent(tick=3173500, channel=0, data=[24, 0]),
   midi.NoteOnEvent(tick=3173600, channel=0, data=[15, 100]),
   midi.NoteOffEvent(tick=3173700, channel=0, data=[15, 0]),
   midi.NoteOnEvent(tick=3173800, channel=0, data=[4, 100]),
   midi.NoteOffEvent(tick=3173900, channel=0, data=[4, 0]),
   midi.NoteOnEvent(tick=3174000, channel=0, data=[36, 100]),
   midi.NoteOffEvent(tick=3174100, channel=0, data=[36, 0]),
   midi.NoteOnEvent(tick=3174200, channel=0, data=[14, 100]),
   midi.NoteOffEvent(tick=3174300, channel=0, data=[14, 0]),
   midi.NoteOnEvent(tick=3174400, channel=0, data=[5, 100]),
   midi.NoteOffEvent(tick=3174500, channel=0, data=[5, 0]),
   midi.NoteOnEvent(tick=3174600, channel=0, data=[36, 100]),
   midi.NoteOffEvent(tick=3174700, channel=0, data=[36, 0]),
   midi.NoteOnEvent(tick=3174800, channel=0, data=[19, 100]),
   midi.NoteOffEvent(tick=3174900, channel=0, data=[19, 0]),
   midi.NoteOnEvent(tick=3175000, channel=0, data=[7, 100]),
   midi.NoteOffEvent(tick=3175100, channel=0, data=[7, 0]),
   midi.NoteOnEvent(tick=3175200, channel=0, data=[4, 100]),
   midi.NoteOffEvent(tick=3175300, channel=0, data=[4, 0]),
   midi.NoteOnEvent(tick=3175400, channel=0, data=[36, 100]),
   midi.NoteOffEvent(tick=3175500, channel=0, data=[36, 0]),
   midi.NoteOnEvent(tick=3175600, channel=0, data=[21, 100]),
   midi.NoteOffEvent(tick=3175700, channel=0, data=[21, 0]),
   midi.NoteOnEvent(tick=3175800, channel=0, data=[0, 100]),
   midi.NoteOffEvent(tick=3175900, channel=0, data=[0, 0]),
   midi.NoteOnEvent(tick=3176000, channel=0, data=[17, 100]),
   midi.NoteOffEvent(tick=3176100, channel=0, data=[17, 0]),
   midi.NoteOnEvent(tick=3176200, channel=0, data=[8, 100]),
   midi.NoteOffEvent(tick=3176300, channel=0, data=[8, 0]),
   midi.NoteOnEvent(tick=3176400, channel=0, data=[0, 100]),
   midi.NoteOffEvent(tick=3176500, channel=0, data=[0, 0]),
   midi.NoteOnEvent(tick=3176600, channel=0, data=[1, 100]),
   midi.NoteOffEvent(tick=3176700, channel=0, data=[1, 0]),
   midi.NoteOnEvent(tick=3176800, channel=0, data=[11, 100]),
   midi.NoteOffEvent(tick=3176900, channel=0, data=[11, 0]),
   midi.NoteOnEvent(tick=3177000, channel=0, data=[4, 100]),
   midi.NoteOffEvent(tick=3177100, channel=0, data=[4, 0]),
   midi.NoteOnEvent(tick=3177200, channel=0, data=[37, 100]),
   midi.NoteOffEvent(tick=3177300, channel=0, data=[37, 0]),
   midi.NoteOnEvent(tick=3177400, channel=0, data=[36, 100]),
   midi.NoteOffEvent(tick=3177500, channel=0, data=[36, 0]),
   midi.NoteOnEvent(tick=3177600, channel=0, data=[5, 100]),
   midi.NoteOffEvent(tick=3177700, channel=0, data=[5, 0]),
   midi.NoteOnEvent(tick=3177800, channel=0, data=[14, 100]),
   midi.NoteOffEvent(tick=3177900, channel=0, data=[14, 0]),
   midi.NoteOnEvent(tick=3178000, channel=0, data=[17, 100]),
   midi.NoteOffEvent(tick=3178100, channel=0, data=[17, 0]),
   midi.NoteOnEvent(tick=3178200, channel=0, data=[36, 100]),
   midi.NoteOffEvent(tick=3178300, channel=0, data=[36, 0]),
   midi.NoteOnEvent(tick=3178400, channel=0, data=[4, 100]),
   midi.NoteOffEvent(tick=3178500, channel=0, data=[4, 0]),
   midi.NoteOnEvent(tick=3178600, channel=0, data=[23, 100]),
   midi.NoteOffEvent(tick=3178700, channel=0, data=[23, 0]),
   midi.NoteOnEvent(tick=3178800, channel=0, data=[0, 100]),
   midi.NoteOffEvent(tick=3178900, channel=0, data=[0, 0]),
   midi.NoteOnEvent(tick=3179000, channel=0, data=[12, 100]),
   midi.NoteOffEvent(tick=3179100, channel=0, data=[12, 0]),
   midi.NoteOnEvent(tick=3179200, channel=0, data=[15, 100]),
   midi.NoteOffEvent(tick=3179300, channel=0, data=[15, 0]),
   midi.NoteOnEvent(tick=3179400, channel=0, data=[11, 100]),
   midi.NoteOffEvent(tick=3179500, channel=0, data=[11, 0]),
   midi.NoteOnEvent(tick=3179600, channel=0, data=[4, 100]),
   midi.NoteOffEvent(tick=3179700, channel=0, data=[4, 0]),
   midi.NoteOnEvent(tick=3179800, channel=0, data=[38, 100]),
   midi.NoteOffEvent(tick=3179900, channel=0, data=[38, 0]),
   midi.NoteOnEvent(tick=3180000, channel=0, data=[36, 100]),
   midi.NoteOffEvent(tick=3180100, channel=0, data=[36, 0]),
   midi.NoteOnEvent(tick=3180200, channel=0, data=[19, 100]),
   midi.NoteOffEvent(tick=3180300, channel=0, data=[19, 0]),
   midi.NoteOnEvent(tick=3180400, channel=0, data=[7, 100]),
   midi.NoteOffEvent(tick=3180500, channel=0, data=[7, 0]),
   midi.NoteOnEvent(tick=3180600, channel=0, data=[4, 100]),
   midi.NoteOffEvent(tick=3180700, channel=0, data=[4, 0]),
   midi.NoteOnEvent(tick=3180800, channel=0, data=[36, 100]),
   midi.NoteOffEvent(tick=3180900, channel=0, data=[36, 0]),
   midi.NoteOnEvent(tick=3181000, channel=0, data=[56, 100]),
   midi.NoteOffEvent(tick=3181100, channel=0, data=[56, 0]),
   midi.NoteOnEvent(tick=3181200, channel=0, data=[36, 100]),
   midi.NoteOffEvent(tick=3181300, channel=0, data=[36, 0]),
   midi.NoteOnEvent(tick=3181400, channel=0, data=[36, 100]),
   midi.NoteOffEvent(tick=3181500, channel=0, data=[36, 0]),
   midi.NoteOnEvent(tick=3181600, channel=0, data=[36, 100]),
   midi.NoteOffEvent(tick=3181700, channel=0, data=[36, 0]),
   midi.NoteOnEvent(tick=3181800, channel=0, data=[36, 100]),
   midi.NoteOffEvent(tick=3181900, channel=0, data=[36, 0]),
   midi.NoteOnEvent(tick=3182000, channel=0, data=[5, 100]),
   midi.NoteOffEvent(tick=3182100, channel=0, data=[5, 0]),
   midi.NoteOnEvent(tick=3182200, channel=0, data=[14, 100]),
   midi.NoteOffEvent(tick=3182300, channel=0, data=[14, 0]),
   midi.NoteOnEvent(tick=3182400, channel=0, data=[11, 100]),
   midi.NoteOffEvent(tick=3182500, channel=0, data=[11, 0]),
   midi.NoteOnEvent(tick=3182600, channel=0, data=[11, 100]),
   midi.NoteOffEvent(tick=3182700, channel=0, data=[11, 0]),
   midi.NoteOnEvent(tick=3182800, channel=0, data=[14, 100]),
   midi.NoteOffEvent(tick=3182900, channel=0, data=[14, 0]),
   midi.NoteOnEvent(tick=3183000, channel=0, data=[22, 100]),
   midi.NoteOffEvent(tick=3183100, channel=0, data=[22, 0]),
   midi.NoteOnEvent(tick=3183200, channel=0, data=[8, 100]),
   midi.NoteOffEvent(tick=3183300, channel=0, data=[8, 0]),
   midi.NoteOnEvent(tick=3183400, channel=0, data=[13, 100]),
   midi.NoteOffEvent(tick=3183500, channel=0, data=[13, 0]),
   midi.NoteOnEvent(tick=3183600, channel=0, data=[6, 100]),
   midi.NoteOffEvent(tick=3183700, channel=0, data=[6, 0]),
   midi.NoteOnEvent(tick=3183800, channel=0, data=[36, 100]),
   midi.NoteOffEvent(tick=3183900, channel=0, data=[36, 0]),
   midi.NoteOnEvent(tick=3184000, channel=0, data=[2, 100]),
   midi.NoteOffEvent(tick=3184100, channel=0, data=[2, 0]),
   midi.NoteOnEvent(tick=3184200, channel=0, data=[14, 100]),
   midi.NoteOffEvent(tick=3184300, channel=0, data=[14, 0]),
   midi.NoteOnEvent(tick=3184400, channel=0, data=[12, 100]),
   midi.NoteOffEvent(tick=3184500, channel=0, data=[12, 0]),
   midi.NoteOnEvent(tick=3184600, channel=0, data=[12, 100]),
   midi.NoteOffEvent(tick=3184700, channel=0, data=[12, 0]),
   midi.NoteOnEvent(tick=3184800, channel=0, data=[0, 100]),
   midi.NoteOffEvent(tick=3184900, channel=0, data=[0, 0]),
   midi.NoteOnEvent(tick=3185000, channel=0, data=[13, 100]),
   midi.NoteOffEvent(tick=3185100, channel=0, data=[13, 0]),
   midi.NoteOnEvent(tick=3185200, channel=0, data=[3, 100]),
   midi.NoteOffEvent(tick=3185300, channel=0, data=[3, 0]),
   midi.NoteOnEvent(tick=3185400, channel=0, data=[36, 100]),
   midi.NoteOffEvent(tick=3185500, channel=0, data=[36, 0]),
   midi.NoteOnEvent(tick=3185600, channel=0, data=[2, 100]),
   midi.NoteOffEvent(tick=3185700, channel=0, data=[2, 0]),
   midi.NoteOnEvent(tick=3185800, channel=0, data=[17, 100]),
   midi.NoteOffEvent(tick=3185900, channel=0, data=[17, 0]),
   midi.NoteOnEvent(tick=3186000, channel=0, data=[4, 100]),
   midi.NoteOffEvent(tick=3186100, channel=0, data=[4, 0]),
   midi.NoteOnEvent(tick=3186200, channel=0, data=[0, 100]),
   midi.NoteOffEvent(tick=3186300, channel=0, data=[0, 0]),
   midi.NoteOnEvent(tick=3186400, channel=0, data=[19, 100]),
   midi.NoteOffEvent(tick=3186500, channel=0, data=[19, 0]),
   midi.NoteOnEvent(tick=3186600, channel=0, data=[4, 100]),
   midi.NoteOffEvent(tick=3186700, channel=0, data=[4, 0]),
   midi.NoteOnEvent(tick=3186800, channel=0, data=[18, 100]),
   midi.NoteOffEvent(tick=3186900, channel=0, data=[18, 0]),
   midi.NoteOnEvent(tick=3187000, channel=0, data=[36, 100]),
   midi.NoteOffEvent(tick=3187100, channel=0, data=[36, 0]),
   midi.NoteOnEvent(tick=3187200, channel=0, data=[0, 100]),
   midi.NoteOffEvent(tick=3187300, channel=0, data=[0, 0]),
   midi.NoteOnEvent(tick=3187400, channel=0, data=[36, 100]),
   midi.NoteOffEvent(tick=3187500, channel=0, data=[36, 0]),
   midi.NoteOnEvent(tick=3187600, channel=0, data=[21, 100]),
   midi.NoteOffEvent(tick=3187700, channel=0, data=[21, 0]),
   midi.NoteOnEvent(tick=3187800, channel=0, data=[0, 100]),
   midi.NoteOffEvent(tick=3187900, channel=0, data=[0, 0]),
   midi.NoteOnEvent(tick=3188000, channel=0, data=[17, 100]),
   midi.NoteOffEvent(tick=3188100, channel=0, data=[17, 0]),
   midi.NoteOnEvent(tick=3188200, channel=0, data=[8, 100]),
   midi.NoteOffEvent(tick=3188300, channel=0, data=[8, 0]),
   midi.NoteOnEvent(tick=3188400, channel=0, data=[0, 100]),
   midi.NoteOffEvent(tick=3188500, channel=0, data=[0, 0]),
   midi.NoteOnEvent(tick=3188600, channel=0, data=[1, 100]),
   midi.NoteOffEvent(tick=3188700, channel=0, data=[1, 0]),
   midi.NoteOnEvent(tick=3188800, channel=0, data=[11, 100]),
   midi.NoteOffEvent(tick=3188900, channel=0, data=[11, 0]),
   midi.NoteOnEvent(tick=3189000, channel=0, data=[4, 100]),
   midi.NoteOffEvent(tick=3189100, channel=0, data=[4, 0]),
   midi.NoteOnEvent(tick=3189200, channel=0, data=[36, 100]),
   midi.NoteOffEvent(tick=3189300, channel=0, data=[36, 0]),
   midi.NoteOnEvent(tick=3189400, channel=0, data=[19, 100]),
   midi.NoteOffEvent(tick=3189500, channel=0, data=[19, 0]),
   midi.NoteOnEvent(tick=3189600, channel=0, data=[7, 100]),
   midi.NoteOffEvent(tick=3189700, channel=0, data=[7, 0]),
   midi.NoteOnEvent(tick=3189800, channel=0, data=[0, 100]),
   midi.NoteOffEvent(tick=3189900, channel=0, data=[0, 0]),
   midi.NoteOnEvent(tick=3190000, channel=0, data=[19, 100]),
   midi.NoteOffEvent(tick=3190100, channel=0, data=[19, 0]),
   midi.NoteOnEvent(tick=3190200, channel=0, data=[36, 100]),
   midi.NoteOffEvent(tick=3190300, channel=0, data=[36, 0]),
   midi.NoteOnEvent(tick=3190400, channel=0, data=[7, 100]),
   midi.NoteOffEvent(tick=3190500, channel=0, data=[7, 0]),
   midi.NoteOnEvent(tick=3190600, channel=0, data=[0, 100]),
   midi.NoteOffEvent(tick=3190700, channel=0, data=[0, 0]),
   midi.NoteOnEvent(tick=3190800, channel=0, data=[18, 100]),
   midi.NoteOffEvent(tick=3190900, channel=0, data=[18, 0]),
   midi.NoteOnEvent(tick=3191000, channel=0, data=[36, 100]),
   midi.NoteOffEvent(tick=3191100, channel=0, data=[36, 0]),
   midi.NoteOnEvent(tick=3191200, channel=0, data=[19, 100]),
   midi.NoteOffEvent(tick=3191300, channel=0, data=[19, 0]),
   midi.NoteOnEvent(tick=3191400, channel=0, data=[7, 100]),
   midi.NoteOffEvent(tick=3191500, channel=0, data=[7, 0]),
   midi.NoteOnEvent(tick=3191600, channel=0, data=[4, 100]),
   midi.NoteOffEvent(tick=3191700, channel=0, data=[4, 0]),
   midi.NoteOnEvent(tick=3191800, channel=0, data=[36, 100]),
   midi.NoteOffEvent(tick=3191900, channel=0, data=[36, 0]),
   midi.NoteOnEvent(tick=3192000, channel=0, data=[8, 100]),
   midi.NoteOffEvent(tick=3192100, channel=0, data=[8, 0]),
   midi.NoteOnEvent(tick=3192200, channel=0, data=[13, 100]),
   midi.NoteOffEvent(tick=3192300, channel=0, data=[13, 0]),
   midi.NoteOnEvent(tick=3192400, channel=0, data=[19, 100]),
   midi.NoteOffEvent(tick=3192500, channel=0, data=[19, 0]),
   midi.NoteOnEvent(tick=3192600, channel=0, data=[4, 100]),
   midi.NoteOffEvent(tick=3192700, channel=0, data=[4, 0]),
   midi.NoteOnEvent(tick=3192800, channel=0, data=[6, 100]),
   midi.NoteOffEvent(tick=3192900, channel=0, data=[6, 0]),
   midi.NoteOnEvent(tick=3193000, channel=0, data=[4, 100]),
   midi.NoteOffEvent(tick=3193100, channel=0, data=[4, 0]),
   midi.NoteOnEvent(tick=3193200, channel=0, data=[17, 100]),
   midi.NoteOffEvent(tick=3193300, channel=0, data=[17, 0]),
   midi.NoteOnEvent(tick=3193400, channel=0, data=[36, 100]),
   midi.NoteOffEvent(tick=3193500, channel=0, data=[36, 0]),
   midi.NoteOnEvent(tick=3193600, channel=0, data=[49, 100]),
   midi.NoteOffEvent(tick=3193700, channel=0, data=[49, 0]),
   midi.NoteOnEvent(tick=3193800, channel=0, data=[18, 100]),
   midi.NoteOffEvent(tick=3193900, channel=0, data=[18, 0]),
   midi.NoteOnEvent(tick=3194000, channel=0, data=[24, 100]),
   midi.NoteOffEvent(tick=3194100, channel=0, data=[24, 0]),
   midi.NoteOnEvent(tick=3194200, channel=0, data=[18, 100]),
   midi.NoteOffEvent(tick=3194300, channel=0, data=[18, 0]),
   midi.NoteOnEvent(tick=3194400, channel=0, data=[19, 100]),
   midi.NoteOffEvent(tick=3194500, channel=0, data=[19, 0]),
   midi.NoteOnEvent(tick=3194600, channel=0, data=[4, 100]),
   midi.NoteOffEvent(tick=3194700, channel=0, data=[4, 0]),
   midi.NoteOnEvent(tick=3194800, channel=0, data=[12, 100]),
   midi.NoteOffEvent(tick=3194900, channel=0, data=[12, 0]),
   midi.NoteOnEvent(tick=3195000, channel=0, data=[37, 100]),
   midi.NoteOffEvent(tick=3195100, channel=0, data=[37, 0]),
   midi.NoteOnEvent(tick=3195200, channel=0, data=[8, 100]),
   midi.NoteOffEvent(tick=3195300, channel=0, data=[8, 0]),
   midi.NoteOnEvent(tick=3195400, channel=0, data=[13, 100]),
   midi.NoteOffEvent(tick=3195500, channel=0, data=[13, 0]),
   midi.NoteOnEvent(tick=3195600, channel=0, data=[19, 100]),
   midi.NoteOffEvent(tick=3195700, channel=0, data=[19, 0]),
   midi.NoteOnEvent(tick=3195800, channel=0, data=[29, 100]),
   midi.NoteOffEvent(tick=3195900, channel=0, data=[29, 0]),
   midi.NoteOnEvent(tick=3196000, channel=0, data=[28, 100]),
   midi.NoteOffEvent(tick=3196100, channel=0, data=[28, 0]),
   midi.NoteOnEvent(tick=3196200, channel=0, data=[50, 100]),
   midi.NoteOffEvent(tick=3196300, channel=0, data=[50, 0]),
   midi.NoteOnEvent(tick=3196400, channel=0, data=[56, 100]),
   midi.NoteOffEvent(tick=3196500, channel=0, data=[56, 0]),
   midi.NoteOnEvent(tick=3196600, channel=0, data=[36, 100]),
   midi.NoteOffEvent(tick=3196700, channel=0, data=[36, 0]),
   midi.NoteOnEvent(tick=3196800, channel=0, data=[36, 100]),
   midi.NoteOffEvent(tick=3196900, channel=0, data=[36, 0]),
   midi.NoteOnEvent(tick=3197000, channel=0, data=[36, 100]),
   midi.NoteOffEvent(tick=3197100, channel=0, data=[36, 0]),
   midi.NoteOnEvent(tick=3197200, channel=0, data=[36, 100]),
   midi.NoteOffEvent(tick=3197300, channel=0, data=[36, 0]),
   midi.NoteOnEvent(tick=3197400, channel=0, data=[19, 100]),
   midi.NoteOffEvent(tick=3197500, channel=0, data=[19, 0]),
   midi.NoteOnEvent(tick=3197600, channel=0, data=[24, 100]),
   midi.NoteOffEvent(tick=3197700, channel=0, data=[24, 0]),
   midi.NoteOnEvent(tick=3197800, channel=0, data=[15, 100]),
   midi.NoteOffEvent(tick=3197900, channel=0, data=[15, 0]),
   midi.NoteOnEvent(tick=3198000, channel=0, data=[4, 100]),
   midi.NoteOffEvent(tick=3198100, channel=0, data=[4, 0]),
   midi.NoteOnEvent(tick=3198200, channel=0, data=[46, 100]),
   midi.NoteOffEvent(tick=3198300, channel=0, data=[46, 0]),
   midi.NoteOnEvent(tick=3198400, channel=0, data=[56, 100]),
   midi.NoteOffEvent(tick=3198500, channel=0, data=[56, 0]),
   midi.NoteOnEvent(tick=3198600, channel=0, data=[56, 100]),
   midi.NoteOffEvent(tick=3198700, channel=0, data=[56, 0]),
   midi.NoteOnEvent(tick=3198800, channel=0, data=[56, 100]),
   midi.NoteOffEvent(tick=3198900, channel=0, data=[56, 0]),
   midi.NoteOnEvent(tick=3199000, channel=0, data=[36, 100]),
   midi.NoteOffEvent(tick=3199100, channel=0, data=[36, 0]),
   midi.NoteOnEvent(tick=3199200, channel=0, data=[36, 100]),
   midi.NoteOffEvent(tick=3199300, channel=0, data=[36, 0]),
   midi.NoteOnEvent(tick=3199400, channel=0, data=[36, 100]),
   midi.NoteOffEvent(tick=3199500, channel=0, data=[36, 0]),
   midi.NoteOnEvent(tick=3199600, channel=0, data=[36, 100]),
   midi.NoteOffEvent(tick=3199700, channel=0, data=[36, 0]),
   midi.NoteOnEvent(tick=3199800, channel=0, data=[36, 100]),
   midi.NoteOffEvent(tick=3199900, channel=0, data=[36, 0]),
   midi.NoteOnEvent(tick=3200000, channel=0, data=[36, 100]),
   midi.NoteOffEvent(tick=3200100, channel=0, data=[36, 0]),
   midi.NoteOnEvent(tick=3200200, channel=0, data=[36, 100]),
   midi.NoteOffEvent(tick=3200300, channel=0, data=[36, 0]),
   midi.NoteOnEvent(tick=3200400, channel=0, data=[36, 100]),
   midi.NoteOffEvent(tick=3200500, channel=0, data=[36, 0]),
   midi.NoteOnEvent(tick=3200600, channel=0, data=[74, 100]),
   midi.NoteOffEvent(tick=3200700, channel=0, data=[74, 0]),
   midi.NoteOnEvent(tick=3200800, channel=0, data=[0, 100]),
   midi.NoteOffEvent(tick=3200900, channel=0, data=[0, 0]),
   midi.NoteOnEvent(tick=3201000, channel=0, data=[36, 100]),
   midi.NoteOffEvent(tick=3201100, channel=0, data=[36, 0]),
   midi.NoteOnEvent(tick=3201200, channel=0, data=[69, 100]),
   midi.NoteOffEvent(tick=3201300, channel=0, data=[69, 0]),
   midi.NoteOnEvent(tick=3201400, channel=0, data=[36, 100]),
   midi.NoteOffEvent(tick=3201500, channel=0, data=[36, 0]),
   midi.NoteOnEvent(tick=3201600, channel=0, data=[32, 100]),
   midi.NoteOffEvent(tick=3201700, channel=0, data=[32, 0]),
   midi.NoteOnEvent(tick=3201800, channel=0, data=[36, 100]),
   midi.NoteOffEvent(tick=3201900, channel=0, data=[36, 0]),
   midi.NoteOnEvent(tick=3202000, channel=0, data=[56, 100]),
   midi.NoteOffEvent(tick=3202100, channel=0, data=[56, 0]),
   midi.NoteOnEvent(tick=3202200, channel=0, data=[56, 100]),
   midi.NoteOffEvent(tick=3202300, channel=0, data=[56, 0]),
   midi.NoteOnEvent(tick=3202400, channel=0, data=[56, 100]),
   midi.NoteOffEvent(tick=3202500, channel=0, data=[56, 0]),
   midi.NoteOnEvent(tick=3202600, channel=0, data=[36, 100]),
   midi.NoteOffEvent(tick=3202700, channel=0, data=[36, 0]),
   midi.NoteOnEvent(tick=3202800, channel=0, data=[36, 100]),
   midi.NoteOffEvent(tick=3202900, channel=0, data=[36, 0]),
   midi.NoteOnEvent(tick=3203000, channel=0, data=[36, 100]),
   midi.NoteOffEvent(tick=3203100, channel=0, data=[36, 0]),
   midi.NoteOnEvent(tick=3203200, channel=0, data=[36, 100]),
   midi.NoteOffEvent(tick=3203300, channel=0, data=[36, 0]),
   midi.NoteOnEvent(tick=3203400, channel=0, data=[19, 100]),
   midi.NoteOffEvent(tick=3203500, channel=0, data=[19, 0]),
   midi.NoteOnEvent(tick=3203600, channel=0, data=[14, 100]),
   midi.NoteOffEvent(tick=3203700, channel=0, data=[14, 0]),
   midi.NoteOnEvent(tick=3203800, channel=0, data=[36, 100]),
   midi.NoteOffEvent(tick=3203900, channel=0, data=[36, 0]),
   midi.NoteOnEvent(tick=3204000, channel=0, data=[5, 100]),
   midi.NoteOffEvent(tick=3204100, channel=0, data=[5, 0]),
   midi.NoteOnEvent(tick=3204200, channel=0, data=[8, 100]),
   midi.NoteOffEvent(tick=3204300, channel=0, data=[8, 0]),
   midi.NoteOnEvent(tick=3204400, channel=0, data=[13, 100]),
   midi.NoteOffEvent(tick=3204500, channel=0, data=[13, 0]),
   midi.NoteOnEvent(tick=3204600, channel=0, data=[3, 100]),
   midi.NoteOffEvent(tick=3204700, channel=0, data=[3, 0]),
   midi.NoteOnEvent(tick=3204800, channel=0, data=[36, 100]),
   midi.NoteOffEvent(tick=3204900, channel=0, data=[36, 0]),
   midi.NoteOnEvent(tick=3205000, channel=0, data=[19, 100]),
   midi.NoteOffEvent(tick=3205100, channel=0, data=[19, 0]),
   midi.NoteOnEvent(tick=3205200, channel=0, data=[7, 100]),
   midi.NoteOffEvent(tick=3205300, channel=0, data=[7, 0]),
   midi.NoteOnEvent(tick=3205400, channel=0, data=[4, 100]),
   midi.NoteOffEvent(tick=3205500, channel=0, data=[4, 0]),
   midi.NoteOnEvent(tick=3205600, channel=0, data=[36, 100]),
   midi.NoteOffEvent(tick=3205700, channel=0, data=[36, 0]),
   midi.NoteOnEvent(tick=3205800, channel=0, data=[37, 100]),
   midi.NoteOffEvent(tick=3205900, channel=0, data=[37, 0]),
   midi.NoteOnEvent(tick=3206000, channel=0, data=[13, 100]),
   midi.NoteOffEvent(tick=3206100, channel=0, data=[13, 0]),
   midi.NoteOnEvent(tick=3206200, channel=0, data=[4, 100]),
   midi.NoteOffEvent(tick=3206300, channel=0, data=[4, 0]),
   midi.NoteOnEvent(tick=3206400, channel=0, data=[19, 100]),
   midi.NoteOffEvent(tick=3206500, channel=0, data=[19, 0]),
   midi.NoteOnEvent(tick=3206600, channel=0, data=[36, 100]),
   midi.NoteOffEvent(tick=3206700, channel=0, data=[36, 0]),
   midi.NoteOnEvent(tick=3206800, channel=0, data=[5, 100]),
   midi.NoteOffEvent(tick=3206900, channel=0, data=[5, 0]),
   midi.NoteOnEvent(tick=3207000, channel=0, data=[17, 100]),
   midi.NoteOffEvent(tick=3207100, channel=0, data=[17, 0]),
   midi.NoteOnEvent(tick=3207200, channel=0, data=[0, 100]),
   midi.NoteOffEvent(tick=3207300, channel=0, data=[0, 0]),
   midi.NoteOnEvent(tick=3207400, channel=0, data=[12, 100]),
   midi.NoteOffEvent(tick=3207500, channel=0, data=[12, 0]),
   midi.NoteOnEvent(tick=3207600, channel=0, data=[4, 100]),
   midi.NoteOffEvent(tick=3207700, channel=0, data=[4, 0]),
   midi.NoteOnEvent(tick=3207800, channel=0, data=[22, 100]),
   midi.NoteOffEvent(tick=3207900, channel=0, data=[22, 0]),
   midi.NoteOnEvent(tick=3208000, channel=0, data=[14, 100]),
   midi.NoteOffEvent(tick=3208100, channel=0, data=[14, 0]),
   midi.NoteOnEvent(tick=3208200, channel=0, data=[17, 100]),
   midi.NoteOffEvent(tick=3208300, channel=0, data=[17, 0]),
   midi.NoteOnEvent(tick=3208400, channel=0, data=[10, 100]),
   midi.NoteOffEvent(tick=3208500, channel=0, data=[10, 0]),
   midi.NoteOnEvent(tick=3208600, channel=0, data=[36, 100]),
   midi.NoteOffEvent(tick=3208700, channel=0, data=[36, 0]),
   midi.NoteOnEvent(tick=3208800, channel=0, data=[19, 100]),
   midi.NoteOffEvent(tick=3208900, channel=0, data=[19, 0]),
   midi.NoteOnEvent(tick=3209000, channel=0, data=[24, 100]),
   midi.NoteOffEvent(tick=3209100, channel=0, data=[24, 0]),
   midi.NoteOnEvent(tick=3209200, channel=0, data=[15, 100]),
   midi.NoteOffEvent(tick=3209300, channel=0, data=[15, 0]),
   midi.NoteOnEvent(tick=3209400, channel=0, data=[4, 100]),
   midi.NoteOffEvent(tick=3209500, channel=0, data=[4, 0]),
   midi.NoteOnEvent(tick=3209600, channel=0, data=[36, 100]),
   midi.NoteOffEvent(tick=3209700, channel=0, data=[36, 0]),
   midi.NoteOnEvent(tick=3209800, channel=0, data=[14, 100]),
   midi.NoteOffEvent(tick=3209900, channel=0, data=[14, 0]),
   midi.NoteOnEvent(tick=3210000, channel=0, data=[5, 100]),
   midi.NoteOffEvent(tick=3210100, channel=0, data=[5, 0]),
   midi.NoteOnEvent(tick=3210200, channel=0, data=[36, 100]),
   midi.NoteOffEvent(tick=3210300, channel=0, data=[36, 0]),
   midi.NoteOnEvent(tick=3210400, channel=0, data=[0, 100]),
   midi.NoteOffEvent(tick=3210500, channel=0, data=[0, 0]),
   midi.NoteOnEvent(tick=3210600, channel=0, data=[36, 100]),
   midi.NoteOffEvent(tick=3210700, channel=0, data=[36, 0]),
   midi.NoteOnEvent(tick=3210800, channel=0, data=[21, 100]),
   midi.NoteOffEvent(tick=3210900, channel=0, data=[21, 0]),
   midi.NoteOnEvent(tick=3211000, channel=0, data=[0, 100]),
   midi.NoteOffEvent(tick=3211100, channel=0, data=[0, 0]),
   midi.NoteOnEvent(tick=3211200, channel=0, data=[17, 100]),
   midi.NoteOffEvent(tick=3211300, channel=0, data=[17, 0]),
   midi.NoteOnEvent(tick=3211400, channel=0, data=[8, 100]),
   midi.NoteOffEvent(tick=3211500, channel=0, data=[8, 0]),
   midi.NoteOnEvent(tick=3211600, channel=0, data=[0, 100]),
   midi.NoteOffEvent(tick=3211700, channel=0, data=[0, 0]),
   midi.NoteOnEvent(tick=3211800, channel=0, data=[1, 100]),
   midi.NoteOffEvent(tick=3211900, channel=0, data=[1, 0]),
   midi.NoteOnEvent(tick=3212000, channel=0, data=[11, 100]),
   midi.NoteOffEvent(tick=3212100, channel=0, data=[11, 0]),
   midi.NoteOnEvent(tick=3212200, channel=0, data=[4, 100]),
   midi.NoteOffEvent(tick=3212300, channel=0, data=[4, 0]),
   midi.NoteOnEvent(tick=3212400, channel=0, data=[38, 100]),
   midi.NoteOffEvent(tick=3212500, channel=0, data=[38, 0]),
   midi.NoteOnEvent(tick=3212600, channel=0, data=[36, 100]),
   midi.NoteOffEvent(tick=3212700, channel=0, data=[36, 0]),
   midi.NoteOnEvent(tick=3212800, channel=0, data=[20, 100]),
   midi.NoteOffEvent(tick=3212900, channel=0, data=[20, 0]),
   midi.NoteOnEvent(tick=3213000, channel=0, data=[18, 100]),
   midi.NoteOffEvent(tick=3213100, channel=0, data=[18, 0]),
   midi.NoteOnEvent(tick=3213200, channel=0, data=[4, 100]),
   midi.NoteOffEvent(tick=3213300, channel=0, data=[4, 0]),
   midi.NoteOnEvent(tick=3213400, channel=0, data=[36, 100]),
   midi.NoteOffEvent(tick=3213500, channel=0, data=[36, 0]),
   midi.NoteOnEvent(tick=3213600, channel=0, data=[19, 100]),
   midi.NoteOffEvent(tick=3213700, channel=0, data=[19, 0]),
   midi.NoteOnEvent(tick=3213800, channel=0, data=[7, 100]),
   midi.NoteOffEvent(tick=3213900, channel=0, data=[7, 0]),
   midi.NoteOnEvent(tick=3214000, channel=0, data=[4, 100]),
   midi.NoteOffEvent(tick=3214100, channel=0, data=[4, 0]),
   midi.NoteOnEvent(tick=3214200, channel=0, data=[36, 100]),
   midi.NoteOffEvent(tick=3214300, channel=0, data=[36, 0]),
   midi.NoteOnEvent(tick=3214400, channel=0, data=[6, 100]),
   midi.NoteOffEvent(tick=3214500, channel=0, data=[6, 0]),
   midi.NoteOnEvent(tick=3214600, channel=0, data=[4, 100]),
   midi.NoteOffEvent(tick=3214700, channel=0, data=[4, 0]),
   midi.NoteOnEvent(tick=3214800, channel=0, data=[19, 100]),
   midi.NoteOffEvent(tick=3214900, channel=0, data=[19, 0]),
   midi.NoteOnEvent(tick=3215000, channel=0, data=[19, 100]),
   midi.NoteOffEvent(tick=3215100, channel=0, data=[19, 0]),
   midi.NoteOnEvent(tick=3215200, channel=0, data=[24, 100]),
   midi.NoteOffEvent(tick=3215300, channel=0, data=[24, 0]),
   midi.NoteOnEvent(tick=3215400, channel=0, data=[15, 100]),
   midi.NoteOffEvent(tick=3215500, channel=0, data=[15, 0]),
   midi.NoteOnEvent(tick=3215600, channel=0, data=[4, 100]),
   midi.NoteOffEvent(tick=3215700, channel=0, data=[4, 0]),
   midi.NoteOnEvent(tick=3215800, channel=0, data=[36, 100]),
   midi.NoteOffEvent(tick=3215900, channel=0, data=[36, 0]),
   midi.NoteOnEvent(tick=3216000, channel=0, data=[12, 100]),
   midi.NoteOffEvent(tick=3216100, channel=0, data=[12, 0]),
   midi.NoteOnEvent(tick=3216200, channel=0, data=[4, 100]),
   midi.NoteOffEvent(tick=3216300, channel=0, data=[4, 0]),
   midi.NoteOnEvent(tick=3216400, channel=0, data=[19, 100]),
   midi.NoteOffEvent(tick=3216500, channel=0, data=[19, 0]),
   midi.NoteOnEvent(tick=3216600, channel=0, data=[7, 100]),
   midi.NoteOffEvent(tick=3216700, channel=0, data=[7, 0]),
   midi.NoteOnEvent(tick=3216800, channel=0, data=[14, 100]),
   midi.NoteOffEvent(tick=3216900, channel=0, data=[14, 0]),
   midi.NoteOnEvent(tick=3217000, channel=0, data=[3, 100]),
   midi.NoteOffEvent(tick=3217100, channel=0, data=[3, 0]),
   midi.NoteOnEvent(tick=3217200, channel=0, data=[36, 100]),
   midi.NoteOffEvent(tick=3217300, channel=0, data=[36, 0]),
   midi.NoteOnEvent(tick=3217400, channel=0, data=[0, 100]),
   midi.NoteOffEvent(tick=3217500, channel=0, data=[0, 0]),
   midi.NoteOnEvent(tick=3217600, channel=0, data=[13, 100]),
   midi.NoteOffEvent(tick=3217700, channel=0, data=[13, 0]),
   midi.NoteOnEvent(tick=3217800, channel=0, data=[3, 100]),
   midi.NoteOffEvent(tick=3217900, channel=0, data=[3, 0]),
   midi.NoteOnEvent(tick=3218000, channel=0, data=[56, 100]),
   midi.NoteOffEvent(tick=3218100, channel=0, data=[56, 0]),
   midi.NoteOnEvent(tick=3218200, channel=0, data=[36, 100]),
   midi.NoteOffEvent(tick=3218300, channel=0, data=[36, 0]),
   midi.NoteOnEvent(tick=3218400, channel=0, data=[36, 100]),
   midi.NoteOffEvent(tick=3218500, channel=0, data=[36, 0]),
   midi.NoteOnEvent(tick=3218600, channel=0, data=[36, 100]),
   midi.NoteOffEvent(tick=3218700, channel=0, data=[36, 0]),
   midi.NoteOnEvent(tick=3218800, channel=0, data=[36, 100]),
   midi.NoteOffEvent(tick=3218900, channel=0, data=[36, 0]),
   midi.NoteOnEvent(tick=3219000, channel=0, data=[8, 100]),
   midi.NoteOffEvent(tick=3219100, channel=0, data=[8, 0]),
   midi.NoteOnEvent(tick=3219200, channel=0, data=[19, 100]),
   midi.NoteOffEvent(tick=3219300, channel=0, data=[19, 0]),
   midi.NoteOnEvent(tick=3219400, channel=0, data=[18, 100]),
   midi.NoteOffEvent(tick=3219500, channel=0, data=[18, 0]),
   midi.NoteOnEvent(tick=3219600, channel=0, data=[36, 100]),
   midi.NoteOffEvent(tick=3219700, channel=0, data=[36, 0]),
   midi.NoteOnEvent(tick=3219800, channel=0, data=[5, 100]),
   midi.NoteOffEvent(tick=3219900, channel=0, data=[5, 0]),
   midi.NoteOnEvent(tick=3220000, channel=0, data=[20, 100]),
   midi.NoteOffEvent(tick=3220100, channel=0, data=[20, 0]),
   midi.NoteOnEvent(tick=3220200, channel=0, data=[11, 100]),
   midi.NoteOffEvent(tick=3220300, channel=0, data=[11, 0]),
   midi.NoteOnEvent(tick=3220400, channel=0, data=[11, 100]),
   midi.NoteOffEvent(tick=3220500, channel=0, data=[11, 0]),
   midi.NoteOnEvent(tick=3220600, channel=0, data=[13, 100]),
   midi.NoteOffEvent(tick=3220700, channel=0, data=[13, 0]),
   midi.NoteOnEvent(tick=3220800, channel=0, data=[0, 100]),
   midi.NoteOffEvent(tick=3220900, channel=0, data=[0, 0]),
   midi.NoteOnEvent(tick=3221000, channel=0, data=[12, 100]),
   midi.NoteOffEvent(tick=3221100, channel=0, data=[12, 0]),
   midi.NoteOnEvent(tick=3221200, channel=0, data=[4, 100]),
   midi.NoteOffEvent(tick=3221300, channel=0, data=[4, 0]),
   midi.NoteOnEvent(tick=3221400, channel=0, data=[36, 100]),
   midi.NoteOffEvent(tick=3221500, channel=0, data=[36, 0]),
   midi.NoteOnEvent(tick=3221600, channel=0, data=[15, 100]),
   midi.NoteOffEvent(tick=3221700, channel=0, data=[15, 0]),
   midi.NoteOnEvent(tick=3221800, channel=0, data=[17, 100]),
   midi.NoteOffEvent(tick=3221900, channel=0, data=[17, 0]),
   midi.NoteOnEvent(tick=3222000, channel=0, data=[14, 100]),
   midi.NoteOffEvent(tick=3222100, channel=0, data=[14, 0]),
   midi.NoteOnEvent(tick=3222200, channel=0, data=[15, 100]),
   midi.NoteOffEvent(tick=3222300, channel=0, data=[15, 0]),
   midi.NoteOnEvent(tick=3222400, channel=0, data=[4, 100]),
   midi.NoteOffEvent(tick=3222500, channel=0, data=[4, 0]),
   midi.NoteOnEvent(tick=3222600, channel=0, data=[17, 100]),
   midi.NoteOffEvent(tick=3222700, channel=0, data=[17, 0]),
   midi.NoteOnEvent(tick=3222800, channel=0, data=[19, 100]),
   midi.NoteOffEvent(tick=3222900, channel=0, data=[19, 0]),
   midi.NoteOnEvent(tick=3223000, channel=0, data=[24, 100]),
   midi.NoteOffEvent(tick=3223100, channel=0, data=[24, 0]),
   midi.NoteOnEvent(tick=3223200, channel=0, data=[38, 100]),
   midi.NoteOffEvent(tick=3223300, channel=0, data=[38, 0]),
   midi.NoteOnEvent(tick=3223400, channel=0, data=[36, 100]),
   midi.NoteOffEvent(tick=3223500, channel=0, data=[36, 0]),
   midi.NoteOnEvent(tick=3223600, channel=0, data=[0, 100]),
   midi.NoteOffEvent(tick=3223700, channel=0, data=[0, 0]),
   midi.NoteOnEvent(tick=3223800, channel=0, data=[18, 100]),
   midi.NoteOffEvent(tick=3223900, channel=0, data=[18, 0]),
   midi.NoteOnEvent(tick=3224000, channel=0, data=[36, 100]),
   midi.NoteOffEvent(tick=3224100, channel=0, data=[36, 0]),
   midi.NoteOnEvent(tick=3224200, channel=0, data=[5, 100]),
   midi.NoteOffEvent(tick=3224300, channel=0, data=[5, 0]),
   midi.NoteOnEvent(tick=3224400, channel=0, data=[14, 100]),
   midi.NoteOffEvent(tick=3224500, channel=0, data=[14, 0]),
   midi.NoteOnEvent(tick=3224600, channel=0, data=[11, 100]),
   midi.NoteOffEvent(tick=3224700, channel=0, data=[11, 0]),
   midi.NoteOnEvent(tick=3224800, channel=0, data=[11, 100]),
   midi.NoteOffEvent(tick=3224900, channel=0, data=[11, 0]),
   midi.NoteOnEvent(tick=3225000, channel=0, data=[14, 100]),
   midi.NoteOffEvent(tick=3225100, channel=0, data=[14, 0]),
   midi.NoteOnEvent(tick=3225200, channel=0, data=[22, 100]),
   midi.NoteOffEvent(tick=3225300, channel=0, data=[22, 0]),
   midi.NoteOnEvent(tick=3225400, channel=0, data=[18, 100]),
   midi.NoteOffEvent(tick=3225500, channel=0, data=[18, 0]),
   midi.NoteOnEvent(tick=3225600, channel=0, data=[37, 100]),
   midi.NoteOffEvent(tick=3225700, channel=0, data=[37, 0]),
   midi.NoteOnEvent(tick=3225800, channel=0, data=[36, 100]),
   midi.NoteOffEvent(tick=3225900, channel=0, data=[36, 0]),
   midi.NoteOnEvent(tick=3226000, channel=0, data=[1, 100]),
   midi.NoteOffEvent(tick=3226100, channel=0, data=[1, 0]),
   midi.NoteOnEvent(tick=3226200, channel=0, data=[4, 100]),
   midi.NoteOffEvent(tick=3226300, channel=0, data=[4, 0]),
   midi.NoteOnEvent(tick=3226400, channel=0, data=[36, 100]),
   midi.NoteOffEvent(tick=3226500, channel=0, data=[36, 0]),
   midi.NoteOnEvent(tick=3226600, channel=0, data=[18, 100]),
   midi.NoteOffEvent(tick=3226700, channel=0, data=[18, 0]),
   midi.NoteOnEvent(tick=3226800, channel=0, data=[20, 100]),
   midi.NoteOffEvent(tick=3226900, channel=0, data=[20, 0]),
   midi.NoteOnEvent(tick=3227000, channel=0, data=[17, 100]),
   midi.NoteOffEvent(tick=3227100, channel=0, data=[17, 0]),
   midi.NoteOnEvent(tick=3227200, channel=0, data=[4, 100]),
   midi.NoteOffEvent(tick=3227300, channel=0, data=[4, 0]),
   midi.NoteOnEvent(tick=3227400, channel=0, data=[36, 100]),
   midi.NoteOffEvent(tick=3227500, channel=0, data=[36, 0]),
   midi.NoteOnEvent(tick=3227600, channel=0, data=[19, 100]),
   midi.NoteOffEvent(tick=3227700, channel=0, data=[19, 0]),
   midi.NoteOnEvent(tick=3227800, channel=0, data=[14, 100]),
   midi.NoteOffEvent(tick=3227900, channel=0, data=[14, 0]),
   midi.NoteOnEvent(tick=3228000, channel=0, data=[36, 100]),
   midi.NoteOffEvent(tick=3228100, channel=0, data=[36, 0]),
   midi.NoteOnEvent(tick=3228200, channel=0, data=[8, 100]),
   midi.NoteOffEvent(tick=3228300, channel=0, data=[8, 0]),
   midi.NoteOnEvent(tick=3228400, channel=0, data=[13, 100]),
   midi.NoteOffEvent(tick=3228500, channel=0, data=[13, 0]),
   midi.NoteOnEvent(tick=3228600, channel=0, data=[2, 100]),
   midi.NoteOffEvent(tick=3228700, channel=0, data=[2, 0]),
   midi.NoteOnEvent(tick=3228800, channel=0, data=[11, 100]),
   midi.NoteOffEvent(tick=3228900, channel=0, data=[11, 0]),
   midi.NoteOnEvent(tick=3229000, channel=0, data=[20, 100]),
   midi.NoteOffEvent(tick=3229100, channel=0, data=[20, 0]),
   midi.NoteOnEvent(tick=3229200, channel=0, data=[3, 100]),
   midi.NoteOffEvent(tick=3229300, channel=0, data=[3, 0]),
   midi.NoteOnEvent(tick=3229400, channel=0, data=[4, 100]),
   midi.NoteOffEvent(tick=3229500, channel=0, data=[4, 0]),
   midi.NoteOnEvent(tick=3229600, channel=0, data=[36, 100]),
   midi.NoteOffEvent(tick=3229700, channel=0, data=[36, 0]),
   midi.NoteOnEvent(tick=3229800, channel=0, data=[19, 100]),
   midi.NoteOffEvent(tick=3229900, channel=0, data=[19, 0]),
   midi.NoteOnEvent(tick=3230000, channel=0, data=[7, 100]),
   midi.NoteOffEvent(tick=3230100, channel=0, data=[7, 0]),
   midi.NoteOnEvent(tick=3230200, channel=0, data=[4, 100]),
   midi.NoteOffEvent(tick=3230300, channel=0, data=[4, 0]),
   midi.NoteOnEvent(tick=3230400, channel=0, data=[36, 100]),
   midi.NoteOffEvent(tick=3230500, channel=0, data=[36, 0]),
   midi.NoteOnEvent(tick=3230600, channel=0, data=[15, 100]),
   midi.NoteOffEvent(tick=3230700, channel=0, data=[15, 0]),
   midi.NoteOnEvent(tick=3230800, channel=0, data=[0, 100]),
   midi.NoteOffEvent(tick=3230900, channel=0, data=[0, 0]),
   midi.NoteOnEvent(tick=3231000, channel=0, data=[17, 100]),
   midi.NoteOffEvent(tick=3231100, channel=0, data=[17, 0]),
   midi.NoteOnEvent(tick=3231200, channel=0, data=[4, 100]),
   midi.NoteOffEvent(tick=3231300, channel=0, data=[4, 0]),
   midi.NoteOnEvent(tick=3231400, channel=0, data=[13, 100]),
   midi.NoteOffEvent(tick=3231500, channel=0, data=[13, 0]),
   midi.NoteOnEvent(tick=3231600, channel=0, data=[19, 100]),
   midi.NoteOffEvent(tick=3231700, channel=0, data=[19, 0]),
   midi.NoteOnEvent(tick=3231800, channel=0, data=[7, 100]),
   midi.NoteOffEvent(tick=3231900, channel=0, data=[7, 0]),
   midi.NoteOnEvent(tick=3232000, channel=0, data=[4, 100]),
   midi.NoteOffEvent(tick=3232100, channel=0, data=[4, 0]),
   midi.NoteOnEvent(tick=3232200, channel=0, data=[18, 100]),
   midi.NoteOffEvent(tick=3232300, channel=0, data=[18, 0]),
   midi.NoteOnEvent(tick=3232400, channel=0, data=[4, 100]),
   midi.NoteOffEvent(tick=3232500, channel=0, data=[4, 0]),
   midi.NoteOnEvent(tick=3232600, channel=0, data=[18, 100]),
   midi.NoteOffEvent(tick=3232700, channel=0, data=[18, 0]),
   midi.NoteOnEvent(tick=3232800, channel=0, data=[36, 100]),
   midi.NoteOffEvent(tick=3232900, channel=0, data=[36, 0]),
   midi.NoteOnEvent(tick=3233000, channel=0, data=[0, 100]),
   midi.NoteOffEvent(tick=3233100, channel=0, data=[0, 0]),
   midi.NoteOnEvent(tick=3233200, channel=0, data=[5, 100]),
   midi.NoteOffEvent(tick=3233300, channel=0, data=[5, 0]),
   midi.NoteOnEvent(tick=3233400, channel=0, data=[19, 100]),
   midi.NoteOffEvent(tick=3233500, channel=0, data=[19, 0]),
   midi.NoteOnEvent(tick=3233600, channel=0, data=[4, 100]),
   midi.NoteOffEvent(tick=3233700, channel=0, data=[4, 0]),
   midi.NoteOnEvent(tick=3233800, channel=0, data=[17, 100]),
   midi.NoteOffEvent(tick=3233900, channel=0, data=[17, 0]),
   midi.NoteOnEvent(tick=3234000, channel=0, data=[56, 100]),
   midi.NoteOffEvent(tick=3234100, channel=0, data=[56, 0]),
   midi.NoteOnEvent(tick=3234200, channel=0, data=[36, 100]),
   midi.NoteOffEvent(tick=3234300, channel=0, data=[36, 0]),
   midi.NoteOnEvent(tick=3234400, channel=0, data=[36, 100]),
   midi.NoteOffEvent(tick=3234500, channel=0, data=[36, 0]),
   midi.NoteOnEvent(tick=3234600, channel=0, data=[36, 100]),
   midi.NoteOffEvent(tick=3234700, channel=0, data=[36, 0]),
   midi.NoteOnEvent(tick=3234800, channel=0, data=[36, 100]),
   midi.NoteOffEvent(tick=3234900, channel=0, data=[36, 0]),
   midi.NoteOnEvent(tick=3235000, channel=0, data=[19, 100]),
   midi.NoteOffEvent(tick=3235100, channel=0, data=[19, 0]),
   midi.NoteOnEvent(tick=3235200, channel=0, data=[7, 100]),
   midi.NoteOffEvent(tick=3235300, channel=0, data=[7, 0]),
   midi.NoteOnEvent(tick=3235400, channel=0, data=[4, 100]),
   midi.NoteOffEvent(tick=3235500, channel=0, data=[4, 0]),
   midi.NoteOnEvent(tick=3235600, channel=0, data=[36, 100]),
   midi.NoteOffEvent(tick=3235700, channel=0, data=[36, 0]),
   midi.NoteOnEvent(tick=3235800, channel=0, data=[6, 100]),
   midi.NoteOffEvent(tick=3235900, channel=0, data=[6, 0]),
   midi.NoteOnEvent(tick=3236000, channel=0, data=[4, 100]),
   midi.NoteOffEvent(tick=3236100, channel=0, data=[4, 0]),
   midi.NoteOnEvent(tick=3236200, channel=0, data=[19, 100]),
   midi.NoteOffEvent(tick=3236300, channel=0, data=[19, 0]),
   midi.NoteOnEvent(tick=3236400, channel=0, data=[19, 100]),
   midi.NoteOffEvent(tick=3236500, channel=0, data=[19, 0]),
   midi.NoteOnEvent(tick=3236600, channel=0, data=[24, 100]),
   midi.NoteOffEvent(tick=3236700, channel=0, data=[24, 0]),
   midi.NoteOnEvent(tick=3236800, channel=0, data=[15, 100]),
   midi.NoteOffEvent(tick=3236900, channel=0, data=[15, 0]),
   midi.NoteOnEvent(tick=3237000, channel=0, data=[4, 100]),
   midi.NoteOffEvent(tick=3237100, channel=0, data=[4, 0]),
   midi.NoteOnEvent(tick=3237200, channel=0, data=[36, 100]),
   midi.NoteOffEvent(tick=3237300, channel=0, data=[36, 0]),
   midi.NoteOnEvent(tick=3237400, channel=0, data=[12, 100]),
   midi.NoteOffEvent(tick=3237500, channel=0, data=[12, 0]),
   midi.NoteOnEvent(tick=3237600, channel=0, data=[4, 100]),
   midi.NoteOffEvent(tick=3237700, channel=0, data=[4, 0]),
   midi.NoteOnEvent(tick=3237800, channel=0, data=[19, 100]),
   midi.NoteOffEvent(tick=3237900, channel=0, data=[19, 0]),
   midi.NoteOnEvent(tick=3238000, channel=0, data=[7, 100]),
   midi.NoteOffEvent(tick=3238100, channel=0, data=[7, 0]),
   midi.NoteOnEvent(tick=3238200, channel=0, data=[14, 100]),
   midi.NoteOffEvent(tick=3238300, channel=0, data=[14, 0]),
   midi.NoteOnEvent(tick=3238400, channel=0, data=[3, 100]),
   midi.NoteOffEvent(tick=3238500, channel=0, data=[3, 0]),
   midi.NoteOnEvent(tick=3238600, channel=0, data=[36, 100]),
   midi.NoteOffEvent(tick=3238700, channel=0, data=[36, 0]),
   midi.NoteOnEvent(tick=3238800, channel=0, data=[13, 100]),
   midi.NoteOffEvent(tick=3238900, channel=0, data=[13, 0]),
   midi.NoteOnEvent(tick=3239000, channel=0, data=[0, 100]),
   midi.NoteOffEvent(tick=3239100, channel=0, data=[0, 0]),
   midi.NoteOnEvent(tick=3239200, channel=0, data=[12, 100]),
   midi.NoteOffEvent(tick=3239300, channel=0, data=[12, 0]),
   midi.NoteOnEvent(tick=3239400, channel=0, data=[4, 100]),
   midi.NoteOffEvent(tick=3239500, channel=0, data=[4, 0]),
   midi.NoteOnEvent(tick=3239600, channel=0, data=[38, 100]),
   midi.NoteOffEvent(tick=3239700, channel=0, data=[38, 0]),
   midi.NoteOnEvent(tick=3239800, channel=0, data=[36, 100]),
   midi.NoteOffEvent(tick=3239900, channel=0, data=[36, 0]),
   midi.NoteOnEvent(tick=3240000, channel=0, data=[4, 100]),
   midi.NoteOffEvent(tick=3240100, channel=0, data=[4, 0]),
   midi.NoteOnEvent(tick=3240200, channel=0, data=[21, 100]),
   midi.NoteOffEvent(tick=3240300, channel=0, data=[21, 0]),
   midi.NoteOnEvent(tick=3240400, channel=0, data=[4, 100]),
   midi.NoteOffEvent(tick=3240500, channel=0, data=[4, 0]),
   midi.NoteOnEvent(tick=3240600, channel=0, data=[13, 100]),
   midi.NoteOffEvent(tick=3240700, channel=0, data=[13, 0]),
   midi.NoteOnEvent(tick=3240800, channel=0, data=[36, 100]),
   midi.NoteOffEvent(tick=3240900, channel=0, data=[36, 0]),
   midi.NoteOnEvent(tick=3241000, channel=0, data=[19, 100]),
   midi.NoteOffEvent(tick=3241100, channel=0, data=[19, 0]),
   midi.NoteOnEvent(tick=3241200, channel=0, data=[7, 100]),
   midi.NoteOffEvent(tick=3241300, channel=0, data=[7, 0]),
   midi.NoteOnEvent(tick=3241400, channel=0, data=[14, 100]),
   midi.NoteOffEvent(tick=3241500, channel=0, data=[14, 0]),
   midi.NoteOnEvent(tick=3241600, channel=0, data=[20, 100]),
   midi.NoteOffEvent(tick=3241700, channel=0, data=[20, 0]),
   midi.NoteOnEvent(tick=3241800, channel=0, data=[6, 100]),
   midi.NoteOffEvent(tick=3241900, channel=0, data=[6, 0]),
   midi.NoteOnEvent(tick=3242000, channel=0, data=[7, 100]),
   midi.NoteOffEvent(tick=3242100, channel=0, data=[7, 0]),
   midi.NoteOnEvent(tick=3242200, channel=0, data=[36, 100]),
   midi.NoteOffEvent(tick=3242300, channel=0, data=[36, 0]),
   midi.NoteOnEvent(tick=3242400, channel=0, data=[19, 100]),
   midi.NoteOffEvent(tick=3242500, channel=0, data=[19, 0]),
   midi.NoteOnEvent(tick=3242600, channel=0, data=[7, 100]),
   midi.NoteOffEvent(tick=3242700, channel=0, data=[7, 0]),
   midi.NoteOnEvent(tick=3242800, channel=0, data=[4, 100]),
   midi.NoteOffEvent(tick=3242900, channel=0, data=[4, 0]),
   midi.NoteOnEvent(tick=3243000, channel=0, data=[36, 100]),
   midi.NoteOffEvent(tick=3243100, channel=0, data=[36, 0]),
   midi.NoteOnEvent(tick=3243200, channel=0, data=[12, 100]),
   midi.NoteOffEvent(tick=3243300, channel=0, data=[12, 0]),
   midi.NoteOnEvent(tick=3243400, channel=0, data=[4, 100]),
   midi.NoteOffEvent(tick=3243500, channel=0, data=[4, 0]),
   midi.NoteOnEvent(tick=3243600, channel=0, data=[19, 100]),
   midi.NoteOffEvent(tick=3243700, channel=0, data=[19, 0]),
   midi.NoteOnEvent(tick=3243800, channel=0, data=[7, 100]),
   midi.NoteOffEvent(tick=3243900, channel=0, data=[7, 0]),
   midi.NoteOnEvent(tick=3244000, channel=0, data=[14, 100]),
   midi.NoteOffEvent(tick=3244100, channel=0, data=[14, 0]),
   midi.NoteOnEvent(tick=3244200, channel=0, data=[3, 100]),
   midi.NoteOffEvent(tick=3244300, channel=0, data=[3, 0]),
   midi.NoteOnEvent(tick=3244400, channel=0, data=[36, 100]),
   midi.NoteOffEvent(tick=3244500, channel=0, data=[36, 0]),
   midi.NoteOnEvent(tick=3244600, channel=0, data=[2, 100]),
   midi.NoteOffEvent(tick=3244700, channel=0, data=[2, 0]),
   midi.NoteOnEvent(tick=3244800, channel=0, data=[0, 100]),
   midi.NoteOffEvent(tick=3244900, channel=0, data=[0, 0]),
   midi.NoteOnEvent(tick=3245000, channel=0, data=[11, 100]),
   midi.NoteOffEvent(tick=3245100, channel=0, data=[11, 0]),
   midi.NoteOnEvent(tick=3245200, channel=0, data=[11, 100]),
   midi.NoteOffEvent(tick=3245300, channel=0, data=[11, 0]),
   midi.NoteOnEvent(tick=3245400, channel=0, data=[36, 100]),
   midi.NoteOffEvent(tick=3245500, channel=0, data=[36, 0]),
   midi.NoteOnEvent(tick=3245600, channel=0, data=[7, 100]),
   midi.NoteOffEvent(tick=3245700, channel=0, data=[7, 0]),
   midi.NoteOnEvent(tick=3245800, channel=0, data=[0, 100]),
   midi.NoteOffEvent(tick=3245900, channel=0, data=[0, 0]),
   midi.NoteOnEvent(tick=3246000, channel=0, data=[18, 100]),
   midi.NoteOffEvent(tick=3246100, channel=0, data=[18, 0]),
   midi.NoteOnEvent(tick=3246200, channel=0, data=[36, 100]),
   midi.NoteOffEvent(tick=3246300, channel=0, data=[36, 0]),
   midi.NoteOnEvent(tick=3246400, channel=0, data=[13, 100]),
   midi.NoteOffEvent(tick=3246500, channel=0, data=[13, 0]),
   midi.NoteOnEvent(tick=3246600, channel=0, data=[14, 100]),
   midi.NoteOffEvent(tick=3246700, channel=0, data=[14, 0]),
   midi.NoteOnEvent(tick=3246800, channel=0, data=[36, 100]),
   midi.NoteOffEvent(tick=3246900, channel=0, data=[36, 0]),
   midi.NoteOnEvent(tick=3247000, channel=0, data=[0, 100]),
   midi.NoteOffEvent(tick=3247100, channel=0, data=[0, 0]),
   midi.NoteOnEvent(tick=3247200, channel=0, data=[17, 100]),
   midi.NoteOffEvent(tick=3247300, channel=0, data=[17, 0]),
   midi.NoteOnEvent(tick=3247400, channel=0, data=[6, 100]),
   midi.NoteOffEvent(tick=3247500, channel=0, data=[6, 0]),
   midi.NoteOnEvent(tick=3247600, channel=0, data=[20, 100]),
   midi.NoteOffEvent(tick=3247700, channel=0, data=[20, 0]),
   midi.NoteOnEvent(tick=3247800, channel=0, data=[12, 100]),
   midi.NoteOffEvent(tick=3247900, channel=0, data=[12, 0]),
   midi.NoteOnEvent(tick=3248000, channel=0, data=[4, 100]),
   midi.NoteOffEvent(tick=3248100, channel=0, data=[4, 0]),
   midi.NoteOnEvent(tick=3248200, channel=0, data=[13, 100]),
   midi.NoteOffEvent(tick=3248300, channel=0, data=[13, 0]),
   midi.NoteOnEvent(tick=3248400, channel=0, data=[19, 100]),
   midi.NoteOffEvent(tick=3248500, channel=0, data=[19, 0]),
   midi.NoteOnEvent(tick=3248600, channel=0, data=[18, 100]),
   midi.NoteOffEvent(tick=3248700, channel=0, data=[18, 0]),
   midi.NoteOnEvent(tick=3248800, channel=0, data=[46, 100]),
   midi.NoteOffEvent(tick=3248900, channel=0, data=[46, 0]),
   midi.NoteOnEvent(tick=3249000, channel=0, data=[56, 100]),
   midi.NoteOffEvent(tick=3249100, channel=0, data=[56, 0]),
   midi.NoteOnEvent(tick=3249200, channel=0, data=[56, 100]),
   midi.NoteOffEvent(tick=3249300, channel=0, data=[56, 0]),
   midi.NoteOnEvent(tick=3249400, channel=0, data=[56, 100]),
   midi.NoteOffEvent(tick=3249500, channel=0, data=[56, 0]),
   midi.NoteOnEvent(tick=3249600, channel=0, data=[36, 100]),
   midi.NoteOffEvent(tick=3249700, channel=0, data=[36, 0]),
   midi.NoteOnEvent(tick=3249800, channel=0, data=[36, 100]),
   midi.NoteOffEvent(tick=3249900, channel=0, data=[36, 0]),
   midi.NoteOnEvent(tick=3250000, channel=0, data=[36, 100]),
   midi.NoteOffEvent(tick=3250100, channel=0, data=[36, 0]),
   midi.NoteOnEvent(tick=3250200, channel=0, data=[36, 100]),
   midi.NoteOffEvent(tick=3250300, channel=0, data=[36, 0]),
   midi.NoteOnEvent(tick=3250400, channel=0, data=[36, 100]),
   midi.NoteOffEvent(tick=3250500, channel=0, data=[36, 0]),
   midi.NoteOnEvent(tick=3250600, channel=0, data=[36, 100]),
   midi.NoteOffEvent(tick=3250700, channel=0, data=[36, 0]),
   midi.NoteOnEvent(tick=3250800, channel=0, data=[36, 100]),
   midi.NoteOffEvent(tick=3250900, channel=0, data=[36, 0]),
   midi.NoteOnEvent(tick=3251000, channel=0, data=[36, 100]),
   midi.NoteOffEvent(tick=3251100, channel=0, data=[36, 0]),
   midi.NoteOnEvent(tick=3251200, channel=0, data=[2, 100]),
   midi.NoteOffEvent(tick=3251300, channel=0, data=[2, 0]),
   midi.NoteOnEvent(tick=3251400, channel=0, data=[46, 100]),
   midi.NoteOffEvent(tick=3251500, channel=0, data=[46, 0]),
   midi.NoteOnEvent(tick=3251600, channel=0, data=[78, 100]),
   midi.NoteOffEvent(tick=3251700, channel=0, data=[78, 0]),
   midi.NoteOnEvent(tick=3251800, channel=0, data=[15, 100]),
   midi.NoteOffEvent(tick=3251900, channel=0, data=[15, 0]),
   midi.NoteOnEvent(tick=3252000, channel=0, data=[18, 100]),
   midi.NoteOffEvent(tick=3252100, channel=0, data=[18, 0]),
   midi.NoteOnEvent(tick=3252200, channel=0, data=[73, 100]),
   midi.NoteOffEvent(tick=3252300, channel=0, data=[73, 0]),
   midi.NoteOnEvent(tick=3252400, channel=0, data=[36, 100]),
   midi.NoteOffEvent(tick=3252500, channel=0, data=[36, 0]),
   midi.NoteOnEvent(tick=3252600, channel=0, data=[74, 100]),
   midi.NoteOffEvent(tick=3252700, channel=0, data=[74, 0]),
   midi.NoteOnEvent(tick=3252800, channel=0, data=[0, 100]),
   midi.NoteOffEvent(tick=3252900, channel=0, data=[0, 0]),
   midi.NoteOnEvent(tick=3253000, channel=0, data=[36, 100]),
   midi.NoteOffEvent(tick=3253100, channel=0, data=[36, 0]),
   midi.NoteOnEvent(tick=3253200, channel=0, data=[69, 100]),
   midi.NoteOffEvent(tick=3253300, channel=0, data=[69, 0]),
   midi.NoteOnEvent(tick=3253400, channel=0, data=[36, 100]),
   midi.NoteOffEvent(tick=3253500, channel=0, data=[36, 0]),
   midi.NoteOnEvent(tick=3253600, channel=0, data=[32, 100]),
   midi.NoteOffEvent(tick=3253700, channel=0, data=[32, 0]),
   midi.NoteOnEvent(tick=3253800, channel=0, data=[36, 100]),
   midi.NoteOffEvent(tick=3253900, channel=0, data=[36, 0]),
   midi.NoteOnEvent(tick=3254000, channel=0, data=[56, 100]),
   midi.NoteOffEvent(tick=3254100, channel=0, data=[56, 0]),
   midi.NoteOnEvent(tick=3254200, channel=0, data=[36, 100]),
   midi.NoteOffEvent(tick=3254300, channel=0, data=[36, 0]),
   midi.NoteOnEvent(tick=3254400, channel=0, data=[36, 100]),
   midi.NoteOffEvent(tick=3254500, channel=0, data=[36, 0]),
   midi.NoteOnEvent(tick=3254600, channel=0, data=[36, 100]),
   midi.NoteOffEvent(tick=3254700, channel=0, data=[36, 0]),
   midi.NoteOnEvent(tick=3254800, channel=0, data=[36, 100]),
   midi.NoteOffEvent(tick=3254900, channel=0, data=[36, 0]),
   midi.NoteOnEvent(tick=3255000, channel=0, data=[36, 100]),
   midi.NoteOffEvent(tick=3255100, channel=0, data=[36, 0]),
   midi.NoteOnEvent(tick=3255200, channel=0, data=[36, 100]),
   midi.NoteOffEvent(tick=3255300, channel=0, data=[36, 0]),
   midi.NoteOnEvent(tick=3255400, channel=0, data=[36, 100]),
   midi.NoteOffEvent(tick=3255500, channel=0, data=[36, 0]),
   midi.NoteOnEvent(tick=3255600, channel=0, data=[36, 100]),
   midi.NoteOffEvent(tick=3255700, channel=0, data=[36, 0]),
   midi.NoteOnEvent(tick=3255800, channel=0, data=[2, 100]),
   midi.NoteOffEvent(tick=3255900, channel=0, data=[2, 0]),
   midi.NoteOnEvent(tick=3256000, channel=0, data=[46, 100]),
   midi.NoteOffEvent(tick=3256100, channel=0, data=[46, 0]),
   midi.NoteOnEvent(tick=3256200, channel=0, data=[78, 100]),
   midi.NoteOffEvent(tick=3256300, channel=0, data=[78, 0]),
   midi.NoteOnEvent(tick=3256400, channel=0, data=[15, 100]),
   midi.NoteOffEvent(tick=3256500, channel=0, data=[15, 0]),
   midi.NoteOnEvent(tick=3256600, channel=0, data=[18, 100]),
   midi.NoteOffEvent(tick=3256700, channel=0, data=[18, 0]),
   midi.NoteOnEvent(tick=3256800, channel=0, data=[73, 100]),
   midi.NoteOffEvent(tick=3256900, channel=0, data=[73, 0]),
   midi.NoteOnEvent(tick=3257000, channel=0, data=[36, 100]),
   midi.NoteOffEvent(tick=3257100, channel=0, data=[36, 0]),
   midi.NoteOnEvent(tick=3257200, channel=0, data=[74, 100]),
   midi.NoteOffEvent(tick=3257300, channel=0, data=[74, 0]),
   midi.NoteOnEvent(tick=3257400, channel=0, data=[0, 100]),
   midi.NoteOffEvent(tick=3257500, channel=0, data=[0, 0]),
   midi.NoteOnEvent(tick=3257600, channel=0, data=[37, 100]),
   midi.NoteOffEvent(tick=3257700, channel=0, data=[37, 0]),
   midi.NoteOnEvent(tick=3257800, channel=0, data=[6, 100]),
   midi.NoteOffEvent(tick=3257900, channel=0, data=[6, 0]),
   midi.NoteOnEvent(tick=3258000, channel=0, data=[4, 100]),
   midi.NoteOffEvent(tick=3258100, channel=0, data=[4, 0]),
   midi.NoteOnEvent(tick=3258200, channel=0, data=[19, 100]),
   midi.NoteOffEvent(tick=3258300, channel=0, data=[19, 0]),
   midi.NoteOnEvent(tick=3258400, channel=0, data=[19, 100]),
   midi.NoteOffEvent(tick=3258500, channel=0, data=[19, 0]),
   midi.NoteOnEvent(tick=3258600, channel=0, data=[24, 100]),
   midi.NoteOffEvent(tick=3258700, channel=0, data=[24, 0]),
   midi.NoteOnEvent(tick=3258800, channel=0, data=[15, 100]),
   midi.NoteOffEvent(tick=3258900, channel=0, data=[15, 0]),
   midi.NoteOnEvent(tick=3259000, channel=0, data=[4, 100]),
   midi.NoteOffEvent(tick=3259100, channel=0, data=[4, 0]),
   midi.NoteOnEvent(tick=3259200, channel=0, data=[49, 100]),
   midi.NoteOffEvent(tick=3259300, channel=0, data=[49, 0]),
   midi.NoteOnEvent(tick=3259400, channel=0, data=[50, 100]),
   midi.NoteOffEvent(tick=3259500, channel=0, data=[50, 0]),
   midi.NoteOnEvent(tick=3259600, channel=0, data=[37, 100]),
   midi.NoteOffEvent(tick=3259700, channel=0, data=[37, 0]),
   midi.NoteOnEvent(tick=3259800, channel=0, data=[5, 100]),
   midi.NoteOffEvent(tick=3259900, channel=0, data=[5, 0]),
   midi.NoteOnEvent(tick=3260000, channel=0, data=[20, 100]),
   midi.NoteOffEvent(tick=3260100, channel=0, data=[20, 0]),
   midi.NoteOnEvent(tick=3260200, channel=0, data=[11, 100]),
   midi.NoteOffEvent(tick=3260300, channel=0, data=[11, 0]),
   midi.NoteOnEvent(tick=3260400, channel=0, data=[11, 100]),
   midi.NoteOffEvent(tick=3260500, channel=0, data=[11, 0]),
   midi.NoteOnEvent(tick=3260600, channel=0, data=[13, 100]),
   midi.NoteOffEvent(tick=3260700, channel=0, data=[13, 0]),
   midi.NoteOnEvent(tick=3260800, channel=0, data=[0, 100]),
   midi.NoteOffEvent(tick=3260900, channel=0, data=[0, 0]),
   midi.NoteOnEvent(tick=3261000, channel=0, data=[12, 100]),
   midi.NoteOffEvent(tick=3261100, channel=0, data=[12, 0]),
   midi.NoteOnEvent(tick=3261200, channel=0, data=[4, 100]),
   midi.NoteOffEvent(tick=3261300, channel=0, data=[4, 0]),
   midi.NoteOnEvent(tick=3261400, channel=0, data=[36, 100]),
   midi.NoteOffEvent(tick=3261500, channel=0, data=[36, 0]),
   midi.NoteOnEvent(tick=3261600, channel=0, data=[56, 100]),
   midi.NoteOffEvent(tick=3261700, channel=0, data=[56, 0]),
   midi.NoteOnEvent(tick=3261800, channel=0, data=[36, 100]),
   midi.NoteOffEvent(tick=3261900, channel=0, data=[36, 0]),
   midi.NoteOnEvent(tick=3262000, channel=0, data=[36, 100]),
   midi.NoteOffEvent(tick=3262100, channel=0, data=[36, 0]),
   midi.NoteOnEvent(tick=3262200, channel=0, data=[36, 100]),
   midi.NoteOffEvent(tick=3262300, channel=0, data=[36, 0]),
   midi.NoteOnEvent(tick=3262400, channel=0, data=[36, 100]),
   midi.NoteOffEvent(tick=3262500, channel=0, data=[36, 0]),
   midi.NoteOnEvent(tick=3262600, channel=0, data=[36, 100]),
   midi.NoteOffEvent(tick=3262700, channel=0, data=[36, 0]),
   midi.NoteOnEvent(tick=3262800, channel=0, data=[36, 100]),
   midi.NoteOffEvent(tick=3262900, channel=0, data=[36, 0]),
   midi.NoteOnEvent(tick=3263000, channel=0, data=[36, 100]),
   midi.NoteOffEvent(tick=3263100, channel=0, data=[36, 0]),
   midi.NoteOnEvent(tick=3263200, channel=0, data=[36, 100]),
   midi.NoteOffEvent(tick=3263300, channel=0, data=[36, 0]),
   midi.NoteOnEvent(tick=3263400, channel=0, data=[18, 100]),
   midi.NoteOffEvent(tick=3263500, channel=0, data=[18, 0]),
   midi.NoteOnEvent(tick=3263600, channel=0, data=[24, 100]),
   midi.NoteOffEvent(tick=3263700, channel=0, data=[24, 0]),
   midi.NoteOnEvent(tick=3263800, channel=0, data=[18, 100]),
   midi.NoteOffEvent(tick=3263900, channel=0, data=[18, 0]),
   midi.NoteOnEvent(tick=3264000, channel=0, data=[19, 100]),
   midi.NoteOffEvent(tick=3264100, channel=0, data=[19, 0]),
   midi.NoteOnEvent(tick=3264200, channel=0, data=[4, 100]),
   midi.NoteOffEvent(tick=3264300, channel=0, data=[4, 0]),
   midi.NoteOnEvent(tick=3264400, channel=0, data=[12, 100]),
   midi.NoteOffEvent(tick=3264500, channel=0, data=[12, 0]),
   midi.NoteOnEvent(tick=3264600, channel=0, data=[37, 100]),
   midi.NoteOffEvent(tick=3264700, channel=0, data=[37, 0]),
   midi.NoteOnEvent(tick=3264800, channel=0, data=[8, 100]),
   midi.NoteOffEvent(tick=3264900, channel=0, data=[8, 0]),
   midi.NoteOnEvent(tick=3265000, channel=0, data=[13, 100]),
   midi.NoteOffEvent(tick=3265100, channel=0, data=[13, 0]),
   midi.NoteOnEvent(tick=3265200, channel=0, data=[19, 100]),
   midi.NoteOffEvent(tick=3265300, channel=0, data=[19, 0]),
   midi.NoteOnEvent(tick=3265400, channel=0, data=[29, 100]),
   midi.NoteOffEvent(tick=3265500, channel=0, data=[29, 0]),
   midi.NoteOnEvent(tick=3265600, channel=0, data=[28, 100]),
   midi.NoteOffEvent(tick=3265700, channel=0, data=[28, 0]),
   midi.NoteOnEvent(tick=3265800, channel=0, data=[36, 100]),
   midi.NoteOffEvent(tick=3265900, channel=0, data=[36, 0]),
   midi.NoteOnEvent(tick=3266000, channel=0, data=[56, 100]),
   midi.NoteOffEvent(tick=3266100, channel=0, data=[56, 0]),
   midi.NoteOnEvent(tick=3266200, channel=0, data=[56, 100]),
   midi.NoteOffEvent(tick=3266300, channel=0, data=[56, 0]),
   midi.NoteOnEvent(tick=3266400, channel=0, data=[56, 100]),
   midi.NoteOffEvent(tick=3266500, channel=0, data=[56, 0]),
   midi.NoteOnEvent(tick=3266600, channel=0, data=[36, 100]),
   midi.NoteOffEvent(tick=3266700, channel=0, data=[36, 0]),
   midi.NoteOnEvent(tick=3266800, channel=0, data=[36, 100]),
   midi.NoteOffEvent(tick=3266900, channel=0, data=[36, 0]),
   midi.NoteOnEvent(tick=3267000, channel=0, data=[36, 100]),
   midi.NoteOffEvent(tick=3267100, channel=0, data=[36, 0]),
   midi.NoteOnEvent(tick=3267200, channel=0, data=[36, 100]),
   midi.NoteOffEvent(tick=3267300, channel=0, data=[36, 0]),
   midi.NoteOnEvent(tick=3267400, channel=0, data=[19, 100]),
   midi.NoteOffEvent(tick=3267500, channel=0, data=[19, 0]),
   midi.NoteOnEvent(tick=3267600, channel=0, data=[14, 100]),
   midi.NoteOffEvent(tick=3267700, channel=0, data=[14, 0]),
   midi.NoteOnEvent(tick=3267800, channel=0, data=[36, 100]),
   midi.NoteOffEvent(tick=3267900, channel=0, data=[36, 0]),
   midi.NoteOnEvent(tick=3268000, channel=0, data=[2, 100]),
   midi.NoteOffEvent(tick=3268100, channel=0, data=[2, 0]),
   midi.NoteOnEvent(tick=3268200, channel=0, data=[17, 100]),
   midi.NoteOffEvent(tick=3268300, channel=0, data=[17, 0]),
   midi.NoteOnEvent(tick=3268400, channel=0, data=[4, 100]),
   midi.NoteOffEvent(tick=3268500, channel=0, data=[4, 0]),
   midi.NoteOnEvent(tick=3268600, channel=0, data=[0, 100]),
   midi.NoteOffEvent(tick=3268700, channel=0, data=[0, 0]),
   midi.NoteOnEvent(tick=3268800, channel=0, data=[19, 100]),
   midi.NoteOffEvent(tick=3268900, channel=0, data=[19, 0]),
   midi.NoteOnEvent(tick=3269000, channel=0, data=[4, 100]),
   midi.NoteOffEvent(tick=3269100, channel=0, data=[4, 0]),
   midi.NoteOnEvent(tick=3269200, channel=0, data=[36, 100]),
   midi.NoteOffEvent(tick=3269300, channel=0, data=[36, 0]),
   midi.NoteOnEvent(tick=3269400, channel=0, data=[0, 100]),
   midi.NoteOffEvent(tick=3269500, channel=0, data=[0, 0]),
   midi.NoteOnEvent(tick=3269600, channel=0, data=[36, 100]),
   midi.NoteOffEvent(tick=3269700, channel=0, data=[36, 0]),
   midi.NoteOnEvent(tick=3269800, channel=0, data=[21, 100]),
   midi.NoteOffEvent(tick=3269900, channel=0, data=[21, 0]),
   midi.NoteOnEvent(tick=3270000, channel=0, data=[0, 100]),
   midi.NoteOffEvent(tick=3270100, channel=0, data=[0, 0]),
   midi.NoteOnEvent(tick=3270200, channel=0, data=[17, 100]),
   midi.NoteOffEvent(tick=3270300, channel=0, data=[17, 0]),
   midi.NoteOnEvent(tick=3270400, channel=0, data=[8, 100]),
   midi.NoteOffEvent(tick=3270500, channel=0, data=[8, 0]),
   midi.NoteOnEvent(tick=3270600, channel=0, data=[0, 100]),
   midi.NoteOffEvent(tick=3270700, channel=0, data=[0, 0]),
   midi.NoteOnEvent(tick=3270800, channel=0, data=[1, 100]),
   midi.NoteOffEvent(tick=3270900, channel=0, data=[1, 0]),
   midi.NoteOnEvent(tick=3271000, channel=0, data=[11, 100]),
   midi.NoteOffEvent(tick=3271100, channel=0, data=[11, 0]),
   midi.NoteOnEvent(tick=3271200, channel=0, data=[4, 100]),
   midi.NoteOffEvent(tick=3271300, channel=0, data=[4, 0]),
   midi.NoteOnEvent(tick=3271400, channel=0, data=[36, 100]),
   midi.NoteOffEvent(tick=3271500, channel=0, data=[36, 0]),
   midi.NoteOnEvent(tick=3271600, channel=0, data=[19, 100]),
   midi.NoteOffEvent(tick=3271700, channel=0, data=[19, 0]),
   midi.NoteOnEvent(tick=3271800, channel=0, data=[7, 100]),
   midi.NoteOffEvent(tick=3271900, channel=0, data=[7, 0]),
   midi.NoteOnEvent(tick=3272000, channel=0, data=[0, 100]),
   midi.NoteOffEvent(tick=3272100, channel=0, data=[0, 0]),
   midi.NoteOnEvent(tick=3272200, channel=0, data=[19, 100]),
   midi.NoteOffEvent(tick=3272300, channel=0, data=[19, 0]),
   midi.NoteOnEvent(tick=3272400, channel=0, data=[36, 100]),
   midi.NoteOffEvent(tick=3272500, channel=0, data=[36, 0]),
   midi.NoteOnEvent(tick=3272600, channel=0, data=[2, 100]),
   midi.NoteOffEvent(tick=3272700, channel=0, data=[2, 0]),
   midi.NoteOnEvent(tick=3272800, channel=0, data=[14, 100]),
   midi.NoteOffEvent(tick=3272900, channel=0, data=[14, 0]),
   midi.NoteOnEvent(tick=3273000, channel=0, data=[13, 100]),
   midi.NoteOffEvent(tick=3273100, channel=0, data=[13, 0]),
   midi.NoteOnEvent(tick=3273200, channel=0, data=[19, 100]),
   midi.NoteOffEvent(tick=3273300, channel=0, data=[19, 0]),
   midi.NoteOnEvent(tick=3273400, channel=0, data=[0, 100]),
   midi.NoteOffEvent(tick=3273500, channel=0, data=[0, 0]),
   midi.NoteOnEvent(tick=3273600, channel=0, data=[8, 100]),
   midi.NoteOffEvent(tick=3273700, channel=0, data=[8, 0]),
   midi.NoteOnEvent(tick=3273800, channel=0, data=[13, 100]),
   midi.NoteOffEvent(tick=3273900, channel=0, data=[13, 0]),
   midi.NoteOnEvent(tick=3274000, channel=0, data=[18, 100]),
   midi.NoteOffEvent(tick=3274100, channel=0, data=[18, 0]),
   midi.NoteOnEvent(tick=3274200, channel=0, data=[36, 100]),
   midi.NoteOffEvent(tick=3274300, channel=0, data=[36, 0]),
   midi.NoteOnEvent(tick=3274400, channel=0, data=[0, 100]),
   midi.NoteOffEvent(tick=3274500, channel=0, data=[0, 0]),
   midi.NoteOnEvent(tick=3274600, channel=0, data=[36, 100]),
   midi.NoteOffEvent(tick=3274700, channel=0, data=[36, 0]),
   midi.NoteOnEvent(tick=3274800, channel=0, data=[18, 100]),
   midi.NoteOffEvent(tick=3274900, channel=0, data=[18, 0]),
   midi.NoteOnEvent(tick=3275000, channel=0, data=[19, 100]),
   midi.NoteOffEvent(tick=3275100, channel=0, data=[19, 0]),
   midi.NoteOnEvent(tick=3275200, channel=0, data=[17, 100]),
   midi.NoteOffEvent(tick=3275300, channel=0, data=[17, 0]),
   midi.NoteOnEvent(tick=3275400, channel=0, data=[8, 100]),
   midi.NoteOffEvent(tick=3275500, channel=0, data=[8, 0]),
   midi.NoteOnEvent(tick=3275600, channel=0, data=[13, 100]),
   midi.NoteOffEvent(tick=3275700, channel=0, data=[13, 0]),
   midi.NoteOnEvent(tick=3275800, channel=0, data=[6, 100]),
   midi.NoteOffEvent(tick=3275900, channel=0, data=[6, 0]),
   midi.NoteOnEvent(tick=3276000, channel=0, data=[38, 100]),
   midi.NoteOffEvent(tick=3276100, channel=0, data=[38, 0]),
   midi.NoteOnEvent(tick=3276200, channel=0, data=[36, 100]),
   midi.NoteOffEvent(tick=3276300, channel=0, data=[36, 0]),
   midi.NoteOnEvent(tick=3276400, channel=0, data=[0, 100]),
   midi.NoteOffEvent(tick=3276500, channel=0, data=[0, 0]),
   midi.NoteOnEvent(tick=3276600, channel=0, data=[18, 100]),
   midi.NoteOffEvent(tick=3276700, channel=0, data=[18, 0]),
   midi.NoteOnEvent(tick=3276800, channel=0, data=[18, 100]),
   midi.NoteOffEvent(tick=3276900, channel=0, data=[18, 0]),
   midi.NoteOnEvent(tick=3277000, channel=0, data=[8, 100]),
   midi.NoteOffEvent(tick=3277100, channel=0, data=[8, 0]),
   midi.NoteOnEvent(tick=3277200, channel=0, data=[6, 100]),
   midi.NoteOffEvent(tick=3277300, channel=0, data=[6, 0]),
   midi.NoteOnEvent(tick=3277400, channel=0, data=[13, 100]),
   midi.NoteOffEvent(tick=3277500, channel=0, data=[13, 0]),
   midi.NoteOnEvent(tick=3277600, channel=0, data=[36, 100]),
   midi.NoteOffEvent(tick=3277700, channel=0, data=[36, 0]),
   midi.NoteOnEvent(tick=3277800, channel=0, data=[0, 100]),
   midi.NoteOffEvent(tick=3277900, channel=0, data=[0, 0]),
   midi.NoteOnEvent(tick=3278000, channel=0, data=[36, 100]),
   midi.NoteOffEvent(tick=3278100, channel=0, data=[36, 0]),
   midi.NoteOnEvent(tick=3278200, channel=0, data=[18, 100]),
   midi.NoteOffEvent(tick=3278300, channel=0, data=[18, 0]),
   midi.NoteOnEvent(tick=3278400, channel=0, data=[19, 100]),
   midi.NoteOffEvent(tick=3278500, channel=0, data=[19, 0]),
   midi.NoteOnEvent(tick=3278600, channel=0, data=[17, 100]),
   midi.NoteOffEvent(tick=3278700, channel=0, data=[17, 0]),
   midi.NoteOnEvent(tick=3278800, channel=0, data=[8, 100]),
   midi.NoteOffEvent(tick=3278900, channel=0, data=[8, 0]),
   midi.NoteOnEvent(tick=3279000, channel=0, data=[13, 100]),
   midi.NoteOffEvent(tick=3279100, channel=0, data=[13, 0]),
   midi.NoteOnEvent(tick=3279200, channel=0, data=[6, 100]),
   midi.NoteOffEvent(tick=3279300, channel=0, data=[6, 0]),
   midi.NoteOnEvent(tick=3279400, channel=0, data=[36, 100]),
   midi.NoteOffEvent(tick=3279500, channel=0, data=[36, 0]),
   midi.NoteOnEvent(tick=3279600, channel=0, data=[21, 100]),
   midi.NoteOffEvent(tick=3279700, channel=0, data=[21, 0]),
   midi.NoteOnEvent(tick=3279800, channel=0, data=[0, 100]),
   midi.NoteOffEvent(tick=3279900, channel=0, data=[0, 0]),
   midi.NoteOnEvent(tick=3280000, channel=0, data=[11, 100]),
   midi.NoteOffEvent(tick=3280100, channel=0, data=[11, 0]),
   midi.NoteOnEvent(tick=3280200, channel=0, data=[20, 100]),
   midi.NoteOffEvent(tick=3280300, channel=0, data=[20, 0]),
   midi.NoteOnEvent(tick=3280400, channel=0, data=[4, 100]),
   midi.NoteOffEvent(tick=3280500, channel=0, data=[4, 0]),
   midi.NoteOnEvent(tick=3280600, channel=0, data=[36, 100]),
   midi.NoteOffEvent(tick=3280700, channel=0, data=[36, 0]),
   midi.NoteOnEvent(tick=3280800, channel=0, data=[19, 100]),
   midi.NoteOffEvent(tick=3280900, channel=0, data=[19, 0]),
   midi.NoteOnEvent(tick=3281000, channel=0, data=[14, 100]),
   midi.NoteOffEvent(tick=3281100, channel=0, data=[14, 0]),
   midi.NoteOnEvent(tick=3281200, channel=0, data=[36, 100]),
   midi.NoteOffEvent(tick=3281300, channel=0, data=[36, 0]),
   midi.NoteOnEvent(tick=3281400, channel=0, data=[19, 100]),
   midi.NoteOffEvent(tick=3281500, channel=0, data=[19, 0]),
   midi.NoteOnEvent(tick=3281600, channel=0, data=[7, 100]),
   midi.NoteOffEvent(tick=3281700, channel=0, data=[7, 0]),
   midi.NoteOnEvent(tick=3281800, channel=0, data=[4, 100]),
   midi.NoteOffEvent(tick=3281900, channel=0, data=[4, 0]),
   midi.NoteOnEvent(tick=3282000, channel=0, data=[36, 100]),
   midi.NoteOffEvent(tick=3282100, channel=0, data=[36, 0]),
   midi.NoteOnEvent(tick=3282200, channel=0, data=[56, 100]),
   midi.NoteOffEvent(tick=3282300, channel=0, data=[56, 0]),
   midi.NoteOnEvent(tick=3282400, channel=0, data=[36, 100]),
   midi.NoteOffEvent(tick=3282500, channel=0, data=[36, 0]),
   midi.NoteOnEvent(tick=3282600, channel=0, data=[36, 100]),
   midi.NoteOffEvent(tick=3282700, channel=0, data=[36, 0]),
   midi.NoteOnEvent(tick=3282800, channel=0, data=[36, 100]),
   midi.NoteOffEvent(tick=3282900, channel=0, data=[36, 0]),
   midi.NoteOnEvent(tick=3283000, channel=0, data=[36, 100]),
   midi.NoteOffEvent(tick=3283100, channel=0, data=[36, 0]),
   midi.NoteOnEvent(tick=3283200, channel=0, data=[21, 100]),
   midi.NoteOffEvent(tick=3283300, channel=0, data=[21, 0]),
   midi.NoteOnEvent(tick=3283400, channel=0, data=[0, 100]),
   midi.NoteOffEvent(tick=3283500, channel=0, data=[0, 0]),
   midi.NoteOnEvent(tick=3283600, channel=0, data=[17, 100]),
   midi.NoteOffEvent(tick=3283700, channel=0, data=[17, 0]),
   midi.NoteOnEvent(tick=3283800, channel=0, data=[8, 100]),
   midi.NoteOffEvent(tick=3283900, channel=0, data=[8, 0]),
   midi.NoteOnEvent(tick=3284000, channel=0, data=[0, 100]),
   midi.NoteOffEvent(tick=3284100, channel=0, data=[0, 0]),
   midi.NoteOnEvent(tick=3284200, channel=0, data=[1, 100]),
   midi.NoteOffEvent(tick=3284300, channel=0, data=[1, 0]),
   midi.NoteOnEvent(tick=3284400, channel=0, data=[11, 100]),
   midi.NoteOffEvent(tick=3284500, channel=0, data=[11, 0]),
   midi.NoteOnEvent(tick=3284600, channel=0, data=[4, 100]),
   midi.NoteOffEvent(tick=3284700, channel=0, data=[4, 0]),
   midi.NoteOnEvent(tick=3284800, channel=0, data=[37, 100]),
   midi.NoteOffEvent(tick=3284900, channel=0, data=[37, 0]),
   midi.NoteOnEvent(tick=3285000, channel=0, data=[36, 100]),
   midi.NoteOffEvent(tick=3285100, channel=0, data=[36, 0]),
   midi.NoteOnEvent(tick=3285200, channel=0, data=[19, 100]),
   midi.NoteOffEvent(tick=3285300, channel=0, data=[19, 0]),
   midi.NoteOnEvent(tick=3285400, channel=0, data=[14, 100]),
   midi.NoteOffEvent(tick=3285500, channel=0, data=[14, 0]),
   midi.NoteOnEvent(tick=3285600, channel=0, data=[36, 100]),
   midi.NoteOffEvent(tick=3285700, channel=0, data=[36, 0]),
   midi.NoteOnEvent(tick=3285800, channel=0, data=[8, 100]),
   midi.NoteOffEvent(tick=3285900, channel=0, data=[8, 0]),
   midi.NoteOnEvent(tick=3286000, channel=0, data=[13, 100]),
   midi.NoteOffEvent(tick=3286100, channel=0, data=[13, 0]),
   midi.NoteOnEvent(tick=3286200, channel=0, data=[3, 100]),
   midi.NoteOffEvent(tick=3286300, channel=0, data=[3, 0]),
   midi.NoteOnEvent(tick=3286400, channel=0, data=[8, 100]),
   midi.NoteOffEvent(tick=3286500, channel=0, data=[8, 0]),
   midi.NoteOnEvent(tick=3286600, channel=0, data=[2, 100]),
   midi.NoteOffEvent(tick=3286700, channel=0, data=[2, 0]),
   midi.NoteOnEvent(tick=3286800, channel=0, data=[0, 100]),
   midi.NoteOffEvent(tick=3286900, channel=0, data=[0, 0]),
   midi.NoteOnEvent(tick=3287000, channel=0, data=[19, 100]),
   midi.NoteOffEvent(tick=3287100, channel=0, data=[19, 0]),
   midi.NoteOnEvent(tick=3287200, channel=0, data=[4, 100]),
   midi.NoteOffEvent(tick=3287300, channel=0, data=[4, 0]),
   midi.NoteOnEvent(tick=3287400, channel=0, data=[36, 100]),
   midi.NoteOffEvent(tick=3287500, channel=0, data=[36, 0]),
   midi.NoteOnEvent(tick=3287600, channel=0, data=[19, 100]),
   midi.NoteOffEvent(tick=3287700, channel=0, data=[19, 0]),
   midi.NoteOnEvent(tick=3287800, channel=0, data=[7, 100]),
   midi.NoteOffEvent(tick=3287900, channel=0, data=[7, 0]),
   midi.NoteOnEvent(tick=3288000, channel=0, data=[0, 100]),
   midi.NoteOffEvent(tick=3288100, channel=0, data=[0, 0]),
   midi.NoteOnEvent(tick=3288200, channel=0, data=[19, 100]),
   midi.NoteOffEvent(tick=3288300, channel=0, data=[19, 0]),
   midi.NoteOnEvent(tick=3288400, channel=0, data=[36, 100]),
   midi.NoteOffEvent(tick=3288500, channel=0, data=[36, 0]),
   midi.NoteOnEvent(tick=3288600, channel=0, data=[19, 100]),
   midi.NoteOffEvent(tick=3288700, channel=0, data=[19, 0]),
   midi.NoteOnEvent(tick=3288800, channel=0, data=[7, 100]),
   midi.NoteOffEvent(tick=3288900, channel=0, data=[7, 0]),
   midi.NoteOnEvent(tick=3289000, channel=0, data=[4, 100]),
   midi.NoteOffEvent(tick=3289100, channel=0, data=[4, 0]),
   midi.NoteOnEvent(tick=3289200, channel=0, data=[36, 100]),
   midi.NoteOffEvent(tick=3289300, channel=0, data=[36, 0]),
   midi.NoteOnEvent(tick=3289400, channel=0, data=[21, 100]),
   midi.NoteOffEvent(tick=3289500, channel=0, data=[21, 0]),
   midi.NoteOnEvent(tick=3289600, channel=0, data=[0, 100]),
   midi.NoteOffEvent(tick=3289700, channel=0, data=[0, 0]),
   midi.NoteOnEvent(tick=3289800, channel=0, data=[11, 100]),
   midi.NoteOffEvent(tick=3289900, channel=0, data=[11, 0]),
   midi.NoteOnEvent(tick=3290000, channel=0, data=[20, 100]),
   midi.NoteOffEvent(tick=3290100, channel=0, data=[20, 0]),
   midi.NoteOnEvent(tick=3290200, channel=0, data=[4, 100]),
   midi.NoteOffEvent(tick=3290300, channel=0, data=[4, 0]),
   midi.NoteOnEvent(tick=3290400, channel=0, data=[36, 100]),
   midi.NoteOffEvent(tick=3290500, channel=0, data=[36, 0]),
   midi.NoteOnEvent(tick=3290600, channel=0, data=[8, 100]),
   midi.NoteOffEvent(tick=3290700, channel=0, data=[8, 0]),
   midi.NoteOnEvent(tick=3290800, channel=0, data=[18, 100]),
   midi.NoteOffEvent(tick=3290900, channel=0, data=[18, 0]),
   midi.NoteOnEvent(tick=3291000, channel=0, data=[36, 100]),
   midi.NoteOffEvent(tick=3291100, channel=0, data=[36, 0]),
   midi.NoteOnEvent(tick=3291200, channel=0, data=[0, 100]),
   midi.NoteOffEvent(tick=3291300, channel=0, data=[0, 0]),
   midi.NoteOnEvent(tick=3291400, channel=0, data=[36, 100]),
   midi.NoteOffEvent(tick=3291500, channel=0, data=[36, 0]),
   midi.NoteOnEvent(tick=3291600, channel=0, data=[18, 100]),
   midi.NoteOffEvent(tick=3291700, channel=0, data=[18, 0]),
   midi.NoteOnEvent(tick=3291800, channel=0, data=[19, 100]),
   midi.NoteOffEvent(tick=3291900, channel=0, data=[19, 0]),
   midi.NoteOnEvent(tick=3292000, channel=0, data=[17, 100]),
   midi.NoteOffEvent(tick=3292100, channel=0, data=[17, 0]),
   midi.NoteOnEvent(tick=3292200, channel=0, data=[8, 100]),
   midi.NoteOffEvent(tick=3292300, channel=0, data=[8, 0]),
   midi.NoteOnEvent(tick=3292400, channel=0, data=[13, 100]),
   midi.NoteOffEvent(tick=3292500, channel=0, data=[13, 0]),
   midi.NoteOnEvent(tick=3292600, channel=0, data=[6, 100]),
   midi.NoteOffEvent(tick=3292700, channel=0, data=[6, 0]),
   midi.NoteOnEvent(tick=3292800, channel=0, data=[38, 100]),
   midi.NoteOffEvent(tick=3292900, channel=0, data=[38, 0]),
   midi.NoteOnEvent(tick=3293000, channel=0, data=[36, 100]),
   midi.NoteOffEvent(tick=3293100, channel=0, data=[36, 0]),
   midi.NoteOnEvent(tick=3293200, channel=0, data=[4, 100]),
   midi.NoteOffEvent(tick=3293300, channel=0, data=[4, 0]),
   midi.NoteOnEvent(tick=3293400, channel=0, data=[13, 100]),
   midi.NoteOffEvent(tick=3293500, channel=0, data=[13, 0]),
   midi.NoteOnEvent(tick=3293600, channel=0, data=[2, 100]),
   midi.NoteOffEvent(tick=3293700, channel=0, data=[2, 0]),
   midi.NoteOnEvent(tick=3293800, channel=0, data=[11, 100]),
   midi.NoteOffEvent(tick=3293900, channel=0, data=[11, 0]),
   midi.NoteOnEvent(tick=3294000, channel=0, data=[14, 100]),
   midi.NoteOffEvent(tick=3294100, channel=0, data=[14, 0]),
   midi.NoteOnEvent(tick=3294200, channel=0, data=[18, 100]),
   midi.NoteOffEvent(tick=3294300, channel=0, data=[18, 0]),
   midi.NoteOnEvent(tick=3294400, channel=0, data=[4, 100]),
   midi.NoteOffEvent(tick=3294500, channel=0, data=[4, 0]),
   midi.NoteOnEvent(tick=3294600, channel=0, data=[36, 100]),
   midi.NoteOffEvent(tick=3294700, channel=0, data=[36, 0]),
   midi.NoteOnEvent(tick=3294800, channel=0, data=[8, 100]),
   midi.NoteOffEvent(tick=3294900, channel=0, data=[8, 0]),
   midi.NoteOnEvent(tick=3295000, channel=0, data=[19, 100]),
   midi.NoteOffEvent(tick=3295100, channel=0, data=[19, 0]),
   midi.NoteOnEvent(tick=3295200, channel=0, data=[36, 100]),
   midi.NoteOffEvent(tick=3295300, channel=0, data=[36, 0]),
   midi.NoteOnEvent(tick=3295400, channel=0, data=[8, 100]),
   midi.NoteOffEvent(tick=3295500, channel=0, data=[8, 0]),
   midi.NoteOnEvent(tick=3295600, channel=0, data=[13, 100]),
   midi.NoteOffEvent(tick=3295700, channel=0, data=[13, 0]),
   midi.NoteOnEvent(tick=3295800, channel=0, data=[36, 100]),
   midi.NoteOffEvent(tick=3295900, channel=0, data=[36, 0]),
   midi.NoteOnEvent(tick=3296000, channel=0, data=[16, 100]),
   midi.NoteOffEvent(tick=3296100, channel=0, data=[16, 0]),
   midi.NoteOnEvent(tick=3296200, channel=0, data=[20, 100]),
   midi.NoteOffEvent(tick=3296300, channel=0, data=[20, 0]),
   midi.NoteOnEvent(tick=3296400, channel=0, data=[14, 100]),
   midi.NoteOffEvent(tick=3296500, channel=0, data=[14, 0]),
   midi.NoteOnEvent(tick=3296600, channel=0, data=[19, 100]),
   midi.NoteOffEvent(tick=3296700, channel=0, data=[19, 0]),
   midi.NoteOnEvent(tick=3296800, channel=0, data=[0, 100]),
   midi.NoteOffEvent(tick=3296900, channel=0, data=[0, 0]),
   midi.NoteOnEvent(tick=3297000, channel=0, data=[19, 100]),
   midi.NoteOffEvent(tick=3297100, channel=0, data=[19, 0]),
   midi.NoteOnEvent(tick=3297200, channel=0, data=[8, 100]),
   midi.NoteOffEvent(tick=3297300, channel=0, data=[8, 0]),
   midi.NoteOnEvent(tick=3297400, channel=0, data=[14, 100]),
   midi.NoteOffEvent(tick=3297500, channel=0, data=[14, 0]),
   midi.NoteOnEvent(tick=3297600, channel=0, data=[13, 100]),
   midi.NoteOffEvent(tick=3297700, channel=0, data=[13, 0]),
   midi.NoteOnEvent(tick=3297800, channel=0, data=[56, 100]),
   midi.NoteOffEvent(tick=3297900, channel=0, data=[56, 0]),
   midi.NoteOnEvent(tick=3298000, channel=0, data=[36, 100]),
   midi.NoteOffEvent(tick=3298100, channel=0, data=[36, 0]),
   midi.NoteOnEvent(tick=3298200, channel=0, data=[36, 100]),
   midi.NoteOffEvent(tick=3298300, channel=0, data=[36, 0]),
   midi.NoteOnEvent(tick=3298400, channel=0, data=[36, 100]),
   midi.NoteOffEvent(tick=3298500, channel=0, data=[36, 0]),
   midi.NoteOnEvent(tick=3298600, channel=0, data=[36, 100]),
   midi.NoteOffEvent(tick=3298700, channel=0, data=[36, 0]),
   midi.NoteOnEvent(tick=3298800, channel=0, data=[12, 100]),
   midi.NoteOffEvent(tick=3298900, channel=0, data=[12, 0]),
   midi.NoteOnEvent(tick=3299000, channel=0, data=[0, 100]),
   midi.NoteOffEvent(tick=3299100, channel=0, data=[0, 0]),
   midi.NoteOnEvent(tick=3299200, channel=0, data=[17, 100]),
   midi.NoteOffEvent(tick=3299300, channel=0, data=[17, 0]),
   midi.NoteOnEvent(tick=3299400, channel=0, data=[10, 100]),
   midi.NoteOffEvent(tick=3299500, channel=0, data=[10, 0]),
   midi.NoteOnEvent(tick=3299600, channel=0, data=[18, 100]),
   midi.NoteOffEvent(tick=3299700, channel=0, data=[18, 0]),
   midi.NoteOnEvent(tick=3299800, channel=0, data=[38, 100]),
   midi.NoteOffEvent(tick=3299900, channel=0, data=[38, 0]),
   midi.NoteOnEvent(tick=3300000, channel=0, data=[36, 100]),
   midi.NoteOffEvent(tick=3300100, channel=0, data=[36, 0]),
   midi.NoteOnEvent(tick=3300200, channel=0, data=[0, 100]),
   midi.NoteOffEvent(tick=3300300, channel=0, data=[0, 0]),
   midi.NoteOnEvent(tick=3300400, channel=0, data=[18, 100]),
   midi.NoteOffEvent(tick=3300500, channel=0, data=[18, 0]),
   midi.NoteOnEvent(tick=3300600, channel=0, data=[36, 100]),
   midi.NoteOffEvent(tick=3300700, channel=0, data=[36, 0]),
   midi.NoteOnEvent(tick=3300800, channel=0, data=[5, 100]),
   midi.NoteOffEvent(tick=3300900, channel=0, data=[5, 0]),
   midi.NoteOnEvent(tick=3301000, channel=0, data=[14, 100]),
   midi.NoteOffEvent(tick=3301100, channel=0, data=[14, 0]),
   midi.NoteOnEvent(tick=3301200, channel=0, data=[11, 100]),
   midi.NoteOffEvent(tick=3301300, channel=0, data=[11, 0]),
   midi.NoteOnEvent(tick=3301400, channel=0, data=[11, 100]),
   midi.NoteOffEvent(tick=3301500, channel=0, data=[11, 0]),
   midi.NoteOnEvent(tick=3301600, channel=0, data=[14, 100]),
   midi.NoteOffEvent(tick=3301700, channel=0, data=[14, 0]),
   midi.NoteOnEvent(tick=3301800, channel=0, data=[22, 100]),
   midi.NoteOffEvent(tick=3301900, channel=0, data=[22, 0]),
   midi.NoteOnEvent(tick=3302000, channel=0, data=[18, 100]),
   midi.NoteOffEvent(tick=3302100, channel=0, data=[18, 0]),
   midi.NoteOnEvent(tick=3302200, channel=0, data=[46, 100]),
   midi.NoteOffEvent(tick=3302300, channel=0, data=[46, 0]),
   midi.NoteOnEvent(tick=3302400, channel=0, data=[56, 100]),
   midi.NoteOffEvent(tick=3302500, channel=0, data=[56, 0]),
   midi.NoteOnEvent(tick=3302600, channel=0, data=[56, 100]),
   midi.NoteOffEvent(tick=3302700, channel=0, data=[56, 0]),
   midi.NoteOnEvent(tick=3302800, channel=0, data=[56, 100]),
   midi.NoteOffEvent(tick=3302900, channel=0, data=[56, 0]),
   midi.NoteOnEvent(tick=3303000, channel=0, data=[36, 100]),
   midi.NoteOffEvent(tick=3303100, channel=0, data=[36, 0]),
   midi.NoteOnEvent(tick=3303200, channel=0, data=[36, 100]),
   midi.NoteOffEvent(tick=3303300, channel=0, data=[36, 0]),
   midi.NoteOnEvent(tick=3303400, channel=0, data=[36, 100]),
   midi.NoteOffEvent(tick=3303500, channel=0, data=[36, 0]),
   midi.NoteOnEvent(tick=3303600, channel=0, data=[36, 100]),
   midi.NoteOffEvent(tick=3303700, channel=0, data=[36, 0]),
   midi.NoteOnEvent(tick=3303800, channel=0, data=[36, 100]),
   midi.NoteOffEvent(tick=3303900, channel=0, data=[36, 0]),
   midi.NoteOnEvent(tick=3304000, channel=0, data=[36, 100]),
   midi.NoteOffEvent(tick=3304100, channel=0, data=[36, 0]),
   midi.NoteOnEvent(tick=3304200, channel=0, data=[36, 100]),
   midi.NoteOffEvent(tick=3304300, channel=0, data=[36, 0]),
   midi.NoteOnEvent(tick=3304400, channel=0, data=[36, 100]),
   midi.NoteOffEvent(tick=3304500, channel=0, data=[36, 0]),
   midi.NoteOnEvent(tick=3304600, channel=0, data=[2, 100]),
   midi.NoteOffEvent(tick=3304700, channel=0, data=[2, 0]),
   midi.NoteOnEvent(tick=3304800, channel=0, data=[46, 100]),
   midi.NoteOffEvent(tick=3304900, channel=0, data=[46, 0]),
   midi.NoteOnEvent(tick=3305000, channel=0, data=[78, 100]),
   midi.NoteOffEvent(tick=3305100, channel=0, data=[78, 0]),
   midi.NoteOnEvent(tick=3305200, channel=0, data=[15, 100]),
   midi.NoteOffEvent(tick=3305300, channel=0, data=[15, 0]),
   midi.NoteOnEvent(tick=3305400, channel=0, data=[18, 100]),
   midi.NoteOffEvent(tick=3305500, channel=0, data=[18, 0]),
   midi.NoteOnEvent(tick=3305600, channel=0, data=[73, 100]),
   midi.NoteOffEvent(tick=3305700, channel=0, data=[73, 0]),
   midi.NoteOnEvent(tick=3305800, channel=0, data=[36, 100]),
   midi.NoteOffEvent(tick=3305900, channel=0, data=[36, 0]),
   midi.NoteOnEvent(tick=3306000, channel=0, data=[74, 100]),
   midi.NoteOffEvent(tick=3306100, channel=0, data=[74, 0]),
   midi.NoteOnEvent(tick=3306200, channel=0, data=[0, 100]),
   midi.NoteOffEvent(tick=3306300, channel=0, data=[0, 0]),
   midi.NoteOnEvent(tick=3306400, channel=0, data=[36, 100]),
   midi.NoteOffEvent(tick=3306500, channel=0, data=[36, 0]),
   midi.NoteOnEvent(tick=3306600, channel=0, data=[69, 100]),
   midi.NoteOffEvent(tick=3306700, channel=0, data=[69, 0]),
   midi.NoteOnEvent(tick=3306800, channel=0, data=[36, 100]),
   midi.NoteOffEvent(tick=3306900, channel=0, data=[36, 0]),
   midi.NoteOnEvent(tick=3307000, channel=0, data=[41, 100]),
   midi.NoteOffEvent(tick=3307100, channel=0, data=[41, 0]),
   midi.NoteOnEvent(tick=3307200, channel=0, data=[32, 100]),
   midi.NoteOffEvent(tick=3307300, channel=0, data=[32, 0]),
   midi.NoteOnEvent(tick=3307400, channel=0, data=[41, 100]),
   midi.NoteOffEvent(tick=3307500, channel=0, data=[41, 0]),
   midi.NoteOnEvent(tick=3307600, channel=0, data=[56, 100]),
   midi.NoteOffEvent(tick=3307700, channel=0, data=[56, 0]),
   midi.NoteOnEvent(tick=3307800, channel=0, data=[36, 100]),
   midi.NoteOffEvent(tick=3307900, channel=0, data=[36, 0]),
   midi.NoteOnEvent(tick=3308000, channel=0, data=[36, 100]),
   midi.NoteOffEvent(tick=3308100, channel=0, data=[36, 0]),
   midi.NoteOnEvent(tick=3308200, channel=0, data=[36, 100]),
   midi.NoteOffEvent(tick=3308300, channel=0, data=[36, 0]),
   midi.NoteOnEvent(tick=3308400, channel=0, data=[36, 100]),
   midi.NoteOffEvent(tick=3308500, channel=0, data=[36, 0]),
   midi.NoteOnEvent(tick=3308600, channel=0, data=[36, 100]),
   midi.NoteOffEvent(tick=3308700, channel=0, data=[36, 0]),
   midi.NoteOnEvent(tick=3308800, channel=0, data=[36, 100]),
   midi.NoteOffEvent(tick=3308900, channel=0, data=[36, 0]),
   midi.NoteOnEvent(tick=3309000, channel=0, data=[36, 100]),
   midi.NoteOffEvent(tick=3309100, channel=0, data=[36, 0]),
   midi.NoteOnEvent(tick=3309200, channel=0, data=[36, 100]),
   midi.NoteOffEvent(tick=3309300, channel=0, data=[36, 0]),
   midi.NoteOnEvent(tick=3309400, channel=0, data=[2, 100]),
   midi.NoteOffEvent(tick=3309500, channel=0, data=[2, 0]),
   midi.NoteOnEvent(tick=3309600, channel=0, data=[46, 100]),
   midi.NoteOffEvent(tick=3309700, channel=0, data=[46, 0]),
   midi.NoteOnEvent(tick=3309800, channel=0, data=[78, 100]),
   midi.NoteOffEvent(tick=3309900, channel=0, data=[78, 0]),
   midi.NoteOnEvent(tick=3310000, channel=0, data=[15, 100]),
   midi.NoteOffEvent(tick=3310100, channel=0, data=[15, 0]),
   midi.NoteOnEvent(tick=3310200, channel=0, data=[18, 100]),
   midi.NoteOffEvent(tick=3310300, channel=0, data=[18, 0]),
   midi.NoteOnEvent(tick=3310400, channel=0, data=[73, 100]),
   midi.NoteOffEvent(tick=3310500, channel=0, data=[73, 0]),
   midi.NoteOnEvent(tick=3310600, channel=0, data=[36, 100]),
   midi.NoteOffEvent(tick=3310700, channel=0, data=[36, 0]),
   midi.NoteOnEvent(tick=3310800, channel=0, data=[74, 100]),
   midi.NoteOffEvent(tick=3310900, channel=0, data=[74, 0]),
   midi.NoteOnEvent(tick=3311000, channel=0, data=[0, 100]),
   midi.NoteOffEvent(tick=3311100, channel=0, data=[0, 0]),
   midi.NoteOnEvent(tick=3311200, channel=0, data=[37, 100]),
   midi.NoteOffEvent(tick=3311300, channel=0, data=[37, 0]),
   midi.NoteOnEvent(tick=3311400, channel=0, data=[6, 100]),
   midi.NoteOffEvent(tick=3311500, channel=0, data=[6, 0]),
   midi.NoteOnEvent(tick=3311600, channel=0, data=[4, 100]),
   midi.NoteOffEvent(tick=3311700, channel=0, data=[4, 0]),
   midi.NoteOnEvent(tick=3311800, channel=0, data=[19, 100]),
   midi.NoteOffEvent(tick=3311900, channel=0, data=[19, 0]),
   midi.NoteOnEvent(tick=3312000, channel=0, data=[19, 100]),
   midi.NoteOffEvent(tick=3312100, channel=0, data=[19, 0]),
   midi.NoteOnEvent(tick=3312200, channel=0, data=[24, 100]),
   midi.NoteOffEvent(tick=3312300, channel=0, data=[24, 0]),
   midi.NoteOnEvent(tick=3312400, channel=0, data=[15, 100]),
   midi.NoteOffEvent(tick=3312500, channel=0, data=[15, 0]),
   midi.NoteOnEvent(tick=3312600, channel=0, data=[4, 100]),
   midi.NoteOffEvent(tick=3312700, channel=0, data=[4, 0]),
   midi.NoteOnEvent(tick=3312800, channel=0, data=[49, 100]),
   midi.NoteOffEvent(tick=3312900, channel=0, data=[49, 0]),
   midi.NoteOnEvent(tick=3313000, channel=0, data=[50, 100]),
   midi.NoteOffEvent(tick=3313100, channel=0, data=[50, 0]),
   midi.NoteOnEvent(tick=3313200, channel=0, data=[37, 100]),
   midi.NoteOffEvent(tick=3313300, channel=0, data=[37, 0]),
   midi.NoteOnEvent(tick=3313400, channel=0, data=[5, 100]),
   midi.NoteOffEvent(tick=3313500, channel=0, data=[5, 0]),
   midi.NoteOnEvent(tick=3313600, channel=0, data=[20, 100]),
   midi.NoteOffEvent(tick=3313700, channel=0, data=[20, 0]),
   midi.NoteOnEvent(tick=3313800, channel=0, data=[11, 100]),
   midi.NoteOffEvent(tick=3313900, channel=0, data=[11, 0]),
   midi.NoteOnEvent(tick=3314000, channel=0, data=[11, 100]),
   midi.NoteOffEvent(tick=3314100, channel=0, data=[11, 0]),
   midi.NoteOnEvent(tick=3314200, channel=0, data=[13, 100]),
   midi.NoteOffEvent(tick=3314300, channel=0, data=[13, 0]),
   midi.NoteOnEvent(tick=3314400, channel=0, data=[0, 100]),
   midi.NoteOffEvent(tick=3314500, channel=0, data=[0, 0]),
   midi.NoteOnEvent(tick=3314600, channel=0, data=[12, 100]),
   midi.NoteOffEvent(tick=3314700, channel=0, data=[12, 0]),
   midi.NoteOnEvent(tick=3314800, channel=0, data=[4, 100]),
   midi.NoteOffEvent(tick=3314900, channel=0, data=[4, 0]),
   midi.NoteOnEvent(tick=3315000, channel=0, data=[56, 100]),
   midi.NoteOffEvent(tick=3315100, channel=0, data=[56, 0]),
   midi.NoteOnEvent(tick=3315200, channel=0, data=[36, 100]),
   midi.NoteOffEvent(tick=3315300, channel=0, data=[36, 0]),
   midi.NoteOnEvent(tick=3315400, channel=0, data=[36, 100]),
   midi.NoteOffEvent(tick=3315500, channel=0, data=[36, 0]),
   midi.NoteOnEvent(tick=3315600, channel=0, data=[36, 100]),
   midi.NoteOffEvent(tick=3315700, channel=0, data=[36, 0]),
   midi.NoteOnEvent(tick=3315800, channel=0, data=[36, 100]),
   midi.NoteOffEvent(tick=3315900, channel=0, data=[36, 0]),
   midi.NoteOnEvent(tick=3316000, channel=0, data=[36, 100]),
   midi.NoteOffEvent(tick=3316100, channel=0, data=[36, 0]),
   midi.NoteOnEvent(tick=3316200, channel=0, data=[36, 100]),
   midi.NoteOffEvent(tick=3316300, channel=0, data=[36, 0]),
   midi.NoteOnEvent(tick=3316400, channel=0, data=[36, 100]),
   midi.NoteOffEvent(tick=3316500, channel=0, data=[36, 0]),
   midi.NoteOnEvent(tick=3316600, channel=0, data=[36, 100]),
   midi.NoteOffEvent(tick=3316700, channel=0, data=[36, 0]),
   midi.NoteOnEvent(tick=3316800, channel=0, data=[18, 100]),
   midi.NoteOffEvent(tick=3316900, channel=0, data=[18, 0]),
   midi.NoteOnEvent(tick=3317000, channel=0, data=[24, 100]),
   midi.NoteOffEvent(tick=3317100, channel=0, data=[24, 0]),
   midi.NoteOnEvent(tick=3317200, channel=0, data=[18, 100]),
   midi.NoteOffEvent(tick=3317300, channel=0, data=[18, 0]),
   midi.NoteOnEvent(tick=3317400, channel=0, data=[19, 100]),
   midi.NoteOffEvent(tick=3317500, channel=0, data=[19, 0]),
   midi.NoteOnEvent(tick=3317600, channel=0, data=[4, 100]),
   midi.NoteOffEvent(tick=3317700, channel=0, data=[4, 0]),
   midi.NoteOnEvent(tick=3317800, channel=0, data=[12, 100]),
   midi.NoteOffEvent(tick=3317900, channel=0, data=[12, 0]),
   midi.NoteOnEvent(tick=3318000, channel=0, data=[37, 100]),
   midi.NoteOffEvent(tick=3318100, channel=0, data=[37, 0]),
   midi.NoteOnEvent(tick=3318200, channel=0, data=[18, 100]),
   midi.NoteOffEvent(tick=3318300, channel=0, data=[18, 0]),
   midi.NoteOnEvent(tick=3318400, channel=0, data=[19, 100]),
   midi.NoteOffEvent(tick=3318500, channel=0, data=[19, 0]),
   midi.NoteOnEvent(tick=3318600, channel=0, data=[17, 100]),
   midi.NoteOffEvent(tick=3318700, channel=0, data=[17, 0]),
   midi.NoteOnEvent(tick=3318800, channel=0, data=[8, 100]),
   midi.NoteOffEvent(tick=3318900, channel=0, data=[8, 0]),
   midi.NoteOnEvent(tick=3319000, channel=0, data=[13, 100]),
   midi.NoteOffEvent(tick=3319100, channel=0, data=[13, 0]),
   midi.NoteOnEvent(tick=3319200, channel=0, data=[6, 100]),
   midi.NoteOffEvent(tick=3319300, channel=0, data=[6, 0]),
   midi.NoteOnEvent(tick=3319400, channel=0, data=[56, 100]),
   midi.NoteOffEvent(tick=3319500, channel=0, data=[56, 0]),
   midi.NoteOnEvent(tick=3319600, channel=0, data=[56, 100]),
   midi.NoteOffEvent(tick=3319700, channel=0, data=[56, 0]),
   midi.NoteOnEvent(tick=3319800, channel=0, data=[36, 100]),
   midi.NoteOffEvent(tick=3319900, channel=0, data=[36, 0]),
   midi.NoteOnEvent(tick=3320000, channel=0, data=[56, 100]),
   midi.NoteOffEvent(tick=3320100, channel=0, data=[56, 0]),
   midi.NoteOnEvent(tick=3320200, channel=0, data=[36, 100]),
   midi.NoteOffEvent(tick=3320300, channel=0, data=[36, 0]),
   midi.NoteOnEvent(tick=3320400, channel=0, data=[36, 100]),
   midi.NoteOffEvent(tick=3320500, channel=0, data=[36, 0]),
   midi.NoteOnEvent(tick=3320600, channel=0, data=[36, 100]),
   midi.NoteOffEvent(tick=3320700, channel=0, data=[36, 0]),
   midi.NoteOnEvent(tick=3320800, channel=0, data=[36, 100]),
   midi.NoteOffEvent(tick=3320900, channel=0, data=[36, 0]),
   midi.NoteOnEvent(tick=3321000, channel=0, data=[8, 100]),
   midi.NoteOffEvent(tick=3321100, channel=0, data=[8, 0]),
   midi.NoteOnEvent(tick=3321200, channel=0, data=[5, 100]),
   midi.NoteOffEvent(tick=3321300, channel=0, data=[5, 0]),
   midi.NoteOnEvent(tick=3321400, channel=0, data=[36, 100]),
   midi.NoteOffEvent(tick=3321500, channel=0, data=[36, 0]),
   midi.NoteOnEvent(tick=3321600, channel=0, data=[19, 100]),
   midi.NoteOffEvent(tick=3321700, channel=0, data=[19, 0]),
   midi.NoteOnEvent(tick=3321800, channel=0, data=[7, 100]),
   midi.NoteOffEvent(tick=3321900, channel=0, data=[7, 0]),
   midi.NoteOnEvent(tick=3322000, channel=0, data=[4, 100]),
   midi.NoteOffEvent(tick=3322100, channel=0, data=[4, 0]),
   midi.NoteOnEvent(tick=3322200, channel=0, data=[36, 100]),
   midi.NoteOffEvent(tick=3322300, channel=0, data=[36, 0]),
   midi.NoteOnEvent(tick=3322400, channel=0, data=[5, 100]),
   midi.NoteOffEvent(tick=3322500, channel=0, data=[5, 0]),
   midi.NoteOnEvent(tick=3322600, channel=0, data=[8, 100]),
   midi.NoteOffEvent(tick=3322700, channel=0, data=[8, 0]),
   midi.NoteOnEvent(tick=3322800, channel=0, data=[17, 100]),
   midi.NoteOffEvent(tick=3322900, channel=0, data=[17, 0]),
   midi.NoteOnEvent(tick=3323000, channel=0, data=[18, 100]),
   midi.NoteOffEvent(tick=3323100, channel=0, data=[18, 0]),
   midi.NoteOnEvent(tick=3323200, channel=0, data=[19, 100]),
   midi.NoteOffEvent(tick=3323300, channel=0, data=[19, 0]),
   midi.NoteOnEvent(tick=3323400, channel=0, data=[36, 100]),
   midi.NoteOffEvent(tick=3323500, channel=0, data=[36, 0]),
   midi.NoteOnEvent(tick=3323600, channel=0, data=[21, 100]),
   midi.NoteOffEvent(tick=3323700, channel=0, data=[21, 0]),
   midi.NoteOnEvent(tick=3323800, channel=0, data=[0, 100]),
   midi.NoteOffEvent(tick=3323900, channel=0, data=[0, 0]),
   midi.NoteOnEvent(tick=3324000, channel=0, data=[11, 100]),
   midi.NoteOffEvent(tick=3324100, channel=0, data=[11, 0]),
   midi.NoteOnEvent(tick=3324200, channel=0, data=[20, 100]),
   midi.NoteOffEvent(tick=3324300, channel=0, data=[20, 0]),
   midi.NoteOnEvent(tick=3324400, channel=0, data=[4, 100]),
   midi.NoteOffEvent(tick=3324500, channel=0, data=[4, 0]),
   midi.NoteOnEvent(tick=3324600, channel=0, data=[36, 100]),
   midi.NoteOffEvent(tick=3324700, channel=0, data=[36, 0]),
   midi.NoteOnEvent(tick=3324800, channel=0, data=[19, 100]),
   midi.NoteOffEvent(tick=3324900, channel=0, data=[19, 0]),
   midi.NoteOnEvent(tick=3325000, channel=0, data=[7, 100]),
   midi.NoteOffEvent(tick=3325100, channel=0, data=[7, 0]),
   midi.NoteOnEvent(tick=3325200, channel=0, data=[0, 100]),
   midi.NoteOffEvent(tick=3325300, channel=0, data=[0, 0]),
   midi.NoteOnEvent(tick=3325400, channel=0, data=[19, 100]),
   midi.NoteOffEvent(tick=3325500, channel=0, data=[19, 0]),
   midi.NoteOnEvent(tick=3325600, channel=0, data=[36, 100]),
   midi.NoteOffEvent(tick=3325700, channel=0, data=[36, 0]),
   midi.NoteOnEvent(tick=3325800, channel=0, data=[8, 100]),
   midi.NoteOffEvent(tick=3325900, channel=0, data=[8, 0]),
   midi.NoteOnEvent(tick=3326000, channel=0, data=[18, 100]),
   midi.NoteOffEvent(tick=3326100, channel=0, data=[18, 0]),
   midi.NoteOnEvent(tick=3326200, channel=0, data=[36, 100]),
   midi.NoteOffEvent(tick=3326300, channel=0, data=[36, 0]),
   midi.NoteOnEvent(tick=3326400, channel=0, data=[0, 100]),
   midi.NoteOffEvent(tick=3326500, channel=0, data=[0, 0]),
   midi.NoteOnEvent(tick=3326600, channel=0, data=[18, 100]),
   midi.NoteOffEvent(tick=3326700, channel=0, data=[18, 0]),
   midi.NoteOnEvent(tick=3326800, channel=0, data=[18, 100]),
   midi.NoteOffEvent(tick=3326900, channel=0, data=[18, 0]),
   midi.NoteOnEvent(tick=3327000, channel=0, data=[8, 100]),
   midi.NoteOffEvent(tick=3327100, channel=0, data=[8, 0]),
   midi.NoteOnEvent(tick=3327200, channel=0, data=[6, 100]),
   midi.NoteOffEvent(tick=3327300, channel=0, data=[6, 0]),
   midi.NoteOnEvent(tick=3327400, channel=0, data=[13, 100]),
   midi.NoteOffEvent(tick=3327500, channel=0, data=[13, 0]),
   midi.NoteOnEvent(tick=3327600, channel=0, data=[4, 100]),
   midi.NoteOffEvent(tick=3327700, channel=0, data=[4, 0]),
   midi.NoteOnEvent(tick=3327800, channel=0, data=[3, 100]),
   midi.NoteOffEvent(tick=3327900, channel=0, data=[3, 0]),
   midi.NoteOnEvent(tick=3328000, channel=0, data=[36, 100]),
   midi.NoteOffEvent(tick=3328100, channel=0, data=[36, 0]),
   midi.NoteOnEvent(tick=3328200, channel=0, data=[19, 100]),
   midi.NoteOffEvent(tick=3328300, channel=0, data=[19, 0]),
   midi.NoteOnEvent(tick=3328400, channel=0, data=[14, 100]),
   midi.NoteOffEvent(tick=3328500, channel=0, data=[14, 0]),
   midi.NoteOnEvent(tick=3328600, channel=0, data=[36, 100]),
   midi.NoteOffEvent(tick=3328700, channel=0, data=[36, 0]),
   midi.NoteOnEvent(tick=3328800, channel=0, data=[19, 100]),
   midi.NoteOffEvent(tick=3328900, channel=0, data=[19, 0]),
   midi.NoteOnEvent(tick=3329000, channel=0, data=[7, 100]),
   midi.NoteOffEvent(tick=3329100, channel=0, data=[7, 0]),
   midi.NoteOnEvent(tick=3329200, channel=0, data=[4, 100]),
   midi.NoteOffEvent(tick=3329300, channel=0, data=[4, 0]),
   midi.NoteOnEvent(tick=3329400, channel=0, data=[36, 100]),
   midi.NoteOffEvent(tick=3329500, channel=0, data=[36, 0]),
   midi.NoteOnEvent(tick=3329600, channel=0, data=[21, 100]),
   midi.NoteOffEvent(tick=3329700, channel=0, data=[21, 0]),
   midi.NoteOnEvent(tick=3329800, channel=0, data=[0, 100]),
   midi.NoteOffEvent(tick=3329900, channel=0, data=[0, 0]),
   midi.NoteOnEvent(tick=3330000, channel=0, data=[17, 100]),
   midi.NoteOffEvent(tick=3330100, channel=0, data=[17, 0]),
   midi.NoteOnEvent(tick=3330200, channel=0, data=[8, 100]),
   midi.NoteOffEvent(tick=3330300, channel=0, data=[8, 0]),
   midi.NoteOnEvent(tick=3330400, channel=0, data=[0, 100]),
   midi.NoteOffEvent(tick=3330500, channel=0, data=[0, 0]),
   midi.NoteOnEvent(tick=3330600, channel=0, data=[1, 100]),
   midi.NoteOffEvent(tick=3330700, channel=0, data=[1, 0]),
   midi.NoteOnEvent(tick=3330800, channel=0, data=[11, 100]),
   midi.NoteOffEvent(tick=3330900, channel=0, data=[11, 0]),
   midi.NoteOnEvent(tick=3331000, channel=0, data=[4, 100]),
   midi.NoteOffEvent(tick=3331100, channel=0, data=[4, 0]),
   midi.NoteOnEvent(tick=3331200, channel=0, data=[36, 100]),
   midi.NoteOffEvent(tick=3331300, channel=0, data=[36, 0]),
   midi.NoteOnEvent(tick=3331400, channel=0, data=[8, 100]),
   midi.NoteOffEvent(tick=3331500, channel=0, data=[8, 0]),
   midi.NoteOnEvent(tick=3331600, channel=0, data=[18, 100]),
   midi.NoteOffEvent(tick=3331700, channel=0, data=[18, 0]),
   midi.NoteOnEvent(tick=3331800, channel=0, data=[36, 100]),
   midi.NoteOffEvent(tick=3331900, channel=0, data=[36, 0]),
   midi.NoteOnEvent(tick=3332000, channel=0, data=[0, 100]),
   midi.NoteOffEvent(tick=3332100, channel=0, data=[0, 0]),
   midi.NoteOnEvent(tick=3332200, channel=0, data=[36, 100]),
   midi.NoteOffEvent(tick=3332300, channel=0, data=[36, 0]),
   midi.NoteOnEvent(tick=3332400, channel=0, data=[18, 100]),
   midi.NoteOffEvent(tick=3332500, channel=0, data=[18, 0]),
   midi.NoteOnEvent(tick=3332600, channel=0, data=[19, 100]),
   midi.NoteOffEvent(tick=3332700, channel=0, data=[19, 0]),
   midi.NoteOnEvent(tick=3332800, channel=0, data=[17, 100]),
   midi.NoteOffEvent(tick=3332900, channel=0, data=[17, 0]),
   midi.NoteOnEvent(tick=3333000, channel=0, data=[8, 100]),
   midi.NoteOffEvent(tick=3333100, channel=0, data=[8, 0]),
   midi.NoteOnEvent(tick=3333200, channel=0, data=[13, 100]),
   midi.NoteOffEvent(tick=3333300, channel=0, data=[13, 0]),
   midi.NoteOnEvent(tick=3333400, channel=0, data=[6, 100]),
   midi.NoteOffEvent(tick=3333500, channel=0, data=[6, 0]),
   midi.NoteOnEvent(tick=3333600, channel=0, data=[38, 100]),
   midi.NoteOffEvent(tick=3333700, channel=0, data=[38, 0]),
   midi.NoteOnEvent(tick=3333800, channel=0, data=[36, 100]),
   midi.NoteOffEvent(tick=3333900, channel=0, data=[36, 0]),
   midi.NoteOnEvent(tick=3334000, channel=0, data=[22, 100]),
   midi.NoteOffEvent(tick=3334100, channel=0, data=[22, 0]),
   midi.NoteOnEvent(tick=3334200, channel=0, data=[8, 100]),
   midi.NoteOffEvent(tick=3334300, channel=0, data=[8, 0]),
   midi.NoteOnEvent(tick=3334400, channel=0, data=[13, 100]),
   midi.NoteOffEvent(tick=3334500, channel=0, data=[13, 0]),
   midi.NoteOnEvent(tick=3334600, channel=0, data=[3, 100]),
   midi.NoteOffEvent(tick=3334700, channel=0, data=[3, 0]),
   midi.NoteOnEvent(tick=3334800, channel=0, data=[14, 100]),
   midi.NoteOffEvent(tick=3334900, channel=0, data=[14, 0]),
   midi.NoteOnEvent(tick=3335000, channel=0, data=[22, 100]),
   midi.NoteOffEvent(tick=3335100, channel=0, data=[22, 0]),
   midi.NoteOnEvent(tick=3335200, channel=0, data=[18, 100]),
   midi.NoteOffEvent(tick=3335300, channel=0, data=[18, 0]),
   midi.NoteOnEvent(tick=3335400, channel=0, data=[56, 100]),
   midi.NoteOffEvent(tick=3335500, channel=0, data=[56, 0]),
   midi.NoteOnEvent(tick=3335600, channel=0, data=[36, 100]),
   midi.NoteOffEvent(tick=3335700, channel=0, data=[36, 0]),
   midi.NoteOnEvent(tick=3335800, channel=0, data=[36, 100]),
   midi.NoteOffEvent(tick=3335900, channel=0, data=[36, 0]),
   midi.NoteOnEvent(tick=3336000, channel=0, data=[36, 100]),
   midi.NoteOffEvent(tick=3336100, channel=0, data=[36, 0]),
   midi.NoteOnEvent(tick=3336200, channel=0, data=[36, 100]),
   midi.NoteOffEvent(tick=3336300, channel=0, data=[36, 0]),
   midi.NoteOnEvent(tick=3336400, channel=0, data=[15, 100]),
   midi.NoteOffEvent(tick=3336500, channel=0, data=[15, 0]),
   midi.NoteOnEvent(tick=3336600, channel=0, data=[14, 100]),
   midi.NoteOffEvent(tick=3336700, channel=0, data=[14, 0]),
   midi.NoteOnEvent(tick=3336800, channel=0, data=[22, 100]),
   midi.NoteOffEvent(tick=3336900, channel=0, data=[22, 0]),
   midi.NoteOnEvent(tick=3337000, channel=0, data=[4, 100]),
   midi.NoteOffEvent(tick=3337100, channel=0, data=[4, 0]),
   midi.NoteOnEvent(tick=3337200, channel=0, data=[17, 100]),
   midi.NoteOffEvent(tick=3337300, channel=0, data=[17, 0]),
   midi.NoteOnEvent(tick=3337400, channel=0, data=[18, 100]),
   midi.NoteOffEvent(tick=3337500, channel=0, data=[18, 0]),
   midi.NoteOnEvent(tick=3337600, channel=0, data=[7, 100]),
   midi.NoteOffEvent(tick=3337700, channel=0, data=[7, 0]),
   midi.NoteOnEvent(tick=3337800, channel=0, data=[4, 100]),
   midi.NoteOffEvent(tick=3337900, channel=0, data=[4, 0]),
   midi.NoteOnEvent(tick=3338000, channel=0, data=[11, 100]),
   midi.NoteOffEvent(tick=3338100, channel=0, data=[11, 0]),
   midi.NoteOnEvent(tick=3338200, channel=0, data=[11, 100]),
   midi.NoteOffEvent(tick=3338300, channel=0, data=[11, 0]),
   midi.NoteOnEvent(tick=3338400, channel=0, data=[36, 100]),
   midi.NoteOffEvent(tick=3338500, channel=0, data=[36, 0]),
   midi.NoteOnEvent(tick=3338600, channel=0, data=[19, 100]),
   midi.NoteOffEvent(tick=3338700, channel=0, data=[19, 0]),
   midi.NoteOnEvent(tick=3338800, channel=0, data=[17, 100]),
   midi.NoteOffEvent(tick=3338900, channel=0, data=[17, 0]),
   midi.NoteOnEvent(tick=3339000, channel=0, data=[4, 100]),
   midi.NoteOffEvent(tick=3339100, channel=0, data=[4, 0]),
   midi.NoteOnEvent(tick=3339200, channel=0, data=[0, 100]),
   midi.NoteOffEvent(tick=3339300, channel=0, data=[0, 0]),
   midi.NoteOnEvent(tick=3339400, channel=0, data=[19, 100]),
   midi.NoteOffEvent(tick=3339500, channel=0, data=[19, 0]),
   midi.NoteOnEvent(tick=3339600, channel=0, data=[18, 100]),
   midi.NoteOffEvent(tick=3339700, channel=0, data=[18, 0]),
   midi.NoteOnEvent(tick=3339800, channel=0, data=[36, 100]),
   midi.NoteOffEvent(tick=3339900, channel=0, data=[36, 0]),
   midi.NoteOnEvent(tick=3340000, channel=0, data=[0, 100]),
   midi.NoteOffEvent(tick=3340100, channel=0, data=[0, 0]),
   midi.NoteOnEvent(tick=3340200, channel=0, data=[11, 100]),
   midi.NoteOffEvent(tick=3340300, channel=0, data=[11, 0]),
   midi.NoteOnEvent(tick=3340400, channel=0, data=[11, 100]),
   midi.NoteOffEvent(tick=3340500, channel=0, data=[11, 0]),
   midi.NoteOnEvent(tick=3340600, channel=0, data=[36, 100]),
   midi.NoteOffEvent(tick=3340700, channel=0, data=[36, 0]),
   midi.NoteOnEvent(tick=3340800, channel=0, data=[14, 100]),
   midi.NoteOffEvent(tick=3340900, channel=0, data=[14, 0]),
   midi.NoteOnEvent(tick=3341000, channel=0, data=[15, 100]),
   midi.NoteOffEvent(tick=3341100, channel=0, data=[15, 0]),
   midi.NoteOnEvent(tick=3341200, channel=0, data=[4, 100]),
   midi.NoteOffEvent(tick=3341300, channel=0, data=[4, 0]),
   midi.NoteOnEvent(tick=3341400, channel=0, data=[17, 100]),
   midi.NoteOffEvent(tick=3341500, channel=0, data=[17, 0]),
   midi.NoteOnEvent(tick=3341600, channel=0, data=[0, 100]),
   midi.NoteOffEvent(tick=3341700, channel=0, data=[0, 0]),
   midi.NoteOnEvent(tick=3341800, channel=0, data=[19, 100]),
   midi.NoteOffEvent(tick=3341900, channel=0, data=[19, 0]),
   midi.NoteOnEvent(tick=3342000, channel=0, data=[8, 100]),
   midi.NoteOffEvent(tick=3342100, channel=0, data=[8, 0]),
   midi.NoteOnEvent(tick=3342200, channel=0, data=[14, 100]),
   midi.NoteOffEvent(tick=3342300, channel=0, data=[14, 0]),
   midi.NoteOnEvent(tick=3342400, channel=0, data=[13, 100]),
   midi.NoteOffEvent(tick=3342500, channel=0, data=[13, 0]),
   midi.NoteOnEvent(tick=3342600, channel=0, data=[18, 100]),
   midi.NoteOffEvent(tick=3342700, channel=0, data=[18, 0]),
   midi.NoteOnEvent(tick=3342800, channel=0, data=[36, 100]),
   midi.NoteOffEvent(tick=3342900, channel=0, data=[36, 0]),
   midi.NoteOnEvent(tick=3343000, channel=0, data=[0, 100]),
   midi.NoteOffEvent(tick=3343100, channel=0, data=[0, 0]),
   midi.NoteOnEvent(tick=3343200, channel=0, data=[18, 100]),
   midi.NoteOffEvent(tick=3343300, channel=0, data=[18, 0]),
   midi.NoteOnEvent(tick=3343400, channel=0, data=[36, 100]),
   midi.NoteOffEvent(tick=3343500, channel=0, data=[36, 0]),
   midi.NoteOnEvent(tick=3343600, channel=0, data=[18, 100]),
   midi.NoteOffEvent(tick=3343700, channel=0, data=[18, 0]),
   midi.NoteOnEvent(tick=3343800, channel=0, data=[19, 100]),
   midi.NoteOffEvent(tick=3343900, channel=0, data=[19, 0]),
   midi.NoteOnEvent(tick=3344000, channel=0, data=[17, 100]),
   midi.NoteOffEvent(tick=3344100, channel=0, data=[17, 0]),
   midi.NoteOnEvent(tick=3344200, channel=0, data=[8, 100]),
   midi.NoteOffEvent(tick=3344300, channel=0, data=[8, 0]),
   midi.NoteOnEvent(tick=3344400, channel=0, data=[13, 100]),
   midi.NoteOffEvent(tick=3344500, channel=0, data=[13, 0]),
   midi.NoteOnEvent(tick=3344600, channel=0, data=[6, 100]),
   midi.NoteOffEvent(tick=3344700, channel=0, data=[6, 0]),
   midi.NoteOnEvent(tick=3344800, channel=0, data=[36, 100]),
   midi.NoteOffEvent(tick=3344900, channel=0, data=[36, 0]),
   midi.NoteOnEvent(tick=3345000, channel=0, data=[14, 100]),
   midi.NoteOffEvent(tick=3345100, channel=0, data=[14, 0]),
   midi.NoteOnEvent(tick=3345200, channel=0, data=[15, 100]),
   midi.NoteOffEvent(tick=3345300, channel=0, data=[15, 0]),
   midi.NoteOnEvent(tick=3345400, channel=0, data=[4, 100]),
   midi.NoteOffEvent(tick=3345500, channel=0, data=[4, 0]),
   midi.NoteOnEvent(tick=3345600, channel=0, data=[17, 100]),
   midi.NoteOffEvent(tick=3345700, channel=0, data=[17, 0]),
   midi.NoteOnEvent(tick=3345800, channel=0, data=[0, 100]),
   midi.NoteOffEvent(tick=3345900, channel=0, data=[0, 0]),
   midi.NoteOnEvent(tick=3346000, channel=0, data=[19, 100]),
   midi.NoteOffEvent(tick=3346100, channel=0, data=[19, 0]),
   midi.NoteOnEvent(tick=3346200, channel=0, data=[8, 100]),
   midi.NoteOffEvent(tick=3346300, channel=0, data=[8, 0]),
   midi.NoteOnEvent(tick=3346400, channel=0, data=[14, 100]),
   midi.NoteOffEvent(tick=3346500, channel=0, data=[14, 0]),
   midi.NoteOnEvent(tick=3346600, channel=0, data=[13, 100]),
   midi.NoteOffEvent(tick=3346700, channel=0, data=[13, 0]),
   midi.NoteOnEvent(tick=3346800, channel=0, data=[18, 100]),
   midi.NoteOffEvent(tick=3346900, channel=0, data=[18, 0]),
   midi.NoteOnEvent(tick=3347000, channel=0, data=[36, 100]),
   midi.NoteOffEvent(tick=3347100, channel=0, data=[36, 0]),
   midi.NoteOnEvent(tick=3347200, channel=0, data=[0, 100]),
   midi.NoteOffEvent(tick=3347300, channel=0, data=[0, 0]),
   midi.NoteOnEvent(tick=3347400, channel=0, data=[13, 100]),
   midi.NoteOffEvent(tick=3347500, channel=0, data=[13, 0]),
   midi.NoteOnEvent(tick=3347600, channel=0, data=[3, 100]),
   midi.NoteOffEvent(tick=3347700, channel=0, data=[3, 0]),
   midi.NoteOnEvent(tick=3347800, channel=0, data=[36, 100]),
   midi.NoteOffEvent(tick=3347900, channel=0, data=[36, 0]),
   midi.NoteOnEvent(tick=3348000, channel=0, data=[2, 100]),
   midi.NoteOffEvent(tick=3348100, channel=0, data=[2, 0]),
   midi.NoteOnEvent(tick=3348200, channel=0, data=[0, 100]),
   midi.NoteOffEvent(tick=3348300, channel=0, data=[0, 0]),
   midi.NoteOnEvent(tick=3348400, channel=0, data=[18, 100]),
   midi.NoteOffEvent(tick=3348500, channel=0, data=[18, 0]),
   midi.NoteOnEvent(tick=3348600, channel=0, data=[19, 100]),
   midi.NoteOffEvent(tick=3348700, channel=0, data=[19, 0]),
   midi.NoteOnEvent(tick=3348800, channel=0, data=[18, 100]),
   midi.NoteOffEvent(tick=3348900, channel=0, data=[18, 0]),
   midi.NoteOnEvent(tick=3349000, channel=0, data=[36, 100]),
   midi.NoteOffEvent(tick=3349100, channel=0, data=[36, 0]),
   midi.NoteOnEvent(tick=3349200, channel=0, data=[13, 100]),
   midi.NoteOffEvent(tick=3349300, channel=0, data=[13, 0]),
   midi.NoteOnEvent(tick=3349400, channel=0, data=[4, 100]),
   midi.NoteOffEvent(tick=3349500, channel=0, data=[4, 0]),
   midi.NoteOnEvent(tick=3349600, channel=0, data=[22, 100]),
   midi.NoteOffEvent(tick=3349700, channel=0, data=[22, 0]),
   midi.NoteOnEvent(tick=3349800, channel=0, data=[36, 100]),
   midi.NoteOffEvent(tick=3349900, channel=0, data=[36, 0]),
   midi.NoteOnEvent(tick=3350000, channel=0, data=[21, 100]),
   midi.NoteOffEvent(tick=3350100, channel=0, data=[21, 0]),
   midi.NoteOnEvent(tick=3350200, channel=0, data=[0, 100]),
   midi.NoteOffEvent(tick=3350300, channel=0, data=[0, 0]),
   midi.NoteOnEvent(tick=3350400, channel=0, data=[11, 100]),
   midi.NoteOffEvent(tick=3350500, channel=0, data=[11, 0]),
   midi.NoteOnEvent(tick=3350600, channel=0, data=[20, 100]),
   midi.NoteOffEvent(tick=3350700, channel=0, data=[20, 0]),
   midi.NoteOnEvent(tick=3350800, channel=0, data=[4, 100]),
   midi.NoteOffEvent(tick=3350900, channel=0, data=[4, 0]),
   midi.NoteOnEvent(tick=3351000, channel=0, data=[18, 100]),
   midi.NoteOffEvent(tick=3351100, channel=0, data=[18, 0]),
   midi.NoteOnEvent(tick=3351200, channel=0, data=[56, 100]),
   midi.NoteOffEvent(tick=3351300, channel=0, data=[56, 0]),
   midi.NoteOnEvent(tick=3351400, channel=0, data=[36, 100]),
   midi.NoteOffEvent(tick=3351500, channel=0, data=[36, 0]),
   midi.NoteOnEvent(tick=3351600, channel=0, data=[36, 100]),
   midi.NoteOffEvent(tick=3351700, channel=0, data=[36, 0]),
   midi.NoteOnEvent(tick=3351800, channel=0, data=[36, 100]),
   midi.NoteOffEvent(tick=3351900, channel=0, data=[36, 0]),
   midi.NoteOnEvent(tick=3352000, channel=0, data=[36, 100]),
   midi.NoteOffEvent(tick=3352100, channel=0, data=[36, 0]),
   midi.NoteOnEvent(tick=3352200, channel=0, data=[19, 100]),
   midi.NoteOffEvent(tick=3352300, channel=0, data=[19, 0]),
   midi.NoteOnEvent(tick=3352400, channel=0, data=[14, 100]),
   midi.NoteOffEvent(tick=3352500, channel=0, data=[14, 0]),
   midi.NoteOnEvent(tick=3352600, channel=0, data=[36, 100]),
   midi.NoteOffEvent(tick=3352700, channel=0, data=[36, 0]),
   midi.NoteOnEvent(tick=3352800, channel=0, data=[18, 100]),
   midi.NoteOffEvent(tick=3352900, channel=0, data=[18, 0]),
   midi.NoteOnEvent(tick=3353000, channel=0, data=[19, 100]),
   midi.NoteOffEvent(tick=3353100, channel=0, data=[19, 0]),
   midi.NoteOnEvent(tick=3353200, channel=0, data=[17, 100]),
   midi.NoteOffEvent(tick=3353300, channel=0, data=[17, 0]),
   midi.NoteOnEvent(tick=3353400, channel=0, data=[8, 100]),
   midi.NoteOffEvent(tick=3353500, channel=0, data=[8, 0]),
   midi.NoteOnEvent(tick=3353600, channel=0, data=[13, 100]),
   midi.NoteOffEvent(tick=3353700, channel=0, data=[13, 0]),
   midi.NoteOnEvent(tick=3353800, channel=0, data=[6, 100]),
   midi.NoteOffEvent(tick=3353900, channel=0, data=[6, 0]),
   midi.NoteOnEvent(tick=3354000, channel=0, data=[18, 100]),
   midi.NoteOffEvent(tick=3354100, channel=0, data=[18, 0]),
   midi.NoteOnEvent(tick=3354200, channel=0, data=[37, 100]),
   midi.NoteOffEvent(tick=3354300, channel=0, data=[37, 0]),
   midi.NoteOnEvent(tick=3354400, channel=0, data=[36, 100]),
   midi.NoteOffEvent(tick=3354500, channel=0, data=[36, 0]),
   midi.NoteOnEvent(tick=3354600, channel=0, data=[19, 100]),
   midi.NoteOffEvent(tick=3354700, channel=0, data=[19, 0]),
   midi.NoteOnEvent(tick=3354800, channel=0, data=[7, 100]),
   midi.NoteOffEvent(tick=3354900, channel=0, data=[7, 0]),
   midi.NoteOnEvent(tick=3355000, channel=0, data=[8, 100]),
   midi.NoteOffEvent(tick=3355100, channel=0, data=[8, 0]),
   midi.NoteOnEvent(tick=3355200, channel=0, data=[18, 100]),
   midi.NoteOffEvent(tick=3355300, channel=0, data=[18, 0]),
   midi.NoteOnEvent(tick=3355400, channel=0, data=[36, 100]),
   midi.NoteOffEvent(tick=3355500, channel=0, data=[36, 0]),
   midi.NoteOnEvent(tick=3355600, channel=0, data=[14, 100]),
   midi.NoteOffEvent(tick=3355700, channel=0, data=[14, 0]),
   midi.NoteOnEvent(tick=3355800, channel=0, data=[2, 100]),
   midi.NoteOffEvent(tick=3355900, channel=0, data=[2, 0]),
   midi.NoteOnEvent(tick=3356000, channel=0, data=[2, 100]),
   midi.NoteOffEvent(tick=3356100, channel=0, data=[2, 0]),
   midi.NoteOnEvent(tick=3356200, channel=0, data=[20, 100]),
   midi.NoteOffEvent(tick=3356300, channel=0, data=[20, 0]),
   midi.NoteOnEvent(tick=3356400, channel=0, data=[17, 100]),
   midi.NoteOffEvent(tick=3356500, channel=0, data=[17, 0]),
   midi.NoteOnEvent(tick=3356600, channel=0, data=[18, 100]),
   midi.NoteOffEvent(tick=3356700, channel=0, data=[18, 0]),
   midi.NoteOnEvent(tick=3356800, channel=0, data=[36, 100]),
   midi.NoteOffEvent(tick=3356900, channel=0, data=[36, 0]),
   midi.NoteOnEvent(tick=3357000, channel=0, data=[8, 100]),
   midi.NoteOffEvent(tick=3357100, channel=0, data=[8, 0]),
   midi.NoteOnEvent(tick=3357200, channel=0, data=[13, 100]),
   midi.NoteOffEvent(tick=3357300, channel=0, data=[13, 0]),
   midi.NoteOnEvent(tick=3357400, channel=0, data=[36, 100]),
   midi.NoteOffEvent(tick=3357500, channel=0, data=[36, 0]),
   midi.NoteOnEvent(tick=3357600, channel=0, data=[19, 100]),
   midi.NoteOffEvent(tick=3357700, channel=0, data=[19, 0]),
   midi.NoteOnEvent(tick=3357800, channel=0, data=[7, 100]),
   midi.NoteOffEvent(tick=3357900, channel=0, data=[7, 0]),
   midi.NoteOnEvent(tick=3358000, channel=0, data=[4, 100]),
   midi.NoteOffEvent(tick=3358100, channel=0, data=[4, 0]),
   midi.NoteOnEvent(tick=3358200, channel=0, data=[36, 100]),
   midi.NoteOffEvent(tick=3358300, channel=0, data=[36, 0]),
   midi.NoteOnEvent(tick=3358400, channel=0, data=[5, 100]),
   midi.NoteOffEvent(tick=3358500, channel=0, data=[5, 0]),
   midi.NoteOnEvent(tick=3358600, channel=0, data=[14, 100]),
   midi.NoteOffEvent(tick=3358700, channel=0, data=[14, 0]),
   midi.NoteOnEvent(tick=3358800, channel=0, data=[11, 100]),
   midi.NoteOffEvent(tick=3358900, channel=0, data=[11, 0]),
   midi.NoteOnEvent(tick=3359000, channel=0, data=[11, 100]),
   midi.NoteOffEvent(tick=3359100, channel=0, data=[11, 0]),
   midi.NoteOnEvent(tick=3359200, channel=0, data=[14, 100]),
   midi.NoteOffEvent(tick=3359300, channel=0, data=[14, 0]),
   midi.NoteOnEvent(tick=3359400, channel=0, data=[22, 100]),
   midi.NoteOffEvent(tick=3359500, channel=0, data=[22, 0]),
   midi.NoteOnEvent(tick=3359600, channel=0, data=[8, 100]),
   midi.NoteOffEvent(tick=3359700, channel=0, data=[8, 0]),
   midi.NoteOnEvent(tick=3359800, channel=0, data=[13, 100]),
   midi.NoteOffEvent(tick=3359900, channel=0, data=[13, 0]),
   midi.NoteOnEvent(tick=3360000, channel=0, data=[6, 100]),
   midi.NoteOffEvent(tick=3360100, channel=0, data=[6, 0]),
   midi.NoteOnEvent(tick=3360200, channel=0, data=[36, 100]),
   midi.NoteOffEvent(tick=3360300, channel=0, data=[36, 0]),
   midi.NoteOnEvent(tick=3360400, channel=0, data=[4, 100]),
   midi.NoteOffEvent(tick=3360500, channel=0, data=[4, 0]),
   midi.NoteOnEvent(tick=3360600, channel=0, data=[23, 100]),
   midi.NoteOffEvent(tick=3360700, channel=0, data=[23, 0]),
   midi.NoteOnEvent(tick=3360800, channel=0, data=[0, 100]),
   midi.NoteOffEvent(tick=3360900, channel=0, data=[0, 0]),
   midi.NoteOnEvent(tick=3361000, channel=0, data=[12, 100]),
   midi.NoteOffEvent(tick=3361100, channel=0, data=[12, 0]),
   midi.NoteOnEvent(tick=3361200, channel=0, data=[15, 100]),
   midi.NoteOffEvent(tick=3361300, channel=0, data=[15, 0]),
   midi.NoteOnEvent(tick=3361400, channel=0, data=[11, 100]),
   midi.NoteOffEvent(tick=3361500, channel=0, data=[11, 0]),
   midi.NoteOnEvent(tick=3361600, channel=0, data=[4, 100]),
   midi.NoteOffEvent(tick=3361700, channel=0, data=[4, 0]),
   midi.NoteOnEvent(tick=3361800, channel=0, data=[46, 100]),
   midi.NoteOffEvent(tick=3361900, channel=0, data=[46, 0]),
   midi.NoteOnEvent(tick=3362000, channel=0, data=[56, 100]),
   midi.NoteOffEvent(tick=3362100, channel=0, data=[56, 0]),
   midi.NoteOnEvent(tick=3362200, channel=0, data=[56, 100]),
   midi.NoteOffEvent(tick=3362300, channel=0, data=[56, 0]),
   midi.NoteOnEvent(tick=3362400, channel=0, data=[56, 100]),
   midi.NoteOffEvent(tick=3362500, channel=0, data=[56, 0]),
   midi.NoteOnEvent(tick=3362600, channel=0, data=[36, 100]),
   midi.NoteOffEvent(tick=3362700, channel=0, data=[36, 0]),
   midi.NoteOnEvent(tick=3362800, channel=0, data=[36, 100]),
   midi.NoteOffEvent(tick=3362900, channel=0, data=[36, 0]),
   midi.NoteOnEvent(tick=3363000, channel=0, data=[36, 100]),
   midi.NoteOffEvent(tick=3363100, channel=0, data=[36, 0]),
   midi.NoteOnEvent(tick=3363200, channel=0, data=[36, 100]),
   midi.NoteOffEvent(tick=3363300, channel=0, data=[36, 0]),
   midi.NoteOnEvent(tick=3363400, channel=0, data=[36, 100]),
   midi.NoteOffEvent(tick=3363500, channel=0, data=[36, 0]),
   midi.NoteOnEvent(tick=3363600, channel=0, data=[36, 100]),
   midi.NoteOffEvent(tick=3363700, channel=0, data=[36, 0]),
   midi.NoteOnEvent(tick=3363800, channel=0, data=[36, 100]),
   midi.NoteOffEvent(tick=3363900, channel=0, data=[36, 0]),
   midi.NoteOnEvent(tick=3364000, channel=0, data=[36, 100]),
   midi.NoteOffEvent(tick=3364100, channel=0, data=[36, 0]),
   midi.NoteOnEvent(tick=3364200, channel=0, data=[2, 100]),
   midi.NoteOffEvent(tick=3364300, channel=0, data=[2, 0]),
   midi.NoteOnEvent(tick=3364400, channel=0, data=[46, 100]),
   midi.NoteOffEvent(tick=3364500, channel=0, data=[46, 0]),
   midi.NoteOnEvent(tick=3364600, channel=0, data=[78, 100]),
   midi.NoteOffEvent(tick=3364700, channel=0, data=[78, 0]),
   midi.NoteOnEvent(tick=3364800, channel=0, data=[15, 100]),
   midi.NoteOffEvent(tick=3364900, channel=0, data=[15, 0]),
   midi.NoteOnEvent(tick=3365000, channel=0, data=[18, 100]),
   midi.NoteOffEvent(tick=3365100, channel=0, data=[18, 0]),
   midi.NoteOnEvent(tick=3365200, channel=0, data=[73, 100]),
   midi.NoteOffEvent(tick=3365300, channel=0, data=[73, 0]),
   midi.NoteOnEvent(tick=3365400, channel=0, data=[36, 100]),
   midi.NoteOffEvent(tick=3365500, channel=0, data=[36, 0]),
   midi.NoteOnEvent(tick=3365600, channel=0, data=[74, 100]),
   midi.NoteOffEvent(tick=3365700, channel=0, data=[74, 0]),
   midi.NoteOnEvent(tick=3365800, channel=0, data=[0, 100]),
   midi.NoteOffEvent(tick=3365900, channel=0, data=[0, 0]),
   midi.NoteOnEvent(tick=3366000, channel=0, data=[36, 100]),
   midi.NoteOffEvent(tick=3366100, channel=0, data=[36, 0]),
   midi.NoteOnEvent(tick=3366200, channel=0, data=[69, 100]),
   midi.NoteOffEvent(tick=3366300, channel=0, data=[69, 0]),
   midi.NoteOnEvent(tick=3366400, channel=0, data=[36, 100]),
   midi.NoteOffEvent(tick=3366500, channel=0, data=[36, 0]),
   midi.NoteOnEvent(tick=3366600, channel=0, data=[41, 100]),
   midi.NoteOffEvent(tick=3366700, channel=0, data=[41, 0]),
   midi.NoteOnEvent(tick=3366800, channel=0, data=[5, 100]),
   midi.NoteOffEvent(tick=3366900, channel=0, data=[5, 0]),
   midi.NoteOnEvent(tick=3367000, channel=0, data=[8, 100]),
   midi.NoteOffEvent(tick=3367100, channel=0, data=[8, 0]),
   midi.NoteOnEvent(tick=3367200, channel=0, data=[11, 100]),
   midi.NoteOffEvent(tick=3367300, channel=0, data=[11, 0]),
   midi.NoteOnEvent(tick=3367400, channel=0, data=[4, 100]),
   midi.NoteOffEvent(tick=3367500, channel=0, data=[4, 0]),
   midi.NoteOnEvent(tick=3367600, channel=0, data=[41, 100]),
   midi.NoteOffEvent(tick=3367700, channel=0, data=[41, 0]),
   midi.NoteOnEvent(tick=3367800, channel=0, data=[56, 100]),
   midi.NoteOffEvent(tick=3367900, channel=0, data=[56, 0]),
   midi.NoteOnEvent(tick=3368000, channel=0, data=[36, 100]),
   midi.NoteOffEvent(tick=3368100, channel=0, data=[36, 0]),
   midi.NoteOnEvent(tick=3368200, channel=0, data=[36, 100]),
   midi.NoteOffEvent(tick=3368300, channel=0, data=[36, 0]),
   midi.NoteOnEvent(tick=3368400, channel=0, data=[36, 100]),
   midi.NoteOffEvent(tick=3368500, channel=0, data=[36, 0]),
   midi.NoteOnEvent(tick=3368600, channel=0, data=[36, 100]),
   midi.NoteOffEvent(tick=3368700, channel=0, data=[36, 0]),
   midi.NoteOnEvent(tick=3368800, channel=0, data=[36, 100]),
   midi.NoteOffEvent(tick=3368900, channel=0, data=[36, 0]),
   midi.NoteOnEvent(tick=3369000, channel=0, data=[36, 100]),
   midi.NoteOffEvent(tick=3369100, channel=0, data=[36, 0]),
   midi.NoteOnEvent(tick=3369200, channel=0, data=[36, 100]),
   midi.NoteOffEvent(tick=3369300, channel=0, data=[36, 0]),
   midi.NoteOnEvent(tick=3369400, channel=0, data=[36, 100]),
   midi.NoteOffEvent(tick=3369500, channel=0, data=[36, 0]),
   midi.NoteOnEvent(tick=3369600, channel=0, data=[2, 100]),
   midi.NoteOffEvent(tick=3369700, channel=0, data=[2, 0]),
   midi.NoteOnEvent(tick=3369800, channel=0, data=[46, 100]),
   midi.NoteOffEvent(tick=3369900, channel=0, data=[46, 0]),
   midi.NoteOnEvent(tick=3370000, channel=0, data=[78, 100]),
   midi.NoteOffEvent(tick=3370100, channel=0, data=[78, 0]),
   midi.NoteOnEvent(tick=3370200, channel=0, data=[15, 100]),
   midi.NoteOffEvent(tick=3370300, channel=0, data=[15, 0]),
   midi.NoteOnEvent(tick=3370400, channel=0, data=[18, 100]),
   midi.NoteOffEvent(tick=3370500, channel=0, data=[18, 0]),
   midi.NoteOnEvent(tick=3370600, channel=0, data=[73, 100]),
   midi.NoteOffEvent(tick=3370700, channel=0, data=[73, 0]),
   midi.NoteOnEvent(tick=3370800, channel=0, data=[36, 100]),
   midi.NoteOffEvent(tick=3370900, channel=0, data=[36, 0]),
   midi.NoteOnEvent(tick=3371000, channel=0, data=[74, 100]),
   midi.NoteOffEvent(tick=3371100, channel=0, data=[74, 0]),
   midi.NoteOnEvent(tick=3371200, channel=0, data=[0, 100]),
   midi.NoteOffEvent(tick=3371300, channel=0, data=[0, 0]),
   midi.NoteOnEvent(tick=3371400, channel=0, data=[36, 100]),
   midi.NoteOffEvent(tick=3371500, channel=0, data=[36, 0]),
   midi.NoteOnEvent(tick=3371600, channel=0, data=[55, 100]),
   midi.NoteOffEvent(tick=3371700, channel=0, data=[55, 0]),
   midi.NoteOnEvent(tick=3371800, channel=0, data=[69, 100]),
   midi.NoteOffEvent(tick=3371900, channel=0, data=[69, 0]),
   midi.NoteOnEvent(tick=3372000, channel=0, data=[36, 100]),
   midi.NoteOffEvent(tick=3372100, channel=0, data=[36, 0]),
   midi.NoteOnEvent(tick=3372200, channel=0, data=[29, 100]),
   midi.NoteOffEvent(tick=3372300, channel=0, data=[29, 0]),
   midi.NoteOnEvent(tick=3372400, channel=0, data=[56, 100]),
   midi.NoteOffEvent(tick=3372500, channel=0, data=[56, 0]),
   midi.NoteOnEvent(tick=3372600, channel=0, data=[36, 100]),
   midi.NoteOffEvent(tick=3372700, channel=0, data=[36, 0]),
   midi.NoteOnEvent(tick=3372800, channel=0, data=[36, 100]),
   midi.NoteOffEvent(tick=3372900, channel=0, data=[36, 0]),
   midi.NoteOnEvent(tick=3373000, channel=0, data=[36, 100]),
   midi.NoteOffEvent(tick=3373100, channel=0, data=[36, 0]),
   midi.NoteOnEvent(tick=3373200, channel=0, data=[36, 100]),
   midi.NoteOffEvent(tick=3373300, channel=0, data=[36, 0]),
   midi.NoteOnEvent(tick=3373400, channel=0, data=[36, 100]),
   midi.NoteOffEvent(tick=3373500, channel=0, data=[36, 0]),
   midi.NoteOnEvent(tick=3373600, channel=0, data=[36, 100]),
   midi.NoteOffEvent(tick=3373700, channel=0, data=[36, 0]),
   midi.NoteOnEvent(tick=3373800, channel=0, data=[36, 100]),
   midi.NoteOffEvent(tick=3373900, channel=0, data=[36, 0]),
   midi.NoteOnEvent(tick=3374000, channel=0, data=[36, 100]),
   midi.NoteOffEvent(tick=3374100, channel=0, data=[36, 0]),
   midi.NoteOnEvent(tick=3374200, channel=0, data=[2, 100]),
   midi.NoteOffEvent(tick=3374300, channel=0, data=[2, 0]),
   midi.NoteOnEvent(tick=3374400, channel=0, data=[46, 100]),
   midi.NoteOffEvent(tick=3374500, channel=0, data=[46, 0]),
   midi.NoteOnEvent(tick=3374600, channel=0, data=[78, 100]),
   midi.NoteOffEvent(tick=3374700, channel=0, data=[78, 0]),
   midi.NoteOnEvent(tick=3374800, channel=0, data=[15, 100]),
   midi.NoteOffEvent(tick=3374900, channel=0, data=[15, 0]),
   midi.NoteOnEvent(tick=3375000, channel=0, data=[18, 100]),
   midi.NoteOffEvent(tick=3375100, channel=0, data=[18, 0]),
   midi.NoteOnEvent(tick=3375200, channel=0, data=[73, 100]),
   midi.NoteOffEvent(tick=3375300, channel=0, data=[73, 0]),
   midi.NoteOnEvent(tick=3375400, channel=0, data=[36, 100]),
   midi.NoteOffEvent(tick=3375500, channel=0, data=[36, 0]),
   midi.NoteOnEvent(tick=3375600, channel=0, data=[74, 100]),
   midi.NoteOffEvent(tick=3375700, channel=0, data=[74, 0]),
   midi.NoteOnEvent(tick=3375800, channel=0, data=[0, 100]),
   midi.NoteOffEvent(tick=3375900, channel=0, data=[0, 0]),
   midi.NoteOnEvent(tick=3376000, channel=0, data=[56, 100]),
   midi.NoteOffEvent(tick=3376100, channel=0, data=[56, 0]),
   midi.NoteOnEvent(tick=3376200, channel=0, data=[36, 100]),
   midi.NoteOffEvent(tick=3376300, channel=0, data=[36, 0]),
   midi.NoteOnEvent(tick=3376400, channel=0, data=[36, 100]),
   midi.NoteOffEvent(tick=3376500, channel=0, data=[36, 0]),
   midi.NoteOnEvent(tick=3376600, channel=0, data=[36, 100]),
   midi.NoteOffEvent(tick=3376700, channel=0, data=[36, 0]),
   midi.NoteOnEvent(tick=3376800, channel=0, data=[36, 100]),
   midi.NoteOffEvent(tick=3376900, channel=0, data=[36, 0]),
   midi.NoteOnEvent(tick=3377000, channel=0, data=[36, 100]),
   midi.NoteOffEvent(tick=3377100, channel=0, data=[36, 0]),
   midi.NoteOnEvent(tick=3377200, channel=0, data=[36, 100]),
   midi.NoteOffEvent(tick=3377300, channel=0, data=[36, 0]),
   midi.NoteOnEvent(tick=3377400, channel=0, data=[36, 100]),
   midi.NoteOffEvent(tick=3377500, channel=0, data=[36, 0]),
   midi.NoteOnEvent(tick=3377600, channel=0, data=[36, 100]),
   midi.NoteOffEvent(tick=3377700, channel=0, data=[36, 0]),
   midi.NoteOnEvent(tick=3377800, channel=0, data=[5, 100]),
   midi.NoteOffEvent(tick=3377900, channel=0, data=[5, 0]),
   midi.NoteOnEvent(tick=3378000, channel=0, data=[8, 100]),
   midi.NoteOffEvent(tick=3378100, channel=0, data=[8, 0]),
   midi.NoteOnEvent(tick=3378200, channel=0, data=[11, 100]),
   midi.NoteOffEvent(tick=3378300, channel=0, data=[11, 0]),
   midi.NoteOnEvent(tick=3378400, channel=0, data=[4, 100]),
   midi.NoteOffEvent(tick=3378500, channel=0, data=[4, 0]),
   midi.NoteOnEvent(tick=3378600, channel=0, data=[29, 100]),
   midi.NoteOffEvent(tick=3378700, channel=0, data=[29, 0]),
   midi.NoteOnEvent(tick=3378800, channel=0, data=[56, 100]),
   midi.NoteOffEvent(tick=3378900, channel=0, data=[56, 0]),
   midi.NoteOnEvent(tick=3379000, channel=0, data=[56, 100]),
   midi.NoteOffEvent(tick=3379100, channel=0, data=[56, 0]),
   midi.NoteOnEvent(tick=3379200, channel=0, data=[36, 100]),
   midi.NoteOffEvent(tick=3379300, channel=0, data=[36, 0]),
   midi.NoteOnEvent(tick=3379400, channel=0, data=[56, 100]),
   midi.NoteOffEvent(tick=3379500, channel=0, data=[56, 0]),
   midi.NoteOnEvent(tick=3379600, channel=0, data=[36, 100]),
   midi.NoteOffEvent(tick=3379700, channel=0, data=[36, 0]),
   midi.NoteOnEvent(tick=3379800, channel=0, data=[36, 100]),
   midi.NoteOffEvent(tick=3379900, channel=0, data=[36, 0]),
   midi.NoteOnEvent(tick=3380000, channel=0, data=[36, 100]),
   midi.NoteOffEvent(tick=3380100, channel=0, data=[36, 0]),
   midi.NoteOnEvent(tick=3380200, channel=0, data=[36, 100]),
   midi.NoteOffEvent(tick=3380300, channel=0, data=[36, 0]),
   midi.NoteOnEvent(tick=3380400, channel=0, data=[8, 100]),
   midi.NoteOffEvent(tick=3380500, channel=0, data=[8, 0]),
   midi.NoteOnEvent(tick=3380600, channel=0, data=[5, 100]),
   midi.NoteOffEvent(tick=3380700, channel=0, data=[5, 0]),
   midi.NoteOnEvent(tick=3380800, channel=0, data=[36, 100]),
   midi.NoteOffEvent(tick=3380900, channel=0, data=[36, 0]),
   midi.NoteOnEvent(tick=3381000, channel=0, data=[19, 100]),
   midi.NoteOffEvent(tick=3381100, channel=0, data=[19, 0]),
   midi.NoteOnEvent(tick=3381200, channel=0, data=[7, 100]),
   midi.NoteOffEvent(tick=3381300, channel=0, data=[7, 0]),
   midi.NoteOnEvent(tick=3381400, channel=0, data=[4, 100]),
   midi.NoteOffEvent(tick=3381500, channel=0, data=[4, 0]),
   midi.NoteOnEvent(tick=3381600, channel=0, data=[36, 100]),
   midi.NoteOffEvent(tick=3381700, channel=0, data=[36, 0]),
   midi.NoteOnEvent(tick=3381800, channel=0, data=[5, 100]),
   midi.NoteOffEvent(tick=3381900, channel=0, data=[5, 0]),
   midi.NoteOnEvent(tick=3382000, channel=0, data=[8, 100]),
   midi.NoteOffEvent(tick=3382100, channel=0, data=[8, 0]),
   midi.NoteOnEvent(tick=3382200, channel=0, data=[17, 100]),
   midi.NoteOffEvent(tick=3382300, channel=0, data=[17, 0]),
   midi.NoteOnEvent(tick=3382400, channel=0, data=[18, 100]),
   midi.NoteOffEvent(tick=3382500, channel=0, data=[18, 0]),
   midi.NoteOnEvent(tick=3382600, channel=0, data=[19, 100]),
   midi.NoteOffEvent(tick=3382700, channel=0, data=[19, 0]),
   midi.NoteOnEvent(tick=3382800, channel=0, data=[36, 100]),
   midi.NoteOffEvent(tick=3382900, channel=0, data=[36, 0]),
   midi.NoteOnEvent(tick=3383000, channel=0, data=[21, 100]),
   midi.NoteOffEvent(tick=3383100, channel=0, data=[21, 0]),
   midi.NoteOnEvent(tick=3383200, channel=0, data=[0, 100]),
   midi.NoteOffEvent(tick=3383300, channel=0, data=[0, 0]),
   midi.NoteOnEvent(tick=3383400, channel=0, data=[11, 100]),
   midi.NoteOffEvent(tick=3383500, channel=0, data=[11, 0]),
   midi.NoteOnEvent(tick=3383600, channel=0, data=[20, 100]),
   midi.NoteOffEvent(tick=3383700, channel=0, data=[20, 0]),
   midi.NoteOnEvent(tick=3383800, channel=0, data=[4, 100]),
   midi.NoteOffEvent(tick=3383900, channel=0, data=[4, 0]),
   midi.NoteOnEvent(tick=3384000, channel=0, data=[36, 100]),
   midi.NoteOffEvent(tick=3384100, channel=0, data=[36, 0]),
   midi.NoteOnEvent(tick=3384200, channel=0, data=[8, 100]),
   midi.NoteOffEvent(tick=3384300, channel=0, data=[8, 0]),
   midi.NoteOnEvent(tick=3384400, channel=0, data=[18, 100]),
   midi.NoteOffEvent(tick=3384500, channel=0, data=[18, 0]),
   midi.NoteOnEvent(tick=3384600, channel=0, data=[36, 100]),
   midi.NoteOffEvent(tick=3384700, channel=0, data=[36, 0]),
   midi.NoteOnEvent(tick=3384800, channel=0, data=[0, 100]),
   midi.NoteOffEvent(tick=3384900, channel=0, data=[0, 0]),
   midi.NoteOnEvent(tick=3385000, channel=0, data=[13, 100]),
   midi.NoteOffEvent(tick=3385100, channel=0, data=[13, 0]),
   midi.NoteOnEvent(tick=3385200, channel=0, data=[36, 100]),
   midi.NoteOffEvent(tick=3385300, channel=0, data=[36, 0]),
   midi.NoteOnEvent(tick=3385400, channel=0, data=[8, 100]),
   midi.NoteOffEvent(tick=3385500, channel=0, data=[8, 0]),
   midi.NoteOnEvent(tick=3385600, channel=0, data=[13, 100]),
   midi.NoteOffEvent(tick=3385700, channel=0, data=[13, 0]),
   midi.NoteOnEvent(tick=3385800, channel=0, data=[19, 100]),
   midi.NoteOffEvent(tick=3385900, channel=0, data=[19, 0]),
   midi.NoteOnEvent(tick=3386000, channel=0, data=[4, 100]),
   midi.NoteOffEvent(tick=3386100, channel=0, data=[4, 0]),
   midi.NoteOnEvent(tick=3386200, channel=0, data=[6, 100]),
   midi.NoteOffEvent(tick=3386300, channel=0, data=[6, 0]),
   midi.NoteOnEvent(tick=3386400, channel=0, data=[4, 100]),
   midi.NoteOffEvent(tick=3386500, channel=0, data=[4, 0]),
   midi.NoteOnEvent(tick=3386600, channel=0, data=[17, 100]),
   midi.NoteOffEvent(tick=3386700, channel=0, data=[17, 0]),
   midi.NoteOnEvent(tick=3386800, channel=0, data=[38, 100]),
   midi.NoteOffEvent(tick=3386900, channel=0, data=[38, 0]),
   midi.NoteOnEvent(tick=3387000, channel=0, data=[36, 100]),
   midi.NoteOffEvent(tick=3387100, channel=0, data=[36, 0]),
   midi.NoteOnEvent(tick=3387200, channel=0, data=[22, 100]),
   midi.NoteOffEvent(tick=3387300, channel=0, data=[22, 0]),
   midi.NoteOnEvent(tick=3387400, channel=0, data=[8, 100]),
   midi.NoteOffEvent(tick=3387500, channel=0, data=[8, 0]),
   midi.NoteOnEvent(tick=3387600, channel=0, data=[13, 100]),
   midi.NoteOffEvent(tick=3387700, channel=0, data=[13, 0]),
   midi.NoteOnEvent(tick=3387800, channel=0, data=[3, 100]),
   midi.NoteOffEvent(tick=3387900, channel=0, data=[3, 0]),
   midi.NoteOnEvent(tick=3388000, channel=0, data=[14, 100]),
   midi.NoteOffEvent(tick=3388100, channel=0, data=[14, 0]),
   midi.NoteOnEvent(tick=3388200, channel=0, data=[22, 100]),
   midi.NoteOffEvent(tick=3388300, channel=0, data=[22, 0]),
   midi.NoteOnEvent(tick=3388400, channel=0, data=[18, 100]),
   midi.NoteOffEvent(tick=3388500, channel=0, data=[18, 0]),
   midi.NoteOnEvent(tick=3388600, channel=0, data=[36, 100]),
   midi.NoteOffEvent(tick=3388700, channel=0, data=[36, 0]),
   midi.NoteOnEvent(tick=3388800, channel=0, data=[15, 100]),
   midi.NoteOffEvent(tick=3388900, channel=0, data=[15, 0]),
   midi.NoteOnEvent(tick=3389000, channel=0, data=[14, 100]),
   midi.NoteOffEvent(tick=3389100, channel=0, data=[14, 0]),
   midi.NoteOnEvent(tick=3389200, channel=0, data=[22, 100]),
   midi.NoteOffEvent(tick=3389300, channel=0, data=[22, 0]),
   midi.NoteOnEvent(tick=3389400, channel=0, data=[4, 100]),
   midi.NoteOffEvent(tick=3389500, channel=0, data=[4, 0]),
   midi.NoteOnEvent(tick=3389600, channel=0, data=[17, 100]),
   midi.NoteOffEvent(tick=3389700, channel=0, data=[17, 0]),
   midi.NoteOnEvent(tick=3389800, channel=0, data=[18, 100]),
   midi.NoteOffEvent(tick=3389900, channel=0, data=[18, 0]),
   midi.NoteOnEvent(tick=3390000, channel=0, data=[7, 100]),
   midi.NoteOffEvent(tick=3390100, channel=0, data=[7, 0]),
   midi.NoteOnEvent(tick=3390200, channel=0, data=[4, 100]),
   midi.NoteOffEvent(tick=3390300, channel=0, data=[4, 0]),
   midi.NoteOnEvent(tick=3390400, channel=0, data=[11, 100]),
   midi.NoteOffEvent(tick=3390500, channel=0, data=[11, 0]),
   midi.NoteOnEvent(tick=3390600, channel=0, data=[11, 100]),
   midi.NoteOffEvent(tick=3390700, channel=0, data=[11, 0]),
   midi.NoteOnEvent(tick=3390800, channel=0, data=[36, 100]),
   midi.NoteOffEvent(tick=3390900, channel=0, data=[36, 0]),
   midi.NoteOnEvent(tick=3391000, channel=0, data=[19, 100]),
   midi.NoteOffEvent(tick=3391100, channel=0, data=[19, 0]),
   midi.NoteOnEvent(tick=3391200, channel=0, data=[17, 100]),
   midi.NoteOffEvent(tick=3391300, channel=0, data=[17, 0]),
   midi.NoteOnEvent(tick=3391400, channel=0, data=[4, 100]),
   midi.NoteOffEvent(tick=3391500, channel=0, data=[4, 0]),
   midi.NoteOnEvent(tick=3391600, channel=0, data=[0, 100]),
   midi.NoteOffEvent(tick=3391700, channel=0, data=[0, 0]),
   midi.NoteOnEvent(tick=3391800, channel=0, data=[19, 100]),
   midi.NoteOffEvent(tick=3391900, channel=0, data=[19, 0]),
   midi.NoteOnEvent(tick=3392000, channel=0, data=[18, 100]),
   midi.NoteOffEvent(tick=3392100, channel=0, data=[18, 0]),
   midi.NoteOnEvent(tick=3392200, channel=0, data=[36, 100]),
   midi.NoteOffEvent(tick=3392300, channel=0, data=[36, 0]),
   midi.NoteOnEvent(tick=3392400, channel=0, data=[0, 100]),
   midi.NoteOffEvent(tick=3392500, channel=0, data=[0, 0]),
   midi.NoteOnEvent(tick=3392600, channel=0, data=[11, 100]),
   midi.NoteOffEvent(tick=3392700, channel=0, data=[11, 0]),
   midi.NoteOnEvent(tick=3392800, channel=0, data=[11, 100]),
   midi.NoteOffEvent(tick=3392900, channel=0, data=[11, 0]),
   midi.NoteOnEvent(tick=3393000, channel=0, data=[36, 100]),
   midi.NoteOffEvent(tick=3393100, channel=0, data=[36, 0]),
   midi.NoteOnEvent(tick=3393200, channel=0, data=[14, 100]),
   midi.NoteOffEvent(tick=3393300, channel=0, data=[14, 0]),
   midi.NoteOnEvent(tick=3393400, channel=0, data=[15, 100]),
   midi.NoteOffEvent(tick=3393500, channel=0, data=[15, 0]),
   midi.NoteOnEvent(tick=3393600, channel=0, data=[4, 100]),
   midi.NoteOffEvent(tick=3393700, channel=0, data=[4, 0]),
   midi.NoteOnEvent(tick=3393800, channel=0, data=[17, 100]),
   midi.NoteOffEvent(tick=3393900, channel=0, data=[17, 0]),
   midi.NoteOnEvent(tick=3394000, channel=0, data=[0, 100]),
   midi.NoteOffEvent(tick=3394100, channel=0, data=[0, 0]),
   midi.NoteOnEvent(tick=3394200, channel=0, data=[19, 100]),
   midi.NoteOffEvent(tick=3394300, channel=0, data=[19, 0]),
   midi.NoteOnEvent(tick=3394400, channel=0, data=[8, 100]),
   midi.NoteOffEvent(tick=3394500, channel=0, data=[8, 0]),
   midi.NoteOnEvent(tick=3394600, channel=0, data=[14, 100]),
   midi.NoteOffEvent(tick=3394700, channel=0, data=[14, 0]),
   midi.NoteOnEvent(tick=3394800, channel=0, data=[13, 100]),
   midi.NoteOffEvent(tick=3394900, channel=0, data=[13, 0]),
   midi.NoteOnEvent(tick=3395000, channel=0, data=[18, 100]),
   midi.NoteOffEvent(tick=3395100, channel=0, data=[18, 0]),
   midi.NoteOnEvent(tick=3395200, channel=0, data=[36, 100]),
   midi.NoteOffEvent(tick=3395300, channel=0, data=[36, 0]),
   midi.NoteOnEvent(tick=3395400, channel=0, data=[56, 100]),
   midi.NoteOffEvent(tick=3395500, channel=0, data=[56, 0]),
   midi.NoteOnEvent(tick=3395600, channel=0, data=[36, 100]),
   midi.NoteOffEvent(tick=3395700, channel=0, data=[36, 0]),
   midi.NoteOnEvent(tick=3395800, channel=0, data=[36, 100]),
   midi.NoteOffEvent(tick=3395900, channel=0, data=[36, 0]),
   midi.NoteOnEvent(tick=3396000, channel=0, data=[36, 100]),
   midi.NoteOffEvent(tick=3396100, channel=0, data=[36, 0]),
   midi.NoteOnEvent(tick=3396200, channel=0, data=[36, 100]),
   midi.NoteOffEvent(tick=3396300, channel=0, data=[36, 0]),
   midi.NoteOnEvent(tick=3396400, channel=0, data=[0, 100]),
   midi.NoteOffEvent(tick=3396500, channel=0, data=[0, 0]),
   midi.NoteOnEvent(tick=3396600, channel=0, data=[18, 100]),
   midi.NoteOffEvent(tick=3396700, channel=0, data=[18, 0]),
   midi.NoteOnEvent(tick=3396800, channel=0, data=[36, 100]),
   midi.NoteOffEvent(tick=3396900, channel=0, data=[36, 0]),
   midi.NoteOnEvent(tick=3397000, channel=0, data=[8, 100]),
   midi.NoteOffEvent(tick=3397100, channel=0, data=[8, 0]),
   midi.NoteOnEvent(tick=3397200, channel=0, data=[13, 100]),
   midi.NoteOffEvent(tick=3397300, channel=0, data=[13, 0]),
   midi.NoteOnEvent(tick=3397400, channel=0, data=[19, 100]),
   midi.NoteOffEvent(tick=3397500, channel=0, data=[19, 0]),
   midi.NoteOnEvent(tick=3397600, channel=0, data=[4, 100]),
   midi.NoteOffEvent(tick=3397700, channel=0, data=[4, 0]),
   midi.NoteOnEvent(tick=3397800, channel=0, data=[6, 100]),
   midi.NoteOffEvent(tick=3397900, channel=0, data=[6, 0]),
   midi.NoteOnEvent(tick=3398000, channel=0, data=[4, 100]),
   midi.NoteOffEvent(tick=3398100, channel=0, data=[4, 0]),
   midi.NoteOnEvent(tick=3398200, channel=0, data=[17, 100]),
   midi.NoteOffEvent(tick=3398300, channel=0, data=[17, 0]),
   midi.NoteOnEvent(tick=3398400, channel=0, data=[36, 100]),
   midi.NoteOffEvent(tick=3398500, channel=0, data=[36, 0]),
   midi.NoteOnEvent(tick=3398600, channel=0, data=[14, 100]),
   midi.NoteOffEvent(tick=3398700, channel=0, data=[14, 0]),
   midi.NoteOnEvent(tick=3398800, channel=0, data=[15, 100]),
   midi.NoteOffEvent(tick=3398900, channel=0, data=[15, 0]),
   midi.NoteOnEvent(tick=3399000, channel=0, data=[4, 100]),
   midi.NoteOffEvent(tick=3399100, channel=0, data=[4, 0]),
   midi.NoteOnEvent(tick=3399200, channel=0, data=[17, 100]),
   midi.NoteOffEvent(tick=3399300, channel=0, data=[17, 0]),
   midi.NoteOnEvent(tick=3399400, channel=0, data=[0, 100]),
   midi.NoteOffEvent(tick=3399500, channel=0, data=[0, 0]),
   midi.NoteOnEvent(tick=3399600, channel=0, data=[19, 100]),
   midi.NoteOffEvent(tick=3399700, channel=0, data=[19, 0]),
   midi.NoteOnEvent(tick=3399800, channel=0, data=[8, 100]),
   midi.NoteOffEvent(tick=3399900, channel=0, data=[8, 0]),
   midi.NoteOnEvent(tick=3400000, channel=0, data=[14, 100]),
   midi.NoteOffEvent(tick=3400100, channel=0, data=[14, 0]),
   midi.NoteOnEvent(tick=3400200, channel=0, data=[13, 100]),
   midi.NoteOffEvent(tick=3400300, channel=0, data=[13, 0]),
   midi.NoteOnEvent(tick=3400400, channel=0, data=[18, 100]),
   midi.NoteOffEvent(tick=3400500, channel=0, data=[18, 0]),
   midi.NoteOnEvent(tick=3400600, channel=0, data=[36, 100]),
   midi.NoteOffEvent(tick=3400700, channel=0, data=[36, 0]),
   midi.NoteOnEvent(tick=3400800, channel=0, data=[0, 100]),
   midi.NoteOffEvent(tick=3400900, channel=0, data=[0, 0]),
   midi.NoteOnEvent(tick=3401000, channel=0, data=[13, 100]),
   midi.NoteOffEvent(tick=3401100, channel=0, data=[13, 0]),
   midi.NoteOnEvent(tick=3401200, channel=0, data=[3, 100]),
   midi.NoteOffEvent(tick=3401300, channel=0, data=[3, 0]),
   midi.NoteOnEvent(tick=3401400, channel=0, data=[36, 100]),
   midi.NoteOffEvent(tick=3401500, channel=0, data=[36, 0]),
   midi.NoteOnEvent(tick=3401600, channel=0, data=[2, 100]),
   midi.NoteOffEvent(tick=3401700, channel=0, data=[2, 0]),
   midi.NoteOnEvent(tick=3401800, channel=0, data=[0, 100]),
   midi.NoteOffEvent(tick=3401900, channel=0, data=[0, 0]),
   midi.NoteOnEvent(tick=3402000, channel=0, data=[18, 100]),
   midi.NoteOffEvent(tick=3402100, channel=0, data=[18, 0]),
   midi.NoteOnEvent(tick=3402200, channel=0, data=[19, 100]),
   midi.NoteOffEvent(tick=3402300, channel=0, data=[19, 0]),
   midi.NoteOnEvent(tick=3402400, channel=0, data=[18, 100]),
   midi.NoteOffEvent(tick=3402500, channel=0, data=[18, 0]),
   midi.NoteOnEvent(tick=3402600, channel=0, data=[36, 100]),
   midi.NoteOffEvent(tick=3402700, channel=0, data=[36, 0]),
   midi.NoteOnEvent(tick=3402800, channel=0, data=[13, 100]),
   midi.NoteOffEvent(tick=3402900, channel=0, data=[13, 0]),
   midi.NoteOnEvent(tick=3403000, channel=0, data=[4, 100]),
   midi.NoteOffEvent(tick=3403100, channel=0, data=[4, 0]),
   midi.NoteOnEvent(tick=3403200, channel=0, data=[22, 100]),
   midi.NoteOffEvent(tick=3403300, channel=0, data=[22, 0]),
   midi.NoteOnEvent(tick=3403400, channel=0, data=[36, 100]),
   midi.NoteOffEvent(tick=3403500, channel=0, data=[36, 0]),
   midi.NoteOnEvent(tick=3403600, channel=0, data=[21, 100]),
   midi.NoteOffEvent(tick=3403700, channel=0, data=[21, 0]),
   midi.NoteOnEvent(tick=3403800, channel=0, data=[0, 100]),
   midi.NoteOffEvent(tick=3403900, channel=0, data=[0, 0]),
   midi.NoteOnEvent(tick=3404000, channel=0, data=[11, 100]),
   midi.NoteOffEvent(tick=3404100, channel=0, data=[11, 0]),
   midi.NoteOnEvent(tick=3404200, channel=0, data=[20, 100]),
   midi.NoteOffEvent(tick=3404300, channel=0, data=[20, 0]),
   midi.NoteOnEvent(tick=3404400, channel=0, data=[4, 100]),
   midi.NoteOffEvent(tick=3404500, channel=0, data=[4, 0]),
   midi.NoteOnEvent(tick=3404600, channel=0, data=[18, 100]),
   midi.NoteOffEvent(tick=3404700, channel=0, data=[18, 0]),
   midi.NoteOnEvent(tick=3404800, channel=0, data=[36, 100]),
   midi.NoteOffEvent(tick=3404900, channel=0, data=[36, 0]),
   midi.NoteOnEvent(tick=3405000, channel=0, data=[19, 100]),
   midi.NoteOffEvent(tick=3405100, channel=0, data=[19, 0]),
   midi.NoteOnEvent(tick=3405200, channel=0, data=[14, 100]),
   midi.NoteOffEvent(tick=3405300, channel=0, data=[14, 0]),
   midi.NoteOnEvent(tick=3405400, channel=0, data=[36, 100]),
   midi.NoteOffEvent(tick=3405500, channel=0, data=[36, 0]),
   midi.NoteOnEvent(tick=3405600, channel=0, data=[8, 100]),
   midi.NoteOffEvent(tick=3405700, channel=0, data=[8, 0]),
   midi.NoteOnEvent(tick=3405800, channel=0, data=[13, 100]),
   midi.NoteOffEvent(tick=3405900, channel=0, data=[13, 0]),
   midi.NoteOnEvent(tick=3406000, channel=0, data=[19, 100]),
   midi.NoteOffEvent(tick=3406100, channel=0, data=[19, 0]),
   midi.NoteOnEvent(tick=3406200, channel=0, data=[4, 100]),
   midi.NoteOffEvent(tick=3406300, channel=0, data=[4, 0]),
   midi.NoteOnEvent(tick=3406400, channel=0, data=[6, 100]),
   midi.NoteOffEvent(tick=3406500, channel=0, data=[6, 0]),
   midi.NoteOnEvent(tick=3406600, channel=0, data=[4, 100]),
   midi.NoteOffEvent(tick=3406700, channel=0, data=[4, 0]),
   midi.NoteOnEvent(tick=3406800, channel=0, data=[17, 100]),
   midi.NoteOffEvent(tick=3406900, channel=0, data=[17, 0]),
   midi.NoteOnEvent(tick=3407000, channel=0, data=[18, 100]),
   midi.NoteOffEvent(tick=3407100, channel=0, data=[18, 0]),
   midi.NoteOnEvent(tick=3407200, channel=0, data=[37, 100]),
   midi.NoteOffEvent(tick=3407300, channel=0, data=[37, 0]),
   midi.NoteOnEvent(tick=3407400, channel=0, data=[36, 100]),
   midi.NoteOffEvent(tick=3407500, channel=0, data=[36, 0]),
   midi.NoteOnEvent(tick=3407600, channel=0, data=[19, 100]),
   midi.NoteOffEvent(tick=3407700, channel=0, data=[19, 0]),
   midi.NoteOnEvent(tick=3407800, channel=0, data=[7, 100]),
   midi.NoteOffEvent(tick=3407900, channel=0, data=[7, 0]),
   midi.NoteOnEvent(tick=3408000, channel=0, data=[8, 100]),
   midi.NoteOffEvent(tick=3408100, channel=0, data=[8, 0]),
   midi.NoteOnEvent(tick=3408200, channel=0, data=[18, 100]),
   midi.NoteOffEvent(tick=3408300, channel=0, data=[18, 0]),
   midi.NoteOnEvent(tick=3408400, channel=0, data=[36, 100]),
   midi.NoteOffEvent(tick=3408500, channel=0, data=[36, 0]),
   midi.NoteOnEvent(tick=3408600, channel=0, data=[14, 100]),
   midi.NoteOffEvent(tick=3408700, channel=0, data=[14, 0]),
   midi.NoteOnEvent(tick=3408800, channel=0, data=[2, 100]),
   midi.NoteOffEvent(tick=3408900, channel=0, data=[2, 0]),
   midi.NoteOnEvent(tick=3409000, channel=0, data=[2, 100]),
   midi.NoteOffEvent(tick=3409100, channel=0, data=[2, 0]),
   midi.NoteOnEvent(tick=3409200, channel=0, data=[20, 100]),
   midi.NoteOffEvent(tick=3409300, channel=0, data=[20, 0]),
   midi.NoteOnEvent(tick=3409400, channel=0, data=[17, 100]),
   midi.NoteOffEvent(tick=3409500, channel=0, data=[17, 0]),
   midi.NoteOnEvent(tick=3409600, channel=0, data=[18, 100]),
   midi.NoteOffEvent(tick=3409700, channel=0, data=[18, 0]),
   midi.NoteOnEvent(tick=3409800, channel=0, data=[36, 100]),
   midi.NoteOffEvent(tick=3409900, channel=0, data=[36, 0]),
   midi.NoteOnEvent(tick=3410000, channel=0, data=[8, 100]),
   midi.NoteOffEvent(tick=3410100, channel=0, data=[8, 0]),
   midi.NoteOnEvent(tick=3410200, channel=0, data=[13, 100]),
   midi.NoteOffEvent(tick=3410300, channel=0, data=[13, 0]),
   midi.NoteOnEvent(tick=3410400, channel=0, data=[36, 100]),
   midi.NoteOffEvent(tick=3410500, channel=0, data=[36, 0]),
   midi.NoteOnEvent(tick=3410600, channel=0, data=[19, 100]),
   midi.NoteOffEvent(tick=3410700, channel=0, data=[19, 0]),
   midi.NoteOnEvent(tick=3410800, channel=0, data=[7, 100]),
   midi.NoteOffEvent(tick=3410900, channel=0, data=[7, 0]),
   midi.NoteOnEvent(tick=3411000, channel=0, data=[4, 100]),
   midi.NoteOffEvent(tick=3411100, channel=0, data=[4, 0]),
   midi.NoteOnEvent(tick=3411200, channel=0, data=[56, 100]),
   midi.NoteOffEvent(tick=3411300, channel=0, data=[56, 0]),
   midi.NoteOnEvent(tick=3411400, channel=0, data=[36, 100]),
   midi.NoteOffEvent(tick=3411500, channel=0, data=[36, 0]),
   midi.NoteOnEvent(tick=3411600, channel=0, data=[36, 100]),
   midi.NoteOffEvent(tick=3411700, channel=0, data=[36, 0]),
   midi.NoteOnEvent(tick=3411800, channel=0, data=[36, 100]),
   midi.NoteOffEvent(tick=3411900, channel=0, data=[36, 0]),
   midi.NoteOnEvent(tick=3412000, channel=0, data=[36, 100]),
   midi.NoteOffEvent(tick=3412100, channel=0, data=[36, 0]),
   midi.NoteOnEvent(tick=3412200, channel=0, data=[5, 100]),
   midi.NoteOffEvent(tick=3412300, channel=0, data=[5, 0]),
   midi.NoteOnEvent(tick=3412400, channel=0, data=[14, 100]),
   midi.NoteOffEvent(tick=3412500, channel=0, data=[14, 0]),
   midi.NoteOnEvent(tick=3412600, channel=0, data=[11, 100]),
   midi.NoteOffEvent(tick=3412700, channel=0, data=[11, 0]),
   midi.NoteOnEvent(tick=3412800, channel=0, data=[11, 100]),
   midi.NoteOffEvent(tick=3412900, channel=0, data=[11, 0]),
   midi.NoteOnEvent(tick=3413000, channel=0, data=[14, 100]),
   midi.NoteOffEvent(tick=3413100, channel=0, data=[14, 0]),
   midi.NoteOnEvent(tick=3413200, channel=0, data=[22, 100]),
   midi.NoteOffEvent(tick=3413300, channel=0, data=[22, 0]),
   midi.NoteOnEvent(tick=3413400, channel=0, data=[8, 100]),
   midi.NoteOffEvent(tick=3413500, channel=0, data=[8, 0]),
   midi.NoteOnEvent(tick=3413600, channel=0, data=[13, 100]),
   midi.NoteOffEvent(tick=3413700, channel=0, data=[13, 0]),
   midi.NoteOnEvent(tick=3413800, channel=0, data=[6, 100]),
   midi.NoteOffEvent(tick=3413900, channel=0, data=[6, 0]),
   midi.NoteOnEvent(tick=3414000, channel=0, data=[36, 100]),
   midi.NoteOffEvent(tick=3414100, channel=0, data=[36, 0]),
   midi.NoteOnEvent(tick=3414200, channel=0, data=[4, 100]),
   midi.NoteOffEvent(tick=3414300, channel=0, data=[4, 0]),
   midi.NoteOnEvent(tick=3414400, channel=0, data=[23, 100]),
   midi.NoteOffEvent(tick=3414500, channel=0, data=[23, 0]),
   midi.NoteOnEvent(tick=3414600, channel=0, data=[0, 100]),
   midi.NoteOffEvent(tick=3414700, channel=0, data=[0, 0]),
   midi.NoteOnEvent(tick=3414800, channel=0, data=[12, 100]),
   midi.NoteOffEvent(tick=3414900, channel=0, data=[12, 0]),
   midi.NoteOnEvent(tick=3415000, channel=0, data=[15, 100]),
   midi.NoteOffEvent(tick=3415100, channel=0, data=[15, 0]),
   midi.NoteOnEvent(tick=3415200, channel=0, data=[11, 100]),
   midi.NoteOffEvent(tick=3415300, channel=0, data=[11, 0]),
   midi.NoteOnEvent(tick=3415400, channel=0, data=[4, 100]),
   midi.NoteOffEvent(tick=3415500, channel=0, data=[4, 0]),
   midi.NoteOnEvent(tick=3415600, channel=0, data=[46, 100]),
   midi.NoteOffEvent(tick=3415700, channel=0, data=[46, 0]),
   midi.NoteOnEvent(tick=3415800, channel=0, data=[56, 100]),
   midi.NoteOffEvent(tick=3415900, channel=0, data=[56, 0]),
   midi.NoteOnEvent(tick=3416000, channel=0, data=[56, 100]),
   midi.NoteOffEvent(tick=3416100, channel=0, data=[56, 0]),
   midi.NoteOnEvent(tick=3416200, channel=0, data=[56, 100]),
   midi.NoteOffEvent(tick=3416300, channel=0, data=[56, 0]),
   midi.NoteOnEvent(tick=3416400, channel=0, data=[36, 100]),
   midi.NoteOffEvent(tick=3416500, channel=0, data=[36, 0]),
   midi.NoteOnEvent(tick=3416600, channel=0, data=[36, 100]),
   midi.NoteOffEvent(tick=3416700, channel=0, data=[36, 0]),
   midi.NoteOnEvent(tick=3416800, channel=0, data=[36, 100]),
   midi.NoteOffEvent(tick=3416900, channel=0, data=[36, 0]),
   midi.NoteOnEvent(tick=3417000, channel=0, data=[36, 100]),
   midi.NoteOffEvent(tick=3417100, channel=0, data=[36, 0]),
   midi.NoteOnEvent(tick=3417200, channel=0, data=[36, 100]),
   midi.NoteOffEvent(tick=3417300, channel=0, data=[36, 0]),
   midi.NoteOnEvent(tick=3417400, channel=0, data=[36, 100]),
   midi.NoteOffEvent(tick=3417500, channel=0, data=[36, 0]),
   midi.NoteOnEvent(tick=3417600, channel=0, data=[36, 100]),
   midi.NoteOffEvent(tick=3417700, channel=0, data=[36, 0]),
   midi.NoteOnEvent(tick=3417800, channel=0, data=[36, 100]),
   midi.NoteOffEvent(tick=3417900, channel=0, data=[36, 0]),
   midi.NoteOnEvent(tick=3418000, channel=0, data=[2, 100]),
   midi.NoteOffEvent(tick=3418100, channel=0, data=[2, 0]),
   midi.NoteOnEvent(tick=3418200, channel=0, data=[46, 100]),
   midi.NoteOffEvent(tick=3418300, channel=0, data=[46, 0]),
   midi.NoteOnEvent(tick=3418400, channel=0, data=[78, 100]),
   midi.NoteOffEvent(tick=3418500, channel=0, data=[78, 0]),
   midi.NoteOnEvent(tick=3418600, channel=0, data=[15, 100]),
   midi.NoteOffEvent(tick=3418700, channel=0, data=[15, 0]),
   midi.NoteOnEvent(tick=3418800, channel=0, data=[18, 100]),
   midi.NoteOffEvent(tick=3418900, channel=0, data=[18, 0]),
   midi.NoteOnEvent(tick=3419000, channel=0, data=[73, 100]),
   midi.NoteOffEvent(tick=3419100, channel=0, data=[73, 0]),
   midi.NoteOnEvent(tick=3419200, channel=0, data=[36, 100]),
   midi.NoteOffEvent(tick=3419300, channel=0, data=[36, 0]),
   midi.NoteOnEvent(tick=3419400, channel=0, data=[74, 100]),
   midi.NoteOffEvent(tick=3419500, channel=0, data=[74, 0]),
   midi.NoteOnEvent(tick=3419600, channel=0, data=[0, 100]),
   midi.NoteOffEvent(tick=3419700, channel=0, data=[0, 0]),
   midi.NoteOnEvent(tick=3419800, channel=0, data=[36, 100]),
   midi.NoteOffEvent(tick=3419900, channel=0, data=[36, 0]),
   midi.NoteOnEvent(tick=3420000, channel=0, data=[69, 100]),
   midi.NoteOffEvent(tick=3420100, channel=0, data=[69, 0]),
   midi.NoteOnEvent(tick=3420200, channel=0, data=[36, 100]),
   midi.NoteOffEvent(tick=3420300, channel=0, data=[36, 0]),
   midi.NoteOnEvent(tick=3420400, channel=0, data=[32, 100]),
   midi.NoteOffEvent(tick=3420500, channel=0, data=[32, 0]),
   midi.NoteOnEvent(tick=3420600, channel=0, data=[56, 100]),
   midi.NoteOffEvent(tick=3420700, channel=0, data=[56, 0]),
   midi.NoteOnEvent(tick=3420800, channel=0, data=[36, 100]),
   midi.NoteOffEvent(tick=3420900, channel=0, data=[36, 0]),
   midi.NoteOnEvent(tick=3421000, channel=0, data=[36, 100]),
   midi.NoteOffEvent(tick=3421100, channel=0, data=[36, 0]),
   midi.NoteOnEvent(tick=3421200, channel=0, data=[36, 100]),
   midi.NoteOffEvent(tick=3421300, channel=0, data=[36, 0]),
   midi.NoteOnEvent(tick=3421400, channel=0, data=[36, 100]),
   midi.NoteOffEvent(tick=3421500, channel=0, data=[36, 0]),
   midi.NoteOnEvent(tick=3421600, channel=0, data=[36, 100]),
   midi.NoteOffEvent(tick=3421700, channel=0, data=[36, 0]),
   midi.NoteOnEvent(tick=3421800, channel=0, data=[36, 100]),
   midi.NoteOffEvent(tick=3421900, channel=0, data=[36, 0]),
   midi.NoteOnEvent(tick=3422000, channel=0, data=[36, 100]),
   midi.NoteOffEvent(tick=3422100, channel=0, data=[36, 0]),
   midi.NoteOnEvent(tick=3422200, channel=0, data=[36, 100]),
   midi.NoteOffEvent(tick=3422300, channel=0, data=[36, 0]),
   midi.NoteOnEvent(tick=3422400, channel=0, data=[2, 100]),
   midi.NoteOffEvent(tick=3422500, channel=0, data=[2, 0]),
   midi.NoteOnEvent(tick=3422600, channel=0, data=[46, 100]),
   midi.NoteOffEvent(tick=3422700, channel=0, data=[46, 0]),
   midi.NoteOnEvent(tick=3422800, channel=0, data=[78, 100]),
   midi.NoteOffEvent(tick=3422900, channel=0, data=[78, 0]),
   midi.NoteOnEvent(tick=3423000, channel=0, data=[15, 100]),
   midi.NoteOffEvent(tick=3423100, channel=0, data=[15, 0]),
   midi.NoteOnEvent(tick=3423200, channel=0, data=[18, 100]),
   midi.NoteOffEvent(tick=3423300, channel=0, data=[18, 0]),
   midi.NoteOnEvent(tick=3423400, channel=0, data=[73, 100]),
   midi.NoteOffEvent(tick=3423500, channel=0, data=[73, 0]),
   midi.NoteOnEvent(tick=3423600, channel=0, data=[36, 100]),
   midi.NoteOffEvent(tick=3423700, channel=0, data=[36, 0]),
   midi.NoteOnEvent(tick=3423800, channel=0, data=[74, 100]),
   midi.NoteOffEvent(tick=3423900, channel=0, data=[74, 0]),
   midi.NoteOnEvent(tick=3424000, channel=0, data=[0, 100]),
   midi.NoteOffEvent(tick=3424100, channel=0, data=[0, 0]),
   midi.NoteOnEvent(tick=3424200, channel=0, data=[36, 100]),
   midi.NoteOffEvent(tick=3424300, channel=0, data=[36, 0]),
   midi.NoteOnEvent(tick=3424400, channel=0, data=[55, 100]),
   midi.NoteOffEvent(tick=3424500, channel=0, data=[55, 0]),
   midi.NoteOnEvent(tick=3424600, channel=0, data=[69, 100]),
   midi.NoteOffEvent(tick=3424700, channel=0, data=[69, 0]),
   midi.NoteOnEvent(tick=3424800, channel=0, data=[36, 100]),
   midi.NoteOffEvent(tick=3424900, channel=0, data=[36, 0]),
   midi.NoteOnEvent(tick=3425000, channel=0, data=[41, 100]),
   midi.NoteOffEvent(tick=3425100, channel=0, data=[41, 0]),
   midi.NoteOnEvent(tick=3425200, channel=0, data=[29, 100]),
   midi.NoteOffEvent(tick=3425300, channel=0, data=[29, 0]),
   midi.NoteOnEvent(tick=3425400, channel=0, data=[41, 100]),
   midi.NoteOffEvent(tick=3425500, channel=0, data=[41, 0]),
   midi.NoteOnEvent(tick=3425600, channel=0, data=[56, 100]),
   midi.NoteOffEvent(tick=3425700, channel=0, data=[56, 0]),
   midi.NoteOnEvent(tick=3425800, channel=0, data=[36, 100]),
   midi.NoteOffEvent(tick=3425900, channel=0, data=[36, 0]),
   midi.NoteOnEvent(tick=3426000, channel=0, data=[36, 100]),
   midi.NoteOffEvent(tick=3426100, channel=0, data=[36, 0]),
   midi.NoteOnEvent(tick=3426200, channel=0, data=[36, 100]),
   midi.NoteOffEvent(tick=3426300, channel=0, data=[36, 0]),
   midi.NoteOnEvent(tick=3426400, channel=0, data=[36, 100]),
   midi.NoteOffEvent(tick=3426500, channel=0, data=[36, 0]),
   midi.NoteOnEvent(tick=3426600, channel=0, data=[36, 100]),
   midi.NoteOffEvent(tick=3426700, channel=0, data=[36, 0]),
   midi.NoteOnEvent(tick=3426800, channel=0, data=[36, 100]),
   midi.NoteOffEvent(tick=3426900, channel=0, data=[36, 0]),
   midi.NoteOnEvent(tick=3427000, channel=0, data=[36, 100]),
   midi.NoteOffEvent(tick=3427100, channel=0, data=[36, 0]),
   midi.NoteOnEvent(tick=3427200, channel=0, data=[36, 100]),
   midi.NoteOffEvent(tick=3427300, channel=0, data=[36, 0]),
   midi.NoteOnEvent(tick=3427400, channel=0, data=[2, 100]),
   midi.NoteOffEvent(tick=3427500, channel=0, data=[2, 0]),
   midi.NoteOnEvent(tick=3427600, channel=0, data=[46, 100]),
   midi.NoteOffEvent(tick=3427700, channel=0, data=[46, 0]),
   midi.NoteOnEvent(tick=3427800, channel=0, data=[78, 100]),
   midi.NoteOffEvent(tick=3427900, channel=0, data=[78, 0]),
   midi.NoteOnEvent(tick=3428000, channel=0, data=[15, 100]),
   midi.NoteOffEvent(tick=3428100, channel=0, data=[15, 0]),
   midi.NoteOnEvent(tick=3428200, channel=0, data=[18, 100]),
   midi.NoteOffEvent(tick=3428300, channel=0, data=[18, 0]),
   midi.NoteOnEvent(tick=3428400, channel=0, data=[73, 100]),
   midi.NoteOffEvent(tick=3428500, channel=0, data=[73, 0]),
   midi.NoteOnEvent(tick=3428600, channel=0, data=[36, 100]),
   midi.NoteOffEvent(tick=3428700, channel=0, data=[36, 0]),
   midi.NoteOnEvent(tick=3428800, channel=0, data=[74, 100]),
   midi.NoteOffEvent(tick=3428900, channel=0, data=[74, 0]),
   midi.NoteOnEvent(tick=3429000, channel=0, data=[0, 100]),
   midi.NoteOffEvent(tick=3429100, channel=0, data=[0, 0]),
   midi.NoteOnEvent(tick=3429200, channel=0, data=[56, 100]),
   midi.NoteOffEvent(tick=3429300, channel=0, data=[56, 0]),
   midi.NoteOnEvent(tick=3429400, channel=0, data=[36, 100]),
   midi.NoteOffEvent(tick=3429500, channel=0, data=[36, 0]),
   midi.NoteOnEvent(tick=3429600, channel=0, data=[36, 100]),
   midi.NoteOffEvent(tick=3429700, channel=0, data=[36, 0]),
   midi.NoteOnEvent(tick=3429800, channel=0, data=[36, 100]),
   midi.NoteOffEvent(tick=3429900, channel=0, data=[36, 0]),
   midi.NoteOnEvent(tick=3430000, channel=0, data=[36, 100]),
   midi.NoteOffEvent(tick=3430100, channel=0, data=[36, 0]),
   midi.NoteOnEvent(tick=3430200, channel=0, data=[36, 100]),
   midi.NoteOffEvent(tick=3430300, channel=0, data=[36, 0]),
   midi.NoteOnEvent(tick=3430400, channel=0, data=[36, 100]),
   midi.NoteOffEvent(tick=3430500, channel=0, data=[36, 0]),
   midi.NoteOnEvent(tick=3430600, channel=0, data=[36, 100]),
   midi.NoteOffEvent(tick=3430700, channel=0, data=[36, 0]),
   midi.NoteOnEvent(tick=3430800, channel=0, data=[36, 100]),
   midi.NoteOffEvent(tick=3430900, channel=0, data=[36, 0]),
   midi.NoteOnEvent(tick=3431000, channel=0, data=[35, 100]),
   midi.NoteOffEvent(tick=3431100, channel=0, data=[35, 0]),
   midi.NoteOnEvent(tick=3431200, channel=0, data=[56, 100]),
   midi.NoteOffEvent(tick=3431300, channel=0, data=[56, 0]),
   midi.NoteOnEvent(tick=3431400, channel=0, data=[56, 100]),
   midi.NoteOffEvent(tick=3431500, channel=0, data=[56, 0]),
   midi.NoteOnEvent(tick=3431600, channel=0, data=[36, 100]),
   midi.NoteOffEvent(tick=3431700, channel=0, data=[36, 0]),
   midi.NoteOnEvent(tick=3431800, channel=0, data=[56, 100]),
   midi.NoteOffEvent(tick=3431900, channel=0, data=[56, 0]),
   midi.NoteOnEvent(tick=3432000, channel=0, data=[36, 100]),
   midi.NoteOffEvent(tick=3432100, channel=0, data=[36, 0]),
   midi.NoteOnEvent(tick=3432200, channel=0, data=[36, 100]),
   midi.NoteOffEvent(tick=3432300, channel=0, data=[36, 0]),
   midi.NoteOnEvent(tick=3432400, channel=0, data=[36, 100]),
   midi.NoteOffEvent(tick=3432500, channel=0, data=[36, 0]),
   midi.NoteOnEvent(tick=3432600, channel=0, data=[36, 100]),
   midi.NoteOffEvent(tick=3432700, channel=0, data=[36, 0]),
   midi.NoteOnEvent(tick=3432800, channel=0, data=[24, 100]),
   midi.NoteOffEvent(tick=3432900, channel=0, data=[24, 0]),
   midi.NoteOnEvent(tick=3433000, channel=0, data=[14, 100]),
   midi.NoteOffEvent(tick=3433100, channel=0, data=[14, 0]),
   midi.NoteOnEvent(tick=3433200, channel=0, data=[20, 100]),
   midi.NoteOffEvent(tick=3433300, channel=0, data=[20, 0]),
   midi.NoteOnEvent(tick=3433400, channel=0, data=[36, 100]),
   midi.NoteOffEvent(tick=3433500, channel=0, data=[36, 0]),
   midi.NoteOnEvent(tick=3433600, channel=0, data=[2, 100]),
   midi.NoteOffEvent(tick=3433700, channel=0, data=[2, 0]),
   midi.NoteOnEvent(tick=3433800, channel=0, data=[0, 100]),
   midi.NoteOffEvent(tick=3433900, channel=0, data=[0, 0]),
   midi.NoteOnEvent(tick=3434000, channel=0, data=[13, 100]),
   midi.NoteOffEvent(tick=3434100, channel=0, data=[13, 0]),
   midi.NoteOnEvent(tick=3434200, channel=0, data=[36, 100]),
   midi.NoteOffEvent(tick=3434300, channel=0, data=[36, 0]),
   midi.NoteOnEvent(tick=3434400, channel=0, data=[2, 100]),
   midi.NoteOffEvent(tick=3434500, channel=0, data=[2, 0]),
   midi.NoteOnEvent(tick=3434600, channel=0, data=[0, 100]),
   midi.NoteOffEvent(tick=3434700, channel=0, data=[0, 0]),
   midi.NoteOnEvent(tick=3434800, channel=0, data=[18, 100]),
   midi.NoteOffEvent(tick=3434900, channel=0, data=[18, 0]),
   midi.NoteOnEvent(tick=3435000, channel=0, data=[19, 100]),
   midi.NoteOffEvent(tick=3435100, channel=0, data=[19, 0]),
   midi.NoteOnEvent(tick=3435200, channel=0, data=[36, 100]),
   midi.NoteOffEvent(tick=3435300, channel=0, data=[36, 0]),
   midi.NoteOnEvent(tick=3435400, channel=0, data=[0, 100]),
   midi.NoteOffEvent(tick=3435500, channel=0, data=[0, 0]),
   midi.NoteOnEvent(tick=3435600, channel=0, data=[36, 100]),
   midi.NoteOffEvent(tick=3435700, channel=0, data=[36, 0]),
   midi.NoteOnEvent(tick=3435800, channel=0, data=[13, 100]),
   midi.NoteOffEvent(tick=3435900, channel=0, data=[13, 0]),
   midi.NoteOnEvent(tick=3436000, channel=0, data=[4, 100]),
   midi.NoteOffEvent(tick=3436100, channel=0, data=[4, 0]),
   midi.NoteOnEvent(tick=3436200, channel=0, data=[22, 100]),
   midi.NoteOffEvent(tick=3436300, channel=0, data=[22, 0]),
   midi.NoteOnEvent(tick=3436400, channel=0, data=[36, 100]),
   midi.NoteOffEvent(tick=3436500, channel=0, data=[36, 0]),
   midi.NoteOnEvent(tick=3436600, channel=0, data=[18, 100]),
   midi.NoteOffEvent(tick=3436700, channel=0, data=[18, 0]),
   midi.NoteOnEvent(tick=3436800, channel=0, data=[2, 100]),
   midi.NoteOffEvent(tick=3436900, channel=0, data=[2, 0]),
   midi.NoteOnEvent(tick=3437000, channel=0, data=[0, 100]),
   midi.NoteOffEvent(tick=3437100, channel=0, data=[0, 0]),
   midi.NoteOnEvent(tick=3437200, channel=0, data=[11, 100]),
   midi.NoteOffEvent(tick=3437300, channel=0, data=[11, 0]),
   midi.NoteOnEvent(tick=3437400, channel=0, data=[0, 100]),
   midi.NoteOffEvent(tick=3437500, channel=0, data=[0, 0]),
   midi.NoteOnEvent(tick=3437600, channel=0, data=[17, 100]),
   midi.NoteOffEvent(tick=3437700, channel=0, data=[17, 0]),
   midi.NoteOnEvent(tick=3437800, channel=0, data=[36, 100]),
   midi.NoteOffEvent(tick=3437900, channel=0, data=[36, 0]),
   midi.NoteOnEvent(tick=3438000, channel=0, data=[21, 100]),
   midi.NoteOffEvent(tick=3438100, channel=0, data=[21, 0]),
   midi.NoteOnEvent(tick=3438200, channel=0, data=[0, 100]),
   midi.NoteOffEvent(tick=3438300, channel=0, data=[0, 0]),
   midi.NoteOnEvent(tick=3438400, channel=0, data=[17, 100]),
   midi.NoteOffEvent(tick=3438500, channel=0, data=[17, 0]),
   midi.NoteOnEvent(tick=3438600, channel=0, data=[8, 100]),
   midi.NoteOffEvent(tick=3438700, channel=0, data=[8, 0]),
   midi.NoteOnEvent(tick=3438800, channel=0, data=[0, 100]),
   midi.NoteOffEvent(tick=3438900, channel=0, data=[0, 0]),
   midi.NoteOnEvent(tick=3439000, channel=0, data=[1, 100]),
   midi.NoteOffEvent(tick=3439100, channel=0, data=[1, 0]),
   midi.NoteOnEvent(tick=3439200, channel=0, data=[11, 100]),
   midi.NoteOffEvent(tick=3439300, channel=0, data=[11, 0]),
   midi.NoteOnEvent(tick=3439400, channel=0, data=[4, 100]),
   midi.NoteOffEvent(tick=3439500, channel=0, data=[4, 0]),
   midi.NoteOnEvent(tick=3439600, channel=0, data=[36, 100]),
   midi.NoteOffEvent(tick=3439700, channel=0, data=[36, 0]),
   midi.NoteOnEvent(tick=3439800, channel=0, data=[0, 100]),
   midi.NoteOffEvent(tick=3439900, channel=0, data=[0, 0]),
   midi.NoteOnEvent(tick=3440000, channel=0, data=[18, 100]),
   midi.NoteOffEvent(tick=3440100, channel=0, data=[18, 0]),
   midi.NoteOnEvent(tick=3440200, channel=0, data=[36, 100]),
   midi.NoteOffEvent(tick=3440300, channel=0, data=[36, 0]),
   midi.NoteOnEvent(tick=3440400, channel=0, data=[0, 100]),
   midi.NoteOffEvent(tick=3440500, channel=0, data=[0, 0]),
   midi.NoteOnEvent(tick=3440600, channel=0, data=[13, 100]),
   midi.NoteOffEvent(tick=3440700, channel=0, data=[13, 0]),
   midi.NoteOnEvent(tick=3440800, channel=0, data=[24, 100]),
   midi.NoteOffEvent(tick=3440900, channel=0, data=[24, 0]),
   midi.NoteOnEvent(tick=3441000, channel=0, data=[36, 100]),
   midi.NoteOffEvent(tick=3441100, channel=0, data=[36, 0]),
   midi.NoteOnEvent(tick=3441200, channel=0, data=[37, 100]),
   midi.NoteOffEvent(tick=3441300, channel=0, data=[37, 0]),
   midi.NoteOnEvent(tick=3441400, channel=0, data=[13, 100]),
   midi.NoteOffEvent(tick=3441500, channel=0, data=[13, 0]),
   midi.NoteOnEvent(tick=3441600, channel=0, data=[4, 100]),
   midi.NoteOffEvent(tick=3441700, channel=0, data=[4, 0]),
   midi.NoteOnEvent(tick=3441800, channel=0, data=[19, 100]),
   midi.NoteOffEvent(tick=3441900, channel=0, data=[19, 0]),
   midi.NoteOnEvent(tick=3442000, channel=0, data=[36, 100]),
   midi.NoteOffEvent(tick=3442100, channel=0, data=[36, 0]),
   midi.NoteOnEvent(tick=3442200, channel=0, data=[5, 100]),
   midi.NoteOffEvent(tick=3442300, channel=0, data=[5, 0]),
   midi.NoteOnEvent(tick=3442400, channel=0, data=[17, 100]),
   midi.NoteOffEvent(tick=3442500, channel=0, data=[17, 0]),
   midi.NoteOnEvent(tick=3442600, channel=0, data=[0, 100]),
   midi.NoteOffEvent(tick=3442700, channel=0, data=[0, 0]),
   midi.NoteOnEvent(tick=3442800, channel=0, data=[12, 100]),
   midi.NoteOffEvent(tick=3442900, channel=0, data=[12, 0]),
   midi.NoteOnEvent(tick=3443000, channel=0, data=[4, 100]),
   midi.NoteOffEvent(tick=3443100, channel=0, data=[4, 0]),
   midi.NoteOnEvent(tick=3443200, channel=0, data=[22, 100]),
   midi.NoteOffEvent(tick=3443300, channel=0, data=[22, 0]),
   midi.NoteOnEvent(tick=3443400, channel=0, data=[14, 100]),
   midi.NoteOffEvent(tick=3443500, channel=0, data=[14, 0]),
   midi.NoteOnEvent(tick=3443600, channel=0, data=[17, 100]),
   midi.NoteOffEvent(tick=3443700, channel=0, data=[17, 0]),
   midi.NoteOnEvent(tick=3443800, channel=0, data=[10, 100]),
   midi.NoteOffEvent(tick=3443900, channel=0, data=[10, 0]),
   midi.NoteOnEvent(tick=3444000, channel=0, data=[36, 100]),
   midi.NoteOffEvent(tick=3444100, channel=0, data=[36, 0]),
   midi.NoteOnEvent(tick=3444200, channel=0, data=[19, 100]),
   midi.NoteOffEvent(tick=3444300, channel=0, data=[19, 0]),
   midi.NoteOnEvent(tick=3444400, channel=0, data=[24, 100]),
   midi.NoteOffEvent(tick=3444500, channel=0, data=[24, 0]),
   midi.NoteOnEvent(tick=3444600, channel=0, data=[15, 100]),
   midi.NoteOffEvent(tick=3444700, channel=0, data=[15, 0]),
   midi.NoteOnEvent(tick=3444800, channel=0, data=[4, 100]),
   midi.NoteOffEvent(tick=3444900, channel=0, data=[4, 0]),
   midi.NoteOnEvent(tick=3445000, channel=0, data=[36, 100]),
   midi.NoteOffEvent(tick=3445100, channel=0, data=[36, 0]),
   midi.NoteOnEvent(tick=3445200, channel=0, data=[1, 100]),
   midi.NoteOffEvent(tick=3445300, channel=0, data=[1, 0]),
   midi.NoteOnEvent(tick=3445400, channel=0, data=[24, 100]),
   midi.NoteOffEvent(tick=3445500, channel=0, data=[24, 0]),
   midi.NoteOnEvent(tick=3445600, channel=0, data=[36, 100]),
   midi.NoteOffEvent(tick=3445700, channel=0, data=[36, 0]),
   midi.NoteOnEvent(tick=3445800, channel=0, data=[15, 100]),
   midi.NoteOffEvent(tick=3445900, channel=0, data=[15, 0]),
   midi.NoteOnEvent(tick=3446000, channel=0, data=[11, 100]),
   midi.NoteOffEvent(tick=3446100, channel=0, data=[11, 0]),
   midi.NoteOnEvent(tick=3446200, channel=0, data=[0, 100]),
   midi.NoteOffEvent(tick=3446300, channel=0, data=[0, 0]),
   midi.NoteOnEvent(tick=3446400, channel=0, data=[2, 100]),
   midi.NoteOffEvent(tick=3446500, channel=0, data=[2, 0]),
   midi.NoteOnEvent(tick=3446600, channel=0, data=[8, 100]),
   midi.NoteOffEvent(tick=3446700, channel=0, data=[8, 0]),
   midi.NoteOnEvent(tick=3446800, channel=0, data=[13, 100]),
   midi.NoteOffEvent(tick=3446900, channel=0, data=[13, 0]),
   midi.NoteOnEvent(tick=3447000, channel=0, data=[6, 100]),
   midi.NoteOffEvent(tick=3447100, channel=0, data=[6, 0]),
   midi.NoteOnEvent(tick=3447200, channel=0, data=[56, 100]),
   midi.NoteOffEvent(tick=3447300, channel=0, data=[56, 0]),
   midi.NoteOnEvent(tick=3447400, channel=0, data=[36, 100]),
   midi.NoteOffEvent(tick=3447500, channel=0, data=[36, 0]),
   midi.NoteOnEvent(tick=3447600, channel=0, data=[36, 100]),
   midi.NoteOffEvent(tick=3447700, channel=0, data=[36, 0]),
   midi.NoteOnEvent(tick=3447800, channel=0, data=[36, 100]),
   midi.NoteOffEvent(tick=3447900, channel=0, data=[36, 0]),
   midi.NoteOnEvent(tick=3448000, channel=0, data=[36, 100]),
   midi.NoteOffEvent(tick=3448100, channel=0, data=[36, 0]),
   midi.NoteOnEvent(tick=3448200, channel=0, data=[19, 100]),
   midi.NoteOffEvent(tick=3448300, channel=0, data=[19, 0]),
   midi.NoteOnEvent(tick=3448400, channel=0, data=[7, 100]),
   midi.NoteOffEvent(tick=3448500, channel=0, data=[7, 0]),
   midi.NoteOnEvent(tick=3448600, channel=0, data=[4, 100]),
   midi.NoteOffEvent(tick=3448700, channel=0, data=[4, 0]),
   midi.NoteOnEvent(tick=3448800, channel=0, data=[36, 100]),
   midi.NoteOffEvent(tick=3448900, channel=0, data=[36, 0]),
   midi.NoteOnEvent(tick=3449000, channel=0, data=[19, 100]),
   midi.NoteOffEvent(tick=3449100, channel=0, data=[19, 0]),
   midi.NoteOnEvent(tick=3449200, channel=0, data=[24, 100]),
   midi.NoteOffEvent(tick=3449300, channel=0, data=[24, 0]),
   midi.NoteOnEvent(tick=3449400, channel=0, data=[15, 100]),
   midi.NoteOffEvent(tick=3449500, channel=0, data=[15, 0]),
   midi.NoteOnEvent(tick=3449600, channel=0, data=[4, 100]),
   midi.NoteOffEvent(tick=3449700, channel=0, data=[4, 0]),
   midi.NoteOnEvent(tick=3449800, channel=0, data=[36, 100]),
   midi.NoteOffEvent(tick=3449900, channel=0, data=[36, 0]),
   midi.NoteOnEvent(tick=3450000, channel=0, data=[13, 100]),
   midi.NoteOffEvent(tick=3450100, channel=0, data=[13, 0]),
   midi.NoteOnEvent(tick=3450200, channel=0, data=[0, 100]),
   midi.NoteOffEvent(tick=3450300, channel=0, data=[0, 0]),
   midi.NoteOnEvent(tick=3450400, channel=0, data=[12, 100]),
   midi.NoteOffEvent(tick=3450500, channel=0, data=[12, 0]),
   midi.NoteOnEvent(tick=3450600, channel=0, data=[4, 100]),
   midi.NoteOffEvent(tick=3450700, channel=0, data=[4, 0]),
   midi.NoteOnEvent(tick=3450800, channel=0, data=[36, 100]),
   midi.NoteOffEvent(tick=3450900, channel=0, data=[36, 0]),
   midi.NoteOnEvent(tick=3451000, channel=0, data=[8, 100]),
   midi.NoteOffEvent(tick=3451100, channel=0, data=[8, 0]),
   midi.NoteOnEvent(tick=3451200, channel=0, data=[13, 100]),
   midi.NoteOffEvent(tick=3451300, channel=0, data=[13, 0]),
   midi.NoteOnEvent(tick=3451400, channel=0, data=[36, 100]),
   midi.NoteOffEvent(tick=3451500, channel=0, data=[36, 0]),
   midi.NoteOnEvent(tick=3451600, channel=0, data=[1, 100]),
   midi.NoteOffEvent(tick=3451700, channel=0, data=[1, 0]),
   midi.NoteOnEvent(tick=3451800, channel=0, data=[17, 100]),
   midi.NoteOffEvent(tick=3451900, channel=0, data=[17, 0]),
   midi.NoteOnEvent(tick=3452000, channel=0, data=[0, 100]),
   midi.NoteOffEvent(tick=3452100, channel=0, data=[0, 0]),
   midi.NoteOnEvent(tick=3452200, channel=0, data=[2, 100]),
   midi.NoteOffEvent(tick=3452300, channel=0, data=[2, 0]),
   midi.NoteOnEvent(tick=3452400, channel=0, data=[10, 100]),
   midi.NoteOffEvent(tick=3452500, channel=0, data=[10, 0]),
   midi.NoteOnEvent(tick=3452600, channel=0, data=[4, 100]),
   midi.NoteOffEvent(tick=3452700, channel=0, data=[4, 0]),
   midi.NoteOnEvent(tick=3452800, channel=0, data=[19, 100]),
   midi.NoteOffEvent(tick=3452900, channel=0, data=[19, 0]),
   midi.NoteOnEvent(tick=3453000, channel=0, data=[18, 100]),
   midi.NoteOffEvent(tick=3453100, channel=0, data=[18, 0]),
   midi.NoteOnEvent(tick=3453200, channel=0, data=[36, 100]),
   midi.NoteOffEvent(tick=3453300, channel=0, data=[36, 0]),
   midi.NoteOnEvent(tick=3453400, channel=0, data=[19, 100]),
   midi.NoteOffEvent(tick=3453500, channel=0, data=[19, 0]),
   midi.NoteOnEvent(tick=3453600, channel=0, data=[7, 100]),
   midi.NoteOffEvent(tick=3453700, channel=0, data=[7, 0]),
   midi.NoteOnEvent(tick=3453800, channel=0, data=[0, 100]),
   midi.NoteOffEvent(tick=3453900, channel=0, data=[0, 0]),
   midi.NoteOnEvent(tick=3454000, channel=0, data=[19, 100]),
   midi.NoteOffEvent(tick=3454100, channel=0, data=[19, 0]),
   midi.NoteOnEvent(tick=3454200, channel=0, data=[36, 100]),
   midi.NoteOffEvent(tick=3454300, channel=0, data=[36, 0]),
   midi.NoteOnEvent(tick=3454400, channel=0, data=[15, 100]),
   midi.NoteOffEvent(tick=3454500, channel=0, data=[15, 0]),
   midi.NoteOnEvent(tick=3454600, channel=0, data=[17, 100]),
   midi.NoteOffEvent(tick=3454700, channel=0, data=[17, 0]),
   midi.NoteOnEvent(tick=3454800, channel=0, data=[4, 100]),
   midi.NoteOffEvent(tick=3454900, channel=0, data=[4, 0]),
   midi.NoteOnEvent(tick=3455000, channel=0, data=[2, 100]),
   midi.NoteOffEvent(tick=3455100, channel=0, data=[2, 0]),
   midi.NoteOnEvent(tick=3455200, channel=0, data=[4, 100]),
   midi.NoteOffEvent(tick=3455300, channel=0, data=[4, 0]),
   midi.NoteOnEvent(tick=3455400, channel=0, data=[3, 100]),
   midi.NoteOffEvent(tick=3455500, channel=0, data=[3, 0]),
   midi.NoteOnEvent(tick=3455600, channel=0, data=[4, 100]),
   midi.NoteOffEvent(tick=3455700, channel=0, data=[4, 0]),
   midi.NoteOnEvent(tick=3455800, channel=0, data=[36, 100]),
   midi.NoteOffEvent(tick=3455900, channel=0, data=[36, 0]),
   midi.NoteOnEvent(tick=3456000, channel=0, data=[4, 100]),
   midi.NoteOffEvent(tick=3456100, channel=0, data=[4, 0]),
   midi.NoteOnEvent(tick=3456200, channel=0, data=[8, 100]),
   midi.NoteOffEvent(tick=3456300, channel=0, data=[8, 0]),
   midi.NoteOnEvent(tick=3456400, channel=0, data=[19, 100]),
   midi.NoteOffEvent(tick=3456500, channel=0, data=[19, 0]),
   midi.NoteOnEvent(tick=3456600, channel=0, data=[7, 100]),
   midi.NoteOffEvent(tick=3456700, channel=0, data=[7, 0]),
   midi.NoteOnEvent(tick=3456800, channel=0, data=[4, 100]),
   midi.NoteOffEvent(tick=3456900, channel=0, data=[4, 0]),
   midi.NoteOnEvent(tick=3457000, channel=0, data=[17, 100]),
   midi.NoteOffEvent(tick=3457100, channel=0, data=[17, 0]),
   midi.NoteOnEvent(tick=3457200, channel=0, data=[36, 100]),
   midi.NoteOffEvent(tick=3457300, channel=0, data=[36, 0]),
   midi.NoteOnEvent(tick=3457400, channel=0, data=[19, 100]),
   midi.NoteOffEvent(tick=3457500, channel=0, data=[19, 0]),
   midi.NoteOnEvent(tick=3457600, channel=0, data=[7, 100]),
   midi.NoteOffEvent(tick=3457700, channel=0, data=[7, 0]),
   midi.NoteOnEvent(tick=3457800, channel=0, data=[4, 100]),
   midi.NoteOffEvent(tick=3457900, channel=0, data=[4, 0]),
   midi.NoteOnEvent(tick=3458000, channel=0, data=[36, 100]),
   midi.NoteOffEvent(tick=3458100, channel=0, data=[36, 0]),
   midi.NoteOnEvent(tick=3458200, channel=0, data=[21, 100]),
   midi.NoteOffEvent(tick=3458300, channel=0, data=[21, 0]),
   midi.NoteOnEvent(tick=3458400, channel=0, data=[0, 100]),
   midi.NoteOffEvent(tick=3458500, channel=0, data=[0, 0]),
   midi.NoteOnEvent(tick=3458600, channel=0, data=[17, 100]),
   midi.NoteOffEvent(tick=3458700, channel=0, data=[17, 0]),
   midi.NoteOnEvent(tick=3458800, channel=0, data=[8, 100]),
   midi.NoteOffEvent(tick=3458900, channel=0, data=[8, 0]),
   midi.NoteOnEvent(tick=3459000, channel=0, data=[0, 100]),
   midi.NoteOffEvent(tick=3459100, channel=0, data=[0, 0]),
   midi.NoteOnEvent(tick=3459200, channel=0, data=[1, 100]),
   midi.NoteOffEvent(tick=3459300, channel=0, data=[1, 0]),
   midi.NoteOnEvent(tick=3459400, channel=0, data=[11, 100]),
   midi.NoteOffEvent(tick=3459500, channel=0, data=[11, 0]),
   midi.NoteOnEvent(tick=3459600, channel=0, data=[4, 100]),
   midi.NoteOffEvent(tick=3459700, channel=0, data=[4, 0]),
   midi.NoteOnEvent(tick=3459800, channel=0, data=[36, 100]),
   midi.NoteOffEvent(tick=3459900, channel=0, data=[36, 0]),
   midi.NoteOnEvent(tick=3460000, channel=0, data=[13, 100]),
   midi.NoteOffEvent(tick=3460100, channel=0, data=[13, 0]),
   midi.NoteOnEvent(tick=3460200, channel=0, data=[0, 100]),
   midi.NoteOffEvent(tick=3460300, channel=0, data=[0, 0]),
   midi.NoteOnEvent(tick=3460400, channel=0, data=[12, 100]),
   midi.NoteOffEvent(tick=3460500, channel=0, data=[12, 0]),
   midi.NoteOnEvent(tick=3460600, channel=0, data=[4, 100]),
   midi.NoteOffEvent(tick=3460700, channel=0, data=[4, 0]),
   midi.NoteOnEvent(tick=3460800, channel=0, data=[36, 100]),
   midi.NoteOffEvent(tick=3460900, channel=0, data=[36, 0]),
   midi.NoteOnEvent(tick=3461000, channel=0, data=[14, 100]),
   midi.NoteOffEvent(tick=3461100, channel=0, data=[14, 0]),
   midi.NoteOnEvent(tick=3461200, channel=0, data=[17, 100]),
   midi.NoteOffEvent(tick=3461300, channel=0, data=[17, 0]),
   midi.NoteOnEvent(tick=3461400, channel=0, data=[56, 100]),
   midi.NoteOffEvent(tick=3461500, channel=0, data=[56, 0]),
   midi.NoteOnEvent(tick=3461600, channel=0, data=[36, 100]),
   midi.NoteOffEvent(tick=3461700, channel=0, data=[36, 0]),
   midi.NoteOnEvent(tick=3461800, channel=0, data=[36, 100]),
   midi.NoteOffEvent(tick=3461900, channel=0, data=[36, 0]),
   midi.NoteOnEvent(tick=3462000, channel=0, data=[36, 100]),
   midi.NoteOffEvent(tick=3462100, channel=0, data=[36, 0]),
   midi.NoteOnEvent(tick=3462200, channel=0, data=[36, 100]),
   midi.NoteOffEvent(tick=3462300, channel=0, data=[36, 0]),
   midi.NoteOnEvent(tick=3462400, channel=0, data=[19, 100]),
   midi.NoteOffEvent(tick=3462500, channel=0, data=[19, 0]),
   midi.NoteOnEvent(tick=3462600, channel=0, data=[7, 100]),
   midi.NoteOffEvent(tick=3462700, channel=0, data=[7, 0]),
   midi.NoteOnEvent(tick=3462800, channel=0, data=[4, 100]),
   midi.NoteOffEvent(tick=3462900, channel=0, data=[4, 0]),
   midi.NoteOnEvent(tick=3463000, channel=0, data=[36, 100]),
   midi.NoteOffEvent(tick=3463100, channel=0, data=[36, 0]),
   midi.NoteOnEvent(tick=3463200, channel=0, data=[5, 100]),
   midi.NoteOffEvent(tick=3463300, channel=0, data=[5, 0]),
   midi.NoteOnEvent(tick=3463400, channel=0, data=[8, 100]),
   midi.NoteOffEvent(tick=3463500, channel=0, data=[8, 0]),
   midi.NoteOnEvent(tick=3463600, channel=0, data=[17, 100]),
   midi.NoteOffEvent(tick=3463700, channel=0, data=[17, 0]),
   midi.NoteOnEvent(tick=3463800, channel=0, data=[18, 100]),
   midi.NoteOffEvent(tick=3463900, channel=0, data=[18, 0]),
   midi.NoteOnEvent(tick=3464000, channel=0, data=[19, 100]),
   midi.NoteOffEvent(tick=3464100, channel=0, data=[19, 0]),
   midi.NoteOnEvent(tick=3464200, channel=0, data=[36, 100]),
   midi.NoteOffEvent(tick=3464300, channel=0, data=[36, 0]),
   midi.NoteOnEvent(tick=3464400, channel=0, data=[0, 100]),
   midi.NoteOffEvent(tick=3464500, channel=0, data=[0, 0]),
   midi.NoteOnEvent(tick=3464600, channel=0, data=[18, 100]),
   midi.NoteOffEvent(tick=3464700, channel=0, data=[18, 0]),
   midi.NoteOnEvent(tick=3464800, channel=0, data=[18, 100]),
   midi.NoteOffEvent(tick=3464900, channel=0, data=[18, 0]),
   midi.NoteOnEvent(tick=3465000, channel=0, data=[8, 100]),
   midi.NoteOffEvent(tick=3465100, channel=0, data=[8, 0]),
   midi.NoteOnEvent(tick=3465200, channel=0, data=[6, 100]),
   midi.NoteOffEvent(tick=3465300, channel=0, data=[6, 0]),
   midi.NoteOnEvent(tick=3465400, channel=0, data=[13, 100]),
   midi.NoteOffEvent(tick=3465500, channel=0, data=[13, 0]),
   midi.NoteOnEvent(tick=3465600, channel=0, data=[12, 100]),
   midi.NoteOffEvent(tick=3465700, channel=0, data=[12, 0]),
   midi.NoteOnEvent(tick=3465800, channel=0, data=[4, 100]),
   midi.NoteOffEvent(tick=3465900, channel=0, data=[4, 0]),
   midi.NoteOnEvent(tick=3466000, channel=0, data=[13, 100]),
   midi.NoteOffEvent(tick=3466100, channel=0, data=[13, 0]),
   midi.NoteOnEvent(tick=3466200, channel=0, data=[19, 100]),
   midi.NoteOffEvent(tick=3466300, channel=0, data=[19, 0]),
   midi.NoteOnEvent(tick=3466400, channel=0, data=[36, 100]),
   midi.NoteOffEvent(tick=3466500, channel=0, data=[36, 0]),
   midi.NoteOnEvent(tick=3466600, channel=0, data=[21, 100]),
   midi.NoteOffEvent(tick=3466700, channel=0, data=[21, 0]),
   midi.NoteOnEvent(tick=3466800, channel=0, data=[0, 100]),
   midi.NoteOffEvent(tick=3466900, channel=0, data=[0, 0]),
   midi.NoteOnEvent(tick=3467000, channel=0, data=[11, 100]),
   midi.NoteOffEvent(tick=3467100, channel=0, data=[11, 0]),
   midi.NoteOnEvent(tick=3467200, channel=0, data=[20, 100]),
   midi.NoteOffEvent(tick=3467300, channel=0, data=[20, 0]),
   midi.NoteOnEvent(tick=3467400, channel=0, data=[4, 100]),
   midi.NoteOffEvent(tick=3467500, channel=0, data=[4, 0]),
   midi.NoteOnEvent(tick=3467600, channel=0, data=[37, 100]),
   midi.NoteOffEvent(tick=3467700, channel=0, data=[37, 0]),
   midi.NoteOnEvent(tick=3467800, channel=0, data=[36, 100]),
   midi.NoteOffEvent(tick=3467900, channel=0, data=[36, 0]),
   midi.NoteOnEvent(tick=3468000, channel=0, data=[22, 100]),
   midi.NoteOffEvent(tick=3468100, channel=0, data=[22, 0]),
   midi.NoteOnEvent(tick=3468200, channel=0, data=[7, 100]),
   midi.NoteOffEvent(tick=3468300, channel=0, data=[7, 0]),
   midi.NoteOnEvent(tick=3468400, channel=0, data=[4, 100]),
   midi.NoteOffEvent(tick=3468500, channel=0, data=[4, 0]),
   midi.NoteOnEvent(tick=3468600, channel=0, data=[13, 100]),
   midi.NoteOffEvent(tick=3468700, channel=0, data=[13, 0]),
   midi.NoteOnEvent(tick=3468800, channel=0, data=[36, 100]),
   midi.NoteOffEvent(tick=3468900, channel=0, data=[36, 0]),
   midi.NoteOnEvent(tick=3469000, channel=0, data=[24, 100]),
   midi.NoteOffEvent(tick=3469100, channel=0, data=[24, 0]),
   midi.NoteOnEvent(tick=3469200, channel=0, data=[14, 100]),
   midi.NoteOffEvent(tick=3469300, channel=0, data=[14, 0]),
   midi.NoteOnEvent(tick=3469400, channel=0, data=[20, 100]),
   midi.NoteOffEvent(tick=3469500, channel=0, data=[20, 0]),
   midi.NoteOnEvent(tick=3469600, channel=0, data=[36, 100]),
   midi.NoteOffEvent(tick=3469700, channel=0, data=[36, 0]),
   midi.NoteOnEvent(tick=3469800, channel=0, data=[2, 100]),
   midi.NoteOffEvent(tick=3469900, channel=0, data=[2, 0]),
   midi.NoteOnEvent(tick=3470000, channel=0, data=[0, 100]),
   midi.NoteOffEvent(tick=3470100, channel=0, data=[0, 0]),
   midi.NoteOnEvent(tick=3470200, channel=0, data=[18, 100]),
   midi.NoteOffEvent(tick=3470300, channel=0, data=[18, 0]),
   midi.NoteOnEvent(tick=3470400, channel=0, data=[19, 100]),
   midi.NoteOffEvent(tick=3470500, channel=0, data=[19, 0]),
   midi.NoteOnEvent(tick=3470600, channel=0, data=[36, 100]),
   midi.NoteOffEvent(tick=3470700, channel=0, data=[36, 0]),
   midi.NoteOnEvent(tick=3470800, channel=0, data=[0, 100]),
   midi.NoteOffEvent(tick=3470900, channel=0, data=[0, 0]),
   midi.NoteOnEvent(tick=3471000, channel=0, data=[36, 100]),
   midi.NoteOffEvent(tick=3471100, channel=0, data=[36, 0]),
   midi.NoteOnEvent(tick=3471200, channel=0, data=[21, 100]),
   midi.NoteOffEvent(tick=3471300, channel=0, data=[21, 0]),
   midi.NoteOnEvent(tick=3471400, channel=0, data=[0, 100]),
   midi.NoteOffEvent(tick=3471500, channel=0, data=[0, 0]),
   midi.NoteOnEvent(tick=3471600, channel=0, data=[17, 100]),
   midi.NoteOffEvent(tick=3471700, channel=0, data=[17, 0]),
   midi.NoteOnEvent(tick=3471800, channel=0, data=[8, 100]),
   midi.NoteOffEvent(tick=3471900, channel=0, data=[8, 0]),
   midi.NoteOnEvent(tick=3472000, channel=0, data=[0, 100]),
   midi.NoteOffEvent(tick=3472100, channel=0, data=[0, 0]),
   midi.NoteOnEvent(tick=3472200, channel=0, data=[1, 100]),
   midi.NoteOffEvent(tick=3472300, channel=0, data=[1, 0]),
   midi.NoteOnEvent(tick=3472400, channel=0, data=[11, 100]),
   midi.NoteOffEvent(tick=3472500, channel=0, data=[11, 0]),
   midi.NoteOnEvent(tick=3472600, channel=0, data=[4, 100]),
   midi.NoteOffEvent(tick=3472700, channel=0, data=[4, 0]),
   midi.NoteOnEvent(tick=3472800, channel=0, data=[38, 100]),
   midi.NoteOffEvent(tick=3472900, channel=0, data=[38, 0]),
   midi.NoteOnEvent(tick=3473000, channel=0, data=[36, 100]),
   midi.NoteOffEvent(tick=3473100, channel=0, data=[36, 0]),
   midi.NoteOnEvent(tick=3473200, channel=0, data=[24, 100]),
   midi.NoteOffEvent(tick=3473300, channel=0, data=[24, 0]),
   midi.NoteOnEvent(tick=3473400, channel=0, data=[14, 100]),
   midi.NoteOffEvent(tick=3473500, channel=0, data=[14, 0]),
   midi.NoteOnEvent(tick=3473600, channel=0, data=[20, 100]),
   midi.NoteOffEvent(tick=3473700, channel=0, data=[20, 0]),
   midi.NoteOnEvent(tick=3473800, channel=0, data=[36, 100]),
   midi.NoteOffEvent(tick=3473900, channel=0, data=[36, 0]),
   midi.NoteOnEvent(tick=3474000, channel=0, data=[2, 100]),
   midi.NoteOffEvent(tick=3474100, channel=0, data=[2, 0]),
   midi.NoteOnEvent(tick=3474200, channel=0, data=[0, 100]),
   midi.NoteOffEvent(tick=3474300, channel=0, data=[0, 0]),
   midi.NoteOnEvent(tick=3474400, channel=0, data=[13, 100]),
   midi.NoteOffEvent(tick=3474500, channel=0, data=[13, 0]),
   midi.NoteOnEvent(tick=3474600, channel=0, data=[36, 100]),
   midi.NoteOffEvent(tick=3474700, channel=0, data=[36, 0]),
   midi.NoteOnEvent(tick=3474800, channel=0, data=[3, 100]),
   midi.NoteOffEvent(tick=3474900, channel=0, data=[3, 0]),
   midi.NoteOnEvent(tick=3475000, channel=0, data=[4, 100]),
   midi.NoteOffEvent(tick=3475100, channel=0, data=[4, 0]),
   midi.NoteOnEvent(tick=3475200, channel=0, data=[19, 100]),
   midi.NoteOffEvent(tick=3475300, channel=0, data=[19, 0]),
   midi.NoteOnEvent(tick=3475400, channel=0, data=[4, 100]),
   midi.NoteOffEvent(tick=3475500, channel=0, data=[4, 0]),
   midi.NoteOnEvent(tick=3475600, channel=0, data=[17, 100]),
   midi.NoteOffEvent(tick=3475700, channel=0, data=[17, 0]),
   midi.NoteOnEvent(tick=3475800, channel=0, data=[12, 100]),
   midi.NoteOffEvent(tick=3475900, channel=0, data=[12, 0]),
   midi.NoteOnEvent(tick=3476000, channel=0, data=[8, 100]),
   midi.NoteOffEvent(tick=3476100, channel=0, data=[8, 0]),
   midi.NoteOnEvent(tick=3476200, channel=0, data=[13, 100]),
   midi.NoteOffEvent(tick=3476300, channel=0, data=[13, 0]),
   midi.NoteOnEvent(tick=3476400, channel=0, data=[4, 100]),
   midi.NoteOffEvent(tick=3476500, channel=0, data=[4, 0]),
   midi.NoteOnEvent(tick=3476600, channel=0, data=[36, 100]),
   midi.NoteOffEvent(tick=3476700, channel=0, data=[36, 0]),
   midi.NoteOnEvent(tick=3476800, channel=0, data=[19, 100]),
   midi.NoteOffEvent(tick=3476900, channel=0, data=[19, 0]),
   midi.NoteOnEvent(tick=3477000, channel=0, data=[7, 100]),
   midi.NoteOffEvent(tick=3477100, channel=0, data=[7, 0]),
   midi.NoteOnEvent(tick=3477200, channel=0, data=[4, 100]),
   midi.NoteOffEvent(tick=3477300, channel=0, data=[4, 0]),
   midi.NoteOnEvent(tick=3477400, channel=0, data=[56, 100]),
   midi.NoteOffEvent(tick=3477500, channel=0, data=[56, 0]),
   midi.NoteOnEvent(tick=3477600, channel=0, data=[36, 100]),
   midi.NoteOffEvent(tick=3477700, channel=0, data=[36, 0]),
   midi.NoteOnEvent(tick=3477800, channel=0, data=[36, 100]),
   midi.NoteOffEvent(tick=3477900, channel=0, data=[36, 0]),
   midi.NoteOnEvent(tick=3478000, channel=0, data=[36, 100]),
   midi.NoteOffEvent(tick=3478100, channel=0, data=[36, 0]),
   midi.NoteOnEvent(tick=3478200, channel=0, data=[36, 100]),
   midi.NoteOffEvent(tick=3478300, channel=0, data=[36, 0]),
   midi.NoteOnEvent(tick=3478400, channel=0, data=[19, 100]),
   midi.NoteOffEvent(tick=3478500, channel=0, data=[19, 0]),
   midi.NoteOnEvent(tick=3478600, channel=0, data=[24, 100]),
   midi.NoteOffEvent(tick=3478700, channel=0, data=[24, 0]),
   midi.NoteOnEvent(tick=3478800, channel=0, data=[15, 100]),
   midi.NoteOffEvent(tick=3478900, channel=0, data=[15, 0]),
   midi.NoteOnEvent(tick=3479000, channel=0, data=[4, 100]),
   midi.NoteOffEvent(tick=3479100, channel=0, data=[4, 0]),
   midi.NoteOnEvent(tick=3479200, channel=0, data=[18, 100]),
   midi.NoteOffEvent(tick=3479300, channel=0, data=[18, 0]),
   midi.NoteOnEvent(tick=3479400, channel=0, data=[36, 100]),
   midi.NoteOffEvent(tick=3479500, channel=0, data=[36, 0]),
   midi.NoteOnEvent(tick=3479600, channel=0, data=[14, 100]),
   midi.NoteOffEvent(tick=3479700, channel=0, data=[14, 0]),
   midi.NoteOnEvent(tick=3479800, channel=0, data=[5, 100]),
   midi.NoteOffEvent(tick=3479900, channel=0, data=[5, 0]),
   midi.NoteOnEvent(tick=3480000, channel=0, data=[36, 100]),
   midi.NoteOffEvent(tick=3480100, channel=0, data=[36, 0]),
   midi.NoteOnEvent(tick=3480200, channel=0, data=[3, 100]),
   midi.NoteOffEvent(tick=3480300, channel=0, data=[3, 0]),
   midi.NoteOnEvent(tick=3480400, channel=0, data=[0, 100]),
   midi.NoteOffEvent(tick=3480500, channel=0, data=[0, 0]),
   midi.NoteOnEvent(tick=3480600, channel=0, data=[19, 100]),
   midi.NoteOffEvent(tick=3480700, channel=0, data=[19, 0]),
   midi.NoteOnEvent(tick=3480800, channel=0, data=[0, 100]),
   midi.NoteOffEvent(tick=3480900, channel=0, data=[0, 0]),
   midi.NoteOnEvent(tick=3481000, channel=0, data=[36, 100]),
   midi.NoteOffEvent(tick=3481100, channel=0, data=[36, 0]),
   midi.NoteOnEvent(tick=3481200, channel=0, data=[19, 100]),
   midi.NoteOffEvent(tick=3481300, channel=0, data=[19, 0]),
   midi.NoteOnEvent(tick=3481400, channel=0, data=[7, 100]),
   midi.NoteOffEvent(tick=3481500, channel=0, data=[7, 0]),
   midi.NoteOnEvent(tick=3481600, channel=0, data=[0, 100]),
   midi.NoteOffEvent(tick=3481700, channel=0, data=[0, 0]),
   midi.NoteOnEvent(tick=3481800, channel=0, data=[19, 100]),
   midi.NoteOffEvent(tick=3481900, channel=0, data=[19, 0]),
   midi.NoteOnEvent(tick=3482000, channel=0, data=[36, 100]),
   midi.NoteOffEvent(tick=3482100, channel=0, data=[36, 0]),
   midi.NoteOnEvent(tick=3482200, channel=0, data=[2, 100]),
   midi.NoteOffEvent(tick=3482300, channel=0, data=[2, 0]),
   midi.NoteOnEvent(tick=3482400, channel=0, data=[0, 100]),
   midi.NoteOffEvent(tick=3482500, channel=0, data=[0, 0]),
   midi.NoteOnEvent(tick=3482600, channel=0, data=[13, 100]),
   midi.NoteOffEvent(tick=3482700, channel=0, data=[13, 0]),
   midi.NoteOnEvent(tick=3482800, channel=0, data=[36, 100]),
   midi.NoteOffEvent(tick=3482900, channel=0, data=[36, 0]),
   midi.NoteOnEvent(tick=3483000, channel=0, data=[1, 100]),
   midi.NoteOffEvent(tick=3483100, channel=0, data=[1, 0]),
   midi.NoteOnEvent(tick=3483200, channel=0, data=[4, 100]),
   midi.NoteOffEvent(tick=3483300, channel=0, data=[4, 0]),
   midi.NoteOnEvent(tick=3483400, channel=0, data=[36, 100]),
   midi.NoteOffEvent(tick=3483500, channel=0, data=[36, 0]),
   midi.NoteOnEvent(tick=3483600, channel=0, data=[18, 100]),
   midi.NoteOffEvent(tick=3483700, channel=0, data=[18, 0]),
   midi.NoteOnEvent(tick=3483800, channel=0, data=[19, 100]),
   midi.NoteOffEvent(tick=3483900, channel=0, data=[19, 0]),
   midi.NoteOnEvent(tick=3484000, channel=0, data=[14, 100]),
   midi.NoteOffEvent(tick=3484100, channel=0, data=[14, 0]),
   midi.NoteOnEvent(tick=3484200, channel=0, data=[17, 100]),
   midi.NoteOffEvent(tick=3484300, channel=0, data=[17, 0]),
   midi.NoteOnEvent(tick=3484400, channel=0, data=[4, 100]),
   midi.NoteOffEvent(tick=3484500, channel=0, data=[4, 0]),
   midi.NoteOnEvent(tick=3484600, channel=0, data=[3, 100]),
   midi.NoteOffEvent(tick=3484700, channel=0, data=[3, 0]),
   midi.NoteOnEvent(tick=3484800, channel=0, data=[36, 100]),
   midi.NoteOffEvent(tick=3484900, channel=0, data=[36, 0]),
   midi.NoteOnEvent(tick=3485000, channel=0, data=[8, 100]),
   midi.NoteOffEvent(tick=3485100, channel=0, data=[8, 0]),
   midi.NoteOnEvent(tick=3485200, channel=0, data=[13, 100]),
   midi.NoteOffEvent(tick=3485300, channel=0, data=[13, 0]),
   midi.NoteOnEvent(tick=3485400, channel=0, data=[36, 100]),
   midi.NoteOffEvent(tick=3485500, channel=0, data=[36, 0]),
   midi.NoteOnEvent(tick=3485600, channel=0, data=[19, 100]),
   midi.NoteOffEvent(tick=3485700, channel=0, data=[19, 0]),
   midi.NoteOnEvent(tick=3485800, channel=0, data=[7, 100]),
   midi.NoteOffEvent(tick=3485900, channel=0, data=[7, 0]),
   midi.NoteOnEvent(tick=3486000, channel=0, data=[4, 100]),
   midi.NoteOffEvent(tick=3486100, channel=0, data=[4, 0]),
   midi.NoteOnEvent(tick=3486200, channel=0, data=[36, 100]),
   midi.NoteOffEvent(tick=3486300, channel=0, data=[36, 0]),
   midi.NoteOnEvent(tick=3486400, channel=0, data=[21, 100]),
   midi.NoteOffEvent(tick=3486500, channel=0, data=[21, 0]),
   midi.NoteOnEvent(tick=3486600, channel=0, data=[0, 100]),
   midi.NoteOffEvent(tick=3486700, channel=0, data=[0, 0]),
   midi.NoteOnEvent(tick=3486800, channel=0, data=[17, 100]),
   midi.NoteOffEvent(tick=3486900, channel=0, data=[17, 0]),
   midi.NoteOnEvent(tick=3487000, channel=0, data=[8, 100]),
   midi.NoteOffEvent(tick=3487100, channel=0, data=[8, 0]),
   midi.NoteOnEvent(tick=3487200, channel=0, data=[0, 100]),
   midi.NoteOffEvent(tick=3487300, channel=0, data=[0, 0]),
   midi.NoteOnEvent(tick=3487400, channel=0, data=[1, 100]),
   midi.NoteOffEvent(tick=3487500, channel=0, data=[1, 0]),
   midi.NoteOnEvent(tick=3487600, channel=0, data=[11, 100]),
   midi.NoteOffEvent(tick=3487700, channel=0, data=[11, 0]),
   midi.NoteOnEvent(tick=3487800, channel=0, data=[4, 100]),
   midi.NoteOffEvent(tick=3487900, channel=0, data=[4, 0]),
   midi.NoteOnEvent(tick=3488000, channel=0, data=[37, 100]),
   midi.NoteOffEvent(tick=3488100, channel=0, data=[37, 0]),
   midi.NoteOnEvent(tick=3488200, channel=0, data=[36, 100]),
   midi.NoteOffEvent(tick=3488300, channel=0, data=[36, 0]),
   midi.NoteOnEvent(tick=3488400, channel=0, data=[0, 100]),
   midi.NoteOffEvent(tick=3488500, channel=0, data=[0, 0]),
   midi.NoteOnEvent(tick=3488600, channel=0, data=[13, 100]),
   midi.NoteOffEvent(tick=3488700, channel=0, data=[13, 0]),
   midi.NoteOnEvent(tick=3488800, channel=0, data=[3, 100]),
   midi.NoteOffEvent(tick=3488900, channel=0, data=[3, 0]),
   midi.NoteOnEvent(tick=3489000, channel=0, data=[38, 100]),
   midi.NoteOffEvent(tick=3489100, channel=0, data=[38, 0]),
   midi.NoteOnEvent(tick=3489200, channel=0, data=[36, 100]),
   midi.NoteOffEvent(tick=3489300, channel=0, data=[36, 0]),
   midi.NoteOnEvent(tick=3489400, channel=0, data=[24, 100]),
   midi.NoteOffEvent(tick=3489500, channel=0, data=[24, 0]),
   midi.NoteOnEvent(tick=3489600, channel=0, data=[14, 100]),
   midi.NoteOffEvent(tick=3489700, channel=0, data=[14, 0]),
   midi.NoteOnEvent(tick=3489800, channel=0, data=[20, 100]),
   midi.NoteOffEvent(tick=3489900, channel=0, data=[20, 0]),
   midi.NoteOnEvent(tick=3490000, channel=0, data=[36, 100]),
   midi.NoteOffEvent(tick=3490100, channel=0, data=[36, 0]),
   midi.NoteOnEvent(tick=3490200, channel=0, data=[2, 100]),
   midi.NoteOffEvent(tick=3490300, channel=0, data=[2, 0]),
   midi.NoteOnEvent(tick=3490400, channel=0, data=[0, 100]),
   midi.NoteOffEvent(tick=3490500, channel=0, data=[0, 0]),
   midi.NoteOnEvent(tick=3490600, channel=0, data=[13, 100]),
   midi.NoteOffEvent(tick=3490700, channel=0, data=[13, 0]),
   midi.NoteOnEvent(tick=3490800, channel=0, data=[36, 100]),
   midi.NoteOffEvent(tick=3490900, channel=0, data=[36, 0]),
   midi.NoteOnEvent(tick=3491000, channel=0, data=[3, 100]),
   midi.NoteOffEvent(tick=3491100, channel=0, data=[3, 0]),
   midi.NoteOnEvent(tick=3491200, channel=0, data=[4, 100]),
   midi.NoteOffEvent(tick=3491300, channel=0, data=[4, 0]),
   midi.NoteOnEvent(tick=3491400, channel=0, data=[19, 100]),
   midi.NoteOffEvent(tick=3491500, channel=0, data=[19, 0]),
   midi.NoteOnEvent(tick=3491600, channel=0, data=[4, 100]),
   midi.NoteOffEvent(tick=3491700, channel=0, data=[4, 0]),
   midi.NoteOnEvent(tick=3491800, channel=0, data=[17, 100]),
   midi.NoteOffEvent(tick=3491900, channel=0, data=[17, 0]),
   midi.NoteOnEvent(tick=3492000, channel=0, data=[12, 100]),
   midi.NoteOffEvent(tick=3492100, channel=0, data=[12, 0]),
   midi.NoteOnEvent(tick=3492200, channel=0, data=[8, 100]),
   midi.NoteOffEvent(tick=3492300, channel=0, data=[8, 0]),
   midi.NoteOnEvent(tick=3492400, channel=0, data=[13, 100]),
   midi.NoteOffEvent(tick=3492500, channel=0, data=[13, 0]),
   midi.NoteOnEvent(tick=3492600, channel=0, data=[4, 100]),
   midi.NoteOffEvent(tick=3492700, channel=0, data=[4, 0]),
   midi.NoteOnEvent(tick=3492800, channel=0, data=[56, 100]),
   midi.NoteOffEvent(tick=3492900, channel=0, data=[56, 0]),
   midi.NoteOnEvent(tick=3493000, channel=0, data=[36, 100]),
   midi.NoteOffEvent(tick=3493100, channel=0, data=[36, 0]),
   midi.NoteOnEvent(tick=3493200, channel=0, data=[36, 100]),
   midi.NoteOffEvent(tick=3493300, channel=0, data=[36, 0]),
   midi.NoteOnEvent(tick=3493400, channel=0, data=[36, 100]),
   midi.NoteOffEvent(tick=3493500, channel=0, data=[36, 0]),
   midi.NoteOnEvent(tick=3493600, channel=0, data=[36, 100]),
   midi.NoteOffEvent(tick=3493700, channel=0, data=[36, 0]),
   midi.NoteOnEvent(tick=3493800, channel=0, data=[7, 100]),
   midi.NoteOffEvent(tick=3493900, channel=0, data=[7, 0]),
   midi.NoteOnEvent(tick=3494000, channel=0, data=[14, 100]),
   midi.NoteOffEvent(tick=3494100, channel=0, data=[14, 0]),
   midi.NoteOnEvent(tick=3494200, channel=0, data=[22, 100]),
   midi.NoteOffEvent(tick=3494300, channel=0, data=[22, 0]),
   midi.NoteOnEvent(tick=3494400, channel=0, data=[36, 100]),
   midi.NoteOffEvent(tick=3494500, channel=0, data=[36, 0]),
   midi.NoteOnEvent(tick=3494600, channel=0, data=[19, 100]),
   midi.NoteOffEvent(tick=3494700, channel=0, data=[19, 0]),
   midi.NoteOnEvent(tick=3494800, channel=0, data=[7, 100]),
   midi.NoteOffEvent(tick=3494900, channel=0, data=[7, 0]),
   midi.NoteOnEvent(tick=3495000, channel=0, data=[4, 100]),
   midi.NoteOffEvent(tick=3495100, channel=0, data=[4, 0]),
   midi.NoteOnEvent(tick=3495200, channel=0, data=[36, 100]),
   midi.NoteOffEvent(tick=3495300, channel=0, data=[36, 0]),
   midi.NoteOnEvent(tick=3495400, channel=0, data=[21, 100]),
   midi.NoteOffEvent(tick=3495500, channel=0, data=[21, 0]),
   midi.NoteOnEvent(tick=3495600, channel=0, data=[0, 100]),
   midi.NoteOffEvent(tick=3495700, channel=0, data=[0, 0]),
   midi.NoteOnEvent(tick=3495800, channel=0, data=[17, 100]),
   midi.NoteOffEvent(tick=3495900, channel=0, data=[17, 0]),
   midi.NoteOnEvent(tick=3496000, channel=0, data=[8, 100]),
   midi.NoteOffEvent(tick=3496100, channel=0, data=[8, 0]),
   midi.NoteOnEvent(tick=3496200, channel=0, data=[0, 100]),
   midi.NoteOffEvent(tick=3496300, channel=0, data=[0, 0]),
   midi.NoteOnEvent(tick=3496400, channel=0, data=[1, 100]),
   midi.NoteOffEvent(tick=3496500, channel=0, data=[1, 0]),
   midi.NoteOnEvent(tick=3496600, channel=0, data=[11, 100]),
   midi.NoteOffEvent(tick=3496700, channel=0, data=[11, 0]),
   midi.NoteOnEvent(tick=3496800, channel=0, data=[4, 100]),
   midi.NoteOffEvent(tick=3496900, channel=0, data=[4, 0]),
   midi.NoteOnEvent(tick=3497000, channel=0, data=[36, 100]),
   midi.NoteOffEvent(tick=3497100, channel=0, data=[36, 0]),
   midi.NoteOnEvent(tick=3497200, channel=0, data=[1, 100]),
   midi.NoteOffEvent(tick=3497300, channel=0, data=[1, 0]),
   midi.NoteOnEvent(tick=3497400, channel=0, data=[4, 100]),
   midi.NoteOffEvent(tick=3497500, channel=0, data=[4, 0]),
   midi.NoteOnEvent(tick=3497600, channel=0, data=[7, 100]),
   midi.NoteOffEvent(tick=3497700, channel=0, data=[7, 0]),
   midi.NoteOnEvent(tick=3497800, channel=0, data=[0, 100]),
   midi.NoteOffEvent(tick=3497900, channel=0, data=[0, 0]),
   midi.NoteOnEvent(tick=3498000, channel=0, data=[21, 100]),
   midi.NoteOffEvent(tick=3498100, channel=0, data=[21, 0]),
   midi.NoteOnEvent(tick=3498200, channel=0, data=[4, 100]),
   midi.NoteOffEvent(tick=3498300, channel=0, data=[4, 0]),
   midi.NoteOnEvent(tick=3498400, channel=0, data=[18, 100]),
   midi.NoteOffEvent(tick=3498500, channel=0, data=[18, 0]),
   midi.NoteOnEvent(tick=3498600, channel=0, data=[36, 100]),
   midi.NoteOffEvent(tick=3498700, channel=0, data=[36, 0]),
   midi.NoteOnEvent(tick=3498800, channel=0, data=[22, 100]),
   midi.NoteOffEvent(tick=3498900, channel=0, data=[22, 0]),
   midi.NoteOnEvent(tick=3499000, channel=0, data=[7, 100]),
   midi.NoteOffEvent(tick=3499100, channel=0, data=[7, 0]),
   midi.NoteOnEvent(tick=3499200, channel=0, data=[4, 100]),
   midi.NoteOffEvent(tick=3499300, channel=0, data=[4, 0]),
   midi.NoteOnEvent(tick=3499400, channel=0, data=[13, 100]),
   midi.NoteOffEvent(tick=3499500, channel=0, data=[13, 0]),
   midi.NoteOnEvent(tick=3499600, channel=0, data=[36, 100]),
   midi.NoteOffEvent(tick=3499700, channel=0, data=[36, 0]),
   midi.NoteOnEvent(tick=3499800, channel=0, data=[24, 100]),
   midi.NoteOffEvent(tick=3499900, channel=0, data=[24, 0]),
   midi.NoteOnEvent(tick=3500000, channel=0, data=[14, 100]),
   midi.NoteOffEvent(tick=3500100, channel=0, data=[14, 0]),
   midi.NoteOnEvent(tick=3500200, channel=0, data=[20, 100]),
   midi.NoteOffEvent(tick=3500300, channel=0, data=[20, 0]),
   midi.NoteOnEvent(tick=3500400, channel=0, data=[36, 100]),
   midi.NoteOffEvent(tick=3500500, channel=0, data=[36, 0]),
   midi.NoteOnEvent(tick=3500600, channel=0, data=[12, 100]),
   midi.NoteOffEvent(tick=3500700, channel=0, data=[12, 0]),
   midi.NoteOnEvent(tick=3500800, channel=0, data=[0, 100]),
   midi.NoteOffEvent(tick=3500900, channel=0, data=[0, 0]),
   midi.NoteOnEvent(tick=3501000, channel=0, data=[13, 100]),
   midi.NoteOffEvent(tick=3501100, channel=0, data=[13, 0]),
   midi.NoteOnEvent(tick=3501200, channel=0, data=[8, 100]),
   midi.NoteOffEvent(tick=3501300, channel=0, data=[8, 0]),
   midi.NoteOnEvent(tick=3501400, channel=0, data=[15, 100]),
   midi.NoteOffEvent(tick=3501500, channel=0, data=[15, 0]),
   midi.NoteOnEvent(tick=3501600, channel=0, data=[20, 100]),
   midi.NoteOffEvent(tick=3501700, channel=0, data=[20, 0]),
   midi.NoteOnEvent(tick=3501800, channel=0, data=[11, 100]),
   midi.NoteOffEvent(tick=3501900, channel=0, data=[11, 0]),
   midi.NoteOnEvent(tick=3502000, channel=0, data=[0, 100]),
   midi.NoteOffEvent(tick=3502100, channel=0, data=[0, 0]),
   midi.NoteOnEvent(tick=3502200, channel=0, data=[19, 100]),
   midi.NoteOffEvent(tick=3502300, channel=0, data=[19, 0]),
   midi.NoteOnEvent(tick=3502400, channel=0, data=[4, 100]),
   midi.NoteOffEvent(tick=3502500, channel=0, data=[4, 0]),
   midi.NoteOnEvent(tick=3502600, channel=0, data=[36, 100]),
   midi.NoteOffEvent(tick=3502700, channel=0, data=[36, 0]),
   midi.NoteOnEvent(tick=3502800, channel=0, data=[8, 100]),
   midi.NoteOffEvent(tick=3502900, channel=0, data=[8, 0]),
   midi.NoteOnEvent(tick=3503000, channel=0, data=[19, 100]),
   midi.NoteOffEvent(tick=3503100, channel=0, data=[19, 0]),
   midi.NoteOnEvent(tick=3503200, channel=0, data=[37, 100]),
   midi.NoteOffEvent(tick=3503300, channel=0, data=[37, 0]),
   midi.NoteOnEvent(tick=3503400, channel=0, data=[56, 100]),
   midi.NoteOffEvent(tick=3503500, channel=0, data=[56, 0]),
   midi.NoteOnEvent(tick=3503600, channel=0, data=[56, 100]),
   midi.NoteOffEvent(tick=3503700, channel=0, data=[56, 0]),
   midi.NoteOnEvent(tick=3503800, channel=0, data=[56, 100]),
   midi.NoteOffEvent(tick=3503900, channel=0, data=[56, 0]),
   midi.NoteOnEvent(tick=3504000, channel=0, data=[36, 100]),
   midi.NoteOffEvent(tick=3504100, channel=0, data=[36, 0]),
   midi.NoteOnEvent(tick=3504200, channel=0, data=[36, 100]),
   midi.NoteOffEvent(tick=3504300, channel=0, data=[36, 0]),
   midi.NoteOnEvent(tick=3504400, channel=0, data=[36, 100]),
   midi.NoteOffEvent(tick=3504500, channel=0, data=[36, 0]),
   midi.NoteOnEvent(tick=3504600, channel=0, data=[36, 100]),
   midi.NoteOffEvent(tick=3504700, channel=0, data=[36, 0]),
   midi.NoteOnEvent(tick=3504800, channel=0, data=[5, 100]),
   midi.NoteOffEvent(tick=3504900, channel=0, data=[5, 0]),
   midi.NoteOnEvent(tick=3505000, channel=0, data=[14, 100]),
   midi.NoteOffEvent(tick=3505100, channel=0, data=[14, 0]),
   midi.NoteOnEvent(tick=3505200, channel=0, data=[17, 100]),
   midi.NoteOffEvent(tick=3505300, channel=0, data=[17, 0]),
   midi.NoteOnEvent(tick=3505400, channel=0, data=[36, 100]),
   midi.NoteOffEvent(tick=3505500, channel=0, data=[36, 0]),
   midi.NoteOnEvent(tick=3505600, channel=0, data=[4, 100]),
   midi.NoteOffEvent(tick=3505700, channel=0, data=[4, 0]),
   midi.NoteOnEvent(tick=3505800, channel=0, data=[23, 100]),
   midi.NoteOffEvent(tick=3505900, channel=0, data=[23, 0]),
   midi.NoteOnEvent(tick=3506000, channel=0, data=[0, 100]),
   midi.NoteOffEvent(tick=3506100, channel=0, data=[0, 0]),
   midi.NoteOnEvent(tick=3506200, channel=0, data=[12, 100]),
   midi.NoteOffEvent(tick=3506300, channel=0, data=[12, 0]),
   midi.NoteOnEvent(tick=3506400, channel=0, data=[15, 100]),
   midi.NoteOffEvent(tick=3506500, channel=0, data=[15, 0]),
   midi.NoteOnEvent(tick=3506600, channel=0, data=[11, 100]),
   midi.NoteOffEvent(tick=3506700, channel=0, data=[11, 0]),
   midi.NoteOnEvent(tick=3506800, channel=0, data=[4, 100]),
   midi.NoteOffEvent(tick=3506900, channel=0, data=[4, 0]),
   midi.NoteOnEvent(tick=3507000, channel=0, data=[38, 100]),
   midi.NoteOffEvent(tick=3507100, channel=0, data=[38, 0]),
   midi.NoteOnEvent(tick=3507200, channel=0, data=[36, 100]),
   midi.NoteOffEvent(tick=3507300, channel=0, data=[36, 0]),
   midi.NoteOnEvent(tick=3507400, channel=0, data=[19, 100]),
   midi.NoteOffEvent(tick=3507500, channel=0, data=[19, 0]),
   midi.NoteOnEvent(tick=3507600, channel=0, data=[7, 100]),
   midi.NoteOffEvent(tick=3507700, channel=0, data=[7, 0]),
   midi.NoteOnEvent(tick=3507800, channel=0, data=[4, 100]),
   midi.NoteOffEvent(tick=3507900, channel=0, data=[4, 0]),
   midi.NoteOnEvent(tick=3508000, channel=0, data=[36, 100]),
   midi.NoteOffEvent(tick=3508100, channel=0, data=[36, 0]),
   midi.NoteOnEvent(tick=3508200, channel=0, data=[5, 100]),
   midi.NoteOffEvent(tick=3508300, channel=0, data=[5, 0]),
   midi.NoteOnEvent(tick=3508400, channel=0, data=[14, 100]),
   midi.NoteOffEvent(tick=3508500, channel=0, data=[14, 0]),
   midi.NoteOnEvent(tick=3508600, channel=0, data=[11, 100]),
   midi.NoteOffEvent(tick=3508700, channel=0, data=[11, 0]),
   midi.NoteOnEvent(tick=3508800, channel=0, data=[11, 100]),
   midi.NoteOffEvent(tick=3508900, channel=0, data=[11, 0]),
   midi.NoteOnEvent(tick=3509000, channel=0, data=[14, 100]),
   midi.NoteOffEvent(tick=3509100, channel=0, data=[14, 0]),
   midi.NoteOnEvent(tick=3509200, channel=0, data=[22, 100]),
   midi.NoteOffEvent(tick=3509300, channel=0, data=[22, 0]),
   midi.NoteOnEvent(tick=3509400, channel=0, data=[8, 100]),
   midi.NoteOffEvent(tick=3509500, channel=0, data=[8, 0]),
   midi.NoteOnEvent(tick=3509600, channel=0, data=[13, 100]),
   midi.NoteOffEvent(tick=3509700, channel=0, data=[13, 0]),
   midi.NoteOnEvent(tick=3509800, channel=0, data=[6, 100]),
   midi.NoteOffEvent(tick=3509900, channel=0, data=[6, 0]),
   midi.NoteOnEvent(tick=3510000, channel=0, data=[36, 100]),
   midi.NoteOffEvent(tick=3510100, channel=0, data=[36, 0]),
   midi.NoteOnEvent(tick=3510200, channel=0, data=[2, 100]),
   midi.NoteOffEvent(tick=3510300, channel=0, data=[2, 0]),
   midi.NoteOnEvent(tick=3510400, channel=0, data=[14, 100]),
   midi.NoteOffEvent(tick=3510500, channel=0, data=[14, 0]),
   midi.NoteOnEvent(tick=3510600, channel=0, data=[12, 100]),
   midi.NoteOffEvent(tick=3510700, channel=0, data=[12, 0]),
   midi.NoteOnEvent(tick=3510800, channel=0, data=[12, 100]),
   midi.NoteOffEvent(tick=3510900, channel=0, data=[12, 0]),
   midi.NoteOnEvent(tick=3511000, channel=0, data=[0, 100]),
   midi.NoteOffEvent(tick=3511100, channel=0, data=[0, 0]),
   midi.NoteOnEvent(tick=3511200, channel=0, data=[13, 100]),
   midi.NoteOffEvent(tick=3511300, channel=0, data=[13, 0]),
   midi.NoteOnEvent(tick=3511400, channel=0, data=[3, 100]),
   midi.NoteOffEvent(tick=3511500, channel=0, data=[3, 0]),
   midi.NoteOnEvent(tick=3511600, channel=0, data=[36, 100]),
   midi.NoteOffEvent(tick=3511700, channel=0, data=[36, 0]),
   midi.NoteOnEvent(tick=3511800, channel=0, data=[2, 100]),
   midi.NoteOffEvent(tick=3511900, channel=0, data=[2, 0]),
   midi.NoteOnEvent(tick=3512000, channel=0, data=[0, 100]),
   midi.NoteOffEvent(tick=3512100, channel=0, data=[0, 0]),
   midi.NoteOnEvent(tick=3512200, channel=0, data=[18, 100]),
   midi.NoteOffEvent(tick=3512300, channel=0, data=[18, 0]),
   midi.NoteOnEvent(tick=3512400, channel=0, data=[19, 100]),
   midi.NoteOffEvent(tick=3512500, channel=0, data=[19, 0]),
   midi.NoteOnEvent(tick=3512600, channel=0, data=[18, 100]),
   midi.NoteOffEvent(tick=3512700, channel=0, data=[18, 0]),
   midi.NoteOnEvent(tick=3512800, channel=0, data=[36, 100]),
   midi.NoteOffEvent(tick=3512900, channel=0, data=[36, 0]),
   midi.NoteOnEvent(tick=3513000, channel=0, data=[19, 100]),
   midi.NoteOffEvent(tick=3513100, channel=0, data=[19, 0]),
   midi.NoteOnEvent(tick=3513200, channel=0, data=[7, 100]),
   midi.NoteOffEvent(tick=3513300, channel=0, data=[7, 0]),
   midi.NoteOnEvent(tick=3513400, channel=0, data=[4, 100]),
   midi.NoteOffEvent(tick=3513500, channel=0, data=[4, 0]),
   midi.NoteOnEvent(tick=3513600, channel=0, data=[36, 100]),
   midi.NoteOffEvent(tick=3513700, channel=0, data=[36, 0]),
   midi.NoteOnEvent(tick=3513800, channel=0, data=[21, 100]),
   midi.NoteOffEvent(tick=3513900, channel=0, data=[21, 0]),
   midi.NoteOnEvent(tick=3514000, channel=0, data=[0, 100]),
   midi.NoteOffEvent(tick=3514100, channel=0, data=[0, 0]),
   midi.NoteOnEvent(tick=3514200, channel=0, data=[17, 100]),
   midi.NoteOffEvent(tick=3514300, channel=0, data=[17, 0]),
   midi.NoteOnEvent(tick=3514400, channel=0, data=[8, 100]),
   midi.NoteOffEvent(tick=3514500, channel=0, data=[8, 0]),
   midi.NoteOnEvent(tick=3514600, channel=0, data=[0, 100]),
   midi.NoteOffEvent(tick=3514700, channel=0, data=[0, 0]),
   midi.NoteOnEvent(tick=3514800, channel=0, data=[1, 100]),
   midi.NoteOffEvent(tick=3514900, channel=0, data=[1, 0]),
   midi.NoteOnEvent(tick=3515000, channel=0, data=[11, 100]),
   midi.NoteOffEvent(tick=3515100, channel=0, data=[11, 0]),
   midi.NoteOnEvent(tick=3515200, channel=0, data=[4, 100]),
   midi.NoteOffEvent(tick=3515300, channel=0, data=[4, 0]),
   midi.NoteOnEvent(tick=3515400, channel=0, data=[36, 100]),
   midi.NoteOffEvent(tick=3515500, channel=0, data=[36, 0]),
   midi.NoteOnEvent(tick=3515600, channel=0, data=[0, 100]),
   midi.NoteOffEvent(tick=3515700, channel=0, data=[0, 0]),
   midi.NoteOnEvent(tick=3515800, channel=0, data=[18, 100]),
   midi.NoteOffEvent(tick=3515900, channel=0, data=[18, 0]),
   midi.NoteOnEvent(tick=3516000, channel=0, data=[36, 100]),
   midi.NoteOffEvent(tick=3516100, channel=0, data=[36, 0]),
   midi.NoteOnEvent(tick=3516200, channel=0, data=[0, 100]),
   midi.NoteOffEvent(tick=3516300, channel=0, data=[0, 0]),
   midi.NoteOnEvent(tick=3516400, channel=0, data=[36, 100]),
   midi.NoteOffEvent(tick=3516500, channel=0, data=[36, 0]),
   midi.NoteOnEvent(tick=3516600, channel=0, data=[18, 100]),
   midi.NoteOffEvent(tick=3516700, channel=0, data=[18, 0]),
   midi.NoteOnEvent(tick=3516800, channel=0, data=[19, 100]),
   midi.NoteOffEvent(tick=3516900, channel=0, data=[19, 0]),
   midi.NoteOnEvent(tick=3517000, channel=0, data=[17, 100]),
   midi.NoteOffEvent(tick=3517100, channel=0, data=[17, 0]),
   midi.NoteOnEvent(tick=3517200, channel=0, data=[8, 100]),
   midi.NoteOffEvent(tick=3517300, channel=0, data=[8, 0]),
   midi.NoteOnEvent(tick=3517400, channel=0, data=[13, 100]),
   midi.NoteOffEvent(tick=3517500, channel=0, data=[13, 0]),
   midi.NoteOnEvent(tick=3517600, channel=0, data=[6, 100]),
   midi.NoteOffEvent(tick=3517700, channel=0, data=[6, 0]),
   midi.NoteOnEvent(tick=3517800, channel=0, data=[36, 100]),
   midi.NoteOffEvent(tick=3517900, channel=0, data=[36, 0]),
   midi.NoteOnEvent(tick=3518000, channel=0, data=[19, 100]),
   midi.NoteOffEvent(tick=3518100, channel=0, data=[19, 0]),
   midi.NoteOnEvent(tick=3518200, channel=0, data=[24, 100]),
   midi.NoteOffEvent(tick=3518300, channel=0, data=[24, 0]),
   midi.NoteOnEvent(tick=3518400, channel=0, data=[15, 100]),
   midi.NoteOffEvent(tick=3518500, channel=0, data=[15, 0]),
   midi.NoteOnEvent(tick=3518600, channel=0, data=[4, 100]),
   midi.NoteOffEvent(tick=3518700, channel=0, data=[4, 0]),
   midi.NoteOnEvent(tick=3518800, channel=0, data=[46, 100]),
   midi.NoteOffEvent(tick=3518900, channel=0, data=[46, 0]),
   midi.NoteOnEvent(tick=3519000, channel=0, data=[56, 100]),
   midi.NoteOffEvent(tick=3519100, channel=0, data=[56, 0]),
   midi.NoteOnEvent(tick=3519200, channel=0, data=[56, 100]),
   midi.NoteOffEvent(tick=3519300, channel=0, data=[56, 0]),
   midi.NoteOnEvent(tick=3519400, channel=0, data=[56, 100]),
   midi.NoteOffEvent(tick=3519500, channel=0, data=[56, 0]),
   midi.NoteOnEvent(tick=3519600, channel=0, data=[36, 100]),
   midi.NoteOffEvent(tick=3519700, channel=0, data=[36, 0]),
   midi.NoteOnEvent(tick=3519800, channel=0, data=[36, 100]),
   midi.NoteOffEvent(tick=3519900, channel=0, data=[36, 0]),
   midi.NoteOnEvent(tick=3520000, channel=0, data=[36, 100]),
   midi.NoteOffEvent(tick=3520100, channel=0, data=[36, 0]),
   midi.NoteOnEvent(tick=3520200, channel=0, data=[36, 100]),
   midi.NoteOffEvent(tick=3520300, channel=0, data=[36, 0]),
   midi.NoteOnEvent(tick=3520400, channel=0, data=[36, 100]),
   midi.NoteOffEvent(tick=3520500, channel=0, data=[36, 0]),
   midi.NoteOnEvent(tick=3520600, channel=0, data=[36, 100]),
   midi.NoteOffEvent(tick=3520700, channel=0, data=[36, 0]),
   midi.NoteOnEvent(tick=3520800, channel=0, data=[36, 100]),
   midi.NoteOffEvent(tick=3520900, channel=0, data=[36, 0]),
   midi.NoteOnEvent(tick=3521000, channel=0, data=[36, 100]),
   midi.NoteOffEvent(tick=3521100, channel=0, data=[36, 0]),
   midi.NoteOnEvent(tick=3521200, channel=0, data=[2, 100]),
   midi.NoteOffEvent(tick=3521300, channel=0, data=[2, 0]),
   midi.NoteOnEvent(tick=3521400, channel=0, data=[46, 100]),
   midi.NoteOffEvent(tick=3521500, channel=0, data=[46, 0]),
   midi.NoteOnEvent(tick=3521600, channel=0, data=[78, 100]),
   midi.NoteOffEvent(tick=3521700, channel=0, data=[78, 0]),
   midi.NoteOnEvent(tick=3521800, channel=0, data=[15, 100]),
   midi.NoteOffEvent(tick=3521900, channel=0, data=[15, 0]),
   midi.NoteOnEvent(tick=3522000, channel=0, data=[18, 100]),
   midi.NoteOffEvent(tick=3522100, channel=0, data=[18, 0]),
   midi.NoteOnEvent(tick=3522200, channel=0, data=[73, 100]),
   midi.NoteOffEvent(tick=3522300, channel=0, data=[73, 0]),
   midi.NoteOnEvent(tick=3522400, channel=0, data=[36, 100]),
   midi.NoteOffEvent(tick=3522500, channel=0, data=[36, 0]),
   midi.NoteOnEvent(tick=3522600, channel=0, data=[51, 100]),
   midi.NoteOffEvent(tick=3522700, channel=0, data=[51, 0]),
   midi.NoteOnEvent(tick=3522800, channel=0, data=[18, 100]),
   midi.NoteOffEvent(tick=3522900, channel=0, data=[18, 0]),
   midi.NoteOnEvent(tick=3523000, channel=0, data=[19, 100]),
   midi.NoteOffEvent(tick=3523100, channel=0, data=[19, 0]),
   midi.NoteOnEvent(tick=3523200, channel=0, data=[17, 100]),
   midi.NoteOffEvent(tick=3523300, channel=0, data=[17, 0]),
   midi.NoteOnEvent(tick=3523400, channel=0, data=[8, 100]),
   midi.NoteOffEvent(tick=3523500, channel=0, data=[8, 0]),
   midi.NoteOnEvent(tick=3523600, channel=0, data=[13, 100]),
   midi.NoteOffEvent(tick=3523700, channel=0, data=[13, 0]),
   midi.NoteOnEvent(tick=3523800, channel=0, data=[6, 100]),
   midi.NoteOffEvent(tick=3523900, channel=0, data=[6, 0]),
   midi.NoteOnEvent(tick=3524000, channel=0, data=[52, 100]),
   midi.NoteOffEvent(tick=3524100, channel=0, data=[52, 0]),
   midi.NoteOnEvent(tick=3524200, channel=0, data=[74, 100]),
   midi.NoteOffEvent(tick=3524300, channel=0, data=[74, 0]),
   midi.NoteOnEvent(tick=3524400, channel=0, data=[0, 100]),
   midi.NoteOffEvent(tick=3524500, channel=0, data=[0, 0]),
   midi.NoteOnEvent(tick=3524600, channel=0, data=[36, 100]),
   midi.NoteOffEvent(tick=3524700, channel=0, data=[36, 0]),
   midi.NoteOnEvent(tick=3524800, channel=0, data=[69, 100]),
   midi.NoteOffEvent(tick=3524900, channel=0, data=[69, 0]),
   midi.NoteOnEvent(tick=3525000, channel=0, data=[36, 100]),
   midi.NoteOffEvent(tick=3525100, channel=0, data=[36, 0]),
   midi.NoteOnEvent(tick=3525200, channel=0, data=[28, 100]),
   midi.NoteOffEvent(tick=3525300, channel=0, data=[28, 0]),
   midi.NoteOnEvent(tick=3525400, channel=0, data=[33, 100]),
   midi.NoteOffEvent(tick=3525500, channel=0, data=[33, 0]),
   midi.NoteOnEvent(tick=3525600, channel=0, data=[56, 100]),
   midi.NoteOffEvent(tick=3525700, channel=0, data=[56, 0]),
   midi.NoteOnEvent(tick=3525800, channel=0, data=[36, 100]),
   midi.NoteOffEvent(tick=3525900, channel=0, data=[36, 0]),
   midi.NoteOnEvent(tick=3526000, channel=0, data=[36, 100]),
   midi.NoteOffEvent(tick=3526100, channel=0, data=[36, 0]),
   midi.NoteOnEvent(tick=3526200, channel=0, data=[36, 100]),
   midi.NoteOffEvent(tick=3526300, channel=0, data=[36, 0]),
   midi.NoteOnEvent(tick=3526400, channel=0, data=[36, 100]),
   midi.NoteOffEvent(tick=3526500, channel=0, data=[36, 0]),
   midi.NoteOnEvent(tick=3526600, channel=0, data=[36, 100]),
   midi.NoteOffEvent(tick=3526700, channel=0, data=[36, 0]),
   midi.NoteOnEvent(tick=3526800, channel=0, data=[36, 100]),
   midi.NoteOffEvent(tick=3526900, channel=0, data=[36, 0]),
   midi.NoteOnEvent(tick=3527000, channel=0, data=[36, 100]),
   midi.NoteOffEvent(tick=3527100, channel=0, data=[36, 0]),
   midi.NoteOnEvent(tick=3527200, channel=0, data=[36, 100]),
   midi.NoteOffEvent(tick=3527300, channel=0, data=[36, 0]),
   midi.NoteOnEvent(tick=3527400, channel=0, data=[2, 100]),
   midi.NoteOffEvent(tick=3527500, channel=0, data=[2, 0]),
   midi.NoteOnEvent(tick=3527600, channel=0, data=[46, 100]),
   midi.NoteOffEvent(tick=3527700, channel=0, data=[46, 0]),
   midi.NoteOnEvent(tick=3527800, channel=0, data=[78, 100]),
   midi.NoteOffEvent(tick=3527900, channel=0, data=[78, 0]),
   midi.NoteOnEvent(tick=3528000, channel=0, data=[15, 100]),
   midi.NoteOffEvent(tick=3528100, channel=0, data=[15, 0]),
   midi.NoteOnEvent(tick=3528200, channel=0, data=[18, 100]),
   midi.NoteOffEvent(tick=3528300, channel=0, data=[18, 0]),
   midi.NoteOnEvent(tick=3528400, channel=0, data=[73, 100]),
   midi.NoteOffEvent(tick=3528500, channel=0, data=[73, 0]),
   midi.NoteOnEvent(tick=3528600, channel=0, data=[36, 100]),
   midi.NoteOffEvent(tick=3528700, channel=0, data=[36, 0]),
   midi.NoteOnEvent(tick=3528800, channel=0, data=[74, 100]),
   midi.NoteOffEvent(tick=3528900, channel=0, data=[74, 0]),
   midi.NoteOnEvent(tick=3529000, channel=0, data=[0, 100]),
   midi.NoteOffEvent(tick=3529100, channel=0, data=[0, 0]),
   midi.NoteOnEvent(tick=3529200, channel=0, data=[36, 100]),
   midi.NoteOffEvent(tick=3529300, channel=0, data=[36, 0]),
   midi.NoteOnEvent(tick=3529400, channel=0, data=[55, 100]),
   midi.NoteOffEvent(tick=3529500, channel=0, data=[55, 0]),
   midi.NoteOnEvent(tick=3529600, channel=0, data=[69, 100]),
   midi.NoteOffEvent(tick=3529700, channel=0, data=[69, 0]),
   midi.NoteOnEvent(tick=3529800, channel=0, data=[36, 100]),
   midi.NoteOffEvent(tick=3529900, channel=0, data=[36, 0]),
   midi.NoteOnEvent(tick=3530000, channel=0, data=[29, 100]),
   midi.NoteOffEvent(tick=3530100, channel=0, data=[29, 0]),
   midi.NoteOnEvent(tick=3530200, channel=0, data=[56, 100]),
   midi.NoteOffEvent(tick=3530300, channel=0, data=[56, 0]),
   midi.NoteOnEvent(tick=3530400, channel=0, data=[36, 100]),
   midi.NoteOffEvent(tick=3530500, channel=0, data=[36, 0]),
   midi.NoteOnEvent(tick=3530600, channel=0, data=[36, 100]),
   midi.NoteOffEvent(tick=3530700, channel=0, data=[36, 0]),
   midi.NoteOnEvent(tick=3530800, channel=0, data=[36, 100]),
   midi.NoteOffEvent(tick=3530900, channel=0, data=[36, 0]),
   midi.NoteOnEvent(tick=3531000, channel=0, data=[36, 100]),
   midi.NoteOffEvent(tick=3531100, channel=0, data=[36, 0]),
   midi.NoteOnEvent(tick=3531200, channel=0, data=[36, 100]),
   midi.NoteOffEvent(tick=3531300, channel=0, data=[36, 0]),
   midi.NoteOnEvent(tick=3531400, channel=0, data=[36, 100]),
   midi.NoteOffEvent(tick=3531500, channel=0, data=[36, 0]),
   midi.NoteOnEvent(tick=3531600, channel=0, data=[36, 100]),
   midi.NoteOffEvent(tick=3531700, channel=0, data=[36, 0]),
   midi.NoteOnEvent(tick=3531800, channel=0, data=[36, 100]),
   midi.NoteOffEvent(tick=3531900, channel=0, data=[36, 0]),
   midi.NoteOnEvent(tick=3532000, channel=0, data=[2, 100]),
   midi.NoteOffEvent(tick=3532100, channel=0, data=[2, 0]),
   midi.NoteOnEvent(tick=3532200, channel=0, data=[46, 100]),
   midi.NoteOffEvent(tick=3532300, channel=0, data=[46, 0]),
   midi.NoteOnEvent(tick=3532400, channel=0, data=[78, 100]),
   midi.NoteOffEvent(tick=3532500, channel=0, data=[78, 0]),
   midi.NoteOnEvent(tick=3532600, channel=0, data=[15, 100]),
   midi.NoteOffEvent(tick=3532700, channel=0, data=[15, 0]),
   midi.NoteOnEvent(tick=3532800, channel=0, data=[18, 100]),
   midi.NoteOffEvent(tick=3532900, channel=0, data=[18, 0]),
   midi.NoteOnEvent(tick=3533000, channel=0, data=[73, 100]),
   midi.NoteOffEvent(tick=3533100, channel=0, data=[73, 0]),
   midi.NoteOnEvent(tick=3533200, channel=0, data=[36, 100]),
   midi.NoteOffEvent(tick=3533300, channel=0, data=[36, 0]),
   midi.NoteOnEvent(tick=3533400, channel=0, data=[74, 100]),
   midi.NoteOffEvent(tick=3533500, channel=0, data=[74, 0]),
   midi.NoteOnEvent(tick=3533600, channel=0, data=[0, 100]),
   midi.NoteOffEvent(tick=3533700, channel=0, data=[0, 0]),
   midi.NoteOnEvent(tick=3533800, channel=0, data=[56, 100]),
   midi.NoteOffEvent(tick=3533900, channel=0, data=[56, 0]),
   midi.NoteOnEvent(tick=3534000, channel=0, data=[36, 100]),
   midi.NoteOffEvent(tick=3534100, channel=0, data=[36, 0]),
   midi.NoteOnEvent(tick=3534200, channel=0, data=[36, 100]),
   midi.NoteOffEvent(tick=3534300, channel=0, data=[36, 0]),
   midi.NoteOnEvent(tick=3534400, channel=0, data=[36, 100]),
   midi.NoteOffEvent(tick=3534500, channel=0, data=[36, 0]),
   midi.NoteOnEvent(tick=3534600, channel=0, data=[36, 100]),
   midi.NoteOffEvent(tick=3534700, channel=0, data=[36, 0]),
   midi.NoteOnEvent(tick=3534800, channel=0, data=[36, 100]),
   midi.NoteOffEvent(tick=3534900, channel=0, data=[36, 0]),
   midi.NoteOnEvent(tick=3535000, channel=0, data=[36, 100]),
   midi.NoteOffEvent(tick=3535100, channel=0, data=[36, 0]),
   midi.NoteOnEvent(tick=3535200, channel=0, data=[36, 100]),
   midi.NoteOffEvent(tick=3535300, channel=0, data=[36, 0]),
   midi.NoteOnEvent(tick=3535400, channel=0, data=[36, 100]),
   midi.NoteOffEvent(tick=3535500, channel=0, data=[36, 0]),
   midi.NoteOnEvent(tick=3535600, channel=0, data=[28, 100]),
   midi.NoteOffEvent(tick=3535700, channel=0, data=[28, 0]),
   midi.NoteOnEvent(tick=3535800, channel=0, data=[33, 100]),
   midi.NoteOffEvent(tick=3535900, channel=0, data=[33, 0]),
   midi.NoteOnEvent(tick=3536000, channel=0, data=[29, 100]),
   midi.NoteOffEvent(tick=3536100, channel=0, data=[29, 0]),
   midi.NoteOnEvent(tick=3536200, channel=0, data=[56, 100]),
   midi.NoteOffEvent(tick=3536300, channel=0, data=[56, 0]),
   midi.NoteOnEvent(tick=3536400, channel=0, data=[36, 100]),
   midi.NoteOffEvent(tick=3536500, channel=0, data=[36, 0]),
   midi.NoteOnEvent(tick=3536600, channel=0, data=[56, 100]),
   midi.NoteOffEvent(tick=3536700, channel=0, data=[56, 0]),
   midi.NoteOnEvent(tick=3536800, channel=0, data=[56, 100]),
   midi.NoteOffEvent(tick=3536900, channel=0, data=[56, 0]),
   midi.NoteOnEvent(tick=3537000, channel=0, data=[36, 100]),
   midi.NoteOffEvent(tick=3537100, channel=0, data=[36, 0]),
   midi.NoteOnEvent(tick=3537200, channel=0, data=[36, 100]),
   midi.NoteOffEvent(tick=3537300, channel=0, data=[36, 0]),
   midi.NoteOnEvent(tick=3537400, channel=0, data=[36, 100]),
   midi.NoteOffEvent(tick=3537500, channel=0, data=[36, 0]),
   midi.NoteOnEvent(tick=3537600, channel=0, data=[36, 100]),
   midi.NoteOffEvent(tick=3537700, channel=0, data=[36, 0]),
   midi.NoteOnEvent(tick=3537800, channel=0, data=[19, 100]),
   midi.NoteOffEvent(tick=3537900, channel=0, data=[19, 0]),
   midi.NoteOnEvent(tick=3538000, channel=0, data=[7, 100]),
   midi.NoteOffEvent(tick=3538100, channel=0, data=[7, 0]),
   midi.NoteOnEvent(tick=3538200, channel=0, data=[4, 100]),
   midi.NoteOffEvent(tick=3538300, channel=0, data=[4, 0]),
   midi.NoteOnEvent(tick=3538400, channel=0, data=[36, 100]),
   midi.NoteOffEvent(tick=3538500, channel=0, data=[36, 0]),
   midi.NoteOnEvent(tick=3538600, channel=0, data=[5, 100]),
   midi.NoteOffEvent(tick=3538700, channel=0, data=[5, 0]),
   midi.NoteOnEvent(tick=3538800, channel=0, data=[14, 100]),
   midi.NoteOffEvent(tick=3538900, channel=0, data=[14, 0]),
   midi.NoteOnEvent(tick=3539000, channel=0, data=[11, 100]),
   midi.NoteOffEvent(tick=3539100, channel=0, data=[11, 0]),
   midi.NoteOnEvent(tick=3539200, channel=0, data=[11, 100]),
   midi.NoteOffEvent(tick=3539300, channel=0, data=[11, 0]),
   midi.NoteOnEvent(tick=3539400, channel=0, data=[14, 100]),
   midi.NoteOffEvent(tick=3539500, channel=0, data=[14, 0]),
   midi.NoteOnEvent(tick=3539600, channel=0, data=[22, 100]),
   midi.NoteOffEvent(tick=3539700, channel=0, data=[22, 0]),
   midi.NoteOnEvent(tick=3539800, channel=0, data=[8, 100]),
   midi.NoteOffEvent(tick=3539900, channel=0, data=[8, 0]),
   midi.NoteOnEvent(tick=3540000, channel=0, data=[13, 100]),
   midi.NoteOffEvent(tick=3540100, channel=0, data=[13, 0]),
   midi.NoteOnEvent(tick=3540200, channel=0, data=[6, 100]),
   midi.NoteOffEvent(tick=3540300, channel=0, data=[6, 0]),
   midi.NoteOnEvent(tick=3540400, channel=0, data=[36, 100]),
   midi.NoteOffEvent(tick=3540500, channel=0, data=[36, 0]),
   midi.NoteOnEvent(tick=3540600, channel=0, data=[4, 100]),
   midi.NoteOffEvent(tick=3540700, channel=0, data=[4, 0]),
   midi.NoteOnEvent(tick=3540800, channel=0, data=[23, 100]),
   midi.NoteOffEvent(tick=3540900, channel=0, data=[23, 0]),
   midi.NoteOnEvent(tick=3541000, channel=0, data=[0, 100]),
   midi.NoteOffEvent(tick=3541100, channel=0, data=[0, 0]),
   midi.NoteOnEvent(tick=3541200, channel=0, data=[12, 100]),
   midi.NoteOffEvent(tick=3541300, channel=0, data=[12, 0]),
   midi.NoteOnEvent(tick=3541400, channel=0, data=[15, 100]),
   midi.NoteOffEvent(tick=3541500, channel=0, data=[15, 0]),
   midi.NoteOnEvent(tick=3541600, channel=0, data=[11, 100]),
   midi.NoteOffEvent(tick=3541700, channel=0, data=[11, 0]),
   midi.NoteOnEvent(tick=3541800, channel=0, data=[4, 100]),
   midi.NoteOffEvent(tick=3541900, channel=0, data=[4, 0]),
   midi.NoteOnEvent(tick=3542000, channel=0, data=[36, 100]),
   midi.NoteOffEvent(tick=3542100, channel=0, data=[36, 0]),
   midi.NoteOnEvent(tick=3542200, channel=0, data=[2, 100]),
   midi.NoteOffEvent(tick=3542300, channel=0, data=[2, 0]),
   midi.NoteOnEvent(tick=3542400, channel=0, data=[0, 100]),
   midi.NoteOffEvent(tick=3542500, channel=0, data=[0, 0]),
   midi.NoteOnEvent(tick=3542600, channel=0, data=[18, 100]),
   midi.NoteOffEvent(tick=3542700, channel=0, data=[18, 0]),
   midi.NoteOnEvent(tick=3542800, channel=0, data=[19, 100]),
   midi.NoteOffEvent(tick=3542900, channel=0, data=[19, 0]),
   midi.NoteOnEvent(tick=3543000, channel=0, data=[18, 100]),
   midi.NoteOffEvent(tick=3543100, channel=0, data=[18, 0]),
   midi.NoteOnEvent(tick=3543200, channel=0, data=[36, 100]),
   midi.NoteOffEvent(tick=3543300, channel=0, data=[36, 0]),
   midi.NoteOnEvent(tick=3543400, channel=0, data=[19, 100]),
   midi.NoteOffEvent(tick=3543500, channel=0, data=[19, 0]),
   midi.NoteOnEvent(tick=3543600, channel=0, data=[7, 100]),
   midi.NoteOffEvent(tick=3543700, channel=0, data=[7, 0]),
   midi.NoteOnEvent(tick=3543800, channel=0, data=[4, 100]),
   midi.NoteOffEvent(tick=3543900, channel=0, data=[4, 0]),
   midi.NoteOnEvent(tick=3544000, channel=0, data=[36, 100]),
   midi.NoteOffEvent(tick=3544100, channel=0, data=[36, 0]),
   midi.NoteOnEvent(tick=3544200, channel=0, data=[5, 100]),
   midi.NoteOffEvent(tick=3544300, channel=0, data=[5, 0]),
   midi.NoteOnEvent(tick=3544400, channel=0, data=[8, 100]),
   midi.NoteOffEvent(tick=3544500, channel=0, data=[8, 0]),
   midi.NoteOnEvent(tick=3544600, channel=0, data=[17, 100]),
   midi.NoteOffEvent(tick=3544700, channel=0, data=[17, 0]),
   midi.NoteOnEvent(tick=3544800, channel=0, data=[18, 100]),
   midi.NoteOffEvent(tick=3544900, channel=0, data=[18, 0]),
   midi.NoteOnEvent(tick=3545000, channel=0, data=[19, 100]),
   midi.NoteOffEvent(tick=3545100, channel=0, data=[19, 0]),
   midi.NoteOnEvent(tick=3545200, channel=0, data=[36, 100]),
   midi.NoteOffEvent(tick=3545300, channel=0, data=[36, 0]),
   midi.NoteOnEvent(tick=3545400, channel=0, data=[21, 100]),
   midi.NoteOffEvent(tick=3545500, channel=0, data=[21, 0]),
   midi.NoteOnEvent(tick=3545600, channel=0, data=[0, 100]),
   midi.NoteOffEvent(tick=3545700, channel=0, data=[0, 0]),
   midi.NoteOnEvent(tick=3545800, channel=0, data=[11, 100]),
   midi.NoteOffEvent(tick=3545900, channel=0, data=[11, 0]),
   midi.NoteOnEvent(tick=3546000, channel=0, data=[20, 100]),
   midi.NoteOffEvent(tick=3546100, channel=0, data=[20, 0]),
   midi.NoteOnEvent(tick=3546200, channel=0, data=[4, 100]),
   midi.NoteOffEvent(tick=3546300, channel=0, data=[4, 0]),
   midi.NoteOnEvent(tick=3546400, channel=0, data=[38, 100]),
   midi.NoteOffEvent(tick=3546500, channel=0, data=[38, 0]),
   midi.NoteOnEvent(tick=3546600, channel=0, data=[36, 100]),
   midi.NoteOffEvent(tick=3546700, channel=0, data=[36, 0]),
   midi.NoteOnEvent(tick=3546800, channel=0, data=[8, 100]),
   midi.NoteOffEvent(tick=3546900, channel=0, data=[8, 0]),
   midi.NoteOnEvent(tick=3547000, channel=0, data=[13, 100]),
   midi.NoteOffEvent(tick=3547100, channel=0, data=[13, 0]),
   midi.NoteOnEvent(tick=3547200, channel=0, data=[18, 100]),
   midi.NoteOffEvent(tick=3547300, channel=0, data=[18, 0]),
   midi.NoteOnEvent(tick=3547400, channel=0, data=[19, 100]),
   midi.NoteOffEvent(tick=3547500, channel=0, data=[19, 0]),
   midi.NoteOnEvent(tick=3547600, channel=0, data=[4, 100]),
   midi.NoteOffEvent(tick=3547700, channel=0, data=[4, 0]),
   midi.NoteOnEvent(tick=3547800, channel=0, data=[0, 100]),
   midi.NoteOffEvent(tick=3547900, channel=0, data=[0, 0]),
   midi.NoteOnEvent(tick=3548000, channel=0, data=[3, 100]),
   midi.NoteOffEvent(tick=3548100, channel=0, data=[3, 0]),
   midi.NoteOnEvent(tick=3548200, channel=0, data=[36, 100]),
   midi.NoteOffEvent(tick=3548300, channel=0, data=[36, 0]),
   midi.NoteOnEvent(tick=3548400, channel=0, data=[14, 100]),
   midi.NoteOffEvent(tick=3548500, channel=0, data=[14, 0]),
   midi.NoteOnEvent(tick=3548600, channel=0, data=[5, 100]),
   midi.NoteOffEvent(tick=3548700, channel=0, data=[5, 0]),
   midi.NoteOnEvent(tick=3548800, channel=0, data=[36, 100]),
   midi.NoteOffEvent(tick=3548900, channel=0, data=[36, 0]),
   midi.NoteOnEvent(tick=3549000, channel=0, data=[2, 100]),
   midi.NoteOffEvent(tick=3549100, channel=0, data=[2, 0]),
   midi.NoteOnEvent(tick=3549200, channel=0, data=[0, 100]),
   midi.NoteOffEvent(tick=3549300, channel=0, data=[0, 0]),
   midi.NoteOnEvent(tick=3549400, channel=0, data=[18, 100]),
   midi.NoteOffEvent(tick=3549500, channel=0, data=[18, 0]),
   midi.NoteOnEvent(tick=3549600, channel=0, data=[19, 100]),
   midi.NoteOffEvent(tick=3549700, channel=0, data=[19, 0]),
   midi.NoteOnEvent(tick=3549800, channel=0, data=[8, 100]),
   midi.NoteOffEvent(tick=3549900, channel=0, data=[8, 0]),
   midi.NoteOnEvent(tick=3550000, channel=0, data=[13, 100]),
   midi.NoteOffEvent(tick=3550100, channel=0, data=[13, 0]),
   midi.NoteOnEvent(tick=3550200, channel=0, data=[6, 100]),
   midi.NoteOffEvent(tick=3550300, channel=0, data=[6, 0]),
   midi.NoteOnEvent(tick=3550400, channel=0, data=[36, 100]),
   midi.NoteOffEvent(tick=3550500, channel=0, data=[36, 0]),
   midi.NoteOnEvent(tick=3550600, channel=0, data=[19, 100]),
   midi.NoteOffEvent(tick=3550700, channel=0, data=[19, 0]),
   midi.NoteOnEvent(tick=3550800, channel=0, data=[7, 100]),
   midi.NoteOffEvent(tick=3550900, channel=0, data=[7, 0]),
   midi.NoteOnEvent(tick=3551000, channel=0, data=[4, 100]),
   midi.NoteOffEvent(tick=3551100, channel=0, data=[4, 0]),
   midi.NoteOnEvent(tick=3551200, channel=0, data=[36, 100]),
   midi.NoteOffEvent(tick=3551300, channel=0, data=[36, 0]),
   midi.NoteOnEvent(tick=3551400, channel=0, data=[56, 100]),
   midi.NoteOffEvent(tick=3551500, channel=0, data=[56, 0]),
   midi.NoteOnEvent(tick=3551600, channel=0, data=[36, 100]),
   midi.NoteOffEvent(tick=3551700, channel=0, data=[36, 0]),
   midi.NoteOnEvent(tick=3551800, channel=0, data=[36, 100]),
   midi.NoteOffEvent(tick=3551900, channel=0, data=[36, 0]),
   midi.NoteOnEvent(tick=3552000, channel=0, data=[36, 100]),
   midi.NoteOffEvent(tick=3552100, channel=0, data=[36, 0]),
   midi.NoteOnEvent(tick=3552200, channel=0, data=[36, 100]),
   midi.NoteOffEvent(tick=3552300, channel=0, data=[36, 0]),
   midi.NoteOnEvent(tick=3552400, channel=0, data=[21, 100]),
   midi.NoteOffEvent(tick=3552500, channel=0, data=[21, 0]),
   midi.NoteOnEvent(tick=3552600, channel=0, data=[0, 100]),
   midi.NoteOffEvent(tick=3552700, channel=0, data=[0, 0]),
   midi.NoteOnEvent(tick=3552800, channel=0, data=[17, 100]),
   midi.NoteOffEvent(tick=3552900, channel=0, data=[17, 0]),
   midi.NoteOnEvent(tick=3553000, channel=0, data=[8, 100]),
   midi.NoteOffEvent(tick=3553100, channel=0, data=[8, 0]),
   midi.NoteOnEvent(tick=3553200, channel=0, data=[0, 100]),
   midi.NoteOffEvent(tick=3553300, channel=0, data=[0, 0]),
   midi.NoteOnEvent(tick=3553400, channel=0, data=[1, 100]),
   midi.NoteOffEvent(tick=3553500, channel=0, data=[1, 0]),
   midi.NoteOnEvent(tick=3553600, channel=0, data=[11, 100]),
   midi.NoteOffEvent(tick=3553700, channel=0, data=[11, 0]),
   midi.NoteOnEvent(tick=3553800, channel=0, data=[4, 100]),
   midi.NoteOffEvent(tick=3553900, channel=0, data=[4, 0]),
   midi.NoteOnEvent(tick=3554000, channel=0, data=[46, 100]),
   midi.NoteOffEvent(tick=3554100, channel=0, data=[46, 0]),
   midi.NoteOnEvent(tick=3554200, channel=0, data=[56, 100]),
   midi.NoteOffEvent(tick=3554300, channel=0, data=[56, 0]),
   midi.NoteOnEvent(tick=3554400, channel=0, data=[56, 100]),
   midi.NoteOffEvent(tick=3554500, channel=0, data=[56, 0]),
   midi.NoteOnEvent(tick=3554600, channel=0, data=[56, 100]),
   midi.NoteOffEvent(tick=3554700, channel=0, data=[56, 0]),
   midi.NoteOnEvent(tick=3554800, channel=0, data=[36, 100]),
   midi.NoteOffEvent(tick=3554900, channel=0, data=[36, 0]),
   midi.NoteOnEvent(tick=3555000, channel=0, data=[36, 100]),
   midi.NoteOffEvent(tick=3555100, channel=0, data=[36, 0]),
   midi.NoteOnEvent(tick=3555200, channel=0, data=[36, 100]),
   midi.NoteOffEvent(tick=3555300, channel=0, data=[36, 0]),
   midi.NoteOnEvent(tick=3555400, channel=0, data=[36, 100]),
   midi.NoteOffEvent(tick=3555500, channel=0, data=[36, 0]),
   midi.NoteOnEvent(tick=3555600, channel=0, data=[36, 100]),
   midi.NoteOffEvent(tick=3555700, channel=0, data=[36, 0]),
   midi.NoteOnEvent(tick=3555800, channel=0, data=[36, 100]),
   midi.NoteOffEvent(tick=3555900, channel=0, data=[36, 0]),
   midi.NoteOnEvent(tick=3556000, channel=0, data=[36, 100]),
   midi.NoteOffEvent(tick=3556100, channel=0, data=[36, 0]),
   midi.NoteOnEvent(tick=3556200, channel=0, data=[36, 100]),
   midi.NoteOffEvent(tick=3556300, channel=0, data=[36, 0]),
   midi.NoteOnEvent(tick=3556400, channel=0, data=[74, 100]),
   midi.NoteOffEvent(tick=3556500, channel=0, data=[74, 0]),
   midi.NoteOnEvent(tick=3556600, channel=0, data=[0, 100]),
   midi.NoteOffEvent(tick=3556700, channel=0, data=[0, 0]),
   midi.NoteOnEvent(tick=3556800, channel=0, data=[36, 100]),
   midi.NoteOffEvent(tick=3556900, channel=0, data=[36, 0]),
   midi.NoteOnEvent(tick=3557000, channel=0, data=[69, 100]),
   midi.NoteOffEvent(tick=3557100, channel=0, data=[69, 0]),
   midi.NoteOnEvent(tick=3557200, channel=0, data=[36, 100]),
   midi.NoteOffEvent(tick=3557300, channel=0, data=[36, 0]),
   midi.NoteOnEvent(tick=3557400, channel=0, data=[51, 100]),
   midi.NoteOffEvent(tick=3557500, channel=0, data=[51, 0]),
   midi.NoteOnEvent(tick=3557600, channel=0, data=[18, 100]),
   midi.NoteOffEvent(tick=3557700, channel=0, data=[18, 0]),
   midi.NoteOnEvent(tick=3557800, channel=0, data=[19, 100]),
   midi.NoteOffEvent(tick=3557900, channel=0, data=[19, 0]),
   midi.NoteOnEvent(tick=3558000, channel=0, data=[17, 100]),
   midi.NoteOffEvent(tick=3558100, channel=0, data=[17, 0]),
   midi.NoteOnEvent(tick=3558200, channel=0, data=[8, 100]),
   midi.NoteOffEvent(tick=3558300, channel=0, data=[8, 0]),
   midi.NoteOnEvent(tick=3558400, channel=0, data=[13, 100]),
   midi.NoteOffEvent(tick=3558500, channel=0, data=[13, 0]),
   midi.NoteOnEvent(tick=3558600, channel=0, data=[6, 100]),
   midi.NoteOffEvent(tick=3558700, channel=0, data=[6, 0]),
   midi.NoteOnEvent(tick=3558800, channel=0, data=[52, 100]),
   midi.NoteOffEvent(tick=3558900, channel=0, data=[52, 0]),
   midi.NoteOnEvent(tick=3559000, channel=0, data=[28, 100]),
   midi.NoteOffEvent(tick=3559100, channel=0, data=[28, 0]),
   midi.NoteOnEvent(tick=3559200, channel=0, data=[33, 100]),
   midi.NoteOffEvent(tick=3559300, channel=0, data=[33, 0]),
   midi.NoteOnEvent(tick=3559400, channel=0, data=[56, 100]),
   midi.NoteOffEvent(tick=3559500, channel=0, data=[56, 0]),
   midi.NoteOnEvent(tick=3559600, channel=0, data=[56, 100]),
   midi.NoteOffEvent(tick=3559700, channel=0, data=[56, 0]),
   midi.NoteOnEvent(tick=3559800, channel=0, data=[36, 100]),
   midi.NoteOffEvent(tick=3559900, channel=0, data=[36, 0]),
   midi.NoteOnEvent(tick=3560000, channel=0, data=[56, 100]),
   midi.NoteOffEvent(tick=3560100, channel=0, data=[56, 0]),
   midi.NoteOnEvent(tick=3560200, channel=0, data=[36, 100]),
   midi.NoteOffEvent(tick=3560300, channel=0, data=[36, 0]),
   midi.NoteOnEvent(tick=3560400, channel=0, data=[36, 100]),
   midi.NoteOffEvent(tick=3560500, channel=0, data=[36, 0]),
   midi.NoteOnEvent(tick=3560600, channel=0, data=[36, 100]),
   midi.NoteOffEvent(tick=3560700, channel=0, data=[36, 0]),
   midi.NoteOnEvent(tick=3560800, channel=0, data=[36, 100]),
   midi.NoteOffEvent(tick=3560900, channel=0, data=[36, 0]),
   midi.NoteOnEvent(tick=3561000, channel=0, data=[22, 100]),
   midi.NoteOffEvent(tick=3561100, channel=0, data=[22, 0]),
   midi.NoteOnEvent(tick=3561200, channel=0, data=[7, 100]),
   midi.NoteOffEvent(tick=3561300, channel=0, data=[7, 0]),
   midi.NoteOnEvent(tick=3561400, channel=0, data=[4, 100]),
   midi.NoteOffEvent(tick=3561500, channel=0, data=[4, 0]),
   midi.NoteOnEvent(tick=3561600, channel=0, data=[13, 100]),
   midi.NoteOffEvent(tick=3561700, channel=0, data=[13, 0]),
   midi.NoteOnEvent(tick=3561800, channel=0, data=[36, 100]),
   midi.NoteOffEvent(tick=3561900, channel=0, data=[36, 0]),
   midi.NoteOnEvent(tick=3562000, channel=0, data=[24, 100]),
   midi.NoteOffEvent(tick=3562100, channel=0, data=[24, 0]),
   midi.NoteOnEvent(tick=3562200, channel=0, data=[14, 100]),
   midi.NoteOffEvent(tick=3562300, channel=0, data=[14, 0]),
   midi.NoteOnEvent(tick=3562400, channel=0, data=[20, 100]),
   midi.NoteOffEvent(tick=3562500, channel=0, data=[20, 0]),
   midi.NoteOnEvent(tick=3562600, channel=0, data=[36, 100]),
   midi.NoteOffEvent(tick=3562700, channel=0, data=[36, 0]),
   midi.NoteOnEvent(tick=3562800, channel=0, data=[2, 100]),
   midi.NoteOffEvent(tick=3562900, channel=0, data=[2, 0]),
   midi.NoteOnEvent(tick=3563000, channel=0, data=[0, 100]),
   midi.NoteOffEvent(tick=3563100, channel=0, data=[0, 0]),
   midi.NoteOnEvent(tick=3563200, channel=0, data=[18, 100]),
   midi.NoteOffEvent(tick=3563300, channel=0, data=[18, 0]),
   midi.NoteOnEvent(tick=3563400, channel=0, data=[19, 100]),
   midi.NoteOffEvent(tick=3563500, channel=0, data=[19, 0]),
   midi.NoteOnEvent(tick=3563600, channel=0, data=[36, 100]),
   midi.NoteOffEvent(tick=3563700, channel=0, data=[36, 0]),
   midi.NoteOnEvent(tick=3563800, channel=0, data=[0, 100]),
   midi.NoteOffEvent(tick=3563900, channel=0, data=[0, 0]),
   midi.NoteOnEvent(tick=3564000, channel=0, data=[36, 100]),
   midi.NoteOffEvent(tick=3564100, channel=0, data=[36, 0]),
   midi.NoteOnEvent(tick=3564200, channel=0, data=[21, 100]),
   midi.NoteOffEvent(tick=3564300, channel=0, data=[21, 0]),
   midi.NoteOnEvent(tick=3564400, channel=0, data=[0, 100]),
   midi.NoteOffEvent(tick=3564500, channel=0, data=[0, 0]),
   midi.NoteOnEvent(tick=3564600, channel=0, data=[17, 100]),
   midi.NoteOffEvent(tick=3564700, channel=0, data=[17, 0]),
   midi.NoteOnEvent(tick=3564800, channel=0, data=[8, 100]),
   midi.NoteOffEvent(tick=3564900, channel=0, data=[8, 0]),
   midi.NoteOnEvent(tick=3565000, channel=0, data=[0, 100]),
   midi.NoteOffEvent(tick=3565100, channel=0, data=[0, 0]),
   midi.NoteOnEvent(tick=3565200, channel=0, data=[1, 100]),
   midi.NoteOffEvent(tick=3565300, channel=0, data=[1, 0]),
   midi.NoteOnEvent(tick=3565400, channel=0, data=[11, 100]),
   midi.NoteOffEvent(tick=3565500, channel=0, data=[11, 0]),
   midi.NoteOnEvent(tick=3565600, channel=0, data=[4, 100]),
   midi.NoteOffEvent(tick=3565700, channel=0, data=[4, 0]),
   midi.NoteOnEvent(tick=3565800, channel=0, data=[36, 100]),
   midi.NoteOffEvent(tick=3565900, channel=0, data=[36, 0]),
   midi.NoteOnEvent(tick=3566000, channel=0, data=[19, 100]),
   midi.NoteOffEvent(tick=3566100, channel=0, data=[19, 0]),
   midi.NoteOnEvent(tick=3566200, channel=0, data=[14, 100]),
   midi.NoteOffEvent(tick=3566300, channel=0, data=[14, 0]),
   midi.NoteOnEvent(tick=3566400, channel=0, data=[36, 100]),
   midi.NoteOffEvent(tick=3566500, channel=0, data=[36, 0]),
   midi.NoteOnEvent(tick=3566600, channel=0, data=[0, 100]),
   midi.NoteOffEvent(tick=3566700, channel=0, data=[0, 0]),
   midi.NoteOnEvent(tick=3566800, channel=0, data=[36, 100]),
   midi.NoteOffEvent(tick=3566900, channel=0, data=[36, 0]),
   midi.NoteOnEvent(tick=3567000, channel=0, data=[18, 100]),
   midi.NoteOffEvent(tick=3567100, channel=0, data=[18, 0]),
   midi.NoteOnEvent(tick=3567200, channel=0, data=[15, 100]),
   midi.NoteOffEvent(tick=3567300, channel=0, data=[15, 0]),
   midi.NoteOnEvent(tick=3567400, channel=0, data=[4, 100]),
   midi.NoteOffEvent(tick=3567500, channel=0, data=[4, 0]),
   midi.NoteOnEvent(tick=3567600, channel=0, data=[2, 100]),
   midi.NoteOffEvent(tick=3567700, channel=0, data=[2, 0]),
   midi.NoteOnEvent(tick=3567800, channel=0, data=[8, 100]),
   midi.NoteOffEvent(tick=3567900, channel=0, data=[8, 0]),
   midi.NoteOnEvent(tick=3568000, channel=0, data=[5, 100]),
   midi.NoteOffEvent(tick=3568100, channel=0, data=[5, 0]),
   midi.NoteOnEvent(tick=3568200, channel=0, data=[8, 100]),
   midi.NoteOffEvent(tick=3568300, channel=0, data=[8, 0]),
   midi.NoteOnEvent(tick=3568400, channel=0, data=[2, 100]),
   midi.NoteOffEvent(tick=3568500, channel=0, data=[2, 0]),
   midi.NoteOnEvent(tick=3568600, channel=0, data=[36, 100]),
   midi.NoteOffEvent(tick=3568700, channel=0, data=[36, 0]),
   midi.NoteOnEvent(tick=3568800, channel=0, data=[19, 100]),
   midi.NoteOffEvent(tick=3568900, channel=0, data=[19, 0]),
   midi.NoteOnEvent(tick=3569000, channel=0, data=[24, 100]),
   midi.NoteOffEvent(tick=3569100, channel=0, data=[24, 0]),
   midi.NoteOnEvent(tick=3569200, channel=0, data=[15, 100]),
   midi.NoteOffEvent(tick=3569300, channel=0, data=[15, 0]),
   midi.NoteOnEvent(tick=3569400, channel=0, data=[4, 100]),
   midi.NoteOffEvent(tick=3569500, channel=0, data=[4, 0]),
   midi.NoteOnEvent(tick=3569600, channel=0, data=[38, 100]),
   midi.NoteOffEvent(tick=3569700, channel=0, data=[38, 0]),
   midi.NoteOnEvent(tick=3569800, channel=0, data=[36, 100]),
   midi.NoteOffEvent(tick=3569900, channel=0, data=[36, 0]),
   midi.NoteOnEvent(tick=3570000, channel=0, data=[19, 100]),
   midi.NoteOffEvent(tick=3570100, channel=0, data=[19, 0]),
   midi.NoteOnEvent(tick=3570200, channel=0, data=[7, 100]),
   midi.NoteOffEvent(tick=3570300, channel=0, data=[7, 0]),
   midi.NoteOnEvent(tick=3570400, channel=0, data=[4, 100]),
   midi.NoteOffEvent(tick=3570500, channel=0, data=[4, 0]),
   midi.NoteOnEvent(tick=3570600, channel=0, data=[36, 100]),
   midi.NoteOffEvent(tick=3570700, channel=0, data=[36, 0]),
   midi.NoteOnEvent(tick=3570800, channel=0, data=[2, 100]),
   midi.NoteOffEvent(tick=3570900, channel=0, data=[2, 0]),
   midi.NoteOnEvent(tick=3571000, channel=0, data=[14, 100]),
   midi.NoteOffEvent(tick=3571100, channel=0, data=[14, 0]),
   midi.NoteOnEvent(tick=3571200, channel=0, data=[12, 100]),
   midi.NoteOffEvent(tick=3571300, channel=0, data=[12, 0]),
   midi.NoteOnEvent(tick=3571400, channel=0, data=[12, 100]),
   midi.NoteOffEvent(tick=3571500, channel=0, data=[12, 0]),
   midi.NoteOnEvent(tick=3571600, channel=0, data=[14, 100]),
   midi.NoteOffEvent(tick=3571700, channel=0, data=[14, 0]),
   midi.NoteOnEvent(tick=3571800, channel=0, data=[13, 100]),
   midi.NoteOffEvent(tick=3571900, channel=0, data=[13, 0]),
   midi.NoteOnEvent(tick=3572000, channel=0, data=[36, 100]),
   midi.NoteOffEvent(tick=3572100, channel=0, data=[36, 0]),
   midi.NoteOnEvent(tick=3572200, channel=0, data=[2, 100]),
   midi.NoteOffEvent(tick=3572300, channel=0, data=[2, 0]),
   midi.NoteOnEvent(tick=3572400, channel=0, data=[14, 100]),
   midi.NoteOffEvent(tick=3572500, channel=0, data=[14, 0]),
   midi.NoteOnEvent(tick=3572600, channel=0, data=[13, 100]),
   midi.NoteOffEvent(tick=3572700, channel=0, data=[13, 0]),
   midi.NoteOnEvent(tick=3572800, channel=0, data=[21, 100]),
   midi.NoteOffEvent(tick=3572900, channel=0, data=[21, 0]),
   midi.NoteOnEvent(tick=3573000, channel=0, data=[4, 100]),
   midi.NoteOffEvent(tick=3573100, channel=0, data=[4, 0]),
   midi.NoteOnEvent(tick=3573200, channel=0, data=[13, 100]),
   midi.NoteOffEvent(tick=3573300, channel=0, data=[13, 0]),
   midi.NoteOnEvent(tick=3573400, channel=0, data=[19, 100]),
   midi.NoteOffEvent(tick=3573500, channel=0, data=[19, 0]),
   midi.NoteOnEvent(tick=3573600, channel=0, data=[8, 100]),
   midi.NoteOffEvent(tick=3573700, channel=0, data=[8, 0]),
   midi.NoteOnEvent(tick=3573800, channel=0, data=[14, 100]),
   midi.NoteOffEvent(tick=3573900, channel=0, data=[14, 0]),
   midi.NoteOnEvent(tick=3574000, channel=0, data=[13, 100]),
   midi.NoteOffEvent(tick=3574100, channel=0, data=[13, 0]),
   midi.NoteOnEvent(tick=3574200, channel=0, data=[36, 100]),
   midi.NoteOffEvent(tick=3574300, channel=0, data=[36, 0]),
   midi.NoteOnEvent(tick=3574400, channel=0, data=[8, 100]),
   midi.NoteOffEvent(tick=3574500, channel=0, data=[8, 0]),
   midi.NoteOnEvent(tick=3574600, channel=0, data=[18, 100]),
   midi.NoteOffEvent(tick=3574700, channel=0, data=[18, 0]),
   midi.NoteOnEvent(tick=3574800, channel=0, data=[36, 100]),
   midi.NoteOffEvent(tick=3574900, channel=0, data=[36, 0]),
   midi.NoteOnEvent(tick=3575000, channel=0, data=[19, 100]),
   midi.NoteOffEvent(tick=3575100, channel=0, data=[19, 0]),
   midi.NoteOnEvent(tick=3575200, channel=0, data=[14, 100]),
   midi.NoteOffEvent(tick=3575300, channel=0, data=[14, 0]),
   midi.NoteOnEvent(tick=3575400, channel=0, data=[36, 100]),
   midi.NoteOffEvent(tick=3575500, channel=0, data=[36, 0]),
   midi.NoteOnEvent(tick=3575600, channel=0, data=[56, 100]),
   midi.NoteOffEvent(tick=3575700, channel=0, data=[56, 0]),
   midi.NoteOnEvent(tick=3575800, channel=0, data=[36, 100]),
   midi.NoteOffEvent(tick=3575900, channel=0, data=[36, 0]),
   midi.NoteOnEvent(tick=3576000, channel=0, data=[36, 100]),
   midi.NoteOffEvent(tick=3576100, channel=0, data=[36, 0]),
   midi.NoteOnEvent(tick=3576200, channel=0, data=[36, 100]),
   midi.NoteOffEvent(tick=3576300, channel=0, data=[36, 0]),
   midi.NoteOnEvent(tick=3576400, channel=0, data=[36, 100]),
   midi.NoteOffEvent(tick=3576500, channel=0, data=[36, 0]),
   midi.NoteOnEvent(tick=3576600, channel=0, data=[2, 100]),
   midi.NoteOffEvent(tick=3576700, channel=0, data=[2, 0]),
   midi.NoteOnEvent(tick=3576800, channel=0, data=[0, 100]),
   midi.NoteOffEvent(tick=3576900, channel=0, data=[0, 0]),
   midi.NoteOnEvent(tick=3577000, channel=0, data=[18, 100]),
   midi.NoteOffEvent(tick=3577100, channel=0, data=[18, 0]),
   midi.NoteOnEvent(tick=3577200, channel=0, data=[19, 100]),
   midi.NoteOffEvent(tick=3577300, channel=0, data=[19, 0]),
   midi.NoteOnEvent(tick=3577400, channel=0, data=[36, 100]),
   midi.NoteOffEvent(tick=3577500, channel=0, data=[36, 0]),
   midi.NoteOnEvent(tick=3577600, channel=0, data=[19, 100]),
   midi.NoteOffEvent(tick=3577700, channel=0, data=[19, 0]),
   midi.NoteOnEvent(tick=3577800, channel=0, data=[7, 100]),
   midi.NoteOffEvent(tick=3577900, channel=0, data=[7, 0]),
   midi.NoteOnEvent(tick=3578000, channel=0, data=[4, 100]),
   midi.NoteOffEvent(tick=3578100, channel=0, data=[4, 0]),
   midi.NoteOnEvent(tick=3578200, channel=0, data=[36, 100]),
   midi.NoteOffEvent(tick=3578300, channel=0, data=[36, 0]),
   midi.NoteOnEvent(tick=3578400, channel=0, data=[21, 100]),
   midi.NoteOffEvent(tick=3578500, channel=0, data=[21, 0]),
   midi.NoteOnEvent(tick=3578600, channel=0, data=[0, 100]),
   midi.NoteOffEvent(tick=3578700, channel=0, data=[0, 0]),
   midi.NoteOnEvent(tick=3578800, channel=0, data=[17, 100]),
   midi.NoteOffEvent(tick=3578900, channel=0, data=[17, 0]),
   midi.NoteOnEvent(tick=3579000, channel=0, data=[8, 100]),
   midi.NoteOffEvent(tick=3579100, channel=0, data=[8, 0]),
   midi.NoteOnEvent(tick=3579200, channel=0, data=[0, 100]),
   midi.NoteOffEvent(tick=3579300, channel=0, data=[0, 0]),
   midi.NoteOnEvent(tick=3579400, channel=0, data=[1, 100]),
   midi.NoteOffEvent(tick=3579500, channel=0, data=[1, 0]),
   midi.NoteOnEvent(tick=3579600, channel=0, data=[11, 100]),
   midi.NoteOffEvent(tick=3579700, channel=0, data=[11, 0]),
   midi.NoteOnEvent(tick=3579800, channel=0, data=[4, 100]),
   midi.NoteOffEvent(tick=3579900, channel=0, data=[4, 0]),
   midi.NoteOnEvent(tick=3580000, channel=0, data=[38, 100]),
   midi.NoteOffEvent(tick=3580100, channel=0, data=[38, 0]),
   midi.NoteOnEvent(tick=3580200, channel=0, data=[36, 100]),
   midi.NoteOffEvent(tick=3580300, channel=0, data=[36, 0]),
   midi.NoteOnEvent(tick=3580400, channel=0, data=[13, 100]),
   midi.NoteOffEvent(tick=3580500, channel=0, data=[13, 0]),
   midi.NoteOnEvent(tick=3580600, channel=0, data=[14, 100]),
   midi.NoteOffEvent(tick=3580700, channel=0, data=[14, 0]),
   midi.NoteOnEvent(tick=3580800, channel=0, data=[19, 100]),
   midi.NoteOffEvent(tick=3580900, channel=0, data=[19, 0]),
   midi.NoteOnEvent(tick=3581000, channel=0, data=[36, 100]),
   midi.NoteOffEvent(tick=3581100, channel=0, data=[36, 0]),
   midi.NoteOnEvent(tick=3581200, channel=0, data=[19, 100]),
   midi.NoteOffEvent(tick=3581300, channel=0, data=[19, 0]),
   midi.NoteOnEvent(tick=3581400, channel=0, data=[7, 100]),
   midi.NoteOffEvent(tick=3581500, channel=0, data=[7, 0]),
   midi.NoteOnEvent(tick=3581600, channel=0, data=[4, 100]),
   midi.NoteOffEvent(tick=3581700, channel=0, data=[4, 0]),
   midi.NoteOnEvent(tick=3581800, channel=0, data=[36, 100]),
   midi.NoteOffEvent(tick=3581900, channel=0, data=[36, 0]),
   midi.NoteOnEvent(tick=3582000, channel=0, data=[21, 100]),
   midi.NoteOffEvent(tick=3582100, channel=0, data=[21, 0]),
   midi.NoteOnEvent(tick=3582200, channel=0, data=[0, 100]),
   midi.NoteOffEvent(tick=3582300, channel=0, data=[0, 0]),
   midi.NoteOnEvent(tick=3582400, channel=0, data=[11, 100]),
   midi.NoteOffEvent(tick=3582500, channel=0, data=[11, 0]),
   midi.NoteOnEvent(tick=3582600, channel=0, data=[20, 100]),
   midi.NoteOffEvent(tick=3582700, channel=0, data=[20, 0]),
   midi.NoteOnEvent(tick=3582800, channel=0, data=[4, 100]),
   midi.NoteOffEvent(tick=3582900, channel=0, data=[4, 0]),
   midi.NoteOnEvent(tick=3583000, channel=0, data=[37, 100]),
   midi.NoteOffEvent(tick=3583100, channel=0, data=[37, 0]),
   midi.NoteOnEvent(tick=3583200, channel=0, data=[36, 100]),
   midi.NoteOffEvent(tick=3583300, channel=0, data=[36, 0]),
   midi.NoteOnEvent(tick=3583400, channel=0, data=[7, 100]),
   midi.NoteOffEvent(tick=3583500, channel=0, data=[7, 0]),
   midi.NoteOnEvent(tick=3583600, channel=0, data=[14, 100]),
   midi.NoteOffEvent(tick=3583700, channel=0, data=[14, 0]),
   midi.NoteOnEvent(tick=3583800, channel=0, data=[22, 100]),
   midi.NoteOffEvent(tick=3583900, channel=0, data=[22, 0]),
   midi.NoteOnEvent(tick=3584000, channel=0, data=[4, 100]),
   midi.NoteOffEvent(tick=3584100, channel=0, data=[4, 0]),
   midi.NoteOnEvent(tick=3584200, channel=0, data=[21, 100]),
   midi.NoteOffEvent(tick=3584300, channel=0, data=[21, 0]),
   midi.NoteOnEvent(tick=3584400, channel=0, data=[4, 100]),
   midi.NoteOffEvent(tick=3584500, channel=0, data=[4, 0]),
   midi.NoteOnEvent(tick=3584600, channel=0, data=[17, 100]),
   midi.NoteOffEvent(tick=3584700, channel=0, data=[17, 0]),
   midi.NoteOnEvent(tick=3584800, channel=0, data=[38, 100]),
   midi.NoteOffEvent(tick=3584900, channel=0, data=[38, 0]),
   midi.NoteOnEvent(tick=3585000, channel=0, data=[36, 100]),
   midi.NoteOffEvent(tick=3585100, channel=0, data=[36, 0]),
   midi.NoteOnEvent(tick=3585200, channel=0, data=[24, 100]),
   midi.NoteOffEvent(tick=3585300, channel=0, data=[24, 0]),
   midi.NoteOnEvent(tick=3585400, channel=0, data=[14, 100]),
   midi.NoteOffEvent(tick=3585500, channel=0, data=[14, 0]),
   midi.NoteOnEvent(tick=3585600, channel=0, data=[20, 100]),
   midi.NoteOffEvent(tick=3585700, channel=0, data=[20, 0]),
   midi.NoteOnEvent(tick=3585800, channel=0, data=[36, 100]),
   midi.NoteOffEvent(tick=3585900, channel=0, data=[36, 0]),
   midi.NoteOnEvent(tick=3586000, channel=0, data=[2, 100]),
   midi.NoteOffEvent(tick=3586100, channel=0, data=[2, 0]),
   midi.NoteOnEvent(tick=3586200, channel=0, data=[0, 100]),
   midi.NoteOffEvent(tick=3586300, channel=0, data=[0, 0]),
   midi.NoteOnEvent(tick=3586400, channel=0, data=[13, 100]),
   midi.NoteOffEvent(tick=3586500, channel=0, data=[13, 0]),
   midi.NoteOnEvent(tick=3586600, channel=0, data=[13, 100]),
   midi.NoteOffEvent(tick=3586700, channel=0, data=[13, 0]),
   midi.NoteOnEvent(tick=3586800, channel=0, data=[14, 100]),
   midi.NoteOffEvent(tick=3586900, channel=0, data=[14, 0]),
   midi.NoteOnEvent(tick=3587000, channel=0, data=[19, 100]),
   midi.NoteOffEvent(tick=3587100, channel=0, data=[19, 0]),
   midi.NoteOnEvent(tick=3587200, channel=0, data=[36, 100]),
   midi.NoteOffEvent(tick=3587300, channel=0, data=[36, 0]),
   midi.NoteOnEvent(tick=3587400, channel=0, data=[17, 100]),
   midi.NoteOffEvent(tick=3587500, channel=0, data=[17, 0]),
   midi.NoteOnEvent(tick=3587600, channel=0, data=[4, 100]),
   midi.NoteOffEvent(tick=3587700, channel=0, data=[4, 0]),
   midi.NoteOnEvent(tick=3587800, channel=0, data=[2, 100]),
   midi.NoteOffEvent(tick=3587900, channel=0, data=[2, 0]),
   midi.NoteOnEvent(tick=3588000, channel=0, data=[0, 100]),
   midi.NoteOffEvent(tick=3588100, channel=0, data=[0, 0]),
   midi.NoteOnEvent(tick=3588200, channel=0, data=[18, 100]),
   midi.NoteOffEvent(tick=3588300, channel=0, data=[18, 0]),
   midi.NoteOnEvent(tick=3588400, channel=0, data=[19, 100]),
   midi.NoteOffEvent(tick=3588500, channel=0, data=[19, 0]),
   midi.NoteOnEvent(tick=3588600, channel=0, data=[36, 100]),
   midi.NoteOffEvent(tick=3588700, channel=0, data=[36, 0]),
   midi.NoteOnEvent(tick=3588800, channel=0, data=[19, 100]),
   midi.NoteOffEvent(tick=3588900, channel=0, data=[19, 0]),
   midi.NoteOnEvent(tick=3589000, channel=0, data=[7, 100]),
   midi.NoteOffEvent(tick=3589100, channel=0, data=[7, 0]),
   midi.NoteOnEvent(tick=3589200, channel=0, data=[4, 100]),
   midi.NoteOffEvent(tick=3589300, channel=0, data=[4, 0]),
   midi.NoteOnEvent(tick=3589400, channel=0, data=[36, 100]),
   midi.NoteOffEvent(tick=3589500, channel=0, data=[36, 0]),
   midi.NoteOnEvent(tick=3589600, channel=0, data=[3, 100]),
   midi.NoteOffEvent(tick=3589700, channel=0, data=[3, 0]),
   midi.NoteOnEvent(tick=3589800, channel=0, data=[0, 100]),
   midi.NoteOffEvent(tick=3589900, channel=0, data=[0, 0]),
   midi.NoteOnEvent(tick=3590000, channel=0, data=[19, 100]),
   midi.NoteOffEvent(tick=3590100, channel=0, data=[19, 0]),
   midi.NoteOnEvent(tick=3590200, channel=0, data=[0, 100]),
   midi.NoteOffEvent(tick=3590300, channel=0, data=[0, 0]),
   midi.NoteOnEvent(tick=3590400, channel=0, data=[36, 100]),
   midi.NoteOffEvent(tick=3590500, channel=0, data=[36, 0]),
   midi.NoteOnEvent(tick=3590600, channel=0, data=[19, 100]),
   midi.NoteOffEvent(tick=3590700, channel=0, data=[19, 0]),
   midi.NoteOnEvent(tick=3590800, channel=0, data=[24, 100]),
   midi.NoteOffEvent(tick=3590900, channel=0, data=[24, 0]),
   midi.NoteOnEvent(tick=3591000, channel=0, data=[15, 100]),
   midi.NoteOffEvent(tick=3591100, channel=0, data=[15, 0]),
   midi.NoteOnEvent(tick=3591200, channel=0, data=[4, 100]),
   midi.NoteOffEvent(tick=3591300, channel=0, data=[4, 0]),
   midi.NoteOnEvent(tick=3591400, channel=0, data=[36, 100]),
   midi.NoteOffEvent(tick=3591500, channel=0, data=[36, 0]),
   midi.NoteOnEvent(tick=3591600, channel=0, data=[56, 100]),
   midi.NoteOffEvent(tick=3591700, channel=0, data=[56, 0]),
   midi.NoteOnEvent(tick=3591800, channel=0, data=[36, 100]),
   midi.NoteOffEvent(tick=3591900, channel=0, data=[36, 0]),
   midi.NoteOnEvent(tick=3592000, channel=0, data=[36, 100]),
   midi.NoteOffEvent(tick=3592100, channel=0, data=[36, 0]),
   midi.NoteOnEvent(tick=3592200, channel=0, data=[36, 100]),
   midi.NoteOffEvent(tick=3592300, channel=0, data=[36, 0]),
   midi.NoteOnEvent(tick=3592400, channel=0, data=[36, 100]),
   midi.NoteOffEvent(tick=3592500, channel=0, data=[36, 0]),
   midi.NoteOnEvent(tick=3592600, channel=0, data=[14, 100]),
   midi.NoteOffEvent(tick=3592700, channel=0, data=[14, 0]),
   midi.NoteOnEvent(tick=3592800, channel=0, data=[5, 100]),
   midi.NoteOffEvent(tick=3592900, channel=0, data=[5, 0]),
   midi.NoteOnEvent(tick=3593000, channel=0, data=[36, 100]),
   midi.NoteOffEvent(tick=3593100, channel=0, data=[36, 0]),
   midi.NoteOnEvent(tick=3593200, channel=0, data=[0, 100]),
   midi.NoteOffEvent(tick=3593300, channel=0, data=[0, 0]),
   midi.NoteOnEvent(tick=3593400, channel=0, data=[13, 100]),
   midi.NoteOffEvent(tick=3593500, channel=0, data=[13, 0]),
   midi.NoteOnEvent(tick=3593600, channel=0, data=[36, 100]),
   midi.NoteOffEvent(tick=3593700, channel=0, data=[36, 0]),
   midi.NoteOnEvent(tick=3593800, channel=0, data=[4, 100]),
   midi.NoteOffEvent(tick=3593900, channel=0, data=[4, 0]),
   midi.NoteOnEvent(tick=3594000, channel=0, data=[23, 100]),
   midi.NoteOffEvent(tick=3594100, channel=0, data=[23, 0]),
   midi.NoteOnEvent(tick=3594200, channel=0, data=[8, 100]),
   midi.NoteOffEvent(tick=3594300, channel=0, data=[8, 0]),
   midi.NoteOnEvent(tick=3594400, channel=0, data=[18, 100]),
   midi.NoteOffEvent(tick=3594500, channel=0, data=[18, 0]),
   midi.NoteOnEvent(tick=3594600, channel=0, data=[19, 100]),
   midi.NoteOffEvent(tick=3594700, channel=0, data=[19, 0]),
   midi.NoteOnEvent(tick=3594800, channel=0, data=[8, 100]),
   midi.NoteOffEvent(tick=3594900, channel=0, data=[8, 0]),
   midi.NoteOnEvent(tick=3595000, channel=0, data=[13, 100]),
   midi.NoteOffEvent(tick=3595100, channel=0, data=[13, 0]),
   midi.NoteOnEvent(tick=3595200, channel=0, data=[6, 100]),
   midi.NoteOffEvent(tick=3595300, channel=0, data=[6, 0]),
   midi.NoteOnEvent(tick=3595400, channel=0, data=[36, 100]),
   midi.NoteOffEvent(tick=3595500, channel=0, data=[36, 0]),
   midi.NoteOnEvent(tick=3595600, channel=0, data=[21, 100]),
   midi.NoteOffEvent(tick=3595700, channel=0, data=[21, 0]),
   midi.NoteOnEvent(tick=3595800, channel=0, data=[0, 100]),
   midi.NoteOffEvent(tick=3595900, channel=0, data=[0, 0]),
   midi.NoteOnEvent(tick=3596000, channel=0, data=[17, 100]),
   midi.NoteOffEvent(tick=3596100, channel=0, data=[17, 0]),
   midi.NoteOnEvent(tick=3596200, channel=0, data=[8, 100]),
   midi.NoteOffEvent(tick=3596300, channel=0, data=[8, 0]),
   midi.NoteOnEvent(tick=3596400, channel=0, data=[0, 100]),
   midi.NoteOffEvent(tick=3596500, channel=0, data=[0, 0]),
   midi.NoteOnEvent(tick=3596600, channel=0, data=[1, 100]),
   midi.NoteOffEvent(tick=3596700, channel=0, data=[1, 0]),
   midi.NoteOnEvent(tick=3596800, channel=0, data=[11, 100]),
   midi.NoteOffEvent(tick=3596900, channel=0, data=[11, 0]),
   midi.NoteOnEvent(tick=3597000, channel=0, data=[4, 100]),
   midi.NoteOffEvent(tick=3597100, channel=0, data=[4, 0]),
   midi.NoteOnEvent(tick=3597200, channel=0, data=[36, 100]),
   midi.NoteOffEvent(tick=3597300, channel=0, data=[36, 0]),
   midi.NoteOnEvent(tick=3597400, channel=0, data=[8, 100]),
   midi.NoteOffEvent(tick=3597500, channel=0, data=[8, 0]),
   midi.NoteOnEvent(tick=3597600, channel=0, data=[5, 100]),
   midi.NoteOffEvent(tick=3597700, channel=0, data=[5, 0]),
   midi.NoteOnEvent(tick=3597800, channel=0, data=[36, 100]),
   midi.NoteOffEvent(tick=3597900, channel=0, data=[36, 0]),
   midi.NoteOnEvent(tick=3598000, channel=0, data=[8, 100]),
   midi.NoteOffEvent(tick=3598100, channel=0, data=[8, 0]),
   midi.NoteOnEvent(tick=3598200, channel=0, data=[19, 100]),
   midi.NoteOffEvent(tick=3598300, channel=0, data=[19, 0]),
   midi.NoteOnEvent(tick=3598400, channel=0, data=[18, 100]),
   midi.NoteOffEvent(tick=3598500, channel=0, data=[18, 0]),
   midi.NoteOnEvent(tick=3598600, channel=0, data=[36, 100]),
   midi.NoteOffEvent(tick=3598700, channel=0, data=[36, 0]),
   midi.NoteOnEvent(tick=3598800, channel=0, data=[21, 100]),
   midi.NoteOffEvent(tick=3598900, channel=0, data=[21, 0]),
   midi.NoteOnEvent(tick=3599000, channel=0, data=[0, 100]),
   midi.NoteOffEvent(tick=3599100, channel=0, data=[0, 0]),
   midi.NoteOnEvent(tick=3599200, channel=0, data=[11, 100]),
   midi.NoteOffEvent(tick=3599300, channel=0, data=[11, 0]),
   midi.NoteOnEvent(tick=3599400, channel=0, data=[20, 100]),
   midi.NoteOffEvent(tick=3599500, channel=0, data=[20, 0]),
   midi.NoteOnEvent(tick=3599600, channel=0, data=[4, 100]),
   midi.NoteOffEvent(tick=3599700, channel=0, data=[4, 0]),
   midi.NoteOnEvent(tick=3599800, channel=0, data=[36, 100]),
   midi.NoteOffEvent(tick=3599900, channel=0, data=[36, 0]),
   midi.NoteOnEvent(tick=3600000, channel=0, data=[2, 100]),
   midi.NoteOffEvent(tick=3600100, channel=0, data=[2, 0]),
   midi.NoteOnEvent(tick=3600200, channel=0, data=[0, 100]),
   midi.NoteOffEvent(tick=3600300, channel=0, data=[0, 0]),
   midi.NoteOnEvent(tick=3600400, channel=0, data=[13, 100]),
   midi.NoteOffEvent(tick=3600500, channel=0, data=[13, 0]),
   midi.NoteOnEvent(tick=3600600, channel=0, data=[13, 100]),
   midi.NoteOffEvent(tick=3600700, channel=0, data=[13, 0]),
   midi.NoteOnEvent(tick=3600800, channel=0, data=[14, 100]),
   midi.NoteOffEvent(tick=3600900, channel=0, data=[14, 0]),
   midi.NoteOnEvent(tick=3601000, channel=0, data=[19, 100]),
   midi.NoteOffEvent(tick=3601100, channel=0, data=[19, 0]),
   midi.NoteOnEvent(tick=3601200, channel=0, data=[36, 100]),
   midi.NoteOffEvent(tick=3601300, channel=0, data=[36, 0]),
   midi.NoteOnEvent(tick=3601400, channel=0, data=[1, 100]),
   midi.NoteOffEvent(tick=3601500, channel=0, data=[1, 0]),
   midi.NoteOnEvent(tick=3601600, channel=0, data=[4, 100]),
   midi.NoteOffEvent(tick=3601700, channel=0, data=[4, 0]),
   midi.NoteOnEvent(tick=3601800, channel=0, data=[36, 100]),
   midi.NoteOffEvent(tick=3601900, channel=0, data=[36, 0]),
   midi.NoteOnEvent(tick=3602000, channel=0, data=[2, 100]),
   midi.NoteOffEvent(tick=3602100, channel=0, data=[2, 0]),
   midi.NoteOnEvent(tick=3602200, channel=0, data=[14, 100]),
   midi.NoteOffEvent(tick=3602300, channel=0, data=[14, 0]),
   midi.NoteOnEvent(tick=3602400, channel=0, data=[13, 100]),
   midi.NoteOffEvent(tick=3602500, channel=0, data=[13, 0]),
   midi.NoteOnEvent(tick=3602600, channel=0, data=[21, 100]),
   midi.NoteOffEvent(tick=3602700, channel=0, data=[21, 0]),
   midi.NoteOnEvent(tick=3602800, channel=0, data=[4, 100]),
   midi.NoteOffEvent(tick=3602900, channel=0, data=[4, 0]),
   midi.NoteOnEvent(tick=3603000, channel=0, data=[17, 100]),
   midi.NoteOffEvent(tick=3603100, channel=0, data=[17, 0]),
   midi.NoteOnEvent(tick=3603200, channel=0, data=[19, 100]),
   midi.NoteOffEvent(tick=3603300, channel=0, data=[19, 0]),
   midi.NoteOnEvent(tick=3603400, channel=0, data=[4, 100]),
   midi.NoteOffEvent(tick=3603500, channel=0, data=[4, 0]),
   midi.NoteOnEvent(tick=3603600, channel=0, data=[3, 100]),
   midi.NoteOffEvent(tick=3603700, channel=0, data=[3, 0]),
   midi.NoteOnEvent(tick=3603800, channel=0, data=[36, 100]),
   midi.NoteOffEvent(tick=3603900, channel=0, data=[36, 0]),
   midi.NoteOnEvent(tick=3604000, channel=0, data=[19, 100]),
   midi.NoteOffEvent(tick=3604100, channel=0, data=[19, 0]),
   midi.NoteOnEvent(tick=3604200, channel=0, data=[14, 100]),
   midi.NoteOffEvent(tick=3604300, channel=0, data=[14, 0]),
   midi.NoteOnEvent(tick=3604400, channel=0, data=[36, 100]),
   midi.NoteOffEvent(tick=3604500, channel=0, data=[36, 0]),
   midi.NoteOnEvent(tick=3604600, channel=0, data=[19, 100]),
   midi.NoteOffEvent(tick=3604700, channel=0, data=[19, 0]),
   midi.NoteOnEvent(tick=3604800, channel=0, data=[7, 100]),
   midi.NoteOffEvent(tick=3604900, channel=0, data=[7, 0]),
   midi.NoteOnEvent(tick=3605000, channel=0, data=[4, 100]),
   midi.NoteOffEvent(tick=3605100, channel=0, data=[4, 0]),
   midi.NoteOnEvent(tick=3605200, channel=0, data=[36, 100]),
   midi.NoteOffEvent(tick=3605300, channel=0, data=[36, 0]),
   midi.NoteOnEvent(tick=3605400, channel=0, data=[13, 100]),
   midi.NoteOffEvent(tick=3605500, channel=0, data=[13, 0]),
   midi.NoteOnEvent(tick=3605600, channel=0, data=[4, 100]),
   midi.NoteOffEvent(tick=3605700, channel=0, data=[4, 0]),
   midi.NoteOnEvent(tick=3605800, channel=0, data=[22, 100]),
   midi.NoteOffEvent(tick=3605900, channel=0, data=[22, 0]),
   midi.NoteOnEvent(tick=3606000, channel=0, data=[36, 100]),
   midi.NoteOffEvent(tick=3606100, channel=0, data=[36, 0]),
   midi.NoteOnEvent(tick=3606200, channel=0, data=[3, 100]),
   midi.NoteOffEvent(tick=3606300, channel=0, data=[3, 0]),
   midi.NoteOnEvent(tick=3606400, channel=0, data=[0, 100]),
   midi.NoteOffEvent(tick=3606500, channel=0, data=[0, 0]),
   midi.NoteOnEvent(tick=3606600, channel=0, data=[19, 100]),
   midi.NoteOffEvent(tick=3606700, channel=0, data=[19, 0]),
   midi.NoteOnEvent(tick=3606800, channel=0, data=[0, 100]),
   midi.NoteOffEvent(tick=3606900, channel=0, data=[0, 0]),
   midi.NoteOnEvent(tick=3607000, channel=0, data=[36, 100]),
   midi.NoteOffEvent(tick=3607100, channel=0, data=[36, 0]),
   midi.NoteOnEvent(tick=3607200, channel=0, data=[56, 100]),
   midi.NoteOffEvent(tick=3607300, channel=0, data=[56, 0]),
   midi.NoteOnEvent(tick=3607400, channel=0, data=[36, 100]),
   midi.NoteOffEvent(tick=3607500, channel=0, data=[36, 0]),
   midi.NoteOnEvent(tick=3607600, channel=0, data=[36, 100]),
   midi.NoteOffEvent(tick=3607700, channel=0, data=[36, 0]),
   midi.NoteOnEvent(tick=3607800, channel=0, data=[36, 100]),
   midi.NoteOffEvent(tick=3607900, channel=0, data=[36, 0]),
   midi.NoteOnEvent(tick=3608000, channel=0, data=[36, 100]),
   midi.NoteOffEvent(tick=3608100, channel=0, data=[36, 0]),
   midi.NoteOnEvent(tick=3608200, channel=0, data=[19, 100]),
   midi.NoteOffEvent(tick=3608300, channel=0, data=[19, 0]),
   midi.NoteOnEvent(tick=3608400, channel=0, data=[24, 100]),
   midi.NoteOffEvent(tick=3608500, channel=0, data=[24, 0]),
   midi.NoteOnEvent(tick=3608600, channel=0, data=[15, 100]),
   midi.NoteOffEvent(tick=3608700, channel=0, data=[15, 0]),
   midi.NoteOnEvent(tick=3608800, channel=0, data=[4, 100]),
   midi.NoteOffEvent(tick=3608900, channel=0, data=[4, 0]),
   midi.NoteOnEvent(tick=3609000, channel=0, data=[37, 100]),
   midi.NoteOffEvent(tick=3609100, channel=0, data=[37, 0]),
   midi.NoteOnEvent(tick=3609200, channel=0, data=[36, 100]),
   midi.NoteOffEvent(tick=3609300, channel=0, data=[36, 0]),
   midi.NoteOnEvent(tick=3609400, channel=0, data=[19, 100]),
   midi.NoteOffEvent(tick=3609500, channel=0, data=[19, 0]),
   midi.NoteOnEvent(tick=3609600, channel=0, data=[14, 100]),
   midi.NoteOffEvent(tick=3609700, channel=0, data=[14, 0]),
   midi.NoteOnEvent(tick=3609800, channel=0, data=[36, 100]),
   midi.NoteOffEvent(tick=3609900, channel=0, data=[36, 0]),
   midi.NoteOnEvent(tick=3610000, channel=0, data=[2, 100]),
   midi.NoteOffEvent(tick=3610100, channel=0, data=[2, 0]),
   midi.NoteOnEvent(tick=3610200, channel=0, data=[7, 100]),
   midi.NoteOffEvent(tick=3610300, channel=0, data=[7, 0]),
   midi.NoteOnEvent(tick=3610400, channel=0, data=[0, 100]),
   midi.NoteOffEvent(tick=3610500, channel=0, data=[0, 0]),
   midi.NoteOnEvent(tick=3610600, channel=0, data=[13, 100]),
   midi.NoteOffEvent(tick=3610700, channel=0, data=[13, 0]),
   midi.NoteOnEvent(tick=3610800, channel=0, data=[6, 100]),
   midi.NoteOffEvent(tick=3610900, channel=0, data=[6, 0]),
   midi.NoteOnEvent(tick=3611000, channel=0, data=[4, 100]),
   midi.NoteOffEvent(tick=3611100, channel=0, data=[4, 0]),
   midi.NoteOnEvent(tick=3611200, channel=0, data=[36, 100]),
   midi.NoteOffEvent(tick=3611300, channel=0, data=[36, 0]),
   midi.NoteOnEvent(tick=3611400, channel=0, data=[19, 100]),
   midi.NoteOffEvent(tick=3611500, channel=0, data=[19, 0]),
   midi.NoteOnEvent(tick=3611600, channel=0, data=[7, 100]),
   midi.NoteOffEvent(tick=3611700, channel=0, data=[7, 0]),
   midi.NoteOnEvent(tick=3611800, channel=0, data=[4, 100]),
   midi.NoteOffEvent(tick=3611900, channel=0, data=[4, 0]),
   midi.NoteOnEvent(tick=3612000, channel=0, data=[36, 100]),
   midi.NoteOffEvent(tick=3612100, channel=0, data=[36, 0]),
   midi.NoteOnEvent(tick=3612200, channel=0, data=[3, 100]),
   midi.NoteOffEvent(tick=3612300, channel=0, data=[3, 0]),
   midi.NoteOnEvent(tick=3612400, channel=0, data=[0, 100]),
   midi.NoteOffEvent(tick=3612500, channel=0, data=[0, 0]),
   midi.NoteOnEvent(tick=3612600, channel=0, data=[19, 100]),
   midi.NoteOffEvent(tick=3612700, channel=0, data=[19, 0]),
   midi.NoteOnEvent(tick=3612800, channel=0, data=[0, 100]),
   midi.NoteOffEvent(tick=3612900, channel=0, data=[0, 0]),
   midi.NoteOnEvent(tick=3613000, channel=0, data=[36, 100]),
   midi.NoteOffEvent(tick=3613100, channel=0, data=[36, 0]),
   midi.NoteOnEvent(tick=3613200, channel=0, data=[19, 100]),
   midi.NoteOffEvent(tick=3613300, channel=0, data=[19, 0]),
   midi.NoteOnEvent(tick=3613400, channel=0, data=[24, 100]),
   midi.NoteOffEvent(tick=3613500, channel=0, data=[24, 0]),
   midi.NoteOnEvent(tick=3613600, channel=0, data=[15, 100]),
   midi.NoteOffEvent(tick=3613700, channel=0, data=[15, 0]),
   midi.NoteOnEvent(tick=3613800, channel=0, data=[4, 100]),
   midi.NoteOffEvent(tick=3613900, channel=0, data=[4, 0]),
   midi.NoteOnEvent(tick=3614000, channel=0, data=[38, 100]),
   midi.NoteOffEvent(tick=3614100, channel=0, data=[38, 0]),
   midi.NoteOnEvent(tick=3614200, channel=0, data=[36, 100]),
   midi.NoteOffEvent(tick=3614300, channel=0, data=[36, 0]),
   midi.NoteOnEvent(tick=3614400, channel=0, data=[24, 100]),
   midi.NoteOffEvent(tick=3614500, channel=0, data=[24, 0]),
   midi.NoteOnEvent(tick=3614600, channel=0, data=[14, 100]),
   midi.NoteOffEvent(tick=3614700, channel=0, data=[14, 0]),
   midi.NoteOnEvent(tick=3614800, channel=0, data=[20, 100]),
   midi.NoteOffEvent(tick=3614900, channel=0, data=[20, 0]),
   midi.NoteOnEvent(tick=3615000, channel=0, data=[36, 100]),
   midi.NoteOffEvent(tick=3615100, channel=0, data=[36, 0]),
   midi.NoteOnEvent(tick=3615200, channel=0, data=[12, 100]),
   midi.NoteOffEvent(tick=3615300, channel=0, data=[12, 0]),
   midi.NoteOnEvent(tick=3615400, channel=0, data=[20, 100]),
   midi.NoteOffEvent(tick=3615500, channel=0, data=[20, 0]),
   midi.NoteOnEvent(tick=3615600, channel=0, data=[18, 100]),
   midi.NoteOffEvent(tick=3615700, channel=0, data=[18, 0]),
   midi.NoteOnEvent(tick=3615800, channel=0, data=[19, 100]),
   midi.NoteOffEvent(tick=3615900, channel=0, data=[19, 0]),
   midi.NoteOnEvent(tick=3616000, channel=0, data=[36, 100]),
   midi.NoteOffEvent(tick=3616100, channel=0, data=[36, 0]),
   midi.NoteOnEvent(tick=3616200, channel=0, data=[17, 100]),
   midi.NoteOffEvent(tick=3616300, channel=0, data=[17, 0]),
   midi.NoteOnEvent(tick=3616400, channel=0, data=[4, 100]),
   midi.NoteOffEvent(tick=3616500, channel=0, data=[4, 0]),
   midi.NoteOnEvent(tick=3616600, channel=0, data=[15, 100]),
   midi.NoteOffEvent(tick=3616700, channel=0, data=[15, 0]),
   midi.NoteOnEvent(tick=3616800, channel=0, data=[11, 100]),
   midi.NoteOffEvent(tick=3616900, channel=0, data=[11, 0]),
   midi.NoteOnEvent(tick=3617000, channel=0, data=[0, 100]),
   midi.NoteOffEvent(tick=3617100, channel=0, data=[0, 0]),
   midi.NoteOnEvent(tick=3617200, channel=0, data=[2, 100]),
   midi.NoteOffEvent(tick=3617300, channel=0, data=[2, 0]),
   midi.NoteOnEvent(tick=3617400, channel=0, data=[4, 100]),
   midi.NoteOffEvent(tick=3617500, channel=0, data=[4, 0]),
   midi.NoteOnEvent(tick=3617600, channel=0, data=[36, 100]),
   midi.NoteOffEvent(tick=3617700, channel=0, data=[36, 0]),
   midi.NoteOnEvent(tick=3617800, channel=0, data=[8, 100]),
   midi.NoteOffEvent(tick=3617900, channel=0, data=[8, 0]),
   midi.NoteOnEvent(tick=3618000, channel=0, data=[19, 100]),
   midi.NoteOffEvent(tick=3618100, channel=0, data=[19, 0]),
   midi.NoteOnEvent(tick=3618200, channel=0, data=[18, 100]),
   midi.NoteOffEvent(tick=3618300, channel=0, data=[18, 0]),
   midi.NoteOnEvent(tick=3618400, channel=0, data=[36, 100]),
   midi.NoteOffEvent(tick=3618500, channel=0, data=[36, 0]),
   midi.NoteOnEvent(tick=3618600, channel=0, data=[21, 100]),
   midi.NoteOffEvent(tick=3618700, channel=0, data=[21, 0]),
   midi.NoteOnEvent(tick=3618800, channel=0, data=[0, 100]),
   midi.NoteOffEvent(tick=3618900, channel=0, data=[0, 0]),
   midi.NoteOnEvent(tick=3619000, channel=0, data=[11, 100]),
   midi.NoteOffEvent(tick=3619100, channel=0, data=[11, 0]),
   midi.NoteOnEvent(tick=3619200, channel=0, data=[20, 100]),
   midi.NoteOffEvent(tick=3619300, channel=0, data=[20, 0]),
   midi.NoteOnEvent(tick=3619400, channel=0, data=[4, 100]),
   midi.NoteOffEvent(tick=3619500, channel=0, data=[4, 0]),
   midi.NoteOnEvent(tick=3619600, channel=0, data=[38, 100]),
   midi.NoteOffEvent(tick=3619700, channel=0, data=[38, 0]),
   midi.NoteOnEvent(tick=3619800, channel=0, data=[36, 100]),
   midi.NoteOffEvent(tick=3619900, channel=0, data=[36, 0]),
   midi.NoteOnEvent(tick=3620000, channel=0, data=[0, 100]),
   midi.NoteOffEvent(tick=3620100, channel=0, data=[0, 0]),
   midi.NoteOnEvent(tick=3620200, channel=0, data=[18, 100]),
   midi.NoteOffEvent(tick=3620300, channel=0, data=[18, 0]),
   midi.NoteOnEvent(tick=3620400, channel=0, data=[36, 100]),
   midi.NoteOffEvent(tick=3620500, channel=0, data=[36, 0]),
   midi.NoteOnEvent(tick=3620600, channel=0, data=[5, 100]),
   midi.NoteOffEvent(tick=3620700, channel=0, data=[5, 0]),
   midi.NoteOnEvent(tick=3620800, channel=0, data=[14, 100]),
   midi.NoteOffEvent(tick=3620900, channel=0, data=[14, 0]),
   midi.NoteOnEvent(tick=3621000, channel=0, data=[11, 100]),
   midi.NoteOffEvent(tick=3621100, channel=0, data=[11, 0]),
   midi.NoteOnEvent(tick=3621200, channel=0, data=[11, 100]),
   midi.NoteOffEvent(tick=3621300, channel=0, data=[11, 0]),
   midi.NoteOnEvent(tick=3621400, channel=0, data=[14, 100]),
   midi.NoteOffEvent(tick=3621500, channel=0, data=[14, 0]),
   midi.NoteOnEvent(tick=3621600, channel=0, data=[22, 100]),
   midi.NoteOffEvent(tick=3621700, channel=0, data=[22, 0]),
   midi.NoteOnEvent(tick=3621800, channel=0, data=[18, 100]),
   midi.NoteOffEvent(tick=3621900, channel=0, data=[18, 0]),
   midi.NoteOnEvent(tick=3622000, channel=0, data=[46, 100]),
   midi.NoteOffEvent(tick=3622100, channel=0, data=[46, 0]),
   midi.NoteOnEvent(tick=3622200, channel=0, data=[56, 100]),
   midi.NoteOffEvent(tick=3622300, channel=0, data=[56, 0]),
   midi.NoteOnEvent(tick=3622400, channel=0, data=[56, 100]),
   midi.NoteOffEvent(tick=3622500, channel=0, data=[56, 0]),
   midi.NoteOnEvent(tick=3622600, channel=0, data=[56, 100]),
   midi.NoteOffEvent(tick=3622700, channel=0, data=[56, 0]),
   midi.NoteOnEvent(tick=3622800, channel=0, data=[36, 100]),
   midi.NoteOffEvent(tick=3622900, channel=0, data=[36, 0]),
   midi.NoteOnEvent(tick=3623000, channel=0, data=[36, 100]),
   midi.NoteOffEvent(tick=3623100, channel=0, data=[36, 0]),
   midi.NoteOnEvent(tick=3623200, channel=0, data=[36, 100]),
   midi.NoteOffEvent(tick=3623300, channel=0, data=[36, 0]),
   midi.NoteOnEvent(tick=3623400, channel=0, data=[36, 100]),
   midi.NoteOffEvent(tick=3623500, channel=0, data=[36, 0]),
   midi.NoteOnEvent(tick=3623600, channel=0, data=[36, 100]),
   midi.NoteOffEvent(tick=3623700, channel=0, data=[36, 0]),
   midi.NoteOnEvent(tick=3623800, channel=0, data=[36, 100]),
   midi.NoteOffEvent(tick=3623900, channel=0, data=[36, 0]),
   midi.NoteOnEvent(tick=3624000, channel=0, data=[36, 100]),
   midi.NoteOffEvent(tick=3624100, channel=0, data=[36, 0]),
   midi.NoteOnEvent(tick=3624200, channel=0, data=[36, 100]),
   midi.NoteOffEvent(tick=3624300, channel=0, data=[36, 0]),
   midi.NoteOnEvent(tick=3624400, channel=0, data=[2, 100]),
   midi.NoteOffEvent(tick=3624500, channel=0, data=[2, 0]),
   midi.NoteOnEvent(tick=3624600, channel=0, data=[46, 100]),
   midi.NoteOffEvent(tick=3624700, channel=0, data=[46, 0]),
   midi.NoteOnEvent(tick=3624800, channel=0, data=[78, 100]),
   midi.NoteOffEvent(tick=3624900, channel=0, data=[78, 0]),
   midi.NoteOnEvent(tick=3625000, channel=0, data=[15, 100]),
   midi.NoteOffEvent(tick=3625100, channel=0, data=[15, 0]),
   midi.NoteOnEvent(tick=3625200, channel=0, data=[18, 100]),
   midi.NoteOffEvent(tick=3625300, channel=0, data=[18, 0]),
   midi.NoteOnEvent(tick=3625400, channel=0, data=[73, 100]),
   midi.NoteOffEvent(tick=3625500, channel=0, data=[73, 0]),
   midi.NoteOnEvent(tick=3625600, channel=0, data=[36, 100]),
   midi.NoteOffEvent(tick=3625700, channel=0, data=[36, 0]),
   midi.NoteOnEvent(tick=3625800, channel=0, data=[74, 100]),
   midi.NoteOffEvent(tick=3625900, channel=0, data=[74, 0]),
   midi.NoteOnEvent(tick=3626000, channel=0, data=[0, 100]),
   midi.NoteOffEvent(tick=3626100, channel=0, data=[0, 0]),
   midi.NoteOnEvent(tick=3626200, channel=0, data=[36, 100]),
   midi.NoteOffEvent(tick=3626300, channel=0, data=[36, 0]),
   midi.NoteOnEvent(tick=3626400, channel=0, data=[69, 100]),
   midi.NoteOffEvent(tick=3626500, channel=0, data=[69, 0]),
   midi.NoteOnEvent(tick=3626600, channel=0, data=[36, 100]),
   midi.NoteOffEvent(tick=3626700, channel=0, data=[36, 0]),
   midi.NoteOnEvent(tick=3626800, channel=0, data=[41, 100]),
   midi.NoteOffEvent(tick=3626900, channel=0, data=[41, 0]),
   midi.NoteOnEvent(tick=3627000, channel=0, data=[18, 100]),
   midi.NoteOffEvent(tick=3627100, channel=0, data=[18, 0]),
   midi.NoteOnEvent(tick=3627200, channel=0, data=[19, 100]),
   midi.NoteOffEvent(tick=3627300, channel=0, data=[19, 0]),
   midi.NoteOnEvent(tick=3627400, channel=0, data=[17, 100]),
   midi.NoteOffEvent(tick=3627500, channel=0, data=[17, 0]),
   midi.NoteOnEvent(tick=3627600, channel=0, data=[8, 100]),
   midi.NoteOffEvent(tick=3627700, channel=0, data=[8, 0]),
   midi.NoteOnEvent(tick=3627800, channel=0, data=[13, 100]),
   midi.NoteOffEvent(tick=3627900, channel=0, data=[13, 0]),
   midi.NoteOnEvent(tick=3628000, channel=0, data=[6, 100]),
   midi.NoteOffEvent(tick=3628100, channel=0, data=[6, 0]),
   midi.NoteOnEvent(tick=3628200, channel=0, data=[41, 100]),
   midi.NoteOffEvent(tick=3628300, channel=0, data=[41, 0]),
   midi.NoteOnEvent(tick=3628400, channel=0, data=[56, 100]),
   midi.NoteOffEvent(tick=3628500, channel=0, data=[56, 0]),
   midi.NoteOnEvent(tick=3628600, channel=0, data=[36, 100]),
   midi.NoteOffEvent(tick=3628700, channel=0, data=[36, 0]),
   midi.NoteOnEvent(tick=3628800, channel=0, data=[36, 100]),
   midi.NoteOffEvent(tick=3628900, channel=0, data=[36, 0]),
   midi.NoteOnEvent(tick=3629000, channel=0, data=[36, 100]),
   midi.NoteOffEvent(tick=3629100, channel=0, data=[36, 0]),
   midi.NoteOnEvent(tick=3629200, channel=0, data=[36, 100]),
   midi.NoteOffEvent(tick=3629300, channel=0, data=[36, 0]),
   midi.NoteOnEvent(tick=3629400, channel=0, data=[36, 100]),
   midi.NoteOffEvent(tick=3629500, channel=0, data=[36, 0]),
   midi.NoteOnEvent(tick=3629600, channel=0, data=[36, 100]),
   midi.NoteOffEvent(tick=3629700, channel=0, data=[36, 0]),
   midi.NoteOnEvent(tick=3629800, channel=0, data=[36, 100]),
   midi.NoteOffEvent(tick=3629900, channel=0, data=[36, 0]),
   midi.NoteOnEvent(tick=3630000, channel=0, data=[36, 100]),
   midi.NoteOffEvent(tick=3630100, channel=0, data=[36, 0]),
   midi.NoteOnEvent(tick=3630200, channel=0, data=[2, 100]),
   midi.NoteOffEvent(tick=3630300, channel=0, data=[2, 0]),
   midi.NoteOnEvent(tick=3630400, channel=0, data=[46, 100]),
   midi.NoteOffEvent(tick=3630500, channel=0, data=[46, 0]),
   midi.NoteOnEvent(tick=3630600, channel=0, data=[78, 100]),
   midi.NoteOffEvent(tick=3630700, channel=0, data=[78, 0]),
   midi.NoteOnEvent(tick=3630800, channel=0, data=[15, 100]),
   midi.NoteOffEvent(tick=3630900, channel=0, data=[15, 0]),
   midi.NoteOnEvent(tick=3631000, channel=0, data=[18, 100]),
   midi.NoteOffEvent(tick=3631100, channel=0, data=[18, 0]),
   midi.NoteOnEvent(tick=3631200, channel=0, data=[73, 100]),
   midi.NoteOffEvent(tick=3631300, channel=0, data=[73, 0]),
   midi.NoteOnEvent(tick=3631400, channel=0, data=[36, 100]),
   midi.NoteOffEvent(tick=3631500, channel=0, data=[36, 0]),
   midi.NoteOnEvent(tick=3631600, channel=0, data=[51, 100]),
   midi.NoteOffEvent(tick=3631700, channel=0, data=[51, 0]),
   midi.NoteOnEvent(tick=3631800, channel=0, data=[8, 100]),
   midi.NoteOffEvent(tick=3631900, channel=0, data=[8, 0]),
   midi.NoteOnEvent(tick=3632000, channel=0, data=[13, 100]),
   midi.NoteOffEvent(tick=3632100, channel=0, data=[13, 0]),
   midi.NoteOnEvent(tick=3632200, channel=0, data=[19, 100]),
   midi.NoteOffEvent(tick=3632300, channel=0, data=[19, 0]),
   midi.NoteOnEvent(tick=3632400, channel=0, data=[52, 100]),
   midi.NoteOffEvent(tick=3632500, channel=0, data=[52, 0]),
   midi.NoteOnEvent(tick=3632600, channel=0, data=[74, 100]),
   midi.NoteOffEvent(tick=3632700, channel=0, data=[74, 0]),
   midi.NoteOnEvent(tick=3632800, channel=0, data=[0, 100]),
   midi.NoteOffEvent(tick=3632900, channel=0, data=[0, 0]),
   midi.NoteOnEvent(tick=3633000, channel=0, data=[56, 100]),
   midi.NoteOffEvent(tick=3633100, channel=0, data=[56, 0]),
   midi.NoteOnEvent(tick=3633200, channel=0, data=[36, 100]),
   midi.NoteOffEvent(tick=3633300, channel=0, data=[36, 0]),
   midi.NoteOnEvent(tick=3633400, channel=0, data=[36, 100]),
   midi.NoteOffEvent(tick=3633500, channel=0, data=[36, 0]),
   midi.NoteOnEvent(tick=3633600, channel=0, data=[36, 100]),
   midi.NoteOffEvent(tick=3633700, channel=0, data=[36, 0]),
   midi.NoteOnEvent(tick=3633800, channel=0, data=[36, 100]),
   midi.NoteOffEvent(tick=3633900, channel=0, data=[36, 0]),
   midi.NoteOnEvent(tick=3634000, channel=0, data=[36, 100]),
   midi.NoteOffEvent(tick=3634100, channel=0, data=[36, 0]),
   midi.NoteOnEvent(tick=3634200, channel=0, data=[36, 100]),
   midi.NoteOffEvent(tick=3634300, channel=0, data=[36, 0]),
   midi.NoteOnEvent(tick=3634400, channel=0, data=[36, 100]),
   midi.NoteOffEvent(tick=3634500, channel=0, data=[36, 0]),
   midi.NoteOnEvent(tick=3634600, channel=0, data=[36, 100]),
   midi.NoteOffEvent(tick=3634700, channel=0, data=[36, 0]),
   midi.NoteOnEvent(tick=3634800, channel=0, data=[2, 100]),
   midi.NoteOffEvent(tick=3634900, channel=0, data=[2, 0]),
   midi.NoteOnEvent(tick=3635000, channel=0, data=[0, 100]),
   midi.NoteOffEvent(tick=3635100, channel=0, data=[0, 0]),
   midi.NoteOnEvent(tick=3635200, channel=0, data=[13, 100]),
   midi.NoteOffEvent(tick=3635300, channel=0, data=[13, 0]),
   midi.NoteOnEvent(tick=3635400, channel=0, data=[13, 100]),
   midi.NoteOffEvent(tick=3635500, channel=0, data=[13, 0]),
   midi.NoteOnEvent(tick=3635600, channel=0, data=[14, 100]),
   midi.NoteOffEvent(tick=3635700, channel=0, data=[14, 0]),
   midi.NoteOnEvent(tick=3635800, channel=0, data=[19, 100]),
   midi.NoteOffEvent(tick=3635900, channel=0, data=[19, 0]),
   midi.NoteOnEvent(tick=3636000, channel=0, data=[36, 100]),
   midi.NoteOffEvent(tick=3636100, channel=0, data=[36, 0]),
   midi.NoteOnEvent(tick=3636200, channel=0, data=[2, 100]),
   midi.NoteOffEvent(tick=3636300, channel=0, data=[2, 0]),
   midi.NoteOnEvent(tick=3636400, channel=0, data=[14, 100]),
   midi.NoteOffEvent(tick=3636500, channel=0, data=[14, 0]),
   midi.NoteOnEvent(tick=3636600, channel=0, data=[13, 100]),
   midi.NoteOffEvent(tick=3636700, channel=0, data=[13, 0]),
   midi.NoteOnEvent(tick=3636800, channel=0, data=[21, 100]),
   midi.NoteOffEvent(tick=3636900, channel=0, data=[21, 0]),
   midi.NoteOnEvent(tick=3637000, channel=0, data=[4, 100]),
   midi.NoteOffEvent(tick=3637100, channel=0, data=[4, 0]),
   midi.NoteOnEvent(tick=3637200, channel=0, data=[17, 100]),
   midi.NoteOffEvent(tick=3637300, channel=0, data=[17, 0]),
   midi.NoteOnEvent(tick=3637400, channel=0, data=[19, 100]),
   midi.NoteOffEvent(tick=3637500, channel=0, data=[19, 0]),
   midi.NoteOnEvent(tick=3637600, channel=0, data=[36, 100]),
   midi.NoteOffEvent(tick=3637700, channel=0, data=[36, 0]),
   midi.NoteOnEvent(tick=3637800, channel=0, data=[21, 100]),
   midi.NoteOffEvent(tick=3637900, channel=0, data=[21, 0]),
   midi.NoteOnEvent(tick=3638000, channel=0, data=[0, 100]),
   midi.NoteOffEvent(tick=3638100, channel=0, data=[0, 0]),
   midi.NoteOnEvent(tick=3638200, channel=0, data=[11, 100]),
   midi.NoteOffEvent(tick=3638300, channel=0, data=[11, 0]),
   midi.NoteOnEvent(tick=3638400, channel=0, data=[20, 100]),
   midi.NoteOffEvent(tick=3638500, channel=0, data=[20, 0]),
   midi.NoteOnEvent(tick=3638600, channel=0, data=[4, 100]),
   midi.NoteOffEvent(tick=3638700, channel=0, data=[4, 0]),
   midi.NoteOnEvent(tick=3638800, channel=0, data=[36, 100]),
   midi.NoteOffEvent(tick=3638900, channel=0, data=[36, 0]),
   midi.NoteOnEvent(tick=3639000, channel=0, data=[41, 100]),
   midi.NoteOffEvent(tick=3639100, channel=0, data=[41, 0]),
   midi.NoteOnEvent(tick=3639200, channel=0, data=[18, 100]),
   midi.NoteOffEvent(tick=3639300, channel=0, data=[18, 0]),
   midi.NoteOnEvent(tick=3639400, channel=0, data=[19, 100]),
   midi.NoteOffEvent(tick=3639500, channel=0, data=[19, 0]),
   midi.NoteOnEvent(tick=3639600, channel=0, data=[17, 100]),
   midi.NoteOffEvent(tick=3639700, channel=0, data=[17, 0]),
   midi.NoteOnEvent(tick=3639800, channel=0, data=[8, 100]),
   midi.NoteOffEvent(tick=3639900, channel=0, data=[8, 0]),
   midi.NoteOnEvent(tick=3640000, channel=0, data=[13, 100]),
   midi.NoteOffEvent(tick=3640100, channel=0, data=[13, 0]),
   midi.NoteOnEvent(tick=3640200, channel=0, data=[6, 100]),
   midi.NoteOffEvent(tick=3640300, channel=0, data=[6, 0]),
   midi.NoteOnEvent(tick=3640400, channel=0, data=[41, 100]),
   midi.NoteOffEvent(tick=3640500, channel=0, data=[41, 0]),
   midi.NoteOnEvent(tick=3640600, channel=0, data=[36, 100]),
   midi.NoteOffEvent(tick=3640700, channel=0, data=[36, 0]),
   midi.NoteOnEvent(tick=3640800, channel=0, data=[19, 100]),
   midi.NoteOffEvent(tick=3640900, channel=0, data=[19, 0]),
   midi.NoteOnEvent(tick=3641000, channel=0, data=[14, 100]),
   midi.NoteOffEvent(tick=3641100, channel=0, data=[14, 0]),
   midi.NoteOnEvent(tick=3641200, channel=0, data=[36, 100]),
   midi.NoteOffEvent(tick=3641300, channel=0, data=[36, 0]),
   midi.NoteOnEvent(tick=3641400, channel=0, data=[19, 100]),
   midi.NoteOffEvent(tick=3641500, channel=0, data=[19, 0]),
   midi.NoteOnEvent(tick=3641600, channel=0, data=[24, 100]),
   midi.NoteOffEvent(tick=3641700, channel=0, data=[24, 0]),
   midi.NoteOnEvent(tick=3641800, channel=0, data=[15, 100]),
   midi.NoteOffEvent(tick=3641900, channel=0, data=[15, 0]),
   midi.NoteOnEvent(tick=3642000, channel=0, data=[4, 100]),
   midi.NoteOffEvent(tick=3642100, channel=0, data=[4, 0]),
   midi.NoteOnEvent(tick=3642200, channel=0, data=[36, 100]),
   midi.NoteOffEvent(tick=3642300, channel=0, data=[36, 0]),
   midi.NoteOnEvent(tick=3642400, channel=0, data=[41, 100]),
   midi.NoteOffEvent(tick=3642500, channel=0, data=[41, 0]),
   midi.NoteOnEvent(tick=3642600, channel=0, data=[18, 100]),
   midi.NoteOffEvent(tick=3642700, channel=0, data=[18, 0]),
   midi.NoteOnEvent(tick=3642800, channel=0, data=[24, 100]),
   midi.NoteOffEvent(tick=3642900, channel=0, data=[24, 0]),
   midi.NoteOnEvent(tick=3643000, channel=0, data=[18, 100]),
   midi.NoteOffEvent(tick=3643100, channel=0, data=[18, 0]),
   midi.NoteOnEvent(tick=3643200, channel=0, data=[19, 100]),
   midi.NoteOffEvent(tick=3643300, channel=0, data=[19, 0]),
   midi.NoteOnEvent(tick=3643400, channel=0, data=[4, 100]),
   midi.NoteOffEvent(tick=3643500, channel=0, data=[4, 0]),
   midi.NoteOnEvent(tick=3643600, channel=0, data=[12, 100]),
   midi.NoteOffEvent(tick=3643700, channel=0, data=[12, 0]),
   midi.NoteOnEvent(tick=3643800, channel=0, data=[37, 100]),
   midi.NoteOffEvent(tick=3643900, channel=0, data=[37, 0]),
   midi.NoteOnEvent(tick=3644000, channel=0, data=[8, 100]),
   midi.NoteOffEvent(tick=3644100, channel=0, data=[8, 0]),
   midi.NoteOnEvent(tick=3644200, channel=0, data=[13, 100]),
   midi.NoteOffEvent(tick=3644300, channel=0, data=[13, 0]),
   midi.NoteOnEvent(tick=3644400, channel=0, data=[19, 100]),
   midi.NoteOffEvent(tick=3644500, channel=0, data=[19, 0]),
   midi.NoteOnEvent(tick=3644600, channel=0, data=[29, 100]),
   midi.NoteOffEvent(tick=3644700, channel=0, data=[29, 0]),
   midi.NoteOnEvent(tick=3644800, channel=0, data=[28, 100]),
   midi.NoteOffEvent(tick=3644900, channel=0, data=[28, 0]),
   midi.NoteOnEvent(tick=3645000, channel=0, data=[41, 100]),
   midi.NoteOffEvent(tick=3645100, channel=0, data=[41, 0]),
   midi.NoteOnEvent(tick=3645200, channel=0, data=[37, 100]),
   midi.NoteOffEvent(tick=3645300, channel=0, data=[37, 0]),
   midi.NoteOnEvent(tick=3645400, channel=0, data=[36, 100]),
   midi.NoteOffEvent(tick=3645500, channel=0, data=[36, 0]),
   midi.NoteOnEvent(tick=3645600, channel=0, data=[4, 100]),
   midi.NoteOffEvent(tick=3645700, channel=0, data=[4, 0]),
   midi.NoteOnEvent(tick=3645800, channel=0, data=[17, 100]),
   midi.NoteOffEvent(tick=3645900, channel=0, data=[17, 0]),
   midi.NoteOnEvent(tick=3646000, channel=0, data=[17, 100]),
   midi.NoteOffEvent(tick=3646100, channel=0, data=[17, 0]),
   midi.NoteOnEvent(tick=3646200, channel=0, data=[14, 100]),
   midi.NoteOffEvent(tick=3646300, channel=0, data=[14, 0]),
   midi.NoteOnEvent(tick=3646400, channel=0, data=[17, 100]),
   midi.NoteOffEvent(tick=3646500, channel=0, data=[17, 0]),
   midi.NoteOnEvent(tick=3646600, channel=0, data=[46, 100]),
   midi.NoteOffEvent(tick=3646700, channel=0, data=[46, 0]),
   midi.NoteOnEvent(tick=3646800, channel=0, data=[36, 100]),
   midi.NoteOffEvent(tick=3646900, channel=0, data=[36, 0]),
   midi.NoteOnEvent(tick=3647000, channel=0, data=[41, 100]),
   midi.NoteOffEvent(tick=3647100, channel=0, data=[41, 0]),
   midi.NoteOnEvent(tick=3647200, channel=0, data=[8, 100]),
   midi.NoteOffEvent(tick=3647300, channel=0, data=[8, 0]),
   midi.NoteOnEvent(tick=3647400, channel=0, data=[13, 100]),
   midi.NoteOffEvent(tick=3647500, channel=0, data=[13, 0]),
   midi.NoteOnEvent(tick=3647600, channel=0, data=[15, 100]),
   midi.NoteOffEvent(tick=3647700, channel=0, data=[15, 0]),
   midi.NoteOnEvent(tick=3647800, channel=0, data=[20, 100]),
   midi.NoteOffEvent(tick=3647900, channel=0, data=[20, 0]),
   midi.NoteOnEvent(tick=3648000, channel=0, data=[19, 100]),
   midi.NoteOffEvent(tick=3648100, channel=0, data=[19, 0]),
   midi.NoteOnEvent(tick=3648200, channel=0, data=[56, 100]),
   midi.NoteOffEvent(tick=3648300, channel=0, data=[56, 0]),
   midi.NoteOnEvent(tick=3648400, channel=0, data=[36, 100]),
   midi.NoteOffEvent(tick=3648500, channel=0, data=[36, 0]),
   midi.NoteOnEvent(tick=3648600, channel=0, data=[36, 100]),
   midi.NoteOffEvent(tick=3648700, channel=0, data=[36, 0]),
   midi.NoteOnEvent(tick=3648800, channel=0, data=[36, 100]),
   midi.NoteOffEvent(tick=3648900, channel=0, data=[36, 0]),
   midi.NoteOnEvent(tick=3649000, channel=0, data=[36, 100]),
   midi.NoteOffEvent(tick=3649100, channel=0, data=[36, 0]),
   midi.NoteOnEvent(tick=3649200, channel=0, data=[36, 100]),
   midi.NoteOffEvent(tick=3649300, channel=0, data=[36, 0]),
   midi.NoteOnEvent(tick=3649400, channel=0, data=[36, 100]),
   midi.NoteOffEvent(tick=3649500, channel=0, data=[36, 0]),
   midi.NoteOnEvent(tick=3649600, channel=0, data=[36, 100]),
   midi.NoteOffEvent(tick=3649700, channel=0, data=[36, 0]),
   midi.NoteOnEvent(tick=3649800, channel=0, data=[36, 100]),
   midi.NoteOffEvent(tick=3649900, channel=0, data=[36, 0]),
   midi.NoteOnEvent(tick=3650000, channel=0, data=[18, 100]),
   midi.NoteOffEvent(tick=3650100, channel=0, data=[18, 0]),
   midi.NoteOnEvent(tick=3650200, channel=0, data=[19, 100]),
   midi.NoteOffEvent(tick=3650300, channel=0, data=[19, 0]),
   midi.NoteOnEvent(tick=3650400, channel=0, data=[17, 100]),
   midi.NoteOffEvent(tick=3650500, channel=0, data=[17, 0]),
   midi.NoteOnEvent(tick=3650600, channel=0, data=[8, 100]),
   midi.NoteOffEvent(tick=3650700, channel=0, data=[8, 0]),
   midi.NoteOnEvent(tick=3650800, channel=0, data=[13, 100]),
   midi.NoteOffEvent(tick=3650900, channel=0, data=[13, 0]),
   midi.NoteOnEvent(tick=3651000, channel=0, data=[6, 100]),
   midi.NoteOffEvent(tick=3651100, channel=0, data=[6, 0]),
   midi.NoteOnEvent(tick=3651200, channel=0, data=[36, 100]),
   midi.NoteOffEvent(tick=3651300, channel=0, data=[36, 0]),
   midi.NoteOnEvent(tick=3651400, channel=0, data=[22, 100]),
   midi.NoteOffEvent(tick=3651500, channel=0, data=[22, 0]),
   midi.NoteOnEvent(tick=3651600, channel=0, data=[0, 100]),
   midi.NoteOffEvent(tick=3651700, channel=0, data=[0, 0]),
   midi.NoteOnEvent(tick=3651800, channel=0, data=[18, 100]),
   midi.NoteOffEvent(tick=3651900, channel=0, data=[18, 0]),
   midi.NoteOnEvent(tick=3652000, channel=0, data=[36, 100]),
   midi.NoteOffEvent(tick=3652100, channel=0, data=[36, 0]),
   midi.NoteOnEvent(tick=3652200, channel=0, data=[13, 100]),
   midi.NoteOffEvent(tick=3652300, channel=0, data=[13, 0]),
   midi.NoteOnEvent(tick=3652400, channel=0, data=[14, 100]),
   midi.NoteOffEvent(tick=3652500, channel=0, data=[14, 0]),
   midi.NoteOnEvent(tick=3652600, channel=0, data=[19, 100]),
   midi.NoteOffEvent(tick=3652700, channel=0, data=[19, 0]),
   midi.NoteOnEvent(tick=3652800, channel=0, data=[36, 100]),
   midi.NoteOffEvent(tick=3652900, channel=0, data=[36, 0]),
   midi.NoteOnEvent(tick=3653000, channel=0, data=[8, 100]),
   midi.NoteOffEvent(tick=3653100, channel=0, data=[8, 0]),
   midi.NoteOnEvent(tick=3653200, channel=0, data=[13, 100]),
   midi.NoteOffEvent(tick=3653300, channel=0, data=[13, 0]),
   midi.NoteOnEvent(tick=3653400, channel=0, data=[36, 100]),
   midi.NoteOffEvent(tick=3653500, channel=0, data=[36, 0]),
   midi.NoteOnEvent(tick=3653600, channel=0, data=[0, 100]),
   midi.NoteOffEvent(tick=3653700, channel=0, data=[0, 0]),
   midi.NoteOnEvent(tick=3653800, channel=0, data=[36, 100]),
   midi.NoteOffEvent(tick=3653900, channel=0, data=[36, 0]),
   midi.NoteOnEvent(tick=3654000, channel=0, data=[2, 100]),
   midi.NoteOffEvent(tick=3654100, channel=0, data=[2, 0]),
   midi.NoteOnEvent(tick=3654200, channel=0, data=[14, 100]),
   midi.NoteOffEvent(tick=3654300, channel=0, data=[14, 0]),
   midi.NoteOnEvent(tick=3654400, channel=0, data=[17, 100]),
   midi.NoteOffEvent(tick=3654500, channel=0, data=[17, 0]),
   midi.NoteOnEvent(tick=3654600, channel=0, data=[17, 100]),
   midi.NoteOffEvent(tick=3654700, channel=0, data=[17, 0]),
   midi.NoteOnEvent(tick=3654800, channel=0, data=[4, 100]),
   midi.NoteOffEvent(tick=3654900, channel=0, data=[4, 0]),
   midi.NoteOnEvent(tick=3655000, channel=0, data=[2, 100]),
   midi.NoteOffEvent(tick=3655100, channel=0, data=[2, 0]),
   midi.NoteOnEvent(tick=3655200, channel=0, data=[19, 100]),
   midi.NoteOffEvent(tick=3655300, channel=0, data=[19, 0]),
   midi.NoteOnEvent(tick=3655400, channel=0, data=[36, 100]),
   midi.NoteOffEvent(tick=3655500, channel=0, data=[36, 0]),
   midi.NoteOnEvent(tick=3655600, channel=0, data=[5, 100]),
   midi.NoteOffEvent(tick=3655700, channel=0, data=[5, 0]),
   midi.NoteOnEvent(tick=3655800, channel=0, data=[14, 100]),
   midi.NoteOffEvent(tick=3655900, channel=0, data=[14, 0]),
   midi.NoteOnEvent(tick=3656000, channel=0, data=[17, 100]),
   midi.NoteOffEvent(tick=3656100, channel=0, data=[17, 0]),
   midi.NoteOnEvent(tick=3656200, channel=0, data=[12, 100]),
   midi.NoteOffEvent(tick=3656300, channel=0, data=[12, 0]),
   midi.NoteOnEvent(tick=3656400, channel=0, data=[0, 100]),
   midi.NoteOffEvent(tick=3656500, channel=0, data=[0, 0]),
   midi.NoteOnEvent(tick=3656600, channel=0, data=[19, 100]),
   midi.NoteOffEvent(tick=3656700, channel=0, data=[19, 0]),
   midi.NoteOnEvent(tick=3656800, channel=0, data=[37, 100]),
   midi.NoteOffEvent(tick=3656900, channel=0, data=[37, 0]),
   midi.NoteOnEvent(tick=3657000, channel=0, data=[41, 100]),
   midi.NoteOffEvent(tick=3657100, channel=0, data=[41, 0]),
   midi.NoteOnEvent(tick=3657200, channel=0, data=[56, 100]),
   midi.NoteOffEvent(tick=3657300, channel=0, data=[56, 0]),
   midi.NoteOnEvent(tick=3657400, channel=0, data=[36, 100]),
   midi.NoteOffEvent(tick=3657500, channel=0, data=[36, 0]),
   midi.NoteOnEvent(tick=3657600, channel=0, data=[36, 100]),
   midi.NoteOffEvent(tick=3657700, channel=0, data=[36, 0]),
   midi.NoteOnEvent(tick=3657800, channel=0, data=[36, 100]),
   midi.NoteOffEvent(tick=3657900, channel=0, data=[36, 0]),
   midi.NoteOnEvent(tick=3658000, channel=0, data=[36, 100]),
   midi.NoteOffEvent(tick=3658100, channel=0, data=[36, 0]),
   midi.NoteOnEvent(tick=3658200, channel=0, data=[36, 100]),
   midi.NoteOffEvent(tick=3658300, channel=0, data=[36, 0]),
   midi.NoteOnEvent(tick=3658400, channel=0, data=[36, 100]),
   midi.NoteOffEvent(tick=3658500, channel=0, data=[36, 0]),
   midi.NoteOnEvent(tick=3658600, channel=0, data=[36, 100]),
   midi.NoteOffEvent(tick=3658700, channel=0, data=[36, 0]),
   midi.NoteOnEvent(tick=3658800, channel=0, data=[36, 100]),
   midi.NoteOffEvent(tick=3658900, channel=0, data=[36, 0]),
   midi.NoteOnEvent(tick=3659000, channel=0, data=[0, 100]),
   midi.NoteOffEvent(tick=3659100, channel=0, data=[0, 0]),
   midi.NoteOnEvent(tick=3659200, channel=0, data=[19, 100]),
   midi.NoteOffEvent(tick=3659300, channel=0, data=[19, 0]),
   midi.NoteOnEvent(tick=3659400, channel=0, data=[36, 100]),
   midi.NoteOffEvent(tick=3659500, channel=0, data=[36, 0]),
   midi.NoteOnEvent(tick=3659600, channel=0, data=[11, 100]),
   midi.NoteOffEvent(tick=3659700, channel=0, data=[11, 0]),
   midi.NoteOnEvent(tick=3659800, channel=0, data=[8, 100]),
   midi.NoteOffEvent(tick=3659900, channel=0, data=[8, 0]),
   midi.NoteOnEvent(tick=3660000, channel=0, data=[13, 100]),
   midi.NoteOffEvent(tick=3660100, channel=0, data=[13, 0]),
   midi.NoteOnEvent(tick=3660200, channel=0, data=[4, 100]),
   midi.NoteOffEvent(tick=3660300, channel=0, data=[4, 0]),
   midi.NoteOnEvent(tick=3660400, channel=0, data=[46, 100]),
   midi.NoteOffEvent(tick=3660500, channel=0, data=[46, 0]),
   midi.NoteOnEvent(tick=3660600, channel=0, data=[27, 100]),
   midi.NoteOffEvent(tick=3660700, channel=0, data=[27, 0]),
   midi.NoteOnEvent(tick=3660800, channel=0, data=[36, 100]),
   midi.NoteOffEvent(tick=3660900, channel=0, data=[36, 0]),
   midi.NoteOnEvent(tick=3661000, channel=0, data=[2, 100]),
   midi.NoteOffEvent(tick=3661100, channel=0, data=[2, 0]),
   midi.NoteOnEvent(tick=3661200, channel=0, data=[7, 100]),
   midi.NoteOffEvent(tick=3661300, channel=0, data=[7, 0]),
   midi.NoteOnEvent(tick=3661400, channel=0, data=[0, 100]),
   midi.NoteOffEvent(tick=3661500, channel=0, data=[0, 0]),
   midi.NoteOnEvent(tick=3661600, channel=0, data=[17, 100]),
   midi.NoteOffEvent(tick=3661700, channel=0, data=[17, 0]),
   midi.NoteOnEvent(tick=3661800, channel=0, data=[46, 100]),
   midi.NoteOffEvent(tick=3661900, channel=0, data=[46, 0]),
   midi.NoteOnEvent(tick=3662000, channel=0, data=[34, 100]),
   midi.NoteOffEvent(tick=3662100, channel=0, data=[34, 0]),
   midi.NoteOnEvent(tick=3662200, channel=0, data=[56, 100]),
   midi.NoteOffEvent(tick=3662300, channel=0, data=[56, 0]),
   midi.NoteOnEvent(tick=3662400, channel=0, data=[36, 100]),
   midi.NoteOffEvent(tick=3662500, channel=0, data=[36, 0]),
   midi.NoteOnEvent(tick=3662600, channel=0, data=[36, 100]),
   midi.NoteOffEvent(tick=3662700, channel=0, data=[36, 0]),
   midi.NoteOnEvent(tick=3662800, channel=0, data=[36, 100]),
   midi.NoteOffEvent(tick=3662900, channel=0, data=[36, 0]),
   midi.NoteOnEvent(tick=3663000, channel=0, data=[36, 100]),
   midi.NoteOffEvent(tick=3663100, channel=0, data=[36, 0]),
   midi.NoteOnEvent(tick=3663200, channel=0, data=[36, 100]),
   midi.NoteOffEvent(tick=3663300, channel=0, data=[36, 0]),
   midi.NoteOnEvent(tick=3663400, channel=0, data=[36, 100]),
   midi.NoteOffEvent(tick=3663500, channel=0, data=[36, 0]),
   midi.NoteOnEvent(tick=3663600, channel=0, data=[36, 100]),
   midi.NoteOffEvent(tick=3663700, channel=0, data=[36, 0]),
   midi.NoteOnEvent(tick=3663800, channel=0, data=[36, 100]),
   midi.NoteOffEvent(tick=3663900, channel=0, data=[36, 0]),
   midi.NoteOnEvent(tick=3664000, channel=0, data=[55, 100]),
   midi.NoteOffEvent(tick=3664100, channel=0, data=[55, 0]),
   midi.NoteOnEvent(tick=3664200, channel=0, data=[36, 100]),
   midi.NoteOffEvent(tick=3664300, channel=0, data=[36, 0]),
   midi.NoteOnEvent(tick=3664400, channel=0, data=[51, 100]),
   midi.NoteOffEvent(tick=3664500, channel=0, data=[51, 0]),
   midi.NoteOnEvent(tick=3664600, channel=0, data=[8, 100]),
   midi.NoteOffEvent(tick=3664700, channel=0, data=[8, 0]),
   midi.NoteOnEvent(tick=3664800, channel=0, data=[13, 100]),
   midi.NoteOffEvent(tick=3664900, channel=0, data=[13, 0]),
   midi.NoteOnEvent(tick=3665000, channel=0, data=[19, 100]),
   midi.NoteOffEvent(tick=3665100, channel=0, data=[19, 0]),
   midi.NoteOnEvent(tick=3665200, channel=0, data=[52, 100]),
   midi.NoteOffEvent(tick=3665300, channel=0, data=[52, 0]),
   midi.NoteOnEvent(tick=3665400, channel=0, data=[74, 100]),
   midi.NoteOffEvent(tick=3665500, channel=0, data=[74, 0]),
   midi.NoteOnEvent(tick=3665600, channel=0, data=[0, 100]),
   midi.NoteOffEvent(tick=3665700, channel=0, data=[0, 0]),
   midi.NoteOnEvent(tick=3665800, channel=0, data=[36, 100]),
   midi.NoteOffEvent(tick=3665900, channel=0, data=[36, 0]),
   midi.NoteOnEvent(tick=3666000, channel=0, data=[72, 100]),
   midi.NoteOffEvent(tick=3666100, channel=0, data=[72, 0]),
   midi.NoteOnEvent(tick=3666200, channel=0, data=[72, 100]),
   midi.NoteOffEvent(tick=3666300, channel=0, data=[72, 0]),
   midi.NoteOnEvent(tick=3666400, channel=0, data=[72, 100]),
   midi.NoteOffEvent(tick=3666500, channel=0, data=[72, 0]),
   midi.NoteOnEvent(tick=3666600, channel=0, data=[72, 100]),
   midi.NoteOffEvent(tick=3666700, channel=0, data=[72, 0]),
   midi.NoteOnEvent(tick=3666800, channel=0, data=[56, 100]),
   midi.NoteOffEvent(tick=3666900, channel=0, data=[56, 0]),
   midi.NoteOnEvent(tick=3667000, channel=0, data=[56, 100]),
   midi.NoteOffEvent(tick=3667100, channel=0, data=[56, 0]),
   midi.NoteOnEvent(tick=3667200, channel=0, data=[36, 100]),
   midi.NoteOffEvent(tick=3667300, channel=0, data=[36, 0]),
   midi.NoteOnEvent(tick=3667400, channel=0, data=[36, 100]),
   midi.NoteOffEvent(tick=3667500, channel=0, data=[36, 0]),
   midi.NoteOnEvent(tick=3667600, channel=0, data=[36, 100]),
   midi.NoteOffEvent(tick=3667700, channel=0, data=[36, 0]),
   midi.NoteOnEvent(tick=3667800, channel=0, data=[36, 100]),
   midi.NoteOffEvent(tick=3667900, channel=0, data=[36, 0]),
   midi.NoteOnEvent(tick=3668000, channel=0, data=[36, 100]),
   midi.NoteOffEvent(tick=3668100, channel=0, data=[36, 0]),
   midi.NoteOnEvent(tick=3668200, channel=0, data=[36, 100]),
   midi.NoteOffEvent(tick=3668300, channel=0, data=[36, 0]),
   midi.NoteOnEvent(tick=3668400, channel=0, data=[36, 100]),
   midi.NoteOffEvent(tick=3668500, channel=0, data=[36, 0]),
   midi.NoteOnEvent(tick=3668600, channel=0, data=[36, 100]),
   midi.NoteOffEvent(tick=3668700, channel=0, data=[36, 0]),
   midi.NoteOnEvent(tick=3668800, channel=0, data=[2, 100]),
   midi.NoteOffEvent(tick=3668900, channel=0, data=[2, 0]),
   midi.NoteOnEvent(tick=3669000, channel=0, data=[46, 100]),
   midi.NoteOffEvent(tick=3669100, channel=0, data=[46, 0]),
   midi.NoteOnEvent(tick=3669200, channel=0, data=[78, 100]),
   midi.NoteOffEvent(tick=3669300, channel=0, data=[78, 0]),
   midi.NoteOnEvent(tick=3669400, channel=0, data=[15, 100]),
   midi.NoteOffEvent(tick=3669500, channel=0, data=[15, 0]),
   midi.NoteOnEvent(tick=3669600, channel=0, data=[18, 100]),
   midi.NoteOffEvent(tick=3669700, channel=0, data=[18, 0]),
   midi.NoteOnEvent(tick=3669800, channel=0, data=[73, 100]),
   midi.NoteOffEvent(tick=3669900, channel=0, data=[73, 0]),
   midi.NoteOnEvent(tick=3670000, channel=0, data=[36, 100]),
   midi.NoteOffEvent(tick=3670100, channel=0, data=[36, 0]),
   midi.NoteOnEvent(tick=3670200, channel=0, data=[51, 100]),
   midi.NoteOffEvent(tick=3670300, channel=0, data=[51, 0]),
   midi.NoteOnEvent(tick=3670400, channel=0, data=[8, 100]),
   midi.NoteOffEvent(tick=3670500, channel=0, data=[8, 0]),
   midi.NoteOnEvent(tick=3670600, channel=0, data=[13, 100]),
   midi.NoteOffEvent(tick=3670700, channel=0, data=[13, 0]),
   midi.NoteOnEvent(tick=3670800, channel=0, data=[19, 100]),
   midi.NoteOffEvent(tick=3670900, channel=0, data=[19, 0]),
   midi.NoteOnEvent(tick=3671000, channel=0, data=[52, 100]),
   midi.NoteOffEvent(tick=3671100, channel=0, data=[52, 0]),
   midi.NoteOnEvent(tick=3671200, channel=0, data=[74, 100]),
   midi.NoteOffEvent(tick=3671300, channel=0, data=[74, 0]),
   midi.NoteOnEvent(tick=3671400, channel=0, data=[0, 100]),
   midi.NoteOffEvent(tick=3671500, channel=0, data=[0, 0]),
   midi.NoteOnEvent(tick=3671600, channel=0, data=[36, 100]),
   midi.NoteOffEvent(tick=3671700, channel=0, data=[36, 0]),
   midi.NoteOnEvent(tick=3671800, channel=0, data=[69, 100]),
   midi.NoteOffEvent(tick=3671900, channel=0, data=[69, 0]),
   midi.NoteOnEvent(tick=3672000, channel=0, data=[29, 100]),
   midi.NoteOffEvent(tick=3672100, channel=0, data=[29, 0]),
   midi.NoteOnEvent(tick=3672200, channel=0, data=[56, 100]),
   midi.NoteOffEvent(tick=3672300, channel=0, data=[56, 0]),
   midi.NoteOnEvent(tick=3672400, channel=0, data=[36, 100]),
   midi.NoteOffEvent(tick=3672500, channel=0, data=[36, 0]),
   midi.NoteOnEvent(tick=3672600, channel=0, data=[56, 100]),
   midi.NoteOffEvent(tick=3672700, channel=0, data=[56, 0]),
   midi.NoteOnEvent(tick=3672800, channel=0, data=[56, 100]),
   midi.NoteOffEvent(tick=3672900, channel=0, data=[56, 0]),
   midi.NoteOnEvent(tick=3673000, channel=0, data=[36, 100]),
   midi.NoteOffEvent(tick=3673100, channel=0, data=[36, 0]),
   midi.NoteOnEvent(tick=3673200, channel=0, data=[36, 100]),
   midi.NoteOffEvent(tick=3673300, channel=0, data=[36, 0]),
   midi.NoteOnEvent(tick=3673400, channel=0, data=[36, 100]),
   midi.NoteOffEvent(tick=3673500, channel=0, data=[36, 0]),
   midi.NoteOnEvent(tick=3673600, channel=0, data=[36, 100]),
   midi.NoteOffEvent(tick=3673700, channel=0, data=[36, 0]),
   midi.NoteOnEvent(tick=3673800, channel=0, data=[8, 100]),
   midi.NoteOffEvent(tick=3673900, channel=0, data=[8, 0]),
   midi.NoteOnEvent(tick=3674000, channel=0, data=[13, 100]),
   midi.NoteOffEvent(tick=3674100, channel=0, data=[13, 0]),
   midi.NoteOnEvent(tick=3674200, channel=0, data=[36, 100]),
   midi.NoteOffEvent(tick=3674300, channel=0, data=[36, 0]),
   midi.NoteOnEvent(tick=3674400, channel=0, data=[0, 100]),
   midi.NoteOffEvent(tick=3674500, channel=0, data=[0, 0]),
   midi.NoteOnEvent(tick=3674600, channel=0, data=[3, 100]),
   midi.NoteOffEvent(tick=3674700, channel=0, data=[3, 0]),
   midi.NoteOnEvent(tick=3674800, channel=0, data=[3, 100]),
   midi.NoteOffEvent(tick=3674900, channel=0, data=[3, 0]),
   midi.NoteOnEvent(tick=3675000, channel=0, data=[8, 100]),
   midi.NoteOffEvent(tick=3675100, channel=0, data=[8, 0]),
   midi.NoteOnEvent(tick=3675200, channel=0, data=[19, 100]),
   midi.NoteOffEvent(tick=3675300, channel=0, data=[19, 0]),
   midi.NoteOnEvent(tick=3675400, channel=0, data=[8, 100]),
   midi.NoteOffEvent(tick=3675500, channel=0, data=[8, 0]),
   midi.NoteOnEvent(tick=3675600, channel=0, data=[14, 100]),
   midi.NoteOffEvent(tick=3675700, channel=0, data=[14, 0]),
   midi.NoteOnEvent(tick=3675800, channel=0, data=[13, 100]),
   midi.NoteOffEvent(tick=3675900, channel=0, data=[13, 0]),
   midi.NoteOnEvent(tick=3676000, channel=0, data=[38, 100]),
   midi.NoteOffEvent(tick=3676100, channel=0, data=[38, 0]),
   midi.NoteOnEvent(tick=3676200, channel=0, data=[36, 100]),
   midi.NoteOffEvent(tick=3676300, channel=0, data=[36, 0]),
   midi.NoteOnEvent(tick=3676400, channel=0, data=[22, 100]),
   midi.NoteOffEvent(tick=3676500, channel=0, data=[22, 0]),
   midi.NoteOnEvent(tick=3676600, channel=0, data=[7, 100]),
   midi.NoteOffEvent(tick=3676700, channel=0, data=[7, 0]),
   midi.NoteOnEvent(tick=3676800, channel=0, data=[4, 100]),
   midi.NoteOffEvent(tick=3676900, channel=0, data=[4, 0]),
   midi.NoteOnEvent(tick=3677000, channel=0, data=[13, 100]),
   midi.NoteOffEvent(tick=3677100, channel=0, data=[13, 0]),
   midi.NoteOnEvent(tick=3677200, channel=0, data=[36, 100]),
   midi.NoteOffEvent(tick=3677300, channel=0, data=[36, 0]),
   midi.NoteOnEvent(tick=3677400, channel=0, data=[24, 100]),
   midi.NoteOffEvent(tick=3677500, channel=0, data=[24, 0]),
   midi.NoteOnEvent(tick=3677600, channel=0, data=[14, 100]),
   midi.NoteOffEvent(tick=3677700, channel=0, data=[14, 0]),
   midi.NoteOnEvent(tick=3677800, channel=0, data=[20, 100]),
   midi.NoteOffEvent(tick=3677900, channel=0, data=[20, 0]),
   midi.NoteOnEvent(tick=3678000, channel=0, data=[36, 100]),
   midi.NoteOffEvent(tick=3678100, channel=0, data=[36, 0]),
   midi.NoteOnEvent(tick=3678200, channel=0, data=[15, 100]),
   midi.NoteOffEvent(tick=3678300, channel=0, data=[15, 0]),
   midi.NoteOnEvent(tick=3678400, channel=0, data=[17, 100]),
   midi.NoteOffEvent(tick=3678500, channel=0, data=[17, 0]),
   midi.NoteOnEvent(tick=3678600, channel=0, data=[4, 100]),
   midi.NoteOffEvent(tick=3678700, channel=0, data=[4, 0]),
   midi.NoteOnEvent(tick=3678800, channel=0, data=[2, 100]),
   midi.NoteOffEvent(tick=3678900, channel=0, data=[2, 0]),
   midi.NoteOnEvent(tick=3679000, channel=0, data=[4, 100]),
   midi.NoteOffEvent(tick=3679100, channel=0, data=[4, 0]),
   midi.NoteOnEvent(tick=3679200, channel=0, data=[3, 100]),
   midi.NoteOffEvent(tick=3679300, channel=0, data=[3, 0]),
   midi.NoteOnEvent(tick=3679400, channel=0, data=[4, 100]),
   midi.NoteOffEvent(tick=3679500, channel=0, data=[4, 0]),
   midi.NoteOnEvent(tick=3679600, channel=0, data=[36, 100]),
   midi.NoteOffEvent(tick=3679700, channel=0, data=[36, 0]),
   midi.NoteOnEvent(tick=3679800, channel=0, data=[0, 100]),
   midi.NoteOffEvent(tick=3679900, channel=0, data=[0, 0]),
   midi.NoteOnEvent(tick=3680000, channel=0, data=[36, 100]),
   midi.NoteOffEvent(tick=3680100, channel=0, data=[36, 0]),
   midi.NoteOnEvent(tick=3680200, channel=0, data=[21, 100]),
   midi.NoteOffEvent(tick=3680300, channel=0, data=[21, 0]),
   midi.NoteOnEvent(tick=3680400, channel=0, data=[0, 100]),
   midi.NoteOffEvent(tick=3680500, channel=0, data=[0, 0]),
   midi.NoteOnEvent(tick=3680600, channel=0, data=[17, 100]),
   midi.NoteOffEvent(tick=3680700, channel=0, data=[17, 0]),
   midi.NoteOnEvent(tick=3680800, channel=0, data=[8, 100]),
   midi.NoteOffEvent(tick=3680900, channel=0, data=[8, 0]),
   midi.NoteOnEvent(tick=3681000, channel=0, data=[0, 100]),
   midi.NoteOffEvent(tick=3681100, channel=0, data=[0, 0]),
   midi.NoteOnEvent(tick=3681200, channel=0, data=[1, 100]),
   midi.NoteOffEvent(tick=3681300, channel=0, data=[1, 0]),
   midi.NoteOnEvent(tick=3681400, channel=0, data=[11, 100]),
   midi.NoteOffEvent(tick=3681500, channel=0, data=[11, 0]),
   midi.NoteOnEvent(tick=3681600, channel=0, data=[4, 100]),
   midi.NoteOffEvent(tick=3681700, channel=0, data=[4, 0]),
   midi.NoteOnEvent(tick=3681800, channel=0, data=[36, 100]),
   midi.NoteOffEvent(tick=3681900, channel=0, data=[36, 0]),
   midi.NoteOnEvent(tick=3682000, channel=0, data=[13, 100]),
   midi.NoteOffEvent(tick=3682100, channel=0, data=[13, 0]),
   midi.NoteOnEvent(tick=3682200, channel=0, data=[0, 100]),
   midi.NoteOffEvent(tick=3682300, channel=0, data=[0, 0]),
   midi.NoteOnEvent(tick=3682400, channel=0, data=[12, 100]),
   midi.NoteOffEvent(tick=3682500, channel=0, data=[12, 0]),
   midi.NoteOnEvent(tick=3682600, channel=0, data=[4, 100]),
   midi.NoteOffEvent(tick=3682700, channel=0, data=[4, 0]),
   midi.NoteOnEvent(tick=3682800, channel=0, data=[36, 100]),
   midi.NoteOffEvent(tick=3682900, channel=0, data=[36, 0]),
   midi.NoteOnEvent(tick=3683000, channel=0, data=[22, 100]),
   midi.NoteOffEvent(tick=3683100, channel=0, data=[22, 0]),
   midi.NoteOnEvent(tick=3683200, channel=0, data=[8, 100]),
   midi.NoteOffEvent(tick=3683300, channel=0, data=[8, 0]),
   midi.NoteOnEvent(tick=3683400, channel=0, data=[19, 100]),
   midi.NoteOffEvent(tick=3683500, channel=0, data=[19, 0]),
   midi.NoteOnEvent(tick=3683600, channel=0, data=[7, 100]),
   midi.NoteOffEvent(tick=3683700, channel=0, data=[7, 0]),
   midi.NoteOnEvent(tick=3683800, channel=0, data=[36, 100]),
   midi.NoteOffEvent(tick=3683900, channel=0, data=[36, 0]),
   midi.NoteOnEvent(tick=3684000, channel=0, data=[0, 100]),
   midi.NoteOffEvent(tick=3684100, channel=0, data=[0, 0]),
   midi.NoteOnEvent(tick=3684200, channel=0, data=[36, 100]),
   midi.NoteOffEvent(tick=3684300, channel=0, data=[36, 0]),
   midi.NoteOnEvent(tick=3684400, channel=0, data=[3, 100]),
   midi.NoteOffEvent(tick=3684500, channel=0, data=[3, 0]),
   midi.NoteOnEvent(tick=3684600, channel=0, data=[0, 100]),
   midi.NoteOffEvent(tick=3684700, channel=0, data=[0, 0]),
   midi.NoteOnEvent(tick=3684800, channel=0, data=[19, 100]),
   midi.NoteOffEvent(tick=3684900, channel=0, data=[19, 0]),
   midi.NoteOnEvent(tick=3685000, channel=0, data=[0, 100]),
   midi.NoteOffEvent(tick=3685100, channel=0, data=[0, 0]),
   midi.NoteOnEvent(tick=3685200, channel=0, data=[36, 100]),
   midi.NoteOffEvent(tick=3685300, channel=0, data=[36, 0]),
   midi.NoteOnEvent(tick=3685400, channel=0, data=[19, 100]),
   midi.NoteOffEvent(tick=3685500, channel=0, data=[19, 0]),
   midi.NoteOnEvent(tick=3685600, channel=0, data=[24, 100]),
   midi.NoteOffEvent(tick=3685700, channel=0, data=[24, 0]),
   midi.NoteOnEvent(tick=3685800, channel=0, data=[15, 100]),
   midi.NoteOffEvent(tick=3685900, channel=0, data=[15, 0]),
   midi.NoteOnEvent(tick=3686000, channel=0, data=[4, 100]),
   midi.NoteOffEvent(tick=3686100, channel=0, data=[4, 0]),
   midi.NoteOnEvent(tick=3686200, channel=0, data=[38, 100]),
   midi.NoteOffEvent(tick=3686300, channel=0, data=[38, 0]),
   midi.NoteOnEvent(tick=3686400, channel=0, data=[36, 100]),
   midi.NoteOffEvent(tick=3686500, channel=0, data=[36, 0]),
   midi.NoteOnEvent(tick=3686600, channel=0, data=[19, 100]),
   midi.NoteOffEvent(tick=3686700, channel=0, data=[19, 0]),
   midi.NoteOnEvent(tick=3686800, channel=0, data=[7, 100]),
   midi.NoteOffEvent(tick=3686900, channel=0, data=[7, 0]),
   midi.NoteOnEvent(tick=3687000, channel=0, data=[4, 100]),
   midi.NoteOffEvent(tick=3687100, channel=0, data=[4, 0]),
   midi.NoteOnEvent(tick=3687200, channel=0, data=[36, 100]),
   midi.NoteOffEvent(tick=3687300, channel=0, data=[36, 0]),
   midi.NoteOnEvent(tick=3687400, channel=0, data=[19, 100]),
   midi.NoteOffEvent(tick=3687500, channel=0, data=[19, 0]),
   midi.NoteOnEvent(tick=3687600, channel=0, data=[24, 100]),
   midi.NoteOffEvent(tick=3687700, channel=0, data=[24, 0]),
   midi.NoteOnEvent(tick=3687800, channel=0, data=[15, 100]),
   midi.NoteOffEvent(tick=3687900, channel=0, data=[15, 0]),
   midi.NoteOnEvent(tick=3688000, channel=0, data=[4, 100]),
   midi.NoteOffEvent(tick=3688100, channel=0, data=[4, 0]),
   midi.NoteOnEvent(tick=3688200, channel=0, data=[56, 100]),
   midi.NoteOffEvent(tick=3688300, channel=0, data=[56, 0]),
   midi.NoteOnEvent(tick=3688400, channel=0, data=[36, 100]),
   midi.NoteOffEvent(tick=3688500, channel=0, data=[36, 0]),
   midi.NoteOnEvent(tick=3688600, channel=0, data=[36, 100]),
   midi.NoteOffEvent(tick=3688700, channel=0, data=[36, 0]),
   midi.NoteOnEvent(tick=3688800, channel=0, data=[36, 100]),
   midi.NoteOffEvent(tick=3688900, channel=0, data=[36, 0]),
   midi.NoteOnEvent(tick=3689000, channel=0, data=[36, 100]),
   midi.NoteOffEvent(tick=3689100, channel=0, data=[36, 0]),
   midi.NoteOnEvent(tick=3689200, channel=0, data=[14, 100]),
   midi.NoteOffEvent(tick=3689300, channel=0, data=[14, 0]),
   midi.NoteOnEvent(tick=3689400, channel=0, data=[5, 100]),
   midi.NoteOffEvent(tick=3689500, channel=0, data=[5, 0]),
   midi.NoteOnEvent(tick=3689600, channel=0, data=[36, 100]),
   midi.NoteOffEvent(tick=3689700, channel=0, data=[36, 0]),
   midi.NoteOnEvent(tick=3689800, channel=0, data=[19, 100]),
   midi.NoteOffEvent(tick=3689900, channel=0, data=[19, 0]),
   midi.NoteOnEvent(tick=3690000, channel=0, data=[7, 100]),
   midi.NoteOffEvent(tick=3690100, channel=0, data=[7, 0]),
   midi.NoteOnEvent(tick=3690200, channel=0, data=[0, 100]),
   midi.NoteOffEvent(tick=3690300, channel=0, data=[0, 0]),
   midi.NoteOnEvent(tick=3690400, channel=0, data=[19, 100]),
   midi.NoteOffEvent(tick=3690500, channel=0, data=[19, 0]),
   midi.NoteOnEvent(tick=3690600, channel=0, data=[36, 100]),
   midi.NoteOffEvent(tick=3690700, channel=0, data=[36, 0]),
   midi.NoteOnEvent(tick=3690800, channel=0, data=[21, 100]),
   midi.NoteOffEvent(tick=3690900, channel=0, data=[21, 0]),
   midi.NoteOnEvent(tick=3691000, channel=0, data=[0, 100]),
   midi.NoteOffEvent(tick=3691100, channel=0, data=[0, 0]),
   midi.NoteOnEvent(tick=3691200, channel=0, data=[17, 100]),
   midi.NoteOffEvent(tick=3691300, channel=0, data=[17, 0]),
   midi.NoteOnEvent(tick=3691400, channel=0, data=[8, 100]),
   midi.NoteOffEvent(tick=3691500, channel=0, data=[8, 0]),
   midi.NoteOnEvent(tick=3691600, channel=0, data=[0, 100]),
   midi.NoteOffEvent(tick=3691700, channel=0, data=[0, 0]),
   midi.NoteOnEvent(tick=3691800, channel=0, data=[1, 100]),
   midi.NoteOffEvent(tick=3691900, channel=0, data=[1, 0]),
   midi.NoteOnEvent(tick=3692000, channel=0, data=[11, 100]),
   midi.NoteOffEvent(tick=3692100, channel=0, data=[11, 0]),
   midi.NoteOnEvent(tick=3692200, channel=0, data=[4, 100]),
   midi.NoteOffEvent(tick=3692300, channel=0, data=[4, 0]),
   midi.NoteOnEvent(tick=3692400, channel=0, data=[36, 100]),
   midi.NoteOffEvent(tick=3692500, channel=0, data=[36, 0]),
   midi.NoteOnEvent(tick=3692600, channel=0, data=[8, 100]),
   midi.NoteOffEvent(tick=3692700, channel=0, data=[8, 0]),
   midi.NoteOnEvent(tick=3692800, channel=0, data=[18, 100]),
   midi.NoteOffEvent(tick=3692900, channel=0, data=[18, 0]),
   midi.NoteOnEvent(tick=3693000, channel=0, data=[36, 100]),
   midi.NoteOffEvent(tick=3693100, channel=0, data=[36, 0]),
   midi.NoteOnEvent(tick=3693200, channel=0, data=[11, 100]),
   midi.NoteOffEvent(tick=3693300, channel=0, data=[11, 0]),
   midi.NoteOnEvent(tick=3693400, channel=0, data=[14, 100]),
   midi.NoteOffEvent(tick=3693500, channel=0, data=[14, 0]),
   midi.NoteOnEvent(tick=3693600, channel=0, data=[2, 100]),
   midi.NoteOffEvent(tick=3693700, channel=0, data=[2, 0]),
   midi.NoteOnEvent(tick=3693800, channel=0, data=[10, 100]),
   midi.NoteOffEvent(tick=3693900, channel=0, data=[10, 0]),
   midi.NoteOnEvent(tick=3694000, channel=0, data=[4, 100]),
   midi.NoteOffEvent(tick=3694100, channel=0, data=[4, 0]),
   midi.NoteOnEvent(tick=3694200, channel=0, data=[3, 100]),
   midi.NoteOffEvent(tick=3694300, channel=0, data=[3, 0]),
   midi.NoteOnEvent(tick=3694400, channel=0, data=[36, 100]),
   midi.NoteOffEvent(tick=3694500, channel=0, data=[36, 0]),
   midi.NoteOnEvent(tick=3694600, channel=0, data=[20, 100]),
   midi.NoteOffEvent(tick=3694700, channel=0, data=[20, 0]),
   midi.NoteOnEvent(tick=3694800, channel=0, data=[13, 100]),
   midi.NoteOffEvent(tick=3694900, channel=0, data=[13, 0]),
   midi.NoteOnEvent(tick=3695000, channel=0, data=[11, 100]),
   midi.NoteOffEvent(tick=3695100, channel=0, data=[11, 0]),
   midi.NoteOnEvent(tick=3695200, channel=0, data=[4, 100]),
   midi.NoteOffEvent(tick=3695300, channel=0, data=[4, 0]),
   midi.NoteOnEvent(tick=3695400, channel=0, data=[18, 100]),
   midi.NoteOffEvent(tick=3695500, channel=0, data=[18, 0]),
   midi.NoteOnEvent(tick=3695600, channel=0, data=[18, 100]),
   midi.NoteOffEvent(tick=3695700, channel=0, data=[18, 0]),
   midi.NoteOnEvent(tick=3695800, channel=0, data=[36, 100]),
   midi.NoteOffEvent(tick=3695900, channel=0, data=[36, 0]),
   midi.NoteOnEvent(tick=3696000, channel=0, data=[24, 100]),
   midi.NoteOffEvent(tick=3696100, channel=0, data=[24, 0]),
   midi.NoteOnEvent(tick=3696200, channel=0, data=[14, 100]),
   midi.NoteOffEvent(tick=3696300, channel=0, data=[14, 0]),
   midi.NoteOnEvent(tick=3696400, channel=0, data=[20, 100]),
   midi.NoteOffEvent(tick=3696500, channel=0, data=[20, 0]),
   midi.NoteOnEvent(tick=3696600, channel=0, data=[36, 100]),
   midi.NoteOffEvent(tick=3696700, channel=0, data=[36, 0]),
   midi.NoteOnEvent(tick=3696800, channel=0, data=[4, 100]),
   midi.NoteOffEvent(tick=3696900, channel=0, data=[4, 0]),
   midi.NoteOnEvent(tick=3697000, channel=0, data=[23, 100]),
   midi.NoteOffEvent(tick=3697100, channel=0, data=[23, 0]),
   midi.NoteOnEvent(tick=3697200, channel=0, data=[15, 100]),
   midi.NoteOffEvent(tick=3697300, channel=0, data=[15, 0]),
   midi.NoteOnEvent(tick=3697400, channel=0, data=[11, 100]),
   midi.NoteOffEvent(tick=3697500, channel=0, data=[11, 0]),
   midi.NoteOnEvent(tick=3697600, channel=0, data=[8, 100]),
   midi.NoteOffEvent(tick=3697700, channel=0, data=[8, 0]),
   midi.NoteOnEvent(tick=3697800, channel=0, data=[2, 100]),
   midi.NoteOffEvent(tick=3697900, channel=0, data=[2, 0]),
   midi.NoteOnEvent(tick=3698000, channel=0, data=[8, 100]),
   midi.NoteOffEvent(tick=3698100, channel=0, data=[8, 0]),
   midi.NoteOnEvent(tick=3698200, channel=0, data=[19, 100]),
   midi.NoteOffEvent(tick=3698300, channel=0, data=[19, 0]),
   midi.NoteOnEvent(tick=3698400, channel=0, data=[11, 100]),
   midi.NoteOffEvent(tick=3698500, channel=0, data=[11, 0]),
   midi.NoteOnEvent(tick=3698600, channel=0, data=[24, 100]),
   midi.NoteOffEvent(tick=3698700, channel=0, data=[24, 0]),
   midi.NoteOnEvent(tick=3698800, channel=0, data=[36, 100]),
   midi.NoteOffEvent(tick=3698900, channel=0, data=[36, 0]),
   midi.NoteOnEvent(tick=3699000, channel=0, data=[14, 100]),
   midi.NoteOffEvent(tick=3699100, channel=0, data=[14, 0]),
   midi.NoteOnEvent(tick=3699200, channel=0, data=[21, 100]),
   midi.NoteOffEvent(tick=3699300, channel=0, data=[21, 0]),
   midi.NoteOnEvent(tick=3699400, channel=0, data=[4, 100]),
   midi.NoteOffEvent(tick=3699500, channel=0, data=[4, 0]),
   midi.NoteOnEvent(tick=3699600, channel=0, data=[17, 100]),
   midi.NoteOffEvent(tick=3699700, channel=0, data=[17, 0]),
   midi.NoteOnEvent(tick=3699800, channel=0, data=[17, 100]),
   midi.NoteOffEvent(tick=3699900, channel=0, data=[17, 0]),
   midi.NoteOnEvent(tick=3700000, channel=0, data=[8, 100]),
   midi.NoteOffEvent(tick=3700100, channel=0, data=[8, 0]),
   midi.NoteOnEvent(tick=3700200, channel=0, data=[3, 100]),
   midi.NoteOffEvent(tick=3700300, channel=0, data=[3, 0]),
   midi.NoteOnEvent(tick=3700400, channel=0, data=[4, 100]),
   midi.NoteOffEvent(tick=3700500, channel=0, data=[4, 0]),
   midi.NoteOnEvent(tick=3700600, channel=0, data=[36, 100]),
   midi.NoteOffEvent(tick=3700700, channel=0, data=[36, 0]),
   midi.NoteOnEvent(tick=3700800, channel=0, data=[19, 100]),
   midi.NoteOffEvent(tick=3700900, channel=0, data=[19, 0]),
   midi.NoteOnEvent(tick=3701000, channel=0, data=[7, 100]),
   midi.NoteOffEvent(tick=3701100, channel=0, data=[7, 0]),
   midi.NoteOnEvent(tick=3701200, channel=0, data=[4, 100]),
   midi.NoteOffEvent(tick=3701300, channel=0, data=[4, 0]),
   midi.NoteOnEvent(tick=3701400, channel=0, data=[36, 100]),
   midi.NoteOffEvent(tick=3701500, channel=0, data=[36, 0]),
   midi.NoteOnEvent(tick=3701600, channel=0, data=[19, 100]),
   midi.NoteOffEvent(tick=3701700, channel=0, data=[19, 0]),
   midi.NoteOnEvent(tick=3701800, channel=0, data=[24, 100]),
   midi.NoteOffEvent(tick=3701900, channel=0, data=[24, 0]),
   midi.NoteOnEvent(tick=3702000, channel=0, data=[15, 100]),
   midi.NoteOffEvent(tick=3702100, channel=0, data=[15, 0]),
   midi.NoteOnEvent(tick=3702200, channel=0, data=[4, 100]),
   midi.NoteOffEvent(tick=3702300, channel=0, data=[4, 0]),
   midi.NoteOnEvent(tick=3702400, channel=0, data=[36, 100]),
   midi.NoteOffEvent(tick=3702500, channel=0, data=[36, 0]),
   midi.NoteOnEvent(tick=3702600, channel=0, data=[1, 100]),
   midi.NoteOffEvent(tick=3702700, channel=0, data=[1, 0]),
   midi.NoteOnEvent(tick=3702800, channel=0, data=[24, 100]),
   midi.NoteOffEvent(tick=3702900, channel=0, data=[24, 0]),
   midi.NoteOnEvent(tick=3703000, channel=0, data=[56, 100]),
   midi.NoteOffEvent(tick=3703100, channel=0, data=[56, 0]),
   midi.NoteOnEvent(tick=3703200, channel=0, data=[36, 100]),
   midi.NoteOffEvent(tick=3703300, channel=0, data=[36, 0]),
   midi.NoteOnEvent(tick=3703400, channel=0, data=[36, 100]),
   midi.NoteOffEvent(tick=3703500, channel=0, data=[36, 0]),
   midi.NoteOnEvent(tick=3703600, channel=0, data=[36, 100]),
   midi.NoteOffEvent(tick=3703700, channel=0, data=[36, 0]),
   midi.NoteOnEvent(tick=3703800, channel=0, data=[36, 100]),
   midi.NoteOffEvent(tick=3703900, channel=0, data=[36, 0]),
   midi.NoteOnEvent(tick=3704000, channel=0, data=[18, 100]),
   midi.NoteOffEvent(tick=3704100, channel=0, data=[18, 0]),
   midi.NoteOnEvent(tick=3704200, channel=0, data=[15, 100]),
   midi.NoteOffEvent(tick=3704300, channel=0, data=[15, 0]),
   midi.NoteOnEvent(tick=3704400, channel=0, data=[4, 100]),
   midi.NoteOffEvent(tick=3704500, channel=0, data=[4, 0]),
   midi.NoteOnEvent(tick=3704600, channel=0, data=[2, 100]),
   midi.NoteOffEvent(tick=3704700, channel=0, data=[2, 0]),
   midi.NoteOnEvent(tick=3704800, channel=0, data=[8, 100]),
   midi.NoteOffEvent(tick=3704900, channel=0, data=[8, 0]),
   midi.NoteOnEvent(tick=3705000, channel=0, data=[5, 100]),
   midi.NoteOffEvent(tick=3705100, channel=0, data=[5, 0]),
   midi.NoteOnEvent(tick=3705200, channel=0, data=[24, 100]),
   midi.NoteOffEvent(tick=3705300, channel=0, data=[24, 0]),
   midi.NoteOnEvent(tick=3705400, channel=0, data=[8, 100]),
   midi.NoteOffEvent(tick=3705500, channel=0, data=[8, 0]),
   midi.NoteOnEvent(tick=3705600, channel=0, data=[13, 100]),
   midi.NoteOffEvent(tick=3705700, channel=0, data=[13, 0]),
   midi.NoteOnEvent(tick=3705800, channel=0, data=[6, 100]),
   midi.NoteOffEvent(tick=3705900, channel=0, data=[6, 0]),
   midi.NoteOnEvent(tick=3706000, channel=0, data=[36, 100]),
   midi.NoteOffEvent(tick=3706100, channel=0, data=[36, 0]),
   midi.NoteOnEvent(tick=3706200, channel=0, data=[0, 100]),
   midi.NoteOffEvent(tick=3706300, channel=0, data=[0, 0]),
   midi.NoteOnEvent(tick=3706400, channel=0, data=[13, 100]),
   midi.NoteOffEvent(tick=3706500, channel=0, data=[13, 0]),
   midi.NoteOnEvent(tick=3706600, channel=0, data=[14, 100]),
   midi.NoteOffEvent(tick=3706700, channel=0, data=[14, 0]),
   midi.NoteOnEvent(tick=3706800, channel=0, data=[19, 100]),
   midi.NoteOffEvent(tick=3706900, channel=0, data=[19, 0]),
   midi.NoteOnEvent(tick=3707000, channel=0, data=[7, 100]),
   midi.NoteOffEvent(tick=3707100, channel=0, data=[7, 0]),
   midi.NoteOnEvent(tick=3707200, channel=0, data=[4, 100]),
   midi.NoteOffEvent(tick=3707300, channel=0, data=[4, 0]),
   midi.NoteOnEvent(tick=3707400, channel=0, data=[17, 100]),
   midi.NoteOffEvent(tick=3707500, channel=0, data=[17, 0]),
   midi.NoteOnEvent(tick=3707600, channel=0, data=[36, 100]),
   midi.NoteOffEvent(tick=3707700, channel=0, data=[36, 0]),
   midi.NoteOnEvent(tick=3707800, channel=0, data=[3, 100]),
   midi.NoteOffEvent(tick=3707900, channel=0, data=[3, 0]),
   midi.NoteOnEvent(tick=3708000, channel=0, data=[0, 100]),
   midi.NoteOffEvent(tick=3708100, channel=0, data=[0, 0]),
   midi.NoteOnEvent(tick=3708200, channel=0, data=[19, 100]),
   midi.NoteOffEvent(tick=3708300, channel=0, data=[19, 0]),
   midi.NoteOnEvent(tick=3708400, channel=0, data=[0, 100]),
   midi.NoteOffEvent(tick=3708500, channel=0, data=[0, 0]),
   midi.NoteOnEvent(tick=3708600, channel=0, data=[36, 100]),
   midi.NoteOffEvent(tick=3708700, channel=0, data=[36, 0]),
   midi.NoteOnEvent(tick=3708800, channel=0, data=[19, 100]),
   midi.NoteOffEvent(tick=3708900, channel=0, data=[19, 0]),
   midi.NoteOnEvent(tick=3709000, channel=0, data=[24, 100]),
   midi.NoteOffEvent(tick=3709100, channel=0, data=[24, 0]),
   midi.NoteOnEvent(tick=3709200, channel=0, data=[15, 100]),
   midi.NoteOffEvent(tick=3709300, channel=0, data=[15, 0]),
   midi.NoteOnEvent(tick=3709400, channel=0, data=[4, 100]),
   midi.NoteOffEvent(tick=3709500, channel=0, data=[4, 0]),
   midi.NoteOnEvent(tick=3709600, channel=0, data=[37, 100]),
   midi.NoteOffEvent(tick=3709700, channel=0, data=[37, 0]),
   midi.NoteOnEvent(tick=3709800, channel=0, data=[36, 100]),
   midi.NoteOffEvent(tick=3709900, channel=0, data=[36, 0]),
   midi.NoteOnEvent(tick=3710000, channel=0, data=[8, 100]),
   midi.NoteOffEvent(tick=3710100, channel=0, data=[8, 0]),
   midi.NoteOnEvent(tick=3710200, channel=0, data=[5, 100]),
   midi.NoteOffEvent(tick=3710300, channel=0, data=[5, 0]),
   midi.NoteOnEvent(tick=3710400, channel=0, data=[36, 100]),
   midi.NoteOffEvent(tick=3710500, channel=0, data=[36, 0]),
   midi.NoteOnEvent(tick=3710600, channel=0, data=[24, 100]),
   midi.NoteOffEvent(tick=3710700, channel=0, data=[24, 0]),
   midi.NoteOnEvent(tick=3710800, channel=0, data=[14, 100]),
   midi.NoteOffEvent(tick=3710900, channel=0, data=[14, 0]),
   midi.NoteOnEvent(tick=3711000, channel=0, data=[20, 100]),
   midi.NoteOffEvent(tick=3711100, channel=0, data=[20, 0]),
   midi.NoteOnEvent(tick=3711200, channel=0, data=[36, 100]),
   midi.NoteOffEvent(tick=3711300, channel=0, data=[36, 0]),
   midi.NoteOnEvent(tick=3711400, channel=0, data=[19, 100]),
   midi.NoteOffEvent(tick=3711500, channel=0, data=[19, 0]),
   midi.NoteOnEvent(tick=3711600, channel=0, data=[17, 100]),
   midi.NoteOffEvent(tick=3711700, channel=0, data=[17, 0]),
   midi.NoteOnEvent(tick=3711800, channel=0, data=[24, 100]),
   midi.NoteOffEvent(tick=3711900, channel=0, data=[24, 0]),
   midi.NoteOnEvent(tick=3712000, channel=0, data=[36, 100]),
   midi.NoteOffEvent(tick=3712100, channel=0, data=[36, 0]),
   midi.NoteOnEvent(tick=3712200, channel=0, data=[19, 100]),
   midi.NoteOffEvent(tick=3712300, channel=0, data=[19, 0]),
   midi.NoteOnEvent(tick=3712400, channel=0, data=[14, 100]),
   midi.NoteOffEvent(tick=3712500, channel=0, data=[14, 0]),
   midi.NoteOnEvent(tick=3712600, channel=0, data=[36, 100]),
   midi.NoteOffEvent(tick=3712700, channel=0, data=[36, 0]),
   midi.NoteOnEvent(tick=3712800, channel=0, data=[0, 100]),
   midi.NoteOffEvent(tick=3712900, channel=0, data=[0, 0]),
   midi.NoteOnEvent(tick=3713000, channel=0, data=[18, 100]),
   midi.NoteOffEvent(tick=3713100, channel=0, data=[18, 0]),
   midi.NoteOnEvent(tick=3713200, channel=0, data=[18, 100]),
   midi.NoteOffEvent(tick=3713300, channel=0, data=[18, 0]),
   midi.NoteOnEvent(tick=3713400, channel=0, data=[8, 100]),
   midi.NoteOffEvent(tick=3713500, channel=0, data=[8, 0]),
   midi.NoteOnEvent(tick=3713600, channel=0, data=[6, 100]),
   midi.NoteOffEvent(tick=3713700, channel=0, data=[6, 0]),
   midi.NoteOnEvent(tick=3713800, channel=0, data=[13, 100]),
   midi.NoteOffEvent(tick=3713900, channel=0, data=[13, 0]),
   midi.NoteOnEvent(tick=3714000, channel=0, data=[36, 100]),
   midi.NoteOffEvent(tick=3714100, channel=0, data=[36, 0]),
   midi.NoteOnEvent(tick=3714200, channel=0, data=[0, 100]),
   midi.NoteOffEvent(tick=3714300, channel=0, data=[0, 0]),
   midi.NoteOnEvent(tick=3714400, channel=0, data=[36, 100]),
   midi.NoteOffEvent(tick=3714500, channel=0, data=[36, 0]),
   midi.NoteOnEvent(tick=3714600, channel=0, data=[21, 100]),
   midi.NoteOffEvent(tick=3714700, channel=0, data=[21, 0]),
   midi.NoteOnEvent(tick=3714800, channel=0, data=[0, 100]),
   midi.NoteOffEvent(tick=3714900, channel=0, data=[0, 0]),
   midi.NoteOnEvent(tick=3715000, channel=0, data=[11, 100]),
   midi.NoteOffEvent(tick=3715100, channel=0, data=[11, 0]),
   midi.NoteOnEvent(tick=3715200, channel=0, data=[20, 100]),
   midi.NoteOffEvent(tick=3715300, channel=0, data=[20, 0]),
   midi.NoteOnEvent(tick=3715400, channel=0, data=[4, 100]),
   midi.NoteOffEvent(tick=3715500, channel=0, data=[4, 0]),
   midi.NoteOnEvent(tick=3715600, channel=0, data=[36, 100]),
   midi.NoteOffEvent(tick=3715700, channel=0, data=[36, 0]),
   midi.NoteOnEvent(tick=3715800, channel=0, data=[19, 100]),
   midi.NoteOffEvent(tick=3715900, channel=0, data=[19, 0]),
   midi.NoteOnEvent(tick=3716000, channel=0, data=[7, 100]),
   midi.NoteOffEvent(tick=3716100, channel=0, data=[7, 0]),
   midi.NoteOnEvent(tick=3716200, channel=0, data=[0, 100]),
   midi.NoteOffEvent(tick=3716300, channel=0, data=[0, 0]),
   midi.NoteOnEvent(tick=3716400, channel=0, data=[19, 100]),
   midi.NoteOffEvent(tick=3716500, channel=0, data=[19, 0]),
   midi.NoteOnEvent(tick=3716600, channel=0, data=[36, 100]),
   midi.NoteOffEvent(tick=3716700, channel=0, data=[36, 0]),
   midi.NoteOnEvent(tick=3716800, channel=0, data=[8, 100]),
   midi.NoteOffEvent(tick=3716900, channel=0, data=[8, 0]),
   midi.NoteOnEvent(tick=3717000, channel=0, data=[18, 100]),
   midi.NoteOffEvent(tick=3717100, channel=0, data=[18, 0]),
   midi.NoteOnEvent(tick=3717200, channel=0, data=[36, 100]),
   midi.NoteOffEvent(tick=3717300, channel=0, data=[36, 0]),
   midi.NoteOnEvent(tick=3717400, channel=0, data=[36, 100]),
   midi.NoteOffEvent(tick=3717500, channel=0, data=[36, 0]),
   midi.NoteOnEvent(tick=3717600, channel=0, data=[56, 100]),
   midi.NoteOffEvent(tick=3717700, channel=0, data=[56, 0]),
   midi.NoteOnEvent(tick=3717800, channel=0, data=[36, 100]),
   midi.NoteOffEvent(tick=3717900, channel=0, data=[36, 0]),
   midi.NoteOnEvent(tick=3718000, channel=0, data=[36, 100]),
   midi.NoteOffEvent(tick=3718100, channel=0, data=[36, 0]),
   midi.NoteOnEvent(tick=3718200, channel=0, data=[36, 100]),
   midi.NoteOffEvent(tick=3718300, channel=0, data=[36, 0]),
   midi.NoteOnEvent(tick=3718400, channel=0, data=[36, 100]),
   midi.NoteOffEvent(tick=3718500, channel=0, data=[36, 0]),
   midi.NoteOnEvent(tick=3718600, channel=0, data=[8, 100]),
   midi.NoteOffEvent(tick=3718700, channel=0, data=[8, 0]),
   midi.NoteOnEvent(tick=3718800, channel=0, data=[13, 100]),
   midi.NoteOffEvent(tick=3718900, channel=0, data=[13, 0]),
   midi.NoteOnEvent(tick=3719000, channel=0, data=[2, 100]),
   midi.NoteOffEvent(tick=3719100, channel=0, data=[2, 0]),
   midi.NoteOnEvent(tick=3719200, channel=0, data=[14, 100]),
   midi.NoteOffEvent(tick=3719300, channel=0, data=[14, 0]),
   midi.NoteOnEvent(tick=3719400, channel=0, data=[12, 100]),
   midi.NoteOffEvent(tick=3719500, channel=0, data=[12, 0]),
   midi.NoteOnEvent(tick=3719600, channel=0, data=[15, 100]),
   midi.NoteOffEvent(tick=3719700, channel=0, data=[15, 0]),
   midi.NoteOnEvent(tick=3719800, channel=0, data=[0, 100]),
   midi.NoteOffEvent(tick=3719900, channel=0, data=[0, 0]),
   midi.NoteOnEvent(tick=3720000, channel=0, data=[19, 100]),
   midi.NoteOffEvent(tick=3720100, channel=0, data=[19, 0]),
   midi.NoteOnEvent(tick=3720200, channel=0, data=[8, 100]),
   midi.NoteOffEvent(tick=3720300, channel=0, data=[8, 0]),
   midi.NoteOnEvent(tick=3720400, channel=0, data=[1, 100]),
   midi.NoteOffEvent(tick=3720500, channel=0, data=[1, 0]),
   midi.NoteOnEvent(tick=3720600, channel=0, data=[11, 100]),
   midi.NoteOffEvent(tick=3720700, channel=0, data=[11, 0]),
   midi.NoteOnEvent(tick=3720800, channel=0, data=[4, 100]),
   midi.NoteOffEvent(tick=3720900, channel=0, data=[4, 0]),
   midi.NoteOnEvent(tick=3721000, channel=0, data=[36, 100]),
   midi.NoteOffEvent(tick=3721100, channel=0, data=[36, 0]),
   midi.NoteOnEvent(tick=3721200, channel=0, data=[22, 100]),
   midi.NoteOffEvent(tick=3721300, channel=0, data=[22, 0]),
   midi.NoteOnEvent(tick=3721400, channel=0, data=[8, 100]),
   midi.NoteOffEvent(tick=3721500, channel=0, data=[8, 0]),
   midi.NoteOnEvent(tick=3721600, channel=0, data=[19, 100]),
   midi.NoteOffEvent(tick=3721700, channel=0, data=[19, 0]),
   midi.NoteOnEvent(tick=3721800, channel=0, data=[7, 100]),
   midi.NoteOffEvent(tick=3721900, channel=0, data=[7, 0]),
   midi.NoteOnEvent(tick=3722000, channel=0, data=[36, 100]),
   midi.NoteOffEvent(tick=3722100, channel=0, data=[36, 0]),
   midi.NoteOnEvent(tick=3722200, channel=0, data=[19, 100]),
   midi.NoteOffEvent(tick=3722300, channel=0, data=[19, 0]),
   midi.NoteOnEvent(tick=3722400, channel=0, data=[7, 100]),
   midi.NoteOffEvent(tick=3722500, channel=0, data=[7, 0]),
   midi.NoteOnEvent(tick=3722600, channel=0, data=[4, 100]),
   midi.NoteOffEvent(tick=3722700, channel=0, data=[4, 0]),
   midi.NoteOnEvent(tick=3722800, channel=0, data=[36, 100]),
   midi.NoteOffEvent(tick=3722900, channel=0, data=[36, 0]),
   midi.NoteOnEvent(tick=3723000, channel=0, data=[4, 100]),
   midi.NoteOffEvent(tick=3723100, channel=0, data=[4, 0]),
   midi.NoteOnEvent(tick=3723200, channel=0, data=[23, 100]),
   midi.NoteOffEvent(tick=3723300, channel=0, data=[23, 0]),
   midi.NoteOnEvent(tick=3723400, channel=0, data=[8, 100]),
   midi.NoteOffEvent(tick=3723500, channel=0, data=[8, 0]),
   midi.NoteOnEvent(tick=3723600, channel=0, data=[18, 100]),
   midi.NoteOffEvent(tick=3723700, channel=0, data=[18, 0]),
   midi.NoteOnEvent(tick=3723800, channel=0, data=[19, 100]),
   midi.NoteOffEvent(tick=3723900, channel=0, data=[19, 0]),
   midi.NoteOnEvent(tick=3724000, channel=0, data=[8, 100]),
   midi.NoteOffEvent(tick=3724100, channel=0, data=[8, 0]),
   midi.NoteOnEvent(tick=3724200, channel=0, data=[13, 100]),
   midi.NoteOffEvent(tick=3724300, channel=0, data=[13, 0]),
   midi.NoteOnEvent(tick=3724400, channel=0, data=[6, 100]),
   midi.NoteOffEvent(tick=3724500, channel=0, data=[6, 0]),
   midi.NoteOnEvent(tick=3724600, channel=0, data=[36, 100]),
   midi.NoteOffEvent(tick=3724700, channel=0, data=[36, 0]),
   midi.NoteOnEvent(tick=3724800, channel=0, data=[19, 100]),
   midi.NoteOffEvent(tick=3724900, channel=0, data=[19, 0]),
   midi.NoteOnEvent(tick=3725000, channel=0, data=[24, 100]),
   midi.NoteOffEvent(tick=3725100, channel=0, data=[24, 0]),
   midi.NoteOnEvent(tick=3725200, channel=0, data=[15, 100]),
   midi.NoteOffEvent(tick=3725300, channel=0, data=[15, 0]),
   midi.NoteOnEvent(tick=3725400, channel=0, data=[4, 100]),
   midi.NoteOffEvent(tick=3725500, channel=0, data=[4, 0]),
   midi.NoteOnEvent(tick=3725600, channel=0, data=[38, 100]),
   midi.NoteOffEvent(tick=3725700, channel=0, data=[38, 0]),
   midi.NoteOnEvent(tick=3725800, channel=0, data=[36, 100]),
   midi.NoteOffEvent(tick=3725900, channel=0, data=[36, 0]),
   midi.NoteOnEvent(tick=3726000, channel=0, data=[0, 100]),
   midi.NoteOffEvent(tick=3726100, channel=0, data=[0, 0]),
   midi.NoteOnEvent(tick=3726200, channel=0, data=[13, 100]),
   midi.NoteOffEvent(tick=3726300, channel=0, data=[13, 0]),
   midi.NoteOnEvent(tick=3726400, channel=0, data=[3, 100]),
   midi.NoteOffEvent(tick=3726500, channel=0, data=[3, 0]),
   midi.NoteOnEvent(tick=3726600, channel=0, data=[36, 100]),
   midi.NoteOffEvent(tick=3726700, channel=0, data=[36, 0]),
   midi.NoteOnEvent(tick=3726800, channel=0, data=[24, 100]),
   midi.NoteOffEvent(tick=3726900, channel=0, data=[24, 0]),
   midi.NoteOnEvent(tick=3727000, channel=0, data=[14, 100]),
   midi.NoteOffEvent(tick=3727100, channel=0, data=[14, 0]),
   midi.NoteOnEvent(tick=3727200, channel=0, data=[20, 100]),
   midi.NoteOffEvent(tick=3727300, channel=0, data=[20, 0]),
   midi.NoteOnEvent(tick=3727400, channel=0, data=[36, 100]),
   midi.NoteOffEvent(tick=3727500, channel=0, data=[36, 0]),
   midi.NoteOnEvent(tick=3727600, channel=0, data=[3, 100]),
   midi.NoteOffEvent(tick=3727700, channel=0, data=[3, 0]),
   midi.NoteOnEvent(tick=3727800, channel=0, data=[14, 100]),
   midi.NoteOffEvent(tick=3727900, channel=0, data=[14, 0]),
   midi.NoteOnEvent(tick=3728000, channel=0, data=[36, 100]),
   midi.NoteOffEvent(tick=3728100, channel=0, data=[36, 0]),
   midi.NoteOnEvent(tick=3728200, channel=0, data=[13, 100]),
   midi.NoteOffEvent(tick=3728300, channel=0, data=[13, 0]),
   midi.NoteOnEvent(tick=3728400, channel=0, data=[14, 100]),
   midi.NoteOffEvent(tick=3728500, channel=0, data=[14, 0]),
   midi.NoteOnEvent(tick=3728600, channel=0, data=[19, 100]),
   midi.NoteOffEvent(tick=3728700, channel=0, data=[19, 0]),
   midi.NoteOnEvent(tick=3728800, channel=0, data=[36, 100]),
   midi.NoteOffEvent(tick=3728900, channel=0, data=[36, 0]),
   midi.NoteOnEvent(tick=3729000, channel=0, data=[4, 100]),
   midi.NoteOffEvent(tick=3729100, channel=0, data=[4, 0]),
   midi.NoteOnEvent(tick=3729200, channel=0, data=[23, 100]),
   midi.NoteOffEvent(tick=3729300, channel=0, data=[23, 0]),
   midi.NoteOnEvent(tick=3729400, channel=0, data=[15, 100]),
   midi.NoteOffEvent(tick=3729500, channel=0, data=[15, 0]),
   midi.NoteOnEvent(tick=3729600, channel=0, data=[11, 100]),
   midi.NoteOffEvent(tick=3729700, channel=0, data=[11, 0]),
   midi.NoteOnEvent(tick=3729800, channel=0, data=[8, 100]),
   midi.NoteOffEvent(tick=3729900, channel=0, data=[8, 0]),
   midi.NoteOnEvent(tick=3730000, channel=0, data=[2, 100]),
   midi.NoteOffEvent(tick=3730100, channel=0, data=[2, 0]),
   midi.NoteOnEvent(tick=3730200, channel=0, data=[8, 100]),
   midi.NoteOffEvent(tick=3730300, channel=0, data=[8, 0]),
   midi.NoteOnEvent(tick=3730400, channel=0, data=[19, 100]),
   midi.NoteOffEvent(tick=3730500, channel=0, data=[19, 0]),
   midi.NoteOnEvent(tick=3730600, channel=0, data=[11, 100]),
   midi.NoteOffEvent(tick=3730700, channel=0, data=[11, 0]),
   midi.NoteOnEvent(tick=3730800, channel=0, data=[24, 100]),
   midi.NoteOffEvent(tick=3730900, channel=0, data=[24, 0]),
   midi.NoteOnEvent(tick=3731000, channel=0, data=[36, 100]),
   midi.NoteOffEvent(tick=3731100, channel=0, data=[36, 0]),
   midi.NoteOnEvent(tick=3731200, channel=0, data=[14, 100]),
   midi.NoteOffEvent(tick=3731300, channel=0, data=[14, 0]),
   midi.NoteOnEvent(tick=3731400, channel=0, data=[21, 100]),
   midi.NoteOffEvent(tick=3731500, channel=0, data=[21, 0]),
   midi.NoteOnEvent(tick=3731600, channel=0, data=[4, 100]),
   midi.NoteOffEvent(tick=3731700, channel=0, data=[4, 0]),
   midi.NoteOnEvent(tick=3731800, channel=0, data=[17, 100]),
   midi.NoteOffEvent(tick=3731900, channel=0, data=[17, 0]),
   midi.NoteOnEvent(tick=3732000, channel=0, data=[17, 100]),
   midi.NoteOffEvent(tick=3732100, channel=0, data=[17, 0]),
   midi.NoteOnEvent(tick=3732200, channel=0, data=[8, 100]),
   midi.NoteOffEvent(tick=3732300, channel=0, data=[8, 0]),
   midi.NoteOnEvent(tick=3732400, channel=0, data=[3, 100]),
   midi.NoteOffEvent(tick=3732500, channel=0, data=[3, 0]),
   midi.NoteOnEvent(tick=3732600, channel=0, data=[4, 100]),
   midi.NoteOffEvent(tick=3732700, channel=0, data=[4, 0]),
   midi.NoteOnEvent(tick=3732800, channel=0, data=[36, 100]),
   midi.NoteOffEvent(tick=3732900, channel=0, data=[36, 0]),
   midi.NoteOnEvent(tick=3733000, channel=0, data=[19, 100]),
   midi.NoteOffEvent(tick=3733100, channel=0, data=[19, 0]),
   midi.NoteOnEvent(tick=3733200, channel=0, data=[7, 100]),
   midi.NoteOffEvent(tick=3733300, channel=0, data=[7, 0]),
   midi.NoteOnEvent(tick=3733400, channel=0, data=[4, 100]),
   midi.NoteOffEvent(tick=3733500, channel=0, data=[4, 0]),
   midi.NoteOnEvent(tick=3733600, channel=0, data=[56, 100]),
   midi.NoteOffEvent(tick=3733700, channel=0, data=[56, 0]),
   midi.NoteOnEvent(tick=3733800, channel=0, data=[36, 100]),
   midi.NoteOffEvent(tick=3733900, channel=0, data=[36, 0]),
   midi.NoteOnEvent(tick=3734000, channel=0, data=[36, 100]),
   midi.NoteOffEvent(tick=3734100, channel=0, data=[36, 0]),
   midi.NoteOnEvent(tick=3734200, channel=0, data=[36, 100]),
   midi.NoteOffEvent(tick=3734300, channel=0, data=[36, 0]),
   midi.NoteOnEvent(tick=3734400, channel=0, data=[36, 100]),
   midi.NoteOffEvent(tick=3734500, channel=0, data=[36, 0]),
   midi.NoteOnEvent(tick=3734600, channel=0, data=[19, 100]),
   midi.NoteOffEvent(tick=3734700, channel=0, data=[19, 0]),
   midi.NoteOnEvent(tick=3734800, channel=0, data=[24, 100]),
   midi.NoteOffEvent(tick=3734900, channel=0, data=[24, 0]),
   midi.NoteOnEvent(tick=3735000, channel=0, data=[15, 100]),
   midi.NoteOffEvent(tick=3735100, channel=0, data=[15, 0]),
   midi.NoteOnEvent(tick=3735200, channel=0, data=[4, 100]),
   midi.NoteOffEvent(tick=3735300, channel=0, data=[4, 0]),
   midi.NoteOnEvent(tick=3735400, channel=0, data=[38, 100]),
   midi.NoteOffEvent(tick=3735500, channel=0, data=[38, 0]),
   midi.NoteOnEvent(tick=3735600, channel=0, data=[36, 100]),
   midi.NoteOffEvent(tick=3735700, channel=0, data=[36, 0]),
   midi.NoteOnEvent(tick=3735800, channel=0, data=[22, 100]),
   midi.NoteOffEvent(tick=3735900, channel=0, data=[22, 0]),
   midi.NoteOnEvent(tick=3736000, channel=0, data=[8, 100]),
   midi.NoteOffEvent(tick=3736100, channel=0, data=[8, 0]),
   midi.NoteOnEvent(tick=3736200, channel=0, data=[13, 100]),
   midi.NoteOffEvent(tick=3736300, channel=0, data=[13, 0]),
   midi.NoteOnEvent(tick=3736400, channel=0, data=[3, 100]),
   midi.NoteOffEvent(tick=3736500, channel=0, data=[3, 0]),
   midi.NoteOnEvent(tick=3736600, channel=0, data=[14, 100]),
   midi.NoteOffEvent(tick=3736700, channel=0, data=[14, 0]),
   midi.NoteOnEvent(tick=3736800, channel=0, data=[22, 100]),
   midi.NoteOffEvent(tick=3736900, channel=0, data=[22, 0]),
   midi.NoteOnEvent(tick=3737000, channel=0, data=[18, 100]),
   midi.NoteOffEvent(tick=3737100, channel=0, data=[18, 0]),
   midi.NoteOnEvent(tick=3737200, channel=0, data=[36, 100]),
   midi.NoteOffEvent(tick=3737300, channel=0, data=[36, 0]),
   midi.NoteOnEvent(tick=3737400, channel=0, data=[15, 100]),
   midi.NoteOffEvent(tick=3737500, channel=0, data=[15, 0]),
   midi.NoteOnEvent(tick=3737600, channel=0, data=[14, 100]),
   midi.NoteOffEvent(tick=3737700, channel=0, data=[14, 0]),
   midi.NoteOnEvent(tick=3737800, channel=0, data=[22, 100]),
   midi.NoteOffEvent(tick=3737900, channel=0, data=[22, 0]),
   midi.NoteOnEvent(tick=3738000, channel=0, data=[4, 100]),
   midi.NoteOffEvent(tick=3738100, channel=0, data=[4, 0]),
   midi.NoteOnEvent(tick=3738200, channel=0, data=[17, 100]),
   midi.NoteOffEvent(tick=3738300, channel=0, data=[17, 0]),
   midi.NoteOnEvent(tick=3738400, channel=0, data=[18, 100]),
   midi.NoteOffEvent(tick=3738500, channel=0, data=[18, 0]),
   midi.NoteOnEvent(tick=3738600, channel=0, data=[7, 100]),
   midi.NoteOffEvent(tick=3738700, channel=0, data=[7, 0]),
   midi.NoteOnEvent(tick=3738800, channel=0, data=[4, 100]),
   midi.NoteOffEvent(tick=3738900, channel=0, data=[4, 0]),
   midi.NoteOnEvent(tick=3739000, channel=0, data=[11, 100]),
   midi.NoteOffEvent(tick=3739100, channel=0, data=[11, 0]),
   midi.NoteOnEvent(tick=3739200, channel=0, data=[11, 100]),
   midi.NoteOffEvent(tick=3739300, channel=0, data=[11, 0]),
   midi.NoteOnEvent(tick=3739400, channel=0, data=[36, 100]),
   midi.NoteOffEvent(tick=3739500, channel=0, data=[36, 0]),
   midi.NoteOnEvent(tick=3739600, channel=0, data=[3, 100]),
   midi.NoteOffEvent(tick=3739700, channel=0, data=[3, 0]),
   midi.NoteOnEvent(tick=3739800, channel=0, data=[8, 100]),
   midi.NoteOffEvent(tick=3739900, channel=0, data=[8, 0]),
   midi.NoteOnEvent(tick=3740000, channel=0, data=[18, 100]),
   midi.NoteOffEvent(tick=3740100, channel=0, data=[18, 0]),
   midi.NoteOnEvent(tick=3740200, channel=0, data=[15, 100]),
   midi.NoteOffEvent(tick=3740300, channel=0, data=[15, 0]),
   midi.NoteOnEvent(tick=3740400, channel=0, data=[11, 100]),
   midi.NoteOffEvent(tick=3740500, channel=0, data=[11, 0]),
   midi.NoteOnEvent(tick=3740600, channel=0, data=[0, 100]),
   midi.NoteOffEvent(tick=3740700, channel=0, data=[0, 0]),
   midi.NoteOnEvent(tick=3740800, channel=0, data=[24, 100]),
   midi.NoteOffEvent(tick=3740900, channel=0, data=[24, 0]),
   midi.NoteOnEvent(tick=3741000, channel=0, data=[18, 100]),
   midi.NoteOffEvent(tick=3741100, channel=0, data=[18, 0]),
   midi.NoteOnEvent(tick=3741200, channel=0, data=[36, 100]),
   midi.NoteOffEvent(tick=3741300, channel=0, data=[36, 0]),
   midi.NoteOnEvent(tick=3741400, channel=0, data=[0, 100]),
   midi.NoteOffEvent(tick=3741500, channel=0, data=[0, 0]),
   midi.NoteOnEvent(tick=3741600, channel=0, data=[13, 100]),
   midi.NoteOffEvent(tick=3741700, channel=0, data=[13, 0]),
   midi.NoteOnEvent(tick=3741800, channel=0, data=[36, 100]),
   midi.NoteOffEvent(tick=3741900, channel=0, data=[36, 0]),
   midi.NoteOnEvent(tick=3742000, channel=0, data=[4, 100]),
   midi.NoteOffEvent(tick=3742100, channel=0, data=[4, 0]),
   midi.NoteOnEvent(tick=3742200, channel=0, data=[17, 100]),
   midi.NoteOffEvent(tick=3742300, channel=0, data=[17, 0]),
   midi.NoteOnEvent(tick=3742400, channel=0, data=[17, 100]),
   midi.NoteOffEvent(tick=3742500, channel=0, data=[17, 0]),
   midi.NoteOnEvent(tick=3742600, channel=0, data=[14, 100]),
   midi.NoteOffEvent(tick=3742700, channel=0, data=[14, 0]),
   midi.NoteOnEvent(tick=3742800, channel=0, data=[17, 100]),
   midi.NoteOffEvent(tick=3742900, channel=0, data=[17, 0]),
   midi.NoteOnEvent(tick=3743000, channel=0, data=[38, 100]),
   midi.NoteOffEvent(tick=3743100, channel=0, data=[38, 0]),
   midi.NoteOnEvent(tick=3743200, channel=0, data=[36, 100]),
   midi.NoteOffEvent(tick=3743300, channel=0, data=[36, 0]),
   midi.NoteOnEvent(tick=3743400, channel=0, data=[0, 100]),
   midi.NoteOffEvent(tick=3743500, channel=0, data=[0, 0]),
   midi.NoteOnEvent(tick=3743600, channel=0, data=[18, 100]),
   midi.NoteOffEvent(tick=3743700, channel=0, data=[18, 0]),
   midi.NoteOnEvent(tick=3743800, channel=0, data=[36, 100]),
   midi.NoteOffEvent(tick=3743900, channel=0, data=[36, 0]),
   midi.NoteOnEvent(tick=3744000, channel=0, data=[18, 100]),
   midi.NoteOffEvent(tick=3744100, channel=0, data=[18, 0]),
   midi.NoteOnEvent(tick=3744200, channel=0, data=[7, 100]),
   midi.NoteOffEvent(tick=3744300, channel=0, data=[7, 0]),
   midi.NoteOnEvent(tick=3744400, channel=0, data=[14, 100]),
   midi.NoteOffEvent(tick=3744500, channel=0, data=[14, 0]),
   midi.NoteOnEvent(tick=3744600, channel=0, data=[22, 100]),
   midi.NoteOffEvent(tick=3744700, channel=0, data=[22, 0]),
   midi.NoteOnEvent(tick=3744800, channel=0, data=[13, 100]),
   midi.NoteOffEvent(tick=3744900, channel=0, data=[13, 0]),
   midi.NoteOnEvent(tick=3745000, channel=0, data=[36, 100]),
   midi.NoteOffEvent(tick=3745100, channel=0, data=[36, 0]),
   midi.NoteOnEvent(tick=3745200, channel=0, data=[8, 100]),
   midi.NoteOffEvent(tick=3745300, channel=0, data=[8, 0]),
   midi.NoteOnEvent(tick=3745400, channel=0, data=[13, 100]),
   midi.NoteOffEvent(tick=3745500, channel=0, data=[13, 0]),
   midi.NoteOnEvent(tick=3745600, channel=0, data=[36, 100]),
   midi.NoteOffEvent(tick=3745700, channel=0, data=[36, 0]),
   midi.NoteOnEvent(tick=3745800, channel=0, data=[19, 100]),
   midi.NoteOffEvent(tick=3745900, channel=0, data=[19, 0]),
   midi.NoteOnEvent(tick=3746000, channel=0, data=[7, 100]),
   midi.NoteOffEvent(tick=3746100, channel=0, data=[7, 0]),
   midi.NoteOnEvent(tick=3746200, channel=0, data=[4, 100]),
   midi.NoteOffEvent(tick=3746300, channel=0, data=[4, 0]),
   midi.NoteOnEvent(tick=3746400, channel=0, data=[36, 100]),
   midi.NoteOffEvent(tick=3746500, channel=0, data=[36, 0]),
   midi.NoteOnEvent(tick=3746600, channel=0, data=[5, 100]),
   midi.NoteOffEvent(tick=3746700, channel=0, data=[5, 0]),
   midi.NoteOnEvent(tick=3746800, channel=0, data=[14, 100]),
   midi.NoteOffEvent(tick=3746900, channel=0, data=[14, 0]),
   midi.NoteOnEvent(tick=3747000, channel=0, data=[11, 100]),
   midi.NoteOffEvent(tick=3747100, channel=0, data=[11, 0]),
   midi.NoteOnEvent(tick=3747200, channel=0, data=[11, 100]),
   midi.NoteOffEvent(tick=3747300, channel=0, data=[11, 0]),
   midi.NoteOnEvent(tick=3747400, channel=0, data=[14, 100]),
   midi.NoteOffEvent(tick=3747500, channel=0, data=[14, 0]),
   midi.NoteOnEvent(tick=3747600, channel=0, data=[22, 100]),
   midi.NoteOffEvent(tick=3747700, channel=0, data=[22, 0]),
   midi.NoteOnEvent(tick=3747800, channel=0, data=[8, 100]),
   midi.NoteOffEvent(tick=3747900, channel=0, data=[8, 0]),
   midi.NoteOnEvent(tick=3748000, channel=0, data=[13, 100]),
   midi.NoteOffEvent(tick=3748100, channel=0, data=[13, 0]),
   midi.NoteOnEvent(tick=3748200, channel=0, data=[6, 100]),
   midi.NoteOffEvent(tick=3748300, channel=0, data=[6, 0]),
   midi.NoteOnEvent(tick=3748400, channel=0, data=[56, 100]),
   midi.NoteOffEvent(tick=3748500, channel=0, data=[56, 0]),
   midi.NoteOnEvent(tick=3748600, channel=0, data=[36, 100]),
   midi.NoteOffEvent(tick=3748700, channel=0, data=[36, 0]),
   midi.NoteOnEvent(tick=3748800, channel=0, data=[36, 100]),
   midi.NoteOffEvent(tick=3748900, channel=0, data=[36, 0]),
   midi.NoteOnEvent(tick=3749000, channel=0, data=[36, 100]),
   midi.NoteOffEvent(tick=3749100, channel=0, data=[36, 0]),
   midi.NoteOnEvent(tick=3749200, channel=0, data=[36, 100]),
   midi.NoteOffEvent(tick=3749300, channel=0, data=[36, 0]),
   midi.NoteOnEvent(tick=3749400, channel=0, data=[4, 100]),
   midi.NoteOffEvent(tick=3749500, channel=0, data=[4, 0]),
   midi.NoteOnEvent(tick=3749600, channel=0, data=[23, 100]),
   midi.NoteOffEvent(tick=3749700, channel=0, data=[23, 0]),
   midi.NoteOnEvent(tick=3749800, channel=0, data=[0, 100]),
   midi.NoteOffEvent(tick=3749900, channel=0, data=[0, 0]),
   midi.NoteOnEvent(tick=3750000, channel=0, data=[12, 100]),
   midi.NoteOffEvent(tick=3750100, channel=0, data=[12, 0]),
   midi.NoteOnEvent(tick=3750200, channel=0, data=[15, 100]),
   midi.NoteOffEvent(tick=3750300, channel=0, data=[15, 0]),
   midi.NoteOnEvent(tick=3750400, channel=0, data=[11, 100]),
   midi.NoteOffEvent(tick=3750500, channel=0, data=[11, 0]),
   midi.NoteOnEvent(tick=3750600, channel=0, data=[4, 100]),
   midi.NoteOffEvent(tick=3750700, channel=0, data=[4, 0]),
   midi.NoteOnEvent(tick=3750800, channel=0, data=[46, 100]),
   midi.NoteOffEvent(tick=3750900, channel=0, data=[46, 0]),
   midi.NoteOnEvent(tick=3751000, channel=0, data=[56, 100]),
   midi.NoteOffEvent(tick=3751100, channel=0, data=[56, 0]),
   midi.NoteOnEvent(tick=3751200, channel=0, data=[56, 100]),
   midi.NoteOffEvent(tick=3751300, channel=0, data=[56, 0]),
   midi.NoteOnEvent(tick=3751400, channel=0, data=[56, 100]),
   midi.NoteOffEvent(tick=3751500, channel=0, data=[56, 0]),
   midi.NoteOnEvent(tick=3751600, channel=0, data=[36, 100]),
   midi.NoteOffEvent(tick=3751700, channel=0, data=[36, 0]),
   midi.NoteOnEvent(tick=3751800, channel=0, data=[36, 100]),
   midi.NoteOffEvent(tick=3751900, channel=0, data=[36, 0]),
   midi.NoteOnEvent(tick=3752000, channel=0, data=[36, 100]),
   midi.NoteOffEvent(tick=3752100, channel=0, data=[36, 0]),
   midi.NoteOnEvent(tick=3752200, channel=0, data=[36, 100]),
   midi.NoteOffEvent(tick=3752300, channel=0, data=[36, 0]),
   midi.NoteOnEvent(tick=3752400, channel=0, data=[36, 100]),
   midi.NoteOffEvent(tick=3752500, channel=0, data=[36, 0]),
   midi.NoteOnEvent(tick=3752600, channel=0, data=[36, 100]),
   midi.NoteOffEvent(tick=3752700, channel=0, data=[36, 0]),
   midi.NoteOnEvent(tick=3752800, channel=0, data=[36, 100]),
   midi.NoteOffEvent(tick=3752900, channel=0, data=[36, 0]),
   midi.NoteOnEvent(tick=3753000, channel=0, data=[36, 100]),
   midi.NoteOffEvent(tick=3753100, channel=0, data=[36, 0]),
   midi.NoteOnEvent(tick=3753200, channel=0, data=[2, 100]),
   midi.NoteOffEvent(tick=3753300, channel=0, data=[2, 0]),
   midi.NoteOnEvent(tick=3753400, channel=0, data=[46, 100]),
   midi.NoteOffEvent(tick=3753500, channel=0, data=[46, 0]),
   midi.NoteOnEvent(tick=3753600, channel=0, data=[78, 100]),
   midi.NoteOffEvent(tick=3753700, channel=0, data=[78, 0]),
   midi.NoteOnEvent(tick=3753800, channel=0, data=[15, 100]),
   midi.NoteOffEvent(tick=3753900, channel=0, data=[15, 0]),
   midi.NoteOnEvent(tick=3754000, channel=0, data=[18, 100]),
   midi.NoteOffEvent(tick=3754100, channel=0, data=[18, 0]),
   midi.NoteOnEvent(tick=3754200, channel=0, data=[73, 100]),
   midi.NoteOffEvent(tick=3754300, channel=0, data=[73, 0]),
   midi.NoteOnEvent(tick=3754400, channel=0, data=[36, 100]),
   midi.NoteOffEvent(tick=3754500, channel=0, data=[36, 0]),
   midi.NoteOnEvent(tick=3754600, channel=0, data=[74, 100]),
   midi.NoteOffEvent(tick=3754700, channel=0, data=[74, 0]),
   midi.NoteOnEvent(tick=3754800, channel=0, data=[0, 100]),
   midi.NoteOffEvent(tick=3754900, channel=0, data=[0, 0]),
   midi.NoteOnEvent(tick=3755000, channel=0, data=[36, 100]),
   midi.NoteOffEvent(tick=3755100, channel=0, data=[36, 0]),
   midi.NoteOnEvent(tick=3755200, channel=0, data=[69, 100]),
   midi.NoteOffEvent(tick=3755300, channel=0, data=[69, 0]),
   midi.NoteOnEvent(tick=3755400, channel=0, data=[36, 100]),
   midi.NoteOffEvent(tick=3755500, channel=0, data=[36, 0]),
   midi.NoteOnEvent(tick=3755600, channel=0, data=[29, 100]),
   midi.NoteOffEvent(tick=3755700, channel=0, data=[29, 0]),
   midi.NoteOnEvent(tick=3755800, channel=0, data=[56, 100]),
   midi.NoteOffEvent(tick=3755900, channel=0, data=[56, 0]),
   midi.NoteOnEvent(tick=3756000, channel=0, data=[36, 100]),
   midi.NoteOffEvent(tick=3756100, channel=0, data=[36, 0]),
   midi.NoteOnEvent(tick=3756200, channel=0, data=[36, 100]),
   midi.NoteOffEvent(tick=3756300, channel=0, data=[36, 0]),
   midi.NoteOnEvent(tick=3756400, channel=0, data=[36, 100]),
   midi.NoteOffEvent(tick=3756500, channel=0, data=[36, 0]),
   midi.NoteOnEvent(tick=3756600, channel=0, data=[36, 100]),
   midi.NoteOffEvent(tick=3756700, channel=0, data=[36, 0]),
   midi.NoteOnEvent(tick=3756800, channel=0, data=[36, 100]),
   midi.NoteOffEvent(tick=3756900, channel=0, data=[36, 0]),
   midi.NoteOnEvent(tick=3757000, channel=0, data=[36, 100]),
   midi.NoteOffEvent(tick=3757100, channel=0, data=[36, 0]),
   midi.NoteOnEvent(tick=3757200, channel=0, data=[36, 100]),
   midi.NoteOffEvent(tick=3757300, channel=0, data=[36, 0]),
   midi.NoteOnEvent(tick=3757400, channel=0, data=[36, 100]),
   midi.NoteOffEvent(tick=3757500, channel=0, data=[36, 0]),
   midi.NoteOnEvent(tick=3757600, channel=0, data=[2, 100]),
   midi.NoteOffEvent(tick=3757700, channel=0, data=[2, 0]),
   midi.NoteOnEvent(tick=3757800, channel=0, data=[46, 100]),
   midi.NoteOffEvent(tick=3757900, channel=0, data=[46, 0]),
   midi.NoteOnEvent(tick=3758000, channel=0, data=[78, 100]),
   midi.NoteOffEvent(tick=3758100, channel=0, data=[78, 0]),
   midi.NoteOnEvent(tick=3758200, channel=0, data=[15, 100]),
   midi.NoteOffEvent(tick=3758300, channel=0, data=[15, 0]),
   midi.NoteOnEvent(tick=3758400, channel=0, data=[18, 100]),
   midi.NoteOffEvent(tick=3758500, channel=0, data=[18, 0]),
   midi.NoteOnEvent(tick=3758600, channel=0, data=[73, 100]),
   midi.NoteOffEvent(tick=3758700, channel=0, data=[73, 0]),
   midi.NoteOnEvent(tick=3758800, channel=0, data=[36, 100]),
   midi.NoteOffEvent(tick=3758900, channel=0, data=[36, 0]),
   midi.NoteOnEvent(tick=3759000, channel=0, data=[74, 100]),
   midi.NoteOffEvent(tick=3759100, channel=0, data=[74, 0]),
   midi.NoteOnEvent(tick=3759200, channel=0, data=[0, 100]),
   midi.NoteOffEvent(tick=3759300, channel=0, data=[0, 0]),
   midi.NoteOnEvent(tick=3759400, channel=0, data=[36, 100]),
   midi.NoteOffEvent(tick=3759500, channel=0, data=[36, 0]),
   midi.NoteOnEvent(tick=3759600, channel=0, data=[69, 100]),
   midi.NoteOffEvent(tick=3759700, channel=0, data=[69, 0]),
   midi.NoteOnEvent(tick=3759800, channel=0, data=[36, 100]),
   midi.NoteOffEvent(tick=3759900, channel=0, data=[36, 0]),
   midi.NoteOnEvent(tick=3760000, channel=0, data=[41, 100]),
   midi.NoteOffEvent(tick=3760100, channel=0, data=[41, 0]),
   midi.NoteOnEvent(tick=3760200, channel=0, data=[18, 100]),
   midi.NoteOffEvent(tick=3760300, channel=0, data=[18, 0]),
   midi.NoteOnEvent(tick=3760400, channel=0, data=[19, 100]),
   midi.NoteOffEvent(tick=3760500, channel=0, data=[19, 0]),
   midi.NoteOnEvent(tick=3760600, channel=0, data=[17, 100]),
   midi.NoteOffEvent(tick=3760700, channel=0, data=[17, 0]),
   midi.NoteOnEvent(tick=3760800, channel=0, data=[8, 100]),
   midi.NoteOffEvent(tick=3760900, channel=0, data=[8, 0]),
   midi.NoteOnEvent(tick=3761000, channel=0, data=[13, 100]),
   midi.NoteOffEvent(tick=3761100, channel=0, data=[13, 0]),
   midi.NoteOnEvent(tick=3761200, channel=0, data=[6, 100]),
   midi.NoteOffEvent(tick=3761300, channel=0, data=[6, 0]),
   midi.NoteOnEvent(tick=3761400, channel=0, data=[41, 100]),
   midi.NoteOffEvent(tick=3761500, channel=0, data=[41, 0]),
   midi.NoteOnEvent(tick=3761600, channel=0, data=[56, 100]),
   midi.NoteOffEvent(tick=3761700, channel=0, data=[56, 0]),
   midi.NoteOnEvent(tick=3761800, channel=0, data=[56, 100]),
   midi.NoteOffEvent(tick=3761900, channel=0, data=[56, 0]),
   midi.NoteOnEvent(tick=3762000, channel=0, data=[36, 100]),
   midi.NoteOffEvent(tick=3762100, channel=0, data=[36, 0]),
   midi.NoteOnEvent(tick=3762200, channel=0, data=[36, 100]),
   midi.NoteOffEvent(tick=3762300, channel=0, data=[36, 0]),
   midi.NoteOnEvent(tick=3762400, channel=0, data=[36, 100]),
   midi.NoteOffEvent(tick=3762500, channel=0, data=[36, 0]),
   midi.NoteOnEvent(tick=3762600, channel=0, data=[36, 100]),
   midi.NoteOffEvent(tick=3762700, channel=0, data=[36, 0]),
   midi.NoteOnEvent(tick=3762800, channel=0, data=[36, 100]),
   midi.NoteOffEvent(tick=3762900, channel=0, data=[36, 0]),
   midi.NoteOnEvent(tick=3763000, channel=0, data=[36, 100]),
   midi.NoteOffEvent(tick=3763100, channel=0, data=[36, 0]),
   midi.NoteOnEvent(tick=3763200, channel=0, data=[36, 100]),
   midi.NoteOffEvent(tick=3763300, channel=0, data=[36, 0]),
   midi.NoteOnEvent(tick=3763400, channel=0, data=[36, 100]),
   midi.NoteOffEvent(tick=3763500, channel=0, data=[36, 0]),
   midi.NoteOnEvent(tick=3763600, channel=0, data=[2, 100]),
   midi.NoteOffEvent(tick=3763700, channel=0, data=[2, 0]),
   midi.NoteOnEvent(tick=3763800, channel=0, data=[46, 100]),
   midi.NoteOffEvent(tick=3763900, channel=0, data=[46, 0]),
   midi.NoteOnEvent(tick=3764000, channel=0, data=[78, 100]),
   midi.NoteOffEvent(tick=3764100, channel=0, data=[78, 0]),
   midi.NoteOnEvent(tick=3764200, channel=0, data=[15, 100]),
   midi.NoteOffEvent(tick=3764300, channel=0, data=[15, 0]),
   midi.NoteOnEvent(tick=3764400, channel=0, data=[18, 100]),
   midi.NoteOffEvent(tick=3764500, channel=0, data=[18, 0]),
   midi.NoteOnEvent(tick=3764600, channel=0, data=[73, 100]),
   midi.NoteOffEvent(tick=3764700, channel=0, data=[73, 0]),
   midi.NoteOnEvent(tick=3764800, channel=0, data=[36, 100]),
   midi.NoteOffEvent(tick=3764900, channel=0, data=[36, 0]),
   midi.NoteOnEvent(tick=3765000, channel=0, data=[51, 100]),
   midi.NoteOffEvent(tick=3765100, channel=0, data=[51, 0]),
   midi.NoteOnEvent(tick=3765200, channel=0, data=[8, 100]),
   midi.NoteOffEvent(tick=3765300, channel=0, data=[8, 0]),
   midi.NoteOnEvent(tick=3765400, channel=0, data=[13, 100]),
   midi.NoteOffEvent(tick=3765500, channel=0, data=[13, 0]),
   midi.NoteOnEvent(tick=3765600, channel=0, data=[19, 100]),
   midi.NoteOffEvent(tick=3765700, channel=0, data=[19, 0]),
   midi.NoteOnEvent(tick=3765800, channel=0, data=[52, 100]),
   midi.NoteOffEvent(tick=3765900, channel=0, data=[52, 0]),
   midi.NoteOnEvent(tick=3766000, channel=0, data=[74, 100]),
   midi.NoteOffEvent(tick=3766100, channel=0, data=[74, 0]),
   midi.NoteOnEvent(tick=3766200, channel=0, data=[0, 100]),
   midi.NoteOffEvent(tick=3766300, channel=0, data=[0, 0]),
   midi.NoteOnEvent(tick=3766400, channel=0, data=[36, 100]),
   midi.NoteOffEvent(tick=3766500, channel=0, data=[36, 0]),
   midi.NoteOnEvent(tick=3766600, channel=0, data=[69, 100]),
   midi.NoteOffEvent(tick=3766700, channel=0, data=[69, 0]),
   midi.NoteOnEvent(tick=3766800, channel=0, data=[36, 100]),
   midi.NoteOffEvent(tick=3766900, channel=0, data=[36, 0]),
   midi.NoteOnEvent(tick=3767000, channel=0, data=[29, 100]),
   midi.NoteOffEvent(tick=3767100, channel=0, data=[29, 0]),
   midi.NoteOnEvent(tick=3767200, channel=0, data=[56, 100]),
   midi.NoteOffEvent(tick=3767300, channel=0, data=[56, 0]),
   midi.NoteOnEvent(tick=3767400, channel=0, data=[36, 100]),
   midi.NoteOffEvent(tick=3767500, channel=0, data=[36, 0]),
   midi.NoteOnEvent(tick=3767600, channel=0, data=[36, 100]),
   midi.NoteOffEvent(tick=3767700, channel=0, data=[36, 0]),
   midi.NoteOnEvent(tick=3767800, channel=0, data=[36, 100]),
   midi.NoteOffEvent(tick=3767900, channel=0, data=[36, 0]),
   midi.NoteOnEvent(tick=3768000, channel=0, data=[36, 100]),
   midi.NoteOffEvent(tick=3768100, channel=0, data=[36, 0]),
   midi.NoteOnEvent(tick=3768200, channel=0, data=[36, 100]),
   midi.NoteOffEvent(tick=3768300, channel=0, data=[36, 0]),
   midi.NoteOnEvent(tick=3768400, channel=0, data=[36, 100]),
   midi.NoteOffEvent(tick=3768500, channel=0, data=[36, 0]),
   midi.NoteOnEvent(tick=3768600, channel=0, data=[36, 100]),
   midi.NoteOffEvent(tick=3768700, channel=0, data=[36, 0]),
   midi.NoteOnEvent(tick=3768800, channel=0, data=[36, 100]),
   midi.NoteOffEvent(tick=3768900, channel=0, data=[36, 0]),
   midi.NoteOnEvent(tick=3769000, channel=0, data=[2, 100]),
   midi.NoteOffEvent(tick=3769100, channel=0, data=[2, 0]),
   midi.NoteOnEvent(tick=3769200, channel=0, data=[46, 100]),
   midi.NoteOffEvent(tick=3769300, channel=0, data=[46, 0]),
   midi.NoteOnEvent(tick=3769400, channel=0, data=[78, 100]),
   midi.NoteOffEvent(tick=3769500, channel=0, data=[78, 0]),
   midi.NoteOnEvent(tick=3769600, channel=0, data=[15, 100]),
   midi.NoteOffEvent(tick=3769700, channel=0, data=[15, 0]),
   midi.NoteOnEvent(tick=3769800, channel=0, data=[18, 100]),
   midi.NoteOffEvent(tick=3769900, channel=0, data=[18, 0]),
   midi.NoteOnEvent(tick=3770000, channel=0, data=[73, 100]),
   midi.NoteOffEvent(tick=3770100, channel=0, data=[73, 0]),
   midi.NoteOnEvent(tick=3770200, channel=0, data=[36, 100]),
   midi.NoteOffEvent(tick=3770300, channel=0, data=[36, 0]),
   midi.NoteOnEvent(tick=3770400, channel=0, data=[74, 100]),
   midi.NoteOffEvent(tick=3770500, channel=0, data=[74, 0]),
   midi.NoteOnEvent(tick=3770600, channel=0, data=[0, 100]),
   midi.NoteOffEvent(tick=3770700, channel=0, data=[0, 0]),
   midi.NoteOnEvent(tick=3770800, channel=0, data=[36, 100]),
   midi.NoteOffEvent(tick=3770900, channel=0, data=[36, 0]),
   midi.NoteOnEvent(tick=3771000, channel=0, data=[69, 100]),
   midi.NoteOffEvent(tick=3771100, channel=0, data=[69, 0]),
   midi.NoteOnEvent(tick=3771200, channel=0, data=[36, 100]),
   midi.NoteOffEvent(tick=3771300, channel=0, data=[36, 0]),
   midi.NoteOnEvent(tick=3771400, channel=0, data=[41, 100]),
   midi.NoteOffEvent(tick=3771500, channel=0, data=[41, 0]),
   midi.NoteOnEvent(tick=3771600, channel=0, data=[18, 100]),
   midi.NoteOffEvent(tick=3771700, channel=0, data=[18, 0]),
   midi.NoteOnEvent(tick=3771800, channel=0, data=[19, 100]),
   midi.NoteOffEvent(tick=3771900, channel=0, data=[19, 0]),
   midi.NoteOnEvent(tick=3772000, channel=0, data=[17, 100]),
   midi.NoteOffEvent(tick=3772100, channel=0, data=[17, 0]),
   midi.NoteOnEvent(tick=3772200, channel=0, data=[8, 100]),
   midi.NoteOffEvent(tick=3772300, channel=0, data=[8, 0]),
   midi.NoteOnEvent(tick=3772400, channel=0, data=[13, 100]),
   midi.NoteOffEvent(tick=3772500, channel=0, data=[13, 0]),
   midi.NoteOnEvent(tick=3772600, channel=0, data=[6, 100]),
   midi.NoteOffEvent(tick=3772700, channel=0, data=[6, 0]),
   midi.NoteOnEvent(tick=3772800, channel=0, data=[41, 100]),
   midi.NoteOffEvent(tick=3772900, channel=0, data=[41, 0]),
   midi.NoteOnEvent(tick=3773000, channel=0, data=[56, 100]),
   midi.NoteOffEvent(tick=3773100, channel=0, data=[56, 0]),
   midi.NoteOnEvent(tick=3773200, channel=0, data=[36, 100]),
   midi.NoteOffEvent(tick=3773300, channel=0, data=[36, 0]),
   midi.NoteOnEvent(tick=3773400, channel=0, data=[36, 100]),
   midi.NoteOffEvent(tick=3773500, channel=0, data=[36, 0]),
   midi.NoteOnEvent(tick=3773600, channel=0, data=[36, 100]),
   midi.NoteOffEvent(tick=3773700, channel=0, data=[36, 0]),
   midi.NoteOnEvent(tick=3773800, channel=0, data=[36, 100]),
   midi.NoteOffEvent(tick=3773900, channel=0, data=[36, 0]),
   midi.NoteOnEvent(tick=3774000, channel=0, data=[36, 100]),
   midi.NoteOffEvent(tick=3774100, channel=0, data=[36, 0]),
   midi.NoteOnEvent(tick=3774200, channel=0, data=[36, 100]),
   midi.NoteOffEvent(tick=3774300, channel=0, data=[36, 0]),
   midi.NoteOnEvent(tick=3774400, channel=0, data=[36, 100]),
   midi.NoteOffEvent(tick=3774500, channel=0, data=[36, 0]),
   midi.NoteOnEvent(tick=3774600, channel=0, data=[36, 100]),
   midi.NoteOffEvent(tick=3774700, channel=0, data=[36, 0]),
   midi.NoteOnEvent(tick=3774800, channel=0, data=[2, 100]),
   midi.NoteOffEvent(tick=3774900, channel=0, data=[2, 0]),
   midi.NoteOnEvent(tick=3775000, channel=0, data=[0, 100]),
   midi.NoteOffEvent(tick=3775100, channel=0, data=[0, 0]),
   midi.NoteOnEvent(tick=3775200, channel=0, data=[13, 100]),
   midi.NoteOffEvent(tick=3775300, channel=0, data=[13, 0]),
   midi.NoteOnEvent(tick=3775400, channel=0, data=[13, 100]),
   midi.NoteOffEvent(tick=3775500, channel=0, data=[13, 0]),
   midi.NoteOnEvent(tick=3775600, channel=0, data=[14, 100]),
   midi.NoteOffEvent(tick=3775700, channel=0, data=[14, 0]),
   midi.NoteOnEvent(tick=3775800, channel=0, data=[19, 100]),
   midi.NoteOffEvent(tick=3775900, channel=0, data=[19, 0]),
   midi.NoteOnEvent(tick=3776000, channel=0, data=[36, 100]),
   midi.NoteOffEvent(tick=3776100, channel=0, data=[36, 0]),
   midi.NoteOnEvent(tick=3776200, channel=0, data=[2, 100]),
   midi.NoteOffEvent(tick=3776300, channel=0, data=[2, 0]),
   midi.NoteOnEvent(tick=3776400, channel=0, data=[14, 100]),
   midi.NoteOffEvent(tick=3776500, channel=0, data=[14, 0]),
   midi.NoteOnEvent(tick=3776600, channel=0, data=[13, 100]),
   midi.NoteOffEvent(tick=3776700, channel=0, data=[13, 0]),
   midi.NoteOnEvent(tick=3776800, channel=0, data=[21, 100]),
   midi.NoteOffEvent(tick=3776900, channel=0, data=[21, 0]),
   midi.NoteOnEvent(tick=3777000, channel=0, data=[4, 100]),
   midi.NoteOffEvent(tick=3777100, channel=0, data=[4, 0]),
   midi.NoteOnEvent(tick=3777200, channel=0, data=[17, 100]),
   midi.NoteOffEvent(tick=3777300, channel=0, data=[17, 0]),
   midi.NoteOnEvent(tick=3777400, channel=0, data=[19, 100]),
   midi.NoteOffEvent(tick=3777500, channel=0, data=[19, 0]),
   midi.NoteOnEvent(tick=3777600, channel=0, data=[36, 100]),
   midi.NoteOffEvent(tick=3777700, channel=0, data=[36, 0]),
   midi.NoteOnEvent(tick=3777800, channel=0, data=[21, 100]),
   midi.NoteOffEvent(tick=3777900, channel=0, data=[21, 0]),
   midi.NoteOnEvent(tick=3778000, channel=0, data=[0, 100]),
   midi.NoteOffEvent(tick=3778100, channel=0, data=[0, 0]),
   midi.NoteOnEvent(tick=3778200, channel=0, data=[11, 100]),
   midi.NoteOffEvent(tick=3778300, channel=0, data=[11, 0]),
   midi.NoteOnEvent(tick=3778400, channel=0, data=[20, 100]),
   midi.NoteOffEvent(tick=3778500, channel=0, data=[20, 0]),
   midi.NoteOnEvent(tick=3778600, channel=0, data=[4, 100]),
   midi.NoteOffEvent(tick=3778700, channel=0, data=[4, 0]),
   midi.NoteOnEvent(tick=3778800, channel=0, data=[36, 100]),
   midi.NoteOffEvent(tick=3778900, channel=0, data=[36, 0]),
   midi.NoteOnEvent(tick=3779000, channel=0, data=[41, 100]),
   midi.NoteOffEvent(tick=3779100, channel=0, data=[41, 0]),
   midi.NoteOnEvent(tick=3779200, channel=0, data=[18, 100]),
   midi.NoteOffEvent(tick=3779300, channel=0, data=[18, 0]),
   midi.NoteOnEvent(tick=3779400, channel=0, data=[19, 100]),
   midi.NoteOffEvent(tick=3779500, channel=0, data=[19, 0]),
   midi.NoteOnEvent(tick=3779600, channel=0, data=[17, 100]),
   midi.NoteOffEvent(tick=3779700, channel=0, data=[17, 0]),
   midi.NoteOnEvent(tick=3779800, channel=0, data=[8, 100]),
   midi.NoteOffEvent(tick=3779900, channel=0, data=[8, 0]),
   midi.NoteOnEvent(tick=3780000, channel=0, data=[13, 100]),
   midi.NoteOffEvent(tick=3780100, channel=0, data=[13, 0]),
   midi.NoteOnEvent(tick=3780200, channel=0, data=[6, 100]),
   midi.NoteOffEvent(tick=3780300, channel=0, data=[6, 0]),
   midi.NoteOnEvent(tick=3780400, channel=0, data=[41, 100]),
   midi.NoteOffEvent(tick=3780500, channel=0, data=[41, 0]),
   midi.NoteOnEvent(tick=3780600, channel=0, data=[36, 100]),
   midi.NoteOffEvent(tick=3780700, channel=0, data=[36, 0]),
   midi.NoteOnEvent(tick=3780800, channel=0, data=[19, 100]),
   midi.NoteOffEvent(tick=3780900, channel=0, data=[19, 0]),
   midi.NoteOnEvent(tick=3781000, channel=0, data=[14, 100]),
   midi.NoteOffEvent(tick=3781100, channel=0, data=[14, 0]),
   midi.NoteOnEvent(tick=3781200, channel=0, data=[36, 100]),
   midi.NoteOffEvent(tick=3781300, channel=0, data=[36, 0]),
   midi.NoteOnEvent(tick=3781400, channel=0, data=[19, 100]),
   midi.NoteOffEvent(tick=3781500, channel=0, data=[19, 0]),
   midi.NoteOnEvent(tick=3781600, channel=0, data=[24, 100]),
   midi.NoteOffEvent(tick=3781700, channel=0, data=[24, 0]),
   midi.NoteOnEvent(tick=3781800, channel=0, data=[15, 100]),
   midi.NoteOffEvent(tick=3781900, channel=0, data=[15, 0]),
   midi.NoteOnEvent(tick=3782000, channel=0, data=[4, 100]),
   midi.NoteOffEvent(tick=3782100, channel=0, data=[4, 0]),
   midi.NoteOnEvent(tick=3782200, channel=0, data=[36, 100]),
   midi.NoteOffEvent(tick=3782300, channel=0, data=[36, 0]),
   midi.NoteOnEvent(tick=3782400, channel=0, data=[41, 100]),
   midi.NoteOffEvent(tick=3782500, channel=0, data=[41, 0]),
   midi.NoteOnEvent(tick=3782600, channel=0, data=[18, 100]),
   midi.NoteOffEvent(tick=3782700, channel=0, data=[18, 0]),
   midi.NoteOnEvent(tick=3782800, channel=0, data=[24, 100]),
   midi.NoteOffEvent(tick=3782900, channel=0, data=[24, 0]),
   midi.NoteOnEvent(tick=3783000, channel=0, data=[18, 100]),
   midi.NoteOffEvent(tick=3783100, channel=0, data=[18, 0]),
   midi.NoteOnEvent(tick=3783200, channel=0, data=[19, 100]),
   midi.NoteOffEvent(tick=3783300, channel=0, data=[19, 0]),
   midi.NoteOnEvent(tick=3783400, channel=0, data=[4, 100]),
   midi.NoteOffEvent(tick=3783500, channel=0, data=[4, 0]),
   midi.NoteOnEvent(tick=3783600, channel=0, data=[12, 100]),
   midi.NoteOffEvent(tick=3783700, channel=0, data=[12, 0]),
   midi.NoteOnEvent(tick=3783800, channel=0, data=[37, 100]),
   midi.NoteOffEvent(tick=3783900, channel=0, data=[37, 0]),
   midi.NoteOnEvent(tick=3784000, channel=0, data=[8, 100]),
   midi.NoteOffEvent(tick=3784100, channel=0, data=[8, 0]),
   midi.NoteOnEvent(tick=3784200, channel=0, data=[13, 100]),
   midi.NoteOffEvent(tick=3784300, channel=0, data=[13, 0]),
   midi.NoteOnEvent(tick=3784400, channel=0, data=[19, 100]),
   midi.NoteOffEvent(tick=3784500, channel=0, data=[19, 0]),
   midi.NoteOnEvent(tick=3784600, channel=0, data=[29, 100]),
   midi.NoteOffEvent(tick=3784700, channel=0, data=[29, 0]),
   midi.NoteOnEvent(tick=3784800, channel=0, data=[28, 100]),
   midi.NoteOffEvent(tick=3784900, channel=0, data=[28, 0]),
   midi.NoteOnEvent(tick=3785000, channel=0, data=[41, 100]),
   midi.NoteOffEvent(tick=3785100, channel=0, data=[41, 0]),
   midi.NoteOnEvent(tick=3785200, channel=0, data=[37, 100]),
   midi.NoteOffEvent(tick=3785300, channel=0, data=[37, 0]),
   midi.NoteOnEvent(tick=3785400, channel=0, data=[36, 100]),
   midi.NoteOffEvent(tick=3785500, channel=0, data=[36, 0]),
   midi.NoteOnEvent(tick=3785600, channel=0, data=[4, 100]),
   midi.NoteOffEvent(tick=3785700, channel=0, data=[4, 0]),
   midi.NoteOnEvent(tick=3785800, channel=0, data=[17, 100]),
   midi.NoteOffEvent(tick=3785900, channel=0, data=[17, 0]),
   midi.NoteOnEvent(tick=3786000, channel=0, data=[17, 100]),
   midi.NoteOffEvent(tick=3786100, channel=0, data=[17, 0]),
   midi.NoteOnEvent(tick=3786200, channel=0, data=[14, 100]),
   midi.NoteOffEvent(tick=3786300, channel=0, data=[14, 0]),
   midi.NoteOnEvent(tick=3786400, channel=0, data=[17, 100]),
   midi.NoteOffEvent(tick=3786500, channel=0, data=[17, 0]),
   midi.NoteOnEvent(tick=3786600, channel=0, data=[46, 100]),
   midi.NoteOffEvent(tick=3786700, channel=0, data=[46, 0]),
   midi.NoteOnEvent(tick=3786800, channel=0, data=[36, 100]),
   midi.NoteOffEvent(tick=3786900, channel=0, data=[36, 0]),
   midi.NoteOnEvent(tick=3787000, channel=0, data=[41, 100]),
   midi.NoteOffEvent(tick=3787100, channel=0, data=[41, 0]),
   midi.NoteOnEvent(tick=3787200, channel=0, data=[8, 100]),
   midi.NoteOffEvent(tick=3787300, channel=0, data=[8, 0]),
   midi.NoteOnEvent(tick=3787400, channel=0, data=[13, 100]),
   midi.NoteOffEvent(tick=3787500, channel=0, data=[13, 0]),
   midi.NoteOnEvent(tick=3787600, channel=0, data=[15, 100]),
   midi.NoteOffEvent(tick=3787700, channel=0, data=[15, 0]),
   midi.NoteOnEvent(tick=3787800, channel=0, data=[20, 100]),
   midi.NoteOffEvent(tick=3787900, channel=0, data=[20, 0]),
   midi.NoteOnEvent(tick=3788000, channel=0, data=[19, 100]),
   midi.NoteOffEvent(tick=3788100, channel=0, data=[19, 0]),
   midi.NoteOnEvent(tick=3788200, channel=0, data=[56, 100]),
   midi.NoteOffEvent(tick=3788300, channel=0, data=[56, 0]),
   midi.NoteOnEvent(tick=3788400, channel=0, data=[36, 100]),
   midi.NoteOffEvent(tick=3788500, channel=0, data=[36, 0]),
   midi.NoteOnEvent(tick=3788600, channel=0, data=[36, 100]),
   midi.NoteOffEvent(tick=3788700, channel=0, data=[36, 0]),
   midi.NoteOnEvent(tick=3788800, channel=0, data=[36, 100]),
   midi.NoteOffEvent(tick=3788900, channel=0, data=[36, 0]),
   midi.NoteOnEvent(tick=3789000, channel=0, data=[36, 100]),
   midi.NoteOffEvent(tick=3789100, channel=0, data=[36, 0]),
   midi.NoteOnEvent(tick=3789200, channel=0, data=[36, 100]),
   midi.NoteOffEvent(tick=3789300, channel=0, data=[36, 0]),
   midi.NoteOnEvent(tick=3789400, channel=0, data=[36, 100]),
   midi.NoteOffEvent(tick=3789500, channel=0, data=[36, 0]),
   midi.NoteOnEvent(tick=3789600, channel=0, data=[36, 100]),
   midi.NoteOffEvent(tick=3789700, channel=0, data=[36, 0]),
   midi.NoteOnEvent(tick=3789800, channel=0, data=[36, 100]),
   midi.NoteOffEvent(tick=3789900, channel=0, data=[36, 0]),
   midi.NoteOnEvent(tick=3790000, channel=0, data=[18, 100]),
   midi.NoteOffEvent(tick=3790100, channel=0, data=[18, 0]),
   midi.NoteOnEvent(tick=3790200, channel=0, data=[19, 100]),
   midi.NoteOffEvent(tick=3790300, channel=0, data=[19, 0]),
   midi.NoteOnEvent(tick=3790400, channel=0, data=[17, 100]),
   midi.NoteOffEvent(tick=3790500, channel=0, data=[17, 0]),
   midi.NoteOnEvent(tick=3790600, channel=0, data=[8, 100]),
   midi.NoteOffEvent(tick=3790700, channel=0, data=[8, 0]),
   midi.NoteOnEvent(tick=3790800, channel=0, data=[13, 100]),
   midi.NoteOffEvent(tick=3790900, channel=0, data=[13, 0]),
   midi.NoteOnEvent(tick=3791000, channel=0, data=[6, 100]),
   midi.NoteOffEvent(tick=3791100, channel=0, data=[6, 0]),
   midi.NoteOnEvent(tick=3791200, channel=0, data=[36, 100]),
   midi.NoteOffEvent(tick=3791300, channel=0, data=[36, 0]),
   midi.NoteOnEvent(tick=3791400, channel=0, data=[22, 100]),
   midi.NoteOffEvent(tick=3791500, channel=0, data=[22, 0]),
   midi.NoteOnEvent(tick=3791600, channel=0, data=[0, 100]),
   midi.NoteOffEvent(tick=3791700, channel=0, data=[0, 0]),
   midi.NoteOnEvent(tick=3791800, channel=0, data=[18, 100]),
   midi.NoteOffEvent(tick=3791900, channel=0, data=[18, 0]),
   midi.NoteOnEvent(tick=3792000, channel=0, data=[36, 100]),
   midi.NoteOffEvent(tick=3792100, channel=0, data=[36, 0]),
   midi.NoteOnEvent(tick=3792200, channel=0, data=[13, 100]),
   midi.NoteOffEvent(tick=3792300, channel=0, data=[13, 0]),
   midi.NoteOnEvent(tick=3792400, channel=0, data=[14, 100]),
   midi.NoteOffEvent(tick=3792500, channel=0, data=[14, 0]),
   midi.NoteOnEvent(tick=3792600, channel=0, data=[19, 100]),
   midi.NoteOffEvent(tick=3792700, channel=0, data=[19, 0]),
   midi.NoteOnEvent(tick=3792800, channel=0, data=[36, 100]),
   midi.NoteOffEvent(tick=3792900, channel=0, data=[36, 0]),
   midi.NoteOnEvent(tick=3793000, channel=0, data=[8, 100]),
   midi.NoteOffEvent(tick=3793100, channel=0, data=[8, 0]),
   midi.NoteOnEvent(tick=3793200, channel=0, data=[13, 100]),
   midi.NoteOffEvent(tick=3793300, channel=0, data=[13, 0]),
   midi.NoteOnEvent(tick=3793400, channel=0, data=[36, 100]),
   midi.NoteOffEvent(tick=3793500, channel=0, data=[36, 0]),
   midi.NoteOnEvent(tick=3793600, channel=0, data=[0, 100]),
   midi.NoteOffEvent(tick=3793700, channel=0, data=[0, 0]),
   midi.NoteOnEvent(tick=3793800, channel=0, data=[36, 100]),
   midi.NoteOffEvent(tick=3793900, channel=0, data=[36, 0]),
   midi.NoteOnEvent(tick=3794000, channel=0, data=[2, 100]),
   midi.NoteOffEvent(tick=3794100, channel=0, data=[2, 0]),
   midi.NoteOnEvent(tick=3794200, channel=0, data=[14, 100]),
   midi.NoteOffEvent(tick=3794300, channel=0, data=[14, 0]),
   midi.NoteOnEvent(tick=3794400, channel=0, data=[17, 100]),
   midi.NoteOffEvent(tick=3794500, channel=0, data=[17, 0]),
   midi.NoteOnEvent(tick=3794600, channel=0, data=[17, 100]),
   midi.NoteOffEvent(tick=3794700, channel=0, data=[17, 0]),
   midi.NoteOnEvent(tick=3794800, channel=0, data=[4, 100]),
   midi.NoteOffEvent(tick=3794900, channel=0, data=[4, 0]),
   midi.NoteOnEvent(tick=3795000, channel=0, data=[2, 100]),
   midi.NoteOffEvent(tick=3795100, channel=0, data=[2, 0]),
   midi.NoteOnEvent(tick=3795200, channel=0, data=[19, 100]),
   midi.NoteOffEvent(tick=3795300, channel=0, data=[19, 0]),
   midi.NoteOnEvent(tick=3795400, channel=0, data=[36, 100]),
   midi.NoteOffEvent(tick=3795500, channel=0, data=[36, 0]),
   midi.NoteOnEvent(tick=3795600, channel=0, data=[5, 100]),
   midi.NoteOffEvent(tick=3795700, channel=0, data=[5, 0]),
   midi.NoteOnEvent(tick=3795800, channel=0, data=[14, 100]),
   midi.NoteOffEvent(tick=3795900, channel=0, data=[14, 0]),
   midi.NoteOnEvent(tick=3796000, channel=0, data=[17, 100]),
   midi.NoteOffEvent(tick=3796100, channel=0, data=[17, 0]),
   midi.NoteOnEvent(tick=3796200, channel=0, data=[12, 100]),
   midi.NoteOffEvent(tick=3796300, channel=0, data=[12, 0]),
   midi.NoteOnEvent(tick=3796400, channel=0, data=[0, 100]),
   midi.NoteOffEvent(tick=3796500, channel=0, data=[0, 0]),
   midi.NoteOnEvent(tick=3796600, channel=0, data=[19, 100]),
   midi.NoteOffEvent(tick=3796700, channel=0, data=[19, 0]),
   midi.NoteOnEvent(tick=3796800, channel=0, data=[37, 100]),
   midi.NoteOffEvent(tick=3796900, channel=0, data=[37, 0]),
   midi.NoteOnEvent(tick=3797000, channel=0, data=[41, 100]),
   midi.NoteOffEvent(tick=3797100, channel=0, data=[41, 0]),
   midi.NoteOnEvent(tick=3797200, channel=0, data=[56, 100]),
   midi.NoteOffEvent(tick=3797300, channel=0, data=[56, 0]),
   midi.NoteOnEvent(tick=3797400, channel=0, data=[36, 100]),
   midi.NoteOffEvent(tick=3797500, channel=0, data=[36, 0]),
   midi.NoteOnEvent(tick=3797600, channel=0, data=[36, 100]),
   midi.NoteOffEvent(tick=3797700, channel=0, data=[36, 0]),
   midi.NoteOnEvent(tick=3797800, channel=0, data=[36, 100]),
   midi.NoteOffEvent(tick=3797900, channel=0, data=[36, 0]),
   midi.NoteOnEvent(tick=3798000, channel=0, data=[36, 100]),
   midi.NoteOffEvent(tick=3798100, channel=0, data=[36, 0]),
   midi.NoteOnEvent(tick=3798200, channel=0, data=[36, 100]),
   midi.NoteOffEvent(tick=3798300, channel=0, data=[36, 0]),
   midi.NoteOnEvent(tick=3798400, channel=0, data=[36, 100]),
   midi.NoteOffEvent(tick=3798500, channel=0, data=[36, 0]),
   midi.NoteOnEvent(tick=3798600, channel=0, data=[36, 100]),
   midi.NoteOffEvent(tick=3798700, channel=0, data=[36, 0]),
   midi.NoteOnEvent(tick=3798800, channel=0, data=[36, 100]),
   midi.NoteOffEvent(tick=3798900, channel=0, data=[36, 0]),
   midi.NoteOnEvent(tick=3799000, channel=0, data=[0, 100]),
   midi.NoteOffEvent(tick=3799100, channel=0, data=[0, 0]),
   midi.NoteOnEvent(tick=3799200, channel=0, data=[19, 100]),
   midi.NoteOffEvent(tick=3799300, channel=0, data=[19, 0]),
   midi.NoteOnEvent(tick=3799400, channel=0, data=[36, 100]),
   midi.NoteOffEvent(tick=3799500, channel=0, data=[36, 0]),
   midi.NoteOnEvent(tick=3799600, channel=0, data=[11, 100]),
   midi.NoteOffEvent(tick=3799700, channel=0, data=[11, 0]),
   midi.NoteOnEvent(tick=3799800, channel=0, data=[8, 100]),
   midi.NoteOffEvent(tick=3799900, channel=0, data=[8, 0]),
   midi.NoteOnEvent(tick=3800000, channel=0, data=[13, 100]),
   midi.NoteOffEvent(tick=3800100, channel=0, data=[13, 0]),
   midi.NoteOnEvent(tick=3800200, channel=0, data=[4, 100]),
   midi.NoteOffEvent(tick=3800300, channel=0, data=[4, 0]),
   midi.NoteOnEvent(tick=3800400, channel=0, data=[46, 100]),
   midi.NoteOffEvent(tick=3800500, channel=0, data=[46, 0]),
   midi.NoteOnEvent(tick=3800600, channel=0, data=[27, 100]),
   midi.NoteOffEvent(tick=3800700, channel=0, data=[27, 0]),
   midi.NoteOnEvent(tick=3800800, channel=0, data=[36, 100]),
   midi.NoteOffEvent(tick=3800900, channel=0, data=[36, 0]),
   midi.NoteOnEvent(tick=3801000, channel=0, data=[2, 100]),
   midi.NoteOffEvent(tick=3801100, channel=0, data=[2, 0]),
   midi.NoteOnEvent(tick=3801200, channel=0, data=[7, 100]),
   midi.NoteOffEvent(tick=3801300, channel=0, data=[7, 0]),
   midi.NoteOnEvent(tick=3801400, channel=0, data=[0, 100]),
   midi.NoteOffEvent(tick=3801500, channel=0, data=[0, 0]),
   midi.NoteOnEvent(tick=3801600, channel=0, data=[17, 100]),
   midi.NoteOffEvent(tick=3801700, channel=0, data=[17, 0]),
   midi.NoteOnEvent(tick=3801800, channel=0, data=[46, 100]),
   midi.NoteOffEvent(tick=3801900, channel=0, data=[46, 0]),
   midi.NoteOnEvent(tick=3802000, channel=0, data=[29, 100]),
   midi.NoteOffEvent(tick=3802100, channel=0, data=[29, 0]),
   midi.NoteOnEvent(tick=3802200, channel=0, data=[56, 100]),
   midi.NoteOffEvent(tick=3802300, channel=0, data=[56, 0]),
   midi.NoteOnEvent(tick=3802400, channel=0, data=[36, 100]),
   midi.NoteOffEvent(tick=3802500, channel=0, data=[36, 0]),
   midi.NoteOnEvent(tick=3802600, channel=0, data=[36, 100]),
   midi.NoteOffEvent(tick=3802700, channel=0, data=[36, 0]),
   midi.NoteOnEvent(tick=3802800, channel=0, data=[36, 100]),
   midi.NoteOffEvent(tick=3802900, channel=0, data=[36, 0]),
   midi.NoteOnEvent(tick=3803000, channel=0, data=[36, 100]),
   midi.NoteOffEvent(tick=3803100, channel=0, data=[36, 0]),
   midi.NoteOnEvent(tick=3803200, channel=0, data=[36, 100]),
   midi.NoteOffEvent(tick=3803300, channel=0, data=[36, 0]),
   midi.NoteOnEvent(tick=3803400, channel=0, data=[36, 100]),
   midi.NoteOffEvent(tick=3803500, channel=0, data=[36, 0]),
   midi.NoteOnEvent(tick=3803600, channel=0, data=[36, 100]),
   midi.NoteOffEvent(tick=3803700, channel=0, data=[36, 0]),
   midi.NoteOnEvent(tick=3803800, channel=0, data=[36, 100]),
   midi.NoteOffEvent(tick=3803900, channel=0, data=[36, 0]),
   midi.NoteOnEvent(tick=3804000, channel=0, data=[55, 100]),
   midi.NoteOffEvent(tick=3804100, channel=0, data=[55, 0]),
   midi.NoteOnEvent(tick=3804200, channel=0, data=[36, 100]),
   midi.NoteOffEvent(tick=3804300, channel=0, data=[36, 0]),
   midi.NoteOnEvent(tick=3804400, channel=0, data=[74, 100]),
   midi.NoteOffEvent(tick=3804500, channel=0, data=[74, 0]),
   midi.NoteOnEvent(tick=3804600, channel=0, data=[0, 100]),
   midi.NoteOffEvent(tick=3804700, channel=0, data=[0, 0]),
   midi.NoteOnEvent(tick=3804800, channel=0, data=[36, 100]),
   midi.NoteOffEvent(tick=3804900, channel=0, data=[36, 0]),
   midi.NoteOnEvent(tick=3805000, channel=0, data=[72, 100]),
   midi.NoteOffEvent(tick=3805100, channel=0, data=[72, 0]),
   midi.NoteOnEvent(tick=3805200, channel=0, data=[72, 100]),
   midi.NoteOffEvent(tick=3805300, channel=0, data=[72, 0]),
   midi.NoteOnEvent(tick=3805400, channel=0, data=[72, 100]),
   midi.NoteOffEvent(tick=3805500, channel=0, data=[72, 0]),
   midi.NoteOnEvent(tick=3805600, channel=0, data=[72, 100]),
   midi.NoteOffEvent(tick=3805700, channel=0, data=[72, 0]),
   midi.NoteOnEvent(tick=3805800, channel=0, data=[36, 100]),
   midi.NoteOffEvent(tick=3805900, channel=0, data=[36, 0]),
   midi.NoteOnEvent(tick=3806000, channel=0, data=[36, 100]),
   midi.NoteOffEvent(tick=3806100, channel=0, data=[36, 0]),
   midi.NoteOnEvent(tick=3806200, channel=0, data=[69, 100]),
   midi.NoteOffEvent(tick=3806300, channel=0, data=[69, 0]),
   midi.NoteOnEvent(tick=3806400, channel=0, data=[36, 100]),
   midi.NoteOffEvent(tick=3806500, channel=0, data=[36, 0]),
   midi.NoteOnEvent(tick=3806600, channel=0, data=[41, 100]),
   midi.NoteOffEvent(tick=3806700, channel=0, data=[41, 0]),
   midi.NoteOnEvent(tick=3806800, channel=0, data=[18, 100]),
   midi.NoteOffEvent(tick=3806900, channel=0, data=[18, 0]),
   midi.NoteOnEvent(tick=3807000, channel=0, data=[19, 100]),
   midi.NoteOffEvent(tick=3807100, channel=0, data=[19, 0]),
   midi.NoteOnEvent(tick=3807200, channel=0, data=[17, 100]),
   midi.NoteOffEvent(tick=3807300, channel=0, data=[17, 0]),
   midi.NoteOnEvent(tick=3807400, channel=0, data=[8, 100]),
   midi.NoteOffEvent(tick=3807500, channel=0, data=[8, 0]),
   midi.NoteOnEvent(tick=3807600, channel=0, data=[13, 100]),
   midi.NoteOffEvent(tick=3807700, channel=0, data=[13, 0]),
   midi.NoteOnEvent(tick=3807800, channel=0, data=[6, 100]),
   midi.NoteOffEvent(tick=3807900, channel=0, data=[6, 0]),
   midi.NoteOnEvent(tick=3808000, channel=0, data=[41, 100]),
   midi.NoteOffEvent(tick=3808100, channel=0, data=[41, 0]),
   midi.NoteOnEvent(tick=3808200, channel=0, data=[56, 100]),
   midi.NoteOffEvent(tick=3808300, channel=0, data=[56, 0]),
   midi.NoteOnEvent(tick=3808400, channel=0, data=[56, 100]),
   midi.NoteOffEvent(tick=3808500, channel=0, data=[56, 0]),
   midi.NoteOnEvent(tick=3808600, channel=0, data=[36, 100]),
   midi.NoteOffEvent(tick=3808700, channel=0, data=[36, 0]),
   midi.NoteOnEvent(tick=3808800, channel=0, data=[36, 100]),
   midi.NoteOffEvent(tick=3808900, channel=0, data=[36, 0]),
   midi.NoteOnEvent(tick=3809000, channel=0, data=[36, 100]),
   midi.NoteOffEvent(tick=3809100, channel=0, data=[36, 0]),
   midi.NoteOnEvent(tick=3809200, channel=0, data=[36, 100]),
   midi.NoteOffEvent(tick=3809300, channel=0, data=[36, 0]),
   midi.NoteOnEvent(tick=3809400, channel=0, data=[36, 100]),
   midi.NoteOffEvent(tick=3809500, channel=0, data=[36, 0]),
   midi.NoteOnEvent(tick=3809600, channel=0, data=[36, 100]),
   midi.NoteOffEvent(tick=3809700, channel=0, data=[36, 0]),
   midi.NoteOnEvent(tick=3809800, channel=0, data=[36, 100]),
   midi.NoteOffEvent(tick=3809900, channel=0, data=[36, 0]),
   midi.NoteOnEvent(tick=3810000, channel=0, data=[36, 100]),
   midi.NoteOffEvent(tick=3810100, channel=0, data=[36, 0]),
   midi.NoteOnEvent(tick=3810200, channel=0, data=[2, 100]),
   midi.NoteOffEvent(tick=3810300, channel=0, data=[2, 0]),
   midi.NoteOnEvent(tick=3810400, channel=0, data=[46, 100]),
   midi.NoteOffEvent(tick=3810500, channel=0, data=[46, 0]),
   midi.NoteOnEvent(tick=3810600, channel=0, data=[78, 100]),
   midi.NoteOffEvent(tick=3810700, channel=0, data=[78, 0]),
   midi.NoteOnEvent(tick=3810800, channel=0, data=[15, 100]),
   midi.NoteOffEvent(tick=3810900, channel=0, data=[15, 0]),
   midi.NoteOnEvent(tick=3811000, channel=0, data=[18, 100]),
   midi.NoteOffEvent(tick=3811100, channel=0, data=[18, 0]),
   midi.NoteOnEvent(tick=3811200, channel=0, data=[73, 100]),
   midi.NoteOffEvent(tick=3811300, channel=0, data=[73, 0]),
   midi.NoteOnEvent(tick=3811400, channel=0, data=[36, 100]),
   midi.NoteOffEvent(tick=3811500, channel=0, data=[36, 0]),
   midi.NoteOnEvent(tick=3811600, channel=0, data=[51, 100]),
   midi.NoteOffEvent(tick=3811700, channel=0, data=[51, 0]),
   midi.NoteOnEvent(tick=3811800, channel=0, data=[18, 100]),
   midi.NoteOffEvent(tick=3811900, channel=0, data=[18, 0]),
   midi.NoteOnEvent(tick=3812000, channel=0, data=[19, 100]),
   midi.NoteOffEvent(tick=3812100, channel=0, data=[19, 0]),
   midi.NoteOnEvent(tick=3812200, channel=0, data=[17, 100]),
   midi.NoteOffEvent(tick=3812300, channel=0, data=[17, 0]),
   midi.NoteOnEvent(tick=3812400, channel=0, data=[8, 100]),
   midi.NoteOffEvent(tick=3812500, channel=0, data=[8, 0]),
   midi.NoteOnEvent(tick=3812600, channel=0, data=[13, 100]),
   midi.NoteOffEvent(tick=3812700, channel=0, data=[13, 0]),
   midi.NoteOnEvent(tick=3812800, channel=0, data=[6, 100]),
   midi.NoteOffEvent(tick=3812900, channel=0, data=[6, 0]),
   midi.NoteOnEvent(tick=3813000, channel=0, data=[52, 100]),
   midi.NoteOffEvent(tick=3813100, channel=0, data=[52, 0]),
   midi.NoteOnEvent(tick=3813200, channel=0, data=[74, 100]),
   midi.NoteOffEvent(tick=3813300, channel=0, data=[74, 0]),
   midi.NoteOnEvent(tick=3813400, channel=0, data=[0, 100]),
   midi.NoteOffEvent(tick=3813500, channel=0, data=[0, 0]),
   midi.NoteOnEvent(tick=3813600, channel=0, data=[36, 100]),
   midi.NoteOffEvent(tick=3813700, channel=0, data=[36, 0]),
   midi.NoteOnEvent(tick=3813800, channel=0, data=[69, 100]),
   midi.NoteOffEvent(tick=3813900, channel=0, data=[69, 0]),
   midi.NoteOnEvent(tick=3814000, channel=0, data=[36, 100]),
   midi.NoteOffEvent(tick=3814100, channel=0, data=[36, 0]),
   midi.NoteOnEvent(tick=3814200, channel=0, data=[41, 100]),
   midi.NoteOffEvent(tick=3814300, channel=0, data=[41, 0]),
   midi.NoteOnEvent(tick=3814400, channel=0, data=[18, 100]),
   midi.NoteOffEvent(tick=3814500, channel=0, data=[18, 0]),
   midi.NoteOnEvent(tick=3814600, channel=0, data=[19, 100]),
   midi.NoteOffEvent(tick=3814700, channel=0, data=[19, 0]),
   midi.NoteOnEvent(tick=3814800, channel=0, data=[17, 100]),
   midi.NoteOffEvent(tick=3814900, channel=0, data=[17, 0]),
   midi.NoteOnEvent(tick=3815000, channel=0, data=[8, 100]),
   midi.NoteOffEvent(tick=3815100, channel=0, data=[8, 0]),
   midi.NoteOnEvent(tick=3815200, channel=0, data=[13, 100]),
   midi.NoteOffEvent(tick=3815300, channel=0, data=[13, 0]),
   midi.NoteOnEvent(tick=3815400, channel=0, data=[6, 100]),
   midi.NoteOffEvent(tick=3815500, channel=0, data=[6, 0]),
   midi.NoteOnEvent(tick=3815600, channel=0, data=[41, 100]),
   midi.NoteOffEvent(tick=3815700, channel=0, data=[41, 0]),
   midi.NoteOnEvent(tick=3815800, channel=0, data=[56, 100]),
   midi.NoteOffEvent(tick=3815900, channel=0, data=[56, 0]),
   midi.NoteOnEvent(tick=3816000, channel=0, data=[36, 100]),
   midi.NoteOffEvent(tick=3816100, channel=0, data=[36, 0]),
   midi.NoteOnEvent(tick=3816200, channel=0, data=[56, 100]),
   midi.NoteOffEvent(tick=3816300, channel=0, data=[56, 0]),
   midi.NoteOnEvent(tick=3816400, channel=0, data=[56, 100]),
   midi.NoteOffEvent(tick=3816500, channel=0, data=[56, 0]),
   midi.NoteOnEvent(tick=3816600, channel=0, data=[36, 100]),
   midi.NoteOffEvent(tick=3816700, channel=0, data=[36, 0]),
   midi.NoteOnEvent(tick=3816800, channel=0, data=[36, 100]),
   midi.NoteOffEvent(tick=3816900, channel=0, data=[36, 0]),
   midi.NoteOnEvent(tick=3817000, channel=0, data=[36, 100]),
   midi.NoteOffEvent(tick=3817100, channel=0, data=[36, 0]),
   midi.NoteOnEvent(tick=3817200, channel=0, data=[36, 100]),
   midi.NoteOffEvent(tick=3817300, channel=0, data=[36, 0]),
   midi.NoteOnEvent(tick=3817400, channel=0, data=[8, 100]),
   midi.NoteOffEvent(tick=3817500, channel=0, data=[8, 0]),
   midi.NoteOnEvent(tick=3817600, channel=0, data=[13, 100]),
   midi.NoteOffEvent(tick=3817700, channel=0, data=[13, 0]),
   midi.NoteOnEvent(tick=3817800, channel=0, data=[36, 100]),
   midi.NoteOffEvent(tick=3817900, channel=0, data=[36, 0]),
   midi.NoteOnEvent(tick=3818000, channel=0, data=[22, 100]),
   midi.NoteOffEvent(tick=3818100, channel=0, data=[22, 0]),
   midi.NoteOnEvent(tick=3818200, channel=0, data=[8, 100]),
   midi.NoteOffEvent(tick=3818300, channel=0, data=[8, 0]),
   midi.NoteOnEvent(tick=3818400, channel=0, data=[13, 100]),
   midi.NoteOffEvent(tick=3818500, channel=0, data=[13, 0]),
   midi.NoteOnEvent(tick=3818600, channel=0, data=[3, 100]),
   midi.NoteOffEvent(tick=3818700, channel=0, data=[3, 0]),
   midi.NoteOnEvent(tick=3818800, channel=0, data=[14, 100]),
   midi.NoteOffEvent(tick=3818900, channel=0, data=[14, 0]),
   midi.NoteOnEvent(tick=3819000, channel=0, data=[22, 100]),
   midi.NoteOffEvent(tick=3819100, channel=0, data=[22, 0]),
   midi.NoteOnEvent(tick=3819200, channel=0, data=[18, 100]),
   midi.NoteOffEvent(tick=3819300, channel=0, data=[18, 0]),
   midi.NoteOnEvent(tick=3819400, channel=0, data=[36, 100]),
   midi.NoteOffEvent(tick=3819500, channel=0, data=[36, 0]),
   midi.NoteOnEvent(tick=3819600, channel=0, data=[15, 100]),
   midi.NoteOffEvent(tick=3819700, channel=0, data=[15, 0]),
   midi.NoteOnEvent(tick=3819800, channel=0, data=[14, 100]),
   midi.NoteOffEvent(tick=3819900, channel=0, data=[14, 0]),
   midi.NoteOnEvent(tick=3820000, channel=0, data=[22, 100]),
   midi.NoteOffEvent(tick=3820100, channel=0, data=[22, 0]),
   midi.NoteOnEvent(tick=3820200, channel=0, data=[4, 100]),
   midi.NoteOffEvent(tick=3820300, channel=0, data=[4, 0]),
   midi.NoteOnEvent(tick=3820400, channel=0, data=[17, 100]),
   midi.NoteOffEvent(tick=3820500, channel=0, data=[17, 0]),
   midi.NoteOnEvent(tick=3820600, channel=0, data=[18, 100]),
   midi.NoteOffEvent(tick=3820700, channel=0, data=[18, 0]),
   midi.NoteOnEvent(tick=3820800, channel=0, data=[7, 100]),
   midi.NoteOffEvent(tick=3820900, channel=0, data=[7, 0]),
   midi.NoteOnEvent(tick=3821000, channel=0, data=[4, 100]),
   midi.NoteOffEvent(tick=3821100, channel=0, data=[4, 0]),
   midi.NoteOnEvent(tick=3821200, channel=0, data=[11, 100]),
   midi.NoteOffEvent(tick=3821300, channel=0, data=[11, 0]),
   midi.NoteOnEvent(tick=3821400, channel=0, data=[11, 100]),
   midi.NoteOffEvent(tick=3821500, channel=0, data=[11, 0]),
   midi.NoteOnEvent(tick=3821600, channel=0, data=[38, 100]),
   midi.NoteOffEvent(tick=3821700, channel=0, data=[38, 0]),
   midi.NoteOnEvent(tick=3821800, channel=0, data=[36, 100]),
   midi.NoteOffEvent(tick=3821900, channel=0, data=[36, 0]),
   midi.NoteOnEvent(tick=3822000, channel=0, data=[19, 100]),
   midi.NoteOffEvent(tick=3822100, channel=0, data=[19, 0]),
   midi.NoteOnEvent(tick=3822200, channel=0, data=[7, 100]),
   midi.NoteOffEvent(tick=3822300, channel=0, data=[7, 0]),
   midi.NoteOnEvent(tick=3822400, channel=0, data=[4, 100]),
   midi.NoteOffEvent(tick=3822500, channel=0, data=[4, 0]),
   midi.NoteOnEvent(tick=3822600, channel=0, data=[36, 100]),
   midi.NoteOffEvent(tick=3822700, channel=0, data=[36, 0]),
   midi.NoteOnEvent(tick=3822800, channel=0, data=[3, 100]),
   midi.NoteOffEvent(tick=3822900, channel=0, data=[3, 0]),
   midi.NoteOnEvent(tick=3823000, channel=0, data=[0, 100]),
   midi.NoteOffEvent(tick=3823100, channel=0, data=[0, 0]),
   midi.NoteOnEvent(tick=3823200, channel=0, data=[19, 100]),
   midi.NoteOffEvent(tick=3823300, channel=0, data=[19, 0]),
   midi.NoteOnEvent(tick=3823400, channel=0, data=[0, 100]),
   midi.NoteOffEvent(tick=3823500, channel=0, data=[0, 0]),
   midi.NoteOnEvent(tick=3823600, channel=0, data=[36, 100]),
   midi.NoteOffEvent(tick=3823700, channel=0, data=[36, 0]),
   midi.NoteOnEvent(tick=3823800, channel=0, data=[19, 100]),
   midi.NoteOffEvent(tick=3823900, channel=0, data=[19, 0]),
   midi.NoteOnEvent(tick=3824000, channel=0, data=[24, 100]),
   midi.NoteOffEvent(tick=3824100, channel=0, data=[24, 0]),
   midi.NoteOnEvent(tick=3824200, channel=0, data=[15, 100]),
   midi.NoteOffEvent(tick=3824300, channel=0, data=[15, 0]),
   midi.NoteOnEvent(tick=3824400, channel=0, data=[4, 100]),
   midi.NoteOffEvent(tick=3824500, channel=0, data=[4, 0]),
   midi.NoteOnEvent(tick=3824600, channel=0, data=[18, 100]),
   midi.NoteOffEvent(tick=3824700, channel=0, data=[18, 0]),
   midi.NoteOnEvent(tick=3824800, channel=0, data=[36, 100]),
   midi.NoteOffEvent(tick=3824900, channel=0, data=[36, 0]),
   midi.NoteOnEvent(tick=3825000, channel=0, data=[14, 100]),
   midi.NoteOffEvent(tick=3825100, channel=0, data=[14, 0]),
   midi.NoteOnEvent(tick=3825200, channel=0, data=[5, 100]),
   midi.NoteOffEvent(tick=3825300, channel=0, data=[5, 0]),
   midi.NoteOnEvent(tick=3825400, channel=0, data=[36, 100]),
   midi.NoteOffEvent(tick=3825500, channel=0, data=[36, 0]),
   midi.NoteOnEvent(tick=3825600, channel=0, data=[21, 100]),
   midi.NoteOffEvent(tick=3825700, channel=0, data=[21, 0]),
   midi.NoteOnEvent(tick=3825800, channel=0, data=[0, 100]),
   midi.NoteOffEvent(tick=3825900, channel=0, data=[0, 0]),
   midi.NoteOnEvent(tick=3826000, channel=0, data=[17, 100]),
   midi.NoteOffEvent(tick=3826100, channel=0, data=[17, 0]),
   midi.NoteOnEvent(tick=3826200, channel=0, data=[8, 100]),
   midi.NoteOffEvent(tick=3826300, channel=0, data=[8, 0]),
   midi.NoteOnEvent(tick=3826400, channel=0, data=[0, 100]),
   midi.NoteOffEvent(tick=3826500, channel=0, data=[0, 0]),
   midi.NoteOnEvent(tick=3826600, channel=0, data=[1, 100]),
   midi.NoteOffEvent(tick=3826700, channel=0, data=[1, 0]),
   midi.NoteOnEvent(tick=3826800, channel=0, data=[11, 100]),
   midi.NoteOffEvent(tick=3826900, channel=0, data=[11, 0]),
   midi.NoteOnEvent(tick=3827000, channel=0, data=[4, 100]),
   midi.NoteOffEvent(tick=3827100, channel=0, data=[4, 0]),
   midi.NoteOnEvent(tick=3827200, channel=0, data=[18, 100]),
   midi.NoteOffEvent(tick=3827300, channel=0, data=[18, 0]),
   midi.NoteOnEvent(tick=3827400, channel=0, data=[36, 100]),
   midi.NoteOffEvent(tick=3827500, channel=0, data=[36, 0]),
   midi.NoteOnEvent(tick=3827600, channel=0, data=[19, 100]),
   midi.NoteOffEvent(tick=3827700, channel=0, data=[19, 0]),
   midi.NoteOnEvent(tick=3827800, channel=0, data=[7, 100]),
   midi.NoteOffEvent(tick=3827900, channel=0, data=[7, 0]),
   midi.NoteOnEvent(tick=3828000, channel=0, data=[0, 100]),
   midi.NoteOffEvent(tick=3828100, channel=0, data=[0, 0]),
   midi.NoteOnEvent(tick=3828200, channel=0, data=[19, 100]),
   midi.NoteOffEvent(tick=3828300, channel=0, data=[19, 0]),
   midi.NoteOnEvent(tick=3828400, channel=0, data=[36, 100]),
   midi.NoteOffEvent(tick=3828500, channel=0, data=[36, 0]),
   midi.NoteOnEvent(tick=3828600, channel=0, data=[2, 100]),
   midi.NoteOffEvent(tick=3828700, channel=0, data=[2, 0]),
   midi.NoteOnEvent(tick=3828800, channel=0, data=[14, 100]),
   midi.NoteOffEvent(tick=3828900, channel=0, data=[14, 0]),
   midi.NoteOnEvent(tick=3829000, channel=0, data=[13, 100]),
   midi.NoteOffEvent(tick=3829100, channel=0, data=[13, 0]),
   midi.NoteOnEvent(tick=3829200, channel=0, data=[19, 100]),
   midi.NoteOffEvent(tick=3829300, channel=0, data=[19, 0]),
   midi.NoteOnEvent(tick=3829400, channel=0, data=[0, 100]),
   midi.NoteOffEvent(tick=3829500, channel=0, data=[0, 0]),
   midi.NoteOnEvent(tick=3829600, channel=0, data=[8, 100]),
   midi.NoteOffEvent(tick=3829700, channel=0, data=[8, 0]),
   midi.NoteOnEvent(tick=3829800, channel=0, data=[13, 100]),
   midi.NoteOffEvent(tick=3829900, channel=0, data=[13, 0]),
   midi.NoteOnEvent(tick=3830000, channel=0, data=[36, 100]),
   midi.NoteOffEvent(tick=3830100, channel=0, data=[36, 0]),
   midi.NoteOnEvent(tick=3830200, channel=0, data=[12, 100]),
   midi.NoteOffEvent(tick=3830300, channel=0, data=[12, 0]),
   midi.NoteOnEvent(tick=3830400, channel=0, data=[20, 100]),
   midi.NoteOffEvent(tick=3830500, channel=0, data=[20, 0]),
   midi.NoteOnEvent(tick=3830600, channel=0, data=[11, 100]),
   midi.NoteOffEvent(tick=3830700, channel=0, data=[11, 0]),
   midi.NoteOnEvent(tick=3830800, channel=0, data=[19, 100]),
   midi.NoteOffEvent(tick=3830900, channel=0, data=[19, 0]),
   midi.NoteOnEvent(tick=3831000, channel=0, data=[8, 100]),
   midi.NoteOffEvent(tick=3831100, channel=0, data=[8, 0]),
   midi.NoteOnEvent(tick=3831200, channel=0, data=[15, 100]),
   midi.NoteOffEvent(tick=3831300, channel=0, data=[15, 0]),
   midi.NoteOnEvent(tick=3831400, channel=0, data=[11, 100]),
   midi.NoteOffEvent(tick=3831500, channel=0, data=[11, 0]),
   midi.NoteOnEvent(tick=3831600, channel=0, data=[4, 100]),
   midi.NoteOffEvent(tick=3831700, channel=0, data=[4, 0]),
   midi.NoteOnEvent(tick=3831800, channel=0, data=[36, 100]),
   midi.NoteOffEvent(tick=3831900, channel=0, data=[36, 0]),
   midi.NoteOnEvent(tick=3832000, channel=0, data=[56, 100]),
   midi.NoteOffEvent(tick=3832100, channel=0, data=[56, 0]),
   midi.NoteOnEvent(tick=3832200, channel=0, data=[36, 100]),
   midi.NoteOffEvent(tick=3832300, channel=0, data=[36, 0]),
   midi.NoteOnEvent(tick=3832400, channel=0, data=[36, 100]),
   midi.NoteOffEvent(tick=3832500, channel=0, data=[36, 0]),
   midi.NoteOnEvent(tick=3832600, channel=0, data=[36, 100]),
   midi.NoteOffEvent(tick=3832700, channel=0, data=[36, 0]),
   midi.NoteOnEvent(tick=3832800, channel=0, data=[36, 100]),
   midi.NoteOffEvent(tick=3832900, channel=0, data=[36, 0]),
   midi.NoteOnEvent(tick=3833000, channel=0, data=[8, 100]),
   midi.NoteOffEvent(tick=3833100, channel=0, data=[8, 0]),
   midi.NoteOnEvent(tick=3833200, channel=0, data=[19, 100]),
   midi.NoteOffEvent(tick=3833300, channel=0, data=[19, 0]),
   midi.NoteOnEvent(tick=3833400, channel=0, data=[4, 100]),
   midi.NoteOffEvent(tick=3833500, channel=0, data=[4, 0]),
   midi.NoteOnEvent(tick=3833600, channel=0, data=[12, 100]),
   midi.NoteOffEvent(tick=3833700, channel=0, data=[12, 0]),
   midi.NoteOnEvent(tick=3833800, channel=0, data=[18, 100]),
   midi.NoteOffEvent(tick=3833900, channel=0, data=[18, 0]),
   midi.NoteOnEvent(tick=3834000, channel=0, data=[36, 100]),
   midi.NoteOffEvent(tick=3834100, channel=0, data=[36, 0]),
   midi.NoteOnEvent(tick=3834200, channel=0, data=[8, 100]),
   midi.NoteOffEvent(tick=3834300, channel=0, data=[8, 0]),
   midi.NoteOnEvent(tick=3834400, channel=0, data=[13, 100]),
   midi.NoteOffEvent(tick=3834500, channel=0, data=[13, 0]),
   midi.NoteOnEvent(tick=3834600, channel=0, data=[36, 100]),
   midi.NoteOffEvent(tick=3834700, channel=0, data=[36, 0]),
   midi.NoteOnEvent(tick=3834800, channel=0, data=[0, 100]),
   midi.NoteOffEvent(tick=3834900, channel=0, data=[0, 0]),
   midi.NoteOnEvent(tick=3835000, channel=0, data=[13, 100]),
   midi.NoteOffEvent(tick=3835100, channel=0, data=[13, 0]),
   midi.NoteOnEvent(tick=3835200, channel=0, data=[36, 100]),
   midi.NoteOffEvent(tick=3835300, channel=0, data=[36, 0]),
   midi.NoteOnEvent(tick=3835400, channel=0, data=[0, 100]),
   midi.NoteOffEvent(tick=3835500, channel=0, data=[0, 0]),
   midi.NoteOnEvent(tick=3835600, channel=0, data=[17, 100]),
   midi.NoteOffEvent(tick=3835700, channel=0, data=[17, 0]),
   midi.NoteOnEvent(tick=3835800, channel=0, data=[17, 100]),
   midi.NoteOffEvent(tick=3835900, channel=0, data=[17, 0]),
   midi.NoteOnEvent(tick=3836000, channel=0, data=[0, 100]),
   midi.NoteOffEvent(tick=3836100, channel=0, data=[0, 0]),
   midi.NoteOnEvent(tick=3836200, channel=0, data=[24, 100]),
   midi.NoteOffEvent(tick=3836300, channel=0, data=[24, 0]),
   midi.NoteOnEvent(tick=3836400, channel=0, data=[36, 100]),
   midi.NoteOffEvent(tick=3836500, channel=0, data=[36, 0]),
   midi.NoteOnEvent(tick=3836600, channel=0, data=[0, 100]),
   midi.NoteOffEvent(tick=3836700, channel=0, data=[0, 0]),
   midi.NoteOnEvent(tick=3836800, channel=0, data=[17, 100]),
   midi.NoteOffEvent(tick=3836900, channel=0, data=[17, 0]),
   midi.NoteOnEvent(tick=3837000, channel=0, data=[4, 100]),
   midi.NoteOffEvent(tick=3837100, channel=0, data=[4, 0]),
   midi.NoteOnEvent(tick=3837200, channel=0, data=[36, 100]),
   midi.NoteOffEvent(tick=3837300, channel=0, data=[36, 0]),
   midi.NoteOnEvent(tick=3837400, channel=0, data=[7, 100]),
   midi.NoteOffEvent(tick=3837500, channel=0, data=[7, 0]),
   midi.NoteOnEvent(tick=3837600, channel=0, data=[0, 100]),
   midi.NoteOffEvent(tick=3837700, channel=0, data=[0, 0]),
   midi.NoteOnEvent(tick=3837800, channel=0, data=[13, 100]),
   midi.NoteOffEvent(tick=3837900, channel=0, data=[13, 0]),
   midi.NoteOnEvent(tick=3838000, channel=0, data=[3, 100]),
   midi.NoteOffEvent(tick=3838100, channel=0, data=[3, 0]),
   midi.NoteOnEvent(tick=3838200, channel=0, data=[11, 100]),
   midi.NoteOffEvent(tick=3838300, channel=0, data=[11, 0]),
   midi.NoteOnEvent(tick=3838400, channel=0, data=[4, 100]),
   midi.NoteOffEvent(tick=3838500, channel=0, data=[4, 0]),
   midi.NoteOnEvent(tick=3838600, channel=0, data=[3, 100]),
   midi.NoteOffEvent(tick=3838700, channel=0, data=[3, 0]),
   midi.NoteOnEvent(tick=3838800, channel=0, data=[36, 100]),
   midi.NoteOffEvent(tick=3838900, channel=0, data=[36, 0]),
   midi.NoteOnEvent(tick=3839000, channel=0, data=[3, 100]),
   midi.NoteOffEvent(tick=3839100, channel=0, data=[3, 0]),
   midi.NoteOnEvent(tick=3839200, channel=0, data=[8, 100]),
   midi.NoteOffEvent(tick=3839300, channel=0, data=[8, 0]),
   midi.NoteOnEvent(tick=3839400, channel=0, data=[5, 100]),
   midi.NoteOffEvent(tick=3839500, channel=0, data=[5, 0]),
   midi.NoteOnEvent(tick=3839600, channel=0, data=[5, 100]),
   midi.NoteOffEvent(tick=3839700, channel=0, data=[5, 0]),
   midi.NoteOnEvent(tick=3839800, channel=0, data=[4, 100]),
   midi.NoteOffEvent(tick=3839900, channel=0, data=[4, 0]),
   midi.NoteOnEvent(tick=3840000, channel=0, data=[17, 100]),
   midi.NoteOffEvent(tick=3840100, channel=0, data=[17, 0]),
   midi.NoteOnEvent(tick=3840200, channel=0, data=[4, 100]),
   midi.NoteOffEvent(tick=3840300, channel=0, data=[4, 0]),
   midi.NoteOnEvent(tick=3840400, channel=0, data=[13, 100]),
   midi.NoteOffEvent(tick=3840500, channel=0, data=[13, 0]),
   midi.NoteOnEvent(tick=3840600, channel=0, data=[19, 100]),
   midi.NoteOffEvent(tick=3840700, channel=0, data=[19, 0]),
   midi.NoteOnEvent(tick=3840800, channel=0, data=[11, 100]),
   midi.NoteOffEvent(tick=3840900, channel=0, data=[11, 0]),
   midi.NoteOnEvent(tick=3841000, channel=0, data=[24, 100]),
   midi.NoteOffEvent(tick=3841100, channel=0, data=[24, 0]),
   midi.NoteOnEvent(tick=3841200, channel=0, data=[36, 100]),
   midi.NoteOffEvent(tick=3841300, channel=0, data=[36, 0]),
   midi.NoteOnEvent(tick=3841400, channel=0, data=[5, 100]),
   midi.NoteOffEvent(tick=3841500, channel=0, data=[5, 0]),
   midi.NoteOnEvent(tick=3841600, channel=0, data=[17, 100]),
   midi.NoteOffEvent(tick=3841700, channel=0, data=[17, 0]),
   midi.NoteOnEvent(tick=3841800, channel=0, data=[14, 100]),
   midi.NoteOffEvent(tick=3841900, channel=0, data=[14, 0]),
   midi.NoteOnEvent(tick=3842000, channel=0, data=[12, 100]),
   midi.NoteOffEvent(tick=3842100, channel=0, data=[12, 0]),
   midi.NoteOnEvent(tick=3842200, channel=0, data=[36, 100]),
   midi.NoteOffEvent(tick=3842300, channel=0, data=[36, 0]),
   midi.NoteOnEvent(tick=3842400, channel=0, data=[19, 100]),
   midi.NoteOffEvent(tick=3842500, channel=0, data=[19, 0]),
   midi.NoteOnEvent(tick=3842600, channel=0, data=[7, 100]),
   midi.NoteOffEvent(tick=3842700, channel=0, data=[7, 0]),
   midi.NoteOnEvent(tick=3842800, channel=0, data=[4, 100]),
   midi.NoteOffEvent(tick=3842900, channel=0, data=[4, 0]),
   midi.NoteOnEvent(tick=3843000, channel=0, data=[36, 100]),
   midi.NoteOffEvent(tick=3843100, channel=0, data=[36, 0]),
   midi.NoteOnEvent(tick=3843200, channel=0, data=[3, 100]),
   midi.NoteOffEvent(tick=3843300, channel=0, data=[3, 0]),
   midi.NoteOnEvent(tick=3843400, channel=0, data=[0, 100]),
   midi.NoteOffEvent(tick=3843500, channel=0, data=[0, 0]),
   midi.NoteOnEvent(tick=3843600, channel=0, data=[19, 100]),
   midi.NoteOffEvent(tick=3843700, channel=0, data=[19, 0]),
   midi.NoteOnEvent(tick=3843800, channel=0, data=[0, 100]),
   midi.NoteOffEvent(tick=3843900, channel=0, data=[0, 0]),
   midi.NoteOnEvent(tick=3844000, channel=0, data=[36, 100]),
   midi.NoteOffEvent(tick=3844100, channel=0, data=[36, 0]),
   midi.NoteOnEvent(tick=3844200, channel=0, data=[19, 100]),
   midi.NoteOffEvent(tick=3844300, channel=0, data=[19, 0]),
   midi.NoteOnEvent(tick=3844400, channel=0, data=[24, 100]),
   midi.NoteOffEvent(tick=3844500, channel=0, data=[24, 0]),
   midi.NoteOnEvent(tick=3844600, channel=0, data=[15, 100]),
   midi.NoteOffEvent(tick=3844700, channel=0, data=[15, 0]),
   midi.NoteOnEvent(tick=3844800, channel=0, data=[4, 100]),
   midi.NoteOffEvent(tick=3844900, channel=0, data=[4, 0]),
   midi.NoteOnEvent(tick=3845000, channel=0, data=[18, 100]),
   midi.NoteOffEvent(tick=3845100, channel=0, data=[18, 0]),
   midi.NoteOnEvent(tick=3845200, channel=0, data=[36, 100]),
   midi.NoteOffEvent(tick=3845300, channel=0, data=[36, 0]),
   midi.NoteOnEvent(tick=3845400, channel=0, data=[14, 100]),
   midi.NoteOffEvent(tick=3845500, channel=0, data=[14, 0]),
   midi.NoteOnEvent(tick=3845600, channel=0, data=[5, 100]),
   midi.NoteOffEvent(tick=3845700, channel=0, data=[5, 0]),
   midi.NoteOnEvent(tick=3845800, channel=0, data=[36, 100]),
   midi.NoteOffEvent(tick=3845900, channel=0, data=[36, 0]),
   midi.NoteOnEvent(tick=3846000, channel=0, data=[21, 100]),
   midi.NoteOffEvent(tick=3846100, channel=0, data=[21, 0]),
   midi.NoteOnEvent(tick=3846200, channel=0, data=[0, 100]),
   midi.NoteOffEvent(tick=3846300, channel=0, data=[0, 0]),
   midi.NoteOnEvent(tick=3846400, channel=0, data=[17, 100]),
   midi.NoteOffEvent(tick=3846500, channel=0, data=[17, 0]),
   midi.NoteOnEvent(tick=3846600, channel=0, data=[8, 100]),
   midi.NoteOffEvent(tick=3846700, channel=0, data=[8, 0]),
   midi.NoteOnEvent(tick=3846800, channel=0, data=[0, 100]),
   midi.NoteOffEvent(tick=3846900, channel=0, data=[0, 0]),
   midi.NoteOnEvent(tick=3847000, channel=0, data=[1, 100]),
   midi.NoteOffEvent(tick=3847100, channel=0, data=[1, 0]),
   midi.NoteOnEvent(tick=3847200, channel=0, data=[11, 100]),
   midi.NoteOffEvent(tick=3847300, channel=0, data=[11, 0]),
   midi.NoteOnEvent(tick=3847400, channel=0, data=[4, 100]),
   midi.NoteOffEvent(tick=3847500, channel=0, data=[4, 0]),
   midi.NoteOnEvent(tick=3847600, channel=0, data=[18, 100]),
   midi.NoteOffEvent(tick=3847700, channel=0, data=[18, 0]),
   midi.NoteOnEvent(tick=3847800, channel=0, data=[56, 100]),
   midi.NoteOffEvent(tick=3847900, channel=0, data=[56, 0]),
   midi.NoteOnEvent(tick=3848000, channel=0, data=[36, 100]),
   midi.NoteOffEvent(tick=3848100, channel=0, data=[36, 0]),
   midi.NoteOnEvent(tick=3848200, channel=0, data=[36, 100]),
   midi.NoteOffEvent(tick=3848300, channel=0, data=[36, 0]),
   midi.NoteOnEvent(tick=3848400, channel=0, data=[36, 100]),
   midi.NoteOffEvent(tick=3848500, channel=0, data=[36, 0]),
   midi.NoteOnEvent(tick=3848600, channel=0, data=[36, 100]),
   midi.NoteOffEvent(tick=3848700, channel=0, data=[36, 0]),
   midi.NoteOnEvent(tick=3848800, channel=0, data=[19, 100]),
   midi.NoteOffEvent(tick=3848900, channel=0, data=[19, 0]),
   midi.NoteOnEvent(tick=3849000, channel=0, data=[7, 100]),
   midi.NoteOffEvent(tick=3849100, channel=0, data=[7, 0]),
   midi.NoteOnEvent(tick=3849200, channel=0, data=[0, 100]),
   midi.NoteOffEvent(tick=3849300, channel=0, data=[0, 0]),
   midi.NoteOnEvent(tick=3849400, channel=0, data=[19, 100]),
   midi.NoteOffEvent(tick=3849500, channel=0, data=[19, 0]),
   midi.NoteOnEvent(tick=3849600, channel=0, data=[36, 100]),
   midi.NoteOffEvent(tick=3849700, channel=0, data=[36, 0]),
   midi.NoteOnEvent(tick=3849800, channel=0, data=[2, 100]),
   midi.NoteOffEvent(tick=3849900, channel=0, data=[2, 0]),
   midi.NoteOnEvent(tick=3850000, channel=0, data=[14, 100]),
   midi.NoteOffEvent(tick=3850100, channel=0, data=[14, 0]),
   midi.NoteOnEvent(tick=3850200, channel=0, data=[13, 100]),
   midi.NoteOffEvent(tick=3850300, channel=0, data=[13, 0]),
   midi.NoteOnEvent(tick=3850400, channel=0, data=[19, 100]),
   midi.NoteOffEvent(tick=3850500, channel=0, data=[19, 0]),
   midi.NoteOnEvent(tick=3850600, channel=0, data=[0, 100]),
   midi.NoteOffEvent(tick=3850700, channel=0, data=[0, 0]),
   midi.NoteOnEvent(tick=3850800, channel=0, data=[8, 100]),
   midi.NoteOffEvent(tick=3850900, channel=0, data=[8, 0]),
   midi.NoteOnEvent(tick=3851000, channel=0, data=[13, 100]),
   midi.NoteOffEvent(tick=3851100, channel=0, data=[13, 0]),
   midi.NoteOnEvent(tick=3851200, channel=0, data=[36, 100]),
   midi.NoteOffEvent(tick=3851300, channel=0, data=[36, 0]),
   midi.NoteOnEvent(tick=3851400, channel=0, data=[0, 100]),
   midi.NoteOffEvent(tick=3851500, channel=0, data=[0, 0]),
   midi.NoteOnEvent(tick=3851600, channel=0, data=[36, 100]),
   midi.NoteOffEvent(tick=3851700, channel=0, data=[36, 0]),
   midi.NoteOnEvent(tick=3851800, channel=0, data=[18, 100]),
   midi.NoteOffEvent(tick=3851900, channel=0, data=[18, 0]),
   midi.NoteOnEvent(tick=3852000, channel=0, data=[8, 100]),
   midi.NoteOffEvent(tick=3852100, channel=0, data=[8, 0]),
   midi.NoteOnEvent(tick=3852200, channel=0, data=[13, 100]),
   midi.NoteOffEvent(tick=3852300, channel=0, data=[13, 0]),
   midi.NoteOnEvent(tick=3852400, channel=0, data=[6, 100]),
   midi.NoteOffEvent(tick=3852500, channel=0, data=[6, 0]),
   midi.NoteOnEvent(tick=3852600, channel=0, data=[11, 100]),
   midi.NoteOffEvent(tick=3852700, channel=0, data=[11, 0]),
   midi.NoteOnEvent(tick=3852800, channel=0, data=[4, 100]),
   midi.NoteOffEvent(tick=3852900, channel=0, data=[4, 0]),
   midi.NoteOnEvent(tick=3853000, channel=0, data=[36, 100]),
   midi.NoteOffEvent(tick=3853100, channel=0, data=[36, 0]),
   midi.NoteOnEvent(tick=3853200, channel=0, data=[8, 100]),
   midi.NoteOffEvent(tick=3853300, channel=0, data=[8, 0]),
   midi.NoteOnEvent(tick=3853400, channel=0, data=[19, 100]),
   midi.NoteOffEvent(tick=3853500, channel=0, data=[19, 0]),
   midi.NoteOnEvent(tick=3853600, channel=0, data=[4, 100]),
   midi.NoteOffEvent(tick=3853700, channel=0, data=[4, 0]),
   midi.NoteOnEvent(tick=3853800, channel=0, data=[12, 100]),
   midi.NoteOffEvent(tick=3853900, channel=0, data=[12, 0]),
   midi.NoteOnEvent(tick=3854000, channel=0, data=[37, 100]),
   midi.NoteOffEvent(tick=3854100, channel=0, data=[37, 0]),
   midi.NoteOnEvent(tick=3854200, channel=0, data=[36, 100]),
   midi.NoteOffEvent(tick=3854300, channel=0, data=[36, 0]),
   midi.NoteOnEvent(tick=3854400, channel=0, data=[20, 100]),
   midi.NoteOffEvent(tick=3854500, channel=0, data=[20, 0]),
   midi.NoteOnEvent(tick=3854600, channel=0, data=[13, 100]),
   midi.NoteOffEvent(tick=3854700, channel=0, data=[13, 0]),
   midi.NoteOnEvent(tick=3854800, channel=0, data=[11, 100]),
   midi.NoteOffEvent(tick=3854900, channel=0, data=[11, 0]),
   midi.NoteOnEvent(tick=3855000, channel=0, data=[4, 100]),
   midi.NoteOffEvent(tick=3855100, channel=0, data=[4, 0]),
   midi.NoteOnEvent(tick=3855200, channel=0, data=[18, 100]),
   midi.NoteOffEvent(tick=3855300, channel=0, data=[18, 0]),
   midi.NoteOnEvent(tick=3855400, channel=0, data=[18, 100]),
   midi.NoteOffEvent(tick=3855500, channel=0, data=[18, 0]),
   midi.NoteOnEvent(tick=3855600, channel=0, data=[36, 100]),
   midi.NoteOffEvent(tick=3855700, channel=0, data=[36, 0]),
   midi.NoteOnEvent(tick=3855800, channel=0, data=[0, 100]),
   midi.NoteOffEvent(tick=3855900, channel=0, data=[0, 0]),
   midi.NoteOnEvent(tick=3856000, channel=0, data=[36, 100]),
   midi.NoteOffEvent(tick=3856100, channel=0, data=[36, 0]),
   midi.NoteOnEvent(tick=3856200, channel=0, data=[3, 100]),
   midi.NoteOffEvent(tick=3856300, channel=0, data=[3, 0]),
   midi.NoteOnEvent(tick=3856400, channel=0, data=[0, 100]),
   midi.NoteOffEvent(tick=3856500, channel=0, data=[0, 0]),
   midi.NoteOnEvent(tick=3856600, channel=0, data=[19, 100]),
   midi.NoteOffEvent(tick=3856700, channel=0, data=[19, 0]),
   midi.NoteOnEvent(tick=3856800, channel=0, data=[0, 100]),
   midi.NoteOffEvent(tick=3856900, channel=0, data=[0, 0]),
   midi.NoteOnEvent(tick=3857000, channel=0, data=[36, 100]),
   midi.NoteOffEvent(tick=3857100, channel=0, data=[36, 0]),
   midi.NoteOnEvent(tick=3857200, channel=0, data=[19, 100]),
   midi.NoteOffEvent(tick=3857300, channel=0, data=[19, 0]),
   midi.NoteOnEvent(tick=3857400, channel=0, data=[24, 100]),
   midi.NoteOffEvent(tick=3857500, channel=0, data=[24, 0]),
   midi.NoteOnEvent(tick=3857600, channel=0, data=[15, 100]),
   midi.NoteOffEvent(tick=3857700, channel=0, data=[15, 0]),
   midi.NoteOnEvent(tick=3857800, channel=0, data=[4, 100]),
   midi.NoteOffEvent(tick=3857900, channel=0, data=[4, 0]),
   midi.NoteOnEvent(tick=3858000, channel=0, data=[36, 100]),
   midi.NoteOffEvent(tick=3858100, channel=0, data=[36, 0]),
   midi.NoteOnEvent(tick=3858200, channel=0, data=[8, 100]),
   midi.NoteOffEvent(tick=3858300, channel=0, data=[8, 0]),
   midi.NoteOnEvent(tick=3858400, channel=0, data=[18, 100]),
   midi.NoteOffEvent(tick=3858500, channel=0, data=[18, 0]),
   midi.NoteOnEvent(tick=3858600, channel=0, data=[36, 100]),
   midi.NoteOffEvent(tick=3858700, channel=0, data=[36, 0]),
   midi.NoteOnEvent(tick=3858800, channel=0, data=[18, 100]),
   midi.NoteOffEvent(tick=3858900, channel=0, data=[18, 0]),
   midi.NoteOnEvent(tick=3859000, channel=0, data=[15, 100]),
   midi.NoteOffEvent(tick=3859100, channel=0, data=[15, 0]),
   midi.NoteOnEvent(tick=3859200, channel=0, data=[4, 100]),
   midi.NoteOffEvent(tick=3859300, channel=0, data=[4, 0]),
   midi.NoteOnEvent(tick=3859400, channel=0, data=[2, 100]),
   midi.NoteOffEvent(tick=3859500, channel=0, data=[2, 0]),
   midi.NoteOnEvent(tick=3859600, channel=0, data=[8, 100]),
   midi.NoteOffEvent(tick=3859700, channel=0, data=[8, 0]),
   midi.NoteOnEvent(tick=3859800, channel=0, data=[5, 100]),
   midi.NoteOffEvent(tick=3859900, channel=0, data=[5, 0]),
   midi.NoteOnEvent(tick=3860000, channel=0, data=[8, 100]),
   midi.NoteOffEvent(tick=3860100, channel=0, data=[8, 0]),
   midi.NoteOnEvent(tick=3860200, channel=0, data=[2, 100]),
   midi.NoteOffEvent(tick=3860300, channel=0, data=[2, 0]),
   midi.NoteOnEvent(tick=3860400, channel=0, data=[0, 100]),
   midi.NoteOffEvent(tick=3860500, channel=0, data=[0, 0]),
   midi.NoteOnEvent(tick=3860600, channel=0, data=[11, 100]),
   midi.NoteOffEvent(tick=3860700, channel=0, data=[11, 0]),
   midi.NoteOnEvent(tick=3860800, channel=0, data=[11, 100]),
   midi.NoteOffEvent(tick=3860900, channel=0, data=[11, 0]),
   midi.NoteOnEvent(tick=3861000, channel=0, data=[24, 100]),
   midi.NoteOffEvent(tick=3861100, channel=0, data=[24, 0]),
   midi.NoteOnEvent(tick=3861200, channel=0, data=[36, 100]),
   midi.NoteOffEvent(tick=3861300, channel=0, data=[36, 0]),
   midi.NoteOnEvent(tick=3861400, channel=0, data=[0, 100]),
   midi.NoteOffEvent(tick=3861500, channel=0, data=[0, 0]),
   midi.NoteOnEvent(tick=3861600, channel=0, data=[18, 100]),
   midi.NoteOffEvent(tick=3861700, channel=0, data=[18, 0]),
   midi.NoteOnEvent(tick=3861800, channel=0, data=[18, 100]),
   midi.NoteOffEvent(tick=3861900, channel=0, data=[18, 0]),
   midi.NoteOnEvent(tick=3862000, channel=0, data=[8, 100]),
   midi.NoteOffEvent(tick=3862100, channel=0, data=[8, 0]),
   midi.NoteOnEvent(tick=3862200, channel=0, data=[6, 100]),
   midi.NoteOffEvent(tick=3862300, channel=0, data=[6, 0]),
   midi.NoteOnEvent(tick=3862400, channel=0, data=[13, 100]),
   midi.NoteOffEvent(tick=3862500, channel=0, data=[13, 0]),
   midi.NoteOnEvent(tick=3862600, channel=0, data=[4, 100]),
   midi.NoteOffEvent(tick=3862700, channel=0, data=[4, 0]),
   midi.NoteOnEvent(tick=3862800, channel=0, data=[3, 100]),
   midi.NoteOffEvent(tick=3862900, channel=0, data=[3, 0]),
   midi.NoteOnEvent(tick=3863000, channel=0, data=[36, 100]),
   midi.NoteOffEvent(tick=3863100, channel=0, data=[36, 0]),
   midi.NoteOnEvent(tick=3863200, channel=0, data=[19, 100]),
   midi.NoteOffEvent(tick=3863300, channel=0, data=[19, 0]),
   midi.NoteOnEvent(tick=3863400, channel=0, data=[14, 100]),
   midi.NoteOffEvent(tick=3863500, channel=0, data=[14, 0]),
   midi.NoteOnEvent(tick=3863600, channel=0, data=[56, 100]),
   midi.NoteOffEvent(tick=3863700, channel=0, data=[56, 0]),
   midi.NoteOnEvent(tick=3863800, channel=0, data=[36, 100]),
   midi.NoteOffEvent(tick=3863900, channel=0, data=[36, 0]),
   midi.NoteOnEvent(tick=3864000, channel=0, data=[36, 100]),
   midi.NoteOffEvent(tick=3864100, channel=0, data=[36, 0]),
   midi.NoteOnEvent(tick=3864200, channel=0, data=[36, 100]),
   midi.NoteOffEvent(tick=3864300, channel=0, data=[36, 0]),
   midi.NoteOnEvent(tick=3864400, channel=0, data=[36, 100]),
   midi.NoteOffEvent(tick=3864500, channel=0, data=[36, 0]),
   midi.NoteOnEvent(tick=3864600, channel=0, data=[0, 100]),
   midi.NoteOffEvent(tick=3864700, channel=0, data=[0, 0]),
   midi.NoteOnEvent(tick=3864800, channel=0, data=[13, 100]),
   midi.NoteOffEvent(tick=3864900, channel=0, data=[13, 0]),
   midi.NoteOnEvent(tick=3865000, channel=0, data=[36, 100]),
   midi.NoteOffEvent(tick=3865100, channel=0, data=[36, 0]),
   midi.NoteOnEvent(tick=3865200, channel=0, data=[0, 100]),
   midi.NoteOffEvent(tick=3865300, channel=0, data=[0, 0]),
   midi.NoteOnEvent(tick=3865400, channel=0, data=[17, 100]),
   midi.NoteOffEvent(tick=3865500, channel=0, data=[17, 0]),
   midi.NoteOnEvent(tick=3865600, channel=0, data=[17, 100]),
   midi.NoteOffEvent(tick=3865700, channel=0, data=[17, 0]),
   midi.NoteOnEvent(tick=3865800, channel=0, data=[0, 100]),
   midi.NoteOffEvent(tick=3865900, channel=0, data=[0, 0]),
   midi.NoteOnEvent(tick=3866000, channel=0, data=[24, 100]),
   midi.NoteOffEvent(tick=3866100, channel=0, data=[24, 0]),
   midi.NoteOnEvent(tick=3866200, channel=0, data=[36, 100]),
   midi.NoteOffEvent(tick=3866300, channel=0, data=[36, 0]),
   midi.NoteOnEvent(tick=3866400, channel=0, data=[21, 100]),
   midi.NoteOffEvent(tick=3866500, channel=0, data=[21, 0]),
   midi.NoteOnEvent(tick=3866600, channel=0, data=[0, 100]),
   midi.NoteOffEvent(tick=3866700, channel=0, data=[0, 0]),
   midi.NoteOnEvent(tick=3866800, channel=0, data=[17, 100]),
   midi.NoteOffEvent(tick=3866900, channel=0, data=[17, 0]),
   midi.NoteOnEvent(tick=3867000, channel=0, data=[8, 100]),
   midi.NoteOffEvent(tick=3867100, channel=0, data=[8, 0]),
   midi.NoteOnEvent(tick=3867200, channel=0, data=[0, 100]),
   midi.NoteOffEvent(tick=3867300, channel=0, data=[0, 0]),
   midi.NoteOnEvent(tick=3867400, channel=0, data=[1, 100]),
   midi.NoteOffEvent(tick=3867500, channel=0, data=[1, 0]),
   midi.NoteOnEvent(tick=3867600, channel=0, data=[11, 100]),
   midi.NoteOffEvent(tick=3867700, channel=0, data=[11, 0]),
   midi.NoteOnEvent(tick=3867800, channel=0, data=[4, 100]),
   midi.NoteOffEvent(tick=3867900, channel=0, data=[4, 0]),
   midi.NoteOnEvent(tick=3868000, channel=0, data=[38, 100]),
   midi.NoteOffEvent(tick=3868100, channel=0, data=[38, 0]),
   midi.NoteOnEvent(tick=3868200, channel=0, data=[36, 100]),
   midi.NoteOffEvent(tick=3868300, channel=0, data=[36, 0]),
   midi.NoteOnEvent(tick=3868400, channel=0, data=[19, 100]),
   midi.NoteOffEvent(tick=3868500, channel=0, data=[19, 0]),
   midi.NoteOnEvent(tick=3868600, channel=0, data=[7, 100]),
   midi.NoteOffEvent(tick=3868700, channel=0, data=[7, 0]),
   midi.NoteOnEvent(tick=3868800, channel=0, data=[4, 100]),
   midi.NoteOffEvent(tick=3868900, channel=0, data=[4, 0]),
   midi.NoteOnEvent(tick=3869000, channel=0, data=[36, 100]),
   midi.NoteOffEvent(tick=3869100, channel=0, data=[36, 0]),
   midi.NoteOnEvent(tick=3869200, channel=0, data=[3, 100]),
   midi.NoteOffEvent(tick=3869300, channel=0, data=[3, 0]),
   midi.NoteOnEvent(tick=3869400, channel=0, data=[0, 100]),
   midi.NoteOffEvent(tick=3869500, channel=0, data=[0, 0]),
   midi.NoteOnEvent(tick=3869600, channel=0, data=[19, 100]),
   midi.NoteOffEvent(tick=3869700, channel=0, data=[19, 0]),
   midi.NoteOnEvent(tick=3869800, channel=0, data=[0, 100]),
   midi.NoteOffEvent(tick=3869900, channel=0, data=[0, 0]),
   midi.NoteOnEvent(tick=3870000, channel=0, data=[36, 100]),
   midi.NoteOffEvent(tick=3870100, channel=0, data=[36, 0]),
   midi.NoteOnEvent(tick=3870200, channel=0, data=[19, 100]),
   midi.NoteOffEvent(tick=3870300, channel=0, data=[19, 0]),
   midi.NoteOnEvent(tick=3870400, channel=0, data=[24, 100]),
   midi.NoteOffEvent(tick=3870500, channel=0, data=[24, 0]),
   midi.NoteOnEvent(tick=3870600, channel=0, data=[15, 100]),
   midi.NoteOffEvent(tick=3870700, channel=0, data=[15, 0]),
   midi.NoteOnEvent(tick=3870800, channel=0, data=[4, 100]),
   midi.NoteOffEvent(tick=3870900, channel=0, data=[4, 0]),
   midi.NoteOnEvent(tick=3871000, channel=0, data=[36, 100]),
   midi.NoteOffEvent(tick=3871100, channel=0, data=[36, 0]),
   midi.NoteOnEvent(tick=3871200, channel=0, data=[8, 100]),
   midi.NoteOffEvent(tick=3871300, channel=0, data=[8, 0]),
   midi.NoteOnEvent(tick=3871400, channel=0, data=[18, 100]),
   midi.NoteOffEvent(tick=3871500, channel=0, data=[18, 0]),
   midi.NoteOnEvent(tick=3871600, channel=0, data=[36, 100]),
   midi.NoteOffEvent(tick=3871700, channel=0, data=[36, 0]),
   midi.NoteOnEvent(tick=3871800, channel=0, data=[0, 100]),
   midi.NoteOffEvent(tick=3871900, channel=0, data=[0, 0]),
   midi.NoteOnEvent(tick=3872000, channel=0, data=[11, 100]),
   midi.NoteOffEvent(tick=3872100, channel=0, data=[11, 0]),
   midi.NoteOnEvent(tick=3872200, channel=0, data=[22, 100]),
   midi.NoteOffEvent(tick=3872300, channel=0, data=[22, 0]),
   midi.NoteOnEvent(tick=3872400, channel=0, data=[0, 100]),
   midi.NoteOffEvent(tick=3872500, channel=0, data=[0, 0]),
   midi.NoteOnEvent(tick=3872600, channel=0, data=[24, 100]),
   midi.NoteOffEvent(tick=3872700, channel=0, data=[24, 0]),
   midi.NoteOnEvent(tick=3872800, channel=0, data=[18, 100]),
   midi.NoteOffEvent(tick=3872900, channel=0, data=[18, 0]),
   midi.NoteOnEvent(tick=3873000, channel=0, data=[36, 100]),
   midi.NoteOffEvent(tick=3873100, channel=0, data=[36, 0]),
   midi.NoteOnEvent(tick=3873200, channel=0, data=[18, 100]),
   midi.NoteOffEvent(tick=3873300, channel=0, data=[18, 0]),
   midi.NoteOnEvent(tick=3873400, channel=0, data=[24, 100]),
   midi.NoteOffEvent(tick=3873500, channel=0, data=[24, 0]),
   midi.NoteOnEvent(tick=3873600, channel=0, data=[18, 100]),
   midi.NoteOffEvent(tick=3873700, channel=0, data=[18, 0]),
   midi.NoteOnEvent(tick=3873800, channel=0, data=[19, 100]),
   midi.NoteOffEvent(tick=3873900, channel=0, data=[19, 0]),
   midi.NoteOnEvent(tick=3874000, channel=0, data=[4, 100]),
   midi.NoteOffEvent(tick=3874100, channel=0, data=[4, 0]),
   midi.NoteOnEvent(tick=3874200, channel=0, data=[12, 100]),
   midi.NoteOffEvent(tick=3874300, channel=0, data=[12, 0]),
   midi.NoteOnEvent(tick=3874400, channel=0, data=[37, 100]),
   midi.NoteOffEvent(tick=3874500, channel=0, data=[37, 0]),
   midi.NoteOnEvent(tick=3874600, channel=0, data=[14, 100]),
   midi.NoteOffEvent(tick=3874700, channel=0, data=[14, 0]),
   midi.NoteOnEvent(tick=3874800, channel=0, data=[1, 100]),
   midi.NoteOffEvent(tick=3874900, channel=0, data=[1, 0]),
   midi.NoteOnEvent(tick=3875000, channel=0, data=[9, 100]),
   midi.NoteOffEvent(tick=3875100, channel=0, data=[9, 0]),
   midi.NoteOnEvent(tick=3875200, channel=0, data=[4, 100]),
   midi.NoteOffEvent(tick=3875300, channel=0, data=[4, 0]),
   midi.NoteOnEvent(tick=3875400, channel=0, data=[2, 100]),
   midi.NoteOffEvent(tick=3875500, channel=0, data=[2, 0]),
   midi.NoteOnEvent(tick=3875600, channel=0, data=[19, 100]),
   midi.NoteOffEvent(tick=3875700, channel=0, data=[19, 0]),
   midi.NoteOnEvent(tick=3875800, channel=0, data=[36, 100]),
   midi.NoteOffEvent(tick=3875900, channel=0, data=[36, 0]),
   midi.NoteOnEvent(tick=3876000, channel=0, data=[51, 100]),
   midi.NoteOffEvent(tick=3876100, channel=0, data=[51, 0]),
   midi.NoteOnEvent(tick=3876200, channel=0, data=[52, 100]),
   midi.NoteOffEvent(tick=3876300, channel=0, data=[52, 0]),
   midi.NoteOnEvent(tick=3876400, channel=0, data=[37, 100]),
   midi.NoteOffEvent(tick=3876500, channel=0, data=[37, 0]),
   midi.NoteOnEvent(tick=3876600, channel=0, data=[36, 100]),
   midi.NoteOffEvent(tick=3876700, channel=0, data=[36, 0]),
   midi.NoteOnEvent(tick=3876800, channel=0, data=[19, 100]),
   midi.NoteOffEvent(tick=3876900, channel=0, data=[19, 0]),
   midi.NoteOnEvent(tick=3877000, channel=0, data=[7, 100]),
   midi.NoteOffEvent(tick=3877100, channel=0, data=[7, 0]),
   midi.NoteOnEvent(tick=3877200, channel=0, data=[8, 100]),
   midi.NoteOffEvent(tick=3877300, channel=0, data=[8, 0]),
   midi.NoteOnEvent(tick=3877400, channel=0, data=[18, 100]),
   midi.NoteOffEvent(tick=3877500, channel=0, data=[18, 0]),
   midi.NoteOnEvent(tick=3877600, channel=0, data=[36, 100]),
   midi.NoteOffEvent(tick=3877700, channel=0, data=[36, 0]),
   midi.NoteOnEvent(tick=3877800, channel=0, data=[3, 100]),
   midi.NoteOffEvent(tick=3877900, channel=0, data=[3, 0]),
   midi.NoteOnEvent(tick=3878000, channel=0, data=[0, 100]),
   midi.NoteOffEvent(tick=3878100, channel=0, data=[0, 0]),
   midi.NoteOnEvent(tick=3878200, channel=0, data=[19, 100]),
   midi.NoteOffEvent(tick=3878300, channel=0, data=[19, 0]),
   midi.NoteOnEvent(tick=3878400, channel=0, data=[0, 100]),
   midi.NoteOffEvent(tick=3878500, channel=0, data=[0, 0]),
   midi.NoteOnEvent(tick=3878600, channel=0, data=[36, 100]),
   midi.NoteOffEvent(tick=3878700, channel=0, data=[36, 0]),
   midi.NoteOnEvent(tick=3878800, channel=0, data=[19, 100]),
   midi.NoteOffEvent(tick=3878900, channel=0, data=[19, 0]),
   midi.NoteOnEvent(tick=3879000, channel=0, data=[24, 100]),
   midi.NoteOffEvent(tick=3879100, channel=0, data=[24, 0]),
   midi.NoteOnEvent(tick=3879200, channel=0, data=[15, 100]),
   midi.NoteOffEvent(tick=3879300, channel=0, data=[15, 0]),
   midi.NoteOnEvent(tick=3879400, channel=0, data=[4, 100]),
   midi.NoteOffEvent(tick=3879500, channel=0, data=[4, 0]),
   midi.NoteOnEvent(tick=3879600, channel=0, data=[56, 100]),
   midi.NoteOffEvent(tick=3879700, channel=0, data=[56, 0]),
   midi.NoteOnEvent(tick=3879800, channel=0, data=[36, 100]),
   midi.NoteOffEvent(tick=3879900, channel=0, data=[36, 0]),
   midi.NoteOnEvent(tick=3880000, channel=0, data=[36, 100]),
   midi.NoteOffEvent(tick=3880100, channel=0, data=[36, 0]),
   midi.NoteOnEvent(tick=3880200, channel=0, data=[36, 100]),
   midi.NoteOffEvent(tick=3880300, channel=0, data=[36, 0]),
   midi.NoteOnEvent(tick=3880400, channel=0, data=[36, 100]),
   midi.NoteOffEvent(tick=3880500, channel=0, data=[36, 0]),
   midi.NoteOnEvent(tick=3880600, channel=0, data=[8, 100]),
   midi.NoteOffEvent(tick=3880700, channel=0, data=[8, 0]),
   midi.NoteOnEvent(tick=3880800, channel=0, data=[18, 100]),
   midi.NoteOffEvent(tick=3880900, channel=0, data=[18, 0]),
   midi.NoteOnEvent(tick=3881000, channel=0, data=[36, 100]),
   midi.NoteOffEvent(tick=3881100, channel=0, data=[36, 0]),
   midi.NoteOnEvent(tick=3881200, channel=0, data=[18, 100]),
   midi.NoteOffEvent(tick=3881300, channel=0, data=[18, 0]),
   midi.NoteOnEvent(tick=3881400, channel=0, data=[15, 100]),
   midi.NoteOffEvent(tick=3881500, channel=0, data=[15, 0]),
   midi.NoteOnEvent(tick=3881600, channel=0, data=[4, 100]),
   midi.NoteOffEvent(tick=3881700, channel=0, data=[4, 0]),
   midi.NoteOnEvent(tick=3881800, channel=0, data=[2, 100]),
   midi.NoteOffEvent(tick=3881900, channel=0, data=[2, 0]),
   midi.NoteOnEvent(tick=3882000, channel=0, data=[8, 100]),
   midi.NoteOffEvent(tick=3882100, channel=0, data=[8, 0]),
   midi.NoteOnEvent(tick=3882200, channel=0, data=[5, 100]),
   midi.NoteOffEvent(tick=3882300, channel=0, data=[5, 0]),
   midi.NoteOnEvent(tick=3882400, channel=0, data=[8, 100]),
   midi.NoteOffEvent(tick=3882500, channel=0, data=[8, 0]),
   midi.NoteOnEvent(tick=3882600, channel=0, data=[2, 100]),
   midi.NoteOffEvent(tick=3882700, channel=0, data=[2, 0]),
   midi.NoteOnEvent(tick=3882800, channel=0, data=[36, 100]),
   midi.NoteOffEvent(tick=3882900, channel=0, data=[36, 0]),
   midi.NoteOnEvent(tick=3883000, channel=0, data=[19, 100]),
   midi.NoteOffEvent(tick=3883100, channel=0, data=[19, 0]),
   midi.NoteOnEvent(tick=3883200, channel=0, data=[14, 100]),
   midi.NoteOffEvent(tick=3883300, channel=0, data=[14, 0]),
   midi.NoteOnEvent(tick=3883400, channel=0, data=[36, 100]),
   midi.NoteOffEvent(tick=3883500, channel=0, data=[36, 0]),
   midi.NoteOnEvent(tick=3883600, channel=0, data=[0, 100]),
   midi.NoteOffEvent(tick=3883700, channel=0, data=[0, 0]),
   midi.NoteOnEvent(tick=3883800, channel=0, data=[17, 100]),
   midi.NoteOffEvent(tick=3883900, channel=0, data=[17, 0]),
   midi.NoteOnEvent(tick=3884000, channel=0, data=[17, 100]),
   midi.NoteOffEvent(tick=3884100, channel=0, data=[17, 0]),
   midi.NoteOnEvent(tick=3884200, channel=0, data=[0, 100]),
   midi.NoteOffEvent(tick=3884300, channel=0, data=[0, 0]),
   midi.NoteOnEvent(tick=3884400, channel=0, data=[24, 100]),
   midi.NoteOffEvent(tick=3884500, channel=0, data=[24, 0]),
   midi.NoteOnEvent(tick=3884600, channel=0, data=[18, 100]),
   midi.NoteOffEvent(tick=3884700, channel=0, data=[18, 0]),
   midi.NoteOnEvent(tick=3884800, channel=0, data=[37, 100]),
   midi.NoteOffEvent(tick=3884900, channel=0, data=[37, 0]),
   midi.NoteOnEvent(tick=3885000, channel=0, data=[56, 100]),
   midi.NoteOffEvent(tick=3885100, channel=0, data=[56, 0]),
   midi.NoteOnEvent(tick=3885200, channel=0, data=[56, 100]),
   midi.NoteOffEvent(tick=3885300, channel=0, data=[56, 0]),
   midi.NoteOnEvent(tick=3885400, channel=0, data=[56, 100]),
   midi.NoteOffEvent(tick=3885500, channel=0, data=[56, 0]),
   midi.NoteOnEvent(tick=3885600, channel=0, data=[36, 100]),
   midi.NoteOffEvent(tick=3885700, channel=0, data=[36, 0]),
   midi.NoteOnEvent(tick=3885800, channel=0, data=[36, 100]),
   midi.NoteOffEvent(tick=3885900, channel=0, data=[36, 0]),
   midi.NoteOnEvent(tick=3886000, channel=0, data=[36, 100]),
   midi.NoteOffEvent(tick=3886100, channel=0, data=[36, 0]),
   midi.NoteOnEvent(tick=3886200, channel=0, data=[36, 100]),
   midi.NoteOffEvent(tick=3886300, channel=0, data=[36, 0]),
   midi.NoteOnEvent(tick=3886400, channel=0, data=[18, 100]),
   midi.NoteOffEvent(tick=3886500, channel=0, data=[18, 0]),
   midi.NoteOnEvent(tick=3886600, channel=0, data=[14, 100]),
   midi.NoteOffEvent(tick=3886700, channel=0, data=[14, 0]),
   midi.NoteOnEvent(tick=3886800, channel=0, data=[12, 100]),
   midi.NoteOffEvent(tick=3886900, channel=0, data=[12, 0]),
   midi.NoteOnEvent(tick=3887000, channel=0, data=[4, 100]),
   midi.NoteOffEvent(tick=3887100, channel=0, data=[4, 0]),
   midi.NoteOnEvent(tick=3887200, channel=0, data=[19, 100]),
   midi.NoteOffEvent(tick=3887300, channel=0, data=[19, 0]),
   midi.NoteOnEvent(tick=3887400, channel=0, data=[8, 100]),
   midi.NoteOffEvent(tick=3887500, channel=0, data=[8, 0]),
   midi.NoteOnEvent(tick=3887600, channel=0, data=[12, 100]),
   midi.NoteOffEvent(tick=3887700, channel=0, data=[12, 0]),
   midi.NoteOnEvent(tick=3887800, channel=0, data=[4, 100]),
   midi.NoteOffEvent(tick=3887900, channel=0, data=[4, 0]),
   midi.NoteOnEvent(tick=3888000, channel=0, data=[18, 100]),
   midi.NoteOffEvent(tick=3888100, channel=0, data=[18, 0]),
   midi.NoteOnEvent(tick=3888200, channel=0, data=[38, 100]),
   midi.NoteOffEvent(tick=3888300, channel=0, data=[38, 0]),
   midi.NoteOnEvent(tick=3888400, channel=0, data=[36, 100]),
   midi.NoteOffEvent(tick=3888500, channel=0, data=[36, 0]),
   midi.NoteOnEvent(tick=3888600, channel=0, data=[24, 100]),
   midi.NoteOffEvent(tick=3888700, channel=0, data=[24, 0]),
   midi.NoteOnEvent(tick=3888800, channel=0, data=[14, 100]),
   midi.NoteOffEvent(tick=3888900, channel=0, data=[14, 0]),
   midi.NoteOnEvent(tick=3889000, channel=0, data=[20, 100]),
   midi.NoteOffEvent(tick=3889100, channel=0, data=[20, 0]),
   midi.NoteOnEvent(tick=3889200, channel=0, data=[36, 100]),
   midi.NoteOffEvent(tick=3889300, channel=0, data=[36, 0]),
   midi.NoteOnEvent(tick=3889400, channel=0, data=[2, 100]),
   midi.NoteOffEvent(tick=3889500, channel=0, data=[2, 0]),
   midi.NoteOnEvent(tick=3889600, channel=0, data=[0, 100]),
   midi.NoteOffEvent(tick=3889700, channel=0, data=[0, 0]),
   midi.NoteOnEvent(tick=3889800, channel=0, data=[13, 100]),
   midi.NoteOffEvent(tick=3889900, channel=0, data=[13, 0]),
   midi.NoteOnEvent(tick=3890000, channel=0, data=[36, 100]),
   midi.NoteOffEvent(tick=3890100, channel=0, data=[36, 0]),
   midi.NoteOnEvent(tick=3890200, channel=0, data=[14, 100]),
   midi.NoteOffEvent(tick=3890300, channel=0, data=[14, 0]),
   midi.NoteOnEvent(tick=3890400, channel=0, data=[21, 100]),
   midi.NoteOffEvent(tick=3890500, channel=0, data=[21, 0]),
   midi.NoteOnEvent(tick=3890600, channel=0, data=[4, 100]),
   midi.NoteOffEvent(tick=3890700, channel=0, data=[4, 0]),
   midi.NoteOnEvent(tick=3890800, channel=0, data=[17, 100]),
   midi.NoteOffEvent(tick=3890900, channel=0, data=[17, 0]),
   midi.NoteOnEvent(tick=3891000, channel=0, data=[17, 100]),
   midi.NoteOffEvent(tick=3891100, channel=0, data=[17, 0]),
   midi.NoteOnEvent(tick=3891200, channel=0, data=[8, 100]),
   midi.NoteOffEvent(tick=3891300, channel=0, data=[8, 0]),
   midi.NoteOnEvent(tick=3891400, channel=0, data=[3, 100]),
   midi.NoteOffEvent(tick=3891500, channel=0, data=[3, 0]),
   midi.NoteOnEvent(tick=3891600, channel=0, data=[4, 100]),
   midi.NoteOffEvent(tick=3891700, channel=0, data=[4, 0]),
   midi.NoteOnEvent(tick=3891800, channel=0, data=[36, 100]),
   midi.NoteOffEvent(tick=3891900, channel=0, data=[36, 0]),
   midi.NoteOnEvent(tick=3892000, channel=0, data=[19, 100]),
   midi.NoteOffEvent(tick=3892100, channel=0, data=[19, 0]),
   midi.NoteOnEvent(tick=3892200, channel=0, data=[7, 100]),
   midi.NoteOffEvent(tick=3892300, channel=0, data=[7, 0]),
   midi.NoteOnEvent(tick=3892400, channel=0, data=[4, 100]),
   midi.NoteOffEvent(tick=3892500, channel=0, data=[4, 0]),
   midi.NoteOnEvent(tick=3892600, channel=0, data=[36, 100]),
   midi.NoteOffEvent(tick=3892700, channel=0, data=[36, 0]),
   midi.NoteOnEvent(tick=3892800, channel=0, data=[3, 100]),
   midi.NoteOffEvent(tick=3892900, channel=0, data=[3, 0]),
   midi.NoteOnEvent(tick=3893000, channel=0, data=[4, 100]),
   midi.NoteOffEvent(tick=3893100, channel=0, data=[4, 0]),
   midi.NoteOnEvent(tick=3893200, channel=0, data=[5, 100]),
   midi.NoteOffEvent(tick=3893300, channel=0, data=[5, 0]),
   midi.NoteOnEvent(tick=3893400, channel=0, data=[0, 100]),
   midi.NoteOffEvent(tick=3893500, channel=0, data=[0, 0]),
   midi.NoteOnEvent(tick=3893600, channel=0, data=[20, 100]),
   midi.NoteOffEvent(tick=3893700, channel=0, data=[20, 0]),
   midi.NoteOnEvent(tick=3893800, channel=0, data=[11, 100]),
   midi.NoteOffEvent(tick=3893900, channel=0, data=[11, 0]),
   midi.NoteOnEvent(tick=3894000, channel=0, data=[19, 100]),
   midi.NoteOffEvent(tick=3894100, channel=0, data=[19, 0]),
   midi.NoteOnEvent(tick=3894200, channel=0, data=[36, 100]),
   midi.NoteOffEvent(tick=3894300, channel=0, data=[36, 0]),
   midi.NoteOnEvent(tick=3894400, channel=0, data=[19, 100]),
   midi.NoteOffEvent(tick=3894500, channel=0, data=[19, 0]),
   midi.NoteOnEvent(tick=3894600, channel=0, data=[24, 100]),
   midi.NoteOffEvent(tick=3894700, channel=0, data=[24, 0]),
   midi.NoteOnEvent(tick=3894800, channel=0, data=[15, 100]),
   midi.NoteOffEvent(tick=3894900, channel=0, data=[15, 0]),
   midi.NoteOnEvent(tick=3895000, channel=0, data=[4, 100]),
   midi.NoteOffEvent(tick=3895100, channel=0, data=[4, 0]),
   midi.NoteOnEvent(tick=3895200, channel=0, data=[36, 100]),
   midi.NoteOffEvent(tick=3895300, channel=0, data=[36, 0]),
   midi.NoteOnEvent(tick=3895400, channel=0, data=[1, 100]),
   midi.NoteOffEvent(tick=3895500, channel=0, data=[1, 0]),
   midi.NoteOnEvent(tick=3895600, channel=0, data=[24, 100]),
   midi.NoteOffEvent(tick=3895700, channel=0, data=[24, 0]),
   midi.NoteOnEvent(tick=3895800, channel=0, data=[36, 100]),
   midi.NoteOffEvent(tick=3895900, channel=0, data=[36, 0]),
   midi.NoteOnEvent(tick=3896000, channel=0, data=[18, 100]),
   midi.NoteOffEvent(tick=3896100, channel=0, data=[18, 0]),
   midi.NoteOnEvent(tick=3896200, channel=0, data=[15, 100]),
   midi.NoteOffEvent(tick=3896300, channel=0, data=[15, 0]),
   midi.NoteOnEvent(tick=3896400, channel=0, data=[4, 100]),
   midi.NoteOffEvent(tick=3896500, channel=0, data=[4, 0]),
   midi.NoteOnEvent(tick=3896600, channel=0, data=[2, 100]),
   midi.NoteOffEvent(tick=3896700, channel=0, data=[2, 0]),
   midi.NoteOnEvent(tick=3896800, channel=0, data=[8, 100]),
   midi.NoteOffEvent(tick=3896900, channel=0, data=[8, 0]),
   midi.NoteOnEvent(tick=3897000, channel=0, data=[5, 100]),
   midi.NoteOffEvent(tick=3897100, channel=0, data=[5, 0]),
   midi.NoteOnEvent(tick=3897200, channel=0, data=[24, 100]),
   midi.NoteOffEvent(tick=3897300, channel=0, data=[24, 0]),
   midi.NoteOnEvent(tick=3897400, channel=0, data=[8, 100]),
   midi.NoteOffEvent(tick=3897500, channel=0, data=[8, 0]),
   midi.NoteOnEvent(tick=3897600, channel=0, data=[13, 100]),
   midi.NoteOffEvent(tick=3897700, channel=0, data=[13, 0]),
   midi.NoteOnEvent(tick=3897800, channel=0, data=[6, 100]),
   midi.NoteOffEvent(tick=3897900, channel=0, data=[6, 0]),
   midi.NoteOnEvent(tick=3898000, channel=0, data=[36, 100]),
   midi.NoteOffEvent(tick=3898100, channel=0, data=[36, 0]),
   midi.NoteOnEvent(tick=3898200, channel=0, data=[0, 100]),
   midi.NoteOffEvent(tick=3898300, channel=0, data=[0, 0]),
   midi.NoteOnEvent(tick=3898400, channel=0, data=[13, 100]),
   midi.NoteOffEvent(tick=3898500, channel=0, data=[13, 0]),
   midi.NoteOnEvent(tick=3898600, channel=0, data=[14, 100]),
   midi.NoteOffEvent(tick=3898700, channel=0, data=[14, 0]),
   midi.NoteOnEvent(tick=3898800, channel=0, data=[19, 100]),
   midi.NoteOffEvent(tick=3898900, channel=0, data=[19, 0]),
   midi.NoteOnEvent(tick=3899000, channel=0, data=[7, 100]),
   midi.NoteOffEvent(tick=3899100, channel=0, data=[7, 0]),
   midi.NoteOnEvent(tick=3899200, channel=0, data=[4, 100]),
   midi.NoteOffEvent(tick=3899300, channel=0, data=[4, 0]),
   midi.NoteOnEvent(tick=3899400, channel=0, data=[17, 100]),
   midi.NoteOffEvent(tick=3899500, channel=0, data=[17, 0]),
   midi.NoteOnEvent(tick=3899600, channel=0, data=[36, 100]),
   midi.NoteOffEvent(tick=3899700, channel=0, data=[36, 0]),
   midi.NoteOnEvent(tick=3899800, channel=0, data=[56, 100]),
   midi.NoteOffEvent(tick=3899900, channel=0, data=[56, 0]),
   midi.NoteOnEvent(tick=3900000, channel=0, data=[36, 100]),
   midi.NoteOffEvent(tick=3900100, channel=0, data=[36, 0]),
   midi.NoteOnEvent(tick=3900200, channel=0, data=[36, 100]),
   midi.NoteOffEvent(tick=3900300, channel=0, data=[36, 0]),
   midi.NoteOnEvent(tick=3900400, channel=0, data=[36, 100]),
   midi.NoteOffEvent(tick=3900500, channel=0, data=[36, 0]),
   midi.NoteOnEvent(tick=3900600, channel=0, data=[36, 100]),
   midi.NoteOffEvent(tick=3900700, channel=0, data=[36, 0]),
   midi.NoteOnEvent(tick=3900800, channel=0, data=[19, 100]),
   midi.NoteOffEvent(tick=3900900, channel=0, data=[19, 0]),
   midi.NoteOnEvent(tick=3901000, channel=0, data=[24, 100]),
   midi.NoteOffEvent(tick=3901100, channel=0, data=[24, 0]),
   midi.NoteOnEvent(tick=3901200, channel=0, data=[15, 100]),
   midi.NoteOffEvent(tick=3901300, channel=0, data=[15, 0]),
   midi.NoteOnEvent(tick=3901400, channel=0, data=[4, 100]),
   midi.NoteOffEvent(tick=3901500, channel=0, data=[4, 0]),
   midi.NoteOnEvent(tick=3901600, channel=0, data=[37, 100]),
   midi.NoteOffEvent(tick=3901700, channel=0, data=[37, 0]),
   midi.NoteOnEvent(tick=3901800, channel=0, data=[36, 100]),
   midi.NoteOffEvent(tick=3901900, channel=0, data=[36, 0]),
   midi.NoteOnEvent(tick=3902000, channel=0, data=[5, 100]),
   midi.NoteOffEvent(tick=3902100, channel=0, data=[5, 0]),
   midi.NoteOnEvent(tick=3902200, channel=0, data=[14, 100]),
   midi.NoteOffEvent(tick=3902300, channel=0, data=[14, 0]),
   midi.NoteOnEvent(tick=3902400, channel=0, data=[17, 100]),
   midi.NoteOffEvent(tick=3902500, channel=0, data=[17, 0]),
   midi.NoteOnEvent(tick=3902600, channel=0, data=[36, 100]),
   midi.NoteOffEvent(tick=3902700, channel=0, data=[36, 0]),
   midi.NoteOnEvent(tick=3902800, channel=0, data=[4, 100]),
   midi.NoteOffEvent(tick=3902900, channel=0, data=[4, 0]),
   midi.NoteOnEvent(tick=3903000, channel=0, data=[23, 100]),
   midi.NoteOffEvent(tick=3903100, channel=0, data=[23, 0]),
   midi.NoteOnEvent(tick=3903200, channel=0, data=[0, 100]),
   midi.NoteOffEvent(tick=3903300, channel=0, data=[0, 0]),
   midi.NoteOnEvent(tick=3903400, channel=0, data=[12, 100]),
   midi.NoteOffEvent(tick=3903500, channel=0, data=[12, 0]),
   midi.NoteOnEvent(tick=3903600, channel=0, data=[15, 100]),
   midi.NoteOffEvent(tick=3903700, channel=0, data=[15, 0]),
   midi.NoteOnEvent(tick=3903800, channel=0, data=[11, 100]),
   midi.NoteOffEvent(tick=3903900, channel=0, data=[11, 0]),
   midi.NoteOnEvent(tick=3904000, channel=0, data=[4, 100]),
   midi.NoteOffEvent(tick=3904100, channel=0, data=[4, 0]),
   midi.NoteOnEvent(tick=3904200, channel=0, data=[38, 100]),
   midi.NoteOffEvent(tick=3904300, channel=0, data=[38, 0]),
   midi.NoteOnEvent(tick=3904400, channel=0, data=[36, 100]),
   midi.NoteOffEvent(tick=3904500, channel=0, data=[36, 0]),
   midi.NoteOnEvent(tick=3904600, channel=0, data=[19, 100]),
   midi.NoteOffEvent(tick=3904700, channel=0, data=[19, 0]),
   midi.NoteOnEvent(tick=3904800, channel=0, data=[7, 100]),
   midi.NoteOffEvent(tick=3904900, channel=0, data=[7, 0]),
   midi.NoteOnEvent(tick=3905000, channel=0, data=[4, 100]),
   midi.NoteOffEvent(tick=3905100, channel=0, data=[4, 0]),
   midi.NoteOnEvent(tick=3905200, channel=0, data=[36, 100]),
   midi.NoteOffEvent(tick=3905300, channel=0, data=[36, 0]),
   midi.NoteOnEvent(tick=3905400, channel=0, data=[5, 100]),
   midi.NoteOffEvent(tick=3905500, channel=0, data=[5, 0]),
   midi.NoteOnEvent(tick=3905600, channel=0, data=[14, 100]),
   midi.NoteOffEvent(tick=3905700, channel=0, data=[14, 0]),
   midi.NoteOnEvent(tick=3905800, channel=0, data=[11, 100]),
   midi.NoteOffEvent(tick=3905900, channel=0, data=[11, 0]),
   midi.NoteOnEvent(tick=3906000, channel=0, data=[11, 100]),
   midi.NoteOffEvent(tick=3906100, channel=0, data=[11, 0]),
   midi.NoteOnEvent(tick=3906200, channel=0, data=[14, 100]),
   midi.NoteOffEvent(tick=3906300, channel=0, data=[14, 0]),
   midi.NoteOnEvent(tick=3906400, channel=0, data=[22, 100]),
   midi.NoteOffEvent(tick=3906500, channel=0, data=[22, 0]),
   midi.NoteOnEvent(tick=3906600, channel=0, data=[8, 100]),
   midi.NoteOffEvent(tick=3906700, channel=0, data=[8, 0]),
   midi.NoteOnEvent(tick=3906800, channel=0, data=[13, 100]),
   midi.NoteOffEvent(tick=3906900, channel=0, data=[13, 0]),
   midi.NoteOnEvent(tick=3907000, channel=0, data=[6, 100]),
   midi.NoteOffEvent(tick=3907100, channel=0, data=[6, 0]),
   midi.NoteOnEvent(tick=3907200, channel=0, data=[36, 100]),
   midi.NoteOffEvent(tick=3907300, channel=0, data=[36, 0]),
   midi.NoteOnEvent(tick=3907400, channel=0, data=[2, 100]),
   midi.NoteOffEvent(tick=3907500, channel=0, data=[2, 0]),
   midi.NoteOnEvent(tick=3907600, channel=0, data=[14, 100]),
   midi.NoteOffEvent(tick=3907700, channel=0, data=[14, 0]),
   midi.NoteOnEvent(tick=3907800, channel=0, data=[12, 100]),
   midi.NoteOffEvent(tick=3907900, channel=0, data=[12, 0]),
   midi.NoteOnEvent(tick=3908000, channel=0, data=[12, 100]),
   midi.NoteOffEvent(tick=3908100, channel=0, data=[12, 0]),
   midi.NoteOnEvent(tick=3908200, channel=0, data=[0, 100]),
   midi.NoteOffEvent(tick=3908300, channel=0, data=[0, 0]),
   midi.NoteOnEvent(tick=3908400, channel=0, data=[13, 100]),
   midi.NoteOffEvent(tick=3908500, channel=0, data=[13, 0]),
   midi.NoteOnEvent(tick=3908600, channel=0, data=[3, 100]),
   midi.NoteOffEvent(tick=3908700, channel=0, data=[3, 0]),
   midi.NoteOnEvent(tick=3908800, channel=0, data=[36, 100]),
   midi.NoteOffEvent(tick=3908900, channel=0, data=[36, 0]),
   midi.NoteOnEvent(tick=3909000, channel=0, data=[2, 100]),
   midi.NoteOffEvent(tick=3909100, channel=0, data=[2, 0]),
   midi.NoteOnEvent(tick=3909200, channel=0, data=[0, 100]),
   midi.NoteOffEvent(tick=3909300, channel=0, data=[0, 0]),
   midi.NoteOnEvent(tick=3909400, channel=0, data=[18, 100]),
   midi.NoteOffEvent(tick=3909500, channel=0, data=[18, 0]),
   midi.NoteOnEvent(tick=3909600, channel=0, data=[19, 100]),
   midi.NoteOffEvent(tick=3909700, channel=0, data=[19, 0]),
   midi.NoteOnEvent(tick=3909800, channel=0, data=[18, 100]),
   midi.NoteOffEvent(tick=3909900, channel=0, data=[18, 0]),
   midi.NoteOnEvent(tick=3910000, channel=0, data=[36, 100]),
   midi.NoteOffEvent(tick=3910100, channel=0, data=[36, 0]),
   midi.NoteOnEvent(tick=3910200, channel=0, data=[19, 100]),
   midi.NoteOffEvent(tick=3910300, channel=0, data=[19, 0]),
   midi.NoteOnEvent(tick=3910400, channel=0, data=[7, 100]),
   midi.NoteOffEvent(tick=3910500, channel=0, data=[7, 0]),
   midi.NoteOnEvent(tick=3910600, channel=0, data=[4, 100]),
   midi.NoteOffEvent(tick=3910700, channel=0, data=[4, 0]),
   midi.NoteOnEvent(tick=3910800, channel=0, data=[36, 100]),
   midi.NoteOffEvent(tick=3910900, channel=0, data=[36, 0]),
   midi.NoteOnEvent(tick=3911000, channel=0, data=[21, 100]),
   midi.NoteOffEvent(tick=3911100, channel=0, data=[21, 0]),
   midi.NoteOnEvent(tick=3911200, channel=0, data=[0, 100]),
   midi.NoteOffEvent(tick=3911300, channel=0, data=[0, 0]),
   midi.NoteOnEvent(tick=3911400, channel=0, data=[17, 100]),
   midi.NoteOffEvent(tick=3911500, channel=0, data=[17, 0]),
   midi.NoteOnEvent(tick=3911600, channel=0, data=[8, 100]),
   midi.NoteOffEvent(tick=3911700, channel=0, data=[8, 0]),
   midi.NoteOnEvent(tick=3911800, channel=0, data=[0, 100]),
   midi.NoteOffEvent(tick=3911900, channel=0, data=[0, 0]),
   midi.NoteOnEvent(tick=3912000, channel=0, data=[1, 100]),
   midi.NoteOffEvent(tick=3912100, channel=0, data=[1, 0]),
   midi.NoteOnEvent(tick=3912200, channel=0, data=[11, 100]),
   midi.NoteOffEvent(tick=3912300, channel=0, data=[11, 0]),
   midi.NoteOnEvent(tick=3912400, channel=0, data=[4, 100]),
   midi.NoteOffEvent(tick=3912500, channel=0, data=[4, 0]),
   midi.NoteOnEvent(tick=3912600, channel=0, data=[36, 100]),
   midi.NoteOffEvent(tick=3912700, channel=0, data=[36, 0]),
   midi.NoteOnEvent(tick=3912800, channel=0, data=[0, 100]),
   midi.NoteOffEvent(tick=3912900, channel=0, data=[0, 0]),
   midi.NoteOnEvent(tick=3913000, channel=0, data=[18, 100]),
   midi.NoteOffEvent(tick=3913100, channel=0, data=[18, 0]),
   midi.NoteOnEvent(tick=3913200, channel=0, data=[36, 100]),
   midi.NoteOffEvent(tick=3913300, channel=0, data=[36, 0]),
   midi.NoteOnEvent(tick=3913400, channel=0, data=[0, 100]),
   midi.NoteOffEvent(tick=3913500, channel=0, data=[0, 0]),
   midi.NoteOnEvent(tick=3913600, channel=0, data=[36, 100]),
   midi.NoteOffEvent(tick=3913700, channel=0, data=[36, 0]),
   midi.NoteOnEvent(tick=3913800, channel=0, data=[18, 100]),
   midi.NoteOffEvent(tick=3913900, channel=0, data=[18, 0]),
   midi.NoteOnEvent(tick=3914000, channel=0, data=[19, 100]),
   midi.NoteOffEvent(tick=3914100, channel=0, data=[19, 0]),
   midi.NoteOnEvent(tick=3914200, channel=0, data=[17, 100]),
   midi.NoteOffEvent(tick=3914300, channel=0, data=[17, 0]),
   midi.NoteOnEvent(tick=3914400, channel=0, data=[8, 100]),
   midi.NoteOffEvent(tick=3914500, channel=0, data=[8, 0]),
   midi.NoteOnEvent(tick=3914600, channel=0, data=[13, 100]),
   midi.NoteOffEvent(tick=3914700, channel=0, data=[13, 0]),
   midi.NoteOnEvent(tick=3914800, channel=0, data=[6, 100]),
   midi.NoteOffEvent(tick=3914900, channel=0, data=[6, 0]),
   midi.NoteOnEvent(tick=3915000, channel=0, data=[36, 100]),
   midi.NoteOffEvent(tick=3915100, channel=0, data=[36, 0]),
   midi.NoteOnEvent(tick=3915200, channel=0, data=[51, 100]),
   midi.NoteOffEvent(tick=3915300, channel=0, data=[51, 0]),
   midi.NoteOnEvent(tick=3915400, channel=0, data=[52, 100]),
   midi.NoteOffEvent(tick=3915500, channel=0, data=[52, 0]),
   midi.NoteOnEvent(tick=3915600, channel=0, data=[36, 100]),
   midi.NoteOffEvent(tick=3915700, channel=0, data=[36, 0]),
   midi.NoteOnEvent(tick=3915800, channel=0, data=[56, 100]),
   midi.NoteOffEvent(tick=3915900, channel=0, data=[56, 0]),
   midi.NoteOnEvent(tick=3916000, channel=0, data=[36, 100]),
   midi.NoteOffEvent(tick=3916100, channel=0, data=[36, 0]),
   midi.NoteOnEvent(tick=3916200, channel=0, data=[36, 100]),
   midi.NoteOffEvent(tick=3916300, channel=0, data=[36, 0]),
   midi.NoteOnEvent(tick=3916400, channel=0, data=[36, 100]),
   midi.NoteOffEvent(tick=3916500, channel=0, data=[36, 0]),
   midi.NoteOnEvent(tick=3916600, channel=0, data=[36, 100]),
   midi.NoteOffEvent(tick=3916700, channel=0, data=[36, 0]),
   midi.NoteOnEvent(tick=3916800, channel=0, data=[0, 100]),
   midi.NoteOffEvent(tick=3916900, channel=0, data=[0, 0]),
   midi.NoteOnEvent(tick=3917000, channel=0, data=[17, 100]),
   midi.NoteOffEvent(tick=3917100, channel=0, data=[17, 0]),
   midi.NoteOnEvent(tick=3917200, channel=0, data=[17, 100]),
   midi.NoteOffEvent(tick=3917300, channel=0, data=[17, 0]),
   midi.NoteOnEvent(tick=3917400, channel=0, data=[0, 100]),
   midi.NoteOffEvent(tick=3917500, channel=0, data=[0, 0]),
   midi.NoteOnEvent(tick=3917600, channel=0, data=[24, 100]),
   midi.NoteOffEvent(tick=3917700, channel=0, data=[24, 0]),
   midi.NoteOnEvent(tick=3917800, channel=0, data=[36, 100]),
   midi.NoteOffEvent(tick=3917900, channel=0, data=[36, 0]),
   midi.NoteOnEvent(tick=3918000, channel=0, data=[19, 100]),
   midi.NoteOffEvent(tick=3918100, channel=0, data=[19, 0]),
   midi.NoteOnEvent(tick=3918200, channel=0, data=[24, 100]),
   midi.NoteOffEvent(tick=3918300, channel=0, data=[24, 0]),
   midi.NoteOnEvent(tick=3918400, channel=0, data=[15, 100]),
   midi.NoteOffEvent(tick=3918500, channel=0, data=[15, 0]),
   midi.NoteOnEvent(tick=3918600, channel=0, data=[4, 100]),
   midi.NoteOffEvent(tick=3918700, channel=0, data=[4, 0]),
   midi.NoteOnEvent(tick=3918800, channel=0, data=[46, 100]),
   midi.NoteOffEvent(tick=3918900, channel=0, data=[46, 0]),
   midi.NoteOnEvent(tick=3919000, channel=0, data=[56, 100]),
   midi.NoteOffEvent(tick=3919100, channel=0, data=[56, 0]),
   midi.NoteOnEvent(tick=3919200, channel=0, data=[56, 100]),
   midi.NoteOffEvent(tick=3919300, channel=0, data=[56, 0]),
   midi.NoteOnEvent(tick=3919400, channel=0, data=[56, 100]),
   midi.NoteOffEvent(tick=3919500, channel=0, data=[56, 0]),
   midi.NoteOnEvent(tick=3919600, channel=0, data=[56, 100]),
   midi.NoteOffEvent(tick=3919700, channel=0, data=[56, 0]),
   midi.NoteOnEvent(tick=3919800, channel=0, data=[36, 100]),
   midi.NoteOffEvent(tick=3919900, channel=0, data=[36, 0]),
   midi.NoteOnEvent(tick=3920000, channel=0, data=[36, 100]),
   midi.NoteOffEvent(tick=3920100, channel=0, data=[36, 0]),
   midi.NoteOnEvent(tick=3920200, channel=0, data=[36, 100]),
   midi.NoteOffEvent(tick=3920300, channel=0, data=[36, 0]),
   midi.NoteOnEvent(tick=3920400, channel=0, data=[36, 100]),
   midi.NoteOffEvent(tick=3920500, channel=0, data=[36, 0]),
   midi.NoteOnEvent(tick=3920600, channel=0, data=[36, 100]),
   midi.NoteOffEvent(tick=3920700, channel=0, data=[36, 0]),
   midi.NoteOnEvent(tick=3920800, channel=0, data=[36, 100]),
   midi.NoteOffEvent(tick=3920900, channel=0, data=[36, 0]),
   midi.NoteOnEvent(tick=3921000, channel=0, data=[36, 100]),
   midi.NoteOffEvent(tick=3921100, channel=0, data=[36, 0]),
   midi.NoteOnEvent(tick=3921200, channel=0, data=[36, 100]),
   midi.NoteOffEvent(tick=3921300, channel=0, data=[36, 0]),
   midi.NoteOnEvent(tick=3921400, channel=0, data=[51, 100]),
   midi.NoteOffEvent(tick=3921500, channel=0, data=[51, 0]),
   midi.NoteOnEvent(tick=3921600, channel=0, data=[18, 100]),
   midi.NoteOffEvent(tick=3921700, channel=0, data=[18, 0]),
   midi.NoteOnEvent(tick=3921800, channel=0, data=[19, 100]),
   midi.NoteOffEvent(tick=3921900, channel=0, data=[19, 0]),
   midi.NoteOnEvent(tick=3922000, channel=0, data=[17, 100]),
   midi.NoteOffEvent(tick=3922100, channel=0, data=[17, 0]),
   midi.NoteOnEvent(tick=3922200, channel=0, data=[8, 100]),
   midi.NoteOffEvent(tick=3922300, channel=0, data=[8, 0]),
   midi.NoteOnEvent(tick=3922400, channel=0, data=[13, 100]),
   midi.NoteOffEvent(tick=3922500, channel=0, data=[13, 0]),
   midi.NoteOnEvent(tick=3922600, channel=0, data=[6, 100]),
   midi.NoteOffEvent(tick=3922700, channel=0, data=[6, 0]),
   midi.NoteOnEvent(tick=3922800, channel=0, data=[36, 100]),
   midi.NoteOffEvent(tick=3922900, channel=0, data=[36, 0]),
   midi.NoteOnEvent(tick=3923000, channel=0, data=[51, 100]),
   midi.NoteOffEvent(tick=3923100, channel=0, data=[51, 0]),
   midi.NoteOnEvent(tick=3923200, channel=0, data=[52, 100]),
   midi.NoteOffEvent(tick=3923300, channel=0, data=[52, 0]),
   midi.NoteOnEvent(tick=3923400, channel=0, data=[52, 100]),
   midi.NoteOffEvent(tick=3923500, channel=0, data=[52, 0]),
   midi.NoteOnEvent(tick=3923600, channel=0, data=[36, 100]),
   midi.NoteOffEvent(tick=3923700, channel=0, data=[36, 0]),
   midi.NoteOnEvent(tick=3923800, channel=0, data=[74, 100]),
   midi.NoteOffEvent(tick=3923900, channel=0, data=[74, 0]),
   midi.NoteOnEvent(tick=3924000, channel=0, data=[0, 100]),
   midi.NoteOffEvent(tick=3924100, channel=0, data=[0, 0]),
   midi.NoteOnEvent(tick=3924200, channel=0, data=[36, 100]),
   midi.NoteOffEvent(tick=3924300, channel=0, data=[36, 0]),
   midi.NoteOnEvent(tick=3924400, channel=0, data=[69, 100]),
   midi.NoteOffEvent(tick=3924500, channel=0, data=[69, 0]),
   midi.NoteOnEvent(tick=3924600, channel=0, data=[36, 100]),
   midi.NoteOffEvent(tick=3924700, channel=0, data=[36, 0]),
   midi.NoteOnEvent(tick=3924800, channel=0, data=[41, 100]),
   midi.NoteOffEvent(tick=3924900, channel=0, data=[41, 0]),
   midi.NoteOnEvent(tick=3925000, channel=0, data=[14, 100]),
   midi.NoteOffEvent(tick=3925100, channel=0, data=[14, 0]),
   midi.NoteOnEvent(tick=3925200, channel=0, data=[13, 100]),
   midi.NoteOffEvent(tick=3925300, channel=0, data=[13, 0]),
   midi.NoteOnEvent(tick=3925400, channel=0, data=[4, 100]),
   midi.NoteOffEvent(tick=3925500, channel=0, data=[4, 0]),
   midi.NoteOnEvent(tick=3925600, channel=0, data=[41, 100]),
   midi.NoteOffEvent(tick=3925700, channel=0, data=[41, 0]),
   midi.NoteOnEvent(tick=3925800, channel=0, data=[38, 100]),
   midi.NoteOffEvent(tick=3925900, channel=0, data=[38, 0]),
   midi.NoteOnEvent(tick=3926000, channel=0, data=[36, 100]),
   midi.NoteOffEvent(tick=3926100, channel=0, data=[36, 0]),
   midi.NoteOnEvent(tick=3926200, channel=0, data=[41, 100]),
   midi.NoteOffEvent(tick=3926300, channel=0, data=[41, 0]),
   midi.NoteOnEvent(tick=3926400, channel=0, data=[19, 100]),
   midi.NoteOffEvent(tick=3926500, channel=0, data=[19, 0]),
   midi.NoteOnEvent(tick=3926600, channel=0, data=[22, 100]),
   midi.NoteOffEvent(tick=3926700, channel=0, data=[22, 0]),
   midi.NoteOnEvent(tick=3926800, channel=0, data=[14, 100]),
   midi.NoteOffEvent(tick=3926900, channel=0, data=[14, 0]),
   midi.NoteOnEvent(tick=3927000, channel=0, data=[41, 100]),
   midi.NoteOffEvent(tick=3927100, channel=0, data=[41, 0]),
   midi.NoteOnEvent(tick=3927200, channel=0, data=[38, 100]),
   midi.NoteOffEvent(tick=3927300, channel=0, data=[38, 0]),
   midi.NoteOnEvent(tick=3927400, channel=0, data=[36, 100]),
   midi.NoteOffEvent(tick=3927500, channel=0, data=[36, 0]),
   midi.NoteOnEvent(tick=3927600, channel=0, data=[41, 100]),
   midi.NoteOffEvent(tick=3927700, channel=0, data=[41, 0]),
   midi.NoteOnEvent(tick=3927800, channel=0, data=[19, 100]),
   midi.NoteOffEvent(tick=3927900, channel=0, data=[19, 0]),
   midi.NoteOnEvent(tick=3928000, channel=0, data=[7, 100]),
   midi.NoteOffEvent(tick=3928100, channel=0, data=[7, 0]),
   midi.NoteOnEvent(tick=3928200, channel=0, data=[17, 100]),
   midi.NoteOffEvent(tick=3928300, channel=0, data=[17, 0]),
   midi.NoteOnEvent(tick=3928400, channel=0, data=[4, 100]),
   midi.NoteOffEvent(tick=3928500, channel=0, data=[4, 0]),
   midi.NoteOnEvent(tick=3928600, channel=0, data=[4, 100]),
   midi.NoteOffEvent(tick=3928700, channel=0, data=[4, 0]),
   midi.NoteOnEvent(tick=3928800, channel=0, data=[41, 100]),
   midi.NoteOffEvent(tick=3928900, channel=0, data=[41, 0]),
   midi.NoteOnEvent(tick=3929000, channel=0, data=[56, 100]),
   midi.NoteOffEvent(tick=3929100, channel=0, data=[56, 0]),
   midi.NoteOnEvent(tick=3929200, channel=0, data=[36, 100]),
   midi.NoteOffEvent(tick=3929300, channel=0, data=[36, 0]),
   midi.NoteOnEvent(tick=3929400, channel=0, data=[56, 100]),
   midi.NoteOffEvent(tick=3929500, channel=0, data=[56, 0]),
   midi.NoteOnEvent(tick=3929600, channel=0, data=[56, 100]),
   midi.NoteOffEvent(tick=3929700, channel=0, data=[56, 0]),
   midi.NoteOnEvent(tick=3929800, channel=0, data=[36, 100]),
   midi.NoteOffEvent(tick=3929900, channel=0, data=[36, 0]),
   midi.NoteOnEvent(tick=3930000, channel=0, data=[36, 100]),
   midi.NoteOffEvent(tick=3930100, channel=0, data=[36, 0]),
   midi.NoteOnEvent(tick=3930200, channel=0, data=[36, 100]),
   midi.NoteOffEvent(tick=3930300, channel=0, data=[36, 0]),
   midi.NoteOnEvent(tick=3930400, channel=0, data=[36, 100]),
   midi.NoteOffEvent(tick=3930500, channel=0, data=[36, 0]),
   midi.NoteOnEvent(tick=3930600, channel=0, data=[22, 100]),
   midi.NoteOffEvent(tick=3930700, channel=0, data=[22, 0]),
   midi.NoteOnEvent(tick=3930800, channel=0, data=[8, 100]),
   midi.NoteOffEvent(tick=3930900, channel=0, data=[8, 0]),
   midi.NoteOnEvent(tick=3931000, channel=0, data=[13, 100]),
   midi.NoteOffEvent(tick=3931100, channel=0, data=[13, 0]),
   midi.NoteOnEvent(tick=3931200, channel=0, data=[3, 100]),
   midi.NoteOffEvent(tick=3931300, channel=0, data=[3, 0]),
   midi.NoteOnEvent(tick=3931400, channel=0, data=[14, 100]),
   midi.NoteOffEvent(tick=3931500, channel=0, data=[14, 0]),
   midi.NoteOnEvent(tick=3931600, channel=0, data=[22, 100]),
   midi.NoteOffEvent(tick=3931700, channel=0, data=[22, 0]),
   midi.NoteOnEvent(tick=3931800, channel=0, data=[18, 100]),
   midi.NoteOffEvent(tick=3931900, channel=0, data=[18, 0]),
   midi.NoteOnEvent(tick=3932000, channel=0, data=[36, 100]),
   midi.NoteOffEvent(tick=3932100, channel=0, data=[36, 0]),
   midi.NoteOnEvent(tick=3932200, channel=0, data=[15, 100]),
   midi.NoteOffEvent(tick=3932300, channel=0, data=[15, 0]),
   midi.NoteOnEvent(tick=3932400, channel=0, data=[14, 100]),
   midi.NoteOffEvent(tick=3932500, channel=0, data=[14, 0]),
   midi.NoteOnEvent(tick=3932600, channel=0, data=[22, 100]),
   midi.NoteOffEvent(tick=3932700, channel=0, data=[22, 0]),
   midi.NoteOnEvent(tick=3932800, channel=0, data=[4, 100]),
   midi.NoteOffEvent(tick=3932900, channel=0, data=[4, 0]),
   midi.NoteOnEvent(tick=3933000, channel=0, data=[17, 100]),
   midi.NoteOffEvent(tick=3933100, channel=0, data=[17, 0]),
   midi.NoteOnEvent(tick=3933200, channel=0, data=[18, 100]),
   midi.NoteOffEvent(tick=3933300, channel=0, data=[18, 0]),
   midi.NoteOnEvent(tick=3933400, channel=0, data=[7, 100]),
   midi.NoteOffEvent(tick=3933500, channel=0, data=[7, 0]),
   midi.NoteOnEvent(tick=3933600, channel=0, data=[4, 100]),
   midi.NoteOffEvent(tick=3933700, channel=0, data=[4, 0]),
   midi.NoteOnEvent(tick=3933800, channel=0, data=[11, 100]),
   midi.NoteOffEvent(tick=3933900, channel=0, data=[11, 0]),
   midi.NoteOnEvent(tick=3934000, channel=0, data=[11, 100]),
   midi.NoteOffEvent(tick=3934100, channel=0, data=[11, 0]),
   midi.NoteOnEvent(tick=3934200, channel=0, data=[36, 100]),
   midi.NoteOffEvent(tick=3934300, channel=0, data=[36, 0]),
   midi.NoteOnEvent(tick=3934400, channel=0, data=[21, 100]),
   midi.NoteOffEvent(tick=3934500, channel=0, data=[21, 0]),
   midi.NoteOnEvent(tick=3934600, channel=0, data=[0, 100]),
   midi.NoteOffEvent(tick=3934700, channel=0, data=[0, 0]),
   midi.NoteOnEvent(tick=3934800, channel=0, data=[17, 100]),
   midi.NoteOffEvent(tick=3934900, channel=0, data=[17, 0]),
   midi.NoteOnEvent(tick=3935000, channel=0, data=[8, 100]),
   midi.NoteOffEvent(tick=3935100, channel=0, data=[8, 0]),
   midi.NoteOnEvent(tick=3935200, channel=0, data=[0, 100]),
   midi.NoteOffEvent(tick=3935300, channel=0, data=[0, 0]),
   midi.NoteOnEvent(tick=3935400, channel=0, data=[1, 100]),
   midi.NoteOffEvent(tick=3935500, channel=0, data=[1, 0]),
   midi.NoteOnEvent(tick=3935600, channel=0, data=[11, 100]),
   midi.NoteOffEvent(tick=3935700, channel=0, data=[11, 0]),
   midi.NoteOnEvent(tick=3935800, channel=0, data=[4, 100]),
   midi.NoteOffEvent(tick=3935900, channel=0, data=[4, 0]),
   midi.NoteOnEvent(tick=3936000, channel=0, data=[18, 100]),
   midi.NoteOffEvent(tick=3936100, channel=0, data=[18, 0]),
   midi.NoteOnEvent(tick=3936200, channel=0, data=[36, 100]),
   midi.NoteOffEvent(tick=3936300, channel=0, data=[36, 0]),
   midi.NoteOnEvent(tick=3936400, channel=0, data=[2, 100]),
   midi.NoteOffEvent(tick=3936500, channel=0, data=[2, 0]),
   midi.NoteOnEvent(tick=3936600, channel=0, data=[0, 100]),
   midi.NoteOffEvent(tick=3936700, channel=0, data=[0, 0]),
   midi.NoteOnEvent(tick=3936800, channel=0, data=[13, 100]),
   midi.NoteOffEvent(tick=3936900, channel=0, data=[13, 0]),
   midi.NoteOnEvent(tick=3937000, channel=0, data=[36, 100]),
   midi.NoteOffEvent(tick=3937100, channel=0, data=[36, 0]),
   midi.NoteOnEvent(tick=3937200, channel=0, data=[1, 100]),
   midi.NoteOffEvent(tick=3937300, channel=0, data=[1, 0]),
   midi.NoteOnEvent(tick=3937400, channel=0, data=[4, 100]),
   midi.NoteOffEvent(tick=3937500, channel=0, data=[4, 0]),
   midi.NoteOnEvent(tick=3937600, channel=0, data=[36, 100]),
   midi.NoteOffEvent(tick=3937700, channel=0, data=[36, 0]),
   midi.NoteOnEvent(tick=3937800, channel=0, data=[0, 100]),
   midi.NoteOffEvent(tick=3937900, channel=0, data=[0, 0]),
   midi.NoteOnEvent(tick=3938000, channel=0, data=[13, 100]),
   midi.NoteOffEvent(tick=3938100, channel=0, data=[13, 0]),
   midi.NoteOnEvent(tick=3938200, channel=0, data=[24, 100]),
   midi.NoteOffEvent(tick=3938300, channel=0, data=[24, 0]),
   midi.NoteOnEvent(tick=3938400, channel=0, data=[36, 100]),
   midi.NoteOffEvent(tick=3938500, channel=0, data=[36, 0]),
   midi.NoteOnEvent(tick=3938600, channel=0, data=[37, 100]),
   midi.NoteOffEvent(tick=3938700, channel=0, data=[37, 0]),
   midi.NoteOnEvent(tick=3938800, channel=0, data=[13, 100]),
   midi.NoteOffEvent(tick=3938900, channel=0, data=[13, 0]),
   midi.NoteOnEvent(tick=3939000, channel=0, data=[4, 100]),
   midi.NoteOffEvent(tick=3939100, channel=0, data=[4, 0]),
   midi.NoteOnEvent(tick=3939200, channel=0, data=[19, 100]),
   midi.NoteOffEvent(tick=3939300, channel=0, data=[19, 0]),
   midi.NoteOnEvent(tick=3939400, channel=0, data=[36, 100]),
   midi.NoteOffEvent(tick=3939500, channel=0, data=[36, 0]),
   midi.NoteOnEvent(tick=3939600, channel=0, data=[5, 100]),
   midi.NoteOffEvent(tick=3939700, channel=0, data=[5, 0]),
   midi.NoteOnEvent(tick=3939800, channel=0, data=[17, 100]),
   midi.NoteOffEvent(tick=3939900, channel=0, data=[17, 0]),
   midi.NoteOnEvent(tick=3940000, channel=0, data=[0, 100]),
   midi.NoteOffEvent(tick=3940100, channel=0, data=[0, 0]),
   midi.NoteOnEvent(tick=3940200, channel=0, data=[12, 100]),
   midi.NoteOffEvent(tick=3940300, channel=0, data=[12, 0]),
   midi.NoteOnEvent(tick=3940400, channel=0, data=[4, 100]),
   midi.NoteOffEvent(tick=3940500, channel=0, data=[4, 0]),
   midi.NoteOnEvent(tick=3940600, channel=0, data=[22, 100]),
   midi.NoteOffEvent(tick=3940700, channel=0, data=[22, 0]),
   midi.NoteOnEvent(tick=3940800, channel=0, data=[14, 100]),
   midi.NoteOffEvent(tick=3940900, channel=0, data=[14, 0]),
   midi.NoteOnEvent(tick=3941000, channel=0, data=[17, 100]),
   midi.NoteOffEvent(tick=3941100, channel=0, data=[17, 0]),
   midi.NoteOnEvent(tick=3941200, channel=0, data=[10, 100]),
   midi.NoteOffEvent(tick=3941300, channel=0, data=[10, 0]),
   midi.NoteOnEvent(tick=3941400, channel=0, data=[36, 100]),
   midi.NoteOffEvent(tick=3941500, channel=0, data=[36, 0]),
   midi.NoteOnEvent(tick=3941600, channel=0, data=[3, 100]),
   midi.NoteOffEvent(tick=3941700, channel=0, data=[3, 0]),
   midi.NoteOnEvent(tick=3941800, channel=0, data=[0, 100]),
   midi.NoteOffEvent(tick=3941900, channel=0, data=[0, 0]),
   midi.NoteOnEvent(tick=3942000, channel=0, data=[19, 100]),
   midi.NoteOffEvent(tick=3942100, channel=0, data=[19, 0]),
   midi.NoteOnEvent(tick=3942200, channel=0, data=[0, 100]),
   midi.NoteOffEvent(tick=3942300, channel=0, data=[0, 0]),
   midi.NoteOnEvent(tick=3942400, channel=0, data=[36, 100]),
   midi.NoteOffEvent(tick=3942500, channel=0, data=[36, 0]),
   midi.NoteOnEvent(tick=3942600, channel=0, data=[19, 100]),
   midi.NoteOffEvent(tick=3942700, channel=0, data=[19, 0]),
   midi.NoteOnEvent(tick=3942800, channel=0, data=[24, 100]),
   midi.NoteOffEvent(tick=3942900, channel=0, data=[24, 0]),
   midi.NoteOnEvent(tick=3943000, channel=0, data=[15, 100]),
   midi.NoteOffEvent(tick=3943100, channel=0, data=[15, 0]),
   midi.NoteOnEvent(tick=3943200, channel=0, data=[4, 100]),
   midi.NoteOffEvent(tick=3943300, channel=0, data=[4, 0]),
   midi.NoteOnEvent(tick=3943400, channel=0, data=[37, 100]),
   midi.NoteOffEvent(tick=3943500, channel=0, data=[37, 0]),
   midi.NoteOnEvent(tick=3943600, channel=0, data=[36, 100]),
   midi.NoteOffEvent(tick=3943700, channel=0, data=[36, 0]),
   midi.NoteOnEvent(tick=3943800, channel=0, data=[8, 100]),
   midi.NoteOffEvent(tick=3943900, channel=0, data=[8, 0]),
   midi.NoteOnEvent(tick=3944000, channel=0, data=[13, 100]),
   midi.NoteOffEvent(tick=3944100, channel=0, data=[13, 0]),
   midi.NoteOnEvent(tick=3944200, channel=0, data=[56, 100]),
   midi.NoteOffEvent(tick=3944300, channel=0, data=[56, 0]),
   midi.NoteOnEvent(tick=3944400, channel=0, data=[36, 100]),
   midi.NoteOffEvent(tick=3944500, channel=0, data=[36, 0]),
   midi.NoteOnEvent(tick=3944600, channel=0, data=[36, 100]),
   midi.NoteOffEvent(tick=3944700, channel=0, data=[36, 0]),
   midi.NoteOnEvent(tick=3944800, channel=0, data=[36, 100]),
   midi.NoteOffEvent(tick=3944900, channel=0, data=[36, 0]),
   midi.NoteOnEvent(tick=3945000, channel=0, data=[36, 100]),
   midi.NoteOffEvent(tick=3945100, channel=0, data=[36, 0]),
   midi.NoteOnEvent(tick=3945200, channel=0, data=[0, 100]),
   midi.NoteOffEvent(tick=3945300, channel=0, data=[0, 0]),
   midi.NoteOnEvent(tick=3945400, channel=0, data=[3, 100]),
   midi.NoteOffEvent(tick=3945500, channel=0, data=[3, 0]),
   midi.NoteOnEvent(tick=3945600, channel=0, data=[3, 100]),
   midi.NoteOffEvent(tick=3945700, channel=0, data=[3, 0]),
   midi.NoteOnEvent(tick=3945800, channel=0, data=[8, 100]),
   midi.NoteOffEvent(tick=3945900, channel=0, data=[8, 0]),
   midi.NoteOnEvent(tick=3946000, channel=0, data=[19, 100]),
   midi.NoteOffEvent(tick=3946100, channel=0, data=[19, 0]),
   midi.NoteOnEvent(tick=3946200, channel=0, data=[8, 100]),
   midi.NoteOffEvent(tick=3946300, channel=0, data=[8, 0]),
   midi.NoteOnEvent(tick=3946400, channel=0, data=[14, 100]),
   midi.NoteOffEvent(tick=3946500, channel=0, data=[14, 0]),
   midi.NoteOnEvent(tick=3946600, channel=0, data=[13, 100]),
   midi.NoteOffEvent(tick=3946700, channel=0, data=[13, 0]),
   midi.NoteOnEvent(tick=3946800, channel=0, data=[38, 100]),
   midi.NoteOffEvent(tick=3946900, channel=0, data=[38, 0]),
   midi.NoteOnEvent(tick=3947000, channel=0, data=[36, 100]),
   midi.NoteOffEvent(tick=3947100, channel=0, data=[36, 0]),
   midi.NoteOnEvent(tick=3947200, channel=0, data=[24, 100]),
   midi.NoteOffEvent(tick=3947300, channel=0, data=[24, 0]),
   midi.NoteOnEvent(tick=3947400, channel=0, data=[14, 100]),
   midi.NoteOffEvent(tick=3947500, channel=0, data=[14, 0]),
   midi.NoteOnEvent(tick=3947600, channel=0, data=[20, 100]),
   midi.NoteOffEvent(tick=3947700, channel=0, data=[20, 0]),
   midi.NoteOnEvent(tick=3947800, channel=0, data=[36, 100]),
   midi.NoteOffEvent(tick=3947900, channel=0, data=[36, 0]),
   midi.NoteOnEvent(tick=3948000, channel=0, data=[2, 100]),
   midi.NoteOffEvent(tick=3948100, channel=0, data=[2, 0]),
   midi.NoteOnEvent(tick=3948200, channel=0, data=[0, 100]),
   midi.NoteOffEvent(tick=3948300, channel=0, data=[0, 0]),
   midi.NoteOnEvent(tick=3948400, channel=0, data=[13, 100]),
   midi.NoteOffEvent(tick=3948500, channel=0, data=[13, 0]),
   midi.NoteOnEvent(tick=3948600, channel=0, data=[36, 100]),
   midi.NoteOffEvent(tick=3948700, channel=0, data=[36, 0]),
   midi.NoteOnEvent(tick=3948800, channel=0, data=[0, 100]),
   midi.NoteOffEvent(tick=3948900, channel=0, data=[0, 0]),
   midi.NoteOnEvent(tick=3949000, channel=0, data=[18, 100]),
   midi.NoteOffEvent(tick=3949100, channel=0, data=[18, 0]),
   midi.NoteOnEvent(tick=3949200, channel=0, data=[18, 100]),
   midi.NoteOffEvent(tick=3949300, channel=0, data=[18, 0]),
   midi.NoteOnEvent(tick=3949400, channel=0, data=[8, 100]),
   midi.NoteOffEvent(tick=3949500, channel=0, data=[8, 0]),
   midi.NoteOnEvent(tick=3949600, channel=0, data=[6, 100]),
   midi.NoteOffEvent(tick=3949700, channel=0, data=[6, 0]),
   midi.NoteOnEvent(tick=3949800, channel=0, data=[13, 100]),
   midi.NoteOffEvent(tick=3949900, channel=0, data=[13, 0]),
   midi.NoteOnEvent(tick=3950000, channel=0, data=[36, 100]),
   midi.NoteOffEvent(tick=3950100, channel=0, data=[36, 0]),
   midi.NoteOnEvent(tick=3950200, channel=0, data=[0, 100]),
   midi.NoteOffEvent(tick=3950300, channel=0, data=[0, 0]),
   midi.NoteOnEvent(tick=3950400, channel=0, data=[13, 100]),
   midi.NoteOffEvent(tick=3950500, channel=0, data=[13, 0]),
   midi.NoteOnEvent(tick=3950600, channel=0, data=[24, 100]),
   midi.NoteOffEvent(tick=3950700, channel=0, data=[24, 0]),
   midi.NoteOnEvent(tick=3950800, channel=0, data=[36, 100]),
   midi.NoteOffEvent(tick=3950900, channel=0, data=[36, 0]),
   midi.NoteOnEvent(tick=3951000, channel=0, data=[5, 100]),
   midi.NoteOffEvent(tick=3951100, channel=0, data=[5, 0]),
   midi.NoteOnEvent(tick=3951200, channel=0, data=[20, 100]),
   midi.NoteOffEvent(tick=3951300, channel=0, data=[20, 0]),
   midi.NoteOnEvent(tick=3951400, channel=0, data=[11, 100]),
   midi.NoteOffEvent(tick=3951500, channel=0, data=[11, 0]),
   midi.NoteOnEvent(tick=3951600, channel=0, data=[11, 100]),
   midi.NoteOffEvent(tick=3951700, channel=0, data=[11, 0]),
   midi.NoteOnEvent(tick=3951800, channel=0, data=[24, 100]),
   midi.NoteOffEvent(tick=3951900, channel=0, data=[24, 0]),
   midi.NoteOnEvent(tick=3952000, channel=0, data=[36, 100]),
   midi.NoteOffEvent(tick=3952100, channel=0, data=[36, 0]),
   midi.NoteOnEvent(tick=3952200, channel=0, data=[16, 100]),
   midi.NoteOffEvent(tick=3952300, channel=0, data=[16, 0]),
   midi.NoteOnEvent(tick=3952400, channel=0, data=[20, 100]),
   midi.NoteOffEvent(tick=3952500, channel=0, data=[20, 0]),
   midi.NoteOnEvent(tick=3952600, channel=0, data=[0, 100]),
   midi.NoteOffEvent(tick=3952700, channel=0, data=[0, 0]),
   midi.NoteOnEvent(tick=3952800, channel=0, data=[11, 100]),
   midi.NoteOffEvent(tick=3952900, channel=0, data=[11, 0]),
   midi.NoteOnEvent(tick=3953000, channel=0, data=[8, 100]),
   midi.NoteOffEvent(tick=3953100, channel=0, data=[8, 0]),
   midi.NoteOnEvent(tick=3953200, channel=0, data=[5, 100]),
   midi.NoteOffEvent(tick=3953300, channel=0, data=[5, 0]),
   midi.NoteOnEvent(tick=3953400, channel=0, data=[8, 100]),
   midi.NoteOffEvent(tick=3953500, channel=0, data=[8, 0]),
   midi.NoteOnEvent(tick=3953600, channel=0, data=[4, 100]),
   midi.NoteOffEvent(tick=3953700, channel=0, data=[4, 0]),
   midi.NoteOnEvent(tick=3953800, channel=0, data=[3, 100]),
   midi.NoteOffEvent(tick=3953900, channel=0, data=[3, 0]),
   midi.NoteOnEvent(tick=3954000, channel=0, data=[36, 100]),
   midi.NoteOffEvent(tick=3954100, channel=0, data=[36, 0]),
   midi.NoteOnEvent(tick=3954200, channel=0, data=[37, 100]),
   midi.NoteOffEvent(tick=3954300, channel=0, data=[37, 0]),
   midi.NoteOnEvent(tick=3954400, channel=0, data=[13, 100]),
   midi.NoteOffEvent(tick=3954500, channel=0, data=[13, 0]),
   midi.NoteOnEvent(tick=3954600, channel=0, data=[4, 100]),
   midi.NoteOffEvent(tick=3954700, channel=0, data=[4, 0]),
   midi.NoteOnEvent(tick=3954800, channel=0, data=[19, 100]),
   midi.NoteOffEvent(tick=3954900, channel=0, data=[19, 0]),
   midi.NoteOnEvent(tick=3955000, channel=0, data=[36, 100]),
   midi.NoteOffEvent(tick=3955100, channel=0, data=[36, 0]),
   midi.NoteOnEvent(tick=3955200, channel=0, data=[5, 100]),
   midi.NoteOffEvent(tick=3955300, channel=0, data=[5, 0]),
   midi.NoteOnEvent(tick=3955400, channel=0, data=[17, 100]),
   midi.NoteOffEvent(tick=3955500, channel=0, data=[17, 0]),
   midi.NoteOnEvent(tick=3955600, channel=0, data=[0, 100]),
   midi.NoteOffEvent(tick=3955700, channel=0, data=[0, 0]),
   midi.NoteOnEvent(tick=3955800, channel=0, data=[12, 100]),
   midi.NoteOffEvent(tick=3955900, channel=0, data=[12, 0]),
   midi.NoteOnEvent(tick=3956000, channel=0, data=[4, 100]),
   midi.NoteOffEvent(tick=3956100, channel=0, data=[4, 0]),
   midi.NoteOnEvent(tick=3956200, channel=0, data=[22, 100]),
   midi.NoteOffEvent(tick=3956300, channel=0, data=[22, 0]),
   midi.NoteOnEvent(tick=3956400, channel=0, data=[14, 100]),
   midi.NoteOffEvent(tick=3956500, channel=0, data=[14, 0]),
   midi.NoteOnEvent(tick=3956600, channel=0, data=[17, 100]),
   midi.NoteOffEvent(tick=3956700, channel=0, data=[17, 0]),
   midi.NoteOnEvent(tick=3956800, channel=0, data=[10, 100]),
   midi.NoteOffEvent(tick=3956900, channel=0, data=[10, 0]),
   midi.NoteOnEvent(tick=3957000, channel=0, data=[36, 100]),
   midi.NoteOffEvent(tick=3957100, channel=0, data=[36, 0]),
   midi.NoteOnEvent(tick=3957200, channel=0, data=[3, 100]),
   midi.NoteOffEvent(tick=3957300, channel=0, data=[3, 0]),
   midi.NoteOnEvent(tick=3957400, channel=0, data=[0, 100]),
   midi.NoteOffEvent(tick=3957500, channel=0, data=[0, 0]),
   midi.NoteOnEvent(tick=3957600, channel=0, data=[19, 100]),
   midi.NoteOffEvent(tick=3957700, channel=0, data=[19, 0]),
   midi.NoteOnEvent(tick=3957800, channel=0, data=[0, 100]),
   midi.NoteOffEvent(tick=3957900, channel=0, data=[0, 0]),
   midi.NoteOnEvent(tick=3958000, channel=0, data=[36, 100]),
   midi.NoteOffEvent(tick=3958100, channel=0, data=[36, 0]),
   midi.NoteOnEvent(tick=3958200, channel=0, data=[19, 100]),
   midi.NoteOffEvent(tick=3958300, channel=0, data=[19, 0]),
   midi.NoteOnEvent(tick=3958400, channel=0, data=[24, 100]),
   midi.NoteOffEvent(tick=3958500, channel=0, data=[24, 0]),
   midi.NoteOnEvent(tick=3958600, channel=0, data=[15, 100]),
   midi.NoteOffEvent(tick=3958700, channel=0, data=[15, 0]),
   midi.NoteOnEvent(tick=3958800, channel=0, data=[4, 100]),
   midi.NoteOffEvent(tick=3958900, channel=0, data=[4, 0]),
   midi.NoteOnEvent(tick=3959000, channel=0, data=[36, 100]),
   midi.NoteOffEvent(tick=3959100, channel=0, data=[36, 0]),
   midi.NoteOnEvent(tick=3959200, channel=0, data=[19, 100]),
   midi.NoteOffEvent(tick=3959300, channel=0, data=[19, 0]),
   midi.NoteOnEvent(tick=3959400, channel=0, data=[7, 100]),
   midi.NoteOffEvent(tick=3959500, channel=0, data=[7, 0]),
   midi.NoteOnEvent(tick=3959600, channel=0, data=[0, 100]),
   midi.NoteOffEvent(tick=3959700, channel=0, data=[0, 0]),
   midi.NoteOnEvent(tick=3959800, channel=0, data=[19, 100]),
   midi.NoteOffEvent(tick=3959900, channel=0, data=[19, 0]),
   midi.NoteOnEvent(tick=3960000, channel=0, data=[56, 100]),
   midi.NoteOffEvent(tick=3960100, channel=0, data=[56, 0]),
   midi.NoteOnEvent(tick=3960200, channel=0, data=[36, 100]),
   midi.NoteOffEvent(tick=3960300, channel=0, data=[36, 0]),
   midi.NoteOnEvent(tick=3960400, channel=0, data=[36, 100]),
   midi.NoteOffEvent(tick=3960500, channel=0, data=[36, 0]),
   midi.NoteOnEvent(tick=3960600, channel=0, data=[36, 100]),
   midi.NoteOffEvent(tick=3960700, channel=0, data=[36, 0]),
   midi.NoteOnEvent(tick=3960800, channel=0, data=[36, 100]),
   midi.NoteOffEvent(tick=3960900, channel=0, data=[36, 0]),
   midi.NoteOnEvent(tick=3961000, channel=0, data=[8, 100]),
   midi.NoteOffEvent(tick=3961100, channel=0, data=[8, 0]),
   midi.NoteOnEvent(tick=3961200, channel=0, data=[18, 100]),
   midi.NoteOffEvent(tick=3961300, channel=0, data=[18, 0]),
   midi.NoteOnEvent(tick=3961400, channel=0, data=[36, 100]),
   midi.NoteOffEvent(tick=3961500, channel=0, data=[36, 0]),
   midi.NoteOnEvent(tick=3961600, channel=0, data=[0, 100]),
   midi.NoteOffEvent(tick=3961700, channel=0, data=[0, 0]),
   midi.NoteOnEvent(tick=3961800, channel=0, data=[21, 100]),
   midi.NoteOffEvent(tick=3961900, channel=0, data=[21, 0]),
   midi.NoteOnEvent(tick=3962000, channel=0, data=[0, 100]),
   midi.NoteOffEvent(tick=3962100, channel=0, data=[0, 0]),
   midi.NoteOnEvent(tick=3962200, channel=0, data=[8, 100]),
   midi.NoteOffEvent(tick=3962300, channel=0, data=[8, 0]),
   midi.NoteOnEvent(tick=3962400, channel=0, data=[11, 100]),
   midi.NoteOffEvent(tick=3962500, channel=0, data=[11, 0]),
   midi.NoteOnEvent(tick=3962600, channel=0, data=[0, 100]),
   midi.NoteOffEvent(tick=3962700, channel=0, data=[0, 0]),
   midi.NoteOnEvent(tick=3962800, channel=0, data=[1, 100]),
   midi.NoteOffEvent(tick=3962900, channel=0, data=[1, 0]),
   midi.NoteOnEvent(tick=3963000, channel=0, data=[11, 100]),
   midi.NoteOffEvent(tick=3963100, channel=0, data=[11, 0]),
   midi.NoteOnEvent(tick=3963200, channel=0, data=[4, 100]),
   midi.NoteOffEvent(tick=3963300, channel=0, data=[4, 0]),
   midi.NoteOnEvent(tick=3963400, channel=0, data=[36, 100]),
   midi.NoteOffEvent(tick=3963500, channel=0, data=[36, 0]),
   midi.NoteOnEvent(tick=3963600, channel=0, data=[8, 100]),
   midi.NoteOffEvent(tick=3963700, channel=0, data=[8, 0]),
   midi.NoteOnEvent(tick=3963800, channel=0, data=[13, 100]),
   midi.NoteOffEvent(tick=3963900, channel=0, data=[13, 0]),
   midi.NoteOnEvent(tick=3964000, channel=0, data=[36, 100]),
   midi.NoteOffEvent(tick=3964100, channel=0, data=[36, 0]),
   midi.NoteOnEvent(tick=3964200, channel=0, data=[19, 100]),
   midi.NoteOffEvent(tick=3964300, channel=0, data=[19, 0]),
   midi.NoteOnEvent(tick=3964400, channel=0, data=[7, 100]),
   midi.NoteOffEvent(tick=3964500, channel=0, data=[7, 0]),
   midi.NoteOnEvent(tick=3964600, channel=0, data=[4, 100]),
   midi.NoteOffEvent(tick=3964700, channel=0, data=[4, 0]),
   midi.NoteOnEvent(tick=3964800, channel=0, data=[36, 100]),
   midi.NoteOffEvent(tick=3964900, channel=0, data=[36, 0]),
   midi.NoteOnEvent(tick=3965000, channel=0, data=[2, 100]),
   midi.NoteOffEvent(tick=3965100, channel=0, data=[2, 0]),
   midi.NoteOnEvent(tick=3965200, channel=0, data=[20, 100]),
   midi.NoteOffEvent(tick=3965300, channel=0, data=[20, 0]),
   midi.NoteOnEvent(tick=3965400, channel=0, data=[17, 100]),
   midi.NoteOffEvent(tick=3965500, channel=0, data=[17, 0]),
   midi.NoteOnEvent(tick=3965600, channel=0, data=[17, 100]),
   midi.NoteOffEvent(tick=3965700, channel=0, data=[17, 0]),
   midi.NoteOnEvent(tick=3965800, channel=0, data=[4, 100]),
   midi.NoteOffEvent(tick=3965900, channel=0, data=[4, 0]),
   midi.NoteOnEvent(tick=3966000, channel=0, data=[13, 100]),
   midi.NoteOffEvent(tick=3966100, channel=0, data=[13, 0]),
   midi.NoteOnEvent(tick=3966200, channel=0, data=[19, 100]),
   midi.NoteOffEvent(tick=3966300, channel=0, data=[19, 0]),
   midi.NoteOnEvent(tick=3966400, channel=0, data=[36, 100]),
   midi.NoteOffEvent(tick=3966500, channel=0, data=[36, 0]),
   midi.NoteOnEvent(tick=3966600, channel=0, data=[15, 100]),
   midi.NoteOffEvent(tick=3966700, channel=0, data=[15, 0]),
   midi.NoteOnEvent(tick=3966800, channel=0, data=[17, 100]),
   midi.NoteOffEvent(tick=3966900, channel=0, data=[17, 0]),
   midi.NoteOnEvent(tick=3967000, channel=0, data=[14, 100]),
   midi.NoteOffEvent(tick=3967100, channel=0, data=[14, 0]),
   midi.NoteOnEvent(tick=3967200, channel=0, data=[2, 100]),
   midi.NoteOffEvent(tick=3967300, channel=0, data=[2, 0]),
   midi.NoteOnEvent(tick=3967400, channel=0, data=[4, 100]),
   midi.NoteOffEvent(tick=3967500, channel=0, data=[4, 0]),
   midi.NoteOnEvent(tick=3967600, channel=0, data=[18, 100]),
   midi.NoteOffEvent(tick=3967700, channel=0, data=[18, 0]),
   midi.NoteOnEvent(tick=3967800, channel=0, data=[18, 100]),
   midi.NoteOffEvent(tick=3967900, channel=0, data=[18, 0]),
   midi.NoteOnEvent(tick=3968000, channel=0, data=[37, 100]),
   midi.NoteOffEvent(tick=3968100, channel=0, data=[37, 0]),
   midi.NoteOnEvent(tick=3968200, channel=0, data=[36, 100]),
   midi.NoteOffEvent(tick=3968300, channel=0, data=[36, 0]),
   midi.NoteOnEvent(tick=3968400, channel=0, data=[5, 100]),
   midi.NoteOffEvent(tick=3968500, channel=0, data=[5, 0]),
   midi.NoteOnEvent(tick=3968600, channel=0, data=[14, 100]),
   midi.NoteOffEvent(tick=3968700, channel=0, data=[14, 0]),
   midi.NoteOnEvent(tick=3968800, channel=0, data=[17, 100]),
   midi.NoteOffEvent(tick=3968900, channel=0, data=[17, 0]),
   midi.NoteOnEvent(tick=3969000, channel=0, data=[36, 100]),
   midi.NoteOffEvent(tick=3969100, channel=0, data=[36, 0]),
   midi.NoteOnEvent(tick=3969200, channel=0, data=[4, 100]),
   midi.NoteOffEvent(tick=3969300, channel=0, data=[4, 0]),
   midi.NoteOnEvent(tick=3969400, channel=0, data=[23, 100]),
   midi.NoteOffEvent(tick=3969500, channel=0, data=[23, 0]),
   midi.NoteOnEvent(tick=3969600, channel=0, data=[0, 100]),
   midi.NoteOffEvent(tick=3969700, channel=0, data=[0, 0]),
   midi.NoteOnEvent(tick=3969800, channel=0, data=[12, 100]),
   midi.NoteOffEvent(tick=3969900, channel=0, data=[12, 0]),
   midi.NoteOnEvent(tick=3970000, channel=0, data=[15, 100]),
   midi.NoteOffEvent(tick=3970100, channel=0, data=[15, 0]),
   midi.NoteOnEvent(tick=3970200, channel=0, data=[11, 100]),
   midi.NoteOffEvent(tick=3970300, channel=0, data=[11, 0]),
   midi.NoteOnEvent(tick=3970400, channel=0, data=[4, 100]),
   midi.NoteOffEvent(tick=3970500, channel=0, data=[4, 0]),
   midi.NoteOnEvent(tick=3970600, channel=0, data=[38, 100]),
   midi.NoteOffEvent(tick=3970700, channel=0, data=[38, 0]),
   midi.NoteOnEvent(tick=3970800, channel=0, data=[36, 100]),
   midi.NoteOffEvent(tick=3970900, channel=0, data=[36, 0]),
   midi.NoteOnEvent(tick=3971000, channel=0, data=[19, 100]),
   midi.NoteOffEvent(tick=3971100, channel=0, data=[19, 0]),
   midi.NoteOnEvent(tick=3971200, channel=0, data=[7, 100]),
   midi.NoteOffEvent(tick=3971300, channel=0, data=[7, 0]),
   midi.NoteOnEvent(tick=3971400, channel=0, data=[4, 100]),
   midi.NoteOffEvent(tick=3971500, channel=0, data=[4, 0]),
   midi.NoteOnEvent(tick=3971600, channel=0, data=[36, 100]),
   midi.NoteOffEvent(tick=3971700, channel=0, data=[36, 0]),
   midi.NoteOnEvent(tick=3971800, channel=0, data=[5, 100]),
   midi.NoteOffEvent(tick=3971900, channel=0, data=[5, 0]),
   midi.NoteOnEvent(tick=3972000, channel=0, data=[14, 100]),
   midi.NoteOffEvent(tick=3972100, channel=0, data=[14, 0]),
   midi.NoteOnEvent(tick=3972200, channel=0, data=[11, 100]),
   midi.NoteOffEvent(tick=3972300, channel=0, data=[11, 0]),
   midi.NoteOnEvent(tick=3972400, channel=0, data=[11, 100]),
   midi.NoteOffEvent(tick=3972500, channel=0, data=[11, 0]),
   midi.NoteOnEvent(tick=3972600, channel=0, data=[14, 100]),
   midi.NoteOffEvent(tick=3972700, channel=0, data=[14, 0]),
   midi.NoteOnEvent(tick=3972800, channel=0, data=[22, 100]),
   midi.NoteOffEvent(tick=3972900, channel=0, data=[22, 0]),
   midi.NoteOnEvent(tick=3973000, channel=0, data=[8, 100]),
   midi.NoteOffEvent(tick=3973100, channel=0, data=[8, 0]),
   midi.NoteOnEvent(tick=3973200, channel=0, data=[13, 100]),
   midi.NoteOffEvent(tick=3973300, channel=0, data=[13, 0]),
   midi.NoteOnEvent(tick=3973400, channel=0, data=[6, 100]),
   midi.NoteOffEvent(tick=3973500, channel=0, data=[6, 0]),
   midi.NoteOnEvent(tick=3973600, channel=0, data=[36, 100]),
   midi.NoteOffEvent(tick=3973700, channel=0, data=[36, 0]),
   midi.NoteOnEvent(tick=3973800, channel=0, data=[2, 100]),
   midi.NoteOffEvent(tick=3973900, channel=0, data=[2, 0]),
   midi.NoteOnEvent(tick=3974000, channel=0, data=[14, 100]),
   midi.NoteOffEvent(tick=3974100, channel=0, data=[14, 0]),
   midi.NoteOnEvent(tick=3974200, channel=0, data=[12, 100]),
   midi.NoteOffEvent(tick=3974300, channel=0, data=[12, 0]),
   midi.NoteOnEvent(tick=3974400, channel=0, data=[12, 100]),
   midi.NoteOffEvent(tick=3974500, channel=0, data=[12, 0]),
   midi.NoteOnEvent(tick=3974600, channel=0, data=[0, 100]),
   midi.NoteOffEvent(tick=3974700, channel=0, data=[0, 0]),
   midi.NoteOnEvent(tick=3974800, channel=0, data=[13, 100]),
   midi.NoteOffEvent(tick=3974900, channel=0, data=[13, 0]),
   midi.NoteOnEvent(tick=3975000, channel=0, data=[3, 100]),
   midi.NoteOffEvent(tick=3975100, channel=0, data=[3, 0]),
   midi.NoteOnEvent(tick=3975200, channel=0, data=[56, 100]),
   midi.NoteOffEvent(tick=3975300, channel=0, data=[56, 0]),
   midi.NoteOnEvent(tick=3975400, channel=0, data=[36, 100]),
   midi.NoteOffEvent(tick=3975500, channel=0, data=[36, 0]),
   midi.NoteOnEvent(tick=3975600, channel=0, data=[36, 100]),
   midi.NoteOffEvent(tick=3975700, channel=0, data=[36, 0]),
   midi.NoteOnEvent(tick=3975800, channel=0, data=[36, 100]),
   midi.NoteOffEvent(tick=3975900, channel=0, data=[36, 0]),
   midi.NoteOnEvent(tick=3976000, channel=0, data=[36, 100]),
   midi.NoteOffEvent(tick=3976100, channel=0, data=[36, 0]),
   midi.NoteOnEvent(tick=3976200, channel=0, data=[18, 100]),
   midi.NoteOffEvent(tick=3976300, channel=0, data=[18, 0]),
   midi.NoteOnEvent(tick=3976400, channel=0, data=[15, 100]),
   midi.NoteOffEvent(tick=3976500, channel=0, data=[15, 0]),
   midi.NoteOnEvent(tick=3976600, channel=0, data=[4, 100]),
   midi.NoteOffEvent(tick=3976700, channel=0, data=[4, 0]),
   midi.NoteOnEvent(tick=3976800, channel=0, data=[2, 100]),
   midi.NoteOffEvent(tick=3976900, channel=0, data=[2, 0]),
   midi.NoteOnEvent(tick=3977000, channel=0, data=[8, 100]),
   midi.NoteOffEvent(tick=3977100, channel=0, data=[8, 0]),
   midi.NoteOnEvent(tick=3977200, channel=0, data=[5, 100]),
   midi.NoteOffEvent(tick=3977300, channel=0, data=[5, 0]),
   midi.NoteOnEvent(tick=3977400, channel=0, data=[8, 100]),
   midi.NoteOffEvent(tick=3977500, channel=0, data=[8, 0]),
   midi.NoteOnEvent(tick=3977600, channel=0, data=[4, 100]),
   midi.NoteOffEvent(tick=3977700, channel=0, data=[4, 0]),
   midi.NoteOnEvent(tick=3977800, channel=0, data=[18, 100]),
   midi.NoteOffEvent(tick=3977900, channel=0, data=[18, 0]),
   midi.NoteOnEvent(tick=3978000, channel=0, data=[36, 100]),
   midi.NoteOffEvent(tick=3978100, channel=0, data=[36, 0]),
   midi.NoteOnEvent(tick=3978200, channel=0, data=[0, 100]),
   midi.NoteOffEvent(tick=3978300, channel=0, data=[0, 0]),
   midi.NoteOnEvent(tick=3978400, channel=0, data=[36, 100]),
   midi.NoteOffEvent(tick=3978500, channel=0, data=[36, 0]),
   midi.NoteOnEvent(tick=3978600, channel=0, data=[18, 100]),
   midi.NoteOffEvent(tick=3978700, channel=0, data=[18, 0]),
   midi.NoteOnEvent(tick=3978800, channel=0, data=[24, 100]),
   midi.NoteOffEvent(tick=3978900, channel=0, data=[24, 0]),
   midi.NoteOnEvent(tick=3979000, channel=0, data=[18, 100]),
   midi.NoteOffEvent(tick=3979100, channel=0, data=[18, 0]),
   midi.NoteOnEvent(tick=3979200, channel=0, data=[19, 100]),
   midi.NoteOffEvent(tick=3979300, channel=0, data=[19, 0]),
   midi.NoteOnEvent(tick=3979400, channel=0, data=[4, 100]),
   midi.NoteOffEvent(tick=3979500, channel=0, data=[4, 0]),
   midi.NoteOnEvent(tick=3979600, channel=0, data=[12, 100]),
   midi.NoteOffEvent(tick=3979700, channel=0, data=[12, 0]),
   midi.NoteOnEvent(tick=3979800, channel=0, data=[37, 100]),
   midi.NoteOffEvent(tick=3979900, channel=0, data=[37, 0]),
   midi.NoteOnEvent(tick=3980000, channel=0, data=[3, 100]),
   midi.NoteOffEvent(tick=3980100, channel=0, data=[3, 0]),
   midi.NoteOnEvent(tick=3980200, channel=0, data=[0, 100]),
   midi.NoteOffEvent(tick=3980300, channel=0, data=[0, 0]),
   midi.NoteOnEvent(tick=3980400, channel=0, data=[19, 100]),
   midi.NoteOffEvent(tick=3980500, channel=0, data=[19, 0]),
   midi.NoteOnEvent(tick=3980600, channel=0, data=[4, 100]),
   midi.NoteOffEvent(tick=3980700, channel=0, data=[4, 0]),
   midi.NoteOnEvent(tick=3980800, channel=0, data=[19, 100]),
   midi.NoteOffEvent(tick=3980900, channel=0, data=[19, 0]),
   midi.NoteOnEvent(tick=3981000, channel=0, data=[8, 100]),
   midi.NoteOffEvent(tick=3981100, channel=0, data=[8, 0]),
   midi.NoteOnEvent(tick=3981200, channel=0, data=[12, 100]),
   midi.NoteOffEvent(tick=3981300, channel=0, data=[12, 0]),
   midi.NoteOnEvent(tick=3981400, channel=0, data=[4, 100]),
   midi.NoteOffEvent(tick=3981500, channel=0, data=[4, 0]),
   midi.NoteOnEvent(tick=3981600, channel=0, data=[36, 100]),
   midi.NoteOffEvent(tick=3981700, channel=0, data=[36, 0]),
   midi.NoteOnEvent(tick=3981800, channel=0, data=[3, 100]),
   midi.NoteOffEvent(tick=3981900, channel=0, data=[3, 0]),
   midi.NoteOnEvent(tick=3982000, channel=0, data=[0, 100]),
   midi.NoteOffEvent(tick=3982100, channel=0, data=[0, 0]),
   midi.NoteOnEvent(tick=3982200, channel=0, data=[19, 100]),
   midi.NoteOffEvent(tick=3982300, channel=0, data=[19, 0]),
   midi.NoteOnEvent(tick=3982400, channel=0, data=[0, 100]),
   midi.NoteOffEvent(tick=3982500, channel=0, data=[0, 0]),
   midi.NoteOnEvent(tick=3982600, channel=0, data=[36, 100]),
   midi.NoteOffEvent(tick=3982700, channel=0, data=[36, 0]),
   midi.NoteOnEvent(tick=3982800, channel=0, data=[19, 100]),
   midi.NoteOffEvent(tick=3982900, channel=0, data=[19, 0]),
   midi.NoteOnEvent(tick=3983000, channel=0, data=[24, 100]),
   midi.NoteOffEvent(tick=3983100, channel=0, data=[24, 0]),
   midi.NoteOnEvent(tick=3983200, channel=0, data=[15, 100]),
   midi.NoteOffEvent(tick=3983300, channel=0, data=[15, 0]),
   midi.NoteOnEvent(tick=3983400, channel=0, data=[4, 100]),
   midi.NoteOffEvent(tick=3983500, channel=0, data=[4, 0]),
   midi.NoteOnEvent(tick=3983600, channel=0, data=[46, 100]),
   midi.NoteOffEvent(tick=3983700, channel=0, data=[46, 0]),
   midi.NoteOnEvent(tick=3983800, channel=0, data=[56, 100]),
   midi.NoteOffEvent(tick=3983900, channel=0, data=[56, 0]),
   midi.NoteOnEvent(tick=3984000, channel=0, data=[56, 100]),
   midi.NoteOffEvent(tick=3984100, channel=0, data=[56, 0]),
   midi.NoteOnEvent(tick=3984200, channel=0, data=[56, 100]),
   midi.NoteOffEvent(tick=3984300, channel=0, data=[56, 0]),
   midi.NoteOnEvent(tick=3984400, channel=0, data=[36, 100]),
   midi.NoteOffEvent(tick=3984500, channel=0, data=[36, 0]),
   midi.NoteOnEvent(tick=3984600, channel=0, data=[36, 100]),
   midi.NoteOffEvent(tick=3984700, channel=0, data=[36, 0]),
   midi.NoteOnEvent(tick=3984800, channel=0, data=[36, 100]),
   midi.NoteOffEvent(tick=3984900, channel=0, data=[36, 0]),
   midi.NoteOnEvent(tick=3985000, channel=0, data=[36, 100]),
   midi.NoteOffEvent(tick=3985100, channel=0, data=[36, 0]),
   midi.NoteOnEvent(tick=3985200, channel=0, data=[36, 100]),
   midi.NoteOffEvent(tick=3985300, channel=0, data=[36, 0]),
   midi.NoteOnEvent(tick=3985400, channel=0, data=[36, 100]),
   midi.NoteOffEvent(tick=3985500, channel=0, data=[36, 0]),
   midi.NoteOnEvent(tick=3985600, channel=0, data=[36, 100]),
   midi.NoteOffEvent(tick=3985700, channel=0, data=[36, 0]),
   midi.NoteOnEvent(tick=3985800, channel=0, data=[36, 100]),
   midi.NoteOffEvent(tick=3985900, channel=0, data=[36, 0]),
   midi.NoteOnEvent(tick=3986000, channel=0, data=[51, 100]),
   midi.NoteOffEvent(tick=3986100, channel=0, data=[51, 0]),
   midi.NoteOnEvent(tick=3986200, channel=0, data=[18, 100]),
   midi.NoteOffEvent(tick=3986300, channel=0, data=[18, 0]),
   midi.NoteOnEvent(tick=3986400, channel=0, data=[24, 100]),
   midi.NoteOffEvent(tick=3986500, channel=0, data=[24, 0]),
   midi.NoteOnEvent(tick=3986600, channel=0, data=[18, 100]),
   midi.NoteOffEvent(tick=3986700, channel=0, data=[18, 0]),
   midi.NoteOnEvent(tick=3986800, channel=0, data=[19, 100]),
   midi.NoteOffEvent(tick=3986900, channel=0, data=[19, 0]),
   midi.NoteOnEvent(tick=3987000, channel=0, data=[4, 100]),
   midi.NoteOffEvent(tick=3987100, channel=0, data=[4, 0]),
   midi.NoteOnEvent(tick=3987200, channel=0, data=[12, 100]),
   midi.NoteOffEvent(tick=3987300, channel=0, data=[12, 0]),
   midi.NoteOnEvent(tick=3987400, channel=0, data=[37, 100]),
   midi.NoteOffEvent(tick=3987500, channel=0, data=[37, 0]),
   midi.NoteOnEvent(tick=3987600, channel=0, data=[3, 100]),
   midi.NoteOffEvent(tick=3987700, channel=0, data=[3, 0]),
   midi.NoteOnEvent(tick=3987800, channel=0, data=[0, 100]),
   midi.NoteOffEvent(tick=3987900, channel=0, data=[0, 0]),
   midi.NoteOnEvent(tick=3988000, channel=0, data=[19, 100]),
   midi.NoteOffEvent(tick=3988100, channel=0, data=[19, 0]),
   midi.NoteOnEvent(tick=3988200, channel=0, data=[4, 100]),
   midi.NoteOffEvent(tick=3988300, channel=0, data=[4, 0]),
   midi.NoteOnEvent(tick=3988400, channel=0, data=[19, 100]),
   midi.NoteOffEvent(tick=3988500, channel=0, data=[19, 0]),
   midi.NoteOnEvent(tick=3988600, channel=0, data=[8, 100]),
   midi.NoteOffEvent(tick=3988700, channel=0, data=[8, 0]),
   midi.NoteOnEvent(tick=3988800, channel=0, data=[12, 100]),
   midi.NoteOffEvent(tick=3988900, channel=0, data=[12, 0]),
   midi.NoteOnEvent(tick=3989000, channel=0, data=[4, 100]),
   midi.NoteOffEvent(tick=3989100, channel=0, data=[4, 0]),
   midi.NoteOnEvent(tick=3989200, channel=0, data=[52, 100]),
   midi.NoteOffEvent(tick=3989300, channel=0, data=[52, 0]),
   midi.NoteOnEvent(tick=3989400, channel=0, data=[74, 100]),
   midi.NoteOffEvent(tick=3989500, channel=0, data=[74, 0]),
   midi.NoteOnEvent(tick=3989600, channel=0, data=[0, 100]),
   midi.NoteOffEvent(tick=3989700, channel=0, data=[0, 0]),
   midi.NoteOnEvent(tick=3989800, channel=0, data=[36, 100]),
   midi.NoteOffEvent(tick=3989900, channel=0, data=[36, 0]),
   midi.NoteOnEvent(tick=3990000, channel=0, data=[69, 100]),
   midi.NoteOffEvent(tick=3990100, channel=0, data=[69, 0]),
   midi.NoteOnEvent(tick=3990200, channel=0, data=[36, 100]),
   midi.NoteOffEvent(tick=3990300, channel=0, data=[36, 0]),
   midi.NoteOnEvent(tick=3990400, channel=0, data=[41, 100]),
   midi.NoteOffEvent(tick=3990500, channel=0, data=[41, 0]),
   midi.NoteOnEvent(tick=3990600, channel=0, data=[31, 100]),
   midi.NoteOffEvent(tick=3990700, channel=0, data=[31, 0]),
   midi.NoteOnEvent(tick=3990800, channel=0, data=[70, 100]),
   midi.NoteOffEvent(tick=3990900, channel=0, data=[70, 0]),
   midi.NoteOnEvent(tick=3991000, channel=0, data=[29, 100]),
   midi.NoteOffEvent(tick=3991100, channel=0, data=[29, 0]),
   midi.NoteOnEvent(tick=3991200, channel=0, data=[27, 100]),
   midi.NoteOffEvent(tick=3991300, channel=0, data=[27, 0]),
   midi.NoteOnEvent(tick=3991400, channel=0, data=[70, 100]),
   midi.NoteOffEvent(tick=3991500, channel=0, data=[70, 0]),
   midi.NoteOnEvent(tick=3991600, channel=0, data=[28, 100]),
   midi.NoteOffEvent(tick=3991700, channel=0, data=[28, 0]),
   midi.NoteOnEvent(tick=3991800, channel=0, data=[26, 100]),
   midi.NoteOffEvent(tick=3991900, channel=0, data=[26, 0]),
   midi.NoteOnEvent(tick=3992000, channel=0, data=[26, 100]),
   midi.NoteOffEvent(tick=3992100, channel=0, data=[26, 0]),
   midi.NoteOnEvent(tick=3992200, channel=0, data=[31, 100]),
   midi.NoteOffEvent(tick=3992300, channel=0, data=[31, 0]),
   midi.NoteOnEvent(tick=3992400, channel=0, data=[41, 100]),
   midi.NoteOffEvent(tick=3992500, channel=0, data=[41, 0]),
   midi.NoteOnEvent(tick=3992600, channel=0, data=[56, 100]),
   midi.NoteOffEvent(tick=3992700, channel=0, data=[56, 0]),
   midi.NoteOnEvent(tick=3992800, channel=0, data=[56, 100]),
   midi.NoteOffEvent(tick=3992900, channel=0, data=[56, 0]),
   midi.NoteOnEvent(tick=3993000, channel=0, data=[36, 100]),
   midi.NoteOffEvent(tick=3993100, channel=0, data=[36, 0]),
   midi.NoteOnEvent(tick=3993200, channel=0, data=[56, 100]),
   midi.NoteOffEvent(tick=3993300, channel=0, data=[56, 0]),
   midi.NoteOnEvent(tick=3993400, channel=0, data=[36, 100]),
   midi.NoteOffEvent(tick=3993500, channel=0, data=[36, 0]),
   midi.NoteOnEvent(tick=3993600, channel=0, data=[36, 100]),
   midi.NoteOffEvent(tick=3993700, channel=0, data=[36, 0]),
   midi.NoteOnEvent(tick=3993800, channel=0, data=[36, 100]),
   midi.NoteOffEvent(tick=3993900, channel=0, data=[36, 0]),
   midi.NoteOnEvent(tick=3994000, channel=0, data=[36, 100]),
   midi.NoteOffEvent(tick=3994100, channel=0, data=[36, 0]),
   midi.NoteOnEvent(tick=3994200, channel=0, data=[19, 100]),
   midi.NoteOffEvent(tick=3994300, channel=0, data=[19, 0]),
   midi.NoteOnEvent(tick=3994400, channel=0, data=[7, 100]),
   midi.NoteOffEvent(tick=3994500, channel=0, data=[7, 0]),
   midi.NoteOnEvent(tick=3994600, channel=0, data=[4, 100]),
   midi.NoteOffEvent(tick=3994700, channel=0, data=[4, 0]),
   midi.NoteOnEvent(tick=3994800, channel=0, data=[36, 100]),
   midi.NoteOffEvent(tick=3994900, channel=0, data=[36, 0]),
   midi.NoteOnEvent(tick=3995000, channel=0, data=[21, 100]),
   midi.NoteOffEvent(tick=3995100, channel=0, data=[21, 0]),
   midi.NoteOnEvent(tick=3995200, channel=0, data=[0, 100]),
   midi.NoteOffEvent(tick=3995300, channel=0, data=[0, 0]),
   midi.NoteOnEvent(tick=3995400, channel=0, data=[17, 100]),
   midi.NoteOffEvent(tick=3995500, channel=0, data=[17, 0]),
   midi.NoteOnEvent(tick=3995600, channel=0, data=[8, 100]),
   midi.NoteOffEvent(tick=3995700, channel=0, data=[8, 0]),
   midi.NoteOnEvent(tick=3995800, channel=0, data=[0, 100]),
   midi.NoteOffEvent(tick=3995900, channel=0, data=[0, 0]),
   midi.NoteOnEvent(tick=3996000, channel=0, data=[1, 100]),
   midi.NoteOffEvent(tick=3996100, channel=0, data=[1, 0]),
   midi.NoteOnEvent(tick=3996200, channel=0, data=[11, 100]),
   midi.NoteOffEvent(tick=3996300, channel=0, data=[11, 0]),
   midi.NoteOnEvent(tick=3996400, channel=0, data=[4, 100]),
   midi.NoteOffEvent(tick=3996500, channel=0, data=[4, 0]),
   midi.NoteOnEvent(tick=3996600, channel=0, data=[36, 100]),
   midi.NoteOffEvent(tick=3996700, channel=0, data=[36, 0]),
   midi.NoteOnEvent(tick=3996800, channel=0, data=[22, 100]),
   midi.NoteOffEvent(tick=3996900, channel=0, data=[22, 0]),
   midi.NoteOnEvent(tick=3997000, channel=0, data=[8, 100]),
   midi.NoteOffEvent(tick=3997100, channel=0, data=[8, 0]),
   midi.NoteOnEvent(tick=3997200, channel=0, data=[11, 100]),
   midi.NoteOffEvent(tick=3997300, channel=0, data=[11, 0]),
   midi.NoteOnEvent(tick=3997400, channel=0, data=[11, 100]),
   midi.NoteOffEvent(tick=3997500, channel=0, data=[11, 0]),
   midi.NoteOnEvent(tick=3997600, channel=0, data=[36, 100]),
   midi.NoteOffEvent(tick=3997700, channel=0, data=[36, 0]),
   midi.NoteOnEvent(tick=3997800, channel=0, data=[1, 100]),
   midi.NoteOffEvent(tick=3997900, channel=0, data=[1, 0]),
   midi.NoteOnEvent(tick=3998000, channel=0, data=[4, 100]),
   midi.NoteOffEvent(tick=3998100, channel=0, data=[4, 0]),
   midi.NoteOnEvent(tick=3998200, channel=0, data=[36, 100]),
   midi.NoteOffEvent(tick=3998300, channel=0, data=[36, 0]),
   midi.NoteOnEvent(tick=3998400, channel=0, data=[0, 100]),
   midi.NoteOffEvent(tick=3998500, channel=0, data=[0, 0]),
   midi.NoteOnEvent(tick=3998600, channel=0, data=[18, 100]),
   midi.NoteOffEvent(tick=3998700, channel=0, data=[18, 0]),
   midi.NoteOnEvent(tick=3998800, channel=0, data=[18, 100]),
   midi.NoteOffEvent(tick=3998900, channel=0, data=[18, 0]),
   midi.NoteOnEvent(tick=3999000, channel=0, data=[8, 100]),
   midi.NoteOffEvent(tick=3999100, channel=0, data=[8, 0]),
   midi.NoteOnEvent(tick=3999200, channel=0, data=[6, 100]),
   midi.NoteOffEvent(tick=3999300, channel=0, data=[6, 0]),
   midi.NoteOnEvent(tick=3999400, channel=0, data=[13, 100]),
   midi.NoteOffEvent(tick=3999500, channel=0, data=[13, 0]),
   midi.NoteOnEvent(tick=3999600, channel=0, data=[4, 100]),
   midi.NoteOffEvent(tick=3999700, channel=0, data=[4, 0]),
   midi.NoteOnEvent(tick=3999800, channel=0, data=[3, 100]),
   midi.NoteOffEvent(tick=3999900, channel=0, data=[3, 0]),
   midi.NoteOnEvent(tick=4000000, channel=0, data=[36, 100]),
   midi.NoteOffEvent(tick=4000100, channel=0, data=[36, 0]),
   midi.NoteOnEvent(tick=4000200, channel=0, data=[0, 100]),
   midi.NoteOffEvent(tick=4000300, channel=0, data=[0, 0]),
   midi.NoteOnEvent(tick=4000400, channel=0, data=[36, 100]),
   midi.NoteOffEvent(tick=4000500, channel=0, data=[36, 0]),
   midi.NoteOnEvent(tick=4000600, channel=0, data=[21, 100]),
   midi.NoteOffEvent(tick=4000700, channel=0, data=[21, 0]),
   midi.NoteOnEvent(tick=4000800, channel=0, data=[0, 100]),
   midi.NoteOffEvent(tick=4000900, channel=0, data=[0, 0]),
   midi.NoteOnEvent(tick=4001000, channel=0, data=[11, 100]),
   midi.NoteOffEvent(tick=4001100, channel=0, data=[11, 0]),
   midi.NoteOnEvent(tick=4001200, channel=0, data=[20, 100]),
   midi.NoteOffEvent(tick=4001300, channel=0, data=[20, 0]),
   midi.NoteOnEvent(tick=4001400, channel=0, data=[4, 100]),
   midi.NoteOffEvent(tick=4001500, channel=0, data=[4, 0]),
   midi.NoteOnEvent(tick=4001600, channel=0, data=[36, 100]),
   midi.NoteOffEvent(tick=4001700, channel=0, data=[36, 0]),
   midi.NoteOnEvent(tick=4001800, channel=0, data=[19, 100]),
   midi.NoteOffEvent(tick=4001900, channel=0, data=[19, 0]),
   midi.NoteOnEvent(tick=4002000, channel=0, data=[7, 100]),
   midi.NoteOffEvent(tick=4002100, channel=0, data=[7, 0]),
   midi.NoteOnEvent(tick=4002200, channel=0, data=[0, 100]),
   midi.NoteOffEvent(tick=4002300, channel=0, data=[0, 0]),
   midi.NoteOnEvent(tick=4002400, channel=0, data=[19, 100]),
   midi.NoteOffEvent(tick=4002500, channel=0, data=[19, 0]),
   midi.NoteOnEvent(tick=4002600, channel=0, data=[36, 100]),
   midi.NoteOffEvent(tick=4002700, channel=0, data=[36, 0]),
   midi.NoteOnEvent(tick=4002800, channel=0, data=[2, 100]),
   midi.NoteOffEvent(tick=4002900, channel=0, data=[2, 0]),
   midi.NoteOnEvent(tick=4003000, channel=0, data=[14, 100]),
   midi.NoteOffEvent(tick=4003100, channel=0, data=[14, 0]),
   midi.NoteOnEvent(tick=4003200, channel=0, data=[13, 100]),
   midi.NoteOffEvent(tick=4003300, channel=0, data=[13, 0]),
   midi.NoteOnEvent(tick=4003400, channel=0, data=[5, 100]),
   midi.NoteOffEvent(tick=4003500, channel=0, data=[5, 0]),
   midi.NoteOnEvent(tick=4003600, channel=0, data=[14, 100]),
   midi.NoteOffEvent(tick=4003700, channel=0, data=[14, 0]),
   midi.NoteOnEvent(tick=4003800, channel=0, data=[17, 100]),
   midi.NoteOffEvent(tick=4003900, channel=0, data=[17, 0]),
   midi.NoteOnEvent(tick=4004000, channel=0, data=[12, 100]),
   midi.NoteOffEvent(tick=4004100, channel=0, data=[12, 0]),
   midi.NoteOnEvent(tick=4004200, channel=0, data=[18, 100]),
   midi.NoteOffEvent(tick=4004300, channel=0, data=[18, 0]),
   midi.NoteOnEvent(tick=4004400, channel=0, data=[36, 100]),
   midi.NoteOffEvent(tick=4004500, channel=0, data=[36, 0]),
   midi.NoteOnEvent(tick=4004600, channel=0, data=[19, 100]),
   midi.NoteOffEvent(tick=4004700, channel=0, data=[19, 0]),
   midi.NoteOnEvent(tick=4004800, channel=0, data=[14, 100]),
   midi.NoteOffEvent(tick=4004900, channel=0, data=[14, 0]),
   midi.NoteOnEvent(tick=4005000, channel=0, data=[36, 100]),
   midi.NoteOffEvent(tick=4005100, channel=0, data=[36, 0]),
   midi.NoteOnEvent(tick=4005200, channel=0, data=[19, 100]),
   midi.NoteOffEvent(tick=4005300, channel=0, data=[19, 0]),
   midi.NoteOnEvent(tick=4005400, channel=0, data=[7, 100]),
   midi.NoteOffEvent(tick=4005500, channel=0, data=[7, 0]),
   midi.NoteOnEvent(tick=4005600, channel=0, data=[4, 100]),
   midi.NoteOffEvent(tick=4005700, channel=0, data=[4, 0]),
   midi.NoteOnEvent(tick=4005800, channel=0, data=[36, 100]),
   midi.NoteOffEvent(tick=4005900, channel=0, data=[36, 0]),
   midi.NoteOnEvent(tick=4006000, channel=0, data=[18, 100]),
   midi.NoteOffEvent(tick=4006100, channel=0, data=[18, 0]),
   midi.NoteOnEvent(tick=4006200, channel=0, data=[24, 100]),
   midi.NoteOffEvent(tick=4006300, channel=0, data=[24, 0]),
   midi.NoteOnEvent(tick=4006400, channel=0, data=[18, 100]),
   midi.NoteOffEvent(tick=4006500, channel=0, data=[18, 0]),
   midi.NoteOnEvent(tick=4006600, channel=0, data=[19, 100]),
   midi.NoteOffEvent(tick=4006700, channel=0, data=[19, 0]),
   midi.NoteOnEvent(tick=4006800, channel=0, data=[4, 100]),
   midi.NoteOffEvent(tick=4006900, channel=0, data=[4, 0]),
   midi.NoteOnEvent(tick=4007000, channel=0, data=[12, 100]),
   midi.NoteOffEvent(tick=4007100, channel=0, data=[12, 0]),
   midi.NoteOnEvent(tick=4007200, channel=0, data=[37, 100]),
   midi.NoteOffEvent(tick=4007300, channel=0, data=[37, 0]),
   midi.NoteOnEvent(tick=4007400, channel=0, data=[3, 100]),
   midi.NoteOffEvent(tick=4007500, channel=0, data=[3, 0]),
   midi.NoteOnEvent(tick=4007600, channel=0, data=[0, 100]),
   midi.NoteOffEvent(tick=4007700, channel=0, data=[0, 0]),
   midi.NoteOnEvent(tick=4007800, channel=0, data=[19, 100]),
   midi.NoteOffEvent(tick=4007900, channel=0, data=[19, 0]),
   midi.NoteOnEvent(tick=4008000, channel=0, data=[4, 100]),
   midi.NoteOffEvent(tick=4008100, channel=0, data=[4, 0]),
   midi.NoteOnEvent(tick=4008200, channel=0, data=[19, 100]),
   midi.NoteOffEvent(tick=4008300, channel=0, data=[19, 0]),
   midi.NoteOnEvent(tick=4008400, channel=0, data=[8, 100]),
   midi.NoteOffEvent(tick=4008500, channel=0, data=[8, 0]),
   midi.NoteOnEvent(tick=4008600, channel=0, data=[12, 100]),
   midi.NoteOffEvent(tick=4008700, channel=0, data=[12, 0]),
   midi.NoteOnEvent(tick=4008800, channel=0, data=[4, 100]),
   midi.NoteOffEvent(tick=4008900, channel=0, data=[4, 0]),
   midi.NoteOnEvent(tick=4009000, channel=0, data=[56, 100]),
   midi.NoteOffEvent(tick=4009100, channel=0, data=[56, 0]),
   midi.NoteOnEvent(tick=4009200, channel=0, data=[36, 100]),
   midi.NoteOffEvent(tick=4009300, channel=0, data=[36, 0]),
   midi.NoteOnEvent(tick=4009400, channel=0, data=[36, 100]),
   midi.NoteOffEvent(tick=4009500, channel=0, data=[36, 0]),
   midi.NoteOnEvent(tick=4009600, channel=0, data=[36, 100]),
   midi.NoteOffEvent(tick=4009700, channel=0, data=[36, 0]),
   midi.NoteOnEvent(tick=4009800, channel=0, data=[36, 100]),
   midi.NoteOffEvent(tick=4009900, channel=0, data=[36, 0]),
   midi.NoteOnEvent(tick=4010000, channel=0, data=[3, 100]),
   midi.NoteOffEvent(tick=4010100, channel=0, data=[3, 0]),
   midi.NoteOnEvent(tick=4010200, channel=0, data=[0, 100]),
   midi.NoteOffEvent(tick=4010300, channel=0, data=[0, 0]),
   midi.NoteOnEvent(tick=4010400, channel=0, data=[19, 100]),
   midi.NoteOffEvent(tick=4010500, channel=0, data=[19, 0]),
   midi.NoteOnEvent(tick=4010600, channel=0, data=[0, 100]),
   midi.NoteOffEvent(tick=4010700, channel=0, data=[0, 0]),
   midi.NoteOnEvent(tick=4010800, channel=0, data=[36, 100]),
   midi.NoteOffEvent(tick=4010900, channel=0, data=[36, 0]),
   midi.NoteOnEvent(tick=4011000, channel=0, data=[19, 100]),
   midi.NoteOffEvent(tick=4011100, channel=0, data=[19, 0]),
   midi.NoteOnEvent(tick=4011200, channel=0, data=[24, 100]),
   midi.NoteOffEvent(tick=4011300, channel=0, data=[24, 0]),
   midi.NoteOnEvent(tick=4011400, channel=0, data=[15, 100]),
   midi.NoteOffEvent(tick=4011500, channel=0, data=[15, 0]),
   midi.NoteOnEvent(tick=4011600, channel=0, data=[4, 100]),
   midi.NoteOffEvent(tick=4011700, channel=0, data=[4, 0]),
   midi.NoteOnEvent(tick=4011800, channel=0, data=[37, 100]),
   midi.NoteOffEvent(tick=4011900, channel=0, data=[37, 0]),
   midi.NoteOnEvent(tick=4012000, channel=0, data=[36, 100]),
   midi.NoteOffEvent(tick=4012100, channel=0, data=[36, 0]),
   midi.NoteOnEvent(tick=4012200, channel=0, data=[19, 100]),
   midi.NoteOffEvent(tick=4012300, channel=0, data=[19, 0]),
   midi.NoteOnEvent(tick=4012400, channel=0, data=[7, 100]),
   midi.NoteOffEvent(tick=4012500, channel=0, data=[7, 0]),
   midi.NoteOnEvent(tick=4012600, channel=0, data=[4, 100]),
   midi.NoteOffEvent(tick=4012700, channel=0, data=[4, 0]),
   midi.NoteOnEvent(tick=4012800, channel=0, data=[36, 100]),
   midi.NoteOffEvent(tick=4012900, channel=0, data=[36, 0]),
   midi.NoteOnEvent(tick=4013000, channel=0, data=[21, 100]),
   midi.NoteOffEvent(tick=4013100, channel=0, data=[21, 0]),
   midi.NoteOnEvent(tick=4013200, channel=0, data=[0, 100]),
   midi.NoteOffEvent(tick=4013300, channel=0, data=[0, 0]),
   midi.NoteOnEvent(tick=4013400, channel=0, data=[11, 100]),
   midi.NoteOffEvent(tick=4013500, channel=0, data=[11, 0]),
   midi.NoteOnEvent(tick=4013600, channel=0, data=[20, 100]),
   midi.NoteOffEvent(tick=4013700, channel=0, data=[20, 0]),
   midi.NoteOnEvent(tick=4013800, channel=0, data=[4, 100]),
   midi.NoteOffEvent(tick=4013900, channel=0, data=[4, 0]),
   midi.NoteOnEvent(tick=4014000, channel=0, data=[36, 100]),
   midi.NoteOffEvent(tick=4014100, channel=0, data=[36, 0]),
   midi.NoteOnEvent(tick=4014200, channel=0, data=[14, 100]),
   midi.NoteOffEvent(tick=4014300, channel=0, data=[14, 0]),
   midi.NoteOnEvent(tick=4014400, channel=0, data=[5, 100]),
   midi.NoteOffEvent(tick=4014500, channel=0, data=[5, 0]),
   midi.NoteOnEvent(tick=4014600, channel=0, data=[36, 100]),
   midi.NoteOffEvent(tick=4014700, channel=0, data=[36, 0]),
   midi.NoteOnEvent(tick=4014800, channel=0, data=[19, 100]),
   midi.NoteOffEvent(tick=4014900, channel=0, data=[19, 0]),
   midi.NoteOnEvent(tick=4015000, channel=0, data=[7, 100]),
   midi.NoteOffEvent(tick=4015100, channel=0, data=[7, 0]),
   midi.NoteOnEvent(tick=4015200, channel=0, data=[4, 100]),
   midi.NoteOffEvent(tick=4015300, channel=0, data=[4, 0]),
   midi.NoteOnEvent(tick=4015400, channel=0, data=[36, 100]),
   midi.NoteOffEvent(tick=4015500, channel=0, data=[36, 0]),
   midi.NoteOnEvent(tick=4015600, channel=0, data=[74, 100]),
   midi.NoteOffEvent(tick=4015700, channel=0, data=[74, 0]),
   midi.NoteOnEvent(tick=4015800, channel=0, data=[0, 100]),
   midi.NoteOffEvent(tick=4015900, channel=0, data=[0, 0]),
   midi.NoteOnEvent(tick=4016000, channel=0, data=[36, 100]),
   midi.NoteOffEvent(tick=4016100, channel=0, data=[36, 0]),
   midi.NoteOnEvent(tick=4016200, channel=0, data=[21, 100]),
   midi.NoteOffEvent(tick=4016300, channel=0, data=[21, 0]),
   midi.NoteOnEvent(tick=4016400, channel=0, data=[0, 100]),
   midi.NoteOffEvent(tick=4016500, channel=0, data=[0, 0]),
   midi.NoteOnEvent(tick=4016600, channel=0, data=[17, 100]),
   midi.NoteOffEvent(tick=4016700, channel=0, data=[17, 0]),
   midi.NoteOnEvent(tick=4016800, channel=0, data=[8, 100]),
   midi.NoteOffEvent(tick=4016900, channel=0, data=[8, 0]),
   midi.NoteOnEvent(tick=4017000, channel=0, data=[0, 100]),
   midi.NoteOffEvent(tick=4017100, channel=0, data=[0, 0]),
   midi.NoteOnEvent(tick=4017200, channel=0, data=[1, 100]),
   midi.NoteOffEvent(tick=4017300, channel=0, data=[1, 0]),
   midi.NoteOnEvent(tick=4017400, channel=0, data=[11, 100]),
   midi.NoteOffEvent(tick=4017500, channel=0, data=[11, 0]),
   midi.NoteOnEvent(tick=4017600, channel=0, data=[4, 100]),
   midi.NoteOffEvent(tick=4017700, channel=0, data=[4, 0]),
   midi.NoteOnEvent(tick=4017800, channel=0, data=[36, 100]),
   midi.NoteOffEvent(tick=4017900, channel=0, data=[36, 0]),
   midi.NoteOnEvent(tick=4018000, channel=0, data=[22, 100]),
   midi.NoteOffEvent(tick=4018100, channel=0, data=[22, 0]),
   midi.NoteOnEvent(tick=4018200, channel=0, data=[14, 100]),
   midi.NoteOffEvent(tick=4018300, channel=0, data=[14, 0]),
   midi.NoteOnEvent(tick=4018400, channel=0, data=[20, 100]),
   midi.NoteOffEvent(tick=4018500, channel=0, data=[20, 0]),
   midi.NoteOnEvent(tick=4018600, channel=0, data=[11, 100]),
   midi.NoteOffEvent(tick=4018700, channel=0, data=[11, 0]),
   midi.NoteOnEvent(tick=4018800, channel=0, data=[3, 100]),
   midi.NoteOffEvent(tick=4018900, channel=0, data=[3, 0]),
   midi.NoteOnEvent(tick=4019000, channel=0, data=[36, 100]),
   midi.NoteOffEvent(tick=4019100, channel=0, data=[36, 0]),
   midi.NoteOnEvent(tick=4019200, channel=0, data=[1, 100]),
   midi.NoteOffEvent(tick=4019300, channel=0, data=[1, 0]),
   midi.NoteOnEvent(tick=4019400, channel=0, data=[4, 100]),
   midi.NoteOffEvent(tick=4019500, channel=0, data=[4, 0]),
   midi.NoteOnEvent(tick=4019600, channel=0, data=[36, 100]),
   midi.NoteOffEvent(tick=4019700, channel=0, data=[36, 0]),
   midi.NoteOnEvent(tick=4019800, channel=0, data=[19, 100]),
   midi.NoteOffEvent(tick=4019900, channel=0, data=[19, 0]),
   midi.NoteOnEvent(tick=4020000, channel=0, data=[7, 100]),
   midi.NoteOffEvent(tick=4020100, channel=0, data=[7, 0]),
   midi.NoteOnEvent(tick=4020200, channel=0, data=[4, 100]),
   midi.NoteOffEvent(tick=4020300, channel=0, data=[4, 0]),
   midi.NoteOnEvent(tick=4020400, channel=0, data=[36, 100]),
   midi.NoteOffEvent(tick=4020500, channel=0, data=[36, 0]),
   midi.NoteOnEvent(tick=4020600, channel=0, data=[5, 100]),
   midi.NoteOffEvent(tick=4020700, channel=0, data=[5, 0]),
   midi.NoteOnEvent(tick=4020800, channel=0, data=[14, 100]),
   midi.NoteOffEvent(tick=4020900, channel=0, data=[14, 0]),
   midi.NoteOnEvent(tick=4021000, channel=0, data=[11, 100]),
   midi.NoteOffEvent(tick=4021100, channel=0, data=[11, 0]),
   midi.NoteOnEvent(tick=4021200, channel=0, data=[11, 100]),
   midi.NoteOffEvent(tick=4021300, channel=0, data=[11, 0]),
   midi.NoteOnEvent(tick=4021400, channel=0, data=[14, 100]),
   midi.NoteOffEvent(tick=4021500, channel=0, data=[14, 0]),
   midi.NoteOnEvent(tick=4021600, channel=0, data=[22, 100]),
   midi.NoteOffEvent(tick=4021700, channel=0, data=[22, 0]),
   midi.NoteOnEvent(tick=4021800, channel=0, data=[8, 100]),
   midi.NoteOffEvent(tick=4021900, channel=0, data=[8, 0]),
   midi.NoteOnEvent(tick=4022000, channel=0, data=[13, 100]),
   midi.NoteOffEvent(tick=4022100, channel=0, data=[13, 0]),
   midi.NoteOnEvent(tick=4022200, channel=0, data=[6, 100]),
   midi.NoteOffEvent(tick=4022300, channel=0, data=[6, 0]),
   midi.NoteOnEvent(tick=4022400, channel=0, data=[46, 100]),
   midi.NoteOffEvent(tick=4022500, channel=0, data=[46, 0]),
   midi.NoteOnEvent(tick=4022600, channel=0, data=[56, 100]),
   midi.NoteOffEvent(tick=4022700, channel=0, data=[56, 0]),
   midi.NoteOnEvent(tick=4022800, channel=0, data=[56, 100]),
   midi.NoteOffEvent(tick=4022900, channel=0, data=[56, 0]),
   midi.NoteOnEvent(tick=4023000, channel=0, data=[56, 100]),
   midi.NoteOffEvent(tick=4023100, channel=0, data=[56, 0]),
   midi.NoteOnEvent(tick=4023200, channel=0, data=[36, 100]),
   midi.NoteOffEvent(tick=4023300, channel=0, data=[36, 0]),
   midi.NoteOnEvent(tick=4023400, channel=0, data=[36, 100]),
   midi.NoteOffEvent(tick=4023500, channel=0, data=[36, 0]),
   midi.NoteOnEvent(tick=4023600, channel=0, data=[36, 100]),
   midi.NoteOffEvent(tick=4023700, channel=0, data=[36, 0]),
   midi.NoteOnEvent(tick=4023800, channel=0, data=[36, 100]),
   midi.NoteOffEvent(tick=4023900, channel=0, data=[36, 0]),
   midi.NoteOnEvent(tick=4024000, channel=0, data=[36, 100]),
   midi.NoteOffEvent(tick=4024100, channel=0, data=[36, 0]),
   midi.NoteOnEvent(tick=4024200, channel=0, data=[36, 100]),
   midi.NoteOffEvent(tick=4024300, channel=0, data=[36, 0]),
   midi.NoteOnEvent(tick=4024400, channel=0, data=[36, 100]),
   midi.NoteOffEvent(tick=4024500, channel=0, data=[36, 0]),
   midi.NoteOnEvent(tick=4024600, channel=0, data=[36, 100]),
   midi.NoteOffEvent(tick=4024700, channel=0, data=[36, 0]),
   midi.NoteOnEvent(tick=4024800, channel=0, data=[19, 100]),
   midi.NoteOffEvent(tick=4024900, channel=0, data=[19, 0]),
   midi.NoteOnEvent(tick=4025000, channel=0, data=[20, 100]),
   midi.NoteOffEvent(tick=4025100, channel=0, data=[20, 0]),
   midi.NoteOnEvent(tick=4025200, channel=0, data=[4, 100]),
   midi.NoteOffEvent(tick=4025300, channel=0, data=[4, 0]),
   midi.NoteOnEvent(tick=4025400, channel=0, data=[18, 100]),
   midi.NoteOffEvent(tick=4025500, channel=0, data=[18, 0]),
   midi.NoteOnEvent(tick=4025600, channel=0, data=[3, 100]),
   midi.NoteOffEvent(tick=4025700, channel=0, data=[3, 0]),
   midi.NoteOnEvent(tick=4025800, channel=0, data=[0, 100]),
   midi.NoteOffEvent(tick=4025900, channel=0, data=[0, 0]),
   midi.NoteOnEvent(tick=4026000, channel=0, data=[24, 100]),
   midi.NoteOffEvent(tick=4026100, channel=0, data=[24, 0]),
   midi.NoteOnEvent(tick=4026200, channel=0, data=[38, 100]),
   midi.NoteOffEvent(tick=4026300, channel=0, data=[38, 0]),
   midi.NoteOnEvent(tick=4026400, channel=0, data=[36, 100]),
   midi.NoteOffEvent(tick=4026500, channel=0, data=[36, 0]),
   midi.NoteOnEvent(tick=4026600, channel=0, data=[12, 100]),
   midi.NoteOffEvent(tick=4026700, channel=0, data=[12, 0]),
   midi.NoteOnEvent(tick=4026800, channel=0, data=[0, 100]),
   midi.NoteOffEvent(tick=4026900, channel=0, data=[0, 0]),
   midi.NoteOnEvent(tick=4027000, channel=0, data=[24, 100]),
   midi.NoteOffEvent(tick=4027100, channel=0, data=[24, 0]),
   midi.NoteOnEvent(tick=4027200, channel=0, data=[36, 100]),
   midi.NoteOffEvent(tick=4027300, channel=0, data=[36, 0]),
   midi.NoteOnEvent(tick=4027400, channel=0, data=[29, 100]),
   midi.NoteOffEvent(tick=4027500, channel=0, data=[29, 0]),
   midi.NoteOnEvent(tick=4027600, channel=0, data=[27, 100]),
   midi.NoteOffEvent(tick=4027700, channel=0, data=[27, 0]),
   midi.NoteOnEvent(tick=4027800, channel=0, data=[38, 100]),
   midi.NoteOffEvent(tick=4027900, channel=0, data=[38, 0]),
   midi.NoteOnEvent(tick=4028000, channel=0, data=[36, 100]),
   midi.NoteOffEvent(tick=4028100, channel=0, data=[36, 0]),
   midi.NoteOnEvent(tick=4028200, channel=0, data=[28, 100]),
   midi.NoteOffEvent(tick=4028300, channel=0, data=[28, 0]),
   midi.NoteOnEvent(tick=4028400, channel=0, data=[26, 100]),
   midi.NoteOffEvent(tick=4028500, channel=0, data=[26, 0]),
   midi.NoteOnEvent(tick=4028600, channel=0, data=[26, 100]),
   midi.NoteOffEvent(tick=4028700, channel=0, data=[26, 0]),
   midi.NoteOnEvent(tick=4028800, channel=0, data=[31, 100]),
   midi.NoteOffEvent(tick=4028900, channel=0, data=[31, 0]),
   midi.NoteOnEvent(tick=4029000, channel=0, data=[36, 100]),
   midi.NoteOffEvent(tick=4029100, channel=0, data=[36, 0]),
   midi.NoteOnEvent(tick=4029200, channel=0, data=[27, 100]),
   midi.NoteOffEvent(tick=4029300, channel=0, data=[27, 0]),
   midi.NoteOnEvent(tick=4029400, channel=0, data=[28, 100]),
   midi.NoteOffEvent(tick=4029500, channel=0, data=[28, 0]),
   midi.NoteOnEvent(tick=4029600, channel=0, data=[46, 100]),
   midi.NoteOffEvent(tick=4029700, channel=0, data=[46, 0]),
   midi.NoteOnEvent(tick=4029800, channel=0, data=[26, 100]),
   midi.NoteOffEvent(tick=4029900, channel=0, data=[26, 0]),
   midi.NoteOnEvent(tick=4030000, channel=0, data=[26, 100]),
   midi.NoteOffEvent(tick=4030100, channel=0, data=[26, 0]),
   midi.NoteOnEvent(tick=4030200, channel=0, data=[46, 100]),
   midi.NoteOffEvent(tick=4030300, channel=0, data=[46, 0]),
   midi.NoteOnEvent(tick=4030400, channel=0, data=[26, 100]),
   midi.NoteOffEvent(tick=4030500, channel=0, data=[26, 0]),
   midi.NoteOnEvent(tick=4030600, channel=0, data=[26, 100]),
   midi.NoteOffEvent(tick=4030700, channel=0, data=[26, 0]),
   midi.NoteOnEvent(tick=4030800, channel=0, data=[36, 100]),
   midi.NoteOffEvent(tick=4030900, channel=0, data=[36, 0]),
   midi.NoteOnEvent(tick=4031000, channel=0, data=[0, 100]),
   midi.NoteOffEvent(tick=4031100, channel=0, data=[0, 0]),
   midi.NoteOnEvent(tick=4031200, channel=0, data=[12, 100]),
   midi.NoteOffEvent(tick=4031300, channel=0, data=[12, 0]),
   midi.NoteOnEvent(tick=4031400, channel=0, data=[56, 100]),
   midi.NoteOffEvent(tick=4031500, channel=0, data=[56, 0]),
   midi.NoteOnEvent(tick=4031600, channel=0, data=[56, 100]),
   midi.NoteOffEvent(tick=4031700, channel=0, data=[56, 0]),
   midi.NoteOnEvent(tick=4031800, channel=0, data=[56, 100]),
   midi.NoteOffEvent(tick=4031900, channel=0, data=[56, 0]),
   midi.NoteOnEvent(tick=4032000, channel=0, data=[36, 100]),
   midi.NoteOffEvent(tick=4032100, channel=0, data=[36, 0]),
   midi.NoteOnEvent(tick=4032200, channel=0, data=[36, 100]),
   midi.NoteOffEvent(tick=4032300, channel=0, data=[36, 0]),
   midi.NoteOnEvent(tick=4032400, channel=0, data=[0, 100]),
   midi.NoteOffEvent(tick=4032500, channel=0, data=[0, 0]),
   midi.NoteOnEvent(tick=4032600, channel=0, data=[18, 100]),
   midi.NoteOffEvent(tick=4032700, channel=0, data=[18, 0]),
   midi.NoteOnEvent(tick=4032800, channel=0, data=[18, 100]),
   midi.NoteOffEvent(tick=4032900, channel=0, data=[18, 0]),
   midi.NoteOnEvent(tick=4033000, channel=0, data=[8, 100]),
   midi.NoteOffEvent(tick=4033100, channel=0, data=[8, 0]),
   midi.NoteOnEvent(tick=4033200, channel=0, data=[6, 100]),
   midi.NoteOffEvent(tick=4033300, channel=0, data=[6, 0]),
   midi.NoteOnEvent(tick=4033400, channel=0, data=[13, 100]),
   midi.NoteOffEvent(tick=4033500, channel=0, data=[13, 0]),
   midi.NoteOnEvent(tick=4033600, channel=0, data=[8, 100]),
   midi.NoteOffEvent(tick=4033700, channel=0, data=[8, 0]),
   midi.NoteOnEvent(tick=4033800, channel=0, data=[13, 100]),
   midi.NoteOffEvent(tick=4033900, channel=0, data=[13, 0]),
   midi.NoteOnEvent(tick=4034000, channel=0, data=[6, 100]),
   midi.NoteOffEvent(tick=4034100, channel=0, data=[6, 0]),
   midi.NoteOnEvent(tick=4034200, channel=0, data=[36, 100]),
   midi.NoteOffEvent(tick=4034300, channel=0, data=[36, 0]),
   midi.NoteOnEvent(tick=4034400, channel=0, data=[12, 100]),
   midi.NoteOffEvent(tick=4034500, channel=0, data=[12, 0]),
   midi.NoteOnEvent(tick=4034600, channel=0, data=[20, 100]),
   midi.NoteOffEvent(tick=4034700, channel=0, data=[20, 0]),
   midi.NoteOnEvent(tick=4034800, channel=0, data=[11, 100]),
   midi.NoteOffEvent(tick=4034900, channel=0, data=[11, 0]),
   midi.NoteOnEvent(tick=4035000, channel=0, data=[19, 100]),
   midi.NoteOffEvent(tick=4035100, channel=0, data=[19, 0]),
   midi.NoteOnEvent(tick=4035200, channel=0, data=[8, 100]),
   midi.NoteOffEvent(tick=4035300, channel=0, data=[8, 0]),
   midi.NoteOnEvent(tick=4035400, channel=0, data=[15, 100]),
   midi.NoteOffEvent(tick=4035500, channel=0, data=[15, 0]),
   midi.NoteOnEvent(tick=4035600, channel=0, data=[11, 100]),
   midi.NoteOffEvent(tick=4035700, channel=0, data=[11, 0]),
   midi.NoteOnEvent(tick=4035800, channel=0, data=[4, 100]),
   midi.NoteOffEvent(tick=4035900, channel=0, data=[4, 0]),
   midi.NoteOnEvent(tick=4036000, channel=0, data=[36, 100]),
   midi.NoteOffEvent(tick=4036100, channel=0, data=[36, 0]),
   midi.NoteOnEvent(tick=4036200, channel=0, data=[21, 100]),
   midi.NoteOffEvent(tick=4036300, channel=0, data=[21, 0]),
   midi.NoteOnEvent(tick=4036400, channel=0, data=[0, 100]),
   midi.NoteOffEvent(tick=4036500, channel=0, data=[0, 0]),
   midi.NoteOnEvent(tick=4036600, channel=0, data=[17, 100]),
   midi.NoteOffEvent(tick=4036700, channel=0, data=[17, 0]),
   midi.NoteOnEvent(tick=4036800, channel=0, data=[8, 100]),
   midi.NoteOffEvent(tick=4036900, channel=0, data=[8, 0]),
   midi.NoteOnEvent(tick=4037000, channel=0, data=[0, 100]),
   midi.NoteOffEvent(tick=4037100, channel=0, data=[0, 0]),
   midi.NoteOnEvent(tick=4037200, channel=0, data=[1, 100]),
   midi.NoteOffEvent(tick=4037300, channel=0, data=[1, 0]),
   midi.NoteOnEvent(tick=4037400, channel=0, data=[11, 100]),
   midi.NoteOffEvent(tick=4037500, channel=0, data=[11, 0]),
   midi.NoteOnEvent(tick=4037600, channel=0, data=[4, 100]),
   midi.NoteOffEvent(tick=4037700, channel=0, data=[4, 0]),
   midi.NoteOnEvent(tick=4037800, channel=0, data=[18, 100]),
   midi.NoteOffEvent(tick=4037900, channel=0, data=[18, 0]),
   midi.NoteOnEvent(tick=4038000, channel=0, data=[56, 100]),
   midi.NoteOffEvent(tick=4038100, channel=0, data=[56, 0]),
   midi.NoteOnEvent(tick=4038200, channel=0, data=[36, 100]),
   midi.NoteOffEvent(tick=4038300, channel=0, data=[36, 0]),
   midi.NoteOnEvent(tick=4038400, channel=0, data=[36, 100]),
   midi.NoteOffEvent(tick=4038500, channel=0, data=[36, 0]),
   midi.NoteOnEvent(tick=4038600, channel=0, data=[36, 100]),
   midi.NoteOffEvent(tick=4038700, channel=0, data=[36, 0]),
   midi.NoteOnEvent(tick=4038800, channel=0, data=[36, 100]),
   midi.NoteOffEvent(tick=4038900, channel=0, data=[36, 0]),
   midi.NoteOnEvent(tick=4039000, channel=0, data=[8, 100]),
   midi.NoteOffEvent(tick=4039100, channel=0, data=[8, 0]),
   midi.NoteOnEvent(tick=4039200, channel=0, data=[13, 100]),
   midi.NoteOffEvent(tick=4039300, channel=0, data=[13, 0]),
   midi.NoteOnEvent(tick=4039400, channel=0, data=[36, 100]),
   midi.NoteOffEvent(tick=4039500, channel=0, data=[36, 0]),
   midi.NoteOnEvent(tick=4039600, channel=0, data=[22, 100]),
   midi.NoteOffEvent(tick=4039700, channel=0, data=[22, 0]),
   midi.NoteOnEvent(tick=4039800, channel=0, data=[8, 100]),
   midi.NoteOffEvent(tick=4039900, channel=0, data=[8, 0]),
   midi.NoteOnEvent(tick=4040000, channel=0, data=[13, 100]),
   midi.NoteOffEvent(tick=4040100, channel=0, data=[13, 0]),
   midi.NoteOnEvent(tick=4040200, channel=0, data=[3, 100]),
   midi.NoteOffEvent(tick=4040300, channel=0, data=[3, 0]),
   midi.NoteOnEvent(tick=4040400, channel=0, data=[14, 100]),
   midi.NoteOffEvent(tick=4040500, channel=0, data=[14, 0]),
   midi.NoteOnEvent(tick=4040600, channel=0, data=[22, 100]),
   midi.NoteOffEvent(tick=4040700, channel=0, data=[22, 0]),
   midi.NoteOnEvent(tick=4040800, channel=0, data=[18, 100]),
   midi.NoteOffEvent(tick=4040900, channel=0, data=[18, 0]),
   midi.NoteOnEvent(tick=4041000, channel=0, data=[36, 100]),
   midi.NoteOffEvent(tick=4041100, channel=0, data=[36, 0]),
   midi.NoteOnEvent(tick=4041200, channel=0, data=[15, 100]),
   midi.NoteOffEvent(tick=4041300, channel=0, data=[15, 0]),
   midi.NoteOnEvent(tick=4041400, channel=0, data=[14, 100]),
   midi.NoteOffEvent(tick=4041500, channel=0, data=[14, 0]),
   midi.NoteOnEvent(tick=4041600, channel=0, data=[22, 100]),
   midi.NoteOffEvent(tick=4041700, channel=0, data=[22, 0]),
   midi.NoteOnEvent(tick=4041800, channel=0, data=[4, 100]),
   midi.NoteOffEvent(tick=4041900, channel=0, data=[4, 0]),
   midi.NoteOnEvent(tick=4042000, channel=0, data=[17, 100]),
   midi.NoteOffEvent(tick=4042100, channel=0, data=[17, 0]),
   midi.NoteOnEvent(tick=4042200, channel=0, data=[18, 100]),
   midi.NoteOffEvent(tick=4042300, channel=0, data=[18, 0]),
   midi.NoteOnEvent(tick=4042400, channel=0, data=[7, 100]),
   midi.NoteOffEvent(tick=4042500, channel=0, data=[7, 0]),
   midi.NoteOnEvent(tick=4042600, channel=0, data=[4, 100]),
   midi.NoteOffEvent(tick=4042700, channel=0, data=[4, 0]),
   midi.NoteOnEvent(tick=4042800, channel=0, data=[11, 100]),
   midi.NoteOffEvent(tick=4042900, channel=0, data=[11, 0]),
   midi.NoteOnEvent(tick=4043000, channel=0, data=[11, 100]),
   midi.NoteOffEvent(tick=4043100, channel=0, data=[11, 0]),
   midi.NoteOnEvent(tick=4043200, channel=0, data=[38, 100]),
   midi.NoteOffEvent(tick=4043300, channel=0, data=[38, 0]),
   midi.NoteOnEvent(tick=4043400, channel=0, data=[36, 100]),
   midi.NoteOffEvent(tick=4043500, channel=0, data=[36, 0]),
   midi.NoteOnEvent(tick=4043600, channel=0, data=[24, 100]),
   midi.NoteOffEvent(tick=4043700, channel=0, data=[24, 0]),
   midi.NoteOnEvent(tick=4043800, channel=0, data=[14, 100]),
   midi.NoteOffEvent(tick=4043900, channel=0, data=[14, 0]),
   midi.NoteOnEvent(tick=4044000, channel=0, data=[20, 100]),
   midi.NoteOffEvent(tick=4044100, channel=0, data=[20, 0]),
   midi.NoteOnEvent(tick=4044200, channel=0, data=[36, 100]),
   midi.NoteOffEvent(tick=4044300, channel=0, data=[36, 0]),
   midi.NoteOnEvent(tick=4044400, channel=0, data=[2, 100]),
   midi.NoteOffEvent(tick=4044500, channel=0, data=[2, 0]),
   midi.NoteOnEvent(tick=4044600, channel=0, data=[0, 100]),
   midi.NoteOffEvent(tick=4044700, channel=0, data=[0, 0]),
   midi.NoteOnEvent(tick=4044800, channel=0, data=[13, 100]),
   midi.NoteOffEvent(tick=4044900, channel=0, data=[13, 0]),
   midi.NoteOnEvent(tick=4045000, channel=0, data=[36, 100]),
   midi.NoteOffEvent(tick=4045100, channel=0, data=[36, 0]),
   midi.NoteOnEvent(tick=4045200, channel=0, data=[0, 100]),
   midi.NoteOffEvent(tick=4045300, channel=0, data=[0, 0]),
   midi.NoteOnEvent(tick=4045400, channel=0, data=[18, 100]),
   midi.NoteOffEvent(tick=4045500, channel=0, data=[18, 0]),
   midi.NoteOnEvent(tick=4045600, channel=0, data=[18, 100]),
   midi.NoteOffEvent(tick=4045700, channel=0, data=[18, 0]),
   midi.NoteOnEvent(tick=4045800, channel=0, data=[8, 100]),
   midi.NoteOffEvent(tick=4045900, channel=0, data=[8, 0]),
   midi.NoteOnEvent(tick=4046000, channel=0, data=[6, 100]),
   midi.NoteOffEvent(tick=4046100, channel=0, data=[6, 0]),
   midi.NoteOnEvent(tick=4046200, channel=0, data=[13, 100]),
   midi.NoteOffEvent(tick=4046300, channel=0, data=[13, 0]),
   midi.NoteOnEvent(tick=4046400, channel=0, data=[36, 100]),
   midi.NoteOffEvent(tick=4046500, channel=0, data=[36, 0]),
   midi.NoteOnEvent(tick=4046600, channel=0, data=[21, 100]),
   midi.NoteOffEvent(tick=4046700, channel=0, data=[21, 0]),
   midi.NoteOnEvent(tick=4046800, channel=0, data=[0, 100]),
   midi.NoteOffEvent(tick=4046900, channel=0, data=[0, 0]),
   midi.NoteOnEvent(tick=4047000, channel=0, data=[11, 100]),
   midi.NoteOffEvent(tick=4047100, channel=0, data=[11, 0]),
   midi.NoteOnEvent(tick=4047200, channel=0, data=[20, 100]),
   midi.NoteOffEvent(tick=4047300, channel=0, data=[20, 0]),
   midi.NoteOnEvent(tick=4047400, channel=0, data=[4, 100]),
   midi.NoteOffEvent(tick=4047500, channel=0, data=[4, 0]),
   midi.NoteOnEvent(tick=4047600, channel=0, data=[18, 100]),
   midi.NoteOffEvent(tick=4047700, channel=0, data=[18, 0]),
   midi.NoteOnEvent(tick=4047800, channel=0, data=[36, 100]),
   midi.NoteOffEvent(tick=4047900, channel=0, data=[36, 0]),
   midi.NoteOnEvent(tick=4048000, channel=0, data=[19, 100]),
   midi.NoteOffEvent(tick=4048100, channel=0, data=[19, 0]),
   midi.NoteOnEvent(tick=4048200, channel=0, data=[14, 100]),
   midi.NoteOffEvent(tick=4048300, channel=0, data=[14, 0]),
   midi.NoteOnEvent(tick=4048400, channel=0, data=[36, 100]),
   midi.NoteOffEvent(tick=4048500, channel=0, data=[36, 0]),
   midi.NoteOnEvent(tick=4048600, channel=0, data=[12, 100]),
   midi.NoteOffEvent(tick=4048700, channel=0, data=[12, 0]),
   midi.NoteOnEvent(tick=4048800, channel=0, data=[20, 100]),
   midi.NoteOffEvent(tick=4048900, channel=0, data=[20, 0]),
   midi.NoteOnEvent(tick=4049000, channel=0, data=[11, 100]),
   midi.NoteOffEvent(tick=4049100, channel=0, data=[11, 0]),
   midi.NoteOnEvent(tick=4049200, channel=0, data=[19, 100]),
   midi.NoteOffEvent(tick=4049300, channel=0, data=[19, 0]),
   midi.NoteOnEvent(tick=4049400, channel=0, data=[8, 100]),
   midi.NoteOffEvent(tick=4049500, channel=0, data=[8, 0]),
   midi.NoteOnEvent(tick=4049600, channel=0, data=[15, 100]),
   midi.NoteOffEvent(tick=4049700, channel=0, data=[15, 0]),
   midi.NoteOnEvent(tick=4049800, channel=0, data=[11, 100]),
   midi.NoteOffEvent(tick=4049900, channel=0, data=[11, 0]),
   midi.NoteOnEvent(tick=4050000, channel=0, data=[4, 100]),
   midi.NoteOffEvent(tick=4050100, channel=0, data=[4, 0]),
   midi.NoteOnEvent(tick=4050200, channel=0, data=[36, 100]),
   midi.NoteOffEvent(tick=4050300, channel=0, data=[36, 0]),
   midi.NoteOnEvent(tick=4050400, channel=0, data=[21, 100]),
   midi.NoteOffEvent(tick=4050500, channel=0, data=[21, 0]),
   midi.NoteOnEvent(tick=4050600, channel=0, data=[0, 100]),
   midi.NoteOffEvent(tick=4050700, channel=0, data=[0, 0]),
   midi.NoteOnEvent(tick=4050800, channel=0, data=[17, 100]),
   midi.NoteOffEvent(tick=4050900, channel=0, data=[17, 0]),
   midi.NoteOnEvent(tick=4051000, channel=0, data=[8, 100]),
   midi.NoteOffEvent(tick=4051100, channel=0, data=[8, 0]),
   midi.NoteOnEvent(tick=4051200, channel=0, data=[0, 100]),
   midi.NoteOffEvent(tick=4051300, channel=0, data=[0, 0]),
   midi.NoteOnEvent(tick=4051400, channel=0, data=[1, 100]),
   midi.NoteOffEvent(tick=4051500, channel=0, data=[1, 0]),
   midi.NoteOnEvent(tick=4051600, channel=0, data=[11, 100]),
   midi.NoteOffEvent(tick=4051700, channel=0, data=[11, 0]),
   midi.NoteOnEvent(tick=4051800, channel=0, data=[4, 100]),
   midi.NoteOffEvent(tick=4051900, channel=0, data=[4, 0]),
   midi.NoteOnEvent(tick=4052000, channel=0, data=[18, 100]),
   midi.NoteOffEvent(tick=4052100, channel=0, data=[18, 0]),
   midi.NoteOnEvent(tick=4052200, channel=0, data=[36, 100]),
   midi.NoteOffEvent(tick=4052300, channel=0, data=[36, 0]),
   midi.NoteOnEvent(tick=4052400, channel=0, data=[1, 100]),
   midi.NoteOffEvent(tick=4052500, channel=0, data=[1, 0]),
   midi.NoteOnEvent(tick=4052600, channel=0, data=[24, 100]),
   midi.NoteOffEvent(tick=4052700, channel=0, data=[24, 0]),
   midi.NoteOnEvent(tick=4052800, channel=0, data=[36, 100]),
   midi.NoteOffEvent(tick=4052900, channel=0, data=[36, 0]),
   midi.NoteOnEvent(tick=4053000, channel=0, data=[20, 100]),
   midi.NoteOffEvent(tick=4053100, channel=0, data=[20, 0]),
   midi.NoteOnEvent(tick=4053200, channel=0, data=[18, 100]),
   midi.NoteOffEvent(tick=4053300, channel=0, data=[18, 0]),
   midi.NoteOnEvent(tick=4053400, channel=0, data=[8, 100]),
   midi.NoteOffEvent(tick=4053500, channel=0, data=[8, 0]),
   midi.NoteOnEvent(tick=4053600, channel=0, data=[13, 100]),
   midi.NoteOffEvent(tick=4053700, channel=0, data=[13, 0]),
   midi.NoteOnEvent(tick=4053800, channel=0, data=[6, 100]),
   midi.NoteOffEvent(tick=4053900, channel=0, data=[6, 0]),
   midi.NoteOnEvent(tick=4054000, channel=0, data=[56, 100]),
   midi.NoteOffEvent(tick=4054100, channel=0, data=[56, 0]),
   midi.NoteOnEvent(tick=4054200, channel=0, data=[36, 100]),
   midi.NoteOffEvent(tick=4054300, channel=0, data=[36, 0]),
   midi.NoteOnEvent(tick=4054400, channel=0, data=[36, 100]),
   midi.NoteOffEvent(tick=4054500, channel=0, data=[36, 0]),
   midi.NoteOnEvent(tick=4054600, channel=0, data=[36, 100]),
   midi.NoteOffEvent(tick=4054700, channel=0, data=[36, 0]),
   midi.NoteOnEvent(tick=4054800, channel=0, data=[36, 100]),
   midi.NoteOffEvent(tick=4054900, channel=0, data=[36, 0]),
   midi.NoteOnEvent(tick=4055000, channel=0, data=[0, 100]),
   midi.NoteOffEvent(tick=4055100, channel=0, data=[0, 0]),
   midi.NoteOnEvent(tick=4055200, channel=0, data=[36, 100]),
   midi.NoteOffEvent(tick=4055300, channel=0, data=[36, 0]),
   midi.NoteOnEvent(tick=4055400, channel=0, data=[18, 100]),
   midi.NoteOffEvent(tick=4055500, channel=0, data=[18, 0]),
   midi.NoteOnEvent(tick=4055600, channel=0, data=[8, 100]),
   midi.NoteOffEvent(tick=4055700, channel=0, data=[8, 0]),
   midi.NoteOnEvent(tick=4055800, channel=0, data=[13, 100]),
   midi.NoteOffEvent(tick=4055900, channel=0, data=[13, 0]),
   midi.NoteOnEvent(tick=4056000, channel=0, data=[6, 100]),
   midi.NoteOffEvent(tick=4056100, channel=0, data=[6, 0]),
   midi.NoteOnEvent(tick=4056200, channel=0, data=[11, 100]),
   midi.NoteOffEvent(tick=4056300, channel=0, data=[11, 0]),
   midi.NoteOnEvent(tick=4056400, channel=0, data=[4, 100]),
   midi.NoteOffEvent(tick=4056500, channel=0, data=[4, 0]),
   midi.NoteOnEvent(tick=4056600, channel=0, data=[36, 100]),
   midi.NoteOffEvent(tick=4056700, channel=0, data=[36, 0]),
   midi.NoteOnEvent(tick=4056800, channel=0, data=[2, 100]),
   midi.NoteOffEvent(tick=4056900, channel=0, data=[2, 0]),
   midi.NoteOnEvent(tick=4057000, channel=0, data=[14, 100]),
   midi.NoteOffEvent(tick=4057100, channel=0, data=[14, 0]),
   midi.NoteOnEvent(tick=4057200, channel=0, data=[12, 100]),
   midi.NoteOffEvent(tick=4057300, channel=0, data=[12, 0]),
   midi.NoteOnEvent(tick=4057400, channel=0, data=[12, 100]),
   midi.NoteOffEvent(tick=4057500, channel=0, data=[12, 0]),
   midi.NoteOnEvent(tick=4057600, channel=0, data=[0, 100]),
   midi.NoteOffEvent(tick=4057700, channel=0, data=[0, 0]),
   midi.NoteOnEvent(tick=4057800, channel=0, data=[13, 100]),
   midi.NoteOffEvent(tick=4057900, channel=0, data=[13, 0]),
   midi.NoteOnEvent(tick=4058000, channel=0, data=[3, 100]),
   midi.NoteOffEvent(tick=4058100, channel=0, data=[3, 0]),
   midi.NoteOnEvent(tick=4058200, channel=0, data=[37, 100]),
   midi.NoteOffEvent(tick=4058300, channel=0, data=[37, 0]),
   midi.NoteOnEvent(tick=4058400, channel=0, data=[36, 100]),
   midi.NoteOffEvent(tick=4058500, channel=0, data=[36, 0]),
   midi.NoteOnEvent(tick=4058600, channel=0, data=[19, 100]),
   midi.NoteOffEvent(tick=4058700, channel=0, data=[19, 0]),
   midi.NoteOnEvent(tick=4058800, channel=0, data=[7, 100]),
   midi.NoteOffEvent(tick=4058900, channel=0, data=[7, 0]),
   midi.NoteOnEvent(tick=4059000, channel=0, data=[4, 100]),
   midi.NoteOffEvent(tick=4059100, channel=0, data=[4, 0]),
   midi.NoteOnEvent(tick=4059200, channel=0, data=[36, 100]),
   midi.NoteOffEvent(tick=4059300, channel=0, data=[36, 0]),
   midi.NoteOnEvent(tick=4059400, channel=0, data=[5, 100]),
   midi.NoteOffEvent(tick=4059500, channel=0, data=[5, 0]),
   midi.NoteOnEvent(tick=4059600, channel=0, data=[8, 100]),
   midi.NoteOffEvent(tick=4059700, channel=0, data=[8, 0]),
   midi.NoteOnEvent(tick=4059800, channel=0, data=[17, 100]),
   midi.NoteOffEvent(tick=4059900, channel=0, data=[17, 0]),
   midi.NoteOnEvent(tick=4060000, channel=0, data=[18, 100]),
   midi.NoteOffEvent(tick=4060100, channel=0, data=[18, 0]),
   midi.NoteOnEvent(tick=4060200, channel=0, data=[19, 100]),
   midi.NoteOffEvent(tick=4060300, channel=0, data=[19, 0]),
   midi.NoteOnEvent(tick=4060400, channel=0, data=[36, 100]),
   midi.NoteOffEvent(tick=4060500, channel=0, data=[36, 0]),
   midi.NoteOnEvent(tick=4060600, channel=0, data=[4, 100]),
   midi.NoteOffEvent(tick=4060700, channel=0, data=[4, 0]),
   midi.NoteOnEvent(tick=4060800, channel=0, data=[11, 100]),
   midi.NoteOffEvent(tick=4060900, channel=0, data=[11, 0]),
   midi.NoteOnEvent(tick=4061000, channel=0, data=[4, 100]),
   midi.NoteOffEvent(tick=4061100, channel=0, data=[4, 0]),
   midi.NoteOnEvent(tick=4061200, channel=0, data=[12, 100]),
   midi.NoteOffEvent(tick=4061300, channel=0, data=[12, 0]),
   midi.NoteOnEvent(tick=4061400, channel=0, data=[4, 100]),
   midi.NoteOffEvent(tick=4061500, channel=0, data=[4, 0]),
   midi.NoteOnEvent(tick=4061600, channel=0, data=[13, 100]),
   midi.NoteOffEvent(tick=4061700, channel=0, data=[13, 0]),
   midi.NoteOnEvent(tick=4061800, channel=0, data=[19, 100]),
   midi.NoteOffEvent(tick=4061900, channel=0, data=[19, 0]),
   midi.NoteOnEvent(tick=4062000, channel=0, data=[36, 100]),
   midi.NoteOffEvent(tick=4062100, channel=0, data=[36, 0]),
   midi.NoteOnEvent(tick=4062200, channel=0, data=[14, 100]),
   midi.NoteOffEvent(tick=4062300, channel=0, data=[14, 0]),
   midi.NoteOnEvent(tick=4062400, channel=0, data=[5, 100]),
   midi.NoteOffEvent(tick=4062500, channel=0, data=[5, 0]),
   midi.NoteOnEvent(tick=4062600, channel=0, data=[36, 100]),
   midi.NoteOffEvent(tick=4062700, channel=0, data=[36, 0]),
   midi.NoteOnEvent(tick=4062800, channel=0, data=[19, 100]),
   midi.NoteOffEvent(tick=4062900, channel=0, data=[19, 0]),
   midi.NoteOnEvent(tick=4063000, channel=0, data=[7, 100]),
   midi.NoteOffEvent(tick=4063100, channel=0, data=[7, 0]),
   midi.NoteOnEvent(tick=4063200, channel=0, data=[4, 100]),
   midi.NoteOffEvent(tick=4063300, channel=0, data=[4, 0]),
   midi.NoteOnEvent(tick=4063400, channel=0, data=[36, 100]),
   midi.NoteOffEvent(tick=4063500, channel=0, data=[36, 0]),
   midi.NoteOnEvent(tick=4063600, channel=0, data=[0, 100]),
   midi.NoteOffEvent(tick=4063700, channel=0, data=[0, 0]),
   midi.NoteOnEvent(tick=4063800, channel=0, data=[18, 100]),
   midi.NoteOffEvent(tick=4063900, channel=0, data=[18, 0]),
   midi.NoteOnEvent(tick=4064000, channel=0, data=[18, 100]),
   midi.NoteOffEvent(tick=4064100, channel=0, data=[18, 0]),
   midi.NoteOnEvent(tick=4064200, channel=0, data=[8, 100]),
   midi.NoteOffEvent(tick=4064300, channel=0, data=[8, 0]),
   midi.NoteOnEvent(tick=4064400, channel=0, data=[6, 100]),
   midi.NoteOffEvent(tick=4064500, channel=0, data=[6, 0]),
   midi.NoteOnEvent(tick=4064600, channel=0, data=[13, 100]),
   midi.NoteOffEvent(tick=4064700, channel=0, data=[13, 0]),
   midi.NoteOnEvent(tick=4064800, channel=0, data=[12, 100]),
   midi.NoteOffEvent(tick=4064900, channel=0, data=[12, 0]),
   midi.NoteOnEvent(tick=4065000, channel=0, data=[4, 100]),
   midi.NoteOffEvent(tick=4065100, channel=0, data=[4, 0]),
   midi.NoteOnEvent(tick=4065200, channel=0, data=[13, 100]),
   midi.NoteOffEvent(tick=4065300, channel=0, data=[13, 0]),
   midi.NoteOnEvent(tick=4065400, channel=0, data=[19, 100]),
   midi.NoteOffEvent(tick=4065500, channel=0, data=[19, 0]),
   midi.NoteOnEvent(tick=4065600, channel=0, data=[36, 100]),
   midi.NoteOffEvent(tick=4065700, channel=0, data=[36, 0]),
   midi.NoteOnEvent(tick=4065800, channel=0, data=[21, 100]),
   midi.NoteOffEvent(tick=4065900, channel=0, data=[21, 0]),
   midi.NoteOnEvent(tick=4066000, channel=0, data=[0, 100]),
   midi.NoteOffEvent(tick=4066100, channel=0, data=[0, 0]),
   midi.NoteOnEvent(tick=4066200, channel=0, data=[11, 100]),
   midi.NoteOffEvent(tick=4066300, channel=0, data=[11, 0]),
   midi.NoteOnEvent(tick=4066400, channel=0, data=[20, 100]),
   midi.NoteOffEvent(tick=4066500, channel=0, data=[20, 0]),
   midi.NoteOnEvent(tick=4066600, channel=0, data=[4, 100]),
   midi.NoteOffEvent(tick=4066700, channel=0, data=[4, 0]),
   midi.NoteOnEvent(tick=4066800, channel=0, data=[36, 100]),
   midi.NoteOffEvent(tick=4066900, channel=0, data=[36, 0]),
   midi.NoteOnEvent(tick=4067000, channel=0, data=[8, 100]),
   midi.NoteOffEvent(tick=4067100, channel=0, data=[8, 0]),
   midi.NoteOnEvent(tick=4067200, channel=0, data=[18, 100]),
   midi.NoteOffEvent(tick=4067300, channel=0, data=[18, 0]),
   midi.NoteOnEvent(tick=4067400, channel=0, data=[36, 100]),
   midi.NoteOffEvent(tick=4067500, channel=0, data=[36, 0]),
   midi.NoteOnEvent(tick=4067600, channel=0, data=[0, 100]),
   midi.NoteOffEvent(tick=4067700, channel=0, data=[0, 0]),
   midi.NoteOnEvent(tick=4067800, channel=0, data=[18, 100]),
   midi.NoteOffEvent(tick=4067900, channel=0, data=[18, 0]),
   midi.NoteOnEvent(tick=4068000, channel=0, data=[18, 100]),
   midi.NoteOffEvent(tick=4068100, channel=0, data=[18, 0]),
   midi.NoteOnEvent(tick=4068200, channel=0, data=[8, 100]),
   midi.NoteOffEvent(tick=4068300, channel=0, data=[8, 0]),
   midi.NoteOnEvent(tick=4068400, channel=0, data=[6, 100]),
   midi.NoteOffEvent(tick=4068500, channel=0, data=[6, 0]),
   midi.NoteOnEvent(tick=4068600, channel=0, data=[13, 100]),
   midi.NoteOffEvent(tick=4068700, channel=0, data=[13, 0]),
   midi.NoteOnEvent(tick=4068800, channel=0, data=[4, 100]),
   midi.NoteOffEvent(tick=4068900, channel=0, data=[4, 0]),
   midi.NoteOnEvent(tick=4069000, channel=0, data=[3, 100]),
   midi.NoteOffEvent(tick=4069100, channel=0, data=[3, 0]),
   midi.NoteOnEvent(tick=4069200, channel=0, data=[36, 100]),
   midi.NoteOffEvent(tick=4069300, channel=0, data=[36, 0]),
   midi.NoteOnEvent(tick=4069400, channel=0, data=[19, 100]),
   midi.NoteOffEvent(tick=4069500, channel=0, data=[19, 0]),
   midi.NoteOnEvent(tick=4069600, channel=0, data=[14, 100]),
   midi.NoteOffEvent(tick=4069700, channel=0, data=[14, 0]),
   midi.NoteOnEvent(tick=4069800, channel=0, data=[36, 100]),
   midi.NoteOffEvent(tick=4069900, channel=0, data=[36, 0]),
   midi.NoteOnEvent(tick=4070000, channel=0, data=[56, 100]),
   midi.NoteOffEvent(tick=4070100, channel=0, data=[56, 0]),
   midi.NoteOnEvent(tick=4070200, channel=0, data=[36, 100]),
   midi.NoteOffEvent(tick=4070300, channel=0, data=[36, 0]),
   midi.NoteOnEvent(tick=4070400, channel=0, data=[36, 100]),
   midi.NoteOffEvent(tick=4070500, channel=0, data=[36, 0]),
   midi.NoteOnEvent(tick=4070600, channel=0, data=[36, 100]),
   midi.NoteOffEvent(tick=4070700, channel=0, data=[36, 0]),
   midi.NoteOnEvent(tick=4070800, channel=0, data=[36, 100]),
   midi.NoteOffEvent(tick=4070900, channel=0, data=[36, 0]),
   midi.NoteOnEvent(tick=4071000, channel=0, data=[19, 100]),
   midi.NoteOffEvent(tick=4071100, channel=0, data=[19, 0]),
   midi.NoteOnEvent(tick=4071200, channel=0, data=[7, 100]),
   midi.NoteOffEvent(tick=4071300, channel=0, data=[7, 0]),
   midi.NoteOnEvent(tick=4071400, channel=0, data=[4, 100]),
   midi.NoteOffEvent(tick=4071500, channel=0, data=[4, 0]),
   midi.NoteOnEvent(tick=4071600, channel=0, data=[36, 100]),
   midi.NoteOffEvent(tick=4071700, channel=0, data=[36, 0]),
   midi.NoteOnEvent(tick=4071800, channel=0, data=[5, 100]),
   midi.NoteOffEvent(tick=4071900, channel=0, data=[5, 0]),
   midi.NoteOnEvent(tick=4072000, channel=0, data=[8, 100]),
   midi.NoteOffEvent(tick=4072100, channel=0, data=[8, 0]),
   midi.NoteOnEvent(tick=4072200, channel=0, data=[17, 100]),
   midi.NoteOffEvent(tick=4072300, channel=0, data=[17, 0]),
   midi.NoteOnEvent(tick=4072400, channel=0, data=[18, 100]),
   midi.NoteOffEvent(tick=4072500, channel=0, data=[18, 0]),
   midi.NoteOnEvent(tick=4072600, channel=0, data=[19, 100]),
   midi.NoteOffEvent(tick=4072700, channel=0, data=[19, 0]),
   midi.NoteOnEvent(tick=4072800, channel=0, data=[36, 100]),
   midi.NoteOffEvent(tick=4072900, channel=0, data=[36, 0]),
   midi.NoteOnEvent(tick=4073000, channel=0, data=[21, 100]),
   midi.NoteOffEvent(tick=4073100, channel=0, data=[21, 0]),
   midi.NoteOnEvent(tick=4073200, channel=0, data=[0, 100]),
   midi.NoteOffEvent(tick=4073300, channel=0, data=[0, 0]),
   midi.NoteOnEvent(tick=4073400, channel=0, data=[17, 100]),
   midi.NoteOffEvent(tick=4073500, channel=0, data=[17, 0]),
   midi.NoteOnEvent(tick=4073600, channel=0, data=[8, 100]),
   midi.NoteOffEvent(tick=4073700, channel=0, data=[8, 0]),
   midi.NoteOnEvent(tick=4073800, channel=0, data=[0, 100]),
   midi.NoteOffEvent(tick=4073900, channel=0, data=[0, 0]),
   midi.NoteOnEvent(tick=4074000, channel=0, data=[1, 100]),
   midi.NoteOffEvent(tick=4074100, channel=0, data=[1, 0]),
   midi.NoteOnEvent(tick=4074200, channel=0, data=[11, 100]),
   midi.NoteOffEvent(tick=4074300, channel=0, data=[11, 0]),
   midi.NoteOnEvent(tick=4074400, channel=0, data=[4, 100]),
   midi.NoteOffEvent(tick=4074500, channel=0, data=[4, 0]),
   midi.NoteOnEvent(tick=4074600, channel=0, data=[38, 100]),
   midi.NoteOffEvent(tick=4074700, channel=0, data=[38, 0]),
   midi.NoteOnEvent(tick=4074800, channel=0, data=[36, 100]),
   midi.NoteOffEvent(tick=4074900, channel=0, data=[36, 0]),
   midi.NoteOnEvent(tick=4075000, channel=0, data=[19, 100]),
   midi.NoteOffEvent(tick=4075100, channel=0, data=[19, 0]),
   midi.NoteOnEvent(tick=4075200, channel=0, data=[7, 100]),
   midi.NoteOffEvent(tick=4075300, channel=0, data=[7, 0]),
   midi.NoteOnEvent(tick=4075400, channel=0, data=[4, 100]),
   midi.NoteOffEvent(tick=4075500, channel=0, data=[4, 0]),
   midi.NoteOnEvent(tick=4075600, channel=0, data=[36, 100]),
   midi.NoteOffEvent(tick=4075700, channel=0, data=[36, 0]),
   midi.NoteOnEvent(tick=4075800, channel=0, data=[18, 100]),
   midi.NoteOffEvent(tick=4075900, channel=0, data=[18, 0]),
   midi.NoteOnEvent(tick=4076000, channel=0, data=[4, 100]),
   midi.NoteOffEvent(tick=4076100, channel=0, data=[4, 0]),
   midi.NoteOnEvent(tick=4076200, channel=0, data=[2, 100]),
   midi.NoteOffEvent(tick=4076300, channel=0, data=[2, 0]),
   midi.NoteOnEvent(tick=4076400, channel=0, data=[14, 100]),
   midi.NoteOffEvent(tick=4076500, channel=0, data=[14, 0]),
   midi.NoteOnEvent(tick=4076600, channel=0, data=[13, 100]),
   midi.NoteOffEvent(tick=4076700, channel=0, data=[13, 0]),
   midi.NoteOnEvent(tick=4076800, channel=0, data=[3, 100]),
   midi.NoteOffEvent(tick=4076900, channel=0, data=[3, 0]),
   midi.NoteOnEvent(tick=4077000, channel=0, data=[36, 100]),
   midi.NoteOffEvent(tick=4077100, channel=0, data=[36, 0]),
   midi.NoteOnEvent(tick=4077200, channel=0, data=[4, 100]),
   midi.NoteOffEvent(tick=4077300, channel=0, data=[4, 0]),
   midi.NoteOnEvent(tick=4077400, channel=0, data=[11, 100]),
   midi.NoteOffEvent(tick=4077500, channel=0, data=[11, 0]),
   midi.NoteOnEvent(tick=4077600, channel=0, data=[4, 100]),
   midi.NoteOffEvent(tick=4077700, channel=0, data=[4, 0]),
   midi.NoteOnEvent(tick=4077800, channel=0, data=[12, 100]),
   midi.NoteOffEvent(tick=4077900, channel=0, data=[12, 0]),
   midi.NoteOnEvent(tick=4078000, channel=0, data=[4, 100]),
   midi.NoteOffEvent(tick=4078100, channel=0, data=[4, 0]),
   midi.NoteOnEvent(tick=4078200, channel=0, data=[13, 100]),
   midi.NoteOffEvent(tick=4078300, channel=0, data=[13, 0]),
   midi.NoteOnEvent(tick=4078400, channel=0, data=[19, 100]),
   midi.NoteOffEvent(tick=4078500, channel=0, data=[19, 0]),
   midi.NoteOnEvent(tick=4078600, channel=0, data=[36, 100]),
   midi.NoteOffEvent(tick=4078700, channel=0, data=[36, 0]),
   midi.NoteOnEvent(tick=4078800, channel=0, data=[8, 100]),
   midi.NoteOffEvent(tick=4078900, channel=0, data=[8, 0]),
   midi.NoteOnEvent(tick=4079000, channel=0, data=[18, 100]),
   midi.NoteOffEvent(tick=4079100, channel=0, data=[18, 0]),
   midi.NoteOnEvent(tick=4079200, channel=0, data=[36, 100]),
   midi.NoteOffEvent(tick=4079300, channel=0, data=[36, 0]),
   midi.NoteOnEvent(tick=4079400, channel=0, data=[0, 100]),
   midi.NoteOffEvent(tick=4079500, channel=0, data=[0, 0]),
   midi.NoteOnEvent(tick=4079600, channel=0, data=[18, 100]),
   midi.NoteOffEvent(tick=4079700, channel=0, data=[18, 0]),
   midi.NoteOnEvent(tick=4079800, channel=0, data=[18, 100]),
   midi.NoteOffEvent(tick=4079900, channel=0, data=[18, 0]),
   midi.NoteOnEvent(tick=4080000, channel=0, data=[8, 100]),
   midi.NoteOffEvent(tick=4080100, channel=0, data=[8, 0]),
   midi.NoteOnEvent(tick=4080200, channel=0, data=[6, 100]),
   midi.NoteOffEvent(tick=4080300, channel=0, data=[6, 0]),
   midi.NoteOnEvent(tick=4080400, channel=0, data=[13, 100]),
   midi.NoteOffEvent(tick=4080500, channel=0, data=[13, 0]),
   midi.NoteOnEvent(tick=4080600, channel=0, data=[4, 100]),
   midi.NoteOffEvent(tick=4080700, channel=0, data=[4, 0]),
   midi.NoteOnEvent(tick=4080800, channel=0, data=[3, 100]),
   midi.NoteOffEvent(tick=4080900, channel=0, data=[3, 0]),
   midi.NoteOnEvent(tick=4081000, channel=0, data=[36, 100]),
   midi.NoteOffEvent(tick=4081100, channel=0, data=[36, 0]),
   midi.NoteOnEvent(tick=4081200, channel=0, data=[19, 100]),
   midi.NoteOffEvent(tick=4081300, channel=0, data=[19, 0]),
   midi.NoteOnEvent(tick=4081400, channel=0, data=[14, 100]),
   midi.NoteOffEvent(tick=4081500, channel=0, data=[14, 0]),
   midi.NoteOnEvent(tick=4081600, channel=0, data=[36, 100]),
   midi.NoteOffEvent(tick=4081700, channel=0, data=[36, 0]),
   midi.NoteOnEvent(tick=4081800, channel=0, data=[19, 100]),
   midi.NoteOffEvent(tick=4081900, channel=0, data=[19, 0]),
   midi.NoteOnEvent(tick=4082000, channel=0, data=[7, 100]),
   midi.NoteOffEvent(tick=4082100, channel=0, data=[7, 0]),
   midi.NoteOnEvent(tick=4082200, channel=0, data=[4, 100]),
   midi.NoteOffEvent(tick=4082300, channel=0, data=[4, 0]),
   midi.NoteOnEvent(tick=4082400, channel=0, data=[36, 100]),
   midi.NoteOffEvent(tick=4082500, channel=0, data=[36, 0]),
   midi.NoteOnEvent(tick=4082600, channel=0, data=[18, 100]),
   midi.NoteOffEvent(tick=4082700, channel=0, data=[18, 0]),
   midi.NoteOnEvent(tick=4082800, channel=0, data=[4, 100]),
   midi.NoteOffEvent(tick=4082900, channel=0, data=[4, 0]),
   midi.NoteOnEvent(tick=4083000, channel=0, data=[2, 100]),
   midi.NoteOffEvent(tick=4083100, channel=0, data=[2, 0]),
   midi.NoteOnEvent(tick=4083200, channel=0, data=[14, 100]),
   midi.NoteOffEvent(tick=4083300, channel=0, data=[14, 0]),
   midi.NoteOnEvent(tick=4083400, channel=0, data=[13, 100]),
   midi.NoteOffEvent(tick=4083500, channel=0, data=[13, 0]),
   midi.NoteOnEvent(tick=4083600, channel=0, data=[3, 100]),
   midi.NoteOffEvent(tick=4083700, channel=0, data=[3, 0]),
   midi.NoteOnEvent(tick=4083800, channel=0, data=[36, 100]),
   midi.NoteOffEvent(tick=4083900, channel=0, data=[36, 0]),
   midi.NoteOnEvent(tick=4084000, channel=0, data=[21, 100]),
   midi.NoteOffEvent(tick=4084100, channel=0, data=[21, 0]),
   midi.NoteOnEvent(tick=4084200, channel=0, data=[0, 100]),
   midi.NoteOffEvent(tick=4084300, channel=0, data=[0, 0]),
   midi.NoteOnEvent(tick=4084400, channel=0, data=[17, 100]),
   midi.NoteOffEvent(tick=4084500, channel=0, data=[17, 0]),
   midi.NoteOnEvent(tick=4084600, channel=0, data=[8, 100]),
   midi.NoteOffEvent(tick=4084700, channel=0, data=[8, 0]),
   midi.NoteOnEvent(tick=4084800, channel=0, data=[0, 100]),
   midi.NoteOffEvent(tick=4084900, channel=0, data=[0, 0]),
   midi.NoteOnEvent(tick=4085000, channel=0, data=[1, 100]),
   midi.NoteOffEvent(tick=4085100, channel=0, data=[1, 0]),
   midi.NoteOnEvent(tick=4085200, channel=0, data=[11, 100]),
   midi.NoteOffEvent(tick=4085300, channel=0, data=[11, 0]),
   midi.NoteOnEvent(tick=4085400, channel=0, data=[4, 100]),
   midi.NoteOffEvent(tick=4085500, channel=0, data=[4, 0]),
   midi.NoteOnEvent(tick=4085600, channel=0, data=[38, 100]),
   midi.NoteOffEvent(tick=4085700, channel=0, data=[38, 0]),
   midi.NoteOnEvent(tick=4085800, channel=0, data=[36, 100]),
   midi.NoteOffEvent(tick=4085900, channel=0, data=[36, 0]),
   midi.NoteOnEvent(tick=4086000, channel=0, data=[56, 100]),
   midi.NoteOffEvent(tick=4086100, channel=0, data=[56, 0]),
   midi.NoteOnEvent(tick=4086200, channel=0, data=[36, 100]),
   midi.NoteOffEvent(tick=4086300, channel=0, data=[36, 0]),
   midi.NoteOnEvent(tick=4086400, channel=0, data=[36, 100]),
   midi.NoteOffEvent(tick=4086500, channel=0, data=[36, 0]),
   midi.NoteOnEvent(tick=4086600, channel=0, data=[36, 100]),
   midi.NoteOffEvent(tick=4086700, channel=0, data=[36, 0]),
   midi.NoteOnEvent(tick=4086800, channel=0, data=[36, 100]),
   midi.NoteOffEvent(tick=4086900, channel=0, data=[36, 0]),
   midi.NoteOnEvent(tick=4087000, channel=0, data=[19, 100]),
   midi.NoteOffEvent(tick=4087100, channel=0, data=[19, 0]),
   midi.NoteOnEvent(tick=4087200, channel=0, data=[7, 100]),
   midi.NoteOffEvent(tick=4087300, channel=0, data=[7, 0]),
   midi.NoteOnEvent(tick=4087400, channel=0, data=[4, 100]),
   midi.NoteOffEvent(tick=4087500, channel=0, data=[4, 0]),
   midi.NoteOnEvent(tick=4087600, channel=0, data=[36, 100]),
   midi.NoteOffEvent(tick=4087700, channel=0, data=[36, 0]),
   midi.NoteOnEvent(tick=4087800, channel=0, data=[19, 100]),
   midi.NoteOffEvent(tick=4087900, channel=0, data=[19, 0]),
   midi.NoteOnEvent(tick=4088000, channel=0, data=[7, 100]),
   midi.NoteOffEvent(tick=4088100, channel=0, data=[7, 0]),
   midi.NoteOnEvent(tick=4088200, channel=0, data=[8, 100]),
   midi.NoteOffEvent(tick=4088300, channel=0, data=[8, 0]),
   midi.NoteOnEvent(tick=4088400, channel=0, data=[17, 100]),
   midi.NoteOffEvent(tick=4088500, channel=0, data=[17, 0]),
   midi.NoteOnEvent(tick=4088600, channel=0, data=[3, 100]),
   midi.NoteOffEvent(tick=4088700, channel=0, data=[3, 0]),
   midi.NoteOnEvent(tick=4088800, channel=0, data=[36, 100]),
   midi.NoteOffEvent(tick=4088900, channel=0, data=[36, 0]),
   midi.NoteOnEvent(tick=4089000, channel=0, data=[4, 100]),
   midi.NoteOffEvent(tick=4089100, channel=0, data=[4, 0]),
   midi.NoteOnEvent(tick=4089200, channel=0, data=[11, 100]),
   midi.NoteOffEvent(tick=4089300, channel=0, data=[11, 0]),
   midi.NoteOnEvent(tick=4089400, channel=0, data=[4, 100]),
   midi.NoteOffEvent(tick=4089500, channel=0, data=[4, 0]),
   midi.NoteOnEvent(tick=4089600, channel=0, data=[12, 100]),
   midi.NoteOffEvent(tick=4089700, channel=0, data=[12, 0]),
   midi.NoteOnEvent(tick=4089800, channel=0, data=[4, 100]),
   midi.NoteOffEvent(tick=4089900, channel=0, data=[4, 0]),
   midi.NoteOnEvent(tick=4090000, channel=0, data=[13, 100]),
   midi.NoteOffEvent(tick=4090100, channel=0, data=[13, 0]),
   midi.NoteOnEvent(tick=4090200, channel=0, data=[19, 100]),
   midi.NoteOffEvent(tick=4090300, channel=0, data=[19, 0]),
   midi.NoteOnEvent(tick=4090400, channel=0, data=[36, 100]),
   midi.NoteOffEvent(tick=4090500, channel=0, data=[36, 0]),
   midi.NoteOnEvent(tick=4090600, channel=0, data=[19, 100]),
   midi.NoteOffEvent(tick=4090700, channel=0, data=[19, 0]),
   midi.NoteOnEvent(tick=4090800, channel=0, data=[14, 100]),
   midi.NoteOffEvent(tick=4090900, channel=0, data=[14, 0]),
   midi.NoteOnEvent(tick=4091000, channel=0, data=[36, 100]),
   midi.NoteOffEvent(tick=4091100, channel=0, data=[36, 0]),
   midi.NoteOnEvent(tick=4091200, channel=0, data=[19, 100]),
   midi.NoteOffEvent(tick=4091300, channel=0, data=[19, 0]),
   midi.NoteOnEvent(tick=4091400, channel=0, data=[7, 100]),
   midi.NoteOffEvent(tick=4091500, channel=0, data=[7, 0]),
   midi.NoteOnEvent(tick=4091600, channel=0, data=[4, 100]),
   midi.NoteOffEvent(tick=4091700, channel=0, data=[4, 0]),
   midi.NoteOnEvent(tick=4091800, channel=0, data=[36, 100]),
   midi.NoteOffEvent(tick=4091900, channel=0, data=[36, 0]),
   midi.NoteOnEvent(tick=4092000, channel=0, data=[19, 100]),
   midi.NoteOffEvent(tick=4092100, channel=0, data=[19, 0]),
   midi.NoteOnEvent(tick=4092200, channel=0, data=[7, 100]),
   midi.NoteOffEvent(tick=4092300, channel=0, data=[7, 0]),
   midi.NoteOnEvent(tick=4092400, channel=0, data=[8, 100]),
   midi.NoteOffEvent(tick=4092500, channel=0, data=[8, 0]),
   midi.NoteOnEvent(tick=4092600, channel=0, data=[17, 100]),
   midi.NoteOffEvent(tick=4092700, channel=0, data=[17, 0]),
   midi.NoteOnEvent(tick=4092800, channel=0, data=[3, 100]),
   midi.NoteOffEvent(tick=4092900, channel=0, data=[3, 0]),
   midi.NoteOnEvent(tick=4093000, channel=0, data=[36, 100]),
   midi.NoteOffEvent(tick=4093100, channel=0, data=[36, 0]),
   midi.NoteOnEvent(tick=4093200, channel=0, data=[21, 100]),
   midi.NoteOffEvent(tick=4093300, channel=0, data=[21, 0]),
   midi.NoteOnEvent(tick=4093400, channel=0, data=[0, 100]),
   midi.NoteOffEvent(tick=4093500, channel=0, data=[0, 0]),
   midi.NoteOnEvent(tick=4093600, channel=0, data=[17, 100]),
   midi.NoteOffEvent(tick=4093700, channel=0, data=[17, 0]),
   midi.NoteOnEvent(tick=4093800, channel=0, data=[8, 100]),
   midi.NoteOffEvent(tick=4093900, channel=0, data=[8, 0]),
   midi.NoteOnEvent(tick=4094000, channel=0, data=[0, 100]),
   midi.NoteOffEvent(tick=4094100, channel=0, data=[0, 0]),
   midi.NoteOnEvent(tick=4094200, channel=0, data=[1, 100]),
   midi.NoteOffEvent(tick=4094300, channel=0, data=[1, 0]),
   midi.NoteOnEvent(tick=4094400, channel=0, data=[11, 100]),
   midi.NoteOffEvent(tick=4094500, channel=0, data=[11, 0]),
   midi.NoteOnEvent(tick=4094600, channel=0, data=[4, 100]),
   midi.NoteOffEvent(tick=4094700, channel=0, data=[4, 0]),
   midi.NoteOnEvent(tick=4094800, channel=0, data=[38, 100]),
   midi.NoteOffEvent(tick=4094900, channel=0, data=[38, 0]),
   midi.NoteOnEvent(tick=4095000, channel=0, data=[36, 100]),
   midi.NoteOffEvent(tick=4095100, channel=0, data=[36, 0]),
   midi.NoteOnEvent(tick=4095200, channel=0, data=[0, 100]),
   midi.NoteOffEvent(tick=4095300, channel=0, data=[0, 0]),
   midi.NoteOnEvent(tick=4095400, channel=0, data=[13, 100]),
   midi.NoteOffEvent(tick=4095500, channel=0, data=[13, 0]),
   midi.NoteOnEvent(tick=4095600, channel=0, data=[3, 100]),
   midi.NoteOffEvent(tick=4095700, channel=0, data=[3, 0]),
   midi.NoteOnEvent(tick=4095800, channel=0, data=[36, 100]),
   midi.NoteOffEvent(tick=4095900, channel=0, data=[36, 0]),
   midi.NoteOnEvent(tick=4096000, channel=0, data=[18, 100]),
   midi.NoteOffEvent(tick=4096100, channel=0, data=[18, 0]),
   midi.NoteOnEvent(tick=4096200, channel=0, data=[14, 100]),
   midi.NoteOffEvent(tick=4096300, channel=0, data=[14, 0]),
   midi.NoteOnEvent(tick=4096400, channel=0, data=[36, 100]),
   midi.NoteOffEvent(tick=4096500, channel=0, data=[36, 0]),
   midi.NoteOnEvent(tick=4096600, channel=0, data=[14, 100]),
   midi.NoteOffEvent(tick=4096700, channel=0, data=[14, 0]),
   midi.NoteOnEvent(tick=4096800, channel=0, data=[13, 100]),
   midi.NoteOffEvent(tick=4096900, channel=0, data=[13, 0]),
   midi.NoteOnEvent(tick=4097000, channel=0, data=[37, 100]),
   midi.NoteOffEvent(tick=4097100, channel=0, data=[37, 0]),
   midi.NoteOnEvent(tick=4097200, channel=0, data=[36, 100]),
   midi.NoteOffEvent(tick=4097300, channel=0, data=[36, 0]),
   midi.NoteOnEvent(tick=4097400, channel=0, data=[5, 100]),
   midi.NoteOffEvent(tick=4097500, channel=0, data=[5, 0]),
   midi.NoteOnEvent(tick=4097600, channel=0, data=[14, 100]),
   midi.NoteOffEvent(tick=4097700, channel=0, data=[14, 0]),
   midi.NoteOnEvent(tick=4097800, channel=0, data=[17, 100]),
   midi.NoteOffEvent(tick=4097900, channel=0, data=[17, 0]),
   midi.NoteOnEvent(tick=4098000, channel=0, data=[36, 100]),
   midi.NoteOffEvent(tick=4098100, channel=0, data=[36, 0]),
   midi.NoteOnEvent(tick=4098200, channel=0, data=[4, 100]),
   midi.NoteOffEvent(tick=4098300, channel=0, data=[4, 0]),
   midi.NoteOnEvent(tick=4098400, channel=0, data=[23, 100]),
   midi.NoteOffEvent(tick=4098500, channel=0, data=[23, 0]),
   midi.NoteOnEvent(tick=4098600, channel=0, data=[0, 100]),
   midi.NoteOffEvent(tick=4098700, channel=0, data=[0, 0]),
   midi.NoteOnEvent(tick=4098800, channel=0, data=[12, 100]),
   midi.NoteOffEvent(tick=4098900, channel=0, data=[12, 0]),
   midi.NoteOnEvent(tick=4099000, channel=0, data=[15, 100]),
   midi.NoteOffEvent(tick=4099100, channel=0, data=[15, 0]),
   midi.NoteOnEvent(tick=4099200, channel=0, data=[11, 100]),
   midi.NoteOffEvent(tick=4099300, channel=0, data=[11, 0]),
   midi.NoteOnEvent(tick=4099400, channel=0, data=[4, 100]),
   midi.NoteOffEvent(tick=4099500, channel=0, data=[4, 0]),
   midi.NoteOnEvent(tick=4099600, channel=0, data=[38, 100]),
   midi.NoteOffEvent(tick=4099700, channel=0, data=[38, 0]),
   midi.NoteOnEvent(tick=4099800, channel=0, data=[36, 100]),
   midi.NoteOffEvent(tick=4099900, channel=0, data=[36, 0]),
   midi.NoteOnEvent(tick=4100000, channel=0, data=[19, 100]),
   midi.NoteOffEvent(tick=4100100, channel=0, data=[19, 0]),
   midi.NoteOnEvent(tick=4100200, channel=0, data=[7, 100]),
   midi.NoteOffEvent(tick=4100300, channel=0, data=[7, 0]),
   midi.NoteOnEvent(tick=4100400, channel=0, data=[4, 100]),
   midi.NoteOffEvent(tick=4100500, channel=0, data=[4, 0]),
   midi.NoteOnEvent(tick=4100600, channel=0, data=[36, 100]),
   midi.NoteOffEvent(tick=4100700, channel=0, data=[36, 0]),
   midi.NoteOnEvent(tick=4100800, channel=0, data=[56, 100]),
   midi.NoteOffEvent(tick=4100900, channel=0, data=[56, 0]),
   midi.NoteOnEvent(tick=4101000, channel=0, data=[36, 100]),
   midi.NoteOffEvent(tick=4101100, channel=0, data=[36, 0]),
   midi.NoteOnEvent(tick=4101200, channel=0, data=[36, 100]),
   midi.NoteOffEvent(tick=4101300, channel=0, data=[36, 0]),
   midi.NoteOnEvent(tick=4101400, channel=0, data=[36, 100]),
   midi.NoteOffEvent(tick=4101500, channel=0, data=[36, 0]),
   midi.NoteOnEvent(tick=4101600, channel=0, data=[36, 100]),
   midi.NoteOffEvent(tick=4101700, channel=0, data=[36, 0]),
   midi.NoteOnEvent(tick=4101800, channel=0, data=[5, 100]),
   midi.NoteOffEvent(tick=4101900, channel=0, data=[5, 0]),
   midi.NoteOnEvent(tick=4102000, channel=0, data=[14, 100]),
   midi.NoteOffEvent(tick=4102100, channel=0, data=[14, 0]),
   midi.NoteOnEvent(tick=4102200, channel=0, data=[11, 100]),
   midi.NoteOffEvent(tick=4102300, channel=0, data=[11, 0]),
   midi.NoteOnEvent(tick=4102400, channel=0, data=[11, 100]),
   midi.NoteOffEvent(tick=4102500, channel=0, data=[11, 0]),
   midi.NoteOnEvent(tick=4102600, channel=0, data=[14, 100]),
   midi.NoteOffEvent(tick=4102700, channel=0, data=[14, 0]),
   midi.NoteOnEvent(tick=4102800, channel=0, data=[22, 100]),
   midi.NoteOffEvent(tick=4102900, channel=0, data=[22, 0]),
   midi.NoteOnEvent(tick=4103000, channel=0, data=[8, 100]),
   midi.NoteOffEvent(tick=4103100, channel=0, data=[8, 0]),
   midi.NoteOnEvent(tick=4103200, channel=0, data=[13, 100]),
   midi.NoteOffEvent(tick=4103300, channel=0, data=[13, 0]),
   midi.NoteOnEvent(tick=4103400, channel=0, data=[6, 100]),
   midi.NoteOffEvent(tick=4103500, channel=0, data=[6, 0]),
   midi.NoteOnEvent(tick=4103600, channel=0, data=[36, 100]),
   midi.NoteOffEvent(tick=4103700, channel=0, data=[36, 0]),
   midi.NoteOnEvent(tick=4103800, channel=0, data=[2, 100]),
   midi.NoteOffEvent(tick=4103900, channel=0, data=[2, 0]),
   midi.NoteOnEvent(tick=4104000, channel=0, data=[14, 100]),
   midi.NoteOffEvent(tick=4104100, channel=0, data=[14, 0]),
   midi.NoteOnEvent(tick=4104200, channel=0, data=[12, 100]),
   midi.NoteOffEvent(tick=4104300, channel=0, data=[12, 0]),
   midi.NoteOnEvent(tick=4104400, channel=0, data=[12, 100]),
   midi.NoteOffEvent(tick=4104500, channel=0, data=[12, 0]),
   midi.NoteOnEvent(tick=4104600, channel=0, data=[0, 100]),
   midi.NoteOffEvent(tick=4104700, channel=0, data=[0, 0]),
   midi.NoteOnEvent(tick=4104800, channel=0, data=[13, 100]),
   midi.NoteOffEvent(tick=4104900, channel=0, data=[13, 0]),
   midi.NoteOnEvent(tick=4105000, channel=0, data=[3, 100]),
   midi.NoteOffEvent(tick=4105100, channel=0, data=[3, 0]),
   midi.NoteOnEvent(tick=4105200, channel=0, data=[36, 100]),
   midi.NoteOffEvent(tick=4105300, channel=0, data=[36, 0]),
   midi.NoteOnEvent(tick=4105400, channel=0, data=[0, 100]),
   midi.NoteOffEvent(tick=4105500, channel=0, data=[0, 0]),
   midi.NoteOnEvent(tick=4105600, channel=0, data=[18, 100]),
   midi.NoteOffEvent(tick=4105700, channel=0, data=[18, 0]),
   midi.NoteOnEvent(tick=4105800, channel=0, data=[18, 100]),
   midi.NoteOffEvent(tick=4105900, channel=0, data=[18, 0]),
   midi.NoteOnEvent(tick=4106000, channel=0, data=[8, 100]),
   midi.NoteOffEvent(tick=4106100, channel=0, data=[8, 0]),
   midi.NoteOnEvent(tick=4106200, channel=0, data=[6, 100]),
   midi.NoteOffEvent(tick=4106300, channel=0, data=[6, 0]),
   midi.NoteOnEvent(tick=4106400, channel=0, data=[13, 100]),
   midi.NoteOffEvent(tick=4106500, channel=0, data=[13, 0]),
   midi.NoteOnEvent(tick=4106600, channel=0, data=[18, 100]),
   midi.NoteOffEvent(tick=4106700, channel=0, data=[18, 0]),
   midi.NoteOnEvent(tick=4106800, channel=0, data=[36, 100]),
   midi.NoteOffEvent(tick=4106900, channel=0, data=[36, 0]),
   midi.NoteOnEvent(tick=4107000, channel=0, data=[19, 100]),
   midi.NoteOffEvent(tick=4107100, channel=0, data=[19, 0]),
   midi.NoteOnEvent(tick=4107200, channel=0, data=[7, 100]),
   midi.NoteOffEvent(tick=4107300, channel=0, data=[7, 0]),
   midi.NoteOnEvent(tick=4107400, channel=0, data=[4, 100]),
   midi.NoteOffEvent(tick=4107500, channel=0, data=[4, 0]),
   midi.NoteOnEvent(tick=4107600, channel=0, data=[36, 100]),
   midi.NoteOffEvent(tick=4107700, channel=0, data=[36, 0]),
   midi.NoteOnEvent(tick=4107800, channel=0, data=[21, 100]),
   midi.NoteOffEvent(tick=4107900, channel=0, data=[21, 0]),
   midi.NoteOnEvent(tick=4108000, channel=0, data=[0, 100]),
   midi.NoteOffEvent(tick=4108100, channel=0, data=[0, 0]),
   midi.NoteOnEvent(tick=4108200, channel=0, data=[11, 100]),
   midi.NoteOffEvent(tick=4108300, channel=0, data=[11, 0]),
   midi.NoteOnEvent(tick=4108400, channel=0, data=[20, 100]),
   midi.NoteOffEvent(tick=4108500, channel=0, data=[20, 0]),
   midi.NoteOnEvent(tick=4108600, channel=0, data=[4, 100]),
   midi.NoteOffEvent(tick=4108700, channel=0, data=[4, 0]),
   midi.NoteOnEvent(tick=4108800, channel=0, data=[36, 100]),
   midi.NoteOffEvent(tick=4108900, channel=0, data=[36, 0]),
   midi.NoteOnEvent(tick=4109000, channel=0, data=[27, 100]),
   midi.NoteOffEvent(tick=4109100, channel=0, data=[27, 0]),
   midi.NoteOnEvent(tick=4109200, channel=0, data=[36, 100]),
   midi.NoteOffEvent(tick=4109300, channel=0, data=[36, 0]),
   midi.NoteOnEvent(tick=4109400, channel=0, data=[19, 100]),
   midi.NoteOffEvent(tick=4109500, channel=0, data=[19, 0]),
   midi.NoteOnEvent(tick=4109600, channel=0, data=[14, 100]),
   midi.NoteOffEvent(tick=4109700, channel=0, data=[14, 0]),
   midi.NoteOnEvent(tick=4109800, channel=0, data=[36, 100]),
   midi.NoteOffEvent(tick=4109900, channel=0, data=[36, 0]),
   midi.NoteOnEvent(tick=4110000, channel=0, data=[19, 100]),
   midi.NoteOffEvent(tick=4110100, channel=0, data=[19, 0]),
   midi.NoteOnEvent(tick=4110200, channel=0, data=[7, 100]),
   midi.NoteOffEvent(tick=4110300, channel=0, data=[7, 0]),
   midi.NoteOnEvent(tick=4110400, channel=0, data=[4, 100]),
   midi.NoteOffEvent(tick=4110500, channel=0, data=[4, 0]),
   midi.NoteOnEvent(tick=4110600, channel=0, data=[36, 100]),
   midi.NoteOffEvent(tick=4110700, channel=0, data=[36, 0]),
   midi.NoteOnEvent(tick=4110800, channel=0, data=[74, 100]),
   midi.NoteOffEvent(tick=4110900, channel=0, data=[74, 0]),
   midi.NoteOnEvent(tick=4111000, channel=0, data=[0, 100]),
   midi.NoteOffEvent(tick=4111100, channel=0, data=[0, 0]),
   midi.NoteOnEvent(tick=4111200, channel=0, data=[36, 100]),
   midi.NoteOffEvent(tick=4111300, channel=0, data=[36, 0]),
   midi.NoteOnEvent(tick=4111400, channel=0, data=[21, 100]),
   midi.NoteOffEvent(tick=4111500, channel=0, data=[21, 0]),
   midi.NoteOnEvent(tick=4111600, channel=0, data=[0, 100]),
   midi.NoteOffEvent(tick=4111700, channel=0, data=[0, 0]),
   midi.NoteOnEvent(tick=4111800, channel=0, data=[17, 100]),
   midi.NoteOffEvent(tick=4111900, channel=0, data=[17, 0]),
   midi.NoteOnEvent(tick=4112000, channel=0, data=[8, 100]),
   midi.NoteOffEvent(tick=4112100, channel=0, data=[8, 0]),
   midi.NoteOnEvent(tick=4112200, channel=0, data=[0, 100]),
   midi.NoteOffEvent(tick=4112300, channel=0, data=[0, 0]),
   midi.NoteOnEvent(tick=4112400, channel=0, data=[1, 100]),
   midi.NoteOffEvent(tick=4112500, channel=0, data=[1, 0]),
   midi.NoteOnEvent(tick=4112600, channel=0, data=[11, 100]),
   midi.NoteOffEvent(tick=4112700, channel=0, data=[11, 0]),
   midi.NoteOnEvent(tick=4112800, channel=0, data=[4, 100]),
   midi.NoteOffEvent(tick=4112900, channel=0, data=[4, 0]),
   midi.NoteOnEvent(tick=4113000, channel=0, data=[38, 100]),
   midi.NoteOffEvent(tick=4113100, channel=0, data=[38, 0]),
   midi.NoteOnEvent(tick=4113200, channel=0, data=[36, 100]),
   midi.NoteOffEvent(tick=4113300, channel=0, data=[36, 0]),
   midi.NoteOnEvent(tick=4113400, channel=0, data=[19, 100]),
   midi.NoteOffEvent(tick=4113500, channel=0, data=[19, 0]),
   midi.NoteOnEvent(tick=4113600, channel=0, data=[7, 100]),
   midi.NoteOffEvent(tick=4113700, channel=0, data=[7, 0]),
   midi.NoteOnEvent(tick=4113800, channel=0, data=[4, 100]),
   midi.NoteOffEvent(tick=4113900, channel=0, data=[4, 0]),
   midi.NoteOnEvent(tick=4114000, channel=0, data=[36, 100]),
   midi.NoteOffEvent(tick=4114100, channel=0, data=[36, 0]),
   midi.NoteOnEvent(tick=4114200, channel=0, data=[21, 100]),
   midi.NoteOffEvent(tick=4114300, channel=0, data=[21, 0]),
   midi.NoteOnEvent(tick=4114400, channel=0, data=[0, 100]),
   midi.NoteOffEvent(tick=4114500, channel=0, data=[0, 0]),
   midi.NoteOnEvent(tick=4114600, channel=0, data=[11, 100]),
   midi.NoteOffEvent(tick=4114700, channel=0, data=[11, 0]),
   midi.NoteOnEvent(tick=4114800, channel=0, data=[20, 100]),
   midi.NoteOffEvent(tick=4114900, channel=0, data=[20, 0]),
   midi.NoteOnEvent(tick=4115000, channel=0, data=[4, 100]),
   midi.NoteOffEvent(tick=4115100, channel=0, data=[4, 0]),
   midi.NoteOnEvent(tick=4115200, channel=0, data=[36, 100]),
   midi.NoteOffEvent(tick=4115300, channel=0, data=[36, 0]),
   midi.NoteOnEvent(tick=4115400, channel=0, data=[28, 100]),
   midi.NoteOffEvent(tick=4115500, channel=0, data=[28, 0]),
   midi.NoteOnEvent(tick=4115600, channel=0, data=[36, 100]),
   midi.NoteOffEvent(tick=4115700, channel=0, data=[36, 0]),
   midi.NoteOnEvent(tick=4115800, channel=0, data=[19, 100]),
   midi.NoteOffEvent(tick=4115900, channel=0, data=[19, 0]),
   midi.NoteOnEvent(tick=4116000, channel=0, data=[14, 100]),
   midi.NoteOffEvent(tick=4116100, channel=0, data=[14, 0]),
   midi.NoteOnEvent(tick=4116200, channel=0, data=[56, 100]),
   midi.NoteOffEvent(tick=4116300, channel=0, data=[56, 0]),
   midi.NoteOnEvent(tick=4116400, channel=0, data=[36, 100]),
   midi.NoteOffEvent(tick=4116500, channel=0, data=[36, 0]),
   midi.NoteOnEvent(tick=4116600, channel=0, data=[36, 100]),
   midi.NoteOffEvent(tick=4116700, channel=0, data=[36, 0]),
   midi.NoteOnEvent(tick=4116800, channel=0, data=[36, 100]),
   midi.NoteOffEvent(tick=4116900, channel=0, data=[36, 0]),
   midi.NoteOnEvent(tick=4117000, channel=0, data=[36, 100]),
   midi.NoteOffEvent(tick=4117100, channel=0, data=[36, 0]),
   midi.NoteOnEvent(tick=4117200, channel=0, data=[19, 100]),
   midi.NoteOffEvent(tick=4117300, channel=0, data=[19, 0]),
   midi.NoteOnEvent(tick=4117400, channel=0, data=[7, 100]),
   midi.NoteOffEvent(tick=4117500, channel=0, data=[7, 0]),
   midi.NoteOnEvent(tick=4117600, channel=0, data=[4, 100]),
   midi.NoteOffEvent(tick=4117700, channel=0, data=[4, 0]),
   midi.NoteOnEvent(tick=4117800, channel=0, data=[36, 100]),
   midi.NoteOffEvent(tick=4117900, channel=0, data=[36, 0]),
   midi.NoteOnEvent(tick=4118000, channel=0, data=[74, 100]),
   midi.NoteOffEvent(tick=4118100, channel=0, data=[74, 0]),
   midi.NoteOnEvent(tick=4118200, channel=0, data=[1, 100]),
   midi.NoteOffEvent(tick=4118300, channel=0, data=[1, 0]),
   midi.NoteOnEvent(tick=4118400, channel=0, data=[36, 100]),
   midi.NoteOffEvent(tick=4118500, channel=0, data=[36, 0]),
   midi.NoteOnEvent(tick=4118600, channel=0, data=[21, 100]),
   midi.NoteOffEvent(tick=4118700, channel=0, data=[21, 0]),
   midi.NoteOnEvent(tick=4118800, channel=0, data=[0, 100]),
   midi.NoteOffEvent(tick=4118900, channel=0, data=[0, 0]),
   midi.NoteOnEvent(tick=4119000, channel=0, data=[17, 100]),
   midi.NoteOffEvent(tick=4119100, channel=0, data=[17, 0]),
   midi.NoteOnEvent(tick=4119200, channel=0, data=[8, 100]),
   midi.NoteOffEvent(tick=4119300, channel=0, data=[8, 0]),
   midi.NoteOnEvent(tick=4119400, channel=0, data=[0, 100]),
   midi.NoteOffEvent(tick=4119500, channel=0, data=[0, 0]),
   midi.NoteOnEvent(tick=4119600, channel=0, data=[1, 100]),
   midi.NoteOffEvent(tick=4119700, channel=0, data=[1, 0]),
   midi.NoteOnEvent(tick=4119800, channel=0, data=[11, 100]),
   midi.NoteOffEvent(tick=4119900, channel=0, data=[11, 0]),
   midi.NoteOnEvent(tick=4120000, channel=0, data=[4, 100]),
   midi.NoteOffEvent(tick=4120100, channel=0, data=[4, 0]),
   midi.NoteOnEvent(tick=4120200, channel=0, data=[38, 100]),
   midi.NoteOffEvent(tick=4120300, channel=0, data=[38, 0]),
   midi.NoteOnEvent(tick=4120400, channel=0, data=[36, 100]),
   midi.NoteOffEvent(tick=4120500, channel=0, data=[36, 0]),
   midi.NoteOnEvent(tick=4120600, channel=0, data=[0, 100]),
   midi.NoteOffEvent(tick=4120700, channel=0, data=[0, 0]),
   midi.NoteOnEvent(tick=4120800, channel=0, data=[13, 100]),
   midi.NoteOffEvent(tick=4120900, channel=0, data=[13, 0]),
   midi.NoteOnEvent(tick=4121000, channel=0, data=[3, 100]),
   midi.NoteOffEvent(tick=4121100, channel=0, data=[3, 0]),
   midi.NoteOnEvent(tick=4121200, channel=0, data=[36, 100]),
   midi.NoteOffEvent(tick=4121300, channel=0, data=[36, 0]),
   midi.NoteOnEvent(tick=4121400, channel=0, data=[19, 100]),
   midi.NoteOffEvent(tick=4121500, channel=0, data=[19, 0]),
   midi.NoteOnEvent(tick=4121600, channel=0, data=[7, 100]),
   midi.NoteOffEvent(tick=4121700, channel=0, data=[7, 0]),
   midi.NoteOnEvent(tick=4121800, channel=0, data=[4, 100]),
   midi.NoteOffEvent(tick=4121900, channel=0, data=[4, 0]),
   midi.NoteOnEvent(tick=4122000, channel=0, data=[36, 100]),
   midi.NoteOffEvent(tick=4122100, channel=0, data=[36, 0]),
   midi.NoteOnEvent(tick=4122200, channel=0, data=[21, 100]),
   midi.NoteOffEvent(tick=4122300, channel=0, data=[21, 0]),
   midi.NoteOnEvent(tick=4122400, channel=0, data=[0, 100]),
   midi.NoteOffEvent(tick=4122500, channel=0, data=[0, 0]),
   midi.NoteOnEvent(tick=4122600, channel=0, data=[11, 100]),
   midi.NoteOffEvent(tick=4122700, channel=0, data=[11, 0]),
   midi.NoteOnEvent(tick=4122800, channel=0, data=[20, 100]),
   midi.NoteOffEvent(tick=4122900, channel=0, data=[20, 0]),
   midi.NoteOnEvent(tick=4123000, channel=0, data=[4, 100]),
   midi.NoteOffEvent(tick=4123100, channel=0, data=[4, 0]),
   midi.NoteOnEvent(tick=4123200, channel=0, data=[36, 100]),
   midi.NoteOffEvent(tick=4123300, channel=0, data=[36, 0]),
   midi.NoteOnEvent(tick=4123400, channel=0, data=[29, 100]),
   midi.NoteOffEvent(tick=4123500, channel=0, data=[29, 0]),
   midi.NoteOnEvent(tick=4123600, channel=0, data=[36, 100]),
   midi.NoteOffEvent(tick=4123700, channel=0, data=[36, 0]),
   midi.NoteOnEvent(tick=4123800, channel=0, data=[19, 100]),
   midi.NoteOffEvent(tick=4123900, channel=0, data=[19, 0]),
   midi.NoteOnEvent(tick=4124000, channel=0, data=[14, 100]),
   midi.NoteOffEvent(tick=4124100, channel=0, data=[14, 0]),
   midi.NoteOnEvent(tick=4124200, channel=0, data=[36, 100]),
   midi.NoteOffEvent(tick=4124300, channel=0, data=[36, 0]),
   midi.NoteOnEvent(tick=4124400, channel=0, data=[19, 100]),
   midi.NoteOffEvent(tick=4124500, channel=0, data=[19, 0]),
   midi.NoteOnEvent(tick=4124600, channel=0, data=[7, 100]),
   midi.NoteOffEvent(tick=4124700, channel=0, data=[7, 0]),
   midi.NoteOnEvent(tick=4124800, channel=0, data=[4, 100]),
   midi.NoteOffEvent(tick=4124900, channel=0, data=[4, 0]),
   midi.NoteOnEvent(tick=4125000, channel=0, data=[36, 100]),
   midi.NoteOffEvent(tick=4125100, channel=0, data=[36, 0]),
   midi.NoteOnEvent(tick=4125200, channel=0, data=[74, 100]),
   midi.NoteOffEvent(tick=4125300, channel=0, data=[74, 0]),
   midi.NoteOnEvent(tick=4125400, channel=0, data=[2, 100]),
   midi.NoteOffEvent(tick=4125500, channel=0, data=[2, 0]),
   midi.NoteOnEvent(tick=4125600, channel=0, data=[36, 100]),
   midi.NoteOffEvent(tick=4125700, channel=0, data=[36, 0]),
   midi.NoteOnEvent(tick=4125800, channel=0, data=[21, 100]),
   midi.NoteOffEvent(tick=4125900, channel=0, data=[21, 0]),
   midi.NoteOnEvent(tick=4126000, channel=0, data=[0, 100]),
   midi.NoteOffEvent(tick=4126100, channel=0, data=[0, 0]),
   midi.NoteOnEvent(tick=4126200, channel=0, data=[17, 100]),
   midi.NoteOffEvent(tick=4126300, channel=0, data=[17, 0]),
   midi.NoteOnEvent(tick=4126400, channel=0, data=[8, 100]),
   midi.NoteOffEvent(tick=4126500, channel=0, data=[8, 0]),
   midi.NoteOnEvent(tick=4126600, channel=0, data=[0, 100]),
   midi.NoteOffEvent(tick=4126700, channel=0, data=[0, 0]),
   midi.NoteOnEvent(tick=4126800, channel=0, data=[1, 100]),
   midi.NoteOffEvent(tick=4126900, channel=0, data=[1, 0]),
   midi.NoteOnEvent(tick=4127000, channel=0, data=[11, 100]),
   midi.NoteOffEvent(tick=4127100, channel=0, data=[11, 0]),
   midi.NoteOnEvent(tick=4127200, channel=0, data=[4, 100]),
   midi.NoteOffEvent(tick=4127300, channel=0, data=[4, 0]),
   midi.NoteOnEvent(tick=4127400, channel=0, data=[46, 100]),
   midi.NoteOffEvent(tick=4127500, channel=0, data=[46, 0]),
   midi.NoteOnEvent(tick=4127600, channel=0, data=[56, 100]),
   midi.NoteOffEvent(tick=4127700, channel=0, data=[56, 0]),
   midi.NoteOnEvent(tick=4127800, channel=0, data=[56, 100]),
   midi.NoteOffEvent(tick=4127900, channel=0, data=[56, 0]),
   midi.NoteOnEvent(tick=4128000, channel=0, data=[56, 100]),
   midi.NoteOffEvent(tick=4128100, channel=0, data=[56, 0]),
   midi.NoteOnEvent(tick=4128200, channel=0, data=[36, 100]),
   midi.NoteOffEvent(tick=4128300, channel=0, data=[36, 0]),
   midi.NoteOnEvent(tick=4128400, channel=0, data=[36, 100]),
   midi.NoteOffEvent(tick=4128500, channel=0, data=[36, 0]),
   midi.NoteOnEvent(tick=4128600, channel=0, data=[36, 100]),
   midi.NoteOffEvent(tick=4128700, channel=0, data=[36, 0]),
   midi.NoteOnEvent(tick=4128800, channel=0, data=[36, 100]),
   midi.NoteOffEvent(tick=4128900, channel=0, data=[36, 0]),
   midi.NoteOnEvent(tick=4129000, channel=0, data=[36, 100]),
   midi.NoteOffEvent(tick=4129100, channel=0, data=[36, 0]),
   midi.NoteOnEvent(tick=4129200, channel=0, data=[36, 100]),
   midi.NoteOffEvent(tick=4129300, channel=0, data=[36, 0]),
   midi.NoteOnEvent(tick=4129400, channel=0, data=[36, 100]),
   midi.NoteOffEvent(tick=4129500, channel=0, data=[36, 0]),
   midi.NoteOnEvent(tick=4129600, channel=0, data=[36, 100]),
   midi.NoteOffEvent(tick=4129700, channel=0, data=[36, 0]),
   midi.NoteOnEvent(tick=4129800, channel=0, data=[2, 100]),
   midi.NoteOffEvent(tick=4129900, channel=0, data=[2, 0]),
   midi.NoteOnEvent(tick=4130000, channel=0, data=[46, 100]),
   midi.NoteOffEvent(tick=4130100, channel=0, data=[46, 0]),
   midi.NoteOnEvent(tick=4130200, channel=0, data=[78, 100]),
   midi.NoteOffEvent(tick=4130300, channel=0, data=[78, 0]),
   midi.NoteOnEvent(tick=4130400, channel=0, data=[15, 100]),
   midi.NoteOffEvent(tick=4130500, channel=0, data=[15, 0]),
   midi.NoteOnEvent(tick=4130600, channel=0, data=[18, 100]),
   midi.NoteOffEvent(tick=4130700, channel=0, data=[18, 0]),
   midi.NoteOnEvent(tick=4130800, channel=0, data=[73, 100]),
   midi.NoteOffEvent(tick=4130900, channel=0, data=[73, 0]),
   midi.NoteOnEvent(tick=4131000, channel=0, data=[36, 100]),
   midi.NoteOffEvent(tick=4131100, channel=0, data=[36, 0]),
   midi.NoteOnEvent(tick=4131200, channel=0, data=[74, 100]),
   midi.NoteOffEvent(tick=4131300, channel=0, data=[74, 0]),
   midi.NoteOnEvent(tick=4131400, channel=0, data=[0, 100]),
   midi.NoteOffEvent(tick=4131500, channel=0, data=[0, 0]),
   midi.NoteOnEvent(tick=4131600, channel=0, data=[38, 100]),
   midi.NoteOffEvent(tick=4131700, channel=0, data=[38, 0]),
   midi.NoteOnEvent(tick=4131800, channel=0, data=[36, 100]),
   midi.NoteOffEvent(tick=4131900, channel=0, data=[36, 0]),
   midi.NoteOnEvent(tick=4132000, channel=0, data=[74, 100]),
   midi.NoteOffEvent(tick=4132100, channel=0, data=[74, 0]),
   midi.NoteOnEvent(tick=4132200, channel=0, data=[1, 100]),
   midi.NoteOffEvent(tick=4132300, channel=0, data=[1, 0]),
   midi.NoteOnEvent(tick=4132400, channel=0, data=[38, 100]),
   midi.NoteOffEvent(tick=4132500, channel=0, data=[38, 0]),
   midi.NoteOnEvent(tick=4132600, channel=0, data=[36, 100]),
   midi.NoteOffEvent(tick=4132700, channel=0, data=[36, 0]),
   midi.NoteOnEvent(tick=4132800, channel=0, data=[74, 100]),
   midi.NoteOffEvent(tick=4132900, channel=0, data=[74, 0]),
   midi.NoteOnEvent(tick=4133000, channel=0, data=[2, 100]),
   midi.NoteOffEvent(tick=4133100, channel=0, data=[2, 0]),
   midi.NoteOnEvent(tick=4133200, channel=0, data=[36, 100]),
   midi.NoteOffEvent(tick=4133300, channel=0, data=[36, 0]),
   midi.NoteOnEvent(tick=4133400, channel=0, data=[69, 100]),
   midi.NoteOffEvent(tick=4133500, channel=0, data=[69, 0]),
   midi.NoteOnEvent(tick=4133600, channel=0, data=[36, 100]),
   midi.NoteOffEvent(tick=4133700, channel=0, data=[36, 0]),
   midi.NoteOnEvent(tick=4133800, channel=0, data=[27, 100]),
   midi.NoteOffEvent(tick=4133900, channel=0, data=[27, 0]),
   midi.NoteOnEvent(tick=4134000, channel=0, data=[38, 100]),
   midi.NoteOffEvent(tick=4134100, channel=0, data=[38, 0]),
   midi.NoteOnEvent(tick=4134200, channel=0, data=[36, 100]),
   midi.NoteOffEvent(tick=4134300, channel=0, data=[36, 0]),
   midi.NoteOnEvent(tick=4134400, channel=0, data=[28, 100]),
   midi.NoteOffEvent(tick=4134500, channel=0, data=[28, 0]),
   midi.NoteOnEvent(tick=4134600, channel=0, data=[38, 100]),
   midi.NoteOffEvent(tick=4134700, channel=0, data=[38, 0]),
   midi.NoteOnEvent(tick=4134800, channel=0, data=[36, 100]),
   midi.NoteOffEvent(tick=4134900, channel=0, data=[36, 0]),
   midi.NoteOnEvent(tick=4135000, channel=0, data=[29, 100]),
   midi.NoteOffEvent(tick=4135100, channel=0, data=[29, 0]),
   midi.NoteOnEvent(tick=4135200, channel=0, data=[56, 100]),
   midi.NoteOffEvent(tick=4135300, channel=0, data=[56, 0]),
   midi.NoteOnEvent(tick=4135400, channel=0, data=[56, 100]),
   midi.NoteOffEvent(tick=4135500, channel=0, data=[56, 0]),
   midi.NoteOnEvent(tick=4135600, channel=0, data=[36, 100]),
   midi.NoteOffEvent(tick=4135700, channel=0, data=[36, 0]),
   midi.NoteOnEvent(tick=4135800, channel=0, data=[56, 100]),
   midi.NoteOffEvent(tick=4135900, channel=0, data=[56, 0]),
   midi.NoteOnEvent(tick=4136000, channel=0, data=[36, 100]),
   midi.NoteOffEvent(tick=4136100, channel=0, data=[36, 0]),
   midi.NoteOnEvent(tick=4136200, channel=0, data=[36, 100]),
   midi.NoteOffEvent(tick=4136300, channel=0, data=[36, 0]),
   midi.NoteOnEvent(tick=4136400, channel=0, data=[36, 100]),
   midi.NoteOffEvent(tick=4136500, channel=0, data=[36, 0]),
   midi.NoteOnEvent(tick=4136600, channel=0, data=[36, 100]),
   midi.NoteOffEvent(tick=4136700, channel=0, data=[36, 0]),
   midi.NoteOnEvent(tick=4136800, channel=0, data=[8, 100]),
   midi.NoteOffEvent(tick=4136900, channel=0, data=[8, 0]),
   midi.NoteOnEvent(tick=4137000, channel=0, data=[5, 100]),
   midi.NoteOffEvent(tick=4137100, channel=0, data=[5, 0]),
   midi.NoteOnEvent(tick=4137200, channel=0, data=[36, 100]),
   midi.NoteOffEvent(tick=4137300, channel=0, data=[36, 0]),
   midi.NoteOnEvent(tick=4137400, channel=0, data=[19, 100]),
   midi.NoteOffEvent(tick=4137500, channel=0, data=[19, 0]),
   midi.NoteOnEvent(tick=4137600, channel=0, data=[7, 100]),
   midi.NoteOffEvent(tick=4137700, channel=0, data=[7, 0]),
   midi.NoteOnEvent(tick=4137800, channel=0, data=[4, 100]),
   midi.NoteOffEvent(tick=4137900, channel=0, data=[4, 0]),
   midi.NoteOnEvent(tick=4138000, channel=0, data=[36, 100]),
   midi.NoteOffEvent(tick=4138100, channel=0, data=[36, 0]),
   midi.NoteOnEvent(tick=4138200, channel=0, data=[0, 100]),
   midi.NoteOffEvent(tick=4138300, channel=0, data=[0, 0]),
   midi.NoteOnEvent(tick=4138400, channel=0, data=[18, 100]),
   midi.NoteOffEvent(tick=4138500, channel=0, data=[18, 0]),
   midi.NoteOnEvent(tick=4138600, channel=0, data=[18, 100]),
   midi.NoteOffEvent(tick=4138700, channel=0, data=[18, 0]),
   midi.NoteOnEvent(tick=4138800, channel=0, data=[8, 100]),
   midi.NoteOffEvent(tick=4138900, channel=0, data=[8, 0]),
   midi.NoteOnEvent(tick=4139000, channel=0, data=[6, 100]),
   midi.NoteOffEvent(tick=4139100, channel=0, data=[6, 0]),
   midi.NoteOnEvent(tick=4139200, channel=0, data=[13, 100]),
   midi.NoteOffEvent(tick=4139300, channel=0, data=[13, 0]),
   midi.NoteOnEvent(tick=4139400, channel=0, data=[12, 100]),
   midi.NoteOffEvent(tick=4139500, channel=0, data=[12, 0]),
   midi.NoteOnEvent(tick=4139600, channel=0, data=[4, 100]),
   midi.NoteOffEvent(tick=4139700, channel=0, data=[4, 0]),
   midi.NoteOnEvent(tick=4139800, channel=0, data=[13, 100]),
   midi.NoteOffEvent(tick=4139900, channel=0, data=[13, 0]),
   midi.NoteOnEvent(tick=4140000, channel=0, data=[19, 100]),
   midi.NoteOffEvent(tick=4140100, channel=0, data=[19, 0]),
   midi.NoteOnEvent(tick=4140200, channel=0, data=[36, 100]),
   midi.NoteOffEvent(tick=4140300, channel=0, data=[36, 0]),
   midi.NoteOnEvent(tick=4140400, channel=0, data=[21, 100]),
   midi.NoteOffEvent(tick=4140500, channel=0, data=[21, 0]),
   midi.NoteOnEvent(tick=4140600, channel=0, data=[0, 100]),
   midi.NoteOffEvent(tick=4140700, channel=0, data=[0, 0]),
   midi.NoteOnEvent(tick=4140800, channel=0, data=[11, 100]),
   midi.NoteOffEvent(tick=4140900, channel=0, data=[11, 0]),
   midi.NoteOnEvent(tick=4141000, channel=0, data=[20, 100]),
   midi.NoteOffEvent(tick=4141100, channel=0, data=[20, 0]),
   midi.NoteOnEvent(tick=4141200, channel=0, data=[4, 100]),
   midi.NoteOffEvent(tick=4141300, channel=0, data=[4, 0]),
   midi.NoteOnEvent(tick=4141400, channel=0, data=[36, 100]),
   midi.NoteOffEvent(tick=4141500, channel=0, data=[36, 0]),
   midi.NoteOnEvent(tick=4141600, channel=0, data=[2, 100]),
   midi.NoteOffEvent(tick=4141700, channel=0, data=[2, 0]),
   midi.NoteOnEvent(tick=4141800, channel=0, data=[14, 100]),
   midi.NoteOffEvent(tick=4141900, channel=0, data=[14, 0]),
   midi.NoteOnEvent(tick=4142000, channel=0, data=[13, 100]),
   midi.NoteOffEvent(tick=4142100, channel=0, data=[13, 0]),
   midi.NoteOnEvent(tick=4142200, channel=0, data=[19, 100]),
   midi.NoteOffEvent(tick=4142300, channel=0, data=[19, 0]),
   midi.NoteOnEvent(tick=4142400, channel=0, data=[0, 100]),
   midi.NoteOffEvent(tick=4142500, channel=0, data=[0, 0]),
   midi.NoteOnEvent(tick=4142600, channel=0, data=[8, 100]),
   midi.NoteOffEvent(tick=4142700, channel=0, data=[8, 0]),
   midi.NoteOnEvent(tick=4142800, channel=0, data=[13, 100]),
   midi.NoteOffEvent(tick=4142900, channel=0, data=[13, 0]),
   midi.NoteOnEvent(tick=4143000, channel=0, data=[18, 100]),
   midi.NoteOffEvent(tick=4143100, channel=0, data=[18, 0]),
   midi.NoteOnEvent(tick=4143200, channel=0, data=[36, 100]),
   midi.NoteOffEvent(tick=4143300, channel=0, data=[36, 0]),
   midi.NoteOnEvent(tick=4143400, channel=0, data=[12, 100]),
   midi.NoteOffEvent(tick=4143500, channel=0, data=[12, 0]),
   midi.NoteOnEvent(tick=4143600, channel=0, data=[14, 100]),
   midi.NoteOffEvent(tick=4143700, channel=0, data=[14, 0]),
   midi.NoteOnEvent(tick=4143800, channel=0, data=[17, 100]),
   midi.NoteOffEvent(tick=4143900, channel=0, data=[17, 0]),
   midi.NoteOnEvent(tick=4144000, channel=0, data=[4, 100]),
   midi.NoteOffEvent(tick=4144100, channel=0, data=[4, 0]),
   midi.NoteOnEvent(tick=4144200, channel=0, data=[36, 100]),
   midi.NoteOffEvent(tick=4144300, channel=0, data=[36, 0]),
   midi.NoteOnEvent(tick=4144400, channel=0, data=[4, 100]),
   midi.NoteOffEvent(tick=4144500, channel=0, data=[4, 0]),
   midi.NoteOnEvent(tick=4144600, channel=0, data=[11, 100]),
   midi.NoteOffEvent(tick=4144700, channel=0, data=[11, 0]),
   midi.NoteOnEvent(tick=4144800, channel=0, data=[4, 100]),
   midi.NoteOffEvent(tick=4144900, channel=0, data=[4, 0]),
   midi.NoteOnEvent(tick=4145000, channel=0, data=[12, 100]),
   midi.NoteOffEvent(tick=4145100, channel=0, data=[12, 0]),
   midi.NoteOnEvent(tick=4145200, channel=0, data=[4, 100]),
   midi.NoteOffEvent(tick=4145300, channel=0, data=[4, 0]),
   midi.NoteOnEvent(tick=4145400, channel=0, data=[13, 100]),
   midi.NoteOffEvent(tick=4145500, channel=0, data=[13, 0]),
   midi.NoteOnEvent(tick=4145600, channel=0, data=[19, 100]),
   midi.NoteOffEvent(tick=4145700, channel=0, data=[19, 0]),
   midi.NoteOnEvent(tick=4145800, channel=0, data=[18, 100]),
   midi.NoteOffEvent(tick=4145900, channel=0, data=[18, 0]),
   midi.NoteOnEvent(tick=4146000, channel=0, data=[36, 100]),
   midi.NoteOffEvent(tick=4146100, channel=0, data=[36, 0]),
   midi.NoteOnEvent(tick=4146200, channel=0, data=[19, 100]),
   midi.NoteOffEvent(tick=4146300, channel=0, data=[19, 0]),
   midi.NoteOnEvent(tick=4146400, channel=0, data=[7, 100]),
   midi.NoteOffEvent(tick=4146500, channel=0, data=[7, 0]),
   midi.NoteOnEvent(tick=4146600, channel=0, data=[0, 100]),
   midi.NoteOffEvent(tick=4146700, channel=0, data=[0, 0]),
   midi.NoteOnEvent(tick=4146800, channel=0, data=[13, 100]),
   midi.NoteOffEvent(tick=4146900, channel=0, data=[13, 0]),
   midi.NoteOnEvent(tick=4147000, channel=0, data=[36, 100]),
   midi.NoteOffEvent(tick=4147100, channel=0, data=[36, 0]),
   midi.NoteOnEvent(tick=4147200, channel=0, data=[21, 100]),
   midi.NoteOffEvent(tick=4147300, channel=0, data=[21, 0]),
   midi.NoteOnEvent(tick=4147400, channel=0, data=[0, 100]),
   midi.NoteOffEvent(tick=4147500, channel=0, data=[0, 0]),
   midi.NoteOnEvent(tick=4147600, channel=0, data=[17, 100]),
   midi.NoteOffEvent(tick=4147700, channel=0, data=[17, 0]),
   midi.NoteOnEvent(tick=4147800, channel=0, data=[8, 100]),
   midi.NoteOffEvent(tick=4147900, channel=0, data=[8, 0]),
   midi.NoteOnEvent(tick=4148000, channel=0, data=[0, 100]),
   midi.NoteOffEvent(tick=4148100, channel=0, data=[0, 0]),
   midi.NoteOnEvent(tick=4148200, channel=0, data=[1, 100]),
   midi.NoteOffEvent(tick=4148300, channel=0, data=[1, 0]),
   midi.NoteOnEvent(tick=4148400, channel=0, data=[11, 100]),
   midi.NoteOffEvent(tick=4148500, channel=0, data=[11, 0]),
   midi.NoteOnEvent(tick=4148600, channel=0, data=[4, 100]),
   midi.NoteOffEvent(tick=4148700, channel=0, data=[4, 0]),
   midi.NoteOnEvent(tick=4148800, channel=0, data=[18, 100]),
   midi.NoteOffEvent(tick=4148900, channel=0, data=[18, 0]),
   midi.NoteOnEvent(tick=4149000, channel=0, data=[38, 100]),
   midi.NoteOffEvent(tick=4149100, channel=0, data=[38, 0]),
   midi.NoteOnEvent(tick=4149200, channel=0, data=[36, 100]),
   midi.NoteOffEvent(tick=4149300, channel=0, data=[36, 0]),
   midi.NoteOnEvent(tick=4149400, channel=0, data=[0, 100]),
   midi.NoteOffEvent(tick=4149500, channel=0, data=[0, 0]),
   midi.NoteOnEvent(tick=4149600, channel=0, data=[11, 100]),
   midi.NoteOffEvent(tick=4149700, channel=0, data=[11, 0]),
   midi.NoteOnEvent(tick=4149800, channel=0, data=[11, 100]),
   midi.NoteOffEvent(tick=4149900, channel=0, data=[11, 0]),
   midi.NoteOnEvent(tick=4150000, channel=0, data=[36, 100]),
   midi.NoteOffEvent(tick=4150100, channel=0, data=[36, 0]),
   midi.NoteOnEvent(tick=4150200, channel=0, data=[19, 100]),
   midi.NoteOffEvent(tick=4150300, channel=0, data=[19, 0]),
   midi.NoteOnEvent(tick=4150400, channel=0, data=[7, 100]),
   midi.NoteOffEvent(tick=4150500, channel=0, data=[7, 0]),
   midi.NoteOnEvent(tick=4150600, channel=0, data=[4, 100]),
   midi.NoteOffEvent(tick=4150700, channel=0, data=[4, 0]),
   midi.NoteOnEvent(tick=4150800, channel=0, data=[56, 100]),
   midi.NoteOffEvent(tick=4150900, channel=0, data=[56, 0]),
   midi.NoteOnEvent(tick=4151000, channel=0, data=[36, 100]),
   midi.NoteOffEvent(tick=4151100, channel=0, data=[36, 0]),
   midi.NoteOnEvent(tick=4151200, channel=0, data=[36, 100]),
   midi.NoteOffEvent(tick=4151300, channel=0, data=[36, 0]),
   midi.NoteOnEvent(tick=4151400, channel=0, data=[36, 100]),
   midi.NoteOffEvent(tick=4151500, channel=0, data=[36, 0]),
   midi.NoteOnEvent(tick=4151600, channel=0, data=[36, 100]),
   midi.NoteOffEvent(tick=4151700, channel=0, data=[36, 0]),
   midi.NoteOnEvent(tick=4151800, channel=0, data=[17, 100]),
   midi.NoteOffEvent(tick=4151900, channel=0, data=[17, 0]),
   midi.NoteOnEvent(tick=4152000, channel=0, data=[4, 100]),
   midi.NoteOffEvent(tick=4152100, channel=0, data=[4, 0]),
   midi.NoteOnEvent(tick=4152200, channel=0, data=[12, 100]),
   midi.NoteOffEvent(tick=4152300, channel=0, data=[12, 0]),
   midi.NoteOnEvent(tick=4152400, channel=0, data=[0, 100]),
   midi.NoteOffEvent(tick=4152500, channel=0, data=[0, 0]),
   midi.NoteOnEvent(tick=4152600, channel=0, data=[8, 100]),
   midi.NoteOffEvent(tick=4152700, channel=0, data=[8, 0]),
   midi.NoteOnEvent(tick=4152800, channel=0, data=[13, 100]),
   midi.NoteOffEvent(tick=4152900, channel=0, data=[13, 0]),
   midi.NoteOnEvent(tick=4153000, channel=0, data=[8, 100]),
   midi.NoteOffEvent(tick=4153100, channel=0, data=[8, 0]),
   midi.NoteOnEvent(tick=4153200, channel=0, data=[13, 100]),
   midi.NoteOffEvent(tick=4153300, channel=0, data=[13, 0]),
   midi.NoteOnEvent(tick=4153400, channel=0, data=[6, 100]),
   midi.NoteOffEvent(tick=4153500, channel=0, data=[6, 0]),
   midi.NoteOnEvent(tick=4153600, channel=0, data=[36, 100]),
   midi.NoteOffEvent(tick=4153700, channel=0, data=[36, 0]),
   midi.NoteOnEvent(tick=4153800, channel=0, data=[21, 100]),
   midi.NoteOffEvent(tick=4153900, channel=0, data=[21, 0]),
   midi.NoteOnEvent(tick=4154000, channel=0, data=[0, 100]),
   midi.NoteOffEvent(tick=4154100, channel=0, data=[0, 0]),
   midi.NoteOnEvent(tick=4154200, channel=0, data=[11, 100]),
   midi.NoteOffEvent(tick=4154300, channel=0, data=[11, 0]),
   midi.NoteOnEvent(tick=4154400, channel=0, data=[20, 100]),
   midi.NoteOffEvent(tick=4154500, channel=0, data=[20, 0]),
   midi.NoteOnEvent(tick=4154600, channel=0, data=[4, 100]),
   midi.NoteOffEvent(tick=4154700, channel=0, data=[4, 0]),
   midi.NoteOnEvent(tick=4154800, channel=0, data=[18, 100]),
   midi.NoteOffEvent(tick=4154900, channel=0, data=[18, 0]),
   midi.NoteOnEvent(tick=4155000, channel=0, data=[36, 100]),
   midi.NoteOffEvent(tick=4155100, channel=0, data=[36, 0]),
   midi.NoteOnEvent(tick=4155200, channel=0, data=[0, 100]),
   midi.NoteOffEvent(tick=4155300, channel=0, data=[0, 0]),
   midi.NoteOnEvent(tick=4155400, channel=0, data=[17, 100]),
   midi.NoteOffEvent(tick=4155500, channel=0, data=[17, 0]),
   midi.NoteOnEvent(tick=4155600, channel=0, data=[4, 100]),
   midi.NoteOffEvent(tick=4155700, channel=0, data=[4, 0]),
   midi.NoteOnEvent(tick=4155800, channel=0, data=[36, 100]),
   midi.NoteOffEvent(tick=4155900, channel=0, data=[36, 0]),
   midi.NoteOnEvent(tick=4156000, channel=0, data=[0, 100]),
   midi.NoteOffEvent(tick=4156100, channel=0, data=[0, 0]),
   midi.NoteOnEvent(tick=4156200, channel=0, data=[18, 100]),
   midi.NoteOffEvent(tick=4156300, channel=0, data=[18, 0]),
   midi.NoteOnEvent(tick=4156400, channel=0, data=[18, 100]),
   midi.NoteOffEvent(tick=4156500, channel=0, data=[18, 0]),
   midi.NoteOnEvent(tick=4156600, channel=0, data=[8, 100]),
   midi.NoteOffEvent(tick=4156700, channel=0, data=[8, 0]),
   midi.NoteOnEvent(tick=4156800, channel=0, data=[6, 100]),
   midi.NoteOffEvent(tick=4156900, channel=0, data=[6, 0]),
   midi.NoteOnEvent(tick=4157000, channel=0, data=[13, 100]),
   midi.NoteOffEvent(tick=4157100, channel=0, data=[13, 0]),
   midi.NoteOnEvent(tick=4157200, channel=0, data=[4, 100]),
   midi.NoteOffEvent(tick=4157300, channel=0, data=[4, 0]),
   midi.NoteOnEvent(tick=4157400, channel=0, data=[3, 100]),
   midi.NoteOffEvent(tick=4157500, channel=0, data=[3, 0]),
   midi.NoteOnEvent(tick=4157600, channel=0, data=[36, 100]),
   midi.NoteOffEvent(tick=4157700, channel=0, data=[36, 0]),
   midi.NoteOnEvent(tick=4157800, channel=0, data=[19, 100]),
   midi.NoteOffEvent(tick=4157900, channel=0, data=[19, 0]),
   midi.NoteOnEvent(tick=4158000, channel=0, data=[14, 100]),
   midi.NoteOffEvent(tick=4158100, channel=0, data=[14, 0]),
   midi.NoteOnEvent(tick=4158200, channel=0, data=[36, 100]),
   midi.NoteOffEvent(tick=4158300, channel=0, data=[36, 0]),
   midi.NoteOnEvent(tick=4158400, channel=0, data=[19, 100]),
   midi.NoteOffEvent(tick=4158500, channel=0, data=[19, 0]),
   midi.NoteOnEvent(tick=4158600, channel=0, data=[7, 100]),
   midi.NoteOffEvent(tick=4158700, channel=0, data=[7, 0]),
   midi.NoteOnEvent(tick=4158800, channel=0, data=[4, 100]),
   midi.NoteOffEvent(tick=4158900, channel=0, data=[4, 0]),
   midi.NoteOnEvent(tick=4159000, channel=0, data=[36, 100]),
   midi.NoteOffEvent(tick=4159100, channel=0, data=[36, 0]),
   midi.NoteOnEvent(tick=4159200, channel=0, data=[11, 100]),
   midi.NoteOffEvent(tick=4159300, channel=0, data=[11, 0]),
   midi.NoteOnEvent(tick=4159400, channel=0, data=[0, 100]),
   midi.NoteOffEvent(tick=4159500, channel=0, data=[0, 0]),
   midi.NoteOnEvent(tick=4159600, channel=0, data=[18, 100]),
   midi.NoteOffEvent(tick=4159700, channel=0, data=[18, 0]),
   midi.NoteOnEvent(tick=4159800, channel=0, data=[19, 100]),
   midi.NoteOffEvent(tick=4159900, channel=0, data=[19, 0]),
   midi.NoteOnEvent(tick=4160000, channel=0, data=[36, 100]),
   midi.NoteOffEvent(tick=4160100, channel=0, data=[36, 0]),
   midi.NoteOnEvent(tick=4160200, channel=0, data=[21, 100]),
   midi.NoteOffEvent(tick=4160300, channel=0, data=[21, 0]),
   midi.NoteOnEvent(tick=4160400, channel=0, data=[0, 100]),
   midi.NoteOffEvent(tick=4160500, channel=0, data=[0, 0]),
   midi.NoteOnEvent(tick=4160600, channel=0, data=[17, 100]),
   midi.NoteOffEvent(tick=4160700, channel=0, data=[17, 0]),
   midi.NoteOnEvent(tick=4160800, channel=0, data=[8, 100]),
   midi.NoteOffEvent(tick=4160900, channel=0, data=[8, 0]),
   midi.NoteOnEvent(tick=4161000, channel=0, data=[0, 100]),
   midi.NoteOffEvent(tick=4161100, channel=0, data=[0, 0]),
   midi.NoteOnEvent(tick=4161200, channel=0, data=[1, 100]),
   midi.NoteOffEvent(tick=4161300, channel=0, data=[1, 0]),
   midi.NoteOnEvent(tick=4161400, channel=0, data=[11, 100]),
   midi.NoteOffEvent(tick=4161500, channel=0, data=[11, 0]),
   midi.NoteOnEvent(tick=4161600, channel=0, data=[4, 100]),
   midi.NoteOffEvent(tick=4161700, channel=0, data=[4, 0]),
   midi.NoteOnEvent(tick=4161800, channel=0, data=[37, 100]),
   midi.NoteOffEvent(tick=4161900, channel=0, data=[37, 0]),
   midi.NoteOnEvent(tick=4162000, channel=0, data=[36, 100]),
   midi.NoteOffEvent(tick=4162100, channel=0, data=[36, 0]),
   midi.NoteOnEvent(tick=4162200, channel=0, data=[5, 100]),
   midi.NoteOffEvent(tick=4162300, channel=0, data=[5, 0]),
   midi.NoteOnEvent(tick=4162400, channel=0, data=[14, 100]),
   midi.NoteOffEvent(tick=4162500, channel=0, data=[14, 0]),
   midi.NoteOnEvent(tick=4162600, channel=0, data=[17, 100]),
   midi.NoteOffEvent(tick=4162700, channel=0, data=[17, 0]),
   midi.NoteOnEvent(tick=4162800, channel=0, data=[36, 100]),
   midi.NoteOffEvent(tick=4162900, channel=0, data=[36, 0]),
   midi.NoteOnEvent(tick=4163000, channel=0, data=[4, 100]),
   midi.NoteOffEvent(tick=4163100, channel=0, data=[4, 0]),
   midi.NoteOnEvent(tick=4163200, channel=0, data=[23, 100]),
   midi.NoteOffEvent(tick=4163300, channel=0, data=[23, 0]),
   midi.NoteOnEvent(tick=4163400, channel=0, data=[0, 100]),
   midi.NoteOffEvent(tick=4163500, channel=0, data=[0, 0]),
   midi.NoteOnEvent(tick=4163600, channel=0, data=[12, 100]),
   midi.NoteOffEvent(tick=4163700, channel=0, data=[12, 0]),
   midi.NoteOnEvent(tick=4163800, channel=0, data=[15, 100]),
   midi.NoteOffEvent(tick=4163900, channel=0, data=[15, 0]),
   midi.NoteOnEvent(tick=4164000, channel=0, data=[11, 100]),
   midi.NoteOffEvent(tick=4164100, channel=0, data=[11, 0]),
   midi.NoteOnEvent(tick=4164200, channel=0, data=[4, 100]),
   midi.NoteOffEvent(tick=4164300, channel=0, data=[4, 0]),
   midi.NoteOnEvent(tick=4164400, channel=0, data=[38, 100]),
   midi.NoteOffEvent(tick=4164500, channel=0, data=[38, 0]),
   midi.NoteOnEvent(tick=4164600, channel=0, data=[36, 100]),
   midi.NoteOffEvent(tick=4164700, channel=0, data=[36, 0]),
   midi.NoteOnEvent(tick=4164800, channel=0, data=[19, 100]),
   midi.NoteOffEvent(tick=4164900, channel=0, data=[19, 0]),
   midi.NoteOnEvent(tick=4165000, channel=0, data=[7, 100]),
   midi.NoteOffEvent(tick=4165100, channel=0, data=[7, 0]),
   midi.NoteOnEvent(tick=4165200, channel=0, data=[4, 100]),
   midi.NoteOffEvent(tick=4165300, channel=0, data=[4, 0]),
   midi.NoteOnEvent(tick=4165400, channel=0, data=[36, 100]),
   midi.NoteOffEvent(tick=4165500, channel=0, data=[36, 0]),
   midi.NoteOnEvent(tick=4165600, channel=0, data=[56, 100]),
   midi.NoteOffEvent(tick=4165700, channel=0, data=[56, 0]),
   midi.NoteOnEvent(tick=4165800, channel=0, data=[36, 100]),
   midi.NoteOffEvent(tick=4165900, channel=0, data=[36, 0]),
   midi.NoteOnEvent(tick=4166000, channel=0, data=[36, 100]),
   midi.NoteOffEvent(tick=4166100, channel=0, data=[36, 0]),
   midi.NoteOnEvent(tick=4166200, channel=0, data=[36, 100]),
   midi.NoteOffEvent(tick=4166300, channel=0, data=[36, 0]),
   midi.NoteOnEvent(tick=4166400, channel=0, data=[36, 100]),
   midi.NoteOffEvent(tick=4166500, channel=0, data=[36, 0]),
   midi.NoteOnEvent(tick=4166600, channel=0, data=[5, 100]),
   midi.NoteOffEvent(tick=4166700, channel=0, data=[5, 0]),
   midi.NoteOnEvent(tick=4166800, channel=0, data=[14, 100]),
   midi.NoteOffEvent(tick=4166900, channel=0, data=[14, 0]),
   midi.NoteOnEvent(tick=4167000, channel=0, data=[11, 100]),
   midi.NoteOffEvent(tick=4167100, channel=0, data=[11, 0]),
   midi.NoteOnEvent(tick=4167200, channel=0, data=[11, 100]),
   midi.NoteOffEvent(tick=4167300, channel=0, data=[11, 0]),
   midi.NoteOnEvent(tick=4167400, channel=0, data=[14, 100]),
   midi.NoteOffEvent(tick=4167500, channel=0, data=[14, 0]),
   midi.NoteOnEvent(tick=4167600, channel=0, data=[22, 100]),
   midi.NoteOffEvent(tick=4167700, channel=0, data=[22, 0]),
   midi.NoteOnEvent(tick=4167800, channel=0, data=[8, 100]),
   midi.NoteOffEvent(tick=4167900, channel=0, data=[8, 0]),
   midi.NoteOnEvent(tick=4168000, channel=0, data=[13, 100]),
   midi.NoteOffEvent(tick=4168100, channel=0, data=[13, 0]),
   midi.NoteOnEvent(tick=4168200, channel=0, data=[6, 100]),
   midi.NoteOffEvent(tick=4168300, channel=0, data=[6, 0]),
   midi.NoteOnEvent(tick=4168400, channel=0, data=[36, 100]),
   midi.NoteOffEvent(tick=4168500, channel=0, data=[36, 0]),
   midi.NoteOnEvent(tick=4168600, channel=0, data=[2, 100]),
   midi.NoteOffEvent(tick=4168700, channel=0, data=[2, 0]),
   midi.NoteOnEvent(tick=4168800, channel=0, data=[14, 100]),
   midi.NoteOffEvent(tick=4168900, channel=0, data=[14, 0]),
   midi.NoteOnEvent(tick=4169000, channel=0, data=[12, 100]),
   midi.NoteOffEvent(tick=4169100, channel=0, data=[12, 0]),
   midi.NoteOnEvent(tick=4169200, channel=0, data=[12, 100]),
   midi.NoteOffEvent(tick=4169300, channel=0, data=[12, 0]),
   midi.NoteOnEvent(tick=4169400, channel=0, data=[0, 100]),
   midi.NoteOffEvent(tick=4169500, channel=0, data=[0, 0]),
   midi.NoteOnEvent(tick=4169600, channel=0, data=[13, 100]),
   midi.NoteOffEvent(tick=4169700, channel=0, data=[13, 0]),
   midi.NoteOnEvent(tick=4169800, channel=0, data=[3, 100]),
   midi.NoteOffEvent(tick=4169900, channel=0, data=[3, 0]),
   midi.NoteOnEvent(tick=4170000, channel=0, data=[36, 100]),
   midi.NoteOffEvent(tick=4170100, channel=0, data=[36, 0]),
   midi.NoteOnEvent(tick=4170200, channel=0, data=[2, 100]),
   midi.NoteOffEvent(tick=4170300, channel=0, data=[2, 0]),
   midi.NoteOnEvent(tick=4170400, channel=0, data=[14, 100]),
   midi.NoteOffEvent(tick=4170500, channel=0, data=[14, 0]),
   midi.NoteOnEvent(tick=4170600, channel=0, data=[13, 100]),
   midi.NoteOffEvent(tick=4170700, channel=0, data=[13, 0]),
   midi.NoteOnEvent(tick=4170800, channel=0, data=[19, 100]),
   midi.NoteOffEvent(tick=4170900, channel=0, data=[19, 0]),
   midi.NoteOnEvent(tick=4171000, channel=0, data=[0, 100]),
   midi.NoteOffEvent(tick=4171100, channel=0, data=[0, 0]),
   midi.NoteOnEvent(tick=4171200, channel=0, data=[8, 100]),
   midi.NoteOffEvent(tick=4171300, channel=0, data=[8, 0]),
   midi.NoteOnEvent(tick=4171400, channel=0, data=[13, 100]),
   midi.NoteOffEvent(tick=4171500, channel=0, data=[13, 0]),
   midi.NoteOnEvent(tick=4171600, channel=0, data=[18, 100]),
   midi.NoteOffEvent(tick=4171700, channel=0, data=[18, 0]),
   midi.NoteOnEvent(tick=4171800, channel=0, data=[36, 100]),
   midi.NoteOffEvent(tick=4171900, channel=0, data=[36, 0]),
   midi.NoteOnEvent(tick=4172000, channel=0, data=[19, 100]),
   midi.NoteOffEvent(tick=4172100, channel=0, data=[19, 0]),
   midi.NoteOnEvent(tick=4172200, channel=0, data=[7, 100]),
   midi.NoteOffEvent(tick=4172300, channel=0, data=[7, 0]),
   midi.NoteOnEvent(tick=4172400, channel=0, data=[17, 100]),
   midi.NoteOffEvent(tick=4172500, channel=0, data=[17, 0]),
   midi.NoteOnEvent(tick=4172600, channel=0, data=[4, 100]),
   midi.NoteOffEvent(tick=4172700, channel=0, data=[4, 0]),
   midi.NoteOnEvent(tick=4172800, channel=0, data=[4, 100]),
   midi.NoteOffEvent(tick=4172900, channel=0, data=[4, 0]),
   midi.NoteOnEvent(tick=4173000, channel=0, data=[36, 100]),
   midi.NoteOffEvent(tick=4173100, channel=0, data=[36, 0]),
   midi.NoteOnEvent(tick=4173200, channel=0, data=[21, 100]),
   midi.NoteOffEvent(tick=4173300, channel=0, data=[21, 0]),
   midi.NoteOnEvent(tick=4173400, channel=0, data=[0, 100]),
   midi.NoteOffEvent(tick=4173500, channel=0, data=[0, 0]),
   midi.NoteOnEvent(tick=4173600, channel=0, data=[17, 100]),
   midi.NoteOffEvent(tick=4173700, channel=0, data=[17, 0]),
   midi.NoteOnEvent(tick=4173800, channel=0, data=[8, 100]),
   midi.NoteOffEvent(tick=4173900, channel=0, data=[8, 0]),
   midi.NoteOnEvent(tick=4174000, channel=0, data=[0, 100]),
   midi.NoteOffEvent(tick=4174100, channel=0, data=[0, 0]),
   midi.NoteOnEvent(tick=4174200, channel=0, data=[1, 100]),
   midi.NoteOffEvent(tick=4174300, channel=0, data=[1, 0]),
   midi.NoteOnEvent(tick=4174400, channel=0, data=[11, 100]),
   midi.NoteOffEvent(tick=4174500, channel=0, data=[11, 0]),
   midi.NoteOnEvent(tick=4174600, channel=0, data=[4, 100]),
   midi.NoteOffEvent(tick=4174700, channel=0, data=[4, 0]),
   midi.NoteOnEvent(tick=4174800, channel=0, data=[18, 100]),
   midi.NoteOffEvent(tick=4174900, channel=0, data=[18, 0]),
   midi.NoteOnEvent(tick=4175000, channel=0, data=[36, 100]),
   midi.NoteOffEvent(tick=4175100, channel=0, data=[36, 0]),
   midi.NoteOnEvent(tick=4175200, channel=0, data=[0, 100]),
   midi.NoteOffEvent(tick=4175300, channel=0, data=[0, 0]),
   midi.NoteOnEvent(tick=4175400, channel=0, data=[13, 100]),
   midi.NoteOffEvent(tick=4175500, channel=0, data=[13, 0]),
   midi.NoteOnEvent(tick=4175600, channel=0, data=[3, 100]),
   midi.NoteOffEvent(tick=4175700, channel=0, data=[3, 0]),
   midi.NoteOnEvent(tick=4175800, channel=0, data=[36, 100]),
   midi.NoteOffEvent(tick=4175900, channel=0, data=[36, 0]),
   midi.NoteOnEvent(tick=4176000, channel=0, data=[5, 100]),
   midi.NoteOffEvent(tick=4176100, channel=0, data=[5, 0]),
   midi.NoteOnEvent(tick=4176200, channel=0, data=[8, 100]),
   midi.NoteOffEvent(tick=4176300, channel=0, data=[8, 0]),
   midi.NoteOnEvent(tick=4176400, channel=0, data=[21, 100]),
   midi.NoteOffEvent(tick=4176500, channel=0, data=[21, 0]),
   midi.NoteOnEvent(tick=4176600, channel=0, data=[4, 100]),
   midi.NoteOffEvent(tick=4176700, channel=0, data=[4, 0]),
   midi.NoteOnEvent(tick=4176800, channel=0, data=[36, 100]),
   midi.NoteOffEvent(tick=4176900, channel=0, data=[36, 0]),
   midi.NoteOnEvent(tick=4177000, channel=0, data=[21, 100]),
   midi.NoteOffEvent(tick=4177100, channel=0, data=[21, 0]),
   midi.NoteOnEvent(tick=4177200, channel=0, data=[0, 100]),
   midi.NoteOffEvent(tick=4177300, channel=0, data=[0, 0]),
   midi.NoteOnEvent(tick=4177400, channel=0, data=[11, 100]),
   midi.NoteOffEvent(tick=4177500, channel=0, data=[11, 0]),
   midi.NoteOnEvent(tick=4177600, channel=0, data=[20, 100]),
   midi.NoteOffEvent(tick=4177700, channel=0, data=[20, 0]),
   midi.NoteOnEvent(tick=4177800, channel=0, data=[4, 100]),
   midi.NoteOffEvent(tick=4177900, channel=0, data=[4, 0]),
   midi.NoteOnEvent(tick=4178000, channel=0, data=[18, 100]),
   midi.NoteOffEvent(tick=4178100, channel=0, data=[18, 0]),
   midi.NoteOnEvent(tick=4178200, channel=0, data=[46, 100]),
   midi.NoteOffEvent(tick=4178300, channel=0, data=[46, 0]),
   midi.NoteOnEvent(tick=4178400, channel=0, data=[56, 100]),
   midi.NoteOffEvent(tick=4178500, channel=0, data=[56, 0]),
   midi.NoteOnEvent(tick=4178600, channel=0, data=[56, 100]),
   midi.NoteOffEvent(tick=4178700, channel=0, data=[56, 0]),
   midi.NoteOnEvent(tick=4178800, channel=0, data=[56, 100]),
   midi.NoteOffEvent(tick=4178900, channel=0, data=[56, 0]),
   midi.NoteOnEvent(tick=4179000, channel=0, data=[36, 100]),
   midi.NoteOffEvent(tick=4179100, channel=0, data=[36, 0]),
   midi.NoteOnEvent(tick=4179200, channel=0, data=[36, 100]),
   midi.NoteOffEvent(tick=4179300, channel=0, data=[36, 0]),
   midi.NoteOnEvent(tick=4179400, channel=0, data=[36, 100]),
   midi.NoteOffEvent(tick=4179500, channel=0, data=[36, 0]),
   midi.NoteOnEvent(tick=4179600, channel=0, data=[36, 100]),
   midi.NoteOffEvent(tick=4179700, channel=0, data=[36, 0]),
   midi.NoteOnEvent(tick=4179800, channel=0, data=[36, 100]),
   midi.NoteOffEvent(tick=4179900, channel=0, data=[36, 0]),
   midi.NoteOnEvent(tick=4180000, channel=0, data=[36, 100]),
   midi.NoteOffEvent(tick=4180100, channel=0, data=[36, 0]),
   midi.NoteOnEvent(tick=4180200, channel=0, data=[36, 100]),
   midi.NoteOffEvent(tick=4180300, channel=0, data=[36, 0]),
   midi.NoteOnEvent(tick=4180400, channel=0, data=[36, 100]),
   midi.NoteOffEvent(tick=4180500, channel=0, data=[36, 0]),
   midi.NoteOnEvent(tick=4180600, channel=0, data=[74, 100]),
   midi.NoteOffEvent(tick=4180700, channel=0, data=[74, 0]),
   midi.NoteOnEvent(tick=4180800, channel=0, data=[0, 100]),
   midi.NoteOffEvent(tick=4180900, channel=0, data=[0, 0]),
   midi.NoteOnEvent(tick=4181000, channel=0, data=[38, 100]),
   midi.NoteOffEvent(tick=4181100, channel=0, data=[38, 0]),
   midi.NoteOnEvent(tick=4181200, channel=0, data=[36, 100]),
   midi.NoteOffEvent(tick=4181300, channel=0, data=[36, 0]),
   midi.NoteOnEvent(tick=4181400, channel=0, data=[74, 100]),
   midi.NoteOffEvent(tick=4181500, channel=0, data=[74, 0]),
   midi.NoteOnEvent(tick=4181600, channel=0, data=[1, 100]),
   midi.NoteOffEvent(tick=4181700, channel=0, data=[1, 0]),
   midi.NoteOnEvent(tick=4181800, channel=0, data=[38, 100]),
   midi.NoteOffEvent(tick=4181900, channel=0, data=[38, 0]),
   midi.NoteOnEvent(tick=4182000, channel=0, data=[36, 100]),
   midi.NoteOffEvent(tick=4182100, channel=0, data=[36, 0]),
   midi.NoteOnEvent(tick=4182200, channel=0, data=[74, 100]),
   midi.NoteOffEvent(tick=4182300, channel=0, data=[74, 0]),
   midi.NoteOnEvent(tick=4182400, channel=0, data=[2, 100]),
   midi.NoteOffEvent(tick=4182500, channel=0, data=[2, 0]),
   midi.NoteOnEvent(tick=4182600, channel=0, data=[36, 100]),
   midi.NoteOffEvent(tick=4182700, channel=0, data=[36, 0]),
   midi.NoteOnEvent(tick=4182800, channel=0, data=[69, 100]),
   midi.NoteOffEvent(tick=4182900, channel=0, data=[69, 0]),
   midi.NoteOnEvent(tick=4183000, channel=0, data=[36, 100]),
   midi.NoteOffEvent(tick=4183100, channel=0, data=[36, 0]),
   midi.NoteOnEvent(tick=4183200, channel=0, data=[27, 100]),
   midi.NoteOffEvent(tick=4183300, channel=0, data=[27, 0]),
   midi.NoteOnEvent(tick=4183400, channel=0, data=[38, 100]),
   midi.NoteOffEvent(tick=4183500, channel=0, data=[38, 0]),
   midi.NoteOnEvent(tick=4183600, channel=0, data=[36, 100]),
   midi.NoteOffEvent(tick=4183700, channel=0, data=[36, 0]),
   midi.NoteOnEvent(tick=4183800, channel=0, data=[28, 100]),
   midi.NoteOffEvent(tick=4183900, channel=0, data=[28, 0]),
   midi.NoteOnEvent(tick=4184000, channel=0, data=[38, 100]),
   midi.NoteOffEvent(tick=4184100, channel=0, data=[38, 0]),
   midi.NoteOnEvent(tick=4184200, channel=0, data=[36, 100]),
   midi.NoteOffEvent(tick=4184300, channel=0, data=[36, 0]),
   midi.NoteOnEvent(tick=4184400, channel=0, data=[29, 100]),
   midi.NoteOffEvent(tick=4184500, channel=0, data=[29, 0]),
   midi.NoteOnEvent(tick=4184600, channel=0, data=[38, 100]),
   midi.NoteOffEvent(tick=4184700, channel=0, data=[38, 0]),
   midi.NoteOnEvent(tick=4184800, channel=0, data=[36, 100]),
   midi.NoteOffEvent(tick=4184900, channel=0, data=[36, 0]),
   midi.NoteOnEvent(tick=4185000, channel=0, data=[30, 100]),
   midi.NoteOffEvent(tick=4185100, channel=0, data=[30, 0]),
   midi.NoteOnEvent(tick=4185200, channel=0, data=[38, 100]),
   midi.NoteOffEvent(tick=4185300, channel=0, data=[38, 0]),
   midi.NoteOnEvent(tick=4185400, channel=0, data=[36, 100]),
   midi.NoteOffEvent(tick=4185500, channel=0, data=[36, 0]),
   midi.NoteOnEvent(tick=4185600, channel=0, data=[31, 100]),
   midi.NoteOffEvent(tick=4185700, channel=0, data=[31, 0]),
   midi.NoteOnEvent(tick=4185800, channel=0, data=[56, 100]),
   midi.NoteOffEvent(tick=4185900, channel=0, data=[56, 0]),
   midi.NoteOnEvent(tick=4186000, channel=0, data=[56, 100]),
   midi.NoteOffEvent(tick=4186100, channel=0, data=[56, 0]),
   midi.NoteOnEvent(tick=4186200, channel=0, data=[36, 100]),
   midi.NoteOffEvent(tick=4186300, channel=0, data=[36, 0]),
   midi.NoteOnEvent(tick=4186400, channel=0, data=[56, 100]),
   midi.NoteOffEvent(tick=4186500, channel=0, data=[56, 0]),
   midi.NoteOnEvent(tick=4186600, channel=0, data=[36, 100]),
   midi.NoteOffEvent(tick=4186700, channel=0, data=[36, 0]),
   midi.NoteOnEvent(tick=4186800, channel=0, data=[36, 100]),
   midi.NoteOffEvent(tick=4186900, channel=0, data=[36, 0]),
   midi.NoteOnEvent(tick=4187000, channel=0, data=[36, 100]),
   midi.NoteOffEvent(tick=4187100, channel=0, data=[36, 0]),
   midi.NoteOnEvent(tick=4187200, channel=0, data=[36, 100]),
   midi.NoteOffEvent(tick=4187300, channel=0, data=[36, 0]),
   midi.NoteOnEvent(tick=4187400, channel=0, data=[19, 100]),
   midi.NoteOffEvent(tick=4187500, channel=0, data=[19, 0]),
   midi.NoteOnEvent(tick=4187600, channel=0, data=[7, 100]),
   midi.NoteOffEvent(tick=4187700, channel=0, data=[7, 0]),
   midi.NoteOnEvent(tick=4187800, channel=0, data=[4, 100]),
   midi.NoteOffEvent(tick=4187900, channel=0, data=[4, 0]),
   midi.NoteOnEvent(tick=4188000, channel=0, data=[17, 100]),
   midi.NoteOffEvent(tick=4188100, channel=0, data=[17, 0]),
   midi.NoteOnEvent(tick=4188200, channel=0, data=[4, 100]),
   midi.NoteOffEvent(tick=4188300, channel=0, data=[4, 0]),
   midi.NoteOnEvent(tick=4188400, channel=0, data=[5, 100]),
   midi.NoteOffEvent(tick=4188500, channel=0, data=[5, 0]),
   midi.NoteOnEvent(tick=4188600, channel=0, data=[14, 100]),
   midi.NoteOffEvent(tick=4188700, channel=0, data=[14, 0]),
   midi.NoteOnEvent(tick=4188800, channel=0, data=[17, 100]),
   midi.NoteOffEvent(tick=4188900, channel=0, data=[17, 0]),
   midi.NoteOnEvent(tick=4189000, channel=0, data=[4, 100]),
   midi.NoteOffEvent(tick=4189100, channel=0, data=[4, 0]),
   midi.NoteOnEvent(tick=4189200, channel=0, data=[38, 100]),
   midi.NoteOffEvent(tick=4189300, channel=0, data=[38, 0]),
   midi.NoteOnEvent(tick=4189400, channel=0, data=[36, 100]),
   midi.NoteOffEvent(tick=4189500, channel=0, data=[36, 0]),
   midi.NoteOnEvent(tick=4189600, channel=0, data=[22, 100]),
   midi.NoteOffEvent(tick=4189700, channel=0, data=[22, 0]),
   midi.NoteOnEvent(tick=4189800, channel=0, data=[8, 100]),
   midi.NoteOffEvent(tick=4189900, channel=0, data=[8, 0]),
   midi.NoteOnEvent(tick=4190000, channel=0, data=[13, 100]),
   midi.NoteOffEvent(tick=4190100, channel=0, data=[13, 0]),
   midi.NoteOnEvent(tick=4190200, channel=0, data=[3, 100]),
   midi.NoteOffEvent(tick=4190300, channel=0, data=[3, 0]),
   midi.NoteOnEvent(tick=4190400, channel=0, data=[14, 100]),
   midi.NoteOffEvent(tick=4190500, channel=0, data=[14, 0]),
   midi.NoteOnEvent(tick=4190600, channel=0, data=[22, 100]),
   midi.NoteOffEvent(tick=4190700, channel=0, data=[22, 0]),
   midi.NoteOnEvent(tick=4190800, channel=0, data=[18, 100]),
   midi.NoteOffEvent(tick=4190900, channel=0, data=[18, 0]),
   midi.NoteOnEvent(tick=4191000, channel=0, data=[36, 100]),
   midi.NoteOffEvent(tick=4191100, channel=0, data=[36, 0]),
   midi.NoteOnEvent(tick=4191200, channel=0, data=[15, 100]),
   midi.NoteOffEvent(tick=4191300, channel=0, data=[15, 0]),
   midi.NoteOnEvent(tick=4191400, channel=0, data=[14, 100]),
   midi.NoteOffEvent(tick=4191500, channel=0, data=[14, 0]),
   midi.NoteOnEvent(tick=4191600, channel=0, data=[22, 100]),
   midi.NoteOffEvent(tick=4191700, channel=0, data=[22, 0]),
   midi.NoteOnEvent(tick=4191800, channel=0, data=[4, 100]),
   midi.NoteOffEvent(tick=4191900, channel=0, data=[4, 0]),
   midi.NoteOnEvent(tick=4192000, channel=0, data=[17, 100]),
   midi.NoteOffEvent(tick=4192100, channel=0, data=[17, 0]),
   midi.NoteOnEvent(tick=4192200, channel=0, data=[18, 100]),
   midi.NoteOffEvent(tick=4192300, channel=0, data=[18, 0]),
   midi.NoteOnEvent(tick=4192400, channel=0, data=[7, 100]),
   midi.NoteOffEvent(tick=4192500, channel=0, data=[7, 0]),
   midi.NoteOnEvent(tick=4192600, channel=0, data=[4, 100]),
   midi.NoteOffEvent(tick=4192700, channel=0, data=[4, 0]),
   midi.NoteOnEvent(tick=4192800, channel=0, data=[11, 100]),
   midi.NoteOffEvent(tick=4192900, channel=0, data=[11, 0]),
   midi.NoteOnEvent(tick=4193000, channel=0, data=[11, 100]),
   midi.NoteOffEvent(tick=4193100, channel=0, data=[11, 0]),
   midi.NoteOnEvent(tick=4193200, channel=0, data=[36, 100]),
   midi.NoteOffEvent(tick=4193300, channel=0, data=[36, 0]),
   midi.NoteOnEvent(tick=4193400, channel=0, data=[0, 100]),
   midi.NoteOffEvent(tick=4193500, channel=0, data=[0, 0]),
   midi.NoteOnEvent(tick=4193600, channel=0, data=[18, 100]),
   midi.NoteOffEvent(tick=4193700, channel=0, data=[18, 0]),
   midi.NoteOnEvent(tick=4193800, channel=0, data=[18, 100]),
   midi.NoteOffEvent(tick=4193900, channel=0, data=[18, 0]),
   midi.NoteOnEvent(tick=4194000, channel=0, data=[8, 100]),
   midi.NoteOffEvent(tick=4194100, channel=0, data=[8, 0]),
   midi.NoteOnEvent(tick=4194200, channel=0, data=[6, 100]),
   midi.NoteOffEvent(tick=4194300, channel=0, data=[6, 0]),
   midi.NoteOnEvent(tick=4194400, channel=0, data=[13, 100]),
   midi.NoteOffEvent(tick=4194500, channel=0, data=[13, 0]),
   midi.NoteOnEvent(tick=4194600, channel=0, data=[18, 100]),
   midi.NoteOffEvent(tick=4194700, channel=0, data=[18, 0]),
   midi.NoteOnEvent(tick=4194800, channel=0, data=[36, 100]),
   midi.NoteOffEvent(tick=4194900, channel=0, data=[36, 0]),
   midi.NoteOnEvent(tick=4195000, channel=0, data=[19, 100]),
   midi.NoteOffEvent(tick=4195100, channel=0, data=[19, 0]),
   midi.NoteOnEvent(tick=4195200, channel=0, data=[7, 100]),
   midi.NoteOffEvent(tick=4195300, channel=0, data=[7, 0]),
   midi.NoteOnEvent(tick=4195400, channel=0, data=[4, 100]),
   midi.NoteOffEvent(tick=4195500, channel=0, data=[4, 0]),
   midi.NoteOnEvent(tick=4195600, channel=0, data=[36, 100]),
   midi.NoteOffEvent(tick=4195700, channel=0, data=[36, 0]),
   midi.NoteOnEvent(tick=4195800, channel=0, data=[21, 100]),
   midi.NoteOffEvent(tick=4195900, channel=0, data=[21, 0]),
   midi.NoteOnEvent(tick=4196000, channel=0, data=[0, 100]),
   midi.NoteOffEvent(tick=4196100, channel=0, data=[0, 0]),
   midi.NoteOnEvent(tick=4196200, channel=0, data=[11, 100]),
   midi.NoteOffEvent(tick=4196300, channel=0, data=[11, 0]),
   midi.NoteOnEvent(tick=4196400, channel=0, data=[20, 100]),
   midi.NoteOffEvent(tick=4196500, channel=0, data=[20, 0]),
   midi.NoteOnEvent(tick=4196600, channel=0, data=[4, 100]),
   midi.NoteOffEvent(tick=4196700, channel=0, data=[4, 0]),
   midi.NoteOnEvent(tick=4196800, channel=0, data=[36, 100]),
   midi.NoteOffEvent(tick=4196900, channel=0, data=[36, 0]),
   midi.NoteOnEvent(tick=4197000, channel=0, data=[27, 100]),
   midi.NoteOffEvent(tick=4197100, channel=0, data=[27, 0]),
   midi.NoteOnEvent(tick=4197200, channel=0, data=[36, 100]),
   midi.NoteOffEvent(tick=4197300, channel=0, data=[36, 0]),
   midi.NoteOnEvent(tick=4197400, channel=0, data=[19, 100]),
   midi.NoteOffEvent(tick=4197500, channel=0, data=[19, 0]),
   midi.NoteOnEvent(tick=4197600, channel=0, data=[14, 100]),
   midi.NoteOffEvent(tick=4197700, channel=0, data=[14, 0]),
   midi.NoteOnEvent(tick=4197800, channel=0, data=[36, 100]),
   midi.NoteOffEvent(tick=4197900, channel=0, data=[36, 0]),
   midi.NoteOnEvent(tick=4198000, channel=0, data=[19, 100]),
   midi.NoteOffEvent(tick=4198100, channel=0, data=[19, 0]),
   midi.NoteOnEvent(tick=4198200, channel=0, data=[7, 100]),
   midi.NoteOffEvent(tick=4198300, channel=0, data=[7, 0]),
   midi.NoteOnEvent(tick=4198400, channel=0, data=[4, 100]),
   midi.NoteOffEvent(tick=4198500, channel=0, data=[4, 0]),
   midi.NoteOnEvent(tick=4198600, channel=0, data=[36, 100]),
   midi.NoteOffEvent(tick=4198700, channel=0, data=[36, 0]),
   midi.NoteOnEvent(tick=4198800, channel=0, data=[74, 100]),
   midi.NoteOffEvent(tick=4198900, channel=0, data=[74, 0]),
   midi.NoteOnEvent(tick=4199000, channel=0, data=[0, 100]),
   midi.NoteOffEvent(tick=4199100, channel=0, data=[0, 0]),
   midi.NoteOnEvent(tick=4199200, channel=0, data=[36, 100]),
   midi.NoteOffEvent(tick=4199300, channel=0, data=[36, 0]),
   midi.NoteOnEvent(tick=4199400, channel=0, data=[21, 100]),
   midi.NoteOffEvent(tick=4199500, channel=0, data=[21, 0]),
   midi.NoteOnEvent(tick=4199600, channel=0, data=[0, 100]),
   midi.NoteOffEvent(tick=4199700, channel=0, data=[0, 0]),
   midi.NoteOnEvent(tick=4199800, channel=0, data=[17, 100]),
   midi.NoteOffEvent(tick=4199900, channel=0, data=[17, 0]),
   midi.NoteOnEvent(tick=4200000, channel=0, data=[8, 100]),
   midi.NoteOffEvent(tick=4200100, channel=0, data=[8, 0]),
   midi.NoteOnEvent(tick=4200200, channel=0, data=[0, 100]),
   midi.NoteOffEvent(tick=4200300, channel=0, data=[0, 0]),
   midi.NoteOnEvent(tick=4200400, channel=0, data=[1, 100]),
   midi.NoteOffEvent(tick=4200500, channel=0, data=[1, 0]),
   midi.NoteOnEvent(tick=4200600, channel=0, data=[11, 100]),
   midi.NoteOffEvent(tick=4200700, channel=0, data=[11, 0]),
   midi.NoteOnEvent(tick=4200800, channel=0, data=[4, 100]),
   midi.NoteOffEvent(tick=4200900, channel=0, data=[4, 0]),
   midi.NoteOnEvent(tick=4201000, channel=0, data=[36, 100]),
   midi.NoteOffEvent(tick=4201100, channel=0, data=[36, 0]),
   midi.NoteOnEvent(tick=4201200, channel=0, data=[0, 100]),
   midi.NoteOffEvent(tick=4201300, channel=0, data=[0, 0]),
   midi.NoteOnEvent(tick=4201400, channel=0, data=[13, 100]),
   midi.NoteOffEvent(tick=4201500, channel=0, data=[13, 0]),
   midi.NoteOnEvent(tick=4201600, channel=0, data=[3, 100]),
   midi.NoteOffEvent(tick=4201700, channel=0, data=[3, 0]),
   midi.NoteOnEvent(tick=4201800, channel=0, data=[56, 100]),
   midi.NoteOffEvent(tick=4201900, channel=0, data=[56, 0]),
   midi.NoteOnEvent(tick=4202000, channel=0, data=[36, 100]),
   midi.NoteOffEvent(tick=4202100, channel=0, data=[36, 0]),
   midi.NoteOnEvent(tick=4202200, channel=0, data=[36, 100]),
   midi.NoteOffEvent(tick=4202300, channel=0, data=[36, 0]),
   midi.NoteOnEvent(tick=4202400, channel=0, data=[36, 100]),
   midi.NoteOffEvent(tick=4202500, channel=0, data=[36, 0]),
   midi.NoteOnEvent(tick=4202600, channel=0, data=[36, 100]),
   midi.NoteOffEvent(tick=4202700, channel=0, data=[36, 0]),
   midi.NoteOnEvent(tick=4202800, channel=0, data=[19, 100]),
   midi.NoteOffEvent(tick=4202900, channel=0, data=[19, 0]),
   midi.NoteOnEvent(tick=4203000, channel=0, data=[7, 100]),
   midi.NoteOffEvent(tick=4203100, channel=0, data=[7, 0]),
   midi.NoteOnEvent(tick=4203200, channel=0, data=[4, 100]),
   midi.NoteOffEvent(tick=4203300, channel=0, data=[4, 0]),
   midi.NoteOnEvent(tick=4203400, channel=0, data=[36, 100]),
   midi.NoteOffEvent(tick=4203500, channel=0, data=[36, 0]),
   midi.NoteOnEvent(tick=4203600, channel=0, data=[21, 100]),
   midi.NoteOffEvent(tick=4203700, channel=0, data=[21, 0]),
   midi.NoteOnEvent(tick=4203800, channel=0, data=[0, 100]),
   midi.NoteOffEvent(tick=4203900, channel=0, data=[0, 0]),
   midi.NoteOnEvent(tick=4204000, channel=0, data=[11, 100]),
   midi.NoteOffEvent(tick=4204100, channel=0, data=[11, 0]),
   midi.NoteOnEvent(tick=4204200, channel=0, data=[20, 100]),
   midi.NoteOffEvent(tick=4204300, channel=0, data=[20, 0]),
   midi.NoteOnEvent(tick=4204400, channel=0, data=[4, 100]),
   midi.NoteOffEvent(tick=4204500, channel=0, data=[4, 0]),
   midi.NoteOnEvent(tick=4204600, channel=0, data=[36, 100]),
   midi.NoteOffEvent(tick=4204700, channel=0, data=[36, 0]),
   midi.NoteOnEvent(tick=4204800, channel=0, data=[28, 100]),
   midi.NoteOffEvent(tick=4204900, channel=0, data=[28, 0]),
   midi.NoteOnEvent(tick=4205000, channel=0, data=[36, 100]),
   midi.NoteOffEvent(tick=4205100, channel=0, data=[36, 0]),
   midi.NoteOnEvent(tick=4205200, channel=0, data=[19, 100]),
   midi.NoteOffEvent(tick=4205300, channel=0, data=[19, 0]),
   midi.NoteOnEvent(tick=4205400, channel=0, data=[14, 100]),
   midi.NoteOffEvent(tick=4205500, channel=0, data=[14, 0]),
   midi.NoteOnEvent(tick=4205600, channel=0, data=[36, 100]),
   midi.NoteOffEvent(tick=4205700, channel=0, data=[36, 0]),
   midi.NoteOnEvent(tick=4205800, channel=0, data=[19, 100]),
   midi.NoteOffEvent(tick=4205900, channel=0, data=[19, 0]),
   midi.NoteOnEvent(tick=4206000, channel=0, data=[7, 100]),
   midi.NoteOffEvent(tick=4206100, channel=0, data=[7, 0]),
   midi.NoteOnEvent(tick=4206200, channel=0, data=[4, 100]),
   midi.NoteOffEvent(tick=4206300, channel=0, data=[4, 0]),
   midi.NoteOnEvent(tick=4206400, channel=0, data=[36, 100]),
   midi.NoteOffEvent(tick=4206500, channel=0, data=[36, 0]),
   midi.NoteOnEvent(tick=4206600, channel=0, data=[74, 100]),
   midi.NoteOffEvent(tick=4206700, channel=0, data=[74, 0]),
   midi.NoteOnEvent(tick=4206800, channel=0, data=[1, 100]),
   midi.NoteOffEvent(tick=4206900, channel=0, data=[1, 0]),
   midi.NoteOnEvent(tick=4207000, channel=0, data=[36, 100]),
   midi.NoteOffEvent(tick=4207100, channel=0, data=[36, 0]),
   midi.NoteOnEvent(tick=4207200, channel=0, data=[21, 100]),
   midi.NoteOffEvent(tick=4207300, channel=0, data=[21, 0]),
   midi.NoteOnEvent(tick=4207400, channel=0, data=[0, 100]),
   midi.NoteOffEvent(tick=4207500, channel=0, data=[0, 0]),
   midi.NoteOnEvent(tick=4207600, channel=0, data=[17, 100]),
   midi.NoteOffEvent(tick=4207700, channel=0, data=[17, 0]),
   midi.NoteOnEvent(tick=4207800, channel=0, data=[8, 100]),
   midi.NoteOffEvent(tick=4207900, channel=0, data=[8, 0]),
   midi.NoteOnEvent(tick=4208000, channel=0, data=[0, 100]),
   midi.NoteOffEvent(tick=4208100, channel=0, data=[0, 0]),
   midi.NoteOnEvent(tick=4208200, channel=0, data=[1, 100]),
   midi.NoteOffEvent(tick=4208300, channel=0, data=[1, 0]),
   midi.NoteOnEvent(tick=4208400, channel=0, data=[11, 100]),
   midi.NoteOffEvent(tick=4208500, channel=0, data=[11, 0]),
   midi.NoteOnEvent(tick=4208600, channel=0, data=[4, 100]),
   midi.NoteOffEvent(tick=4208700, channel=0, data=[4, 0]),
   midi.NoteOnEvent(tick=4208800, channel=0, data=[37, 100]),
   midi.NoteOffEvent(tick=4208900, channel=0, data=[37, 0]),
   midi.NoteOnEvent(tick=4209000, channel=0, data=[36, 100]),
   midi.NoteOffEvent(tick=4209100, channel=0, data=[36, 0]),
   midi.NoteOnEvent(tick=4209200, channel=0, data=[8, 100]),
   midi.NoteOffEvent(tick=4209300, channel=0, data=[8, 0]),
   midi.NoteOnEvent(tick=4209400, channel=0, data=[19, 100]),
   midi.NoteOffEvent(tick=4209500, channel=0, data=[19, 0]),
   midi.NoteOnEvent(tick=4209600, channel=0, data=[36, 100]),
   midi.NoteOffEvent(tick=4209700, channel=0, data=[36, 0]),
   midi.NoteOnEvent(tick=4209800, channel=0, data=[0, 100]),
   midi.NoteOffEvent(tick=4209900, channel=0, data=[0, 0]),
   midi.NoteOnEvent(tick=4210000, channel=0, data=[18, 100]),
   midi.NoteOffEvent(tick=4210100, channel=0, data=[18, 0]),
   midi.NoteOnEvent(tick=4210200, channel=0, data=[18, 100]),
   midi.NoteOffEvent(tick=4210300, channel=0, data=[18, 0]),
   midi.NoteOnEvent(tick=4210400, channel=0, data=[8, 100]),
   midi.NoteOffEvent(tick=4210500, channel=0, data=[8, 0]),
   midi.NoteOnEvent(tick=4210600, channel=0, data=[6, 100]),
   midi.NoteOffEvent(tick=4210700, channel=0, data=[6, 0]),
   midi.NoteOnEvent(tick=4210800, channel=0, data=[13, 100]),
   midi.NoteOffEvent(tick=4210900, channel=0, data=[13, 0]),
   midi.NoteOnEvent(tick=4211000, channel=0, data=[18, 100]),
   midi.NoteOffEvent(tick=4211100, channel=0, data=[18, 0]),
   midi.NoteOnEvent(tick=4211200, channel=0, data=[36, 100]),
   midi.NoteOffEvent(tick=4211300, channel=0, data=[36, 0]),
   midi.NoteOnEvent(tick=4211400, channel=0, data=[19, 100]),
   midi.NoteOffEvent(tick=4211500, channel=0, data=[19, 0]),
   midi.NoteOnEvent(tick=4211600, channel=0, data=[7, 100]),
   midi.NoteOffEvent(tick=4211700, channel=0, data=[7, 0]),
   midi.NoteOnEvent(tick=4211800, channel=0, data=[4, 100]),
   midi.NoteOffEvent(tick=4211900, channel=0, data=[4, 0]),
   midi.NoteOnEvent(tick=4212000, channel=0, data=[36, 100]),
   midi.NoteOffEvent(tick=4212100, channel=0, data=[36, 0]),
   midi.NoteOnEvent(tick=4212200, channel=0, data=[21, 100]),
   midi.NoteOffEvent(tick=4212300, channel=0, data=[21, 0]),
   midi.NoteOnEvent(tick=4212400, channel=0, data=[0, 100]),
   midi.NoteOffEvent(tick=4212500, channel=0, data=[0, 0]),
   midi.NoteOnEvent(tick=4212600, channel=0, data=[11, 100]),
   midi.NoteOffEvent(tick=4212700, channel=0, data=[11, 0]),
   midi.NoteOnEvent(tick=4212800, channel=0, data=[20, 100]),
   midi.NoteOffEvent(tick=4212900, channel=0, data=[20, 0]),
   midi.NoteOnEvent(tick=4213000, channel=0, data=[4, 100]),
   midi.NoteOffEvent(tick=4213100, channel=0, data=[4, 0]),
   midi.NoteOnEvent(tick=4213200, channel=0, data=[18, 100]),
   midi.NoteOffEvent(tick=4213300, channel=0, data=[18, 0]),
   midi.NoteOnEvent(tick=4213400, channel=0, data=[36, 100]),
   midi.NoteOffEvent(tick=4213500, channel=0, data=[36, 0]),
   midi.NoteOnEvent(tick=4213600, channel=0, data=[29, 100]),
   midi.NoteOffEvent(tick=4213700, channel=0, data=[29, 0]),
   midi.NoteOnEvent(tick=4213800, channel=0, data=[38, 100]),
   midi.NoteOffEvent(tick=4213900, channel=0, data=[38, 0]),
   midi.NoteOnEvent(tick=4214000, channel=0, data=[36, 100]),
   midi.NoteOffEvent(tick=4214100, channel=0, data=[36, 0]),
   midi.NoteOnEvent(tick=4214200, channel=0, data=[30, 100]),
   midi.NoteOffEvent(tick=4214300, channel=0, data=[30, 0]),
   midi.NoteOnEvent(tick=4214400, channel=0, data=[38, 100]),
   midi.NoteOffEvent(tick=4214500, channel=0, data=[38, 0]),
   midi.NoteOnEvent(tick=4214600, channel=0, data=[36, 100]),
   midi.NoteOffEvent(tick=4214700, channel=0, data=[36, 0]),
   midi.NoteOnEvent(tick=4214800, channel=0, data=[0, 100]),
   midi.NoteOffEvent(tick=4214900, channel=0, data=[0, 0]),
   midi.NoteOnEvent(tick=4215000, channel=0, data=[13, 100]),
   midi.NoteOffEvent(tick=4215100, channel=0, data=[13, 0]),
   midi.NoteOnEvent(tick=4215200, channel=0, data=[3, 100]),
   midi.NoteOffEvent(tick=4215300, channel=0, data=[3, 0]),
   midi.NoteOnEvent(tick=4215400, channel=0, data=[36, 100]),
   midi.NoteOffEvent(tick=4215500, channel=0, data=[36, 0]),
   midi.NoteOnEvent(tick=4215600, channel=0, data=[31, 100]),
   midi.NoteOffEvent(tick=4215700, channel=0, data=[31, 0]),
   midi.NoteOnEvent(tick=4215800, channel=0, data=[36, 100]),
   midi.NoteOffEvent(tick=4215900, channel=0, data=[36, 0]),
   midi.NoteOnEvent(tick=4216000, channel=0, data=[19, 100]),
   midi.NoteOffEvent(tick=4216100, channel=0, data=[19, 0]),
   midi.NoteOnEvent(tick=4216200, channel=0, data=[14, 100]),
   midi.NoteOffEvent(tick=4216300, channel=0, data=[14, 0]),
   midi.NoteOnEvent(tick=4216400, channel=0, data=[56, 100]),
   midi.NoteOffEvent(tick=4216500, channel=0, data=[56, 0]),
   midi.NoteOnEvent(tick=4216600, channel=0, data=[36, 100]),
   midi.NoteOffEvent(tick=4216700, channel=0, data=[36, 0]),
   midi.NoteOnEvent(tick=4216800, channel=0, data=[36, 100]),
   midi.NoteOffEvent(tick=4216900, channel=0, data=[36, 0]),
   midi.NoteOnEvent(tick=4217000, channel=0, data=[36, 100]),
   midi.NoteOffEvent(tick=4217100, channel=0, data=[36, 0]),
   midi.NoteOnEvent(tick=4217200, channel=0, data=[36, 100]),
   midi.NoteOffEvent(tick=4217300, channel=0, data=[36, 0]),
   midi.NoteOnEvent(tick=4217400, channel=0, data=[19, 100]),
   midi.NoteOffEvent(tick=4217500, channel=0, data=[19, 0]),
   midi.NoteOnEvent(tick=4217600, channel=0, data=[7, 100]),
   midi.NoteOffEvent(tick=4217700, channel=0, data=[7, 0]),
   midi.NoteOnEvent(tick=4217800, channel=0, data=[4, 100]),
   midi.NoteOffEvent(tick=4217900, channel=0, data=[4, 0]),
   midi.NoteOnEvent(tick=4218000, channel=0, data=[36, 100]),
   midi.NoteOffEvent(tick=4218100, channel=0, data=[36, 0]),
   midi.NoteOnEvent(tick=4218200, channel=0, data=[74, 100]),
   midi.NoteOffEvent(tick=4218300, channel=0, data=[74, 0]),
   midi.NoteOnEvent(tick=4218400, channel=0, data=[2, 100]),
   midi.NoteOffEvent(tick=4218500, channel=0, data=[2, 0]),
   midi.NoteOnEvent(tick=4218600, channel=0, data=[36, 100]),
   midi.NoteOffEvent(tick=4218700, channel=0, data=[36, 0]),
   midi.NoteOnEvent(tick=4218800, channel=0, data=[21, 100]),
   midi.NoteOffEvent(tick=4218900, channel=0, data=[21, 0]),
   midi.NoteOnEvent(tick=4219000, channel=0, data=[0, 100]),
   midi.NoteOffEvent(tick=4219100, channel=0, data=[0, 0]),
   midi.NoteOnEvent(tick=4219200, channel=0, data=[17, 100]),
   midi.NoteOffEvent(tick=4219300, channel=0, data=[17, 0]),
   midi.NoteOnEvent(tick=4219400, channel=0, data=[8, 100]),
   midi.NoteOffEvent(tick=4219500, channel=0, data=[8, 0]),
   midi.NoteOnEvent(tick=4219600, channel=0, data=[0, 100]),
   midi.NoteOffEvent(tick=4219700, channel=0, data=[0, 0]),
   midi.NoteOnEvent(tick=4219800, channel=0, data=[1, 100]),
   midi.NoteOffEvent(tick=4219900, channel=0, data=[1, 0]),
   midi.NoteOnEvent(tick=4220000, channel=0, data=[11, 100]),
   midi.NoteOffEvent(tick=4220100, channel=0, data=[11, 0]),
   midi.NoteOnEvent(tick=4220200, channel=0, data=[4, 100]),
   midi.NoteOffEvent(tick=4220300, channel=0, data=[4, 0]),
   midi.NoteOnEvent(tick=4220400, channel=0, data=[37, 100]),
   midi.NoteOffEvent(tick=4220500, channel=0, data=[37, 0]),
   midi.NoteOnEvent(tick=4220600, channel=0, data=[36, 100]),
   midi.NoteOffEvent(tick=4220700, channel=0, data=[36, 0]),
   midi.NoteOnEvent(tick=4220800, channel=0, data=[19, 100]),
   midi.NoteOffEvent(tick=4220900, channel=0, data=[19, 0]),
   midi.NoteOnEvent(tick=4221000, channel=0, data=[14, 100]),
   midi.NoteOffEvent(tick=4221100, channel=0, data=[14, 0]),
   midi.NoteOnEvent(tick=4221200, channel=0, data=[36, 100]),
   midi.NoteOffEvent(tick=4221300, channel=0, data=[36, 0]),
   midi.NoteOnEvent(tick=4221400, channel=0, data=[0, 100]),
   midi.NoteOffEvent(tick=4221500, channel=0, data=[0, 0]),
   midi.NoteOnEvent(tick=4221600, channel=0, data=[18, 100]),
   midi.NoteOffEvent(tick=4221700, channel=0, data=[18, 0]),
   midi.NoteOnEvent(tick=4221800, channel=0, data=[18, 100]),
   midi.NoteOffEvent(tick=4221900, channel=0, data=[18, 0]),
   midi.NoteOnEvent(tick=4222000, channel=0, data=[8, 100]),
   midi.NoteOffEvent(tick=4222100, channel=0, data=[8, 0]),
   midi.NoteOnEvent(tick=4222200, channel=0, data=[6, 100]),
   midi.NoteOffEvent(tick=4222300, channel=0, data=[6, 0]),
   midi.NoteOnEvent(tick=4222400, channel=0, data=[13, 100]),
   midi.NoteOffEvent(tick=4222500, channel=0, data=[13, 0]),
   midi.NoteOnEvent(tick=4222600, channel=0, data=[36, 100]),
   midi.NoteOffEvent(tick=4222700, channel=0, data=[36, 0]),
   midi.NoteOnEvent(tick=4222800, channel=0, data=[19, 100]),
   midi.NoteOffEvent(tick=4222900, channel=0, data=[19, 0]),
   midi.NoteOnEvent(tick=4223000, channel=0, data=[7, 100]),
   midi.NoteOffEvent(tick=4223100, channel=0, data=[7, 0]),
   midi.NoteOnEvent(tick=4223200, channel=0, data=[4, 100]),
   midi.NoteOffEvent(tick=4223300, channel=0, data=[4, 0]),
   midi.NoteOnEvent(tick=4223400, channel=0, data=[36, 100]),
   midi.NoteOffEvent(tick=4223500, channel=0, data=[36, 0]),
   midi.NoteOnEvent(tick=4223600, channel=0, data=[21, 100]),
   midi.NoteOffEvent(tick=4223700, channel=0, data=[21, 0]),
   midi.NoteOnEvent(tick=4223800, channel=0, data=[0, 100]),
   midi.NoteOffEvent(tick=4223900, channel=0, data=[0, 0]),
   midi.NoteOnEvent(tick=4224000, channel=0, data=[11, 100]),
   midi.NoteOffEvent(tick=4224100, channel=0, data=[11, 0]),
   midi.NoteOnEvent(tick=4224200, channel=0, data=[20, 100]),
   midi.NoteOffEvent(tick=4224300, channel=0, data=[20, 0]),
   midi.NoteOnEvent(tick=4224400, channel=0, data=[4, 100]),
   midi.NoteOffEvent(tick=4224500, channel=0, data=[4, 0]),
   midi.NoteOnEvent(tick=4224600, channel=0, data=[18, 100]),
   midi.NoteOffEvent(tick=4224700, channel=0, data=[18, 0]),
   midi.NoteOnEvent(tick=4224800, channel=0, data=[36, 100]),
   midi.NoteOffEvent(tick=4224900, channel=0, data=[36, 0]),
   midi.NoteOnEvent(tick=4225000, channel=0, data=[8, 100]),
   midi.NoteOffEvent(tick=4225100, channel=0, data=[8, 0]),
   midi.NoteOnEvent(tick=4225200, channel=0, data=[13, 100]),
   midi.NoteOffEvent(tick=4225300, channel=0, data=[13, 0]),
   midi.NoteOnEvent(tick=4225400, channel=0, data=[36, 100]),
   midi.NoteOffEvent(tick=4225500, channel=0, data=[36, 0]),
   midi.NoteOnEvent(tick=4225600, channel=0, data=[19, 100]),
   midi.NoteOffEvent(tick=4225700, channel=0, data=[19, 0]),
   midi.NoteOnEvent(tick=4225800, channel=0, data=[7, 100]),
   midi.NoteOffEvent(tick=4225900, channel=0, data=[7, 0]),
   midi.NoteOnEvent(tick=4226000, channel=0, data=[4, 100]),
   midi.NoteOffEvent(tick=4226100, channel=0, data=[4, 0]),
   midi.NoteOnEvent(tick=4226200, channel=0, data=[36, 100]),
   midi.NoteOffEvent(tick=4226300, channel=0, data=[36, 0]),
   midi.NoteOnEvent(tick=4226400, channel=0, data=[74, 100]),
   midi.NoteOffEvent(tick=4226500, channel=0, data=[74, 0]),
   midi.NoteOnEvent(tick=4226600, channel=0, data=[2, 100]),
   midi.NoteOffEvent(tick=4226700, channel=0, data=[2, 0]),
   midi.NoteOnEvent(tick=4226800, channel=0, data=[36, 100]),
   midi.NoteOffEvent(tick=4226900, channel=0, data=[36, 0]),
   midi.NoteOnEvent(tick=4227000, channel=0, data=[21, 100]),
   midi.NoteOffEvent(tick=4227100, channel=0, data=[21, 0]),
   midi.NoteOnEvent(tick=4227200, channel=0, data=[0, 100]),
   midi.NoteOffEvent(tick=4227300, channel=0, data=[0, 0]),
   midi.NoteOnEvent(tick=4227400, channel=0, data=[17, 100]),
   midi.NoteOffEvent(tick=4227500, channel=0, data=[17, 0]),
   midi.NoteOnEvent(tick=4227600, channel=0, data=[8, 100]),
   midi.NoteOffEvent(tick=4227700, channel=0, data=[8, 0]),
   midi.NoteOnEvent(tick=4227800, channel=0, data=[0, 100]),
   midi.NoteOffEvent(tick=4227900, channel=0, data=[0, 0]),
   midi.NoteOnEvent(tick=4228000, channel=0, data=[1, 100]),
   midi.NoteOffEvent(tick=4228100, channel=0, data=[1, 0]),
   midi.NoteOnEvent(tick=4228200, channel=0, data=[11, 100]),
   midi.NoteOffEvent(tick=4228300, channel=0, data=[11, 0]),
   midi.NoteOnEvent(tick=4228400, channel=0, data=[4, 100]),
   midi.NoteOffEvent(tick=4228500, channel=0, data=[4, 0]),
   midi.NoteOnEvent(tick=4228600, channel=0, data=[36, 100]),
   midi.NoteOffEvent(tick=4228700, channel=0, data=[36, 0]),
   midi.NoteOnEvent(tick=4228800, channel=0, data=[19, 100]),
   midi.NoteOffEvent(tick=4228900, channel=0, data=[19, 0]),
   midi.NoteOnEvent(tick=4229000, channel=0, data=[14, 100]),
   midi.NoteOffEvent(tick=4229100, channel=0, data=[14, 0]),
   midi.NoteOnEvent(tick=4229200, channel=0, data=[36, 100]),
   midi.NoteOffEvent(tick=4229300, channel=0, data=[36, 0]),
   midi.NoteOnEvent(tick=4229400, channel=0, data=[19, 100]),
   midi.NoteOffEvent(tick=4229500, channel=0, data=[19, 0]),
   midi.NoteOnEvent(tick=4229600, channel=0, data=[7, 100]),
   midi.NoteOffEvent(tick=4229700, channel=0, data=[7, 0]),
   midi.NoteOnEvent(tick=4229800, channel=0, data=[17, 100]),
   midi.NoteOffEvent(tick=4229900, channel=0, data=[17, 0]),
   midi.NoteOnEvent(tick=4230000, channel=0, data=[4, 100]),
   midi.NoteOffEvent(tick=4230100, channel=0, data=[4, 0]),
   midi.NoteOnEvent(tick=4230200, channel=0, data=[4, 100]),
   midi.NoteOffEvent(tick=4230300, channel=0, data=[4, 0]),
   midi.NoteOnEvent(tick=4230400, channel=0, data=[36, 100]),
   midi.NoteOffEvent(tick=4230500, channel=0, data=[36, 0]),
   midi.NoteOnEvent(tick=4230600, channel=0, data=[14, 100]),
   midi.NoteOffEvent(tick=4230700, channel=0, data=[14, 0]),
   midi.NoteOnEvent(tick=4230800, channel=0, data=[19, 100]),
   midi.NoteOffEvent(tick=4230900, channel=0, data=[19, 0]),
   midi.NoteOnEvent(tick=4231000, channel=0, data=[7, 100]),
   midi.NoteOffEvent(tick=4231100, channel=0, data=[7, 0]),
   midi.NoteOnEvent(tick=4231200, channel=0, data=[4, 100]),
   midi.NoteOffEvent(tick=4231300, channel=0, data=[4, 0]),
   midi.NoteOnEvent(tick=4231400, channel=0, data=[17, 100]),
   midi.NoteOffEvent(tick=4231500, channel=0, data=[17, 0]),
   midi.NoteOnEvent(tick=4231600, channel=0, data=[56, 100]),
   midi.NoteOffEvent(tick=4231700, channel=0, data=[56, 0]),
   midi.NoteOnEvent(tick=4231800, channel=0, data=[36, 100]),
   midi.NoteOffEvent(tick=4231900, channel=0, data=[36, 0]),
   midi.NoteOnEvent(tick=4232000, channel=0, data=[36, 100]),
   midi.NoteOffEvent(tick=4232100, channel=0, data=[36, 0]),
   midi.NoteOnEvent(tick=4232200, channel=0, data=[36, 100]),
   midi.NoteOffEvent(tick=4232300, channel=0, data=[36, 0]),
   midi.NoteOnEvent(tick=4232400, channel=0, data=[36, 100]),
   midi.NoteOffEvent(tick=4232500, channel=0, data=[36, 0]),
   midi.NoteOnEvent(tick=4232600, channel=0, data=[21, 100]),
   midi.NoteOffEvent(tick=4232700, channel=0, data=[21, 0]),
   midi.NoteOnEvent(tick=4232800, channel=0, data=[0, 100]),
   midi.NoteOffEvent(tick=4232900, channel=0, data=[0, 0]),
   midi.NoteOnEvent(tick=4233000, channel=0, data=[17, 100]),
   midi.NoteOffEvent(tick=4233100, channel=0, data=[17, 0]),
   midi.NoteOnEvent(tick=4233200, channel=0, data=[8, 100]),
   midi.NoteOffEvent(tick=4233300, channel=0, data=[8, 0]),
   midi.NoteOnEvent(tick=4233400, channel=0, data=[0, 100]),
   midi.NoteOffEvent(tick=4233500, channel=0, data=[0, 0]),
   midi.NoteOnEvent(tick=4233600, channel=0, data=[1, 100]),
   midi.NoteOffEvent(tick=4233700, channel=0, data=[1, 0]),
   midi.NoteOnEvent(tick=4233800, channel=0, data=[11, 100]),
   midi.NoteOffEvent(tick=4233900, channel=0, data=[11, 0]),
   midi.NoteOnEvent(tick=4234000, channel=0, data=[4, 100]),
   midi.NoteOffEvent(tick=4234100, channel=0, data=[4, 0]),
   midi.NoteOnEvent(tick=4234200, channel=0, data=[18, 100]),
   midi.NoteOffEvent(tick=4234300, channel=0, data=[18, 0]),
   midi.NoteOnEvent(tick=4234400, channel=0, data=[38, 100]),
   midi.NoteOffEvent(tick=4234500, channel=0, data=[38, 0]),
   midi.NoteOnEvent(tick=4234600, channel=0, data=[36, 100]),
   midi.NoteOffEvent(tick=4234700, channel=0, data=[36, 0]),
   midi.NoteOnEvent(tick=4234800, channel=0, data=[20, 100]),
   midi.NoteOffEvent(tick=4234900, channel=0, data=[20, 0]),
   midi.NoteOnEvent(tick=4235000, channel=0, data=[18, 100]),
   midi.NoteOffEvent(tick=4235100, channel=0, data=[18, 0]),
   midi.NoteOnEvent(tick=4235200, channel=0, data=[4, 100]),
   midi.NoteOffEvent(tick=4235300, channel=0, data=[4, 0]),
   midi.NoteOnEvent(tick=4235400, channel=0, data=[36, 100]),
   midi.NoteOffEvent(tick=4235500, channel=0, data=[36, 0]),
   midi.NoteOnEvent(tick=4235600, channel=0, data=[19, 100]),
   midi.NoteOffEvent(tick=4235700, channel=0, data=[19, 0]),
   midi.NoteOnEvent(tick=4235800, channel=0, data=[7, 100]),
   midi.NoteOffEvent(tick=4235900, channel=0, data=[7, 0]),
   midi.NoteOnEvent(tick=4236000, channel=0, data=[4, 100]),
   midi.NoteOffEvent(tick=4236100, channel=0, data=[4, 0]),
   midi.NoteOnEvent(tick=4236200, channel=0, data=[36, 100]),
   midi.NoteOffEvent(tick=4236300, channel=0, data=[36, 0]),
   midi.NoteOnEvent(tick=4236400, channel=0, data=[5, 100]),
   midi.NoteOffEvent(tick=4236500, channel=0, data=[5, 0]),
   midi.NoteOnEvent(tick=4236600, channel=0, data=[14, 100]),
   midi.NoteOffEvent(tick=4236700, channel=0, data=[14, 0]),
   midi.NoteOnEvent(tick=4236800, channel=0, data=[11, 100]),
   midi.NoteOffEvent(tick=4236900, channel=0, data=[11, 0]),
   midi.NoteOnEvent(tick=4237000, channel=0, data=[11, 100]),
   midi.NoteOffEvent(tick=4237100, channel=0, data=[11, 0]),
   midi.NoteOnEvent(tick=4237200, channel=0, data=[14, 100]),
   midi.NoteOffEvent(tick=4237300, channel=0, data=[14, 0]),
   midi.NoteOnEvent(tick=4237400, channel=0, data=[22, 100]),
   midi.NoteOffEvent(tick=4237500, channel=0, data=[22, 0]),
   midi.NoteOnEvent(tick=4237600, channel=0, data=[8, 100]),
   midi.NoteOffEvent(tick=4237700, channel=0, data=[8, 0]),
   midi.NoteOnEvent(tick=4237800, channel=0, data=[13, 100]),
   midi.NoteOffEvent(tick=4237900, channel=0, data=[13, 0]),
   midi.NoteOnEvent(tick=4238000, channel=0, data=[6, 100]),
   midi.NoteOffEvent(tick=4238100, channel=0, data=[6, 0]),
   midi.NoteOnEvent(tick=4238200, channel=0, data=[36, 100]),
   midi.NoteOffEvent(tick=4238300, channel=0, data=[36, 0]),
   midi.NoteOnEvent(tick=4238400, channel=0, data=[5, 100]),
   midi.NoteOffEvent(tick=4238500, channel=0, data=[5, 0]),
   midi.NoteOnEvent(tick=4238600, channel=0, data=[14, 100]),
   midi.NoteOffEvent(tick=4238700, channel=0, data=[14, 0]),
   midi.NoteOnEvent(tick=4238800, channel=0, data=[17, 100]),
   midi.NoteOffEvent(tick=4238900, channel=0, data=[17, 0]),
   midi.NoteOnEvent(tick=4239000, channel=0, data=[12, 100]),
   midi.NoteOffEvent(tick=4239100, channel=0, data=[12, 0]),
   midi.NoteOnEvent(tick=4239200, channel=0, data=[0, 100]),
   midi.NoteOffEvent(tick=4239300, channel=0, data=[0, 0]),
   midi.NoteOnEvent(tick=4239400, channel=0, data=[19, 100]),
   midi.NoteOffEvent(tick=4239500, channel=0, data=[19, 0]),
   midi.NoteOnEvent(tick=4239600, channel=0, data=[46, 100]),
   midi.NoteOffEvent(tick=4239700, channel=0, data=[46, 0]),
   midi.NoteOnEvent(tick=4239800, channel=0, data=[56, 100]),
   midi.NoteOffEvent(tick=4239900, channel=0, data=[56, 0]),
   midi.NoteOnEvent(tick=4240000, channel=0, data=[56, 100]),
   midi.NoteOffEvent(tick=4240100, channel=0, data=[56, 0]),
   midi.NoteOnEvent(tick=4240200, channel=0, data=[56, 100]),
   midi.NoteOffEvent(tick=4240300, channel=0, data=[56, 0]),
   midi.NoteOnEvent(tick=4240400, channel=0, data=[36, 100]),
   midi.NoteOffEvent(tick=4240500, channel=0, data=[36, 0]),
   midi.NoteOnEvent(tick=4240600, channel=0, data=[36, 100]),
   midi.NoteOffEvent(tick=4240700, channel=0, data=[36, 0]),
   midi.NoteOnEvent(tick=4240800, channel=0, data=[36, 100]),
   midi.NoteOffEvent(tick=4240900, channel=0, data=[36, 0]),
   midi.NoteOnEvent(tick=4241000, channel=0, data=[36, 100]),
   midi.NoteOffEvent(tick=4241100, channel=0, data=[36, 0]),
   midi.NoteOnEvent(tick=4241200, channel=0, data=[36, 100]),
   midi.NoteOffEvent(tick=4241300, channel=0, data=[36, 0]),
   midi.NoteOnEvent(tick=4241400, channel=0, data=[36, 100]),
   midi.NoteOffEvent(tick=4241500, channel=0, data=[36, 0]),
   midi.NoteOnEvent(tick=4241600, channel=0, data=[36, 100]),
   midi.NoteOffEvent(tick=4241700, channel=0, data=[36, 0]),
   midi.NoteOnEvent(tick=4241800, channel=0, data=[36, 100]),
   midi.NoteOffEvent(tick=4241900, channel=0, data=[36, 0]),
   midi.NoteOnEvent(tick=4242000, channel=0, data=[74, 100]),
   midi.NoteOffEvent(tick=4242100, channel=0, data=[74, 0]),
   midi.NoteOnEvent(tick=4242200, channel=0, data=[3, 100]),
   midi.NoteOffEvent(tick=4242300, channel=0, data=[3, 0]),
   midi.NoteOnEvent(tick=4242400, channel=0, data=[38, 100]),
   midi.NoteOffEvent(tick=4242500, channel=0, data=[38, 0]),
   midi.NoteOnEvent(tick=4242600, channel=0, data=[36, 100]),
   midi.NoteOffEvent(tick=4242700, channel=0, data=[36, 0]),
   midi.NoteOnEvent(tick=4242800, channel=0, data=[74, 100]),
   midi.NoteOffEvent(tick=4242900, channel=0, data=[74, 0]),
   midi.NoteOnEvent(tick=4243000, channel=0, data=[4, 100]),
   midi.NoteOffEvent(tick=4243100, channel=0, data=[4, 0]),
   midi.NoteOnEvent(tick=4243200, channel=0, data=[38, 100]),
   midi.NoteOffEvent(tick=4243300, channel=0, data=[38, 0]),
   midi.NoteOnEvent(tick=4243400, channel=0, data=[36, 100]),
   midi.NoteOffEvent(tick=4243500, channel=0, data=[36, 0]),
   midi.NoteOnEvent(tick=4243600, channel=0, data=[74, 100]),
   midi.NoteOffEvent(tick=4243700, channel=0, data=[74, 0]),
   midi.NoteOnEvent(tick=4243800, channel=0, data=[5, 100]),
   midi.NoteOffEvent(tick=4243900, channel=0, data=[5, 0]),
   midi.NoteOnEvent(tick=4244000, channel=0, data=[36, 100]),
   midi.NoteOffEvent(tick=4244100, channel=0, data=[36, 0]),
   midi.NoteOnEvent(tick=4244200, channel=0, data=[69, 100]),
   midi.NoteOffEvent(tick=4244300, channel=0, data=[69, 0]),
   midi.NoteOnEvent(tick=4244400, channel=0, data=[36, 100]),
   midi.NoteOffEvent(tick=4244500, channel=0, data=[36, 0]),
   midi.NoteOnEvent(tick=4244600, channel=0, data=[74, 100]),
   midi.NoteOffEvent(tick=4244700, channel=0, data=[74, 0]),
   midi.NoteOnEvent(tick=4244800, channel=0, data=[2, 100]),
   midi.NoteOffEvent(tick=4244900, channel=0, data=[2, 0]),
   midi.NoteOnEvent(tick=4245000, channel=0, data=[56, 100]),
   midi.NoteOffEvent(tick=4245100, channel=0, data=[56, 0]),
   midi.NoteOnEvent(tick=4245200, channel=0, data=[56, 100]),
   midi.NoteOffEvent(tick=4245300, channel=0, data=[56, 0]),
   midi.NoteOnEvent(tick=4245400, channel=0, data=[56, 100]),
   midi.NoteOffEvent(tick=4245500, channel=0, data=[56, 0]),
   midi.NoteOnEvent(tick=4245600, channel=0, data=[36, 100]),
   midi.NoteOffEvent(tick=4245700, channel=0, data=[36, 0]),
   midi.NoteOnEvent(tick=4245800, channel=0, data=[36, 100]),
   midi.NoteOffEvent(tick=4245900, channel=0, data=[36, 0]),
   midi.NoteOnEvent(tick=4246000, channel=0, data=[36, 100]),
   midi.NoteOffEvent(tick=4246100, channel=0, data=[36, 0]),
   midi.NoteOnEvent(tick=4246200, channel=0, data=[36, 100]),
   midi.NoteOffEvent(tick=4246300, channel=0, data=[36, 0]),
   midi.NoteOnEvent(tick=4246400, channel=0, data=[19, 100]),
   midi.NoteOffEvent(tick=4246500, channel=0, data=[19, 0]),
   midi.NoteOnEvent(tick=4246600, channel=0, data=[7, 100]),
   midi.NoteOffEvent(tick=4246700, channel=0, data=[7, 0]),
   midi.NoteOnEvent(tick=4246800, channel=0, data=[8, 100]),
   midi.NoteOffEvent(tick=4246900, channel=0, data=[8, 0]),
   midi.NoteOnEvent(tick=4247000, channel=0, data=[18, 100]),
   midi.NoteOffEvent(tick=4247100, channel=0, data=[18, 0]),
   midi.NoteOnEvent(tick=4247200, channel=0, data=[36, 100]),
   midi.NoteOffEvent(tick=4247300, channel=0, data=[36, 0]),
   midi.NoteOnEvent(tick=4247400, channel=0, data=[2, 100]),
   midi.NoteOffEvent(tick=4247500, channel=0, data=[2, 0]),
   midi.NoteOnEvent(tick=4247600, channel=0, data=[14, 100]),
   midi.NoteOffEvent(tick=4247700, channel=0, data=[14, 0]),
   midi.NoteOnEvent(tick=4247800, channel=0, data=[12, 100]),
   midi.NoteOffEvent(tick=4247900, channel=0, data=[12, 0]),
   midi.NoteOnEvent(tick=4248000, channel=0, data=[12, 100]),
   midi.NoteOffEvent(tick=4248100, channel=0, data=[12, 0]),
   midi.NoteOnEvent(tick=4248200, channel=0, data=[0, 100]),
   midi.NoteOffEvent(tick=4248300, channel=0, data=[0, 0]),
   midi.NoteOnEvent(tick=4248400, channel=0, data=[13, 100]),
   midi.NoteOffEvent(tick=4248500, channel=0, data=[13, 0]),
   midi.NoteOnEvent(tick=4248600, channel=0, data=[3, 100]),
   midi.NoteOffEvent(tick=4248700, channel=0, data=[3, 0]),
   midi.NoteOnEvent(tick=4248800, channel=0, data=[36, 100]),
   midi.NoteOffEvent(tick=4248900, channel=0, data=[36, 0]),
   midi.NoteOnEvent(tick=4249000, channel=0, data=[0, 100]),
   midi.NoteOffEvent(tick=4249100, channel=0, data=[0, 0]),
   midi.NoteOnEvent(tick=4249200, channel=0, data=[18, 100]),
   midi.NoteOffEvent(tick=4249300, channel=0, data=[18, 0]),
   midi.NoteOnEvent(tick=4249400, channel=0, data=[18, 100]),
   midi.NoteOffEvent(tick=4249500, channel=0, data=[18, 0]),
   midi.NoteOnEvent(tick=4249600, channel=0, data=[8, 100]),
   midi.NoteOffEvent(tick=4249700, channel=0, data=[8, 0]),
   midi.NoteOnEvent(tick=4249800, channel=0, data=[6, 100]),
   midi.NoteOffEvent(tick=4249900, channel=0, data=[6, 0]),
   midi.NoteOnEvent(tick=4250000, channel=0, data=[13, 100]),
   midi.NoteOffEvent(tick=4250100, channel=0, data=[13, 0]),
   midi.NoteOnEvent(tick=4250200, channel=0, data=[18, 100]),
   midi.NoteOffEvent(tick=4250300, channel=0, data=[18, 0]),
   midi.NoteOnEvent(tick=4250400, channel=0, data=[36, 100]),
   midi.NoteOffEvent(tick=4250500, channel=0, data=[36, 0]),
   midi.NoteOnEvent(tick=4250600, channel=0, data=[19, 100]),
   midi.NoteOffEvent(tick=4250700, channel=0, data=[19, 0]),
   midi.NoteOnEvent(tick=4250800, channel=0, data=[7, 100]),
   midi.NoteOffEvent(tick=4250900, channel=0, data=[7, 0]),
   midi.NoteOnEvent(tick=4251000, channel=0, data=[4, 100]),
   midi.NoteOffEvent(tick=4251100, channel=0, data=[4, 0]),
   midi.NoteOnEvent(tick=4251200, channel=0, data=[36, 100]),
   midi.NoteOffEvent(tick=4251300, channel=0, data=[36, 0]),
   midi.NoteOnEvent(tick=4251400, channel=0, data=[21, 100]),
   midi.NoteOffEvent(tick=4251500, channel=0, data=[21, 0]),
   midi.NoteOnEvent(tick=4251600, channel=0, data=[0, 100]),
   midi.NoteOffEvent(tick=4251700, channel=0, data=[0, 0]),
   midi.NoteOnEvent(tick=4251800, channel=0, data=[11, 100]),
   midi.NoteOffEvent(tick=4251900, channel=0, data=[11, 0]),
   midi.NoteOnEvent(tick=4252000, channel=0, data=[20, 100]),
   midi.NoteOffEvent(tick=4252100, channel=0, data=[20, 0]),
   midi.NoteOnEvent(tick=4252200, channel=0, data=[4, 100]),
   midi.NoteOffEvent(tick=4252300, channel=0, data=[4, 0]),
   midi.NoteOnEvent(tick=4252400, channel=0, data=[36, 100]),
   midi.NoteOffEvent(tick=4252500, channel=0, data=[36, 0]),
   midi.NoteOnEvent(tick=4252600, channel=0, data=[29, 100]),
   midi.NoteOffEvent(tick=4252700, channel=0, data=[29, 0]),
   midi.NoteOnEvent(tick=4252800, channel=0, data=[36, 100]),
   midi.NoteOffEvent(tick=4252900, channel=0, data=[36, 0]),
   midi.NoteOnEvent(tick=4253000, channel=0, data=[19, 100]),
   midi.NoteOffEvent(tick=4253100, channel=0, data=[19, 0]),
   midi.NoteOnEvent(tick=4253200, channel=0, data=[14, 100]),
   midi.NoteOffEvent(tick=4253300, channel=0, data=[14, 0]),
   midi.NoteOnEvent(tick=4253400, channel=0, data=[36, 100]),
   midi.NoteOffEvent(tick=4253500, channel=0, data=[36, 0]),
   midi.NoteOnEvent(tick=4253600, channel=0, data=[19, 100]),
   midi.NoteOffEvent(tick=4253700, channel=0, data=[19, 0]),
   midi.NoteOnEvent(tick=4253800, channel=0, data=[7, 100]),
   midi.NoteOffEvent(tick=4253900, channel=0, data=[7, 0]),
   midi.NoteOnEvent(tick=4254000, channel=0, data=[4, 100]),
   midi.NoteOffEvent(tick=4254100, channel=0, data=[4, 0]),
   midi.NoteOnEvent(tick=4254200, channel=0, data=[36, 100]),
   midi.NoteOffEvent(tick=4254300, channel=0, data=[36, 0]),
   midi.NoteOnEvent(tick=4254400, channel=0, data=[74, 100]),
   midi.NoteOffEvent(tick=4254500, channel=0, data=[74, 0]),
   midi.NoteOnEvent(tick=4254600, channel=0, data=[3, 100]),
   midi.NoteOffEvent(tick=4254700, channel=0, data=[3, 0]),
   midi.NoteOnEvent(tick=4254800, channel=0, data=[36, 100]),
   midi.NoteOffEvent(tick=4254900, channel=0, data=[36, 0]),
   midi.NoteOnEvent(tick=4255000, channel=0, data=[21, 100]),
   midi.NoteOffEvent(tick=4255100, channel=0, data=[21, 0]),
   midi.NoteOnEvent(tick=4255200, channel=0, data=[0, 100]),
   midi.NoteOffEvent(tick=4255300, channel=0, data=[0, 0]),
   midi.NoteOnEvent(tick=4255400, channel=0, data=[17, 100]),
   midi.NoteOffEvent(tick=4255500, channel=0, data=[17, 0]),
   midi.NoteOnEvent(tick=4255600, channel=0, data=[8, 100]),
   midi.NoteOffEvent(tick=4255700, channel=0, data=[8, 0]),
   midi.NoteOnEvent(tick=4255800, channel=0, data=[0, 100]),
   midi.NoteOffEvent(tick=4255900, channel=0, data=[0, 0]),
   midi.NoteOnEvent(tick=4256000, channel=0, data=[1, 100]),
   midi.NoteOffEvent(tick=4256100, channel=0, data=[1, 0]),
   midi.NoteOnEvent(tick=4256200, channel=0, data=[11, 100]),
   midi.NoteOffEvent(tick=4256300, channel=0, data=[11, 0]),
   midi.NoteOnEvent(tick=4256400, channel=0, data=[4, 100]),
   midi.NoteOffEvent(tick=4256500, channel=0, data=[4, 0]),
   midi.NoteOnEvent(tick=4256600, channel=0, data=[38, 100]),
   midi.NoteOffEvent(tick=4256700, channel=0, data=[38, 0]),
   midi.NoteOnEvent(tick=4256800, channel=0, data=[36, 100]),
   midi.NoteOffEvent(tick=4256900, channel=0, data=[36, 0]),
   midi.NoteOnEvent(tick=4257000, channel=0, data=[19, 100]),
   midi.NoteOffEvent(tick=4257100, channel=0, data=[19, 0]),
   midi.NoteOnEvent(tick=4257200, channel=0, data=[7, 100]),
   midi.NoteOffEvent(tick=4257300, channel=0, data=[7, 0]),
   midi.NoteOnEvent(tick=4257400, channel=0, data=[4, 100]),
   midi.NoteOffEvent(tick=4257500, channel=0, data=[4, 0]),
   midi.NoteOnEvent(tick=4257600, channel=0, data=[36, 100]),
   midi.NoteOffEvent(tick=4257700, channel=0, data=[36, 0]),
   midi.NoteOnEvent(tick=4257800, channel=0, data=[21, 100]),
   midi.NoteOffEvent(tick=4257900, channel=0, data=[21, 0]),
   midi.NoteOnEvent(tick=4258000, channel=0, data=[0, 100]),
   midi.NoteOffEvent(tick=4258100, channel=0, data=[0, 0]),
   midi.NoteOnEvent(tick=4258200, channel=0, data=[11, 100]),
   midi.NoteOffEvent(tick=4258300, channel=0, data=[11, 0]),
   midi.NoteOnEvent(tick=4258400, channel=0, data=[20, 100]),
   midi.NoteOffEvent(tick=4258500, channel=0, data=[20, 0]),
   midi.NoteOnEvent(tick=4258600, channel=0, data=[4, 100]),
   midi.NoteOffEvent(tick=4258700, channel=0, data=[4, 0]),
   midi.NoteOnEvent(tick=4258800, channel=0, data=[36, 100]),
   midi.NoteOffEvent(tick=4258900, channel=0, data=[36, 0]),
   midi.NoteOnEvent(tick=4259000, channel=0, data=[30, 100]),
   midi.NoteOffEvent(tick=4259100, channel=0, data=[30, 0]),
   midi.NoteOnEvent(tick=4259200, channel=0, data=[36, 100]),
   midi.NoteOffEvent(tick=4259300, channel=0, data=[36, 0]),
   midi.NoteOnEvent(tick=4259400, channel=0, data=[19, 100]),
   midi.NoteOffEvent(tick=4259500, channel=0, data=[19, 0]),
   midi.NoteOnEvent(tick=4259600, channel=0, data=[14, 100]),
   midi.NoteOffEvent(tick=4259700, channel=0, data=[14, 0]),
   midi.NoteOnEvent(tick=4259800, channel=0, data=[56, 100]),
   midi.NoteOffEvent(tick=4259900, channel=0, data=[56, 0]),
   midi.NoteOnEvent(tick=4260000, channel=0, data=[36, 100]),
   midi.NoteOffEvent(tick=4260100, channel=0, data=[36, 0]),
   midi.NoteOnEvent(tick=4260200, channel=0, data=[36, 100]),
   midi.NoteOffEvent(tick=4260300, channel=0, data=[36, 0]),
   midi.NoteOnEvent(tick=4260400, channel=0, data=[36, 100]),
   midi.NoteOffEvent(tick=4260500, channel=0, data=[36, 0]),
   midi.NoteOnEvent(tick=4260600, channel=0, data=[36, 100]),
   midi.NoteOffEvent(tick=4260700, channel=0, data=[36, 0]),
   midi.NoteOnEvent(tick=4260800, channel=0, data=[19, 100]),
   midi.NoteOffEvent(tick=4260900, channel=0, data=[19, 0]),
   midi.NoteOnEvent(tick=4261000, channel=0, data=[7, 100]),
   midi.NoteOffEvent(tick=4261100, channel=0, data=[7, 0]),
   midi.NoteOnEvent(tick=4261200, channel=0, data=[4, 100]),
   midi.NoteOffEvent(tick=4261300, channel=0, data=[4, 0]),
   midi.NoteOnEvent(tick=4261400, channel=0, data=[36, 100]),
   midi.NoteOffEvent(tick=4261500, channel=0, data=[36, 0]),
   midi.NoteOnEvent(tick=4261600, channel=0, data=[74, 100]),
   midi.NoteOffEvent(tick=4261700, channel=0, data=[74, 0]),
   midi.NoteOnEvent(tick=4261800, channel=0, data=[4, 100]),
   midi.NoteOffEvent(tick=4261900, channel=0, data=[4, 0]),
   midi.NoteOnEvent(tick=4262000, channel=0, data=[36, 100]),
   midi.NoteOffEvent(tick=4262100, channel=0, data=[36, 0]),
   midi.NoteOnEvent(tick=4262200, channel=0, data=[21, 100]),
   midi.NoteOffEvent(tick=4262300, channel=0, data=[21, 0]),
   midi.NoteOnEvent(tick=4262400, channel=0, data=[0, 100]),
   midi.NoteOffEvent(tick=4262500, channel=0, data=[0, 0]),
   midi.NoteOnEvent(tick=4262600, channel=0, data=[17, 100]),
   midi.NoteOffEvent(tick=4262700, channel=0, data=[17, 0]),
   midi.NoteOnEvent(tick=4262800, channel=0, data=[8, 100]),
   midi.NoteOffEvent(tick=4262900, channel=0, data=[8, 0]),
   midi.NoteOnEvent(tick=4263000, channel=0, data=[0, 100]),
   midi.NoteOffEvent(tick=4263100, channel=0, data=[0, 0]),
   midi.NoteOnEvent(tick=4263200, channel=0, data=[1, 100]),
   midi.NoteOffEvent(tick=4263300, channel=0, data=[1, 0]),
   midi.NoteOnEvent(tick=4263400, channel=0, data=[11, 100]),
   midi.NoteOffEvent(tick=4263500, channel=0, data=[11, 0]),
   midi.NoteOnEvent(tick=4263600, channel=0, data=[4, 100]),
   midi.NoteOffEvent(tick=4263700, channel=0, data=[4, 0]),
   midi.NoteOnEvent(tick=4263800, channel=0, data=[38, 100]),
   midi.NoteOffEvent(tick=4263900, channel=0, data=[38, 0]),
   midi.NoteOnEvent(tick=4264000, channel=0, data=[36, 100]),
   midi.NoteOffEvent(tick=4264100, channel=0, data=[36, 0]),
   midi.NoteOnEvent(tick=4264200, channel=0, data=[0, 100]),
   midi.NoteOffEvent(tick=4264300, channel=0, data=[0, 0]),
   midi.NoteOnEvent(tick=4264400, channel=0, data=[13, 100]),
   midi.NoteOffEvent(tick=4264500, channel=0, data=[13, 0]),
   midi.NoteOnEvent(tick=4264600, channel=0, data=[3, 100]),
   midi.NoteOffEvent(tick=4264700, channel=0, data=[3, 0]),
   midi.NoteOnEvent(tick=4264800, channel=0, data=[36, 100]),
   midi.NoteOffEvent(tick=4264900, channel=0, data=[36, 0]),
   midi.NoteOnEvent(tick=4265000, channel=0, data=[19, 100]),
   midi.NoteOffEvent(tick=4265100, channel=0, data=[19, 0]),
   midi.NoteOnEvent(tick=4265200, channel=0, data=[7, 100]),
   midi.NoteOffEvent(tick=4265300, channel=0, data=[7, 0]),
   midi.NoteOnEvent(tick=4265400, channel=0, data=[4, 100]),
   midi.NoteOffEvent(tick=4265500, channel=0, data=[4, 0]),
   midi.NoteOnEvent(tick=4265600, channel=0, data=[36, 100]),
   midi.NoteOffEvent(tick=4265700, channel=0, data=[36, 0]),
   midi.NoteOnEvent(tick=4265800, channel=0, data=[21, 100]),
   midi.NoteOffEvent(tick=4265900, channel=0, data=[21, 0]),
   midi.NoteOnEvent(tick=4266000, channel=0, data=[0, 100]),
   midi.NoteOffEvent(tick=4266100, channel=0, data=[0, 0]),
   midi.NoteOnEvent(tick=4266200, channel=0, data=[11, 100]),
   midi.NoteOffEvent(tick=4266300, channel=0, data=[11, 0]),
   midi.NoteOnEvent(tick=4266400, channel=0, data=[20, 100]),
   midi.NoteOffEvent(tick=4266500, channel=0, data=[20, 0]),
   midi.NoteOnEvent(tick=4266600, channel=0, data=[4, 100]),
   midi.NoteOffEvent(tick=4266700, channel=0, data=[4, 0]),
   midi.NoteOnEvent(tick=4266800, channel=0, data=[36, 100]),
   midi.NoteOffEvent(tick=4266900, channel=0, data=[36, 0]),
   midi.NoteOnEvent(tick=4267000, channel=0, data=[31, 100]),
   midi.NoteOffEvent(tick=4267100, channel=0, data=[31, 0]),
   midi.NoteOnEvent(tick=4267200, channel=0, data=[36, 100]),
   midi.NoteOffEvent(tick=4267300, channel=0, data=[36, 0]),
   midi.NoteOnEvent(tick=4267400, channel=0, data=[19, 100]),
   midi.NoteOffEvent(tick=4267500, channel=0, data=[19, 0]),
   midi.NoteOnEvent(tick=4267600, channel=0, data=[14, 100]),
   midi.NoteOffEvent(tick=4267700, channel=0, data=[14, 0]),
   midi.NoteOnEvent(tick=4267800, channel=0, data=[36, 100]),
   midi.NoteOffEvent(tick=4267900, channel=0, data=[36, 0]),
   midi.NoteOnEvent(tick=4268000, channel=0, data=[19, 100]),
   midi.NoteOffEvent(tick=4268100, channel=0, data=[19, 0]),
   midi.NoteOnEvent(tick=4268200, channel=0, data=[7, 100]),
   midi.NoteOffEvent(tick=4268300, channel=0, data=[7, 0]),
   midi.NoteOnEvent(tick=4268400, channel=0, data=[4, 100]),
   midi.NoteOffEvent(tick=4268500, channel=0, data=[4, 0]),
   midi.NoteOnEvent(tick=4268600, channel=0, data=[36, 100]),
   midi.NoteOffEvent(tick=4268700, channel=0, data=[36, 0]),
   midi.NoteOnEvent(tick=4268800, channel=0, data=[74, 100]),
   midi.NoteOffEvent(tick=4268900, channel=0, data=[74, 0]),
   midi.NoteOnEvent(tick=4269000, channel=0, data=[5, 100]),
   midi.NoteOffEvent(tick=4269100, channel=0, data=[5, 0]),
   midi.NoteOnEvent(tick=4269200, channel=0, data=[36, 100]),
   midi.NoteOffEvent(tick=4269300, channel=0, data=[36, 0]),
   midi.NoteOnEvent(tick=4269400, channel=0, data=[21, 100]),
   midi.NoteOffEvent(tick=4269500, channel=0, data=[21, 0]),
   midi.NoteOnEvent(tick=4269600, channel=0, data=[0, 100]),
   midi.NoteOffEvent(tick=4269700, channel=0, data=[0, 0]),
   midi.NoteOnEvent(tick=4269800, channel=0, data=[17, 100]),
   midi.NoteOffEvent(tick=4269900, channel=0, data=[17, 0]),
   midi.NoteOnEvent(tick=4270000, channel=0, data=[8, 100]),
   midi.NoteOffEvent(tick=4270100, channel=0, data=[8, 0]),
   midi.NoteOnEvent(tick=4270200, channel=0, data=[0, 100]),
   midi.NoteOffEvent(tick=4270300, channel=0, data=[0, 0]),
   midi.NoteOnEvent(tick=4270400, channel=0, data=[1, 100]),
   midi.NoteOffEvent(tick=4270500, channel=0, data=[1, 0]),
   midi.NoteOnEvent(tick=4270600, channel=0, data=[11, 100]),
   midi.NoteOffEvent(tick=4270700, channel=0, data=[11, 0]),
   midi.NoteOnEvent(tick=4270800, channel=0, data=[4, 100]),
   midi.NoteOffEvent(tick=4270900, channel=0, data=[4, 0]),
   midi.NoteOnEvent(tick=4271000, channel=0, data=[37, 100]),
   midi.NoteOffEvent(tick=4271100, channel=0, data=[37, 0]),
   midi.NoteOnEvent(tick=4271200, channel=0, data=[56, 100]),
   midi.NoteOffEvent(tick=4271300, channel=0, data=[56, 0]),
   midi.NoteOnEvent(tick=4271400, channel=0, data=[56, 100]),
   midi.NoteOffEvent(tick=4271500, channel=0, data=[56, 0]),
   midi.NoteOnEvent(tick=4271600, channel=0, data=[56, 100]),
   midi.NoteOffEvent(tick=4271700, channel=0, data=[56, 0]),
   midi.NoteOnEvent(tick=4271800, channel=0, data=[36, 100]),
   midi.NoteOffEvent(tick=4271900, channel=0, data=[36, 0]),
   midi.NoteOnEvent(tick=4272000, channel=0, data=[36, 100]),
   midi.NoteOffEvent(tick=4272100, channel=0, data=[36, 0]),
   midi.NoteOnEvent(tick=4272200, channel=0, data=[36, 100]),
   midi.NoteOffEvent(tick=4272300, channel=0, data=[36, 0]),
   midi.NoteOnEvent(tick=4272400, channel=0, data=[36, 100]),
   midi.NoteOffEvent(tick=4272500, channel=0, data=[36, 0]),
   midi.NoteOnEvent(tick=4272600, channel=0, data=[24, 100]),
   midi.NoteOffEvent(tick=4272700, channel=0, data=[24, 0]),
   midi.NoteOnEvent(tick=4272800, channel=0, data=[14, 100]),
   midi.NoteOffEvent(tick=4272900, channel=0, data=[14, 0]),
   midi.NoteOnEvent(tick=4273000, channel=0, data=[20, 100]),
   midi.NoteOffEvent(tick=4273100, channel=0, data=[20, 0]),
   midi.NoteOnEvent(tick=4273200, channel=0, data=[36, 100]),
   midi.NoteOffEvent(tick=4273300, channel=0, data=[36, 0]),
   midi.NoteOnEvent(tick=4273400, channel=0, data=[2, 100]),
   midi.NoteOffEvent(tick=4273500, channel=0, data=[2, 0]),
   midi.NoteOnEvent(tick=4273600, channel=0, data=[0, 100]),
   midi.NoteOffEvent(tick=4273700, channel=0, data=[0, 0]),
   midi.NoteOnEvent(tick=4273800, channel=0, data=[13, 100]),
   midi.NoteOffEvent(tick=4273900, channel=0, data=[13, 0]),
   midi.NoteOnEvent(tick=4274000, channel=0, data=[36, 100]),
   midi.NoteOffEvent(tick=4274100, channel=0, data=[36, 0]),
   midi.NoteOnEvent(tick=4274200, channel=0, data=[0, 100]),
   midi.NoteOffEvent(tick=4274300, channel=0, data=[0, 0]),
   midi.NoteOnEvent(tick=4274400, channel=0, data=[11, 100]),
   midi.NoteOffEvent(tick=4274500, channel=0, data=[11, 0]),
   midi.NoteOnEvent(tick=4274600, channel=0, data=[18, 100]),
   midi.NoteOffEvent(tick=4274700, channel=0, data=[18, 0]),
   midi.NoteOnEvent(tick=4274800, channel=0, data=[14, 100]),
   midi.NoteOffEvent(tick=4274900, channel=0, data=[14, 0]),
   midi.NoteOnEvent(tick=4275000, channel=0, data=[36, 100]),
   midi.NoteOffEvent(tick=4275100, channel=0, data=[36, 0]),
   midi.NoteOnEvent(tick=4275200, channel=0, data=[0, 100]),
   midi.NoteOffEvent(tick=4275300, channel=0, data=[0, 0]),
   midi.NoteOnEvent(tick=4275400, channel=0, data=[18, 100]),
   midi.NoteOffEvent(tick=4275500, channel=0, data=[18, 0]),
   midi.NoteOnEvent(tick=4275600, channel=0, data=[18, 100]),
   midi.NoteOffEvent(tick=4275700, channel=0, data=[18, 0]),
   midi.NoteOnEvent(tick=4275800, channel=0, data=[8, 100]),
   midi.NoteOffEvent(tick=4275900, channel=0, data=[8, 0]),
   midi.NoteOnEvent(tick=4276000, channel=0, data=[6, 100]),
   midi.NoteOffEvent(tick=4276100, channel=0, data=[6, 0]),
   midi.NoteOnEvent(tick=4276200, channel=0, data=[13, 100]),
   midi.NoteOffEvent(tick=4276300, channel=0, data=[13, 0]),
   midi.NoteOnEvent(tick=4276400, channel=0, data=[36, 100]),
   midi.NoteOffEvent(tick=4276500, channel=0, data=[36, 0]),
   midi.NoteOnEvent(tick=4276600, channel=0, data=[0, 100]),
   midi.NoteOffEvent(tick=4276700, channel=0, data=[0, 0]),
   midi.NoteOnEvent(tick=4276800, channel=0, data=[36, 100]),
   midi.NoteOffEvent(tick=4276900, channel=0, data=[36, 0]),
   midi.NoteOnEvent(tick=4277000, channel=0, data=[18, 100]),
   midi.NoteOffEvent(tick=4277100, channel=0, data=[18, 0]),
   midi.NoteOnEvent(tick=4277200, channel=0, data=[8, 100]),
   midi.NoteOffEvent(tick=4277300, channel=0, data=[8, 0]),
   midi.NoteOnEvent(tick=4277400, channel=0, data=[13, 100]),
   midi.NoteOffEvent(tick=4277500, channel=0, data=[13, 0]),
   midi.NoteOnEvent(tick=4277600, channel=0, data=[6, 100]),
   midi.NoteOffEvent(tick=4277700, channel=0, data=[6, 0]),
   midi.NoteOnEvent(tick=4277800, channel=0, data=[11, 100]),
   midi.NoteOffEvent(tick=4277900, channel=0, data=[11, 0]),
   midi.NoteOnEvent(tick=4278000, channel=0, data=[4, 100]),
   midi.NoteOffEvent(tick=4278100, channel=0, data=[4, 0]),
   midi.NoteOnEvent(tick=4278200, channel=0, data=[36, 100]),
   midi.NoteOffEvent(tick=4278300, channel=0, data=[36, 0]),
   midi.NoteOnEvent(tick=4278400, channel=0, data=[21, 100]),
   midi.NoteOffEvent(tick=4278500, channel=0, data=[21, 0]),
   midi.NoteOnEvent(tick=4278600, channel=0, data=[0, 100]),
   midi.NoteOffEvent(tick=4278700, channel=0, data=[0, 0]),
   midi.NoteOnEvent(tick=4278800, channel=0, data=[11, 100]),
   midi.NoteOffEvent(tick=4278900, channel=0, data=[11, 0]),
   midi.NoteOnEvent(tick=4279000, channel=0, data=[20, 100]),
   midi.NoteOffEvent(tick=4279100, channel=0, data=[20, 0]),
   midi.NoteOnEvent(tick=4279200, channel=0, data=[4, 100]),
   midi.NoteOffEvent(tick=4279300, channel=0, data=[4, 0]),
   midi.NoteOnEvent(tick=4279400, channel=0, data=[36, 100]),
   midi.NoteOffEvent(tick=4279500, channel=0, data=[36, 0]),
   midi.NoteOnEvent(tick=4279600, channel=0, data=[19, 100]),
   midi.NoteOffEvent(tick=4279700, channel=0, data=[19, 0]),
   midi.NoteOnEvent(tick=4279800, channel=0, data=[14, 100]),
   midi.NoteOffEvent(tick=4279900, channel=0, data=[14, 0]),
   midi.NoteOnEvent(tick=4280000, channel=0, data=[36, 100]),
   midi.NoteOffEvent(tick=4280100, channel=0, data=[36, 0]),
   midi.NoteOnEvent(tick=4280200, channel=0, data=[12, 100]),
   midi.NoteOffEvent(tick=4280300, channel=0, data=[12, 0]),
   midi.NoteOnEvent(tick=4280400, channel=0, data=[20, 100]),
   midi.NoteOffEvent(tick=4280500, channel=0, data=[20, 0]),
   midi.NoteOnEvent(tick=4280600, channel=0, data=[11, 100]),
   midi.NoteOffEvent(tick=4280700, channel=0, data=[11, 0]),
   midi.NoteOnEvent(tick=4280800, channel=0, data=[19, 100]),
   midi.NoteOffEvent(tick=4280900, channel=0, data=[19, 0]),
   midi.NoteOnEvent(tick=4281000, channel=0, data=[8, 100]),
   midi.NoteOffEvent(tick=4281100, channel=0, data=[8, 0]),
   midi.NoteOnEvent(tick=4281200, channel=0, data=[15, 100]),
   midi.NoteOffEvent(tick=4281300, channel=0, data=[15, 0]),
   midi.NoteOnEvent(tick=4281400, channel=0, data=[11, 100]),
   midi.NoteOffEvent(tick=4281500, channel=0, data=[11, 0]),
   midi.NoteOnEvent(tick=4281600, channel=0, data=[4, 100]),
   midi.NoteOffEvent(tick=4281700, channel=0, data=[4, 0]),
   midi.NoteOnEvent(tick=4281800, channel=0, data=[36, 100]),
   midi.NoteOffEvent(tick=4281900, channel=0, data=[36, 0]),
   midi.NoteOnEvent(tick=4282000, channel=0, data=[21, 100]),
   midi.NoteOffEvent(tick=4282100, channel=0, data=[21, 0]),
   midi.NoteOnEvent(tick=4282200, channel=0, data=[0, 100]),
   midi.NoteOffEvent(tick=4282300, channel=0, data=[0, 0]),
   midi.NoteOnEvent(tick=4282400, channel=0, data=[17, 100]),
   midi.NoteOffEvent(tick=4282500, channel=0, data=[17, 0]),
   midi.NoteOnEvent(tick=4282600, channel=0, data=[8, 100]),
   midi.NoteOffEvent(tick=4282700, channel=0, data=[8, 0]),
   midi.NoteOnEvent(tick=4282800, channel=0, data=[0, 100]),
   midi.NoteOffEvent(tick=4282900, channel=0, data=[0, 0]),
   midi.NoteOnEvent(tick=4283000, channel=0, data=[1, 100]),
   midi.NoteOffEvent(tick=4283100, channel=0, data=[1, 0]),
   midi.NoteOnEvent(tick=4283200, channel=0, data=[11, 100]),
   midi.NoteOffEvent(tick=4283300, channel=0, data=[11, 0]),
   midi.NoteOnEvent(tick=4283400, channel=0, data=[4, 100]),
   midi.NoteOffEvent(tick=4283500, channel=0, data=[4, 0]),
   midi.NoteOnEvent(tick=4283600, channel=0, data=[18, 100]),
   midi.NoteOffEvent(tick=4283700, channel=0, data=[18, 0]),
   midi.NoteOnEvent(tick=4283800, channel=0, data=[36, 100]),
   midi.NoteOffEvent(tick=4283900, channel=0, data=[36, 0]),
   midi.NoteOnEvent(tick=4284000, channel=0, data=[1, 100]),
   midi.NoteOffEvent(tick=4284100, channel=0, data=[1, 0]),
   midi.NoteOnEvent(tick=4284200, channel=0, data=[24, 100]),
   midi.NoteOffEvent(tick=4284300, channel=0, data=[24, 0]),
   midi.NoteOnEvent(tick=4284400, channel=0, data=[36, 100]),
   midi.NoteOffEvent(tick=4284500, channel=0, data=[36, 0]),
   midi.NoteOnEvent(tick=4284600, channel=0, data=[2, 100]),
   midi.NoteOffEvent(tick=4284700, channel=0, data=[2, 0]),
   midi.NoteOnEvent(tick=4284800, channel=0, data=[7, 100]),
   midi.NoteOffEvent(tick=4284900, channel=0, data=[7, 0]),
   midi.NoteOnEvent(tick=4285000, channel=0, data=[0, 100]),
   midi.NoteOffEvent(tick=4285100, channel=0, data=[0, 0]),
   midi.NoteOnEvent(tick=4285200, channel=0, data=[8, 100]),
   midi.NoteOffEvent(tick=4285300, channel=0, data=[8, 0]),
   midi.NoteOnEvent(tick=4285400, channel=0, data=[13, 100]),
   midi.NoteOffEvent(tick=4285500, channel=0, data=[13, 0]),
   midi.NoteOnEvent(tick=4285600, channel=0, data=[8, 100]),
   midi.NoteOffEvent(tick=4285700, channel=0, data=[8, 0]),
   midi.NoteOnEvent(tick=4285800, channel=0, data=[13, 100]),
   midi.NoteOffEvent(tick=4285900, channel=0, data=[13, 0]),
   midi.NoteOnEvent(tick=4286000, channel=0, data=[6, 100]),
   midi.NoteOffEvent(tick=4286100, channel=0, data=[6, 0]),
   midi.NoteOnEvent(tick=4286200, channel=0, data=[36, 100]),
   midi.NoteOffEvent(tick=4286300, channel=0, data=[36, 0]),
   midi.NoteOnEvent(tick=4286400, channel=0, data=[19, 100]),
   midi.NoteOffEvent(tick=4286500, channel=0, data=[19, 0]),
   midi.NoteOnEvent(tick=4286600, channel=0, data=[7, 100]),
   midi.NoteOffEvent(tick=4286700, channel=0, data=[7, 0]),
   midi.NoteOnEvent(tick=4286800, channel=0, data=[4, 100]),
   midi.NoteOffEvent(tick=4286900, channel=0, data=[4, 0]),
   midi.NoteOnEvent(tick=4287000, channel=0, data=[36, 100]),
   midi.NoteOffEvent(tick=4287100, channel=0, data=[36, 0]),
   midi.NoteOnEvent(tick=4287200, channel=0, data=[56, 100]),
   midi.NoteOffEvent(tick=4287300, channel=0, data=[56, 0]),
   midi.NoteOnEvent(tick=4287400, channel=0, data=[36, 100]),
   midi.NoteOffEvent(tick=4287500, channel=0, data=[36, 0]),
   midi.NoteOnEvent(tick=4287600, channel=0, data=[36, 100]),
   midi.NoteOffEvent(tick=4287700, channel=0, data=[36, 0]),
   midi.NoteOnEvent(tick=4287800, channel=0, data=[36, 100]),
   midi.NoteOffEvent(tick=4287900, channel=0, data=[36, 0]),
   midi.NoteOnEvent(tick=4288000, channel=0, data=[36, 100]),
   midi.NoteOffEvent(tick=4288100, channel=0, data=[36, 0]),
   midi.NoteOnEvent(tick=4288200, channel=0, data=[21, 100]),
   midi.NoteOffEvent(tick=4288300, channel=0, data=[21, 0]),
   midi.NoteOnEvent(tick=4288400, channel=0, data=[0, 100]),
   midi.NoteOffEvent(tick=4288500, channel=0, data=[0, 0]),
   midi.NoteOnEvent(tick=4288600, channel=0, data=[17, 100]),
   midi.NoteOffEvent(tick=4288700, channel=0, data=[17, 0]),
   midi.NoteOnEvent(tick=4288800, channel=0, data=[8, 100]),
   midi.NoteOffEvent(tick=4288900, channel=0, data=[8, 0]),
   midi.NoteOnEvent(tick=4289000, channel=0, data=[0, 100]),
   midi.NoteOffEvent(tick=4289100, channel=0, data=[0, 0]),
   midi.NoteOnEvent(tick=4289200, channel=0, data=[1, 100]),
   midi.NoteOffEvent(tick=4289300, channel=0, data=[1, 0]),
   midi.NoteOnEvent(tick=4289400, channel=0, data=[11, 100]),
   midi.NoteOffEvent(tick=4289500, channel=0, data=[11, 0]),
   midi.NoteOnEvent(tick=4289600, channel=0, data=[4, 100]),
   midi.NoteOffEvent(tick=4289700, channel=0, data=[4, 0]),
   midi.NoteOnEvent(tick=4289800, channel=0, data=[18, 100]),
   midi.NoteOffEvent(tick=4289900, channel=0, data=[18, 0]),
   midi.NoteOnEvent(tick=4290000, channel=0, data=[37, 100]),
   midi.NoteOffEvent(tick=4290100, channel=0, data=[37, 0]),
   midi.NoteOnEvent(tick=4290200, channel=0, data=[36, 100]),
   midi.NoteOffEvent(tick=4290300, channel=0, data=[36, 0]),
   midi.NoteOnEvent(tick=4290400, channel=0, data=[5, 100]),
   midi.NoteOffEvent(tick=4290500, channel=0, data=[5, 0]),
   midi.NoteOnEvent(tick=4290600, channel=0, data=[14, 100]),
   midi.NoteOffEvent(tick=4290700, channel=0, data=[14, 0]),
   midi.NoteOnEvent(tick=4290800, channel=0, data=[17, 100]),
   midi.NoteOffEvent(tick=4290900, channel=0, data=[17, 0]),
   midi.NoteOnEvent(tick=4291000, channel=0, data=[36, 100]),
   midi.NoteOffEvent(tick=4291100, channel=0, data=[36, 0]),
   midi.NoteOnEvent(tick=4291200, channel=0, data=[4, 100]),
   midi.NoteOffEvent(tick=4291300, channel=0, data=[4, 0]),
   midi.NoteOnEvent(tick=4291400, channel=0, data=[23, 100]),
   midi.NoteOffEvent(tick=4291500, channel=0, data=[23, 0]),
   midi.NoteOnEvent(tick=4291600, channel=0, data=[0, 100]),
   midi.NoteOffEvent(tick=4291700, channel=0, data=[0, 0]),
   midi.NoteOnEvent(tick=4291800, channel=0, data=[12, 100]),
   midi.NoteOffEvent(tick=4291900, channel=0, data=[12, 0]),
   midi.NoteOnEvent(tick=4292000, channel=0, data=[15, 100]),
   midi.NoteOffEvent(tick=4292100, channel=0, data=[15, 0]),
   midi.NoteOnEvent(tick=4292200, channel=0, data=[11, 100]),
   midi.NoteOffEvent(tick=4292300, channel=0, data=[11, 0]),
   midi.NoteOnEvent(tick=4292400, channel=0, data=[4, 100]),
   midi.NoteOffEvent(tick=4292500, channel=0, data=[4, 0]),
   midi.NoteOnEvent(tick=4292600, channel=0, data=[38, 100]),
   midi.NoteOffEvent(tick=4292700, channel=0, data=[38, 0]),
   midi.NoteOnEvent(tick=4292800, channel=0, data=[36, 100]),
   midi.NoteOffEvent(tick=4292900, channel=0, data=[36, 0]),
   midi.NoteOnEvent(tick=4293000, channel=0, data=[19, 100]),
   midi.NoteOffEvent(tick=4293100, channel=0, data=[19, 0]),
   midi.NoteOnEvent(tick=4293200, channel=0, data=[7, 100]),
   midi.NoteOffEvent(tick=4293300, channel=0, data=[7, 0]),
   midi.NoteOnEvent(tick=4293400, channel=0, data=[4, 100]),
   midi.NoteOffEvent(tick=4293500, channel=0, data=[4, 0]),
   midi.NoteOnEvent(tick=4293600, channel=0, data=[36, 100]),
   midi.NoteOffEvent(tick=4293700, channel=0, data=[36, 0]),
   midi.NoteOnEvent(tick=4293800, channel=0, data=[5, 100]),
   midi.NoteOffEvent(tick=4293900, channel=0, data=[5, 0]),
   midi.NoteOnEvent(tick=4294000, channel=0, data=[14, 100]),
   midi.NoteOffEvent(tick=4294100, channel=0, data=[14, 0]),
   midi.NoteOnEvent(tick=4294200, channel=0, data=[11, 100]),
   midi.NoteOffEvent(tick=4294300, channel=0, data=[11, 0]),
   midi.NoteOnEvent(tick=4294400, channel=0, data=[11, 100]),
   midi.NoteOffEvent(tick=4294500, channel=0, data=[11, 0]),
   midi.NoteOnEvent(tick=4294600, channel=0, data=[14, 100]),
   midi.NoteOffEvent(tick=4294700, channel=0, data=[14, 0]),
   midi.NoteOnEvent(tick=4294800, channel=0, data=[22, 100]),
   midi.NoteOffEvent(tick=4294900, channel=0, data=[22, 0]),
   midi.NoteOnEvent(tick=4295000, channel=0, data=[8, 100]),
   midi.NoteOffEvent(tick=4295100, channel=0, data=[8, 0]),
   midi.NoteOnEvent(tick=4295200, channel=0, data=[13, 100]),
   midi.NoteOffEvent(tick=4295300, channel=0, data=[13, 0]),
   midi.NoteOnEvent(tick=4295400, channel=0, data=[6, 100]),
   midi.NoteOffEvent(tick=4295500, channel=0, data=[6, 0]),
   midi.NoteOnEvent(tick=4295600, channel=0, data=[36, 100]),
   midi.NoteOffEvent(tick=4295700, channel=0, data=[36, 0]),
   midi.NoteOnEvent(tick=4295800, channel=0, data=[2, 100]),
   midi.NoteOffEvent(tick=4295900, channel=0, data=[2, 0]),
   midi.NoteOnEvent(tick=4296000, channel=0, data=[14, 100]),
   midi.NoteOffEvent(tick=4296100, channel=0, data=[14, 0]),
   midi.NoteOnEvent(tick=4296200, channel=0, data=[12, 100]),
   midi.NoteOffEvent(tick=4296300, channel=0, data=[12, 0]),
   midi.NoteOnEvent(tick=4296400, channel=0, data=[12, 100]),
   midi.NoteOffEvent(tick=4296500, channel=0, data=[12, 0]),
   midi.NoteOnEvent(tick=4296600, channel=0, data=[0, 100]),
   midi.NoteOffEvent(tick=4296700, channel=0, data=[0, 0]),
   midi.NoteOnEvent(tick=4296800, channel=0, data=[13, 100]),
   midi.NoteOffEvent(tick=4296900, channel=0, data=[13, 0]),
   midi.NoteOnEvent(tick=4297000, channel=0, data=[3, 100]),
   midi.NoteOffEvent(tick=4297100, channel=0, data=[3, 0]),
   midi.NoteOnEvent(tick=4297200, channel=0, data=[36, 100]),
   midi.NoteOffEvent(tick=4297300, channel=0, data=[36, 0]),
   midi.NoteOnEvent(tick=4297400, channel=0, data=[0, 100]),
   midi.NoteOffEvent(tick=4297500, channel=0, data=[0, 0]),
   midi.NoteOnEvent(tick=4297600, channel=0, data=[18, 100]),
   midi.NoteOffEvent(tick=4297700, channel=0, data=[18, 0]),
   midi.NoteOnEvent(tick=4297800, channel=0, data=[18, 100]),
   midi.NoteOffEvent(tick=4297900, channel=0, data=[18, 0]),
   midi.NoteOnEvent(tick=4298000, channel=0, data=[8, 100]),
   midi.NoteOffEvent(tick=4298100, channel=0, data=[8, 0]),
   midi.NoteOnEvent(tick=4298200, channel=0, data=[6, 100]),
   midi.NoteOffEvent(tick=4298300, channel=0, data=[6, 0]),
   midi.NoteOnEvent(tick=4298400, channel=0, data=[13, 100]),
   midi.NoteOffEvent(tick=4298500, channel=0, data=[13, 0]),
   midi.NoteOnEvent(tick=4298600, channel=0, data=[18, 100]),
   midi.NoteOffEvent(tick=4298700, channel=0, data=[18, 0]),
   midi.NoteOnEvent(tick=4298800, channel=0, data=[36, 100]),
   midi.NoteOffEvent(tick=4298900, channel=0, data=[36, 0]),
   midi.NoteOnEvent(tick=4299000, channel=0, data=[0, 100]),
   midi.NoteOffEvent(tick=4299100, channel=0, data=[0, 0]),
   midi.NoteOnEvent(tick=4299200, channel=0, data=[36, 100]),
   midi.NoteOffEvent(tick=4299300, channel=0, data=[36, 0]),
   midi.NoteOnEvent(tick=4299400, channel=0, data=[21, 100]),
   midi.NoteOffEvent(tick=4299500, channel=0, data=[21, 0]),
   midi.NoteOnEvent(tick=4299600, channel=0, data=[0, 100]),
   midi.NoteOffEvent(tick=4299700, channel=0, data=[0, 0]),
   midi.NoteOnEvent(tick=4299800, channel=0, data=[11, 100]),
   midi.NoteOffEvent(tick=4299900, channel=0, data=[11, 0]),
   midi.NoteOnEvent(tick=4300000, channel=0, data=[20, 100]),
   midi.NoteOffEvent(tick=4300100, channel=0, data=[20, 0]),
   midi.NoteOnEvent(tick=4300200, channel=0, data=[4, 100]),
   midi.NoteOffEvent(tick=4300300, channel=0, data=[4, 0]),
   midi.NoteOnEvent(tick=4300400, channel=0, data=[36, 100]),
   midi.NoteOffEvent(tick=4300500, channel=0, data=[36, 0]),
   midi.NoteOnEvent(tick=4300600, channel=0, data=[14, 100]),
   midi.NoteOffEvent(tick=4300700, channel=0, data=[14, 0]),
   midi.NoteOnEvent(tick=4300800, channel=0, data=[5, 100]),
   midi.NoteOffEvent(tick=4300900, channel=0, data=[5, 0]),
   midi.NoteOnEvent(tick=4301000, channel=0, data=[36, 100]),
   midi.NoteOffEvent(tick=4301100, channel=0, data=[36, 0]),
   midi.NoteOnEvent(tick=4301200, channel=0, data=[41, 100]),
   midi.NoteOffEvent(tick=4301300, channel=0, data=[41, 0]),
   midi.NoteOnEvent(tick=4301400, channel=0, data=[19, 100]),
   midi.NoteOffEvent(tick=4301500, channel=0, data=[19, 0]),
   midi.NoteOnEvent(tick=4301600, channel=0, data=[7, 100]),
   midi.NoteOffEvent(tick=4301700, channel=0, data=[7, 0]),
   midi.NoteOnEvent(tick=4301800, channel=0, data=[17, 100]),
   midi.NoteOffEvent(tick=4301900, channel=0, data=[17, 0]),
   midi.NoteOnEvent(tick=4302000, channel=0, data=[4, 100]),
   midi.NoteOffEvent(tick=4302100, channel=0, data=[4, 0]),
   midi.NoteOnEvent(tick=4302200, channel=0, data=[4, 100]),
   midi.NoteOffEvent(tick=4302300, channel=0, data=[4, 0]),
   midi.NoteOnEvent(tick=4302400, channel=0, data=[41, 100]),
   midi.NoteOffEvent(tick=4302500, channel=0, data=[41, 0]),
   midi.NoteOnEvent(tick=4302600, channel=0, data=[36, 100]),
   midi.NoteOffEvent(tick=4302700, channel=0, data=[36, 0]),
   midi.NoteOnEvent(tick=4302800, channel=0, data=[56, 100]),
   midi.NoteOffEvent(tick=4302900, channel=0, data=[56, 0]),
   midi.NoteOnEvent(tick=4303000, channel=0, data=[36, 100]),
   midi.NoteOffEvent(tick=4303100, channel=0, data=[36, 0]),
   midi.NoteOnEvent(tick=4303200, channel=0, data=[36, 100]),
   midi.NoteOffEvent(tick=4303300, channel=0, data=[36, 0]),
   midi.NoteOnEvent(tick=4303400, channel=0, data=[36, 100]),
   midi.NoteOffEvent(tick=4303500, channel=0, data=[36, 0]),
   midi.NoteOnEvent(tick=4303600, channel=0, data=[36, 100]),
   midi.NoteOffEvent(tick=4303700, channel=0, data=[36, 0]),
   midi.NoteOnEvent(tick=4303800, channel=0, data=[19, 100]),
   midi.NoteOffEvent(tick=4303900, channel=0, data=[19, 0]),
   midi.NoteOnEvent(tick=4304000, channel=0, data=[14, 100]),
   midi.NoteOffEvent(tick=4304100, channel=0, data=[14, 0]),
   midi.NoteOnEvent(tick=4304200, channel=0, data=[36, 100]),
   midi.NoteOffEvent(tick=4304300, channel=0, data=[36, 0]),
   midi.NoteOnEvent(tick=4304400, channel=0, data=[0, 100]),
   midi.NoteOffEvent(tick=4304500, channel=0, data=[0, 0]),
   midi.NoteOnEvent(tick=4304600, channel=0, data=[11, 100]),
   midi.NoteOffEvent(tick=4304700, channel=0, data=[11, 0]),
   midi.NoteOnEvent(tick=4304800, channel=0, data=[11, 100]),
   midi.NoteOffEvent(tick=4304900, channel=0, data=[11, 0]),
   midi.NoteOnEvent(tick=4305000, channel=0, data=[36, 100]),
   midi.NoteOffEvent(tick=4305100, channel=0, data=[36, 0]),
   midi.NoteOnEvent(tick=4305200, channel=0, data=[5, 100]),
   midi.NoteOffEvent(tick=4305300, channel=0, data=[5, 0]),
   midi.NoteOnEvent(tick=4305400, channel=0, data=[14, 100]),
   midi.NoteOffEvent(tick=4305500, channel=0, data=[14, 0]),
   midi.NoteOnEvent(tick=4305600, channel=0, data=[20, 100]),
   midi.NoteOffEvent(tick=4305700, channel=0, data=[20, 0]),
   midi.NoteOnEvent(tick=4305800, channel=0, data=[17, 100]),
   midi.NoteOffEvent(tick=4305900, channel=0, data=[17, 0]),
   midi.NoteOnEvent(tick=4306000, channel=0, data=[36, 100]),
   midi.NoteOffEvent(tick=4306100, channel=0, data=[36, 0]),
   midi.NoteOnEvent(tick=4306200, channel=0, data=[21, 100]),
   midi.NoteOffEvent(tick=4306300, channel=0, data=[21, 0]),
   midi.NoteOnEvent(tick=4306400, channel=0, data=[0, 100]),
   midi.NoteOffEvent(tick=4306500, channel=0, data=[0, 0]),
   midi.NoteOnEvent(tick=4306600, channel=0, data=[17, 100]),
   midi.NoteOffEvent(tick=4306700, channel=0, data=[17, 0]),
   midi.NoteOnEvent(tick=4306800, channel=0, data=[8, 100]),
   midi.NoteOffEvent(tick=4306900, channel=0, data=[8, 0]),
   midi.NoteOnEvent(tick=4307000, channel=0, data=[0, 100]),
   midi.NoteOffEvent(tick=4307100, channel=0, data=[0, 0]),
   midi.NoteOnEvent(tick=4307200, channel=0, data=[1, 100]),
   midi.NoteOffEvent(tick=4307300, channel=0, data=[1, 0]),
   midi.NoteOnEvent(tick=4307400, channel=0, data=[11, 100]),
   midi.NoteOffEvent(tick=4307500, channel=0, data=[11, 0]),
   midi.NoteOnEvent(tick=4307600, channel=0, data=[4, 100]),
   midi.NoteOffEvent(tick=4307700, channel=0, data=[4, 0]),
   midi.NoteOnEvent(tick=4307800, channel=0, data=[18, 100]),
   midi.NoteOffEvent(tick=4307900, channel=0, data=[18, 0]),
   midi.NoteOnEvent(tick=4308000, channel=0, data=[46, 100]),
   midi.NoteOffEvent(tick=4308100, channel=0, data=[46, 0]),
   midi.NoteOnEvent(tick=4308200, channel=0, data=[56, 100]),
   midi.NoteOffEvent(tick=4308300, channel=0, data=[56, 0]),
   midi.NoteOnEvent(tick=4308400, channel=0, data=[56, 100]),
   midi.NoteOffEvent(tick=4308500, channel=0, data=[56, 0]),
   midi.NoteOnEvent(tick=4308600, channel=0, data=[56, 100]),
   midi.NoteOffEvent(tick=4308700, channel=0, data=[56, 0]),
   midi.NoteOnEvent(tick=4308800, channel=0, data=[36, 100]),
   midi.NoteOffEvent(tick=4308900, channel=0, data=[36, 0]),
   midi.NoteOnEvent(tick=4309000, channel=0, data=[36, 100]),
   midi.NoteOffEvent(tick=4309100, channel=0, data=[36, 0]),
   midi.NoteOnEvent(tick=4309200, channel=0, data=[36, 100]),
   midi.NoteOffEvent(tick=4309300, channel=0, data=[36, 0]),
   midi.NoteOnEvent(tick=4309400, channel=0, data=[36, 100]),
   midi.NoteOffEvent(tick=4309500, channel=0, data=[36, 0]),
   midi.NoteOnEvent(tick=4309600, channel=0, data=[36, 100]),
   midi.NoteOffEvent(tick=4309700, channel=0, data=[36, 0]),
   midi.NoteOnEvent(tick=4309800, channel=0, data=[36, 100]),
   midi.NoteOffEvent(tick=4309900, channel=0, data=[36, 0]),
   midi.NoteOnEvent(tick=4310000, channel=0, data=[36, 100]),
   midi.NoteOffEvent(tick=4310100, channel=0, data=[36, 0]),
   midi.NoteOnEvent(tick=4310200, channel=0, data=[36, 100]),
   midi.NoteOffEvent(tick=4310300, channel=0, data=[36, 0]),
   midi.NoteOnEvent(tick=4310400, channel=0, data=[74, 100]),
   midi.NoteOffEvent(tick=4310500, channel=0, data=[74, 0]),
   midi.NoteOnEvent(tick=4310600, channel=0, data=[0, 100]),
   midi.NoteOffEvent(tick=4310700, channel=0, data=[0, 0]),
   midi.NoteOnEvent(tick=4310800, channel=0, data=[36, 100]),
   midi.NoteOffEvent(tick=4310900, channel=0, data=[36, 0]),
   midi.NoteOnEvent(tick=4311000, channel=0, data=[69, 100]),
   midi.NoteOffEvent(tick=4311100, channel=0, data=[69, 0]),
   midi.NoteOnEvent(tick=4311200, channel=0, data=[36, 100]),
   midi.NoteOffEvent(tick=4311300, channel=0, data=[36, 0]),
   midi.NoteOnEvent(tick=4311400, channel=0, data=[74, 100]),
   midi.NoteOffEvent(tick=4311500, channel=0, data=[74, 0]),
   midi.NoteOnEvent(tick=4311600, channel=0, data=[1, 100]),
   midi.NoteOffEvent(tick=4311700, channel=0, data=[1, 0]),
   midi.NoteOnEvent(tick=4311800, channel=0, data=[36, 100]),
   midi.NoteOffEvent(tick=4311900, channel=0, data=[36, 0]),
   midi.NoteOnEvent(tick=4312000, channel=0, data=[69, 100]),
   midi.NoteOffEvent(tick=4312100, channel=0, data=[69, 0]),
   midi.NoteOnEvent(tick=4312200, channel=0, data=[36, 100]),
   midi.NoteOffEvent(tick=4312300, channel=0, data=[36, 0]),
   midi.NoteOnEvent(tick=4312400, channel=0, data=[74, 100]),
   midi.NoteOffEvent(tick=4312500, channel=0, data=[74, 0]),
   midi.NoteOnEvent(tick=4312600, channel=0, data=[2, 100]),
   midi.NoteOffEvent(tick=4312700, channel=0, data=[2, 0]),
   midi.NoteOnEvent(tick=4312800, channel=0, data=[36, 100]),
   midi.NoteOffEvent(tick=4312900, channel=0, data=[36, 0]),
   midi.NoteOnEvent(tick=4313000, channel=0, data=[69, 100]),
   midi.NoteOffEvent(tick=4313100, channel=0, data=[69, 0]),
   midi.NoteOnEvent(tick=4313200, channel=0, data=[36, 100]),
   midi.NoteOffEvent(tick=4313300, channel=0, data=[36, 0]),
   midi.NoteOnEvent(tick=4313400, channel=0, data=[74, 100]),
   midi.NoteOffEvent(tick=4313500, channel=0, data=[74, 0]),
   midi.NoteOnEvent(tick=4313600, channel=0, data=[3, 100]),
   midi.NoteOffEvent(tick=4313700, channel=0, data=[3, 0]),
   midi.NoteOnEvent(tick=4313800, channel=0, data=[36, 100]),
   midi.NoteOffEvent(tick=4313900, channel=0, data=[36, 0]),
   midi.NoteOnEvent(tick=4314000, channel=0, data=[69, 100]),
   midi.NoteOffEvent(tick=4314100, channel=0, data=[69, 0]),
   midi.NoteOnEvent(tick=4314200, channel=0, data=[36, 100]),
   midi.NoteOffEvent(tick=4314300, channel=0, data=[36, 0]),
   midi.NoteOnEvent(tick=4314400, channel=0, data=[41, 100]),
   midi.NoteOffEvent(tick=4314500, channel=0, data=[41, 0]),
   midi.NoteOnEvent(tick=4314600, channel=0, data=[19, 100]),
   midi.NoteOffEvent(tick=4314700, channel=0, data=[19, 0]),
   midi.NoteOnEvent(tick=4314800, channel=0, data=[7, 100]),
   midi.NoteOffEvent(tick=4314900, channel=0, data=[7, 0]),
   midi.NoteOnEvent(tick=4315000, channel=0, data=[17, 100]),
   midi.NoteOffEvent(tick=4315100, channel=0, data=[17, 0]),
   midi.NoteOnEvent(tick=4315200, channel=0, data=[4, 100]),
   midi.NoteOffEvent(tick=4315300, channel=0, data=[4, 0]),
   midi.NoteOnEvent(tick=4315400, channel=0, data=[4, 100]),
   midi.NoteOffEvent(tick=4315500, channel=0, data=[4, 0]),
   midi.NoteOnEvent(tick=4315600, channel=0, data=[41, 100]),
   midi.NoteOffEvent(tick=4315700, channel=0, data=[41, 0]),
   midi.NoteOnEvent(tick=4315800, channel=0, data=[56, 100]),
   midi.NoteOffEvent(tick=4315900, channel=0, data=[56, 0]),
   midi.NoteOnEvent(tick=4316000, channel=0, data=[56, 100]),
   midi.NoteOffEvent(tick=4316100, channel=0, data=[56, 0]),
   midi.NoteOnEvent(tick=4316200, channel=0, data=[36, 100]),
   midi.NoteOffEvent(tick=4316300, channel=0, data=[36, 0]),
   midi.NoteOnEvent(tick=4316400, channel=0, data=[36, 100]),
   midi.NoteOffEvent(tick=4316500, channel=0, data=[36, 0]),
   midi.NoteOnEvent(tick=4316600, channel=0, data=[36, 100]),
   midi.NoteOffEvent(tick=4316700, channel=0, data=[36, 0]),
   midi.NoteOnEvent(tick=4316800, channel=0, data=[36, 100]),
   midi.NoteOffEvent(tick=4316900, channel=0, data=[36, 0]),
   midi.NoteOnEvent(tick=4317000, channel=0, data=[56, 100]),
   midi.NoteOffEvent(tick=4317100, channel=0, data=[56, 0]),
   midi.NoteOnEvent(tick=4317200, channel=0, data=[36, 100]),
   midi.NoteOffEvent(tick=4317300, channel=0, data=[36, 0]),
   midi.NoteOnEvent(tick=4317400, channel=0, data=[36, 100]),
   midi.NoteOffEvent(tick=4317500, channel=0, data=[36, 0]),
   midi.NoteOnEvent(tick=4317600, channel=0, data=[21, 100]),
   midi.NoteOffEvent(tick=4317700, channel=0, data=[21, 0]),
   midi.NoteOnEvent(tick=4317800, channel=0, data=[0, 100]),
   midi.NoteOffEvent(tick=4317900, channel=0, data=[0, 0]),
   midi.NoteOnEvent(tick=4318000, channel=0, data=[17, 100]),
   midi.NoteOffEvent(tick=4318100, channel=0, data=[17, 0]),
   midi.NoteOnEvent(tick=4318200, channel=0, data=[8, 100]),
   midi.NoteOffEvent(tick=4318300, channel=0, data=[8, 0]),
   midi.NoteOnEvent(tick=4318400, channel=0, data=[0, 100]),
   midi.NoteOffEvent(tick=4318500, channel=0, data=[0, 0]),
   midi.NoteOnEvent(tick=4318600, channel=0, data=[1, 100]),
   midi.NoteOffEvent(tick=4318700, channel=0, data=[1, 0]),
   midi.NoteOnEvent(tick=4318800, channel=0, data=[11, 100]),
   midi.NoteOffEvent(tick=4318900, channel=0, data=[11, 0]),
   midi.NoteOnEvent(tick=4319000, channel=0, data=[4, 100]),
   midi.NoteOffEvent(tick=4319100, channel=0, data=[4, 0]),
   midi.NoteOnEvent(tick=4319200, channel=0, data=[45, 100]),
   midi.NoteOffEvent(tick=4319300, channel=0, data=[45, 0]),
   midi.NoteOnEvent(tick=4319400, channel=0, data=[17, 100]),
   midi.NoteOffEvent(tick=4319500, channel=0, data=[17, 0]),
   midi.NoteOnEvent(tick=4319600, channel=0, data=[4, 100]),
   midi.NoteOffEvent(tick=4319700, channel=0, data=[4, 0]),
   midi.NoteOnEvent(tick=4319800, channel=0, data=[11, 100]),
   midi.NoteOffEvent(tick=4319900, channel=0, data=[11, 0]),
   midi.NoteOnEvent(tick=4320000, channel=0, data=[0, 100]),
   midi.NoteOffEvent(tick=4320100, channel=0, data=[0, 0]),
   midi.NoteOnEvent(tick=4320200, channel=0, data=[19, 100]),
   midi.NoteOffEvent(tick=4320300, channel=0, data=[19, 0]),
   midi.NoteOnEvent(tick=4320400, channel=0, data=[4, 100]),
   midi.NoteOffEvent(tick=4320500, channel=0, data=[4, 0]),
   midi.NoteOnEvent(tick=4320600, channel=0, data=[3, 100]),
   midi.NoteOffEvent(tick=4320700, channel=0, data=[3, 0]),
   midi.NoteOnEvent(tick=4320800, channel=0, data=[36, 100]),
   midi.NoteOffEvent(tick=4320900, channel=0, data=[36, 0]),
   midi.NoteOnEvent(tick=4321000, channel=0, data=[2, 100]),
   midi.NoteOffEvent(tick=4321100, channel=0, data=[2, 0]),
   midi.NoteOnEvent(tick=4321200, channel=0, data=[12, 100]),
   midi.NoteOffEvent(tick=4321300, channel=0, data=[12, 0]),
   midi.NoteOnEvent(tick=4321400, channel=0, data=[3, 100]),
   midi.NoteOffEvent(tick=4321500, channel=0, data=[3, 0]),
   midi.NoteOnEvent(tick=4321600, channel=0, data=[11, 100]),
   midi.NoteOffEvent(tick=4321700, channel=0, data=[11, 0]),
   midi.NoteOnEvent(tick=4321800, channel=0, data=[4, 100]),
   midi.NoteOffEvent(tick=4321900, channel=0, data=[4, 0]),
   midi.NoteOnEvent(tick=4322000, channel=0, data=[19, 100]),
   midi.NoteOffEvent(tick=4322100, channel=0, data=[19, 0]),
   midi.NoteOnEvent(tick=4322200, channel=0, data=[18, 100]),
   midi.NoteOffEvent(tick=4322300, channel=0, data=[18, 0]),
   midi.NoteOnEvent(tick=4322400, channel=0, data=[56, 100]),
   midi.NoteOffEvent(tick=4322500, channel=0, data=[56, 0]),
   midi.NoteOnEvent(tick=4322600, channel=0, data=[36, 100]),
   midi.NoteOffEvent(tick=4322700, channel=0, data=[36, 0]),
   midi.NoteOnEvent(tick=4322800, channel=0, data=[36, 100]),
   midi.NoteOffEvent(tick=4322900, channel=0, data=[36, 0]),
   midi.NoteOnEvent(tick=4323000, channel=0, data=[36, 100]),
   midi.NoteOffEvent(tick=4323100, channel=0, data=[36, 0]),
   midi.NoteOnEvent(tick=4323200, channel=0, data=[36, 100]),
   midi.NoteOffEvent(tick=4323300, channel=0, data=[36, 0]),
   midi.NoteOnEvent(tick=4323400, channel=0, data=[8, 100]),
   midi.NoteOffEvent(tick=4323500, channel=0, data=[8, 0]),
   midi.NoteOnEvent(tick=4323600, channel=0, data=[13, 100]),
   midi.NoteOffEvent(tick=4323700, channel=0, data=[13, 0]),
   midi.NoteOnEvent(tick=4323800, channel=0, data=[36, 100]),
   midi.NoteOffEvent(tick=4323900, channel=0, data=[36, 0]),
   midi.NoteOnEvent(tick=4324000, channel=0, data=[0, 100]),
   midi.NoteOffEvent(tick=4324100, channel=0, data=[0, 0]),
   midi.NoteOnEvent(tick=4324200, channel=0, data=[3, 100]),
   midi.NoteOffEvent(tick=4324300, channel=0, data=[3, 0]),
   midi.NoteOnEvent(tick=4324400, channel=0, data=[3, 100]),
   midi.NoteOffEvent(tick=4324500, channel=0, data=[3, 0]),
   midi.NoteOnEvent(tick=4324600, channel=0, data=[8, 100]),
   midi.NoteOffEvent(tick=4324700, channel=0, data=[8, 0]),
   midi.NoteOnEvent(tick=4324800, channel=0, data=[19, 100]),
   midi.NoteOffEvent(tick=4324900, channel=0, data=[19, 0]),
   midi.NoteOnEvent(tick=4325000, channel=0, data=[8, 100]),
   midi.NoteOffEvent(tick=4325100, channel=0, data=[8, 0]),
   midi.NoteOnEvent(tick=4325200, channel=0, data=[14, 100]),
   midi.NoteOffEvent(tick=4325300, channel=0, data=[14, 0]),
   midi.NoteOnEvent(tick=4325400, channel=0, data=[13, 100]),
   midi.NoteOffEvent(tick=4325500, channel=0, data=[13, 0]),
   midi.NoteOnEvent(tick=4325600, channel=0, data=[36, 100]),
   midi.NoteOffEvent(tick=4325700, channel=0, data=[36, 0]),
   midi.NoteOnEvent(tick=4325800, channel=0, data=[19, 100]),
   midi.NoteOffEvent(tick=4325900, channel=0, data=[19, 0]),
   midi.NoteOnEvent(tick=4326000, channel=0, data=[14, 100]),
   midi.NoteOffEvent(tick=4326100, channel=0, data=[14, 0]),
   midi.NoteOnEvent(tick=4326200, channel=0, data=[36, 100]),
   midi.NoteOffEvent(tick=4326300, channel=0, data=[36, 0]),
   midi.NoteOnEvent(tick=4326400, channel=0, data=[20, 100]),
   midi.NoteOffEvent(tick=4326500, channel=0, data=[20, 0]),
   midi.NoteOnEvent(tick=4326600, channel=0, data=[18, 100]),
   midi.NoteOffEvent(tick=4326700, channel=0, data=[18, 0]),
   midi.NoteOnEvent(tick=4326800, channel=0, data=[8, 100]),
   midi.NoteOffEvent(tick=4326900, channel=0, data=[8, 0]),
   midi.NoteOnEvent(tick=4327000, channel=0, data=[13, 100]),
   midi.NoteOffEvent(tick=4327100, channel=0, data=[13, 0]),
   midi.NoteOnEvent(tick=4327200, channel=0, data=[6, 100]),
   midi.NoteOffEvent(tick=4327300, channel=0, data=[6, 0]),
   midi.NoteOnEvent(tick=4327400, channel=0, data=[36, 100]),
   midi.NoteOffEvent(tick=4327500, channel=0, data=[36, 0]),
   midi.NoteOnEvent(tick=4327600, channel=0, data=[0, 100]),
   midi.NoteOffEvent(tick=4327700, channel=0, data=[0, 0]),
   midi.NoteOnEvent(tick=4327800, channel=0, data=[13, 100]),
   midi.NoteOffEvent(tick=4327900, channel=0, data=[13, 0]),
   midi.NoteOnEvent(tick=4328000, channel=0, data=[36, 100]),
   midi.NoteOffEvent(tick=4328100, channel=0, data=[36, 0]),
   midi.NoteOnEvent(tick=4328200, channel=0, data=[0, 100]),
   midi.NoteOffEvent(tick=4328300, channel=0, data=[0, 0]),
   midi.NoteOnEvent(tick=4328400, channel=0, data=[18, 100]),
   midi.NoteOffEvent(tick=4328500, channel=0, data=[18, 0]),
   midi.NoteOnEvent(tick=4328600, channel=0, data=[18, 100]),
   midi.NoteOffEvent(tick=4328700, channel=0, data=[18, 0]),
   midi.NoteOnEvent(tick=4328800, channel=0, data=[8, 100]),
   midi.NoteOffEvent(tick=4328900, channel=0, data=[8, 0]),
   midi.NoteOnEvent(tick=4329000, channel=0, data=[6, 100]),
   midi.NoteOffEvent(tick=4329100, channel=0, data=[6, 0]),
   midi.NoteOnEvent(tick=4329200, channel=0, data=[13, 100]),
   midi.NoteOffEvent(tick=4329300, channel=0, data=[13, 0]),
   midi.NoteOnEvent(tick=4329400, channel=0, data=[12, 100]),
   midi.NoteOffEvent(tick=4329500, channel=0, data=[12, 0]),
   midi.NoteOnEvent(tick=4329600, channel=0, data=[4, 100]),
   midi.NoteOffEvent(tick=4329700, channel=0, data=[4, 0]),
   midi.NoteOnEvent(tick=4329800, channel=0, data=[13, 100]),
   midi.NoteOffEvent(tick=4329900, channel=0, data=[13, 0]),
   midi.NoteOnEvent(tick=4330000, channel=0, data=[19, 100]),
   midi.NoteOffEvent(tick=4330100, channel=0, data=[19, 0]),
   midi.NoteOnEvent(tick=4330200, channel=0, data=[36, 100]),
   midi.NoteOffEvent(tick=4330300, channel=0, data=[36, 0]),
   midi.NoteOnEvent(tick=4330400, channel=0, data=[14, 100]),
   midi.NoteOffEvent(tick=4330500, channel=0, data=[14, 0]),
   midi.NoteOnEvent(tick=4330600, channel=0, data=[15, 100]),
   midi.NoteOffEvent(tick=4330700, channel=0, data=[15, 0]),
   midi.NoteOnEvent(tick=4330800, channel=0, data=[4, 100]),
   midi.NoteOffEvent(tick=4330900, channel=0, data=[4, 0]),
   midi.NoteOnEvent(tick=4331000, channel=0, data=[17, 100]),
   midi.NoteOffEvent(tick=4331100, channel=0, data=[17, 0]),
   midi.NoteOnEvent(tick=4331200, channel=0, data=[0, 100]),
   midi.NoteOffEvent(tick=4331300, channel=0, data=[0, 0]),
   midi.NoteOnEvent(tick=4331400, channel=0, data=[19, 100]),
   midi.NoteOffEvent(tick=4331500, channel=0, data=[19, 0]),
   midi.NoteOnEvent(tick=4331600, channel=0, data=[8, 100]),
   midi.NoteOffEvent(tick=4331700, channel=0, data=[8, 0]),
   midi.NoteOnEvent(tick=4331800, channel=0, data=[14, 100]),
   midi.NoteOffEvent(tick=4331900, channel=0, data=[14, 0]),
   midi.NoteOnEvent(tick=4332000, channel=0, data=[13, 100]),
   midi.NoteOffEvent(tick=4332100, channel=0, data=[13, 0]),
   midi.NoteOnEvent(tick=4332200, channel=0, data=[36, 100]),
   midi.NoteOffEvent(tick=4332300, channel=0, data=[36, 0]),
   midi.NoteOnEvent(tick=4332400, channel=0, data=[19, 100]),
   midi.NoteOffEvent(tick=4332500, channel=0, data=[19, 0]),
   midi.NoteOnEvent(tick=4332600, channel=0, data=[14, 100]),
   midi.NoteOffEvent(tick=4332700, channel=0, data=[14, 0]),
   midi.NoteOnEvent(tick=4332800, channel=0, data=[36, 100]),
   midi.NoteOffEvent(tick=4332900, channel=0, data=[36, 0]),
   midi.NoteOnEvent(tick=4333000, channel=0, data=[18, 100]),
   midi.NoteOffEvent(tick=4333100, channel=0, data=[18, 0]),
   midi.NoteOnEvent(tick=4333200, channel=0, data=[4, 100]),
   midi.NoteOffEvent(tick=4333300, channel=0, data=[4, 0]),
   midi.NoteOnEvent(tick=4333400, channel=0, data=[19, 100]),
   midi.NoteOffEvent(tick=4333500, channel=0, data=[19, 0]),
   midi.NoteOnEvent(tick=4333600, channel=0, data=[36, 100]),
   midi.NoteOffEvent(tick=4333700, channel=0, data=[36, 0]),
   midi.NoteOnEvent(tick=4333800, channel=0, data=[0, 100]),
   midi.NoteOffEvent(tick=4333900, channel=0, data=[0, 0]),
   midi.NoteOnEvent(tick=4334000, channel=0, data=[36, 100]),
   midi.NoteOffEvent(tick=4334100, channel=0, data=[36, 0]),
   midi.NoteOnEvent(tick=4334200, channel=0, data=[21, 100]),
   midi.NoteOffEvent(tick=4334300, channel=0, data=[21, 0]),
   midi.NoteOnEvent(tick=4334400, channel=0, data=[0, 100]),
   midi.NoteOffEvent(tick=4334500, channel=0, data=[0, 0]),
   midi.NoteOnEvent(tick=4334600, channel=0, data=[17, 100]),
   midi.NoteOffEvent(tick=4334700, channel=0, data=[17, 0]),
   midi.NoteOnEvent(tick=4334800, channel=0, data=[8, 100]),
   midi.NoteOffEvent(tick=4334900, channel=0, data=[8, 0]),
   midi.NoteOnEvent(tick=4335000, channel=0, data=[0, 100]),
   midi.NoteOffEvent(tick=4335100, channel=0, data=[0, 0]),
   midi.NoteOnEvent(tick=4335200, channel=0, data=[1, 100]),
   midi.NoteOffEvent(tick=4335300, channel=0, data=[1, 0]),
   midi.NoteOnEvent(tick=4335400, channel=0, data=[11, 100]),
   midi.NoteOffEvent(tick=4335500, channel=0, data=[11, 0]),
   midi.NoteOnEvent(tick=4335600, channel=0, data=[4, 100]),
   midi.NoteOffEvent(tick=4335700, channel=0, data=[4, 0]),
   midi.NoteOnEvent(tick=4335800, channel=0, data=[36, 100]),
   midi.NoteOffEvent(tick=4335900, channel=0, data=[36, 0]),
   midi.NoteOnEvent(tick=4336000, channel=0, data=[21, 100]),
   midi.NoteOffEvent(tick=4336100, channel=0, data=[21, 0]),
   midi.NoteOnEvent(tick=4336200, channel=0, data=[0, 100]),
   midi.NoteOffEvent(tick=4336300, channel=0, data=[0, 0]),
   midi.NoteOnEvent(tick=4336400, channel=0, data=[11, 100]),
   midi.NoteOffEvent(tick=4336500, channel=0, data=[11, 0]),
   midi.NoteOnEvent(tick=4336600, channel=0, data=[20, 100]),
   midi.NoteOffEvent(tick=4336700, channel=0, data=[20, 0]),
   midi.NoteOnEvent(tick=4336800, channel=0, data=[4, 100]),
   midi.NoteOffEvent(tick=4336900, channel=0, data=[4, 0]),
   midi.NoteOnEvent(tick=4337000, channel=0, data=[38, 100]),
   midi.NoteOffEvent(tick=4337100, channel=0, data=[38, 0]),
   midi.NoteOnEvent(tick=4337200, channel=0, data=[36, 100]),
   midi.NoteOffEvent(tick=4337300, channel=0, data=[36, 0]),
   midi.NoteOnEvent(tick=4337400, channel=0, data=[24, 100]),
   midi.NoteOffEvent(tick=4337500, channel=0, data=[24, 0]),
   midi.NoteOnEvent(tick=4337600, channel=0, data=[14, 100]),
   midi.NoteOffEvent(tick=4337700, channel=0, data=[14, 0]),
   midi.NoteOnEvent(tick=4337800, channel=0, data=[20, 100]),
   midi.NoteOffEvent(tick=4337900, channel=0, data=[20, 0]),
   midi.NoteOnEvent(tick=4338000, channel=0, data=[36, 100]),
   midi.NoteOffEvent(tick=4338100, channel=0, data=[36, 0]),
   midi.NoteOnEvent(tick=4338200, channel=0, data=[56, 100]),
   midi.NoteOffEvent(tick=4338300, channel=0, data=[56, 0]),
   midi.NoteOnEvent(tick=4338400, channel=0, data=[36, 100]),
   midi.NoteOffEvent(tick=4338500, channel=0, data=[36, 0]),
   midi.NoteOnEvent(tick=4338600, channel=0, data=[36, 100]),
   midi.NoteOffEvent(tick=4338700, channel=0, data=[36, 0]),
   midi.NoteOnEvent(tick=4338800, channel=0, data=[36, 100]),
   midi.NoteOffEvent(tick=4338900, channel=0, data=[36, 0]),
   midi.NoteOnEvent(tick=4339000, channel=0, data=[36, 100]),
   midi.NoteOffEvent(tick=4339100, channel=0, data=[36, 0]),
   midi.NoteOnEvent(tick=4339200, channel=0, data=[2, 100]),
   midi.NoteOffEvent(tick=4339300, channel=0, data=[2, 0]),
   midi.NoteOnEvent(tick=4339400, channel=0, data=[0, 100]),
   midi.NoteOffEvent(tick=4339500, channel=0, data=[0, 0]),
   midi.NoteOnEvent(tick=4339600, channel=0, data=[13, 100]),
   midi.NoteOffEvent(tick=4339700, channel=0, data=[13, 0]),
   midi.NoteOnEvent(tick=4339800, channel=0, data=[36, 100]),
   midi.NoteOffEvent(tick=4339900, channel=0, data=[36, 0]),
   midi.NoteOnEvent(tick=4340000, channel=0, data=[0, 100]),
   midi.NoteOffEvent(tick=4340100, channel=0, data=[0, 0]),
   midi.NoteOnEvent(tick=4340200, channel=0, data=[11, 100]),
   midi.NoteOffEvent(tick=4340300, channel=0, data=[11, 0]),
   midi.NoteOnEvent(tick=4340400, channel=0, data=[18, 100]),
   midi.NoteOffEvent(tick=4340500, channel=0, data=[18, 0]),
   midi.NoteOnEvent(tick=4340600, channel=0, data=[14, 100]),
   midi.NoteOffEvent(tick=4340700, channel=0, data=[14, 0]),
   midi.NoteOnEvent(tick=4340800, channel=0, data=[36, 100]),
   midi.NoteOffEvent(tick=4340900, channel=0, data=[36, 0]),
   midi.NoteOnEvent(tick=4341000, channel=0, data=[20, 100]),
   midi.NoteOffEvent(tick=4341100, channel=0, data=[20, 0]),
   midi.NoteOnEvent(tick=4341200, channel=0, data=[18, 100]),
   midi.NoteOffEvent(tick=4341300, channel=0, data=[18, 0]),
   midi.NoteOnEvent(tick=4341400, channel=0, data=[4, 100]),
   midi.NoteOffEvent(tick=4341500, channel=0, data=[4, 0]),
   midi.NoteOnEvent(tick=4341600, channel=0, data=[36, 100]),
   midi.NoteOffEvent(tick=4341700, channel=0, data=[36, 0]),
   midi.NoteOnEvent(tick=4341800, channel=0, data=[19, 100]),
   midi.NoteOffEvent(tick=4341900, channel=0, data=[19, 0]),
   midi.NoteOnEvent(tick=4342000, channel=0, data=[7, 100]),
   midi.NoteOffEvent(tick=4342100, channel=0, data=[7, 0]),
   midi.NoteOnEvent(tick=4342200, channel=0, data=[4, 100]),
   midi.NoteOffEvent(tick=4342300, channel=0, data=[4, 0]),
   midi.NoteOnEvent(tick=4342400, channel=0, data=[36, 100]),
   midi.NoteOffEvent(tick=4342500, channel=0, data=[36, 0]),
   midi.NoteOnEvent(tick=4342600, channel=0, data=[18, 100]),
   midi.NoteOffEvent(tick=4342700, channel=0, data=[18, 0]),
   midi.NoteOnEvent(tick=4342800, channel=0, data=[4, 100]),
   midi.NoteOffEvent(tick=4342900, channel=0, data=[4, 0]),
   midi.NoteOnEvent(tick=4343000, channel=0, data=[19, 100]),
   midi.NoteOffEvent(tick=4343100, channel=0, data=[19, 0]),
   midi.NoteOnEvent(tick=4343200, channel=0, data=[45, 100]),
   midi.NoteOffEvent(tick=4343300, channel=0, data=[45, 0]),
   midi.NoteOnEvent(tick=4343400, channel=0, data=[21, 100]),
   midi.NoteOffEvent(tick=4343500, channel=0, data=[21, 0]),
   midi.NoteOnEvent(tick=4343600, channel=0, data=[0, 100]),
   midi.NoteOffEvent(tick=4343700, channel=0, data=[0, 0]),
   midi.NoteOnEvent(tick=4343800, channel=0, data=[17, 100]),
   midi.NoteOffEvent(tick=4343900, channel=0, data=[17, 0]),
   midi.NoteOnEvent(tick=4344000, channel=0, data=[8, 100]),
   midi.NoteOffEvent(tick=4344100, channel=0, data=[8, 0]),
   midi.NoteOnEvent(tick=4344200, channel=0, data=[0, 100]),
   midi.NoteOffEvent(tick=4344300, channel=0, data=[0, 0]),
   midi.NoteOnEvent(tick=4344400, channel=0, data=[1, 100]),
   midi.NoteOffEvent(tick=4344500, channel=0, data=[1, 0]),
   midi.NoteOnEvent(tick=4344600, channel=0, data=[11, 100]),
   midi.NoteOffEvent(tick=4344700, channel=0, data=[11, 0]),
   midi.NoteOnEvent(tick=4344800, channel=0, data=[4, 100]),
   midi.NoteOffEvent(tick=4344900, channel=0, data=[4, 0]),
   midi.NoteOnEvent(tick=4345000, channel=0, data=[36, 100]),
   midi.NoteOffEvent(tick=4345100, channel=0, data=[36, 0]),
   midi.NoteOnEvent(tick=4345200, channel=0, data=[2, 100]),
   midi.NoteOffEvent(tick=4345300, channel=0, data=[2, 0]),
   midi.NoteOnEvent(tick=4345400, channel=0, data=[12, 100]),
   midi.NoteOffEvent(tick=4345500, channel=0, data=[12, 0]),
   midi.NoteOnEvent(tick=4345600, channel=0, data=[3, 100]),
   midi.NoteOffEvent(tick=4345700, channel=0, data=[3, 0]),
   midi.NoteOnEvent(tick=4345800, channel=0, data=[11, 100]),
   midi.NoteOffEvent(tick=4345900, channel=0, data=[11, 0]),
   midi.NoteOnEvent(tick=4346000, channel=0, data=[4, 100]),
   midi.NoteOffEvent(tick=4346100, channel=0, data=[4, 0]),
   midi.NoteOnEvent(tick=4346200, channel=0, data=[19, 100]),
   midi.NoteOffEvent(tick=4346300, channel=0, data=[19, 0]),
   midi.NoteOnEvent(tick=4346400, channel=0, data=[37, 100]),
   midi.NoteOffEvent(tick=4346500, channel=0, data=[37, 0]),
   midi.NoteOnEvent(tick=4346600, channel=0, data=[36, 100]),
   midi.NoteOffEvent(tick=4346700, channel=0, data=[36, 0]),
   midi.NoteOnEvent(tick=4346800, channel=0, data=[5, 100]),
   midi.NoteOffEvent(tick=4346900, channel=0, data=[5, 0]),
   midi.NoteOnEvent(tick=4347000, channel=0, data=[14, 100]),
   midi.NoteOffEvent(tick=4347100, channel=0, data=[14, 0]),
   midi.NoteOnEvent(tick=4347200, channel=0, data=[17, 100]),
   midi.NoteOffEvent(tick=4347300, channel=0, data=[17, 0]),
   midi.NoteOnEvent(tick=4347400, channel=0, data=[36, 100]),
   midi.NoteOffEvent(tick=4347500, channel=0, data=[36, 0]),
   midi.NoteOnEvent(tick=4347600, channel=0, data=[4, 100]),
   midi.NoteOffEvent(tick=4347700, channel=0, data=[4, 0]),
   midi.NoteOnEvent(tick=4347800, channel=0, data=[23, 100]),
   midi.NoteOffEvent(tick=4347900, channel=0, data=[23, 0]),
   midi.NoteOnEvent(tick=4348000, channel=0, data=[0, 100]),
   midi.NoteOffEvent(tick=4348100, channel=0, data=[0, 0]),
   midi.NoteOnEvent(tick=4348200, channel=0, data=[12, 100]),
   midi.NoteOffEvent(tick=4348300, channel=0, data=[12, 0]),
   midi.NoteOnEvent(tick=4348400, channel=0, data=[15, 100]),
   midi.NoteOffEvent(tick=4348500, channel=0, data=[15, 0]),
   midi.NoteOnEvent(tick=4348600, channel=0, data=[11, 100]),
   midi.NoteOffEvent(tick=4348700, channel=0, data=[11, 0]),
   midi.NoteOnEvent(tick=4348800, channel=0, data=[4, 100]),
   midi.NoteOffEvent(tick=4348900, channel=0, data=[4, 0]),
   midi.NoteOnEvent(tick=4349000, channel=0, data=[38, 100]),
   midi.NoteOffEvent(tick=4349100, channel=0, data=[38, 0]),
   midi.NoteOnEvent(tick=4349200, channel=0, data=[36, 100]),
   midi.NoteOffEvent(tick=4349300, channel=0, data=[36, 0]),
   midi.NoteOnEvent(tick=4349400, channel=0, data=[19, 100]),
   midi.NoteOffEvent(tick=4349500, channel=0, data=[19, 0]),
   midi.NoteOnEvent(tick=4349600, channel=0, data=[7, 100]),
   midi.NoteOffEvent(tick=4349700, channel=0, data=[7, 0]),
   midi.NoteOnEvent(tick=4349800, channel=0, data=[4, 100]),
   midi.NoteOffEvent(tick=4349900, channel=0, data=[4, 0]),
   midi.NoteOnEvent(tick=4350000, channel=0, data=[36, 100]),
   midi.NoteOffEvent(tick=4350100, channel=0, data=[36, 0]),
   midi.NoteOnEvent(tick=4350200, channel=0, data=[5, 100]),
   midi.NoteOffEvent(tick=4350300, channel=0, data=[5, 0]),
   midi.NoteOnEvent(tick=4350400, channel=0, data=[14, 100]),
   midi.NoteOffEvent(tick=4350500, channel=0, data=[14, 0]),
   midi.NoteOnEvent(tick=4350600, channel=0, data=[11, 100]),
   midi.NoteOffEvent(tick=4350700, channel=0, data=[11, 0]),
   midi.NoteOnEvent(tick=4350800, channel=0, data=[11, 100]),
   midi.NoteOffEvent(tick=4350900, channel=0, data=[11, 0]),
   midi.NoteOnEvent(tick=4351000, channel=0, data=[14, 100]),
   midi.NoteOffEvent(tick=4351100, channel=0, data=[14, 0]),
   midi.NoteOnEvent(tick=4351200, channel=0, data=[22, 100]),
   midi.NoteOffEvent(tick=4351300, channel=0, data=[22, 0]),
   midi.NoteOnEvent(tick=4351400, channel=0, data=[8, 100]),
   midi.NoteOffEvent(tick=4351500, channel=0, data=[8, 0]),
   midi.NoteOnEvent(tick=4351600, channel=0, data=[13, 100]),
   midi.NoteOffEvent(tick=4351700, channel=0, data=[13, 0]),
   midi.NoteOnEvent(tick=4351800, channel=0, data=[6, 100]),
   midi.NoteOffEvent(tick=4351900, channel=0, data=[6, 0]),
   midi.NoteOnEvent(tick=4352000, channel=0, data=[36, 100]),
   midi.NoteOffEvent(tick=4352100, channel=0, data=[36, 0]),
   midi.NoteOnEvent(tick=4352200, channel=0, data=[2, 100]),
   midi.NoteOffEvent(tick=4352300, channel=0, data=[2, 0]),
   midi.NoteOnEvent(tick=4352400, channel=0, data=[14, 100]),
   midi.NoteOffEvent(tick=4352500, channel=0, data=[14, 0]),
   midi.NoteOnEvent(tick=4352600, channel=0, data=[12, 100]),
   midi.NoteOffEvent(tick=4352700, channel=0, data=[12, 0]),
   midi.NoteOnEvent(tick=4352800, channel=0, data=[12, 100]),
   midi.NoteOffEvent(tick=4352900, channel=0, data=[12, 0]),
   midi.NoteOnEvent(tick=4353000, channel=0, data=[0, 100]),
   midi.NoteOffEvent(tick=4353100, channel=0, data=[0, 0]),
   midi.NoteOnEvent(tick=4353200, channel=0, data=[13, 100]),
   midi.NoteOffEvent(tick=4353300, channel=0, data=[13, 0]),
   midi.NoteOnEvent(tick=4353400, channel=0, data=[3, 100]),
   midi.NoteOffEvent(tick=4353500, channel=0, data=[3, 0]),
   midi.NoteOnEvent(tick=4353600, channel=0, data=[36, 100]),
   midi.NoteOffEvent(tick=4353700, channel=0, data=[36, 0]),
   midi.NoteOnEvent(tick=4353800, channel=0, data=[56, 100]),
   midi.NoteOffEvent(tick=4353900, channel=0, data=[56, 0]),
   midi.NoteOnEvent(tick=4354000, channel=0, data=[36, 100]),
   midi.NoteOffEvent(tick=4354100, channel=0, data=[36, 0]),
   midi.NoteOnEvent(tick=4354200, channel=0, data=[36, 100]),
   midi.NoteOffEvent(tick=4354300, channel=0, data=[36, 0]),
   midi.NoteOnEvent(tick=4354400, channel=0, data=[36, 100]),
   midi.NoteOffEvent(tick=4354500, channel=0, data=[36, 0]),
   midi.NoteOnEvent(tick=4354600, channel=0, data=[36, 100]),
   midi.NoteOffEvent(tick=4354700, channel=0, data=[36, 0]),
   midi.NoteOnEvent(tick=4354800, channel=0, data=[20, 100]),
   midi.NoteOffEvent(tick=4354900, channel=0, data=[20, 0]),
   midi.NoteOnEvent(tick=4355000, channel=0, data=[18, 100]),
   midi.NoteOffEvent(tick=4355100, channel=0, data=[18, 0]),
   midi.NoteOnEvent(tick=4355200, channel=0, data=[4, 100]),
   midi.NoteOffEvent(tick=4355300, channel=0, data=[4, 0]),
   midi.NoteOnEvent(tick=4355400, channel=0, data=[18, 100]),
   midi.NoteOffEvent(tick=4355500, channel=0, data=[18, 0]),
   midi.NoteOnEvent(tick=4355600, channel=0, data=[36, 100]),
   midi.NoteOffEvent(tick=4355700, channel=0, data=[36, 0]),
   midi.NoteOnEvent(tick=4355800, channel=0, data=[18, 100]),
   midi.NoteOffEvent(tick=4355900, channel=0, data=[18, 0]),
   midi.NoteOnEvent(tick=4356000, channel=0, data=[4, 100]),
   midi.NoteOffEvent(tick=4356100, channel=0, data=[4, 0]),
   midi.NoteOnEvent(tick=4356200, channel=0, data=[19, 100]),
   midi.NoteOffEvent(tick=4356300, channel=0, data=[19, 0]),
   midi.NoteOnEvent(tick=4356400, channel=0, data=[45, 100]),
   midi.NoteOffEvent(tick=4356500, channel=0, data=[45, 0]),
   midi.NoteOnEvent(tick=4356600, channel=0, data=[21, 100]),
   midi.NoteOffEvent(tick=4356700, channel=0, data=[21, 0]),
   midi.NoteOnEvent(tick=4356800, channel=0, data=[0, 100]),
   midi.NoteOffEvent(tick=4356900, channel=0, data=[0, 0]),
   midi.NoteOnEvent(tick=4357000, channel=0, data=[17, 100]),
   midi.NoteOffEvent(tick=4357100, channel=0, data=[17, 0]),
   midi.NoteOnEvent(tick=4357200, channel=0, data=[8, 100]),
   midi.NoteOffEvent(tick=4357300, channel=0, data=[8, 0]),
   midi.NoteOnEvent(tick=4357400, channel=0, data=[0, 100]),
   midi.NoteOffEvent(tick=4357500, channel=0, data=[0, 0]),
   midi.NoteOnEvent(tick=4357600, channel=0, data=[1, 100]),
   midi.NoteOffEvent(tick=4357700, channel=0, data=[1, 0]),
   midi.NoteOnEvent(tick=4357800, channel=0, data=[11, 100]),
   midi.NoteOffEvent(tick=4357900, channel=0, data=[11, 0]),
   midi.NoteOnEvent(tick=4358000, channel=0, data=[4, 100]),
   midi.NoteOffEvent(tick=4358100, channel=0, data=[4, 0]),
   midi.NoteOnEvent(tick=4358200, channel=0, data=[36, 100]),
   midi.NoteOffEvent(tick=4358300, channel=0, data=[36, 0]),
   midi.NoteOnEvent(tick=4358400, channel=0, data=[19, 100]),
   midi.NoteOffEvent(tick=4358500, channel=0, data=[19, 0]),
   midi.NoteOnEvent(tick=4358600, channel=0, data=[14, 100]),
   midi.NoteOffEvent(tick=4358700, channel=0, data=[14, 0]),
   midi.NoteOnEvent(tick=4358800, channel=0, data=[36, 100]),
   midi.NoteOffEvent(tick=4358900, channel=0, data=[36, 0]),
   midi.NoteOnEvent(tick=4359000, channel=0, data=[0, 100]),
   midi.NoteOffEvent(tick=4359100, channel=0, data=[0, 0]),
   midi.NoteOnEvent(tick=4359200, channel=0, data=[18, 100]),
   midi.NoteOffEvent(tick=4359300, channel=0, data=[18, 0]),
   midi.NoteOnEvent(tick=4359400, channel=0, data=[18, 100]),
   midi.NoteOffEvent(tick=4359500, channel=0, data=[18, 0]),
   midi.NoteOnEvent(tick=4359600, channel=0, data=[8, 100]),
   midi.NoteOffEvent(tick=4359700, channel=0, data=[8, 0]),
   midi.NoteOnEvent(tick=4359800, channel=0, data=[6, 100]),
   midi.NoteOffEvent(tick=4359900, channel=0, data=[6, 0]),
   midi.NoteOnEvent(tick=4360000, channel=0, data=[13, 100]),
   midi.NoteOffEvent(tick=4360100, channel=0, data=[13, 0]),
   midi.NoteOnEvent(tick=4360200, channel=0, data=[36, 100]),
   midi.NoteOffEvent(tick=4360300, channel=0, data=[36, 0]),
   midi.NoteOnEvent(tick=4360400, channel=0, data=[0, 100]),
   midi.NoteOffEvent(tick=4360500, channel=0, data=[0, 0]),
   midi.NoteOnEvent(tick=4360600, channel=0, data=[13, 100]),
   midi.NoteOffEvent(tick=4360700, channel=0, data=[13, 0]),
   midi.NoteOnEvent(tick=4360800, channel=0, data=[36, 100]),
   midi.NoteOffEvent(tick=4360900, channel=0, data=[36, 0]),
   midi.NoteOnEvent(tick=4361000, channel=0, data=[0, 100]),
   midi.NoteOffEvent(tick=4361100, channel=0, data=[0, 0]),
   midi.NoteOnEvent(tick=4361200, channel=0, data=[17, 100]),
   midi.NoteOffEvent(tick=4361300, channel=0, data=[17, 0]),
   midi.NoteOnEvent(tick=4361400, channel=0, data=[17, 100]),
   midi.NoteOffEvent(tick=4361500, channel=0, data=[17, 0]),
   midi.NoteOnEvent(tick=4361600, channel=0, data=[0, 100]),
   midi.NoteOffEvent(tick=4361700, channel=0, data=[0, 0]),
   midi.NoteOnEvent(tick=4361800, channel=0, data=[24, 100]),
   midi.NoteOffEvent(tick=4361900, channel=0, data=[24, 0]),
   midi.NoteOnEvent(tick=4362000, channel=0, data=[36, 100]),
   midi.NoteOffEvent(tick=4362100, channel=0, data=[36, 0]),
   midi.NoteOnEvent(tick=4362200, channel=0, data=[14, 100]),
   midi.NoteOffEvent(tick=4362300, channel=0, data=[14, 0]),
   midi.NoteOnEvent(tick=4362400, channel=0, data=[5, 100]),
   midi.NoteOffEvent(tick=4362500, channel=0, data=[5, 0]),
   midi.NoteOnEvent(tick=4362600, channel=0, data=[36, 100]),
   midi.NoteOffEvent(tick=4362700, channel=0, data=[36, 0]),
   midi.NoteOnEvent(tick=4362800, channel=0, data=[27, 100]),
   midi.NoteOffEvent(tick=4362900, channel=0, data=[27, 0]),
   midi.NoteOnEvent(tick=4363000, channel=0, data=[38, 100]),
   midi.NoteOffEvent(tick=4363100, channel=0, data=[38, 0]),
   midi.NoteOnEvent(tick=4363200, channel=0, data=[36, 100]),
   midi.NoteOffEvent(tick=4363300, channel=0, data=[36, 0]),
   midi.NoteOnEvent(tick=4363400, channel=0, data=[28, 100]),
   midi.NoteOffEvent(tick=4363500, channel=0, data=[28, 0]),
   midi.NoteOnEvent(tick=4363600, channel=0, data=[38, 100]),
   midi.NoteOffEvent(tick=4363700, channel=0, data=[38, 0]),
   midi.NoteOnEvent(tick=4363800, channel=0, data=[36, 100]),
   midi.NoteOffEvent(tick=4363900, channel=0, data=[36, 0]),
   midi.NoteOnEvent(tick=4364000, channel=0, data=[29, 100]),
   midi.NoteOffEvent(tick=4364100, channel=0, data=[29, 0]),
   midi.NoteOnEvent(tick=4364200, channel=0, data=[36, 100]),
   midi.NoteOffEvent(tick=4364300, channel=0, data=[36, 0]),
   midi.NoteOnEvent(tick=4364400, channel=0, data=[19, 100]),
   midi.NoteOffEvent(tick=4364500, channel=0, data=[19, 0]),
   midi.NoteOnEvent(tick=4364600, channel=0, data=[14, 100]),
   midi.NoteOffEvent(tick=4364700, channel=0, data=[14, 0]),
   midi.NoteOnEvent(tick=4364800, channel=0, data=[36, 100]),
   midi.NoteOffEvent(tick=4364900, channel=0, data=[36, 0]),
   midi.NoteOnEvent(tick=4365000, channel=0, data=[19, 100]),
   midi.NoteOffEvent(tick=4365100, channel=0, data=[19, 0]),
   midi.NoteOnEvent(tick=4365200, channel=0, data=[7, 100]),
   midi.NoteOffEvent(tick=4365300, channel=0, data=[7, 0]),
   midi.NoteOnEvent(tick=4365400, channel=0, data=[4, 100]),
   midi.NoteOffEvent(tick=4365500, channel=0, data=[4, 0]),
   midi.NoteOnEvent(tick=4365600, channel=0, data=[36, 100]),
   midi.NoteOffEvent(tick=4365700, channel=0, data=[36, 0]),
   midi.NoteOnEvent(tick=4365800, channel=0, data=[74, 100]),
   midi.NoteOffEvent(tick=4365900, channel=0, data=[74, 0]),
   midi.NoteOnEvent(tick=4366000, channel=0, data=[0, 100]),
   midi.NoteOffEvent(tick=4366100, channel=0, data=[0, 0]),
   midi.NoteOnEvent(tick=4366200, channel=0, data=[36, 100]),
   midi.NoteOffEvent(tick=4366300, channel=0, data=[36, 0]),
   midi.NoteOnEvent(tick=4366400, channel=0, data=[21, 100]),
   midi.NoteOffEvent(tick=4366500, channel=0, data=[21, 0]),
   midi.NoteOnEvent(tick=4366600, channel=0, data=[0, 100]),
   midi.NoteOffEvent(tick=4366700, channel=0, data=[0, 0]),
   midi.NoteOnEvent(tick=4366800, channel=0, data=[17, 100]),
   midi.NoteOffEvent(tick=4366900, channel=0, data=[17, 0]),
   midi.NoteOnEvent(tick=4367000, channel=0, data=[8, 100]),
   midi.NoteOffEvent(tick=4367100, channel=0, data=[8, 0]),
   midi.NoteOnEvent(tick=4367200, channel=0, data=[0, 100]),
   midi.NoteOffEvent(tick=4367300, channel=0, data=[0, 0]),
   midi.NoteOnEvent(tick=4367400, channel=0, data=[1, 100]),
   midi.NoteOffEvent(tick=4367500, channel=0, data=[1, 0]),
   midi.NoteOnEvent(tick=4367600, channel=0, data=[11, 100]),
   midi.NoteOffEvent(tick=4367700, channel=0, data=[11, 0]),
   midi.NoteOnEvent(tick=4367800, channel=0, data=[4, 100]),
   midi.NoteOffEvent(tick=4367900, channel=0, data=[4, 0]),
   midi.NoteOnEvent(tick=4368000, channel=0, data=[37, 100]),
   midi.NoteOffEvent(tick=4368100, channel=0, data=[37, 0]),
   midi.NoteOnEvent(tick=4368200, channel=0, data=[56, 100]),
   midi.NoteOffEvent(tick=4368300, channel=0, data=[56, 0]),
   midi.NoteOnEvent(tick=4368400, channel=0, data=[56, 100]),
   midi.NoteOffEvent(tick=4368500, channel=0, data=[56, 0]),
   midi.NoteOnEvent(tick=4368600, channel=0, data=[56, 100]),
   midi.NoteOffEvent(tick=4368700, channel=0, data=[56, 0]),
   midi.NoteOnEvent(tick=4368800, channel=0, data=[36, 100]),
   midi.NoteOffEvent(tick=4368900, channel=0, data=[36, 0]),
   midi.NoteOnEvent(tick=4369000, channel=0, data=[36, 100]),
   midi.NoteOffEvent(tick=4369100, channel=0, data=[36, 0]),
   midi.NoteOnEvent(tick=4369200, channel=0, data=[36, 100]),
   midi.NoteOffEvent(tick=4369300, channel=0, data=[36, 0]),
   midi.NoteOnEvent(tick=4369400, channel=0, data=[36, 100]),
   midi.NoteOffEvent(tick=4369500, channel=0, data=[36, 0]),
   midi.NoteOnEvent(tick=4369600, channel=0, data=[36, 100]),
   midi.NoteOffEvent(tick=4369700, channel=0, data=[36, 0]),
   midi.NoteOnEvent(tick=4369800, channel=0, data=[36, 100]),
   midi.NoteOffEvent(tick=4369900, channel=0, data=[36, 0]),
   midi.NoteOnEvent(tick=4370000, channel=0, data=[36, 100]),
   midi.NoteOffEvent(tick=4370100, channel=0, data=[36, 0]),
   midi.NoteOnEvent(tick=4370200, channel=0, data=[36, 100]),
   midi.NoteOffEvent(tick=4370300, channel=0, data=[36, 0]),
   midi.NoteOnEvent(tick=4370400, channel=0, data=[18, 100]),
   midi.NoteOffEvent(tick=4370500, channel=0, data=[18, 0]),
   midi.NoteOnEvent(tick=4370600, channel=0, data=[4, 100]),
   midi.NoteOffEvent(tick=4370700, channel=0, data=[4, 0]),
   midi.NoteOnEvent(tick=4370800, channel=0, data=[19, 100]),
   midi.NoteOffEvent(tick=4370900, channel=0, data=[19, 0]),
   midi.NoteOnEvent(tick=4371000, channel=0, data=[45, 100]),
   midi.NoteOffEvent(tick=4371100, channel=0, data=[45, 0]),
   midi.NoteOnEvent(tick=4371200, channel=0, data=[21, 100]),
   midi.NoteOffEvent(tick=4371300, channel=0, data=[21, 0]),
   midi.NoteOnEvent(tick=4371400, channel=0, data=[0, 100]),
   midi.NoteOffEvent(tick=4371500, channel=0, data=[0, 0]),
   midi.NoteOnEvent(tick=4371600, channel=0, data=[17, 100]),
   midi.NoteOffEvent(tick=4371700, channel=0, data=[17, 0]),
   midi.NoteOnEvent(tick=4371800, channel=0, data=[8, 100]),
   midi.NoteOffEvent(tick=4371900, channel=0, data=[8, 0]),
   midi.NoteOnEvent(tick=4372000, channel=0, data=[0, 100]),
   midi.NoteOffEvent(tick=4372100, channel=0, data=[0, 0]),
   midi.NoteOnEvent(tick=4372200, channel=0, data=[1, 100]),
   midi.NoteOffEvent(tick=4372300, channel=0, data=[1, 0]),
   midi.NoteOnEvent(tick=4372400, channel=0, data=[11, 100]),
   midi.NoteOffEvent(tick=4372500, channel=0, data=[11, 0]),
   midi.NoteOnEvent(tick=4372600, channel=0, data=[4, 100]),
   midi.NoteOffEvent(tick=4372700, channel=0, data=[4, 0]),
   midi.NoteOnEvent(tick=4372800, channel=0, data=[36, 100]),
   midi.NoteOffEvent(tick=4372900, channel=0, data=[36, 0]),
   midi.NoteOnEvent(tick=4373000, channel=0, data=[45, 100]),
   midi.NoteOffEvent(tick=4373100, channel=0, data=[45, 0]),
   midi.NoteOnEvent(tick=4373200, channel=0, data=[13, 100]),
   midi.NoteOffEvent(tick=4373300, channel=0, data=[13, 0]),
   midi.NoteOnEvent(tick=4373400, channel=0, data=[0, 100]),
   midi.NoteOffEvent(tick=4373500, channel=0, data=[0, 0]),
   midi.NoteOnEvent(tick=4373600, channel=0, data=[12, 100]),
   midi.NoteOffEvent(tick=4373700, channel=0, data=[12, 0]),
   midi.NoteOnEvent(tick=4373800, channel=0, data=[4, 100]),
   midi.NoteOffEvent(tick=4373900, channel=0, data=[4, 0]),
   midi.NoteOnEvent(tick=4374000, channel=0, data=[36, 100]),
   midi.NoteOffEvent(tick=4374100, channel=0, data=[36, 0]),
   midi.NoteOnEvent(tick=4374200, channel=0, data=[0, 100]),
   midi.NoteOffEvent(tick=4374300, channel=0, data=[0, 0]),
   midi.NoteOnEvent(tick=4374400, channel=0, data=[36, 100]),
   midi.NoteOffEvent(tick=4374500, channel=0, data=[36, 0]),
   midi.NoteOnEvent(tick=4374600, channel=0, data=[45, 100]),
   midi.NoteOffEvent(tick=4374700, channel=0, data=[45, 0]),
   midi.NoteOnEvent(tick=4374800, channel=0, data=[21, 100]),
   midi.NoteOffEvent(tick=4374900, channel=0, data=[21, 0]),
   midi.NoteOnEvent(tick=4375000, channel=0, data=[0, 100]),
   midi.NoteOffEvent(tick=4375100, channel=0, data=[0, 0]),
   midi.NoteOnEvent(tick=4375200, channel=0, data=[11, 100]),
   midi.NoteOffEvent(tick=4375300, channel=0, data=[11, 0]),
   midi.NoteOnEvent(tick=4375400, channel=0, data=[20, 100]),
   midi.NoteOffEvent(tick=4375500, channel=0, data=[20, 0]),
   midi.NoteOnEvent(tick=4375600, channel=0, data=[4, 100]),
   midi.NoteOffEvent(tick=4375700, channel=0, data=[4, 0]),
   midi.NoteOnEvent(tick=4375800, channel=0, data=[36, 100]),
   midi.NoteOffEvent(tick=4375900, channel=0, data=[36, 0]),
   midi.NoteOnEvent(tick=4376000, channel=0, data=[27, 100]),
   midi.NoteOffEvent(tick=4376100, channel=0, data=[27, 0]),
   midi.NoteOnEvent(tick=4376200, channel=0, data=[38, 100]),
   midi.NoteOffEvent(tick=4376300, channel=0, data=[38, 0]),
   midi.NoteOnEvent(tick=4376400, channel=0, data=[36, 100]),
   midi.NoteOffEvent(tick=4376500, channel=0, data=[36, 0]),
   midi.NoteOnEvent(tick=4376600, channel=0, data=[28, 100]),
   midi.NoteOffEvent(tick=4376700, channel=0, data=[28, 0]),
   midi.NoteOnEvent(tick=4376800, channel=0, data=[38, 100]),
   midi.NoteOffEvent(tick=4376900, channel=0, data=[38, 0]),
   midi.NoteOnEvent(tick=4377000, channel=0, data=[36, 100]),
   midi.NoteOffEvent(tick=4377100, channel=0, data=[36, 0]),
   midi.NoteOnEvent(tick=4377200, channel=0, data=[29, 100]),
   midi.NoteOffEvent(tick=4377300, channel=0, data=[29, 0]),
   midi.NoteOnEvent(tick=4377400, channel=0, data=[36, 100]),
   midi.NoteOffEvent(tick=4377500, channel=0, data=[36, 0]),
   midi.NoteOnEvent(tick=4377600, channel=0, data=[56, 100]),
   midi.NoteOffEvent(tick=4377700, channel=0, data=[56, 0]),
   midi.NoteOnEvent(tick=4377800, channel=0, data=[56, 100]),
   midi.NoteOffEvent(tick=4377900, channel=0, data=[56, 0]),
   midi.NoteOnEvent(tick=4378000, channel=0, data=[18, 100]),
   midi.NoteOffEvent(tick=4378100, channel=0, data=[18, 0]),
   midi.NoteOnEvent(tick=4378200, channel=0, data=[4, 100]),
   midi.NoteOffEvent(tick=4378300, channel=0, data=[4, 0]),
   midi.NoteOnEvent(tick=4378400, channel=0, data=[4, 100]),
   midi.NoteOffEvent(tick=4378500, channel=0, data=[4, 0]),
   midi.NoteOnEvent(tick=4378600, channel=0, data=[36, 100]),
   midi.NoteOffEvent(tick=4378700, channel=0, data=[36, 0]),
   midi.NoteOnEvent(tick=4378800, channel=0, data=[0, 100]),
   midi.NoteOffEvent(tick=4378900, channel=0, data=[0, 0]),
   midi.NoteOnEvent(tick=4379000, channel=0, data=[11, 100]),
   midi.NoteOffEvent(tick=4379100, channel=0, data=[11, 0]),
   midi.NoteOnEvent(tick=4379200, channel=0, data=[18, 100]),
   midi.NoteOffEvent(tick=4379300, channel=0, data=[18, 0]),
   midi.NoteOnEvent(tick=4379400, channel=0, data=[14, 100]),
   midi.NoteOffEvent(tick=4379500, channel=0, data=[14, 0]),
   midi.NoteOnEvent(tick=4379600, channel=0, data=[56, 100]),
   midi.NoteOffEvent(tick=4379700, channel=0, data=[56, 0]),
   midi.NoteOnEvent(tick=4379800, channel=0, data=[36, 100]),
   midi.NoteOffEvent(tick=4379900, channel=0, data=[36, 0]),
   midi.NoteOnEvent(tick=4380000, channel=0, data=[36, 100]),
   midi.NoteOffEvent(tick=4380100, channel=0, data=[36, 0]),
   midi.NoteOnEvent(tick=4380200, channel=0, data=[36, 100]),
   midi.NoteOffEvent(tick=4380300, channel=0, data=[36, 0]),
   midi.NoteOnEvent(tick=4380400, channel=0, data=[36, 100]),
   midi.NoteOffEvent(tick=4380500, channel=0, data=[36, 0]),
   midi.NoteOnEvent(tick=4380600, channel=0, data=[0, 100]),
   midi.NoteOffEvent(tick=4380700, channel=0, data=[0, 0]),
   midi.NoteOnEvent(tick=4380800, channel=0, data=[1, 100]),
   midi.NoteOffEvent(tick=4380900, channel=0, data=[1, 0]),
   midi.NoteOnEvent(tick=4381000, channel=0, data=[14, 100]),
   midi.NoteOffEvent(tick=4381100, channel=0, data=[14, 0]),
   midi.NoteOnEvent(tick=4381200, channel=0, data=[20, 100]),
   midi.NoteOffEvent(tick=4381300, channel=0, data=[20, 0]),
   midi.NoteOnEvent(tick=4381400, channel=0, data=[19, 100]),
   midi.NoteOffEvent(tick=4381500, channel=0, data=[19, 0]),
   midi.NoteOnEvent(tick=4381600, channel=0, data=[68, 100]),
   midi.NoteOffEvent(tick=4381700, channel=0, data=[68, 0]),
   midi.NoteOnEvent(tick=4381800, channel=0, data=[0, 100]),
   midi.NoteOffEvent(tick=4381900, channel=0, data=[0, 0]),
   midi.NoteOnEvent(tick=4382000, channel=0, data=[17, 100]),
   midi.NoteOffEvent(tick=4382100, channel=0, data=[17, 0]),
   midi.NoteOnEvent(tick=4382200, channel=0, data=[17, 100]),
   midi.NoteOffEvent(tick=4382300, channel=0, data=[17, 0]),
   midi.NoteOnEvent(tick=4382400, channel=0, data=[0, 100]),
   midi.NoteOffEvent(tick=4382500, channel=0, data=[0, 0]),
   midi.NoteOnEvent(tick=4382600, channel=0, data=[24, 100]),
   midi.NoteOffEvent(tick=4382700, channel=0, data=[24, 0]),
   midi.NoteOnEvent(tick=4382800, channel=0, data=[18, 100]),
   midi.NoteOffEvent(tick=4382900, channel=0, data=[18, 0]),
   midi.NoteOnEvent(tick=4383000, channel=0, data=[56, 100]),
   midi.NoteOffEvent(tick=4383100, channel=0, data=[56, 0]),
   midi.NoteOnEvent(tick=4383200, channel=0, data=[36, 100]),
   midi.NoteOffEvent(tick=4383300, channel=0, data=[36, 0]),
   midi.NoteOnEvent(tick=4383400, channel=0, data=[36, 100]),
   midi.NoteOffEvent(tick=4383500, channel=0, data=[36, 0]),
   midi.NoteOnEvent(tick=4383600, channel=0, data=[36, 100]),
   midi.NoteOffEvent(tick=4383700, channel=0, data=[36, 0]),
   midi.NoteOnEvent(tick=4383800, channel=0, data=[36, 100]),
   midi.NoteOffEvent(tick=4383900, channel=0, data=[36, 0]),
   midi.NoteOnEvent(tick=4384000, channel=0, data=[0, 100]),
   midi.NoteOffEvent(tick=4384100, channel=0, data=[0, 0]),
   midi.NoteOnEvent(tick=4384200, channel=0, data=[1, 100]),
   midi.NoteOffEvent(tick=4384300, channel=0, data=[1, 0]),
   midi.NoteOnEvent(tick=4384400, channel=0, data=[14, 100]),
   midi.NoteOffEvent(tick=4384500, channel=0, data=[14, 0]),
   midi.NoteOnEvent(tick=4384600, channel=0, data=[20, 100]),
   midi.NoteOffEvent(tick=4384700, channel=0, data=[20, 0]),
   midi.NoteOnEvent(tick=4384800, channel=0, data=[19, 100]),
   midi.NoteOffEvent(tick=4384900, channel=0, data=[19, 0]),
   midi.NoteOnEvent(tick=4385000, channel=0, data=[68, 100]),
   midi.NoteOffEvent(tick=4385100, channel=0, data=[68, 0]),
   midi.NoteOnEvent(tick=4385200, channel=0, data=[7, 100]),
   midi.NoteOffEvent(tick=4385300, channel=0, data=[7, 0]),
   midi.NoteOnEvent(tick=4385400, channel=0, data=[0, 100]),
   midi.NoteOffEvent(tick=4385500, channel=0, data=[0, 0]),
   midi.NoteOnEvent(tick=4385600, channel=0, data=[18, 100]),
   midi.NoteOffEvent(tick=4385700, channel=0, data=[18, 0]),
   midi.NoteOnEvent(tick=4385800, channel=0, data=[7, 100]),
   midi.NoteOffEvent(tick=4385900, channel=0, data=[7, 0]),
   midi.NoteOnEvent(tick=4386000, channel=0, data=[68, 100]),
   midi.NoteOffEvent(tick=4386100, channel=0, data=[68, 0]),
   midi.NoteOnEvent(tick=4386200, channel=0, data=[19, 100]),
   midi.NoteOffEvent(tick=4386300, channel=0, data=[19, 0]),
   midi.NoteOnEvent(tick=4386400, channel=0, data=[0, 100]),
   midi.NoteOffEvent(tick=4386500, channel=0, data=[0, 0]),
   midi.NoteOnEvent(tick=4386600, channel=0, data=[1, 100]),
   midi.NoteOffEvent(tick=4386700, channel=0, data=[1, 0]),
   midi.NoteOnEvent(tick=4386800, channel=0, data=[11, 100]),
   midi.NoteOffEvent(tick=4386900, channel=0, data=[11, 0]),
   midi.NoteOnEvent(tick=4387000, channel=0, data=[4, 100]),
   midi.NoteOffEvent(tick=4387100, channel=0, data=[4, 0]),
   midi.NoteOnEvent(tick=4387200, channel=0, data=[18, 100]),
   midi.NoteOffEvent(tick=4387300, channel=0, data=[18, 0]),
   midi.NoteOnEvent(tick=4387400, channel=0, data=[56, 100]),
   midi.NoteOffEvent(tick=4387500, channel=0, data=[56, 0]),
   midi.NoteOnEvent(tick=4387600, channel=0, data=[36, 100]),
   midi.NoteOffEvent(tick=4387700, channel=0, data=[36, 0]),
   midi.NoteOnEvent(tick=4387800, channel=0, data=[36, 100]),
   midi.NoteOffEvent(tick=4387900, channel=0, data=[36, 0]),
   midi.NoteOnEvent(tick=4388000, channel=0, data=[36, 100]),
   midi.NoteOffEvent(tick=4388100, channel=0, data=[36, 0]),
   midi.NoteOnEvent(tick=4388200, channel=0, data=[36, 100]),
   midi.NoteOffEvent(tick=4388300, channel=0, data=[36, 0]),
   midi.NoteOnEvent(tick=4388400, channel=0, data=[0, 100]),
   midi.NoteOffEvent(tick=4388500, channel=0, data=[0, 0]),
   midi.NoteOnEvent(tick=4388600, channel=0, data=[1, 100]),
   midi.NoteOffEvent(tick=4388700, channel=0, data=[1, 0]),
   midi.NoteOnEvent(tick=4388800, channel=0, data=[14, 100]),
   midi.NoteOffEvent(tick=4388900, channel=0, data=[14, 0]),
   midi.NoteOnEvent(tick=4389000, channel=0, data=[20, 100]),
   midi.NoteOffEvent(tick=4389100, channel=0, data=[20, 0]),
   midi.NoteOnEvent(tick=4389200, channel=0, data=[19, 100]),
   midi.NoteOffEvent(tick=4389300, channel=0, data=[19, 0]),
   midi.NoteOnEvent(tick=4389400, channel=0, data=[68, 100]),
   midi.NoteOffEvent(tick=4389500, channel=0, data=[68, 0]),
   midi.NoteOnEvent(tick=4389600, channel=0, data=[21, 100]),
   midi.NoteOffEvent(tick=4389700, channel=0, data=[21, 0]),
   midi.NoteOnEvent(tick=4389800, channel=0, data=[0, 100]),
   midi.NoteOffEvent(tick=4389900, channel=0, data=[0, 0]),
   midi.NoteOnEvent(tick=4390000, channel=0, data=[17, 100]),
   midi.NoteOffEvent(tick=4390100, channel=0, data=[17, 0]),
   midi.NoteOnEvent(tick=4390200, channel=0, data=[8, 100]),
   midi.NoteOffEvent(tick=4390300, channel=0, data=[8, 0]),
   midi.NoteOnEvent(tick=4390400, channel=0, data=[0, 100]),
   midi.NoteOffEvent(tick=4390500, channel=0, data=[0, 0]),
   midi.NoteOnEvent(tick=4390600, channel=0, data=[1, 100]),
   midi.NoteOffEvent(tick=4390700, channel=0, data=[1, 0]),
   midi.NoteOnEvent(tick=4390800, channel=0, data=[11, 100]),
   midi.NoteOffEvent(tick=4390900, channel=0, data=[11, 0]),
   midi.NoteOnEvent(tick=4391000, channel=0, data=[4, 100]),
   midi.NoteOffEvent(tick=4391100, channel=0, data=[4, 0]),
   midi.NoteOnEvent(tick=4391200, channel=0, data=[18, 100]),
   midi.NoteOffEvent(tick=4391300, channel=0, data=[18, 0]),
   midi.NoteOnEvent(tick=4391400, channel=0, data=[56, 100]),
   midi.NoteOffEvent(tick=4391500, channel=0, data=[56, 0]),
   midi.NoteOnEvent(tick=4391600, channel=0, data=[36, 100]),
   midi.NoteOffEvent(tick=4391700, channel=0, data=[36, 0]),
   midi.NoteOnEvent(tick=4391800, channel=0, data=[36, 100]),
   midi.NoteOffEvent(tick=4391900, channel=0, data=[36, 0]),
   midi.NoteOnEvent(tick=4392000, channel=0, data=[36, 100]),
   midi.NoteOffEvent(tick=4392100, channel=0, data=[36, 0]),
   midi.NoteOnEvent(tick=4392200, channel=0, data=[36, 100]),
   midi.NoteOffEvent(tick=4392300, channel=0, data=[36, 0]),
   midi.NoteOnEvent(tick=4392400, channel=0, data=[2, 100]),
   midi.NoteOffEvent(tick=4392500, channel=0, data=[2, 0]),
   midi.NoteOnEvent(tick=4392600, channel=0, data=[11, 100]),
   midi.NoteOffEvent(tick=4392700, channel=0, data=[11, 0]),
   midi.NoteOnEvent(tick=4392800, channel=0, data=[4, 100]),
   midi.NoteOffEvent(tick=4392900, channel=0, data=[4, 0]),
   midi.NoteOnEvent(tick=4393000, channel=0, data=[0, 100]),
   midi.NoteOffEvent(tick=4393100, channel=0, data=[0, 0]),
   midi.NoteOnEvent(tick=4393200, channel=0, data=[17, 100]),
   midi.NoteOffEvent(tick=4393300, channel=0, data=[17, 0]),
   midi.NoteOnEvent(tick=4393400, channel=0, data=[45, 100]),
   midi.NoteOffEvent(tick=4393500, channel=0, data=[45, 0]),
   midi.NoteOnEvent(tick=4393600, channel=0, data=[21, 100]),
   midi.NoteOffEvent(tick=4393700, channel=0, data=[21, 0]),
   midi.NoteOnEvent(tick=4393800, channel=0, data=[0, 100]),
   midi.NoteOffEvent(tick=4393900, channel=0, data=[0, 0]),
   midi.NoteOnEvent(tick=4394000, channel=0, data=[17, 100]),
   midi.NoteOffEvent(tick=4394100, channel=0, data=[17, 0]),
   midi.NoteOnEvent(tick=4394200, channel=0, data=[8, 100]),
   midi.NoteOffEvent(tick=4394300, channel=0, data=[8, 0]),
   midi.NoteOnEvent(tick=4394400, channel=0, data=[0, 100]),
   midi.NoteOffEvent(tick=4394500, channel=0, data=[0, 0]),
   midi.NoteOnEvent(tick=4394600, channel=0, data=[1, 100]),
   midi.NoteOffEvent(tick=4394700, channel=0, data=[1, 0]),
   midi.NoteOnEvent(tick=4394800, channel=0, data=[11, 100]),
   midi.NoteOffEvent(tick=4394900, channel=0, data=[11, 0]),
   midi.NoteOnEvent(tick=4395000, channel=0, data=[4, 100]),
   midi.NoteOffEvent(tick=4395100, channel=0, data=[4, 0]),
   midi.NoteOnEvent(tick=4395200, channel=0, data=[56, 100]),
   midi.NoteOffEvent(tick=4395300, channel=0, data=[56, 0]),
   midi.NoteOnEvent(tick=4395400, channel=0, data=[36, 100]),
   midi.NoteOffEvent(tick=4395500, channel=0, data=[36, 0]),
   midi.NoteOnEvent(tick=4395600, channel=0, data=[36, 100]),
   midi.NoteOffEvent(tick=4395700, channel=0, data=[36, 0]),
   midi.NoteOnEvent(tick=4395800, channel=0, data=[36, 100]),
   midi.NoteOffEvent(tick=4395900, channel=0, data=[36, 0]),
   midi.NoteOnEvent(tick=4396000, channel=0, data=[36, 100]),
   midi.NoteOffEvent(tick=4396100, channel=0, data=[36, 0]),
   midi.NoteOnEvent(tick=4396200, channel=0, data=[17, 100]),
   midi.NoteOffEvent(tick=4396300, channel=0, data=[17, 0]),
   midi.NoteOnEvent(tick=4396400, channel=0, data=[4, 100]),
   midi.NoteOffEvent(tick=4396500, channel=0, data=[4, 0]),
   midi.NoteOnEvent(tick=4396600, channel=0, data=[12, 100]),
   midi.NoteOffEvent(tick=4396700, channel=0, data=[12, 0]),
   midi.NoteOnEvent(tick=4396800, channel=0, data=[14, 100]),
   midi.NoteOffEvent(tick=4396900, channel=0, data=[14, 0]),
   midi.NoteOnEvent(tick=4397000, channel=0, data=[21, 100]),
   midi.NoteOffEvent(tick=4397100, channel=0, data=[21, 0]),
   midi.NoteOnEvent(tick=4397200, channel=0, data=[4, 100]),
   midi.NoteOffEvent(tick=4397300, channel=0, data=[4, 0]),
   midi.NoteOnEvent(tick=4397400, channel=0, data=[45, 100]),
   midi.NoteOffEvent(tick=4397500, channel=0, data=[45, 0]),
   midi.NoteOnEvent(tick=4397600, channel=0, data=[21, 100]),
   midi.NoteOffEvent(tick=4397700, channel=0, data=[21, 0]),
   midi.NoteOnEvent(tick=4397800, channel=0, data=[0, 100]),
   midi.NoteOffEvent(tick=4397900, channel=0, data=[0, 0]),
   midi.NoteOnEvent(tick=4398000, channel=0, data=[17, 100]),
   midi.NoteOffEvent(tick=4398100, channel=0, data=[17, 0]),
   midi.NoteOnEvent(tick=4398200, channel=0, data=[8, 100]),
   midi.NoteOffEvent(tick=4398300, channel=0, data=[8, 0]),
   midi.NoteOnEvent(tick=4398400, channel=0, data=[0, 100]),
   midi.NoteOffEvent(tick=4398500, channel=0, data=[0, 0]),
   midi.NoteOnEvent(tick=4398600, channel=0, data=[1, 100]),
   midi.NoteOffEvent(tick=4398700, channel=0, data=[1, 0]),
   midi.NoteOnEvent(tick=4398800, channel=0, data=[11, 100]),
   midi.NoteOffEvent(tick=4398900, channel=0, data=[11, 0]),
   midi.NoteOnEvent(tick=4399000, channel=0, data=[4, 100]),
   midi.NoteOffEvent(tick=4399100, channel=0, data=[4, 0]),
   midi.NoteOnEvent(tick=4399200, channel=0, data=[56, 100]),
   midi.NoteOffEvent(tick=4399300, channel=0, data=[56, 0]),
   midi.NoteOnEvent(tick=4399400, channel=0, data=[36, 100]),
   midi.NoteOffEvent(tick=4399500, channel=0, data=[36, 0]),
   midi.NoteOnEvent(tick=4399600, channel=0, data=[36, 100]),
   midi.NoteOffEvent(tick=4399700, channel=0, data=[36, 0]),
   midi.NoteOnEvent(tick=4399800, channel=0, data=[36, 100]),
   midi.NoteOffEvent(tick=4399900, channel=0, data=[36, 0]),
   midi.NoteOnEvent(tick=4400000, channel=0, data=[36, 100]),
   midi.NoteOffEvent(tick=4400100, channel=0, data=[36, 0]),
   midi.NoteOnEvent(tick=4400200, channel=0, data=[18, 100]),
   midi.NoteOffEvent(tick=4400300, channel=0, data=[18, 0]),
   midi.NoteOnEvent(tick=4400400, channel=0, data=[4, 100]),
   midi.NoteOffEvent(tick=4400500, channel=0, data=[4, 0]),
   midi.NoteOnEvent(tick=4400600, channel=0, data=[19, 100]),
   midi.NoteOffEvent(tick=4400700, channel=0, data=[19, 0]),
   midi.NoteOnEvent(tick=4400800, channel=0, data=[45, 100]),
   midi.NoteOffEvent(tick=4400900, channel=0, data=[45, 0]),
   midi.NoteOnEvent(tick=4401000, channel=0, data=[21, 100]),
   midi.NoteOffEvent(tick=4401100, channel=0, data=[21, 0]),
   midi.NoteOnEvent(tick=4401200, channel=0, data=[0, 100]),
   midi.NoteOffEvent(tick=4401300, channel=0, data=[0, 0]),
   midi.NoteOnEvent(tick=4401400, channel=0, data=[17, 100]),
   midi.NoteOffEvent(tick=4401500, channel=0, data=[17, 0]),
   midi.NoteOnEvent(tick=4401600, channel=0, data=[8, 100]),
   midi.NoteOffEvent(tick=4401700, channel=0, data=[8, 0]),
   midi.NoteOnEvent(tick=4401800, channel=0, data=[0, 100]),
   midi.NoteOffEvent(tick=4401900, channel=0, data=[0, 0]),
   midi.NoteOnEvent(tick=4402000, channel=0, data=[1, 100]),
   midi.NoteOffEvent(tick=4402100, channel=0, data=[1, 0]),
   midi.NoteOnEvent(tick=4402200, channel=0, data=[11, 100]),
   midi.NoteOffEvent(tick=4402300, channel=0, data=[11, 0]),
   midi.NoteOnEvent(tick=4402400, channel=0, data=[4, 100]),
   midi.NoteOffEvent(tick=4402500, channel=0, data=[4, 0]),
   midi.NoteOnEvent(tick=4402600, channel=0, data=[56, 100]),
   midi.NoteOffEvent(tick=4402700, channel=0, data=[56, 0]),
   midi.EndOfTrackEvent(tick=1, data=[])])])